<svg xmlns="http://www.w3.org/2000/svg" viewBox="0 0 1000 500"><path fill="#357" d="M240 231c0 14 3 28 10 41 20 42 67 66 115 60 51-6 91-49 95-100 2-46-22-89-64-108a98 98 0 0 0-90 1c-3 2-4 3-4 6l1 52v4l1 1 1-3c16-20 49-27 74-14 24 12 35 38 29 66s-28 47-54 49c-33 2-67-24-66-62l1-144V44h-49v187zM28 282c27 48 91 65 139 45 3-1 3-3 3-6l1-51-1-5-5 4a63 63 0 0 1-52 15c-28-5-51-34-49-62 1-34 28-59 62-58 30 0 59 24 59 58l-1 98v6h51v-6l-1-99c0-11-1-22-5-32-15-48-64-79-114-74-49 5-86 37-97 85l-3 12v26l1 4c2 14 5 28 12 40zm677-157v121c0 22-15 36-37 35-16-1-29-16-29-31l-1-33v-99h-54v135c-2 17-18 29-37 28-15-1-27-15-27-32V118l-6-1h-42c-7 0-7 0-7 7v119l1 13c7 52 57 85 107 74 14-4 26-11 37-20 20 18 43 24 69 21 45-5 78-42 78-88l1-120v-5h-53v7zm279 87c-8-58-68-110-136-94-58 14-96 73-83 131a111 111 0 0 0 207 25l6-12h-52l-3 2a63 63 0 0 1-64 20c-32-7-54-40-46-72 8-37 48-57 85-44 17 7 29 20 35 39h-87c-6 0-9 2-9 8v21c1 8 4 10 11 10h131c4 0 6-2 6-6 0-9 1-18-1-28zM44 372h8v63h-8v-63zm41 63v-63h8l28 35 11 14v-49h9v63h-9l-27-35-11-15h-1l1 18-1 32h-8zm105-55l-22-1v-7h53v8l-23-1v56h-8v-55zm58-8h38v8h-29l-1 19h26v7h-26v22h30v7h-38v-63zm68 0h18c7 1 13 1 18 4 6 3 9 7 9 14s-3 12-8 15l-8 3 21 28h-10l-20-27h-11v27h-9v-64zm20 30c6 0 10-1 13-3 2-2 4-4 4-8s-2-7-6-9c-3-2-7-2-14-2h-8v22h11zm57 34v-63h8l27 35 12 14v-49h8v63h-8l-28-35-11-15v50h-8zm108-63h8l28 63h-10l-7-18h-30l-7 18h-9l27-63zm-8 38h24l-6-13-6-15-6 15-6 13zm78-30h-22v-8h52v8h-22v55h-9l1-55zm58-8h8v63h-9l1-63zm71 0c19 0 33 14 33 32s-14 32-33 32-34-14-34-32 15-32 34-32zm0 57c14 0 24-11 24-25s-10-25-24-25c-15 0-25 11-25 25s10 25 25 25zm62 7v-63h9l27 35 11 14v-49h9v63h-9l-27-35-11-15h-1v50h-8zm109-63h8l27 63h-9l-8-18h-29l-8 18h-9l28-63zm-8 38h23l-5-13-6-15-7 15-5 13zm69-38h8v56h31v7h-39v-63z"/></svg>
