<svg xmlns="http://www.w3.org/2000/svg" viewBox="0 0 600 600"><g><path fill="#1f3a97" d="M158.6 241C290.9 96.3 457.7 21.8 511.4 70.9c19 17.3 16.2 56.7-1 106.7 31.7-70.5 37-128.4 8.1-154.9-53.7-49-204.5 28.5-336.8 173.2-42.8 46.8-78.4 94.9-105.2 140.3 25.3-31.4 53.2-63.6 82.1-95.2zM369.1 358.6C235 492.5 75 553.7 29.7 500.6c-16-18.7-10.2-57.8 9.9-106.3C4.4 462.1-5.3 519.4 19.2 548c45.3 53.1 190.8-12.5 324.9-146.4 43.4-43.3 81.2-88.5 109.7-131.6-26 29.4-55.4 59.3-84.7 88.6z"/></g><path d="M427.8 148.9S369.1 100.3 221 253.7c-160.2 166-75.7 199.5-26.2 176.2 49.5-23.3 52.4-24.8 52.4-24.8S123.4 491 88.5 451.7s48.1-155.8 88.8-193.7 115.4-111 170.4-126.6c77.2-21.9 80.1 17.5 80.1 17.5z" fill="#e32927"/><path d="M427.8 157.6s20.4 27.7-13.1 88.8-161.6 158.8-155.8 202.4c5.8 43.7 24.8 61.2 43.7 69.9 18.9 8.7 39.3 8.7 39.3 8.7s4.4 0 4.4 4.4-4.4 4.4-4.4 4.4-96.1-16-97.6-90.3 48.1-101.9 88.8-144.2c38.3-39.7 72.7-85.7 84-116.5 1.1-3 1.9-6 2.5-9.1 1.4-6.9 4.8-21.9 8.2-18.5z" fill="#e32a28"/><g><path stroke="#fff" stroke-width=".5" stroke-miterlimit="10" d="M331.6 347.6h-18l-5.2-4.9h-26.1l-5.2 4.9h-17.9l26.7-22h19.6l26.1 22zm-27.1-8.7l-7.9-7.4c-.6-.6-1-1.2-1.2-2h-.4c-.2.6-.6 1.3-1.3 1.9l-8 7.5h18.8zM424.4 347.6h-16.3v-13.2c0-1.4.2-3 .6-4.7h-.4c-.9 1.4-1.6 2.3-2.3 2.9l-17.2 15h-13.5l-17.5-14.8c-.5-.4-1.2-1.4-2.3-3.1h-.5c.4 2.2.7 4.1.7 5.7v12.2h-14.9v-22H365l15 13.1c1.2 1 2.1 2.1 2.6 3.1h.3c.9-1.2 1.9-2.3 2.9-3.2l15-13h23.6v22zM463.8 325.6v3.8h-6.1v14.3h6.1v3.8H435v-3.8h6.1v-14.3H435v-3.8h28.8zM525.9 329.6H505v18h-16.6v-18h-20.8v-4H526v4zM591.1 325.6l-23.9 14.2v7.8h-16.5v-7.7l-23.3-14.3h18.9l11.8 8.2c.2.2.8.8 1.7 1.8h.2c.4-.7 1-1.3 1.6-1.7l12-8.3h17.5z"/></g></svg>
