<svg id="Layer_1" xmlns="http://www.w3.org/2000/svg" viewBox="0 0 500 500"><path fill="#fcb963" d="M61.35 241.54c-3.29-14.35-4.04-28.71-.15-43.36 5.38-19.74 17.79-33.94 33.64-45.9 13.61-10.32 28.56-17.94 43.81-25.42 18.09-8.97 36.93-16.6 54.13-27.21 10.91-6.73 20.93-14.35 26.76-26.17.75-1.5 1.35-2.99 2.09-4.49.3 0 .6 0 .6.15 4.34 11.51 13.46 18.39 23.32 24.37 11.66 7.18 24.22 12.71 36.78 18.24 13.31 5.83 26.61 11.81 39.47 18.69 9.72 5.23 19.14 10.77 28.11 17.34 10.77 7.77 20.48 16.9 28.56 27.36 5.23 6.88 9.57 14.35 13.16 22.28 9.27 20.78 10.91 42.61 10.02 64.89-.15 5.83-2.24 7.92-7.33 9.27-5.08 1.35-10.02 3.74-14.95 5.53-3.89 1.5-4.34 1.05-4.34-2.99 0-9.12.15-18.24 0-27.36-.3-19.89-5.83-38.13-16.3-55.02-8.37-13.46-19.29-24.22-31.7-33.64-16.15-12.41-34.24-21.68-52.63-30.65-14.05-6.88-28.26-13.31-40.97-22.58-5.83-4.34-11.06-9.42-13.46-16.6-.75-2.39-1.64-2.84-3.29-.75-10.91 13.46-25.72 21.23-40.97 28.56-18.24 8.67-37.08 16-54.87 25.72-15.7 8.52-29.9 18.69-40.97 32.89-9.27 11.96-14.65 25.57-16.9 40.37-1.32 8.99-1.17 17.66-1.62 26.48z"/><path fill="#d3682a" d="M343.49 386.88c-11.36 10.47-22.58 20.93-33.94 31.4-10.62 9.87-23.77 13.31-37.83 14.35-20.93 1.5-41.27-1.79-61.75-5.38-18.99-3.14-37.98-7.33-57.27-8.67-13.31-.9-26.61-1.2-39.02 4.93-1.79.9-3.44 1.94-5.53 2.99-.15-1.94.9-2.99 1.64-4.19 6.58-10.62 14.35-20.33 23.47-28.86 3.29-3.14 6.58-3.89 11.21-2.54 31.1 9.12 62.95 13.46 95.39 13.01 33.94-.45 66.83-6.43 98.83-18.09 1.05-.45 2.24-.75 3.29-1.05 1.21.3 2.56.45 1.51 2.1z"/><path fill="#fcb963" d="M401.36 368.04v47.7c0 2.54-.6 3.74-3.29 3.74h-54.43c-3.59 0-4.64-1.35-2.69-4.49 3.59-6.13 7.48-11.96 12.41-17.19 4.04-4.34 8.97-5.23 14.5-4.93.3 0 .45.15.75.15 5.53.45 6.28-.15 6.28-5.68V338.6c0-2.69.9-4.49 2.99-5.98 6.43-4.49 12.86-9.12 19.44-13.61 1.05-.75 2.24-1.94 3.44-1.35 1.35.6.6 2.39.6 3.59v46.79z"/><path fill="#d3682a" d="M470.58 172.17c0 6.28 3.14 10.62 6.73 14.65 4.34 4.78 9.12 9.27 13.46 14.05 3.89 4.34 5.53 5.83 1.2 11.81-5.08 7.03-9.27 14.8-14.05 22.43-3.59-7.77-10.47-12.56-16-18.54-2.99-3.14-5.98-6.43-8.37-10.17-2.84-4.49-2.84-8.82.15-13.31 4.92-7.17 11.05-13.74 16.88-20.92z"/><path d="M343.49 386.88c.15-1.05-1.05-1.35-1.35-2.09 1.94-.9 3.89-1.79 5.83-2.69-1.19 2.09-2.08 4.03-4.48 4.78z" fill="#c28f6d"/><path fill="#d3682a" d="M467.44 252.46c-2.24.45-4.49 1.05-6.73 1.64-26.46 7.03-50.69 19.14-74.76 31.85-16.45 8.52-32.45 17.64-49.19 25.57-2.39 1.05-4.49 2.39-4.49-1.94 0-1.94-1.79-3.29-3.14-4.64a37.619 37.619 0 0 0-8.22-5.53c-14.35-7.03-29.6-11.21-44.86-15.7-16.15-4.78-32.45-8.52-48.44-13.91-3.29-1.05-5.53-5.23-9.27-3.89-3.59 1.2-6.58 3.59-9.87 5.53-.3.15-.6.45-.9.6-21.83 12.41-43.51 24.97-65.94 36.63-3.44 1.79-5.68 1.2-7.92-1.5-4.19-4.93-8.67-9.72-12.86-14.8-7.92-9.42-15.1-19.44-24.67-27.51-10.62-8.97-22.73-12.56-36.03-7.92-21.38 7.48-38.28 20.78-48.89 40.97-11.06 20.93-5.53 43.36 13.46 57.42 8.97 6.58 19.14 10.17 29.9 12.41 2.54.45 4.34.15 6.13-1.5 3.74-3.29 7.63-6.28 11.81-9.12 4.78-3.14 9.72-6.13 14.8-9.42-1.2-.45-2.09-.75-2.84-.9-12.11-2.24-23.77-6.28-34.84-11.96-9.87-5.08-19.29-10.77-26.32-19.59-2.69-3.44-4.04-7.03-2.99-11.51 1.5-5.83 3.89-11.21 7.63-15.85 10.62-13.61 24.52-15.4 38.28-5.23 7.33 5.38 12.86 12.56 18.09 19.89 11.21 15.4 21.08 31.85 33.34 46.5 12.71 14.95 27.21 27.51 45.45 34.99 32.15 13.16 64.89 12.71 97.64 2.54 28.71-8.97 54.13-24.52 78.5-41.72 25.72-18.24 49.94-38.43 75.51-56.97 18.54-13.46 37.83-25.72 59.66-33.34 6.28-2.24 11.51-3.14 17.49-4.04-6.27-.44-18.24.16-24.52 1.95zm-186.15 87.92c-16.9 9.42-34.54 16.3-53.08 16.15-20.48.15-37.98-6.58-54.57-16-8.37-4.78-16.3-10.62-24.07-16.45-1.94-1.5-2.39-2.24 0-3.89 11.51-8.07 23.92-14.5 36.78-20.04 1.2-.45 2.09-.75 3.44-.45 27.81 8.97 55.47 17.79 82.09 29.9 3.44 1.64 6.73 3.44 9.72 5.83 2.68 2.11 2.68 3.3-.31 4.95z"/></svg>
