<svg id="Layer_1" xmlns="http://www.w3.org/2000/svg" viewBox="0 0 1000 500"><path fill="#fcb963" d="M53.3 233.6c-2.2-9.6-2.7-19.2-.1-29 3.6-13.2 11.9-22.7 22.5-30.7 9.1-6.9 19.1-12 29.3-17 12.1-6 24.7-11.1 36.2-18.2 7.3-4.5 14-9.6 17.9-17.5.5-1 .9-2 1.4-3 .2 0 .4 0 .4.1 2.9 7.7 9 12.3 15.6 16.3 7.8 4.8 16.2 8.5 24.6 12.2 8.9 3.9 17.8 7.9 26.4 12.5 6.5 3.5 12.8 7.2 18.8 11.6 7.2 5.2 13.7 11.3 19.1 18.3 3.5 4.6 6.4 9.6 8.8 14.9 6.2 13.9 7.3 28.5 6.7 43.4-.1 3.9-1.5 5.3-4.9 6.2-3.4.9-6.7 2.5-10 3.7-2.6 1-2.9.7-2.9-2 0-6.1.1-12.2 0-18.3-.2-13.3-3.9-25.5-10.9-36.8-5.6-9-12.9-16.2-21.2-22.5-10.8-8.3-22.9-14.5-35.2-20.5-9.4-4.6-18.9-8.9-27.4-15.1-3.9-2.9-7.4-6.3-9-11.1-.5-1.6-1.1-1.9-2.2-.5-7.3 9-17.2 14.2-27.4 19.1-12.2 5.8-24.8 10.7-36.7 17.2-10.5 5.7-20 12.5-27.4 22-6.2 8-9.8 17.1-11.3 27-.9 6-.8 11.8-1.1 17.7z"/><path fill="#d3682a" d="M242 330.8c-7.6 7-15.1 14-22.7 21-7.1 6.6-15.9 8.9-25.3 9.6-14 1-27.6-1.2-41.3-3.6-12.7-2.1-25.4-4.9-38.3-5.8-8.9-.6-17.8-.8-26.1 3.3-1.2.6-2.3 1.3-3.7 2-.1-1.3.6-2 1.1-2.8 4.4-7.1 9.6-13.6 15.7-19.3 2.2-2.1 4.4-2.6 7.5-1.7 20.8 6.1 42.1 9 63.8 8.7 22.7-.3 44.7-4.3 66.1-12.1.7-.3 1.5-.5 2.2-.7.8.2 1.7.3 1 1.4z"/><path fill="#fcb963" d="M280.7 318.2v31.9c0 1.7-.4 2.5-2.2 2.5H242.1c-2.4 0-3.1-.9-1.8-3 2.4-4.1 5-8 8.3-11.5 2.7-2.9 6-3.5 9.7-3.3.2 0 .3.1.5.1 3.7.3 4.2-.1 4.2-3.8v-32.6c0-1.8.6-3 2-4 4.3-3 8.6-6.1 13-9.1.7-.5 1.5-1.3 2.3-.9.9.4.4 1.6.4 2.4v31.3z"/><path fill="#d3682a" d="M327 187.2c0 4.2 2.1 7.1 4.5 9.8 2.9 3.2 6.1 6.2 9 9.4 2.6 2.9 3.7 3.9.8 7.9-3.4 4.7-6.2 9.9-9.4 15-2.4-5.2-7-8.4-10.7-12.4-2-2.1-4-4.3-5.6-6.8-1.9-3-1.9-5.9.1-8.9 3.3-4.8 7.4-9.2 11.3-14z"/><path d="M242 330.8c.1-.7-.7-.9-.9-1.4l3.9-1.8c-.8 1.4-1.4 2.7-3 3.2z" fill="#c28f6d"/><path fill="#d3682a" d="M324.9 240.9c-1.5.3-3 .7-4.5 1.1-17.7 4.7-33.9 12.8-50 21.3-11 5.7-21.7 11.8-32.9 17.1-1.6.7-3 1.6-3-1.3 0-1.3-1.2-2.2-2.1-3.1-1.7-1.5-3.5-2.7-5.5-3.7-9.6-4.7-19.8-7.5-30-10.5-10.8-3.2-21.7-5.7-32.4-9.3-2.2-.7-3.7-3.5-6.2-2.6-2.4.8-4.4 2.4-6.6 3.7-.2.1-.4.3-.6.4-14.6 8.3-29.1 16.7-44.1 24.5-2.3 1.2-3.8.8-5.3-1-2.8-3.3-5.8-6.5-8.6-9.9-5.3-6.3-10.1-13-16.5-18.4-7.1-6-15.2-8.4-24.1-5.3-14.3 5-25.6 13.9-32.7 27.4-7.4 14-3.7 29 9 38.4 6 4.4 12.8 6.8 20 8.3 1.7.3 2.9.1 4.1-1 2.5-2.2 5.1-4.2 7.9-6.1 3.2-2.1 6.5-4.1 9.9-6.3-.8-.3-1.4-.5-1.9-.6-8.1-1.5-15.9-4.2-23.3-8-6.6-3.4-12.9-7.2-17.6-13.1-1.8-2.3-2.7-4.7-2-7.7 1-3.9 2.6-7.5 5.1-10.6 7.1-9.1 16.4-10.3 25.6-3.5 4.9 3.6 8.6 8.4 12.1 13.3 7.5 10.3 14.1 21.3 22.3 31.1 8.5 10 18.2 18.4 30.4 23.4 21.5 8.8 43.4 8.5 65.3 1.7 19.2-6 36.2-16.4 52.5-27.9 17.2-12.2 33.4-25.7 50.5-38.1 12.4-9 25.3-17.2 39.9-22.3 4.2-1.5 7.7-2.1 11.7-2.7-4.2-.3-12.2.1-16.4 1.3zm-124.5 58.8c-11.3 6.3-23.1 10.9-35.5 10.8-13.7.1-25.4-4.4-36.5-10.7-5.6-3.2-10.9-7.1-16.1-11-1.3-1-1.6-1.5 0-2.6 7.7-5.4 16-9.7 24.6-13.4.8-.3 1.4-.5 2.3-.3 18.6 6 37.1 11.9 54.9 20 2.3 1.1 4.5 2.3 6.5 3.9 1.8 1.4 1.8 2.2-.2 3.3z"/><g><path fill="#d3682a" d="M402.1 217.3c-.4 0-.6.2-.8.7l-4.7 11.8c-.9 2.2-1.3 4.2-1.3 5.3 0 1.6.8 2.7 3.5 2.7h1.3c1 0 1.3.2 1.3.7 0 .7-.5.9-1.5.9-2.8 0-6.5-.3-9.1-.3-.9 0-5.7.3-10.2.3-1.1 0-1.6-.2-1.6-.9 0-.5.3-.7 1-.7.8 0 2-.1 2.7-.2 4-.5 5.6-3.5 7.3-7.8l21.7-53.5c1-2.5 1.6-3.5 2.4-3.5.8 0 1.3.8 2.2 2.8 2.1 4.7 15.9 39.3 21.4 52.4 3.3 7.8 5.8 9 7.6 9.4 1.3.3 2.6.3 3.6.3.7 0 1.1.1 1.1.7 0 .7-.8.9-4 .9-3.1 0-9.4 0-16.3-.2-1.6-.1-2.6-.1-2.6-.7 0-.5.3-.7 1.2-.8.6-.2 1.2-.9.8-2l-6.9-17.8c-.2-.4-.4-.6-.9-.6h-19.2zm17.6-4.3c.4 0 .5-.3.4-.5l-7.8-21.2c-.1-.3-.2-.8-.4-.8-.3 0-.4.4-.5.8l-7.9 21.1c-.1.3 0 .6.3.6h15.9zM457.3 205c0-11.1 0-13.2-.1-15.5-.2-2.5-.9-3.3-3.3-4-.6-.2-1.9-.3-3-.3-.8 0-1.3-.3-1.3-.8s.6-.7 1.7-.7c4 0 8.8.2 10.4.2 2.6 0 9.5-.2 11.8-.2 4.8 0 10.4.4 14.4 3.1 2.2 1.5 5.4 5.2 5.4 10.1 0 5.4-3.1 10.3-10.5 16.2 6.7 8.3 12.1 14.9 16.7 19.5 4.2 4.2 6.9 4.6 8.1 4.8.8.2 1.2.2 1.8.2.6 0 .9.4.9.8 0 .6-.5.8-1.5.8h-7.2c-4.2 0-6.3-.4-8.3-1.5-3.3-1.6-6.1-5.1-10.4-10.8-3-4-6.2-8.9-7.2-10-.4-.4-.9-.5-1.4-.5l-6.8-.2c-.3 0-.6.2-.6.6v1c0 6.8.1 12.5.4 15.6.3 2.2.6 3.5 2.9 3.9 1.1.2 2.8.3 3.7.3.6 0 .9.4.9.8 0 .5-.6.8-1.6.8-4.4 0-10.7-.3-11.8-.3-1.5 0-6.3.3-9.3.3-.9 0-1.5-.3-1.5-.8 0-.3.3-.8 1.2-.8 1.1 0 2-.1 2.7-.3 1.6-.3 2-1.7 2.2-3.9.3-3.1.3-8.9.3-15.6V205zm9.7 5.7c0 .8.2 1 .7 1.3 1.6.5 3.9.7 5.8.7 3 0 4.1-.3 5.4-1.2 2.3-1.6 4.9-4.8 4.9-10.9 0-10.4-7.1-13-11.6-13-1.9 0-3.7.1-4.5.3-.5.2-.7.4-.7 1v21.8z"/><path fill="#d3682a" d="M519.8 220.7c-.4 0-.5.1-.7.5l-4.1 9.9c-.8 1.8-1.1 3.6-1.1 4.5 0 1.3.7 2.1 3 2.1h1.1c.9 0 1.1.3 1.1.8 0 .6-.4.8-1.2.8-2.5 0-6-.3-8.5-.3-.8 0-4.8.3-8.8.3-.9 0-1.4-.2-1.4-.8 0-.4.3-.8.9-.8.7 0 1.6-.1 2.2-.1 3.5-.5 4.7-2.8 6.3-6.5l19.8-45.8c.9-2.1 1.5-2.9 2.2-2.9 1.1 0 1.5.7 2.2 2.3 1.8 4.1 14.5 33.7 19.3 44.9 2.9 6.6 5.1 7.6 6.5 7.9 1.1.2 2 .3 2.8.3.7 0 1 .3 1 .8 0 .6-.4.8-3.3.8-2.7 0-8.2 0-14.6-.2-1.4-.1-2.2-.1-2.2-.6 0-.4.2-.7.9-.8.5-.1 1-.8.7-1.6l-5.9-14.8c-.2-.4-.4-.5-.8-.5h-17.4zm16.2-4c.3 0 .4-.2.3-.4l-7.2-18.4c-.1-.3-.2-.7-.3-.7-.3 0-.3.4-.4.7l-7.3 18.3c-.2.3 0 .5.3.5H536zM571.1 205c0-11.1 0-13.2-.1-15.5-.2-2.5-.9-3.3-3.3-4-.6-.2-1.9-.3-3-.3-.8 0-1.3-.3-1.3-.8s.6-.7 1.7-.7c4 0 8.8.2 10.3.2 3.8 0 8.8-.2 11.4-.2 13.7 0 16.1 7.1 16.1 11 0 5.7-4.2 10.1-8.5 12.9 6.2 2 14 7.2 14 15.9 0 7.9-6.2 16-20.2 16-.9 0-3.5-.1-6-.3-2.6-.1-5.3-.2-6.5-.2-.9 0-2.5.1-4.3.1-1.8.1-3.7.2-5.3.2-.9 0-1.5-.3-1.5-.8 0-.3.3-.8 1.2-.8 1.1 0 2-.1 2.7-.3 1.6-.3 2-1.7 2.2-3.9.3-3.1.3-8.9.3-15.6V205zm9.8 1.3c0 .6.3.7.5.8.7.2 1.8.3 3.5.3 2.5 0 4.7-.3 6-1.3 2-1.6 3.5-4.2 3.5-7.8 0-4.9-2.9-11-9.5-11-1 0-2.5 0-3.3.2-.5.1-.7.4-.7 1.2v17.6zm0 21.5c0 4.8.3 6.3 2.7 7.2 2 .8 3.7.9 5.4.9 4.1 0 9.3-2.2 9.3-10.4 0-3.4-1.5-9.1-7.2-13-1.6-1.1-3.6-1.9-6.6-1.9h-3.3c-.3 0-.4.1-.4.5v16.7zM622.8 205c0-11.1 0-13.2-.1-15.5-.2-2.5-.9-3.4-2.6-3.9-.9-.3-1.8-.3-2.8-.3-.8 0-1.2-.2-1.2-.9 0-.4.6-.6 1.8-.6 2.8 0 8 .2 10.2.2 1.9 0 6.8-.2 9.8-.2.9 0 1.6.2 1.6.6 0 .7-.4.9-1.2.9-.8 0-1.4.1-2.2.3-2.1.3-2.7 1.4-2.8 4-.2 2.3-.2 4.4-.2 15.5V218c0 7.1 0 12.9.3 16 .3 2 .8 3.1 3 3.5 1 .2 2.8.3 3.9.3.9 0 1.2.4 1.2.8 0 .5-.6.8-1.5.8-5 0-10.2-.3-12.3-.3-1.7 0-6.9.3-9.9.3-.9 0-1.5-.3-1.5-.8 0-.3.3-.8 1.2-.8 1.1 0 2-.1 2.7-.3 1.6-.3 2-1.4 2.2-3.5.3-3 .3-8.9.3-16v-13zM658.3 232.3c-7.5-6.3-9.5-14.6-9.5-21.7 0-5 1.6-13.6 8.9-20.1 5.5-4.8 12.8-7.8 24.1-7.8 4.7 0 7.6.3 11 .8 2.8.4 5.3.9 7.6 1.2.9.1 1.1.4 1.1.9 0 .6-.2 1.5-.3 4.1-.2 2.4-.2 6.5-.3 7.9-.1 1-.3 1.8-1 1.8-.6 0-.8-.6-.8-1.6-.1-2.3-1-4.9-2.9-6.8-2.6-2.5-7.7-4.3-14.7-4.3-6.6 0-10.9 1.2-14.3 4.1-5.6 4.8-7 11.9-7 19.1 0 17.4 13.5 25.7 23.6 25.7 6.7 0 10.4-.5 13.5-3.9 1.3-1.5 2.3-3.5 2.6-4.9.2-1.1.3-1.5.9-1.5.5 0 .9.7.9 1.3 0 .9-.9 7.2-1.6 9.8-.3 1.3-.7 1.6-2 2.2-3 1.2-8.8 1.6-13.7 1.6-10.4 0-19.2-2.1-26.1-7.9zM745.5 199.1c0-13.1 0-15.5-.2-18.3-.2-2.9-.9-4.3-3.7-4.9-.7-.2-2.2-.3-3.4-.3-.9 0-1.5-.2-1.5-.8 0-.6.6-.8 1.9-.8 4.6 0 10 .3 11.7.3 4.2 0 7.6-.3 10.5-.3 15.6 0 18.4 8.4 18.4 12.9 0 7.1-4.1 11.3-8.8 15.1 7.1 2.4 15.7 8.5 15.7 18.6 0 9.2-7.2 18.8-23 18.8-1 0-3.5-.2-6-.3-2.6-.2-5.2-.3-6.5-.3-.9 0-2.8 0-4.9.1-2 0-4.2.2-6 .2-1.1 0-1.7-.3-1.7-.9 0-.4.3-.7 1.4-.7 1.3 0 2.3-.2 3.1-.3 1.7-.3 2.2-2.2 2.5-4.7.4-3.6.4-10.4.4-18.4v-15zm10.4 1.5c0 .7.3.9.6.9.8.2 2.1.3 4.1.3 2.8 0 4.7-.3 6.2-1.6 2.2-1.8 3.5-4.9 3.5-9.1 0-5.8-3.4-13.4-10.8-13.4-1.2 0-2 0-2.8.2-.6.2-.8.5-.8 1.5v21.2zm11.3 6.9c-1.8-1.3-3.8-1.9-7.2-2.1-1.6-.1-2.4-.1-3.7-.1-.3 0-.5.2-.5.6v20.4c0 5.7.3 7.2 3 8.3 2.3.9 4.3 1 6.3 1 3.9 0 10.4-2.1 10.4-11 .1-5.3-1.7-12.6-8.3-17.1zM803.1 205c0-11.1 0-13.2-.1-15.5-.2-2.5-.9-3.4-2.6-3.9-.9-.3-1.8-.3-2.8-.3-.8 0-1.2-.2-1.2-.9 0-.4.6-.6 1.8-.6 2.8 0 8 .2 10.2.2 1.9 0 6.8-.2 9.8-.2.9 0 1.6.2 1.6.6 0 .7-.4.9-1.2.9-.8 0-1.4.1-2.2.3-2.1.3-2.7 1.4-2.8 4-.2 2.3-.2 4.4-.2 15.5V218c0 7.1 0 12.9.3 16 .3 2 .8 3.1 3 3.5 1 .2 2.8.3 3.9.3.9 0 1.2.4 1.2.8 0 .5-.6.8-1.5.8-5 0-10.2-.3-12.3-.3-1.7 0-6.9.3-9.9.3-.9 0-1.5-.3-1.5-.8 0-.3.3-.8 1.2-.8 1.1 0 2-.1 2.7-.3 1.6-.3 2-1.4 2.2-3.5.3-3 .3-8.9.3-16v-13zM838.2 205c0-11.1 0-13.2-.1-15.5-.2-2.5-.9-3.3-3.3-4-.6-.2-1.9-.3-3-.3-.8 0-1.3-.3-1.3-.8s.6-.7 1.7-.7c4 0 8.8.2 10.3.2 3.8 0 8.8-.2 11.4-.2 13.7 0 16.1 7.1 16.1 11 0 5.7-4.2 10.1-8.5 12.9 6.2 2 14 7.2 14 15.9 0 7.9-6.2 16-20.2 16-.9 0-3.5-.1-6-.3-2.6-.1-5.3-.2-6.5-.2-.9 0-2.5.1-4.3.1-1.8.1-3.7.2-5.3.2-.9 0-1.5-.3-1.5-.8 0-.3.3-.8 1.2-.8 1.1 0 2-.1 2.7-.3 1.6-.3 2-1.7 2.2-3.9.3-3.1.3-8.9.3-15.6V205zm9.8 1.3c0 .6.3.7.5.8.7.2 1.8.3 3.5.3 2.5 0 4.7-.3 6-1.3 2-1.6 3.5-4.2 3.5-7.8 0-4.9-2.9-11-9.5-11-1 0-2.5 0-3.3.2-.5.1-.7.4-.7 1.2v17.6zm0 21.5c0 4.8.3 6.3 2.7 7.2 2 .8 3.7.9 5.4.9 4.1 0 9.3-2.2 9.3-10.4 0-3.4-1.5-9.1-7.2-13-1.6-1.1-3.6-1.9-6.6-1.9h-3.3c-.3 0-.4.1-.4.5v16.7zM900.1 218c0 9.4 0 14.1 1.6 15.4 1.3 1.1 4.2 1.6 10.1 1.6 4.1 0 7-.1 8.9-2.1.9-.9 1.7-3 1.9-4.4.1-.7.3-1.1.9-1.1.5 0 .7.8.7 1.6 0 .9-.5 6.3-1.1 8.5-.5 1.6-.9 2-4.8 2-5.4 0-9.8-.1-13.6-.3-3.8-.1-7-.2-10.1-.2-.9 0-2.5.1-4.3.1-1.8.1-3.7.2-5.3.2-.9 0-1.5-.3-1.5-.8 0-.3.3-.8 1.2-.8 1.1 0 2-.1 2.7-.3 1.6-.3 2-1.7 2.2-3.9.3-3.1.3-8.9.3-15.6V205c0-11.1 0-13.2-.1-15.5-.2-2.5-.9-3.3-3.3-4-.6-.2-1.6-.3-2.5-.3-.9 0-1.3-.3-1.3-.8s.5-.7 1.6-.7c3.5 0 8.4.2 10.4.2 1.8 0 8-.2 11-.2 1.1 0 1.6.2 1.6.7s-.4.8-1.4.8c-.9 0-2.1.1-2.9.3-2.1.3-2.7 1.4-2.8 4-.2 2.3-.2 4.4-.2 15.5v13zM937.6 205c0-11.1 0-13.2-.1-15.5-.2-2.5-.9-3.3-3.3-4-.6-.2-1.9-.3-3-.3-.8 0-1.3-.3-1.3-.8s.6-.7 1.7-.7c4 0 8.8.2 11 .2 2.4 0 19.2.1 20.7 0 1.4-.1 2.6-.3 3.2-.4.4-.1.9-.3 1.2-.3.4 0 .5.3.5.7 0 .5-.4 1.4-.6 4.7-.1.8-.3 4-.4 4.8-.1.3-.3 1.2-.9 1.2-.5 0-.6-.3-.6-.9 0-.5-.1-1.8-.5-2.7-.6-1.3-1.2-2.3-5-2.7-1.3-.2-10.4-.3-11.9-.3-.3 0-.5.3-.5.7v18.1c0 .4.1.8.5.8 1.7 0 11.6 0 13.3-.2 1.8-.2 2.8-.4 3.6-1.1.6-.5.9-.9 1.2-.9s.6.3.6.8c0 .4-.2 1.6-.6 5.3-.2 1.5-.3 4.4-.3 4.9 0 .6-.1 1.6-.8 1.6-.5 0-.7-.3-.7-.6-.1-.8-.1-1.7-.3-2.7-.4-1.5-1.4-2.6-4.2-2.8-1.4-.2-10-.3-11.9-.3-.3 0-.4.3-.4.8v5.9c0 2.5-.1 8.7 0 10.9.2 5 2.5 6.1 10.3 6.1 2 0 5.2-.1 7.2-.9 1.9-.9 2.8-2.4 3.3-5.4.2-.8.3-1.1.9-1.1.6 0 .7.9.7 1.7 0 1.6-.6 6.6-1 8.1-.5 1.9-1.2 1.9-4.1 1.9-5.7 0-10.3-.1-14-.3-3.7-.1-6.6-.2-8.8-.2-.9 0-2.5.1-4.3.1-1.8.1-3.7.2-5.3.2-.9 0-1.5-.3-1.5-.8 0-.3.3-.8 1.2-.8 1.1 0 2-.1 2.7-.3 1.6-.3 2-1.7 2.2-3.9.3-3.1.3-8.9.3-15.6v-13z"/></g><g><path fill="#d3682a" d="M359 297.6c0-8.3 5.9-19.2 21.2-19.2 12.8 0 20.7 7.1 20.7 18.3 0 11.2-8.2 20-21.2 20-14.7.1-20.7-10.4-20.7-19.1zm34.4 1c0-10.8-6.5-17.5-14.7-17.5-5.6 0-12.3 3-12.3 15.1 0 10.1 5.8 18 15.3 18 3.7 0 11.7-1.7 11.7-15.6zM410 293.3c0-7.4.1-8.8-.1-10.4-.1-1.7-.6-2.2-2.2-2.6-.4-.1-1.3-.2-2-.2-.6 0-.9-.2-.9-.5s.3-.5 1.1-.5c2.7 0 6.1.1 7.6.1 1.3 0 4.7-.1 6.5-.1.7 0 1.1.1 1.1.5 0 .3-.3.5-.8.5-.6 0-.9.1-1.5.2-1.3.2-1.7.9-1.8 2.6-.1 1.6-.1 2.9-.1 10.4v6.9c0 7.1 1.4 9.9 3.9 11.9 2.2 1.8 4.7 2 6.4 2 2.2 0 4.8-.6 6.8-2.6 2.8-2.6 2.9-6.9 2.9-11.9v-6.2c0-7.4-.1-8.8-.1-10.4-.1-1.7-.5-2.2-2.1-2.6-.4-.1-1.3-.2-1.8-.2-.6 0-.9-.2-.9-.5s.3-.5 1-.5c2.6 0 6 .1 6 .1.6 0 4-.1 5.9-.1.7 0 1 .1 1 .5 0 .3-.3.5-.9.5-.6 0-.9.1-1.5.2-1.4.2-1.7.9-1.8 2.6-.1 1.6-.1 2.9-.1 10.4v5.2c0 5.5-.6 11.2-4.8 14.7-3.6 3-7.4 3.5-10.7 3.5-2.6 0-7.9-.1-11.6-3.3-2.6-2.2-4.6-5.9-4.6-13v-7.2zM462.6 282.1l-7.5.2c-2.9.1-4.1.4-4.9 1.5-.5.7-.7 1.3-.9 1.7-.1.4-.2.6-.6.6-.3 0-.5-.3-.5-.8 0-.8 1-5.5 1.1-5.9.1-.6.3-.9.6-.9.4 0 .9.4 2.2.6 1.5.2 3.4.2 5.1.2h20.6c1.6 0 2.7-.1 3.5-.2.8-.1 1.2-.2 1.4-.2.3 0 .4.3.4 1 0 1-.1 4.7-.1 5.9-.1.5-.2.8-.5.8-.4 0-.5-.2-.6-1l-.1-.5c-.1-1.3-1.4-2.8-6-2.8l-6.4-.1V302c0 4.5.1 8.3.3 10.5.2 1.4.5 2.3 2 2.5.7.1 1.8.2 2.6.2.6 0 .8.3.8.5 0 .3-.4.5-1 .5-3.3 0-6.7-.2-8.2-.2-1.2 0-4.6.2-6.6.2-.6 0-1-.2-1-.5 0-.2.2-.5.8-.5.7 0 1.4-.1 1.8-.2 1-.2 1.3-1.2 1.5-2.6.2-2.1.2-5.9.2-10.4v-19.9zM492.3 293.3c0-7.4 0-8.8-.1-10.4-.1-1.7-.6-2.2-2.2-2.6-.4-.1-1.3-.2-2-.2-.5 0-.9-.2-.9-.5s.4-.5 1.2-.5c2.6 0 5.9.1 6.9.1 1.7 0 6.3-.1 7.9-.1 3.2 0 6.9.3 9.6 2.1 1.4 1 3.6 3.5 3.6 6.7 0 3.6-2.1 6.9-7 10.8 4.5 5.5 8.1 10 11.1 13 2.8 2.8 4.6 3.1 5.4 3.2.5.1.8.1 1.2.1s.6.3.6.5c0 .4-.3.5-1 .5h-4.8c-2.8 0-4.2-.3-5.5-1-2.2-1.1-4.1-3.4-6.9-7.2-2-2.6-4.1-5.9-4.8-6.7-.3-.3-.6-.3-.9-.3l-4.5-.1c-.2 0-.4.1-.4.4v.7c0 4.5.1 8.3.3 10.4.2 1.4.4 2.4 2 2.6.7.1 1.8.2 2.5.2.4 0 .6.3.6.5 0 .3-.4.5-1 .5-2.9 0-7.1-.2-7.9-.2-1 0-4.2.2-6.2.2-.6 0-1-.2-1-.5 0-.2.2-.5.8-.5.7 0 1.3-.1 1.8-.2 1-.2 1.3-1.2 1.5-2.6.2-2.1.2-5.9.2-10.4v-8.5zm6.5 3.8c0 .5.1.7.5.9 1.1.3 2.6.5 3.9.5 2 0 2.7-.2 3.6-.8 1.6-1.1 3.3-3.2 3.3-7.3 0-6.9-4.7-8.7-7.7-8.7-1.3 0-2.5.1-3 .2-.3.1-.5.3-.5.7v14.5z"/><path fill="#d3682a" d="M531.8 293.3c0-7.4 0-8.8-.1-10.4-.1-1.7-.6-2.2-2.2-2.6-.4-.1-1.3-.2-2-.2-.5 0-.9-.2-.9-.5s.4-.5 1.2-.5c2.6 0 5.9.1 7.3.1 1.6 0 12.8.1 13.8 0 .9-.1 1.7-.2 2.1-.3.3-.1.6-.2.8-.2.3 0 .3.2.3.5s-.3.9-.4 3.2c-.1.5-.2 2.6-.3 3.2-.1.2-.2.8-.6.8-.3 0-.4-.2-.4-.6 0-.3-.1-1.2-.3-1.8-.4-.9-.8-1.6-3.3-1.8-.9-.1-6.9-.2-7.9-.2-.2 0-.3.2-.3.5v12.1c0 .3.1.5.3.5 1.2 0 7.7 0 8.9-.1 1.2-.1 1.9-.3 2.4-.7.4-.3.6-.6.8-.6.2 0 .4.2.4.5s-.1 1.1-.4 3.6c-.1 1-.2 2.9-.2 3.3 0 .4-.1 1.1-.5 1.1-.3 0-.5-.2-.5-.4-.1-.5-.1-1.2-.2-1.8-.3-1-.9-1.7-2.8-1.9-.9-.1-6.7-.2-7.9-.2-.2 0-.3.2-.3.5v3.9c0 1.7-.1 5.8 0 7.3.1 3.3 1.7 4.1 6.9 4.1 1.3 0 3.5-.1 4.8-.6 1.3-.6 1.8-1.6 2.2-3.6.1-.5.2-.7.6-.7.4 0 .5.6.5 1.2 0 1.1-.4 4.4-.7 5.4-.3 1.3-.8 1.3-2.7 1.3-3.8 0-6.9-.1-9.3-.2-2.5-.1-4.4-.1-5.9-.1-.6 0-1.7.1-2.9.1-1.2.1-2.5.1-3.5.1-.6 0-1-.2-1-.5 0-.2.2-.5.8-.5.7 0 1.3-.1 1.8-.2 1-.2 1.3-1.2 1.5-2.6.2-2.1.2-5.9.2-10.4v-9.1zM567.2 303.8c-.3 0-.3.1-.5.3l-2.7 6.6c-.5 1.2-.7 2.4-.7 3 0 .9.5 1.4 2 1.4h.7c.6 0 .7.2.7.5 0 .4-.3.5-.8.5-1.7 0-4-.2-5.6-.2-.5 0-3.2.2-5.9.2-.6 0-.9-.1-.9-.5 0-.3.2-.5.6-.5.5 0 1-.1 1.5-.1 2.3-.3 3.2-1.8 4.2-4.3l13.2-30.6c.6-1.4 1-2 1.5-2 .7 0 1 .5 1.5 1.6 1.2 2.7 9.7 22.5 12.9 29.9 2 4.4 3.4 5.1 4.3 5.2.7.1 1.3.2 1.9.2.5 0 .7.2.7.5 0 .4-.3.5-2.2.5-1.8 0-5.5 0-9.7-.1-.9-.1-1.5-.1-1.5-.4 0-.3.1-.5.6-.5.3-.1.7-.5.5-1.1l-3.9-9.9c-.1-.3-.3-.3-.5-.3h-11.9zm10.8-2.7c.2 0 .3-.1.2-.3l-4.8-12.3c-.1-.2-.1-.5-.2-.5-.2 0-.2.3-.3.5l-4.9 12.2c-.1.2 0 .3.2.3h9.8zM602.2 311.5c-5-4.2-6.3-9.7-6.3-14.5 0-3.3 1.1-9.1 5.9-13.4 3.7-3.2 8.5-5.2 16.1-5.2 3.2 0 5.1.2 7.4.5 1.9.3 3.6.6 5.1.8.6.1.7.3.7.6 0 .4-.1 1-.2 2.7-.1 1.6-.1 4.3-.2 5.3-.1.7-.2 1.2-.7 1.2-.4 0-.5-.4-.5-1-.1-1.6-.7-3.3-2-4.5-1.7-1.7-5.1-2.9-9.8-2.9-4.4 0-7.3.8-9.6 2.8-3.7 3.2-4.7 7.9-4.7 12.7 0 11.6 9 17.2 15.8 17.2 4.5 0 7-.3 9-2.6.9-1 1.6-2.4 1.7-3.3.1-.7.2-1 .6-1 .3 0 .6.5.6.9 0 .6-.6 4.8-1.1 6.5-.2.9-.5 1.1-1.3 1.4-2 .8-5.9 1.1-9.2 1.1-6.8 0-12.7-1.4-17.3-5.3zM668.2 295.1c.1 0 .3-.1.3-.3v-1c0-7.4-.1-9.2-.1-10.8-.1-1.7-.6-2.2-2.2-2.6-.4-.1-1.3-.2-2-.2-.6 0-.9-.2-.9-.5s.3-.5 1.1-.5c2.7 0 6.3.1 7.6.1 1.2 0 4.5-.1 6.5-.1.7 0 1.1.1 1.1.5 0 .3-.3.5-.9.5-.4 0-.9.1-1.5.2-1.3.2-1.7.9-1.8 2.6-.1 1.6-.1 2.9-.1 10.4v8.6c0 4.5 0 8.3.2 10.5.2 1.4.5 2.3 2 2.5.7.1 1.8.2 2.6.2.5 0 .8.3.8.5 0 .3-.4.5-1 .5-3.3 0-6.6-.2-8-.2-1.2 0-4.7.2-6.7.2-.7 0-1.1-.2-1.1-.5 0-.2.2-.5.8-.5.8 0 1.4-.1 1.8-.2 1-.2 1.3-1.2 1.5-2.6.2-2.1.2-5.8.2-10.3v-3.7c0-.2-.2-.3-.3-.3H649c-.2 0-.3.1-.3.3v3.7c0 4.5.1 8.2.3 10.4.2 1.4.5 2.3 2 2.5.7.1 1.8.2 2.6.2.6 0 .8.3.8.5 0 .3-.4.5-1 .5-3.3 0-6.8-.2-8.2-.2-1.2 0-4.5.2-6.5.2-.6 0-1-.2-1-.5 0-.2.2-.5.8-.5.7 0 1.3-.1 1.8-.2 1-.2 1.3-1.2 1.5-2.6.2-2.1.2-5.9.2-10.4v-8.6c0-7.4 0-8.8-.1-10.4-.1-1.7-.6-2.2-2.2-2.6-.4-.1-1.3-.2-2-.2-.5 0-.9-.2-.9-.5s.4-.5 1.1-.5c2.7 0 6 .1 7.4.1 1.2 0 4.7-.1 6.7-.1.7 0 1 .1 1 .5 0 .3-.3.5-.9.5-.4 0-.9.1-1.4.2-1.4.2-1.8.9-1.9 2.6-.1 1.6-.1 3.3-.1 10.8v1c0 .3.2.3.3.3h19.2zM711 279.6c.1-.8.6-1.3 1-1.3.5 0 .9.2 1.6 1.6l13.6 27.1 13.6-27.4c.4-.8.9-1.2 1.3-1.2s1 .5 1.2 1.6l4.6 30.1c.5 3.1.9 4.4 2.5 4.8 1.4.4 2.2.5 2.9.5.5 0 .8.2.8.5 0 .4-.6.6-1.3.6-1.3 0-8.5-.2-10.5-.3-1.2-.1-1.5-.3-1.5-.6 0-.2.2-.4.6-.5.3-.1.4-.7.2-2.1l-2.8-21.1h-.2l-10.9 21.6c-1.2 2.3-1.4 2.8-2 2.8-.6 0-1.2-1-2-2.5-1.2-2.2-5.2-9.7-5.8-11.1-.4-.9-3.4-6.9-5.1-10.2h-.2l-2.4 18.9c-.1.9-.2 1.5-.2 2.3 0 .9.7 1.3 1.6 1.4.9.2 1.3.2 1.8.2s.8.2.8.5c0 .5-.5.6-1.2.6-2.1 0-4.4-.2-5.4-.2s-3.4.2-5 .2c-.5 0-.9-.1-.9-.6 0-.2.3-.5.8-.5.4 0 .7 0 1.6-.1 1.4-.2 1.8-2.1 2.1-3.7l4.8-31.9zM762.3 293.3c0-7.4 0-8.8-.1-10.4-.1-1.7-.6-2.2-1.7-2.6-.6-.2-1.2-.2-1.8-.2-.5 0-.8-.1-.8-.6 0-.3.4-.4 1.2-.4 1.9 0 5.4.1 6.8.1 1.3 0 4.5-.1 6.5-.1.6 0 1 .1 1 .4 0 .5-.3.6-.8.6s-.9.1-1.5.2c-1.4.2-1.8.9-1.9 2.6-.1 1.6-.1 2.9-.1 10.4v8.6c0 4.7 0 8.6.2 10.7.2 1.3.5 2.1 2 2.3.7.1 1.8.2 2.6.2.6 0 .8.3.8.5 0 .3-.4.5-1 .5-3.3 0-6.8-.2-8.2-.2-1.2 0-4.6.2-6.6.2-.6 0-1-.2-1-.5 0-.2.2-.5.8-.5.7 0 1.3-.1 1.8-.2 1-.2 1.3-.9 1.5-2.4.2-2 .2-5.9.2-10.7v-8.5zM788.9 309.5c.1 3.8.7 5 1.7 5.3.9.3 1.8.3 2.6.3.6 0 .9.2.9.5 0 .4-.5.5-1.2.5-3.3 0-5.6-.2-6.6-.2-.5 0-2.9.2-5.5.2-.7 0-1.2-.1-1.2-.5 0-.3.3-.5.8-.5.7 0 1.6-.1 2.3-.2 1.3-.3 1.5-1.7 1.6-5.9l.5-29c0-1 .3-1.7.9-1.7.6 0 1.3.7 2.2 1.6.6.6 8.2 8.4 15.6 15.6 3.5 3.4 10.2 10.3 10.9 11h.2l-.5-21.8c-.1-3-.5-3.9-1.7-4.3-.7-.3-2-.3-2.6-.3-.6 0-.8-.2-.8-.5 0-.4.5-.5 1.3-.5 2.6 0 5.4.1 6.4.1.6 0 2.5-.1 5-.1.7 0 1.2.1 1.2.5 0 .3-.3.5-.9.5-.5 0-.9 0-1.6.2-1.4.4-1.8 1.3-1.8 4l-.6 30.9c0 1.1-.4 1.6-.8 1.6-.9 0-1.6-.5-2.1-1-3.2-2.9-9.5-9-14.8-14.1-5.5-5.3-10.9-11.2-11.9-12.1h-.2l.7 19.9zM834.1 293.3c0-7.4 0-8.8-.1-10.4-.1-1.7-.6-2.2-1.7-2.6-.6-.2-1.2-.2-1.8-.2-.5 0-.8-.1-.8-.6 0-.3.4-.4 1.2-.4 1.9 0 5.4.1 6.8.1 1.3 0 4.5-.1 6.5-.1.6 0 1 .1 1 .4 0 .5-.3.6-.8.6s-.9.1-1.5.2c-1.4.2-1.8.9-1.9 2.6-.1 1.6-.1 2.9-.1 10.4v8.6c0 4.7 0 8.6.2 10.7.2 1.3.5 2.1 2 2.3.7.1 1.8.2 2.6.2.6 0 .8.3.8.5 0 .3-.4.5-1 .5-3.3 0-6.8-.2-8.2-.2-1.2 0-4.6.2-6.6.2-.6 0-1-.2-1-.5 0-.2.2-.5.8-.5.7 0 1.3-.1 1.8-.2 1-.2 1.3-.9 1.5-2.4.2-2 .2-5.9.2-10.7v-8.5zM854.8 315.5c-.8-.3-1-.6-1-1.7 0-2.6.2-5.7.3-6.5 0-.7.2-1.3.6-1.3.5 0 .5.5.5.8 0 .6.2 1.7.5 2.5 1.1 3.6 4.9 4.8 8.1 4.8 4.4 0 7-2.8 7-6.2 0-2.1-.5-4.3-5-6.9l-2.9-1.7c-6-3.5-7.9-6.8-7.9-11.1 0-6 5.8-9.8 12.8-9.8 3.3 0 5.9.5 7.2.8.5.1.7.3.7.6 0 .6-.2 2-.2 5.9 0 1-.2 1.6-.6 1.6-.3 0-.5-.3-.5-.9 0-.5-.2-2-1.3-3.2-.7-.9-2.4-2.3-5.6-2.3-3.6 0-6.9 1.9-6.9 5.2 0 2.2.8 3.9 5.4 6.4l2.1 1.2c6.7 3.7 8.8 7.4 8.8 11.9 0 3.6-1.4 6.6-5.1 9.2-2.4 1.7-5.8 2-8.5 2-3.2 0-6.3-.3-8.5-1.3zM895.4 282.1l-7.5.2c-2.9.1-4.1.4-4.9 1.5-.5.7-.7 1.3-.9 1.7-.1.4-.2.6-.6.6-.3 0-.5-.3-.5-.8 0-.8 1-5.5 1.1-5.9.1-.6.3-.9.6-.9.4 0 .9.4 2.2.6 1.5.2 3.4.2 5.1.2h20.6c1.6 0 2.7-.1 3.5-.2.8-.1 1.2-.2 1.4-.2.3 0 .4.3.4 1 0 1-.1 4.7-.1 5.9-.1.5-.2.8-.5.8-.4 0-.5-.2-.6-1l-.1-.5c-.1-1.3-1.4-2.8-6-2.8l-6.4-.1V302c0 4.5.1 8.3.3 10.5.2 1.4.5 2.3 2 2.5.7.1 1.8.2 2.6.2.6 0 .8.3.8.5 0 .3-.4.5-1 .5-3.3 0-6.7-.2-8.2-.2-1.2 0-4.6.2-6.6.2-.6 0-1-.2-1-.5 0-.2.2-.5.8-.5.7 0 1.4-.1 1.8-.2 1-.2 1.3-1.2 1.5-2.6.2-2.1.2-5.9.2-10.4v-19.9zM925.1 293.3c0-7.4 0-8.8-.1-10.4-.1-1.7-.6-2.2-2.2-2.6-.4-.1-1.3-.2-2-.2-.5 0-.9-.2-.9-.5s.4-.5 1.2-.5c2.6 0 5.9.1 6.9.1 1.7 0 6.3-.1 7.9-.1 3.2 0 6.9.3 9.6 2.1 1.4 1 3.6 3.5 3.6 6.7 0 3.6-2.1 6.9-7 10.8 4.5 5.5 8.1 10 11.1 13 2.8 2.8 4.6 3.1 5.4 3.2.5.1.8.1 1.2.1.4 0 .6.3.6.5 0 .4-.3.5-1 .5h-4.8c-2.8 0-4.2-.3-5.5-1-2.2-1.1-4.1-3.4-6.9-7.2-2-2.6-4.1-5.9-4.8-6.7-.3-.3-.6-.3-.9-.3l-4.5-.1c-.2 0-.4.1-.4.4v.7c0 4.5.1 8.3.3 10.4.2 1.4.4 2.4 2 2.6.7.1 1.8.2 2.5.2.4 0 .6.3.6.5 0 .3-.4.5-1 .5-2.9 0-7.1-.2-7.9-.2-1 0-4.2.2-6.2.2-.6 0-1-.2-1-.5 0-.2.2-.5.8-.5.7 0 1.3-.1 1.8-.2 1-.2 1.3-1.2 1.5-2.6.2-2.1.2-5.9.2-10.4v-8.5zm6.4 3.8c0 .5.1.7.5.9 1.1.3 2.6.5 3.9.5 2 0 2.7-.2 3.6-.8 1.6-1.1 3.3-3.2 3.3-7.3 0-6.9-4.7-8.7-7.7-8.7-1.3 0-2.5.1-3 .2-.3.1-.5.3-.5.7v14.5zM968.9 303.4c0-2.6-.5-3.7-1.2-5.1-.3-.7-7.3-11.5-9-14.1-1.3-1.8-2.3-2.9-3.3-3.5-.6-.3-1.5-.6-2.1-.6-.4 0-.7-.2-.7-.5s.3-.5 1-.5c.9 0 4.7.1 6.3.1 1.1 0 3.5-.1 5.8-.1.5 0 .7.1.7.5s-.3.4-1.2.6c-.4.1-.7.3-.7.7s.2 1 .6 1.7c.9 1.5 7.5 13 8.4 14.3.6-1.2 6.8-11.6 7.5-13.1.5-1.1.7-2 .7-2.6 0-.5-.2-.9-1.1-1.1-.5-.1-.9-.2-.9-.6 0-.3.3-.5.9-.5 1.7 0 3.5.1 5 .1 1.1 0 4.4-.1 5.4-.1.6 0 .9.1.9.4 0 .3-.4.6-1 .6-.5 0-1.4.2-2.2.6-1.1.5-1.6 1-2.6 2.3-1.7 2-8.9 13.6-9.8 15.7-.7 1.8-.6 3.3-.6 4.9v3.9c0 .8 0 2.8.1 4.9.1 1.4.6 2.4 2.1 2.6.7.1 1.8.2 2.5.2.6 0 .9.3.9.5 0 .3-.4.5-1.1.5-3.2 0-6.6-.2-7.9-.2-1.3 0-4.7.2-6.6.2-.7 0-1.1-.1-1.1-.5 0-.2.2-.5.8-.5.7 0 1.3-.1 1.8-.2 1-.2 1.4-1.2 1.6-2.6.2-2.1.2-4.1.2-4.9v-4z"/></g></svg>
