<svg xmlns="http://www.w3.org/2000/svg" viewBox="0 0 500 500"><path d="M365.81 219.59c-63.06-33.92-116.12-111.34-116.12-111.34-5 7.11-56.23 78.66-116.12 110.95-63.06 34-130.91 53.61-130.91 53.61s48.28 14.38 72.63 58.4C99.63 374.8 104.42 404 104.42 404s29.14-53.61 67.85-72.78c38.71-19.18 77.42-19.61 77.42-19.61v.19s38.71 0 77.42 19.57S394.96 404 394.96 404s4.78-29.14 29.14-72.63c24.36-43.49 72.63-58.28 72.63-58.28s-67.86-19.57-130.92-53.5zm-133.09 75.89c-16.53 2.18-42.19 6.97-67.85 20.05-22.18 10.9-40.88 31.38-54.37 48.38-4.78-11.77-10.87-25.71-19.57-41.4-11.74-20.92-27.83-36.17-43.06-46.2 25.66-9.15 60.45-23.54 94.38-41.4 35.66-19.61 67.85-51.43 90.46-77.14v137.71zm176.58 27.19c-8.7 15.66-15.22 29.57-19.57 41.32-13.48-17.4-32.18-37.4-54.37-48.28-25.66-13.05-51.76-17.83-67.85-20.01V158.76c22.59 25.57 54.59 57.04 90.46 76.49 33.92 18.27 68.28 32.18 94.38 41.32-15.22 10.44-31.31 25.22-43.05 46.1z" fill="#603"/></svg>
