<svg xmlns="http://www.w3.org/2000/svg" viewBox="0 0 500 500"><path fill="#0e72b7" d="M210.4 173.1c-5-14.7-8.9-30-11.7-45.3C185.5 54.3 233 8.5 306.9 22.9 432.1 47.5 514.1 179.5 482.7 306 458 405.6 367.6 481 264.8 487.8c-106.2 7-206.4-56.7-244-155.1-35.5-92.9-5.3-202.7 73-265.1C123.7 43.9 157 28 199 22.5c-8.7 22.4-27.6 25.9-42.4 34.2-81.5 45.2-117.7 116-112.1 207.1 5.1 83.5 47.7 144.9 122.5 182.7 32.1 16.2 33 15 33-20.7 0-17.7 1.3-35.5-.3-53.1-2.5-27.1 7.8-39.6 35.5-35.6 28.6 4.1 33.6-4.9 22.5-31.8l-47.3-132.2zM226.1 416c0 53.1 1.8 54.8 49.7 46.6 86.5-14.7 164.2-101.1 174.5-193.8C461 171.6 409.4 82.1 322.2 47.4c-26.8-10.6-54.7-19.2-79.3 3.3-24.2 22.1-20.4 50.1-12.6 78.5 18.7 67.3 45.1 131.8 70.1 196.9 12.9 33.5 5.3 43.6-30.4 44.5-43.9 1.2-43.9 1.2-43.9 45.4z"/><path fill="#0e72b7" d="M128.8 184.2c-49.9 55.1-23.9 113-8.2 174.6-75-65.7-54.8-190.6 33.7-241.4 7.5 15.9 14.6 32 22.6 47.5 39.4 76.2 23.5 146.8-20.4 215.3-7.7 12-12.7 6.4-18.9.3-9.2-8.9-8.7-20.7-8.8-32.1V184.2zm23.4 153.6c31.5-55.2 30.4-121 0-156.9v156.9zM410.1 200.2c-1 3.2-2.2 6.6-5.8 9.7-1.5-1.6-7.3-2.6-8.8-4.1 2.7-1.4 10.3-5 13-6.5.1 0 1.6.9 1.6.9z"/><path fill="#0e72b7" d="M407.2 200.3l.6.6-.3-.6h-.3z"/><path fill="#0e72b7" d="M407.6 200.3c5.9-.3 11.9-.6 19.7-1-10.4-23.1-27.3-37.7-47.4-48.5-36.7-19.9-74.4-11-96.1 20.4-14.1 20.5-9.9 36.3 8.7 50.7 33.4 25.8 78.1 21.2 111.8-11.9-1.5-1.6-2.9-3.1-4.4-4.7-9.1.1-16.9 7.3-27.5 7 4.4-5.7 7.1-12.8 7.1-20.6 0-5.2-1.2-10-3.2-14.4l.3-1.2c14.6 2.6 25.6 9.8 31 24.2zm-97.9-25.9c5-2.9 8.8-4.8 11.7-5.9-5.6 6-9.1 14.1-9.1 23 0 5.9 1.5 11.5 4.2 16.3.1.8.4 1.4.7 2-20.6-7.1-33.6-15.9-7.5-35.4z"/></svg>
