<svg id="Layer_1" xmlns="http://www.w3.org/2000/svg" viewBox="0 0 500 500"><path fill="#b32" d="M48.2 181.1c-6 0-12.1-.1-18.2-.4l.2-5.6c37.3 1.6 73.1-1.7 106.4-9.8 10.5-2.5 20.5-5.4 30.2-8.2 31.6-9.1 56.6-16.4 70.5-2.7 4.9 4.9 7.7 11.7 8.3 20.3l-5.6.4c-.5-7.2-2.8-12.9-6.7-16.8-11.5-11.4-35.1-4.6-64.9 4.1-9.7 2.8-19.8 5.7-30.4 8.3-28.4 6.9-58.5 10.4-89.8 10.4zm403.7 0c-31.3 0-61.4-3.5-89.8-10.4-10.6-2.5-20.7-5.5-30.5-8.3-29.8-8.6-53.3-15.4-64.9-4-3.9 3.9-6.2 9.6-6.7 16.8l-5.6-.4c.6-8.6 3.4-15.4 8.3-20.3 13.9-13.7 38.8-6.5 70.4 2.6 9.7 2.8 19.8 5.7 30.2 8.2 33.4 8.1 69.2 11.4 106.4 9.8l.2 5.6c-5.9.3-12 .4-18 .4zM232.7 187.9c1.9 10.4 11.9 17.2 22.3 15.3 7.7-1.4 13.8-7.4 15.3-15.1l-37.6-.2z"/><path d="M253.1 246.4v-1.6l7.7.2 7.4-.2v1.7h-2c-1.6 0-2.5.3-2.8.9-.3.6-.5 3.4-.6 8.4v10.1c0 3.7.2 6.3.6 7.7.4 1.4 1.4 2.6 3.2 3.7 1.7 1 3.9 1.5 6.7 1.5 2.5.1 5-.5 7.3-1.6 1.4-.7 2.5-2 3.1-3.5.6-1.6 1-4.5 1-8.9V255c0-4.5-.2-7.1-.7-7.8-.4-.7-1.6-1-3.4-1h-1.3v-1.6l6.7.2 5.9-.2v1.7h-1.8c-1.4 0-2.3.4-2.6 1.1-.4.7-.6 3.3-.6 7.6v9.7c0 4.4-.2 7.4-.6 9-.5 1.5-1.3 3-2.5 4.1-1.3 1.3-2.9 2.3-4.7 2.9-2.2.8-4.5 1.2-6.9 1.1-2.4 0-4.7-.3-7-1-1.7-.5-3.3-1.3-4.6-2.4-1-.9-1.8-2.1-2.2-3.5-.4-1.4-.7-3.7-.7-7v-12.7c0-4.9-.1-7.6-.4-8.2-.3-.6-1.2-.9-2.7-.9l-1.5.3zm-180.3.3c-.2 2.6-.3 5.3-.3 8.2v14.8c0 5.5.1 8.5.4 9 .3.5 1.2.8 2.9.9h1.9v1.6L70 281l-7.7.2v-1.7h2.2c1.1 0 1.9-.1 2.2-.4.4-.5.6-1.1.6-1.7.2-2 .3-4.6.3-7.9v-14.7c0-2.9-.1-5.6-.2-8h-2.6c-4.2 0-6.6.1-7 .3s-.7 1-.8 2.4l-.3 3.5H55v-3.2c0-1.3-.1-3.1-.3-5.4l16.4.2 14.2-.2c-.4 2.9-.6 5.7-.6 8.4H83l-.2-3.4c-.1-1.1-.3-1.8-.6-2.1-.4-.3-.8-.4-1.2-.4-1.9-.1-4-.2-6.5-.2h-1.7zM314.2 313c-.1 2.1-.2 4.2-.2 6.5v11.8c0 4.4.1 6.8.3 7.3.2.5 1 .7 2.4.6h1.6v1.3l-6.2-.2-6.2.2V339h1.7c.9 0 1.5-.1 1.8-.3.4-.4.6-.9.6-1.4.1-1.6.2-3.7.2-6.2v-11.8c0-2.4 0-4.5-.1-6.5h-2.2c-3.4 0-5.2.1-5.6.2s-.6.7-.7 1.8l-.3 2.8H300v-2.5c0-1-.1-2.4-.2-4.3l13.2.2 11.5-.2c-.3 2.4-.4 4.6-.4 6.7h-1.3l-.2-2.6c0-.6-.1-1.2-.4-1.7-.3-.2-.6-.3-1-.3-1.5-.1-3.2-.2-5.2-.2h-1.8zM109 268.7H94l-1.7 4.2c-1.2 2.8-1.8 4.5-1.8 5.1 0 .3.1.7.3.9.5.3 1.1.4 1.7.4l2.5.3v1.7c-1.6-.1-3.5-.2-5.6-.2-2.1 0-4.3.1-6.5.2v-1.7h.7c.8.1 1.6-.1 2.4-.3.5-.4.9-.9 1.1-1.5 1.2-2.5 2.5-5.2 3.8-8l7.1-16.1c1.9-4.3 3.2-7.4 3.9-9.3h1.7l13.1 30.4c.5 1.3 1.1 2.5 1.8 3.7.3.4.6.7 1 .9.8.3 1.7.4 2.6.4v1.6c-2.2-.1-4.4-.2-6.4-.2l-7.6.2v-1.7l2.6-.1c.6 0 1.1-.1 1.7-.3.2-.2.3-.4.3-.7-.2-.8-.5-1.6-.8-2.4l-2.9-7.5zm-14.1-2.1H108l-6.5-15.6-6.6 15.6zm258.8 2.1h-13.9l-1.7 4.2c-1 2.8-1.6 4.5-1.6 5.1 0 .3.1.7.3.9.5.2 1 .4 1.5.4l2.2.3v1.7c-1.5-.1-3.2-.2-5.1-.2s-3.9.1-6.2.2v-1.7h.8c.8.1 1.5 0 2.2-.3.5-.4.8-.9 1-1.5 1.1-2.5 2.3-5.2 3.5-8l6.6-16.1c1.8-4.3 3-7.4 3.6-9.3h1.6l12.1 30.4c.5 1.3 1 2.5 1.7 3.7.2.4.5.7.9.9.8.3 1.6.4 2.4.4v1.6c-2.1-.1-4.1-.2-6-.2l-7 .2v-1.7l2.4-.1c.5 0 1-.1 1.5-.3.2-.2.3-.4.3-.7-.1-.8-.4-1.6-.7-2.4l-2.4-7.5zm-12.9-2.1h12l-6-15.6-6 15.6zm-324-5.6l17.7 16.5 1.6 1.5c.3.3.6.5 1 .6.5.2 1.1.2 1.7.2v1.7l-3.7-.2-3.7.2-17.9-16.9c-.6-.6-1-.9-1.1-.9s-.3.3-.6 1v7.9c0 3.9.1 6 .2 6.3.1.3 1.1.7 2.8 1h1.9v1.7l-7.5-.2H2v-1.7h2.1c1.4 0 2.2-.2 2.5-.7.3-.5.4-2.7.4-6.6v-17.3c0-4.7-.1-7.4-.4-8-.3-.6-1.1-.9-2.4-.9H2v-1.7l6.9.2 8-.2v1.6h-2c-1.1 0-1.9.2-2.2.6-.4.4-.6 1-.6 1.5-.1.7-.1 3-.1 6.9v7h.3c1.4-1.1 2.6-2.2 3.7-3.1 1-.9 2.7-2.6 5.1-5.1l7.3-7.5v-1.7l4.7.1 4.3-.2v1.6h-1.6c-1.1 0-2.1.2-3.1.7-.9.5-2.8 2.2-6 5.1l-9.9 9zm290.8 0l16.2 16.5 1.5 1.5c.3.3.6.5 1 .6.5.1 1 .2 1.5.2v1.7l-3.4-.2-3.4.2-16.4-16.9c-.6-.6-.9-.9-1-.9-.1 0-.3.3-.6 1v7.9c0 3.9.1 6 .3 6.3.2.3 1 .7 2.5 1h1.9v1.7l-6.9-.2-6.7.2v-1.7h1.9c1.3 0 2-.2 2.2-.7.2-.5.4-2.7.4-6.6v-17.3c0-4.7-.1-7.4-.4-8-.3-.6-1-.9-2.2-.9h-1.9v-1.7l6.3.2 7.3-.2v1.6h-1.9c-1.1 0-1.8.2-2 .6-.3.4-.5 1-.6 1.5-.1.7-.1 3-.1 6.9v7h.3c1.3-1.1 2.4-2.2 3.4-3.1.9-.9 2.5-2.6 4.6-5.1l6.7-7.5v-1.7l4.3.1 3.9-.2v1.6h-1.2c-1 0-2 .2-2.8.7-.8.5-2.7 2.2-5.6 5.1l-9.1 8.8zm-56.7 63.1l13.3 12.4 1.2 1.1c.2.2.4.4.7.6h1.2v1.3l-2.8-.1-2.8.1-13.4-12.8c-.4-.4-.7-.7-.8-.7-.1 0-.3.3-.4.8v6c0 2.9.1 4.5.2 4.8.1.3.8.5 2.1.7h1.4v1.2l-5.6-.1-5.6.1v-1.2h1.6c1 0 1.7-.2 1.9-.6.2-.4.3-2 .3-4.9v-13.2c0-3.6-.1-5.6-.3-6-.2-.4-.9-.7-1.9-.7h-1.6v-1.2l5.2.1 6-.1v1.2h-1.3c-.6 0-1.2.1-1.7.3-.3.3-.5.8-.6 1.2V325h.2l2.8-2.4 3.7-3.8 5.6-5.7v-1.4l3.5.2 3.3-.1v1.3h-1.1c-.8 0-1.6.2-2.2.6-.7.4-2.2 1.6-4.5 3.8l-7.6 6.6zM43.3 248.2c.1-.5-.1-1-.4-1.3l-1.6-1.4c-.1-.2-.4-.3-.4-.4 0-.2.1-.3.3-.3h8.4c.2 0 .3.1.3.2v.1c0 .2-.2.3-.3.4l-1.6 1.4c-.3.4-.5.9-.4 1.3V278c0 .5.1.9.4 1.3l1.6 1.4c.1.2.4.3.4.4 0 .2-.1.3-.3.3h-8.4c-.2 0-.3-.1-.3-.3 0-.2.3-.3.4-.4l1.6-1.4c.3-.4.5-.9.4-1.3l-.1-29.8zm133.2 0c.1-.5-.1-1-.4-1.3l-1.6-1.4c-.1-.2-.4-.3-.4-.4 0-.2.1-.3.3-.3h8.4c.2 0 .3.1.3.2v.1c0 .2-.2.3-.3.4l-1.6 1.4c-.3.4-.5.9-.4 1.3V278c0 .5.1.9.4 1.3l1.6 1.4c.1.2.4.3.4.4 0 .2-.1.3-.3.3h-8.4c-.2 0-.3-.1-.3-.3 0-.2.3-.3.4-.4l1.6-1.4c.3-.4.5-.9.4-1.3l-.1-29.8zm11.2 67.3c0-.4-.1-.7-.3-1l-1.1-1c0-.1-.3-.2-.3-.3 0-.1 0-.2.2-.3h6.1c.1 0 .2.1.2.2l-.3.3-1.1 1c-.3.3-.4.6-.3 1v21.4c0 .4.1.7.3 1l1.1 1c0 .1.3.2.3.3 0 .1 0 .2-.2.3h-6.1c-.1 0-.2-.1-.2-.2l.3-.3 1.1-1c.2-.3.4-.6.3-1v-21.4zm60.4-39.9c.2 1.8.6 4.5 2.6 5.2 1 .3 2 .5 3 .4.2 0 .6.1.6.3 0 .2-.2.4-.7.4l-8.4-.3s-1.4-.2-1.4-.6c0-.3.1-.2.3-.3.2-.1.3-.9.2-1.7l-2.4-25.6-12.1 25.9c-1 2.1-1.1 2.5-1.6 2.5s-.6-.6-1.5-2.2-5.5-10.8-5.7-11.4c-.2-.5-6.1-12.9-6.6-14.3l-2 23c-.1.8-.2 1.5-.2 2.4 0 .8.6 1.7 1.3 1.7.6.1 1.2.2 1.8.2.3 0 .6.2.6.3s-.3.4-.8.4c-1.8 0-4.3-.2-4.7-.2l-4.1.2c-.4 0-.8 0-.8-.4s.2-.3.6-.3c.5 0 .9 0 1.4-.1 1.7-.3 1.8-2.1 2-4l3.5-32c0-.6.2-1 .6-1s.4.2.7.7l15 30.9 14.4-30.8c.2-.4.4-.8.7-.8s.6.4.6 1.3l3.1 30.2zM495.3 245h.9v8.2h-.9c-.1-2-.9-3.9-2.2-5.3-1.3-1.3-3.2-2-5.1-1.9-1.5-.1-3 .4-4.2 1.4-1.1.9-1.7 2.3-1.7 3.8 0 1.4.5 2.8 1.3 3.9.9 1.2 2.8 2.8 5.8 4.7 3 1.9 5.3 3.8 6.9 5.8 1.2 1.6 1.9 3.6 1.9 5.6 0 2.6-.9 5.1-2.7 6.9-1.7 1.8-4.1 2.9-6.6 2.8-1.9-.1-3.8-.5-5.6-1.2-.6-.2-1.2-.4-1.9-.4-.5 0-.9.4-1.2 1.3h-1v-9.4h1c0 2.6.8 4.7 2.4 6.2 1.4 1.5 3.4 2.3 5.5 2.2 1.8.1 3.5-.5 4.8-1.7 1.2-1.2 1.9-2.8 1.8-4.5-.1-1.4-.6-2.8-1.5-3.9-1-1.3-3-2.9-6.2-4.9-2.5-1.6-4.2-3-5.1-3.9-.8-.9-1.5-2-1.9-3.1-.4-1.2-.7-2.5-.7-3.8-.1-2.4.8-4.8 2.5-6.5 1.7-1.7 4-2.6 6.4-2.5 1.6 0 3.2.3 4.7.9.5.2 1.1.3 1.7.4.2.1.4 0 .6-.2.1-.3.2-.5.3-.8v-.1zM173 308.9h.8v7h-1c-.1-1.7-.8-3.3-2-4.5-1.2-1.1-2.8-1.8-4.5-1.7-1.4-.1-2.7.4-3.8 1.2-1 .8-1.5 2-1.5 3.2 0 1.2.5 2.4 1.2 3.4.7 1.1 2.5 2.5 5.2 4 2.7 1.6 4.8 3.2 6.2 4.9 1.1 1.4 1.7 3.1 1.7 4.8 0 2.3-.9 4.5-2.5 6.1-1.5 1.6-3.7 2.5-5.9 2.5-1.7-.1-3.4-.5-5.1-1.1-.5-.2-1.1-.4-1.7-.4-.4 0-.8.4-1.1 1.1h-.8v-8h1c-.1 2 .7 3.9 2.1 5.3 1.3 1.3 3.1 2 4.9 2 1.6.1 3.1-.5 4.3-1.5 1.1-1 1.7-2.5 1.6-3.9 0-1.3-.5-2.5-1.3-3.5-.9-1.1-2.7-2.5-5.5-4.3-2.8-1.7-4.3-2.8-4.5-3.4-.7-.8-1.3-1.8-1.7-2.8-.4-1-.6-2.1-.6-3.3-.1-2.1.7-4.1 2.1-5.6 1.6-1.4 3.6-2.2 5.7-2.1 1.4 0 2.9.3 4.2.8.5.2 1 .3 1.5.4.1 0 .3-.1.4-.2.1-.2.2-.4.3-.7l.3.3zm195.9-28v-2.5h3.7v-31.7H369v-2.4h15.3c5.9 0 10.5 1.5 13.7 4.6 3.2 3.1 4.8 7.4 4.8 13 0 5.8-1.6 10.5-4.7 13.9-3.1 3.4-7.5 5.1-12.9 5.1h-16.3zm8.8-2.8h3.6c3.3 0 5.8-.3 7.5-.8 1.8-.7 3.5-1.8 4.7-3.4 2.5-2.9 3.8-6.8 3.8-11.8 0-10.3-5.3-15.5-15.9-15.5h-3.6l-.1 31.5zm30.5 2.8v-2.5h3.7v-31.7h-3.7v-2.4h15.3c5.9 0 10.5 1.5 13.7 4.6 3.2 3.1 4.8 7.4 4.8 13 0 5.8-1.6 10.5-4.7 13.9-3.1 3.4-7.5 5.1-12.9 5.1h-16.2zm8.8-2.8h3.6c3.3 0 5.8-.3 7.5-.8 1.8-.7 3.4-1.8 4.6-3.4 2.5-2.9 3.8-6.8 3.8-11.8 0-10.3-5.3-15.5-16-15.5h-3.6l.1 31.5zm56.2 2.8H448v-2.5h3.7v-31.7H448v-2.4h24.2v6h-2.8v-3.6h-12.5v14.1h8.9v-3.1h2.4v8.6h-2.4v-3.1h-9v15.1h13.5v-3.9h2.8l.1 6.5zm-181.1 58.9h-17.8V338h2.6v-24.7h-2.6v-1.9h17.1v4.7h-2v-2.8h-8.9v10.8h6.2v-2.4h1.8v6.7h-1.7V326h-6.3v11.6h9.6v-3h2v5.2zm-144-69.9c0 3.5-1.2 6.1-3.7 7.9-2.4 1.8-5.5 2.6-9.3 2.4l-3.1-.1-3.9-.2c-1.3 0-2.6.1-3.9.3-.6.2-1 0-1.1-.6-.1-.6.3-.9 1.1-1.1.6-.3 1.2-.7 1.7-1.2.5-.6.7-1.4.7-2.2v-25.5c0-1.7-.9-2.8-2.8-3.2-.9-.2-1.3-.5-1.3-1 0-.4.1-.7.3-.9.4-.1.8-.1 1.1 0 1.2.1 2.4.2 3.5.2h8.1c3 0 5.4.6 7.2 1.9 1.8 1.3 2.8 3.4 2.9 6.4 0 3.7-2 6.3-6.1 7.7-.4.1-.4.3 0 .4 5.7 1 8.5 4 8.5 9l.1-.2zm-7.5-16.9c0-2.4-.6-4.1-1.7-5.2-1.1-1.1-2.8-1.6-5.2-1.6-1.9 0-2.9.3-3.1.9v12.4h2.1c2.7 0 4.7-.5 6-1.5 1.2-1 1.9-2.6 1.9-5zm2.4 17.4c0-3-.9-5.2-2.8-6.7s-3.9-2.2-6-2c-1.2 0-2.3.1-3.5.3v13.5c0 1.7 1.6 2.5 4.9 2.5 5 .1 7.5-2.4 7.5-7.5l-.1-.1z"/><circle cx="45.3" cy="239" r="3"/><circle cx="188.8" cy="308.6" r="2"/><path d="M336.3 315.5c0-.4-.1-.7-.3-1l-1.1-1c0-.1-.2-.2-.2-.3 0-.1 0-.2.2-.3h6.1c.1 0 .2.1.2.2l-.3.3-1.1 1c-.3.3-.4.6-.3 1v21.4c0 .3.1.7.3 1l1.1 1c0 .1.3.2.3.3 0 .1 0 .2-.2.3h-6.1c-.1 0-.2-.1-.2-.2l.3-.3 1.1-1c.3-.2.4-.6.4-1l-.2-21.4z"/><circle cx="337.3" cy="308.6" r="2"/><path d="M153.8 265h13v3.4h-13V265zm58.1 62.1v7c0 .8 0 1.5.1 2.2.1.4.2.7.4 1 .2.2.4.4.7.6l1.5.6v1h-10v-1c.7-.1 1.4-.4 2-.7.4-.3.6-.7.7-1.1.1-.8.2-1.6.2-2.4v-18c0-.7 0-1.4-.1-2.1-.1-.4-.2-.7-.4-1-.2-.2-.4-.4-.7-.6l-1.5-.6v-1h11.8c3.7 0 6.4.6 8.3 1.7 1.8 1.1 2.8 3 2.8 5.6 0 1.8-.7 3.5-1.9 4.8-1.1 1.3-2.9 2.4-5.3 3.1v.2c.9.3 1.8.8 2.5 1.5.9.9 1.6 1.9 2.2 3l2.1 3.4c.5.8 1 1.6 1.6 2.4.4.4.8.8 1.3 1.1.6.3 1.2.5 1.8.6v1.1h-6.6c-.6-.8-1.2-1.6-1.7-2.4l-1.6-2.6-2.1-3.5c-.5-.8-1.1-1.6-1.7-2.4-.3-.4-.7-.8-1.1-1.1-.3-.2-.7-.3-1-.3l-1.7-.1h-2.6zm0-14.2v12.4h2.7c1.1 0 2.3-.1 3.4-.3.8-.2 1.6-.5 2.2-1 .8-.5 1.4-1.2 1.8-2 .5-1 .7-2.1.7-3.2.1-1.2-.2-2.3-.8-3.4-.6-.9-1.4-1.6-2.4-2-1.3-.5-2.8-.7-4.2-.7l-3.4.2z"/><path d="M7.1 326.8h142.8v3.7H7.1v-3.7zm346 0h142.8v3.7H353.1v-3.7z" fill="#888"/></svg>
