<svg xmlns="http://www.w3.org/2000/svg" viewBox="0 0 267.1 47.1"><path d="M56.4 8.9l3.4-.5c2.5-.3 5-.2 7.4.4 3.2.9 4.9 3.1 4.8 6.2 0 1.6-.8 3.2-2.1 4.2l-1 .8.7.6c3.7 1.9 4.5 8.2.1 11.1-1.8 1.2-3.9 1.8-6.1 1.7-1.6-.1-3.2-.2-4.8-.5-1.2-.1-2.1-1.1-2.2-2.3-.1-.4-.1-.9-.1-1.3V18.5c0-3.6 0-6.3-.1-9.6zm4.4 13.3v6.6c0 2.2.5.9 1.1.9 1.1.1 2.2.1 3.3 0 1.7-.1 3-1.4 3.1-3.1.2-2.1-.6-3.5-2.5-4-1.6-.5-3.3-.6-5-.4zm.1-3.5h3.5c1.5.3 3-.7 3.3-2.2v-.4c.5-1.6-.4-3.3-2-3.8s-3.2-.6-4.8-.4v6.8zM217.3 16.8c.6-.3 1.3-.5 2-.7 1.6-.3 1.9 0 2.3 1.4 3.2-1.9 5.9-2 8.5 0l.7.6c2.4 2.4 3 7 1.4 10.5-1.5 3.2-4.9 5.1-8.5 4.8l-1.8-.3v8.1c-.9.6-1.9.7-2.9.5-.6 0-1.2-.6-1.2-1.2v-1.2-19.1c-.1-1-.4-2.1-.5-3.4zm4.4 2.7v8.1c0 2.7.1 2.4 2.4 2.6h.8c2.1-.2 3.8-1.8 4.1-3.9.5-3-.5-5.5-2.7-6.4-1.5-.6-3.1-.8-4.7-.4h.1zM87.1 33.6c-.8-.8-1.1-1.8-1-2.9V17.5c0-4.4-.1-6-.2-9.3l1.7-.5c1.9-.4 2.5.1 2.5 2v7.6l.6-.2c3.3-2 7.6-.8 9.6 2.5.4.7.7 1.4.8 2.1.7 2.6.3 5.3-1 7.6-2 3.6-6.4 5.1-10.2 3.7-1.1-.4-2-.7-2.8.6zm2.9-4l2 .5c2.8.6 4.5-1.1 5.1-3.4.1-.5.2-1.1.2-1.6.1-5.2-4-6.4-7.3-5.4v9.9zM187.7 24.8l.6-.7 5.4-7c1.3-1.6 3.1-1.4 4.3.3l-5.4 5.7 5 7.9c.6.8.6 1.2-.1 1.9-.8.9-2.1.9-3 .1-.9-.9-1.6-1.9-2.3-2.9-.8-1.2-1.4-2.5-2.1-3.7-2.8 1.5-2.6 4.1-2.3 6.7l-1.8.4c-1.6.1-2.2-.4-2.2-2.1V12.1c0-1.3-.1-2.6-.2-4.1.9-.2 1.8-.4 2.7-.5 1.1 0 1.4.4 1.4 1.5v15.8zM249.3 28.4c.7 2.9 0 3.8-2.3 4.6-5.9 2-12.5-1.4-11.6-9.5.4-4 2.6-6.5 6.1-7.2 1.3-.2 2.7-.2 4 .1 2.7.6 4.6 2.9 4.6 5.6v2.3c0 .8-.4 1.2-1.2 1.3l-3.5.2h-6c-.1 1.7.9 3.3 2.5 3.8 2.1.8 4.4.6 6.3-.4l1.1-.8zm-3.3-5.7c.4-2-.5-3.2-2.5-3.5-1.8-.3-3.6.9-3.9 2.7 0 .2-.1.5-.1.8h6.5zM107.7 25.5c0 2.1 1.6 3.9 3.7 4.2 2.1.5 4.4 0 6.1-1.3.8 1.7.5 3.1-1 4-4 2.4-9.1 1.1-11.5-2.8-.5-.9-.9-1.8-1.1-2.8-.5-3.2-.1-6.2 2.3-8.7 2.4-2.3 5.9-2.8 8.9-1.4 2.5 1.3 3.3 3.6 3.3 6.3-.1 2.1-.2 2.3-2.3 2.3l-8.4.2zm6.7-2.8c.2-2.2-.9-3.4-2.9-3.5-1.9-.2-3.5 1.2-3.7 3.1v.4h6.6zM147 25.5c-.1 2.2 1.6 4 3.7 4.2 2.1.5 4.3 0 6.1-1.3.8 1.9.4 3.2-1.3 4.2-4 2.3-9.2.8-11.4-3.2-.6-1.1-1-2.3-1.1-3.5-.2-3 .4-5.8 2.7-7.9 2.5-2.1 6-2.6 8.9-1.1 1.8 1 2.9 2.8 3.1 4.8.1.7.1 1.3 0 2-.1 1.5-.1 1.7-1.7 1.7l-9 .1zm6.7-2.8c.4-1.1 0-2.3-1-2.9-1.7-1.1-3.9-.7-5 1-.4.6-.6 1.2-.6 1.9h6.6zM214.2 30.9c-.1 1-.2 2-1.2 2.4s-2.9-.1-4.1-1.2l-1.4.7c-1.2.6-2.5.8-3.8.6-1.5-.1-2.9-1.1-3.4-2.6-.6-1.6-.3-3.4.9-4.6 1.4-1.5 3.2-2 5.1-2.4l2.2-.3c.6-2.3-.2-3.7-2.5-3.7-1.6.1-3.2.3-4.8.7-.8-.9-.7-2.3.3-3.1.2-.2.5-.3.7-.4 2.1-1 4.5-1.1 6.7-.5 2.3.7 3.8 2.9 3.7 5.3 0 2.2-.1 4.4-.2 6.5v1.9l1.8.7zm-5.5-4.8c-1.4.4-2.6.7-3.8 1.2-.7.3-1.1 1.1-.9 1.9.1.7.7 1.3 1.5 1.3l3.1-.2.1-4.2zM130.2 28.9c1.4 1 3.2 1.3 4.9 1.1.9-.1 1.6-.4 1.7-1.4s-.5-1.4-1.2-1.7l-2.8-1.2c-2.4-1-3.5-3.8-2.5-6.2.3-.7.8-1.4 1.4-1.8 2.3-1.7 5.3-2.2 8-1.2.3.1.6.4.7.7.4.9.3 1.9-.1 2.8-1-.3-2.1-.5-3.1-.6-.8-.1-1.6 0-2.3.3-.7.2-1.1.9-.9 1.6.1.3.3.6.7.8l1.2.6 2.1.9c2.5 1.2 3.6 4.1 2.4 6.6-.4.9-1.1 1.6-1.9 2.2-2.1 1.4-4.8 1.7-7.2.8-1.1-.2-1.7-1.3-1.5-2.4.1-.7.2-1.2.4-1.9zM179.8 20c-1.1-.3-2.1-.5-3.2-.6-.7-.1-1.5 0-2.2.3-.5.3-.9.7-1.1 1.3-.1.3.4 1 .8 1.2l3.3 1.5c1.2.6 2.2 1.7 2.5 3 .7 2.4-.4 5-2.7 6.1-1.7.9-3.7 1.1-5.6.7-2.5-.5-3.1-1.9-2-4.3 1.4.9 3.1 1.3 4.8 1 .8-.1 1.5-.4 1.6-1.3s-.4-1.4-1.2-1.7L172 26c-2.4-1-3.6-3.9-2.5-6.3.4-.9 1-1.6 1.7-2.1 2.2-1.5 5-1.8 7.5-.9.4.2.8.5.9 1 .1.8.2 1.5.2 2.3zM254.1 19.8h-2c-.8-2.2-.3-2.9 1.9-3.1.3-1.3-.4-3 1.2-4 .9-.5 1.9-.7 2.9-.5v4.5h3.9c.1.6.1 1.1.1 1.7-.1 1.1-.4 1.4-1.5 1.4H258v8c0 2 .7 2.7 2.8 2.4l1.2-.2c.3 1.3-.4 2.7-1.7 3.1-3.2 1.3-6-.5-6.1-4s0-5.2 0-7.8c-.1-.4-.1-.8-.1-1.5zM165.7 32.8l-.7.4c-2.1.9-3.4.1-3.4-2.2V12.7c0-1.4-.1-2.8-.1-4.5l1.8-.6c1.7-.3 2.3.2 2.3 1.9v19.8c-.2 1.1 0 2.2.1 3.5zM126.4 32.8l-1.4.6c-1.7.5-2.7-.2-2.9-2v-1.3-18c0-1.2-.1-2.5-.2-3.9l1.6-.5c1.9-.4 2.5.1 2.5 2v20c.1 1 .3 1.9.4 3.1zM81.3 32.8l-1.2.6c-1.9.6-3.1-.2-3.1-2.2v-7.3c0-2.4-.1-4.7-.2-7.3.8-.2 1.7-.4 2.5-.5 1.2 0 1.6.5 1.6 1.6v10.7c0 1.4.3 2.8.4 4.4zM81.5 10.9c-.1 1.6-1 2.4-2.8 2.3-1.2.1-2.2-.8-2.2-2v-.5c0-1.3 1.1-2.4 2.4-2.4h.3c1.2-.1 2.3.8 2.3 2.1v.5z"/><g><path fill="#ec1c24" d="M.1 6.4c2.2 0 4.4 1 5.9 2.6 3 2.8 4.4 6.5 5.3 10.4 1.3 6.2 1.6 12.6 1.1 19 0 .4-.2.8-.4 1.1-.5-2.2-1.9-4.1-3.9-5.2-3.1-2-4.7-5-5.8-8.4C1.4 23 .8 20 .5 17c0-.3.1-.7-.3-.8L.1 6.4zM19.4 45c1.6-10.1 3.8-20 11-27.8 4-4.4 9.4-7.1 15.3-7.7.6-.1.9 0 .9.6 0 5.6.2 11.2-1.5 16.7-.4 1.5-1.2 2.9-2.1 4.2-1.4 1.9-3.6 3.2-6 3.3-3.5.2-7 1.1-10.1 2.7-2.9 1.6-5.2 4.1-6.6 7.1-.3.3-.3.7-.9.9zM17.4 33.4c.4-6.5.9-12.9 3.2-19 1.9-5.3 5.5-9.7 10.3-12.6.3-.2.6-.3 1-.3v6.8c0 .3-.2.6-.5.7-6.5 4.7-9.9 11.3-12 18.7-.6 2.2-1.1 4.5-1.7 6.7-.6-.1-.3-.6-.3-1z"/><path d="M17.4 33.4c.1.3-.1.7.2 1 0 .5-.1.9-.4 1.3-.1-.8 0-1.6.2-2.3z" fill="#f58f93"/></g></svg>
