<svg xmlns="http://www.w3.org/2000/svg" viewBox="0 0 711 140"><path d="M193.5 72.2c3.6 1.1 6.4 2.8 8.3 5 1.9 2.2 2.9 4.8 2.9 7.8 0 2.6-.4 4.9-1.3 6.8-.9 1.9-2.2 3.5-4 4.7s-3.9 2.1-6.3 2.7c-2.4.6-5.5.9-9.2.9h-24.1v-2.6c1-.3 1.7-.5 2.3-.8s1-.7 1.3-1.3c.3-.5.4-1.2.5-2s.1-1.9.1-3.1V56.6c0-1.2 0-2.3-.1-3.1s-.2-1.5-.5-2-.7-.9-1.3-1.3c-.6-.3-1.3-.6-2.3-.9v-2.6h25.6c2.9 0 5.3.1 7.1.4 2.4.4 4.6 1.1 6.4 2 1.6.9 2.9 2.1 3.8 3.7.9 1.6 1.4 3.5 1.4 5.7 0 5.9-3.5 10.3-10.6 13.2v.5zm-12.2-2.1c2.6 0 4.6-.4 6.1-1.1 1.5-.8 2.6-1.8 3.4-3.2.8-1.4 1.2-3.3 1.2-5.8 0-2.2-.4-3.9-1.3-5.1-.8-1.3-2-2.2-3.6-2.7-1.5-.5-3.5-.8-5.7-.8-1.8 0-3.6.1-5.3.2v18.5h5.2zm-5.2 25.3c1.5.1 3.3.1 5.3.1 2.5 0 4.5-.3 6.1-.9s2.8-1.7 3.7-3.2 1.3-3.6 1.3-6.3c0-1.9-.2-3.5-.7-4.8s-1.2-2.4-2.1-3.2-2.1-1.4-3.4-1.8c-1.3-.4-2.9-.6-4.9-.6h-5.3v20.7zm35.4 2.1c1.3-.3 2.2-.8 2.6-1.3.5-.5.8-1.3 1-2.2.2-.9.3-2.6.3-5.1V70.7c0-1.3-.1-2.3-.2-3.1s-.3-1.4-.7-1.9c-.3-.5-.8-.8-1.3-1.1-.6-.2-1.3-.5-2.2-.6v-2.7l10.7-.3h4.9v27.8c0 1.5 0 2.6.1 3.4 0 .8.1 1.4.2 1.8l.3 1.2c.1.3.3.7.6.9.2.3.6.5 1 .8.4.2 1 .4 1.8.6v2.6h-19.1v-2.6zm14.9-51.7v9.6h-10.7v-9.6h10.7zm13.2 11.8v-4.3c0-1-.1-1.8-.2-2.6-.1-.7-.3-1.3-.6-1.7s-.7-.8-1.2-1c-.5-.3-1.3-.5-2.4-.7v-2.6l10.9-.5h4.8v22.4c1.6-1.4 2.9-2.5 4.1-3.3 1.2-.8 2.4-1.4 3.8-1.9 1.3-.5 2.7-.7 4.3-.7 4.6 0 8.1 1.6 10.4 4.9s3.5 8.2 3.5 14.7c0 4.5-.7 8.3-2.1 11.3s-3.4 5.3-6.1 6.8-6 2.3-10 2.3c-4.1 0-7.9-.7-11.3-2.2l-2.9 2.2-5-.7V57.6zm11.3 29.7c0 3.2.6 5.6 1.7 7.1s2.8 2.3 5.1 2.3c2.4 0 4.2-1.3 5.5-3.8s1.9-6.1 1.9-10.8c0-5.1-.6-9-1.7-11.5s-2.9-3.8-5.2-3.8c-1.1 0-2.3.3-3.4.9-1.1.6-2 1.5-2.8 2.6-.7 1.1-1.1 2.3-1.1 3.7v13.3zm68.5 5.7c-2.7 2.8-5.3 4.8-7.9 6s-5.6 1.8-9 1.8c-6.1 0-10.6-1.7-13.7-5s-4.6-8.2-4.6-14.8c0-4.2.8-7.9 2.4-10.9 1.6-3.1 3.8-5.4 6.7-7 2.9-1.6 6.3-2.4 10.1-2.4 2.4 0 4.4.3 6.2.8 1.8.5 3.3 1.3 4.6 2.3 1.3 1 2.3 2.2 3.2 3.5 1 1.6 1.7 3.5 2.2 5.6.5 2.2.8 4.8.8 7.9h-24.8c0 4.7.9 8.2 2.5 10.4 1.7 2.2 4.2 3.3 7.6 3.3 2 0 3.8-.4 5.4-1.1s3.3-2.1 5.2-3.9l3.1 3.5zm-10.6-16.4c-.1-4-.6-7-1.6-8.9s-2.4-2.9-4.5-2.9c-2 0-3.6 1-4.8 3-1.2 2-1.9 5-2.1 8.8h13zm32.3 12.2c0 2.5.1 4.2.2 5.1s.5 1.7 1 2.2c.5.6 1.4 1 2.7 1.3v2.7h-19.1v-2.6c.8-.2 1.4-.4 1.8-.6s.8-.5 1-.9c.2-.3.5-.7.6-1.3.2-.5.3-1.2.4-2.1s.1-2.2.1-3.8V58.3c0-2.2 0-3.9-.1-4.9s-.1-1.9-.2-2.7c-.1-.7-.3-1.3-.6-1.7s-.7-.8-1.2-1c-.5-.3-1.3-.5-2.4-.7v-2.6l10.8-.5h4.9v44.6h.1zm15.1.8c.6 2.4 1.6 4.1 3 5.3 1.4 1.2 3.2 1.8 5.4 1.8 2 0 3.4-.4 4.4-1.3s1.5-2.2 1.5-3.9c0-1.1-.2-2-.7-2.7-.5-.8-1.2-1.5-2.3-2.2-1.1-.7-2.9-1.6-5.4-2.7-1.4-.6-2.8-1.3-4-2.1-1.3-.8-2.4-1.6-3.3-2.6s-1.7-2-2.2-3.2-.8-2.5-.8-3.9c0-2.3.7-4.4 2-6.1 1.4-1.7 3.3-3 5.8-3.9s5.4-1.4 8.6-1.4c1.9 0 3.8.1 5.6.2 1.8.2 4.2.5 7.1 1v9.2h-5.2c-.6-1.7-1.3-3-2-3.9s-1.5-1.5-2.4-1.9-1.9-.5-3.1-.5c-1.7 0-3.1.4-4.1 1.2-1 .8-1.5 1.9-1.5 3.3 0 1 .2 1.8.5 2.5.4.7 1 1.4 2 2.1s2.7 1.6 5.4 2.7c2.4 1 4.4 2.1 6 3.2 1.5 1.1 2.7 2.4 3.5 3.8s1.2 3.1 1.2 5.1c0 2.1-.4 3.9-1.2 5.4s-1.9 2.8-3.3 3.8-3.1 1.7-5.1 2.2-4.1.7-6.5.7c-4.3 0-9.1-.6-14.3-1.8v-9.3l5.4-.1zm67 3.4c-2.7 2.8-5.3 4.8-7.9 6s-5.6 1.8-9 1.8c-6.1 0-10.6-1.7-13.7-5S388 87.7 388 81c0-4.2.8-7.9 2.4-10.9 1.6-3.1 3.8-5.4 6.7-7 2.9-1.6 6.3-2.4 10.1-2.4 2.4 0 4.4.3 6.2.8 1.8.5 3.3 1.3 4.6 2.3 1.3 1 2.3 2.2 3.2 3.5 1 1.6 1.7 3.5 2.2 5.6.5 2.2.8 4.8.8 7.9h-24.8c0 4.7.9 8.2 2.5 10.4 1.7 2.2 4.2 3.3 7.6 3.3 2 0 3.8-.4 5.4-1.1s3.3-2.1 5.2-3.9l3.1 3.5zm-10.5-16.4c-.1-4-.6-7-1.6-8.9s-2.4-2.9-4.5-2.9c-2 0-3.6 1-4.8 3-1.2 2-1.9 5-2.1 8.8h13zm32.2 12.2c0 2.5.1 4.2.2 5.1s.5 1.7 1 2.2c.5.6 1.4 1 2.7 1.3v2.7h-19.1v-2.6c.8-.2 1.4-.4 1.8-.6s.8-.5 1-.9c.2-.3.5-.7.6-1.3.2-.5.3-1.2.4-2.1s.1-2.2.1-3.8V58.3c0-2.2 0-3.9-.1-4.9s-.1-1.9-.2-2.7c-.1-.7-.3-1.3-.6-1.7s-.7-.8-1.2-1c-.5-.3-1.3-.5-2.4-.7v-2.6l10.8-.5h4.9v44.6h.1zm15.1.8c.6 2.4 1.6 4.1 3 5.3 1.4 1.2 3.2 1.8 5.4 1.8 2 0 3.4-.4 4.4-1.3s1.5-2.2 1.5-3.9c0-1.1-.2-2-.7-2.7-.5-.8-1.2-1.5-2.3-2.2-1.1-.7-2.9-1.6-5.4-2.7-1.4-.6-2.8-1.3-4-2.1-1.3-.8-2.4-1.6-3.3-2.6s-1.7-2-2.2-3.2-.8-2.5-.8-3.9c0-2.3.7-4.4 2-6.1 1.4-1.7 3.3-3 5.8-3.9s5.4-1.4 8.6-1.4c1.9 0 3.8.1 5.6.2 1.8.2 4.2.5 7.1 1v9.2h-5.2c-.6-1.7-1.3-3-2-3.9s-1.5-1.5-2.4-1.9-1.9-.5-3.1-.5c-1.7 0-3.1.4-4.1 1.2-1 .8-1.5 1.9-1.5 3.3 0 1 .2 1.8.5 2.5.4.7 1 1.4 2 2.1s2.7 1.6 5.4 2.7c2.4 1 4.4 2.1 6 3.2 1.5 1.1 2.7 2.4 3.5 3.8s1.2 3.1 1.2 5.1c0 2.1-.4 3.9-1.2 5.4s-1.9 2.8-3.3 3.8-3.1 1.7-5.1 2.2-4.1.7-6.5.7c-4.3 0-9.1-.6-14.3-1.8v-9.3l5.4-.1zm59.3-14.1l10.1 14.9c1.5 2.2 2.6 3.7 3.3 4.6.7.8 1.3 1.4 1.8 1.8s1.2.6 2 .8v2.5h-19.1v-2.6c1.2-.2 1.8-.8 1.8-1.8 0-.7-.2-1.5-.7-2.4s-1.3-2.4-2.7-4.3l-3-4.5c-.7-1-1.2-1.8-1.6-2.2-.4-.5-.8-.8-1.2-1-.4-.2-1-.4-1.7-.4h-1.9v8c0 2.5.1 4.2.2 5.1s.5 1.7 1 2.2c.5.6 1.4 1 2.7 1.3v2.6h-19.2v-2.6c.8-.2 1.4-.4 1.8-.6s.8-.5 1-.9c.2-.3.5-.7.6-1.3.2-.5.3-1.2.4-2.1s.1-2.2.1-3.8V58.3c0-2.2 0-3.9-.1-4.9s-.1-1.9-.3-2.7c-.1-.7-.3-1.3-.6-1.7-.3-.4-.6-.8-1.1-1-.5-.3-1.3-.5-2.4-.7v-2.6l10.9-.5h4.8v32.9h1.3c.9 0 1.6-.1 2.1-.3.5-.2 1.1-.5 1.6-.9.6-.4 1.4-1.1 2.6-2.2s2.1-2 2.7-2.8c.6-.8 1-1.5 1.2-2.1.2-.6.3-1.2.3-1.8 0-1.8-1.1-2.9-3.4-3.2v-2.5h19.5v2.5c-1 .2-2.1.6-3.4 1.4s-3.2 2.4-5.9 4.9l-5.5 5.4zM562.1 95l-.6-.2c-2.1 2.1-4.2 3.6-6.2 4.5s-4.2 1.4-6.4 1.4-4.2-.4-5.8-1.2c-1.7-.8-2.9-2-3.8-3.4-.8-1.5-1.3-3.1-1.3-5 0-3.8 1.9-6.8 5.6-9 3.8-2.2 9.5-3.6 17.1-4.2v-3.8c0-2.4-.3-4.3-.8-5.6s-1.3-2.2-2.1-2.8c-.9-.5-1.9-.8-3.1-.8-1.2 0-2.2.2-3.1.6-.9.4-1.7 1.2-2.4 2.4s-1.2 2.8-1.6 4.8h-7.4v-7.1c2.4-1.1 4.4-1.9 6-2.5s3.2-1 4.7-1.4 2.9-.6 4.2-.8c1.2-.2 2.4-.2 3.7-.2 3.2 0 5.7.4 7.6 1.3 1.9.8 3.3 2.2 4.2 4.1.9 1.9 1.4 4.5 1.4 7.8v15.2c0 1.7 0 3 .1 4s.2 1.6.4 2.1.4.8.6 1.1c.3.3.6.5 1 .7s1.1.4 2.1.6v2.5h-14.5l.4-5.1zm-1.3-13.3c-4 .1-7 .9-9 2.3-1.9 1.4-2.9 3.5-2.9 6.2 0 1.6.4 2.8 1.3 3.7.9.8 2.1 1.3 3.7 1.3 1.2 0 2.3-.3 3.4-1 1.1-.6 1.9-1.5 2.5-2.6s.9-2.2.9-3.4l.1-6.5zm23.9-24.1v-4.3c0-1-.1-1.8-.2-2.6-.1-.7-.3-1.3-.6-1.7-.3-.4-.7-.8-1.2-1-.5-.3-1.3-.5-2.4-.7v-2.6l10.9-.5h4.8v22.4c1.6-1.4 2.9-2.5 4.1-3.3s2.4-1.4 3.8-1.9c1.3-.5 2.7-.7 4.3-.7 4.6 0 8.1 1.6 10.4 4.9 2.3 3.3 3.5 8.2 3.5 14.7 0 4.5-.7 8.3-2.1 11.3-1.4 3-3.4 5.3-6.1 6.8-2.7 1.5-6 2.3-10 2.3-4.1 0-7.9-.7-11.3-2.2l-2.9 2.2-5-.7V57.6zM596 87.3c0 3.2.6 5.6 1.7 7.1s2.8 2.3 5.1 2.3c2.4 0 4.2-1.3 5.5-3.8 1.3-2.5 1.9-6.1 1.9-10.8 0-5.1-.6-9-1.7-11.5s-2.9-3.8-5.2-3.8c-1.1 0-2.3.3-3.4.9-1.1.6-2 1.5-2.8 2.6-.7 1.1-1.1 2.3-1.1 3.7v13.3zm68.5 5.7c-2.7 2.8-5.3 4.8-7.9 6-2.6 1.2-5.6 1.8-9 1.8-6.1 0-10.6-1.7-13.7-5s-4.6-8.2-4.6-14.8c0-4.2.8-7.9 2.4-10.9 1.6-3.1 3.8-5.4 6.7-7s6.3-2.4 10.1-2.4c2.4 0 4.4.3 6.2.8 1.8.5 3.3 1.3 4.6 2.3 1.3 1 2.3 2.2 3.2 3.5 1 1.6 1.7 3.5 2.2 5.6.5 2.2.8 4.8.8 7.9h-24.8c0 4.7.9 8.2 2.5 10.4 1.7 2.2 4.2 3.3 7.6 3.3 2 0 3.8-.4 5.4-1.1 1.6-.7 3.3-2.1 5.2-3.9l3.1 3.5zM654 76.6c-.1-4-.6-7-1.6-8.9s-2.4-2.9-4.5-2.9c-2 0-3.6 1-4.8 3-1.2 2-1.9 5-2.1 8.8h13zm44.3 18.8c-2.3 2-4.4 3.3-6.3 4.1-1.9.8-3.9 1.2-5.9 1.2-3.9 0-6.8-1-8.7-3.1s-2.9-5.3-2.9-9.5V66.2h-4.9v-2.7c1.6-.3 2.8-.7 3.5-1.2.8-.5 1.3-1.2 1.8-2.1.4-.9.7-2 1-3.4.2-1.4.4-3.2.6-5.3h9.3v9.8h11.1v4.9h-11.1v17.6c0 2.9.1 5.1.4 6.5s.7 2.4 1.4 3.1c.7.7 1.5 1 2.4 1 .7 0 1.4-.1 2-.2s1.2-.4 1.8-.7c.6-.3 1.3-.8 2-1.4l2.5 3.3z"/><path fill="#749" d="M89.3 115.7c1.3-.6 2.3-1.7 3-3.2.7-1.5 1.1-3.6 1.1-6.3 0-1.9-.2-3.5-.6-4.8-.4-1.3-.9-2.4-1.7-3.2s-1.6-1.4-2.7-1.8c-1-.4-2.3-.6-3.9-.6h-4.3v20.7c1.2.1 2.6.1 4.3.1 1.9 0 3.5-.3 4.8-.9zM89.2 90.1c1.2-.8 2.1-1.8 2.7-3.2.6-1.4.9-3.3.9-5.8 0-2.2-.3-3.9-1-5.1-.7-1.3-1.6-2.2-2.8-2.7-1.2-.5-2.8-.8-4.6-.8-1.5 0-2.9.1-4.3.2v18.6h4.2c2.1-.1 3.7-.5 4.9-1.2z"/><path fill="#749" d="M83.4 5.1H58.8C26.9 5.1 1.1 30.9 1.1 62.9v17.3c0 31.9 25.8 57.7 57.7 57.7h24.6c31.9 0 57.7-25.8 57.7-57.7V62.9c0-32-25.8-57.8-57.7-57.8zm33.7 64.6c-6.9-.3-14-.6-21.2-.7.9.3 1.7.8 2.5 1.3 1.3.9 2.3 2.1 3 3.7.7 1.6 1.1 3.5 1.1 5.7 0 5.9-2.8 10.3-8.5 13.2v.4c2.9 1.1 5.1 2.8 6.7 5 1.5 2.2 2.3 4.8 2.3 7.8 0 2.6-.3 4.9-1 6.8-.7 1.9-1.8 3.5-3.2 4.7-1.4 1.2-3.1 2.1-5 2.7-1.9.6-4.4.9-7.4.9H65.5c1-15.4 1.5-31.7 1.5-48.7v-3.7c-14.8 0-29.4.3-43.3 1v-9.2c13.9.6 28.2.9 43.2 1-.3-13.6-1.1-27.1-1.9-39.7h10c-.6 12.8-.9 26-1 39.6 15.4 0 29.8-.3 43.2-1l-.1 9.2z"/></svg>
