<svg xmlns="http://www.w3.org/2000/svg" viewBox="0 0 527 155.9"><g><path d="M275.6,38.5c.5,3.6,3,6.5,8.8,6.5s8.3-2,8.3-6-2.2-5.7-9.4-8-11.8-5.1-11.8-10.1,4.6-8.7,13.2-8.7c10.1,0,12.8,4.9,13,8.9H292c-.3-1.7-1.1-5.7-7.6-5.7s-7.2,2.3-7.2,5.1,2.2,5,8.8,7c9.2,2.9,12.5,5.9,12.5,11.1s-4.6,9.6-14.3,9.6-14-4.6-14.4-9.7Z" transform="translate(-5.1 -12.1)"/><path d="M335.2,29.8c0,12-4.3,18.4-15.6,18.4S304.3,42,304.3,29.9s5.3-17.8,15.6-17.8S335.2,17.9,335.2,29.8Zm-25,0c0,10,3,15,9.6,15s9.4-4.9,9.4-15-3-14.4-9.5-14.4S310.2,20.3,310.2,29.8Z" transform="translate(-5.1 -12.1)"/><path d="M371.5,38c-.2,2-1.5,10.2-14.3,10.2s-15.1-9.9-15.1-18.3c0-10.2,4.1-17.8,15.7-17.8s13.4,7.9,13.5,10.1h-5.8c-.2-1.2-.5-6.6-7.8-6.6s-9.6,7.5-9.6,14.4,1.2,14.9,9.2,14.9,8-5.1,8.3-6.8Z" transform="translate(-5.1 -12.1)"/><path d="M384.7,12.6V47.7h-5.8V12.6Z" transform="translate(-5.1 -12.1)"/><path d="M418.4,30.9H400.8V44.3h19.5l-.8,3.4H395.1V12.6h24.1V16H400.8V27.5h17.6Z" transform="translate(-5.1 -12.1)"/><path d="M426.7,12.6h11.7c12.1,0,17.6,5.6,17.6,16.6s-4.9,18.5-18.4,18.5H426.7Zm5.8,31.8h4.8c9.7,0,12.7-5.1,12.7-15s-3.6-13.4-12.6-13.4h-4.9Z" transform="translate(-5.1 -12.1)"/><path d="M469.6,36.6l-3.9,11.1H460l12.7-35.1h7.5l13.1,35.1h-6.2l-3.9-11.1ZM482,33.1c-3-8.6-5-14.1-5.7-16.9h-.2c-.8,3-2.9,9.4-5.5,16.9Z" transform="translate(-5.1 -12.1)"/><path d="M498.9,12.6h11.7c12.1,0,17.6,5.6,17.6,16.6s-4.9,18.5-18.4,18.5H498.9Zm5.8,31.8h4.8c9.7,0,12.7-5.1,12.7-15s-3.6-13.4-12.6-13.4h-4.9Z" transform="translate(-5.1 -12.1)"/><path d="M275.1,62.6h17.7a43.3,43.3,0,0,1,10.1.9,10.7,10.7,0,0,1,5.9,4,11.9,11.9,0,0,1,2.4,7.5q0,8.1-8.7,10.7,10.5,2.8,10.5,12.3a12.8,12.8,0,0,1-4.1,9.4q-4.1,4-15.8,4H275.1Zm9.5,20.2h6.1q6.5,0,8.5-2a6.8,6.8,0,0,0,2.1-5.1q0-3.7-2.4-5.3t-7.3-1.6h-7.1Zm0,22.1h7.8q10.7,0,10.7-7.9a7.9,7.9,0,0,0-2.3-5.5q-2.3-2.4-9.2-2.4h-7Z" transform="translate(-5.1 -12.1)"/><path d="M329,70.4h-6.7l4.4-13.7h9Zm-6.5,4.9h8.9v36.1h-8.9Z" transform="translate(-5.1 -12.1)"/><path d="M342.2,62.6h17.7a43.3,43.3,0,0,1,10.1.9,10.7,10.7,0,0,1,5.9,4,11.9,11.9,0,0,1,2.4,7.5q0,8.1-8.7,10.7,10.5,2.8,10.5,12.3a12.8,12.8,0,0,1-4.1,9.4q-4.1,4-15.8,4H342.2Zm9.5,20.2h6.1q6.5,0,8.5-2a6.8,6.8,0,0,0,2.1-5.1q0-3.7-2.4-5.3t-7.3-1.6h-7.1Zm0,22.1h7.8q10.7,0,10.7-7.9a7.9,7.9,0,0,0-2.3-5.5q-2.3-2.4-9.2-2.4h-7Z" transform="translate(-5.1 -12.1)"/><path d="M390,62.6h9.7v42h20.7v6.8H390Z" transform="translate(-5.1 -12.1)"/><path d="M425.8,62.6h9.7v48.8h-9.7Z" transform="translate(-5.1 -12.1)"/><path d="M476,95l8.9,1q-2.7,16.3-19.1,16.3-10.6,0-15.9-6.8t-5.2-18.3q0-12.3,5.5-18.9t15.9-6.6q16.1,0,18.8,16.7l-9,1.1q-1.5-11.1-9.8-11.1Q455,68.4,455,87.7t11.2,18q4.5,0,6.7-2.7A17.5,17.5,0,0,0,476,95Z" transform="translate(-5.1 -12.1)"/><path d="M504.2,62.6H515l15.7,48.8h-9.8l-3.7-12.2H500.1l-3.6,12.2h-9.2Zm11.2,30.2-6.7-22.4L502,92.8Z" transform="translate(-5.1 -12.1)"/></g><g><path fill="#0d5cab" d="M5.1,168c8.6-6.8,16.2-12.8,24-18.7.8-.6,2.5-.5,3.6-.1,33.5,11.1,66.7,9.3,100.1-.6a458.8,458.8,0,0,1,46.5-11.2c15.6-2.9,31,.5,45.3,6.7s27.3,13.1,40.9,19.7a3.1,3.1,0,0,1,1.6,2.2c-9-.5-18.1-1.3-27.1-1.5-28.8-.5-57.6-1.2-86.4-.9-27.1.4-54.2,2.2-81.4,3.1-19.8.7-39.6.9-59.4,1.3Z" transform="translate(-5.1 -12.1)"/><path fill="#0d5cab" d="M258,153.4c-7.2-3.7-14.5-7.3-21.7-11.2-25.5-13.9-52-14.7-79.4-6.8-17.4,5.1-34.7,10.9-52.3,14.6-31.5,6.6-61.7,3.3-88.6-16.2-2.3-1.7-4.5-3.7-6.6-5.5l53.7-6c18.1-2.1,33.8-10.1,49-19.5-25,22.7-56.6,24.5-88.2,28a47,47,0,0,0,4.6,3.3c24.8,13.6,50.9,15.6,77.9,8.6,16.4-4.3,32.6-9.4,49-13.7,32-8.4,62-3.9,89.6,14.9l13.2,8.8Z" transform="translate(-5.1 -12.1)"/><path fill="#0d5cab" d="M30.2,108.9c12.6-10,27.4-16.2,41.9-22.8,18.4-8.3,36.1-17.9,51.2-31.5C107.2,74,85.2,84.5,62.5,94.7c74.4-18.9,138.8.1,195.2,49.6l-.5,1.3-7-5.2c-23.5-17.1-48.1-32.5-76.6-39.9-24.8-6.4-50.1-6.6-75.4-5A262.9,262.9,0,0,0,30.2,108.9Z" transform="translate(-5.1 -12.1)"/></g><g><path d="M307.8,154.3c-1.9,7.4-7.4,12.8-17.3,12.8-13,0-19.5-9.9-19.5-22.1s6.5-22.5,19.7-22.5c10.2,0,15.8,5.9,17.1,13.1H302c-1.6-4.7-4.7-8.3-11.5-8.3-9.6,0-13.5,8.7-13.5,17.5s3.7,17.5,13.7,17.5c6.7,0,9.6-3.9,11.2-8Z" transform="translate(-5.1 -12.1)"/><path d="M316.2,123.2h5.7v18.1h22.6V123.2h5.8v43.4h-5.8V146.2H321.9v20.3h-5.7Z" transform="translate(-5.1 -12.1)"/><path d="M367.8,123.2v43.4h-5.7V123.2Z" transform="translate(-5.1 -12.1)"/><path d="M379.7,123.2h5.7v38.5H408l-.8,4.9H379.7Z" transform="translate(-5.1 -12.1)"/><path d="M441.5,146.3H419.9v15.3h23.7l-.7,4.9H414.3V123.2h28.3v4.9H419.9v13.3h21.6Z" transform="translate(-5.1 -12.1)"/><path d="M451.5,166.6V123.2h7.6c6.2,10.2,19.8,31.7,22.2,36.4h.1c-.4-5.6-.4-12.4-.4-19.5v-17h5.4v43.4h-7.2c-5.7-9.4-19.8-32.6-22.5-37.5h-.1c.3,4.9.3,12.3.3,20.1v17.3Z" transform="translate(-5.1 -12.1)"/><path d="M503.8,153.5l-4.7,13h-5.7l15.5-43.4h7l16.2,43.4h-6.2l-4.8-13Zm15.8-4.9c-4.2-11.4-6.4-17.5-7.4-20.8h-.1c-1.1,3.7-3.6,11-6.9,20.8Z" transform="translate(-5.1 -12.1)"/></g></svg>
