<svg id="Layer_1" xmlns="http://www.w3.org/2000/svg" viewBox="0 0 500 500"><path fill-rule:evenodd clip-rule="evenodd" fill="#039" d="M112.8 474.9l37.5-3.2c1.7-.1 4.4-2.7 4.4-4.6l.1-7.7V288.7l-.4-7.7c-6.8-7.2-28.6-5.7-39.9-8.4v-14.5H253c37.8 0 87 26.3 87 69.2 0 43-46.4 55.3-81.4 55.2.8.8 33.6 11.3 44.4 18.8 14.2 9.9 22.5 22.9 22.5 40.3 0 43.7-49.2 46.7-82.1 46.7H112.8v-13.4zm88.7-3.1c29.8 1.2 77.3-1.9 77.3-45.1s-47.2-43-75.7-43h-1.6v88.1zm40.3-196h-9.7c-10 0-23.6 2.7-30.6 10.1v83.3c35.3 0 89.9-1.6 89.6-50-.1-24.3-21.1-43.4-49.3-43.4" transform="matrix(1.33333 0 0 -1.33333 -52 697.212)"/><path fill-rule:evenodd clip-rule="evenodd" fill="#039" d="M164.5 227.5l-48.3-4.7-22.5-.2c-23.3-.6-38.1 15.5-37 38.7H40.5c0-44.1 21.6-69.2 66-69.2h3.2l49.9 4.9h33.8c14.8 0 25.4-5 25.8-20.9h16.1c0 17 10.1 20.9 25.8 20.9h24.2l53.1-5 11.3.1c15.8 0 36.8 6.8 48 18 15.2 15.2 14.8 29.9 14.8 51.2H398c0-22.6-13.8-38.7-37-38.7h-27.4l-43.5 5-12.9-.2c-29.7 0-32.6-10.2-47.1-29H224c-12.1 17.6-17.2 29-45.1 29l-14.4.1z" transform="matrix(1.33333 0 0 -1.33333 -52 697.212)"/></svg>
