<svg xmlns="http://www.w3.org/2000/svg" viewBox="0 0 802.5 209"><path d="M461.5 138.5l-11.1-14H263.9v6.5h-58.4v-6.5H19l-11.1 14h181.6L182 150h105.4l-7.5-11.5h181.6z"/><path d="M387.5 99l38.4-86.8S282.5 5.3 232.5 94c0 0-13.2-18.5-62.7-20.4-34-2.4-135.6 16.5-135.6 16.5L27 99.2s189-44.9 207.7 9.3c0 0 19.5-42.7 65.7-63.4 51.5-23.1 114-25.6 114-25.6L379 98.1z"/><g><path d="M29.2 185.9c-2 1.5-5.6 4.4-7.9 4.1s-4.5-2.8-4.5-5.6 2.6-7.7 5-10.1 10.1-8.7 21.2-10a1.5 1.5 0 0 1 1.6.7 5.2 5.2 0 0 1 .7 2.6c0 1-.8 1.7-1.7 2.2-5.6 3.6-6.4 3.7-6.7 3.7a.5.5 0 0 1-.5-.6c0-.4.8-1 1.1-1.2l1.7-1.4H39c-12 3.5-19.2 13.4-18.8 15.4s.5 1.5 1.4 1.5a5.7 5.7 0 0 0 2.7-1.2L39 174.8a1.5 1.5 0 0 1 .9-.5 4.5 4.5 0 0 1 1.5.7c.4.2 1 .6 1 1.1a4.3 4.3 0 0 1-.6 1.4c-1.7 3.5-4.3 7-7.4 11.9h.1l8.9-5.7c-.1 1.8.2 2.1-5.3 5.8l-6.5 4.4c-1.7 2.3-7.7 8.9-10.5 8.9-1 0-1.4-.8-1.5-1.7-.1-2.7 3.5-6.3 7.4-8.2a52.5 52.5 0 0 0 6.4-9.9h-.1z"/><path d="M60 185.9a7.4 7.4 0 0 1-6.5 3.3 8.6 8.6 0 0 1-6.2 3c-2.1 0-4-2.1-4.2-5.8s1.4-5 3.7-6.8a13.6 13.6 0 0 1 7.5-3c.9 0 2.2.4 2.2 1.4s-.5.8-.9 1.1c1.2.3 1.4 1.2 1.4 2.4s-.8 3.2-1.6 4.8c1.8.3 2.9-1.2 4.1-2.1zM47.7 184a5.9 5.9 0 0 0-1.7 3.7c0 1.2.8 1.5 1.8 1.5a4.5 4.5 0 0 0 3.1-1.6 4.4 4.4 0 0 1-.5-1.9c0-2.1 1.9-4.6 1.7-4.7a24.4 24.4 0 0 0-4.4 3z"/><path d="M75.6 179.5c-1.3 2.1-3.3 4.7-3.3 7.3 0 .6 0 2 .9 2s5.1-3.3 6.4-4.1l.3 1.3c-1.9 2.1-6 6.3-9 6.3s-2.1-1.6-2.1-2.9a19.7 19.7 0 0 1 .3-3.1c-1.4 1.2-5.2 5.1-7 5.1s-2.9-3.9-2.9-5.3c0-4.7 8-8.8 11.4-9 .8 0 1.2.5 1.7 1.1 1.3-2.3 4.9-10.6 7.8-10.6a1.4 1.4 0 0 1 1.3 1.5c0 1.2-1.1 2.9-1.7 3.9zM62.8 187a.7.7 0 0 0 .6.8c.5.1 7-4.7 7.6-7.1-7.1 2.3-8 3.7-8.2 6.3zM90.7 164.3c.6 0 2.1 0 2.1.9a10.7 10.7 0 0 1-1.9 4.5c-2.4 3-3.3 2.7-4.1 2.7a16.2 16.2 0 0 0 1.8-2.7c-.7-.2-1.5-.5-1.5-1.4s1.9-4 3.6-4zM105 185l.4 1.5c-2.5 2.5-6.8 6.1-10.1 6s-5.7-1.7-6.4-4.6a1.4 1.4 0 0 1-.9.5.7.7 0 0 1-.7-.8c0-.5.6-1.1 1-1.4l8.7-8c.1-1.3.8-2.6 2.3-2.6s1.4.4 1.6 1.5.8 2.9.8 4.7c0 3.3-2.7 5.8-5.2 7.3 2.6.4 4.1-.8 6.1-2.3zm-13.7.8c1.5.1 2.4 1.3 3.1 2.4 2.4-1.5 3.1-2.2 3.2-4.5s-.3-1.9-.5-3.3zM137 186.1c-4.2 4.5-6.6 6.5-8.4 6.5s-3.7-3.5-3.5-4.9-.8-1.4 11.8-15.1c.4-.5 1.2-1.2 1.2-2s-.7-1-1.4-1c-2.3 0-9.7 3.3-11.9 4.5a5.9 5.9 0 0 1-2.7 1c-.4 0-1.9-.6.2-5.2.6-1.3 1.3-1.7 2.4-2.6l2.8-2.2a1.4 1.4 0 0 1 .9-.4c.2 0 .5.2.1.8l-1.1 1.3h.1c3.3-1.2 6.6-2.6 10.3-2.6 1.2 0 2.4 0 3.2 1.1a9.1 9.1 0 0 1 1.2 4.1c0 1.3-.3 3.3-11.2 15.9-.9 1-.4 1.4 0 1.5s7.3-5.7 16.9-16.6c.9-1 2.5-3.7 4.6-3.7s1.8 2 1.8 2.6a8 8 0 0 1-1.4 2.5c-1.7 2.4-9 13.2-8.9 15.7 0 .4.3.7.6.6 3.5-1.7 9.7-7.6 13.3-15.5a4.6 4.6 0 0 1-.2-1.5c0-1.4 2.4-4.1 3-4.1s1.1 1.6 1 2.1c-.4 8.9-11.9 22.9-16.9 23.6-1.4.2-4.4-1.7-4.4-4s1.5-6.1 2.3-8.4h-.1zM174.1 185.9a7.4 7.4 0 0 1-6.5 3.3 8.6 8.6 0 0 1-6.2 3c-2.1 0-4-2.1-4.2-5.8s1.4-5 3.7-6.8a13.6 13.6 0 0 1 7.5-3c.9 0 2.2.4 2.2 1.4s-.5.8-.9 1.1c1.2.3 1.4 1.2 1.4 2.4s-.8 3.2-1.6 4.8c1.8.3 2.9-1.2 4.1-2.1zm-12.3-1.9a5.9 5.9 0 0 0-1.7 3.7c0 1.2.8 1.5 1.8 1.5a4.5 4.5 0 0 0 3.1-1.6 4.4 4.4 0 0 1-.5-1.9c0-2.1 1.9-4.6 1.7-4.7a24.4 24.4 0 0 0-4.4 3z"/><path d="M176.4 183.2c-1.4 2.2-3.1 3.3-4.8 5l-.2-1.8a14.2 14.2 0 0 0 2.7-2.9c-.8-.1-1.1-.4-1.1-1.2 0-2.9 4.1-5.8 5.1-5.8a.7.7 0 0 1 .7.7 2.7 2.7 0 0 1-.3 1.1c3.8-.5 6-1 6.4-.5a4 4 0 0 1 1 2.1c0 1.2-.8 1.9-1.7 2.6s-3.1 3-3.1 4.6a1.2 1.2 0 0 0 1.2 1.1c1.7 0 4.3-2.6 5.6-3.6l.3 1.5c-1.5 1.7-6.2 6.2-8.5 6.2a2.9 2.9 0 0 1-2.7-3.1c0-2.7 2.1-4.9 3.7-6.8h-.1z"/><path d="M203.7 179.5c-1.3 2.1-3.3 4.7-3.3 7.3 0 .6 0 2 .9 2s5.1-3.3 6.4-4.1l.3 1.3c-1.9 2.1-6 6.3-9 6.3s-2.1-1.6-2.1-2.9a19.7 19.7 0 0 1 .3-3.1c-1.4 1.2-5.2 5.1-7 5.1s-2.9-3.9-2.9-5.3c0-4.7 8-8.8 11.4-9 .8 0 1.2.5 1.7 1.1 1.3-2.3 4.9-10.6 7.8-10.6a1.4 1.4 0 0 1 1.3 1.5c0 1.2-1.1 2.9-1.7 3.9zm-12.8 7.5a.7.7 0 0 0 .6.8c.5.1 7-4.7 7.6-7.1-7.1 2.3-8 3.7-8.2 6.3zM209.7 190.4c0-1.4 1.8-4.8 4.1-4.3.6.1 2 .1 2 1.3s-1 5-3.5 4.7-2.6-.3-2.6-1.7zm4.8-9.5c0-1.4 1.8-4.8 4.1-4.3.6.1 2 .1 2 1.3s-1 5-3.5 4.7-2.6-.3-2.6-1.7zM235.8 191.1a10.8 10.8 0 0 1-3.2 1c-.6 0-1.2-.1-1.2-.8s1.9-3.2 2.5-4 .6-1 1.2-1.1 3.5-.4 5.2-.8l11.7-13.9c1.4-1.7 7.4-7.7 9.5-7.7s2 1.4 2 2.6-3.3 7.3-4.6 9.6c.3 0 .7.1.7.6s-1.7 1.9-2.3 2.3-2.7 2.1-3.5 2.1-.9-.6-.9-1.2c0-3 3.5-7.4 5.4-9.6.3-.4.4-.8.1-.8s-2.3 1.6-6.7 6.7l-8.1 9.2c6.7 1.3 10.1 2 16.2 3.4l-2.1 2.1c-2.6 2.6-2.4 2.7-10.3 1a43.9 43.9 0 0 0-10.7-1.1zM273.1 186.7c-1.8 2.2-5.4 5.8-8.4 5.8s-3.5-2.7-3.5-4.8c0-4.9 5-9.7 7.4-9.7.7 0 1.8.2 1.8 1.1s-4 5.6-5.7 6.8.3 2.5 2.1 2.5 4.2-2.1 5.8-3.3zm-3.9-11.2c0-1.7 1.9-3.1 3.5-3.1a1.3 1.3 0 0 1 1.3 1.2c0 1.6-1.5 3.6-3.2 3.6a1.6 1.6 0 0 1-1.5-1.7z"/><path d="M278 184.9c1.2.7 1.6 2 2.1 3.2l5.4-3.4.4 1.5a23.1 23.1 0 0 1-5.2 3.8 8.2 8.2 0 0 1 0 2.2c-.3 4.8-6 9.2-8.9 9.7s-2.4-3.5-2.4-4.8 1.7-5.8 2.8-8.1a3.2 3.2 0 0 1-1.2-2.3c0-1.6 1.1-2.1 2.3-2.7s3.7-3.2 4.9-5.5 6.2-11.6 8.3-11.6 1 1.1 1 1.8a13 13 0 0 1-2.1 5.6zm-.2 5.9a6 6 0 0 1-2.9-.3 12.3 12.3 0 0 0-1.9 4.5 6 6 0 0 0 .8 3.6 8.6 8.6 0 0 0 4-7.8z"/><path d="M300.4 185.9c-2.5 2.9-6.9 6.6-10.9 6.6s-4.3-2.6-4.4-5.3c-.2-5.3 5.7-10.7 10.9-10.6 1.3 0 2.9.3 2.9 1.9s-2 5-9.7 7.5v.9c-.1 1.5 1.2 2.1 2.5 2.1 2.9 0 6.2-2.9 8.4-4.6zm-5-6.5c0-.3-.2-.5-.5-.4a8.8 8.8 0 0 0-5.4 5.1c3.5-1.2 5.9-4 5.9-4.7zM328.2 192.3c-1.4 1.4-6.3 5.9-8.1 5.9a1 1 0 0 1-1-1c0-1.1 1.7-3.2 2.5-4a7.7 7.7 0 0 1 4.2-2.5l4.7-5-6 .5c-.3 0-2 0-2.1-.5a2.5 2.5 0 0 1 1-2.8 19 19 0 0 1 5.4-1.9l6.2-1.2c1.3-1.8 4.6-7.3 4.6-9.3s-.6-.8-1.3-.8-.3-.2-3.3.3a57.7 57.7 0 0 0-13.5 3.8h2.2c.3 0 .8 0 .8.4s-.9.6-1.2.7l-4.7 1.4c-2.7.8-3.1.4-3.1-.4s2.3-5.2 3.1-6.2 3.7-2.4 6.1-2.9c10.5-2.4 13.6-2.5 15.9-2.5s4.1.2 4.1 2.1-4.5 10.9-6.3 13.5l2.7.4-1.6 2.6c-.3.5-.6 1-1.1 1.3a18.6 18.6 0 0 1-3.3.8zM357.9 185.9a7.4 7.4 0 0 1-6.5 3.3 8.6 8.6 0 0 1-6.2 3c-2.1 0-4-2.1-4.2-5.8s1.4-5 3.7-6.8a13.6 13.6 0 0 1 7.5-3c.9 0 2.2.4 2.2 1.4s-.5.8-.9 1.1c1.2.3 1.4 1.2 1.4 2.4s-.8 3.2-1.6 4.8c1.8.3 2.9-1.2 4.1-2.1zm-12.3-1.9a5.9 5.9 0 0 0-1.7 3.7c0 1.2.8 1.5 1.8 1.5a4.5 4.5 0 0 0 3.1-1.6 4.4 4.4 0 0 1-.5-1.9c0-2.1 1.9-4.6 1.7-4.7a24.4 24.4 0 0 0-4.4 3z"/><path d="M360.2 183.2c-1.4 2.2-3.1 3.3-4.8 5l-.2-1.8a14.2 14.2 0 0 0 2.7-2.9c-.8-.1-1.1-.4-1.1-1.2 0-2.9 4.1-5.8 5.1-5.8a.7.7 0 0 1 .7.7 2.7 2.7 0 0 1-.3 1.1c3.8-.5 6-1 6.4-.5a4 4 0 0 1 1 2.1c0 1.2-.8 1.9-1.7 2.6s-3.1 3-3.1 4.6a1.2 1.2 0 0 0 1.2 1.1c1.7 0 4.3-2.6 5.6-3.6l.3 1.5c-1.5 1.7-6.2 6.2-8.5 6.2a2.9 2.9 0 0 1-2.7-3.1c0-2.7 2.1-4.9 3.7-6.8h-.1zM406.9 187.6a.7.7 0 0 0 .7.6c.7 0 1.2-.4 3.5-2.2l.7 1c-1.9 1.9-5.4 5.2-8.2 5.2s-2.1-1.1-2.1-2.4-.6-.3 2.9-6.8l-8.8.3-8.3 8.2c-1 1-2.5 2.7-3.9 2.7s-1.4-.1-1.4-.9 3.1-5.2 6.9-6.5l3.1-3.5c-2.6.1-3.9.2-3.9-.8s2.9-4.1 5.1-4.8 3.7-.8 3.7-.3-2.9.4-2.9 1.1.4.4.6.4h2.5l9-7.5c3.9-3.3 8.8-6.9 10.6-6.9s1.4 1 1.4 1.7a8.2 8.2 0 0 1-1.1 2.8l-5 8.7c3 0 1.2-.4 3.7.2a27.3 27.3 0 0 0-3 4.6l-3.2.2zm6.1-18.9h-.1l-11.6 9.6h.1l6.2-.4zM429.3 186c-2.2 2.3-6 6.4-9.5 6.4s-3.6-2.9-3.6-5.2a20 20 0 0 1 4.4-12c3.5-4.4 7.4-8.1 8.7-8.1s.8 1 .8 1.5c-.3 3.8-1.3 7.4-10.1 15.8a4.5 4.5 0 0 0-.3 2.8c.4.9.9 1.7 2 1.7s5.3-2.6 6.9-4zm-8.3-5.4a24.7 24.7 0 0 0 6.1-8.8c-2 1-4.3 4.6-6.2 8.7z"/><path d="M441.4 186c-2.2 2.3-6 6.4-9.5 6.4s-3.6-2.9-3.6-5.2a20 20 0 0 1 4.4-12c3.5-4.4 7.4-8.1 8.7-8.1s.8 1 .8 1.5c-.3 3.8-1.3 7.4-10.1 15.8a4.5 4.5 0 0 0-.3 2.8c.4.9.9 1.7 2 1.7s5.3-2.6 6.9-4zm-8.3-5.4a24.7 24.7 0 0 0 6.1-8.8c-2 1-4.3 4.6-6.2 8.7z"/></g><g><path d="M459.7 108.3v-1l1.9-1.3q.3-3 .3-13.2 0-7.4-.2-10.5t-.5-2-3.3-.6v-1.8h15.6q4.8 0 6.9 1.6a5.3 5.3 0 0 1 2.1 4.4 6 6 0 0 1-2.1 4.7 12.5 12.5 0 0 1-5.8 2.6v.2a17.1 17.1 0 0 1 5.4 1.2 6 6 0 0 1 2.5 2.4 7.4 7.4 0 0 1 1 3.8 8.5 8.5 0 0 1-1.6 4.9 10.2 10.2 0 0 1-4.2 3.5 17.6 17.6 0 0 1-7.3 1.2h-5.6zm8.3-17.9h1.1q3.7 0 5.2-1.3a5.3 5.3 0 0 0 1.5-4.1 4.9 4.9 0 0 0-1.2-3.6 5.6 5.6 0 0 0-4-1.2l-2.5.2q-.1 6.7-.1 8.2zm.1 15.4a9.4 9.4 0 0 0 2.4.3 6.1 6.1 0 0 0 4.7-1.8 7.4 7.4 0 0 0 1.6-5.2 7.8 7.8 0 0 0-.7-3.7 4.9 4.9 0 0 0-2.1-2.1 8.1 8.1 0 0 0-3.7-.7h-2.2v13.1zM487.6 108.3v-1.8q3-.2 3.4-.5a2.7 2.7 0 0 0 .5-1.7q.2-2.9.2-10.7 0-3-.1-8.7a33.1 33.1 0 0 0-.2-4.3.9.9 0 0 0-.5-.6 13.8 13.8 0 0 0-3.3-.4v-1.7l6.8.2 7.4-.2v1.8a10.4 10.4 0 0 0-3.4.5 2 2 0 0 0-.5 1.4q-.2 2.1-.2 8.4 0 8.5.1 11.8a13.5 13.5 0 0 0 .4 4 .9.9 0 0 0 .6.4l3 .3v1.8h-6.9zM506.6 108.3v-1l1.9-1.3q.3-3 .3-13.2 0-7.4-.2-10.5t-.5-2-3.3-.6v-1.8h15.6q4.8 0 6.9 1.6a5.3 5.3 0 0 1 2.1 4.4 6 6 0 0 1-2.1 4.7 12.5 12.5 0 0 1-5.8 2.6v.2a17.1 17.1 0 0 1 5.4 1.2 6 6 0 0 1 2.5 2.4 7.4 7.4 0 0 1 1 3.8 8.5 8.5 0 0 1-1.6 4.9 10.2 10.2 0 0 1-4.2 3.5 17.6 17.6 0 0 1-7.3 1.2h-5.6zm8.4-17.9h1.1q3.7 0 5.2-1.3a5.3 5.3 0 0 0 1.5-4.1 4.9 4.9 0 0 0-1.2-3.6 5.6 5.6 0 0 0-4-1.2l-2.5.2q-.1 6.7-.1 8.2zm.1 15.4a9.4 9.4 0 0 0 2.4.3 6.1 6.1 0 0 0 4.7-1.8 7.4 7.4 0 0 0 1.6-5.2 7.8 7.8 0 0 0-.7-3.7 4.9 4.9 0 0 0-2.1-2.1 8.1 8.1 0 0 0-3.7-.7H515v13.1zM535.9 108.3v-1.1l2.3-1.3q.3-5.9.3-12.3t-.1-9.5a14.7 14.7 0 0 0-.3-3.6.8.8 0 0 0-.4-.4l-3.2-.4v-1.8h14.3v1.8a10.4 10.4 0 0 0-3.4.5 1.2 1.2 0 0 0-.4.8q-.1.6-.2 7v10.6q0 3 .2 6.9l4.2.2a30.8 30.8 0 0 0 6.9-.7q.6-2 1.1-4.7h1.9q-.5 3.2-.9 7.9l-3.8.2h-11.5zM563.1 108.3v-1.2l2.1-1.2q.4-3.4.4-14.2 0-7.4-.2-9.8a2.5 2.5 0 0 0-.4-1.6 8.8 8.8 0 0 0-3.2-.6v-1.8l8.1.2 11.9-.2 3.4.2.2.2a46.6 46.6 0 0 0-.7 6.4H583a18.9 18.9 0 0 0-.2-3.4q-.1-.2-1-.4a28.4 28.4 0 0 0-5.5-.4l-4.3.2q-.3 6.7-.3 10.7l4.4.2a18.1 18.1 0 0 0 3.6-.2.9.9 0 0 0 .5-.6 19.3 19.3 0 0 0 .3-2.7h1.9q-.1 3.7-.1 4.8v4.9h-1.9a13 13 0 0 0-.4-3.3.8.8 0 0 0-.6-.4 29.6 29.6 0 0 0-4.9-.2l-2.8.2v2.3q0 6.2.2 9.5h4.3a53 53 0 0 0 6.7-.4q.5-2 1-4.6h1.8a71.5 71.5 0 0 0-.6 7.4l-3.8.2h-10.6zM601.5 99.2h1.9a20.3 20.3 0 0 0 .2 3.8 4 4 0 0 0 1.2 1.5 8.3 8.3 0 0 0 2.8 1.5 10.9 10.9 0 0 0 3.5.6 7.1 7.1 0 0 0 4.9-1.6 5.2 5.2 0 0 0 1.8-4.1 4.6 4.6 0 0 0-1.2-3.4q-1.2-1.2-4.7-1.7A27.2 27.2 0 0 1 605 94a6.5 6.5 0 0 1-2.8-2.6 8 8 0 0 1-1-4.2 9.3 9.3 0 0 1 2.9-6.9q2.9-2.8 9.2-2.8a23.4 23.4 0 0 1 4.4.4 18 18 0 0 1 3.8 1.2l.2.5a20.9 20.9 0 0 0-.5 2.5q-.1 1.1-.2 3.8h-2a16.7 16.7 0 0 0-.3-3.7 4.8 4.8 0 0 0-2.1-1.5 9 9 0 0 0-3.9-.8 6.8 6.8 0 0 0-4.6 1.4 4.7 4.7 0 0 0-1.6 3.7 4.3 4.3 0 0 0 .7 2.4 3.9 3.9 0 0 0 1.9 1.5 29.4 29.4 0 0 0 5.2 1.1 25.1 25.1 0 0 1 4.9 1.1 6.5 6.5 0 0 1 3.2 2.6 8.1 8.1 0 0 1 1.1 4.4 9.7 9.7 0 0 1-3.5 7.6q-3.5 3-9.6 3a21.5 21.5 0 0 1-4.9-.5 20.7 20.7 0 0 1-4.6-1.7 19.2 19.2 0 0 0 .5-2.8q0-1.6.1-4.5zM643.8 108.8q-8 0-12.3-4.1t-4.3-11.3a16.7 16.7 0 0 1 2.1-8.6 13.8 13.8 0 0 1 5.7-5.4 20.5 20.5 0 0 1 9.4-1.9 19.7 19.7 0 0 1 9.1 1.8 13.1 13.1 0 0 1 5.4 5 15.3 15.3 0 0 1 1.9 7.9 17.6 17.6 0 0 1-2.1 8.8 14.4 14.4 0 0 1-5.9 5.7 19 19 0 0 1-9 2.1zm.8-2.3a8.5 8.5 0 0 0 7-3.2q2.6-3.2 2.6-9.8t-3-10.6q-2.4-3-7.4-3a8.9 8.9 0 0 0-7.3 3.1q-2.6 3.1-2.6 9.6a19.6 19.6 0 0 0 1.4 7.9 9 9 0 0 0 9.3 6.1zM692.7 103.6l.5.5a21.7 21.7 0 0 0-1 2.2 20.8 20.8 0 0 1-4.9 1.9 23.4 23.4 0 0 1-5.4.6 21.1 21.1 0 0 1-9.6-2 14.3 14.3 0 0 1-6-5.6 16.2 16.2 0 0 1-2.1-8.3 14.2 14.2 0 0 1 4.8-11.1q4.8-4.3 13.2-4.3a30.9 30.9 0 0 1 5.5.5 31.6 31.6 0 0 1 5.5 1.5l.2.3a12.5 12.5 0 0 0-.6 2.3q-.3 1.9-.4 4.7h-1.8a28.1 28.1 0 0 0-.3-3.8 4.2 4.2 0 0 0-1.2-1.2 8.5 8.5 0 0 0-2.9-1.3 14.7 14.7 0 0 0-4-.5 10.9 10.9 0 0 0-8.3 3.2q-3.1 3.2-3.1 8.9a13.9 13.9 0 0 0 3.7 10q3.4 3.6 9.4 3.6a18.6 18.6 0 0 0 4.3-.5 21.5 21.5 0 0 0 4.5-1.6zM696.2 108.3v-1.8q3-.2 3.4-.5a2.7 2.7 0 0 0 .5-1.7q.2-2.9.2-10.7 0-3-.1-8.7a33.1 33.1 0 0 0-.2-4.3.9.9 0 0 0-.5-.6 13.8 13.8 0 0 0-3.3-.4v-1.7l6.8.2 7.4-.2v1.8a10.4 10.4 0 0 0-3.4.5 2 2 0 0 0-.5 1.4q-.2 2.1-.2 8.4 0 8.5.1 11.8a13.5 13.5 0 0 0 .4 4 .9.9 0 0 0 .6.4l3 .3v1.8h-6.9zM714.9 108.3v-1.2l2.1-1.1q.4-3.4.4-14.2 0-7.4-.2-9.8a2.5 2.5 0 0 0-.4-1.6 8.8 8.8 0 0 0-3.2-.6v-1.9l8.1.2 11.9-.2 3.4.2.2.2a46.6 46.6 0 0 0-.7 6.4h-1.7a18.9 18.9 0 0 0-.2-3.4q-.1-.2-1-.4a28.4 28.4 0 0 0-5.5-.4l-4.3.2q-.3 6.7-.3 10.7l4.4.2a18.1 18.1 0 0 0 3.6-.2.9.9 0 0 0 .5-.6 19.3 19.3 0 0 0 .3-2.7h1.9q-.1 3.7-.1 4.8v4.9h-1.9a13 13 0 0 0-.4-3.3.8.8 0 0 0-.6-.4 29.6 29.6 0 0 0-4.9-.2l-2.8.2v2.3q0 6.2.2 9.5h4.3a53 53 0 0 0 6.7-.4q.5-2 1-4.6h1.8a71.5 71.5 0 0 0-.6 7.4l-3.8.2h-10.5zM746.5 108.3v-1.8l2.6-.2.9-.4a1.7 1.7 0 0 0 .4-.9q.2-.9.3-6.9.1-4.2.1-8.6 0-8.6-.1-8.8t-1.5-.2l-5.2.2-1.4.2-.2.4q-.1.3-.4 3.8h-2q0-4.2-.2-7.2l.2-.2q6.8.3 13.3.3l14.4-.3.2.3q-.4 3-.6 7h-1.8a19.9 19.9 0 0 0-.4-4 1 1 0 0 0-.7-.3 52.6 52.6 0 0 0-6.9-.3h-.5a3.8 3.8 0 0 0-.1 1.2v14.9q0 6.3.1 7.8t.5 1.7a15.9 15.9 0 0 0 3.4.5v1.8l-6.8-.2zM777.4 108.3v-1.8a8.4 8.4 0 0 0 3.1-.4 1.3 1.3 0 0 0 .7-1q0-.2.2-4.2v-1.6a13.8 13.8 0 0 0-.3-3.7 51.1 51.1 0 0 0-3.3-5.8q-2.9-4.5-4.4-6.5a10.5 10.5 0 0 0-2.6-2.6l-1-.2h-1v-1.6l7.1-1.5a7 7 0 0 1 1.9 1.3 25.7 25.7 0 0 1 3.1 4.3q2 3.2 5 9.3l1.8-3q2.4-4.1 6.4-11.4h3.5V79a75 75 0 0 0-4.3 6.2q-4.9 7.7-5.5 9a10.5 10.5 0 0 0-.3 3.4q0 5.1.2 7.2t.6 1.4a11.2 11.2 0 0 0 3.4.4v1.8l-6.4-.2zM514.1 154.8q-8 0-12.3-4.1t-4.3-11.3a16.7 16.7 0 0 1 2.1-8.6 13.8 13.8 0 0 1 5.7-5.4 20.5 20.5 0 0 1 9.4-1.9 19.7 19.7 0 0 1 9.1 1.8 13.1 13.1 0 0 1 5.4 5 15.4 15.4 0 0 1 1.9 7.9 17.6 17.6 0 0 1-2.1 8.8 14.4 14.4 0 0 1-5.9 5.7 19 19 0 0 1-9 2.1zm.8-2.3a8.5 8.5 0 0 0 7-3.2q2.6-3.2 2.6-9.8t-3-10.6q-2.4-3-7.4-3a8.9 8.9 0 0 0-7.3 3.1q-2.6 3.1-2.6 9.6a19.6 19.6 0 0 0 1.4 7.9 9 9 0 0 0 9.3 6.1zM534.5 154.3v-1.8q2.8 0 3.2-.4t.4-1.5q.3-4.2.3-9.8t-.1-8.8a30.3 30.3 0 0 0-.4-5.4.9.9 0 0 0-.4-.5 10.7 10.7 0 0 0-3-.4v-1.8H557l.2.4a47.6 47.6 0 0 0-.6 6.4h-1.8l-.2-2.3a2.6 2.6 0 0 0-.3-1.4 3.8 3.8 0 0 0-1.6-.5 22.6 22.6 0 0 0-3.9-.3l-4 .2q-.2 3.7-.2 5.2v5.7h3.1l4-.2a.8.8 0 0 0 .5-.3 10 10 0 0 0 .4-2.7h1.9q-.1 1.9-.1 3.8t.1 5.7h-1.9a13.8 13.8 0 0 0-.4-3.3.8.8 0 0 0-.5-.4 20 20 0 0 0-4.2-.3h-2.8v8.3a15.3 15.3 0 0 0 .3 3.5 1 1 0 0 0 .5.5 16.9 16.9 0 0 0 3.6.4v1.8l-6.5-.2zM569.8 154.3v-1.7q7.2-9.1 18.4-25.8h-5.4l-6.7.2a2.2 2.2 0 0 0-1.3.4 6.6 6.6 0 0 0-.5 2.3l-.2 1.5h-1.8q0-1.5.1-3.6v-1.4a15.9 15.9 0 0 0-.2-2l.3-.2 8.2.2h15.9v1.6q-9.8 13.1-18.4 26l8.2.2a45.9 45.9 0 0 0 6.2-.3 1.5 1.5 0 0 0 .9-.4 14.6 14.6 0 0 0 1-3.3l.2-1.1h1.8a67 67 0 0 0-.7 7.7h-2.6l-16.4-.3zM599.7 152.4a6.7 6.7 0 0 0 2.5-.4 5.2 5.2 0 0 0 1-1.6q1.3-2.8 3.4-7.8l7.7-18.8h3.2l9.8 23.3a28.4 28.4 0 0 0 2.4 4.8 5.6 5.6 0 0 0 2.7.6v2l-6.7-.2-7.1.2v-2l3-.3a.7.7 0 0 0 .4-.6 14.5 14.5 0 0 0-.9-2.8l-1.4-3.6h-11.3l-1 2.4q-.4 1-1 3a2.9 2.9 0 0 0-.1.8.7.7 0 0 0 .4.7l3 .4v2l-5.3-.2-4.8.2zm14.3-21.1l-4.6 11.2h9.2zM634.3 154.3v-1.8h1.3a3 3 0 0 0 2-.5q.4-.5.5-3.1.2-5.4.2-11.6v-7.5a10.9 10.9 0 0 0-.3-3.1 1 1 0 0 0-.5-.5l-3.1-.4V124h10.8l2.4 5.5 7.9 16.4q7.4-14.8 10.3-21.8H676v1.8a8.7 8.7 0 0 0-3.2.5 3.5 3.5 0 0 0-.5 2q-.2 2.7-.2 10.4 0 3.9.1 8.2a27.8 27.8 0 0 0 .3 4.9 1.1 1.1 0 0 0 .4.5l3 .4v1.8l-6.3-.2-7.6.2v-1.8h1.3a3.4 3.4 0 0 0 1.9-.4 3.3 3.3 0 0 0 .5-1.9q.1-1.5.1-7.2v-13.4q-3.3 6.7-8.5 17.6-2.1 4.5-3.3 7.3h-1.4q-1.6-3.7-4.4-9.4l-7.5-15.4v2.9q0 12.2.1 16.9a3.9 3.9 0 0 0 .5 2.3q.4.4 3.2.6v1.8l-4.4-.2zM680.7 154.3v-1l1.9-1.3q.3-3 .3-13.2 0-7.4-.2-10.5t-.5-2-3.3-.6v-1.8h15.6q4.8 0 6.9 1.6a5.3 5.3 0 0 1 2.1 4.4 6 6 0 0 1-2.1 4.7 12.5 12.5 0 0 1-5.8 2.6v.2a17.1 17.1 0 0 1 5.4 1.2 6 6 0 0 1 2.5 2.4 7.4 7.4 0 0 1 1 3.8 8.5 8.5 0 0 1-1.6 4.9 10.2 10.2 0 0 1-4.2 3.5 17.6 17.6 0 0 1-7.3 1.2h-5.6zm8.3-17.9h1.1q3.7 0 5.2-1.3a5.3 5.3 0 0 0 1.5-4.1 4.9 4.9 0 0 0-1.2-3.6 5.6 5.6 0 0 0-4-1.2l-2.5.2q-.1 6.7-.1 8.2zm.1 15.4a9.4 9.4 0 0 0 2.4.3 6.1 6.1 0 0 0 4.7-1.8 7.4 7.4 0 0 0 1.6-5.2 7.8 7.8 0 0 0-.7-3.7 4.9 4.9 0 0 0-2.1-2.1 8.1 8.1 0 0 0-3.7-.7h-2.2v13.1zM708.6 154.3v-1.8q3-.2 3.4-.5a2.7 2.7 0 0 0 .5-1.7q.2-2.9.2-10.7 0-3-.1-8.7a33.1 33.1 0 0 0-.2-4.3.9.9 0 0 0-.5-.6 13.7 13.7 0 0 0-3.3-.4v-1.8l6.8.2 7.4-.2v1.8a10.4 10.4 0 0 0-3.4.5 2 2 0 0 0-.5 1.4q-.2 2.1-.2 8.4 0 8.5.1 11.8a13.5 13.5 0 0 0 .4 4 .9.9 0 0 0 .6.4l3 .3v1.8h-6.9zM725.7 152.4a6.7 6.7 0 0 0 2.5-.4 5.2 5.2 0 0 0 1-1.6q1.3-2.8 3.4-7.8l7.7-18.8h3.2l9.8 23.3a28.4 28.4 0 0 0 2.4 4.8 5.6 5.6 0 0 0 2.7.6v2l-6.7-.2-7.1.2v-2l3-.3a.7.7 0 0 0 .4-.6 14.5 14.5 0 0 0-.9-2.8l-1.4-3.6h-11.4l-1 2.4q-.4 1-1 3a2.9 2.9 0 0 0-.1.8.7.7 0 0 0 .4.7l3 .4v2l-5.3-.2-4.8.2zm14.2-21.1l-4.6 11.2h9.2z"/></g></svg>
