<svg id="Layer_1" xmlns="http://www.w3.org/2000/svg" viewBox="0 0 500 500"><style>.st0{fill:#203272}.st1{fill:#9a291a}.st3{fill:#22377c}</style><g id="Layer_5"><path class="st0" d="M72.2 143.2l-7.8 13H50.1l9.1 10.4-6.5 14.3 26 6.5 5.2-14.3-7.8-10.4h13l7.8-11.7zM94.3 182.2l-11.7 5.2 20.8 1.3z"/><path class="st0" d="M98 155.3l3.5 10 10.2 2.8-8.5 6.4.5 10.6L95 179l-9.9 3.8 3.1-10.2-6.6-8.3 10.6-.2z"/><g><path class="st1" d="M302.9 231l-6.7 13.6-14.2 1.1 9.9 9.7-5.3 14.7 26.4 4.4 4-14.6-8.6-9.8 13-1 6.8-12.3zM328.1 268.1l-11.2 6.1 20.8-.4z"/><path class="st1" d="M329.7 241l4.2 9.7 10.4 2-7.9 7 1.4 10.5-9.2-5.3-9.6 4.5 2.3-10.3-7.3-7.8 10.6-1z"/></g></g><g id="Layer_4"><path fill="none" stroke="#6387aa" stroke-width="3" stroke-miterlimit="10" d="M473.7 45.7l-84.5 71.5-87.1-66.3-9 9.1 96.1 74.1 93.6-79.3z"/><path class="st1" d="M423 69.1c-18.9 13.9-33.8 39-33.8 39s24.7-18.2 35.1-28.6 33.8-28.6 33.8-28.6-15.6 3.9-35.1 18.2z"/><path class="st1" d="M358 71.7c-11.4-8.3-31.9-15.8-39.7-18.4-.6-.2-.9.5-.5.9 6.6 4.8 24.2 17.3 37.6 26.6 16.9 11.7 33.8 27.3 33.8 27.3S376.1 84.9 358 71.7z"/><path class="st1" d="M331.3 51.8c-.3-.1-.2-.6.2-.6 6.4.9 26.6 4.3 39.5 14 15.6 11.7 18.2 31.2 18.2 31.2s-10.4-15.6-24.7-26c-11.7-8.5-27.8-16.1-33.2-18.6z"/></g><path class="st3" d="M333.3 184.8c44.2-26 61.1-48.1 61.1-48.1l-22.1-5.2s-16.9 22.6-61.1 48.9c-26.7 15.9-57.6 20.2-78 21.2v3.9c.1 0 56 5.2 100.1-20.7zM198.2 319.9c14.3-54.6 18.2-98.7 18.2-98.7s-9 .5-22.8 3c-1.7 14.6-6.5 50.7-17.5 92.9-14.3 55.1-61.1 114.3-61.1 114.3l15.6 23.7 22.1 1.3-15.6-23.4c0-.1 46.8-58.5 61.1-113.1zM263.2 351.1c-1.3-3.9-19.5-33.8-22.1-44.2-2.6-10.4-7.8-27.3-7.8-27.3s-3.7 14.9-10 35.1c6.3 13.1 16.8 31 17.8 33.9 1.3 3.9-6.5 99.9-6.5 99.9h.8l21.3 1.4c0-.1 7.8-94.9 6.5-98.8z"/><path class="st3" d="M138.4 223.7c61.1-10.4 76.7-10.4 76.7-10.4l-1.5-13c-23.8-1.1-42.7-20.7-42.7-44.8 0-24.4 19.4-44.2 43.6-44.8-6.2-3.3-13.3-5.2-20.9-5.2-24.8 0-44.8 20.3-44.8 45.3 0 24.3 18.9 44.2 42.7 45.3l1.4 13.2s-15.6 0-76.7 10.5C55.3 230.3 15 279.6 15 279.6l16.9 11.7s.1.1.5 0l26.8 1.3-2.2-1.5-22.5-15.4s42.9-41.6 103.9-52z"/><path d="M394.4 136.7s-16.9 22.1-61.1 48.1-100 20.8-100 20.8v-8.7c16-6.8 27.3-22.7 27.3-41.3 0-24.8-20.1-44.8-44.8-44.8h-1.2c-24.2.6-43.6 20.4-43.6 44.8 0 24.1 18.9 43.7 42.7 44.8l1.5 13s-15.6 0-76.7 10.4-103.9 52-103.9 52L57 291.1l2.2 1.5s0 2.6 39-28.6c31.1-24.8 70.8-35.5 95.4-39.9 13.8-2.5 22.8-3 22.8-3s-3.9 44.2-18.2 98.7c-14.3 54.6-61.1 113-61.1 113l15.6 23.4s27.3-36.4 46.8-78c9.5-20.3 17.8-44.4 23.8-63.7 6.2-20.1 10-35.1 10-35.1s5.2 16.9 7.8 27.3c2.6 10.4 20.8 40.3 22.1 44.2 1.3 3.9-6.5 98.7-6.5 98.7h31.2l2.6-83.2 3.9-11.7-2.6-5.2s-5.2-6.5-31.2-52-24.7-80.6-24.7-80.6 55.9 0 109.1-16.9c53.3-16.9 66.3-52 66.3-52l-16.9-11.3z" fill="#375b9f"/></svg>
