<svg id="Layer_1" xmlns="http://www.w3.org/2000/svg" viewBox="0 0 1000 500"><path fill="none" d="M328 225.7l-.1.1-.1.2h.1zM330.3 224.3h-.1l-.2.2-.1.1.2-.1zM325 232.7l-.1.8.1-.7zM330.1 222l-.1-.1v-.7l-.1.3-.1.1h-.2l-.1.1v.1l.1.2v.3l-.1.2v.2l.2.2h.1l.2-.1v-.7zM336.4 213.7h-.3l-.2.2-.2.5-.3 1.3.5-.2zM330.2 220.9l-.2-.2v-.9l-.1.1v.3l-.1.1-.2.1h-.1v.1l.1.1.3.4.1.2v-.1zM337 212.6v-.6l-.3-.7v-1.2l.2-.7.4-.9-.5-.5v-1.1l.5-.5.3-.1.2-.6.1-1.1v-.1h-.6l-.1.2-.1.2-.1 1-.2.5-.2.5-.1.1-.4.2-.1.1v.2l.2.2.2.1.2.2v.9l-.5 1.3-.1.5v.8l.3.7v.7l.2.4.2-.4zM324.9 233.5l-.2.5.1-.1zM334.9 216.8l-.2.1v.1l-.1.1.2-.1zM312.9 239l-.1-.1-.5.2h-1.1l-1.1-.9-.3-.1-.5-.2h-.9c-.2.2-.4.5-.7.7 1.9.3 3.9.6 5.8.9l-.4-.3-.2-.2zM246.7 161.9c-.5-.4-1-.7-1.5-1.1-1.6-1-2.6-2.6-3.3-4.2-1-2.4-2-4.9-3.6-7-2.9-3.7-6.3-6.8-9.8-10-.5-.4-.8-.3-1.1.2-.1.2-.2.3-.3.5v22.1c6.6-.1 13.1-.2 19.6-.5zM333.3 198.9l-.5-1.3-.1-.1-.1 1v.4zM266.4 168.9c.7-.1 1.6 0 2.3 0 1.3.1 1.8.9 1 2.2-.3.4-.6.7-1.1.9s-.9.4-1.5.6c-.7.3-.7.5-.2 1.1.4.5 1 .9 1.3 1.5.7 1.2 1.7 2.2 2.9 2.9 1.1.6 1.8 1.7 1.7 3.1 0 .6-.3.9-.9.9-.7-.1-1.3-.2-2-.5-1.8-.8-3.4-2-5.2-2.7-1.2-.4-2.2-1.2-2.9-2.4-1-1.8-2.3-3.4-4-4.6-1.8-1.1-3.2-2.7-4.7-4.1l-.6-.6c-8.4.4-16.9.7-25.4.8h.1v7.2l4.8 7.2c1.5 2.2 2.8 4.4 3.6 6.9.8 2.6 1.9 5.1 2.9 7.6.3.7.5 1.3.8 2h71.3c-.9-12.2-7.2-23.9-18.6-34.9-10.3 1.2-20.9 2.1-31.5 2.8 1.8 1.3 3.6 2.4 5.9 2.1zM241.9 207.1c-.4.4-.5.8-.5 1.3v6.6c.3 2.3.2 4.2.3 6.1 0 .7 0 1.5.1 2.2.5 3.2 1.8 6.1 2.7 9.1.1.2.1.4.2.6 7.2.3 14.4.7 21.4 1.2v-.7l-.5-.5-.3-.6v-.4l-.1-.9-.6-.3 1.1-1.1.2-.3.2-.7v-5l1.3 3.8.8 1.6v.4l.1.6.3.3.8.4.3.2 1 .4.3.6.2-.1h2.7l.4-.7.7-.4h1.2l.3.8.1.1.3-.2h1.1l.6 1.2-.2.4h.3l.6.4.9.3.2-.1 1.1.2.9.3.3-.5.1-.6.6-.6.4-.1v-.7l.2-.1v-.2l.8-1.5.2-1.1v-.3l-.2-.2v-1l.1-.2v-.8l.1-.5.1-1 .2-.6 1.6-1.1v.1h.7l.6-1.9.3-.3.8-.6 1.9-1.2 2.6-.5 1.8-.1 3.3-.9 5.1-1.2.8-.4h.2l2-.6.3-.4-.2-.4.8-.8.3-.2.5-.5.3-.4c.8-2.8 1.2-5.6 1.4-8.4h-68.9l.6 1.5c.2.4.2.9-.2 1.2z"/><path fill="none" d="M362.7 205.2l-1 .4-.4-.4h-.4l-1-.4-.5-.3h-19.1l-.3.4-.2 1.1-.5 1.2.1.1v1l-.6 1.4-.1.3v.5l.3.7v.7l.3.6v.8l-.7.7h-.3l-.3 1.3 1 1-1.9.7-.2.3v.5l-.4.7-.7.4h-.6l-.7.3h-.9l-.2-.1-.1.1-.9.5v.3l-.1.1.2.5-.3.8.3.1.6.6.3.6.2.5v.8l-.6.6-.6.3h-.3l-.4.5-.5.3-1 .6v.2l-.6.6-.8.2-.6.1-.1.4.1.1h.2l.7.7v1.3l-.1.2v1.2l-.9.4-.8.3v.3l-.1 1-.3.8-.5.7-.3.3v.7l-.3.6-.5.5-.9.3-.7-.4-.5-.3-.2-.1-.1-.1-1.6.7-.3.3h-1l-.4-.4h-.3l-1.4.2-.1.1-.7.9-2.3 1.5-.2.1c17.3 2.8 33.9 6.3 49.6 10.5 26.1-12.5 42.4-28.3 43.9-45.7h-43.6l.7.7h-2.5zM327.5 205l.1-.5h-2l1.2 1.2zM327.6 197.7l.6-.3.4-.4.8-.4h.1v-.1l.9-.9h.1l1-1 .3.7v-.1h.9l.6-.6h1.3l.2.3h.2l.2.2.3-.3.2-.1.2-.2.5-.7.6-.3-.7-.4-.5-.5-.4.4-.9-1.7v-.7l.2-.3.3-.9.5-.5.5-.2.2-.3.8-.6.4-.9.1-.1v-.6l.4.2.7-.7 1.3 1.9H340.5l.1-.1.2-.3.1-.4.3-1.2.4-.7.5-.3.8-.5v-.4l.2-.4.5-.9-.4-.8.5-1.1.5-.2.6-.9v-.4l.8-.6.3-.3v-.1l.6-.6 1.6-1.3v-.2l.4-.7.4-.2.9-1.1v-.9l.1-.2v-1.1l.5-.3V170h.6l.5-.5h1.2l.3.5.6.4.2.2.3 1.2v-.5l.6-.6v-.6h1.1l.4-.2h.6l.3.1h.2l.6.4h.8v1.5l-.2 1 .4.8v.5h.1l.9.4.2.2.5-.5h1.5l.1 1h.6l.7.7h.1l.7.7v.6l.1.2v.9l-.1.1-.1 1.1-.5.9h-.3v.9l.2.5h1.1l.1-.1.4-.2.3-.4v-.6h1.8l1 1v.1l.2.1v.8l.7.8v.5h.1l.5-.2h.7l.2.1h1l.2.2.2.1 2.6 1.5.1.3h.2l.7.3.1.2v-.2l1.9 1.5h.1l.4.2h.9l.4.3.8-.4h.8l.6.3.4.4.5.6.3.3v1.1l-.3.6.1.5v.7l-1.3 1.3-.7.4-2.2.7-2.1.6-1.2.5h-.8l-.4.2-.4.4h-1l-.6-.7-.4-.5-.9.7-.3-.3.1.3.7.8.5.4h1.1v.4l.9.4.2.5.2-.1.4.4h1.7l-.1.2h32c-1.6-18.3-19.3-34.9-47.8-47.5-17.3 4.6-35.7 8.2-55 10.9 11.8 11.4 18.4 23.9 19.2 36.6h2.6v-.7l.5-.5zm25.2-30.9l.4-.9h.7l1.1-1.3 1.3 1.3v1.2l-.3.5.2.4-.5.1-.3.6-.4-.4-.2.1-.2.7h-2.7l.5-1.3-.7-.7 1.1-.3zM139.1 245.4c-.8.3-1.4.4-1.7.4-.3 0-.8-.1-1.2-.8-.2-.3-.5-.6-.8-.8-17.4 2.6-34 6-49.8 10.2 9.3 3.8 19.6 7.2 30.7 10.2l18.6-9.4 17.7-.1c-4.9-3.2-9.3-6.6-13.3-10 0 0-.1.2-.2.3zM213.1 232.6v-27.4c-.3.4-.7.9-1 1.3-1 1.3-1.7 1.7-3.2 1.1-1.8-.5-3.6-1.1-5.3-2.1-1.1-.6-1.3-.5-1.3.8 0 .9.1 2-.6 2.7-1.1 1.1-1.8 2.5-2.3 4-.2.5-.4.9-.7 1.3-1.1 1.9-2.2 3.8-3.4 5.7-1 1.8-2 3.5-2.3 5.6-.3 2.1-.8 4-1.1 6.1-.1.4-.1.8-.1 1.3v.2c7.1-.3 14.2-.5 21.4-.6h-.1zM191.8 238.8v2.3c0 .8.2 1.7.6 2.5.7 1.7 1.6 3.2 2.5 4.8.5.9.9 1.8 1.3 2.7.3.8 0 1.1-.9 1-.7-.1-1.3-.4-2-.9-1.6-1.5-2.7-3.1-3.9-4.8-1.6-2-2.8-4.2-5.2-5.4-.9-.4-1.2-.9-1.1-1.8-10.4.6-20.7 1.5-30.7 2.7v1.1c4.7 4.1 10.2 8.1 16.3 11.9l44.5-.4v-16.4c-7.2.2-14.3.4-21.4.7zM232.4 232.6c-.6-.8-1-1.6-1.1-2.8-.2-1.8-1.1-3.3-1.8-5-1.5-3.9-1.6-7.9.8-11.6.2-.3.5-.7.1-1.1-.3-.4-.7-.1-1 0-.8.3-1.6.5-2.4.6v19.8c1.8 0 3.6.1 5.4.1zM137.2 206.3c.1.1.1.1 0 0l.3.2c.4.4.8.7.8 1.3 0 .2 0 .3-.1.4.2.6-.1 1.2-.2 1.3l-.1.1v5.5c0 .4 0 .8-.1 1.2 0 .6-.1 1.1 0 1.6v.1c0 .1 0 .3-.1.5.3.2.5.5.6.7.1.2.3.3.4.4 1 .8 2.1 1.5 3.1 1.9 1.9.7 2.3 1.9 2.3 2.7-.1.9.4 1.4 1.3 2.3.6.7 1.3 1.5 1.1 2.8v.1l.2.2c.3.4.5.8.8 1.2.2.4.5.8.7 1.2.5.9.8 1.6 1.1 2.5 0 0 0 .1.1.2 0 .2.1.2.1.3.3.5.6 1 .8 1.5 11.4-1.3 23-2.3 34.7-3 .3-1.1.6-2.3.9-3.4.4-1.5 0-3.2-.3-4.8-.3-1.2-.7-2.5-1.2-3.6-.8-1.9-.7-3.7-.3-5.6.2-1 .4-2 .4-3 0-2.1.6-3.8 2.6-5.1.6-.4 1.2-.8 1.8-1.3.8-.7 1.4-1.4 1.9-2.1h-54.6c0 .4.2.9 1 1.7zm10 12.7l.4-.4c.2-.3.3-.5.3-.7v-.6l.7-.4c.7-.3 1.2.2 1.4.4l.2.2.1.3.3 1.2c.1.4.1.7.2 1.1l.1.3-.1.3c-.3 1-1.1 1-1.5 1-.2-.1-.3-.1-.4-.1-1.2 0-1.7-1.1-1.8-1.5l-.2-.6.3-.5zM130.3 238.2c-1.2 0-2-.7-2.4-1.1-.5-.3-.6-.7-.7-1-.4-.2-.9-.2-1.6-.2-1.3 0-1.8-.7-1.9-1.4-.1-.2-.4-.4-.6-.7-.1-.1-.3-.2-.4-.3-.4-.4-.6-.8-.7-1.1h-.1c-2.7-.6-5.7-1.5-8-4-.4-.5-1-.9-1.7-1.4l-.1-.1c-.7 0-1.6-.3-2-1.4l-.3-.3c-.4-.4-.6-.9-.6-1.5 0-.1-.1-.1-.1-.1-1.3.3-2.4-.3-3.1-.8-.4-.3-.7-.5-1.1-.6-.7-.4-1.3-.9-1.6-1.7-.1-.2-.4-.4-.8-.6-1.6-.7-2.1-1.5-1.9-3.2 0-.9.3-1.7.6-2.2-.2-.6-.1-1.1-.1-1.5v-.3c-.1-.9-.7-1.6-2-2.5-.6-.5-1.3-1-1.7-1.8-.4-.6-.8-1.4-1.2-2-.4-.6-.9-1-1.7-1.4-.2-.1-.5-.3-.8-.5H32.1c1.6 17.3 17.8 33.3 43.9 45.8 17.4-4.8 35.8-8.5 55.2-11.4-.1-.1-.2-.1-.3-.2-.2-.2-.4-.3-.6-.5zM137.1 185.3c.1.2.2.3.3.4.1.2.3.4.4.6.5.7.7 1.5.6 2.3-.2 1.1-.1 2.1.1 3.2l.2 1.1c.1.9.2 1.9-.3 2.9-.1.2-.2.3-.2.5-.2.5-.4 1-.8 1.4-.3.4-.3.6-.2 1.2h52.2c-.2-.1-.5-.3-.7-.4-1-.6-1.3-1.1-1-2.3l.9-3.9c.4-1.7.5-1.7-1-2.4s-2.3-2.1-3.4-3c-1-.9-1.8-2.1-2.3-3.4-.8-2.5-1.7-5-2.5-7.6-.2-.5-.2-1-.2-1.7-.2-2.3.3-4.6.4-6.9 0-.2 0-.4.1-.6-10.6-.7-21-1.6-31.3-2.7-5.8 5.7-10.4 11.6-13.5 17.6.7 1.2 1.4 2.5 2.1 3.6l.1.1zM91.4 197.9c-.5-.1-1.3-.1-1.6-.8-.2-.4-.1-.7 0-1-.4-.2-.7-.5-.9-.9-.3-.7 0-1.3.3-1.9.2-.3.3-.7.3-1.1.1-.4.2-.8.4-1.3-.2-.2-.3-.4-.3-.5l-.1-.3c-.2-1-.2-2-.2-2.8 0-.2 0-.3.1-.4-.1-.1-.2-.3-.2-.5 0-.1-.1-.3-.1-.5H89c-.4-.3-.7-.6-1.1-.7-1.1-.4-1.7-1.6-1.8-2.6-.2-1 .1-1.9.9-2.5-.2-.8-.4-1.5-.6-2.3-.2.8-.6 1.4-1.2 1.9-.3.3-.7.4-1.1.4-.6-.1-.9-.7-1-.9-.7-1.2-.5-2.4-.4-3.4 0-.2 0-.4.1-.6v-.1c.2-.8.7-1.1.9-1.2.3-.1.9-.2 1.5.3l.1.1c.3.3.5.6.6.9l-.3-2.1c-.2-.6 0-1.1.1-1.5.5-2.1.3-3.9-.9-5.7-.3-.4-.5-.8-.7-1.2-.4-.7-.8-1.4-1.3-2.1-1.1-1.6-1-3.7-.7-5.1l.1-.5.3-.2v-.1c0-.2-.1-.4-.1-.6 0-.5 0-1.8 1.3-2.2 1.2-.4 2.5.2 2.9 1.2.2.4.2.8.2 1 0 .4.1.5.1.5s.1.1.6.2c.8.1 1.5.4 2.1.9.2.1.6.3 1.5.1.8-.2 1.8-.1 2.6.4s1.4 1.2 1.6 2.1c.2.5.3 1 .6 1.5.8-.5 1.4-.5 2-.1.6-.2 1.4-.5 2.2.3.4.4.5.9.4 1.5-.1.4-.3.8-.6 1.1.5 1 .4 2 .3 2.8 0 .9-.8 1.6-1.9 1.6 0 0 0 .2-.1.3 0 .1-.1.3-.2.4l.1.1.4.4c.5.5 1 1 1.5 1.7.2-.1.2-.2.1-.6-.2-.6-.1-1.2.2-1.6.5-.7 1.4-.8 1.7-.9H102.3c.4-.9 1.3-.9 1.7-.9h.2l.2.1c.1 0 .3.1.7-.2.5-.4 1.3-1 2.3-.7.9.3 1.4 1.2 1.6 1.9 0 .1 0 .1.1.2.6-.1 1.2.1 1.7.7.3-.3.5-.6.6-1.1.1-1.6 1-2.9 2.2-3.5.5-.3.6-.6.7-1 .1-.4.1-1.1.7-1.5.6-.3 1.2-.1 1.6.1.6.3.7.2.8.1.3-.3 1-.8 2-.3l.1.1c.4.3.5.6.6.9v.6c.1.1.1.2.2.3.6.7.9 1.5 1.2 2.3.1.3.3.7.4 1 .2.5.5.7.7.8 1.1.4 1.8 1.2 2.2 2.1.3.6.7 1.1 1.4 1.4 2.5-3.4 5.4-6.7 8.7-10-19.2-2.7-37.7-6.3-55-10.9-28.3 12.7-46.1 29.3-47.8 47.5h60c.1 0 .2-.1.2-.1-.1-.4-.5-.7-.9-.8zm-11.5-37c0 1-.7 1.3-1 1.3-.3.2-.7.4-1.2.2-.1 0-.1 0-.2-.1-.6.3-1.1.4-1.6.4-.3 0-.9 0-1.2-.6-.1-.2-.2-.4-.2-.7h-.3l-.3-.1-.2-.2c-.4-.4-.4-.9-.4-1v-.2c.3-1.3.8-1.7 2.1-1.6h.3c.3 0 .7.1.8.1.3-.4.7-.5 1.2-.4.7.1 1.4.8 1.7 1.3l.1.1c.1.2.1.4.2.6 0 .2.1.3.1.5l.1.2v.2z"/><path fill="none" d="M368.9 198.2v.1l.1.2v.1l.1.1h.1l.2.1v-.2h.2l.2.1.2.1.1.1h.3l-.2-.2-.5-.4-.2-.2-1.1.1zM182.3 160.1c3.3-2.8 6.5-5.7 9.8-8.5.9-.8 1.8-1.8 3-2.1 1.1-.4 1.2-.6.9-1.8-.5-1.5-1-2.9-1.8-4.2-1.1-2.2-2.3-4.5-3.5-6.7-14.7 6.7-27 14.1-36.6 22 9 1 18.2 1.8 27.5 2.4 0-.1.1-.2.1-.3.1-.3.3-.6.6-.8zM241.8 141.8c2.3 3.8 5.4 6.8 9.1 9.2.8.5 1.6 1.1 2.1 2 1.6 2.5 2.7 5.1 3.7 7.8.1.2.1.4.2.6 9.9-.6 19.7-1.5 29.3-2.6-12.3-10-28.9-19.3-49.3-27.3l1.5 3.6c1 2.3 2.2 4.6 3.4 6.7zM326 227.7v.3l.1-.5zM243.6 251c-.1-.2-.1-.5-.1-.7-.2-1.1-.3-2.3.3-3.3.2-.3.1-.6 0-.8-.4-.8-.8-1.7-1.6-2.1-1.2-.5-1.7-1.5-2.3-2.6-.6-1.1-1.4-2.3-2.4-3.2-3.5-.1-6.9-.2-10.4-.2v16.4h25.1c-1.5-.3-3-.6-4.6-.5-3 .1-3.2-.2-4-3zM327.3 263.6c9.8-2.8 19-5.9 27.4-9.3-16.4-4.4-34-7.9-52.3-10.6-4.1 3.7-8.8 7.3-14 10.8h19.7l19.2 9.1zM287.3 242.6l-1.7-.8-2.7.7h-.7l-.4.3v.4l-1.1 1.1-.2-.2-.2.2H279l-.6.7-1-.2-.8-.4-.7-.6-.5-.7-.3-.1h-1.5v-1.1l-.7-.9-.1-.2-.6-.1-.8-.5c-8.2-.7-16.5-1.2-24.8-1.6.3 1 .7 1.9 1 2.9.6 1.7 1.2 3.4 2.4 4.9 1 1.2 1.8 2.9 3.1 3.7 1.9 1.2 4 2.3 6.4 2.2 1.2-.1 2.1.3 2.6 1.6.1.2.1.4.2.6h9.8c6-3.7 11.4-7.7 16-11.7l-.1-.2h-.7zM186.2 127.3c-37.1 2.8-70.3 9.9-96.3 20 16 4.1 33.1 7.3 50.8 9.8 11.6-9.9 27.3-19 46.6-27l-.3-.6c-.3-.7-.6-1.4-.8-2.2zM194.8 126.8c0 .1.1.2.1.3.3-.1.5-.2.8-.3-.3-.1-.6-.1-.9 0zM299.6 157.1c17.8-2.4 34.8-5.8 50.9-9.7-28.3-11-65-18.4-105.8-20.6 23 8.7 41.5 19 54.9 30.3zM209.4 346.7c8.1 0 8 7.6 8 7.6l.9-95.6h-81.4l-34.5 88h107zM132.3 260.6l-15.7 7.7-42.4 90.3-4.2 7.8 27.1-20.8z"/><path fill="none" d="M344.4 351.6l-112.5 1s-11.7 1.1-11.7 11.1c0-10.1-11.6-11.1-11.6-11.1l-112.4-1-15.5 12.1-4.4 3.4h109.3c13.2 0 8.8 16.4 8.8 16.4h57.3s-4.3-16.4 8.8-16.4h103.7l-4.4-3.4-15.4-12.1zM310.9 259.1l33.9 86.6 26.8 20.8-4.2-7.9-41.7-90.3z"/><path fill="none" d="M223.1 354.3s0-7.6 8.1-7.6h107l-33.7-88h-81.4v95.6zM201.7 142.8c.6.4.9.3 1-.4.2-1.8.5-3.5.6-5.2.1-1.3.1-2.7.4-4 .1-.6.2-1.3.3-1.9-2.4.9-4.6 1.8-6.9 2.8.7 2.1 1.4 4.3 2.4 6.3.5 1 1.2 1.8 2.2 2.4z"/><path fill="#57499d" d="M339.7 202.6h.4v-.6h-.2l-.1-.2v-.2l-.1-.1h-.2l-.1.1-.1.4v.9h.1zM361.3 203.5h.3l.2-.2v-.3l-.2-.1v-.7h-.3l-.2-.2-.1-.2-.1-.2-.2-.2h-.2l-.2.2-.2.2-.1.1v.1l.2.1v.7l.7.6zM370.1 199v.4l-.1.2v.1l.1.1.2.1.1.1.1.1.2-.1.3-.2.1.1h.4l-.1.2.1.2.5.5v.1h.7l-.2-.2-.2-.1-.5-.5v-.3h-.3l-.5-.5h-.2l-.4-.4h-.3zM354 203h-.3l-1 .2-1.1-.3-.5.2h-1.7l-.2.2h-.4l-.3.3h-1.3l-.5-.7-.2-.2-.5.2h-.6l-.4-.2-.1.1-.2.1-1.1 1.1-1-.5-.3-.3-.1-.2v.1l-.5.5v.8h-1.3l-.1.1h19.1l-.3-.3h-.5l-.4-.1-.3-.1-.3-.2-.6-.6h-2.3zM338.2 204h-.4l-.1.1-.1.1-.2.1-.1.1v.1h.6zM332.6 199.3l.1.3.4 1 .1.6.1.7H333.6l-.2-.9v-.7l.1-.7-.2-.7h-.7zM366.9 202.3l.3.1.3-.2-.2.1z"/><path fill="none" d="M743.1 214.9c1.4 1.7 3.2 3 5.2 3.8 2.1.8 4.4 1.3 6.9 1.3 2.6 0 4.9-.4 6.9-1.3s3.8-2.2 5.2-3.8c1.5-1.7 2.6-3.7 3.3-6.1.8-2.4 1.2-5.1 1.2-8 0-3.1-.4-5.9-1.2-8.4s-1.9-4.6-3.3-6.4c-1.4-1.8-3.2-3.1-5.2-4.1-2.1-1-4.4-1.4-6.9-1.4s-4.9.5-6.9 1.4c-2.1 1-3.8 2.3-5.2 4.1s-2.5 3.9-3.3 6.4-1.2 5.3-1.2 8.4c0 2.9.4 5.6 1.2 8 .8 2.4 1.9 4.4 3.3 6.1zM488.8 207.4c0-5.8-2.4-9.8-7.1-12.1-.8-.4-1.6-.7-2.4-.9-.8-.3-1.7-.4-2.7-.6-1-.1-2.2-.2-3.6-.3-1.4-.1-3.1-.1-5.2-.1h-3.5v17.1c0 3.1.8 5.4 2.5 6.7 1.6 1.4 4.3 2.1 8.1 2.1 9.3 0 13.9-4 13.9-11.9zM468.6 189.6c1.6 0 2.9 0 4-.1s2-.1 2.8-.3c.8-.1 1.4-.3 2-.5.6-.2 1.2-.6 1.8-1 1.6-1 2.8-2.3 3.5-3.7.7-1.4 1-3.3 1-5.6 0-4-1-7-3-8.7-2-1.8-5.1-2.7-9.3-2.7h-5.9c-.9 0-1.3.4-1.3 1.3v21.2l4.4.1zM629 295.6h13.3l-6.5-17.2zM471.9 278.5c-.9-1-2.2-1.5-3.9-1.5-1.1 0-2.3.4-3.4 1.2-1.2.8-2.2 1.9-3.3 3.3-1 1.4-2 3-2.9 4.8-.9 1.8-1.7 3.7-2.3 5.7-.7 2-1.2 4-1.5 6.1-.4 2.1-.5 4.1-.5 6 0 2.9.5 4.9 1.4 6.1.8.9 2 1.5 3.4 1.5 1.7 0 3.5-.9 5.2-2.7s3.3-4.1 4.6-6.8c1.4-2.7 2.5-5.7 3.3-8.9s1.3-6.3 1.3-9.2c0-2.7-.5-4.6-1.4-5.6zM716.3 295.6h13.3l-6.5-17.2zM561 211.1c0-4.4-1.8-7.5-5.4-9.2-.6-.3-1.2-.5-1.8-.7s-1.3-.3-2-.4c-.8-.1-1.7-.2-2.8-.2s-2.4-.1-3.9-.1h-2.6v13c0 2.4.6 4.1 1.9 5.1 1.2 1 3.3 1.5 6.1 1.5 7 0 10.5-3 10.5-9zM548.8 197.5c.8 0 1.5-.1 2.1-.2s1.1-.2 1.5-.4c.4-.2.9-.4 1.4-.7 1.2-.8 2.1-1.7 2.6-2.8.5-1.1.8-2.5.8-4.3 0-3.1-.7-5.3-2.2-6.6s-3.8-2-7-2h-4.5c-.7 0-1 .3-1 1v16.1h3.3c1.2 0 2.2 0 3-.1zM861 295.6h13.3l-6.5-17.2z"/><path fill="#57499d" d="M480.2 222.5c1.6-.1 3.1-.2 4.3-.4 1.2-.2 2.3-.4 3.2-.7.9-.3 1.8-.6 2.7-1.1 2.7-1.3 4.8-3.2 6.3-5.5 1.5-2.4 2.3-4.9 2.3-7.6 0-4.8-2.2-8.9-6.8-12.1-.7-.5-1.5-1-2.3-1.4-.8-.4-1.7-.7-2.6-1-.9-.3-1.9-.5-3.1-.7-1.1-.2-2.5-.3-4.1-.5v-.3c4.6-1.4 8-3.1 10.1-5.3 2.1-2.2 3.2-4.9 3.2-8.3 0-4.5-2-7.9-5.8-10.4s-9.2-3.7-16.1-3.7h-23v2.9c1.6.1 3 .3 4 .5s1.8.7 2.3 1.3c.6.6.9 1.5 1.1 2.6.2 1.1.3 2.5.3 4.3v35.8c0 1.8-.1 3.3-.3 4.4-.2 1.1-.7 2-1.3 2.6-.7.6-1.6 1-2.8 1.3-1.2.3-2.8.4-4.8.5v2.9h27.5c2.2 0 4.1 0 5.7-.1zm-16-54.2c0-.9.4-1.3 1.3-1.3h5.9c4.2 0 7.3.9 9.3 2.7 2 1.7 3 4.7 3 8.7 0 2.3-.3 4.2-1 5.6-.7 1.4-1.9 2.7-3.5 3.7-.6.4-1.2.8-1.8 1-.6.2-1.2.4-2 .5-.8.2-1.7.2-2.8.3-1.1.1-2.4.1-4 .1v-.1h-4.4v-21.2zm.1 42.2v-17.1h3.5c2.1 0 3.8 0 5.2.1 1.4.1 2.6.2 3.6.3 1 .2 1.9.3 2.7.6.8.2 1.6.5 2.4.9 4.7 2.3 7.1 6.3 7.1 12.1 0 7.9-4.6 11.9-13.9 11.9-3.8 0-6.5-.7-8.1-2.1-1.7-1.3-2.5-3.6-2.5-6.7zM524.5 220.3c-1.4 0-2.5-.1-3.3-.3-.8-.2-1.5-.6-1.9-1.2-.4-.6-.7-1.5-.9-2.6-.1-1.1-.2-2.7-.2-4.6v-22.8c0-1.7.1-3.2.2-4.3.1-1.1.4-2 .8-2.6.4-.7.9-1.1 1.7-1.4s1.8-.5 3-.5v-2.2h-17.7v2.2c1.2.1 2.2.2 3 .5.8.2 1.4.7 1.8 1.3.4.6.7 1.4.8 2.5.1 1 .2 2.4.2 4v23.6c0 1.8 0 3.2-.2 4.3-.1 1.1-.4 1.9-.9 2.5s-1.2 1-2 1.2-1.9.4-3.3.4v2.2h18.9v-2.2zM554.9 222.5c1.2-.1 2.3-.2 3.2-.3.9-.1 1.7-.3 2.4-.5s1.3-.5 2-.8c2.1-1 3.7-2.4 4.8-4.2 1.1-1.7 1.7-3.6 1.7-5.7 0-3.7-1.7-6.8-5.2-9.2-.6-.3-1.2-.7-1.8-1-.7-.3-1.3-.6-2-.8-.7-.3-1.5-.4-2.4-.6-.8-.1-1.9-.3-3.1-.4v-.2c3.5-1 6.1-2.4 7.7-4 1.6-1.6 2.4-3.7 2.4-6.3 0-3.4-1.5-6-4.4-7.9-2.9-1.9-7-2.8-12.2-2.8h-17.4v2.2c1.2.1 2.2.2 3 .4.8.2 1.4.5 1.8 1 .4.5.7 1.2.8 2 .1.8.2 1.9.2 3.3v27.1c0 1.3-.1 2.4-.3 3.3-.2.9-.5 1.5-1 2s-1.2.8-2.1 1c-.9.1-2.1.3-3.6.3v2.2h21.2c1.6 0 3.1 0 4.3-.1zm-12.4-41c0-.7.3-1 1-1h4.5c3.2 0 5.5.7 7 2s2.2 3.5 2.2 6.6c0 1.8-.3 3.2-.8 4.3-.5 1.1-1.4 2-2.6 2.8-.5.3-1 .5-1.4.7-.4.2-.9.3-1.5.4s-1.3.2-2.1.2c-.8.1-1.8.1-3 .1h-3.3v-16.1zm1.9 37.1c-1.3-1-1.9-2.7-1.9-5.1v-13h2.6c1.5 0 2.8.1 3.9.1s2 .1 2.8.2c.7.1 1.4.2 2 .4s1.2.4 1.8.7c3.6 1.7 5.4 4.8 5.4 9.2 0 6-3.5 9-10.5 9-2.8 0-4.9-.5-6.1-1.5zM608.9 215.6c-.6 1.2-1.4 2.1-2.4 2.7-1 .6-2.3 1-3.8 1.3-1.5.3-3.4.4-5.6.4-2 0-3.7-.1-5-.3s-2.4-.6-3.2-1.2c-.8-.6-1.4-1.4-1.7-2.4s-.5-2.4-.5-4V187c0-1.5.1-2.7.2-3.6.1-.9.4-1.6.8-2.1s.9-.8 1.7-1c.8-.1 1.8-.3 3-.3v-2.2h-17.7v2.2c1.2.1 2.2.2 3 .4.8.2 1.4.5 1.8 1 .4.5.7 1.2.8 2 .1.8.2 1.9.2 3.3v27.1c0 1.3 0 2.4-.2 3.3-.1.9-.4 1.5-.9 2s-1.2.8-2 1c-.8.1-1.9.3-3.3.3v2.2h37.6l.9-11.5h-2.2c-.4 1.9-.9 3.4-1.5 4.5zM653.6 211.2h-2.2c-.4 1.7-.9 3.2-1.5 4.3-.6 1.2-1.3 2.1-2.3 2.8s-2.2 1.2-3.6 1.5-3.1.4-5.2.4c-1.8 0-3.4-.1-4.6-.3s-2.2-.6-3-1.1-1.3-1.2-1.6-2c-.3-.9-.5-1.9-.5-3.2v-13.2c2.2 0 4 .1 5.4.4s2.6.7 3.4 1.3c.8.5 1.4 1.2 1.7 2.1.3.8.5 1.8.5 3h2v-15.9h-2c0 1.1-.2 2.1-.6 3-.4.9-1 1.6-1.8 2.1-.9.6-2 .9-3.4 1.2-1.4.3-3.2.4-5.3.4v-16.6c0-.7.3-1 1-1h7.4c2 0 3.7.1 5.1.3 1.4.2 2.6.6 3.5 1.2 1 .6 1.7 1.4 2.2 2.4s.9 2.2 1.1 3.8h2l-.5-10.2h-33.7v2.2c1.2.1 2.2.2 3 .4.8.2 1.4.5 1.8 1 .4.5.7 1.2.8 2 .1.8.2 1.9.2 3.3v27.1c0 1.3 0 2.4-.2 3.3-.1.9-.4 1.5-.9 2s-1.2.8-2 1c-.8.1-1.9.3-3.3.3v2.2h36.2l.9-11.5zM711.8 216.7c-2.2 1.8-5.2 2.7-9 2.7-2.3 0-4.4-.3-6.4-1-1.9-.7-3.7-1.7-5.2-3s-2.8-2.9-3.8-4.7c-1-1.8-1.6-3.9-2-6.2h-2.8l.9 17.3h1.8l2.2-3.8c2.4 1.9 4.8 3.3 7.1 4.1 2.4.8 5 1.2 7.9 1.2 3.1 0 5.9-.5 8.5-1.3 2.6-.9 4.8-2.1 6.6-3.6s3.3-3.3 4.3-5.5 1.5-4.5 1.5-7.1c0-2-.3-3.8-.9-5.4-.6-1.6-1.6-3.1-3.1-4.6s-3.5-2.9-6-4.4c-2.5-1.4-5.6-3-9.4-4.7-2.2-1-4-1.9-5.5-2.8-1.5-.9-2.7-1.8-3.6-2.7-.9-.9-1.6-1.8-2-2.8-.4-1-.6-2.1-.6-3.3 0-2.6 1-4.7 2.8-6.2 1.9-1.5 4.4-2.3 7.5-2.3 3.3 0 6.1 1.1 8.4 3.1 2.3 2.1 4.1 5.2 5.3 9.4h2.8l-.8-15.3h-1.8l-2 3.5c-2-1.6-4-2.8-5.9-3.5-1.9-.7-4-1.1-6.3-1.1-2.5 0-4.8.4-6.9 1.2s-4 1.9-5.5 3.4c-1.6 1.5-2.8 3.2-3.6 5.2-.9 2-1.3 4.1-1.3 6.5 0 2 .3 3.7.8 5.3.5 1.5 1.4 3 2.7 4.4 1.2 1.4 2.9 2.7 5.1 4 2.2 1.3 4.8 2.6 8 4 2.6 1.1 4.8 2.1 6.5 3.1 1.7 1 3.1 2 4.1 3s1.8 2 2.2 3.1c.5 1 .7 2.2.7 3.5 0 3.1-1.1 5.5-3.3 7.3zM737.9 216.5c2.2 2 4.7 3.6 7.7 4.8s6.1 1.8 9.5 1.8 6.5-.6 9.5-1.8 5.5-2.8 7.7-4.8 3.9-4.4 5.2-7.2c1.3-2.7 1.9-5.7 1.9-8.8 0-3.3-.7-6.4-1.9-9.2-1.2-2.8-2.9-5.3-5.1-7.4-2.2-2-4.8-3.7-7.7-4.9s-6.1-1.8-9.5-1.8-6.6.6-9.7 1.8c-3 1.2-5.5 2.8-7.7 4.9-2.2 2.1-3.9 4.6-5.1 7.4-1.3 2.8-1.9 5.9-1.9 9.2 0 3.1.6 6 1.9 8.8s3 5.2 5.2 7.2zm1.9-24.1c.8-2.5 1.9-4.6 3.3-6.4s3.1-3.1 5.2-4.1c2-.9 4.4-1.4 6.9-1.4s4.8.4 6.9 1.4c2 1 3.8 2.3 5.2 4.1 1.4 1.8 2.5 3.9 3.3 6.4s1.2 5.3 1.2 8.4c0 2.9-.4 5.6-1.2 8-.7 2.4-1.8 4.4-3.3 6.1-1.4 1.6-3.2 2.9-5.2 3.8-2 .9-4.3 1.3-6.9 1.3-2.5 0-4.8-.5-6.9-1.3-2-.8-3.8-2.1-5.2-3.8-1.4-1.7-2.5-3.7-3.3-6.1-.8-2.4-1.2-5.1-1.2-8 0-3.1.4-5.9 1.2-8.4zM826.1 208.2h-2.4c-2.1 7.9-6.9 11.9-14.4 11.9-4.9 0-8.7-1.6-11.3-5-2.6-3.3-3.9-8.2-3.9-14.4 0-3.2.3-6.1 1-8.6.6-2.5 1.6-4.7 2.9-6.4 1.3-1.7 2.8-3.1 4.7-4 1.8-.9 3.9-1.4 6.3-1.4 3.5 0 6.5 1 8.9 2.9 2.4 1.9 4 4.6 4.9 8h2.2l-.5-13.4h-1.6l-.9 3.6c-2.4-1.5-4.6-2.5-6.7-3.2-2.1-.7-4.3-1-6.6-1-3.3 0-6.4.6-9.1 1.7-2.7 1.2-5 2.8-7 4.9-2 2.1-3.5 4.6-4.6 7.5-1.1 2.9-1.6 6.2-1.6 9.7 0 3.4.5 6.4 1.5 9.2 1.1 2.7 2.5 5.1 4.4 7 1.9 2 4.1 3.5 6.8 4.5 2.6 1.1 5.6 1.6 8.9 1.6 5.8 0 10.7-1.7 14.8-5.2l1.3 4.6h2v-14.5zM850.9 220.3c-1.4 0-2.5-.1-3.3-.3-.8-.2-1.5-.6-1.9-1.2-.4-.6-.7-1.5-.9-2.6-.1-1.1-.2-2.7-.2-4.6v-22.8c0-1.7.1-3.2.2-4.3.1-1.1.4-2 .8-2.6.4-.7.9-1.1 1.7-1.4s1.8-.5 3-.5v-2.2h-17.7v2.2c1.2.1 2.2.2 3 .5.8.2 1.4.7 1.8 1.3.4.6.7 1.4.8 2.5.1 1 .2 2.4.2 4v23.6c0 1.8 0 3.2-.2 4.3-.1 1.1-.4 1.9-.9 2.5s-1.2 1-2 1.2-1.9.4-3.3.4v2.2h18.9v-2.2zM889.7 215.5c-.6 1.2-1.3 2.1-2.3 2.8s-2.2 1.2-3.6 1.5-3.1.4-5.2.4c-1.8 0-3.4-.1-4.6-.3s-2.2-.6-3-1.1-1.3-1.2-1.6-2c-.3-.9-.5-1.9-.5-3.2v-13.2c2.2 0 4 .1 5.4.4s2.6.7 3.4 1.3c.8.5 1.4 1.2 1.7 2.1.3.8.5 1.8.5 3h2v-15.9h-2c0 1.1-.2 2.1-.6 3-.4.9-1 1.6-1.8 2.1-.9.6-2 .9-3.4 1.2-1.4.3-3.2.4-5.3.4h-.1v-16.7c0-.7.3-1 1-1h7.4c2 0 3.7.1 5.1.3 1.4.2 2.6.6 3.5 1.2 1 .6 1.7 1.4 2.2 2.4s.9 2.2 1.1 3.8h2l-.4-10.1h-33.7v2.2c1.2.1 2.2.2 3 .4.8.2 1.4.5 1.8 1 .4.5.7 1.2.8 2 .1.8.2 1.9.2 3.3v27.1c0 1.3 0 2.4-.2 3.3-.1.9-.4 1.5-.9 2s-1.2.8-2 1c-.8.1-1.9.3-3.3.3v2.2h36.2l.9-11.5h-2.2c-.4 1.7-.9 3.2-1.5 4.3zM897.2 177.8v11.1h2.2c0-2 .3-3.6.9-4.8s1.3-2 2.3-2.6c1-.5 2.1-.9 3.4-1s2.7-.2 4.2-.2c1.3 0 2.3 0 3 .1.7 0 1.3.1 1.7.3.4.2.7.4.8.6.1.2.2.5.2.8v31.1c0 1.2-.1 2.3-.3 3.2-.1.9-.5 1.6-1 2.2-.5.6-1.3 1-2.3 1.3-1.1.3-2.4.5-4 .5v2.2h22v-2.2c-1.6 0-2.9-.2-3.9-.5s-1.8-.7-2.3-1.3c-.5-.6-.8-1.3-1-2.2-.2-.9-.3-2-.3-3.2v-31.1c0-.3.1-.6.2-.8.1-.3.4-.4.9-.6.5-.1 1.1-.2 2-.3.9-.1 2.1-.1 3.5-.1 1.7 0 3.1.1 4.3.4 1.2.3 2.2.8 3 1.4.8.6 1.4 1.5 1.8 2.6.4 1.1.7 2.5.8 4.2h2.4l-.5-11.1h-44zM972.2 177.8v2.2c1.4 0 2.3.1 2.9.4.5.2.8.8.8 1.5s-.3 1.7-.8 2.9-1.4 2.8-2.6 4.9l-6.6 11.1h-.2l-9-15.4c-.9-1.5-1.3-2.7-1.3-3.5 0-.7.4-1.2 1.2-1.5.8-.3 2.2-.4 4.1-.4v-2.2h-18.3v2.2c.8 0 1.5.1 2.1.2.6.2 1.2.4 1.7.8.5.3 1 .9 1.5 1.5.5.7 1 1.5 1.6 2.5l11.3 19.9v7.1c0 1.8 0 3.2-.2 4.3-.2 1.1-.5 1.9-.9 2.5s-1.1 1-1.9 1.2-1.9.3-3.3.3v2.2h18.9v-2.2c-1.3 0-2.5-.1-3.3-.3-.8-.3-1.5-.7-1.9-1.3-.5-.6-.8-1.5-.9-2.6-.1-1.2-.2-2.7-.2-4.6v-6.9l9-15.1c1.2-2 2.3-3.7 3.1-4.9s1.6-2.2 2.3-2.9c.7-.7 1.4-1.2 2-1.4.7-.2 1.4-.3 2.2-.3v-2.2h-13.3zM473.8 306.7c2-2.6 3.7-5.5 5-8.8s1.9-6.6 1.9-9.8c0-2.2-.4-4.2-1-6-.6-1.8-1.5-3.4-2.6-4.7-1.1-1.3-2.4-2.3-4-3-1.6-.7-3.3-1-5.1-1-2.8 0-5.6.8-8.2 2.3-2.6 1.6-5 3.6-7 6.1-2.1 2.5-3.7 5.4-5 8.6-1.3 3.2-1.9 6.5-1.9 9.8 0 2.4.3 4.6 1 6.5.7 1.9 1.6 3.6 2.7 4.9 1.2 1.3 2.5 2.3 4 3s3.2 1 4.9 1c2.7 0 5.5-.9 8.2-2.5 2.7-1.6 5-3.8 7.1-6.4zm-5.1-4.5c-1.3 2.7-2.9 5-4.6 6.8s-3.5 2.7-5.2 2.7c-1.4 0-2.6-.6-3.4-1.5-.9-1.2-1.4-3.2-1.4-6.1 0-1.9.1-3.9.5-6 .3-2.1.8-4.1 1.5-6.1.6-2 1.4-3.9 2.3-5.7.9-1.8 1.9-3.4 2.9-4.8 1.1-1.4 2.1-2.5 3.3-3.3 1.1-.8 2.3-1.2 3.4-1.2 1.7 0 3 .5 3.9 1.5.9 1 1.4 2.9 1.4 5.6 0 2.9-.5 6-1.3 9.2s-1.9 6.2-3.3 8.9zM522 252.9c-2-1.3-4.5-1.9-7.5-1.9-2 0-3.9.5-5.6 1.4-1.7.9-3.4 2.4-4.9 4.5-1.5 2.1-3 4.8-4.3 8-1.3 3.3-2.6 7.2-3.7 11.8h-7.3l-1 3.5h7.4L484 323.5c-.5 2-1.2 3.6-2.2 4.8-.9 1.2-2 1.8-3.2 1.8-1 0-1.7-.2-2.1-.8-.4-.5-.7-1.1-1-1.8-.2-.6-.6-1.2-1-1.8-.4-.5-1.1-.8-2.2-.8-1.2 0-2.1.4-2.8 1.1s-1 1.7-1 3c0 1.6.7 3 2.1 4.1 1.4 1.1 3.1 1.7 5.3 1.7s4.2-.4 6-1.1c1.8-.7 3.5-2 5-3.9s3-4.5 4.3-7.8 2.7-7.6 4-12.8l7.2-29.1h7.5l1.1-3.5h-7.8c.6-3.2 1.4-6.2 2.2-8.9.8-2.7 1.7-5 2.6-7 .9-2 1.9-3.5 2.9-4.6 1-1.1 2-1.7 3-1.7.8 0 1.4.1 1.8.5.4.4.7.8.9 1.4s.4 1.2.5 1.8.3 1.2.6 1.8c.3.6.7 1 1.2 1.4.6.3 1.3.5 2.3.5 1.2 0 2.1-.4 2.7-1.2.7-.8 1-1.8 1-3 0-1.9-1-3.4-2.9-4.7zM604.5 309.8c-.6-.9-1-2-1.2-3.5s-.3-3.5-.3-6.1v-30.1c0-2.3.1-4.2.3-5.7.2-1.5.6-2.7 1.1-3.5s1.3-1.4 2.3-1.8c1-.3 2.4-.5 4-.6v-2.9h-17.2l-20 45.4v.2h-.5l-19.4-45.4h-18.4v2.9c1.6.2 3 .4 4 .7s1.8.9 2.3 1.7c.6.8.9 1.9 1.1 3.3.2 1.4.3 3.1.3 5.3v31.2c0 2.4-.1 4.3-.3 5.7-.2 1.4-.6 2.5-1.2 3.3s-1.5 1.3-2.6 1.6-2.5.5-4.3.5v2.9h21.4V312c-1.8-.1-3.2-.2-4.3-.5-1.1-.2-1.9-.8-2.5-1.6-.6-.9-1-2-1.2-3.5s-.3-3.5-.3-6.1v-35.1h.3l22 50.4h1.7l22.4-50.4h.8v35.6c0 2.4-.1 4.3-.3 5.7-.2 1.4-.6 2.5-1.2 3.3-.6.8-1.5 1.3-2.6 1.6s-2.5.5-4.3.5v2.9h24.9v-2.9c-1.8-.1-3.2-.2-4.3-.5-1.1-.2-1.9-.8-2.5-1.6zM656.1 310.7c-.6-.6-1.2-1.6-1.9-2.9-.6-1.3-1.4-3-2.3-5.2l-13.2-32.8h-2.5l-15.1 37.9c-.4.8-.7 1.5-1.1 2.1-.4.6-.8 1.1-1.3 1.4s-1.1.6-1.7.8-1.4.4-2.3.5v2.2h14.1v-2.2c-1.6 0-2.8-.2-3.5-.6s-1-1.1-1-2.2c0-.4.1-.9.2-1.5s.3-1.4.6-2.3c.3-.9.6-2 1.1-3.2s1-2.6 1.7-4.2h15.5l2.4 6.1c.3.6.5 1.2.7 1.7s.3.9.4 1.3c.1.4.2.8.2 1.1.1.4.1.7.1 1.1 0 .9-.4 1.5-1.2 1.9-.8.4-2.2.6-4.3.6v2.3h19v-2.3c-1 0-1.9-.1-2.6-.3-.7-.2-1.4-.6-2-1.3zM629 295.6l6.8-17.2 6.5 17.2H629zM697.3 307.8c-.6 1.2-1.4 2.1-2.4 2.7s-2.3 1-3.8 1.3-3.4.4-5.6.4c-2 0-3.7-.1-5-.3s-2.4-.6-3.2-1.2c-.8-.6-1.4-1.4-1.7-2.4s-.5-2.4-.5-4v-25.1c0-1.5.1-2.7.2-3.6.1-.9.4-1.6.8-2.1s.9-.8 1.7-1c.8-.1 1.8-.3 3-.3V270h-17.7v2.2c1.2.1 2.2.2 3 .4s1.4.5 1.8 1c.4.5.7 1.2.8 2 .1.8.2 1.9.2 3.3V306c0 1.3 0 2.4-.2 3.3-.1.9-.4 1.5-.9 2s-1.2.8-2 1c-.8.1-1.9.3-3.3.3v2.2h37.6l.9-11.5h-2.2c-.4 1.9-.9 3.4-1.5 4.5zM743.4 310.7c-.6-.6-1.2-1.6-1.9-2.9-.6-1.3-1.4-3-2.3-5.2L726 269.8h-2.5l-15.1 37.9c-.4.8-.7 1.5-1.1 2.1-.4.6-.8 1.1-1.3 1.4s-1.1.6-1.7.8-1.4.4-2.3.5v2.2h14.1v-2.2c-1.6 0-2.8-.2-3.5-.6s-1-1.1-1-2.2c0-.4.1-.9.2-1.5s.3-1.4.6-2.3c.3-.9.6-2 1.1-3.2s1-2.6 1.7-4.2h15.5l2.4 6.1c.3.6.5 1.2.7 1.7s.3.9.4 1.3c.1.4.2.8.2 1.1.1.4.1.7.1 1.1 0 .9-.4 1.5-1.2 1.9-.8.4-2.2.6-4.3.6v2.3h19v-2.3c-1 0-1.9-.1-2.6-.3-.7-.2-1.4-.6-2-1.3zm-27.1-15.1l6.8-17.2 6.5 17.2h-13.3zM772.7 272.3c1.4 0 2.3.1 2.9.4.5.2.8.8.8 1.5s-.3 1.7-.8 2.9-1.4 2.8-2.6 4.9l-6.6 11h-.2l-9-15.4c-.9-1.5-1.3-2.7-1.3-3.5 0-.7.4-1.2 1.2-1.5s2.2-.4 4.1-.4V270h-18.3v2.2c.8 0 1.5.1 2.1.2.6.2 1.2.4 1.7.8.5.3 1 .9 1.5 1.5.5.7 1 1.5 1.6 2.5l11.5 19.9v7.1c0 1.8 0 3.2-.2 4.3-.2 1.1-.5 1.9-.9 2.5-.4.6-1.1 1-1.9 1.2s-1.9.3-3.3.3v2.2h18.7v-2.2c-1.3 0-2.5-.1-3.3-.3-.8-.3-1.5-.7-1.9-1.3-.5-.6-.8-1.5-.9-2.6-.1-1.2-.2-2.7-.2-4.6v-6.9l9-15.1c1.2-2 2.3-3.7 3.1-4.9s1.6-2.2 2.3-2.9c.7-.7 1.3-1.2 2-1.4.7-.2 1.4-.3 2.2-.3V270h-13.3v2.3zM816.5 294.7c-1.1-1.1-2.6-2.2-4.5-3.3-1.9-1.1-4.3-2.3-7.2-3.6-1.7-.7-3.1-1.4-4.2-2.1-1.1-.6-2-1.3-2.7-2s-1.2-1.4-1.5-2.2c-.3-.7-.5-1.6-.5-2.5 0-2 .7-3.5 2.1-4.7 1.3-1.1 3.2-1.7 5.6-1.7 2.5 0 4.6.7 6.4 2.3 1.7 1.5 3.1 3.9 4 7.1h2.2l-.6-11.6h-1.3l-1.5 2.6c-1.5-1.2-3-2.1-4.5-2.6s-3.1-.8-4.8-.8c-1.9 0-3.6.3-5.2.9-1.6.6-2.9 1.5-4.1 2.6-1.2 1.1-2.1 2.4-2.7 3.9-.7 1.5-1 3.1-1 4.9 0 1.5.2 2.8.6 4 .4 1.1 1.1 2.3 2.1 3.3s2.3 2 3.9 3c1.7.9 3.7 2 6.1 3 2 .9 3.6 1.7 4.9 2.4s2.3 1.4 3.1 2.2 1.4 1.6 1.7 2.4.5 1.7.5 2.7c0 2.3-.8 4.1-2.5 5.5-1.7 1.3-3.9 2-6.8 2-1.8 0-3.4-.3-4.9-.8s-2.9-1.2-4-2.2c-1.2-1-2.1-2.2-2.9-3.6-.7-1.4-1.2-3-1.5-4.7h-2.2l.8 13.4h1.3l1.6-2.9c1.8 1.4 3.6 2.5 5.4 3.1 1.8.6 3.8.9 6 .9 2.3 0 4.5-.4 6.4-1 1.9-.6 3.6-1.5 5-2.7 1.4-1.2 2.5-2.6 3.3-4.2.8-1.7 1.2-3.5 1.2-5.4 0-1.5-.2-2.9-.7-4.1s-1.3-2.4-2.4-3.5zM839 311c-.4-.6-.7-1.5-.9-2.6-.1-1.1-.2-2.7-.2-4.6V281c0-1.7.1-3.2.2-4.3.1-1.1.4-2 .8-2.6.4-.7.9-1.1 1.7-1.4s1.8-.5 3-.5V270h-17.7v2.2c1.2.1 2.2.2 3 .5.8.2 1.4.7 1.8 1.3.4.6.7 1.4.8 2.5.1 1 .2 2.4.2 4v23.6c0 1.8 0 3.2-.2 4.3-.1 1.1-.4 1.9-.9 2.5-.5.6-1.2 1-2 1.2s-1.9.4-3.3.4v2.2h18.9v-2.2c-1.4 0-2.5-.1-3.3-.3-.8-.2-1.5-.6-1.9-1.2zM888 310.7c-.6-.6-1.2-1.6-1.9-2.9-.6-1.3-1.4-3-2.3-5.2l-13.2-32.8h-2.5L853 307.7c-.4.8-.7 1.5-1.1 2.1-.4.6-.8 1.1-1.3 1.4s-1.1.6-1.7.8-1.4.4-2.3.5v2.2h14.1v-2.2c-1.6 0-2.8-.2-3.5-.6-.7-.4-1-1.1-1-2.2 0-.4.1-.9.2-1.5s.3-1.4.6-2.3c.3-.9.6-2 1.1-3.2s1-2.6 1.7-4.2h15.5l2.4 6.1c.3.6.5 1.2.7 1.7s.3.9.4 1.3c.1.4.2.8.2 1.1.1.4.1.7.1 1.1 0 .9-.4 1.5-1.2 1.9-.8.4-2.2.6-4.3.6v2.3h19v-2.3c-1 0-1.9-.1-2.6-.3-.7-.2-1.4-.6-2-1.3zm-27-15.1l6.8-17.2 6.5 17.2H861zM136.2 245c.4.7.9.8 1.2.8.3 0 .9-.1 1.7-.4.1-.1.2-.3.2-.4v-.1c1-1.8 2.1-2.5 4-2.2.2 0 .4.1.7.2.4.1.9.3 1.5.3.3 0 .6.1 1.1.6.4.6 1 1 1.7 1.1h.1c.9.2 2.5.6 3.5-.7.3-.4.4-.8.5-1.2.1-.4.1-.7 0-1.1-.1-.5-.2-1-.4-1.5-.2-.4-.3-.8-.5-1.2-.4-.9-.8-1.9-1.2-2.8-.2-.5-.5-1-.8-1.5 0-.1-.1-.1-.1-.3-.1-.1-.1-.2-.1-.2-.3-.9-.6-1.6-1.1-2.5-.2-.4-.5-.8-.7-1.2-.3-.4-.5-.8-.8-1.2l-.2-.2v-.1c.2-1.3-.5-2.1-1.1-2.8-.9-.9-1.4-1.4-1.3-2.3 0-.8-.4-2-2.3-2.7-1-.4-2.1-1.1-3.1-1.9-.1-.1-.3-.2-.4-.4-.1-.2-.3-.5-.6-.7.1-.2.1-.4.1-.5v-.1c-.1-.5 0-1 0-1.6.1-.4.1-.8.1-1.2v-5.3-.2l.1-.1c.1-.1.4-.7.2-1.3.1-.1.1-.2.1-.4 0-.6-.4-.9-.8-1.3l-.2-.1-.1-.1c-.8-.8-1-1.3-.9-1.7v-.2c0-.3.1-.5.2-.8.2-.5.4-1.1.4-1.8.4-.3.6-.6.7-.8.2-.6 0-1.1-.2-1.5-.1-.2-.1-.4-.2-.6-.1-.6-.1-.8.2-1.2.4-.4.6-.9.8-1.4 0-.2.1-.3.2-.5.5-1 .4-2 .3-2.9l-.2-1.1c-.2-1.1-.3-2.1-.1-3.2.1-.8-.1-1.6-.6-2.3-.1-.2-.3-.4-.4-.6-.1-.1-.2-.2-.3-.4l-.1-.1c-.8-1.1-1.5-2.3-2.1-3.6-.7-1.3-1.3-2.6-2-3.9l-.3-.6c-.2-.7-.6-1.1-1-1.4l-.3-.3c-1.3-1.3-3-2.3-4.9-3.1-.1 0-.2-.1-.2-.1-.7-.3-1.1-.8-1.4-1.4-.4-.9-1.1-1.7-2.2-2.1-.2-.1-.5-.3-.7-.8-.1-.3-.3-.7-.4-1-.3-.8-.6-1.6-1.2-2.3-.1-.1-.1-.2-.2-.3v-.6c-.1-.3-.2-.6-.6-.9l-.1-.1c-1-.5-1.7 0-2 .3-.1.1-.2.2-.8-.1-.4-.2-1-.4-1.6-.1-.6.4-.6 1.1-.7 1.5-.1.4-.2.7-.7 1-1.2.6-2.1 1.9-2.2 3.5-.1.5-.3.8-.6 1.1-.5-.6-1.1-.8-1.7-.7-.1-.1-.1-.1-.1-.2-.2-.7-.7-1.6-1.6-1.9-1-.3-1.8.3-2.3.7-.4.3-.6.2-.7.2l-.2-.1h-.2c-.4 0-1.3 0-1.7.9H102c-.3.1-1.2.2-1.7.9-.3.4-.4 1-.2 1.6.1.4.1.5-.1.6-.5-.7-1-1.2-1.5-1.7l-.4-.4-.1-.1c.1-.1.2-.3.2-.4.1-.1.1-.3.1-.3 1.1 0 1.9-.7 1.9-1.6.1-.8.2-1.8-.3-2.8.3-.3.5-.7.6-1.1.1-.6 0-1.1-.4-1.5-.8-.8-1.6-.5-2.2-.3-.6-.4-1.2-.4-2 .1-.3-.5-.4-1-.6-1.5-.2-.9-.8-1.6-1.6-2.1s-1.8-.6-2.6-.4c-.9.2-1.3 0-1.5-.1-.6-.5-1.3-.8-2.1-.9-.5-.1-.6-.2-.6-.2s-.1-.1-.1-.5c0-.2 0-.6-.2-1-.4-1-1.7-1.6-2.9-1.2-1.3.4-1.3 1.7-1.3 2.2 0 .2.1.4.1.6v.1l-.3.2-.1.5c-.3 1.4-.4 3.5.7 5.1.5.7.9 1.4 1.3 2.1.2.4.4.8.7 1.2 1.2 1.8 1.4 3.6.9 5.7-.1.4-.3.9-.1 1.5l.3 2.1c-.1-.3-.3-.6-.6-.9l-.1-.1c-.6-.5-1.2-.4-1.5-.3-.2.1-.7.4-.9 1.2v.1c-.1.2-.1.4-.1.6-.1 1-.3 2.2.4 3.4.1.2.4.8 1 .9.4 0 .8-.1 1.1-.4.6-.5 1-1.1 1.2-1.9.2.8.4 1.5.6 2.3-.8.6-1.1 1.5-.9 2.5.1 1 .7 2.2 1.8 2.6.4.1.7.4 1.1.7h.1c0 .2.1.4.1.5 0 .2.1.4.2.5-.1.1-.1.2-.1.4 0 .8 0 1.8.2 2.8l.1.3c0 .1.1.3.3.5-.2.5-.3.9-.4 1.3 0 .4-.1.8-.3 1.1-.3.6-.6 1.2-.3 1.9.2.4.5.7.9.9-.1.3-.2.6 0 1 .3.7 1.1.7 1.6.8.4.1.8.4.9.8-.1 0-.1.1-.2.1-.2.1-.3.2-.5.3-.4.3-.6.8-.6 1.5s.3 1.5.8 2c.3.3.7.5 1.1.6.1.6.4 1 .8 1.3.3.2.6.4.8.5.8.4 1.3.8 1.7 1.4.4.6.8 1.4 1.2 2 .4.8 1.1 1.3 1.7 1.8 1.3.9 1.9 1.6 2 2.5v.3c0 .4-.1.9.1 1.5-.3.5-.6 1.3-.6 2.2-.2 1.7.3 2.5 1.9 3.2.4.2.7.4.8.6.3.8.9 1.3 1.6 1.7.4.1.7.3 1.1.6.7.5 1.8 1.1 3.1.8 0 0 .1 0 .1.1 0 .6.2 1.1.6 1.5l.3.3c.4 1.1 1.3 1.4 2 1.4l.1.1c.7.5 1.3.9 1.7 1.4 2.3 2.5 5.3 3.4 8 4h.1c.1.3.3.7.7 1.1.1.1.3.2.4.3.2.3.5.5.6.7.1.7.6 1.4 1.9 1.4.7 0 1.2 0 1.6.2.1.3.2.7.7 1 .4.4 1.2 1.1 2.4 1.1.2.2.4.3.6.5.1.1.2.1.3.2.6.5 1.4 1 2.5 1.2.5.1.7.2.7 1.3v.7c0 .9.3 1.6 1 2.1.3.3.6.6.8.9zm-51.9-66.2c-.2.2-.3.2-.5-.2-.6-1.1-.3-2.3-.2-3.4.1-.5.4-.6.8-.3.5.4.7 1.2.9 1.7-.1.9-.4 1.7-1 2.2zm51.9 64.7c-.4-.3-.6-.7-.6-1.2v-.7c0-1.3-.3-2.1-1.6-2.3-1.3-.2-2.1-1-3-1.7-.1-.1-.3-.2-.4-.2-.8.1-1.3-.3-1.9-.8-.2-.2-.5-.2-.3-.7.1-.2-.1-.2-.3-.3-.7-.5-1.6-.5-2.4-.5-.5 0-.8-.1-.9-.6-.2-.6-.8-1-1.2-1.5-.6-.6-.6-1.2.1-1.8.3-.3.8-.5 1.1-.7.6-.3 1.1-.7 1.5-1.5-.4 0-.6.2-.9.3-.9.5-1.9 1-2.5 2-.1.2-.4.2-.6.2-2.8-.6-5.5-1.6-7.5-3.7-.5-.6-1.2-1.1-2-1.6-.1-.1-.3-.2-.4-.2-.7.1-1-.2-1.2-.8-.1-.2-.3-.4-.5-.6s-.3-.4-.3-.7c0-.7-.6-1.2-1.2-1.1-.9.2-1.7-.1-2.4-.6-.4-.3-.8-.5-1.2-.7-.5-.3-.9-.6-1.1-1.1-.2-.5-.7-.8-1.2-1.1-1.2-.5-1.5-.9-1.3-2.2 0-.7.2-1.3.5-2 .1-.1.2-.3.1-.4-.3-.6-.1-1.2-.1-1.8-.1-1.6-1.2-2.5-2.4-3.3-.5-.4-1-.8-1.3-1.5-.4-.7-.8-1.5-1.2-2.1-.5-.8-1.2-1.3-2.2-1.8-.6-.3-1.1-.6-1-1.5 0-.3-.1-.4-.5-.4-.7.1-1.5-.7-1.3-1.6 0-.8.4-1 1.1-.9.3 0 .6 0 .8-.1.5-.3.7-.2.8.4.2-.4.1-.7-.1-.9-.2-.3-.5 0-.7.1-.4.2-.5 0-.6-.4-.1-.9-.9-1.8-1.9-1.9-.9-.1-1-.2-.5-1 .1-.2.2-.3-.1-.4-1.2-.5-1.3-.6-.8-1.8.5-.9.3-2.1 1-2.9.2-.2.1-.4-.2-.4s-.4-.3-.5-.5c-.2-.8-.2-1.8-.2-2.6 0-.2.2-.3.4-.3.3 0 .5-.1.4-.4 0-.3-.3-.3-.5-.2-.3.1-.4 0-.5-.3-.1-.3.2-.3.4-.4-.8-.5-1.3-1.2-2.3-1.6-.6-.2-1-1-1.1-1.8-.1-.6 0-1.1.5-1.6.5-.3.5-.7.3-1.2-.7-2.3-.8-4.6-1.2-6.8-.1-.3 0-.6.1-.9.6-2.4.3-4.6-1-6.6-.6-1-1.2-2.2-2-3.3-.8-1.2-.8-2.9-.5-4.4.7-.4.3-1 .3-1.6 0-.6 0-1 .6-1.2.7-.2 1.5.1 1.7.7.1.1.1.3.1.5.1 1.1.4 1.5 1.6 1.7.6.1 1.1.3 1.7.7.7.5 1.6.5 2.4.3 1.1-.3 2.7.5 3 1.8.2.6.4 1.2.7 1.9.3.5.7.7 1.2.3.4-.3.7-.5 1.1 0 .2.2.4.1.6 0 .4-.2.8-.4 1.2 0 .3.3 0 1.1-.5 1.3-.3.2-.3.4-.1.6.6.8.5 1.8.4 2.6 0 .4-.4.6-.8.6-1 .1-.9 1-1.3 1.7-.3.5.2.7.4.9.7.7 1.5 1.3 2 2.3.2.3.3.2.6.1.9-.3 1.3-.8 1.1-1.9-.2-.8.2-1.1 1-1.2.5-.1.9-.1 1.1-.6.1-.3.4-.3.7-.3.6.2 1.1 0 1.7-.4 1.1-.9 1.8-.7 2.3.7.1.3.2.5.3.8.1.2.2.3.4.2.6-.4 1-.1 1.5.3.3.4.6.4 1 .1.7-.5 1-1.1 1.1-2 .1-1.1.6-2.2 1.7-2.7.7-.4 1.1-.9 1.2-1.8.1-.8.2-.8.9-.5.6.3 1.3.5 2-.1.3-.3.6-.2.8-.1.3.2 0 .4-.1.6-1.3 0-1.4.3-1.6.6 1-.6 1-.6 1.7.2.7.9 1 2.1 1.6 3.1.3.6.7 1.1 1.3 1.3.7.3 1.2.8 1.6 1.6.4 1 1.2 1.7 2.2 2.1 1.8.7 3.3 1.7 4.7 2.9.4.4.8.7 1 1.2 1.3 2.8 2.7 5.7 4.5 8.3.2.4.5.7.7 1.1.3.4.5.9.4 1.6-.3 1.5 0 2.8.2 4.2.1.9.3 1.9-.1 2.7-.3.6-.5 1.2-.9 1.8-.7.9-.5 1.8-.2 2.8.2.4.4.8-.2 1-.2.1-.4.4-.4.7 0 .8-.4 1.7-.6 2.5-.3 1.1.3 2.1 1.1 2.9.1.1.2.2.4.3.6.5.6.5 0 1 .4.1.6.2.3.7-.2.2-.2.5-.2.8v5.3c0 .9-.2 2-.1 2.9 0 .2 0 .4-.3.3-.5-.2-.6.2-.9.6 1.5-.4 1.9.8 2.6 1.5 1 .8 2.2 1.6 3.4 2.1.8.3 1.7.8 1.7 1.8-.1 1.3.7 2.2 1.6 3 .5.6.9 1.1.8 2-.1.4.1.7.3 1 .5.8.9 1.6 1.5 2.4.4.7.7 1.3.9 2.2.1.3.1.5.3.8 1 1.7 1.7 3.5 2.4 5.3.3.9.6 1.9 0 2.7-.6.8-1.7.5-2.5.3-.5-.1-.8-.3-1.1-.7-.5-.6-1.1-1-2-1-.7 0-1.3-.4-2.1-.5-2.3-.3-3.8.5-5.1 2.7-.1.1-.1.3-.2.4-.2.4-.5.6-.8.1-.3-.4-.6-.7-1-1zM79.7 160c-.1-.2-.1-.4-.2-.6l-.1-.1c-.3-.5-1-1.2-1.7-1.3-.5-.1-.9 0-1.2.4-.1 0-.5-.1-.8-.1h-.3c-1.3-.1-1.8.3-2.1 1.6v.2c0 .1 0 .6.4 1l.2.2.3.1h.3c0 .3.1.5.2.7.3.6.9.6 1.2.6.5 0 1-.1 1.6-.4.1.1.1.1.2.1.5.2.9 0 1.2-.2.3 0 1-.3 1-1.3v-.2l-.1-.2c0-.2-.1-.3-.1-.5zm-1.3 1.1c-.3 0-.6.5-.8.1-.3-.4-.4-.2-.7 0-.2.3-.6.4-.9.4-.2 0-.4 0-.3-.2.1-1-.6-.9-1.2-1-.2-.1-.2-.2-.2-.3.2-.9.2-.8 1.2-.7.6.1 1.2.2 1.7-.3.2-.2.9.3 1.1.7.1.3.2.7.3 1 0 .2 0 .3-.2.3zM309.3 237.9l.5.2.3.1 1.1.9h1.1l.5-.2-.2-.1-.6-.7-.2-.1h-.2l-.2.1-.5.2h-.5l-.9-.7-.5-.2-.7-.2h-.7l-.4-.3-.4-.2h-.5l-.5.1-.4.1h-.1v.7h1l1.2-.2h.2l.7.5zM317.1 238.1l.7-.9.1-.1 1.4-.2h.3l.4.4h1l.3-.3 1.6-.7-.8-.5-.3-.1h-.2l-.2.1-1.8.7-.2.2h-.2l-.1-.1-.1-.1-.1-.1-.4-.1h-.5l-1.7.2-.2.1-.3.2-.7.9-1.9 1.2-.3.1.2.2.4.3.5.4.6-.2.2-.1zM324.4 237.2l.9-.3.5-.5.3-.6v-.7l.3-.3.5-.7.3-.8.1-1v-.3l.8-.3.9-.4v-1.2l.1-.2v-1.3l-.7-.7h-.2l-.1-.1.1-.4.6-.1.8-.2.6-.6v-.2l1-.6.5-.3.4-.5h.3l.6-.3.6-.6v-.8l-.2-.5-.3-.6-.6-.6-.3-.1.3-.8-.2-.5.1-.1v-.3l.9-.5.1-.1.2.1h.9l.7-.3h.6l.7-.4.4-.7v-.5l.2-.3 1.9-.7-1-1 .3-1.3h.3l.7-.7v-.8l-.3-.6v-.7l-.3-.7v-.5l.1-.3.6-1.4v-1l-.1-.1.5-1.2.2-1.1.3-.4.1-.1h1.3v-.8l.5-.5v-.1l.1.2.3.3 1 .5 1.1-1.1.2-.1.1-.1.4.2h.6l.5-.2.2.2.5.7h1.3l.3-.3h.4l.2-.2h1.7l.5-.2 1.1.3 1-.2h.3l.7.2h2.3l-.1-.1-.9-.5-.4-.3-.1-.1-.1-.1-.1-.1h-.3l-.2.2h-2.3l-.7-.2h-.5l-.9.2-.5-.1-.4-.3h-.2l-.4.3-.2.1h-.2l-.3-.1-.3.1h-.2l-.5-.7h-.1l-.1.1-.2.2-.1.2v.1l.1.1v.1l-.1.1h-.4l-.3.3h-.3l-.3-.5v-.2h-.3l-.3-.3h-.3l-.3.2-.3.1h-.2l-.5-.2h-.4l-.1-.1-.1.2-.1.1-.1.1-.2.1-.6.6-.1.1-.2-.1-.1-.1-.1-.2v-.2l-.1-.1-.1-.1-.3-.1h-.5v.6h-.4l-.3.3h-.1v.1l-.3.3-.1.2-.1.1v.2-.1h-.2l-.1-.1-.1-.1h-.1l-.5.5h.4l-.3.5v.1l-.1 1.1-.2.6-.3.1-.5.5v1.1l.5.5-.4.9-.2.7v1.2l.3.7v.6l-.3.3-.2.4.1.2v.1l-.1.1h-.1l-.5 1.8-.5.2-.1.5v.2l.2.2-.6.2-.1.2-.2.1-.3.4-.1.2v.5l-.1.2-.2.1h-.5l-.7.3h-.4l-.3-.2-.3-.4h-.2l-.2.3-.2.4-.1.2-.7.4-.2.2-.1.1v.9l.2.2-.2.2V221.9l.1.1-.1.1v.7h.3l.2.1.1.1.2.2.2.3.1.3v.2l-.2.2-.2.1h-.4l-.2.2-.2.1-.3.4-.2.1-.2.1-.5.4-.2.1h-.5l-.1.3h-.1v.7l-.1.1-.3.1-.9.1-.3.2-.1.3-.1.5-.1.3v.3l.1.2v.6l.1.2h.1l.2-.1h.3l.1.1v.6l-.1.2v.8l-.2.1-.6.2-.6.1h-.1l-.1.1-.1.1v1l-.1.7-.1.4-.1.1v.1l-.3.5-.2.2-.4.3-.1.2v.3l.1.2v.2l-.1.2-.2.2-.3.1.5.3z"/><path fill="#57499d" d="M308.2 213.7l-.3.2-.8.8.2.4-.3.4-2 .6h-.2l-.8.4-5.1 1.2-3.3.9-1.8.1-2.6.5-1.9 1.2-.8.6-.3.3-.6 1.9h-.7v-.1l-1.6 1.1-.2.6-.1 1-.1.5v.8l-.1.2v1l.2.2v.3l-.2 1.1-.8 1.5v.2l-.2.1v.7l-.4.1-.6.6-.1.6-.3.5-.9-.3-1.1-.2-.2.1-.9-.3-.6-.4h-.3l.2-.4-.6-1.2h-1.1l-.3.2-.1-.1-.3-.8H275l-.7.4-.4.7h-2.7l-.2.1-.3-.6-1-.4-.3-.2-.8-.4-.3-.3-.1-.6v-.4l-.8-1.6-1.3-3.8v5l-.2.7-.2.3-1.1 1.1.6.3.1.9v.3l.3.6.5.5v1.7l.3-.6v.3l.5.8 1 .9.1.9h.7l.7.7h.5l.1.3.3.7.7.4.2.6.2.1.8.5.6.1.1.2.7.9v1.1h1.5l.3.1.5.7.7.6.8.4 1 .2.6-.7h1.3l.2-.2.2.2 1.1-1.1v-.4l.4-.3h.7l2.7-.7 1.7.8h.7l.1.2.5 1.4 1.2-1.2.3-.4.6-.2.7.3.8.3 1.3-.4 1-1.2.3-.1h1.3l.6-.3.4-.4.7-2 .5-.9v-.6l.6-.3 1-.2.5-.3.4-.4 3.2.2.3.1h.7l.4-.4h.1l-.2.2v.7l.3-.2.2-.2.1-.2.1-.2v-.3l-.1-.2-.2-.1-.3-.1h-.9l-.2-.1h-.2l-.2.1-.1.1-.1.1-.1.1-.1.1h-.1l-.3-.1-3.5-.2-.3.1-.2.1-.2.2-.2.2-.2.1-.7.1-.3.1-1.3.6-.2.2-.1.3v.1h.3l.1.1v.2l-.4.7-.6 1.9-.1.1-.2.1h-1.2l-.7.2-1 1.2-.7.2-.3-.1-.6-.3-.3-.1h-.4l-1 .4-.3.4-.1.1-.1-.3v-.2l-.1-.2-.1-.1h-.2l-.5.1h-.4l-.2-.1-1.6-.7h-.2l-2.7.7h-.7l-.4.1-.3.2-.6.5-.1.2v.3l-.1.1-.1-.1-.1.1-.2.1h-.1l-.1.1-.2.2h-.3l-.1-.1-.1-.1h-.2v.1l-.1.1-.5.2-.5-.1-.5-.2-.5-.4-.5-.7-.2-.2-.2-.1-.6-.1h-.5v-.2l-.1-.3-.6-.8-.2-.5-.2-.2-.2-.1-.7-.1-.2-.1-.3-.2-.2-.5-.2-.2-.4-.2-.2-.1-.1-.2-.2-.7-.1-.2-.2-.1h-.6l-.2-.2-.2-.5-.1-.1-.2.1h-.1v-.3l-.1-.1-1-.9-.2-.3-.1-.2v-.7l.1-.9v-.2l-.2-.1h-.6l-.1-.1-.1-.1-.1-.1-.1-.2v-.2l-.1-.4v-.2l.1-.2.4-.3-.4-.2.2-.2.3-.5.2-.6.1.2v.2l.1.5v.3l.3.5.2.2.2.2.7.3.4.3.5.2.2.1.1.2.2.4.1.2h.9l.2-.1h2l.2.2h.2l.2-.2h.8l.3.3h.1l.1-.2.1-.1v-.2l-.1-.1v-.5l.1-.2.2-.1h.2l.1.3.1.1v.7h.8l.1-.2.3-.1.2-.1h.2l.1.2-.1.2-.1.2-.1.2v.3l-.2.2-.1.1.3-.1h.2l.2.1.1.1v.2h.2l.2-.1h.3l.5.3.7.2.3.2.1.3-.1.3-.2.2-.4.3v.1h.5l.2-.1.2-.2.1-.2v-.6l.3-.2.5.1 1 .4.5.3.9.9.5.3.7.3h.5l.4-.2.2-.1.4-.5.4.3.5.2.5-.2h-.2l-.3-.1h-.2v-.1l-.1-.3-.1-.1h-.2l-.3-.1h-.3l-.4.2h-.4l-.2-.1-.2-.2-.2-.2-.5-.2-.2-.2-.2-.6-.2-.2-.1-.1v-.4l.2-.4.1-.4.1-.1.7-.1h.2l.2.1.1.2.2.3.2.2.3-.1h.1l.2.1.2.1.2-.1-.2-.1h-.1l-.2-.2h-.2l-.2-.1h-.1v-.1l-.1-.2h-.3l-.3-.5v-.5l.3-.1.1-.1v-.1l-.2-.1v-.3l.1-.2.2-.4.4-.7.3-1.1v-.3h.3l.2.1h.3l-.3-.2v-.3l.2-.2h.2l.2.1.4.1h.1l.2-.1.1-.1.2-.3v-.1l-.1-.1h-.1l-.1.1-.1.3h-.2l-.3-.2h-.2l-.8.1h-.2l-.1-.1v-.3l.1-.2.2-.2.2-.1h.2l-.1-.2-.2-.1h-.2l-.1-.1v-.2l.1-.5.1-.8.1-.3.3-.2.1.2.2.1.4.1.1.1.3.4.1.1h.1l.1.1h.3l.4-.2h.6l.2.1.2.1-.1-.2-.2-.2-.4-.3-.1-.1-.1-.5-.1-.2h.3l.3.1h.3l.1.1h.2l-.2-.1-.4-.1-.2-.1-.1-.1-.1-.1-.1-.2v-.3l.2-.7.1-.5.1-.2.1-.1.8-.6 1.3-.8.3-.2 2.3-.4 2.2-1.4 3.4-.9 3.3-.8 1.9-.4.7-.3h.1l2.1-.6.4-.2.6-.7.2-.5-.1-.2.1-.1.3-.2.6-.5.1-.1v-.1l.4-.6.9-.8.2-.3v-.5l.3-.2.1-.1.1-.1.6-.6.3-.5.1-.3v-.2l.1-.2.2-.2.5-.3 2.9-2.5 2.5-3.2.2-.6-.1-.5.2-.4.1-.5v-.5l-.3-1.1.1-.2.2-.1.8.4.6.1.2.1.4.3.3.1.1.1.1.2h.7v.3l.1.1.1.1.1.3v.3l-.1 1.1.1.5v.1l-.2.1v.3l.1.1h.4l.5.1.5-.1h.2l.2.1.2.7.1.2.2.2.7.7.2.2.1.1.1.1.1.3v.1l.5.1.5-.3 1.1-1 .1-.2.1-.5.1-.2.3-.4.1-.2v-.2l-.4.1v-.2l.1-.1.4-.3.1-.2.1-.2.1-.4v-.3h-.3l-.2-.1-.2-.3-.1-.4-.1-1.3v-.3l-.1-.2-.2-.4-.1-.2v-.2l.1-.1.4-.2.2-.1.4-.4.2-.1.2-.1h.6l.2-.1.1-.2v-.4l.3-.3h.2l.1-.1.1-.1.1-.1.1.2v.5l.1.4-.1.9v.9l.1.5.4.9.1.5.1 1.1.1.2.2.1.7.2h.7l.2.2h.4l.2.2.3.1h.2l.2-.2v-.2l-.2-.2-.4-.4-.3-.4-.1-.5-.1-.5v-.5l.1-.5v-.5l-.7-2.3-.3-.4-.2-.1-.1-.1-.1-.1v-.2h.6l.1-.1.1-.4.1-.1h.7l.1.2v.1h.4l.1.1.1.2.2.1h.5l.1-.1.4-.4.1-.1.2-.1.3-.3.4-.5.2-.1h.2l.2-.1.2-.1.1-.1.1-.2.1-.5v-.5l.1-.2.1-.1.1-.1v-.1l-.1-.1-.5.2h-.4l-.4-.2-1-.9v-.3h-.1l-.2.2-.1-.2v-.2l.1-.2.1-.4.1-.2.1-.1v-.1l.1-.1.6-.3.1-.2.1-.2.8-.6.4-.9.2-.2.2.3-.4.7.2.3v-.1l.1-.3v-.1l.4.3.2.1 1 .1h.5l.3-.1.4-.3.3-.5.2-.5.1-.5.1-.5.1-.2.1-.2.2-.1 1-.6.2-.2.1-.2v-.5l.1-.2.7-1.2.2-.5-.2-.3-.3.1-.1-.2.1-.2.3-.1.2-.1.5-.8.2-.2.1-.1h.8l.2.1h.2l.1-.1-.1-.4h-.1l-.2.1h-.3v-.1l.3-.2.2-.2h.4l.1-.1v-.1l.1-.4v-.1l.1-.1.1-.1 1-.8.2-.2.2-.2.2-.1.2-.1.1-.2v-.4l.1-.2.2-.1.2-.2.7-.9.2-.2.1-.2.1-.2v-.9l.1-.2v-.8l.3-.2.1-.2.1-.5v-.3h.1l.1-.2.1-.1.1-.1.1-.1h.1l.1.2.5.3.1.1.2.8-.2-.1h-.2l-.1.4v.1l.1.1.2.1.2.1.1.2v.5l-.1.3-.4.6-.2.4-.2.5.1.4.5.1.2-.1.2-.2.1-.2.1-.1.1-.1.5-.5.4-.3.1-.1v-.4h.1l.1-.1.2-.3.4-.4v-.2l-.1-.2-.2-.5v-.2l.1-.1h.5l.1-.1v-.1h-.1v-.3h.4l.1-.1.2-.1h.2l.3.1h.1l.6.4h.1v.3l-.1.6-.1.1-.2.1v.4l.1.2.4.5.1.2v1l.1.2.1.2.2.1h.5l.2.1.2.1.2.3.3.3.2.2h.4l.1-.1.3-.5.2-.2h.1v.5l.3.3v.1h.1l.2.2h.4l.2-.1h.2l.3.3.1.2.1.3h.1v-.1h.2l.1.1v.4l.1.2v.2l-.1.1-.1.1.1.3-.1.8-.1.2h-.2l-.4-.1-.2.1-.2.1-.3.3-.1.2.1.2.2.3.2.4.2.1v.5l-.1.1h-.2v.3l.1.2h.2l.2.1.1.3-.1.2-.2.2-.4.2-1.5.5-.3.3h.2l.7-.3.3-.1h.8l.8-.1.6.1h.5l.1-.1-.1-.3.1-.1h.6l.5-.1.1-.1.1-.1.2-.1.3-.2.4-.5.2-.1v-.1h.3l.4.4v.3l.2.1v.3l.1.3.5.6.1.1v.1l-.3.5-.2.1-.3.1h-.3l-.2-.1-.2.1-.7-.1-.2.1-.1.2v.1l.1.1.1.1.3.9.1.1h.3l.2-.1.5-.2h.3l.1.1h.5l.1.2h.2l.1-.1v-.2l.1-.2.1-.1.1-.1v-.1l-.1-.2v-.1l.2-.1h.5l.5-.2h.2l.6.3h.1l.1-.2h.2l.1.1h.1l.2.1 1.2.7.4.3.2.1.2.1.2.1.1.2v.1l-.1.1h-.1l-.1.7-.1.2v.3l.1.2h.4l.1-.3.1-.1.1-.1.1-.1v-.4l.3-.2h.2l.2.1.5.7.2.2.2.1h.3l.2.2.2.2.1.3.1-.1v-.3l.5.4h.2l.2.1.2.2v.2l-.2.1.1.1.2.1h.2l.1-.1v-.2l-.1-.1v-.1l.1-.1h.4l.5.3h.3l.9-.4h.3l.2.1.2.2.3.4.2.2.1.1v.4l-.5.8v.2l.1.5v.3l-.2.2-.6.6-.5.3-2.2.7-2.2.6-.4.2-.3.1-.3.1h-.4l-.4-.1-.3-.1-.2-.1h-.3l-.3.3-.2.2h-.1l-.1-.1-.1-.1-.2-.3-.4-.5-.4-.2-.2-.1h-.2l-.2.2-.4.3-.1-.1v.1V194.3l-.4-.1-.4.2-.7.7-.2.2-.1.1v.3h.1l.3.2.1.1.1.1.1.3.3.4.3.4.3.3.4.3.2.2-1.5.1.2.2.5.4.2.2.4.4h.2l.5.5h.3v.3l.5.5.2.1.2.2h-.7l-.1.1-.1.1h-.1l-.1-.1h-.2l.1.2v.2l-.1.2-.1.1-.2.1h-.9l-.4.1h-1l-.2-.1-.2.2h-.1l-.8.2-.3.2-.3-.1-.5.1-.3.1-1.6.8.1.2h.6l.7.6h.4l.6.2h.8l1.7-.9.9-.1 1.1-.3h.4l.1-.1h.9l.5-.1h1l.6-.3.3-.3.1-.2.7-.8v-1l-.4-.4.5-.9.1-.2h-1.7l-.4-.4-.2.1-.2-.5-.9-.4v-.4h-1.1l-.5-.4-.7-.8-.1-.3.3.3.9-.7.4.5.6.7h1l.4-.4.4-.2h.8l1.2-.5 2.1-.6 2.2-.7.7-.4 1.3-1.3v-.7l-.1-.5.3-.6v-1.1l-.3-.3-.5-.6-.4-.4-.6-.3h-.8l-.8.4-.4-.3h-.9l-.4-.2h-.1l-1.9-1.5v.2l-.1-.2-.7-.3h-.2l-.1-.3-2.6-1.5-.2-.1-.2-.2h-1l-.2-.1h-.7l-.5.2h-.1v-.5l-.7-.8v-.8l-.2-.1v-.1l-1-1h-1.8v.6l-.3.4-.4.2-.1.1h-1.1l-.2-.5v-.9h.3l.5-.9.1-1.1.1-.1v-.9l-.1-.2v-.6l-.7-.7h-.1l-.7-.7h-.6l-.1-1h-1.5l-.5.5-.2-.2-.9-.4h-.1v-.5l-.4-.8.2-1v-1.5h-.8l-.6-.4h-.2l-.3-.1h-.6l-.4.2h-1.1v.6l-.6.6v.5l-.3-1.2-.2-.2-.6-.4-.3-.5h-1.2l-.5.5h-.6v1.4l-.5.3v1.1l-.1.2v.9l-.9 1.1-.4.2-.4.7v.2l-1.6 1.3-.6.6v.1l-.3.3-.8.6v.4l-.6.9-.5.2-.5 1.1.4.8-.5.9-.2.4v.4l-.8.5-.5.3-.4.7-.3 1.2-.1.4-.2.3-.1.1H339.9l-1.3-1.9-.7.7-.4-.2v.6l-.1.1-.4.9-.8.6-.2.3-.5.2-.5.5-.3.9-.2.3v.7l.9 1.7.4-.4.5.5.7.4-.6.3-.5.7-.2.2-.2.1-.3.3-.2-.2h-.2l-.2-.3h-1.3l-.6.6h-.9v.1l-.3-.7-1 1h-.1l-.9.9v.1h-.1l-.8.4-.4.4-.6.3-.5.5V199.1l.4.8.1 1.5.2.8.4.6-.6.5V204.5l-.1.5-.7.7-1.2-1.2-.3-1.1-.8-.4-.8.1v-.2l.1-1.1v-.5l-.2-.7-.1-.1v-.9h-.9l-.2-.2-.2-.1-.4-.3-.4-.2-.8-.2-1.2-.6-1 .5-.4.9.4 1.4v.3l-.1.3-.3.6v.3l-.1.2-2.3 3-2.8 2.4-.4.3-.5.5-.3.6v.2l-.2.4-.5.5-.8.6v.7l-.8.7-.3.4-.3.4-.5.5zm24.5-16.2l.6 1.4.2.7-.1.7v.7l.2.9H333.3l-.1-.7-.1-.6-.4-1-.1-.3v-.8l.1-1zM351.9 169.1h2.7l.2-.7.2-.1.4.4.3-.6.5-.1-.2-.4.3-.5v-1.2l-1.3-1.3-1.1 1.3h-.7l-.4.9-1.1.3.7.7-.5 1.3zm2-2.1h.2l.4-.1.1-.1.5-.6.2.2v.5l-.1.2-.2-.2-.2.1-.1.2.1.2-1.1.3.1.1.1.1h.1l-.1.2h-.5l.5-1.1zM148.9 221.6c.1 0 .2 0 .4.1.4 0 1.2 0 1.5-1l.1-.3-.1-.3c-.1-.4-.1-.7-.2-1.1l-.3-1.2-.1-.3-.2-.2c-.2-.2-.7-.7-1.4-.4l-.7.4v.6c0 .2-.1.4-.3.7l-.4.4-.3.5.2.6c.1.4.6 1.5 1.8 1.5zm-.8-2.1c.4-.5.7-1 .8-1.7 0-.2.2 0 .3.1.2.7.3 1.6.5 2.3-.1.3-.3.3-.6.3-.6.1-.8-.3-1-.8 0-.1-.1-.2 0-.2z"/><path fill="#57499d" d="M363.4 203.1l-.1-.1-.5-.4-.2-.1h-.2l-.1-.2h-.2l-.4-.1h-.1v.7l.2.1v.3l-.2.2h-.3l-.4-.1-.7-.6.2.2v.2l-.1.1-.2.2-.1.1-.1.1-.1.1v.1l.2.2.1.1h-.2l-.5.2-.1-.1-.2-.1.3.3.5.3 1 .4h.4l.4.4 1-.4h2.5l-.7-.7-.7-.7.2-.2v-.4l-.4-.1zM339 203.3l-.1.1-.1.2.1-.1z"/><path fill="none" stroke="#fff" stroke-width="0" stroke-linecap="round" stroke-linejoin="round" d="M338.8 203.7v.1M339 203.3l-.1.2-.1.1M370.6 194.5v.1"/><path fill="#fff" d="M353.6 168.1h.3l.1-.2h-.1l-.1-.1-.1-.1 1.1-.3-.1-.2.1-.2.2-.1.2.2.1-.2v-.5l-.2-.2-.5.6-.1.1-.4.1h-.2l-.5 1.1h.1zM77.2 159.1c-.5.5-1.1.4-1.7.3-1-.1-1-.2-1.2.7 0 .1 0 .2.2.3.6.1 1.3 0 1.2 1-.1.2.1.2.3.2.3 0 .7-.1.9-.4.3-.2.4-.4.7 0 .2.4.5-.1.8-.1.2 0 .2-.1.2-.3-.1-.3-.2-.7-.3-1-.2-.4-.9-.9-1.1-.7zM149.1 220.5c.3 0 .5 0 .6-.3-.2-.7-.3-1.6-.5-2.3-.1-.1-.3-.3-.3-.1-.1.7-.4 1.2-.8 1.7-.1 0 0 .1 0 .2.2.5.4.9 1 .8zM83.6 175.2c-.1 1.1-.4 2.3.2 3.4.2.4.3.4.5.2.6-.5.9-1.3 1-2.2-.2-.5-.4-1.3-.9-1.7-.4-.3-.7-.2-.8.3z"/><path fill="#57499d" d="M422.5 201.7c-.1-21.5-21-41-55-55.5h-.1c-33.6-14.4-80.1-23.8-131.9-25.3.1-.6.1-1.2.1-1.9-.1-1.2.4-2.5.3-3.8 0-.4.4-.5.7-.5 1 .1 2 0 2.9-.2.8-.1 1.2.4 1.6.8.7.9 1.6 1.4 2.7 1.5.4 0 .8 0 .9-.4.4-1 1.2-1.6 1.9-2.1.6-.5 1-.9 1.2-1.6.3-.6.8-.9 1.5-.9h1.5c1 0 1.1-.2 1.1-1.1 0-1.9.1-3.6 0-5.4 0-1.1.2-2.2.7-3.2.8-1.5 1.2-2.9 1.5-4.5.6-3.3-.6-5.6-3.1-7.5-1.9-1.3-3.9-2.4-6.1-3-2.6-.8-5.2-.7-7.6.8-2.1 1.2-3.1 3.2-3.1 5.7v5.1c0 1.3-.8 2.6-1.5 3.7-.2.4-.6.6-1 .7-1.6.5-3.1 1-4.8 1.3-2.2.4-4.3 1.7-6.7 1.9-3 .4-5.9 1.4-8.8 2-.8.1-1.4.6-2 .7-3.6.3-6.5 2.3-9.8 3.5-2.7 1-5.5 1.7-8.3 1.9-2.5.2-4.5 1.5-6.5 2.8-.7.4-.7 1.3-.7 2.1 0 .4.1.8.2 1.2.2.4.3.9.5 1.3-43.7 3-82.6 11.8-111.8 24.3h-.1c-34 14.5-54.8 34-54.8 55.5 0 20.6 19.3 39.5 51 53.8 0 0 0 .1.1.1.1.1.3.1.4.2 11.7 5.3 25 9.9 39.8 13.8L55.5 377.6h123.3l8.7 16.9h70.7l8.7-16.9h123.3L336 268.2c12.9-3.6 24.7-7.8 35.2-12.5-.1-.1.1-.1.3-.2 31.7-14.3 51-33.2 51-53.8zm-72-54.3c-16.1 3.9-33.1 7.3-50.9 9.7-13.4-11.3-31.9-21.6-54.9-30.3 40.8 2.2 77.5 9.6 105.8 20.6zm-64.3 11.4c-9.6 1.1-19.4 2-29.3 2.6-.1-.2-.1-.4-.2-.6-1-2.7-2.1-5.3-3.7-7.8-.5-.9-1.3-1.5-2.1-2-3.7-2.4-6.8-5.4-9.1-9.2-1.2-2.1-2.4-4.4-3.4-6.7l-1.5-3.6c20.4 8 37 17.3 49.3 27.3zm-59.1-18.5c.1-.2.2-.3.3-.5.3-.5.6-.6 1.1-.2 3.5 3.2 6.9 6.3 9.8 10 1.6 2.1 2.6 4.6 3.6 7 .7 1.6 1.7 3.2 3.3 4.2.5.3 1 .7 1.5 1.1-6.5.3-13 .5-19.6.5v-22.1zm25.4 26.9l.6.6c1.5 1.4 2.9 3 4.7 4.1 1.7 1.2 3 2.8 4 4.6.7 1.2 1.7 2 2.9 2.4 1.8.7 3.4 1.9 5.2 2.7.7.3 1.3.4 2 .5.6 0 .9-.3.9-.9.1-1.4-.6-2.5-1.7-3.1-1.2-.7-2.2-1.7-2.9-2.9-.3-.6-.9-1-1.3-1.5-.5-.6-.5-.8.2-1.1.6-.2 1-.4 1.5-.6s.8-.5 1.1-.9c.8-1.3.3-2.1-1-2.2-.7 0-1.6-.1-2.3 0-2.3.3-4.1-.8-5.9-2.1 10.7-.7 21.2-1.6 31.5-2.8 11.4 11 17.7 22.7 18.6 34.9h-71.3c-.3-.7-.5-1.3-.8-2-1-2.5-2.1-5-2.9-7.6-.8-2.5-2.1-4.7-3.6-6.9-1.6-2.3-3.2-4.7-4.8-7.2V168h-.1c8.6-.1 17-.3 25.4-.8zm-9 83.1c0 .2 0 .5.1.7.8 2.8 1 3.1 4 3 1.6-.1 3.1.2 4.6.5h-25.1v-16.4c3.5 0 7 .1 10.4.2 1 .9 1.8 2.1 2.4 3.2.6 1.1 1.1 2.1 2.3 2.6.8.4 1.2 1.3 1.6 2.1.1.2.2.5 0 .8-.6 1-.5 2.2-.3 3.3zM227 212.7c.8-.1 1.6-.3 2.4-.6.3-.1.7-.4 1 0 .4.4.1.8-.1 1.1-2.4 3.7-2.3 7.7-.8 11.6.7 1.7 1.6 3.2 1.8 5 .1 1.2.5 2 1.1 2.8-1.8 0-3.6-.1-5.4-.1v-19.8zm-3.9 46h81.4l33.7 88h-107c-8.1 0-8.1 7.6-8.1 7.6v-95.6zm-11-52.2c.3-.4.7-.9 1-1.3v27.4h.1c-7.2.1-14.3.3-21.4.6v-.2c0-.5 0-.9.1-1.3.3-2.1.8-4 1.1-6.1.3-2.1 1.3-3.8 2.3-5.6 1.2-1.9 2.3-3.8 3.4-5.7.3-.4.5-.8.7-1.3.5-1.5 1.2-2.9 2.3-4 .7-.7.6-1.8.6-2.7 0-1.3.2-1.4 1.3-.8 1.7 1 3.5 1.6 5.3 2.1 1.5.6 2.2.2 3.2-1.1zm6.2 52.2l-.9 95.6s.1-7.6-8-7.6h-107l34.5-88h81.4zM194.9 127c0-.1-.1-.2-.1-.3.3 0 .6 0 .9-.1-.3.2-.5.3-.8.4zm2.2 7.1c2.3-.9 4.5-1.9 6.9-2.8 0 .6-.1 1.3-.3 1.9-.3 1.3-.3 2.7-.4 4-.1 1.7-.4 3.4-.6 5.2-.1.7-.4.8-1 .4-1-.6-1.7-1.4-2.2-2.4-1-2.1-1.8-4.2-2.4-6.3zm-2.9 9.4c.8 1.3 1.3 2.7 1.8 4.2.3 1.2.2 1.4-.9 1.8-1.2.3-2.1 1.3-3 2.1-3.3 2.8-6.5 5.7-9.8 8.5-.3.2-.5.5-.6.8 0 .1-.1.2-.1.3-9.3-.6-18.5-1.4-27.5-2.4 9.6-7.9 21.9-15.3 36.6-22 1.2 2.2 2.4 4.5 3.5 6.7zm-8-16.2c.3.8.5 1.5.8 2.2l.3.6c-19.2 8-34.9 17.1-46.6 27-17.7-2.5-34.8-5.7-50.8-9.8 26-10 59.2-17.2 96.3-20zM85.6 254.4c15.7-4.2 32.4-7.7 49.8-10.2-.7-.5-1-1.2-1-2.1v-.7c0-1.1-.2-1.2-.7-1.3-1.1-.2-1.9-.7-2.5-1.2-19.3 2.9-37.8 6.6-55.2 11.4-26.1-12.5-42.3-28.5-43.9-45.8h61.6c-.3-.3-.7-.7-.8-1.3-.4-.1-.8-.3-1.1-.6-.5-.5-.8-1.3-.8-2s.2-1.2.6-1.5c.1-.1.3-.2.5-.3h-60c1.7-18.2 19.5-34.8 47.8-47.5 17.3 4.6 35.8 8.2 55 10.9-3.3 3.3-6.3 6.6-8.7 10 .1 0 .2.1.2.1 1.9.8 3.6 1.8 4.9 3.1l.3.3c.4.3.8.7 1 1.4l.3.6c.6 1.3 1.3 2.6 2 3.9 3.2-6 7.7-11.9 13.5-17.6 10.2 1.2 20.7 2.1 31.3 2.7 0 .2-.1.4-.1.6-.1 2.3-.6 4.6-.4 6.9 0 .7 0 1.2.2 1.7.8 2.6 1.7 5.1 2.5 7.6.5 1.3 1.3 2.5 2.3 3.4 1.1.9 1.9 2.3 3.4 3s1.4.7 1 2.4l-.9 3.9c-.3 1.2 0 1.7 1 2.3.2.1.4.3.7.4h-52.2c0 .2.1.4.2.6.2.4.4.9.2 1.5-.1.2-.3.5-.7.8 0 .7-.2 1.3-.4 1.8-.1.3-.2.5-.2.8v.2h54.6c-.5.7-1.2 1.4-1.9 2.1-.6.5-1.2.9-1.8 1.3-2 1.3-2.6 3-2.6 5.1 0 1-.2 2-.4 3-.4 1.9-.5 3.7.3 5.6.5 1.1.9 2.4 1.2 3.6.3 1.6.7 3.3.3 4.8-.3 1.1-.5 2.3-.9 3.4-11.8.7-23.3 1.6-34.7 3 .4.9.8 1.9 1.2 2.8.2.4.3.8.5 1.2.2.5.3 1 .4 1.5 10.1-1.2 20.3-2.1 30.7-2.7-.1.8.2 1.4 1.1 1.8 2.4 1.2 3.6 3.4 5.2 5.4 1.2 1.7 2.3 3.3 3.9 4.8.7.5 1.3.8 2 .9.9.1 1.2-.2.9-1-.4-.9-.8-1.8-1.3-2.7-.9-1.6-1.8-3.1-2.5-4.8-.4-.8-.6-1.7-.6-2.5v-2.3c7.1-.3 14.2-.5 21.4-.6v16.4l-44.5.4c-6.2-3.8-11.6-7.8-16.3-11.9-.1.4-.2.8-.5 1.2-1 1.3-2.6.9-3.5.7h-.1c-.7-.1-1.3-.5-1.7-1.1-.5-.5-.8-.6-1.1-.6-.6 0-1.1-.2-1.5-.3-.3-.1-.5-.2-.7-.2-1.9-.3-3 .4-4 2.2v.1c4 3.4 8.4 6.8 13.3 10l-17.7.1-18.6 9.4c-11.2-3.1-21.5-6.5-30.8-10.3zM74.2 358.6l42.4-90.3 15.7-7.7-35.2 85L70 366.4l4.2-7.8zm186.3 8.5c-13.1 0-8.8 16.4-8.8 16.4h-57.3s4.4-16.4-8.8-16.4H76.3l4.4-3.4 15.5-12.1 112.4 1s11.6 1 11.6 11.1c0-10 11.7-11.1 11.7-11.1l112.5-1 15.4 12.1 4.4 3.4H260.5zm106.9-8.5l4.2 7.9-26.8-20.8-33.9-86.6 14.8 9.2 41.7 90.3zm-40.1-95l-19.2-9.1h-19.7c5.2-3.5 9.9-7.1 14-10.8 18.3 2.7 35.9 6.2 52.3 10.6-8.4 3.5-17.6 6.6-27.4 9.3zm36.9-13.4c-15.6-4.2-32.3-7.8-49.6-10.5l-.6.2-.5-.4c-1.9-.3-3.8-.6-5.8-.9.2-.2.4-.5.7-.7l-.7-.5h-.2l-1.2.2h-1v-.7h-.1v-.1l.1-.1v-.7l.2-.2h-.1l-.4.4h-.7l-.3-.1-3.2-.2-.4.4-.5.3-1 .2-.6.3v.6l-.5.9-.7 2-.4.4-.6.3h-1.3l-.3.1-1 1.2-1.3.4-.8-.3-.7-.3-.6.2-.3.4-1.2 1.2-.5-1.4c-4.7 4-10 8-16 11.7h-9.8c0-.2-.1-.4-.2-.6-.5-1.3-1.4-1.7-2.6-1.6-2.4.1-4.5-1-6.4-2.2-1.3-.8-2.1-2.5-3.1-3.7-1.2-1.5-1.8-3.2-2.4-4.9-.3-1-.7-1.9-1-2.9 8.4.4 16.7.9 24.8 1.6l-.2-.1-.2-.6-.7-.4-.3-.7-.1-.3h-.5l-.7-.7h-.7l-.1-.9-1-.9-.5-.8v-.3l-.3.6v-1c-7.1-.5-14.2-.9-21.4-1.2-.1-.2-.1-.4-.2-.6-.9-3-2.2-5.9-2.7-9.1-.1-.7-.1-1.5-.1-2.2-.1-1.9 0-3.8-.3-6.1v-6.6c0-.5.1-.9.5-1.3.4-.3.4-.8.2-1.2l-.6-1.5h68.9c-.2 2.8-.7 5.6-1.4 8.4l.3-.4.8-.7v-.6l.8-.6.5-.5.2-.4v-.2l.3-.6.5-.5.4-.3 2.8-2.4 2.3-3 .1-.2v-.3l.3-.6.1-.3v-.3l-.4-1.4.4-.9 1-.5 1.2.6.8.2.4.2.4.3.2.1.2.2h.9v.9l.1.1.2.7v.5l-.1 1.1v.2l.8-.1.8.4.3 1.1h2V203.3l.6-.5-.4-.6-.2-.8-.1-1.5-.4-.8v-.2h-2.6c-.8-12.7-7.4-25.2-19.2-36.6 19.3-2.7 37.7-6.3 55-10.9 28.5 12.6 46.2 29.2 47.8 47.5h-32l-.5.9.4.4v1l-.7.8-.1.2-.3.3-.6.3h-1l-.5.1h-.9l-.1.1h-.4l-1.1.3-.9.1-1.7.9h-.8l-.6-.2h-.4l-.7-.6h-.6l-.1-.2h-.2l-.3-.1v.4l-.2.2.7.7h43.6c-1.5 17.4-17.8 33.2-43.9 45.7z"/></svg>
