<svg xmlns="http://www.w3.org/2000/svg" fill="none" class="header-logo-icon header-logo-icon-desktop is-dark" viewBox="0 0 208 48"><path fill="#00B3E5" d="M47.5 0L23.8 4.5 0 0v39.9L9.8 38V48l14-12.6 23.7 4.5V0z"/><path fill="#010101" d="M201 25v-7.4h-2.2V15h2.3V11h3.1V15h3.8v2.7h-3.8v7c0 .8.1 1.4.4 1.8.2.3.8.5 1.5.5l1.2-.2.3 3s-.8.3-1.8.3c-1.7 0-3-.4-3.7-1.2-.6-.8-1-2.1-1-3.9zm-6.4-1l3.2.7c-.3 1.8-1 3.2-2 4.2a6 6 0 01-4.3 1.5c-2 0-3.7-.7-5-2a8.3 8.3 0 01-2-6c0-2.4.7-4.3 2-5.8 1.3-1.4 3-2.2 5-2.2a6 6 0 016.2 5.6l-3 .6c-.3-2.1-1.4-3.2-3.1-3.2-1.2 0-2.1.4-2.8 1.3a6 6 0 00-1 3.8 6 6 0 001 3.7c.6.9 1.6 1.3 2.7 1.3 1.7 0 2.7-1.2 3-3.5zm-14.7 1l2.3 2a7 7 0 01-6.2 3.5c-2.1 0-3.8-.8-5.1-2.2a8.4 8.4 0 01-2-5.8c0-2.5.7-4.4 2-5.9 1.3-1.4 3-2.2 5-2.2 1.9 0 3.6.8 4.9 2.2 1.3 1.5 1.9 3.4 1.9 5.8v1h-10.5c0 1.3.3 2.2 1 3s1.6 1.1 2.7 1.1c.6 0 1 0 1.5-.2s.8-.3 1.1-.7l.8-.7.6-1zm-7.7-4h7.4c0-1.1-.4-2-1-2.7-.7-.7-1.6-1-2.7-1s-2 .4-2.6 1.1c-.7.7-1 1.5-1 2.5zm-12.9 14l.6-3s1.4.3 2.2.3c.8 0 1.3-.5 1.3-1.4V15h3.2v16c0 3.3-2 4.6-4.4 4.6-1.7 0-2.9-.6-2.9-.6zm4-22.6V9h3.4v3.3zm-4.2 15.9c-1.3 1.4-3 2-5 2s-3.6-.6-5-2a8.3 8.3 0 01-2-5.9c0-2.5.8-4.4 2.1-5.9 1.4-1.4 3-2.1 5-2.1 1.9 0 3.5.7 4.9 2.1s2 3.4 2 5.9-.7 4.5-2 5.9zm-5-.8c1.1 0 2-.4 2.7-1.3a6 6 0 001-3.7 6 6 0 00-1-3.8 3.2 3.2 0 00-2.7-1.3c-1.1 0-2 .5-2.7 1.3a6 6 0 00-1 3.8c0 1.6.3 2.8 1 3.7.7.8 1.6 1.3 2.7 1.3zM139 30V14.9h3v1.6c.4-.6.8-1 1.4-1.4a3.3 3.3 0 011.8-.5l1.4.3-.6 3.1-1.2-.2c-1.7 0-2.6 1.3-2.6 3.8V30zm-16.6 0V10h7.9c2 0 3.6.6 4.9 1.7a5.9 5.9 0 011.8 4.6c0 2-.6 3.4-1.8 4.5a7 7 0 01-5 1.7h-4.5V30h-3.3zm3.3-10.5h4.5c1 0 1.9-.3 2.5-.9s1-1.3 1-2.3c0-1-.3-1.9-1-2.4s-1.5-.8-2.5-.8h-4.4v6.4zm-8.9 5.5l2.4 2a7 7 0 01-6.3 3.5c-2 0-3.8-.8-5-2.2s-2-3.4-2-5.8c0-2.5.6-4.4 2-5.9 1.2-1.4 2.9-2.2 4.9-2.2 2 0 3.6.8 4.9 2.2 1.3 1.5 2 3.4 2 5.8v1H109c0 1.3.4 2.2 1 3 .7.7 1.6 1.1 2.8 1.1.5 0 1 0 1.4-.2s.9-.3 1.2-.7l.7-.7.6-1zm-7.7-4h7.4c-.1-1.1-.5-2-1-2.7s-1.6-1-2.7-1-2 .4-2.6 1.1a4 4 0 00-1 2.5zm-9.1 9V9.2h3.3V30zm-16 0V9.2h3.2v7.1c1.1-1.2 2.4-1.9 4-1.9 2 0 3.5.8 4.7 2.2a9 9 0 011.8 5.9c0 2.4-.6 4.4-1.8 5.8a5.7 5.7 0 01-4.7 2.1c-1.6 0-3-.6-4.1-1.9V30zm3.2-9.2v3.4c0 .9.4 1.7 1 2.3.6.6 1.4 1 2.5 1 1.2 0 2.1-.5 2.8-1.4.7-.9 1-2 1-3.7 0-1.7-.3-3-1-3.8a3.2 3.2 0 00-2.8-1.3c-1 0-2 .3-2.5 1-.6.8-1 1.5-1 2.5zm-9.5-8.4V9H81v3.3zm0 17.6V14.9H81v15zm-17.4 0V10h8.2c1.7 0 3.1.5 4.2 1.5a5.1 5.1 0 011.6 3.8c0 1.7-.8 3-2.3 3.9.8.4 1.6 1 2.1 1.7.6.8 1 1.8 1 3 0 4-2.5 6-7.4 6zm3.4-11.8H68c.9 0 1.6-.2 2.1-.6.6-.4.8-1 .8-1.9s-.2-1.5-.8-2c-.5-.4-1.2-.6-2.1-.6h-4.4v5.1zm0 8.7h3.5l1.5-.1 1.2-.2 1-.5.6-.9.2-1.4c0-1.1-.3-2-1-2.3-.8-.4-2-.6-3.4-.6h-3.6z"/></svg>
