<svg xmlns="http://www.w3.org/2000/svg" viewBox="0 0 500 500"><path d="M283.5 332.6c1.9 1.3 3.2 3.1 4.9 5-2 .5-3.2-.2-4.4-.9l1.9-.3c-.5-1.6-2.4-2-2.4-3.8zm-3.1 3.1c-1.7-.3-3.3-.8-4.9-1.3-1.4-.5-1.5.2-1.4 1.1.1.9-1.3-.7-1-1.5.2-.6.9-.9 1.5-.7 1.9.8 4.3.5 5.8 2.4z" fill="#c0d19d"/><path d="M486.9 186.8c-4.8-16.2-11.4-31.9-19.5-46.8-35.2-64.5-97.2-110-169.3-124.2C164.1-10.7 34 76.5 7.6 210.5 4.8 225 3.3 239.6 3 254.3c-.2 13.3.7 26.7 2.6 39.9 2.3 16.1 6.2 32 11.7 47.3 7.4 20.6 17.5 40.1 30.1 58 13.4 19.1 29.4 36.2 47.5 50.9 14.7 11.9 30.7 22 47.7 30.3 9.9 5.1 20.7 8.1 31.8 9 13.8.9 26.3-2.3 37.1-11.3 10.7-9 17.8-22 22.5-33.7 4.7-11.7 8-23.8 11.2-35.9.3-1.1.4-2.5 1.4-2.8 1-.4 1.5 1 2.2 1.6 13.4 13.1 23.7 28.4 33.8 44 3.3 5.1 6.4 10.3 9.7 15.6.4-.4.5-1.1.3-1.6-2.8-9.7-6.4-19.2-10.7-28.4-11.2-23.4-25-45.4-41.3-65.6-12.7-16-17-34.3-17-54 0-10.1 1.3-20.1 3.8-29.8.8-2.7 1.9-5.5 1.4-8.6-2.2-12.4-4.2-25-6.3-37.4-.2-.7-.7-1.5.3-2.4l1.6 3.6c5.7 12.5 12.2 24.6 19.3 36.3 11.7 18.9 25.2 36.5 39.9 53.3.8 1.5 2.5 2.5 3.6 4.5-1.4 0-2.1.6-3.1-.4s-2.6-.1-3.6-1.1c-1.5-1.3-3.9-1.3-5.5-1.8-1.5-.5-1.5.5-1 1.6 2.6 4.7 5.5 9.2 8.7 13.5 14.6 18.6 33.8 25.4 56.8 22.7 2.6-.3 4.2.3 5.7 2.3 11.4 14.4 22.1 29.1 31 45.3 5.6 10 10.2 20.4 12.5 31.7.6 3.6.4 7.3.7 10.8.9.3 1.3-.4 1.7-.6 17.9-12.5 34.2-27.3 48.3-44.1 14.7-17.4 26.9-36.8 36.2-57.6 8.4-18.7 14.5-38.3 17.9-58.5 6.8-38 4.5-77.1-6.6-114.1zM107 387.3c-.5 5.2-1.8 10.2-3.9 14.9-2.1 4.7-5.4 6.2-9.5 4.5-4.1-1.7-6.6-7-5.1-11.1 2.6-7 8.7-11.4 15.9-11.4 2.4-.4 2.8.8 2.6 3.1zm5.4-38.9c-.1 1.7.1 3.5-1 5.1-1.1 1.6-3.7 3.2-6.3 2-6.1-2.8-7.7-5.1-7.6-11.4 0-4 .4-8 1.3-11.8.4-1.5.9-1.8 2.5-1.3 6.6 2.2 11.1 9 11.1 17.4zm31.9 84.7c-3.5 1.7-6.8.5-9.8-1.6-5.2-3.6-6.6-9.4-8.7-14.8-.5-1.4.6-1.9 1.9-1.8 5.7.6 11.4 1.5 16.3 4.7 3 2 3.7 3.5 3.7 7.4.5 2.5-1 5.1-3.4 6.1zm-20.9-62.5c.1-1.4.8-1.9 2.1-1.5 5.6 1.5 11 3.3 15.6 6.8 2.2 1.5 2.5 4 2.5 6.6-.1 3.4-.7 6.6-4 8.1s-6.1.4-8.7-1.5c-6.3-4.6-7.8-11.3-7.5-18.5zm320.7-34.5c-8.4.5-16.8-.5-24.9-2.9-6.9-2-13.6-4.7-20-8-1.8-.9-2.5-.2-2.7 1.5-.9 4.6-2.2 9.1-4 13.4-.8 2.2-2.2 4.1-4.1 5.6-8.9 6.8-18 13.3-28.4 17.6-.8.4-1.7.7-2.5.2-.7-.5-.8-1.7-.5-2.6.9-2.6 3.2-4.4 4.9-6.4 3.4-3.8 6.7-7.5 9.7-11.7s1.7-7.6 3-12l-6.7 4.4c-1 .7-2.2.8-3.3.3-2.5-1.3-3-2.4-.9-4.4 5.2-4.9 7.7-11.7 12.6-16.8 1-1 .5-2-.6-2.2-6.2-1.1-6.6-6-7.4-10.7l-1.1-5.7c-.4-1.9-1.4-2.2-2.8-2.5-10.3-2.5-20.9-3-31.4-1.7-11.2 1.2-22.1 4-32.4 8.4-3.2 1.4-6.3 3-9.2 4.8.8 1 1.5.5 2.2.3 16.5-4 33.1-6.1 50.1-3.9 5.1.7 10.1 2.4 14.6 5 3 1.7 3.1 2.5.6 5-5 5.3-11.4 8.3-18.1 10.8-15.1 5.7-30.2 4.4-45.4-.2-2.1-.6-3.9-1.8-5.3-3.5-22-25.6-41.1-53.6-56.8-83.4-6.1-11.4-11.5-23.1-16.4-35.2-1.1-2.6-2-2.5-3.9-.9-9.7 8.5-18.4 18-26.7 28-14.9 17.8-28.6 36.7-41.8 55.8-3.9 5.7-7.8 11.5-11.5 17.3-1.1 1.6-1.9 1.9-3.6.8-15.5-9.9-29.1-22.4-40.3-37-1-1.3-1.8-3.6-3.4-3.3s-1.1 2.8-1.4 4.3c-.4 2.8-.4 5.7 0 8.5.7 6.7-.5 13.7 1.4 20.4.4 1.2-.5 1.8-1.5 2-1 .2-3.5.1-4.4-1.5-.7-1.6-1.4-3.2-1.9-4.9-.3-.6-.3-1.5-1-1.6-.7-.2-1.1.7-1.4 1.2-.3.5-4.2 3.8-3.6 5.4 1.5 3.4 1.5 7.3 4 10.2 2.5 2.9 3.1 3.5 3.6 5.9.3 1.2-.1 2.4-1.1 3.1-1.1.7-1.7-.4-2.5-.9l-4.3-3.3c1 3.2 1.8 5.7 2.5 8.4.2.8.4 1.7.5 2.5.1 1.7-.4 3.6-2 4.2-1.6.6-2.5-1.4-3.1-2.5-3.9-7.4-9.3-14-11.7-22.1-2.5-8.1-3.1-15.1-3.6-22.8-.1-2.9.5-5.7 1.9-8.2 1.8-3.7 3.7-7.5 5.4-11.3 2.4-5.6 5.5-10.6 10.1-14.4 1.6-1.4 1.8-2.6.5-4.1-1.4-1.5-1.5-4.4.5-6.6 19.8-22.4 42.3-42.2 67-58.9 17.9-12.1 36.9-22.5 56.7-31.1 2.1-.9 4.2-2 5-4.3 2.2-6.1 7.4-7.6 12.9-8.9 5.6-1.3 11.6-2.7 17.2-4.6 5.6-1.8 11.3-8.8 11.3-16.5 0-3.6-.3-7.2.9-10.7 2.2-6.6 6.8-11.3 12.7-14.8 5.8-3.5 9.7-7.6 11.7-14.4 3.5-11.7 14.5-17.8 27.7-16.8 22 1.7 38 13.1 50 31 1.6 2.5 1.5 4.1-.7 6.1-3.7 3.3-8.3 5.5-13.3 6.1-8.3 1.1-16.7 1.5-25 3.2-4.4 1-8.6 2.4-12.7 4.4-.7.5-1.3 1.2-1.8 1.8 14.2-1.7 27.6-2.4 41.6-.5-2 1.8-3.4 3.3-4.9 4.6-5.4 4.3-8 10.1-9.4 16.7-.5 2.4-1.5 4.6-1.9 7-.5 2.4-1.6 2.1-3.2 1.6l-3.3-1.2c-1.5-.5-3.3-2.1-4.6-.5-1.3 1.6-2.6 3.9-2.1 6.5.5 2.5 1 5.2 1.4 7.7.4 2.5-.8 4.9-4.5 4.4-6.9-1.1-12.7-4.9-18.4-8.6-5-3.2-9.6-7-13.8-11.3-.6-.6-1.2-1.5-2.5-1.7.3 1.8.9 3.6 1.7 5.2 5.2 11.8 11.7 22.7 22.7 30.1 5.3 3.7 11.6 5.7 18.1 5.6 6.9 0 10.4-4.9 8.7-11.7-1.3-4.6-3.3-9-5.8-13-.5-.7-1.6-1.6-.8-2.5.8-.9 1.8-.4 2.8-.3 17.9 1.3 32.4 9.8 45.1 21.9 17.6 16.7 30.5 36.9 42 58 12.5 22.9 22.6 46.8 31.4 71.2 4.6 12.8 8.7 25.8 12.9 38.7.1.7.2 1.3.4 2 1 2 0 2.2-1.7 2.4z" fill="#698e30"/><path fill="#f6f7f2" d="M112.4 348.4z"/><path d="M333.2 193.2c7.2 14.4 13.4 29.3 18.7 44.5 4.8 13.3 8.8 26.8 12 40.5.5 2.3.2 2.7-2.1 2.4-5-.7-10-1.3-15.1-1.8-1.9-.2-2.9-.8-2.9-3.1.2-21.6-3.1-42.7-7.6-63.7l-3.5-16.6c-.1-.8.1-1.6.5-2.2z" fill="#698d30"/></svg>
