<svg xmlns="http://www.w3.org/2000/svg" viewBox="0 0 796.4 306.7"><g><path d="M76 206.6a21.8 21.8 0 0 0-3.4-2 3 3 0 0 1-.5-5 12 12 0 0 0 5.5-10.4 13.2 13.2 0 0 0-6-11q-6.4-4.8-17.5-4.8H20.5a3 3 0 0 0-3 3v57a3 3 0 0 0 3 3h32.8q13.2 0 21-5.5t7.2-13.2a13.3 13.3 0 0 0-5.5-11.2zm-43.2.3h18q19.5 0 19.5 10.5a9.7 9.7 0 0 1-4.5 8.4q-4.6 3-13.2 3h-21a3 3 0 0 1-3-3v-42.4a3 3 0 0 1 3-3h17.5q17.3 0 17.3 9.2T49 200H36a3 3 0 0 0-3 2.2l-1 4.8h1m145.3-.4a21.8 21.8 0 0 0-3.4-2 3 3 0 0 1-.6-5 12 12 0 0 0 5.5-10.3 13.2 13.2 0 0 0-6-11q-6.5-4.8-17.6-4.8h-33.6a3 3 0 0 0-3 3v57a3 3 0 0 0 3 3h32.7q13.2 0 21-5.5t7.2-13a13.3 13.3 0 0 0-5.4-11.4zm-43.2.3h18.2q19.4 0 19.4 10.5a9.7 9.7 0 0 1-4.5 8.4q-4.4 3-13 3h-21a3 3 0 0 1-3-3v-42.4a3 3 0 0 1 3-3h17.4q17.2 0 17.2 9.2T151.3 200h-13a3 3 0 0 0-3 2.2l-1.2 4.7h1m-31.5-26.7v56a1.7 1.7 0 0 1-2.4 1.6l-7.8-3.4a1.7 1.7 0 0 1-1-1.6v-56.6a1.7 1.7 0 0 1 2.5-1.5l7.7 4a1.7 1.7 0 0 1 1 1.5z"/><path fill="#999897" d="M575.3 180.2v56a1.7 1.7 0 0 1-2.4 1.6l-8-3.4a1.7 1.7 0 0 1-1-1.6v-56.6a1.7 1.7 0 0 1 2.6-1.5l7.8 4a1.7 1.7 0 0 1 1 1.5z"/><path d="M205.2 179v48a1.6 1.6 0 0 0 1.6 1.7h33.6a1.6 1.6 0 0 1 1.3.6l3.4 4.3a1.6 1.6 0 0 1-1.2 2.7h-48.2a1.6 1.6 0 0 1-1.6-1.6v-59a1.6 1.6 0 0 1 2.3-1.4l8 3.3a1.6 1.6 0 0 1 1 1.5zM307 229.4l3.2 4.2a1.7 1.7 0 0 1-1.3 2.7h-56.2a1.7 1.7 0 0 1-1.7-1.7V175a1.7 1.7 0 0 1 1.8-1.7h56a1.7 1.7 0 0 1 1.4 2.5L308 180a1.7 1.7 0 0 1-1.5 1H264a1.7 1.7 0 0 0-1.7 1.6v16a1.7 1.7 0 0 0 1.7 1.6h40.7a1.7 1.7 0 0 1 1.4 2.6l-2.4 4.2a1.7 1.7 0 0 1-1.4.8H264a1.7 1.7 0 0 0-1.7 1.7v17.7a1.7 1.7 0 0 0 1.7 1.7h41.7a1.7 1.7 0 0 1 1.3.4z"/><path fill="#999897" d="M643.4 229.4l3.2 4.2a1.7 1.7 0 0 1-1.3 2.7h-56a1.7 1.7 0 0 1-1.8-1.7V175a1.7 1.7 0 0 1 1.7-1.7h56a1.7 1.7 0 0 1 1.4 2.5l-2.2 4.2a1.7 1.7 0 0 1-1.5 1h-42.6a1.7 1.7 0 0 0-1.7 1.6v16a1.7 1.7 0 0 0 1.7 1.6H641a1.7 1.7 0 0 1 1.5 2.6L640 207a1.7 1.7 0 0 1-1.4.8h-38.2a1.7 1.7 0 0 0-1.7 1.7v17.7a1.7 1.7 0 0 0 1.7 1.7H642a1.7 1.7 0 0 1 1.4.4zM381 191.8h-5.5a2.4 2.4 0 0 1-2.4-1.8q-1-5.3-6.7-8.2t-13.5-2.8a32.7 32.7 0 0 0-12 2q-7 2.7-7 9t10 8l23.6 4q18.8 3.3 18.8 17 0 10-11 15-8.4 4-21.4 4-16.3 0-25-6a18.2 18.2 0 0 1-8.4-13.3 2.5 2.5 0 0 1 2.4-2.8h5.7a2.4 2.4 0 0 1 2.4 2q.8 6.2 7.2 9.5t15.4 3a43.3 43.3 0 0 0 14-1.8q7.8-2.7 7.8-8.7a7.7 7.7 0 0 0-3.6-7q-3.6-2.3-14-4.2l-17-3q-17.7-3-17.7-14.8a16.3 16.3 0 0 1 7-13.4q7.5-6 21.7-6 28.7 0 32 17.2a2.4 2.4 0 0 1-2.6 3zm94.3 13a30.4 30.4 0 0 1-8.6 21.6Q456 238 435 238t-32-11.6a31.5 31.5 0 0 1 0-43.3q11-11.4 32-11.4t31.7 11.5a30.4 30.4 0 0 1 8.6 21.8zm-11.6 0q0-11.3-7.8-18.4t-21.2-7q-13.3 0-21 7t-8 18.4q0 11.3 7.7 18.3t21.2 7.4q13.2 0 21-7.3t8-18.2zm87.3-12.5h-7a2 2 0 0 1-1.8-1.3q-4.3-11.8-22.8-11.8-11.8 0-19.2 6.3t-8 18.7q0 26.2 27.5 26.2a26.5 26.5 0 0 0 13-3.2 21 21 0 0 0 10.3-12.7 2 2 0 0 1 2-1.4h6.7a2 2 0 0 1 2 2.6q-3.7 13.2-17 18.8A48 48 0 0 1 518 238q-15.7 0-25.7-7.8-11.6-9-11.6-25.8 0-14.7 10.4-23.7t28.4-9q15 0 24.4 6.3 7 4.8 9 11.7a2 2 0 0 1-1.8 2.6zm106.7-12.1l-2.8-4.5a1.5 1.5 0 0 1 1.2-2.3h62a1.5 1.5 0 0 1 1.4 2.3l-2.6 4.5a1.5 1.5 0 0 1-1.3.7h-21.4a1.5 1.5 0 0 0-1.5 1.4V234a1.5 1.5 0 0 1-2 1.4l-8.3-3.6a1.5 1.5 0 0 1-1-1.4v-48a1.5 1.5 0 0 0-1.4-1.5h-21a1.5 1.5 0 0 1-1.3-.8zm108.8 31.2v23a1.2 1.2 0 0 1-1.7 1.2l-9-4.2a1.2 1.2 0 0 1-.6-1v-19a1.2 1.2 0 0 0-.3-.8l-29.5-35.3a1.2 1.2 0 0 1 1-2h10a1.2 1.2 0 0 1 .8.5l22.5 28.6a1.2 1.2 0 0 0 1.8 0l22.5-28.6a1.2 1.2 0 0 1 1-.4h10a1.2 1.2 0 0 1 1 2l-29.4 35.2a1.2 1.2 0 0 0 0 .8z"/></g><text transform="matrix(.83 0 0 1 348.8 150.7)" id="Layer_3" font-size="39.24" font-family="Sveningsson,Sveningsson" letter-spacing=".39em">NEW ZEALAND</text><g id="Layer_4"><path d="M55 272.2a1.6 1.6 0 0 1 0 .4l-6.5 24.6q-.4 1.3-1.4 1.3a1.5 1.5 0 0 1-1.2-1l-11-21.5-5.7 21.3a1.2 1.2 0 0 1-1.2 1q-1.4 0-1.4-1.3a1.6 1.6 0 0 1 0-.4l6.7-24.6q.4-1.3 1.5-1.3a1.5 1.5 0 0 1 1.3 1l11 21.4 5.6-21.3a1.2 1.2 0 0 1 1.3-1q1.4 0 1.4 1.5zm.8 22a3 3 0 0 1-1.2 2l-.7.4a2.8 2.8 0 0 0 0 2l.3.4c.6-.7 3.3-3.8 6.7-3.8a4 4 0 0 1 2.5.7 3.8 3.8 0 0 1 1.4 2.4c.3 2.6-2.4 4.5-2.6 4.7a6.3 6.3 0 0 1-4 1 4.5 4.5 0 0 1-3-1l-.4-.5a4 4 0 0 1-.6-2 6 6 0 0 1 .6-2.6s-.5 1-.4 1a14.4 14.4 0 0 1 2.5-3.6c1.7-1.5 4-3 3.6-3.4s-1.8-.3-2.2-.3-6.3 3-6.8 8.6a5.7 5.7 0 0 0 2 4.7 6.5 6.5 0 0 0 1.3 1 7.3 7.3 0 0 0 3.2.8 9 9 0 0 0 3.8-.6 10.7 10.7 0 0 0 3.7-2.3 8 8 0 0 0 2.2-4 6 6 0 0 0-.2-3.4 6.8 6.8 0 0 0-1.6-2.5c-1.8-1.8-6-1.8-10.4.2z"/><path d="M71.8 279h-7a8.3 8.3 0 0 0-5.8 2.6 8 8 0 0 0-2.7 5.8 5.2 5.2 0 0 0 1.6 4 5.7 5.7 0 0 0 4 1.4h.6a13.5 13.5 0 0 0 3.2-1l.5-.4a9.3 9.3 0 0 0 3-3 7.4 7.4 0 0 0 1.2-4 5.6 5.6 0 0 0-.7-2.6H71q2.2 0 2.2-1.4a1.2 1.2 0 0 0-1.4-1.3zm-6 9.4a5.7 5.7 0 0 1-4 1.7 3 3 0 0 1-2-.6 2.5 2.5 0 0 1-.8-2 5.2 5.2 0 0 1 2-4 5.7 5.7 0 0 1 3.8-1.6 3 3 0 0 1 2 .7 2.5 2.5 0 0 1 1 2 5.2 5.2 0 0 1-1.8 4zm26.4-6.1l-2 7.4-2 7.7a1.4 1.4 0 0 1-1.3 1q-1.5 0-1.5-1.3a2.8 2.8 0 0 1 0-.6 10.3 10.3 0 0 1-6 2 7 7 0 0 1-5-1.8 6.6 6.6 0 0 1-2-5 8.2 8.2 0 0 1 .3-2.2 14 14 0 0 1 5-7.3 12.6 12.6 0 0 1 8-3q4 0 6 2.3a1.6 1.6 0 0 1 .4 1zm-3 .4a6 6 0 0 0-3.4-1 10.6 10.6 0 0 0-7 3q-3.6 3.2-3.6 7a3.8 3.8 0 0 0 1.2 3 4.3 4.3 0 0 0 3 1 7.6 7.6 0 0 0 5-2 9.6 9.6 0 0 0 3-4.4zm33.8-5.4a9.5 9.5 0 0 1-3 7 10 10 0 0 1-7.3 3h-1.4l6.5 9a1.4 1.4 0 0 1 .3.7 1.3 1.3 0 0 1-.3 1 1.4 1.4 0 0 1-1 .4 1.3 1.3 0 0 1-1-.6l-8-10.8a2 2 0 0 1-.5-.8l-3 11.2a1.2 1.2 0 0 1-1.3 1q-1.5 0-1.5-1.3a1.6 1.6 0 0 1 0-.3l6.7-24.8a1.4 1.4 0 0 1 1.5-1.2h6.8a6.6 6.6 0 0 1 4.8 1.8 6.2 6.2 0 0 1 1.8 4.7zm-2.7 0a3.5 3.5 0 0 0-1-2.7 4 4 0 0 0-3-1h-5.7l-3 11.5a1.6 1.6 0 0 1 1.3-.4h3.8a7.5 7.5 0 0 0 5.2-2.3 6.8 6.8 0 0 0 2.4-5zm8.7 3.1a1.6 1.6 0 0 1 0 .4l-4.5 16.6a1.2 1.2 0 0 1-1.3 1q-1.4 0-1.4-1.3a1.5 1.5 0 0 1 0-.3l4.5-16.6a1.2 1.2 0 0 1 1.3-1q1.4 0 1.4 1.4zm2.8-7.7a2 2 0 0 1-.7 1.6 2.3 2.3 0 0 1-1.5.7 2 2 0 0 1-1.4-.5 1.8 1.8 0 0 1-.5-1.3 2 2 0 0 1 .7-1.6 2.3 2.3 0 0 1 1.6-.7 2 2 0 0 1 1.4.5 2 2 0 0 1 .6 1.2zm15.2 11.9a7 7 0 0 1 0 1.8l-3 11a1.2 1.2 0 0 1-1.3 1q-1.4 0-1.4-1.3a1.6 1.6 0 0 1 0-.3l3-11a4.3 4.3 0 0 0 0-1 2.6 2.6 0 0 0-.7-2 3 3 0 0 0-2-.8 5.5 5.5 0 0 0-3.6 1.2 6 6 0 0 0-2 3.2l-3 11a1.2 1.2 0 0 1-1.4 1q-1.4 0-1.4-1.3a1.5 1.5 0 0 1 0-.3l4.5-16.6a1.4 1.4 0 0 1 2.7.3 8 8 0 0 1 4-1.2 5.6 5.6 0 0 1 4 1.6 5.2 5.2 0 0 1 1.7 4zm39.7-2.3l-2 7.4-2 7.7a1.4 1.4 0 0 1-1.3 1q-1.4 0-1.4-1.3a2.8 2.8 0 0 1 0-.6 10.3 10.3 0 0 1-6 2 7 7 0 0 1-5-1.8 6.6 6.6 0 0 1-2-5 8.2 8.2 0 0 1 .3-2.2 14 14 0 0 1 5-7.3 12.6 12.6 0 0 1 8-3q4 0 6 2.3a1.6 1.6 0 0 1 .4 1zm-3 .4a6 6 0 0 0-3.4-1 10.6 10.6 0 0 0-7 3q-3.6 3.2-3.6 7a3.8 3.8 0 0 0 1.2 3 4.3 4.3 0 0 0 3 1 7.6 7.6 0 0 0 5-2 9.6 9.6 0 0 0 3-4.4zm40.1-10.7q0 .5-3.3 12.8t-3.4 12.6a1.3 1.3 0 0 1-1.2 1q-1.4 0-1.4-1.3a1.6 1.6 0 0 1 0-.3l3-10.7h-13.8l-3 11.4a1.2 1.2 0 0 1-1.3 1q-1.4 0-1.4-1.3t3.2-12.6l3.4-12.6a1.4 1.4 0 0 1 1.3-1q1.3 0 1.3 1.3a1.6 1.6 0 0 1 0 .5l-3 10.7H218l3-11.4a1.2 1.2 0 0 1 1.3-1q1.5 0 1.5 1.3zm18.6 10.3l-2 7.4-2 7.7a1.4 1.4 0 0 1-1.3 1q-1.3 0-1.3-1.3a2.8 2.8 0 0 1 0-.6 10.3 10.3 0 0 1-6 2 7 7 0 0 1-5-1.8 6.6 6.6 0 0 1-2-5 8.2 8.2 0 0 1 .3-2.2 14 14 0 0 1 5-7.3 12.6 12.6 0 0 1 8-3q4 0 6 2.3a1.6 1.6 0 0 1 .4 1zm-3 .4a6 6 0 0 0-3.4-1 10.6 10.6 0 0 0-7 3q-3.6 3.2-3.6 7a3.8 3.8 0 0 0 1.2 3 4.3 4.3 0 0 0 3 1 7.6 7.6 0 0 0 5-2 9.6 9.6 0 0 0 3-4.4zm24.8 3.3a8.6 8.6 0 0 1-.3 2 14 14 0 0 1-5 7.3 12.8 12.8 0 0 1-8 3 9.7 9.7 0 0 1-4.3-1l-2.2 8.3a1.2 1.2 0 0 1-1.3 1q-1.4 0-1.4-1.3t1-4.4l4.3-15.8 1-3.3q0-.7.5-2a1.4 1.4 0 0 1 1.3-1q1.4 0 1.4 1.3a2.6 2.6 0 0 1 0 .7 10.3 10.3 0 0 1 6-2 7 7 0 0 1 5 1.8 6.5 6.5 0 0 1 2 5zm-2.8 0a4 4 0 0 0-1.2-3 4.4 4.4 0 0 0-3-1.2 7.8 7.8 0 0 0-5 2 9 9 0 0 0-3 4.3l-1.8 6.7a5.8 5.8 0 0 0 3.5 1 10.5 10.5 0 0 0 7-3q3.5-3 3.5-6.8zm23.6-3.7l-2 7.4-2 7.7a1.4 1.4 0 0 1-1.4 1q-1.4 0-1.4-1.3a2.8 2.8 0 0 1 0-.6 10.3 10.3 0 0 1-6 2 7 7 0 0 1-5-1.8 6.6 6.6 0 0 1-2-5 8.2 8.2 0 0 1 .3-2.2 14 14 0 0 1 5-7.3 12.6 12.6 0 0 1 8-3q4 0 6 2.3a1.6 1.6 0 0 1 .4 1zm-3 .4a6 6 0 0 0-3.5-1 10.6 10.6 0 0 0-7 3q-3.6 3.2-3.6 7a3.8 3.8 0 0 0 1 3 4.3 4.3 0 0 0 3.2 1 7.6 7.6 0 0 0 5-2 9.6 9.6 0 0 0 3-4.4zm11.7-2.3a1.6 1.6 0 0 1 0 .4l-4.5 16.6a1.2 1.2 0 0 1-1.3 1q-1.5 0-1.5-1.3a1.5 1.5 0 0 1 0-.3L291 280a1.2 1.2 0 0 1 1.3-1q1.4 0 1.4 1.4zm2.8-7.7a2 2 0 0 1-.7 1.6 2.3 2.3 0 0 1-1.6.7 2 2 0 0 1-1.4-.5 1.8 1.8 0 0 1-.6-1.3 2 2 0 0 1 .7-1.6 2.3 2.3 0 0 1 1.5-.7 2 2 0 0 1 1.4.5 2 2 0 0 1 .4 1.2zm14.9 7.7a1.6 1.6 0 0 1 0 .4l-4.5 16.6a1.2 1.2 0 0 1-1.4 1q-1.4 0-1.4-1.3a1.5 1.5 0 0 1 0-.3l4.5-16.6a1.2 1.2 0 0 1 1.3-1q1.4 0 1.4 1.4zm2.8-7.7a2 2 0 0 1-.7 1.6 2.3 2.3 0 0 1-1.6.7 2 2 0 0 1-1.5-.5 1.8 1.8 0 0 1-.6-1.3 2 2 0 0 1 .6-1.6 2.3 2.3 0 0 1 1.6-.7 2 2 0 0 1 1.4.5 2 2 0 0 1 .6 1.2zm21.5 7.8a1.2 1.2 0 0 1-1.4 1.4h-3l-3 11.2a3.4 3.4 0 0 0-.2.8q0 1.7 2 1.7a3.8 3.8 0 0 0 1.8-.6l1.4-.5a1.3 1.3 0 0 1 1 .4 1.4 1.4 0 0 1 .4 1q0 1-1.8 1.8a7 7 0 0 1-2.8.7 4.5 4.5 0 0 1-3.2-1.3 4.2 4.2 0 0 1-1.3-3.2 6.4 6.4 0 0 1 .2-1.6l2.8-10.6h-2.3a1.4 1.4 0 0 1 0-2.8h3l2-7.2a1.2 1.2 0 0 1 1.4-1q1.4 0 1.4 1.3a16 16 0 0 1-.8 3.5l-1 3.6h2.3a1.2 1.2 0 0 1 1.2 1.5zm18.8 2.8a5.6 5.6 0 0 1-1 3.3 7 7 0 0 1-2.8 2.3l-9.3 4.6a4.7 4.7 0 0 0 4.3 2 10.5 10.5 0 0 0 3.5-.7l.6-.3a1.2 1.2 0 0 1 1 .4 1.5 1.5 0 0 1 .3 1q0 1.3-2.2 2a11.5 11.5 0 0 1-3.2.4 7.7 7.7 0 0 1-5.5-2 7 7 0 0 1-2-5.5 11.2 11.2 0 0 1 3.7-8.3 11.8 11.8 0 0 1 8.4-3.6 4.3 4.3 0 0 1 3.2 1.3 4 4 0 0 1 1.3 3zm-2.8 0q0-1.5-1.6-1.5a9.2 9.2 0 0 0-6.3 2.8 8.6 8.6 0 0 0-3 6.3 65.6 65.6 0 0 0 6.5-3q4.6-2.6 4.6-4.7zm34.3-6a9.5 9.5 0 0 1-3.4 7 10 10 0 0 1-7 3h-6l-2.6 10a1.2 1.2 0 0 1-1.3 1q-1.4 0-1.4-1.2t3.3-12.6q3.3-12.4 3.4-12.6t1.3-1h7a6.6 6.6 0 0 1 4.7 1.8 6.2 6.2 0 0 1 2 4.7zm-3 0a3.5 3.5 0 0 0-1-2.7 4 4 0 0 0-2.8-1h-6l-2.8 11h5a7.5 7.5 0 0 0 5.3-2.2 6.8 6.8 0 0 0 2.4-5zm21.2 5l-2 7.4-2 7.7a1.4 1.4 0 0 1-1.3 1q-1.5 0-1.5-1.3a2.8 2.8 0 0 1 0-.6 10.3 10.3 0 0 1-6 2 7 7 0 0 1-5-1.8 6.6 6.6 0 0 1-2-5 8.2 8.2 0 0 1 .3-2.2 14 14 0 0 1 5-7.3 12.6 12.6 0 0 1 8-3q4 0 6 2.3a1.6 1.6 0 0 1 .4 1zm-3 .4a6 6 0 0 0-3.4-1 10.6 10.6 0 0 0-7 3q-3.6 3.2-3.6 7a3.8 3.8 0 0 0 1.2 3 4.3 4.3 0 0 0 3 1 7.6 7.6 0 0 0 5-2 9.6 9.6 0 0 0 3-4.4zm11.8-2.3a1.6 1.6 0 0 1 0 .4l-4.5 16.6a1.2 1.2 0 0 1-1.3 1q-1.4 0-1.4-1.3a1.5 1.5 0 0 1 0-.3l4.5-16.6a1.2 1.2 0 0 1 1.3-1q1.4 0 1.4 1.4zm2.8-7.7a2 2 0 0 1-.7 1.6 2.3 2.3 0 0 1-1.5.7 2 2 0 0 1-1.4-.5 1.8 1.8 0 0 1-.5-1.3 2 2 0 0 1 .7-1.6 2.3 2.3 0 0 1 1.6-.7 2 2 0 0 1 1.4.5 2 2 0 0 1 .6 1.2zm18.5 13.3a8.6 8.6 0 0 1-.3 2 14 14 0 0 1-5 7.3 12.8 12.8 0 0 1-8 3 9.7 9.7 0 0 1-4.2-1l-2.2 8.3a1.2 1.2 0 0 1-1.3 1q-1.4 0-1.4-1.3t1-4.4l4.2-15.8 1-3.3q0-.7.4-2a1.4 1.4 0 0 1 1.3-1q1.3 0 1.3 1.3a2.6 2.6 0 0 1 0 .7 10.3 10.3 0 0 1 6-2 7 7 0 0 1 5 1.8 6.5 6.5 0 0 1 2 5zm-2.8 0a3.8 3.8 0 0 0-1.2-3 4.4 4.4 0 0 0-3-1.2 7.8 7.8 0 0 0-5 2 9 9 0 0 0-3 4.3l-1.8 6.7a5.8 5.8 0 0 0 3.5 1 10.5 10.5 0 0 0 7-3q3.6-3 3.6-6.8zm20.5-2.7a5.6 5.6 0 0 1-1 3.3 7 7 0 0 1-2.8 2.3l-9.3 4.6a4.7 4.7 0 0 0 4.2 2 10.5 10.5 0 0 0 3.5-.7l.6-.3a1.2 1.2 0 0 1 1 .4 1.5 1.5 0 0 1 .3 1q0 1.3-2.3 2a11.5 11.5 0 0 1-3.2.4 7.7 7.7 0 0 1-5.4-2 7 7 0 0 1-2.2-5.5 11.2 11.2 0 0 1 3.8-8.3 11.8 11.8 0 0 1 8.4-3.6 4.3 4.3 0 0 1 3 1.3 4 4 0 0 1 1.4 3zm-2.8 0q0-1.5-1.6-1.5a9.2 9.2 0 0 0-6.4 2.8 8.6 8.6 0 0 0-3 6.3 65.7 65.7 0 0 0 6.5-3q4.5-2.6 4.5-4.7zm17.4-.7q0 1.3-1.4 1.3t-1.3-1a1.8 1.8 0 0 0-1.8-1 3.8 3.8 0 0 0-2.4.8 4.3 4.3 0 0 0-1.5 2.2l-3.3 12.4a1.2 1.2 0 0 1-1.3 1q-1.4 0-1.4-1.3a1.6 1.6 0 0 1 0-.3L457 280a1.2 1.2 0 0 1 1.3-1 1.4 1.4 0 0 1 1.4.8 6.2 6.2 0 0 1 3-.7 4.7 4.7 0 0 1 2.6 1 4 4 0 0 1 1.6 2 1.6 1.6 0 0 1 0 .6zm19.4-.3q0 .3-1.8 7.4t-2 7.7a1.4 1.4 0 0 1-1.4 1q-1.4 0-1.4-1.3a2.8 2.8 0 0 1 0-.6 10.3 10.3 0 0 1-6 2 7 7 0 0 1-5-1.8 6.6 6.6 0 0 1-2-5 8.2 8.2 0 0 1 .3-2.2 14 14 0 0 1 5-7.3 12.6 12.6 0 0 1 8-3q4 0 6 2.3a1.6 1.6 0 0 1 .4 1zm-2.8.4a6 6 0 0 0-3.5-1 10.5 10.5 0 0 0-7 3q-3.6 3.2-3.6 7a4 4 0 0 0 1.3 3 4.3 4.3 0 0 0 3 1 7.6 7.6 0 0 0 5-2 9.6 9.6 0 0 0 3-4.4zm38.1-10.5a1.2 1.2 0 0 1-1.4 1.4h-7.3l-6.4 23.8a1.2 1.2 0 0 1-1.3 1q-1.4 0-1.4-1.3a1.6 1.6 0 0 1 0-.3l6.3-23h-6.6a1.4 1.4 0 1 1 0-3H520a1.2 1.2 0 0 1 1.3 1.5zm12.9 10.1l-2 7.4-2 7.7a1.4 1.4 0 0 1-1.3 1q-1.5 0-1.5-1.3a2.8 2.8 0 0 1 0-.6 10.3 10.3 0 0 1-6 2 7 7 0 0 1-5-1.8 6.6 6.6 0 0 1-2-5 8.2 8.2 0 0 1 .3-2.2 14 14 0 0 1 5-7.3 12.6 12.6 0 0 1 8-3q4 0 6 2.3a1.6 1.6 0 0 1 .4 1zm-3 .4a6 6 0 0 0-3.4-1 10.5 10.5 0 0 0-7 3q-3.6 3.2-3.6 7a4 4 0 0 0 1.2 3 4.3 4.3 0 0 0 3 1 7.6 7.6 0 0 0 5-2 9.6 9.6 0 0 0 3-4.4zM556 286a8.6 8.6 0 0 1-.2 2 14 14 0 0 1-5 7.3 12.8 12.8 0 0 1-8 3 9.7 9.7 0 0 1-4.2-1l-2.2 8.3a1.2 1.2 0 0 1-1.3 1q-1.3 0-1.3-1.3t1-4.4L539 285l1-3.3q0-.7.4-2a1.4 1.4 0 0 1 1.3-1q1.4 0 1.4 1.3a2.6 2.6 0 0 1 0 .7 10.3 10.3 0 0 1 6-2 7 7 0 0 1 5 1.8 6.5 6.5 0 0 1 2 5zm-2.7 0a3.8 3.8 0 0 0-1.2-3 4.4 4.4 0 0 0-3-1.2 7.8 7.8 0 0 0-5 2 9 9 0 0 0-3 4.3l-1.7 6.7a5.8 5.8 0 0 0 3.5 1 10.5 10.5 0 0 0 7-3q3.5-3 3.5-6.8zm21.1-5.6a1.5 1.5 0 0 1 0 .4l-3 11a8.8 8.8 0 0 1-3.2 4.7 8.3 8.3 0 0 1-5.2 2 5.5 5.5 0 0 1-4-1.6 5.2 5.2 0 0 1-1.5-4 7 7 0 0 1 .2-1.8l3-11a1.2 1.2 0 0 1 1.3-1q1.4 0 1.4 1.3a1.6 1.6 0 0 1 0 .4l-3 11a4.3 4.3 0 0 0-.2 1 2.6 2.6 0 0 0 .8 2 3 3 0 0 0 2 .7 5.5 5.5 0 0 0 3.6-1.3 6 6 0 0 0 2-3.2l3-11a1.2 1.2 0 0 1 1.4-1q1.4 0 1.4 1.2zm28 .1a1.3 1.3 0 0 1-.5 1l-9.5 7.4 5.3 7a1.4 1.4 0 0 1 .3 1 1.3 1.3 0 0 1-.3 1 1.4 1.4 0 0 1-1 .3 1.3 1.3 0 0 1-1-.6l-6.2-8.3a1.4 1.4 0 0 1-.3-.6l-2.3 8.4a1.2 1.2 0 0 1-1.4 1q-1.4 0-1.4-1.3a1.6 1.6 0 0 1 0-.5l6.7-24.8a1.2 1.2 0 0 1 1.2-1q1.4 0 1.4 1.3a1.6 1.6 0 0 1 0 .4l-4.2 15.4.3-.2 10.5-8.3a1.4 1.4 0 0 1 1-.3 1.3 1.3 0 0 1 1 .4 1.4 1.4 0 0 1 .2 1zm6.6-.1a1.6 1.6 0 0 1-.2.4l-4.4 16.6a1.2 1.2 0 0 1-1.3 1q-1.3 0-1.3-1.3a1.5 1.5 0 0 1 0-.3l4.5-16.6a1.2 1.2 0 0 1 1.3-1q1.4 0 1.4 1.4zm2.7-7.7a2 2 0 0 1-.7 1.6 2.3 2.3 0 0 1-1.6.7 2 2 0 0 1-1.4-.5 1.8 1.8 0 0 1-.6-1.3 2 2 0 0 1 .7-1.6 2.3 2.3 0 0 1 1.7-.7 2 2 0 0 1 1.4.5 2 2 0 0 1 .7 1.2zm33.5 24.3q0 1.4-1.4 1.4a1.2 1.2 0 0 1-1.3-1l-1.7-7.3H626l-6 8a1.3 1.3 0 0 1-1 .6 1.4 1.4 0 0 1-1-.4 1.3 1.3 0 0 1-.4-1 1.4 1.4 0 0 1 .3-1l18.8-24.5a1.6 1.6 0 0 1 1.2-.8q1 0 1.4 1.2l5.7 24.6a2 2 0 0 1 .2.3zm-5-9.6l-2.8-12-9.3 12zm28.8-.8a11 11 0 0 1-3.8 8.2 12 12 0 0 1-8.4 3.6 7.7 7.7 0 0 1-5.5-2 7 7 0 0 1-2.2-5.5 11.2 11.2 0 0 1 4-8.3 11.8 11.8 0 0 1 8.3-3.6 7.7 7.7 0 0 1 5.5 2.2 7.2 7.2 0 0 1 2.2 5.4zm-2.8 0a4.5 4.5 0 0 0-1.4-3.5 5 5 0 0 0-3.6-1.2 9.2 9.2 0 0 0-6.4 2.8 8.5 8.5 0 0 0-3 6.3 4.5 4.5 0 0 0 1.4 3.4 5 5 0 0 0 3.6 1.3 9.2 9.2 0 0 0 6.4-2.8 8.5 8.5 0 0 0 3-6.4zm17.8-6.1a1.2 1.2 0 0 1-1.5 1.4h-3l-3 11.2a3.4 3.4 0 0 0-.2.8q0 1.7 1.8 1.7a3.8 3.8 0 0 0 2-.6l1.4-.5a1.3 1.3 0 0 1 1 .4 1.4 1.4 0 0 1 .4 1q0 1-1.8 1.8a7 7 0 0 1-2.8.7 4.5 4.5 0 0 1-3.2-1.3 4.3 4.3 0 0 1-1.5-3.2 6.4 6.4 0 0 1 .2-1.6l2.8-10.6h-2.3a1.4 1.4 0 0 1 0-2.8h3l2-7.2a1.2 1.2 0 0 1 1.4-1q1.4 0 1.4 1.3a15.8 15.8 0 0 1-.8 3.5l-1 3.6h2.3a1.2 1.2 0 0 1 1.4 1.5zm18.8 2.8a5.6 5.6 0 0 1-1 3.3 7 7 0 0 1-2.8 2.3l-9.3 4.6a4.7 4.7 0 0 0 4.3 2 10.5 10.5 0 0 0 3.5-.7l.6-.3a1.2 1.2 0 0 1 1 .4 1.5 1.5 0 0 1 .4 1q0 1.3-2.3 2a11.5 11.5 0 0 1-3 .4 7.7 7.7 0 0 1-5.6-2 7 7 0 0 1-2.2-5.5 11.2 11.2 0 0 1 3.8-8.3 11.8 11.8 0 0 1 8.4-3.6 4.3 4.3 0 0 1 3 1.3 4 4 0 0 1 1.4 3zm-2.8 0q0-1.5-1.6-1.5a9.2 9.2 0 0 0-6.4 2.8 8.6 8.6 0 0 0-3 6.3 65.7 65.7 0 0 0 6.5-3q4.5-2.6 4.5-4.7zm22.7-1l-2 7.4-2 7.7a1.4 1.4 0 0 1-1.3 1q-1.4 0-1.4-1.3a2.8 2.8 0 0 1 0-.6 10.3 10.3 0 0 1-6 2 7 7 0 0 1-5-1.8 6.6 6.6 0 0 1-2-5 8.2 8.2 0 0 1 .3-2.2 14 14 0 0 1 5-7.3 12.6 12.6 0 0 1 8-3q4 0 6 2.3a1.6 1.6 0 0 1 .4 1zm-3 .4a6 6 0 0 0-3.4-1 10.5 10.5 0 0 0-7 3q-3.6 3.2-3.6 7a4 4 0 0 0 1.2 3 4.3 4.3 0 0 0 3 1 7.6 7.6 0 0 0 5-2 9.6 9.6 0 0 0 3-4.4zm19-.1q0 1.3-1.4 1.3t-1.3-1a1.8 1.8 0 0 0-1.7-1 3.8 3.8 0 0 0-2.4.8 4.3 4.3 0 0 0-1.6 2.2l-3.3 12.4a1.2 1.2 0 0 1-1.2 1q-1.4 0-1.4-1.3a1.6 1.6 0 0 1 0-.3L729 280a1.2 1.2 0 0 1 1.2-1 1.4 1.4 0 0 1 1.3.8 6.2 6.2 0 0 1 3-.7 4.7 4.7 0 0 1 2.6 1 4 4 0 0 1 1.7 2 1.6 1.6 0 0 1 0 .6zm19.9 4a11 11 0 0 1-3.8 8.2 12 12 0 0 1-8.4 3.6 7.7 7.7 0 0 1-5.5-2 7 7 0 0 1-2.3-5.5 11.2 11.2 0 0 1 3.8-8.3 11.8 11.8 0 0 1 8.4-3.6 7.7 7.7 0 0 1 5.4 2.2 7.2 7.2 0 0 1 2.2 5.4zm-2.8 0a4.5 4.5 0 0 0-1.4-3.5 5 5 0 0 0-3.6-1.2 9.2 9.2 0 0 0-6.4 2.8 8.5 8.5 0 0 0-3 6.3 4.5 4.5 0 0 0 1.4 3.4 5 5 0 0 0 3.6 1.3 9.2 9.2 0 0 0 6.4-2.8 8.5 8.5 0 0 0 3-6.4zm23.7-4.3l-2 7.4-2 7.7a1.4 1.4 0 0 1-1.3 1q-1.4 0-1.4-1.3a2.8 2.8 0 0 1 0-.6 10.3 10.3 0 0 1-6 2 7 7 0 0 1-5-1.8 6.6 6.6 0 0 1-2-5 8.2 8.2 0 0 1 .3-2.2 14 14 0 0 1 5-7.3 12.6 12.6 0 0 1 8-3q4.2 0 6 2.3a1.6 1.6 0 0 1 .5 1zm-3 .4a6 6 0 0 0-3.4-1 10.5 10.5 0 0 0-7 3q-3.5 3.2-3.5 7a4 4 0 0 0 1.2 3 4.3 4.3 0 0 0 3 1 7.6 7.6 0 0 0 5-2 9.6 9.6 0 0 0 3-4.4z"/><path fill="#d28f3e" d="M0 151.6s58.5-10.5 84.5-4.3 56 12.8 73.5-9.3c0 0-21.2 11-72.3-3C52.3 125.8 0 151.6 0 151.6zm326.2 0s-58.5-10.5-84.5-4.3-56 12.8-73.5-9.3c0 0 21.2 11 72.3-3 33.4-9.2 85.7 16.6 85.7 16.6z"/><path d="M25.8 94.3S70 114.6 77 118.6s40.4 17 59 15.8c0 0-50.7-26.3-58-29.3S49.5 93.6 25.7 94.4z" fill="#ead6c3"/><path d="M56.8 54.3S84.3 79 97.6 96.8c7.8 10.4 38.5 30 45 31.5 0 0-31-36.5-41.5-46.3S66.4 55.8 57 54.3z" fill="#e5c7a8"/><path fill="#d28f3e" d="M181.4 136.3s11.3-13.8 59.3-13.3 55.5-28.8 55.5-28.8-18.5 14.8-64 15.6-50.8 26.5-50.8 26.5z"/><path d="M93 20.5s20.6 38.5 27 61 31.6 41.8 31.6 41.8-16.5-36.5-20.8-47.8S105 24 93 20.5z" fill="#ddba94"/><path d="M139 2.7s5.6 38 3.6 61.5c-2.8 32.5 14.5 55.3 14.5 55.3s-2.7-32.8-2.4-47.6-.8-62-15.5-69.3z" fill="#ce996e"/><path d="M168.4 121.5s-10-34.5 1.8-58.3S182.6 39.5 187 0c0 0 13 21.7-4.6 71.3-10 28-10 28-14 50.2z" fill="#c67c2c"/><path fill="#d28f3e" d="M177 120.5s-2-27 22.4-53S226 40 234 19.5c0 0 4.7 20.3-20 52.4-11.6 15.2-18.4 18.3-37 48.5zm3 7.8s2.2-15.8 41.7-40S260 68 271.4 52.5c0 0 .5 25-30.5 38.8-28 12.5-61 37-61 37z"/><path d="M150.5 294.2a3 3 0 0 1-1.2 2l-.7.4a2.8 2.8 0 0 0 0 2l.4.4c.6-.7 3.3-3.8 6.7-3.8a4 4 0 0 1 2.5.7 3.8 3.8 0 0 1 1.4 2.4c.4 2.6-2.3 4.5-2.5 4.7a6.3 6.3 0 0 1-4 1 4.5 4.5 0 0 1-2.8-1l-.5-.5a4 4 0 0 1-.6-2 6 6 0 0 1 .7-2.6s-.5 1-.4 1a14.4 14.4 0 0 1 2.5-3.6c1.6-1.5 3.8-3 3.5-3.4s-1.8-.3-2.2-.3-6.2 3-6.7 8.6a5.7 5.7 0 0 0 2 4.7 6.5 6.5 0 0 0 1.3 1 7.3 7.3 0 0 0 3.3.8 9 9 0 0 0 3.7-.6 10.7 10.7 0 0 0 3.7-2.3 8 8 0 0 0 2.2-4 6 6 0 0 0 0-3.4 6.8 6.8 0 0 0-1.7-2.5c-2-1.8-6.2-1.8-10.5.2z"/><path d="M166.5 279h-7a8.3 8.3 0 0 0-5.8 2.6 8 8 0 0 0-2.7 5.8 5.2 5.2 0 0 0 1.6 4 5.7 5.7 0 0 0 4 1.4h.7a13.5 13.5 0 0 0 3.2-1l.5-.4a9.3 9.3 0 0 0 3-3 7.4 7.4 0 0 0 1.2-4 5.6 5.6 0 0 0-.7-2.6h1.3q2 0 2-1.4a1.2 1.2 0 0 0-1.3-1.3zm-6 9.4a5.7 5.7 0 0 1-4 1.7 3 3 0 0 1-2-.6 2.5 2.5 0 0 1-.8-2 5.2 5.2 0 0 1 2-4 5.7 5.7 0 0 1 3.8-1.6 3 3 0 0 1 2 .7 2.5 2.5 0 0 1 1 2 5.2 5.2 0 0 1-2 4zm-81.8-13.1H91v2H78.6zm150 0H241v2h-12.3z"/></g></svg>
