<svg xmlns="http://www.w3.org/2000/svg" viewBox="0 0 500 500"><g id="Layer_16"><path fill="#fff" d="M394.57 468.96l2.07 7.9-129.41-27.65s-8.46 12.79-25.39 8.46c-16.93-4.33-25.39-16.93-25.39-16.93L82.9 442.82l38.56-46.65v-.19l-36.49 40.44 23.32-180.19 12.04-17.68-31.22-1.5-21.07 220.63h139.94s16.93 16.93 33.86 16.93 29.72-8.46 29.72-8.46l139.94 29.72 21.25-224.77-32.35-8.1 11.1 25.02-16.93 180.94z"/><path fill="#fff" d="M121.46 395.98v.38l1.7-2.26zM282.09 236.29l-.19-.19c-5.64 2.82-11.1 6.4-14.67 9.78h-8.46c-1.88-2.26-4.7-4.89-7.71-7.71l-.75.75c-3.01-3.2-6.02-6.4-8.84-8.65v-.19c-.38-.38-.75-.56-1.13-.94 12.98 11.47 22.76 25.2 22.76 25.2s5.26-10.71 18.99-18.05zM165.48 184.19h-35.36-32.54v6.4h67.9v-6.4zM97.76 190.59h67.9v8.46h-67.9zM331 229.33c5.64.56 13.73 1.88 23.32 4.33.38-11.1 3.95-19.75 8.46-19.75 4.7 0 8.46 9.4 8.46 21.25 0 1.32 0 2.63-.19 3.95 4.89 1.88 9.97 3.95 15.05 6.58.56.38 1.13.75 1.69 1.13 4.33 1.88 6.77 3.01 6.77 3.01l3.57 8.09c.19.19.38.38.56.38v-55.11h-67.9v26.14h.21zM363.54 184.19H331v10.72h67.71v-10.72h-32.54z"/><path fill="#fff" d="M331 194.91h67.9v8.46H331zM240.34 228.96c.38.38.75.56 1.13.94-1.13-3.95-1.69-8.65-1.69-13.92 0-12.79 3.76-23.32 8.46-23.32s8.46 10.53 8.46 23.32c0 10.16-2.45 18.81-5.64 22.01 3.01 2.82 5.83 5.45 7.71 7.71h8.46c3.57-3.39 9.03-6.96 14.67-9.78-2.45-4.14-4.14-11.47-4.14-19.94 0-12.79 3.76-23.32 8.46-23.32s8.46 10.53 8.46 23.32c0 6.02-.75 11.29-2.07 15.42.75-.19 1.5-.38 2.07-.56 2.82-.75 6.58-2.07 10.53-2.07v-42.32H195.19v25.39c2.26.19 4.89.38 7.9.94 6.96.56 13.17 1.5 17.49 3.39 6.78 2.63 13.55 7.33 19.76 12.79zm-38.56-16.93c.75-10.91 4.14-19.37 8.28-19.37 4.51 0 8.28 9.97 8.46 22.38-2.82-.94-8.28-2.45-16.74-3.01zM305.42 156.73c-.75 1.32-1.32 1.88-2.07 1.88h-55.3-50.97c-.75 0-1.5-.75-2.07-1.88v16.74h110.22v-16.74h.19zM195.19 173.66h110.22v12.79H195.19z"/><path fill="#009de0" d="M250.31 238.74c.19-.19.56-.38.75-.75-3.01-2.63-6.4-5.45-9.59-8.09v.19c2.82 2.07 5.83 5.26 8.84 8.65z"/><path fill="#fff" d="M246.36 417.99l-3.01-.38c1.88 1.13 2.82 1.88 2.82 1.88l.19-1.5zM135.76 217.3c1.69-.75 4.14-1.32 6.96-2.07-3.2.38-5.45.56-6.4.75l-.56.75v.57z"/><path fill="#fff" d="M121.46 395.98l1.69-1.88s42.32-4.33 67.9 0c20.69 3.39 44.39 18.24 52.29 23.51l3.01.38 16.74-163.83s-9.78-13.73-22.76-25.2c-3.2-2.45-6.4-4.89-9.03-6.58-6.96-4.51-18.81-8.09-28.21-9.59-20.31-1.5-47.78 1.13-60.38 2.45-2.82.75-5.27 1.5-6.96 2.07l-14.29 178.67zm29.53-52.1l33.1-79 10.35.19 21.82 82.38c.38.94.56 1.5.94 1.88.38.38.94.56 1.88.75l6.02 1.13v5.83l-32.35-.38v-5.83l7.9-.56c.38 0 .75-.38 1.13-.94.38-.56.38-1.13.38-1.5l-4.51-21.07-31.41-.38-5.45 15.8c0 .19-.19.56 0 .94 0 .38.19.56.38.94.19.38.38.56.75.75.19.19.56.19.75.19l8.09.75v5.83l-27.46-.38v-5.83l7.69-1.49zM84.97 436.42l36.3-40.44 14.29-178.69c-.19 0-.38.19-.56.19l-5.83 7.9-9.03 13.17-12.04 17.68-23.13 180.19z"/><path fill="#fff" d="M135.19 217.48c.19 0 .38-.19.56-.19v-.56l-.56.75zM182.03 284.26l-13.54 35.73 26.52.19zM240.34 228.96c-6.02-5.27-12.79-10.16-19.56-12.98-4.33-1.69-10.53-2.82-17.49-3.39 9.4 1.69 21.25 5.08 28.21 9.59 2.44 1.89 5.45 4.33 8.84 6.78zM282.09 236.29c-13.92 7.52-19.19 18.06-19.19 18.06l-16.74 163.83 2.07.38c7.52-3.76 32.92-15.05 61.32-11.47 25.58 3.2 46.46 11.29 55.11 15.05l27.65-169.66.19-.19c-1.5-1.88-3.01-3.76-4.7-5.08-13.35-5.83-44.77-18.06-73.92-18.06-9.03 0-16.55 1.5-22.95 3.57-3.2 1.13-6.02 2.63-8.65 4.14 0-.38 0-.57-.19-.57zm7.53 49.66c3.95-3.2 8.65-5.64 14.29-7.15 5.64-1.5 11.85-2.26 18.62-1.88 6.96.38 13.17 1.5 18.43 3.57 5.27 2.07 9.78 4.89 13.54 8.46 3.57 3.57 6.4 7.71 8.09 12.6 1.69 4.89 2.45 10.16 2.26 15.99-.19 3.57-.75 6.77-1.88 9.97-1.13 3.01-2.45 5.83-4.14 8.28-1.69 2.45-3.57 4.7-5.83 6.58s-4.51 3.57-6.96 4.7c-2.45 1.13-5.08 2.26-7.71 3.01s-5.27 1.13-7.71 1.13l-.38 8.28 19.75.94c.75 0 1.69 0 2.63-.38.94-.19 1.88-.75 2.82-1.5s1.69-1.5 2.26-2.63c.56-1.13.94-2.45 1.13-4.14l2.63.19-.94 21.07-35.55-1.69 1.13-23.51c3.57-.94 6.96-2.45 9.97-4.33 3.01-1.88 5.64-4.14 7.71-6.58a31.55 31.55 0 0 0 5.27-8.84c1.32-3.39 2.07-6.96 2.26-10.91.19-4.33-.38-8.65-1.5-12.98-1.32-4.33-3.2-8.09-5.64-11.66-2.45-3.39-5.64-6.21-9.22-8.46-3.57-2.26-7.71-3.39-12.23-3.57-4.51-.19-8.84.56-12.6 2.45s-7.15 4.33-9.97 7.52c-2.82 3.2-5.08 6.77-6.58 11.1-1.69 4.14-2.45 8.46-2.82 12.79-.19 3.95.19 7.71 1.13 11.1.94 3.39 2.45 6.58 4.33 9.22 1.88 2.82 4.33 5.27 7.15 7.34s6.02 3.76 9.59 5.27l-1.13 23.51-35.55-1.69.94-21.07 2.63.19c0 1.69.19 3.2.75 4.33s1.32 2.07 2.07 2.82c.75.75 1.69 1.32 2.63 1.69.94.38 1.88.56 2.63.56l19.75.94.38-8.28c-3.76-.38-7.71-1.5-11.47-3.39s-7.15-4.33-10.16-7.52c-3.01-3.2-5.45-6.77-7.15-11.1-1.69-4.33-2.45-9.22-2.26-14.48.19-5.83 1.5-10.91 3.76-15.61 1.89-5.1 4.9-9.05 8.85-12.25z"/><path fill="#fff" d="M248.42 418.37l-2.07-.38-.19 1.5c.01.01.76-.37 2.26-1.12zM392.5 251.91l-27.84 169.85c2.82 1.13 4.33 1.88 4.33 1.88l23.32 36.11 2.26 9.03 16.74-180.76-11.1-25.02-1.5-.38 1.5.38-2.26-5.08c-1.69-1.12-3.38-3.57-5.45-6.01z"/><path fill="#fff" d="M392.5 251.91c1.88 2.45 3.76 4.89 5.64 6.02l-3.57-8.09-2.07 2.07z"/><path fill="#fff" d="M392.5 251.91l2.07-2.07s-2.45-1.32-6.77-3.01c1.69 1.31 3.2 3.19 4.7 5.08z"/><path fill="#009de0" d="M243.35 417.61c-7.9-5.27-31.6-20.13-52.29-23.51-25.39-4.33-67.9 0-67.9 0l-1.69 2.07-.38 4.14 122.26 17.3zM248.42 418.37l114.36 15.99 2.07-12.6c-8.65-3.76-29.34-11.85-55.11-15.05-28.4-3.39-53.79 7.9-61.32 11.66zM394.57 468.96l-2.26-9.21-23.32-35.93 25.58 46.65z"/><path fill="#fff" d="M98.14 171.97h67.71v77.12H98.14z"/></g><path fill="#009de0" d="M248.24 4h4.33v55.11h-4.33z"/><path fill="#009de0" d="M239.77 14.72h21.25v4.33h-21.25zM130.3 98.23h2.63v33.1h-2.63z"/><path fill="#009de0" d="M125.22 104.44h12.79v2.63h-12.79zM363.54 98.23h2.63v33.1h-2.63z"/><path fill="#009de0" d="M358.46 104.44h12.79v2.63h-12.79z"/><g id="Layer_4"><path d="M166.6 191.53H96.82v-14.67h69.78v14.67zm-67.9-1.88h66.02v-10.91H98.7v10.91z"/><path fill="#009de0" d="M306.36 174.6h-112.1v-18.81h112.1v18.81zm-110.23-1.88h108.34v-15.05H196.13v15.05z"/><path fill="#009de0" d="M306.36 187.39h-112.1v-14.67h112.1v14.67zm-110.23-1.88h108.34V174.6H196.13v10.91zM166.6 199.99H96.82v-10.35h69.78v10.35zm-67.9-1.88h66.02v-6.58H98.7v6.58z"/><path d="M399.84 195.85h-69.78v-14.67h69.78v14.67zm-67.9-1.88h66.02v-10.91h-66.02v10.91z"/><path fill="#009de0" d="M399.84 204.32h-69.78v-10.35h69.78v10.35zm-67.9-1.88h66.02v-6.58h-66.02v6.58z"/></g><path fill="#009de0" d="M399.65 260.08l-1.39-.77c-1.86-1.02-3.7-3.31-5.65-5.72-2.26-2.81-4.6-5.71-7.08-6.85-23.4-11.7-44.38-15.22-54.81-16.28l-.84-.09v-46.93h69.78v76.64zm-67.9-31.4c10.82 1.18 31.57 4.86 54.59 16.37 2.85 1.32 5.33 4.39 7.73 7.37 1.29 1.6 2.53 3.14 3.7 4.21v-71.3h-66.02v43.35z" id="Layer_10"/><g id="Layer_9"><path fill="#009de0" d="M98.7 237.23h-1.88v-58.12h69.59v33.63l-.9.04c-12.88.56-27.19 4.1-31.39 6.29l-.87-1.67c4.25-2.22 18.38-5.76 31.28-6.46v-29.95H98.7v56.24zM267.61 246.64h-9.27l-.28-.33c-6.14-7.1-19.3-17.9-27.27-23.15-8.86-5.91-26.4-9.82-35.65-10.38l-.88-.05v-56.94h112.1v73.92h-.94c-3.12 0-6.21.88-8.69 1.59-.56.16-1.1.31-1.6.45-8.86 2.26-21.07 8.83-27.25 14.64l-.27.25zm-8.41-1.88h7.67c6.45-5.93 18.81-12.54 27.78-14.83.49-.13 1.01-.28 1.56-.44 2.35-.67 5.23-1.49 8.26-1.64v-70.18H196.13v53.29c9.66.75 26.83 4.72 35.69 10.63 7.96 5.24 21.02 15.95 27.38 23.17z"/></g><path fill="#009de0" d="M192.56 356.67v-5.83l7.9-.56c.38 0 .75-.38 1.13-.94.38-.56.38-1.13.38-1.5l-4.51-21.07-31.41-.38-5.45 15.8c0 .19-.19.56 0 .94 0 .38.19.56.38.94.19.38.38.56.75.75.19.19.56.19.75.19l8.09.75v5.83l-27.46-.38v-5.83l7.9-1.5 33.1-79 10.35.19 21.82 82.38c.38.94.56 1.5.94 1.88.38.38.94.56 1.88.75l6.02 1.13v5.83l-32.56-.37zm-10.53-72.41l-13.73 35.55 26.71.38-12.98-35.93z" id="Layer_12"/><path fill="#009de0" d="M364.85 317.55c-.19 3.57-.75 6.77-1.88 9.97-1.13 3.01-2.45 5.83-4.14 8.28-1.69 2.45-3.57 4.7-5.83 6.58s-4.51 3.57-6.96 4.7c-2.45 1.32-5.08 2.26-7.71 3.01s-5.27 1.13-7.71 1.13l-.38 8.28 19.75.94c.75 0 1.69 0 2.63-.38.94-.19 1.88-.75 2.82-1.5s1.69-1.5 2.26-2.63c.56-1.13.94-2.45 1.13-4.14l2.63.19-.94 21.07-35.55-1.69 1.13-23.51c3.57-.94 6.96-2.45 9.97-4.33 3.01-1.88 5.64-4.14 7.71-6.58 2.26-2.63 3.95-5.45 5.27-8.84 1.32-3.39 2.07-6.96 2.26-10.91.19-4.33-.38-8.65-1.5-12.98-1.32-4.33-3.2-8.09-5.64-11.66s-5.64-6.21-9.22-8.46c-3.57-2.26-7.71-3.39-12.23-3.57-4.51-.19-8.84.56-12.6 2.45s-7.15 4.33-9.97 7.52c-2.82 3.2-5.08 6.77-6.58 11.1-1.69 4.14-2.45 8.46-2.82 12.79-.19 3.95.19 7.71 1.13 11.1.94 3.39 2.45 6.58 4.33 9.22 1.88 2.82 4.33 5.27 7.15 7.34s6.02 3.76 9.59 5.27l-1.13 23.51-35.55-1.69.94-21.07 2.63.19c0 1.69.19 3.2.75 4.33s1.32 2.07 2.07 2.82c.75.75 1.69 1.32 2.63 1.69.94.38 1.88.56 2.63.56l19.75.94.38-8.28c-3.76-.38-7.71-1.5-11.47-3.39s-7.15-4.33-10.16-7.52c-3.01-3.2-5.45-6.77-7.15-11.1-1.69-4.33-2.45-9.22-2.26-14.48.19-5.83 1.5-10.91 3.76-15.61s5.27-8.65 9.22-11.85 8.65-5.64 14.3-7.15c5.64-1.5 11.85-2.26 18.62-1.88 6.96.38 13.17 1.5 18.43 3.57 5.27 2.07 9.78 4.89 13.54 8.46 3.57 3.57 6.4 7.71 8.09 12.6 1.7 4.87 2.26 9.95 1.88 15.59z" id="Layer_13"/><g id="Layer_11"><path fill="#009de0" d="M412.34 497l-140.6-29.86c-2.18 1.36-14.2 8.41-29.9 8.41-16.13 0-31.88-14.64-34.24-16.93H67.01l.1-1.03 21.15-221.34 32.12 1.55-.09 1.88-30.33-1.46-20.88 218.52h139.3l.28.28c.17.17 16.86 16.65 33.19 16.65 16.46 0 29.07-8.23 29.2-8.31l.33-.22.39.08 138.91 29.5 21.08-222.91-33.07-8.27.46-1.83 34.64 8.66-.08.8L412.34 497z"/></g><g id="Layer_8"><path fill="#009de0" d="M131.62 211.84c-4.7 0-8.46 9.4-8.46 21.25v.94l13.35-18.24c-1.32-2.44-3.01-3.95-4.89-3.95zM210.05 192.66c-4.14 0-7.71 8.28-8.28 19.37 8.46.56 14.11 2.07 16.74 3.2-.18-12.6-3.75-22.57-8.46-22.57zM250.31 238.74c3.76-2.45 6.4-11.66 6.4-22.57 0-12.79-3.76-23.32-8.46-23.32s-8.46 10.53-8.46 23.32c0 5.27.56 10.16 1.69 13.92 2.81 2.07 5.82 5.26 8.83 8.65zM294.88 215.98c0-12.79-3.76-23.32-8.46-23.32s-8.46 10.53-8.46 23.32c0 8.84 1.88 16.55 4.51 20.5 3.01-1.88 6.58-3.57 10.35-4.89 1.12-3.95 2.06-9.59 2.06-15.61zM371.25 235.17c0-11.66-3.76-21.25-8.46-21.25-4.51 0-8.09 8.84-8.46 19.94l16.74 6.21c-.01-1.52.18-3.21.18-4.9z"/></g><g id="Layer_6"><path fill="#009de0" d="M83.65 439.29l23.74-183.4 28.02-40.78.41-.06c2.61-.35 64.25-8.4 85.3.06 21.08 8.47 41.86 37.29 42.73 38.51l.21.29-.04.35-17.09 166.94-1.32-.93c-.3-.21-29.84-20.99-54.73-25.23-23.92-4.05-63.12-.43-67.29-.03l-39.94 44.28zm25.55-182.71L86.29 433.56l36.41-40.35.36-.04c.43-.04 42.74-4.29 68.15.01 22.28 3.8 48.12 20.55 54.18 24.65l16.73-163.4c-2.25-3.06-22.23-29.75-41.7-37.57-19.72-7.92-78.42-.7-83.94.01l-27.28 39.71z"/><path fill="#009de0" d="M395.22 473.44l-26.72-49.09c-2.8-1.33-27.39-12.69-58.87-16.71-33.13-4.05-62.69 12.51-62.99 12.67l-1.59.9 17.21-167.48c.13-.26 13.49-25.91 51.81-25.91 37.97 0 80.5 21.14 80.93 21.35l.3.15.14.31 17.03 38.22-.02.24-17.23 185.35zm-96.24-68.32c3.56 0 7.2.2 10.88.65 33.63 4.3 59.48 16.89 59.74 17.02l.27.13.14.26 23.92 43.93 16.62-178.94-16.69-37.46c-3.85-1.88-43.93-21.01-79.78-21.01-35.68 0-48.94 22.69-50.06 24.73l-16.73 163.4c5.79-2.94 26.85-12.71 51.69-12.71z"/><path fill="#009de0" d="M309.74 406.89c-33.86-4.33-63.58 12.79-63.58 12.79s-29.72-21.25-55.11-25.39c-25.39-4.33-67.9 0-67.9 0l-40.06 44.77 133.36 1.69s8.46 12.79 25.39 16.93c16.93 4.33 25.39-8.46 25.39-8.46l129.41 27.65-4.33-16.93-23.32-36.11c0-.01-25.39-12.8-59.25-16.94z"/></g><g id="Layer_7"><path fill="#009de0" d="M363.57 435.41l-.92-.12-242.57-33.98 14.93-185.41 1.87.15-14.79 183.64L362 433.29l29.44-181.67 2.5-2.29 1.27 1.39-2.02 1.85z"/></g><g id="Layer_3"><path fill="#009de0" d="M282.09 95.22c-21.25-8.46-29.72-38.18-29.72-38.18h-4.33s-8.46 29.72-29.72 38.18-29.72 21.25-29.72 29.72 4.33 33.86 8.46 33.86h106.27c4.33 0 8.46-25.39 8.46-33.86.02-8.46-8.44-21.25-29.7-29.72zM385.73 144.5c-13.92-5.27-19.37-23.89-19.37-23.89h-2.82s-5.64 18.62-19.37 23.89-19.37 13.17-19.37 18.62c0 5.45 2.82 21.25 5.64 21.25h69.4c2.82 0 5.64-15.99 5.64-21.25s-5.83-13.35-19.75-18.62zM152.5 144.5c-13.92-5.27-19.37-23.89-19.37-23.89h-2.82s-5.64 18.62-19.37 23.89-19.37 13.17-19.37 18.62c0 5.45 2.82 21.25 5.64 21.25h69.4c2.82 0 5.64-15.99 5.64-21.25s-5.83-13.35-19.75-18.62z"/></g></svg>
