<svg xmlns="http://www.w3.org/2000/svg" viewBox="0 0 500 500"><path fill="#2b3091" d="M356.9 322.4c9.3 10.2 18.7 20.4 27.9 30.7 16.7 18.4 33.2 36.6 49.7 55 2.3 2.5 4.2 5.4 7.4 8v-7c0-29 0-58-.1-86.9 0-2.2.5-2.9 2.8-2.9 11.6.1 23.1.1 34.7 0 2.4 0 2.9.8 2.9 3.1-.1 52.5-.1 104.9 0 157.3 0 2.4-.8 2.9-3 2.9-8.9-.1-17.7-.1-26.7 0-1.7 0-2.9-.4-4-1.8-19.2-21.6-38.4-43-57.5-64.6-10.1-11.3-20.2-22.7-30.4-34-.5-.6-.9-1.3-1.9-1-.5 1.2-.3 2.4-.3 3.6v92.9c0 4 0 4-4 4-10.6 0-21-.1-31.7.1-2.6 0-3.7-.6-3.6-3.5.1-51.4.1-102.8.1-154.3 0-3.9.6-4.4 4.3-4.5 8.3 0 16.5.1 24.6-.1 3.4 0 6.1 1.6 8.8 3zM173.7 451.7v-15c0-.9-.6-2.3.3-2.9 1.1-.7 2 .7 2.8 1.2 9 5.6 18.2 10.6 28.1 14.2 10.6 4 21.8 5.4 33 3.9 5.3-.7 10.3-2.3 13.5-6.9 4.5-6.6 2.1-15.4-5.4-19-7.2-3.5-14.9-5.9-22.2-8.8-12.4-4.7-24.4-10-35.1-18-19.3-14.4-23.9-42.3-10-61.5 8.5-11.7 20.7-17.5 34.4-20.2 25.3-5 49.3-.1 72.5 10.4 1.5.7 2.1 1.7 2 3.3-.1 9.6-.1 19.1 0 28.7 0 2.6-.6 2.4-2.6 1.3-13.5-6.6-27.2-12.4-42.3-14.3-8.6-1.1-17.1-1.4-25.2 2.4-8 3.7-9.4 11.9-3.1 18.2 5.6 5.5 12.7 7.8 19.7 10.6 12 4.5 23.8 9 35.2 14.6 18.7 9.5 25.8 27.2 25 45.7-1 22.7-15.8 37.1-37.4 42.6-28.4 7.1-55.4 3.1-81-11.1-1.8-1-2.5-2.1-2.4-4.1.3-5.1.2-10.3.2-15.3z"/><path d="M356.9 322.4c-2.2.8-3.7-.9-5.3-1.7-1.9-.8-3.5-1-5.4-1-7.4 0-15 .1-22.3 0-3.1-.1-4.4 1.2-4.4 4.3 0 51.4.1 102.6 0 153.9 0 2.6.8 3.2 3.3 3.1 10.6-.1 21.2-.1 32 0 2.9.1 3.5-.8 3.5-3.6-.1-30.8-.1-61.8-.1-92.6 0-1.2-.5-2.7.6-3.8.1 9.3.1 18.7.1 27.9 0 23.3-.1 46.6.1 69.9 0 2.8-.6 3.5-3.4 3.5-11.2-.1-22.7-.1-34 0-2.4 0-2.9-.7-2.9-3 .1-52.4.1-104.8 0-157.3 0-2.7 1-3.1 3.3-3.1 9.8.1 19.5.1 29.3 0 2.7.4 4.5 1.3 5.6 3.5z" fill="#3d396f"/><path fill="#2b3091" d="M152.3 431.2c-1-14.3-8-25.1-20.2-32.5-3.8-2.4-8.1-3.8-13-5.8 1.2-.6 1.9-.9 2.4-1.1 9.2-4.6 15.7-11.9 17.9-22 4.4-19.7-5-36.7-23.7-44-12.2-4.8-25-6.3-37.9-6.4-19.7-.1-39.3 0-59-.1-3.1-.1-3.8.8-3.8 3.8.1 52.1.1 104.2 0 156.2 0 2.5.6 3.1 3.1 3.1 21.5-.1 42.9-.1 64.4-.1 10 0 19.9-.1 29.8-2.1 10.5-2.1 20.4-5.6 28.2-13.2 10.1-9.7 12.8-22.1 11.8-35.8zm-96-65.3v-15.4c0-1-.4-2.4 1.4-2.4 9.1.3 18.3-.8 27.2.7 12.9 2.2 19.1 16.8 12 27.7-3.4 5.2-9 6.5-14.4 6.9-8 .4-16.2.1-24.2.3-1.9 0-1.9-1-1.9-2.4-.2-4.9-.2-10.2-.1-15.4zm38.4 85.4c-6.6 1.4-13.2 1.2-19.9 1.2-5.3 0-10.4-.1-15.7 0-2.3.1-3.1-.3-3-2.9.2-5.6.1-11.2.1-16.9v-17.3c0-1.2-.2-2.5 1.8-2.4 11 .3 22-.8 32.9.9 5.8.9 11.1 2.9 15 7.7 8.6 11.4 2.8 26.7-11.2 29.7z"/><path d="M273 39.8c-2-.1-2.8-1.9-3.9-3.1-2.3-2.4-4.8-3.6-8.2-3.6-77.8.1-155.5.1-233.3.1-5.8 0-11.2 5.8-11.2 11.5v229.7c0 7 5 12.1 12 12.1 74.8.1 149.6 0 224.5.2 8 .1 15.1-.3 20.2-7.2v-2.1c-1.8-1.6-1-3.6-1-5.3V48.4c0-1.7-.7-3.8.9-5.2 0-.1.1-.2.1-.2v-3.2zm-16.1 231.3c-2.7 2.2-8.5.8-13.1.8-33.2.1-66.3.1-99.5.1-36 0-71.9-.1-107.9.1-4.3 0-5.4-1.1-5.4-5.4.1-71 .1-142.1 0-213.1 0-4.9 1.6-5.6 5.9-5.6h212.6c8.7 0 8.7 0 8.7 9 0 66.8 0 133.8-.1 200.6-.1 4.7 2 10.8-1.2 13.5z" fill="#303091"/><path fill="#5a5daa" d="M272.4 48v224.3c0 1.7-.4 3.4.6 5.1V43.1l-.1.1c-.8 1.6-.5 3.3-.5 4.8z"/><path fill="#5a5daa" d="M272 48.4v223.8c0 1.8-.8 3.8 1 5.3-1-1.7-.6-3.4-.6-5.1V48c0-1.6-.4-3.3.4-4.9-1.5 1.5-.8 3.6-.8 5.3z"/><path d="M233 81.5c-3.4-5.2-9.3-7.8-14.8-10.1-2.7-1.1-6.4-.1-8.7 3.1-1.4 2.1-3.1 4.1-4.7 6.2-.7 1-1.6 2.3-2.9 1.4-5.9-3.8-12.7-1.6-18.8-2.9-7.2-1.6-12.3 1.1-16.7 6.4-2.6 3.2-5.8 4.1-9.9 4.4-9.3.8-17.4-1.7-24.9-6.9-4.6-3.1-9-4.2-14-1.4-1.7 1-3.7 1.9-5-.4-3.6-6-9.7-6.4-15.5-8-7.7-2-14.1-1.4-18.8 5.9-1.7 2.6-4.1 4.8-6.5 6.7-8.9 7.1-13.7 16-14.1 27.5-.2 4.8-3.1 9.8-1.3 14.3 4.8 12.2 2 21.9-7.3 30.6-3.4 3.3-7.5 7.2-5.6 12.1.8 14.5 1.6 28.1 2.2 41.3.4 6.2 3.8 9.2 10 8.9 5.6-.3 11-1.1 16.5-1.4 6.8-.3 11.2 4.7 16.7 7.4.1 7.7 6.9 11.3 10.3 16.9 1.2 2 3.1 3.4 5.6 4.4 9.2 3.7 18.4 4.4 28.4 3.4 10.4-1 16-8 22.8-13.8 1.2-1.1 1.1-2.7.7-3.9-2.4-6.1.3-10.5 4.3-14.8 2.9-3 5.4-6.2 8-9.5.8-1.1 1.4-2 2.9-1.8 5 .7 10.4.1 13.5 5.8 1.8 3 8.5 4.2 10.5 1.8 4.8-6 11.3-10.8 13.8-18.5 4.6-14.3 8.7-28.9 15.1-42.5 2.6-5.3 3.7-11.9 8.1-15.5 8.1-6.8 11.4-15.9 16.1-24.5 1.2-2.3 1.4-4.1-.1-6.5C243.7 99 238.7 90 233 81.5zm4.8 32.7c-3.3 6.2-6.8 12.1-12.1 17.2-6.3 6.1-8.4 15.3-12.1 23.3-5.4 11.9-9 24.4-12.8 36.9-.9 2.9-2.2 5.4-4.2 7.7-2.6 2.9-4.6 7.5-8.8 1.1-1.8-2.8-6.2-1.1-9.3-2.2-9.2-3.2-15.2.3-20.2 8.1-3.2 5.1-7.4 9.5-11.4 14.1-2 2.3-2.6 4.6-1.8 7.5 1.2 4.7-2.3 11-7.1 11.9-8.8 1.7-17.6 4.2-26.4-.4-6.2-3.3-10.7-8.1-12.1-15-.7-3.2-1.6-5.9-5-6.9-.7-.2-1.3-.6-1.9-.9-9.7-7-20.2-9.3-31.7-6.3-3.9 1-5-.4-5.1-4.4 0-11-.9-21.9-1.4-33-.6-2.7.6-4.9 2.2-7 3.9-4.9 7.4-10 11.5-14.7 2.6-3 3.3-5.8 2.1-9.4-3.9-11.3-3.8-22.6-.7-34.2.9-3.4 2.1-6.4 4.7-9 4-3.9 7.8-7.9 11.7-11.9 3.8-3.8 12.8-4.1 16.9-.8.7.6 1.3 1.2 1.8 1.9 4.1 6.9 9.5 8.1 16.3 4.1 1.8-1.1 3.7-1 5.3.2.3.2.7.3.9.6 11 8.7 23.8 8.2 36.6 7.8 2.9-.1 4.3-1.9 6.1-3.4 2.9-2.4 5-6.9 8.7-7.1 6.4-.3 13.2-1 19.5 1.7 7.5 3.2 9.4 2.7 14.3-3.7 4.8-6 9.2-5.7 13.4 1.1 4 6.4 7.8 13.1 11.9 19.5 1.2 1.9 1.3 3.5.2 5.6z" fill="#313191"/><path d="M188.7 130.6c-.2-3.8-1.9-5.4-5.6-5.2-6.1.4-11.9-1-17.6-3.1-9-3.2-18-3.2-26.8 1.1-1.4.7-2.3.9-3.8-.1-6.7-5-14.3-4.6-22-3.4-10.1 1.4-19.3 6.9-30 5.6-3-.3-3.8 2.3-3.9 5-1 16.5-2.1 33.2-3.1 49.8-.4 6.5.3 7.3 6.8 7.3 10.2 0 20.5.2 30.7-.1 6.8-.2 13 .7 18.4 5.1 2.7 2.2 5.3 2.1 8.1.2 5.6-3.9 11.8-4.7 18.3-4.1 3.4.2 7 0 10.4 0 0 .2 0 .3.1.6 5.9 0 11.8-.1 17.6.1 4.7.2 6.1-2 5.8-6.3-.9-17.5-2.2-34.9-3.4-52.5zm-98.9 3.9c-1 13.9-2 27.6-3 41.5-.2 2.1-.7 4.3.9 6.2-5.6 1.6-6.9-.4-6.5-5.4 1.2-14.1 1.9-28.3 2.8-42.5.1-2.6.3-4.3 3.6-4.2 3.6.2 2.4 2.5 2.2 4.4zm3.9 23.6c.4-8.4 1.3-16.9 1.9-25.4.1-2 .8-3.3 2.7-3.9 8-2.3 15.8-5.1 24.3-4.7 8.9.4 12 3.4 12 12.1 0 13 0 26 .1 39 0 .1-.1.3-.3.8-3.8-1.1-7.5-2.3-11.2-3.6-10.3-.8-20.3 0-30.3 4.2-.8-6.6.5-12.6.8-18.5zm79.7 25.7c-5.7 0-11.4.3-17.1-.1-6.1-.4-11.8.7-16.8 4-1.9 1.2-3.8 1.8-5.7.2-6.5-5.6-14.2-5.6-22.1-5.2-5.9.2-11.8 0-17.6-.3 12.2-4.7 24.8-7.2 37.2-1.1 3.8 1.8 6.4 2.4 10.3.3 5.7-3.1 12.1-2.6 18.3-1.6 4.6.8 9 2 13.5 3v.8zm.9-6.1c-11.7-3.6-23.5-6-36-1.3v-44.7c0-2.1.9-3.1 2.6-4 10.5-5 20.6-2.1 30.6 1.9 1.4.6 1.4 1.8 1.6 3 1.6 14.3 3.1 28.6 4.7 42.8.4 3.4-.9 3.1-3.5 2.3zm10.9 6.8c-3.1 0-1.1-2.2-1.3-3.3-1.7-15.5-3.3-31-5-46.5-.2-1.8-1.6-4.3 2.1-4.6 3.4-.2 2.9 2 3 4.1 1.1 15.5 2.2 31.1 3.2 46.6-.1 1.6 1 3.8-2 3.7z" fill="#34328b"/><path d="M147.1 131c5.9-1.1 11.7-1 17.1 2 1 .4 2 .8 2.1 2.1-1.4 1.3-1.3 4.8-4.8 2.9-4.1-2.3-8.5-2.8-13-1.3-2.7.9-3.4-.8-4-2.7-.5-2.1 1-2.7 2.6-3zm18.7 38.3c-1 1.2-1.4 3.1-3.9 1.7-4.2-2.6-9-2.7-13.5-1.4-3 .8-3.1-1.2-3.8-2.9-1-2.6 1.1-2.4 2.6-2.7 2.2-.2 4.4-.4 6.7-.8 3.8 0 7.2.9 10.4 2.7 1.1.7 3 1.5 1.5 3.4zm-17.7-16.2c1.6-.7 3.4-.4 5.1-.7 3.8-.2 7.2.9 10.5 2.6 1.2.6 3.3 1.3 2.2 3.3-.9 1.6-2.1 3.2-4.6 1.8-3.8-2.3-8-2.4-12.1-1.4-2.8.7-4.3.2-4.9-2.7-.5-3.5 2.5-2.4 3.8-2.9zm18.3-6.1c-1.3 1.2-1.7 4.3-4.6 2.7-4.3-2.4-8.9-2.8-13.5-1.6-2.8.7-3.2-.8-3.9-2.7-1.1-3.1 1.7-2.4 2.9-2.8 5.7-1.2 11.3-1.1 16.5 1.8 1.3.4 2.5 1 2.6 2.6z" fill="#f9f9f9"/><path fill="#3c388c" d="M120 165.6c-4.6-1.3-9-1.8-13.8.9 2.8 2.4 5.7.8 8.2 1.3 3.3.7 7.7-.4 8.7 4.6 2.2-3.8.7-5.7-3.1-6.8z"/><path fill="#3c388c" d="M121.3 164.6c-4.3-1.6-8.8-1.6-13.2-.7-1.9.4-4.2.3-3.4 3.2.7 2.2 2 2.9 4.7 2.3 4.9-1 10-1.3 13.9 2.9-1-5-5.3-3.9-8.7-4.6-2.6-.6-5.4 1.1-8.2-1.3 4.8-2.7 9.2-2.2 13.8-.9 3.8 1.1 5.2 3 3.1 6.8 4.6-4.9 4.5-5.3-2-7.7z"/><path d="M108.4 158.7c4.7-.9 9.3-1.2 13.5 1.4 2.3 1.4 3.1-.7 4.1-1.8 1.3-1.7-.3-2.4-1.4-3.1-3.3-1.9-6.9-3-10.9-3-2.2.4-4.3.8-6.7 1-1.6.2-3.2.7-2.4 2.9.7 2 1.4 3.1 3.8 2.6z" fill="#3c3699"/><path d="M108.7 148.1c4.6-1.4 9-.7 13.1 1.4 2.7 1.4 3.3-.9 4.3-2.2 1.4-2-.8-2.2-1.8-2.8-3.1-2-6.7-2.8-11.3-2.7-1.1.1-3.2.2-5.3.6-1.6.2-3.8.2-3.1 2.9.6 2 1.7 3.5 4.1 2.8z" fill="#3b398b"/><path d="M108.2 136.6c4.8-1.4 9.4-.9 14 1.3 2.9 1.4 3-1.9 4.8-2.9-.8-.8-1.3-1.6-2-1.9-5.9-3.4-12.2-3.4-18.5-2-1.6.3-2.3 1.3-1.6 3.1.6 1.5 1.3 3 3.3 2.4z" fill="#36358e"/><path fill="#3c3684" d="M153.8 163.2zM164.2 165.8c-3.2-1.8-6.7-2.7-10.4-2.7-2.2.3-4.4.6-6.7.8-1.4.2-3.6.1-2.6 2.7.7 1.7.8 3.7 3.8 2.9 4.6-1.2 9.3-1.1 13.5 1.4 2.4 1.4 2.9-.4 3.9-1.7 1.6-1.8-.3-2.6-1.5-3.4z"/><path d="M149.3 158.6c4.1-1 8.3-.9 12.1 1.4 2.4 1.4 3.7-.2 4.6-1.8 1.1-2-1-2.8-2.2-3.3-3.3-1.7-6.8-2.8-10.5-2.6-1.7.2-3.6 0-5.1.7-1.3.6-4.3-.6-3.7 2.9.5 2.9 2.1 3.4 4.8 2.7z" fill="#3f3b93"/><path d="M148.6 136.6c4.4-1.4 8.9-1 13 1.3 3.4 1.9 3.3-1.6 4.8-2.9-.1-1.3-1.1-1.7-2.1-2.1-5.4-3-11.2-3.1-17.1-2-1.7.3-3.1.9-2.6 3 .5 2 1.3 3.6 4 2.7z" fill="#3d358b"/><path d="M163.9 144.4c-5.2-2.9-10.9-3-16.5-1.8-1.2.3-4-.3-2.9 2.8.7 1.9 1.1 3.3 3.9 2.7 4.7-1.2 9.2-.9 13.5 1.6 2.9 1.7 3.2-1.4 4.6-2.7-.2-1.6-1.4-2.2-2.6-2.6z" fill="#3d378d"/><g><path fill="#2b3091" d="M451.7 252.7zM462.5 252.7c.2-.1.3 0 .5 0 2.2.1 4.4.1 6.1-1.5.5-.5.4-1.5-.2-2.1-1.9-1.9-4-.8-6-.3-4.5 1.2-8.6.8-11.2-3.9-.4-.8-1.1-1.5-1.8-2.1-1.2-1.2-2.8-1.6-4.1-.3-1.5 1.5-.5 2.9.7 4 1.9 1.8 4.1 3.3 5.1 6.1-2.4 0-4.3 0-6.4.1-1.7.1-3.1.5-3.2 2.6-.1 1.9 1.1 3.2 2.7 3.1 6.2-.3 12 2.1 18 3.1 2.4.4 6 1.1 6.1-2.1.1-2.7-3.7-1.6-5.7-2.1-.3-.1-.6 0-.9-.1-2.1-.6-5.5-.4-5.2-3.3.5-2.8 3.6-.7 5.5-1.2zM475.3 265.6c-6.6-1.5-13.1-2.9-20-2.7-1 .2-2.1.2-3.2.7-1.6.5-4.3.2-4 2.8.3 2.6 2.9 1.9 4.5 1.7 6.4-.7 12.6-.2 18.3 3 .9.5 2 .6 3.1.8 2.3.3 3.7-.6 4-2.9.3-2.1-.7-2.9-2.7-3.4zM347.9 290.7c-2.9.2-6.3-.9-6.8 2.5-.3 2.6 2.5 3.4 5 3.3 3-.1 6.5-.3 6.5-4.1.1-3.5-3.5-.5-4.7-1.7zM446.6 233.3c1.5.1 3 .1 4.4.2 1.4.1 1.9-.7 2.1-1.9.5-2.7-1.3-4.3-2.9-5.9-.9-1-2.2-1.3-3.4-.5-1.9 1.3-1.2 3.3-1.2 5 0 1 .3 1.8.4 2.7h.1c.2.2.3.3.5.4zM332 188.1c.6 2.6.7 6.1 4.2 6.4 2.6.2 1.8-2.7 2.4-4.3-.5-2.2-.8-4.5-3.9-4.9-2.1-.2-3.1 1.2-2.7 2.8zM319.1 189.5c.3-2.4-1.7-2.5-3.5-3-1.9.8-3.9 1.6-3.8 4.3.1 2.1 1.2 3.4 3.1 3.3 2.7-.1 3.9-2.1 4.2-4.6zM324.2 174.7c-.3-2.4-.6-5.1-3.2-5.5-2-.3-2.9 1.9-2.9 3.9-.2 2.8 1 4.2 3.8 4.3 1.7-.1 2.6-.8 2.3-2.7zM343.3 180.5c-1.4-.1-2.5 1.1-2.1 2.4.8 2.3.4 5.9 3.3 6.4 2.4.4 1-2.6 1.8-4-.5-1.9.3-4.6-3-4.8zM326.4 201.5c2.1-.2 2.8-1.6 3-4.5.1-1.2-1.8-1.3-3.3-1.2-1.7 0-3.5 1-3.3 3 .2 1.6 1.6 2.9 3.6 2.7zM321 149.8c-2.1-.3-3.1 1.4-3.2 3.2-.1 1.8 1 2.9 2.9 3 1.8.1 2.4-1 2.6-2.8-.3-1.4-.6-3.1-2.3-3.4zM436.7 251.9c-2.9 0-2.4 3.2-3.2 4.9-.7 1.7.6 2.2 2 2.2 2.6.1 2.3-1.9 2.4-3.7-.2-1.1.7-3.3-1.2-3.4zM330.9 163.8c-2.5 0-.5 1.8-.7 2.7 0 1.3-2 3.4 1.5 3.5 2.3.1 2.7-1.1 2.7-2.7.1-2.3-1.6-3.5-3.5-3.5zM458.1 240.7c0 1.7.6 3.5 2.7 3.6 1.7.1 2.3-1.2 2.3-1.5.1-3.3-1.2-4.5-2.9-4.8-1.8-.3-2.1 1.3-2.1 2.7zM437.7 247.6c0-2.2-1.8-1.5-3-1.7-1.2.2-3.1-.5-3.1 1.5 0 1.7 1.3 2.6 3.1 2.7 1.8 0 3-.6 3-2.5zM326.8 184.9c-1.9 0-2.2.8-2.2 2.5.1 1.9.9 2.3 2.6 2.3 2 0 2.3-1.1 2.2-2.6.2-2.1-.9-2.2-2.6-2.2zM323.5 161.6c-1.4.1-1.8 1.2-1.8 2.3 0 1.6.4 3.1 2.5 3.3 1.3-.2 2.4-.8 2.1-2.4-.4-1.6-.7-3.2-2.8-3.2zM467.4 236.9c1.9 0 3.2-.6 3.3-2 0-1.9-1.8-2.3-3.3-2.5-1.3-.1-2.1.4-2 1.9.1 1.5.6 2.7 2 2.6z"/><path fill="#2b3091" d="M443.3 235.7c.3 1.5 1.3 1.7 2.4 1.4 2.3-.7 2-2.2.9-3.8h-.1c-.1-.1-.2-.2-.4-.3v-.1c-1.9-.1-3.3.4-2.8 2.8z"/><path fill="#2b3091" d="M446.1 233c.2.1.3.2.4.3h.1c-.2-.1-.3-.2-.5-.3.1-.1 0-.1 0-.1v.1z"/><path fill="#2b3091" d="M473.2 278.8c-2.5-1.1-5.1-1.1-7.7-1.2-3.3 0-6.9.7-9.6-1-4.5-3-8.9-2.9-13.6-1.2-1.7.6-2.6.4-3.1-1.4-1-3.5-3.9-5.4-6.5-7.5-2.2-1.7-4.3-3.7-4.3-6.8.3-11.1-.1-22.3 2-33.3 2.6-13.1 3.4-26-1.8-38.6-1.3-3.1.1-4.3 3.4-3.6 1.8.4 3.6 1.1 5.4 1.3 1.5.2 3.3.7 4.3-.7 3.9-5.1 9.3-9.4 9.4-16.5.1-5.4 1.5-10.2 5.9-13.8 1.4-1.1 2-3.1 2.3-4.9.9-7.8-.9-9.4-8.4-7.7-3.2.7-6.3 1.3-9.4-.7-5.5-3.6-10.5-7.6-12.1-14.4-.3-1.5-1.1-2.8-2.5-3-4.1-.6-2.6-2.8-1.5-4.8.9-1.8 2-3.6 2.7-5.4 1-2.9 2.5-6.2.5-8.9-2.1-3-2.1-5.9-2.3-9.2-.4-6.2.3-12.5-4.7-17.7-3.2-3.3-.5-7.9 4.3-8.7 1.7-.3 3.4-.5 5-.8 6.4-.9 9.1-3.5 10.3-9.9 1.3-7.4-1-14.3-4.1-20.8-3.2-6.6-4.5-6.7-11.8-4.8-4.9 1.3-9.9 2.5-15 2.8-5.3.4-6.6 1.7-6.8 7.1-.1 1.7-.1 3.4-.2 5.1-.1 4.6-3.3 9.6-7.7 10.9-12.3 3.5-20.8 12.4-30 20.2-6.1 5.2-10.6 12.2-18.3 15.9-6.1 3-10.6 8.3-15.6 12.9-6.8 6.3-11.7 14.9-21.4 17.8-4.6 1.4-8.6 4-11.7 7.7v6.5c4.3 8.1 8.3 9.3 16.7 4.7 2.3-1.3 4.5-2.7 6.4-4.5 8.3-8.3 18.5-14.2 28-20.9 1.8-1.3 3.5-2.7 5.3-3.7 5.2-2.6 6.9-1.6 6.9 4.2 0 4.9-.3 9.4 5.6 11.6 2.9 1.1 2.6 8.6-.2 9.7-6.3 2.4-8.1 7.8-8.1 13.2-.1 9.8-.2 19.4-5.5 28.2-1.2 2-1.2 4.3 1.3 6 4.3 3 4.2 4.3-.1 7.8-6.8 5.5-13 11.5-17.5 19.3-4.3 7.6-10 14.5-12.7 23-1.4 4.3-3.2 7.8-6.8 10.7-3.2 2.4-3.5 15.3-.7 18.3.3.3.7.7 1.1.8 4 1.5 2.9 4.1 1.6 6.7-.7 1.4-2.8 2.6-1.1 4.3 1.4 1.5 3.3 1.9 5.1 1.1 8.5-3.5 16.5-.6 24.3 2.3 3.4 1.3 7.6 2.6 9.4 6.1 3.5 7 4.5 7.5 11.6 4.8 6.9-2.6 13.8-5.4 21-7.1 5.2-1.3 10.2-2.9 15.1-5.2 6.5-3.2 13.4-3.7 19.2 2.2.8.9 1.6 1 2.4.6 4.6-2.8 9.5-1.7 14.5-1.5 8.2.3 16.3 1.2 24.2 3 2.7.6 5.2.2 7.6-1.1 1.2-.7 2-1.7 2.1-2.9.5-1.7-.9-2.1-2.1-2.6zm-163.7-141c-.3 1.2.2 3.3-1.9 3-1.7-.2-2.4-1.9-2.4-3.5 0-1 .5-2.1.9-3.1.6-1.2 1.2-3.1 2.7-2.8 1.8.4.7 2.4 1.1 3.6-.1 1-.2 1.9-.4 2.8zm120 39.7c-2.9.1-1.7-3.4-2.3-5.2-.2-.6-.2-1.3-.1-1.8.5-2.7.3-7 3-7 3 .1.9 4.3 1.6 6.2 0 1 .1 1.6 0 2.3-.3 2 1.2 5.4-2.2 5.5zm8.8-1.6c-3.2 0-2-3.9-2.4-6-.2-.9-.1-1.9 0-2.8.2-1.7-.5-4.3 2.4-4.1 2.5.1 2.4 2.4 2.5 4.3-.1.8-.1 1.6-.1 2.8-.5 1.7 1.4 5.8-2.4 5.8zm3.8-28.6c2.5-.1 4.4.7 4.8 3.3.5 2.9-2.1 2.7-3.8 2.7-2.5.1-5.3-.1-5.4-3.5 0-2.9 2.8-2 4.4-2.5zm3.4 13.2c-6.2-1.8-13-.4-18.9-4.3-2.1-1.4-4.9-1.5-7.4-2.3-1-.4-1.9-1.1-1.6-2.5.3-1.3 1.4-2 2.4-1.7 8.8 3 18.3 4.1 25.5 10.8zm-22.2 2.8c-.9-.2-1.8-.6-1.8-1.7.3-1 1.1-1.6 2-1.6 1.1 0 1.7.7 1.6 1.8-.2 1.1-.7 1.7-1.8 1.5zm1 10.5c-.1 1.1-.6 1.8-1.7 1.8-.8 0-1.5-.5-1.5-1.4 0-1.1.8-1.7 1.7-1.9 1.1-.1 1.4.7 1.5 1.5zm2.6-39.2c-2.5-1.6-3.9-4-5-7.7 3.3 2.3 4.3 4.9 5 7.7zm-4.4 0c3 3.1 6 6.2 7.9 10.2 1.2 2.6.7 4.2-3.9 3.8-4.3-.9-9-3.4-11.7-8.5-1.2-2.3-1.3-4.8 1.2-6.6 2.6-2.1 4.6-.9 6.5 1.1zm-7.3-16.3c3.1.1 3 3.7 3 5.9 0 3.2-1.3 6.7-4.8 6.7-3.6 0-2.8-3.7-3.3-6 .3-3.4 1.4-6.6 5.1-6.6zm-1.5-11.2c.1-1.1.1-2.4 1.6-2.2 1.9.2 2.1 1.9 2.3 3.3-.2 1.1-.3 2.6-1.6 2.4-1.6-.3-2.5-1.7-2.3-3.5zm18.6-48.5c0 1.7-.1 3.3-2.1 3.6-2.5.6-1.4 2.2-.6 4.4-5.2-3.8-7.5-12.8-5.2-17.1.9-1.7 2.3-2.5 4.1-2.7 2.2-.2 2.3 1.7 2.8 3.1.9 2.7 1 5.7 1 8.7zm-12.5-19.1c2.9-1 5.9-2 8.9-2.1 3.4-.1 2.6 2.6 1.4 4.3-2.2 3.1-5.6 3.5-9.4 3.9-1.2.2-2.6-.2-3-1.8-.5-1.9.4-3.7 2.1-4.3zm-1.6 19.4c3.2.1 3 3.1 3.3 5.4-.3 1.7.4 4-2.6 3.9-3.3-.2-4.3-1.9-4.3-5 0-2.9 1.4-4.3 3.6-4.3zm-24.4 7.3c6.6-6.1 12.7-4.8 15.1 4 1 3.6 3.1 5.6 6.5 6.3 2.4.5 3.4 2 3.9 4.1.5 2.1-.9 3.1-2.4 4.1-2.9 1.8-5 4-5.1 7.7 0 1.8-1.3 2.8-3.2 2.8-1.8 0-2.1-1.6-2.5-2.9-1-3.4.1-6.7.1-10.1.1-6.4-4.1-10.6-10-10.3-1.4 0-3.4 1.2-4.1-.8-.5-1.8 0-3.4 1.7-4.9zm-19.6 45c5.6-4.6 4-10.9 3.9-16.7 0-7 .4-7.7 7.2-9.6 2.2-.6 4.5-.9 6.8-1.1 2.4-.1 3.6 1.3 3.7 3.7-.6 2.8-2.7 4.4-5.3 5.6-9.6 4.4-9.8 4.8-9.1 15.4.1 1.6.1 3.1.2 4.6.1 2-.9 3.3-2.8 3.8-1.5.4-3.2.5-4.3-1-1.1-1.4-1.4-3.6-.3-4.7zm1.3 13.4c10.3-3 15.7-11.8 22.7-18.7 2.1-2.1 3.9-4.4 6.4-5.9 1.2-.7 2.5-1.9 3.8-1.1 1.5.9 1.4 2.8 1 4.3-2.2 7.8-6.2 14.4-13.3 18.8-1.6 1-3.3 1.8-4.8 2.7-1.4.8-2.7 1.8-2.4 3.6.4 2 1.7 4 3.6 3.8 6.2-.8 9.5 5.2 15.1 6.2 3.7.6 4.7 5.1 4.7 8.7.1 7.7.8 15.2 4.6 22.1.7 1.3.4 2.9-1 3.7-1.5.9-3.2.9-4.8.3-1.7-.6-1.6-1.9-1.3-3 .5-2.1 1.1-4.2-1.1-5.3-2.3-1.2-3.6 1.1-5.1 2.2-3 2.2-5.8 4.5-8.8 6.8-1.2.9-2.9 2.1-4.2.8-1.3-1.3-.8-3.4.2-4.7 2.9-3.9 5.7-7.7 10-10.1 4.3-2 6.2-5.2 6.2-10.4.6-3.3-2.2-4.5-5.2-5.1-2.8-.5-5.3-1-7.3-3.5-1.5-2-3.4-1.4-4.6.4-2.2 3.1-4.7 6.1-4.6 10.3 0 1 .4 2.4-1.2 2.6-1.2.2-2.1-.5-2.7-1.5-1.8-2.9-2.1-5.7-.4-8.7.6-1.1 1.4-2.1 2-3.1 2-3.2 1.7-5.1-2.7-5.3-3.5-.1-6.5-1-7.3-4.9-.5-2.8 0-5.2 2.5-6zm5 53.4c-1.1.2-1.4-.5-1.7-1.2-.8-1.9-1.2-3.8.1-5.7 2.1-3.3 4.1-6.5 6-9.7 1.1-1.8 2.7-2.7 4.6-1.5 1.9 1.2.5 2.7-.1 4l-4.8 9.9c-1 1.7-2.6 3-4.1 4.2zm2.2 11c-1.4 5.1-3.8 10.1-7.3 14.4-1 1.2-1.9.3-2.9-.2-1.5-.9-3.2-2-2.5-4 1.5-4.5 3.3-9.1 7.4-12 3-1.7 5.2-1 5.3 1.8zm-31.3-93.2c.7-.6 1.7-1.9 2.8-.8.8.9.3 2-.2 3-.1.1-.1.3-.2.4-6.3 5.1-12.8 10.1-19.7 14.2-.3-.5-.6-.9-.9-1.4 6-5.1 12.1-10.2 18.2-15.4zm11.4 12.3c-1.5.2-3.3.3-4.4 1.1-6.6 4.4-14.4 6.7-20.4 12.6-4.7 4.7-11.7 6.9-15.8 12.7-1.4 2-2.8.1-3.9-.7-2.1-1.6-1.7-3.6-.1-5.2 4-4 8.3-7.5 13-10.3 8.2-4.7 16.1-9.8 22.9-16.2 2.4-2.3 4.4-4.6 6.2-7.4 1.6-2.6 3.3-6.1 6.7-5.2 4.3 1.1 4.3 5.3 4.3 7.9 0 7.8-1.8 9.9-8.5 10.7zm1.4 65.5c.7-.8 1.6-1.5 2.1-2.5.7-1.4.3-3.4 3-3.3 2.9 0 2.8 2.3 3.9 3.9 3 4.4 3 8.8.3 13.2-.9 1.5-1.8 2.9-3.5 3.6-.8.4-1.7 1-2.5.1-.6-.7-.3-1.5 0-2.2.7-1.4 1.5-2.7 2.2-4.1 1.1-2.3.1-3.2-1.9-3.2-1.9.4-3.5 1.7-4.4-.5-1-1.7-.6-3.4.8-5zm-33.5 98.6c-2.5.8-3.5-1.6-4.3-3.3-1.8-3.1-2.8-6.4-2.7-10.1.1-3 .8-6.2 4.2-6.2 3.6.1 2.4 3.7 2.6 5.7-.4 3.2.9 5.8 1.4 8.7.2 1.8 1.6 4.3-1.2 5.2zm.5-32.4c.4-8.1 8-17 16.1-18.7 3.2-.6 6.5-.5 8-4.3.3-.9 1.5-1.2 2.4-.9 1.2.4 1.5 1.4 1.5 2.6 0 1.5-.6 2.9-1.6 3.8-6.7 6.1-12.2 13.5-19.9 18.6-1.2.7-2.6 1.4-3.5 1.9-2.7.1-3.1-1.2-3-3zm73.6 34.3c-3 1.9-7.4 3.2-11-.5-.6-.6-1.3-.8-2.1-.7-9.7 1.8-19.3 1.3-28.9-.9-4.9-1.2-9.8-.2-14.6 1.2-7.1 2.1-9.2-.3-11.6-7.3-4.4-13.1 2.2-20.7 11.3-28.4 10.7-9.1 20.8-19 29.9-29.8 3.2-3.7 5.5-7.8 7.2-12.4 1.7-4.7 4.4-8.8 7.9-12.5 2.4-2.6 4.8-2.3 5.1 1 .6 6.2 3.7 10.6 8.5 14.1 3.3 2.4 3 6 2.4 9.4-1.6 9.7-3.3 19.5-3.6 29.4-.2 5.1-3.2 6.8-8.3 4.3-3.1-1.5-3.8-.3-4.3 1.9-.6 1.9-1.5 3-3.6 3.1-2.9.1-4.6-.6-3.2-4 .5-1.2 1.8-2.7-.2-3.5-1.6-.6-2.2 1.1-2.6 2.1-1.8 4.1-5.7 3.2-8.7 3.5-7.6.9-15.3 2.1-23 1.1-1.2-.2-2.5-.2-3.6.6-1 .7-1.7 1.5-1.5 2.7.2 1.1 1.4 1.2 2.3 1.2h14.3v-.1h13.4c2.7 0 3.7.9 1.7 3.2-2.6 3-.8 3.9 2 4.5 4.5 1.2 9.2.4 13.8.6 3.3.1 6.5.1 9.7-.1 3.9-.3 5.4 1.8 5.7 5.1.4 4.6-1.1 9.1-4.4 11.2zm-2.5-21.6c-1.3.6-2.9.7-4.4 1.1-1.8-.8-4.7.2-5.1-1.9-.4-2.2 2.3-3.4 4.3-4.2 1.2-.4 2.4-.7 3.6-.9 1.4-.2 2.8-.5 3.3 1.5.3 1.9.1 3.6-1.7 4.4zm6.4-70.4c.3-2.5 1.3-4.8 4.2-5.1 2.1-.2 3.7 1.3 3.3 3.5-.5 2.6-.8 5.9-4.3 6.1-2.4.1-3.1-2.2-3.2-4.5zm25 91.8c-.8 2.7-3.7 2.8-6.2 2.7-8-.4-9.2-1.5-10.2-9.2-.2-1.2-.1-2.8-.8-3.6-5.8-7-3-14.9-2.8-22.6.2-9.6 4.2-18.7 3.5-28.3-.2-2.3 1.5-2.9 3-3.6 4-2.1 4.6-4.1 1.7-7.2-1.9-2.1-2.9-3.9-1.2-6.4.9-1.3.4-2.2-.7-3.2-1.1-.9-1.8-2.2-1.8-3.7.1-2.6.2-5.6 3-6.1 3-.5 3.4 2.6 3.8 4.7 1.2 6.7 2.2 13.4 3.3 19.9-1.4 6.7 0 13.7-5.3 19-.5.5-.6 1.5-.6 2.2.9 8.8-1.2 17.5-1.3 26.3 0 6.7 1.9 12.1 8.7 14.8 1.7.8 4.6 1.9 3.9 4.3zM371.4 97.2zM429.6 66.6z"/><path fill="#2b3091" d="M360.3 257.1c-2.4 1-4.8 1.9-7.2 2.9-1.7.7-3 1.8-2.6 3.8.5 2.3 2.6 2.3 4.6 2.8 2.6-1 5.4-2.1 8.1-3.3 1.7-.8 3-2.4 2-4.1-.8-1.7-2.5-3-4.9-2.1zM397.6 215.6c1.6.1 2.1-.7 2.1-2.2 0-2.4-1.5-3.2-3.6-3.5-1.3.1-2.4.7-2.2 2.3.3 2 1.4 3.4 3.7 3.4zM375.9 237.2c1.3 0 2.7-1.2 2.7-2.7 0-1.4-.7-2.7-2.2-3.3-1.5.3-2.5 1.2-2.5 2.9-.1 1.5.4 3.1 2 3.1zM397.4 228.6c-.2 1.5.7 2.7 2.3 3.1 1.6.3 2.4-.7 2.7-2 .5-2-1.2-1.8-2.3-2-1 .1-2.5-.7-2.7.9zM384.9 228.5c1.2 0 1.8-1.1 1.9-2.3-.1-1.5-1-2.4-2.4-2.5-1.4-.2-1.9.8-1.9 2 0 1.5.7 2.9 2.4 2.8zM388.6 216.5c1.4 0 1.7-.8 1.7-1.8.1-1.6-.5-2.8-2.3-2.8-1.1 0-1.8.6-1.8 1.7.1 1.6 1 2.5 2.4 2.9z"/></g></svg>
