<svg xmlns="http://www.w3.org/2000/svg" viewBox="0 0 500 500"><linearGradient id="SVGID_1_" gradientUnits="userSpaceOnUse" x1="69.248" y1="383.928" x2="400.471" y2="52.705" gradientTransform="matrix(1 0 0 -1 0 502)"><stop offset="0" stop-color="#e0cd9b"/><stop offset=".139" stop-color="#beae7c"/><stop offset=".28" stop-color="#a39564"/><stop offset=".405" stop-color="#938555"/><stop offset=".5" stop-color="#8d8050"/><stop offset=".595" stop-color="#938555"/><stop offset=".72" stop-color="#a39564"/><stop offset=".861" stop-color="#beae7c"/><stop offset="1" stop-color="#e0cd9b"/></linearGradient><path d="M332.07 298.08c-6.3 0-12.59.65-18.45 1.95 48.63-25.83 81.63-77.07 81.63-135.9C395.25 79.03 326.21 10 241.11 10c-81.63 0-148.49 63.61-153.7 143.71-.22 3.47-.43 6.73-.43 10.2 0 3.47.22 6.95.43 10.2V480h244.66c50.36 0 90.96-40.81 90.96-90.96.22-50.15-40.59-90.96-90.96-90.96z" fill="url(#SVGID_1_)"/><path fill="#fff" d="M335.11 472.51c-44.35 0-80.44-36.08-80.44-80.44 0-44.35 36.08-80.43 80.44-80.43s80.44 36.08 80.44 80.43c0 44.36-36.08 80.44-80.44 80.44zm0-155.87c-41.6 0-75.44 33.84-75.44 75.43 0 41.6 33.84 75.44 75.44 75.44s75.44-33.84 75.44-75.44c0-41.59-33.84-75.43-75.44-75.43zM240.99 299.78c-75.15 0-136.29-61.14-136.29-136.29s61.14-136.3 136.29-136.3c75.15 0 136.29 61.14 136.29 136.29s-61.14 136.3-136.29 136.3zm0-266.59c-71.84 0-130.29 58.45-130.29 130.29s58.45 130.29 130.29 130.29 130.29-58.45 130.29-130.29S312.83 33.19 240.99 33.19z"/><path fill="#fff" d="M260.87 421.82H225.7l-34.73.87 62.09-63.82c101.16-114.41 134.81-120.92 134.81-205.15 0-65.13-57.96-131.77-133.29-131.77-52.54 0-74.46 9.12-106.16 39.94L130.18 83.6c2.39-1.95 4.12-3.26 7.16-5.21 22.14-28.22 58.61-47.11 98.56-47.11C302.98 31.27 372 83.61 372 147v16c-.65 68.6-67.71 114.45-183.86 224.95l-86.84 84.67h38.42l192.34-.87c-25.82-6.08-62.07-25.18-71.19-49.93z"/></svg>
