<svg xmlns="http://www.w3.org/2000/svg" viewBox="0 0 500 500"><path fill="#650b39" d="M99.3 495.6V3h150.6c14.7.2 29.4.5 44.1.8 3.5 23.5.5 47.1 2 70.4.8 12.4-3.2 19-15.4 22.1-11.8 3-21.5 9.6-26.3 21.5 15.5-3.7 25.4-20.6 43.7-15.5-1.3 30.2-1.3 60.5.1 90.7-.7 1.3-2 2.5-2.1 3.8-1.5 15.7-15.7 11.8-23.7 12.7-8.7.9-8.3-9.7-9.1-17.1-.9-8.7 3.2-17.5-.7-26.3-12.3 16.9-11.4 33.3 2.8 54 7.3-1.9 15.3-3 22.6-6 8.7-3.5 6.9 5.2 10.5 7.6-2.1 12.5-1 25.1-.2 37.7-5.6 6-1.2 14.2-4.5 20.7-31 11.1-36.7 6.4-31.3-25.8.6-3.6 1.4-7.3 1.3-10.9-.1-6 8.7-11.2 1.6-17.8-10.8 12.6-16.7 54.1-9.3 65.2 3.4 5 8.1 5.4 13.5 3.5 9.1-3.2 18.7-2.7 28.2-2.2v199.3c-6.4 5.8-11.8 4.5-16.8 4.5-54.6.8-109.3 1.5-163.9 2-6 0-11.9-1.5-17.7-2.3zm95.5-84.6c4.9 13.4 13.8 18.6 22.9 17 11.1-2 6.9-12.6 6.1-20.1-2.4-22.9 5.3-41.5 22-57.1 12.8-12 24.9-25 37.4-37.5 5.4-5.4 7.1-10.4-1.5-15.4-7.4 19.9-23.9 31.7-38.3 45.2-19.4 18.5-35 37.8-25.7 67.2.6 2 .1 4.4-.6 6.5-.7 2-2.2 3.7-2.4 4-8.6.3-10.8-6.9-19.9-9.8zm-32.6-257.4c-9.9 9.4-10.1 19.1-3.4 28 6.7 8.9 15.3 2.4 21.7-1.2 12.1-6.7 24.6-12.4 37.6-17.5 13.5-5.3 29.5-5.9 44.2-19.8-37.8 4.9-67.1 22.3-96.7 33.2-8-8.6 3.3-14.3-3.4-22.7zm34 220.8c28.2-17.1 27.8-56.4 57-73-36.5 10-34.4 51.6-57 73zm-14.3-225.7c25.4-.3 32.8-3.1 45.6-17.5-15.8 5.4-29.6 8-45.6 17.5zM350.9 398c-15.2-20.8-16.4-43.5-11.4-66.5 3.7-16.9 10.5-33.2 7.6-51.5 6.5 7.7 9.3 14.9 6.1 25.4-2.4 8.2-4.4 17-6.5 25.3-5 19.5-3.8 37.6 4.6 55.7 1.3 2.9 3.6 6.7-.4 11.6zM347.9 247.7c1.4-8.1-5.1-17.6 5.4-25 5.4 5.3-.1 14.3 6.9 19.3 23.8-3.6 25.1-23.8 28.8-44.9 7.7 35.5-10.6 55.9-41.6 50.1l.5.5zM311.9 319.7c15.5 21 9 41.5-2 61.8 1.5-20.6 5.8-41 2-61.8zM333.5 69.8c6.8-8.6 14.3 2.3 20.1-2 7.3-8.2-2.5-15.3-.7-23.4 14.1 15.7 13.8 20-2.4 43.1-6.1-3.4-1.4-7.3-.8-11-4.5-3.4-12 1.1-16.2-6.7zM329.2 173.5c3.7-23.9 17.1-43 13.2-67.1 10.7 13.8 4.3 45.4-13.2 67.1zM347.4 247.3c-3.6 8.9 8.1 15.6 3 25.6-8.4 2.7-17.3 3.1-26.8.5 2.4-10.3 12.8-5.2 18-10.3 4.5-6.4-6.1-11.2-2.2-17.9 3.8-2.5 5 4.2 8.6 2.7l-.6-.6zM398.3 177.9c-15.7-7.2-31.7-11.9-49-12 19.3-7.2 35.6-2.6 49 12zM317.2 56.1c4.5-22.2 6.1-23.2 28.6-19.2-13.8.2-21.5 8.8-28.6 19.2zM365.2 197.8c-10.8 2.1-20.1 3.4-21.6-7.2-1-7.2 5.4-11.1 13.9-9.1 1.7 4.6-7.4 4.3-4.6 9.3 2.2 4.3 8 1.8 12.3 7zM331.2 409.9c9.4-.2 18.2 2.7 29.3 1.9-12.4 14.8-20.6 3-29.3-1.9z"/></svg>
