<svg xmlns="http://www.w3.org/2000/svg" viewBox="0 0 500 500"><path d="M418.5 126.8c.1-60.9-33.3-105.7-44.3-123.8l-292 3.2c26 34.9 40.2 77 40.9 120.4.3 44.5-13.9 87.9-40.4 123.7h-.3l.2.2s-.2.2-.2.3h.3c26.5 35.8 40.5 79.2 40.4 123.7-.5 43.5-14.8 85.7-40.7 120.5l292 3.2c10.9-18.3 44.5-62.3 44.2-124-.2-60.6-19.4-105.2-30.4-123.7 10.9-18.5 30.1-63.1 30.3-123.7zm-212 3.7c-2.2-22.6-3.2-40.2-9-51.6h129.3c6 10.9 13.4 32.8 14.4 62.3.6 24.6-5.2 48.9-17.2 70.5H191.2c12.6-25.1 18-53.3 15.3-81.2zM341 359.7c-.9 29.5-8.4 51.4-14.4 62.3H197.3c5.8-11.4 6.8-29 9-51.6 2.7-27.9-2.7-56.2-15.3-81.2h132.8c12 21.6 17.9 45.9 17.2 70.5z" fill="#a9272f"/></svg>
