<svg xmlns="http://www.w3.org/2000/svg" viewBox="0 0 1000 500"><path d="M157.9 353.3h19.8V234.6s0-64.3-81.6-64.3S17 239.5 17 239.5v39.6h14.8v-29.9c0-15.3 5-30.3 14.7-42 9.6-11.6 25.1-22.1 49.6-22.1 28.9 0 44.6 14 52.9 27.1 6 9.4 9 20.5 9 31.6v109.5z"/><path d="M144.4 285.3c0-5.5-4.4-9.9-9.9-9.9s-9.9 4.4-9.9 9.9c0 3.7 2 6.8 4.9 8.6V310h9.9v-16.2c3-1.7 5-4.9 5-8.5zM269.9 265.2c3 .4 5.7 1.2 8.1 2.4 2.4 1.2 4.4 2.6 6.2 4.5 1.7 1.8 3 4 3.9 6.4.9 2.5 1.4 5.3 1.4 8.5 0 2.3-.3 4.6-1 7.1s-1.8 4.9-3.3 7.2c-1.6 2.3-3.6 4.5-6.1 6.5-2.5 2-5.6 3.6-9.4 4.9-2.9 1-6 1.6-9.5 2-3.5.4-7.7.6-12.5.6h-24.8v-96.9h23.9c2.2 0 4.2 0 6 .1 1.8.1 3.4.2 4.9.3 1.5.1 2.9.3 4.2.5 1.3.2 2.5.5 3.7.8 3 .8 5.7 1.9 8.2 3.4 2.5 1.4 4.5 3.1 6.3 5.1 1.7 2 3 4.2 4 6.7.9 2.5 1.4 5.2 1.4 8.2 0 2.4-.3 4.6-.8 6.8-.6 2.2-1.4 4.2-2.7 6-1.2 1.8-2.8 3.5-4.8 4.9-2 1.4-4.3 2.7-7.1 3.6v.4zm-17.3-4.8c2.3 0 4.3-.1 6-.3 1.7-.2 3.2-.5 4.6-1 3.6-1.2 6.3-3.1 7.9-5.7 1.7-2.6 2.5-5.6 2.5-9.1 0-3.6-.9-6.5-2.6-8.8-1.7-2.3-4.5-4-8.2-5.1-1.8-.5-4-.9-6.4-1.1-2.4-.2-5.3-.3-8.5-.3h-13.3v31.3h18zm-18 10.6v33.7h14.3c3.4 0 6.5-.2 9.4-.5 2.9-.3 5.4-.8 7.4-1.5 2.2-.7 4.1-1.7 5.7-2.8 1.5-1.1 2.8-2.4 3.7-3.8.9-1.4 1.6-2.8 2-4.4.4-1.5.6-3.1.6-4.7 0-1.8-.2-3.6-.7-5.2-.4-1.6-1.1-3.1-2.1-4.3-1-1.3-2.3-2.4-3.9-3.4s-3.6-1.7-6-2.2c-1.4-.3-3.1-.6-5-.7-1.9-.1-4.2-.2-6.9-.2h-18.5zM302.4 230.5V218h11.2v12.5h-11.2zm.3 84.8v-68.8h11.2v68.8h-11.2zM460.7 307.4c3.7 0 7.1-.3 10.2-.9 3.1-.6 6.1-1.5 9.2-2.6v9.3c-2.5 1.2-5.5 2.2-9.1 2.9-3.6.7-7.5 1.1-11.7 1.1-4.9 0-9.6-.6-13.9-1.9-4.3-1.3-8.1-3.3-11.2-6.1-3.2-2.8-5.6-6.5-7.4-11s-2.7-10-2.7-16.3c0-6.3.9-11.7 2.6-16.3 1.7-4.6 4-8.5 6.9-11.6 2.9-3.1 6.2-5.4 10-7 3.8-1.5 7.7-2.3 11.8-2.3 3.9 0 7.5.6 10.8 1.9 3.3 1.3 6.3 3.3 8.7 6 2.5 2.8 4.4 6.3 5.8 10.6 1.4 4.3 2.1 9.6 2.1 15.6v1.5c0 .4 0 1.3-.1 2.8h-47.5c0 4.4.7 8.1 2 11.2 1.3 3.1 3.1 5.6 5.4 7.5 2.3 1.9 5 3.3 8.1 4.2 3.1.9 6.4 1.4 10 1.4zm-6-53c-2.6 0-5 .5-7.2 1.5s-4.2 2.4-5.8 4.1c-1.7 1.7-3 3.8-4 6.1s-1.7 4.8-1.9 7.5H471c0-2.7-.4-5.2-1.1-7.6-.7-2.3-1.7-4.4-3.1-6.1-1.4-1.7-3.1-3.1-5.1-4.1-2-1-4.3-1.4-7-1.4zM625 310.4h-.3c-.9 1-2 2.1-3.3 3.1-1.3 1.1-2.8 2.1-4.4 3-1.7.9-3.5 1.7-5.5 2.3-2 .6-4.2.9-6.5.9-3.2 0-6.1-.5-8.9-1.6-2.8-1-5.1-2.5-7.1-4.5s-3.5-4.3-4.6-7.1c-1.1-2.8-1.7-5.9-1.7-9.3 0-3.8.7-7.1 2-10.1s3.1-5.5 5.5-7.6c2.3-2.1 5.1-3.7 8.4-4.7 3.3-1.1 6.9-1.6 10.8-1.6 2.9 0 5.6.2 8 .6 2.4.4 4.6.8 6.4 1.4v-2.8c0-1.6-.3-3.2-.8-4.7s-1.4-2.9-2.5-4.1c-1.2-1.2-2.7-2.1-4.6-2.8-1.9-.7-4.2-1.1-6.9-1.1-3.3 0-6.6.4-9.9 1.2-3.3.8-6.9 1.9-10.7 3.5V251c3.4-1.5 6.9-2.7 10.7-3.5 3.8-.8 7.7-1.3 11.8-1.3 4.9 0 9.1.6 12.8 1.9 3.7 1.3 6.7 3 9.2 5.2 2.5 2.2 4.3 4.8 5.5 7.8 1.2 3 1.8 6.3 1.8 9.8V297c0 4.6 0 8.6.1 12 .1 3.3.2 6.3.3 8.9h-14.7l-.9-7.5zm-1.3-22.5c-1.6-.4-3.4-.7-5.4-1.1-2-.3-4.1-.5-6.1-.5-4 0-7.2.8-9.5 2.5s-3.5 4.2-3.5 7.6c0 1.6.3 3 .8 4.2.5 1.2 1.2 2.2 2.1 2.9.9.8 1.9 1.4 3.1 1.7 1.2.4 2.5.6 3.8.6 1.7 0 3.2-.2 4.7-.7 1.5-.5 2.8-1 4.1-1.7 1.2-.7 2.4-1.5 3.3-2.4 1-.9 1.8-1.7 2.5-2.5v-10.6zM692.1 317.7c-1.8.6-4 1-6.6 1.4-2.5.3-4.9.5-7.1.5-5.6 0-10.2-1-13.7-2.9-3.6-1.9-6.1-4.6-7.5-8.2-1.1-2.6-1.6-6-1.6-10.4v-36.4H643v-14.1h12.5V228h16.3v19.6h19.3v14.1h-19.3v34.1c0 2.7.4 4.7 1.2 6 1.4 2.2 4.1 3.3 8.2 3.3 1.9 0 3.8-.2 5.6-.5 1.9-.3 3.6-.7 5.3-1.2v14.3zM732.1 305.8c3.2 0 6.5-.3 9.9-1 3.4-.7 6.9-1.6 10.5-2.9v13.7c-2.1 1-5.3 1.9-9.7 2.8-4.4.9-8.9 1.3-13.6 1.3-4.7 0-9.2-.6-13.5-1.9-4.2-1.3-8-3.3-11.1-6.2-3.2-2.8-5.7-6.5-7.5-11.1-1.9-4.5-2.8-10-2.8-16.5 0-6.4.9-12 2.6-16.7 1.7-4.8 4.1-8.7 7-11.9 2.9-3.1 6.3-5.5 10.1-7.1 3.8-1.6 7.7-2.4 11.7-2.4 4.2 0 8.1.7 11.7 2 3.6 1.4 6.6 3.5 9.2 6.4 2.6 2.9 4.6 6.6 6.1 11.2 1.4 4.6 2.2 10 2.2 16.2 0 2.4-.1 4.5-.2 6.2H711c.2 3.2.9 6 2.1 8.3 1.1 2.3 2.7 4.2 4.5 5.6 1.9 1.4 4 2.5 6.5 3.1 2.5.6 5.1.9 8 .9zm-6.5-46.5c-2.1 0-3.9.4-5.5 1.2-1.6.8-3 1.9-4.2 3.3-1.2 1.4-2.1 3-2.8 4.8-.7 1.8-1.1 3.8-1.4 5.9H738c0-2.1-.3-4-.8-5.9-.5-1.8-1.3-3.4-2.3-4.8-1-1.4-2.3-2.5-3.9-3.3-1.5-.8-3.3-1.2-5.4-1.2zM806.8 266.7c-1.3 7-2.8 13.8-4.5 20.4l-8.1 30.8h-16l-23.3-70.2H772l8.6 29.4c2 6.8 3.7 13.4 5.2 19.8h.3c1.3-6.2 2.8-12.8 4.6-19.8l7.6-29.4h17.2l7.5 29.4c1.6 6.2 3.1 12.8 4.6 19.8h.3c1.6-6.5 3.3-13.1 5.2-19.8l8.6-29.4h17.2l-23.3 70.2h-16l-8.1-30.8c-1.8-6.9-3.4-13.7-4.5-20.4h-.2zM900.9 310.4h-.3c-.9 1-2 2.1-3.3 3.1-1.3 1.1-2.8 2.1-4.4 3-1.7.9-3.5 1.7-5.5 2.3-2 .6-4.2.9-6.5.9-3.2 0-6.1-.5-8.9-1.6-2.8-1-5.1-2.5-7.1-4.5s-3.5-4.3-4.6-7.1c-1.1-2.8-1.7-5.9-1.7-9.3 0-3.8.7-7.1 2-10.1s3.1-5.5 5.5-7.6c2.3-2.1 5.1-3.7 8.4-4.7 3.3-1.1 6.9-1.6 10.8-1.6 2.9 0 5.6.2 8 .6 2.4.4 4.6.8 6.4 1.4v-2.8c0-1.6-.3-3.2-.8-4.7s-1.4-2.9-2.5-4.1c-1.2-1.2-2.7-2.1-4.6-2.8-1.9-.7-4.2-1.1-6.9-1.1-3.3 0-6.6.4-9.9 1.2-3.3.8-6.9 1.9-10.7 3.5V251c3.4-1.5 6.9-2.7 10.7-3.5 3.8-.8 7.7-1.3 11.8-1.3 4.9 0 9.1.6 12.8 1.9 3.7 1.3 6.7 3 9.2 5.2 2.5 2.2 4.3 4.8 5.5 7.8 1.2 3 1.8 6.3 1.8 9.8V297c0 4.6 0 8.6.1 12 .1 3.3.2 6.3.3 8.9h-14.7l-.9-7.5zm-1.3-22.5c-1.6-.4-3.4-.7-5.4-1.1-2-.3-4.1-.5-6.1-.5-4 0-7.2.8-9.5 2.5s-3.5 4.2-3.5 7.6c0 1.6.3 3 .8 4.2.5 1.2 1.2 2.2 2.1 2.9.9.8 1.9 1.4 3.1 1.7 1.2.4 2.5.6 3.8.6 1.7 0 3.2-.2 4.7-.7s2.8-1 4.1-1.7c1.2-.7 2.4-1.5 3.3-2.4s1.8-1.7 2.5-2.5v-10.6z"/><g><path d="M347.4 304.2c1.5.9 3.2 1.7 5 2.4 1.9.7 3.9 1 6.1 1 3.3 0 6.3-.7 8.8-2 2.5-1.3 4.7-3.2 6.4-5.5 1.7-2.4 3-5.2 3.9-8.5.9-3.3 1.3-6.9 1.3-10.9 0-5.5-.6-9.9-1.9-13.3-1.3-3.4-2.9-6.1-4.9-8-2-1.9-4.1-3.2-6.4-3.9-2.3-.7-4.5-1.1-6.8-1.1-3.5 0-6.7.7-9.8 2.2-3.1 1.4-5.8 3.3-8.1 5.7v36c.7.9 1.6 1.9 2.6 3 1 1 2.3 2 3.8 2.9z" fill="none"/><path d="M329.7 315.3h8.5l2.4-7.7h.2c.4.6 1.1 1.5 2 2.5.9 1.1 2.2 2.1 3.8 3.2 1.6 1 3.5 1.9 5.7 2.7 2.2.7 4.8 1.1 7.8 1.1 3.9 0 7.7-.7 11.4-2.2 3.7-1.5 6.9-3.8 9.8-6.8 2.8-3.1 5.1-6.9 6.9-11.6 1.7-4.7 2.6-10.2 2.6-16.7 0-4.6-.5-8.7-1.4-12.3-.9-3.5-2.1-6.6-3.7-9.2-1.5-2.6-3.3-4.7-5.4-6.5s-4.1-3.1-6.3-4.2-4.4-1.8-6.7-2.2c-2.2-.4-4.3-.7-6.3-.7-4.2 0-7.9.7-11.2 2.2-3.3 1.4-6.2 3.5-8.6 6.1h-.2v-32h-11.2v94.3zm11.2-53.1c2.4-2.3 5.1-4.2 8.1-5.7 3.1-1.4 6.3-2.2 9.8-2.2 2.3 0 4.5.4 6.8 1.1 2.3.7 4.4 2 6.4 3.9s3.6 4.6 4.9 8c1.3 3.4 1.9 7.8 1.9 13.3 0 4-.4 7.6-1.3 10.9-.9 3.3-2.2 6.2-3.9 8.5-1.7 2.4-3.8 4.2-6.4 5.5-2.5 1.3-5.5 2-8.8 2-2.2 0-4.3-.3-6.1-1-1.9-.7-3.5-1.4-5-2.4-1.5-.9-2.8-2-3.9-3-1.1-1.1-2-2.1-2.6-3v-35.9zM401.7 221h11.2v94.4h-11.2z"/></g><g><path d="M557.3 221.8c11.8 6.5 13.6 10.3 13.6 10.3l-3.8 4.6-7.4 9s-.9-1.6-2.7-3.7c-5.4-6.1-14.1-8.4-21.8-5.7-.1 0-.2.1-.3.1-4.4 1.6-8.1 3.9-11.3 7-3.2 3.1-5.7 6.8-7.5 11.3-1.8 4.5-2.8 9.7-2.8 15.6 0 11.4 2.9 20 8.5 25.8 5.6 5.7 13.7 8.6 24 8.6 1.9 0 3.9-.1 6-.3 2.1-.2 3.9-.5 5.4-.8v-22.7h-20.7V266H574v48.9c-1.4.5-3.1 1.1-5.3 1.7-2.1.6-4.5 1.1-7.2 1.6-2.6.5-5.4.8-8.2 1.1-2.8.3-5.6.4-8.3.4-8.3 0-15.5-1.2-21.7-3.5-6.2-2.3-11.3-5.6-15.4-9.9-4.1-4.2-7.2-9.3-9.2-15.2-2-5.9-3.1-12.4-3.1-19.5 0-5 .5-9.8 1.6-14.4s2.7-8.8 4.8-12.7c2.1-3.9 4.6-7.4 7.6-10.5 3-3.1 6.4-5.8 10.2-8 3.8-2.2 8-3.9 12.6-5.1 2.2-.6 4.4-1 6.7-1.3 2.7-.3 10.8-1.9 18.2 2.2z"/></g><g><path d="M942.6 322.7c-1 .1-2.1.2-3.3.2-8 0-10.7-5.5-10.7-5.5l-5.4 13.7s0 2.7 13.4 5.5h.3l2.1.3c11.6 1.5 16.4-4.8 16.4-4.8l34.6-84.6h-17.7L962 274.4c-3.7 9.8-6.2 16.5-7.3 20.1h-.3c-1.6-4.6-4.2-11.8-8-21.4l-10-25.4h-17.5l27.3 66.3-3.6 8.7h.3"/></g></svg>
