<svg xmlns="http://www.w3.org/2000/svg" viewBox="0 0 957 480"><path d="M537.3 455.7H420.8l-16.5-16.5-.4-1.2c-2.9-8.4-22.7-13.2-32.1-14.3l-332.4-5.1.2-11 332.9 5.1h.2c3.5.4 34.1 4.1 41.1 20.4l11.6 11.6H533l18.8-17.4c.7-.5 16.6-12.5 35-13.6 17.4-1 310-8.3 327-6.1l-1.4 10.9c-15.9-2.1-308.4 5.2-325 6.1-14.2.8-27.1 10-28.8 11.2l-21.3 19.9z" fill="#bc0203"/><path fill="#99000a" d="M477.7 214.8c-2.5 0-4.7-.3-5.6-.5-2.4.2-6.4-.6-8-4.3-1.6-3.8-.4-13.9-.2-16.2 0-.2-.1-1.1-.7-1.7-.7-.7-2-1-3.8-.9-4.8.3-9.6.2-14.3-.3-1.6.2-4.6-.1-6.5-2.3-2.1-2.4-1.7-10.2-1.5-13.5 0-2.1 1.1-6 5.2-6.4 3.4-.3 18.9-.5 19.6-.5h.2c.4 0 1.8 0 2.5-.7.2-.1.6-.6.6-2 0-.8-.3-19.3 0-24v-.7l.5-.5c3-3.4 11.1-7.7 19.9-.2l.7.6 1 24.8v.1c0 .5.1 1.4.4 1.7.1.1.2.2.7.2h18.7c1-.2 4.5-.5 6.4 1.2.9.8 1.3 2 1.2 3.3-.3 3 0 10.1 0 10.6 0 .4 0 2.1-1.2 3.5-.7.8-2 1.7-4.4 1.7h-19.4c-.1 0-.7 0-1.1.4-.5.4-.7 1.3-.7 2.5v16.5c0 .2-.7 5.4-5.5 6.9-1.4.5-3.1.7-4.7.7zm-5.4-4.5h.3c1.5.3 6.1.8 8.7.1 2.1-.6 2.6-3 2.7-3.4v-16.1c0-2.4.7-4.3 2.1-5.5 1.6-1.4 3.5-1.4 4.1-1.4h19.1c.7 0 1.2-.1 1.4-.4.2-.2.2-.6.2-.6 0-.4-.3-7.8 0-11.2-.5-.3-1.9-.3-3.1-.1h-19.2c-1.5 0-2.7-.5-3.6-1.5-1.5-1.6-1.5-4-1.5-4.6l-1-22.8c-6.5-5.1-11.6-1.6-13.2-.1-.2 5.5 0 22.5 0 22.9 0 2.6-1 4.1-1.9 5-2 1.9-4.8 1.8-5.5 1.8-1.3 0-16 .2-19.2.5-1.6.1-1.6 2.5-1.6 2.5v.2c-.4 4.7-.1 9.7.5 10.7 1 1.2 3 .9 3.1.9h.6c4.6.5 9.3.6 13.9.3 3-.2 5.3.5 6.9 2 2 2 1.9 4.5 1.9 4.8v.1c-.6 4.3-1.1 12-.1 14.3.9 2.2 4.1 1.9 4.2 1.9l.2-.3z"/><path fill="#99000a" d="M505.2 180.7l-.2-6-26.1.7v-28.8h-6v29l-22.5.6.2 6 22.3-.6v24h6v-24.2l26.3-.7z"/><path fill="#99000a" d="M461 220.1h-2v-20.2c0-1-.2-2.2-.9-2.8-.7-.5-1.7-.2-1.7-.2h-.2c-5.7.7-11.5 1.2-17.3 1.3-8.3 0-8.6-5.8-8.6-5.9 0-.2-.3-13.8 0-21.3.1-2.9 1-5 2.5-6.4 2-1.8 4.4-1.6 4.5-1.6.6 0 16.3-.2 18.9 0 .3 0 .5 0 .7-.2.7-.6.8-2.2.8-2.7v-28.2h2v28.2c0 .3 0 2.8-1.5 4.1-.6.6-1.4.8-2.2.8-2.5-.2-18.6 0-18.8 0-.1 0-1.8-.1-3.2 1.1-1.1 1-1.8 2.7-1.8 4.9-.3 7.4 0 21 0 21.1s.3 3.9 6.6 3.9c5.6-.1 11.4-.6 17-1.3.4-.1 2-.5 3.4.5 1.1.8 1.7 2.3 1.7 4.4v20.5h.1zm32.6-.9l-2-.1c0-.2.4-15.2 0-20.1-.1-1.7.3-3.1 1.3-4.2 1.7-1.8 4.4-1.6 4.6-1.6 0 0 11.9-.2 17.7-1.3 1.8-.3 3.1-1 3.7-2 .6-1 .4-2 .4-2v-.2c0-.2.3-16.6 0-21.9v-.4c-.1-2.2-1.9-3.9-4.2-3.8-.5 0-11.7.5-17.7 0-2.1-.2-3.7-.9-4.6-2.3-1.4-1.9-1.1-4.4-1-5v-22.2h2v22.5s-.4 2.1.6 3.5c.6.8 1.7 1.3 3.2 1.5 5.9.5 17.4 0 17.5 0 3.3-.1 6.1 2.4 6.2 5.7v.5c.3 5.1 0 20.3 0 21.9.1.5.2 2-.7 3.4-.9 1.5-2.6 2.4-5 2.9-5.9 1.1-17.6 1.3-18.1 1.3-.1 0-2-.1-3.1 1-.6.6-.8 1.5-.7 2.6.3 5-.1 19.7-.1 20.3zm-63.4-88.1h2v30h-2v-30z"/><path fill="#99000a" d="M442 132.1h2v27.7h-2v-27.7zm7.5-1h2v25.6h-2v-25.6zm51.2 1h2v22h-2v-22zm9.7-1h2v23h-2v-23zM518.1 132.2l2-.1 1.1 25.7-2 .1-1.1-25.7zM431.6 201.2h2v21h-2v-21zm10.4 0h2v21h-2v-21zm9.3 0h2v21h-2v-21zm46.6 0h2v18.9h-2v-18.9zm10.1-3.6h2v22.5h-2v-22.5zm11.2-1.5h2v24h-2v-24z"/><path d="M90.4 343.4l-54 56h347s41 11 53 33h84s20-33 62-32 335-3 335-3l-51-54 19 34-274-27s-77-17-134.5 61c0 0-42.5-69-120.5-61s-287 31-287 31l21-38z" fill="#e9c402"/><path d="M917.9 414.9l-336 5s-31-3-46 31H421.4c-15-34-46-31-46-31l-336-5" fill="none"/><g enable-background="new"><path fill="#940004" d="M92.3 247.9c5.8 0 10.8 1 14.3 3.6 3.1 2.4 5.3 6.2 5.3 11.8 0 11.1-8.3 16.5-16.4 17.5-1.3.2-3 .2-4 .1l-6.4-1.8v13.3c0 7.3.8 7.6 8.8 8.1v2.7h-23v-2.7c7-.5 7.8-1.2 7.8-8.1v-33.8c0-7.5-.9-7.7-7.3-8.1v-2.6h20.9zM85 276.1c1.2.4 3.6 1.2 6.6 1.2 6 0 12.7-3.1 12.7-13.5 0-9-5.8-13.1-13.3-13.1-2.5 0-4.5.5-5 1.1-.8.7-1 1.7-1 4.1v20.2z"/></g><g enable-background="new"><path fill="#940004" d="M145.3 303.2v-2.7c5.8-.7 6.4-1.3 5.3-4.5-1.2-3.2-2.9-7.9-4.7-12.9h-18.7c-1.3 3.5-2.3 6.9-3.6 10.4-1.9 5.7-1.1 6.4 5.3 7v2.7h-18.8v-2.7c5.5-.8 6.7-1.2 9.7-8.9l17.4-44.3 2.6-.9c5.2 14.2 11.2 31.2 16.5 45.7 2.4 7.1 3.7 7.8 9.3 8.4v2.7h-20.3zM137 257h-.2c-2.7 7.5-5.4 15.1-8.1 22.3h16L137 257zm55.3-9.1c5.8 0 10.8 1 14.3 3.6 3.1 2.4 5.3 6.2 5.3 11.8 0 11.1-8.3 16.5-16.4 17.5-1.3.2-3 .2-4 .1l-6.4-1.8v13.3c0 7.3.8 7.6 8.8 8.1v2.7h-23v-2.7c7-.5 7.8-1.2 7.8-8.1v-33.8c0-7.5-.9-7.7-7.3-8.1v-2.6h20.9zm-7.2 28.2c1.2.4 3.6 1.2 6.6 1.2 6 0 12.7-3.1 12.7-13.5 0-9-5.8-13.1-13.3-13.1-2.5 0-4.5.5-5 1.1-.8.7-1 1.7-1 4.1v20.2z"/></g><g enable-background="new"><path fill="#940004" d="M276.7 250.5c-5.2.4-7.4 1.3-7.6 4.7-.3 2.4-.4 6.2-.4 14.5v5.9c0 10.4-1.7 17.8-6.6 22.9-4 4.2-9.8 5.9-15.4 5.9-4.8 0-9.6-1.2-13.4-4.1-4.9-3.9-7.5-10.3-7.5-20.4v-21.2c0-7.2-.7-7.6-7.6-8.2v-2.6h21.7v2.6c-6.8.5-7.5.9-7.5 8.2V278c0 14.9 6.2 21.7 16.3 21.7 11.9 0 16.3-9.6 16.3-24.5v-5.6c0-8.2-.3-11.9-.6-14.5-.5-3.3-2.3-4.1-8.5-4.6v-2.6h20.9l-.1 2.6z"/></g><g enable-background="new"><path fill="#940004" d="M309.1 303.2v-2.7c5.8-.7 6.4-1.3 5.3-4.5-1.2-3.2-2.9-7.9-4.7-12.9H291c-1.3 3.5-2.3 6.9-3.6 10.4-1.9 5.7-1.1 6.4 5.3 7v2.7H274v-2.7c5.5-.8 6.7-1.2 9.7-8.9l17.4-44.3 2.6-.9c5.2 14.2 11.2 31.2 16.5 45.7 2.4 7.1 3.7 7.8 9.3 8.4v2.7h-20.4zm-8.3-46.2h-.2c-2.7 7.5-5.4 15.1-8.1 22.3h16l-7.7-22.3zm110.7-6.5c-4.8.2-7.1 1.3-7.6 4.8-.1 2.6-.3 6.4-.3 14.6v34h-2.7l-35.8-44.5h-.1v21.2c0 7.7.3 11.8.4 14.3.6 4.4 2.7 5.3 8.3 5.6v2.7h-20.5v-2.7c4.9-.2 7.1-1.3 7.6-5.4.2-2.7.6-6.8.6-14.5v-18.7c0-6.2-.2-6.2-1.7-8.4-1.8-2.1-3.7-2.7-7.8-3.1v-2.6h12.3l35.5 43.4h.2v-21.3c0-8.2-.2-12-.5-14.2-.6-3.9-2.7-4.9-8.5-5.2v-2.6h20.7v2.6h-.1z"/></g><g enable-background="new"><path fill="#940004" d="M460.3 289.7c-.4 2.6-2.2 10.9-2.9 13.5h-41v-2.6c7.8-.6 8.6-1.2 8.6-8.2v-33.7c0-7.4-.8-7.6-7.5-8.2v-2.6h37.9c.1 1.9.4 7.9.7 12.5l-2.7.4c-.8-3.7-1.5-5.4-2.7-7.3-1-1.8-3.2-2.4-9.3-2.4h-7.3c-2.6 0-2.7.2-2.7 2.7V273h8.4c7.7 0 8-.8 9-6.4h2.7v16.3h-2.7c-1.2-6.1-1.6-6.4-9-6.4h-8.4V292c0 4 .7 5.9 2.2 7 1.7 1.1 4.6 1.1 9 1.1 6.4 0 8.9-.7 10.7-2.8 1.4-1.5 3.1-4.4 4.2-7.9l2.8.3z"/></g><g enable-background="new"><path fill="#940004" d="M542.8 250.5c-6 .8-6.6 1.3-9.1 8.1-1.8 5.1-7.1 21.7-14 45.4H517c-4.5-13.9-10.2-29.7-14.7-43h-.2c-5 15.5-9.7 29.1-14.1 43h-2.6c-4.4-15.3-9.3-30.2-13.9-45.4-2.1-6.9-3.3-7.5-8.5-8.1v-2.6h20v2.6c-6.3.7-6.3 1.2-5.2 5.4 3.3 11.7 6.7 23.3 10.6 35.9h.2c4.7-15.1 9.6-29.1 13.9-43h2.5c4.7 14.2 9.6 27.8 14.8 43h.2c3.4-11.4 8.5-28.5 9.9-34.6 1-4.9.6-5.8-5.7-6.6V248h18.6v2.5zm79 29.5c-5.3.8-5.6 1.1-5.6 6v7.3c0 2.8 0 5.6.6 8-5.4 1.3-12.4 3.2-19.1 3.2-18.4 0-30.8-12-30.8-28.6 0-20 16-29.4 32-29.4 7.2 0 13.9 1.8 16.6 2.6.2 3 .7 7.8 1.3 13.3l-2.5.4c-2.2-10.7-8.6-13.1-16.5-13.1-13.3 0-22.8 9.4-22.8 25.1 0 12.2 7.4 26.3 24 26.3 3.2 0 5.8-.7 7.8-1.7 1.9-.9 2.9-1.8 2.9-5.6v-6.7c0-6.1-.7-6.6-9-7.3v-2.5h21.2v2.7h-.1zm63.3-29.5c-5.2.4-7.4 1.3-7.6 4.7-.3 2.4-.4 6.2-.4 14.5v5.9c0 10.4-1.7 17.8-6.6 22.9-4 4.2-9.8 5.9-15.4 5.9-4.8 0-9.6-1.2-13.4-4.1-4.9-3.9-7.5-10.3-7.5-20.4v-21.2c0-7.2-.7-7.6-7.6-8.2v-2.6h21.7v2.6c-6.8.5-7.5.9-7.5 8.2V278c0 14.9 6.2 21.7 16.3 21.7 11.9 0 16.3-9.6 16.3-24.5v-5.6c0-8.2-.3-11.9-.6-14.5-.5-3.3-2.3-4.1-8.5-4.6v-2.6h20.9v2.6h-.1zm5.2 52.7v-2.7c7.1-.4 7.9-.9 7.9-8.1v-33.8c0-7.2-.8-7.5-7.9-8.1v-2.6h22.1v2.6c-7 .6-7.8.9-7.8 8.1v33.8c0 7.4.8 7.7 7.8 8.1v2.7h-22.1zm87.1-52.7c-4.8.2-7.1 1.3-7.6 4.8-.1 2.6-.3 6.4-.3 14.6v34h-2.7L731 259.4h-.2v21.2c0 7.7.3 11.8.4 14.3.6 4.4 2.7 5.3 8.3 5.6v2.7H719v-2.7c4.9-.2 7.1-1.3 7.6-5.4.2-2.7.6-6.8.6-14.5v-18.7c0-6.2-.2-6.2-1.7-8.4-1.8-2.1-3.7-2.7-7.8-3.1v-2.6H730l35.5 43.4h.2v-21.3c0-8.2-.2-12-.5-14.2-.6-3.9-2.7-4.9-8.5-5.2v-2.6h20.7v2.6zm48.6 39.2c-.4 2.6-2.2 10.9-2.9 13.5h-41v-2.6c7.8-.6 8.6-1.2 8.6-8.2v-33.7c0-7.4-.8-7.6-7.5-8.2v-2.6H821c.1 1.9.4 7.9.7 12.5l-2.7.4c-.8-3.7-1.5-5.4-2.7-7.3-1-1.8-3.2-2.4-9.3-2.4h-7.3c-2.6 0-2.7.2-2.7 2.7V273h8.4c7.7 0 8-.8 9-6.4h2.7v16.3h-2.7c-1.2-6.1-1.6-6.4-9-6.4H797V292c0 4 .7 5.9 2.2 7 1.7 1.1 4.6 1.1 9 1.1 6.4 0 8.9-.7 10.7-2.8 1.4-1.5 3.1-4.4 4.2-7.9l2.9.3zm39.1 13.5v-2.7c5.8-.7 6.4-1.3 5.3-4.5-1.2-3.2-2.9-7.9-4.7-12.9H847c-1.3 3.5-2.3 6.9-3.6 10.4-1.9 5.7-1.1 6.4 5.3 7v2.7H830v-2.7c5.5-.8 6.7-1.2 9.7-8.9l17.4-44.3 2.6-.9c5.2 14.2 11.2 31.2 16.5 45.7 2.4 7.1 3.7 7.8 9.3 8.4v2.7h-20.4zm-8.3-46.2h-.2c-2.7 7.5-5.4 15.1-8.1 22.3h16l-7.7-22.3z"/></g><g enable-background="new"><path fill="#99000a" d="M215.9 136.9c.7 1 1.2 2 1.5 3s.5 2 .5 3-.1 1.9-.4 2.9c-.3.9-.7 1.9-1.3 2.8-.6.9-1.2 1.8-2 2.6s-1.8 1.6-2.9 2.5l-8.1 5.7c-.4.3-.8.4-1.3.4s-1-.3-1.4-1l-19.6-27.7c-.4-.6-.6-1.2-.4-1.7.2-.5.4-.9.8-1.1l7.1-5c1.9-1.3 3.5-2.2 4.9-2.7s2.8-.7 4.1-.6 2.4.5 3.5 1.2 2.1 1.7 2.9 2.9c.5.7.9 1.5 1.2 2.3s.5 1.6.5 2.4c.1.8 0 1.6-.2 2.4-.2.8-.5 1.6-1 2.4 1-.4 2-.7 3-.8s2.1 0 3.1.3 2 .7 2.9 1.4c1 .5 1.8 1.3 2.6 2.4zm-16.1-9.5c-.5-.8-1.1-1.4-1.8-1.8-.6-.5-1.3-.7-2.1-.9-.7-.1-1.6 0-2.4.3-.9.3-1.9.8-3.1 1.7l-4.3 3 7.1 10.1 4.7-3.3c1.1-.8 1.8-1.5 2.3-2.3.5-.7.7-1.5.8-2.3s0-1.6-.2-2.3c-.2-.8-.5-1.5-1-2.2zm11.9 12.8c-.7-.9-1.4-1.6-2.2-2.1s-1.6-.8-2.6-.9c-.9-.1-1.9.1-2.9.4-1 .4-2.2 1-3.5 1.9l-4.9 3.5 7.7 11 6-4.2c.9-.7 1.7-1.4 2.2-2.1.5-.7.9-1.5 1.2-2.3.2-.8.3-1.7.1-2.5-.1-.9-.5-1.8-1.1-2.7z"/></g><g enable-background="new"><path fill="#99000a" d="M242.3 133c.1.1.1.3.1.4 0 .1-.1.3-.2.4s-.3.3-.6.5-.6.4-1 .7c-.4.2-.8.4-1.1.5s-.6.2-.8.2h-.5l-.3-.3-18.2-31.4c-.1-.1-.1-.3-.1-.4s.1-.3.2-.5.3-.3.6-.5.6-.4 1-.6.8-.4 1.1-.5.6-.2.8-.2h.5l.3.3 18.2 31.4z"/></g><g enable-background="new"><path fill="#99000a" d="M279.4 102.8c.5 1.1.8 2.1 1 3.2.2 1 .2 2 0 3s-.4 1.9-.9 2.8-1 1.7-1.7 2.5-1.5 1.5-2.4 2.2-2 1.3-3.3 1.9l-9 4.2c-.4.2-.9.2-1.3.1-.5-.1-.9-.5-1.2-1.2l-14.4-30.6c-.3-.7-.4-1.3-.1-1.7.2-.4.6-.8 1-1l7.8-3.7c2-1 3.8-1.6 5.3-1.8 1.5-.2 2.8-.2 4.1.1 1.2.3 2.3.9 3.3 1.8.9.9 1.7 2 2.4 3.3.4.8.7 1.6.8 2.5.2.8.2 1.7.1 2.5s-.3 1.6-.6 2.4-.8 1.5-1.4 2.2c1-.3 2-.4 3.1-.3s2 .3 3 .8c1 .4 1.8 1.1 2.6 1.9.6.8 1.3 1.8 1.8 2.9zm-14.1-12.1c-.4-.8-.9-1.5-1.4-2.1s-1.2-1-1.9-1.2c-.7-.2-1.5-.3-2.4-.2-.9.1-2 .5-3.3 1.1l-4.7 2.2 5.2 11.1 5.2-2.4c1.2-.6 2.1-1.2 2.6-1.8.6-.7 1-1.3 1.2-2.1.2-.7.3-1.5.2-2.3-.1-.7-.4-1.5-.7-2.3zm9.4 14.7c-.5-1-1.1-1.8-1.8-2.5-.7-.6-1.5-1.1-2.4-1.3-.9-.2-1.9-.3-2.9-.1-1.1.2-2.3.6-3.7 1.3l-5.4 2.6 5.7 12.1 6.6-3.1c1-.5 1.9-1 2.5-1.7s1.2-1.3 1.5-2.1c.4-.8.5-1.6.5-2.5.1-.9-.1-1.8-.6-2.7z"/></g><g enable-background="new"><path fill="#99000a" d="M319.4 96.9c.1.4.2.7.3.9.1.3.1.5 0 .7 0 .2-.1.4-.2.5s-.2.2-.4.3l-15.8 5.7c-.4.2-.9.2-1.4 0-.5-.1-.8-.6-1.1-1.3l-11.9-33c-.1-.1-.1-.3 0-.4 0-.1.1-.3.3-.4.2-.1.4-.3.7-.4.3-.2.7-.3 1.1-.5.5-.2.8-.3 1.2-.3.3-.1.6-.1.8-.1.2 0 .4 0 .5.1s.2.2.2.3L305 99.9l12.8-4.6c.2-.1.3-.1.5 0 .1 0 .3.1.4.2s.3.3.4.6c.1.2.2.5.3.8z"/></g><g enable-background="new"><path fill="#99000a" d="M356 86.1c.1.3.2.6.2.9v.7c0 .2-.1.3-.2.5-.1.1-.2.2-.4.2l-17.5 4.9c-.4.1-.9.1-1.3-.1-.5-.2-.8-.6-1-1.4l-9.1-32.5c-.2-.7-.2-1.3.1-1.7.3-.4.7-.7 1.1-.8l17.3-4.9h.4c.1 0 .3.1.4.3.1.1.2.3.4.6s.2.5.3.9c.1.3.2.6.2.9v.7c0 .2-.1.3-.2.4-.1.1-.2.2-.4.2l-14.2 4 3.2 11.4 12.2-3.4h.4c.1.1.3.1.4.3.1.1.2.3.4.6l.3.9c.1.3.2.6.2.9v.6c0 .2-.1.3-.2.4s-.2.2-.4.2l-12.2 3.4 3.7 13 14.4-4.1h.4c.1 0 .3.1.4.3.1.1.3.3.4.6.1.4.2.8.3 1.1z"/></g><g enable-background="new"><path fill="#99000a" d="M419.4 66.1c.2 1.8.1 3.4-.3 4.8s-1.2 2.8-2.2 3.9-2.3 2-3.8 2.7-3.1 1.2-4.9 1.4c-1.3.2-2.4.2-3.5.2-1.1-.1-2.1-.2-3-.4-.9-.2-1.6-.4-2.3-.7-.6-.3-1.1-.5-1.3-.7-.3-.2-.5-.5-.6-.8-.2-.3-.3-.8-.4-1.4-.1-.4-.1-.8-.1-1.1 0-.3 0-.5.1-.7s.1-.3.2-.4.2-.1.4-.2c.3 0 .7.1 1.2.3.5.3 1.2.5 2 .8s1.8.5 3 .7c1.1.2 2.4.2 3.9 0 1.1-.1 2.1-.4 2.9-.8.9-.4 1.6-.9 2.2-1.6.6-.6 1-1.3 1.2-2.2.2-.8.3-1.7.2-2.7-.1-1.1-.5-1.9-1.1-2.6-.6-.7-1.3-1.3-2.2-1.7-.9-.5-1.8-.9-2.9-1.2s-2.2-.7-3.3-1c-1.1-.3-2.2-.8-3.3-1.2s-2.1-1-3-1.7-1.7-1.6-2.3-2.6c-.6-1-1.1-2.3-1.3-3.8-.2-1.6-.1-3 .3-4.3s1.1-2.4 2-3.4 2-1.8 3.4-2.4c1.3-.6 2.8-1.1 4.5-1.3.8-.1 1.7-.2 2.5-.1.9 0 1.7.1 2.5.3.8.1 1.5.3 2.1.5s1 .4 1.2.6l.4.4c.1.1.1.2.2.4s.1.4.2.6c.1.2.1.5.2.9 0 .3.1.7.1.9v.7c0 .2-.1.3-.2.4-.1.1-.2.2-.3.2-.2 0-.6-.1-1.1-.3s-1.1-.4-1.8-.7c-.7-.2-1.5-.5-2.5-.6-.9-.2-2-.2-3.1 0-1 .1-1.9.4-2.7.8-.7.4-1.3.8-1.8 1.4-.4.5-.7 1.1-.9 1.8-.2.7-.2 1.4-.1 2.1.1 1 .5 1.9 1.1 2.6.6.7 1.3 1.3 2.2 1.7.9.5 1.9.9 3 1.2s2.2.7 3.3 1c1.1.3 2.3.7 3.4 1.2 1.1.4 2.1 1 3 1.7s1.7 1.6 2.3 2.6c.5 1.1.9 2.3 1.1 3.8z"/></g><g enable-background="new"><path fill="#99000a" d="M470.1 53.8c.2 3.1-.1 5.8-.7 8.3s-1.6 4.6-2.9 6.4-3.1 3.2-5.2 4.3-4.6 1.6-7.5 1.8c-2.8.1-5.3-.2-7.5-.9-2.1-.7-3.9-1.9-5.3-3.4-1.4-1.6-2.5-3.5-3.3-5.9s-1.3-5.1-1.4-8.2c-.2-3 .1-5.7.7-8.2s1.6-4.6 2.9-6.4c1.4-1.8 3.1-3.2 5.2-4.2s4.6-1.6 7.5-1.8c2.8-.1 5.2.2 7.3.9 2.1.7 3.9 1.9 5.4 3.4s2.6 3.5 3.4 5.8 1.2 5 1.4 8.1zm-5.3.6c-.1-2.1-.4-4.1-.9-6-.5-1.8-1.2-3.4-2.1-4.7-1-1.3-2.2-2.3-3.7-3s-3.4-1-5.6-.9-4 .6-5.4 1.5-2.6 2-3.4 3.5c-.9 1.4-1.4 3-1.7 4.9-.3 1.8-.4 3.8-.3 5.8.1 2.2.4 4.3.9 6.1.5 1.9 1.2 3.4 2.1 4.7s2.2 2.3 3.7 3 3.4 1 5.6.8c2.2-.1 4-.6 5.5-1.5s2.6-2.1 3.5-3.5c.8-1.4 1.4-3.1 1.7-4.9.1-1.8.2-3.8.1-5.8z"/></g><g enable-background="new"><path fill="#99000a" d="M515.8 69c0 .3 0 .6-.1.8 0 .2-.1.4-.1.6-.1.2-.1.3-.2.5-.1.1-.2.3-.4.5s-.6.5-1.3.8c-.6.4-1.4.7-2.4 1.1-.9.3-2 .6-3.2.8s-2.5.3-4 .2c-2.5-.1-4.7-.6-6.6-1.5-2-.9-3.6-2.2-4.9-3.8-1.3-1.7-2.3-3.7-3-6.1s-.9-5.1-.8-8.2c.1-3.1.6-5.9 1.6-8.4.9-2.4 2.1-4.5 3.7-6.1s3.3-2.9 5.4-3.7 4.4-1.2 6.8-1.1c1.1 0 2.2.2 3.2.4s2 .5 2.8.9c.9.3 1.6.7 2.3 1.2.7.4 1.1.8 1.4 1.1.3.3.4.5.5.6s.1.3.2.5c0 .2.1.4.1.7v.9c0 .4 0 .7-.1 1 0 .3-.1.5-.2.7-.1.2-.2.3-.3.4-.1.1-.2.1-.4.1-.3 0-.7-.2-1.1-.6-.5-.4-1.1-.8-1.9-1.3-.8-.5-1.7-.9-2.8-1.4-1.1-.4-2.4-.7-4-.7-1.7-.1-3.2.2-4.7.8-1.4.6-2.6 1.6-3.7 2.8-1 1.3-1.9 2.8-2.5 4.7s-1 4-1.1 6.4.1 4.5.5 6.4 1.1 3.4 2.1 4.7c.9 1.3 2.1 2.3 3.5 3s3 1.1 4.8 1.1c1.5.1 2.8-.1 4-.4s2.1-.7 2.9-1.1c.8-.4 1.5-.8 2-1.2s.9-.5 1.2-.5c.1 0 .3 0 .3.1.1.1.2.2.2.3.1.2.1.4.1.7.2.5.2.9.2 1.3z"/></g><g enable-background="new"><path fill="#99000a" d="M538.8 75.9c0 .2-.1.3-.2.4-.1.1-.2.2-.4.2s-.5.1-.8.1-.7 0-1.2-.1c-.5 0-.9-.1-1.2-.2s-.6-.2-.8-.3c-.2-.1-.3-.2-.4-.3s-.1-.3-.1-.4l3.9-36.2c0-.2.1-.3.2-.4.1-.1.3-.2.5-.2s.5-.1.8-.1h1.2c.5.1.9.1 1.2.2s.6.2.8.3.3.2.4.3c.1.1.1.3.1.4l-4 36.3z"/></g><g enable-background="new"><path fill="#99000a" d="M581.3 80.9c-.1.3-.1.6-.2.9-.1.3-.2.5-.3.6s-.3.3-.4.3-.3.1-.4 0l-18-3c-.4-.1-.8-.3-1.2-.7-.3-.4-.4-.9-.3-1.7l5.8-33.3c.1-.8.4-1.2.9-1.5s.9-.3 1.3-.2l17.7 3.1c.2 0 .3.1.4.2.1.1.2.2.2.4s.1.4.1.7 0 .6-.1 1c-.1.3-.1.6-.2.9-.1.3-.2.5-.3.6s-.2.3-.4.3c-.1.1-.3.1-.4 0L570.9 47l-2 11.7 12.5 2.2c.2 0 .3.1.4.2.1.1.2.2.3.4s.1.4.1.7 0 .6-.1 1c-.1.3-.1.6-.2.9s-.2.4-.3.6c-.1.1-.2.2-.4.3-.1 0-.3.1-.4 0l-12.5-2.2-2.3 13.4 14.8 2.6c.2 0 .3.1.4.2.1.1.2.2.3.4.1.2.1.4.1.7-.2.1-.2.5-.3.8z"/></g><g enable-background="new"><path fill="#99000a" d="M632 58.5c-.1.4-.2.7-.3.9-.1.3-.2.5-.3.6s-.3.2-.4.3-.3 0-.4 0l-10.3-2.7-8.3 32c0 .2-.1.3-.2.4-.1.1-.3.1-.5.2h-.8c-.3 0-.7-.1-1.2-.2s-.8-.2-1.1-.4c-.3-.1-.6-.3-.7-.4-.2-.1-.3-.2-.3-.4v-.4l8.2-31.9-10.4-2.8c-.2 0-.3-.1-.4-.2-.1-.1-.2-.3-.2-.4v-.7c0-.3.1-.6.2-1s.2-.7.3-.9c.1-.3.2-.5.4-.6.1-.2.3-.2.4-.3h.4l25.6 6.6c.2 0 .3.1.4.2.1.1.2.3.2.5v.7l-.3.9z"/></g><g enable-background="new"><path fill="#99000a" d="M655.4 88.6l-4.7 13.2c-.1.1-.1.3-.2.3-.1.1-.3.1-.5.1s-.5 0-.8-.1-.7-.2-1.1-.3c-.5-.2-.8-.3-1.1-.5s-.5-.3-.7-.4-.3-.3-.3-.4v-.4l4.7-13.2-2.9-23.7c-.1-.5-.1-.9 0-1.1 0-.3.2-.4.3-.5.2-.1.5-.1.8 0 .4.1.9.2 1.5.5.6.2 1 .4 1.3.5.3.2.6.3.8.4.2.1.3.3.4.4s.1.3.1.6l1.3 12c.1 1.1.2 2.3.3 3.6.1 1.2.2 2.5.3 3.7h.1l2.4-2.7c.8-.9 1.6-1.7 2.5-2.6l8.6-8.6c.1-.2.3-.3.4-.4s.3-.1.5-.1.5 0 .8.1.7.2 1.2.4c.7.2 1.2.4 1.5.6.4.2.6.4.7.5s.1.4 0 .6-.4.5-.7.8l-17.5 16.7z"/></g><g enable-background="new"><path fill="#99000a" d="M736.8 121.7c-1.5 2.7-3.1 4.9-4.9 6.7-1.8 1.8-3.8 3.1-5.9 3.9-2.1.8-4.3 1.1-6.7.9s-4.8-1-7.3-2.4-4.5-2.9-5.9-4.7c-1.4-1.7-2.3-3.7-2.7-5.7-.4-2.1-.3-4.3.3-6.7.6-2.4 1.6-5 3.1-7.7 1.4-2.6 3.1-4.8 4.9-6.6 1.8-1.8 3.8-3.1 5.8-3.9 2.1-.8 4.3-1.1 6.7-.9 2.3.2 4.8 1 7.3 2.4 2.4 1.3 4.4 2.9 5.8 4.6 1.4 1.7 2.3 3.6 2.8 5.7.4 2.1.4 4.3-.2 6.7-.6 2.5-1.6 5-3.1 7.7zm-4.9-2.2c1-1.9 1.8-3.7 2.4-5.5s.8-3.5.6-5.1c-.1-1.6-.7-3.1-1.6-4.5-.9-1.4-2.4-2.6-4.3-3.7s-3.7-1.6-5.4-1.6-3.3.4-4.7 1.1-2.8 1.8-4.1 3.2c-1.2 1.4-2.3 3-3.3 4.8-1.1 2-1.9 3.8-2.5 5.7-.6 1.8-.8 3.5-.7 5.2.1 1.6.6 3.1 1.6 4.5.9 1.4 2.4 2.6 4.3 3.7s3.8 1.6 5.5 1.6 3.3-.4 4.8-1.2 2.8-1.9 4.1-3.3c1.3-1.5 2.4-3.1 3.3-4.9z"/></g><g enable-background="new"><path fill="#99000a" d="M780.5 131.4c-.2.3-.4.6-.6.8-.2.2-.4.3-.6.4-.2.1-.3.1-.5.1s-.3-.1-.4-.1l-11.4-8.1-7.5 10.6 10.8 7.6.3.3c.1.1.1.3.1.5s-.1.4-.2.6c-.1.2-.3.5-.5.9-.2.3-.4.6-.6.7-.2.2-.4.3-.5.4s-.3.1-.5.1-.3 0-.4-.1l-10.8-7.6-9.2 12.9-.3.3c-.1.1-.3.1-.5 0s-.4-.2-.7-.3-.6-.4-1.1-.7c-.4-.3-.7-.5-.9-.8-.2-.2-.4-.4-.5-.6s-.2-.3-.2-.5c0-.1.1-.3.1-.4l20.4-28.8c.4-.6.9-.9 1.4-1 .5 0 .9.1 1.3.4l14 9.9.3.3c.1.1.1.3.1.5s-.1.4-.2.7-.5.7-.7 1z"/></g></svg>
