<svg xmlns="http://www.w3.org/2000/svg" viewBox="0 0 500 500"><g><path fill="#0d5cab" d="M17.99 205c15.4-12.17 29-22.91 42.96-33.48 1.43-1.07 4.48-.9 6.44-.18 59.97 19.87 119.4 16.65 179.19-1.07a819.667 819.667 0 0 1 83.24-20.05c27.93-5.19 55.49.9 81.09 11.99 25.6 11.1 48.87 23.45 73.22 35.27 1.51.8 2.57 2.25 2.86 3.94-16.11-.9-32.4-2.33-48.51-2.69-51.56-.9-103.11-2.15-154.67-1.61-48.51.72-97.02 3.94-145.72 5.55-35.44 1.25-70.89 1.61-106.33 2.33H17.99z"/><path fill="#0d5cab" d="M470.71 178.86c-12.89-6.62-25.96-13.07-38.85-20.05-45.65-24.88-93.09-26.31-142.14-12.17-31.15 9.13-62.12 19.51-93.62 26.14-56.39 11.81-110.45 5.91-158.6-29-4.12-3.04-8.06-6.62-11.81-9.85l96.13-10.74c32.4-3.76 60.51-18.08 87.72-34.91-44.75 40.64-101.32 43.86-157.89 50.12 2.62 2.13 5.37 4.11 8.23 5.91 44.4 24.35 91.12 27.93 139.45 15.4 29.36-7.7 58.36-16.83 87.72-24.52 57.28-15.04 110.99-6.98 160.4 26.67l23.63 15.75-.37 1.25z"/><path fill="#0d5cab" d="M62.92 99.2c22.56-17.9 49.05-29 75.01-40.81C170.86 43.53 202.55 26.35 229.58 2c-28.82 34.73-68.2 53.52-108.84 71.78 133.19-33.83 248.47.18 349.43 88.79l-.9 2.33-12.53-9.31c-42.07-30.61-86.1-58.18-137.12-71.43-44.4-11.46-89.69-11.81-134.98-8.95A470.785 470.785 0 0 0 62.92 99.2z"/></g><g id="Layer_4"><path d="M28.25 262.03c.91 6.55 5.46 11.83 16.01 11.83s15.1-3.64 15.1-10.92c0-7.28-4-10.37-17.1-14.55s-21.47-9.28-21.47-18.38 8.37-15.83 24.02-15.83c18.38 0 23.29 8.91 23.65 16.19H58.09c-.55-3.09-2-10.37-13.83-10.37s-13.1 4.18-13.1 9.28 4 9.1 16.01 12.74c16.74 5.28 22.74 10.73 22.74 20.19s-8.37 17.47-26.02 17.47-25.47-8.37-26.2-17.65h10.56zM136.69 246.2c0 21.83-7.82 33.48-28.38 33.48s-27.84-11.28-27.84-33.29S90.11 214 108.85 214s27.84 10.55 27.84 32.2zm-45.49 0c0 18.19 5.46 27.29 17.47 27.29s17.1-8.91 17.1-27.29-5.46-26.2-17.28-26.2-17.29 8.92-17.29 26.2zM202.73 261.12c-.36 3.64-2.73 18.56-26.02 18.56s-27.47-18.01-27.47-33.29c0-18.56 7.46-32.38 28.56-32.38s24.38 14.37 24.56 18.38h-10.55c-.36-2.18-.91-12.01-14.19-12.01s-17.47 13.65-17.47 26.2 2.18 27.11 16.74 27.11 14.55-9.28 15.1-12.37l10.74-.2zM226.74 214.91v63.86h-10.55v-63.86h10.55zM288.06 248.2h-32.02v24.38h35.48l-1.46 6.19h-44.39v-63.86h43.85v6.19h-33.48v20.92h32.02v6.18zM303.16 214.91h21.29c22.01 0 32.02 10.19 32.02 30.2s-8.91 33.66-33.48 33.66h-19.83v-63.86zm10.55 57.86h8.73c17.65 0 23.11-9.28 23.11-27.29S339 221.1 322.62 221.1h-8.91v51.67zM381.21 258.57l-7.1 20.19h-10.37l23.11-63.86h13.65l23.83 63.86h-11.28l-7.1-20.19h-24.74zm22.56-6.36c-5.46-15.65-9.1-25.65-10.37-30.75h-.36c-1.46 5.46-5.28 17.1-10.01 30.75h20.74zM434.51 214.91h21.29c22.01 0 32.02 10.19 32.02 30.2s-8.91 33.66-33.48 33.66h-19.83v-63.86zm10.56 57.86h8.73c17.65 0 23.11-9.28 23.11-27.29s-6.55-24.38-22.92-24.38h-8.91l-.01 51.67zM27.34 305.88h32.2c6.17-.18 12.34.37 18.38 1.64 4.3 1.13 8.09 3.7 10.73 7.28 2.96 3.92 4.5 8.73 4.37 13.65 0 9.82-5.28 16.31-15.83 19.47 12.74 3.4 19.1 10.86 19.1 22.38.01 6.49-2.7 12.69-7.46 17.1-4.97 4.85-14.55 7.28-28.75 7.28H27.34v-88.8zm17.29 36.75h11.1c7.88 0 13.04-1.21 15.46-3.64 2.53-2.41 3.91-5.78 3.82-9.28 0-4.49-1.46-7.7-4.37-9.64s-7.34-2.91-13.28-2.91H44.44l.19 25.47zm0 40.21h14.19c12.98 0 19.47-4.79 19.47-14.37-.03-3.75-1.54-7.35-4.18-10.01-2.79-2.91-8.37-4.37-16.74-4.37H44.63v28.75zM125.41 320.07h-12.19l8.01-24.93h16.37l-12.19 24.93zm-11.83 8.91h16.19v65.68h-16.19v-65.68zM149.42 305.88h32.2c6.17-.18 12.34.37 18.38 1.64 4.3 1.13 8.09 3.7 10.73 7.28 2.96 3.92 4.5 8.73 4.37 13.65 0 9.82-5.28 16.31-15.83 19.47 12.74 3.4 19.1 10.86 19.1 22.38.01 6.49-2.7 12.69-7.46 17.1-4.97 4.85-14.55 7.28-28.75 7.28h-32.75v-88.8zm17.29 36.75h11.1c7.88 0 13.04-1.21 15.46-3.64 2.53-2.41 3.91-5.78 3.82-9.28 0-4.49-1.46-7.7-4.37-9.64-2.91-1.94-7.34-2.91-13.28-2.91h-12.92l.19 25.47zm0 40.21h14.19c12.98 0 19.47-4.79 19.47-14.37-.03-3.75-1.54-7.35-4.18-10.01-2.79-2.91-8.37-4.37-16.74-4.37h-12.74v28.75zM236.39 305.88h17.65v76.41h37.66v12.37h-55.31v-88.78zM301.52 305.88h17.65v88.78h-17.65v-88.78zM392.85 364.82l16.19 1.82c-3.27 19.77-14.86 29.66-34.75 29.66-12.86 0-22.5-4.12-28.93-12.37s-9.58-19.35-9.46-33.29c0-14.92 3.34-26.38 10.01-34.39 6.67-8.01 16.31-12.01 28.93-12.01 19.53 0 30.93 10.13 34.2 30.38l-16.37 2c-1.82-13.46-7.76-20.19-17.83-20.19-13.46 0-20.19 11.7-20.19 35.11s6.79 34.33 20.38 32.75c5.46 0 9.52-1.64 12.19-4.91 3.05-4.31 4.99-9.31 5.63-14.56zM444.16 305.88h19.65l28.56 88.78h-17.83l-6.73-22.2H436.7l-6.55 22.2h-16.74l30.75-88.78zm20.37 54.94l-12.19-40.75-12.19 40.75h24.38z"/></g><g id="Layer_5"><path d="M86.84 472.71C83.38 486.18 73.37 496 55.36 496c-23.65 0-35.48-18.01-35.48-40.21s11.83-40.94 35.84-40.94c18.56 0 28.75 10.73 31.11 23.83H76.28c-2.91-8.55-8.55-15.1-20.92-15.1-17.47 0-24.56 15.83-24.56 31.84 0 16.01 6.73 31.84 24.93 31.84 12.19 0 17.47-7.1 20.38-14.55h10.73zM102.12 416.13h10.37v32.93h41.12v-32.93h10.55v78.96h-10.55v-37.11h-41.12v36.93h-10.37v-78.78zM196 416.13v78.96h-10.37v-78.96H196zM217.65 416.13h10.37v70.05h41.12l-1.46 8.91h-50.03v-78.96zM330.08 458.16h-39.3V486h43.12l-1.27 8.91H280.6v-78.78h51.49v8.91h-41.3v24.2h39.3v8.92zM348.28 495.09v-78.96h13.83c11.28 18.56 36.02 57.67 40.39 66.22h.18c-.73-10.19-.73-22.56-.73-35.48v-30.93h9.82v78.96h-13.1c-10.37-17.1-36.02-59.31-40.94-68.23h-.18c.55 8.91.55 22.38.55 36.57v31.47l-9.82.38zM443.43 471.26l-8.55 23.65h-10.37l28.2-78.96h12.74l29.47 78.96h-11.28l-8.73-23.65h-31.48zm28.74-8.92c-7.64-20.74-11.64-31.84-13.46-37.84h-.18c-2 6.73-6.55 20.01-12.55 37.84h26.19z"/></g></svg>
