<svg xmlns="http://www.w3.org/2000/svg" viewBox="0 0 500 500"><g id="Layer_3"><path fill="#c9234e" d="M199.2 13h113.4v477H199.2zM52 315.7V129.3s33.9 38.3 147.2 0v192.9s-108.9 43-147.2-6.5zM459.8 315.7V129.3s-33.9 38.3-147.2 0v192.9s108.9 43 147.2-6.5z"/></g><g id="Layer_4"><path fill="#fff" d="M268.4 344.3c6.6-7.7 15.4-13.2 25.2-15.9 6.4-1.8 13-2.4 19.6-1.9V131.1c-8.9-.1-17.6 1.8-25.6 5.6-7.7 3.6-14.3 9.2-19.1 16.2v191.4zM246.5 344.3c-6.8-7.7-15.8-13.2-25.8-15.9-6.5-1.8-13.3-2.4-20-1.9V131.1c9-.1 17.9 1.8 26.1 5.6 7.9 3.6 14.7 9.2 19.7 16.2v191.4z"/></g></svg>
