<svg xmlns="http://www.w3.org/2000/svg" viewBox="0 0 1000 500"><g id="Layer_4"><linearGradient id="SVGID_1_" gradientUnits="userSpaceOnUse" x1="22" y1="266.646" x2="378.156" y2="266.646"><stop offset="0" stop-color="#2654b4"/><stop offset="1" stop-color="#33edec"/></linearGradient><path d="M340.75 216.09s45.06-35.17 36.27-81.34c-5.31-27.89-32.69-26.49-53.53-21.02-12.3 3.23-23.95 8.57-34.62 15.49l-96.5 62.68L22 101.78V328.2l170.36 103.32s96.72-71.44 129.7-94.53 56.06-60.45 56.06-91.23-37.37-29.67-37.37-29.67zM163.79 382.05L52.78 316.11V157.83l111.01 59.35v164.87zm53.85-158.27l67.74-46.9c2.08-1.44 4.12-2.92 6.13-4.45 10.21-7.8 43.63-35.26 49.24-9.1 6.59 30.78-26.38 50.56-26.38 50.56l-96.72 68.15v-58.26zm86.84 91.23l-86.83 62.65v-60.2s68.64-48.91 93.43-64c25.28-15.39 24.18 3.3 24.18 3.3 6.25 31.8-30.78 58.25-30.78 58.25z" fill="url(#SVGID_1_)"/><path fill="#2654b4" d="M454.95 228.26v-5.51c3.77-.1 6.8-.39 9.07-.87 2.27-.48 4.01-1.31 5.22-2.47 1.21-1.16 2.03-2.81 2.47-4.93.44-2.13.65-4.88.65-8.27v-67.63c0-3.39-.17-6.12-.51-8.2-.34-2.08-1.02-3.72-2.03-4.93-1.02-1.21-2.49-2.03-4.43-2.47-1.94-.44-4.45-.75-7.55-.94v-5.51h43.4c13.06 0 23.22 2.32 30.48 6.97 7.26 4.64 10.88 11.18 10.88 19.59 0 6.39-2.01 11.61-6.02 15.67-4.02 4.06-10.38 7.4-19.09 10.01v.58c3 .29 5.61.63 7.84 1.02 2.22.39 4.21.85 5.95 1.38 1.74.53 3.36 1.19 4.86 1.96 1.5.78 2.98 1.65 4.43 2.61 8.61 6.1 12.92 13.74 12.92 22.93 0 5.13-1.43 9.89-4.28 14.3-2.86 4.4-6.85 7.86-11.97 10.38-1.65.87-3.34 1.57-5.08 2.1-1.74.53-3.77.97-6.1 1.31-2.32.34-5.01.58-8.05.73-3.05.15-6.65.22-10.81.22h-52.25zm40.79-62.4c3 0 5.52-.05 7.55-.14 2.03-.1 3.77-.27 5.23-.51 1.45-.24 2.73-.58 3.84-1.02 1.11-.44 2.25-1.04 3.41-1.81 3.1-1.93 5.3-4.26 6.6-6.97 1.31-2.71 1.96-6.24 1.96-10.59 0-7.64-1.86-13.13-5.59-16.47-3.73-3.34-9.56-5.01-17.49-5.01h-11.18c-1.65 0-2.47.82-2.47 2.47v40.06h8.14zm11.9 56.16c17.51 0 26.27-7.5 26.27-22.5 0-10.93-4.5-18.58-13.5-22.93-1.55-.68-3.05-1.26-4.5-1.74-1.45-.48-3.14-.85-5.08-1.09-1.94-.24-4.23-.41-6.89-.51-2.66-.1-5.93-.15-9.8-.15h-6.53v32.36c0 5.9 1.55 10.14 4.64 12.7 3.1 2.58 8.23 3.86 15.39 3.86zM608.5 200.83c0 4.84.19 8.66.58 11.47.39 2.81 1.14 4.98 2.25 6.53 1.11 1.55 2.71 2.56 4.79 3.05 2.08.49 4.81.78 8.2.87v5.51H577.3v-5.51c3.39-.1 6.12-.41 8.2-.94 2.08-.53 3.7-1.52 4.86-2.98 1.16-1.45 1.93-3.51 2.32-6.17.39-2.66.58-6.26.58-10.81v-58.92c0-4.06-.17-7.42-.51-10.09-.34-2.66-1.02-4.76-2.03-6.31-1.02-1.55-2.49-2.63-4.43-3.27-1.94-.63-4.45-1.04-7.55-1.23v-5.51h44.12v5.51c-3.1.1-5.59.49-7.47 1.16-1.89.68-3.34 1.81-4.35 3.41-1.02 1.6-1.69 3.8-2.03 6.6-.34 2.81-.51 6.39-.51 10.74v56.89zM647.4 228.26v-5.51c3.77-.1 6.8-.39 9.07-.87 2.27-.48 4.01-1.31 5.22-2.47 1.21-1.16 2.03-2.81 2.47-4.93.44-2.13.65-4.88.65-8.27v-67.63c0-3.39-.17-6.12-.51-8.2-.34-2.08-1.02-3.72-2.03-4.93-1.02-1.21-2.49-2.03-4.43-2.47-1.94-.44-4.45-.75-7.55-.94v-5.51h43.4c13.06 0 23.22 2.32 30.48 6.97 7.26 4.64 10.89 11.18 10.89 19.59 0 6.39-2.01 11.61-6.02 15.67-4.02 4.06-10.38 7.4-19.09 10.01v.58c3 .29 5.61.63 7.84 1.02 2.22.39 4.21.85 5.95 1.38 1.74.53 3.36 1.19 4.86 1.96 1.5.78 2.98 1.65 4.43 2.61 8.61 6.1 12.92 13.74 12.92 22.93 0 5.13-1.43 9.89-4.28 14.3-2.86 4.4-6.85 7.86-11.97 10.38-1.65.87-3.34 1.57-5.08 2.1-1.74.53-3.77.97-6.1 1.31-2.32.34-5.01.58-8.06.73-3.05.15-6.65.22-10.81.22H647.4zm40.78-62.4c3 0 5.52-.05 7.55-.14 2.03-.1 3.77-.27 5.23-.51 1.45-.24 2.73-.58 3.85-1.02 1.11-.44 2.25-1.04 3.41-1.81 3.1-1.93 5.3-4.26 6.6-6.97 1.31-2.71 1.96-6.24 1.96-10.59 0-7.64-1.86-13.13-5.59-16.47-3.73-3.34-9.56-5.01-17.49-5.01h-11.18c-1.65 0-2.47.82-2.47 2.47v40.06h8.13zm11.9 56.16c17.51 0 26.27-7.5 26.27-22.5 0-10.93-4.5-18.58-13.5-22.93-1.55-.68-3.05-1.26-4.5-1.74-1.45-.48-3.14-.85-5.08-1.09-1.94-.24-4.23-.41-6.89-.51-2.66-.1-5.93-.15-9.8-.15h-6.53v32.36c0 5.9 1.55 10.14 4.64 12.7 3.1 2.58 8.23 3.86 15.39 3.86zM863.5 228.26h-93.75v-5.51c3.39-.1 6.12-.39 8.2-.87 2.08-.48 3.7-1.31 4.86-2.47 1.16-1.16 1.93-2.81 2.32-4.93.39-2.13.58-4.88.58-8.27v-67.63c0-3.39-.17-6.12-.51-8.2-.34-2.08-1.02-3.72-2.03-4.93-1.02-1.21-2.49-2.03-4.43-2.47-1.94-.44-4.45-.75-7.55-.94v-5.51h44.12v5.51c-3.1.1-5.59.39-7.47.87-1.89.49-3.34 1.36-4.35 2.61-1.02 1.26-1.69 3-2.03 5.23-.34 2.23-.51 5.18-.51 8.85v62.55c0 4.06.41 7.38 1.23 9.94.82 2.56 2.23 4.55 4.21 5.95 1.98 1.4 4.62 2.37 7.91 2.9 3.29.53 7.45.8 12.48.8 5.51 0 10.16-.31 13.93-.94 3.77-.63 6.94-1.74 9.51-3.34 2.56-1.6 4.6-3.82 6.1-6.68 1.5-2.85 2.78-6.55 3.85-11.1h5.51l-2.18 28.58zM917.34 166.87c5.23 0 9.6-.31 13.13-.94 3.53-.63 6.34-1.62 8.42-2.97s3.58-3.1 4.5-5.23c.92-2.13 1.38-4.64 1.38-7.55h5.08v39.62h-5.08c0-2.9-.41-5.42-1.23-7.55-.82-2.13-2.27-3.89-4.35-5.3-2.08-1.4-4.89-2.47-8.42-3.19-3.53-.73-8.01-1.09-13.42-1.09v32.8c0 3.19.39 5.83 1.16 7.91.77 2.08 2.1 3.77 3.99 5.08 1.89 1.31 4.38 2.23 7.47 2.76 3.1.53 6.92.8 11.47.8 5.13 0 9.48-.36 13.06-1.09 3.58-.73 6.58-1.96 9-3.7 2.42-1.74 4.35-4.04 5.81-6.89 1.45-2.85 2.66-6.41 3.63-10.67h5.52l-2.18 28.59h-90.13v-5.51c3.39-.1 6.12-.39 8.2-.87 2.08-.48 3.7-1.31 4.86-2.47 1.16-1.16 1.93-2.81 2.32-4.93.39-2.13.58-4.88.58-8.27v-67.63c0-3.39-.17-6.12-.51-8.2-.34-2.08-1.02-3.72-2.03-4.93-1.02-1.21-2.49-2.03-4.43-2.47-1.94-.44-4.45-.75-7.55-.94v-5.51h83.89l1.31 25.54h-5.08c-.58-3.87-1.52-7.04-2.83-9.51-1.31-2.47-3.1-4.43-5.37-5.88-2.27-1.45-5.15-2.47-8.64-3.05-3.48-.58-7.69-.87-12.63-.87h-18.43c-1.65 0-2.47.82-2.47 2.47v41.64z"/><g><path fill="#2654b4" d="M472.64 370.21c2.15 0 4.15.38 6.01 1.14 1.86.76 3.47 1.79 4.83 3.11 1.37 1.32 2.44 2.87 3.22 4.65.78 1.78 1.17 3.71 1.17 5.79 0 1.98-.4 3.83-1.19 5.57-.79 1.73-1.87 3.24-3.24 4.52-1.37 1.28-2.98 2.29-4.83 3.04-1.86.74-3.85 1.12-5.97 1.12-2.12 0-4.11-.37-5.97-1.12-1.86-.74-3.47-1.76-4.83-3.04a14.191 14.191 0 0 1-3.24-4.52c-.79-1.73-1.19-3.59-1.19-5.57 0-2.07.39-4 1.17-5.79.78-1.78 1.86-3.33 3.22-4.65 1.37-1.32 2.98-2.36 4.83-3.11 1.86-.76 3.86-1.14 6.01-1.14zm0 26.92c1.61 0 3.06-.28 4.34-.84a9.295 9.295 0 0 0 3.3-2.42c.92-1.05 1.62-2.32 2.11-3.83.49-1.5.73-3.18.73-5.04 0-1.95-.24-3.72-.73-5.29-.49-1.57-1.18-2.92-2.09-4.03-.9-1.11-2-1.97-3.3-2.56-1.29-.6-2.75-.9-4.36-.9-1.61 0-3.06.3-4.36.9-1.29.6-2.39 1.45-3.3 2.56-.9 1.11-1.6 2.45-2.09 4.03-.49 1.57-.73 3.34-.73 5.29 0 1.86.24 3.53.73 5.04.49 1.5 1.18 2.78 2.09 3.83.9 1.05 2 1.86 3.3 2.42 1.3.56 2.75.84 4.36.84zM500.22 392.95c0 .93.05 1.68.16 2.25.11.57.35 1.01.71 1.32s.88.52 1.56.64c.67.12 1.56.2 2.65.22v1.39h-12.96v-1.39c.85-.02 1.54-.1 2.07-.22.52-.12.93-.33 1.23-.62s.49-.71.59-1.25c.1-.54.15-1.23.15-2.09v-17.07c0-.85-.04-1.54-.13-2.07-.09-.52-.26-.94-.51-1.25-.26-.3-.63-.51-1.12-.62-.49-.11-1.12-.19-1.9-.24v-1.39h21.17l.4 6.99H513c-.15-1.05-.38-1.91-.7-2.58-.32-.67-.76-1.2-1.34-1.59-.57-.39-1.3-.67-2.18-.82-.88-.16-1.98-.24-3.3-.24h-4.65c-.42 0-.62.21-.62.62V384c1.17 0 2.18-.07 3.02-.2.84-.13 1.54-.37 2.09-.71.55-.34.97-.81 1.26-1.39s.48-1.34.55-2.27h1.28v10.73h-1.28c-.12-.93-.32-1.7-.59-2.31a3.23 3.23 0 0 0-1.19-1.43c-.53-.34-1.2-.59-2.03-.73-.83-.15-1.87-.22-3.11-.22v7.48zM554.71 377.57h-1.5c-.07-1.05-.24-1.93-.51-2.64-.27-.71-.65-1.26-1.15-1.67-.5-.4-1.13-.69-1.89-.86-.76-.17-1.66-.26-2.71-.26-.9 0-1.63.02-2.18.05s-.97.1-1.26.2c-.29.1-.48.21-.57.35-.09.13-.13.31-.13.53v19.59c0 .78.05 1.45.16 2.01.11.56.33 1.02.66 1.37.33.35.81.62 1.43.81.62.18 1.45.29 2.47.31v1.39h-13.84v-1.39c1.03-.02 1.86-.13 2.49-.31.63-.18 1.12-.45 1.45-.81s.55-.81.66-1.37c.11-.56.17-1.23.17-2.01v-19.59c0-.22-.04-.4-.13-.53s-.26-.25-.51-.35c-.26-.1-.62-.16-1.08-.2s-1.09-.05-1.87-.05c-.95 0-1.84.04-2.66.11-.82.07-1.53.29-2.12.64-.6.35-1.08.9-1.45 1.63-.37.73-.56 1.75-.59 3.04h-1.36v-6.99h27.65l.37 7zM584.74 392.95c0 .93.05 1.68.15 2.25.1.57.29 1.01.57 1.32.28.3.68.52 1.21.64.52.12 1.21.2 2.07.22v1.39h-11.86v-1.39c.85-.02 1.54-.1 2.07-.22.52-.12.93-.33 1.23-.62s.49-.71.59-1.25c.1-.54.15-1.23.15-2.09v-7.95h-14.83v7.69c0 .93.05 1.68.15 2.25.1.57.29 1.01.57 1.32.28.3.68.52 1.21.64.52.12 1.21.2 2.07.22v1.39h-11.87v-1.39c.85-.02 1.54-.1 2.07-.22.52-.12.93-.33 1.23-.62s.49-.71.59-1.25c.1-.54.15-1.23.15-2.09v-17.07c0-.85-.04-1.54-.13-2.07-.09-.52-.26-.94-.51-1.25-.26-.3-.63-.51-1.12-.62-.49-.11-1.12-.19-1.9-.24v-1.39h11.13v1.39c-.78.02-1.41.1-1.89.22s-.84.34-1.1.66c-.26.32-.43.76-.51 1.32-.09.56-.13 1.31-.13 2.23v7.03h14.83v-7.29c0-.85-.04-1.54-.13-2.07-.09-.52-.26-.94-.51-1.25-.26-.3-.63-.51-1.12-.62-.49-.11-1.12-.19-1.9-.24v-1.39h11.13v1.39c-.78.02-1.41.1-1.89.22s-.84.34-1.1.66c-.26.32-.43.76-.51 1.32-.09.56-.13 1.31-.13 2.23v16.59zM601.15 383.28c1.32 0 2.42-.08 3.31-.24.89-.16 1.6-.41 2.12-.75s.9-.78 1.13-1.32c.23-.54.35-1.17.35-1.9h1.28v10h-1.28c0-.73-.1-1.37-.31-1.91-.21-.54-.57-.98-1.1-1.34-.53-.35-1.23-.62-2.12-.81-.89-.18-2.02-.27-3.39-.27v8.28c0 .81.1 1.47.29 2 .2.52.53.95 1.01 1.28.48.33 1.1.56 1.89.7.78.14 1.75.2 2.89.2 1.29 0 2.39-.09 3.3-.27.9-.18 1.66-.49 2.27-.93.61-.44 1.1-1.02 1.46-1.74.37-.72.67-1.62.92-2.69h1.39l-.55 7.21h-22.74v-1.39c.85-.02 1.54-.1 2.07-.22.52-.12.93-.33 1.23-.62s.49-.71.59-1.25.15-1.23.15-2.09v-17.07c0-.85-.04-1.54-.13-2.07-.09-.52-.26-.94-.51-1.25-.26-.3-.63-.51-1.12-.62-.49-.11-1.12-.19-1.9-.24v-1.39h21.17l.33 6.44h-1.28c-.15-.98-.38-1.78-.71-2.4s-.78-1.12-1.36-1.48c-.57-.37-1.3-.62-2.18-.77-.88-.15-1.94-.22-3.19-.22h-4.65c-.42 0-.62.21-.62.62v10.52zM633.26 390.17h1.35c.17 1.1.49 2.09.97 2.97.48.88 1.07 1.62 1.79 2.23.72.61 1.55 1.08 2.49 1.41.94.33 1.96.49 3.06.49 1.81 0 3.24-.43 4.28-1.28s1.57-2.01 1.57-3.48c0-.61-.1-1.17-.31-1.69-.21-.51-.55-1.01-1.04-1.48-.49-.48-1.14-.95-1.96-1.41-.82-.46-1.85-.96-3.1-1.5-1.51-.66-2.78-1.29-3.81-1.9-1.03-.61-1.84-1.25-2.45-1.9-.61-.66-1.04-1.36-1.3-2.11-.26-.74-.38-1.59-.38-2.54 0-1.12.2-2.16.6-3.11.4-.95.97-1.78 1.7-2.47.73-.7 1.6-1.23 2.6-1.61 1-.38 2.1-.57 3.3-.57 1.07 0 2.07.17 3 .51.93.34 1.87.89 2.82 1.65l.95-1.65h.84l.4 7.29h-1.35c-.59-2-1.44-3.49-2.54-4.47-1.11-.98-2.45-1.47-4.01-1.47-1.49 0-2.67.37-3.55 1.1-.88.73-1.32 1.72-1.32 2.97 0 .58.1 1.12.29 1.59.2.48.51.93.95 1.35.44.43 1.01.86 1.72 1.28.71.43 1.59.87 2.64 1.34 1.81.81 3.31 1.56 4.5 2.25 1.2.7 2.15 1.39 2.86 2.09s1.21 1.43 1.5 2.2c.29.77.44 1.63.44 2.58 0 1.22-.24 2.34-.73 3.37a7.755 7.755 0 0 1-2.05 2.64c-.88.73-1.93 1.3-3.15 1.7-1.22.4-2.56.6-4.03.6-1.39 0-2.64-.2-3.75-.59-1.11-.39-2.24-1.05-3.39-1.98l-1.03 1.79h-.84l-.53-8.19zM673.29 370.21c2.15 0 4.15.38 6.01 1.14 1.85.76 3.47 1.79 4.83 3.11 1.37 1.32 2.44 2.87 3.22 4.65.78 1.78 1.17 3.71 1.17 5.79 0 1.98-.4 3.83-1.19 5.57-.79 1.73-1.87 3.24-3.24 4.52-1.37 1.28-2.98 2.29-4.83 3.04-1.86.74-3.85 1.12-5.97 1.12s-4.11-.37-5.97-1.12c-1.86-.74-3.47-1.76-4.83-3.04a14.191 14.191 0 0 1-3.24-4.52c-.79-1.73-1.19-3.59-1.19-5.57 0-2.07.39-4 1.17-5.79.78-1.78 1.85-3.33 3.22-4.65 1.37-1.32 2.98-2.36 4.83-3.11 1.86-.76 3.86-1.14 6.01-1.14zm0 26.92c1.61 0 3.06-.28 4.34-.84s2.38-1.37 3.3-2.42c.92-1.05 1.62-2.32 2.11-3.83.49-1.5.73-3.18.73-5.04 0-1.95-.24-3.72-.73-5.29-.49-1.57-1.18-2.92-2.09-4.03-.9-1.11-2-1.97-3.3-2.56-1.29-.6-2.75-.9-4.36-.9-1.61 0-3.06.3-4.36.9-1.29.6-2.39 1.45-3.3 2.56-.9 1.11-1.6 2.45-2.09 4.03-.49 1.57-.73 3.34-.73 5.29 0 1.86.24 3.53.73 5.04.49 1.5 1.18 2.78 2.09 3.83.9 1.05 2 1.86 3.3 2.42 1.3.56 2.75.84 4.36.84zM717.82 387.42c0 1.93-.19 3.63-.57 5.09-.38 1.46-.99 2.69-1.83 3.66-.84.98-1.94 1.72-3.28 2.22-1.34.5-2.97.75-4.87.75-1.81 0-3.38-.18-4.72-.53-1.34-.35-2.47-.94-3.37-1.76-.9-.82-1.57-1.89-2.01-3.21-.44-1.32-.66-2.94-.66-4.87v-9.67c0-1.81-.04-3.2-.13-4.17-.09-.98-.34-1.7-.75-2.16-.29-.32-.69-.53-1.19-.64-.5-.11-1.17-.17-2-.17v-1.39h12.49v1.39c-.83 0-1.5.05-2.01.15-.51.1-.92.34-1.21.73-.34.44-.56 1.14-.66 2.11-.1.96-.15 2.35-.15 4.16v9.96c0 1.25.13 2.35.38 3.31.26.96.68 1.78 1.26 2.45.59.67 1.35 1.18 2.29 1.52.94.34 2.09.51 3.46.51 2.44 0 4.27-.68 5.49-2.03 1.22-1.35 1.83-3.35 1.83-5.99v-8.83c0-2.17-.09-3.82-.26-4.94-.17-1.12-.49-1.92-.95-2.38-.34-.32-.77-.52-1.28-.6-.51-.08-1.15-.13-1.91-.13v-1.39h10.62v1.39c-.78 0-1.42.06-1.92.18s-.9.39-1.19.81c-.37.51-.61 1.31-.73 2.4-.12 1.09-.18 2.64-.18 4.67v7.4zM752.91 377.57h-1.5c-.07-1.05-.24-1.93-.51-2.64-.27-.71-.65-1.26-1.15-1.67-.5-.4-1.13-.69-1.89-.86-.76-.17-1.66-.26-2.71-.26-.9 0-1.63.02-2.18.05s-.97.1-1.26.2c-.29.1-.48.21-.57.35-.09.13-.13.31-.13.53v19.59c0 .78.05 1.45.16 2.01.11.56.33 1.02.66 1.37.33.35.81.62 1.43.81.62.18 1.45.29 2.47.31v1.39h-13.84v-1.39c1.03-.02 1.86-.13 2.49-.31.63-.18 1.12-.45 1.45-.81s.55-.81.66-1.37c.11-.56.17-1.23.17-2.01v-19.59c0-.22-.04-.4-.13-.53s-.26-.25-.51-.35c-.26-.1-.62-.16-1.08-.2-.46-.04-1.09-.05-1.87-.05-.95 0-1.84.04-2.66.11-.82.07-1.53.29-2.12.64-.6.35-1.08.9-1.45 1.63-.37.73-.56 1.75-.59 3.04h-1.36v-6.99h27.65l.37 7zM782.94 392.95c0 .93.05 1.68.15 2.25.1.57.29 1.01.57 1.32.28.3.68.52 1.21.64.52.12 1.21.2 2.07.22v1.39h-11.87v-1.39c.85-.02 1.54-.1 2.07-.22.52-.12.93-.33 1.23-.62s.49-.71.59-1.25c.1-.54.15-1.23.15-2.09v-7.95h-14.83v7.69c0 .93.05 1.68.15 2.25.1.57.29 1.01.57 1.32.28.3.68.52 1.21.64.52.12 1.21.2 2.07.22v1.39h-11.87v-1.39c.85-.02 1.54-.1 2.07-.22.52-.12.93-.33 1.23-.62s.49-.71.59-1.25c.1-.54.15-1.23.15-2.09v-17.07c0-.85-.04-1.54-.13-2.07-.09-.52-.26-.94-.51-1.25-.26-.3-.63-.51-1.12-.62-.49-.11-1.12-.19-1.9-.24v-1.39h11.13v1.39c-.78.02-1.41.1-1.89.22s-.84.34-1.1.66c-.26.32-.43.76-.51 1.32-.09.56-.13 1.31-.13 2.23v7.03h14.83v-7.29c0-.85-.04-1.54-.13-2.07-.09-.52-.26-.94-.51-1.25-.26-.3-.63-.51-1.12-.62-.49-.11-1.12-.19-1.9-.24v-1.39h11.13v1.39c-.78.02-1.41.1-1.89.22s-.84.34-1.1.66c-.26.32-.43.76-.51 1.32-.09.56-.13 1.31-.13 2.23v16.59zM825.64 377.64c0 1.29-.21 2.45-.62 3.48a6.329 6.329 0 0 1-1.96 2.6c-.89.71-2.05 1.26-3.48 1.65-1.43.39-3.17.58-5.22.58h-3.3v7.07c0 .9.05 1.64.16 2.22.11.57.34 1.02.7 1.34.35.32.87.53 1.54.64.67.11 1.56.16 2.65.16v1.39h-12.93v-1.39c.85-.02 1.54-.1 2.07-.22.52-.12.93-.33 1.23-.62s.49-.71.59-1.25.15-1.23.15-2.09v-17.07c0-.85-.04-1.54-.13-2.07-.09-.52-.26-.94-.51-1.25-.26-.3-.63-.51-1.12-.62-.49-.11-1.12-.19-1.9-.24v-1.39h11.5c3.37 0 5.98.62 7.82 1.87s2.76 2.99 2.76 5.21zm-14.58 6.49h2.6c2.44 0 4.25-.47 5.44-1.41 1.18-.94 1.78-2.48 1.78-4.63 0-2.07-.47-3.56-1.41-4.45-.94-.89-2.41-1.34-4.41-1.34h-3.37c-.42 0-.62.21-.62.62v11.21zM843.65 388.56h-9.78c-.42 1-.77 1.89-1.06 2.65-.29.77-.53 1.44-.71 2-.18.56-.31 1.04-.38 1.43-.07.39-.11.71-.11.95 0 .68.22 1.15.66 1.41.44.26 1.17.38 2.2.38v1.39h-8.9v-1.39c.56-.07 1.04-.17 1.45-.29.4-.12.76-.29 1.06-.51.31-.22.57-.51.81-.86.23-.35.46-.79.68-1.3l9.52-23.84h1.57l8.31 20.65c.56 1.37 1.05 2.46 1.47 3.28.41.82.82 1.44 1.21 1.85.39.42.81.68 1.26.81.45.12.99.18 1.63.18v1.43H842.6v-1.43c1.29 0 2.18-.12 2.67-.37.49-.24.73-.65.73-1.21 0-.24-.01-.47-.04-.68-.02-.21-.07-.43-.13-.68s-.15-.52-.26-.82c-.11-.3-.25-.66-.42-1.08l-1.5-3.95zm-9.04-1.83h8.35l-4.06-10.8-4.29 10.8zM879.76 370.58h1.03l.33 8.42h-1.35c-.54-2.15-1.57-3.83-3.11-5.05-1.54-1.22-3.39-1.83-5.57-1.83-1.49 0-2.82.29-3.99.88a8.277 8.277 0 0 0-2.97 2.53c-.81 1.1-1.42 2.44-1.85 4.03-.43 1.59-.64 3.38-.64 5.38 0 3.93.82 6.95 2.45 9.06 1.64 2.11 4 3.17 7.1 3.17 4.71 0 7.74-2.5 9.08-7.51h1.5v9.12h-1.28l-.84-2.89c-2.56 2.17-5.67 3.26-9.3 3.26-2.07 0-3.95-.33-5.62-.99-1.67-.66-3.1-1.59-4.28-2.8s-2.1-2.68-2.75-4.41c-.65-1.73-.97-3.66-.97-5.79 0-2.22.34-4.25 1.03-6.08.68-1.83 1.64-3.41 2.88-4.72 1.23-1.32 2.71-2.34 4.43-3.06 1.72-.72 3.62-1.08 5.7-1.08 1.46 0 2.84.21 4.14.62 1.29.42 2.7 1.09 4.21 2.01l.64-2.27zM894.63 391.85c0 1.22.05 2.18.15 2.89.1.71.29 1.26.57 1.65.28.39.68.65 1.21.77.52.12 1.21.2 2.07.22v1.39h-11.87v-1.39c.85-.02 1.54-.1 2.07-.24.52-.13.93-.39 1.23-.75.29-.37.49-.88.59-1.56.1-.67.15-1.58.15-2.73v-14.87c0-1.03-.04-1.87-.13-2.54-.09-.67-.26-1.2-.51-1.59a2.01 2.01 0 0 0-1.12-.82c-.49-.16-1.12-.26-1.9-.31v-1.39h11.13v1.39c-.78.02-1.41.12-1.89.29-.48.17-.84.46-1.1.86-.26.4-.43.96-.51 1.67-.09.71-.13 1.61-.13 2.71v14.35zM911.04 392.95c0 .93.05 1.68.16 2.25.11.57.35 1.01.71 1.32s.88.52 1.56.64c.67.12 1.56.2 2.65.22v1.39h-12.96v-1.39c.85-.02 1.54-.1 2.07-.22.52-.12.93-.33 1.23-.62s.49-.71.59-1.25c.1-.54.15-1.23.15-2.09v-17.07c0-.85-.04-1.54-.13-2.07-.09-.52-.26-.94-.51-1.25-.26-.3-.63-.51-1.12-.62-.49-.11-1.12-.19-1.9-.24v-1.39h21.17l.4 6.99h-1.28c-.15-1.05-.38-1.91-.7-2.58-.32-.67-.76-1.2-1.34-1.59-.57-.39-1.3-.67-2.18-.82-.88-.16-1.98-.24-3.3-.24h-4.65c-.42 0-.62.21-.62.62V384c1.17 0 2.18-.07 3.02-.2.84-.13 1.54-.37 2.09-.71.55-.34.97-.81 1.26-1.39s.48-1.34.55-2.27h1.28v10.73h-1.28c-.12-.93-.32-1.7-.59-2.31a3.23 3.23 0 0 0-1.19-1.43c-.53-.34-1.2-.59-2.03-.73-.83-.15-1.87-.22-3.11-.22v7.48zM936.78 391.85c0 1.22.05 2.18.15 2.89.1.71.29 1.26.57 1.65.28.39.68.65 1.21.77.52.12 1.21.2 2.07.22v1.39h-11.87v-1.39c.85-.02 1.54-.1 2.07-.24.52-.13.93-.39 1.23-.75.29-.37.49-.88.59-1.56.1-.67.15-1.58.15-2.73v-14.87c0-1.03-.04-1.87-.13-2.54-.09-.67-.26-1.2-.51-1.59a2.01 2.01 0 0 0-1.12-.82c-.49-.16-1.12-.26-1.9-.31v-1.39h11.13v1.39c-.78.02-1.41.12-1.89.29-.48.17-.84.46-1.1.86-.26.4-.43.96-.51 1.67-.09.71-.13 1.61-.13 2.71v14.35zM968.5 370.58h1.03l.33 8.42h-1.35c-.54-2.15-1.57-3.83-3.11-5.05-1.54-1.22-3.39-1.83-5.57-1.83-1.49 0-2.82.29-3.99.88s-2.16 1.43-2.97 2.53c-.8 1.1-1.42 2.44-1.85 4.03-.43 1.59-.64 3.38-.64 5.38 0 3.93.82 6.95 2.45 9.06 1.64 2.11 4 3.17 7.1 3.17 4.71 0 7.74-2.5 9.08-7.51h1.5v9.12h-1.28l-.84-2.89c-2.56 2.17-5.67 3.26-9.3 3.26-2.07 0-3.95-.33-5.62-.99-1.67-.66-3.1-1.59-4.28-2.8-1.18-1.21-2.1-2.68-2.75-4.41-.65-1.73-.97-3.66-.97-5.79 0-2.22.34-4.25 1.03-6.08.68-1.83 1.64-3.41 2.88-4.72 1.23-1.32 2.71-2.34 4.43-3.06 1.72-.72 3.62-1.08 5.7-1.08 1.46 0 2.84.21 4.14.62 1.29.42 2.7 1.09 4.21 2.01l.64-2.27z"/></g><g><path fill="#2654b4" d="M458.28 313.11h3.71c.47 3.01 1.36 5.72 2.66 8.13 1.3 2.41 2.94 4.45 4.92 6.12 1.97 1.67 4.25 2.96 6.83 3.87 2.58.9 5.37 1.35 8.38 1.35 4.95 0 8.87-1.17 11.74-3.51 2.88-2.34 4.32-5.52 4.32-9.53 0-1.67-.29-3.21-.85-4.62-.57-1.41-1.52-2.76-2.86-4.06-1.34-1.31-3.13-2.59-5.37-3.86s-5.07-2.64-8.48-4.12c-4.15-1.81-7.63-3.55-10.44-5.22-2.81-1.67-5.05-3.41-6.72-5.22-1.67-1.81-2.86-3.73-3.56-5.77-.7-2.04-1.05-4.37-1.05-6.98 0-3.08.55-5.92 1.66-8.53a19.92 19.92 0 0 1 4.67-6.78c2.01-1.91 4.38-3.38 7.13-4.42 2.74-1.04 5.75-1.56 9.03-1.56 2.94 0 5.69.47 8.23 1.41s5.12 2.44 7.73 4.52l2.61-4.52h2.31l1.1 19.97h-3.71c-1.61-5.49-3.93-9.57-6.98-12.24-3.05-2.68-6.71-4.01-10.99-4.01-4.08 0-7.33 1-9.74 3.01s-3.61 4.72-3.61 8.13c0 1.61.27 3.06.8 4.37.54 1.31 1.41 2.54 2.61 3.71s2.78 2.34 4.72 3.51 4.35 2.39 7.23 3.66c4.95 2.21 9.07 4.27 12.35 6.17 3.28 1.91 5.89 3.81 7.83 5.72 1.94 1.91 3.31 3.91 4.12 6.02.8 2.11 1.2 4.47 1.2 7.08 0 3.35-.67 6.42-2.01 9.23-1.34 2.81-3.21 5.22-5.62 7.23s-5.29 3.56-8.63 4.67c-3.35 1.1-7.03 1.66-11.04 1.66-3.81 0-7.24-.54-10.29-1.61-3.05-1.07-6.14-2.88-9.28-5.42l-2.81 4.92h-2.31l-1.54-22.48zM567.78 258.41c5.89 0 11.37 1.04 16.46 3.11 5.08 2.07 9.5 4.92 13.25 8.53 3.75 3.61 6.69 7.86 8.83 12.75 2.14 4.88 3.21 10.17 3.21 15.86 0 5.42-1.09 10.51-3.26 15.26-2.18 4.75-5.14 8.88-8.88 12.4-3.75 3.51-8.16 6.29-13.25 8.33s-10.54 3.06-16.36 3.06-11.28-1.02-16.36-3.06c-5.09-2.04-9.5-4.82-13.25-8.33s-6.71-7.64-8.88-12.4c-2.17-4.75-3.26-9.84-3.26-15.26 0-5.69 1.07-10.97 3.21-15.86 2.14-4.88 5.08-9.13 8.83-12.75 3.75-3.61 8.16-6.46 13.25-8.53 5.08-2.07 10.57-3.11 16.46-3.11zm0 73.77c4.42 0 8.38-.77 11.89-2.31s6.52-3.75 9.03-6.62c2.51-2.88 4.43-6.37 5.77-10.49 1.34-4.12 2.01-8.72 2.01-13.8 0-5.35-.67-10.19-2.01-14.5-1.34-4.32-3.25-8-5.72-11.04-2.48-3.04-5.49-5.39-9.03-7.03-3.55-1.64-7.53-2.46-11.94-2.46-4.42 0-8.4.82-11.94 2.46a24.912 24.912 0 0 0-9.03 7.03c-2.48 3.05-4.38 6.73-5.72 11.04-1.34 4.32-2.01 9.15-2.01 14.5 0 5.09.67 9.69 2.01 13.8 1.34 4.12 3.24 7.61 5.72 10.49 2.47 2.88 5.49 5.09 9.03 6.62 3.54 1.54 7.52 2.31 11.94 2.31zM687.52 259.41h2.81l.9 23.08h-3.71c-1.47-5.89-4.32-10.5-8.53-13.85-4.22-3.35-9.3-5.02-15.26-5.02-4.08 0-7.73.8-10.94 2.41-3.21 1.61-5.92 3.91-8.13 6.93-2.21 3.01-3.9 6.69-5.07 11.04-1.17 4.35-1.76 9.27-1.76 14.75 0 10.77 2.24 19.05 6.72 24.84 4.48 5.79 10.97 8.68 19.47 8.68 12.91 0 21.21-6.86 24.89-20.58h4.12v24.99h-3.51l-2.31-7.93c-7.03 5.96-15.52 8.93-25.49 8.93-5.69 0-10.82-.9-15.41-2.71-4.58-1.81-8.5-4.37-11.74-7.68-3.25-3.31-5.76-7.34-7.53-12.09-1.77-4.75-2.66-10.04-2.66-15.86 0-6.09.94-11.64 2.81-16.66s4.5-9.33 7.88-12.95c3.38-3.61 7.43-6.41 12.14-8.38 4.72-1.97 9.92-2.96 15.61-2.96 4.02 0 7.79.57 11.34 1.71 3.55 1.14 7.39 2.98 11.54 5.52l1.82-6.21zM728.07 317.73c0 3.35.13 5.99.4 7.93.27 1.94.79 3.45 1.56 4.52.77 1.07 1.87 1.77 3.31 2.11 1.44.33 3.33.54 5.67.6v3.81h-32.52v-3.81c2.34-.07 4.23-.28 5.67-.65 1.44-.37 2.56-1.05 3.36-2.06s1.34-2.42 1.61-4.27c.27-1.84.4-4.33.4-7.48v-40.75c0-2.81-.12-5.13-.35-6.98-.24-1.84-.7-3.3-1.41-4.37-.7-1.07-1.72-1.82-3.06-2.26-1.34-.43-3.08-.72-5.22-.85v-3.81H738v3.81c-2.14.07-3.86.34-5.17.8-1.31.47-2.31 1.25-3.01 2.36-.7 1.1-1.17 2.63-1.41 4.57-.24 1.94-.35 4.42-.35 7.43v39.35zM772.83 294.24c3.61 0 6.64-.22 9.08-.65 2.44-.43 4.38-1.12 5.82-2.06 1.44-.94 2.48-2.14 3.11-3.61.64-1.47.95-3.21.95-5.22h3.51v27.4h-3.51c0-2.01-.29-3.75-.85-5.22-.57-1.47-1.57-2.69-3.01-3.66-1.44-.97-3.38-1.71-5.82-2.21-2.44-.5-5.54-.75-9.28-.75v22.68c0 2.21.27 4.03.8 5.47.53 1.44 1.46 2.61 2.76 3.51 1.31.9 3.03 1.54 5.17 1.91 2.14.37 4.78.55 7.93.55 3.55 0 6.56-.25 9.03-.75 2.47-.5 4.55-1.36 6.22-2.56s3.01-2.79 4.02-4.77c1-1.97 1.84-4.43 2.51-7.38h3.81l-1.51 19.77h-62.33v-3.81c2.34-.07 4.23-.27 5.67-.6 1.44-.33 2.56-.9 3.36-1.71s1.34-1.94 1.61-3.41c.27-1.47.4-3.38.4-5.72v-46.77c0-2.34-.12-4.23-.35-5.67-.24-1.44-.7-2.58-1.41-3.41-.7-.84-1.72-1.41-3.06-1.71-1.34-.3-3.08-.52-5.22-.65v-3.81h58.01l.9 17.67h-3.51c-.4-2.68-1.05-4.87-1.96-6.57-.9-1.71-2.14-3.06-3.71-4.07-1.57-1-3.56-1.71-5.97-2.11-2.41-.4-5.32-.6-8.73-.6h-12.75c-1.14 0-1.71.57-1.71 1.71v28.79zM901.61 278.58h-4.12c-.2-2.88-.67-5.29-1.41-7.23-.74-1.94-1.79-3.46-3.16-4.57-1.37-1.1-3.1-1.89-5.17-2.36s-4.55-.7-7.43-.7c-2.48 0-4.47.05-5.97.15-1.5.1-2.66.29-3.46.55-.8.27-1.32.59-1.56.95-.24.37-.35.85-.35 1.45v53.7c0 2.14.15 3.98.45 5.52.3 1.54.9 2.8 1.81 3.76.9.97 2.21 1.71 3.91 2.21 1.71.5 3.97.79 6.78.85v3.81H844v-3.81c2.81-.07 5.08-.35 6.83-.85 1.74-.5 3.06-1.24 3.97-2.21.9-.97 1.5-2.22 1.81-3.76.3-1.54.45-3.38.45-5.52v-53.7c0-.6-.12-1.09-.35-1.45-.24-.37-.7-.69-1.41-.95-.7-.27-1.69-.45-2.96-.55-1.27-.1-2.98-.15-5.12-.15-2.61 0-5.04.1-7.28.3-2.24.2-4.18.79-5.82 1.76-1.64.97-2.96 2.46-3.96 4.47s-1.54 4.79-1.61 8.33h-3.71v-19.17h75.78l.99 19.17zM917.87 271.86c-1-1.74-1.94-3.16-2.81-4.27-.87-1.1-1.76-1.99-2.66-2.66-.9-.67-1.86-1.12-2.86-1.36-1-.23-2.21-.35-3.61-.35v-3.81h31.62v3.81c-3.35 0-5.7.25-7.08.75-1.37.5-2.06 1.39-2.06 2.66 0 1.41.77 3.41 2.31 6.02l15.56 26.6h.4l11.34-19.07c2.14-3.61 3.66-6.46 4.57-8.53.9-2.07 1.36-3.75 1.36-5.02 0-1.27-.49-2.16-1.46-2.66s-2.66-.75-5.07-.75v-3.81h22.99v3.81c-1.41 0-2.66.2-3.76.6-1.1.4-2.26 1.2-3.46 2.41-1.2 1.21-2.53 2.88-3.97 5.02-1.44 2.14-3.2 4.95-5.27 8.43l-15.46 26.1v11.94c0 3.28.12 5.91.35 7.88.23 1.98.74 3.5 1.51 4.57.77 1.07 1.87 1.79 3.31 2.16 1.44.37 3.36.55 5.77.55v3.81H926.9v-3.81c2.41 0 4.33-.18 5.77-.55 1.44-.37 2.54-1.07 3.31-2.11.77-1.04 1.29-2.49 1.56-4.37.27-1.87.4-4.35.4-7.43v-12.24l-20.07-34.32z"/></g><path fill="#33edec" d="M449.59 101.78H984v5.43H449.59zM449.59 352.71H984v5.43H449.59zM449.59 412.39H984v5.43H449.59z"/></g></svg>
