<svg xmlns="http://www.w3.org/2000/svg" viewBox="0 0 767.5 110.9"><g enable-background="new"><path fill="#407eb5" d="M159.9 54.8c2.6 1.1 4.4 2.5 5.5 4.2 1.5 2.3 2.3 5.3 2.3 9 0 3.9-.8 7.1-2.5 9.6-2 3.1-5 4.6-8.9 4.6h-13.9v-1.4c1.3 0 2.1-.2 2.6-.7.5-.4.8-1 .9-1.7s.3-2.5.3-5.3V39.6c0-2.8-.1-4.6-.3-5.3s-.5-1.3-1-1.7c-.5-.4-1.3-.6-2.6-.6v-1.4h13.1c3.1 0 5.4.5 6.7 1.6 1.3 1.1 2.3 2.6 3.1 4.7.8 2.1 1.1 4.3 1.1 6.7 0 2.5-.5 4.7-1.4 6.7-.9 1.8-2.6 3.4-5 4.5zm-7.4 2v18.5c0 1.4.2 2.4.6 3.1.4.7.9 1 1.6 1 1.1 0 2.1-.5 3-1.4.9-.9 1.6-2.2 2.1-3.9.5-1.7.7-3.6.7-5.7 0-2.4-.3-4.6-.9-6.5-.6-1.9-1.4-3.3-2.4-4-1.1-.8-2.6-1.2-4.7-1.1zm0-3c1.9 0 3.3-.4 4.2-1.2.9-.8 1.6-2 2.1-3.4.5-1.5.7-3.4.7-5.6s-.2-4.2-.7-5.6c-.5-1.5-1.2-2.6-2-3.3s-2.3-1.1-4.3-1.1v20.2zM186.3 67.5h-9.7l-1.2 5c-.4 1.7-.6 3.1-.6 4.2 0 1.4.3 2.5.9 3.2.4.4 1.3.7 2.7.9v1.4h-9.1v-1.4c1-.3 1.8-1 2.4-2.3.6-1.3 1.4-3.9 2.3-7.8l9.8-41.2h.4l9.9 42.4c.9 4 1.7 6.5 2.3 7.6.5.8 1.1 1.2 1.9 1.4v1.4h-13.2v-1.4h.5c1.1 0 1.8-.3 2.2-.8.3-.4.4-1 .4-1.8 0-.5 0-.9-.1-1.4 0-.2-.2-1.2-.6-2.9l-1.2-6.5zm-.7-2.8l-4.1-17.8-4.2 17.8h8.3zM209.2 30.5l13.5 32V40.4c0-3.1-.2-5.2-.7-6.3-.6-1.5-1.7-2.2-3.3-2.1v-1.4h9V32c-1.2.3-1.9.6-2.3 1.1-.4.4-.7 1.2-.9 2.2-.2 1-.3 2.7-.3 5.2v43h-.7l-18.5-43v32.8c0 3 .4 5 1.1 6 .7 1 1.5 1.6 2.5 1.6h.6v1.4h-9.7v-1.4c1.5 0 2.6-.6 3.2-1.8.6-1.1.9-3.1.9-5.8V36.8l-.6-1.4c-.6-1.4-1.1-2.3-1.5-2.7-.4-.4-1.1-.7-1.9-.7v-1.4h9.6zM257.4 29.4v18.2h-.7c-.9-5-2.3-8.8-4.1-11.4s-3.8-3.9-5.9-3.9c-2 0-3.8 1.1-5.1 3.3-1.4 2.2-2.3 5.2-2.9 9.1-.6 3.9-.8 7.9-.8 12 0 5 .3 9.3.9 13 .6 3.7 1.6 6.5 3 8.2 1.4 1.8 3 2.6 4.9 2.6.7 0 1.3-.1 2-.4.7-.3 1.4-.7 2.1-1.2V68.2c0-2-.1-3.3-.2-3.9-.1-.6-.5-1.1-.9-1.6-.5-.5-1-.7-1.7-.7h-.7v-1.4h13.3V62c-1 .1-1.7.4-2.1.8-.4.4-.7 1-.9 2-.1.5-.2 1.7-.2 3.5V79c-1.8 1.5-3.6 2.6-5.5 3.3-1.9.7-3.9 1.1-5.9 1.1-2.6 0-4.8-.7-6.5-2s-3.2-3.1-4.5-5.3c-1.3-2.2-2.3-4.6-3.1-7.3-.9-3.5-1.4-7.4-1.4-11.8 0-7.8 1.4-14.3 4.3-19.7 2.9-5.4 6.5-8 10.9-8 1.4 0 2.6.2 3.7.6.6.2 1.6.8 2.9 1.7 1.3 1 2.1 1.4 2.4 1.4.4 0 .7-.3 1.1-.8.3-.5.6-1.5.9-3h.7zM287.1 64.1l-1 18.1h-24.3v-1.4h.9c.8 0 1.4-.3 1.9-.8.4-.4.6-1 .8-1.8.1-.6.2-2.2.2-4.8v-34c0-2.6-.1-4.3-.2-5-.1-.7-.4-1.2-.9-1.7s-1.1-.7-1.8-.7h-.9v-1.4h14.6V32h-1.2c-.8 0-1.4.3-1.9.8-.3.4-.6 1-.8 1.8-.1.6-.2 2.2-.2 4.8v32.9c0 2.6.1 4.3.2 5 .2.7.5 1.3.9 1.6.3.2 1.2.3 2.4.3h2.3c1.5 0 2.7-.5 3.6-1.4 1-1 1.8-2.5 2.5-4.6.7-2.1 1.4-5.2 2-9.2h.9zM305.8 67.5h-9.7l-1.2 5c-.4 1.7-.6 3.1-.6 4.2 0 1.4.3 2.5.9 3.2.4.4 1.3.7 2.7.9v1.4h-9.1v-1.4c1-.3 1.8-1 2.4-2.3.6-1.3 1.4-3.9 2.3-7.8l9.8-41.2h.4l9.9 42.4c.9 4 1.7 6.5 2.3 7.6.5.8 1.1 1.2 1.9 1.4v1.4h-13.3v-1.4h.5c1.1 0 1.8-.3 2.2-.8.3-.4.4-1 .4-1.8 0-.5 0-.9-.1-1.4 0-.2-.2-1.2-.6-2.9l-1.1-6.5zm-.7-2.8L301 46.9l-4.2 17.8h8.3zM319 82.2v-1.4h.9c.8 0 1.4-.2 1.8-.7.4-.5.7-1.1.9-1.9.1-.5.2-2.1.2-4.8v-34c0-2.6-.1-4.3-.2-5-.1-.7-.4-1.2-.9-1.7s-1.1-.7-1.8-.7h-.9v-1.4h12.3c3.3 0 5.9.8 7.9 2.5 2.4 2.1 4.3 5.2 5.5 9.3 1.3 4.2 1.9 8.9 1.9 14.1 0 3.6-.3 7-.9 10s-1.4 5.6-2.4 7.6-2.1 3.6-3.4 4.8-2.9 2.1-4.7 2.8c-.8.3-2.1.5-3.9.5H319zm10.4-48.7v40.3c0 2.1.1 3.4.2 3.9s.3.9.5 1.1c.4.4.9.6 1.6.6 2.2 0 4-1.4 5.2-4.3 1.6-3.9 2.4-10 2.4-18.2 0-6.6-.6-11.9-1.7-15.9-.9-3.1-2-5.2-3.4-6.3-.9-.9-2.5-1.2-4.8-1.2zM359.6 33.5v21h.5c1.7 0 3-1 3.8-3.1.8-2.1 1.3-5.1 1.5-9.1h.8v27.1h-.8c-.2-2.9-.5-5.4-1-7.2-.5-1.9-1.1-3.1-1.8-3.8s-1.7-1-3-1V72c0 2.8.1 4.6.2 5.2.1.6.4 1.2.7 1.6.3.4.9.6 1.7.6h1.6c2.6 0 4.6-1.1 6.2-3.4 1.5-2.2 2.6-5.6 3.3-10.2h.7l-1.2 16.4h-23.7v-1.4h.9c.8 0 1.4-.3 1.9-.8.3-.4.6-1 .8-1.8.1-.6.2-2.2.2-4.8v-34c0-2.3 0-3.8-.1-4.3-.1-.9-.4-1.6-.7-2.1-.5-.7-1.2-1.1-2.1-1.1h-.9v-1.4H372v15.3h-.8c-.4-3.7-.9-6.4-1.6-8-.7-1.6-1.7-2.8-3-3.6-.8-.5-2.2-.7-4.2-.7h-2.8zM395.3 29.4l.2 17.2h-.8c-.4-4.3-1.3-7.8-2.9-10.4s-3.2-3.9-5-3.9c-1.4 0-2.5.7-3.3 2.1-.8 1.4-1.2 3-1.2 4.8 0 1.1.1 2.2.4 3 .4 1.2 1 2.4 1.9 3.5.6.8 2.1 2.3 4.4 4.5 3.2 3 5.4 5.8 6.5 8.4 1.1 2.6 1.7 5.7 1.7 9.1 0 4.3-.9 8-2.7 11.1-1.8 3.1-4 4.7-6.8 4.7-.9 0-1.7-.2-2.4-.5-.8-.3-1.7-1-2.9-1.9-.6-.5-1.2-.8-1.6-.8-.4 0-.7.3-1.1.8-.4.5-.7 1.3-.9 2.3h-.7V63.9h.7c.6 5.5 1.7 9.7 3.4 12.6 1.7 2.9 3.5 4.3 5.5 4.3 1.5 0 2.7-.8 3.6-2.3.9-1.5 1.3-3.4 1.3-5.4 0-1.2-.2-2.4-.5-3.5s-.9-2.2-1.6-3.3-1.9-2.4-3.7-4c-2.5-2.3-4.3-4.3-5.4-5.9-1.1-1.6-1.9-3.4-2.5-5.4-.6-2-.9-4.2-.9-6.6 0-4.1.8-7.6 2.4-10.5 1.6-2.9 3.6-4.3 6.1-4.3.9 0 1.8.2 2.6.6.6.3 1.4.9 2.3 1.7.9.8 1.5 1.2 1.9 1.2.3 0 .6-.2.8-.6.2-.4.4-1.4.6-2.9h.6zM410.2 57.4v16c0 2.6.1 4.3.2 5 .2.7.5 1.2.9 1.7s1.1.7 1.8.7h.9v1.4h-14.3v-1.4h.9c.8 0 1.4-.3 1.9-.8.3-.4.6-1 .8-1.8.1-.6.2-2.2.2-4.8v-34c0-2.6-.1-4.3-.2-5-.1-.7-.4-1.2-.9-1.7s-1.1-.7-1.8-.7h-.9v-1.4H414V32h-.9c-.8 0-1.4.3-1.9.8-.4.4-.6 1-.8 1.8-.1.6-.2 2.2-.2 4.8V54h9.7V39.4c0-2.6-.1-4.3-.2-5-.1-.7-.5-1.2-.9-1.7-.5-.5-1.1-.7-1.8-.7h-1v-1.4h14.3V32h-.9c-.8 0-1.4.3-1.9.8-.4.4-.6 1-.8 1.8-.1.6-.2 2.2-.2 4.8v34c0 2.6.1 4.3.2 5s.5 1.2.9 1.7c.5.5 1.1.7 1.8.7h.9v1.4H416v-1.4h.9c.8 0 1.4-.3 1.9-.8.3-.4.6-1 .8-1.8.1-.6.2-2.2.2-4.8v-16h-9.6zM459.8 54.8c2.6 1.1 4.4 2.5 5.5 4.2 1.5 2.3 2.3 5.3 2.3 9 0 3.9-.8 7.1-2.5 9.6-2 3.1-5 4.6-8.9 4.6h-13.9v-1.4c1.3 0 2.1-.2 2.6-.7s.8-1 .9-1.7c.2-.7.3-2.5.3-5.3V39.6c0-2.8-.1-4.6-.3-5.3-.2-.7-.5-1.3-1-1.7-.5-.4-1.3-.6-2.6-.6v-1.4h13.1c3.1 0 5.4.5 6.7 1.6 1.3 1.1 2.3 2.6 3.1 4.7.8 2.1 1.1 4.3 1.1 6.7 0 2.5-.5 4.7-1.4 6.7-.9 1.8-2.6 3.4-5 4.5zm-7.3 2v18.5c0 1.4.2 2.4.6 3.1.4.7.9 1 1.6 1 1.1 0 2.1-.5 3-1.4.9-.9 1.6-2.2 2.1-3.9.5-1.7.7-3.6.7-5.7 0-2.4-.3-4.6-.9-6.5-.6-1.9-1.4-3.3-2.4-4s-2.7-1.2-4.7-1.1zm0-3c1.9 0 3.3-.4 4.2-1.2.9-.8 1.6-2 2.1-3.4.5-1.5.7-3.4.7-5.6s-.2-4.2-.7-5.6c-.5-1.5-1.2-2.6-2-3.3s-2.3-1.1-4.3-1.1v20.2zM484.2 80.8v1.4h-14.3v-1.4h.9c.8 0 1.4-.3 1.9-.8.3-.4.6-1 .8-1.8.1-.6.2-2.2.2-4.8v-34c0-2.6-.1-4.3-.2-5-.1-.7-.4-1.2-.9-1.7s-1.1-.7-1.8-.7h-.9v-1.4h14.3V32h-.9c-.8 0-1.4.3-1.9.8-.3.4-.6 1-.8 1.8-.1.6-.2 2.2-.2 4.8v34c0 2.6.1 4.3.2 5 .2.7.5 1.2.9 1.7s1.1.7 1.8.7h.9zM503.5 54.8c2.6 1.1 4.4 2.5 5.5 4.2 1.5 2.3 2.3 5.3 2.3 9 0 3.9-.8 7.1-2.5 9.6-2 3.1-5 4.6-8.9 4.6H486v-1.4c1.3 0 2.1-.2 2.6-.7s.8-1 .9-1.7c.2-.7.3-2.5.3-5.3V39.6c0-2.8-.1-4.6-.3-5.3-.2-.7-.5-1.3-1-1.7-.5-.4-1.3-.6-2.6-.6v-1.4H499c3.1 0 5.4.5 6.7 1.6 1.3 1.1 2.3 2.6 3.1 4.7.8 2.1 1.1 4.3 1.1 6.7 0 2.5-.5 4.7-1.4 6.7-.9 1.8-2.6 3.4-5 4.5zm-7.3 2v18.5c0 1.4.2 2.4.6 3.1.4.7.9 1 1.6 1 1.1 0 2.1-.5 3-1.4.9-.9 1.6-2.2 2.1-3.9.5-1.7.7-3.6.7-5.7 0-2.4-.3-4.6-.9-6.5-.6-1.9-1.4-3.3-2.4-4s-2.7-1.2-4.7-1.1zm0-3c1.9 0 3.3-.4 4.2-1.2.9-.8 1.6-2 2.1-3.4.5-1.5.7-3.4.7-5.6s-.2-4.2-.7-5.6c-.5-1.5-1.2-2.6-2-3.3s-2.3-1.1-4.3-1.1v20.2zM538.8 64.1l-1 18.1h-24.3v-1.4h.9c.8 0 1.4-.3 1.9-.8.4-.4.6-1 .8-1.8.1-.6.2-2.2.2-4.8v-34c0-2.6-.1-4.3-.2-5-.1-.7-.4-1.2-.9-1.7s-1.1-.7-1.8-.7h-.9v-1.4h14.6V32h-1.2c-.8 0-1.4.3-1.9.8-.3.4-.6 1-.8 1.8-.1.6-.2 2.2-.2 4.8v32.9c0 2.6.1 4.3.2 5 .2.7.5 1.3.9 1.6.3.2 1.2.3 2.4.3h2.3c1.5 0 2.7-.5 3.6-1.4 1-1 1.8-2.5 2.5-4.6.7-2.1 1.4-5.2 2-9.2h.9zM551.6 33.5v21h.5c1.7 0 3-1 3.8-3.1.8-2.1 1.3-5.1 1.5-9.1h.8v27.1h-.8c-.2-2.9-.5-5.4-1-7.2-.5-1.9-1.1-3.1-1.8-3.8s-1.7-1-3-1V72c0 2.8.1 4.6.2 5.2.1.6.4 1.2.7 1.6.3.4.9.6 1.7.6h1.6c2.6 0 4.6-1.1 6.2-3.4 1.5-2.2 2.6-5.6 3.3-10.2h.7l-1.2 16.4h-23.7v-1.4h.9c.8 0 1.4-.3 1.9-.8.3-.4.6-1 .8-1.8.1-.6.2-2.2.2-4.8v-34c0-2.3 0-3.8-.1-4.3-.1-.9-.4-1.6-.7-2.1-.5-.7-1.2-1.1-2.1-1.1h-.9v-1.4H564v15.3h-.8c-.4-3.7-.9-6.4-1.6-8-.7-1.6-1.7-2.8-3-3.6-.8-.5-2.2-.7-4.2-.7h-2.8zM597.7 29.4l.2 17.2h-.8c-.4-4.3-1.3-7.8-2.9-10.4s-3.2-3.9-5-3.9c-1.4 0-2.5.7-3.3 2.1-.8 1.4-1.2 3-1.2 4.8 0 1.1.1 2.2.4 3 .4 1.2 1 2.4 1.9 3.5.6.8 2.1 2.3 4.4 4.5 3.2 3 5.4 5.8 6.5 8.4 1.1 2.6 1.7 5.7 1.7 9.1 0 4.3-.9 8-2.7 11.1-1.8 3.1-4 4.7-6.8 4.7-.9 0-1.7-.2-2.4-.5-.8-.3-1.7-1-2.9-1.9-.6-.5-1.2-.8-1.6-.8-.4 0-.7.3-1.1.8-.4.5-.7 1.3-.9 2.3h-.7V63.9h.7c.6 5.5 1.7 9.7 3.4 12.6 1.7 2.9 3.5 4.3 5.5 4.3 1.5 0 2.7-.8 3.6-2.3.9-1.5 1.3-3.4 1.3-5.4 0-1.2-.2-2.4-.5-3.5s-.9-2.2-1.6-3.3-1.9-2.4-3.7-4c-2.5-2.3-4.3-4.3-5.4-5.9-1.1-1.6-1.9-3.4-2.5-5.4-.6-2-.9-4.2-.9-6.6 0-4.1.8-7.6 2.4-10.5 1.6-2.9 3.6-4.3 6.1-4.3.9 0 1.8.2 2.6.6.6.3 1.4.9 2.3 1.7.9.8 1.5 1.2 1.9 1.2.3 0 .6-.2.8-.6.2-.4.4-1.4.6-2.9h.6zM617.2 29.8c4.4-.3 7.9 2.1 10.6 7.2 2.7 5.1 4.1 11.5 4.1 19.2 0 6.6-1 12.3-3 17.3-2.7 6.6-6.5 9.9-11.4 9.9s-8.7-3.2-11.4-9.5c-2.1-5-3.2-10.9-3.2-17.7 0-7.7 1.4-14.1 4.2-19.2 2.7-5.1 6.1-7.5 10.1-7.2zm.3 2.5c-2.5 0-4.4 2.4-5.7 7.2-1.1 4-1.6 9.7-1.6 17.1 0 8.8.8 15.3 2.5 19.5 1.1 2.9 2.7 4.4 4.8 4.4 1.4 0 2.5-.6 3.5-1.9 1.2-1.6 2.1-4.2 2.8-7.8.7-3.6 1-8.2 1-14 0-6.8-.3-11.9-1-15.3-.7-3.4-1.5-5.8-2.6-7.2-1.2-1.3-2.4-2-3.7-2zM661 29.4v17.9h-.8c-.6-4.7-1.7-8.3-3.3-10.7-1.6-2.5-3.4-3.7-5.5-3.7-1.7 0-3.3.9-4.7 2.8-1.4 1.9-2.5 4.3-3.1 7.3-.8 3.8-1.3 8.1-1.3 12.8 0 4.6.3 8.8.9 12.6s1.6 6.7 2.9 8.6c1.3 1.9 3 2.9 5.1 2.9 1.7 0 3.3-.7 4.7-2.1 1.4-1.4 2.9-3.9 4.5-7.4v4.5c-1.5 3-3.1 5.2-4.8 6.6s-3.6 2-5.8 2c-2.9 0-5.5-1.1-7.8-3.3-2.3-2.2-4-5.4-5.3-9.5-1.2-4.1-1.8-8.5-1.8-13.2 0-4.9.7-9.6 2.1-14 1.4-4.4 3.2-7.9 5.5-10.3 2.3-2.4 4.8-3.7 7.4-3.7 1.9 0 4 .8 6.1 2.4 1.2.9 2 1.4 2.4 1.4.4 0 .8-.3 1.1-.9.3-.6.5-1.5.6-2.8h.9zM678.4 80.8v1.4h-14.3v-1.4h.9c.8 0 1.4-.3 1.9-.8.3-.4.6-1 .8-1.8.1-.6.2-2.2.2-4.8v-34c0-2.6-.1-4.3-.2-5-.1-.7-.4-1.2-.9-1.7s-1-.7-1.8-.7h-.9v-1.4h14.3V32h-.9c-.8 0-1.4.3-1.9.8-.3.4-.6 1-.8 1.8-.1.6-.2 2.2-.2 4.8v34c0 2.6.1 4.3.2 5 .2.7.5 1.2.9 1.7s1.1.7 1.8.7h.9zM690.7 33.5v21h.5c1.7 0 3-1 3.8-3.1.8-2.1 1.3-5.1 1.5-9.1h.8v27.1h-.8c-.2-2.9-.5-5.4-1-7.2-.5-1.9-1.1-3.1-1.8-3.8s-1.7-1-3-1V72c0 2.8.1 4.6.2 5.2.1.6.4 1.2.7 1.6.3.4.9.6 1.7.6h1.6c2.6 0 4.6-1.1 6.2-3.4 1.5-2.2 2.6-5.6 3.3-10.2h.7l-1.2 16.4h-23.7v-1.4h.9c.8 0 1.4-.3 1.9-.8.3-.4.6-1 .8-1.8.1-.6.2-2.2.2-4.8v-34c0-2.3 0-3.8-.1-4.3-.1-.9-.4-1.6-.7-2.1-.5-.7-1.2-1.1-2.1-1.1h-.9v-1.4h22.9v15.3h-.8c-.4-3.7-.9-6.4-1.6-8-.7-1.6-1.7-2.8-3-3.6-.8-.5-2.2-.7-4.2-.7h-2.8zM733.1 30.5v14h-.7c-.4-3.2-.9-5.5-1.4-7-.5-1.4-1.2-2.5-2.2-3.4-.5-.5-1.4-.7-2.7-.7h-2v39.9c0 2.6.1 4.3.2 5 .2.7.5 1.2.9 1.7.5.5 1.1.7 1.8.7h.9v1.4h-14.3v-1.4h.9c.8 0 1.4-.3 1.9-.8.3-.4.6-1 .8-1.8.1-.6.2-2.2.2-4.8V33.5h-2c-1.8 0-3.2.7-4 2.2-1.2 2.1-1.9 5-2.2 8.8h-.8v-14h24.7z"/></g><g enable-background="new"><path fill="#407eb5" d="M764 30.5V32c-.9.2-1.6.7-2.1 1.5-.7 1.1-1.7 4-3.2 8.7l-5.9 18.7v12.5c0 2.7.1 4.3.2 5 .1.6.4 1.2.9 1.7s1 .7 1.7.7h1.5v1.4h-15.4v-1.4h1.4c.8 0 1.4-.3 1.9-.8.3-.4.6-1 .8-1.8.1-.6.2-2.2.2-4.8V63l-6.4-22.1c-1.3-4.4-2.2-6.9-2.7-7.7-.5-.8-1.2-1.2-2.1-1.2v-1.4h13.1V32h-.6c-.8 0-1.3.2-1.7.6-.3.4-.5.9-.5 1.4 0 .9.5 3.2 1.6 6.9l4.9 17.1 4.9-15.6c1.2-3.8 1.8-6.3 1.8-7.6 0-.7-.2-1.3-.5-1.7-.5-.6-1.3-1-2.5-1.1v-1.4h8.7z"/></g><ellipse transform="rotate(-39.286 67.7 56.027)" fill="none" stroke="#407eb5" stroke-width="5" stroke-miterlimit="10" cx="67.7" cy="56" rx="78.1" ry="21.1"/><ellipse fill="none" stroke="#407eb5" stroke-width="5" stroke-miterlimit="10" cx="69" cy="57.4" rx="65.5" ry="36.5"/><ellipse fill="none" stroke="#407eb5" stroke-width="5" stroke-miterlimit="10" cx="69" cy="57.4" rx="48.1" ry="36.5" /><ellipse fill="none" stroke="#407eb5" stroke-width="5" stroke-miterlimit="10" cx="69" cy="57.4" rx="25" ry="36.5"/><g><path fill="none" stroke="#407eb5" stroke-width="5" stroke-miterlimit="10" d="M16 36h107M3.5 57.4h130.6M16 76.1h110M69 20.9V94"/></g><path d="M40.9 43v28.2h56.5V43s-12-14-28.2 0c0 0-16.1-13.5-28.3 0z" fill="#53a8d3" stroke="#1c4b75" stroke-width="5" stroke-miterlimit="10"/><g><path d="M47.8 39.8V64s11.2-2.8 20.7 0c0 0 12.5-3.3 21 0V38.6" fill="none" stroke="#fff" stroke-width="5" stroke-miterlimit="10"/><circle fill="none" stroke="#407eb5" stroke-width="5" stroke-miterlimit="10" cx="10.9" cy="87.6" r="4.4"/></g></svg>
