<svg xmlns="http://www.w3.org/2000/svg" viewBox="0 0 1000 500"><path d="M266.07 248.75c17.26-1.42 33.32-6.29 48.61-14.31 12.99-6.81 19.84-17 22.08-31.76 6.59-43.39-15.52-78.11-57.61-88.96 0 0-11.47-1.94-19.92-1.94s-18.32 2.09-18.32 2.09c-27.75 6.95-43.19 38.2-31.42 63.91 10.44 22.8 32.58 31.71 58.21 23.45 15.09-4.87 22.73-16.4 20.33-30.67-2.91-17.28-14.1-27.41-30.05-27.2-13.96.18-24 11.38-21.17 23.87 1.43 6.3 4.46 11.65 11.7 12.4 6.49.67 10.61-2.95 13.31-8.58 1-2.09.44-5.58 4.31-5.42 6.25 9.41 4.34 16.17-5.59 19.91-9.2 3.46-22.38.15-27.58-6.93-5.3-7.21-4.41-21.3 1.85-29.55 10.26-13.5 24.87-18.37 39.26-13.07 21.53 7.93 30.74 19.76 29.61 38.02-1.23 19.8-11.1 32.59-30.55 35.27-15.69 2.16-30.9 5.32-45.71 10.71-6.43 2.34-11.93 1.12-16.73-3.82-3.35-3.44-6.81-6.78-10.22-10.17-33.44-33.23-67-37.32-107.89-13.81-17.19 9.88-31.11 21.66-33.93 41.55-1.43 5.94-2.3 13.75-2.3 22.34 0 8.48.85 16.2 2.25 22.11 3.41 21.76 17.02 36.42 35.41 47.72 17.51 10.75 35.9 13.44 52.73.32 17.43-13.59 28.77-32.49 29.18-54.8.34-18.43-25-38.85-43.81-38.59-21.73.3-44.83 21.3-45.63 41.57-.45 11.37 4.62 20.44 13.03 27.41 9.68 8.02 27.29 7.88 35.45.44 7.88-7.19 10.16-24.37 4.48-34.24-2.99-5.19-7.03-9.09-13.47-8.91-6.41.18-10.2 4.31-13.12 9.52-4.44 7.92-1.35 14.76 6.67 22.86-10.86-4.16-10.86-4.16-11.78-6.1-6.61-13.96 5.86-31.98 21.3-30.78 15.31 1.19 25.82 13.69 25.03 29.75-.89 18.02-13.31 31.64-28.98 30.98-20.67-.87-35.71-10.68-43.97-29.89-4.71-10.96-6.63-22.51-6.54-34.53.23-28.25 15.71-44.61 43.91-46.44 34.12-2.22 56.6 16.29 75.66 41.46 5.35 7.07 5.76 13.49 1.67 21.7-9.17 18.43-16.23 37.78-19.48 58.24-5.79 36.47 14.87 68.57 49.19 77.01.05.02.12.03.17.05.1.02.2.06.31.08h.02c3.21.73 13.69 1.26 26.15 1.26s22.94-.53 26.15-1.26h.16c35.41-8.9 51.56-34.06 57.83-67.91 5.41-29.22-11.2-48.27-30.64-65.26-18.46-16.13-39.35-11.02-59.26-2.52-21.63 9.24-39 42.02-34.95 63.97 3.91 21.15 23.07 36.62 43.85 35.39 23.1-1.37 44.71-20.31 46.42-40.7 1.46-17.37-9.42-34.27-25-38.85-11.05-3.25-21.91 2.63-29.94 15.85-5.08 8.37-3.79 15.79 2.66 22.63 3.25 3.44 7.12 5.86 11.27 1.67 3.72-3.76 5.18-8.32.47-12.51-1.94-1.72-6.73-1.23-3.78-6.01 1.89-3.05 4.89-3.45 7.98-3.53 12.06-.29 22 15.96 16.02 26.61-5.5 9.8-14.93 13.09-25.47 13.13-9.69.03-17.6-3.17-22.42-12.8-8.32-16.64-6.63-30.23 6.57-44.28 12.52-13.33 33.17-17.99 47.98-10.83 33.38 16.13 43.36 53.23 22.3 83.29-16.91 24.14-40.85 27.87-68.34 25.63-26.17-2.13-38.84-16.48-44.99-39.95-12.98-49.48 17.75-93.06 69.02-97.29z" fill="#c4bc08"/><path d="M398.8 224.95c-1.16-.58-1.26-.87-1.26-3.1 0-4.07.39-7.37.48-8.73 0-.87.19-1.36.68-1.36.48 0 .78.29.78.97 0 .68 0 1.84.29 3.01 1.36 6.01 7.76 8.15 13.48 8.15 8.44 0 12.8-4.75 12.8-10.96 0-5.92-3.2-8.73-10.77-14.36l-3.88-2.91c-9.21-6.89-12.22-11.93-12.22-17.65 0-9.7 7.66-15.52 18.92-15.52 3.4 0 6.79.49 8.83.97 1.65.39 2.33.39 3.01.39.68 0 .87.1.87.58 0 .39-.39 3.1-.39 8.73 0 1.26-.1 1.84-.68 1.84-.58 0-.68-.39-.78-1.07-.1-.97-.78-3.2-1.26-4.07-.58-.97-3.4-4.07-11.06-4.07-6.21 0-11.35 3.1-11.35 8.92 0 5.24 2.62 8.25 11.06 13.97l2.42 1.65c10.38 7.08 13.97 12.8 13.97 19.88 0 4.85-1.84 10.09-7.95 14.06-3.59 2.33-8.92 2.91-13.58 2.91-3.97 0-8.92-.58-12.41-2.23zM480.96 162.58c19.21 0 33.76 11.74 33.76 30.94 0 18.43-13.68 33.66-34.24 33.66-23.38 0-33.37-17.56-33.37-32.4 0-13.29 10.28-32.2 33.85-32.2zm1.94 61.21c7.66 0 23.09-4.07 23.09-27.94 0-19.79-12.03-30.17-25.51-30.17-14.26 0-24.54 8.92-24.54 26.87-.01 19.21 11.54 31.24 26.96 31.24zM535.86 218.35c-8.34-7.18-10.38-16.59-10.38-24.44 0-5.53 2.04-15.13 9.6-22.5 5.14-4.95 12.9-8.83 26-8.83 3.4 0 8.25.29 12.42.97 3.2.58 5.92 1.16 8.73 1.26.87 0 1.07.39 1.07.87 0 .68-.19 1.65-.39 4.66-.1 2.72-.1 7.27-.19 8.44-.1 1.26-.49 1.75-.97 1.75-.58 0-.68-.58-.68-1.75 0-3.2-1.36-6.5-3.59-8.25-3.01-2.52-9.21-4.56-16.78-4.56-10.96 0-16.2 2.91-19.21 5.72-6.3 5.82-7.66 13.19-7.66 21.53 0 15.81 12.51 29.88 30.75 29.88 6.4 0 10.67-.49 14.07-3.88 1.84-1.84 3.01-5.33 3.3-6.89.19-.87.29-1.16.87-1.16.39 0 .78.58.78 1.16s-1.16 7.76-2.04 10.57c-.49 1.55-.68 1.84-2.13 2.43-3.49 1.36-9.89 1.84-15.42 1.84-12.82.01-21.45-3-28.15-8.82zM611.62 202.15c0 7.95 0 14.45.39 17.85.29 2.42.58 3.98 3.1 4.36 1.26.19 3.1.39 3.88.39.49 0 .68.39.68.68 0 .39-.39.68-1.36.68-4.75 0-10.28-.29-10.67-.29-.49 0-5.82.29-8.44.29-.87 0-1.36-.19-1.36-.68 0-.29.19-.68.68-.68.78 0 1.84-.19 2.62-.39 1.65-.39 1.94-1.94 2.23-4.36.39-3.4.49-9.89.49-17.85V187.6c0-12.8 0-15.13-.19-17.75-.19-2.81-.87-4.07-2.72-4.46-.97-.19-2.04-.29-2.62-.29-.39 0-.68-.39-.68-.68 0-.49.39-.68 1.36-.68 2.81 0 8.15.19 8.63.19.39 0 5.92-.19 8.54-.19.97 0 1.36.19 1.36.68 0 .29-.39.68-.68.68-.58 0-1.16 0-2.13.19-2.33.48-2.81 1.65-3.01 4.56-.1 2.62-.1 4.95-.1 17.75v14.55zM639.65 187.6c0-12.8 0-15.13-.19-17.75-.19-2.81-.68-4.17-3.49-4.56-.68-.1-2.13-.19-2.91-.19-.29 0-.68-.39-.68-.68 0-.49.39-.68 1.36-.68 3.88 0 9.41.19 9.89.19.58 0 18.43.1 20.37 0 1.65-.1 3.2-.39 3.88-.48.39-.1.78-.39 1.16-.39.29 0 .39.39.39.78 0 .58-.49 1.55-.68 3.88-.1.78-.29 4.46-.48 5.43-.1.39-.39.87-.78.87-.49 0-.68-.39-.68-1.07 0-.58-.1-1.94-.49-2.91-.58-1.36-1.46-1.94-6.11-2.52-1.45-.19-11.35-.29-12.32-.29-.39 0-.49.29-.49.87v22.41c0 .58 0 .87.49.87 1.07 0 12.32 0 14.26-.19 2.04-.19 3.3-.29 4.17-1.16.58-.58.97-1.07 1.26-1.07s.49.19.49.68c0 .49-.49 1.84-.68 4.56-.19 1.65-.39 4.75-.39 5.33 0 .68-.19 1.55-.78 1.55-.39 0-.58-.29-.58-.78 0-.78 0-1.65-.39-2.72-.29-1.16-1.07-2.13-4.36-2.52-2.33-.29-11.45-.39-12.9-.39-.49 0-.58.29-.58.58v6.89c0 2.81-.1 12.42 0 14.06.19 5.53 1.75 6.6 10.19 6.6 2.23 0 6.3 0 8.54-.87 2.23-.97 3.4-2.43 3.88-5.72.19-.97.39-1.26.87-1.26s.58.68.58 1.26-.68 6.21-1.16 7.95c-.58 2.13-1.46 2.13-4.75 2.13-6.4 0-11.35-.19-14.84-.29-3.59-.19-5.82-.19-7.08-.19-.19 0-1.84 0-3.69.1-1.65.1-3.59.19-4.95.19-.87 0-1.36-.19-1.36-.68 0-.29.19-.68.68-.68.78 0 1.84-.29 2.62-.39 1.65-.29 1.84-1.94 2.23-4.36.49-3.4.49-9.89.49-17.85V187.6zM693.1 187.6c0-12.8 0-15.13-.19-17.75-.19-2.81-.68-4.17-3.49-4.56-.68-.1-2.13-.19-2.91-.19-.29 0-.68-.39-.68-.68 0-.49.39-.68 1.36-.68 3.88 0 9.41.19 9.89.19.97 0 6.4-.19 11.45-.19 8.54 0 24.15-.78 34.24 9.41 4.27 4.27 8.34 11.15 8.34 20.95 0 10.38-4.46 18.33-9.21 23.18-3.69 3.78-11.35 9.51-25.9 9.51-3.69 0-8.25-.29-11.93-.49-3.69-.29-6.6-.48-6.98-.48-.19 0-1.75.1-3.49.1-1.75.1-3.78.19-5.14.19-.87 0-1.36-.19-1.36-.68 0-.29.19-.68.68-.68.78 0 1.84-.19 2.62-.39 1.65-.39 1.84-1.94 2.23-4.36.49-3.4.49-9.89.49-17.85V187.6zm7.76 8.93c0 8.73 0 16.39.1 17.94.1 2.04.29 5.04.97 5.92 1.07 1.55 4.07 3.3 14.16 3.3 7.86 0 14.84-2.62 19.98-7.47 4.46-4.17 6.69-12.03 6.69-19.59 0-10.48-4.56-17.17-8.05-20.66-8.05-8.15-17.46-9.22-27.65-9.22-1.65 0-4.37.29-5.14.58-.78.29-1.07.68-1.07 1.65v27.55zM783.7 165.39c1.07-2.72 1.46-3.2 2.04-3.2.87 0 1.16 1.16 2.04 3.01 1.55 3.49 15.23 37.54 20.47 50.05 3.1 7.37 5.43 8.44 7.27 9.02 1.26.39 2.52.49 3.4.49.49 0 1.07.19 1.07.68 0 .49-.97.68-1.94.68-1.26 0-7.57 0-13.48-.19-1.65-.1-3.01-.1-3.01-.58 0-.39.19-.39.58-.58.49-.19 1.36-.87.78-2.23l-7.66-18.92c-.19-.39-.29-.49-.78-.49h-19.69c-.39 0-.68.19-.87.68L769.05 217c-.78 2.04-1.26 4.07-1.26 5.53 0 1.65 1.46 2.23 2.91 2.23h.78c.68 0 .87.29.87.68 0 .49-.48.68-1.26.68-2.04 0-6.69-.29-7.66-.29-.87 0-5.14.29-8.63.29-1.07 0-1.65-.19-1.65-.68 0-.39.39-.68.78-.68.58 0 1.84-.1 2.52-.19 3.88-.48 5.53-3.39 7.18-7.57l20.07-51.61zm9.5 34.34c.39 0 .39-.19.29-.58l-8.44-22.6c-.48-1.26-.97-1.26-1.45 0l-7.95 22.6c-.1.39 0 .58.29.58h17.26zM831.23 187.6c0-12.8 0-15.13-.19-17.75-.19-2.81-.68-4.17-3.49-4.56-.68-.1-2.13-.19-2.91-.19-.29 0-.68-.39-.68-.68 0-.49.39-.68 1.36-.68 3.88 0 9.41.19 9.89.19.97 0 6.4-.19 11.45-.19 8.54 0 24.15-.78 34.24 9.41 4.27 4.27 8.34 11.15 8.34 20.95 0 10.38-4.46 18.33-9.21 23.18-3.69 3.78-11.35 9.51-25.9 9.51-3.69 0-8.25-.29-11.93-.49-3.69-.29-6.6-.48-6.98-.48-.19 0-1.75.1-3.49.1-1.75.1-3.78.19-5.14.19-.87 0-1.36-.19-1.36-.68 0-.29.19-.68.68-.68.78 0 1.84-.19 2.62-.39 1.65-.39 1.84-1.94 2.23-4.36.49-3.4.49-9.89.49-17.85V187.6zm7.76 8.93c0 8.73 0 16.39.1 17.94.1 2.04.29 5.04.97 5.92 1.07 1.55 4.07 3.3 14.16 3.3 7.86 0 14.84-2.62 19.98-7.47 4.46-4.17 6.69-12.03 6.69-19.59 0-10.48-4.56-17.17-8.05-20.66-8.05-8.15-17.46-9.22-27.65-9.22-1.65 0-4.37.29-5.14.58-.78.29-1.07.68-1.07 1.65v27.55zM908.83 187.6c0-12.8 0-15.13-.19-17.75-.19-2.81-.68-4.17-3.49-4.56-.68-.1-2.13-.19-2.91-.19-.29 0-.68-.39-.68-.68 0-.49.39-.68 1.36-.68 3.88 0 9.41.19 9.89.19.58 0 18.43.1 20.37 0 1.65-.1 3.2-.39 3.88-.48.39-.1.78-.39 1.16-.39.29 0 .39.39.39.78 0 .58-.49 1.55-.68 3.88-.1.78-.29 4.46-.48 5.43-.1.39-.39.87-.78.87-.49 0-.68-.39-.68-1.07 0-.58-.1-1.94-.49-2.91-.58-1.36-1.46-1.94-6.11-2.52-1.46-.19-11.35-.29-12.32-.29-.39 0-.49.29-.49.87v22.41c0 .58 0 .87.49.87 1.07 0 12.32 0 14.26-.19 2.04-.19 3.3-.29 4.17-1.16.58-.58.97-1.07 1.26-1.07s.49.19.49.68c0 .49-.49 1.84-.68 4.56-.19 1.65-.39 4.75-.39 5.33 0 .68-.19 1.55-.78 1.55-.39 0-.58-.29-.58-.78 0-.78 0-1.65-.39-2.72-.29-1.16-1.07-2.13-4.36-2.52-2.33-.29-11.45-.39-12.9-.39-.49 0-.58.29-.58.58v6.89c0 2.81-.1 12.42 0 14.06.19 5.53 1.75 6.6 10.19 6.6 2.23 0 6.3 0 8.54-.87 2.23-.97 3.4-2.43 3.88-5.72.19-.97.39-1.26.87-1.26s.58.68.58 1.26-.68 6.21-1.16 7.95c-.58 2.13-1.46 2.13-4.75 2.13-6.4 0-11.35-.19-14.84-.29-3.59-.19-5.82-.19-7.08-.19-.19 0-1.84 0-3.69.1-1.65.1-3.59.19-4.95.19-.87 0-1.36-.19-1.36-.68 0-.29.19-.68.68-.68.78 0 1.84-.29 2.62-.39 1.65-.29 1.84-1.94 2.23-4.36.49-3.4.49-9.89.49-17.85V187.6z"/><g><path d="M409.31 313c0-19.67 0-23.24-.3-27.27-.3-4.32-1.04-6.71-5.36-7.3-1.04-.15-3.28-.3-4.47-.3-.45 0-1.04-.3-1.04-.75 0-.75.6-1.04 2.09-1.04 5.96 0 14.45.3 15.2.3 3.13 0 9.24-.3 15.35-.3 21.9 0 27.57 12.67 27.57 19.37 0 9.98-6.56 16.24-13.26 22.2 9.98 2.98 23.1 12.07 23.1 26.37 0 14.16-10.58 28.16-32.93 28.16-2.38 0-7.15-.15-11.32-.45-4.17-.15-7.9-.3-8.49-.3-.3 0-2.68.15-5.36.15-2.68.15-5.81.3-7.9.3-1.34 0-2.09-.3-2.09-1.04 0-.45.3-.75 1.04-.75 1.19 0 2.83-.45 4.02-.6 2.53-.45 2.83-3.28 3.43-7 .75-5.21.75-15.2.75-27.42V313zm11.33 2.68c0 .89.3 1.19.89 1.34.75.15 3.13.6 8.05.6 7.3 0 10.13-.3 12.81-3.28 2.83-3.13 5.07-7.45 5.07-13.56 0-9.69-5.36-20.41-18.48-20.41-1.49 0-4.62.15-6.71.6-1.19.3-1.64.6-1.64 1.34v33.37zm0 14.01c0 9.83 0 25.03.15 26.97.45 6.11.45 7.6 4.47 9.54 3.58 1.64 9.09 1.79 11.47 1.79 8.64 0 19.22-3.28 19.22-19.52 0-5.66-2.23-16.54-12.52-23.1-4.47-2.83-8.64-2.68-11.77-3.28-1.64-.3-8.2-.3-10.28-.3-.45 0-.75.3-.75.89v7.01zM508.25 335.35c0 12.22 0 22.2.6 27.42.45 3.73.89 6.11 4.77 6.71 1.94.3 4.77.6 5.96.6.75 0 1.04.6 1.04 1.04 0 .6-.6 1.04-2.09 1.04-7.3 0-15.79-.45-16.39-.45-.75 0-8.94.45-12.96.45-1.34 0-2.09-.3-2.09-1.04 0-.45.3-1.04 1.04-1.04 1.19 0 2.83-.3 4.02-.6 2.53-.6 2.98-2.98 3.43-6.71.6-5.21.75-15.2.75-27.42V313c0-19.67 0-23.24-.3-27.27-.3-4.32-1.34-6.26-4.17-6.85-1.49-.3-3.13-.45-4.02-.45-.6 0-1.04-.6-1.04-1.04 0-.75.6-1.04 2.09-1.04 4.32 0 12.52.3 13.26.3.6 0 9.09-.3 13.11-.3 1.49 0 2.09.3 2.09 1.04 0 .45-.6 1.04-1.04 1.04-.89 0-1.79 0-3.28.3-3.58.75-4.32 2.53-4.62 7-.15 4.02-.15 7.6-.15 27.27v22.35zm16.69-78.97c.75 1.34 0 1.79-.6 1.79-.45 0-1.94-.3-4.47 0-7.3.74-17.73 4.17-22.65 6.26-1.04.45-1.94.74-2.23.74-.3 0-.75-.3-.75-.89 0-.45.3-.75 1.04-1.19 5.36-3.72 19.22-12.07 20.26-12.66 2.53-1.49 3.43-1.94 4.17-1.94.45 0 .75.3 1.49 1.34 1.05 1.48 2.1 3.57 3.74 6.55zM551.31 313c0-19.67 0-23.24-.3-27.27-.3-4.32-1.04-6.71-5.36-7.3-1.04-.15-3.28-.3-4.47-.3-.45 0-1.04-.3-1.04-.75 0-.75.6-1.04 2.09-1.04 5.96 0 14.45.3 15.2.3 3.13 0 9.24-.3 15.35-.3 21.9 0 27.57 12.67 27.57 19.37 0 9.98-6.56 16.24-13.26 22.2 9.98 2.98 23.1 12.07 23.1 26.37 0 14.16-10.58 28.16-32.93 28.16-2.38 0-7.15-.15-11.32-.45-4.17-.15-7.9-.3-8.49-.3-.3 0-2.68.15-5.36.15-2.68.15-5.81.3-7.9.3-1.34 0-2.09-.3-2.09-1.04 0-.45.3-.75 1.04-.75 1.19 0 2.83-.45 4.02-.6 2.53-.45 2.83-3.28 3.43-7 .75-5.21.75-15.2.75-27.42V313zm11.32 2.68c0 .89.3 1.19.89 1.34.75.15 3.13.6 8.05.6 7.3 0 10.13-.3 12.81-3.28 2.83-3.13 5.07-7.45 5.07-13.56 0-9.69-5.36-20.41-18.48-20.41-1.49 0-4.62.15-6.71.6-1.19.3-1.64.6-1.64 1.34v33.37zm0 14.01c0 9.83 0 25.03.15 26.97.45 6.11.45 7.6 4.47 9.54 3.58 1.64 9.09 1.79 11.47 1.79 8.64 0 19.22-3.28 19.22-19.52 0-5.66-2.24-16.54-12.52-23.1-4.47-2.83-8.64-2.68-11.77-3.28-1.64-.3-8.19-.3-10.28-.3-.45 0-.74.3-.74.89v7.01zM650.25 335.65c0 18.63.3 26.22 2.68 28.46 2.09 2.09 7.15 2.98 17.43 2.98 6.85 0 12.67-.15 15.79-3.87 1.64-1.94 2.68-4.62 3.13-7.15.15-.89.6-1.64 1.34-1.64.6 0 .89.6.89 1.94 0 1.34-.89 8.94-1.94 12.67-.89 2.98-1.34 3.43-8.34 3.43-9.39 0-16.69-.15-22.8-.45-5.96-.15-10.43-.3-14.3-.3-.6 0-2.83 0-5.36.15-2.68.15-5.51.3-7.6.3-1.34 0-2.09-.3-2.09-1.04 0-.45.3-1.04 1.04-1.04 1.19 0 2.83-.3 4.02-.6 2.53-.6 2.83-2.98 3.43-6.71.75-5.21.75-15.2.75-27.42V313c0-19.67 0-23.24-.3-27.27-.3-4.32-1.04-6.41-5.36-7-1.04-.15-3.28-.3-4.47-.3-.45 0-1.04-.6-1.04-1.04 0-.75.6-1.04 2.09-1.04 5.96 0 14.16.3 14.9.3.6 0 10.43-.3 14.45-.3 1.34 0 2.09.3 2.09 1.04 0 .45-.6.89-1.04.89-.89 0-2.83.15-4.32.3-3.88.75-4.62 2.68-4.92 7.15-.15 4.02-.15 7.6-.15 27.27v22.65zM729.96 335.35c0 12.22 0 22.2.6 27.42.45 3.73.89 6.11 4.77 6.71 1.94.3 4.77.6 5.96.6.75 0 1.04.6 1.04 1.04 0 .6-.6 1.04-2.09 1.04-7.3 0-15.79-.45-16.39-.45-.75 0-8.94.45-12.96.45-1.34 0-2.09-.3-2.09-1.04 0-.45.3-1.04 1.04-1.04 1.19 0 2.83-.3 4.02-.6 2.53-.6 2.98-2.98 3.43-6.71.6-5.21.75-15.2.75-27.42V313c0-19.67 0-23.24-.3-27.27-.3-4.32-1.34-6.26-4.17-6.85-1.49-.3-3.13-.45-4.02-.45-.6 0-1.04-.6-1.04-1.04 0-.75.6-1.04 2.09-1.04 4.32 0 12.52.3 13.26.3.6 0 9.09-.3 13.11-.3 1.49 0 2.09.3 2.09 1.04 0 .45-.6 1.04-1.04 1.04-.89 0-1.79 0-3.28.3-3.58.75-4.32 2.53-4.62 7-.15 4.02-.15 7.6-.15 27.27v22.35zM774.96 360.23c-12.81-11.03-15.94-25.48-15.94-37.55 0-8.49 3.13-23.24 14.75-34.57 7.9-7.6 19.82-13.56 39.93-13.56 5.21 0 12.67.45 19.07 1.49 4.92.89 9.09 1.79 13.41 1.94 1.34 0 1.64.6 1.64 1.34 0 1.04-.3 2.53-.6 7.15-.15 4.17-.15 11.17-.3 12.96-.15 1.94-.75 2.68-1.49 2.68-.89 0-1.04-.89-1.04-2.68 0-4.92-2.09-9.98-5.51-12.67-4.62-3.87-14.16-7-25.78-7-16.84 0-24.88 4.47-29.5 8.79-9.68 8.94-11.77 20.26-11.77 33.08 0 24.29 19.22 45.89 47.23 45.89 9.83 0 16.39-.75 21.61-5.96 2.83-2.83 4.62-8.2 5.07-10.58.3-1.34.45-1.79 1.34-1.79.6 0 1.19.89 1.19 1.79 0 .89-1.79 11.92-3.13 16.24-.75 2.38-1.04 2.83-3.28 3.72-5.36 2.09-15.2 2.83-23.69 2.83-19.67.02-32.93-4.6-43.21-13.54zM899.37 278.88c1.64-4.17 2.24-4.92 3.13-4.92 1.34 0 1.79 1.79 3.13 4.62 2.38 5.37 23.39 57.66 31.44 76.89 4.77 11.32 8.34 12.96 11.18 13.86 1.94.6 3.87.75 5.21.75.75 0 1.64.3 1.64 1.04s-1.49 1.04-2.98 1.04c-1.94 0-11.62 0-20.71-.3-2.53-.15-4.62-.15-4.62-.89 0-.6.3-.6.89-.89.75-.3 2.09-1.34 1.19-3.43L917.1 337.6c-.3-.6-.45-.75-1.19-.75h-30.25c-.6 0-1.04.3-1.34 1.04l-7.45 20.26c-1.19 3.13-1.94 6.26-1.94 8.49 0 2.53 2.24 3.43 4.47 3.43h1.19c1.04 0 1.34.45 1.34 1.04 0 .75-.74 1.04-1.94 1.04-3.13 0-10.28-.45-11.77-.45-1.34 0-7.9.45-13.26.45-1.64 0-2.53-.3-2.53-1.04 0-.6.6-1.04 1.19-1.04.89 0 2.83-.15 3.87-.3 5.96-.74 8.49-5.21 11.03-11.62l30.85-79.27zm14.6 52.74c.6 0 .6-.3.45-.89l-12.96-34.72c-.75-1.94-1.49-1.94-2.24 0L887 330.73c-.15.6 0 .89.45.89h26.52z"/></g></svg>
