<svg xmlns="http://www.w3.org/2000/svg" viewBox="0 0 500 500"><path d="M475.7 263.3c6.9 0 12.8-5.4 12.8-13 0-7.5-5.9-12.9-12.8-12.9-7 0-12.9 5.4-12.9 12.9s5.9 12.9 13.1 12.9m-85.1-32.9l6.5-15.8c2.9-7.2 5.9-18.1 6.1-18.6.3.9 3.2 11.7 6.3 18.6l6.5 15.8h-25.4zm-33.4 32.1h20.5l5.8-14.1h40.2l5.8 14.1H452L404.6 157h-1.8l-45.4 105.4zm-32.6 0h20.5V197h-20.5v65.4zm10.3-76.6c7 0 12.9-5.4 12.9-13 0-7.5-5.9-12.9-12.9-12.9s-13.1 5.4-13.1 13c0 7.9 6.2 12.9 12.9 12.9m-93.4 76.6h68.1v-18.9h-46.8v-85.6h-21.3v104.5zm-70.2-53.2v-32.4h14.5c10.2 0 17.1 4.5 17.1 16.1 0 11.5-6.7 16.3-17.2 16.3h-14.4zM150 262.4h21.3v-34.3h15.1c21 0 38.5-10.7 38.5-35.2 0-24.4-17.3-35-38.5-35H150v104.5zm-43.2 0h21.3V157.9h-21.3v104.5zm-70.6-53.2v-32.4h14.5c10.2 0 17.1 4.5 17.1 16.1 0 11.5-6.7 16.3-17.2 16.3H36.2zM15 262.4h21.3v-34.3h15.1c21 0 38.5-10.7 38.5-35.2 0-24.4-17.3-35-38.5-35H15v104.5z" fill="#231f20"/><path d="M476 320.6v1.6c0 3.4-2.6 5.6-7.7 5.6-3.5 0-5.3-1.3-5.3-3.5s1.4-3.6 4.5-3.6l8.5-.1zm0-7.4h-9.2c-9.7 0-16 3.5-16 11.9 0 9.3 6.6 12.6 13.9 12.6 5.3 0 8.7-1.8 11.6-6.3l-.3 5.5h12.4v-22.6c0-12.5-7.7-18-17.7-18-9.2 0-13.4 2.9-17.1 6.6l6.9 7.5c1.8-1.6 4.2-3.7 8.9-3.7 4.2 0 6.5 1.9 6.6 6.5m-47.2 44.2c9.2 0 14.1-5.2 14.1-14.3V297h-12.5v46.5c0 2.1-.9 3.2-2.9 3.2-1 0-2-.5-3-1.5l-6.2 7.5c1.9 2.3 5.9 4.8 10.6 4.8m7.8-67.1c4.2 0 7.8-3.2 7.8-7.9 0-4.6-3.6-7.8-7.8-7.8-4.2 0-7.9 3.3-7.9 7.8 0 4.8 3.7 7.8 8 7.8m-35.4 36.6c-5.6 0-9-4.1-9-10 0-6 3.4-10 9-10 5.5 0 8.7 4.1 8.7 10.1.2 5.8-3.3 9.9-8.7 9.9m0 10.7c12.2 0 21.6-8.6 21.6-20.6 0-12.1-9.4-20.8-21.6-20.8-12.2 0-21.7 8.6-21.7 20.8 0 12 9.7 20.5 21.7 20.6m-68.1-.9h12.4v-21.3c0-5 3-7.8 8-7.8 4.4 0 6.6 2.5 6.6 7v22.1h12.5v-22.9c0-11.3-6.2-17.6-14.7-17.6-5.5 0-10.1 2.6-12.5 7.4l.3-6.5h-12.4l-.2 39.6zm-21.9-16.1v1.6c0 3.4-2.6 5.6-7.7 5.5-3.5 0-5.4-1.3-5.4-3.5s1.4-3.6 4.5-3.6h8.6zm0-7.4h-9.1c-9.7 0-16.1 3.5-16.1 11.9 0 9.3 6.6 12.6 13.9 12.5 5.3 0 8.7-1.8 11.6-6.3l-.3 5.5h12.4v-22.6c0-12.5-7.7-18-17.7-18-9.2 0-13.4 2.9-17.1 6.5l6.9 7.5c1.8-1.6 4.2-3.7 9-3.7 4 .1 6.3 2 6.6 6.7m-47.1 24.4c12.4 0 16.1-6 16.1-13.2 0-8.4-7.2-11.1-12.9-12.4-5.4-1.2-7.9-1.5-7.9-3.7 0-1.6 1.4-2.3 4.3-2.3s5.7 1.4 7.6 3l6.6-7.2c-3.2-3.4-7.8-5.5-14.3-5.5-8.4 0-15.2 3.6-15.2 12.6 0 8.2 6 11.2 11.5 12.6 6.4 1.6 9 1.6 9 3.8 0 1.7-1.3 2.4-5.4 2.4-3.7 0-7.1-1.6-9.8-4.2l-7.3 6.6c3.1 4.3 8.4 7.6 17.7 7.6m-36.9-17.1v1.6c0 3.4-2.6 5.6-7.7 5.5-3.5 0-5.4-1.3-5.4-3.5s1.4-3.6 4.5-3.6h8.6zm0-7.4h-9.1c-9.7 0-16.1 3.5-16.1 11.9 0 9.3 6.6 12.6 13.9 12.5 5.3 0 8.7-1.8 11.6-6.3l-.3 5.5H240v-22.6c0-12.5-7.7-18-17.7-18-9.2 0-13.4 2.9-17.1 6.5l6.9 7.5c1.7-1.6 4.2-3.7 9-3.7 4 .2 6.3 2.1 6.4 6.7m-96.1 23.5h12.5v-21.3c0-5.4 2.2-7.8 7-7.8 4.7 0 6 2.5 6 7.2v21.9h12.3v-21.3c0-5.4 2.1-7.8 6.9-7.8 4.7 0 6.3 2.5 6.3 7.2v21.9h12.4v-23c0-10.9-5.7-17.5-15.6-17.5-5.8 0-10.2 2.7-13.4 6.8-2.4-4.7-6-6.8-11.1-6.8-4.7 0-8.4 2.1-11.2 7l.3-6.1h-12.5l.1 39.6zm-22.7 0h12.5V297h-12.5v39.7zm6.3-46.4c4.2 0 7.8-3.2 7.8-7.9 0-4.6-3.6-7.8-7.8-7.8-4.2 0-7.9 3.3-7.9 7.9 0 4.8 3.8 7.8 7.9 7.8M78.3 327c-5.5 0-9-4.1-9-10 0-6 3.4-10 9-10 5.5 0 8.7 4.1 8.7 10 .1 5.8-3.2 9.9-8.6 9.9m-.1 10.7c12.2 0 21.6-8.6 21.6-20.6 0-12.1-9.4-20.8-21.6-20.8-12.2 0-21.7 8.6-21.7 20.8 0 12 9.5 20.5 21.7 20.6m-46-.1h1.2l21-40.5H41.9l-5.4 11.8c-1.7 3.8-2.9 9.9-3 10.4-.2-.8-1.6-6.7-3.2-10.4L24.8 297H11l21.3 40.5z" fill="#eb008b"/></svg>
