<svg xmlns="http://www.w3.org/2000/svg" viewBox="0 0 600 600"><path fill="#9865a6" d="M293.6 18.2h15.3v146.5h-15.3z" id="Layer_3"/><g id="Layer_2"><path fill="#9865a6" d="M293.6 256.7h15.3v325.2h-15.3zM308.9 202.2V171h-15.3v31.2H99.8v16.5h193.8v31.5h15.3v-31.5h191.3v-16.5z"/></g><g id="Layer_4"><path fill="#28317f" d="M347.5 171H388v79.2h-40.5z"/><path fill="#223382" d="M214.5 171H255v79.2h-40.5z"/><path fill="#28317f" d="M214.5 257.7v310.8c0 9.3-9.5 13.3-9.5 13.3h50V257.7h-40.5zM388 257.2V568c0 9.3 9.5 13.3 9.5 13.3h-50V257.2H388z"/></g><path fill="#28317f" d="M423.9 256.7H99.8v50s4-9.5 13.3-9.5h373.7c9.3 0 13.3 9.5 13.3 9.5v-50h-76.2z" id="Layer_5"/><path fill="#28317f" d="M487.9 125H387.8l.2-93.5c0-9.3 9.5-13.3 9.5-13.3h-50l-.2 106.8H255l.2-106.8h-50s9.5 4 9.5 13.3l-.2 93.5H114.2c-9.3 0-13.3-9.5-13.3-9.5v50h400.5v-50c-.2 0-4.2 9.5-13.5 9.5z" id="Layer_7"/></svg>
