<svg id="Layer_1" xmlns="http://www.w3.org/2000/svg" viewBox="0 0 500 500"><linearGradient id="SVGID_1_" gradientUnits="userSpaceOnUse" x1="247.7" y1="245.9" x2="247.7" y2="437.2" gradientTransform="matrix(1 0 0 -1 -10 490.2)"><stop offset=".07" stop-color="#fff"/><stop offset=".24" stop-color="#d0cfcf"/><stop offset=".4" stop-color="#a7a6a5"/><stop offset=".57" stop-color="#878685"/><stop offset=".73" stop-color="#706f6e"/><stop offset=".87" stop-color="#636160"/><stop offset="1" stop-color="#5e5c5b"/></linearGradient><path d="M243 53l-1.2 67-70.2 32s65-18.7 70-16c0 0-1.2 95-7.2 107l17.5 1.3s6.1-104.8 3.6-110.8c0 0 41.5-7.5 48.3-5.5 0 0-18.2-6.2-6.7-24.7L255.3 115s-2-44.5-12.3-62z" fill="url(#SVGID_1_)"/><path fill="fill:#5e5b5c" d="M242 254.1s-37.2-99.6-201.3-7.9c0 0 133.6-62.3 201.3 7.9z"/><path fill="#767378" d="M242 261.9s-43.7-78.1-206.7-7.7c0-.1 129.7-50 206.7 7.7z"/><path fill="#949094" d="M236 265.2s-45-53-209.7 0c0 0 145-35 209.7 0z"/><path fill="fill:#5e5b5c" d="M248.3 254.1s37.2-99.6 201.3-7.9c0 0-133.6-62.3-201.3 7.9z"/><path fill="#767378" d="M248.3 261.9s43.7-78.1 206.7-7.8c0 0-129.7-49.9-206.7 7.8z"/><path fill="#949094" d="M254.3 265.2s45-53 209.7 0c0 0-145-35-209.7 0zM19.7 275.2h459.7v5H19.7z"/><path fill="#002333" d="M33.4 448.32h6.03c5.89 0 9.44-1.45 10.65-4.35 1.21-2.9 1.82-16.63 1.82-41.21v-32.38c0-25.51-.51-39.53-1.54-42.05-1.03-2.52-4.06-3.83-9.11-3.92H33.4v-6.03c10.56.47 21.03.7 31.4.7 8.6 0 16.4-.23 23.41-.7v6.03h-7.43c-4.58 0-7.43.56-8.55 1.68-1.12 1.12-1.78 3.83-1.96 8.13-.28 6.82-.42 18.97-.42 36.44v32.94c0 24.76.56 38.41 1.68 40.93 1.12 2.52 4.63 3.78 10.51 3.78h6.31v6.03c-7.85-.47-16.4-.7-25.65-.7-10.75 0-20.46.23-29.16.7l-.14-6.02zM167.12 377.39c13.64.93 23.5 4.11 29.58 9.53 6.07 5.42 9.11 12.94 9.11 22.57 0 12.15-5.09 22.66-15.28 31.54s-23.08 13.27-38.69 13.18l-7.57-.28-16.12-.42-11.77.42-7.99.28v-4.35c3.92-1.87 6.26-3.32 7.01-4.35.87-1.54 1.3-3.28 1.26-5.05.47-7.57.7-16.21.7-25.93V355.1c0-15.89-.56-24.9-1.68-27.05-1.12-2.15-4.53-3.41-10.23-3.78H99v-6.03h7.99l8.83.28 10.79.28 23.83-.56 13.88-.42c10.93 0 19.11 1.92 24.53 5.75 5.42 3.83 8.83 10.7 10.23 20.6a28.16 28.16 0 0 1-7.15 19.2c-4.95 5.71-13.22 10.38-24.81 14.02zm-31.68-2.66l8.83.28c12.71 0 21.77-2.24 27.19-6.73s8.18-10.98 8.27-19.48c0-7.29-2.29-12.9-6.87-16.82s-11.91-5.89-22.01-5.89c-4.88.04-9.76.46-14.58 1.26-.56 7.76-.84 19.48-.84 35.18v12.2zm0 69.94c4.87.82 9.78 1.29 14.72 1.4 11.31 0 20.04-2.99 26.21-8.97 6.17-5.98 9.25-14.16 9.25-24.53 0-6.92-1.35-12.62-4.06-17.1-2.67-4.42-6.7-7.87-11.49-9.81-4.95-2.06-12.85-3.08-23.69-3.08l-10.93.28v45.98c.19 4.3.28 7.62.28 9.95-.04 1.97-.18 3.93-.42 5.89h.13zM304.63 324.83c-1.78 6.63-2.71 15.42-2.8 26.35h-6.59v-7.71c0-4.95-.65-8.32-1.96-10.09s-4.81-3.69-10.51-5.75a52.6 52.6 0 0 0-17.8-2.94c-10.19 0-18.18 2.57-23.97 7.71a25.235 25.235 0 0 0-8.69 19.76c-.12 4.66 1.15 9.24 3.64 13.18 2.32 3.56 5.71 6.31 9.67 7.85 4.02 1.59 12.62 3.04 25.79 4.35 13.18 1.31 22.05 2.99 26.63 5.05 4.65 2.13 8.52 5.66 11.07 10.09a31.74 31.74 0 0 1 4.21 16.54c0 12.8-5.33 23.83-15.98 33.08s-25.04 13.88-43.17 13.88c-6.21.01-12.41-.61-18.5-1.82-6.4-1.29-12.69-3.12-18.78-5.47 1.29-9.76 1.85-19.6 1.68-29.44h6.45v4.77c0 6.17.33 10 .98 11.49 1.06 1.91 2.61 3.5 4.49 4.63 3.79 2.64 8.01 4.59 12.48 5.75 5.12 1.34 10.4 2 15.7 1.96 12.05 0 21.35-2.85 27.89-8.55a27.354 27.354 0 0 0 9.81-21.59c.13-4.53-1.04-9-3.36-12.9a20.123 20.123 0 0 0-9.39-7.85c-4.02-1.68-11.45-2.99-22.29-3.92-14.39-1.12-24.16-2.85-29.3-5.19a26.153 26.153 0 0 1-12.19-10.79 35.534 35.534 0 0 1-4.35-18.36c0-12.43 4.49-22.57 13.46-30.42 8.97-7.85 21.4-11.77 37.29-11.77 6.46.02 12.89.73 19.2 2.1 6.57 1.36 13 3.38 19.19 6.02zM415.92 408.37H360.7l-6.45 15.42c-4.3 10.19-6.45 16.45-6.45 18.78-.08 1.17.39 2.31 1.26 3.08.84.65 2.85 1.17 6.03 1.54l9.11.98v6.03c-6.07-.47-12.94-.7-20.6-.7-9.16 0-17.19.23-24.11.7v-6.03h2.8c4.49-.09 7.38-.56 8.69-1.4 1.31-.84 2.71-2.8 4.21-5.89 4.49-9.16 9.11-19.06 13.88-29.72l26.21-59.43c7.01-15.79 11.77-27.24 14.3-34.34h6.45l48.36 112.42c1.83 4.72 3.99 9.31 6.45 13.74a9.64 9.64 0 0 0 3.78 3.36c1.4.65 4.53 1.12 9.39 1.4v6.03c-8.32-.47-16.21-.7-23.69-.7s-16.82.23-28.03.7v-6.03l9.39-.56c3.36-.28 5.37-.61 6.03-.98.88-.6 1.4-1.6 1.4-2.66 0-1.12-.93-4.11-2.8-8.97l-10.39-26.77zm-51.72-7.85h48.08l-24.11-57.33-23.97 57.33z"/></svg>
