<svg xmlns="http://www.w3.org/2000/svg" viewBox="0 0 1200 600"><path fill="none" d="M312.7 121.3h142.9v81.8H312.7z"/><path d="M314 124.9c.5-.2 1.5-.7 2.9-1.5.5-.3 1.1-.4 1.9-.4.8 0 1.6.3 2.6.9l1.1.1c1 .2 1.9.3 2.5.3l3.5.3 1.2.1h.6c1.1-.1 1.9-.2 2.4-.2.3 0 .7 0 1.2.1l4 .2c.1 0 .5-.1 1.2-.3.1-.1.3-.1.4-.1 0 0 .3.1.8.2.9.1 1.4.1 1.7.2.2.1.6.2 1.2.4.8-.4 1.4-.7 1.8-.7.1 0 .8.1 2.1.4l.9-.2c.6.1 1 .2 1 .2H351.9l1.6-.1h.5c.7 0 1 0 1.1.1l1.3.4.1-.1.4-.8c.6.1 1.1.1 1.3.1l1.9-.3h.1c.1.1.3.6.6 1.4l.5-.8c0-.1.4-.1 1.1-.1l1.6-.8c.1 0 .1-.1.2-.1.2 0 .3.1.3.2l.6 1.4 1.5-1.6.6-.1.7-.3c.3 0 .6.2.7.5l-.6.5-.1.5c-.4.2-.6.3-.7.4l-.7.9c-.1.1-.3.3-.8.5-.4.2-.9.3-1.3.3-.2 0-.4 0-.6-.1-.7-.1-1.1-.2-1.2-.2h-.5c-.5.1-.8.1-.9.1-.2 0-.6-.1-1.2-.2-.5-.1-1-.1-1.4-.1-.1 0-.8.1-2.2.3-.3 0-.7.1-1 .1-.1 0-1.2-.1-3.2-.2l-1.1.2-1.8-1.1-.8 1.1-.6-.2-.8-.1-1.4-.1-.3.1c-.3.1-.5.1-.7.1-.1 0-.8 0-1.9-.1h-.7c-.3 0-.6.1-.8.2.1.2.2.2.2.3 0 .1-.3.5-1 1.1-.1.1-.4.5-.9 1.4-.1.1-.3.5-.8 1-.3.4-.5.7-.5.8 0 .5.6 1 1.8 1.4.6.2.9.4.9.5l-.3.6c-.1.2-.2.4-.3.8h-.5l.1.9.7.4c.2.4.3.6.3.8 0 .2 0 .6-.1 1.1 0 .3-.1.6-.1.9 0 .3.1 1.2.2 2.7l.1 1.4c0 .6 0 1.1.1 1.5 0 .5.1.8.1.8 0 .4-.1.6-.3.7 0 0-.2.1-.4.1s-.3.2-.6.3v.2l-.1.1.7.5v1l.8.4c-1.7.9-2.5 1.8-2.5 2.6s.8 1.5 2.4 2.1c-.3.3-.4.5-.4.7 0 .2 0 .6.1 1.3v1.2l.3.1c-.1.8-.2 1.4-.2 1.7l.1 1.1c0 1 .1 1.6.1 1.8 0 .1.1.4.3 1-.3.7-.4 1.2-.4 1.4v.6l-.1.1c-.7.1-1 .3-1 .7l.2.6 1-.3c0 .4.1.6.1.8.1.4.2.6.2.6s0 .2-.1.5v.4c0 .2 0 1 .1 2.5 0 .3-.1 1.1-.3 2.7 0 .3-.1.6-.1.9 0 .2.1.7.4 1.6-.1.7-.2 1.1-.3 1.2-.1.1-.5.2-1 .3-.4.1-.6.2-.8.4l-.4.5c-.5 0-.7 0-.8.1-1.1.7-1.8 1.1-2.2 1.3-.3-.4-.5-.7-.5-1 0-.1.1-.4.3-1v-.8l.2-.8.1-1.5.1-.9c0-.7 0-1.1.1-1.3.1-.3.4-.6.9-1-.4-.4-.6-.7-.6-1l.1-1.3v-1.5c.1-.8.1-1.3.1-1.8l.4-.5v-.5c0-.2 0-.4.1-.8l-.5-.4h-.1l.2-.6v-4.7c0-.2 0-.5.1-1s.1-.9.1-1.2c0-.1-.1-.5-.2-1.1l-.1-1.3c0-.4-.1-.6-.1-.6s.1-.4.4-1.2c0-.4 0-.7.1-.8.1-.2.3-.3.8-.3v-.5l-.9.2c-.1-.5-.2-.8-.2-1 0-.2 0-.5.1-.9 0-.2.1-.4.1-.8-.3-.1-.5-.2-.7-.3l.1-.7v-5.5c0-.3.4-.7 1.1-1 .7-.3 1.1-.6 1.1-.8 0-.1-.4-.4-1.1-.8-.3-.2-.7-.5-1.2-.9.4-.2.7-.4.7-.6 0 0-.1-.4-.3-1.1v-.2c0-.2 0-.5.1-.7-.5-.6-.8-1.3-.8-2.1 0-.2.1-.5.4-1-.2-.5-.3-.8-.3-1l-.1-.1c0-.5.9-1.2 2.6-1.9.2-.1.3-.2.3-.2 0-.1-.9-.3-2.7-.7-.2 0-.3-.2-.3-.4 0-.1 0-.2.1-.3-.6-.3-1.6-.4-2.8-.5-.4 0-1 0-1.7-.1h-.1c-.1 0-.5.1-1.4.2l-2.2-.2c-.1 0-.3.1-.6.2-.3-.2-.6-.3-.8-.3H325.8l-1.5-.5-.5.2-.5.2-1 .5c-.8-.2-1.3-.3-1.4-.3-.2 0-.7.1-1.5.2H317c-.2 0-.7-.1-1.5-.3h-.3c-.3 0-.9 0-1.7.1 0 0 0-.1-.1-.1l-.1-.1c0-.1.1-.3.4-.6-.1.1.1-.2.3-.5zM372.5 123.1c.2-.3.6-.6 1.2-1l1.9-1c.5-.3 1-.4 1.5-.4.2 0 .4.1.7.3-.9.4-1.4.6-1.6.8l-1.1 1.2 2.2 2.1c.1.1.1.3.1.6 0 .2-.1.5-.3 1l-.3.5-.5.2c-.1 0-.1.2-.2.4s-.1.4-.1.5c0 .2 0 .4.1.7.2 0 .5-.1.7-.3.2-.1.4-.2.6-.2l-.3 5.1c0 .2 0 .4.1.8v.7c0 .4-.2.8-.7 1.3 0 .4 0 .7.1.8l.5.6c.1.1.2.4.2.7 0 .2-.1.6-.3 1.4l.2 1.1c.1 1.1.1 1.6.1 1.6 0 .1-.1.4-.3 1l.2 1.2-.1.6c.1.6.2.9.2.9 0 .1 0 .2-.1.3-.2 1-.3 2.1-.3 3 0 .4.1.8.3 1.3 1-.6 2.3-1.6 3.7-3l1.2.2c.4-.3.9-.5 1.5-.6.9-.2 1.4-.3 1.6-.3.2 0 .5.1.8.4l.2.6h.7c.1-.1.3-.4.5-.7.1-.2.2-.3.3-.2l1.7.1c1.7.1 2.6.2 2.8.3 0 0 .3.4 1 1.1.2.3.6.5 1.2.8l-.4.9c.3.2.6.3 1 .3.4.5.6 1 .6 1.6 0 .6 0 1.3-.1 2s-.2 1.1-.4 1.3l-.3.3.4 1.1-.6.7-.1.3.8.8c-.1.3-.1.4-.1.5v.7l.1 1.7v.3c-.3.6-.5.9-.5 1 0 .1.1.8.4 2l-.1 2.5v.3c-.4.3-1 .5-1.6.5-.3.3-.7.4-1 .6-.4.2-.8.3-1.1.5l-1-.9c.1-.5.3-1 .6-1.6.3-.7.5-1.5.5-2.2 0-.2-.1-.6-.4-1.4l.1-.4.2-1.1c.2-.6.4-1.4.5-2.4l-.5-.3c0-.7.1-1.8.3-3.4v-.3-.2c-.1-.9-.2-1.4-.2-1.4s0-.1.1-.3c.1-.2.1-.3.1-.4 0-.1-.1-.4-.4-1-.2-.3-.4-.6-.7-.8-.1-.1-.4-.2-1-.3-.8-.4-1.2-.6-1.4-.6H387c-1.1-.2-1.7-.2-1.9-.2h-.6c-.8.1-1.3.1-1.4.1-.7 0-1.5.1-2.3.3l-.4.1-1.7.9-1 .3c-1.4 1.3-2.1 2-2.1 2.1 0 .5.6.9 1.9 1.1-.1.4-.1.7-.1.8-.1.6-.2 1.6-.3 3.2-.4 0-.7.1-.8.2v.2c.5.6.8 1.1.9 1.5.2.5.3 1.3.3 2.5l.1.9-.3 1.3.1.8v1c0 .1-.1.3-.3.6 0 0-.6.3-1.8.6-.3.1-.8.4-1.4 1l-.7-.6c0-.6.2-1.3.4-2.2v-.8s.1-.3.4-.8c.1-.2.2-.5.2-.7 0-.1 0-.3-.1-.5-.2-.4-.3-.6-.3-.7l.1-1.5v.6-2-.5-.3l-.1-1.1.1-2.2-.1-1.7c0-.2.1-.4.1-.5 0-.1.3-.3.8-.8.1-.1.2-.3.2-.5 0-.3 0-.6-.1-.9l-.7.2c-.2-.9-.3-1.9-.3-3.1 0-1.5 0-3.1.1-4.9l1-.1c-.2-.4-.4-.9-.5-1.4l-.7-.5c.1-.6.1-1 .1-1.2 0-.3 0-.6-.1-1-.2-1.3-.3-2.3-.3-2.9 0-.5.2-.8.5-1.1.9-.7 1.4-1 1.4-1.1-.4-.4-1.1-.6-2.1-.7.1-.3.1-.6.2-1.1.2-.7.3-1.1.3-1.2 0-.3-.2-.6-.6-.9v-1.2-1c0-.7-.1-1.1-.1-1.3 0-.1.1-.5.2-1.2-.5-1.5-.7-2.3-.7-2.5V123.1zM419.8 147.9l.9-.6c.3.3.5.6.6.7l.6.3c.2.1 1 .9 2.5 2.4.5.5.8.9 1 1.4.2.4.3.8.5 1.3.1.3.3.6.4 1l-.2.2c-.2 0-.5-.1-.9-.3l-1.1.4-1-.2-.9.2c-1.2-.8-1.8-1.3-1.9-1.3-.1 0-.6.4-1.4 1.2-1.2-.2-1.9-.3-2-.3-.3 0-.7 0-1.1.1l-.1-.1c-.3 0-1.1.1-2.5.1l-1.1.1-1.3.1-1.4.2h-1.2c-1.1.3-1.9.5-2.3.6-.1.7-.2 1.1-.3 1.4-.1.3-.3.6-.7 1 .6.4.9.7 1 .9.2 1.2.4 2.1.5 2.5l.5.3-.1 1.1.9.2c.2.8.4 1.3.8 1.6.3.3.8.4 1.4.5.1.6.3 1 .5 1.1.2.1.5.2 1 .2l.5.8c.2 0 .4-.1.5-.1.1 0 .7.2 1.7.7.2.1.5.2.8.2.3 0 .7-.1 1.5-.3l1.8-.2 1.4-.4c.7 0 1.1-.1 1.4-.2.3-.1.9-.5 1.8-1 .8-.5 1.3-.9 1.5-1.1.3-.4.7-.9 1-1.4.2-.2.4-.3.8-.3.2 0 .4.1.8.4-.1.7-.3 1.1-.4 1.4-.8 1.4-1.3 2.3-1.5 2.7-.3-.1-.5-.2-.6-.2-.1 0-.4.2-1 .6-.3.2-.8.4-1.3.4-1.2.3-2 .5-2.5.6-.8.1-1.3.1-1.5.2l-.9.3-1.7-.3-1 .2h-.5c-.5.1-.8.1-1.1.1s-1-.1-2.1-.2l-.5-.1-.6-.4c-1.4-.4-2.2-.7-2.4-.8-.1-.1-.4-.3-1-.9 0 0-.4-.3-1-.6-.5-.3-.8-.6-.9-.8l-.5-.9c-.1-.2-.4-.5-1-1.1.2-.3.3-.5.3-.7 0-.1-.3-.6-.8-1.6-.1-.3-.2-1.1-.2-2.5 0-.4.1-1.1.4-2.1.2-.8.4-1.2.5-1.3l1-1.2.6-1.4c.7-.6 1.4-1.3 2.3-2.1l2.1-1.3 2.1-1.5.8-.1 2.2-.7 1.4-.1c1.1-.4 1.8-.6 1.9-.6 1.2 0 1.9.5 2.3 1.6zm-3.4 4.3l.5.6c.4-.1.6-.1.8-.1.5-.1 1-.2 1.6-.4l1.6.1s.1-.1.1-.3v-.3c0-.2-.1-.4-.3-.6 0 0-.1-.2-.3-.3-.5-.6-.8-.9-.9-.9l-1-.5c-.1-.1-.3-.3-.5-.7-.6-.1-1.5-.1-2.9-.1h-.6l-1 .6s-.6.2-1.6.4c-.8.3-1.5.6-2.1.8-.1.1-.5.4-1.1 1-.1.1-.3.3-.7.5v.2l.1.1 2.1.8.6.6 1.1-1.4c.1-.1.2-.1.3-.1.1 0 .5.1 1.4.4h.1c.3 0 .8-.1 1.6-.3.4 0 .7-.1 1.1-.1z"/><path fill="none" d="M447.9 132.4h335.8v132.3H447.9z"/><path d="M462.1 210.8c.6-.1 1-.2 1.2-.3v-1l-.9-.8c-.1-.8-.2-1.7-.3-2.7 0-.2-.1-.4-.1-.6 0-.7.4-1.5 1.2-2.4l-.2-.2c-.1-.6-.3-1.1-.6-1.5-.2-.3-.4-.7-.5-1.3-.3-1.1-.4-2-.4-2.5l.4-4.3v-3.7l.8-.9c-.8-.3-1.1-.4-1.1-.5.2-2.7.3-4.1.3-4.2 0-.5-.1-1.7-.4-3.6l.2-.2-.2-2.7c.4-.3.9-.4 1.5-.5.3-.1.6-.2.9-.4-.1-.6-.5-1.1-1-1.5.1-.3.1-.6.1-.7 0-.4-.2-.9-.5-1.6l-1.1.7c-.5-1.2-.8-2.2-.8-2.9 0-.3.1-.8.3-1.6l-.1-3v-1.6l-.2-1.1.2-2.3c-.5-3.4-.8-5.2-.8-5.5 0-.5.1-1 .4-1.6.1-.3.2-.7.3-1.4.4-.3.5-.6.5-.9V151.2l.2-1.4-1.6.2c0-.8-.1-1.6-.4-2.6l-.2-1.5c-.4-2.1-.5-3.6-.5-4.8 0-.8.1-1.6.3-2.5-.4.1-1.2.2-2.3.2l-2.8.6c-.1 0-.3-.1-.7-.2.5-1.4.8-2.2.9-2.2.8-.4 1.4-.8 1.7-1.1v-.3c.7-.1 1.2-.3 1.4-.3.9-.3 1.5-.4 1.7-.4.1 0 .6.1 1.5.3.3.1.6.1.9.1.5 0 1.6-.4 3.4-1.2.1 0 .9-.1 2.4-.1.3 0 1.5-.1 3.7-.4.2 0 .3-.1.4-.1.5 0 1.3.2 2.5.5.6.2 1.1.3 1.6.3.3 0 1-.1 2.1-.3.5.9.9 1.4 1.3 1.5.3.1.9.1 1.8.1l.4-.7c.9-.2 1.7-.5 2.4-1 1.8.2 3.4.3 4.9.4 1.8.1 4 .3 6.5.8h2l3.4.4c.8 0 1.3.1 1.5.1.4.1.9.4 1.5 1 .7-.1 1.2-.2 1.5-.2.7 0 3 .7 6.9 2.2 1.8.5 2.8 1 3 1.2.7.8 1.1 2 1.1 3.4 0 1.7-1 4-2.9 6.8l-1.5 2.4c-2 1.8-3.3 3.1-4 3.9h-2.3l-.2.2v1.7c-.8.4-1.2.7-1.5.8-1.8 1.1-3.4 1.8-4.8 2.3l-2 .9c-1.4.3-2.3.4-2.5.5-.3.1-.6.4-1 .7.7.4 1.3.6 1.7.7.1 0 1.3.1 3.6.3 1 .1 2.2.4 3.7.9 2 .7 3.6 1.2 4.6 1.4.8.1 1.6.4 2.3.9-.1.6-.2 1.1-.2 1.5 0 .5.5 1 1.5 1.5.3-.3.7-1.2 1.4-2.5.8 0 1.7.2 2.7.6 1.7.7 2.9 1.2 3.5 1.4.4.1.7.6 1 1.5l1.5.6.2.6.8-.4.5.6c.5-.5.9-.7 1.4-.7.8 0 2 .5 3.6 1.5 2.9 1.8 4.9 3.2 6.1 4.1.6.4 1.3 1.2 2.1 2.2-.1.3-.2.6-.2.7 0 .3.1.6.4 1 .4-.4.8-.7 1.1-.7.1 0 1.7 1.1 4.7 3.3l.7 1c.7.4 1.2.7 1.4.8.1.1.6.7 1.4 1.9 1.1 1.3 1.8 2.3 2.2 3-.9.8-1.4 1.5-1.4 2.2 0 .2 0 .4.1.7l1.8-.3c.7 1 1.3 1.9 1.6 2.7.2.5.6 1.8 1.1 4.1.8 1.7 1.2 3 1.2 3.7v.1l-.2 2v2.1c0 .7-.7 1.8-2 3.1 0 .3.3.6.8.8 0 .4-.1.8-.1 1.1 0 .2 0 .4.1.5.1.6.1 1 .1 1.1 0 .2-1.1 1.9-3.4 5l-1.2.9-1.2 1.1c-.9.6-1.5 1-1.7 1.1-.1.1-.4.7-1 1.7-.9 1.3-2.8 2.5-5.7 3.6l-.7-.7c-1.1.1-1.8.3-2.3.4-.4.2-.9.8-1.5 1.6.8.1 1.1.4 1.1.9 0 .2-.1.5-.3.8-.3.4-1.7.8-4.2 1.3-.8.1-2.4.8-4.9 2l-1.5.6c-1.5.5-2.3.9-2.6 1-.4.2-.7.3-.9.3-.2 0-.6-.2-1-.5l-1.6.5-.5.8c-.7.1-1.2.2-1.4.3-1.1.2-1.8.4-2.2.5l-1.4.8c-1.4-.4-2.2-.6-2.3-.6-.2 0-.6.3-1.1.8-.2.2-.6.4-1.2.4-1.5.3-2.7.6-3.5 1.1l-1.4-1.2h-.3c-.4 0-.9-.1-1.4-.3l-1.1 1.5-10.6.3-2.3-.6.4-1.6-1.5-.3c-.4.5-.9.8-1.6 1-1.2.4-1.8.5-2 .5 0 0-1.4-.3-4.1-.9l-.9-.5-1.8.1c-.9-.4-1.7-.6-2.4-.6-.5 0-1.4-.1-2.9-.2l-1.5.2-2.1-.2-4.9-.2-.3-.1c-1.7.2-2.7.3-3 .3-1.9 0-2.8-.4-2.8-1.2 0-.1.1-.3.3-.4.7-.7 1.4-1.1 2.1-1.4l4.2-1.6c.4-.1.7-.5 1.1-1.1.3-.5.4-.9.4-1.2l-.1-1.5 4.8-1.4-4-1.1c-.6-.1-.9-.6-.9-1.3 0-.2.2-.7.7-1.6l.1-3.1v-.9c0-.3-.3-1.1-.9-2.4l5.2-2.2-5.1-1.6c.4-.5.7-.8.7-.9.1-.1.2-.5.3-1.2-.2.3-.1-.3.2-1zm4.2-60.7h.2l.3-.2c.4.7.8 1.3 1.4 1.8v9.1l-.3 1.5c.9.2 1.5.4 1.8.4.3.1.5.1.7.1l1.2-.1h.1s.7.1 1.9.3c1.5.1 3.1.2 4.7.3-.1.6-.2 1-.2 1.4 0 1.2.3 1.7.8 1.7.3 0 1.2-.9 2.5-2.7v-.7l9.9-2c.4-.1 1.2-.5 2.4-1.3l2.2-.8 1.9-1.3c2.7-1.6 4.5-2.8 5.4-3.6 1.4-1.3 2.1-2.1 2.2-2.4l1-2.7c.6-1.5.9-2.4.9-2.5 0-.4-.3-.9-1-1.5l.7-1.6c-.3-.1-.6-.2-.7-.2-.1 0-.6.2-1.7.7l-2.4-2.6c-.4 0-.6.1-.8.1-.5 0-1.2-.1-2.1-.3-.4-.6-.6-.9-.7-.9l-5.4-1-2-.7-1.7.3-1-.1H487l-2-.5-2.1-.1-1.8-.1-4.6.7-4.1.4c-1.1.3-2 .4-2.8.4h-1.3c-.4.8-.6 1.2-.6 1.4l-.4 6.3c0 .6-.5 1.2-1.4 2l.1.2c.1-.1.3.3.3.8zm.7 68.6l.5 1.8 1.7-.3c.4 1 .7 1.9.7 2.7v.3c0 .4 0 .9-.1 1.5-.1.5-.2.8-.2.9.5 2.7.8 4.1.8 4.2 0 .8-.4 1.6-1.3 2.4-.4-.1-.7-.2-1-.2-.2 0-.5.2-.8.5.9.6 1.9 1 3 1.1 1 .1 1.9.4 2.7.8l.2 1.1c.6-.1 1.1-.5 1.6-1 1.2.6 2.6 1 4.1 1.3l1.8.8 1.7.2c4.4.6 7.9 1 10.3 1 2.1 0 5-.4 8.8-1.2l1.1.9c.5-.6.8-.9 1-.9l2.4-.3c.4 0 1-.4 1.8-1.2 1.3 0 2.2-.1 2.5-.2l3-.8c1.6-.3 3-.8 4.2-1.4.7-.4 1.3-.5 1.6-.5.1 0 .4.1.9.2.3-.4.8-.7 1.4-.9 4.1-1.8 7-3.4 8.7-5 .4-.3 2-1.2 4.8-2.7.2-.1.6-.7 1.1-1.8.8-1 1.4-1.7 1.6-2 .4-.4 1.3-.9 2.6-1.4l.1-1.1c3.3-.5 5-.9 5-1.2 0-.3-1.7-.6-5.1-1 .5-1 .9-1.8 1.1-2.1 0-.2.3-1.2.6-2.9.2-.6.3-1.2.4-1.6l-.2-.2 1-.8c-.4-.6-.6-1-.6-1.2v-2.7l-1.1-2 .1-1.6c0-1.1-1.1-3.1-3.4-6-.9-1.2-2.6-3.1-5.3-5.7.1-.4.1-.7.1-1 0-.3-.1-.6-.4-.8-.4-.3-.6-.5-.7-.5h-.6c-.7-.3-1.4-.7-2.1-1-1.4-.8-2.2-1.2-2.5-1.4-.2-.1-.5-.5-.8-1.1 0 0-.2-.1-.4-.3-.3-.2-.7-.4-1-.6-.7-.5-1.5-.9-2.2-1.1l-1.1-.7c-.6-.3-1-.5-1.1-.7-.1-.1-.4-.7-.9-2-.1-.1-.2-.2-.4-.2-.1 0-.7.3-1.9.8-.1 0-.2.1-.3.1-.5 0-1-.2-1.6-.5-.7-.5-1.6-.9-2.6-1.2l-1.1-.5-4.9-1.5-3.4-1.8c-1-.4-1.8-.8-2.4-1.3-1.2.6-2 .9-2.2.9l-3-1-2-.8-2.2-.3-1.8-.4-1-.2-2-.4c-3.1-.3-4.7-.4-4.8-.4l-2.9.1-4.4-.2c-1.6 0-3.3.8-4.9 2.3.1.9.3 2.2.7 4 0 .1.1.3.1.5 0 .4-.2 1.1-.5 2h-.1c-.9 0-1.5.1-1.8.4.2 1.3.3 2 .4 2.2.1.2.5.6 1.1 1.4-.1.5-.2 1.1-.3 1.8v2c0 .4.1 1.4.4 2.9.1.6.1 1.2.1 1.7s0 1.1-.1 2l-.3 3.2-.1 1.1.5 2.1.1 2.7c.3 1.5.4 2.5.4 2.9 0 .7-.2 1.9-.5 3.5h-.9l.3 2.7c.9.7 1.4 1.4 1.4 2.2l-.1 3.6c0 .3 0 .8.1 1.6l-.3.3h-.3l-.2.2v.3c-.5 0-1-.1-1.4-.1-.4.2-.7.4-1 .7zM562.2 185.2c0-.5.5-1.2 1.6-2.1 2.4-1.8 4.4-3.1 6.2-3.6l1.6 1.7c-.4.9-.7 2.2-.9 3.8-.2 1.3-.3 2.1-.3 2.4v2l-.9 1.3c0 .9.4 1.8 1.2 2.6-.2.4-.3.6-.3.7l.1 2.7-.1.6c0 .3-.1.7-.1 1.2l-.3 10.3c0 .5.3 1.8.7 3.7l.1 2.3c.2 1.1.3 1.7.3 1.9 0 .8-.3 1.4-1 2.1-.2.2-.9.7-2.1 1.4-1.8 1.4-2.8 2.2-3.1 2.3-.4.1-.7.2-1 .2-.4 0-.9-.2-1.3-.7.1-.9.2-1.5.3-1.8 0-.4.2-1.2.6-2.4l.1-2.7.4-5.3-.1-1c0-.6.3-.9.9-.9.1 0 .3 0 .5.1.2-.6.3-1 .3-1.2 0-.3-.1-.8-.3-1.7-.1-.4-.2-.9-.3-1.5l-.9-.7c.1-.8.2-1.4.2-1.8 0-.2 0-.5-.1-.8v-.8c0-.5.2-1 .5-1.6-.4-.4-.5-.9-.5-1.4v-.5l-.1-1.2c2.3-.4 3.5-.8 3.5-1.1 0 0 0-.1-.1-.2-.5-.5-1.2-.7-2-.7-.6 0-1.3 0-2.1.1.1-.5.2-.9.2-1.1 0-.1-.1-1.9-.4-5.4 0-.4-.3-.8-1-1.2zm1-21.8c-.1-1.3.8-2.7 2.8-4.2.4-.3.9-.8 1.4-1.4 0 0 .4-.3 1.1-.9 1.3-2 2.2-3.1 2.5-3.3.5-.4 1-.6 1.4-.6.1 0 .6.3 1.2.8.7.5 1 1.1 1 1.8 0 .6-.3 1.1-1 1.5-1.7 1.2-3.3 2.5-4.8 3.9l-1.5 1-1.9 1.3c-1 .5-1.6.8-1.7.8-.3.1-.5-.2-.5-.7zM585.4 218.8c1.1-.7 1.9-1.2 2.2-1.5.1-.1.5-.8 1-1.9.6-.9.9-1.4.9-1.6 0-.3-.1-.8-.3-1.5-.1-.6-.2-1.2-.2-1.8 0-2 .7-3.1 2.2-3.2l.3-2-2.1-1 .3-8.9-.2-1.4 1.2-.3.3-1.2c-.9-.4-1.4-.8-1.4-1.2 0-.3 0-.9.1-1.6 0-.3.1-.6.1-.8 0-.2-.2-1.3-.6-3.3l2.8-2.8-2.9-3.4.1-.2c.8-.7 1.2-1.3 1.2-1.9 0-.5-.4-1.2-1.2-1.8 0-.9-.1-3.1-.1-6.3 0-.4 0-.8-.1-1 0-.2-.1-.3-.1-.3 0-.3.1-.4.2-.5l4-1.5-4.3-1.4.2-.9-.1-1.4.3-3.1c-.3-2-.5-3.2-.5-3.5 0-.8.4-1.7 1.3-2.6 0-.4-.3-1.1-.9-2-.1-.3-.2-.5-.2-.8 0-.3.1-.7.2-1.1 1.1-.4 1.6-1 1.6-1.8 0-.3-.1-.6-.4-1.1l-1.4-.2c-.1-.7-.3-1.1-.4-1.2-.3-.5-.4-.9-.4-1.1 0-.1 1.2-.8 3.7-1.9V140l1.2-1.7c0-.2-.5-.5-1.4-.8-.3-.1-.5-.1-.8-.2-.8-.2-2-.6-3.6-1.1v-.8c.6-.4.9-.7 1.1-.9 1.1-.9 1.8-1.3 2-1.4l2.3-.6c1.4-.7 2.4-1.1 2.9-1.1.6 0 1.2.2 1.7.7 0 .9-.1 1.5-.3 1.8-.5 1.3-.8 2-.8 2.2 0 .1.3.7.9 1.7 0 .1.1.2.1.2 0 .1-.7.7-2.1 1.8l-.5 2.5-2.4 1.7c2.1 2.6 3.4 4.1 3.7 4.6.4.5.5.9.5 1.2 0 .2 0 .5-.1.8-.7.9-1.1 1.7-1.1 2.4 0 .3.1.5.2.7.8 1.1 1.2 2.1 1.2 2.8 0 .3 0 .7-.1 1.1-.2 1.1-.3 1.8-.3 2l.1 2.2c0 .1-.1.4-.2.8.1.8.1 1.3.2 1.5l.1 1.1c0 .5.1.8.1 1 .1.4.1.7.1.9 0 .2-.1.5-.4.9-.8.3-1.5.7-2 1.2l.2.2c0 .9.1 1.6.2 2 .1.4.7.8 1.8 1.4-.1.5-.2.9-.2 1 0 .5.1 1.3.2 2.5.1 1 .1 1.7-.1 2.1 0 .1-.3.6-.8 1.5-.4.6-.5 1.3-.5 2 0 .5.4.7 1.1.7.9.4 1.4.6 1.5.6.5 0 1.1-.5 1.8-1.5.5.1.8.2.9.2 0 0 1.3-.3 3.8-.8 1.8-.7 3.2-1.2 4.2-1.4.7.8 1.3 1.1 1.9 1.1.4 0 .8-.1 1.4-.2l.2-1.1c.6.2 1 .3 1.3.3l2.5-.1 1.4.8c.3-.1.5-.1.6-.1 2.9 0 5.1.4 6.8 1.1 1 .5 1.8 1.6 2.3 3.4.7 0 1.2-.2 1.5-.6.2-.2.5-.3.8-.3s.7.4 1.2 1.1c1 1 1.6 1.5 1.7 1.6 0 0 .1.3.2.9.1.6.9 1.5 2.3 2.7.2 1.6.7 3.5 1.6 5.7.1.3.2 1.2.2 2.7 0 1.1-.3 2.1-.8 3-.1.2-.3.4-.4.6-.2.3-.5.7-.8 1.3h-1c-.5.5-.7.9-.7 1.1l.1 3.8c0 .1-.3.4-.8.9-.2.3-1 1.2-2.3 2.9-.4.5-1.2 1.2-2.4 1.8l-1.6 1.5-2 1.7c-1.2 1.1-2 1.8-2.4 2-2.7 1.2-4.9 1.9-6.5 2.3l-1.4.4-1 .1c-1.9.4-3.1.7-3.5.7-1 0-1.7-.3-2.2-.8l-1.5-1.7-2.1 1.7c-3.9-1-5.8-1.6-5.9-1.6-.1 0-.8-.1-2.2-.1-.7 0-1.8-.3-3.3-.8-.2-.1-.4-.1-.4-.1-.5 0-2 .6-4.5 1.7-.3.1-.5.2-.5.2-.4 0-.7-.3-.8-1 0-.1-.1-.2-.1-.3l.3-1.2zm15.9-.6c.5-.1 1-.1 1.4-.1.3 0 .8.2 1.6.6.8.4 1.3.6 1.7.5l2.8-.2 2.1.1 1.4.1 4.3-1.2c1.7-.5 3.2-1.2 4.3-2.1.3-.2 1.1-1 2.4-2.6l1.4-1.5.6-1.5c.1-.4.5-1 1-1.8.8-1.2 1.3-2.4 1.4-3.5.1-1 .2-1.7.2-1.8.2-.5.3-.7.3-.8l-.2-1.4 4.3-2-.8-2.4c-.1-.2-.1-1-.2-2.4 0-.5-.1-.9-.4-1.1-.1-.1-.8-.4-2-.9-.8-1.3-1.3-2-1.6-2.3-.2-.1-.9-.5-2-1.1l-1.1-.7-1.6-.8-1.4-.8-2.8-1-1.4-.7c-1.1 0-2.1-.1-2.9-.2-.5-.1-1.7-.2-3.5-.3-1-.1-2.6-.3-4.6-.6-.1 0-.2 0-.3.1h-.1s-.1 0-.2-.1l-1.3.3c-1.2.1-1.8.2-2 .2-.1 0-.8.5-2.1 1.3-.9.3-2.1.8-3.6 1.7-.3.1-.8.4-1.5.7-1.6.7-2.3 1.6-2.3 2.7 0 .5.1.9.4 1.2l1.5 2 .6 2.7c.8 1.4 1.2 2.3 1.2 2.8 0 .4-.4 1.3-1.1 2.7-.1.1-.1.2-.1.3l.3 1.5.2 1.2.8 2c-.2 1.4-.3 2.3-.3 2.6l.3 3.1v3.3c0 .3-.5 1-1.5 2-.1.1-.1.2-.1.4 0 .4.4.8 1.2 1.5l3.3-2.7c.7.8 1.2 1.2 1.5 1.2.1 0 .2 0 .5-.2zM648.8 134.7c.5-.1 1-.3 1.4-.6.9-.6 1.5-1 2-1.1 1-.4 1.9-1.1 2.7-2.1h.5c.8 0 1.2.5 1.2 1.5v.1c0 .2 0 .5-.1.7 0 .2-.1.3-.1.3l.5 1.9-.2 4.6c0 2.9-.1 4.5-.1 4.6-.1.4-.4.8-.9 1.5l-.3 1.7 1.1.2c.2.9.3 1.6.3 2 0 .7-.4 1.4-1.1 2.2-.1 1-.1 1.7-.1 2 0 .4.2.8.7 1.2 0 .7.1 1.2.1 1.5l-.3 6.8v6.9c0 .4-.3 1.1-1 2.1-.2.4-.3.8-.3 1.1 0 .1.3 1 .8 2.7v.3c0 .5-.4 1.2-1.1 1.8l1.2 2.6.6.4v3.4l.2 12.2-1 .6c.1.8.2 1.4.2 2 0 .1-.1 1-.3 2.6v1.5l1.7.2-.2.4 1 8.8-.1 2.3.3 1.6c-.7 1.2-1.1 1.8-1.1 1.9 0 .2.1.4.3.7-.7.3-1.7.8-3 1.6-.8.4-1.2.7-1.3.7-.1 0-.4.1-1.1.1-.9.7-1.6 1-2.1 1-.1 0-.4-.1-.8-.2 0-.5.1-1 .1-1.4 0-.4-.1-.9-.2-1.7-.1-.3-.1-.6-.1-.9 0-.1.1-.7.4-1.7l.1-1.2.2-1.6-.2-1 4.6-2.9-4.4-3 .1-.7.4-2 .5-1.4c0-.1-.3-.7-1-2-.1-.2-.2-.4-.2-.6 0-.1.3-.9.8-2.3.4-1 .6-2 .7-2.9l-1.2-.7v-1.8c-.1-.8-.1-1.4-.1-1.6 0-.1.2-.9.6-2.4 0-.1.1-.4.1-.9 0-1.3-.1-2.7-.2-4.2-.1-.6-.1-1.1-.1-1.5 0-.4.3-1.2.9-2.4 0-1.1.1-2 .3-2.7l-1.1-1.4v-11.9c.5-.4.8-.7.9-1.1.2-.6.5-1.3.9-2.1-.8-.3-1.4-.6-1.8-1 .3-1 .4-1.6.4-1.9 0-.4-.3-.7-1-1.1-.1-.5-.2-1.2-.2-2l-.1-2.2c0-.3.3-.8.8-1.7.1-.1.2-.3.2-.4 0-.1-.1-.4-.3-1.1-.2-.6-.3-1-.4-1l-.2-.3 4.1-2.9-2.8-3.7c-1.4-1.9-2.1-3-2.1-3.3 0-.3.1-.9.3-1.8 0-.5.1-1.1.1-1.9zM702.3 182.2l1.7-1.1c.5.7.9 1.1 1.1 1.2.1.1.5.3 1.1.5.4.2 1.9 1.7 4.7 4.6.9.9 1.5 1.8 1.8 2.5.3.7.6 1.5.9 2.5.2.5.5 1.2.8 2l-.4.4c-.4-.1-.9-.2-1.6-.5l-2.1.8-1.8-.3-1.6.4c-2.2-1.6-3.4-2.4-3.5-2.4-.2 0-1.1.7-2.5 2.2-2.3-.4-3.5-.7-3.7-.7-.6 0-1.3.1-2.1.2l-.3-.2c-.6.1-2.1.1-4.7.1l-2 .2-2.5.2-2.5.4-2.3-.1c-2.1.7-3.5 1-4.3 1.1-.2 1.2-.4 2.1-.5 2.5-.2.5-.7 1.1-1.3 1.8 1.2.8 1.8 1.4 1.8 1.7.4 2.3.7 3.9 1 4.7l1 .5-.3 2 1.7.4c.4 1.5.8 2.5 1.4 3 .5.5 1.4.8 2.7 1 .2 1.1.5 1.8.9 2 .3.2.9.4 2 .4l.9 1.4c.4-.1.7-.1 1-.1.2 0 1.3.5 3.3 1.4.4.2.9.3 1.4.3.5 0 1.4-.2 2.8-.7l3.5-.4 2.7-.8c1.3-.1 2.1-.2 2.5-.3.6-.3 1.7-.9 3.4-1.9 1.6-1 2.5-1.6 2.8-2 .6-.8 1.3-1.6 1.8-2.6.3-.4.8-.7 1.5-.7.3 0 .8.2 1.4.7-.3 1.3-.5 2.1-.7 2.5-1.5 2.6-2.5 4.3-2.9 5.1-.5-.2-.9-.3-1.2-.3-.2 0-.8.4-1.8 1.1-.7.4-1.5.7-2.4.8-2.2.6-3.8 1-4.7 1.1-1.5.1-2.4.3-2.8.4-1.1.4-1.7.5-1.7.5l-3.2-.5-1.9.3-.9.1c-.9.1-1.5.2-2 .2s-1.8-.1-4-.4l-1-.1-1.1-.7c-2.7-.8-4.2-1.3-4.5-1.5-.2-.1-.8-.7-1.8-1.6-.1-.1-.7-.5-1.9-1.2-1-.6-1.6-1.1-1.6-1.4l-1-1.7c-.1-.3-.8-1-1.8-2.1.4-.6.5-1 .5-1.3 0-.1-.5-1.1-1.4-3-.3-.5-.4-2-.4-4.6 0-.8.3-2.1.8-3.9.4-1.4.7-2.2.9-2.4l1.8-2.2 1.2-2.5c1.2-1.2 2.6-2.5 4.2-3.9l4-2.4 4-2.8 1.5-.3 4.1-1.3 2.7-.2c2.1-.8 3.3-1.2 3.5-1.2 1.8.2 3.2 1.2 3.9 3.1zm-6.3 8.1l.9 1.1c.7-.1 1.2-.2 1.5-.3 1-.1 2-.4 2.9-.8l3.1.3s.1-.2.3-.5c0-.2.1-.4.1-.5 0-.3-.2-.7-.7-1.2-.1-.1-.3-.3-.5-.6-.9-1.2-1.4-1.7-1.6-1.6l-1.8-.9c-.2-.1-.6-.5-1-1.2-1-.1-2.8-.2-5.4-.2l-1.1-.1-1.8 1.1c-.1.1-1.1.3-3 .8-1.5.5-2.9 1.1-4 1.6-.3.2-1 .8-2.1 1.8-.2.2-.6.5-1.2 1v.3l.1.1 4 1.6 1.2 1.2 2.1-2.5c.2-.1.4-.2.6-.2.1 0 1 .2 2.7.7h.1c.5 0 1.5-.2 3.1-.5.2-.3.7-.4 1.5-.5z"/><path fill="none" d="M296.8 233.5h448.6v160.7H296.8z"/><path d="M299.1 331.6c0-.3.6-1.3 1.7-3.2l.7-1.7c1.4-1.7 2.2-2.6 2.3-2.8.1-.1.2-.6.3-1.4.3 0 .5-.1.8-.1.3 0 .6.1.8.3.4.4.7.8 1 1.3l1 1.6-.3 1.9.4 1.6-.2 1.8c.5 1.8 1.2 3.2 2 4.2l1.2-.5h.1c.1 0 .3.1.4.2.2.1.6 1.1 1.1 3 .2.7.6 1.3 1.3 1.8 2.3 1.9 3.8 3.1 4.3 3.4l7.6 3 2.2 1.3c1.4.2 2.3.3 2.6.4.2.1 1.1.5 2.8 1.3 4.9 1 7.8 1.5 8.7 1.6l6.6.2c.8 0 1.8.1 3.1.1.6 0 1 0 1.2-.1.5-.1.7-.2.8-.2l1.7.5c.7-.3 2.5-.6 5.4-1 .3 0 1 .3 2 .7.4 0 .7.1.8.1.4 0 .9-.5 1.6-1.5.2-.3.5-.4.8-.4.2 0 .5 0 .9.1.3 0 .5.1.8.1.1 0 1.6-.5 4.3-1.4l1.5-.1 2.3-1.1c3-.9 4.8-1.6 5.5-1.9.4-.3 1.9-1.2 4.3-2.7 1.6-1.4 2.6-2.2 2.9-2.5.2-.3 1-1.4 2.4-3.4l1.3-1.1 1.1-1.9c.6-.8 1-1.3 1.1-1.6.1-.1.2-.6.3-1.4-.1-.4.5-1.5 1.8-3.5.3-.4.5-1.1.6-1.9 1-.1 1.7-.2 2.1-.4.3-.2.6-.7.8-1.6l-.2-.2h-1.3l.8-2.5c-.5-.6-.8-1.1-.8-1.4 0-.2.3-.7.8-1.6.2-.5.5-1.6.7-3.3.8-2.4 1.2-3.9 1.3-4.5 0-1 .1-2.1.2-3.3h1.3v-.9l-2 .3c-.2-1.3-1.1-4-2.5-8l1-1.1-.2-.6c1 0 1.7.1 2.2.1 2.9 0 4.4-.3 4.4-1 0-.8-2.3-1.2-7-1.3-.4.8-.8 1.2-1.4 1.2-.2 0-.6-.3-1.3-.8-.3-.2-1.8-.9-4.7-2.1-1.1-.7-1.9-1.1-2.5-1.3-1.2-.4-2.9-.7-4.9-1l-1.4-.5c-2.1-.7-3.2-1.1-3.4-1.1h-.2v-.1l-.3-.2-.1.2c-.2.3-.3.4-.3.4l-4.7-1.1-1 .3c-1.7.2-2.7.4-2.9.4-.2 0-.5-.2-.9-.5-.1-.8-.6-1.2-1.4-1.2-.4 0-1 .4-1.9 1.1-.3.2-.7.4-1.3.4-.4 0-1 0-1.7-.1-.8-.1-1.3-.1-1.5-.1-2.7 0-4 0-4-.1l-2.7-4.5c-.3-.5-.6-.7-1-.7-1 0-2 1.7-3.1 5.1-.1-3-.5-4.9-1.3-5.7-.2-.2-.4-.4-.7-.5l-.8-.4c-3 4.3-4.6 6.5-4.8 6.5l-2.5-.8c-2-.2-3.4-.5-4.2-.9-1.1-.6-1.6-.8-1.7-.8l-1.5-.2-.7-.1h-1.6l-1.6-.8c-2.4-1-4-1.8-4.8-2.4-1.6-1.2-3.2-3.1-4.8-5.7-.9-1.4-1.3-2.6-1.3-3.6 0-.4.1-1 .2-1.7-.8-1-1.2-1.9-1.2-2.8.7-.7 1-1.1 1.1-1.3l.5-3.6c.9-2.1 1.4-3.2 1.6-3.3l5.1-5.7 2.5-1.8 3.1-2.5 1.9-.9 2.1-1.1 9.5-4c2-1 3.5-1.7 4.3-2 2.5-.8 4.4-1.4 5.8-1.8l7.7-2 2.2-.4 11-1 5-.5s.9.1 2.5.2l3.1.2 1.6.4c1.7.2 4.1.8 7.2 1.6l.5 2.2c-1 .7-1.6 1.2-1.9 1.4-.6.4-1 .7-1.1.8-.7.5-1.2.9-1.6 1.1-.9-.5-1.5-.7-1.8-.8H387l-3.4-1.1-2.2.1c-.1 0-.7-.6-1.7-1.9-.9-1.2-2.3-1.9-4-1.9-1.6 0-2.7.3-3.5 1-.5.4-1 1.2-1.6 2.3-.5-.6-.9-.8-1.1-.8h-.8c-1.7 0-3.3.3-4.8.9l-5.6 1-5 1.6c-1.5-.4-2.3-.5-2.5-.5-.4 0-1.2.2-2.3.7v1.4l-6.2 2.3-.6 1.1c-2.4.4-4.4 1.4-5.7 3.1-.6-.2-1.1-.3-1.6-.3-.8 0-1.5.7-2.1 2-1.7.5-3.1 1.6-4.3 3.1-1.8 2.3-2.6 4.4-2.6 6.3 0 .9.1 2.3.4 4.2.1.9.6 1.7 1.6 2.6 2.2 2 3.8 3.2 4.6 3.4l2.8.8c2 .7 3.4 2 4 3.7 0 .1.3.2.7.4.4.2.8.4 1.3.4.1 0 .5-.1 1.3-.4.1 0 .3-.1.5-.1s.5 0 .8.1c0-.7.2-1.3.5-1.7.6.2 1 .4 1.1.4l2.8-.4 4.6 1 1.5-.2c.2 0 .4-.1.6-.1.8 0 2.3.3 4.3.8l.2 1.7c.7.2 1.2.2 1.6.2.2 0 .4 0 .8-.1-.4-.4-.6-.8-.6-1.1 0-.5.4-.7 1.1-.7l2 .1h13.8c.3.3.4.5.4.8 0 .4-.1.9-.4 1.4.6.6 1 1 1.3 1 .4 0 .9-.5 1.6-1.5.5.2.9.3 1.3.3.1 0 1.1-.4 3.1-1.3.7.2 1.1.3 1.3.4 2.6.3 4.3.7 5.1 1.1l2.2 1.1 7.5 2.4c.1 0 .5.3 1.1.8.6.4 1.1.7 1.4.9 1.8 1 2.8 1.7 3.2 2.2.2.2.4.7.7 1.4-.4.6-.5 1.2-.5 1.6 0 .2 0 .4.1.7l1.9.2c1.1 1.8 1.6 3.8 1.5 5.8.6 2.7.9 4.4.9 5.1v5.7c0 .6-.3 1.5-1 2.7-.1.1-.1.3-.1.4 0 .3.1.9.4 1.7-.6.6-.9 1.1-.9 1.4l-.1 1.4c-1.1 2.6-1.9 4.1-2.3 4.6l-.1 1.7-1.6 2.3-.1.3c-.1.3-.1.5-.1.5 0 .4.1.8.3 1.3-1 1.2-1.6 2-1.8 2.5-.8 1.1-1.7 2.3-2.9 3.7l-2 3-1.4 1.2-2.4 2.5c-1.4 1.4-2.3 2.4-2.8 3-.3.4-.6.6-.9.6l-1.1-.5.5-.8-3.1 2 .4 1.6c-2.1 1.4-4.7 2.9-7.9 4.4-2.9 1.4-4.8 2.2-5.7 2.3l-3.6.4c-3.5.7-6 1.3-7.4 1.8l-3.7.5-1.6.3h-2.1l-2.5.2c-1.4-.4-2.1-.6-2.3-.7h-2.1c-.9 0-1.7-.2-2.5-.8-.9 1-1.8 1.4-2.9 1.4-.2 0-.8-.3-1.9-.9-.2-.2-.6-.2-1-.2l-4 .1c-.3 0-.7 0-1.3-.1-.6-1.4-1.5-2.1-2.7-2.1-.6 0-1.1.4-1.6 1.3-.7-.4-1.6-.7-2.5-1.1-.9-.4-1.8-.5-2.9-.5-1.3-.6-2.1-1-2.6-1.1-.9-.2-1.7-.4-2.4-.6V348c-1.2-.3-1.8-.5-1.9-.8-.2 0-.5-.6-.8-1.7l-1 .2-.2 1.7c-.4 0-1.8-.5-4.4-1.3l-7.2-5.8-.2-.1c0-.6-.1-1-.3-1.2-.1-.2-.6-.7-1.4-1.4-.2-.2-1-1.2-2.5-3.1-.5-1.2-1.3-2.2-2.1-2.9zM422 316.5c0-2.6.2-4.6.5-5.8.3-1 .9-2.6 1.7-4.8 1.6-3 2.6-4.8 2.8-5.2.2-.4 1.2-1.1 2.8-2.1l.9-1.8c.4-.6.7-1 .9-1.1.4-.4 2-1.2 4.6-2.5.8-.4 1.8-1.2 2.9-2.3.2-.2 2.6-1.1 7.2-2.8 2.4-.9 5.9-1.4 10.5-1.4.9 0 2.1.2 3.6.5l.2 1.3c.6.2 1 .5 1.4.8.6-.2 1.1-.7 1.4-1.6 2.2.5 4.1 1.3 5.8 2.4 1.2.8 1.9 1.2 2.1 1.4.1.1.5.8 1.2 2.1.8 1.2 2.2 1.9 4.1 1.9 1 1.6 1.6 2.8 1.8 3.6.3.8.5 2 .8 3.9.2 1.8.4 3.3.5 4.3h-1v.7l-1.2 1.4c.2.7.7 1.3 1.7 1.9-.1 1.8-.2 3-.4 3.6-.1.3-.4 1-.9 2.1-1.5 3.5-2.5 5.7-3.1 6.7-2.1 2.6-4.1 4.1-5.8 4.7l-3.3 1.6-3.1 1.4c-1.6.9-2.5 1.4-2.8 1.4-.3.1-2.2.2-5.8.4l-4.2.9h-4.3l-1.9.2c-3.5-.6-5.7-.9-6.6-1-.6-.6-1-1-1.3-1.1-.1 0-.9-.2-2.3-.4-.8-.2-2.4-1-4.8-2.6-.4-.2-1.1-.6-2.2-1.2-.2-.7-.4-1.2-.5-1.5-.2-.4-.3-.7-.5-.9 0 0-.5-.3-1.3-.8 0 0-.2-.2-.4-.5-.9-1.4-1.3-2.8-1.3-4.2 0-.7.4-1.3 1.3-1.9-.4-.6-1-1.2-1.9-1.6l.2-.1zm6.6-1.2v.6l.5.5c.4-.4.8-.6 1.2-.6.3 1.4.6 2.4.8 3.1.2.4 1.2 2.2 3.1 5.2 0 .1.1.2.1.4 0 .4-.2.9-.6 1.7.2.6.7.9 1.6.9.4-.4.7-.6 1-.6.2 0 2 .8 5.3 2.5 1.4.7 2.8 1 4.3 1h3.6l1.8.4c.8.2 1.4.3 2 .3.9 0 2-.1 3.1-.4.8-.2 1.9-.4 3.3-.7.4-.1 1.8-1 4.1-2.6 1.6-.5 2.4-.9 2.6-1.1.3-.3 1-1.5 2.3-3.6l1.5-3c1-1 1.6-1.6 1.7-1.8.2-.3.2-.7.2-1.1-.6-1-.9-1.6-.9-1.9v-.1l.2-1.2c.1-1.8.3-3.4.7-4.5-.3-.8-.7-2-1.1-3.6l-1-3.1c-.1-.4-.1-1.2-.2-2.5l-.2-.2h-1.4c-.4-.8-1.3-2.1-2.7-3.8-.8-1-1.3-1.6-1.4-1.7-.1-.1-.5-.3-1.2-.6-.6-.2-1.6-.6-3-1.2-.4-1.4-1-2.1-1.9-2.1-.2 0-.9.2-1.9.6-1.2-.3-1.9-.5-2.1-.5-2.1 0-3.5 0-4.1.1-.7 0-1.7.5-3.1 1.4l-1.3-.9c-.6.8-1.1 1.3-1.4 1.4l-2.6 1.3-.4.5-7.2 6.1-.5.4c-.1 1.1-.2 1.8-.4 2.1l-1.2 2.1c-.4 1.1-.9 2.1-1.5 2.8 0 .3.1.6.1.8 0 .9-.7 1.7-2.1 2.2 0 .1.2.6.5 1.4 1.1.8 1.6 1.3 1.6 1.5.2.8-.5 1.4-1.8 2.1zM492.2 308.4c.6-.9 1.5-2.7 2.7-5.4.8-1.7 1.4-2.6 1.7-2.6.7-.6 1.4-1.2 2.2-1.9l1.4-1.6 2-1.7 2.6-2.5 1.5-.9 1.4-1 1.3-.5 1.7-1.3 3.2-1.1c2-.7 3.2-1.1 3.7-1.1 1-.1 1.8-.2 2.5-.4.8.8 1.4 1.2 1.7 1.3 0 0 1-.3 3-.8.2 0 .3-.1.4-.1 0 0 .9.2 2.6.7.2 0 .5.1 1 .1.7 0 1.2.1 1.6.2 1.9-.6 2.9-.8 3.1-.8.8 0 1.5.3 2.2.8-.2 1-.5 1.7-.8 2-.4.4-1 .7-2 1l-.4 1.6c-1.3.6-2.1 1.1-2.5 1.4-.5.4-.9.6-1.1.6l-.9-.1h-.2l-2.2.1h-.1l-1.5-.4-1.4-.1c-1.4-.4-2.5-.7-3.4-.8-.3 0-.7 0-1.3-.1-.7-.1-1.3-.1-1.8-.1-.3 0-1.8.2-4.5.7-1.4.2-2.3.3-2.8.5-.4.3-1.3 1.1-2.6 2.3-.3.4-1 .6-2.1.8-.1.9-.3 1.5-.7 1.8-.4.3-1.1.6-2.2.7.1.4.1.8.1 1.2 0 .2-.5 1-1.6 2.6-.3.5-.5 2.9-.5 7.3 0 1 .5 2.8 1.5 5.4-.6 1.1-1 1.9-1 2.5.2.2.9.4 2 .7 1.8 2.2 2.9 3.9 3.4 4.9l1.4.2c.6.8 1 1.3 1.2 1.4l2.3 1.5 1.6 1.2c1.5.6 2.5.9 2.8 1 .2.1 1.2.2 2.8.2l2.2.5 2.1.1 1.6.2c.8-.1 2.1-.5 4-1.4l1.1.3c.5-.3.9-.5 1-.7.3-.2 1.1-.7 2.3-1.6 1-.1 2-.5 2.8-1.3.6-.6 1.3-1.2 2-1.6.3-.2.7-.5 1-.9 1-1.1 1.7-1.7 2.1-1.7.3 0 .6.2 1 .6-.4 1.6-.6 3-.6 4.2-.8.8-1.5 1.6-2 2.4-.9.3-2.1.9-3.6 2-.6.1-1.2.4-1.7.7-.8.5-1.4.8-1.9.8l-2-.1h-.1c-2.1.4-3.4.7-3.8.8-.1 0-.7.4-1.6 1.1-.2.1-.4.2-.5.2l-6.1-.1c-.2 0-.8.1-1.7.2-1-.6-1.9-1-2.7-1.1-1.1-.1-2.7-.5-4.9-1.1l-1.4-.2-1.7-.5c-1.1-.2-1.8-.4-2-.5-.3-.1-.6-.3-.9-.7-2.1-2-3.1-3.3-3.1-3.6 0-.3.1-.7.2-1.1l-.1-.2-2 .4-.1-.1c-.7-1.5-1.2-2.4-1.6-2.8-.6-.9-1-1.7-1-2.2 0-.2-.1-1-.2-2.2v-.2l.3-1.7c-1.1-.8-1.7-1.4-1.7-1.7 0-.1.9-.7 2.8-1.8 1-.6 1.6-1.5 1.6-2.7-.3-1-1.6-1.7-4.1-2.1zM551 292.1c0-.6.6-1.3 1.8-2.3 2.6-2 4.9-3.4 6.9-4l1.8 1.9c-.4 1-.7 2.4-1 4.2-.2 1.5-.4 2.4-.4 2.7v2.2l-1 1.4c0 1 .4 2 1.3 2.9-.2.4-.4.7-.4.8l.1 2.9-.1.7c0 .3-.1.7-.1 1.4l-.3 11.5c0 .6.3 2 .8 4.2l.1 2.5c.2 1.2.4 1.9.4 2.1 0 .8-.4 1.6-1.1 2.3-.2.2-1 .7-2.3 1.6-2 1.6-3.2 2.4-3.4 2.5-.4.2-.8.2-1.1.2-.5 0-1-.2-1.4-.7.2-1 .3-1.7.3-2 0-.5.3-1.4.7-2.6l.1-3 .4-5.9-.1-1.1c0-.6.4-1 1-1 .2 0 .4 0 .6.1.2-.6.3-1.1.3-1.3 0-.3-.1-.9-.4-1.9-.1-.4-.2-1-.4-1.7l-1-.8c.1-.9.2-1.5.2-2 0-.2 0-.5-.1-.9v-.8c0-.5.2-1.1.6-1.7-.4-.5-.6-1-.6-1.5v-.9l-.1-1.4c2.6-.5 3.9-.9 3.9-1.3 0 0 0-.1-.1-.2-.6-.5-1.3-.8-2.2-.8-.6 0-1.4 0-2.3.1.1-.6.2-1 .2-1.2 0-.1-.2-2.1-.5-6 0-.3-.4-.8-1.1-1.2zm1.1-24.2c-.1-1.5.9-3 3.1-4.6.5-.4 1-.9 1.6-1.6 0 0 .4-.4 1.2-1 1.5-2.2 2.4-3.4 2.8-3.7.6-.4 1.1-.7 1.5-.7.2 0 .6.3 1.4.9.8.6 1.1 1.2 1.1 2 0 .6-.4 1.2-1.1 1.7-1.8 1.3-3.6 2.8-5.3 4.3l-1.7 1.1-2.1 1.4c-1.1.6-1.8.9-1.9.9-.4.2-.6-.1-.6-.7zM612 288.8l1.9-1.2c.6.7 1 1.2 1.3 1.4.1.1.5.3 1.3.6.4.2 2.1 1.9 5.2 5.1 1 1 1.6 1.9 2 2.8.3.8.7 1.7 1 2.8.2.6.5 1.3.8 2.2l-.4.4c-.4-.1-1-.3-1.8-.5l-2.3.8-2-.4-1.8.5c-2.5-1.8-3.8-2.6-3.9-2.6-.2 0-1.2.8-2.8 2.5-2.6-.5-3.9-.7-4.1-.7-.6 0-1.4.1-2.3.2l-.3-.2c-.6.1-2.4.1-5.2.1l-2.2.2-2.8.2-2.8.5-2.5-.1c-2.3.7-3.9 1.1-4.8 1.3-.2 1.4-.4 2.3-.6 2.8-.2.6-.7 1.3-1.4 2 1.3.9 2 1.5 2 1.9.4 2.6.8 4.3 1.1 5.2l1.1.6-.3 2.2 1.9.5c.4 1.6.9 2.8 1.6 3.3.6.5 1.6.9 3 1.1.2 1.2.5 2 1 2.2.3.2 1 .4 2.2.5l1 1.6c.4-.1.8-.1 1.1-.1.2 0 1.4.5 3.6 1.5.5.2 1 .4 1.6.4.5 0 1.5-.2 3.1-.7l3.9-.4 3-.8c1.4-.1 2.3-.2 2.8-.4.7-.3 1.9-1 3.7-2.1 1.8-1.1 2.8-1.8 3.1-2.2.7-.8 1.4-1.8 2-2.9.3-.5.9-.7 1.7-.7.4 0 .9.3 1.6.8-.3 1.4-.5 2.4-.8 2.8-1.7 2.8-2.8 4.7-3.2 5.7-.5-.2-1-.4-1.3-.4-.2 0-.9.4-2 1.2-.7.5-1.6.8-2.7.8-2.5.7-4.2 1.1-5.2 1.2-1.6.2-2.7.3-3.1.4-1.2.4-1.9.6-1.9.6l-3.6-.5-2.1.4-1 .1c-1 .1-1.7.2-2.2.2-.5 0-2-.1-4.4-.4l-1.1-.1-1.3-.8c-3-.9-4.7-1.5-5-1.6-.2-.1-.9-.7-2-1.8-.1-.1-.8-.5-2.1-1.3-1.1-.7-1.7-1.2-1.8-1.6l-1.1-1.9c-.2-.3-.8-1.1-2-2.3.4-.6.6-1.1.6-1.4 0-.1-.5-1.2-1.6-3.4-.3-.6-.4-2.3-.4-5.1 0-.9.3-2.3.8-4.3.5-1.6.8-2.5 1-2.7l2-2.4 1.3-2.8c1.4-1.3 2.9-2.7 4.7-4.3l4.4-2.7 4.5-3.1 1.6-.3 4.6-1.4 3-.2c2.4-.9 3.7-1.3 3.9-1.3 1.9-.7 3.4.4 4.2 2.5zm-7 9l1 1.3c.8-.2 1.3-.3 1.6-.3 1.1-.2 2.2-.4 3.3-.8l3.4.3.3-.6c0-.2.1-.4.1-.6 0-.4-.2-.8-.7-1.3-.1-.1-.3-.3-.6-.7-1-1.3-1.6-1.9-1.8-1.8l-2-1c-.2-.1-.6-.6-1.1-1.4-1.2-.2-3.2-.2-6-.2l-1.2-.1-2 1.2c-.1.1-1.2.4-3.3.8-1.7.6-3.2 1.2-4.5 1.7-.3.2-1.1.9-2.3 2-.2.2-.7.6-1.4 1.1v.4l.1.1 4.4 1.7 1.3 1.3 2.3-2.8c.2-.2.4-.2.7-.2.1 0 1.1.3 3 .8h.1c.5 0 1.7-.2 3.4-.6.4-.1 1-.2 1.9-.3zM638.3 290.9c.3-1.6.9-2.3 1.6-2.3h.1l3 .2h.1c2.2-.3 3.5-.5 3.9-.5v-1.4c0-3.8-.1-6.9-.2-9.3-.1-1-.3-2-.7-2.8l-.6-1.3c-.2-.3-.2-.7-.2-1 0-.6.5-1.3 1.4-2.2 1.5-1.4 3.4-2.3 5.7-2.7.5-1.1 1.1-1.6 1.7-1.6.2 0 .4.1.6.3.6.6.8 1.4.8 2.3 0 0-.2 3.2-.5 9.5-.5 1.6-.8 2.6-.9 2.9-.2.6-.6 1.1-1.4 1.7 0 .8.1 1.6.4 2.3h1.4l-.4 3.1c1 .1 3.1.6 6.3 1.4.2 0 .9.1 2 .1.7 0 1.9-.2 3.6-.7l4-.4c2-.8 3.3-1.2 3.6-1.2.5 0 1.2.1 1.9.2-.1 1.1-.2 1.9-.4 2.4-.2.6-1.4 1.6-3.8 3.1-.6.3-1 .6-1.2.9-.6.7-.9 1.1-1 1.1-.2.2-.7.2-1.4.2-.6 0-1-.1-1.3-.2l-2.5-1.3-1.5-.4-1.8-1.3-3.1 2.3-2.6-.4c-.2 0-.6.2-1.2.6.3 1.9.5 3.6.5 4.9 0 .6 0 1.6-.1 2.8-1.5.2-2.2.8-2.2 1.8 0 .4.1.8.2 1.3.9.1 1.6.2 2.2.4l-.1 7.5c-.6-.2-1.1-.2-1.5-.2-.7 0-1.1.3-1.1.9 0 .5.2 1.1.5 1.7.6-.4 1-.5 1.4-.5.6 0 .9.4.9 1.1l-.2 2.4v.1c.1 1.6.1 2.8.2 3.6.1.8.3 1.5.7 2.3l.7 1.3c.1.2.1.4.1.7 0 .4 0 .8-.1 1.4 1.2.7 2.6 1.1 4.2 1.1 1.3 0 2.6-.3 3.9-1 1-.6 1.6-.9 1.7-1l3.3-3c1.6-1.4 2.6-2 3-2s.9.2 1.5.5c-.1.8-.2 1.3-.2 1.6-.3 2.1-.6 3.3-.8 3.6-.3.3-1.5.9-3.7 1.5-1.6.8-4.1 1.8-7.5 3l-2 .7c-1.4.8-2.1 1.1-2.3 1.1-.4 0-.8-.4-1.2-1.1l-1.1-.3-.7 1.5c-.6.1-1 .1-1.4.1-1 0-2.3-.7-3.7-2-.6-.6-1.2-1.3-1.6-2 0 0-.2-.6-.5-1.6-.4-1.3-.7-2.1-.7-2.3 0-.4 0-.9.1-1.7.1-.6.1-2 .1-4 0-1.3.4-2.3 1.1-3-.2-.8-.4-1.7-.4-2.8-.2-1.8-.3-5.4-.4-10.5 1-.6 1.4-1.2 1.4-1.7 0-.3 0-.7-.1-1.1l-1.8-.6-.1-.5v-.1c0-.2.1-.6.2-1.3.2-1 .4-2.8.4-5.4-1.6-.4-2.9-.5-3.6-.5-.2 0-1.3.1-3.1.4l-1.3.1c-1.1.4-1.7.5-1.8.5-.6 0-.8-.3-.8-.8-.1-.8.7-1.6 2.4-2.5zM678.1 361.1c.4.8 1 2 1.7 3.7l1.7 2.3c1.4 2.3 2.3 3.6 2.7 4 1.1.1 1.8.2 2 .4l4.3 1.6c.2.1.7.1 1.5.1.5 0 1.1 0 1.7-.1.6.5 1.1.7 1.4.7s.8-.3 1.4-.8c.6.1 1.1.2 1.6.2.3 0 1.9-.5 4.9-1.4l2.2-1.4c2.2-1.3 3.5-2.1 3.9-2.3.2-.2 1-1.1 2.3-2.6.4-.4 1.2-.9 2.4-1.6 1.3-.8 2.3-2.4 3-4.6.9-2.8 1.5-4.3 1.6-4.6.2-.4.7-1 1.6-1.8-.2-1.5-.3-2.3-.3-2.6 0-.2.4-2.2 1.2-6 .1-.4.1-.7.1-1.1 0-.1-.1-.8-.3-2.1.2-.9.5-2.2.8-3.9.5-1.6.8-2.5.8-2.8 0-.3-.2-1.2-.5-2.7 0-.2-.2-2.3-.5-6.2 0-.6-.1-1.2-.1-1.8 0-.8.1-1.4.4-1.9.3-.6.4-1 .4-1.1 0-.2 0-.5-.1-.9-.2-.1-.4-.2-.5-.2-.2 0-1.3.5-3.1 1.6l-1.4 1.5-1.6 1.1-1.9 1.3-1.9 1-2.6 2.5-1.1.7c-3.1 2.1-4.7 3.2-5 3.3-.3.1-1.4.4-3.4.6-1.3.4-2.8.7-4.5.9-.9 0-2.7-.5-5.4-1.4-1.8-.7-3.3-1.9-4.5-3.7 0 0-.4-.9-1.1-2.5-.3-.8-.5-1.3-.5-1.7 0-.5.5-1.1 1.5-1.9-.9-1-1.3-2.2-1.3-3.7 0-1 .8-2.7 2.3-5.1l-.5-1.7v-.1l.2-1.7c.2-1.6.7-4.2 1.6-7.6v-2.2c.8-3 1.1-4.7 1.1-4.9 0-.3-.2-.7-.5-1.2h-1.4l-.5-.5v-.6c.6-.6 1.2-1.2 1.8-2l3.5-1.2c3.1-1.9 4.8-2.9 5.1-2.9.5 0 .9.2 1.3.7.4.5.7 1 .7 1.5 0 .2-.4 1-1.1 2.5-.4.8-.7 2.3-1 4.5l-1.7 6.2c-.2 2-.4 3.2-.6 3.6-.3.5-1 .7-2.2.8-.5.7-.8 1.3-.8 1.6 0 .5.7.8 2.2 1.1-.2.8-.3 1.8-.4 3l-.8 3.9c0 1-.2 2.3-.4 4-.2 1-.4 1.6-.4 1.7 0 .4.3 1.1 1 2.1.7 1.2 1.1 1.9 1.3 2 .1.1 1.3.7 3.4 1.7.8 1.1 1.4 1.6 1.9 1.6.6 0 1.3-.4 2-1.3 2-.2 3.5-.6 4.3-1.1.6-.4 2.8-1.9 6.6-4.6l3.4-3.3 3.1-2 2.6-5.2c.1-.2.4-.6 1-1.2-.1-.9-.2-1.5-.2-1.8-.1-.4-.2-.7-.2-1 0-.1.1-.4.4-1l-.2-1.7.1-1.4-.7-2 .2-4.3-.4-1.4-.5-2.2c-1-1.8-1.5-2.8-1.5-2.9 0-.8.8-1.3 2.3-1.4l1.7-1.6h.5c.7 0 1.4-.1 1.9-.2.6-.1 1.3-.2 2.2-.4.7 1.2 1.1 1.8 1.1 1.8l-5.3 2.3 4.1 1.3c.7.4 1.1.8 1.1 1.4 0 .5-.4 1.3-1.3 2.3-.8.9-1.7 1.6-2.6 2.2l-.3.2c0 .3 1.1.9 3.3 1.8.9.8 1.4 1.6 1.5 2.2v1.2l.4 3.6c-.6 1.4-.8 2.3-.8 2.6 0 1.3.5 2.5 1.6 3.6-.2 1.4-.4 2.5-.4 3.3l.3 3.1v.1c0 .1-.3 1.1-.8 3.1-.6 1.1-.9 1.8-.9 2.3v.9l1.3 1c-.3 1.6-.5 2.7-.5 3.4 0 .3 0 .6.1.8.2 1.2.2 2 .2 2.2 0 .1-.2.7-.7 1.9v1.3l-.2 1.7.3 2.4-.8 2-.4 2.3c-.6 1.1-1 1.8-1 2.1 0 .2 0 .4.1.7.1.7.2 1.2.2 1.5 0 .2-.3.9-1 2.1-.2.4-.6 1.5-1.2 3.1-.1.3-.7.8-1.7 1.5-.1.1-.7.9-1.7 2.2l-1 1.4-1 1.1c-1.9 2.8-3.2 4.5-3.9 5.3-.4.4-1.3 1-2.5 1.7l-1.3 1.4-1.7 1.1-.9.7-2.1.6-1.5.8-1.4.5-3.9 1.5-1.9.5c-2.1.6-3.3.9-3.7.9-.3 0-1.6-.2-3.8-.7-3.6 0-6.8-1.2-9.5-3.6l-1.7-.1c-.3-.9-.6-1.5-1-1.9-.1 0-.8-.4-2.3-1.1-.3-.2-.6-.5-.9-1-.4-.8-.7-1.6-.7-2.3 0-.9.3-2.1.8-3.6.4-1.2 1.1-1.7 2-1.7.4.1.5.1.7.1z"/><path fill="none" d="M755.6 239.1h63.8V319h-63.8z"/><path d="M760.2 274.2c0-.3.4-.8 1.1-1.4 1.6-1.2 3-2 4.1-2.4l1.1 1.1c-.2.6-.4 1.4-.6 2.5-.1.9-.2 1.4-.2 1.6v1.3l-.6.9c0 .6.3 1.2.8 1.7-.1.3-.2.4-.2.5l.1 1.8V283l-.2 6.9c0 .4.2 1.2.5 2.5l.1 1.5c.1.7.2 1.1.2 1.3 0 .5-.2 1-.7 1.4-.1.1-.6.4-1.4.9-1.2.9-1.9 1.4-2.1 1.5-.2.1-.5.1-.7.1-.3 0-.6-.1-.9-.4.1-.6.2-1 .2-1.2 0-.3.2-.8.4-1.6v-1.8l.3-3.5v-.6c0-.4.2-.6.6-.6h.4c.1-.4.2-.7.2-.8 0-.2-.1-.6-.2-1.1-.1-.2-.1-.6-.2-1l-.6-.5c.1-.5.1-.9.1-1.2v-.5-.5c0-.3.1-.7.4-1-.2-.3-.4-.6-.4-.9v-.6l-.1-.8c1.6-.3 2.3-.5 2.3-.8 0 0 0-.1-.1-.1-.4-.3-.8-.5-1.3-.5-.4 0-.9 0-1.4.1.1-.4.1-.6.1-.7l-.3-3.6c-.1-.2-.4-.4-.8-.7zm.7-14.5c0-.9.6-1.8 1.8-2.8.3-.2.6-.5.9-.9 0 0 .3-.2.7-.6.9-1.3 1.4-2.1 1.7-2.2.4-.3.7-.4.9-.4.1 0 .4.2.8.5.5.3.7.7.7 1.2 0 .4-.2.7-.7 1-1.1.8-2.2 1.7-3.2 2.6l-1 .6-1.3.9c-.7.4-1.1.5-1.2.5 0 .1-.1-.1-.1-.4zM776.2 274.6c.2-.8.8-1.5 1.8-2 1.1-.9 1.9-1.3 2.5-1.3.6 0 .9.1 1 .4 0 .1.1.8.1 2.1 0 .3.3 1 .8 2 1-1.2 1.5-1.8 1.7-1.8l1.3-.8c1-.8 1.6-1.2 1.8-1.2.3 0 .6.3.9.8 1.3-1 2.6-1.4 3.9-1.4.3 0 .5 0 .7.1l.7.2c.9-.3 1.5-.5 1.7-.5.3 0 .9.1 2 .4.7.1 1.3.2 1.8.3.3.4.6.6.7.7l.8.1c.6.1 1.4.8 2.2 2 .5.8.8 2.6.8 5.3-.6 0-1.2.1-1.8.3-.6.2-.9.4-.9.6 0 0 .8.5 2.4 1.3.2.1.3.3.3.7 0 .4-.2 1.1-.7 2.2v.2c0 .3.3.7.8 1.2-.1.5-.1.9-.1 1.3 0 .2.2.9.5 1.8l.1 2 .1 1.7-.1 1.5c0 .2.1.7.4 1.3-.7.5-1.1.8-1.4.9-.1.1-.7.3-1.6.7-.2.1-.7.4-1.6 1-.7-.7-1-1.3-1-1.8 0-.2.2-1.1.7-2.8 0-.1 0-.4.1-.8v-.5l.7-.3c1.2-.2 1.8-.3 1.8-.4l-.4-.3c-.6-.4-1.5-.7-2.7-.9.1-1 .3-1.7.5-1.9l1.1-1c.6-.6.9-1.1.9-1.5 0-.1-.8-.4-2.4-1l.1-1.3-.2-1.9s0-.1.1-.3c.1-.2.2-.6.3-1-.4-.4-.6-.7-.6-.9v-1.8c0-.2-.2-.6-.6-1-.4-.4-.6-.8-.6-1.2l-.2-.2c-.6-.2-.9-.3-1-.4l-1-1.7c-.2-.3-.4-.5-.7-.5-.4 0-.9.2-1.5.7-.9.8-1.7 1.2-2.4 1.2-.1 0-.6-.1-1.5-.3l-.7.7v.2c-.5-1.2-1-1.8-1.5-1.8 0 0-.2 0-.4.1-.3.2-.7.3-1.1.4-.5.1-1.2.5-2 1-1.2.7-1.9 1.1-2.1 1.5-.4.6-.6 1.1-.6 1.7 0 0 0 .8.1 2.3v.1c0 .4-.1.7-.3.8l-1.6 1.2c-.2.1-.3.2-.3.4s.2.5.7.7c1 .5 1.5.8 1.7 1 .1.1.2.4.2.7 0 .1 0 .3-.1.7l.1 2.7c0 .1-.2.5-.7 1.1 0 .1-.1.2-.1.4 0 .4.3.9.8 1.4l-.1.1c0 .6.1 1 .1 1.2.1 1.4.3 2.5.6 3.3-.2.5-.5.8-.7.9-.1 0-.5.1-1.2.2-.1 0-.3.1-.5.2-.3.1-.5.2-.6.2-.2 0-.3.2-.5.5s-.5.4-.8.4c-.1 0-.4-.2-.7-.5-.2-.2-.3-.4-.3-.6 0-.2 0-.4.1-.7.2-.7.3-1.1.3-1.3v-2.7c.2-.7.3-1.1.3-1.2 0-.2 0-.5-.1-.9-.1-.5-.2-.8-.2-1 0-.1 0-.3.1-.7v-.6-1.4-.9c0-.3.1-.7.3-1.2l1-.5c0-.2-.1-.4-.3-.5-.1-.1-.5-.1-1.2-.2v-1.1c0-.2 0-.6.1-1.1v-.4c0-.6-.1-1.6-.4-3.1l.8-.5c-.5-.7-.7-1.1-.8-1.2 0-.1-.1-.3-.1-.8.4-.3.1-.8-.4-1.5z"/><path fill="none" d="M830.8 236.2H1228V403H830.8z"/><path d="M840.3 354.8c.2-.7.3-1.3.5-2 .2-.9.4-1.5.5-1.7.7-1.4 1-2.3 1-2.6 0-.2-.2-.7-.6-1.3.4-1 .8-3 1.2-5.9.1-.5.3-1.1.8-1.8.1-.2.2-.4.2-.6 0-.2-.2-.8-.7-1.6-.1-.2-.1-.4-.1-.8l.1-2.3v-7.8c.2-1 .3-1.7.3-1.9.1-.3.4-.6 1-.9v-2.2c.9-.8 1.3-1.6 1.3-2.4 0-.3 0-.7-.1-1l.2-.1c-.4-.4-.6-.9-.7-1.7l-.6-2.5.1-1.5-.1-2.5c.4-1.9.6-3 .6-3.4 0-.2-.1-1.2-.4-2.8l.2-3.4v-.3c0-.4-.1-.7-.1-1l.1-6.6c0-.1.1-.3.2-.5 0-.2.1-.4.1-.5 0-.6-.2-1.5-.5-2.8-.1-.3-.1-.5-.1-.7 0-.4.3-.7 1-1.1v-3.7c-.8-.4-1.3-.8-1.3-1.3 0-.9.1-2.7.4-5.4 0-.4.1-.7.1-.9v-.5c-.4-5.7-.6-8.7-.6-9 0-2.3.8-4.2 2.4-5.5-.1-1.1-.4-1.9-.9-2.5l-1.9.2c-.1-.5-.2-.9-.2-1.3 0-.1.2-1.5.7-4.2l-.4-.7c-.3-.6-.4-2.3-.4-5 0-.4-.1-1.2-.2-2.4l-1.5-1.5h-1.1l-.1-.7v-.1c0-.4.1-.6.3-.8 0-.1.6-.4 1.6-1l1.6-1.2 1.2-.4c.8-.3 1.7-.6 2.7-.7l.6-1.6c1.7-.1 3-.4 4-1 .3 1 .5 1.7.5 2.2 0 .1 0 .5-.1 1.1 0 .4-.1.9-.1 1.6l-.3 9.7v4c-.5.4-.8.6-.9.8s-.2.6-.2 1.2c0 1-.1 1.9-.2 2.8l1.6.3c-.1.9-.2 1.5-.2 1.9-.4 3.5-.9 6.4-1.4 8.7l1 1c0 2-.4 4.3-1 6.9 0 .3-.1 1.3-.1 2.9l1.4.4c-.3 2.7-.5 4.4-.6 5.1v.1l.1 4c0 .2-.1.6-.3 1.2l-1.3 1.3.6 3.1 1.4.2-.3.6v10.1l.4 2.3v3.3l.1 2.3c0 .6-.8 1.5-2.4 2.5 0 1 .1 1.6.3 1.8 0 .2.4.5 1.1 1 .1.7.3 1.1.4 1.4.3.5.5.9.5 1l-.1.2c-.1.4-.2 1.2-.1 2.5l.2 11.9-1.2 1.3 1.3.8v12c-.6.1-.9.1-1 .2l-2.2 1.6c-.3.2-1.3.4-2.8.7-.7.4-1.4.9-2.2 1.3-.9.5-1.7.8-2.6.8-.2-.1-.9-.3-1.7-.7zM902.5 313.3l-1.6 1.1c-1.6-.4-2.8-.7-3.7-.7-1.1 0-2.4.1-3.9.2-.4-.9-1-1.6-1.8-2.1l-1.1 1.5c-.8.1-1.8.3-3 .7-.5.1-.9.2-1.3.2-.1 0-.2 0-.4-.1l-2.3-.5-.2.2-1.1-1.2c-.6.3-1.2.4-1.6.4-.2 0-.7-.2-1.5-.6-.2-.1-.6-.2-1.1-.4-3.1-1.1-4.6-2.8-4.6-5.3 0-2.1.8-4.2 2.5-6.3.4-.6 1.6-1.7 3.4-3.2l1.2-1.1 2.8-1.7c2.9-1.8 5-2.9 6.4-3.5 3.1-1.3 5.6-1.9 7.5-1.9.3 0 2.1.4 5.4 1.3l3.1-.5c2 .1 3.1.3 3.4.4.8.4 1.2.8 1.2 1.2 0 .4-.2.8-.6 1.2-.1.1-1.1.7-3 1.8-1.9 1.2-3 1.7-3.3 1.7-2.6 0-4.5-.2-5.7-.5-.4-.8-.8-1.5-1.3-2h-.4l-1.1 1.2c-.7 0-1.2.1-1.5.1-.4 0-.7 0-1-.1-.4 0-.8-.1-1-.1-.1 0-.6.1-1.6.4-.3-.2-.9-.4-1.8-.4-.8.6-2.1 1.4-4 2.4-1 .5-1.8 1.3-2.5 2.3-.7 1-1.1 2-1.1 3 0 .4.4 1 1.1 1.7.1.1.8.4 2.1 1 .8.4 1.5.8 2.3 1.3 0 .3-.1.6-.1.8 0 .8.3 1.3 1 1.3.6 0 1.4-.5 2.2-1.6.9.1 1.7.2 2.3.2.2 0 1.4-.2 3.4-.5l1.9.2c1.8-.2 2.7-.4 2.9-.4.3 0 1.3.3 3.1.8l2.2-.2 2.2 1.5c2.3 1.1 3.9 2.1 4.8 3.1.6.8 1 1.4 1.1 1.9l.4 2c.6 2.4.8 3.8.8 4.2 0 .2-.1.9-.2 2.1-.2 2.6-.9 3.9-2.2 3.9-.4 0-.9-.1-1.4-.2-.5 2-.9 3.2-1.2 3.4-1.8 2.1-3 3.5-3.5 4.2-2 .3-3.7.9-5.1 1.9-.6.5-1 .7-1.1.8-.1 0-.6.1-1.5.2l-4.9 1.3c-1.6-.3-2.5-.4-2.6-.4-.2 0-1.4.3-3.6 1l-1.4-.2c-1.9-.1-3.4-.3-4.3-.5-2.1-.5-3.2-.9-3.3-1.1l-1.9-1.3c-2.4-1.4-3.8-2.5-4.4-3.1-1.2-1.4-1.8-2.8-1.8-4.1 0-.3.4-.8 1.3-1.4l1.6-1.5c1.5-1.1 2.4-1.7 2.6-1.7.2 0 .3.1.4.2.9.9 1.4 1.8 1.4 2.9l-.2 1.9v.1c0 .4.1.6.3.8.2.2.9.6 2.2 1.3.3.2.6.4 1.1.8 1 .9 1.5 1.3 1.6 1.3l2.2.9 2 1.1h2.3l1.4.3c1.5-.4 2.8-.7 4-.7 1.1 0 1.9-.2 2.5-.5l2.3-1.1c1.3-.4 2-.7 2.2-.9.8-.6 1.8-1.9 3-4 1.3-2.1 1.9-4.6 1.9-7.3 0-.6-.2-1.2-.5-1.7-1.2-2.6-2.2-4.2-2.7-5.1zM927.3 294.9c.2-.7.6-1.4 1.1-2 .4-.4 1.4-1.1 3.1-1.9 1.7-1.1 2.7-1.6 3-1.6.7 0 1.3.3 1.6.8l.2 1 .5 1.9c-.1.4-.2.8-.2 1 0 .4.2.8.7 1.3.8-.2 1.9-.7 3.3-1.5l2.5-.8 2.5-1.7 1.6-.7c.9-.4 1.4-.7 1.4-.7l1.3.2h.2c.2 0 1.6-.4 4.1-1.3.3-.1.9-.1 1.8-.1.7 0 1.2.1 1.4.3 0 0 .5.4 1.3 1.2.5.1.8.2.8.2.1 0 .7-.3 1.7-.8.1 0 .2-.1.3-.1.5 0 1.1.3 1.8.9.6.6 1.1 1.4 1.4 2.6-.6.6-1.8 1.5-3.6 2.8-.9 1.1-1.5 1.7-1.9 1.7-.6 0-1.5-.6-2.5-1.9-.7.1-1.3.1-1.8.1s-1.4-.2-2.6-.7c-1-.4-1.9-.6-3-.7-.4.8-1.1 1.2-2 1.3-1.1.1-1.8.2-2.1.2l-2.4.7c-.2 0-.5-.1-1-.4-.8.7-2.2 1.8-4.2 3.3-1.3.9-1.9 2.5-1.9 4.9v2.1c0 .7.1 1.3.1 1.8 0 .4-.5 1.1-1.4 2 .7.7 1 1.3 1 1.9 0 .3 0 .6-.1 1l.9.2.2 1.8.3 10.8-.2.7-1.6.8c-2.2.4-3.4.7-3.4.9s1.3.4 3.8.8l1-.2c.4 1.3.6 2.2.6 2.7 0 .9-.5 1.6-1.4 2.2-.4.2-1.4.4-3.1.6-.3.1-1.2.6-2.6 1.5-.2.2-.5.2-.8.2-1 0-1.4-.4-1.4-1.3 0-.2.3-1.4.9-3.4.1-.2.1-.5.1-.7 0-.1-.1-1-.3-2.7 0-.1.1-.5.2-1l1.4-.4c0-.4.1-.7.1-1 0-.5-.3-1.1-.9-1.9v-1.5c0-.4-.1-1.3-.4-2.8.1-1.3.2-2.4.2-3.4 1.5-.5 2.2-1.2 2.2-1.9 0-.2-.1-.6-.2-1-.5.1-.9.2-1.2.2-.3 0-.6-.2-1-.5v-6c0-.3 0-.7-.1-1.1v-1c0-.6.3-1.5.8-2.6-.5-.4-.8-.8-.9-1.1 0-.1-.1-1.4-.2-3.9.2-.5-.2-1.2-1-2.3zM980.1 314.7c.5-.8.9-1.3 1.4-1.6.3-.2 1.5-.5 3.6-1 1.5-.8 2.5-1.2 3.1-1.4.4-.1 1.6-.2 3.6-.4l1.9-.7 1.1-.1 1.1-.1h2.3l4.8-.6c1.4-.1 2.3-.3 2.6-.5.7-.5 1.1-1.3 1.1-2.3 0-.2-.2-.8-.5-1.9l3.1-3.9s-1.2-.4-3.7-1.2c-.2-.1-.8-.1-1.8-.1-1.7-2.2-2.8-3.4-3.1-3.7-.4-.2-1.9-.4-4.6-.8h-1.9c-.9-.2-1.5-.4-1.7-.4-.3 0-.8 0-1.4.1l-1.1-1.4c-.9.3-1.6.8-2 1.3-.4.4-1 .8-1.9 1.1-2.1.9-3.8 1.9-5.2 3l-.8.5c-.5.8-.9 1.2-1 1.3-.5.3-1 .4-1.7.4-.2 0-1-.2-2.2-.7-1.4-.3-2.2-.6-2.5-.8-.4-.2-.8-.7-1.4-1.5.7-.5 1.2-.9 1.4-1.1.7-.6 1.1-.9 1.4-1l2.8-.7 1.8-1 3.9-1.2 2.4-1h2.5l2.7-.8 1.1-.1 2.1-.4c2 0 3.2.1 3.7.1.6 0 1.6.3 3.3.8l1.4.2c1.6.3 2.7.5 3.3.6.6 0 1.3.5 2.2 1.3-.7.6-1 1.1-1 1.5 0 .6.2.8.7.8.3 0 .8-.2 1.4-.5.4-.2 1-.3 1.7-.5.5.5.8 1.2.8 2l1.5 1.1c.1.4.1.7.1.8l-.2 2.3c.4 1.8.9 2.9 1.3 3.3h.2c.1.9.3 1.8.5 2.9.1 2.3.2 3.9.2 4.6-.9.6-1.4 1.1-1.4 1.6 0 .6.5 1.1 1.6 1.6 0 .5.1 1 .1 1.3s-.1 1.1-.2 2.1c0 .4-.1.9-.1 1.3 0 1.3.2 3 .7 4.9-.7.7-1.1 1.4-1.1 2.2 0 .6.3 1.4 1 2.3.1.2.2.5.4 1.1.1.3.3.8.7 1.6-.4.5-.8 1-1 1.5-.3.3-.9.6-1.9 1l-2.3 1-1.4.4c-1.5.5-2.3.8-2.5.8-.4 0-.8-.2-1.3-.7l.9-4c-1.2.3-2.9.9-5.1 1.9l-1.7.4c-1 .2-1.6.4-1.6.4l-2.2-.2-2.2 1.1-1.2.1-4.9 1-2.5-.2c-1.2.4-2.1.7-2.5.7-.6 0-2.1-.3-4.7-.8l-2.5-.2-1.9-.8c-1.4-.5-2.4-1-3.1-1.6-.6-.4-1.1-1.2-1.4-2.3l-1.4-.5c-.2-.4-.3-1.1-.5-2.2l-.6-2.6v-.1c0-.4.2-.9.8-1.7.4-.6 1-1.6 1.7-3.1 2-1.9 3.3-3.2 3.9-3.7.6-.4 1.8-1.1 3.8-1.9 1.1-.7 1.8-1.1 2.1-1.1.2.7.6.7 1.1.8zm-3.8 12.8c-.3.5-.6 1.1-.9 1.6-.4.7-.6 1.2-.6 1.4l.6 1.1 1.7-1.4c1.4 1 2.3 1.5 2.8 1.6 1.5.4 2.3.6 2.4.7.2.2.6.6 1 1.3.9.1 1.5.2 1.9.2s.6.1.8.1c.4 0 1-.3 1.6-.8.6.4 1 .6 1.4.6.1 0 .5-.3 1.3-.8l1.7.4 3.3-1.1 1.6-.7 1.3.2 2.3-1 2.6-1c.7-1 1.1-1.6 1.3-1.8.4-.4 1.1-.7 2.1-1l.4-1.9c.7-.4 1.2-1 1.3-1.7-.6-.4-1-.8-1.2-1.3 0-.7.1-1.2.1-1.5v-1c0-1.1-.1-2-.1-2.8 0-.2-.1-.5-.1-.7 0-.5.2-1.2.5-2.1-.4 0-.8-.3-1.4-.7l-2.6.1-2.3-.1-1.8.1h-1.1c-.2 0-.8-.3-1.8-1l-1.3.4c-1.6 0-2.8.1-3.6.4-.5.2-.9.3-1.2.3-.1 0-.5-.1-1.4-.4h-.1c-.2 0-.8.4-1.9 1.1-.2.1-1.2.5-3.1 1.2-2.6 1.1-4.4 2.2-5.5 3.2-.1.1-.6.7-1.3 1.8-.2.4-.9.7-2.1 1-.2.3-.2.5-.2.7 0 .1.2.4.5.7l.4 3.3c-.2.2.2.6.7 1.3zM1066.6 291.5l1.9-1.2c.6.7 1 1.2 1.3 1.4.1.1.5.3 1.3.6.4.2 2.1 1.9 5.2 5.1 1 1 1.6 1.9 2 2.8.3.8.7 1.7 1 2.8.2.6.5 1.3.8 2.2l-.4.4c-.4-.1-1-.3-1.8-.5l-2.3.8-2-.4-1.8.5c-2.5-1.8-3.8-2.6-3.9-2.6-.2 0-1.2.8-2.8 2.5-2.6-.5-3.9-.7-4.1-.7-.6 0-1.4.1-2.3.2l-.3-.2c-.6.1-2.4.1-5.2.1l-2.2.2-2.8.2-2.8.5-2.5-.1c-2.3.7-3.9 1.1-4.8 1.3-.2 1.4-.4 2.3-.6 2.8-.2.6-.7 1.3-1.4 2 1.3.9 2 1.5 2 1.9.4 2.6.8 4.3 1.1 5.2l1.1.6-.3 2.2 1.9.5c.4 1.6.9 2.8 1.6 3.3.6.5 1.6.9 3 1.1.2 1.2.5 2 1 2.2.3.2 1 .4 2.2.5l1 1.6c.4-.1.8-.1 1.1-.1.2 0 1.4.5 3.6 1.5.5.2 1 .4 1.6.4.5 0 1.5-.2 3.1-.7l3.9-.4 3-.8c1.4-.1 2.3-.2 2.8-.4.7-.3 1.9-1 3.7-2.1 1.8-1.1 2.8-1.8 3.1-2.2.7-.8 1.4-1.8 2-2.9.3-.5.9-.7 1.7-.7.4 0 .9.3 1.6.8-.3 1.4-.5 2.4-.8 2.8-1.7 2.8-2.8 4.7-3.2 5.7-.5-.2-1-.4-1.3-.4-.2 0-.9.4-2 1.2-.7.5-1.6.8-2.7.8-2.5.7-4.2 1.1-5.2 1.2-1.6.2-2.7.3-3.1.4-1.2.4-1.9.6-1.9.6l-3.6-.5-2.1.4-1 .1c-1 .1-1.7.2-2.2.2-.5 0-2-.1-4.4-.4l-1.1-.1-1.3-.8c-3-.9-4.7-1.5-5-1.6-.2-.1-.9-.7-2-1.8-.1-.1-.8-.5-2.1-1.3-1.1-.7-1.7-1.2-1.8-1.6l-1.1-1.9c-.2-.3-.8-1.1-2-2.3.4-.6.6-1.1.6-1.4 0-.1-.5-1.2-1.6-3.4-.3-.6-.4-2.3-.4-5.1 0-.9.3-2.3.8-4.3.5-1.6.8-2.5 1-2.7l2-2.4 1.3-2.8c1.4-1.3 2.9-2.7 4.7-4.3l4.4-2.7 4.5-3.1 1.6-.3 4.6-1.4 3-.2c2.4-.9 3.7-1.3 3.9-1.3 1.9-.7 3.4.4 4.2 2.5zm-7 9.1l1 1.3c.8-.2 1.3-.3 1.6-.3 1.1-.2 2.2-.4 3.3-.8l3.4.3.3-.6c0-.2.1-.4.1-.6 0-.4-.2-.8-.7-1.3-.1-.1-.3-.3-.6-.7-1-1.3-1.6-1.9-1.8-1.8l-2-1c-.2-.1-.6-.6-1.1-1.4-1.2-.2-3.2-.2-6-.2l-1.2-.1-2 1.2c-.1.1-1.2.4-3.3.8-1.7.6-3.2 1.2-4.5 1.7-.3.2-1.1.9-2.3 2-.2.2-.7.6-1.4 1.1v.4l.1.1 4.4 1.7 1.3 1.3 2.3-2.8c.2-.2.4-.2.7-.2.1 0 1.1.3 3 .8h.1c.5 0 1.7-.2 3.4-.6.4-.1 1.1-.2 1.9-.3zM1095.4 238.8c.6-.2 1.1-.4 1.5-.7 1-.6 1.7-1.1 2.2-1.3 1.1-.5 2.1-1.3 3-2.3h.5c.9 0 1.4.5 1.4 1.6v.1c0 .2 0 .5-.1.8 0 .2-.1.3-.1.4l.6 2.1-.2 5.1c0 3.3-.1 5-.1 5.1-.1.4-.4.9-1 1.6l-.4 1.9 1.3.2c.2 1 .4 1.7.4 2.2 0 .8-.4 1.6-1.3 2.4-.1 1.1-.1 1.8-.1 2.2 0 .4.3.9.8 1.3 0 .8.1 1.3.1 1.7l-.3 7.5v7.6c0 .4-.4 1.2-1.1 2.3-.2.4-.4.8-.4 1.2 0 .1.3 1.1.8 3v.3c0 .6-.4 1.3-1.3 2l1.3 2.9.7.5v3.7l.2 13.5-1.1.7c.1.9.2 1.6.2 2.2 0 .2-.1 1.1-.4 2.9v1.6l1.9.2-.2.4 1.1 9.8-.1 2.5.4 1.8c-.8 1.3-1.2 2-1.2 2.1 0 .2.1.5.3.8-.8.3-1.9.9-3.4 1.8-.8.5-1.3.7-1.4.8-.1 0-.5.1-1.2.1-1 .8-1.7 1.1-2.3 1.1-.2 0-.4-.1-.8-.2 0-.6.1-1.1.1-1.5s-.1-1-.2-1.9c-.1-.4-.1-.7-.1-1 0-.1.2-.7.5-1.9l.1-1.3.2-1.8-.2-1.1 5.1-3.3-4.9-3.4.1-.8.4-2.2.5-1.5c0-.1-.4-.8-1.1-2.2-.1-.2-.2-.5-.2-.7 0-.1.3-1 .9-2.5.4-1.2.7-2.2.7-3.3l-1.4-.7v-2c-.1-.9-.1-1.5-.1-1.8 0-.1.2-1 .7-2.6 0-.2.1-.5.1-1 0-1.4-.1-3-.2-4.7-.1-.6-.1-1.2-.1-1.7 0-.4.3-1.3 1-2.7 0-1.2.2-2.2.4-2.9l-1.3-1.5v-13.2c.5-.4.9-.8 1-1.2.2-.7.6-1.5 1-2.3-.8-.3-1.5-.7-2-1.1.3-1.1.4-1.8.4-2.1 0-.4-.4-.8-1.1-1.2-.1-.6-.2-1.3-.2-2.2l-.1-2.5c0-.3.3-.9.8-1.9.1-.2.2-.3.2-.5 0-.1-.1-.5-.3-1.2-.2-.7-.4-1.1-.4-1.1l-.2-.4 4.5-3.2-3.1-4.2c-1.6-2.1-2.3-3.3-2.3-3.7 0-.3.1-1 .4-2 0 0 .1-.6.2-1.5z"/><path fill="none" d="M303.7 403.6h893.4v177.9H303.7z"/><path fill="#294b9a" d="M312.4 406.9l.4-1.1h14c2.4 0 4.4.4 6.3 1.1s3.2 1.8 4.1 3.1c.9 1.3 1.4 2.7 1.4 4.2 0 2.3-.8 4.3-2.4 6.1-1.6 1.8-4.3 3.2-8 4 2.4.9 4.1 2.1 5.2 3.5 1.1 1.5 1.7 3.1 1.7 4.8 0 1.9-.5 3.8-1.5 5.6-1 1.8-2.3 3.1-3.9 4.1-1.6 1-3.5 1.7-5.7 2.2-1.6.3-4 .5-7.4.5h-14.4l.4-1.1c1.5 0 2.5-.2 3.1-.4.8-.3 1.3-.8 1.6-1.3.5-.7 1.1-2.4 1.8-5l7-23.7c.6-2 .9-3.4.9-4.2 0-.7-.3-1.3-.8-1.7-.5-.4-1.5-.6-3-.6-.2-.1-.5-.1-.8-.1zm.2 35.6c2.1.3 3.7.4 4.9.4 3 0 5.7-.9 8-2.7 2.3-1.8 3.5-4.3 3.5-7.4 0-2.4-.7-4.2-2.2-5.5-1.4-1.3-3.8-2-7-2-.6 0-1.4 0-2.3.1l-4.9 17.1zm5.7-19.3c1.3 0 2.2.1 2.7.1 4 0 7-.9 8.9-2.6 2-1.7 2.9-3.9 2.9-6.5 0-2-.6-3.5-1.8-4.6-1.2-1.1-3.1-1.7-5.7-1.7-.7 0-1.6.1-2.7.3l-4.3 15zM342.9 420.5l10-1.6-4.2 14c3.4-5.8 6.4-9.8 9.2-12.1 1.6-1.3 2.8-2 3.8-2 .6 0 1.1.2 1.5.6.4.4.5.9.5 1.6 0 1.3-.3 2.5-1 3.6-.5.9-1.1 1.3-2 1.3-.4 0-.8-.1-1.1-.4s-.5-.7-.6-1.3c0-.4-.1-.6-.3-.7-.2-.2-.3-.2-.5-.2-.3 0-.6.1-.9.2-.5.3-1.3 1-2.3 2.3-1.6 1.9-3.3 4.3-5.2 7.3-.8 1.3-1.5 2.7-2.1 4.3-.8 2.2-1.3 3.5-1.4 4l-.9 3.6H341l5.3-17.9c.6-2.1.9-3.6.9-4.5 0-.3-.1-.6-.4-.9-.4-.3-.9-.5-1.5-.5-.4 0-1.1.1-2.2.3l-.2-1zM376.5 418.9l-5.7 20.3c-.4 1.4-.6 2.2-.6 2.5 0 .3.1.6.3.8s.4.3.7.3c.3 0 .6-.2 1-.5 1.1-.9 2.2-2.1 3.3-3.7l1 .7c-1.3 2-2.9 3.7-4.6 5.1-1.3 1-2.6 1.5-3.8 1.5-.8 0-1.4-.2-1.9-.7s-.8-1.1-.8-1.8.2-1.9.7-3.6l3.8-12.9c.6-2.1.9-3.4.9-4 0-.4-.1-.8-.4-1-.3-.3-.7-.4-1.2-.4-.4 0-1.3.1-2.6.3v-1.1l9.9-1.8zm-.4-11.5c.8 0 1.5.3 2.1.8.6.6.8 1.2.8 2.1 0 .8-.3 1.5-.9 2s-1.2.9-2 .9-1.5-.3-2-.9-.9-1.2-.9-2 .3-1.5.8-2.1c.6-.5 1.3-.8 2.1-.8zM392.3 418.9l-3.8 13.1c3.6-5.4 6.4-8.9 8.3-10.6 1.9-1.7 3.8-2.5 5.5-2.5 1 0 1.8.3 2.4 1s.9 1.5.9 2.5c0 1.2-.3 2.7-.8 4.6l-3.5 12.2c-.4 1.4-.6 2.3-.6 2.6 0 .3.1.5.2.7.2.2.3.3.5.3s.5-.1.8-.4c1-.8 2.1-2 3.4-3.7l.9.5c-1.8 2.6-3.5 4.4-5.1 5.5-1.1.8-2.1 1.1-3 1.1-.7 0-1.3-.2-1.7-.7-.4-.4-.6-1-.6-1.7 0-.9.3-2.5 1-4.8l3.4-11.6c.4-1.4.6-2.6.6-3.4 0-.4-.1-.7-.4-.9-.3-.2-.6-.4-.9-.4-.5 0-1.2.2-1.9.7-1.4.9-2.9 2.3-4.5 4.3-1.5 2-3.2 4.5-4.9 7.6-.9 1.6-1.7 3.4-2.3 5.4l-1.4 4.8h-4.3l5.3-18.1c.6-2.2.9-3.5.9-3.9 0-.4-.2-.8-.5-1.1-.3-.3-.8-.5-1.3-.5-.2 0-.6 0-1.2.1l-1.1.2-.2-1 9.9-1.9zM439.7 420.7l-.8 3H434c.4 1 .5 2 .5 2.9 0 2.5-1.1 4.8-3.2 6.8-2.2 2-5.2 3.1-9 3.3-2 .6-3.6 1.3-4.6 2.2-.4.3-.6.6-.6 1s.2.7.5 1.1c.3.3 1.2.6 2.6 1l5.6 1.3c3.1.7 5.2 1.6 6.2 2.6s1.5 2.2 1.5 3.5c0 1.6-.6 3-1.7 4.3-1.2 1.3-2.9 2.3-5.1 3.1-2.2.7-4.7 1.1-7.4 1.1-2.4 0-4.6-.3-6.5-.9s-3.4-1.3-4.2-2.3c-.8-1-1.3-2-1.3-3 0-.8.3-1.7.8-2.6.5-.9 1.2-1.6 2.1-2.2.5-.4 2-1.2 4.4-2.6-.9-.7-1.3-1.5-1.3-2.3 0-.8.4-1.6 1.2-2.5.8-.9 2.4-1.8 5-2.9-2.1-.4-3.8-1.3-5-2.7-1.2-1.4-1.9-2.9-1.9-4.6 0-2.7 1.2-5.2 3.6-7.3 2.4-2.2 5.6-3.2 9.6-3.2 1.4 0 2.6.1 3.6.4.9.3 1.8.7 2.7 1.4h7.6zM415.8 445c-1.6.7-2.7 1.6-3.5 2.7s-1.2 2.2-1.2 3.3c0 1.3.6 2.3 1.7 3.1 1.7 1.2 4.1 1.8 7.3 1.8 2.8 0 5.1-.5 7.1-1.4 2-.9 2.9-2.1 2.9-3.6 0-.8-.4-1.5-1.1-2.1-.7-.7-2.1-1.2-4.2-1.6-1.1-.2-4.1-1-9-2.2zm13.9-19.8c0-1.5-.4-2.8-1.3-3.6-.9-.9-2-1.3-3.4-1.3-2.2 0-4 1.1-5.4 3.3-1.4 2.2-2.1 4.5-2.1 6.8 0 1.5.5 2.7 1.4 3.6.9.9 2 1.4 3.3 1.4 1 0 2-.3 3-.8 1-.6 1.8-1.3 2.4-2.3.7-1 1.2-2.2 1.6-3.8.3-1.5.5-2.6.5-3.3zM452.1 418.9l-5.7 20.3c-.4 1.4-.6 2.2-.6 2.5 0 .3.1.6.3.8s.4.3.7.3c.3 0 .6-.2 1-.5 1.1-.9 2.2-2.1 3.3-3.7l1 .7c-1.3 2-2.9 3.7-4.6 5.1-1.3 1-2.6 1.5-3.8 1.5-.8 0-1.4-.2-1.9-.7s-.8-1.1-.8-1.8.2-1.9.7-3.6l3.8-12.9c.6-2.1.9-3.4.9-4 0-.4-.1-.8-.4-1-.3-.3-.7-.4-1.2-.4-.4 0-1.3.1-2.6.3v-1.1l9.9-1.8zm-.4-11.5c.8 0 1.5.3 2.1.8.6.6.8 1.2.8 2.1 0 .8-.3 1.5-.9 2s-1.2.9-2 .9-1.5-.3-2-.9-.9-1.2-.9-2 .3-1.5.8-2.1c.6-.5 1.3-.8 2.1-.8zM468 418.9l-3.8 13.1c3.6-5.4 6.4-8.9 8.3-10.6 1.9-1.7 3.8-2.5 5.5-2.5 1 0 1.8.3 2.4 1s.9 1.5.9 2.5c0 1.2-.3 2.7-.8 4.6l-3.5 12.2c-.4 1.4-.6 2.3-.6 2.6 0 .3.1.5.2.7.2.2.3.3.5.3s.5-.1.8-.4c1-.8 2.1-2 3.4-3.7l.9.5c-1.8 2.6-3.5 4.4-5.1 5.5-1.1.8-2.1 1.1-3 1.1-.7 0-1.3-.2-1.7-.7-.4-.4-.6-1-.6-1.7 0-.9.3-2.5 1-4.8l3.4-11.6c.4-1.4.6-2.6.6-3.4 0-.4-.1-.7-.4-.9-.3-.2-.6-.4-.9-.4-.5 0-1.2.2-1.9.7-1.4.9-2.9 2.3-4.5 4.3-1.5 2-3.2 4.5-4.9 7.6-.9 1.6-1.7 3.4-2.3 5.4l-1.4 4.8H456l5.3-18.1c.6-2.2.9-3.5.9-3.9 0-.4-.2-.8-.5-1.1-.3-.3-.8-.5-1.3-.5-.2 0-.6 0-1.2.1l-1.1.2-.2-1 10.1-1.9zM515.3 420.7l-.8 3h-4.8c.4 1 .5 2 .5 2.9 0 2.5-1.1 4.8-3.2 6.8-2.2 2-5.2 3.1-9 3.3-2 .6-3.6 1.3-4.6 2.2-.4.3-.6.6-.6 1s.2.7.5 1.1c.3.3 1.2.6 2.6 1l5.6 1.3c3.1.7 5.2 1.6 6.2 2.6s1.5 2.2 1.5 3.5c0 1.6-.6 3-1.7 4.3-1.2 1.3-2.9 2.3-5.1 3.1-2.2.7-4.7 1.1-7.4 1.1-2.4 0-4.6-.3-6.5-.9s-3.4-1.3-4.2-2.3c-.8-1-1.3-2-1.3-3 0-.8.3-1.7.8-2.6.5-.9 1.2-1.6 2.1-2.2.5-.4 2-1.2 4.4-2.6-.9-.7-1.3-1.5-1.3-2.3 0-.8.4-1.6 1.2-2.5.8-.9 2.4-1.8 5-2.9-2.1-.4-3.8-1.3-5-2.7-1.2-1.4-1.9-2.9-1.9-4.6 0-2.7 1.2-5.2 3.6-7.3 2.4-2.2 5.6-3.2 9.6-3.2 1.4 0 2.6.1 3.6.4.9.3 1.8.7 2.7 1.4h7.5zM491.5 445c-1.6.7-2.7 1.6-3.5 2.7s-1.2 2.2-1.2 3.3c0 1.3.6 2.3 1.7 3.1 1.7 1.2 4.1 1.8 7.3 1.8 2.8 0 5.1-.5 7.1-1.4 2-.9 2.9-2.1 2.9-3.6 0-.8-.4-1.5-1.1-2.1-.7-.7-2.1-1.2-4.2-1.6-1.2-.2-4.2-1-9-2.2zm13.8-19.8c0-1.5-.4-2.8-1.3-3.6-.9-.9-2-1.3-3.4-1.3-2.2 0-4 1.1-5.4 3.3-1.4 2.2-2.1 4.5-2.1 6.8 0 1.5.5 2.7 1.4 3.6.9.9 2 1.4 3.3 1.4 1 0 2-.3 3-.8 1-.6 1.8-1.3 2.4-2.3.7-1 1.2-2.2 1.6-3.8.3-1.5.5-2.6.5-3.3zM546.3 403.9l-8.1 28.1c3.5-5.3 6.2-8.8 8.2-10.5s3.8-2.6 5.6-2.6c.9 0 1.7.3 2.3 1 .6.6.9 1.5.9 2.5 0 1.3-.3 2.8-.8 4.6l-3.5 12.1c-.4 1.5-.7 2.3-.7 2.4 0 .3.1.5.2.7.2.2.4.3.6.3.3 0 .5-.1.9-.4 1.1-.8 2.2-2 3.3-3.5l.9.5c-.7 1-1.6 2.1-2.7 3.4-1.2 1.2-2.2 2.1-3 2.5s-1.6.7-2.2.7c-.7 0-1.3-.2-1.7-.7-.5-.5-.7-1-.7-1.7 0-.8.3-2.4 1-4.7L550 427c.4-1.4.6-2.6.6-3.4 0-.4-.1-.7-.4-.9-.2-.2-.6-.3-.9-.3-.6 0-1.2.2-1.9.6-1.3.8-2.8 2.3-4.5 4.5-.5.6-2 3-4.6 7.2-.8 1.3-1.5 2.8-2 4.4l-1.8 5.9h-4.3l9.5-33.1 1-3.6c0-.5-.2-.9-.6-1.3-.4-.4-.9-.6-1.5-.6-.3 0-.9.1-1.6.2l-.6.1v-1.1l9.9-1.7zM572.1 418.9l-5.7 20.3c-.4 1.4-.6 2.2-.6 2.5 0 .3.1.6.3.8s.4.3.7.3c.3 0 .6-.2 1-.5 1.1-.9 2.2-2.1 3.3-3.7l1 .7c-1.3 2-2.9 3.7-4.6 5.1-1.3 1-2.6 1.5-3.8 1.5-.8 0-1.4-.2-1.9-.7s-.8-1.1-.8-1.8.2-1.9.7-3.6l3.8-12.9c.6-2.1.9-3.4.9-4 0-.4-.1-.8-.4-1-.3-.3-.7-.4-1.2-.4-.4 0-1.3.1-2.6.3v-1.1l9.9-1.8zm-.4-11.5c.8 0 1.5.3 2.1.8.6.6.8 1.2.8 2.1 0 .8-.3 1.5-.9 2s-1.2.9-2 .9-1.5-.3-2-.9-.9-1.2-.9-2 .3-1.5.8-2.1c.6-.5 1.3-.8 2.1-.8zM607 403.9L597 438c-.5 1.8-.8 3.1-.8 3.6 0 .2.1.4.2.5.2.2.3.3.5.3.3 0 .5-.1.9-.4.7-.5 1.8-1.6 3.3-3.5l1 .6c-1.4 1.9-2.8 3.5-4.2 4.7s-2.7 1.8-4 1.8c-.7 0-1.2-.2-1.6-.7-.4-.5-.6-1.1-.6-2 0-1.1.3-2.6.9-4.4l1.1-3.6c-2.8 4.3-5.3 7.3-7.6 9-1.6 1.1-3.1 1.7-4.5 1.7-1.5 0-2.7-.7-3.8-2-1.1-1.3-1.6-3.1-1.6-5.3 0-2.9.9-5.9 2.7-9.2 1.8-3.3 4.2-5.9 7.3-7.9 2.4-1.6 4.5-2.5 6.5-2.5 1 0 1.9.2 2.7.6.8.4 1.5 1.1 2.2 2.1l2.8-10.1c.2-.7.4-1.3.5-1.7.2-.8.3-1.4.3-1.9 0-.4-.1-.7-.4-1-.4-.3-.9-.5-1.6-.5-.4 0-1.2.1-2.2.2v-1.1l10-1.4zm-10.8 20.5c0-1.2-.4-2.2-1.1-3-.7-.8-1.6-1.1-2.7-1.1-2.4 0-5 2-7.6 6-2.6 4-3.9 7.8-3.9 11.5 0 1.4.3 2.5 1 3.3.6.8 1.4 1.1 2.3 1.1 2 0 4.5-2.2 7.5-6.5s4.5-8 4.5-11.3zM636.5 403.9l-9.9 34.1c-.5 1.8-.8 3.1-.8 3.6 0 .2.1.4.2.5.2.2.3.3.5.3.3 0 .5-.1.9-.4.7-.5 1.8-1.6 3.3-3.5l1 .6c-1.4 1.9-2.8 3.5-4.2 4.7s-2.7 1.8-4 1.8c-.7 0-1.2-.2-1.6-.7s-.6-1.1-.6-2c0-1.1.3-2.6.9-4.4l1.1-3.6c-2.8 4.3-5.3 7.3-7.6 9-1.6 1.1-3.1 1.7-4.5 1.7-1.5 0-2.7-.7-3.8-2-1.1-1.3-1.6-3.1-1.6-5.3 0-2.9.9-5.9 2.7-9.2 1.8-3.3 4.2-5.9 7.3-7.9 2.4-1.6 4.5-2.5 6.5-2.5 1 0 1.9.2 2.7.6.8.4 1.5 1.1 2.2 2.1l2.8-10.1c.2-.7.4-1.3.5-1.7.2-.8.3-1.4.3-1.9 0-.4-.1-.7-.4-1-.4-.3-.9-.5-1.6-.5-.4 0-1.2.1-2.2.2v-1.1l9.9-1.4zm-10.7 20.5c0-1.2-.4-2.2-1.1-3s-1.6-1.1-2.7-1.1c-2.4 0-5 2-7.6 6-2.6 4-3.9 7.8-3.9 11.5 0 1.4.3 2.5 1 3.3.6.8 1.4 1.1 2.3 1.1 2 0 4.5-2.2 7.5-6.5s4.5-8 4.5-11.3zM641.2 434.1c-.1 1-.2 1.8-.2 2.4 0 1.7.6 3.2 1.8 4.4s2.7 1.8 4.4 1.8c1.4 0 2.7-.3 4-.9s3.2-1.8 5.7-3.8l.6.8c-4.6 4.5-8.9 6.8-13.1 6.8-2.8 0-4.9-.9-6.4-2.7s-2.1-3.7-2.1-5.9c0-2.9.9-5.8 2.7-8.8 1.8-3 4-5.3 6.7-7 2.7-1.7 5.4-2.5 8.3-2.5 2 0 3.6.4 4.5 1.2 1 .8 1.5 1.8 1.5 2.9 0 1.6-.6 3.1-1.9 4.6-1.7 1.9-4.1 3.4-7.4 4.6-2.2 1.1-5.2 1.7-9.1 2.1zm.2-1.4c2.9-.3 5.2-.9 7-1.7 2.4-1.1 4.1-2.3 5.3-3.8 1.2-1.5 1.8-2.9 1.8-4.2 0-.8-.3-1.5-.8-2s-1.2-.8-2.2-.8c-2 0-4.1 1-6.3 3.1-2.2 2.2-3.8 5.3-4.8 9.4zM673.4 418.9l-3.8 13.1c3.6-5.4 6.4-8.9 8.3-10.6s3.8-2.5 5.5-2.5c1 0 1.8.3 2.4 1 .6.6.9 1.5.9 2.5 0 1.2-.3 2.7-.8 4.6l-3.5 12.2c-.4 1.4-.6 2.3-.6 2.6 0 .3.1.5.2.7.2.2.3.3.5.3s.5-.1.8-.4c1-.8 2.1-2 3.4-3.7l.9.5c-1.8 2.6-3.5 4.4-5.1 5.5-1.1.8-2.1 1.1-3 1.1-.7 0-1.3-.2-1.7-.7-.4-.4-.6-1-.6-1.7 0-.9.3-2.5 1-4.8l3.4-11.6c.4-1.4.6-2.6.6-3.4 0-.4-.1-.7-.4-.9-.3-.2-.6-.4-.9-.4-.5 0-1.2.2-1.9.7-1.4.9-2.9 2.3-4.5 4.3-1.5 2-3.2 4.5-4.9 7.6-.9 1.6-1.7 3.4-2.3 5.4l-1.4 4.8h-4.3l5.3-18.1c.6-2.2.9-3.5.9-3.9 0-.4-.2-.8-.5-1.1-.3-.3-.8-.5-1.3-.5-.2 0-.6 0-1.2.1l-1.1.2-.2-1 9.9-1.9zM720.1 411.7l-2.3 7.9h4.5l-.5 1.8h-4.5l-5 17.1c-.5 1.8-.8 3-.8 3.6 0 .3.1.6.2.8.2.2.3.3.5.3.5 0 1.1-.3 1.9-1 .5-.4 1.5-1.6 3.1-3.6l1 .7c-1.8 2.6-3.4 4.4-5 5.5-1.1.7-2.2 1.1-3.3 1.1-.8 0-1.5-.3-2.1-.8-.5-.5-.8-1.2-.8-2 0-1 .3-2.6.9-4.8l4.8-16.7h-4.4l.3-1.1c2.1-.6 3.9-1.4 5.3-2.6 1.4-1.1 3-3.1 4.7-6h1.5zM724.3 420.5l10-1.6-4.2 14c3.4-5.8 6.4-9.8 9.2-12.1 1.6-1.3 2.8-2 3.8-2 .6 0 1.1.2 1.5.6.4.4.5.9.5 1.6 0 1.3-.3 2.5-1 3.6-.5.9-1.1 1.3-2 1.3-.4 0-.8-.1-1.1-.4-.3-.3-.5-.7-.6-1.3 0-.4-.1-.6-.3-.7-.2-.2-.3-.2-.5-.2-.3 0-.6.1-.9.2-.5.3-1.3 1-2.3 2.3-1.6 1.9-3.3 4.3-5.2 7.3-.8 1.3-1.5 2.7-2.1 4.3-.8 2.2-1.3 3.5-1.4 4l-.9 3.6h-4.4l5.3-17.9c.6-2.1.9-3.6.9-4.5 0-.3-.1-.6-.4-.9-.4-.3-.9-.5-1.5-.5-.4 0-1.1.1-2.2.3l-.2-1zM749.1 434.1c-.1 1-.2 1.8-.2 2.4 0 1.7.6 3.2 1.8 4.4s2.7 1.8 4.4 1.8c1.4 0 2.7-.3 4-.9s3.2-1.8 5.7-3.8l.6.8c-4.6 4.5-8.9 6.8-13.1 6.8-2.8 0-4.9-.9-6.4-2.7s-2.1-3.7-2.1-5.9c0-2.9.9-5.8 2.7-8.8 1.8-3 4-5.3 6.7-7 2.7-1.7 5.4-2.5 8.3-2.5 2 0 3.6.4 4.5 1.2 1 .8 1.5 1.8 1.5 2.9 0 1.6-.6 3.1-1.9 4.6-1.7 1.9-4.1 3.4-7.4 4.6-2.2 1.1-5.2 1.7-9.1 2.1zm.2-1.4c2.9-.3 5.2-.9 7-1.7 2.4-1.1 4.1-2.3 5.3-3.8 1.2-1.5 1.8-2.9 1.8-4.2 0-.8-.3-1.5-.8-2s-1.2-.8-2.2-.8c-2 0-4.1 1-6.3 3.1-2.1 2.2-3.8 5.3-4.8 9.4zM796.1 418.9l-5.6 19.6-.6 2.6c-.1.3-.1.5-.1.6 0 .3.1.6.3.8.2.2.3.3.6.3s.6-.2 1-.5c.8-.6 1.8-1.7 3-3.5l1 .7c-1.3 2-2.7 3.5-4.1 4.6-1.4 1-2.7 1.6-3.9 1.6-.8 0-1.5-.2-1.9-.6s-.6-1-.6-1.8c0-.9.2-2.2.6-3.7l.6-2.2c-2.5 3.3-4.8 5.6-7 6.9-1.5.9-3 1.4-4.5 1.4-1.4 0-2.6-.6-3.6-1.7-1-1.2-1.5-2.8-1.5-4.8 0-3.1.9-6.3 2.8-9.7 1.8-3.4 4.2-6.1 7-8.2 2.2-1.6 4.3-2.4 6.3-2.4 1.2 0 2.2.3 2.9.9.8.6 1.4 1.6 1.8 3.1l1-3.3 4.5-.7zm-10.3 1.5c-1.2 0-2.5.6-3.9 1.7-2 1.6-3.7 4.1-5.2 7.3s-2.3 6.1-2.3 8.7c0 1.3.3 2.3 1 3.1.7.8 1.4 1.1 2.3 1.1 2.1 0 4.4-1.5 6.8-4.7 3.3-4.1 4.9-8.4 4.9-12.7 0-1.6-.3-2.8-1-3.6s-1.5-.9-2.6-.9zM819.4 418.9l-1.8 8.9h-1.1c-.1-2.6-.6-4.5-1.6-5.6-1-1.2-2.2-1.8-3.7-1.8-1.2 0-2.1.3-2.8 1-.7.7-1.1 1.4-1.1 2.4 0 .6.1 1.2.4 1.8s.9 1.4 1.8 2.4c2.5 2.7 4.1 4.8 4.9 6.2.7 1.4 1.1 2.7 1.1 3.9 0 2-.8 3.8-2.5 5.3-1.7 1.6-3.8 2.3-6.3 2.3-1.4 0-3-.3-4.8-1-.6-.2-1.1-.3-1.5-.3-.9 0-1.5.4-2 1.3h-1.1l1.8-9.4h1.1c.1 2.9.7 5 1.8 6.2 1.1 1.2 2.6 1.8 4.5 1.8 1.5 0 2.6-.4 3.5-1.2.9-.8 1.3-1.8 1.3-3 0-.8-.2-1.5-.5-2.1-.5-1.2-1.7-2.8-3.4-4.8s-2.8-3.6-3.3-4.6c-.5-1-.7-2-.7-3.1 0-1.9.7-3.4 2-4.7 1.4-1.3 3.1-1.9 5.2-1.9.6 0 1.2 0 1.7.1.3.1.9.3 1.9.6 1 .4 1.7.6 2 .6.8 0 1.5-.5 2.1-1.4h1.1zM848.8 419.6l-5 17.2c-.8 2.6-1.1 4.2-1.1 4.9 0 .3.1.6.2.8.1.2.3.2.5.2.3 0 .7-.1 1.1-.4.4-.3 1.4-1.5 3-3.6l.9.7c-1.5 2.4-3.1 4.2-4.7 5.3-1.1.7-2.1 1.1-3.1 1.1-.8 0-1.3-.2-1.8-.6-.4-.4-.6-1-.6-1.6 0-.7.1-1.5.4-2.6.3-1.4 1.2-4.5 2.6-9.3-3.3 5.4-6 9.1-8.2 11.1-2.2 2-4.3 3.1-6.1 3.1-.9 0-1.6-.3-2.3-.9-.6-.6-.9-1.4-.9-2.3 0-1.4.4-3.7 1.3-6.6l2.5-8.9c.6-2.1.9-3.5.9-4 0-.2-.1-.4-.2-.6-.2-.2-.3-.2-.5-.2-.4 0-.8.1-1.2.4-.4.3-1.3 1.4-2.7 3.2l-.9-.6c1.4-2.2 3-3.9 4.6-4.9 1.2-.8 2.4-1.2 3.4-1.2.7 0 1.3.2 1.7.7.5.5.7 1 .7 1.7 0 1-.4 2.9-1.2 5.6l-2.7 9.3c-.8 2.5-1.1 4.2-1.1 4.8 0 .4.1.7.4.9.2.2.6.3 1 .3.6 0 1.5-.3 2.5-1s2.4-2 4.1-4.2c1.7-2.2 3.1-4.2 4.2-6.2 1.1-1.9 2.3-5 3.5-9.1l.6-2.2h4.2zM853.6 420.5l10-1.6-4.2 14c3.4-5.8 6.4-9.8 9.2-12.1 1.6-1.3 2.8-2 3.8-2 .6 0 1.1.2 1.5.6.4.4.5.9.5 1.6 0 1.3-.3 2.5-1 3.6-.5.9-1.1 1.3-2 1.3-.4 0-.8-.1-1.1-.4-.3-.3-.5-.7-.6-1.3 0-.4-.1-.6-.3-.7-.2-.2-.3-.2-.5-.2-.3 0-.6.1-.9.2-.5.3-1.3 1-2.3 2.3-1.6 1.9-3.3 4.3-5.2 7.3-.8 1.3-1.5 2.7-2.1 4.3-.8 2.2-1.3 3.5-1.4 4l-.9 3.6h-4.4l5.3-17.9c.6-2.1.9-3.6.9-4.5 0-.3-.1-.6-.4-.9-.4-.3-.9-.5-1.5-.5-.4 0-1.1.1-2.2.3l-.2-1zM878.4 434.1c-.1 1-.2 1.8-.2 2.4 0 1.7.6 3.2 1.8 4.4s2.7 1.8 4.4 1.8c1.4 0 2.7-.3 4-.9s3.2-1.8 5.7-3.8l.6.8c-4.6 4.5-8.9 6.8-13.1 6.8-2.8 0-4.9-.9-6.4-2.7s-2.1-3.7-2.1-5.9c0-2.9.9-5.8 2.7-8.8 1.8-3 4-5.3 6.7-7 2.7-1.7 5.4-2.5 8.3-2.5 2 0 3.6.4 4.5 1.2 1 .8 1.5 1.8 1.5 2.9 0 1.6-.6 3.1-1.9 4.6-1.7 1.9-4.1 3.4-7.4 4.6-2.1 1.1-5.2 1.7-9.1 2.1zm.2-1.4c2.9-.3 5.2-.9 7-1.7 2.4-1.1 4.1-2.3 5.3-3.8 1.2-1.5 1.8-2.9 1.8-4.2 0-.8-.3-1.5-.8-2s-1.2-.8-2.2-.8c-2 0-4.1 1-6.3 3.1-2.1 2.2-3.7 5.3-4.8 9.4zM919.1 418.9l-1.8 8.9h-1.1c-.1-2.6-.6-4.5-1.6-5.6-1-1.2-2.2-1.8-3.7-1.8-1.2 0-2.1.3-2.8 1-.7.7-1.1 1.4-1.1 2.4 0 .6.1 1.2.4 1.8s.9 1.4 1.8 2.4c2.5 2.7 4.1 4.8 4.9 6.2.7 1.4 1.1 2.7 1.1 3.9 0 2-.8 3.8-2.5 5.3-1.7 1.6-3.8 2.3-6.3 2.3-1.4 0-3-.3-4.8-1-.6-.2-1.1-.3-1.5-.3-.9 0-1.5.4-2 1.3H897l1.8-9.4h1.1c.1 2.9.7 5 1.8 6.2 1.1 1.2 2.6 1.8 4.5 1.8 1.5 0 2.6-.4 3.5-1.2.9-.8 1.3-1.8 1.3-3 0-.8-.2-1.5-.5-2.1-.5-1.2-1.7-2.8-3.4-4.8s-2.8-3.6-3.3-4.6c-.5-1-.7-2-.7-3.1 0-1.9.7-3.4 2-4.7 1.4-1.3 3.1-1.9 5.2-1.9.6 0 1.2 0 1.7.1.3.1.9.3 1.9.6 1 .4 1.7.6 2 .6.8 0 1.5-.5 2.1-1.4h1.1zM950.8 411.7l-2.3 7.9h4.5l-.5 1.8H948l-5 17.1c-.5 1.8-.8 3-.8 3.6 0 .3.1.6.2.8.2.2.3.3.5.3.5 0 1.1-.3 1.9-1 .5-.4 1.5-1.6 3.1-3.6l1 .7c-1.8 2.6-3.4 4.4-5 5.5-1.1.7-2.2 1.1-3.3 1.1-.8 0-1.5-.3-2.1-.8-.5-.5-.8-1.2-.8-2 0-1 .3-2.6.9-4.8l4.8-16.7H939l.3-1.1c2.1-.6 3.9-1.4 5.3-2.6 1.4-1.1 3-3.1 4.7-6h1.5zM979.3 427.9c0 2.9-.8 5.8-2.3 8.6-1.5 2.8-3.7 5.1-6.4 6.7-2.7 1.7-5.4 2.5-8 2.5-2.6 0-4.8-.8-6.5-2.5-1.7-1.7-2.5-3.9-2.5-6.5 0-2.8.8-5.7 2.4-8.5 1.6-2.9 3.8-5.1 6.5-6.8 2.7-1.7 5.4-2.5 7.9-2.5s4.6.8 6.3 2.5c1.8 1.7 2.6 3.8 2.6 6.5zm-4.8-2c0-1.8-.4-3.2-1.3-4.1-.9-1-2-1.4-3.4-1.4-2.8 0-5.4 2-7.8 6.1-2.4 4.1-3.6 8.1-3.6 12.1 0 1.8.5 3.2 1.4 4.2s2.1 1.5 3.5 1.5c2.7 0 5.3-2 7.6-6.1 2.4-4 3.6-8.1 3.6-12.3zM1013.9 403.9l-9.9 34.4c-.5 1.7-.7 2.8-.7 3.1 0 .3.1.5.3.7.2.2.4.3.7.3.4 0 .8-.2 1.2-.5 1-.8 2.1-2 3.2-3.7l.9.9c-1.8 2.6-3.5 4.4-5.1 5.4-1.1.7-2.2 1.1-3.2 1.1-.7 0-1.3-.3-1.8-.8s-.7-1.1-.7-1.7c0-.7.3-2.1.9-4.3l7.8-27.1c.6-2.2 1-3.5 1-3.8 0-.5-.2-.8-.5-1.1-.4-.3-.9-.4-1.7-.4-.4 0-1.1.1-2 .2v-1.1l9.6-1.6zM1026.4 418.9l-5.7 20.3c-.4 1.4-.6 2.2-.6 2.5 0 .3.1.6.3.8.2.2.4.3.7.3.3 0 .6-.2 1-.5 1.1-.9 2.2-2.1 3.3-3.7l1 .7c-1.3 2-2.9 3.7-4.6 5.1-1.3 1-2.6 1.5-3.8 1.5-.8 0-1.4-.2-1.9-.7-.5-.5-.8-1.1-.8-1.8s.2-1.9.7-3.6l3.8-12.9c.6-2.1.9-3.4.9-4 0-.4-.1-.8-.4-1s-.7-.4-1.2-.4c-.4 0-1.3.1-2.6.3v-1.1l9.9-1.8zm-.4-11.5c.8 0 1.5.3 2.1.8.6.6.8 1.2.8 2.1 0 .8-.3 1.5-.9 2-.6.6-1.2.9-2 .9s-1.5-.3-2-.9-.9-1.2-.9-2 .3-1.5.8-2.1 1.3-.8 2.1-.8zM1060 420.7l-.8 3h-4.8c.4 1 .5 2 .5 2.9 0 2.5-1.1 4.8-3.2 6.8-2.2 2-5.2 3.1-9 3.3-2 .6-3.6 1.3-4.6 2.2-.4.3-.6.6-.6 1s.2.7.5 1.1c.3.3 1.2.6 2.6 1l5.6 1.3c3.1.7 5.2 1.6 6.2 2.6s1.5 2.2 1.5 3.5c0 1.6-.6 3-1.7 4.3-1.2 1.3-2.9 2.3-5.1 3.1-2.2.7-4.7 1.1-7.4 1.1-2.4 0-4.6-.3-6.5-.9s-3.4-1.3-4.2-2.3c-.8-1-1.3-2-1.3-3 0-.8.3-1.7.8-2.6.5-.9 1.2-1.6 2.1-2.2.5-.4 2-1.2 4.4-2.6-.9-.7-1.3-1.5-1.3-2.3 0-.8.4-1.6 1.2-2.5.8-.9 2.4-1.8 5-2.9-2.1-.4-3.8-1.3-5-2.7-1.2-1.4-1.9-2.9-1.9-4.6 0-2.7 1.2-5.2 3.6-7.3 2.4-2.2 5.6-3.2 9.6-3.2 1.4 0 2.6.1 3.6.4.9.3 1.8.7 2.7 1.4h7.5zm-23.8 24.3c-1.6.7-2.7 1.6-3.5 2.7-.8 1.1-1.2 2.2-1.2 3.3 0 1.3.6 2.3 1.7 3.1 1.7 1.2 4.1 1.8 7.3 1.8 2.8 0 5.1-.5 7.1-1.4 2-.9 2.9-2.1 2.9-3.6 0-.8-.4-1.5-1.1-2.1s-2.1-1.2-4.2-1.6c-1.2-.2-4.2-1-9-2.2zm13.8-19.8c0-1.5-.4-2.8-1.3-3.6-.9-.9-2-1.3-3.4-1.3-2.2 0-4 1.1-5.4 3.3-1.4 2.2-2.1 4.5-2.1 6.8 0 1.5.5 2.7 1.4 3.6.9.9 2 1.4 3.3 1.4 1 0 2-.3 3-.8 1-.6 1.8-1.3 2.4-2.3.7-1 1.2-2.2 1.6-3.8.3-1.5.5-2.6.5-3.3zM1076.2 403.9L1068 432c3.5-5.3 6.2-8.8 8.2-10.5s3.8-2.6 5.6-2.6c.9 0 1.7.3 2.3 1 .6.6.9 1.5.9 2.5 0 1.3-.3 2.8-.8 4.6l-3.5 12.1c-.4 1.5-.7 2.3-.7 2.4 0 .3.1.5.2.7.2.2.4.3.6.3.3 0 .5-.1.9-.4 1.1-.8 2.2-2 3.3-3.5l.9.5c-.7 1-1.6 2.1-2.7 3.4-1.2 1.2-2.2 2.1-3 2.5s-1.6.7-2.2.7c-.7 0-1.3-.2-1.7-.7-.5-.5-.7-1-.7-1.7 0-.8.3-2.4 1-4.7l3.3-11.6c.4-1.4.6-2.6.6-3.4 0-.4-.1-.7-.4-.9-.2-.2-.6-.3-.9-.3-.6 0-1.2.2-1.9.6-1.3.8-2.8 2.3-4.5 4.5-.5.6-2 3-4.6 7.2-.8 1.3-1.5 2.8-2 4.4l-1.8 5.9h-4.3l9.5-33.1 1-3.6c0-.5-.2-.9-.6-1.3-.4-.4-.9-.6-1.5-.6-.3 0-.9.1-1.6.2l-.6.1v-1.1l9.9-1.7zM1103.8 411.7l-2.3 7.9h4.5l-.5 1.8h-4.5l-5 17.1c-.5 1.8-.8 3-.8 3.6 0 .3.1.6.2.8.2.2.3.3.5.3.5 0 1.1-.3 1.9-1 .5-.4 1.5-1.6 3.1-3.6l1 .7c-1.8 2.6-3.4 4.4-5 5.5-1.1.7-2.2 1.1-3.3 1.1-.8 0-1.5-.3-2.1-.8-.5-.5-.8-1.2-.8-2 0-1 .3-2.6.9-4.8l4.8-16.7h-4.4l.3-1.1c2.1-.6 3.9-1.4 5.3-2.6 1.4-1.1 3-3.1 4.7-6h1.5z"/><linearGradient id="SVGID_1_" gradientUnits="userSpaceOnUse" x1="51.81" y1="151.232" x2="240.437" y2="477.943"><stop offset="0" stop-color="#d6a174"/><stop offset="1" stop-color="#8e6045"/></linearGradient><path d="M68.6 142.8S35 154.7 31.7 179.1s-8.6 77.8 0 157.6 5.9 186.6 100.9 182.7 98.9-64 98.9-64 29-166.8 28.4-218.3-17.1-79.8-31.7-84.4c-14.5-4.6-13.8-22.4-13.8-22.4s-10.6-19.1-29-17.8 6.6 17.8-48.8 21.8c-55.5 3.9-68 8.5-68 8.5z" fill="url(#SVGID_1_)" stroke="#dba677" stroke-miterlimit="10"/><ellipse cx="138.4" cy="124.3" rx="65.6" ry="25" stroke="#b98861" stroke-miterlimit="10"/><linearGradient id="SVGID_2_" gradientUnits="userSpaceOnUse" x1="141.715" y1="40.471" x2="69.646" y2="165.297"><stop offset="0" stop-color="#d6a174"/><stop offset="1" stop-color="#8e6045"/></linearGradient><path d="M50 150.1c4.1.4 8.3.2 12.3-.7 17.5-3.7 73-16.7 86.9-33.6 16.5-20.1 10.2-29.4 10.2-29.4l14.9.9s18.9-6.7 9-19.6S143.7 40 93.1 53.4s-58.3 72.1-58.3 72.1-2.2 20.5 5.6 22.8c3.3 1 6.7 1.5 9.6 1.8z" fill="url(#SVGID_2_)" stroke="#dba677" stroke-miterlimit="10"/><linearGradient id="SVGID_3_" gradientUnits="userSpaceOnUse" x1="86.382" y1="98.304" x2="86.382" y2="47.73"><stop offset="0" stop-color="#d6a174"/><stop offset="1" stop-color="#8e6045"/></linearGradient><path d="M120.9 55.2c5.1 9.9-6.2 25.9-25.3 35.8s-38.7 9.9-43.8 0S58 65 77.1 55.1s38.7-9.8 43.8.1z" fill="url(#SVGID_3_)" stroke="#dba677" stroke-miterlimit="10"/><path d="M167.2 295.7s11.2-4 23.1-15.8c11.9-11.9 29.3-10.9 29.3-10.9s-21.1 11.5-20.4 18.5-2.6 21.4-2.6 21.4-4-12.2-8.2-10.9c-4.4 1.4-21.2-2.3-21.2-2.3zM180.3 417.1s-10.6-4.6-6.9-8.6c3.6-4 26.4-11.5 28-14.8 1.6-3.3-7.6 11.2-3.6 15.5 4 4.3 11.2 9.2 8.2 16.8-3 7.6-10.6 29-27.7 28s-22.1-19.1-33.3-19.1-22.4-7.3-36.6-19.8c-14.2-12.5-20.1-16.5-20.1-16.5s4.6.7 28.4 14.8 26.4 9.9 35.6 14.8c9.2 4.9 17.5 15.5 21.8 14.5 4.3-1 11.2-3.6 11.2-10.6 0-6.8-5-15-5-15z"/><path d="M198.4 278.6h3.7s-2.4-60.5-7.5-83.4M151.8 82.6s20 4.7 23.1 4.8c3.1.1-16.6 13.6-16.6 13.6s1.6-8.9-6.3-14.6c-7.8-5.7-.2-3.8-.2-3.8z"/></svg>
