<svg xmlns="http://www.w3.org/2000/svg" viewBox="0 0 1000 500"><path fill="#fff" d="M189.6 350.9l1.1 4.2-68.8-14.7s-4.5 6.8-13.5 4.5-13.5-9-13.5-9l-71 1.1 20.5-24.8v-.1L25 333.6l12.4-95.8 6.4-9.4-16.6-.8L16 344.9h74.4s9 9 18 9 15.8-4.5 15.8-4.5l74.4 15.8 11.3-119.5-17.2-4.3 5.9 13.3-9 96.2z"/><path fill="#fff" d="M44.4 312.1v.2l.9-1.2-.9 1zm85.4-84.9l-.1-.1c-3 1.5-5.9 3.4-7.8 5.2h-4.5c-1-1.2-2.5-2.6-4.1-4.1l-.4.4c-1.6-1.7-3.2-3.4-4.7-4.6v-.1c-.2-.2-.4-.3-.6-.5 6.9 6.1 12.1 13.4 12.1 13.4s2.8-5.7 10.1-9.6zm-62-27.7H31.7v3.4h36.1v-3.4zm-36 3.4h36.1v4.5H31.8v-4.5zm124 20.6c3 .3 7.3 1 12.4 2.3.2-5.9 2.1-10.5 4.5-10.5 2.5 0 4.5 5 4.5 11.3 0 .7 0 1.4-.1 2.1 2.6 1 5.3 2.1 8 3.5l.9.6c2.3 1 3.6 1.6 3.6 1.6l1.9 4.3c.1.1.2.2.3.2v-29.3h-36.1v13.9h.1zm17.3-24h-17.3v5.7h36v-5.7h-18.7z"/><path fill="#fff" d="M155.8 205.2h36.1v4.5h-36.1v-4.5zm-48.2 18.1c.2.2.4.3.6.5-.6-2.1-.9-4.6-.9-7.4 0-6.8 2-12.4 4.5-12.4s4.5 5.6 4.5 12.4c0 5.4-1.3 10-3 11.7 1.6 1.5 3.1 2.9 4.1 4.1h4.5c1.9-1.8 4.8-3.7 7.8-5.2-1.3-2.2-2.2-6.1-2.2-10.6 0-6.8 2-12.4 4.5-12.4s4.5 5.6 4.5 12.4c0 3.2-.4 6-1.1 8.2.4-.1.8-.2 1.1-.3 1.5-.4 3.5-1.1 5.6-1.1v-22.5H83.6v13.5c1.2.1 2.6.2 4.2.5 3.7.3 7 .8 9.3 1.8 3.6 1.4 7.2 3.9 10.5 6.8zm-20.5-9c.4-5.8 2.2-10.3 4.4-10.3 2.4 0 4.4 5.3 4.5 11.9-1.5-.5-4.4-1.3-8.9-1.6zm55.1-29.4c-.4.7-.7 1-1.1 1H84.6c-.4 0-.8-.4-1.1-1v8.9h58.6v-8.9h.1z"/><path fill="#fff" d="M83.6 193.9h58.6v6.8H83.6v-6.8z"/><path fill="#009de0" d="M112.9 228.5c.1-.1.3-.2.4-.4-1.6-1.4-3.4-2.9-5.1-4.3v.1c1.5 1.1 3.1 2.8 4.7 4.6z"/><path fill="#fff" d="M110.8 323.8l-1.6-.2c1 .6 1.5 1 1.5 1l.1-.8zM52 217.1c.9-.4 2.2-.7 3.7-1.1-1.7.2-2.9.3-3.4.4l-.3.4v.3z"/><path fill="#fff" d="M44.4 312.1l.9-1s22.5-2.3 36.1 0c11 1.8 23.6 9.7 27.8 12.5l1.6.2 8.9-87.1s-5.2-7.3-12.1-13.4c-1.7-1.3-3.4-2.6-4.8-3.5-3.7-2.4-10-4.3-15-5.1-10.8-.8-25.4.6-32.1 1.3-1.5.4-2.8.8-3.7 1.1l-7.6 95zm15.7-27.7l17.6-42 5.5.1 11.6 43.8c.2.5.3.8.5 1s.5.3 1 .4l3.2.6v3.1l-17.2-.2v-3.1l4.2-.3c.2 0 .4-.2.6-.5s.2-.6.2-.8l-2.4-11.2-16.7-.2-2.9 8.4c0 .1-.1.3 0 .5 0 .2.1.3.2.5s.2.3.4.4c.1.1.3.1.4.1l4.3.4v3.1l-14.6-.2v-3.1l4.1-.8zM25 333.6l19.3-21.5 7.6-95c-.1 0-.2.1-.3.1l-3.1 4.2-4.8 7-6.4 9.4L25 333.6z"/><path fill="#fff" d="M51.7 217.2c.1 0 .2-.1.3-.1v-.3l-.3.4zm24.9 35.5l-7.2 19 14.1.1-6.9-19.1zm31-29.4c-3.2-2.8-6.8-5.4-10.4-6.9-2.3-.9-5.6-1.5-9.3-1.8 5 .9 11.3 2.7 15 5.1 1.3 1 2.9 2.3 4.7 3.6zm22.2 3.9c-7.4 4-10.2 9.6-10.2 9.6l-8.9 87.1 1.1.2c4-2 17.5-8 32.6-6.1 13.6 1.7 24.7 6 29.3 8l14.7-90.2.1-.1c-.8-1-1.6-2-2.5-2.7-7.1-3.1-23.8-9.6-39.3-9.6-4.8 0-8.8.8-12.2 1.9-1.7.6-3.2 1.4-4.6 2.2 0-.2 0-.3-.1-.3zm4 26.4c2.1-1.7 4.6-3 7.6-3.8s6.3-1.2 9.9-1c3.7.2 7 .8 9.8 1.9s5.2 2.6 7.2 4.5c1.9 1.9 3.4 4.1 4.3 6.7.9 2.6 1.3 5.4 1.2 8.5-.1 1.9-.4 3.6-1 5.3-.6 1.6-1.3 3.1-2.2 4.4s-1.9 2.5-3.1 3.5c-1.2 1-2.4 1.9-3.7 2.5s-2.7 1.2-4.1 1.6c-1.4.4-2.8.6-4.1.6l-.2 4.4 10.5.5c.4 0 .9 0 1.4-.2.5-.1 1-.4 1.5-.8s.9-.8 1.2-1.4.5-1.3.6-2.2l1.4.1-.5 11.2-18.9-.9.6-12.5c1.9-.5 3.7-1.3 5.3-2.3s3-2.2 4.1-3.5 2.1-2.9 2.8-4.7c.7-1.8 1.1-3.7 1.2-5.8.1-2.3-.2-4.6-.8-6.9-.7-2.3-1.7-4.3-3-6.2-1.3-1.8-3-3.3-4.9-4.5s-4.1-1.8-6.5-1.9-4.7.3-6.7 1.3-3.8 2.3-5.3 4c-1.5 1.7-2.7 3.6-3.5 5.9-.9 2.2-1.3 4.5-1.5 6.8-.1 2.1.1 4.1.6 5.9s1.3 3.5 2.3 4.9c1 1.5 2.3 2.8 3.8 3.9s3.2 2 5.1 2.8l-.6 12.5-18.9-.9.5-11.2 1.4.1c0 .9.1 1.7.4 2.3s.7 1.1 1.1 1.5c.4.4.9.7 1.4.9.5.2 1 .3 1.4.3l10.5.5.2-4.4c-2-.2-4.1-.8-6.1-1.8s-3.8-2.3-5.4-4c-1.6-1.7-2.9-3.6-3.8-5.9-.9-2.3-1.3-4.9-1.2-7.7.1-3.1.8-5.8 2-8.3 1-2.7 2.6-4.8 4.7-6.5z"/><path fill="#fff" d="M111.9 324l-1.1-.2-.1.8 1.2-.6zm76.6-88.5l-14.8 90.3c1.5.6 2.3 1 2.3 1l12.4 19.2 1.2 4.8 8.9-96.1-5.9-13.3-.8-.2.8.2-1.2-2.7c-.9-.6-1.8-1.9-2.9-3.2z"/><path fill="#fff" d="M188.5 235.5c1 1.3 2 2.6 3 3.2l-1.9-4.3-1.1 1.1z"/><path fill="#fff" d="M188.5 235.5l1.1-1.1s-1.3-.7-3.6-1.6c.9.7 1.7 1.7 2.5 2.7z"/><path fill="#009de0" d="M109.2 323.6c-4.2-2.8-16.8-10.7-27.8-12.5-13.5-2.3-36.1 0-36.1 0l-.9 1.1-.2 2.2 65 9.2zm2.7.4l60.8 8.5 1.1-6.7c-4.6-2-15.6-6.3-29.3-8-15.1-1.8-28.6 4.2-32.6 6.2zm77.7 26.9l-1.2-4.9-12.4-19.1 13.6 24.8v-.8z"/><path fill="#fff" d="M32 193h36v41H32v-41z"/><path fill="#009de0" d="M111.8 103.7h2.3V133h-2.3v-29.3z"/><path fill="#009de0" d="M107.3 109.4h11.3v2.3h-11.3v-2.3zm-58.2 44.4h1.4v17.6h-1.4v-17.6z"/><path fill="#009de0" d="M46.4 157.1h6.8v1.4h-6.8v-1.4zm126.7-3.3h1.4v17.6h-1.4v-17.6z"/><path fill="#009de0" d="M170.4 157.1h6.8v1.4h-6.8v-1.4z"/><g><path d="M68.4 203.4H31.3v-7.8h37.1v7.8zm-36.1-1h35.1v-5.8H32.3v5.8z"/><path fill="#009de0" d="M68.4 207.9H31.3v-5.5h37.1v5.5zm-36.1-1h35.1v-3.5H32.3v3.5zm110.4-5.7H83.1v-16.8h59.6v16.8zm-58.6-1h57.6v-5.8H84.1v5.8zm0-6.8h57.6v-8H84.1v8z"/><path d="M192.4 205.7h-37.1v-7.8h37.1v7.8zm-36.1-1h35.1v-5.8h-35.1v5.8z"/><path fill="#009de0" d="M192.4 210.2h-37.1v-5.5h37.1v5.5zm-36.1-1h35.1v-3.5h-35.1v3.5z"/></g><path fill="#009de0" d="M192.3 239.8l-.7-.4c-1-.5-2-1.8-3-3-1.2-1.5-2.4-3-3.8-3.6-12.4-6.2-23.6-8.1-29.1-8.7h-.4v-25h37.1v40.7zm-36.1-16.7c5.8.6 16.8 2.6 29 8.7 1.5.7 2.8 2.3 4.1 3.9.7.9 1.3 1.7 2 2.2V200h-35.1v23.1zM122.1 232.7h-4.9l-.1-.2c-3.3-3.8-10.3-9.5-14.5-12.3-4.7-3.1-14-5.2-19-5.5h-.5v-30.3h59.6v39.3h-.5c-1.7 0-3.3.5-4.6.8-.3.1-.6.2-.9.2-4.7 1.2-11.2 4.7-14.5 7.8l-.1.2zm-4.5-1h4.1c3.4-3.2 10-6.7 14.8-7.9.3-.1.5-.1.8-.2 1.3-.4 2.8-.8 4.4-.9v-37.3H84.1v28.3c5.1.4 14.3 2.5 19 5.7 4.2 2.8 11.1 8.5 14.5 12.3zm-85.3-4h-1v-30.9h37v17.9h-.5c-6.8.3-14.5 2.2-16.7 3.3l-.5-.9c2.3-1.2 9.8-3.1 16.6-3.4v-15.9h-35v29.9z"/><path fill="#009de0" d="M82.2 291.2v-3.1l4.2-.3c.2 0 .4-.2.6-.5s.2-.6.2-.8l-2.4-11.2-16.7-.2-2.9 8.4c0 .1-.1.3 0 .5 0 .2.1.3.2.5s.2.3.4.4c.1.1.3.1.4.1l4.3.4v3.1l-14.6-.2v-3.1l4.2-.8 17.6-42 5.5.1 11.6 43.8c.2.5.3.8.5 1s.5.3 1 .4l3.2.6v3.1l-17.3-.2zm-5.6-38.5l-7.3 18.9 14.2.2-6.9-19.1z"/><path fill="#009de0" d="M173.8 270.4c-.1 1.9-.4 3.6-1 5.3-.6 1.6-1.3 3.1-2.2 4.4s-1.9 2.5-3.1 3.5c-1.2 1-2.4 1.9-3.7 2.5-1.3.7-2.7 1.2-4.1 1.6-1.4.4-2.8.6-4.1.6l-.2 4.4 10.5.5c.4 0 .9 0 1.4-.2.5-.1 1-.4 1.5-.8s.9-.8 1.2-1.4.5-1.3.6-2.2l1.4.1-.5 11.2-18.9-.9.6-12.5c1.9-.5 3.7-1.3 5.3-2.3s3-2.2 4.1-3.5c1.2-1.4 2.1-2.9 2.8-4.7s1.1-3.7 1.2-5.8c.1-2.3-.2-4.6-.8-6.9-.7-2.3-1.7-4.3-3-6.2s-3-3.3-4.9-4.5-4.1-1.8-6.5-1.9-4.7.3-6.7 1.3-3.8 2.3-5.3 4-2.7 3.6-3.5 5.9c-.9 2.2-1.3 4.5-1.5 6.8-.1 2.1.1 4.1.6 5.9s1.3 3.5 2.3 4.9c1 1.5 2.3 2.8 3.8 3.9s3.2 2 5.1 2.8l-.6 12.5-18.9-.9.5-11.2 1.4.1c0 .9.1 1.7.4 2.3s.7 1.1 1.1 1.5c.4.4.9.7 1.4.9.5.2 1 .3 1.4.3l10.5.5.2-4.4c-2-.2-4.1-.8-6.1-1.8s-3.8-2.3-5.4-4c-1.6-1.7-2.9-3.6-3.8-5.9s-1.3-4.9-1.2-7.7c.1-3.1.8-5.8 2-8.3s2.8-4.6 4.9-6.3 4.6-3 7.6-3.8 6.3-1.2 9.9-1c3.7.2 7 .8 9.8 1.9 2.8 1.1 5.2 2.6 7.2 4.5 1.9 1.9 3.4 4.1 4.3 6.7s1.2 5.3 1 8.3z"/><path fill="#fff" d="M260.4 180.4v2.1h-2v16.4h2v2.1H254v-2.1h2v-16.4h-2v-2.1h6.4zm14.5 20.5h-2.3v-8.4c0-3.1-1.1-4.7-3.4-4.7-1.2 0-2.1.4-2.9 1.3-.8.9-1.2 2-1.2 3.3v8.4h-2.3v-14.7h2.3v2.4h.1c1.1-1.9 2.7-2.8 4.8-2.8 1.6 0 2.8.5 3.7 1.6.8 1 1.3 2.5 1.3 4.5v9.1h-.1zm10.4-.1c-.6.3-1.3.5-2.2.5-2.6 0-3.8-1.4-3.8-4.3v-8.7h-2.5v-2h2.5v-3.6l2.3-.8v4.3h3.7v2h-3.7v8.3c0 1 .2 1.7.5 2.1.3.4.9.6 1.7.6.6 0 1.1-.2 1.5-.5v2.1zm14-6.6H289c0 1.6.5 2.9 1.3 3.8s2 1.3 3.5 1.3c1.6 0 3.2-.5 4.6-1.6v2.2c-1.3.9-3 1.4-5.1 1.4s-3.7-.7-4.9-2c-1.2-1.3-1.8-3.2-1.8-5.6 0-2.3.6-4.1 1.9-5.6 1.3-1.4 2.9-2.2 4.8-2.2s3.4.6 4.5 1.9 1.6 3 1.6 5.2v1.2h-.1zm-2.4-2c0-1.4-.3-2.4-1-3.2-.6-.8-1.5-1.1-2.7-1.1-1.1 0-2 .4-2.8 1.2s-1.2 1.8-1.4 3.1h7.9zm12.8-3.6c-.4-.3-1-.5-1.8-.5-1 0-1.8.5-2.5 1.4s-1 2.2-1 3.9v7.5h-2.3v-14.7h2.3v3h.1c.3-1 .8-1.8 1.5-2.4.7-.6 1.5-.9 2.3-.9.6 0 1.1.1 1.4.2v2.5zm11.5 11.7c-1.1.7-2.5 1-4 1-2.1 0-3.8-.7-5.1-2-1.3-1.4-1.9-3.1-1.9-5.3 0-2.4.7-4.4 2.1-5.8 1.4-1.5 3.2-2.2 5.5-2.2 1.3 0 2.4.2 3.4.7v2.4c-1.1-.8-2.3-1.1-3.5-1.1-1.5 0-2.7.5-3.7 1.6s-1.4 2.5-1.4 4.2.5 3.1 1.4 4.1 2.1 1.5 3.6 1.5c1.3 0 2.5-.4 3.6-1.3v2.2zm8.9 1c-2.2 0-3.9-.7-5.2-2.1-1.3-1.4-1.9-3.2-1.9-5.4 0-2.5.7-4.4 2-5.8s3.2-2.1 5.5-2.1c2.2 0 3.9.7 5.1 2s1.8 3.2 1.8 5.6c0 2.3-.7 4.2-2 5.6-1.3 1.5-3.1 2.2-5.3 2.2zm.2-13.4c-1.5 0-2.7.5-3.6 1.5s-1.3 2.4-1.3 4.2c0 1.7.4 3.1 1.3 4.1s2.1 1.5 3.6 1.5 2.7-.5 3.5-1.5 1.2-2.4 1.2-4.2-.4-3.2-1.2-4.2c-.8-.9-2-1.4-3.5-1.4zm22.3 13h-2.3v-8.4c0-3.1-1.1-4.7-3.4-4.7-1.2 0-2.1.4-2.9 1.3-.8.9-1.2 2-1.2 3.3v8.4h-2.3v-14.7h2.3v2.4h.1c1.1-1.9 2.7-2.8 4.8-2.8 1.6 0 2.8.5 3.7 1.6.8 1 1.3 2.5 1.3 4.5v9.1h-.1zm10.9-19.6c-.5-.3-1-.4-1.6-.4-1.6 0-2.5 1-2.5 3.1v2.3h3.4v2h-3.4v12.6h-2.3v-12.6h-2.5v-2h2.5v-2.4c0-1.5.4-2.7 1.3-3.6.9-.9 2-1.3 3.3-1.3.7 0 1.3.1 1.7.3v2h.1zm13 12.9h-10.3c0 1.6.5 2.9 1.3 3.8s2 1.3 3.5 1.3c1.6 0 3.2-.5 4.6-1.6v2.2c-1.3.9-3 1.4-5.1 1.4s-3.7-.7-4.9-2c-1.2-1.3-1.8-3.2-1.8-5.6 0-2.3.6-4.1 1.9-5.6 1.3-1.4 2.9-2.2 4.8-2.2s3.4.6 4.5 1.9 1.6 3 1.6 5.2v1.2h-.1zm-2.4-2c0-1.4-.3-2.4-1-3.2-.6-.8-1.5-1.1-2.7-1.1-1.1 0-2 .4-2.8 1.2s-1.2 1.8-1.4 3.1h7.9zm4.3 8.2v-2.5c1.3.9 2.7 1.4 4.2 1.4 2.1 0 3.1-.7 3.1-2.1 0-.4-.1-.7-.3-1-.2-.3-.4-.5-.7-.7-.3-.2-.7-.4-1.1-.6-.4-.2-.8-.3-1.3-.5-.6-.3-1.2-.5-1.7-.8s-.9-.6-1.2-.9c-.3-.3-.6-.7-.7-1.1-.2-.4-.3-.9-.3-1.5 0-.7.2-1.3.5-1.8s.7-1 1.3-1.3c.5-.4 1.1-.6 1.8-.8.7-.2 1.4-.3 2.1-.3 1.3 0 2.4.2 3.4.7v2.4c-1.1-.7-2.3-1.1-3.7-1.1-.4 0-.8.1-1.2.1-.4.1-.7.2-.9.4-.3.2-.4.4-.6.7-.1.3-.2.5-.2.8 0 .4.1.7.2 1s.3.5.6.7c.3.2.6.4 1 .5.4.2.8.3 1.3.5.6.2 1.2.5 1.7.8s1 .6 1.3.9c.4.3.6.7.8 1.1.2.4.3.9.3 1.5 0 .7-.2 1.4-.5 1.9s-.7 1-1.3 1.3c-.5.4-1.1.6-1.8.8-.7.2-1.4.3-2.2.3-1.5.1-2.8-.2-3.9-.8zm11.7 0v-2.5c1.3.9 2.7 1.4 4.2 1.4 2.1 0 3.1-.7 3.1-2.1 0-.4-.1-.7-.3-1-.2-.3-.4-.5-.7-.7-.3-.2-.7-.4-1.1-.6-.4-.2-.8-.3-1.3-.5-.6-.3-1.2-.5-1.7-.8s-.9-.6-1.2-.9c-.3-.3-.6-.7-.7-1.1-.2-.4-.3-.9-.3-1.5 0-.7.2-1.3.5-1.8s.7-1 1.3-1.3c.5-.4 1.1-.6 1.8-.8.7-.2 1.4-.3 2.1-.3 1.3 0 2.4.2 3.4.7v2.4c-1.1-.7-2.3-1.1-3.7-1.1-.4 0-.8.1-1.2.1-.4.1-.7.2-.9.4-.3.2-.4.4-.6.7-.1.3-.2.5-.2.8 0 .4.1.7.2 1s.3.5.6.7c.3.2.6.4 1 .5.4.2.8.3 1.3.5.6.2 1.2.5 1.7.8s1 .6 1.3.9c.4.3.6.7.8 1.1.2.4.3.9.3 1.5 0 .7-.2 1.4-.5 1.9s-.7 1-1.3 1.3c-.5.4-1.1.6-1.8.8-.7.2-1.4.3-2.2.3-1.5.1-2.8-.2-3.9-.8zm13.8-17.8c-.4 0-.8-.1-1.1-.4s-.4-.6-.4-1.1c0-.4.1-.8.4-1.1s.7-.4 1.1-.4.8.1 1.1.4c.3.3.5.7.5 1.1 0 .4-.1.8-.5 1.1-.3.2-.7.4-1.1.4zm1.2 18.3h-2.3v-14.7h2.3v14.7zm10.1.4c-2.2 0-3.9-.7-5.2-2.1-1.3-1.4-1.9-3.2-1.9-5.4 0-2.5.7-4.4 2-5.8s3.2-2.1 5.5-2.1c2.2 0 3.9.7 5.1 2s1.8 3.2 1.8 5.6c0 2.3-.7 4.2-2 5.6-1.3 1.5-3.1 2.2-5.3 2.2zm.2-13.4c-1.5 0-2.7.5-3.6 1.5s-1.3 2.4-1.3 4.2c0 1.7.4 3.1 1.3 4.1s2.1 1.5 3.6 1.5 2.7-.5 3.5-1.5 1.2-2.4 1.2-4.2-.4-3.2-1.2-4.2c-.9-.9-2-1.4-3.5-1.4zm22.3 13h-2.3v-8.4c0-3.1-1.1-4.7-3.4-4.7-1.2 0-2.1.4-2.9 1.3-.8.9-1.2 2-1.2 3.3v8.4h-2.3v-14.7h2.3v2.4h.1c1.1-1.9 2.7-2.8 4.8-2.8 1.6 0 2.8.5 3.7 1.6.8 1 1.3 2.5 1.3 4.5v9.1h-.1zm14.1 0h-2.3v-2.3h-.1c-1 1.8-2.5 2.6-4.5 2.6-1.5 0-2.6-.4-3.4-1.2s-1.2-1.8-1.2-3.1c0-2.7 1.6-4.3 4.8-4.8l4.4-.6c0-2.5-1-3.7-3-3.7-1.8 0-3.4.6-4.8 1.8v-2.4c1.4-.9 3.1-1.4 5-1.4 3.4 0 5.2 1.8 5.2 5.5v9.6h-.1zm-2.3-7.4l-3.5.5c-1.1.2-1.9.4-2.5.8-.6.4-.8 1.1-.8 2.1 0 .7.3 1.3.8 1.8s1.2.7 2 .7c1.2 0 2.1-.4 2.9-1.2s1.1-1.8 1.1-3.1v-1.6zm8.4 7.4h-2.3v-21.7h2.3v21.7zm25.6-.8c-1.5.8-3.4 1.2-5.7 1.2-2.9 0-5.3-.9-7-2.8-1.8-1.9-2.6-4.3-2.6-7.4 0-3.3 1-5.9 3-8 2-2 4.5-3 7.5-3 1.9 0 3.6.3 4.8.8v2.6c-1.5-.8-3.1-1.2-4.9-1.2-2.4 0-4.3.8-5.7 2.4-1.5 1.6-2.2 3.7-2.2 6.3 0 2.5.7 4.5 2.1 6s3.2 2.2 5.4 2.2c2.1 0 3.8-.5 5.4-1.4l-.1 2.3zm15.3.8h-2.3v-8.4c0-3.1-1.1-4.6-3.4-4.6-1.1 0-2.1.4-2.9 1.3-.8.9-1.2 2-1.2 3.4v8.3h-2.3v-21.7h2.3v9.5h.1c1.1-1.9 2.7-2.8 4.8-2.8 3.3 0 5 2 5 6v9h-.1zm11.3-12.3c-.4-.3-1-.5-1.8-.5-1 0-1.8.5-2.5 1.4s-1 2.2-1 3.9v7.5h-2.3v-14.7h2.3v3h.1c.3-1 .8-1.8 1.5-2.4.7-.6 1.5-.9 2.3-.9.6 0 1.1.1 1.4.2v2.5zm3-6c-.4 0-.8-.1-1.1-.4-.3-.3-.4-.6-.4-1.1 0-.4.1-.8.4-1.1.3-.3.7-.4 1.1-.4s.8.1 1.1.4c.3.3.5.7.5 1.1 0 .4-.1.8-.5 1.1-.3.2-.7.4-1.1.4zm1.2 18.3H512v-14.7h2.3v14.7zm3.1-.5v-2.5c1.3.9 2.7 1.4 4.2 1.4 2.1 0 3.1-.7 3.1-2.1 0-.4-.1-.7-.3-1s-.4-.5-.7-.7-.7-.4-1.1-.6c-.4-.2-.8-.3-1.3-.5-.6-.3-1.2-.5-1.7-.8s-.9-.6-1.2-.9c-.3-.3-.6-.7-.7-1.1-.2-.4-.3-.9-.3-1.5 0-.7.2-1.3.5-1.8s.7-1 1.3-1.3c.5-.4 1.1-.6 1.8-.8s1.4-.3 2.1-.3c1.3 0 2.4.2 3.4.7v2.4c-1.1-.7-2.3-1.1-3.7-1.1-.4 0-.8.1-1.2.1-.4.1-.7.2-.9.4-.3.2-.4.4-.6.7-.1.3-.2.5-.2.8 0 .4.1.7.2 1 .1.3.3.5.6.7s.6.4 1 .5c.4.2.8.3 1.3.5.6.2 1.2.5 1.7.8s1 .6 1.3.9c.4.3.6.7.8 1.1.2.4.3.9.3 1.5 0 .7-.2 1.4-.5 1.9s-.7 1-1.3 1.3c-.5.4-1.1.6-1.8.8s-1.4.3-2.2.3c-1.5.1-2.8-.2-3.9-.8zm19.4.4c-.6.3-1.3.5-2.2.5-2.6 0-3.8-1.4-3.8-4.3v-8.7h-2.5v-2h2.5v-3.6l2.3-.8v4.3h3.7v2h-3.7v8.3c0 1 .2 1.7.5 2.1s.9.6 1.7.6c.6 0 1.1-.2 1.5-.5v2.1zm3.6-18.2c-.4 0-.8-.1-1.1-.4s-.4-.6-.4-1.1c0-.4.1-.8.4-1.1.3-.3.7-.4 1.1-.4.4 0 .8.1 1.1.4.3.3.5.7.5 1.1 0 .4-.1.8-.5 1.1-.3.2-.7.4-1.1.4zm1.1 18.3h-2.3v-14.7h2.3v14.7zm14.5 0h-2.3v-2.3h-.1c-1 1.8-2.5 2.6-4.5 2.6-1.5 0-2.6-.4-3.4-1.2-.8-.8-1.2-1.8-1.2-3.1 0-2.7 1.6-4.3 4.8-4.8l4.4-.6c0-2.5-1-3.7-3-3.7-1.8 0-3.4.6-4.8 1.8v-2.4c1.4-.9 3.1-1.4 5-1.4 3.4 0 5.2 1.8 5.2 5.5v9.6h-.1zm-2.3-7.4l-3.5.5c-1.1.2-1.9.4-2.5.8-.6.4-.8 1.1-.8 2.1 0 .7.3 1.3.8 1.8s1.2.7 2 .7c1.2 0 2.1-.4 2.9-1.2.8-.8 1.1-1.8 1.1-3.1v-1.6zm18.2 7.4h-2.3v-8.4c0-3.1-1.1-4.7-3.4-4.7-1.2 0-2.1.4-2.9 1.3-.8.9-1.2 2-1.2 3.3v8.4h-2.3v-14.7h2.3v2.4h.1c1.1-1.9 2.7-2.8 4.8-2.8 1.6 0 2.8.5 3.7 1.6.8 1 1.3 2.5 1.3 4.5l-.1 9.1zm26 0H595l-3.4-5.8c-.3-.5-.6-1-.9-1.4-.3-.4-.6-.7-.9-.9-.3-.2-.6-.4-1-.5s-.8-.2-1.2-.2h-2v8.7h-2.4v-20.5h6.1c.9 0 1.7.1 2.5.3s1.4.6 2 1c.6.5 1 1 1.3 1.7s.5 1.5.5 2.4c0 .7-.1 1.4-.3 2s-.5 1.1-.9 1.6-.9.9-1.4 1.2c-.6.3-1.2.6-1.9.8v.1c.3.2.6.3.9.5.3.2.5.4.7.7s.5.6.7.9c.2.3.5.7.8 1.2l3.7 6.2zm-12.3-18.3v7.4h3.3c.6 0 1.2-.1 1.7-.3s1-.4 1.3-.8c.4-.3.7-.8.9-1.2.2-.5.3-1 .3-1.7 0-1.1-.4-2-1.1-2.6-.7-.6-1.7-.9-3.1-.9h-3.3v.1zm25 11.6h-10.3c0 1.6.5 2.9 1.3 3.8.8.9 2 1.3 3.5 1.3 1.7 0 3.2-.5 4.6-1.6v2.2c-1.3.9-3 1.4-5.1 1.4s-3.7-.7-4.9-2-1.8-3.2-1.8-5.6c0-2.3.6-4.1 1.9-5.6 1.3-1.4 2.9-2.2 4.8-2.2s3.4.6 4.5 1.9 1.6 3 1.6 5.2l-.1 1.2zm-2.4-2c0-1.4-.3-2.4-1-3.2-.6-.8-1.5-1.1-2.7-1.1-1.1 0-2 .4-2.8 1.2s-1.2 1.8-1.4 3.1h7.9zm7.6 8.7h-2.3v-21.7h2.3v21.7zm5.2-18.3c-.4 0-.8-.1-1.1-.4-.3-.3-.4-.6-.4-1.1 0-.4.1-.8.4-1.1.3-.3.7-.4 1.1-.4.4 0 .8.1 1.1.4.3.3.5.7.5 1.1 0 .4-.1.8-.5 1.1-.3.2-.7.4-1.1.4zm1.1 18.3h-2.3v-14.7h2.3v14.7zm16.6-1.1c0 5.4-2.6 8.1-7.7 8.1-1.8 0-3.4-.3-4.8-1v-2.3c1.7.9 3.2 1.4 4.7 1.4 3.6 0 5.4-1.9 5.4-5.8v-1.6h-.1c-1.1 1.9-2.8 2.8-5 2.8-1.8 0-3.3-.7-4.4-2-1.1-1.3-1.7-3.1-1.7-5.2 0-2.5.6-4.5 1.8-5.9 1.2-1.5 2.8-2.2 4.9-2.2 2 0 3.4.8 4.4 2.4h.1v-2h2.3l.1 13.3zm-2.4-5.5v-2.2c0-1.2-.4-2.2-1.2-3s-1.8-1.2-2.9-1.2c-1.5 0-2.6.5-3.4 1.6-.8 1.1-1.2 2.5-1.2 4.4 0 1.6.4 2.9 1.2 3.9s1.8 1.5 3.1 1.5 2.4-.5 3.2-1.4 1.2-2.1 1.2-3.6zm7.6-11.7c-.4 0-.8-.1-1.1-.4-.3-.3-.4-.6-.4-1.1 0-.4.1-.8.4-1.1.3-.3.7-.4 1.1-.4.4 0 .8.1 1.1.4.3.3.5.7.5 1.1 0 .4-.1.8-.5 1.1-.3.2-.7.4-1.1.4zm1.1 18.3h-2.3v-14.7h2.3v14.7zm10.2.4c-2.2 0-3.9-.7-5.2-2.1-1.3-1.4-1.9-3.2-1.9-5.4 0-2.5.7-4.4 2-5.8 1.3-1.4 3.2-2.1 5.5-2.1 2.2 0 3.9.7 5.1 2 1.2 1.3 1.8 3.2 1.8 5.6 0 2.3-.7 4.2-2 5.6-1.3 1.5-3.1 2.2-5.3 2.2zm.2-13.4c-1.5 0-2.7.5-3.6 1.5-.9 1-1.3 2.4-1.3 4.2 0 1.7.4 3.1 1.3 4.1.9 1 2.1 1.5 3.6 1.5s2.7-.5 3.5-1.5 1.2-2.4 1.2-4.2-.4-3.2-1.2-4.2c-.9-.9-2-1.4-3.5-1.4zm21.9 13H675v-2.3h-.1c-1 1.8-2.5 2.7-4.5 2.7-3.5 0-5.2-2.1-5.2-6.2v-8.8h2.3v8.4c0 3.1 1.2 4.6 3.5 4.6 1.1 0 2.1-.4 2.8-1.3.7-.8 1.1-1.9 1.1-3.3v-8.4h2.3l.1 14.6zm3.2-.5v-2.5c1.3.9 2.7 1.4 4.2 1.4 2.1 0 3.1-.7 3.1-2.1 0-.4-.1-.7-.3-1s-.4-.5-.7-.7-.7-.4-1.1-.6c-.4-.2-.8-.3-1.3-.5-.6-.3-1.2-.5-1.7-.8s-.9-.6-1.2-.9c-.3-.3-.6-.7-.7-1.1s-.3-.9-.3-1.5c0-.7.2-1.3.5-1.8s.7-1 1.3-1.3c.5-.4 1.1-.6 1.8-.8s1.4-.3 2.1-.3c1.3 0 2.4.2 3.4.7v2.4c-1.1-.7-2.3-1.1-3.7-1.1-.4 0-.8.1-1.2.1-.4.1-.7.2-.9.4-.3.2-.4.4-.6.7-.1.3-.2.5-.2.8 0 .4.1.7.2 1 .1.3.3.5.6.7s.6.4 1 .5c.4.2.8.3 1.3.5.6.2 1.2.5 1.7.8s1 .6 1.3.9c.4.3.6.7.8 1.1s.3.9.3 1.5c0 .7-.2 1.4-.5 1.9s-.7 1-1.3 1.3-1.1.6-1.8.8-1.4.3-2.2.3c-1.5.1-2.8-.2-3.9-.8zm30.6-17.8h-8v7.1h7.4v2.2h-7.4v9.1h-2.4v-20.5h10.4v2.1zm14.6 11.6h-10.3c0 1.6.5 2.9 1.3 3.8.8.9 2 1.3 3.5 1.3 1.7 0 3.2-.5 4.6-1.6v2.2c-1.3.9-3 1.4-5.1 1.4s-3.7-.7-4.9-2-1.8-3.2-1.8-5.6c0-2.3.6-4.1 1.9-5.6 1.3-1.4 2.9-2.2 4.8-2.2s3.4.6 4.5 1.9c1 1.2 1.6 3 1.6 5.2l-.1 1.2zm-2.4-2c0-1.4-.3-2.4-1-3.2-.6-.8-1.5-1.1-2.7-1.1-1.1 0-2 .4-2.8 1.2s-1.3 1.8-1.4 3.1h7.9zm7.6 8.7h-2.3v-21.7h2.3v21.7zm6.3 0h-2.3v-21.7h2.3v21.7zm10.2.4c-2.2 0-3.9-.7-5.2-2.1-1.3-1.4-1.9-3.2-1.9-5.4 0-2.5.7-4.4 2-5.8 1.3-1.4 3.2-2.1 5.5-2.1 2.2 0 3.9.7 5.1 2 1.2 1.3 1.8 3.2 1.8 5.6 0 2.3-.7 4.2-2 5.6-1.3 1.5-3.1 2.2-5.3 2.2zm.1-13.4c-1.5 0-2.7.5-3.6 1.5-.9 1-1.3 2.4-1.3 4.2 0 1.7.4 3.1 1.3 4.1.9 1 2.1 1.5 3.6 1.5s2.7-.5 3.5-1.5 1.2-2.4 1.2-4.2-.4-3.2-1.2-4.2c-.8-.9-1.9-1.4-3.5-1.4zm28.6-1.6l-4.4 14.7h-2.4l-3-10.5c-.1-.4-.2-.9-.2-1.4h-.1c0 .3-.1.8-.3 1.3l-3.3 10.5h-2.3l-4.4-14.7h2.5l3 11c.1.3.2.8.2 1.3h.1c0-.4.1-.9.3-1.3l3.4-11h2.1l3 11c.1.4.2.8.2 1.3h.1c0-.4.1-.8.2-1.3l3-11 2.3.1zm1.1 14.1v-2.5c1.3.9 2.7 1.4 4.2 1.4 2.1 0 3.1-.7 3.1-2.1 0-.4-.1-.7-.3-1s-.4-.5-.7-.7-.7-.4-1.1-.6c-.4-.2-.8-.3-1.3-.5-.6-.3-1.2-.5-1.7-.8s-.9-.6-1.2-.9c-.3-.3-.6-.7-.7-1.1s-.3-.9-.3-1.5c0-.7.2-1.3.5-1.8s.7-1 1.3-1.3c.5-.4 1.1-.6 1.8-.8s1.4-.3 2.1-.3c1.3 0 2.4.2 3.4.7v2.4c-1.1-.7-2.3-1.1-3.7-1.1-.4 0-.8.1-1.2.1-.4.1-.7.2-.9.4-.3.2-.4.4-.6.7-.1.3-.2.5-.2.8 0 .4.1.7.2 1 .1.3.3.5.6.7s.6.4 1 .5c.4.2.8.3 1.3.5.6.2 1.2.5 1.7.8s1 .6 1.3.9c.4.3.6.7.8 1.1s.3.9.3 1.5c0 .7-.2 1.4-.5 1.9s-.7 1-1.3 1.3c-.5.4-1.1.6-1.8.8s-1.4.3-2.2.3c-1.5.1-2.8-.2-3.9-.8zm24.8.5h-2.3v-8.4c0-3.1-1.1-4.6-3.4-4.6-1.1 0-2.1.4-2.9 1.3-.8.9-1.2 2-1.2 3.4v8.3h-2.3v-21.7h2.3v9.5h.1c1.1-1.9 2.7-2.8 4.8-2.8 3.3 0 5 2 5 6l-.1 9zm4.9-18.3c-.4 0-.8-.1-1.1-.4-.3-.3-.4-.6-.4-1.1 0-.4.1-.8.4-1.1.3-.3.7-.4 1.1-.4.4 0 .8.1 1.1.4.3.3.5.7.5 1.1 0 .4-.1.8-.5 1.1-.3.2-.7.4-1.1.4zm1.1 18.3h-2.3v-14.7h2.3v14.7zm6.4-2.1l-.1 8.9H812v-21.4h2.3v2.6h.1c1.2-1.9 2.8-2.9 5.1-2.9 1.9 0 3.4.7 4.4 2 1.1 1.3 1.6 3.1 1.6 5.3 0 2.5-.6 4.4-1.8 5.9s-2.8 2.2-4.9 2.2c-1.9-.1-3.3-1-4.4-2.6zm0-5.9v2c0 1.2.4 2.2 1.2 3.1.8.8 1.8 1.3 3 1.3 1.4 0 2.5-.5 3.3-1.6s1.2-2.6 1.2-4.5c0-1.6-.4-2.9-1.1-3.8-.8-.9-1.8-1.4-3.1-1.4-1.4 0-2.5.5-3.3 1.4s-1.2 2.1-1.2 3.5z"/><path fill="#73608b" d="M631 208.3c-1.9 0-3.6-.3-5-1l-.2-.1V204l.6.3c1.8.9 3.2 1.4 4.5 1.4 3.4 0 5-1.7 5-5.4v-.5c-1.1 1.4-2.7 2.1-4.7 2.1-1.9 0-3.5-.7-4.7-2.1-1.2-1.4-1.8-3.3-1.8-5.4 0-2.6.6-4.7 1.9-6.1 1.3-1.6 3-2.3 5.2-2.3 1.7 0 3.1.6 4.1 1.8v-1.4h3v13.3h.1v.4c.1 5.3-2.6 8.2-8 8.2zm-4.4-1.6c1.2.6 2.7.9 4.4.9 4.8 0 7.2-2.4 7.3-7.4h-.1v-13.3h-1.5v2h-.7l-.1-.2c-.9-1.5-2.2-2.2-4.1-2.2-2 0-3.5.7-4.6 2.1-1.1 1.3-1.7 3.2-1.7 5.7 0 2 .6 3.7 1.6 5 1 1.2 2.4 1.9 4.1 1.9 2.1 0 3.7-.9 4.7-2.6l.1-.2h.7v2c0 4.1-1.9 6.2-5.8 6.2-1.3 0-2.7-.4-4.3-1.2v1.3zm188.1 1.4h-3v-22.2h3v1.9c1.2-1.5 2.8-2.2 4.8-2.2s3.6.7 4.7 2.1c1.1 1.3 1.7 3.2 1.7 5.5 0 2.5-.6 4.6-1.9 6.1-1.3 1.6-3 2.3-5.2 2.3-1.6-.1-2.9-.7-4-1.9l-.1 8.4zm-2.3-.8h1.6l.1-9.7.7 1c1.1 1.6 2.4 2.3 4.1 2.4 2 0 3.5-.7 4.6-2.1 1.2-1.4 1.7-3.3 1.7-5.7 0-2.2-.5-3.9-1.5-5.1-.9-1.2-2.4-1.9-4.1-1.9-2.1 0-3.6.9-4.8 2.7l-.1.2h-.7v-2.6h-1.5v20.8zm-65-5.6c-2.3 0-4.1-.7-5.5-2.2-1.3-1.4-2-3.3-2-5.7 0-2.5.7-4.6 2.1-6.1 1.3-1.5 3.3-2.2 5.8-2.2 2.3 0 4.1.7 5.4 2.1 1.3 1.4 1.9 3.3 1.9 5.9 0 2.4-.7 4.4-2.1 5.9-1.4 1.5-3.2 2.3-5.6 2.3zm.4-15.4c-2.2 0-4 .7-5.2 2-1.3 1.4-1.9 3.2-1.9 5.5 0 2.2.6 3.8 1.8 5.1 1.2 1.3 2.8 2 4.9 2 2.1 0 3.8-.7 5-2.1 1.3-1.4 1.9-3.2 1.9-5.4 0-2.3-.6-4.1-1.7-5.3-1.1-1.2-2.7-1.8-4.8-1.8zm-28.1 15.4c-2.1 0-3.9-.7-5.2-2.1-1.3-1.4-1.9-3.3-1.9-5.9 0-2.4.6-4.3 2-5.8s3.1-2.3 5.1-2.3c2.1 0 3.6.7 4.8 2 1.1 1.3 1.7 3.2 1.7 5.4v1.6h-10.4c.1 1.3.5 2.4 1.2 3.2.7.8 1.8 1.2 3.2 1.2 1.6 0 3.1-.5 4.4-1.5l.6-.5v3.2l-.2.1c-1.4.9-3.2 1.4-5.3 1.4zm0-15.4c-1.7 0-3.2.7-4.5 2.1-1.2 1.4-1.8 3.1-1.8 5.3 0 2.3.6 4.1 1.7 5.3 1.2 1.3 2.7 1.9 4.6 1.9 1.9 0 3.5-.4 4.7-1.2v-1.3c-1.3.8-2.7 1.2-4.2 1.2-1.7 0-2.9-.5-3.8-1.4-.9-1-1.4-2.4-1.4-4v-.4h10.4v-.8c0-2-.5-3.8-1.5-5-1-1.1-2.4-1.7-4.2-1.7zm-49.3 15.4c-3.7 0-5.6-2.2-5.6-6.6v-9.2h3v8.8c0 2.8 1 4.2 3.1 4.2 1 0 1.9-.4 2.5-1.2.7-.8 1-1.8 1-3.1v-8.8h3v15h-.3v.4h-2.7v-1.6c-.8 1.4-2.2 2.1-4 2.1zm-4.8-15v8.4c0 3.9 1.6 5.8 4.8 5.8 1.9 0 3.2-.8 4.2-2.5l.1-.2h.7v2.3h1.5v-13.9h-1.5v8c0 1.4-.4 2.6-1.2 3.5-.7.9-1.8 1.4-3.1 1.4-1.8 0-3.9-.9-3.9-5v-8h-1.6zm-10.4 15c-2.3 0-4.1-.7-5.5-2.2-1.3-1.5-2-3.3-2-5.7 0-2.5.7-4.6 2.1-6.1 1.3-1.5 3.3-2.2 5.8-2.2 2.3 0 4.1.7 5.4 2.1 1.3 1.4 1.9 3.3 1.9 5.9 0 2.4-.7 4.4-2.1 5.9-1.4 1.5-3.2 2.3-5.6 2.3zm.4-15.4c-2.2 0-4 .7-5.2 2-1.3 1.4-1.9 3.2-1.9 5.5 0 2.2.6 3.8 1.8 5.1 1.2 1.3 2.8 2 4.9 2 2.1 0 3.8-.7 5-2.1 1.3-1.4 1.9-3.2 1.9-5.4 0-2.3-.6-4.1-1.7-5.3-1.1-1.2-2.8-1.8-4.8-1.8zm-51 15.4c-2.1 0-3.9-.7-5.2-2.1-1.3-1.4-1.9-3.3-1.9-5.9 0-2.4.6-4.3 2-5.8s3.1-2.3 5.1-2.3c2.1 0 3.6.7 4.8 2 1.1 1.3 1.7 3.1 1.7 5.4v1.6h-10.4c.1 1.3.5 2.4 1.2 3.2.7.8 1.8 1.2 3.2 1.2 1.6 0 3.1-.5 4.4-1.5l.6-.5v3.2l-.2.1c-1.4.9-3.2 1.4-5.3 1.4zm0-15.4c-1.7 0-3.2.7-4.5 2.1-1.2 1.4-1.8 3.1-1.8 5.3 0 2.3.6 4.1 1.7 5.3 1.2 1.3 2.7 1.9 4.6 1.9 1.9 0 3.5-.4 4.7-1.2v-1.3c-1.3.8-2.7 1.2-4.2 1.2-1.7 0-2.9-.5-3.8-1.4-.9-1-1.4-2.4-1.4-4v-.4h10.4v-.8c0-2.1-.5-3.8-1.5-5-1-1.1-2.4-1.7-4.2-1.7zm-70 15.4c-2.8 0-4.2-1.5-4.2-4.7v-8.3h-2.5v-2.8h2.5v-3.5l3-1.1v4.5h3.7v2.8h-3.7v7.9c0 1.1.3 1.7.4 1.9.2.3.7.5 1.4.5.5 0 .9-.1 1.3-.4l.6-.5v3.1l-.2.1c-.7.3-1.4.5-2.3.5zm-5.9-13.8h2.5v9.1c0 2.7 1.1 3.9 3.4 3.9.7 0 1.3-.1 1.8-.4v-1.2c-.4.2-.7.2-1.1.2-.9 0-1.6-.3-2-.7-.4-.5-.6-1.3-.6-2.3v-8.7h3.7v-1.3h-3.7v-4.1l-1.5.5v3.7h-2.5v1.3zm-50.9 13.8c-3.1 0-5.5-1-7.3-2.9-1.8-1.9-2.7-4.4-2.7-7.6 0-3.4 1-6.1 3.1-8.3 2.1-2.1 4.7-3.1 7.8-3.1 1.9 0 3.7.3 4.9.8l.2.1v3.5l-.6-.3c-1.5-.8-3-1.2-4.7-1.2-2.3 0-4.1.8-5.4 2.3-1.4 1.5-2.1 3.5-2.1 6.1 0 2.4.7 4.3 2 5.7 1.3 1.4 3 2.1 5.1 2.1 1.9 0 3.6-.4 5.2-1.4l.6-.3v3.3h-.4c-1.4.8-3.4 1.2-5.7 1.2zm.9-21.2c-2.9 0-5.3 1-7.2 2.9-1.9 2-2.9 4.6-2.9 7.7 0 3.1.8 5.3 2.5 7.1 1.6 1.8 3.9 2.7 6.7 2.7 2.2 0 4-.4 5.4-1.1v-1.4c-1.6.8-3.2 1.2-5 1.2-2.3 0-4.2-.8-5.7-2.3-1.5-1.6-2.2-3.7-2.2-6.3 0-2.8.8-4.9 2.3-6.6 1.5-1.7 3.5-2.5 6-2.5 1.6 0 3.1.3 4.5 1v-1.7c-1.1-.5-2.7-.7-4.4-.7zm-63.5 21.2c-2.3 0-4.1-.7-5.5-2.2-1.3-1.5-2-3.3-2-5.7 0-2.5.7-4.6 2.1-6.1 1.3-1.5 3.3-2.2 5.8-2.2 2.3 0 4.1.7 5.4 2.1 1.3 1.4 1.9 3.3 1.9 5.9 0 2.4-.7 4.4-2.1 5.9-1.4 1.5-3.2 2.3-5.6 2.3zm.4-15.4c-2.2 0-4 .7-5.2 2-1.3 1.4-1.9 3.2-1.9 5.5 0 2.2.6 3.8 1.8 5.1 1.2 1.3 2.8 2 4.9 2 2.1 0 3.8-.7 5-2.1 1.3-1.4 1.9-3.2 1.9-5.4 0-2.3-.6-4.1-1.7-5.3-1.1-1.2-2.8-1.8-4.8-1.8zm-45.1 15.4c-2.1 0-3.9-.7-5.2-2.1-1.3-1.4-1.9-3.3-1.9-5.9 0-2.4.6-4.3 2-5.8s3.1-2.3 5.1-2.3c2.1 0 3.6.7 4.8 2 1.1 1.3 1.7 3.1 1.7 5.4v1.6h-10.4c.1 1.3.5 2.4 1.2 3.2.7.8 1.8 1.2 3.2 1.2 1.6 0 3.1-.5 4.4-1.5l.6-.5v3.2l-.2.1c-1.4.9-3.2 1.4-5.3 1.4zm0-15.4c-1.7 0-3.2.7-4.5 2.1-1.2 1.4-1.8 3.1-1.8 5.3 0 2.3.6 4.1 1.7 5.3 1.2 1.3 2.7 1.9 4.6 1.9 1.9 0 3.5-.4 4.7-1.2v-1.3c-1.3.8-2.7 1.2-4.2 1.2-1.7 0-2.9-.5-3.8-1.4-.9-1-1.4-2.4-1.4-4v-.4h10.4v-.8c0-2.1-.5-3.8-1.5-5-1-1.1-2.4-1.7-4.2-1.7zm-40.4 15.4c-2.3 0-4.1-.7-5.5-2.2-1.3-1.5-2-3.3-2-5.7 0-2.5.7-4.6 2.1-6.1 1.3-1.5 3.3-2.2 5.8-2.2 2.3 0 4.1.7 5.4 2.1 1.3 1.4 1.9 3.3 1.9 5.9 0 2.4-.7 4.4-2.1 5.9-1.4 1.5-3.2 2.3-5.6 2.3zm.4-15.4c-2.2 0-4 .7-5.2 2-1.3 1.4-1.9 3.2-1.9 5.5 0 2.2.6 3.8 1.8 5.1 1.2 1.3 2.8 2 4.9 2 2.1 0 3.8-.7 5-2.1 1.3-1.4 1.9-3.2 1.9-5.4 0-2.3-.6-4.1-1.7-5.3-1.1-1.2-2.8-1.8-4.8-1.8zm-13.3 15.4c-2.2 0-4-.7-5.4-2.1-1.4-1.5-2-3.2-2-5.6 0-2.5.8-4.6 2.2-6.1 1.4-1.6 3.3-2.3 5.8-2.3 1.4 0 2.6.2 3.6.7l.2.1v3.4l-.6-.4c-.9-.7-2-1-3.3-1-1.4 0-2.5.5-3.4 1.5-.9 1-1.3 2.2-1.3 3.9 0 1.6.5 2.9 1.3 3.8.8.9 1.9 1.4 3.3 1.4 1.3 0 2.4-.4 3.4-1.2l.6-.5v3.2l-.2.1c-1.1.7-2.5 1.1-4.2 1.1zm.6-15.3c-2.2 0-3.9.7-5.2 2.1-1.3 1.3-2 3.2-2 5.5 0 2.1.6 3.7 1.8 5 1.2 1.2 2.9 1.9 4.8 1.9 1.5 0 2.7-.3 3.6-.8v-1.3c-1 .6-2.1.9-3.2.9-1.6 0-2.9-.5-3.9-1.6s-1.5-2.6-1.5-4.4c0-1.9.5-3.3 1.5-4.5 1.1-1.2 2.4-1.7 4-1.7 1.1 0 2.2.3 3.1.8v-1.5c-.8-.2-1.8-.4-3-.4zm-24.5 15.3c-2.1 0-3.9-.7-5.2-2.1-1.3-1.4-1.9-3.3-1.9-5.9 0-2.4.6-4.3 2-5.8s3.1-2.3 5.1-2.3c2.1 0 3.6.7 4.8 2 1.1 1.3 1.7 3.1 1.7 5.4v1.6h-10.4c.1 1.3.5 2.4 1.2 3.2.7.8 1.8 1.2 3.2 1.2 1.6 0 3.1-.5 4.4-1.5l.6-.5v3.2l-.2.1c-1.4.9-3.2 1.4-5.3 1.4zm0-15.4c-1.7 0-3.2.7-4.5 2.1-1.2 1.4-1.8 3.1-1.8 5.3 0 2.3.6 4.1 1.7 5.3 1.2 1.3 2.7 1.9 4.6 1.9 1.9 0 3.5-.4 4.7-1.2v-1.3c-1.3.8-2.7 1.2-4.2 1.2-1.7 0-2.9-.5-3.8-1.4-.9-1-1.4-2.4-1.4-4v-.4H299v-.8c0-2.1-.5-3.8-1.5-5-1-1.1-2.4-1.7-4.2-1.7zm-10.2 15.4c-2.8 0-4.2-1.5-4.2-4.7v-8.3h-2.5v-2.8h2.5v-3.5l3.1-1.1v4.5h3.7v2.8H282v7.9c0 1.1.3 1.7.4 1.9.2.3.7.5 1.4.5.5 0 .9-.1 1.3-.4l.6-.4v3.1l-.2.1c-.8.2-1.5.4-2.4.4zm-5.9-13.8h2.5v9.1c0 2.7 1.1 3.9 3.4 3.9.7 0 1.3-.1 1.8-.4v-1.2c-.4.2-.7.2-1.1.2-.9 0-1.6-.3-2-.8-.4-.5-.6-1.3-.6-2.3v-8.7h3.7v-1.3h-3.7v-4.1l-1.6.5v3.7h-2.5v1.4zm116.2 13.7c-1.3 0-2.4-.3-3.5-.9l-.2-.1v-3.4l.6.4c1.3.9 2.6 1.3 4 1.3 2.4 0 2.7-1 2.7-1.7 0-.3-.1-.5-.2-.8-.2-.3-.3-.4-.6-.6-.3-.2-.7-.4-1.1-.6-.2-.1-.5-.2-.7-.3-.2-.1-.4-.1-.6-.2-.3-.1-.5-.2-.7-.3-.4-.2-.7-.3-1-.5-.5-.3-1-.6-1.3-1-.2-.2-.7-.7-.8-1.3-.2-.4-.3-.9-.3-1.6 0-.7.2-1.4.6-2 .4-.7.9-1.2 1.5-1.4.5-.4 1.2-.6 1.9-.8.7-.2 1.5-.3 2.2-.3 1.4 0 2.6.2 3.6.7l.2.1v3.3l-.6-.4c-1.3-.8-2.6-1.2-4.1-1-.2 0-.4.1-.6.1-.3.1-.5.2-.6.3l-.5.5-.1.2c-.1.2-.1.3-.1.5 0 .3.1.6.2.9.1.2.2.3.5.5s.5.4.9.4c.3.1.5.2.8.3.2.1.4.1.6.2.7.2 1.3.6 1.8.8.5.3 1 .6 1.4 1 .4.3.7.8.9 1.2.2.5.3 1 .3 1.7s-.2 1.5-.6 2.1c-.4.7-.9 1.2-1.5 1.4-.5.4-1.2.6-1.9.8-.7.2-1.5.3-2.3.3-.4.2-.6.2-.8.2zm-2.9-1.4c1 .5 2.2.7 3.5.7.8 0 1.4-.1 2.1-.3.6-.2 1.2-.4 1.7-.7.5-.3.9-.6 1.2-1.2.3-.5.4-1.1.4-1.7 0-.5-.1-1-.3-1.3-.2-.4-.4-.7-.7-1-.3-.3-.8-.6-1.3-.9-.4-.2-1-.6-1.6-.8-.2-.1-.4-.1-.6-.2-.3-.1-.5-.2-.8-.3-.4-.1-.7-.3-1-.5-.3-.2-.6-.4-.7-.9-.1-.3-.2-.7-.2-1.1 0-.3.1-.5.2-.8l.2-.4c.2-.3.3-.5.6-.7.2-.2.6-.4 1-.5.3 0 .5 0 .6-.1 1.4-.2 2.7.1 4 .8v-1.5c-.9-.4-1.8-.6-3-.6-.7 0-1.3.1-2 .3-.6.2-1.2.4-1.7.7-.5.3-.9.6-1.2 1.2-.3.5-.4 1-.4 1.6 0 .5.1 1 .3 1.3.1.4.3.7.6 1 .3.3.7.6 1.1.8.3.2.6.3.9.4.2.1.5.2.8.3.2.1.3.1.5.2.3.1.5.2.8.3.4.2.8.4 1.1.6.3.2.6.5.8.8.3.4.4.7.4 1.2 0 1.6-1.2 2.5-3.5 2.5-1.3 0-2.6-.4-3.8-1.1v1.9zm390 1.4c-1.3 0-2.5-.3-3.5-.9l-.2-.1v-3.4l.6.4c1.3.9 2.6 1.3 4 1.3 2.4 0 2.7-1 2.7-1.7 0-.3-.1-.5-.2-.8-.2-.3-.3-.4-.6-.6-.3-.2-.7-.4-1.1-.6-.2-.1-.5-.2-.7-.3-.2-.1-.4-.1-.6-.2-.3-.1-.5-.2-.7-.3-.4-.2-.7-.3-1-.5-.5-.3-1-.6-1.3-1-.2-.2-.7-.7-.8-1.3 0-.1 0-.2-.1-.3-.1-.4-.2-.8-.2-1.3 0-.7.2-1.4.6-2 .4-.7.9-1.2 1.5-1.4.5-.4 1.2-.6 1.9-.8.7-.2 1.5-.3 2.2-.3 1.4 0 2.6.2 3.6.7l.2.1v3.3l-.6-.4c-1.3-.8-2.6-1.2-4.1-1-.2 0-.4.1-.6.1-.3.1-.5.2-.6.3l-.5.5-.1.2c-.1.2-.1.3-.1.5 0 .3.1.6.2.9.1.2.2.3.5.5s.5.4.9.4c.3.1.5.2.8.3.2.1.4.1.6.2.7.2 1.3.6 1.8.8.5.3 1 .6 1.4 1 .4.3.7.8.9 1.2.2.5.3 1 .3 1.7s-.2 1.5-.6 2.1c-.4.7-.9 1.2-1.5 1.4-.5.4-1.2.6-1.9.8-.8.2-1.5.3-2.3.3-.4.2-.6.2-.8.2zm-2.9-1.4c1 .5 2.2.7 3.5.7.8 0 1.4-.1 2.1-.3.6-.2 1.2-.4 1.7-.7.5-.3.9-.6 1.2-1.2.3-.5.4-1.1.4-1.7 0-.5-.1-1-.3-1.3-.2-.4-.4-.7-.7-1-.3-.3-.8-.6-1.3-.9l-1.6-.8c-.2-.1-.4-.1-.6-.2-.3-.1-.5-.2-.8-.3-.4-.1-.7-.3-1-.5-.3-.2-.6-.4-.8-.9-.1-.3-.2-.7-.2-1.1 0-.3.1-.5.2-.7l.2-.4c.2-.3.3-.5.6-.7.2-.2.6-.4 1-.5.3 0 .5 0 .6-.1 1.4-.2 2.7.1 4 .8v-1.5c-.9-.4-1.8-.6-3-.6-.7 0-1.3.1-2 .3-.6.2-1.2.4-1.7.7-.5.3-.9.6-1.2 1.2-.3.5-.4 1-.4 1.6 0 .4.1.8.2 1.1 0 .1.1.2.1.3.1.3.3.6.6.9.3.3.7.6 1.1.8.3.2.6.3.9.4.2.1.5.2.8.3.2.1.3.1.5.2.3.1.5.2.8.3.4.2.8.4 1.1.6.3.2.6.5.8.8.3.4.4.7.4 1.2 0 1.6-1.2 2.5-3.5 2.5-1.3 0-2.6-.4-3.8-1.1v1.8zm-93.8 1.4c-1.3 0-2.5-.3-3.5-.9l-.2-.1v-3.4l.6.4c1.3.9 2.6 1.3 4 1.3 2.4 0 2.7-1 2.7-1.7 0-.3-.1-.5-.2-.8-.2-.3-.3-.4-.6-.6-.3-.2-.7-.4-1-.6-.3-.1-.5-.2-.7-.3-.2-.1-.4-.1-.6-.2-.3-.1-.5-.2-.7-.3-.4-.2-.7-.3-1-.5-.5-.3-1-.6-1.3-1-.2-.2-.7-.7-.8-1.3 0-.1-.1-.2-.1-.3-.1-.4-.2-.8-.2-1.3 0-.7.2-1.4.6-2 .4-.7.9-1.2 1.5-1.4.5-.4 1.2-.6 1.9-.8.7-.2 1.5-.3 2.2-.3 1.4 0 2.6.2 3.6.7l.2.1v3.3l-.6-.4c-1.3-.8-2.6-1.2-4.1-1-.2 0-.4.1-.6.1-.3.1-.5.2-.6.3l-.5.5-.1.2c-.1.2-.1.3-.1.5 0 .3.1.6.2.9.1.2.2.3.5.5s.5.4.9.4c.3.1.5.2.8.3.2.1.4.1.6.2.7.2 1.3.6 1.8.8.5.3 1 .6 1.4 1 .4.3.7.8.9 1.2.2.5.3 1 .3 1.7s-.2 1.5-.6 2.1c-.4.7-.9 1.2-1.5 1.4l-.3.2c-.5.2-.9.5-1.5.6-.8.2-1.5.3-2.3.3-.6.2-.8.2-1 .2zm-2.9-1.4c1 .5 2.2.7 3.5.7.8 0 1.4-.1 2.1-.3.5-.1.9-.4 1.4-.6l.4-.2c.4-.2.8-.6 1.1-1.2.3-.5.4-1.1.4-1.7 0-.5-.1-1-.3-1.3-.2-.4-.4-.7-.7-1-.3-.3-.8-.6-1.3-.9-.4-.2-1-.6-1.6-.8-.2-.1-.4-.1-.6-.2-.3-.1-.5-.2-.8-.3-.4-.1-.7-.3-1-.5-.3-.2-.6-.4-.8-.9-.1-.3-.2-.7-.2-1.1 0-.3.1-.5.2-.8l.2-.4c.2-.3.3-.5.6-.7.2-.2.6-.4 1-.5.3 0 .5 0 .6-.1 1.4-.2 2.7.1 4 .8v-1.5c-.9-.4-1.8-.6-3-.6-.7 0-1.3.1-2 .3-.6.2-1.2.4-1.7.7-.5.3-.9.6-1.2 1.2-.3.5-.4 1-.4 1.6 0 .4.1.8.2 1.1 0 .1.1.2.1.3.1.3.3.6.6.9.3.3.7.6 1.1.8.3.2.6.3.9.4.2.1.5.2.8.3.2.1.3.1.5.2.3.1.5.2.8.3.4.2.8.4 1.1.6.3.2.6.5.8.8.3.4.4.7.4 1.2 0 1.6-1.2 2.5-3.5 2.5-1.3 0-2.6-.4-3.8-1.1v2zm-160.2 1.4c-1.3 0-2.5-.3-3.5-.9l-.2-.1v-3.4l.6.4c1.3.9 2.6 1.3 4 1.3 2.4 0 2.7-1 2.7-1.7 0-.3-.1-.5-.2-.8-.2-.3-.3-.4-.6-.6-.3-.2-.7-.4-1-.6-.2-.1-.5-.2-.7-.3-.2-.1-.4-.1-.6-.2-.3-.1-.5-.2-.7-.3-.4-.2-.7-.3-1-.5-.5-.3-1-.6-1.3-1-.2-.2-.7-.7-.8-1.3-.2-.4-.3-.9-.3-1.6 0-.7.2-1.4.6-2 .4-.7.9-1.2 1.5-1.4.5-.4 1.2-.6 1.9-.8.7-.2 1.5-.3 2.2-.3 1.4 0 2.6.2 3.6.7l.2.1v3.3l-.6-.4c-1.3-.8-2.6-1.2-4.1-1-.2 0-.4.1-.6.1-.3.1-.5.2-.6.3l-.5.5-.1.2c-.1.2-.1.3-.1.5 0 .3.1.6.2.9.1.2.2.3.5.5s.5.4.9.4c.3.1.5.2.8.3.2.1.4.1.6.2.7.2 1.3.6 1.8.8.5.3 1 .6 1.4 1 .4.3.7.8.9 1.2.2.5.3 1 .3 1.7s-.2 1.5-.6 2.1c-.4.7-.9 1.2-1.5 1.4-.5.4-1.2.6-1.9.8-.8.2-1.5.3-2.3.3-.5.2-.7.2-.9.2zm-2.9-1.4c1 .5 2.2.7 3.5.7.8 0 1.4-.1 2.1-.3.6-.2 1.2-.4 1.7-.7.5-.3.9-.6 1.2-1.2.3-.5.4-1.1.4-1.7 0-.5-.1-1-.3-1.3-.2-.4-.4-.7-.7-1-.3-.3-.8-.6-1.3-.9l-1.6-.8c-.2-.1-.4-.1-.6-.2-.3-.1-.5-.2-.8-.3-.4-.1-.7-.3-1-.5-.3-.2-.6-.4-.8-.9-.1-.3-.2-.7-.2-1.1 0-.3.1-.5.2-.7l.2-.4c.2-.3.3-.5.6-.7.2-.2.6-.4 1-.5.3 0 .5 0 .6-.1 1.4-.2 2.7.1 4 .8v-1.5c-.9-.4-1.8-.6-3-.6-.7 0-1.3.1-2 .3-.6.2-1.2.4-1.7.7-.5.3-.9.6-1.2 1.2-.3.5-.4 1-.4 1.6 0 .5.1 1 .3 1.3.1.4.3.7.6 1 .3.3.7.6 1.1.8.3.2.6.3.9.4.2.1.5.2.8.3.2.1.3.1.5.2.3.1.5.2.8.3.4.2.8.4 1.1.6.3.2.6.5.8.8.3.4.4.8.4 1.2 0 1.6-1.2 2.5-3.5 2.5-1.3 0-2.6-.4-3.8-1.1v1.8zm-136.1 1.4c-1.3 0-2.4-.3-3.5-.9l-.2-.1v-3.4l.6.4c1.3.9 2.6 1.3 4 1.3 2.4 0 2.7-1 2.7-1.7 0-.3-.1-.5-.2-.8-.2-.3-.3-.4-.6-.6-.3-.2-.7-.4-1-.6-.2-.1-.5-.2-.7-.3-.2-.1-.4-.1-.6-.2-.3-.1-.5-.2-.7-.3-.4-.2-.7-.3-1-.5-.5-.3-1-.6-1.3-1-.2-.2-.7-.7-.8-1.3-.2-.4-.3-.9-.3-1.6 0-.7.2-1.4.6-2 .4-.7.9-1.2 1.5-1.4.5-.4 1.2-.6 1.9-.8.7-.2 1.5-.3 2.2-.3 1.4 0 2.6.2 3.6.7l.2.1v3.3l-.6-.4c-1.3-.8-2.6-1.2-4.1-1-.2 0-.4.1-.6.1-.3.1-.5.2-.6.3l-.5.5-.1.2c-.1.2-.1.3-.1.5 0 .3.1.6.2.9.1.2.2.3.5.5s.5.4.9.4c.3.1.5.2.8.3.2.1.4.1.6.2.7.2 1.3.6 1.8.8.5.3 1 .6 1.4 1 .4.3.7.8.9 1.2.2.5.3 1 .3 1.7s-.2 1.5-.6 2.1c-.4.7-.9 1.2-1.5 1.4-.5.4-1.2.6-1.9.8-.8.2-1.5.3-2.3.3-.5.2-.7.2-.9.2zm-2.9-1.4c1 .5 2.2.7 3.5.7.8 0 1.4-.1 2.1-.3.6-.2 1.2-.4 1.7-.7.5-.3.9-.6 1.2-1.2.3-.5.4-1.1.4-1.7 0-.5-.1-1-.3-1.3-.2-.4-.4-.7-.7-1-.3-.3-.8-.6-1.3-.9-.4-.2-1-.6-1.6-.8-.2-.1-.4-.1-.6-.2-.3-.1-.5-.2-.8-.3-.4-.1-.7-.3-1-.5-.3-.2-.6-.4-.8-.9-.1-.3-.2-.7-.2-1.1 0-.3.1-.5.2-.8l.2-.4c.2-.3.3-.5.6-.7.2-.2.6-.4 1-.5.3 0 .5 0 .6-.1 1.4-.2 2.7.1 4 .8v-1.5c-.9-.4-1.8-.6-3-.6-.7 0-1.3.1-2 .3-.6.2-1.2.4-1.7.7-.5.3-.9.6-1.2 1.2-.3.5-.4 1-.4 1.6 0 .5.1 1 .3 1.3.1.4.3.7.6 1 .3.3.7.6 1.1.8.3.2.6.3.9.4.2.1.5.2.8.3.2.1.3.1.5.2.3.1.5.2.8.3.4.2.8.4 1.1.6.3.2.6.5.8.8.3.4.4.7.4 1.2 0 1.6-1.2 2.5-3.5 2.5-1.3 0-2.6-.4-3.8-1.1v1.9zm170.3 1.4c-1.6 0-2.8-.4-3.7-1.3-.9-.9-1.3-2-1.3-3.4 0-2.9 1.7-4.6 5.1-5.2l4.1-.6c-.1-2.7-1.5-3-2.6-3-1.7 0-3.2.6-4.6 1.7l-.6.5V187l.2-.1c1.5-1 3.3-1.5 5.2-1.5 3.6 0 5.6 2 5.6 5.9v10h-3.1v-1.6c-1.1 1.3-2.5 1.9-4.3 1.9zm1.6-14.2c2.2 0 3.4 1.4 3.4 4.1v.3l-4.7.6c-3 .5-4.5 1.9-4.5 4.4 0 1.2.3 2.1 1.1 2.8.7.7 1.8 1.1 3.1 1.1 1.9 0 3.3-.8 4.2-2.4l.1-.2h.7v2.3h1.6v-9.2c0-3.4-1.6-5.1-4.8-5.1-1.7 0-3.3.4-4.6 1.2v1.4c1.3-.8 2.8-1.3 4.4-1.3zm-105.8 14.2c-1.6 0-2.8-.4-3.7-1.3s-1.3-2-1.3-3.4c0-2.9 1.7-4.6 5.1-5.2l4.1-.6c-.1-2.7-1.5-3-2.6-3-1.7 0-3.2.6-4.6 1.7l-.6.5V187l.2-.1c1.5-1 3.3-1.5 5.2-1.5 3.6 0 5.6 2 5.6 5.9v10h-3.1v-1.6c-1.1 1.3-2.5 1.9-4.3 1.9zm1.6-14.2c2.2 0 3.4 1.4 3.4 4.1v.3l-4.7.6c-3 .5-4.5 1.9-4.5 4.4 0 1.2.3 2.1 1.1 2.8.7.7 1.8 1.1 3.1 1.1 1.9 0 3.3-.8 4.2-2.4l.1-.2h.7v2.3h1.6v-9.2c0-3.4-1.6-5.1-4.8-5.1-1.7 0-3.3.4-4.6 1.2v1.4c1.3-.8 2.8-1.3 4.4-1.3zm325.5 14h-3l-3-10.6-3.3 10.5h-2.9l-4.6-15.4h3.3l3 11.1 3.4-11.1h2.7l3 10.9 3-10.9h3v.6l-4.6 14.9zm-2.4-.8h1.8l4.2-14h-1.5l-3 10.9c-.1.4-.1.7-.1 1v.4h-.8v-.4c0-.5-.1-.8-.2-1.2l-2.9-10.7h-1.5l-3.3 10.7c-.2.4-.3.8-.3 1.2v.4h-1v-.4c0-.5-.1-.9-.2-1.2l-2.9-10.7h-1.7l4.2 13.9h1.7l3.2-10.2c.2-.5.3-1 .3-1.2v-.4h.8v.4c0 .4.1.8.2 1.3l3 10.2zm-66.1.8h-3.1v-21.3h11.1v2.9h-8v6.4h7.4v2.9h-7.4v9.1zm-2.4-.8h1.6v-9.1h7.4v-1.4h-7.4v-7.9h8v-1.4h-9.6v19.8zm-440.3.8h-7.1v-2.9h2v-15.6h-2V180h7.1v2.9h-2v15.6h2v2.9zm-6.4-.8h5.6v-1.4h-2v-17.1h2v-1.4h-5.6v1.4h2v17.1h-2v1.4zm554 .7h-3.1v-15.4h3.1v15.4zm-2.3-.8h1.6v-13.9h-1.6v13.9zm-3.6.8h-3.2v-8.8c0-3.8-1.7-4.2-3-4.2-1 0-1.9.4-2.6 1.2-.7.8-1.1 1.9-1.1 3.2v8.7h-3V179h3v8.8c1.1-1.4 2.6-2.1 4.5-2.1 2.5 0 5.4 1.1 5.4 6.4v9.2zm-2.4-.8h1.7v-8.6c0-3.8-1.5-5.6-4.6-5.6-2 0-3.5.9-4.5 2.6l-.1.2h-.7v-9.5h-1.5v20.9h1.5v-7.9c0-1.5.4-2.7 1.3-3.6.8-.9 1.9-1.4 3.2-1.4 2.5 0 3.8 1.7 3.8 5v7.9zm-62.5.8h-3.1v-22.4h3.1v22.4zm-2.3-.8h1.6v-20.9h-1.6v20.9zm-4 .8h-3v-22.4h3v22.4zm-2.3-.8h1.5v-20.9H729v20.9zm-83.6.8h-3v-15.4h3v15.4zm-2.3-.8h1.5v-13.9h-1.5v13.9zm-20.6.8h-3v-15.4h3v15.4zm-2.3-.8h1.5v-13.9h-1.5v13.9zm-4 .8h-3v-22.4h3v22.4zm-2.3-.8h1.5v-20.9h-1.5v20.9zm-15.3.8h-3.8l-3.5-6c-.3-.5-.6-1-.9-1.4-.3-.4-.5-.6-.8-.8-.3-.2-.5-.4-.9-.4-.4-.1-.8-.2-1.1-.2H586v8.7h-3.1v-21.3h6.5c.9 0 1.7.1 2.6.3.9.2 1.5.6 2.1 1.1.7.6 1.1 1.1 1.4 1.9.4.8.5 1.7.5 2.5s-.1 1.5-.3 2.1c-.2.6-.5 1.1-1 1.7-.4.5-.9.9-1.5 1.3-.4.2-.8.4-1.3.6.1.1.2.1.3.2.3.2.6.5.8.8.1.1.2.3.3.4.1.2.3.3.4.5l.2.3.6.9 4.1 6.8zm-3.4-.8h2l-3.4-5.6-.6-.9-.2-.3c-.1-.1-.2-.3-.3-.4-.1-.2-.3-.3-.4-.5-.2-.3-.3-.4-.6-.6-.1-.1-.3-.2-.4-.2-.2-.1-.3-.2-.5-.3l-.2-.1v-.6l.3-.1c.7-.2 1.2-.5 1.8-.8.5-.3 1-.7 1.3-1.1.4-.5.7-1 .8-1.5.2-.6.3-1.2.3-1.9 0-.8-.2-1.5-.5-2.3-.3-.6-.6-1.1-1.2-1.6-.6-.4-1.1-.7-1.9-.9-.8-.2-1.6-.3-2.4-.3h-5.7v19.8h1.6v-8.7h2.4c.4 0 .9.1 1.3.2.5.1.8.3 1.1.6.3.2.7.6 1 1 .3.4.6.9.9 1.4l3.5 5.7zm-22.8.8h-3.2v-8.8c0-2.9-1-4.3-3-4.3-1.1 0-1.9.4-2.6 1.2-.7.8-1.1 1.8-1.1 3.1v8.8h-3v-15.4h3v1.7c1.1-1.4 2.6-2.1 4.5-2.1 1.7 0 3 .6 4 1.7.9 1.1 1.4 2.8 1.4 4.7v9.4zm-2.4-.8h1.7v-8.7c0-1.8-.4-3.3-1.2-4.3-.8-1-1.9-1.5-3.4-1.5-2 0-3.5.9-4.5 2.6l-.1.2h-.7v-2.4h-1.5v13.9h1.5v-8c0-1.4.4-2.6 1.3-3.5.9-1 1.9-1.4 3.2-1.4 2.5 0 3.8 1.7 3.8 5.1v8zm-28.1.8h-3v-15.4h3v15.4zm-2.3-.8h1.5v-13.9h-1.5v13.9zm-24.9.8h-3v-15.4h3v15.4zm-2.3-.8h1.5v-13.9h-1.5v13.9zm-7.2.8h-3v-15.4h3v1.8c.3-.4.6-.8 1-1.1.8-.6 1.6-1 2.5-1 .8 0 1.3.2 1.5.2l.3.1v3.5l-.6-.5c-.3-.2-.7-.4-1.6-.4-.8 0-1.5.4-2.2 1.3-.6.8-.9 2-.9 3.7v7.8zm-2.3-.8h1.5v-7.1c0-1.8.4-3.2 1.1-4.1.8-1 1.7-1.5 2.8-1.5.5 0 1 .1 1.4.2v-1.6c-.2-.1-.6-.1-1-.1-.7 0-1.4.3-2.1.8-.6.5-1.1 1.3-1.4 2.2l-.1.3h-.8v-3h-1.5v13.9zm-3.6.8h-3.1v-8.8c0-3.8-1.7-4.2-3-4.2-1 0-1.9.4-2.6 1.2-.7.8-1.1 1.9-1.1 3.2v8.7h-3V179h3v8.8c1.1-1.4 2.6-2.1 4.5-2.1 2.5 0 5.4 1.1 5.4 6.4v9.2zm-2.4-.8h1.6v-8.6c0-3.8-1.5-5.6-4.6-5.6-2 0-3.5.9-4.5 2.6l-.1.2h-.7v-9.5h-1.5v20.9h1.5v-7.9c0-1.5.4-2.7 1.3-3.6.8-.9 1.9-1.4 3.2-1.4 2.5 0 3.8 1.7 3.8 5v7.9zm-38.6.8h-3v-22.4h3v22.4zm-2.3-.8h1.5v-20.9H456v20.9zm-17.8.8H435v-8.8c0-2.9-1-4.3-3-4.3-1.1 0-1.9.4-2.6 1.2-.7.8-1.1 1.8-1.1 3.1v8.8h-3v-15.4h3v1.7c1.1-1.4 2.6-2.1 4.5-2.1 1.7 0 3 .6 4 1.7.9 1.1 1.4 2.8 1.4 4.7v9.4zm-2.4-.8h1.6v-8.7c0-1.8-.4-3.3-1.2-4.3-.8-1-1.9-1.5-3.4-1.5-2 0-3.5.9-4.5 2.6l-.1.2h-.7v-2.4H426v13.9h1.5v-8c0-1.4.4-2.6 1.3-3.5.9-1 1.9-1.4 3.2-1.4 2.5 0 3.8 1.7 3.8 5.1v8zm-30.3.8h-3.1v-15.4h3.1v15.4zm-2.3-.8h1.6v-13.9h-1.6v13.9zm-43.4.8h-3v-12.6h-2.5v-2.8h2.5v-2c0-1.7.5-2.9 1.4-3.9.9-.9 2.1-1.4 3.6-1.4.8 0 1.4.1 1.9.3l.2.1v2l1.1.6h-2v-.2c-.3-.1-.7-.2-1.1-.2-1.4 0-2.1.9-2.1 2.7v1.9h3.4v2.8h-3.4v12.7zm-2.3-.8h1.5v-12.6h3.4v-1.3H359V184c0-3 1.8-3.5 2.9-3.5.4 0 .8 0 1.1.2v-1.1c-.3-.1-.8-.2-1.3-.2-1.2 0-2.2.4-3 1.2-.8.8-1.2 1.9-1.2 3.3v2.8H355v1.3h2.5v12.5zm-4.4.8h-3.2v-8.8c0-2.9-1-4.3-3-4.3-1.1 0-1.9.4-2.6 1.2-.7.8-1.1 1.8-1.1 3.1v8.8h-3v-15.4h3v1.7c1.1-1.4 2.6-2.1 4.5-2.1 1.7 0 3 .6 4 1.7.9 1.1 1.4 2.8 1.4 4.7v9.4zm-2.4-.8h1.7v-8.7c0-1.8-.4-3.3-1.2-4.3-.8-1-1.9-1.5-3.4-1.5-2 0-3.5.9-4.5 2.6l-.1.2h-.7v-2.4H341v13.9h1.5v-8c0-1.4.4-2.6 1.3-3.5.9-1 1.9-1.4 3.2-1.4 2.5 0 3.8 1.7 3.8 5.1v8zm-45.9.8h-3v-15.4h3v1.8c.3-.4.6-.8 1-1.1.8-.6 1.6-1 2.5-1 .8 0 1.3.2 1.5.2l.3.1v3.5l-.6-.5c-.3-.2-.7-.4-1.6-.4-.8 0-1.5.4-2.2 1.3-.6.8-.9 2-.9 3.7v7.8zm-2.3-.8h1.5v-7.1c0-1.8.4-3.2 1.1-4.1.8-1 1.7-1.5 2.8-1.5.5 0 1 .1 1.4.2v-1.6c-.2-.1-.6-.1-1-.1-.7 0-1.4.3-2.1.8-.6.5-1.1 1.3-1.4 2.2l-.1.3h-.7v-3h-1.5v13.9zm-27.1.8h-3.1v-8.8c0-2.9-1-4.3-3-4.3-1.1 0-1.9.4-2.6 1.2-.7.8-1.1 1.8-1.1 3.1v8.8h-3.1v-15.4h3.1v1.7c1.1-1.4 2.6-2.1 4.5-2.1 1.7 0 3 .6 4 1.7.9 1.1 1.4 2.8 1.4 4.7v9.4zm-2.4-.8h1.6v-8.7c0-1.8-.4-3.3-1.2-4.3-.8-1-1.9-1.5-3.4-1.5-2 0-3.5.9-4.5 2.6l-.1.2h-.7v-2.4h-1.6v13.9h1.6v-8c0-1.4.4-2.6 1.3-3.5.9-1 1.9-1.4 3.2-1.4 2.5 0 3.8 1.7 3.8 5.1v8zm276.7-.7c-1 0-1.7-.3-2.3-.8-.6-.6-.9-1.3-.9-2.1s.1-1.8 1-2.4c.6-.4 1.5-.6 2.6-.9l3.9-.6v2c0 1.5-.4 2.5-1.2 3.4-.8 1-1.8 1.4-3.1 1.4zm3.6-5.9l-3.1.4c-1 .2-1.8.4-2.3.7-.4.3-.6.8-.6 1.8 0 .6.2 1.1.7 1.5.4.4 1 .6 1.7.6 1.1 0 1.9-.3 2.6-1.1.7-.7 1-1.6 1-2.8v-1.1zm-107.8 5.9c-1 0-1.7-.3-2.3-.8-.6-.6-.9-1.3-.9-2.1s.1-1.8 1-2.4c.6-.4 1.5-.6 2.6-.9l3.9-.6v2c0 1.5-.4 2.5-1.2 3.4-.8 1-1.8 1.4-3.1 1.4zm3.6-5.9l-3.1.4c-1 .2-1.8.4-2.3.7-.4.3-.6.8-.6 1.8 0 .6.2 1.1.7 1.5.4.4 1 .6 1.7.6 1.1 0 1.9-.3 2.6-1.1.7-.7 1-1.6 1-2.8v-1.1zm369.5 5.8c-1.2 0-2.3-.5-3.3-1.4-.9-1-1.3-2.1-1.3-3.4v-2c0-1.5.4-2.8 1.3-3.7.9-1 2.1-1.5 3.6-1.5 1.4 0 2.5.5 3.4 1.5.8 1 1.2 2.4 1.2 4 0 2-.4 3.6-1.3 4.7-.8 1.2-2.1 1.8-3.6 1.8zm.3-11.3c-1.3 0-2.3.4-3 1.3-.7.8-1.1 1.9-1.1 3.3v2c0 1.1.4 2 1.1 2.9.8.8 1.7 1.2 2.7 1.2 1.3 0 2.3-.5 3-1.4.7-1 1.1-2.5 1.1-4.3 0-1.5-.4-2.7-1-3.6-.7-1-1.7-1.4-2.8-1.4zm-187 11.3c-1.4 0-2.5-.5-3.4-1.6-.9-1.1-1.3-2.5-1.3-4.1 0-2 .4-3.4 1.3-4.6.9-1.2 2.1-1.8 3.7-1.8 1.2 0 2.3.5 3.2 1.3.9.9 1.3 2 1.3 3.3v2.2c0 1.6-.4 2.9-1.3 3.8-.9.9-2.1 1.5-3.5 1.5zm.3-11.4c-1.4 0-2.4.5-3.1 1.4-.8 1.1-1.1 2.4-1.1 4.2 0 1.5.4 2.7 1.1 3.7.7.9 1.6 1.4 2.8 1.4 1.2 0 2.2-.4 2.9-1.3.7-.8 1.1-2 1.1-3.4v-2.2c0-1.1-.4-2-1.1-2.7-.7-.7-1.6-1.1-2.6-1.1zm115.3 11.3c-1.6 0-2.9-.5-3.9-1.6-.9-1-1.4-2.5-1.4-4.4 0-2 .5-3.4 1.4-4.5 1-1.1 2.3-1.6 3.9-1.6s2.9.5 3.8 1.5c.9 1.1 1.3 2.6 1.3 4.4s-.4 3.4-1.3 4.4c-.9 1.2-2.2 1.8-3.8 1.8zm0-11.3c-1.4 0-2.5.5-3.3 1.4-.8.9-1.2 2.2-1.2 3.9 0 1.7.4 3 1.2 3.8.8.9 1.9 1.4 3.3 1.4s2.5-.5 3.2-1.4c.7-.9 1.1-2.3 1.1-4s-.4-3-1.1-4c-.8-.7-1.8-1.1-3.2-1.1zm-92.1 11.3c-1.6 0-2.9-.5-3.9-1.6-.9-1-1.4-2.5-1.4-4.4 0-2 .5-3.4 1.4-4.5 1-1.1 2.3-1.6 3.9-1.6 1.5 0 2.8.5 3.8 1.5.9 1.1 1.3 2.6 1.3 4.5s-.4 3.4-1.3 4.4c-.9 1.1-2.2 1.7-3.8 1.7zm0-11.3c-1.4 0-2.5.5-3.3 1.4-.8.9-1.2 2.2-1.2 3.9 0 1.7.4 3 1.2 3.8.8.9 1.9 1.4 3.3 1.4s2.5-.5 3.2-1.4c.7-.9 1.1-2.3 1.1-4s-.4-3-1.1-4c-.8-.7-1.9-1.1-3.2-1.1zm-240 11.3c-1.6 0-2.9-.5-3.9-1.6-.9-1-1.4-2.5-1.4-4.4 0-2 .5-3.4 1.4-4.5 1-1.1 2.3-1.6 3.9-1.6 1.5 0 2.7.5 3.8 1.5.9 1.1 1.3 2.6 1.3 4.5s-.4 3.4-1.3 4.4c-.9 1.1-2.2 1.7-3.8 1.7zm0-11.3c-1.4 0-2.5.5-3.3 1.4-.8.9-1.2 2.2-1.2 3.9 0 1.7.4 3 1.2 3.8.8.9 1.9 1.4 3.3 1.4s2.5-.5 3.2-1.4c.7-.9 1.1-2.3 1.1-4s-.4-3-1.1-4c-.8-.7-1.9-1.1-3.2-1.1zm-85.1 11.3c-1.6 0-2.9-.5-3.9-1.6-.9-1-1.4-2.5-1.4-4.4 0-2 .5-3.4 1.4-4.5 1-1.1 2.3-1.6 3.9-1.6s2.9.5 3.8 1.5c.9 1.1 1.3 2.6 1.3 4.4s-.4 3.4-1.3 4.4c-.9 1.2-2.2 1.8-3.8 1.8zm0-11.3c-1.4 0-2.5.5-3.3 1.4-.8.9-1.2 2.2-1.2 3.9 0 1.7.4 3 1.2 3.8.8.9 1.9 1.4 3.3 1.4s2.5-.5 3.2-1.4c.7-.9 1.1-2.3 1.1-4s-.4-3-1.1-4c-.7-.7-1.8-1.1-3.2-1.1zm393.4 4.3H715v-.4c.1-1.3.6-2.4 1.5-3.3.9-.9 1.9-1.3 3.1-1.3 1.4 0 2.4.4 3 1.3.7.8 1.1 1.9 1.1 3.4v.3zm-7.9-.8h7.1c0-1.1-.3-1.9-.9-2.6-.5-.7-1.3-1-2.4-1-1 0-1.8.3-2.5 1.1s-1.1 1.6-1.3 2.5zm-107.2.8h-8.7l.1-.4c.2-1.5.7-2.5 1.5-3.3.9-.9 1.9-1.3 3.1-1.3 1.4 0 2.4.4 3 1.3.7.8 1.1 1.9 1.1 3.4v.3zm-7.9-.8h7.1c0-1.1-.3-1.9-.9-2.6-.5-.7-1.3-1-2.4-1-1 0-1.8.3-2.5 1.1-.6.7-1 1.5-1.3 2.5zm-226.2.8h-8.7l.1-.4c.2-1.5.7-2.5 1.5-3.3.9-.9 1.9-1.3 3.1-1.3 1.4 0 2.4.4 3 1.3.7.8 1.1 1.9 1.1 3.4v.3zm-7.9-.8h7.1c0-1.1-.3-1.9-.9-2.6-.5-.7-1.3-1-2.4-1-1 0-1.8.3-2.5 1.1-.6.7-1 1.5-1.3 2.5zm-69.3.8h-8.7l.1-.4c.2-1.5.7-2.5 1.5-3.3.9-.9 1.9-1.3 3.1-1.3 1.4 0 2.4.4 3 1.3.7.8 1.1 1.9 1.1 3.4v.3zm-7.9-.8h7.1c0-1.1-.3-1.9-.9-2.6-.5-.7-1.3-1-2.4-1-1 0-1.8.3-2.5 1.1-.6.7-1 1.5-1.3 2.5zm299.5-1.4h-3.7v-8.3h3.7c1.5 0 2.6.3 3.3 1 .8.7 1.2 1.7 1.2 2.9 0 .7-.1 1.3-.3 1.8-.3.6-.6 1-1 1.3-.4.5-.9.7-1.4.9-.5.3-1.1.4-1.8.4zm-2.9-.8h2.9c.6 0 1.1-.1 1.6-.3.5-.2.9-.4 1.1-.7l.1-.1c.3-.2.5-.6.8-1.1.2-.4.3-.9.3-1.5 0-1-.3-1.8-1-2.3-.6-.5-1.6-.8-2.9-.8H586v6.8zm220.9-6.6c-.6 0-1-.2-1.4-.5-.4-.4-.5-.8-.5-1.4 0-.6.2-1 .5-1.4.3-.3.8-.5 1.4-.5s1 .2 1.4.5c.4.4.6.9.6 1.4 0 .6-.2 1.1-.6 1.4-.6.3-1 .5-1.4.5zm0-3c-.4 0-.6.1-.8.3-.2.2-.3.5-.3.8 0 .4.1.6.3.8.3.3.9.5 1.7 0 .2-.2.3-.4.3-.8 0-.3-.1-.6-.4-.8-.2-.2-.4-.3-.8-.3zm-163 3c-.6 0-1-.2-1.4-.5-.4-.4-.5-.8-.5-1.4 0-.6.2-1 .5-1.4.3-.3.8-.5 1.4-.5.6 0 1 .2 1.4.5.4.4.6.9.6 1.4 0 .6-.2 1.1-.6 1.4-.6.3-1 .5-1.4.5zm0-3c-.4 0-.6.1-.8.3-.2.2-.3.5-.3.8 0 .4.1.6.3.8.3.3.9.5 1.7 0 .2-.2.3-.4.3-.8 0-.3-.1-.6-.4-.8-.2-.2-.4-.3-.8-.3zm-22.9 3c-.6 0-1-.2-1.4-.5-.4-.4-.5-.7-.5-1.4 0-.6.2-1 .5-1.4.3-.3.8-.5 1.4-.5s1 .2 1.4.5c.4.4.6.9.6 1.4 0 .6-.2 1.1-.7 1.4-.5.3-.9.5-1.3.5zm0-3c-.4 0-.6.1-.8.3-.2.2-.3.5-.3.8 0 .4.1.6.3.8.3.3.9.5 1.7 0 .2-.2.3-.4.3-.8 0-.3-.1-.6-.4-.8-.2-.2-.4-.3-.8-.3zm-80.6 3c-.6 0-1-.2-1.4-.5-.4-.4-.5-.8-.5-1.4 0-.6.2-1 .5-1.4.3-.3.8-.5 1.4-.5.6 0 1 .2 1.4.5.4.4.6.9.6 1.4 0 .6-.2 1.1-.7 1.4-.5.3-.9.5-1.3.5zm0-3c-.4 0-.6.1-.8.3s-.3.5-.3.8c0 .4.1.6.3.8.3.3.9.5 1.7 0 .2-.2.3-.4.3-.8 0-.3-.1-.6-.4-.8-.2-.2-.4-.3-.8-.3zm-27.3 3c-.6 0-1-.2-1.4-.5-.4-.4-.5-.8-.5-1.4 0-.6.2-1 .5-1.4.3-.3.8-.5 1.4-.5.6 0 1 .2 1.4.5.4.4.6.9.6 1.4 0 .6-.2 1.1-.6 1.4-.6.3-1 .5-1.4.5zm0-3c-.4 0-.6.1-.8.3-.2.2-.3.5-.3.8 0 .4.1.6.3.8.3.3.9.5 1.7 0 .2-.2.3-.4.3-.8 0-.3-.1-.6-.4-.8-.2-.2-.4-.3-.8-.3zm-109.2 3c-.6 0-1-.2-1.4-.5-.4-.4-.5-.8-.5-1.4 0-.6.2-1 .5-1.4.3-.3.8-.5 1.4-.5.6 0 1 .2 1.4.5.4.4.6.9.6 1.4 0 .6-.2 1.1-.6 1.4-.6.3-1 .5-1.4.5zm0-3c-.4 0-.6.1-.8.3-.2.2-.3.5-.3.8 0 .4.1.6.3.8.3.3.9.5 1.7 0 .2-.2.3-.4.3-.8 0-.3-.1-.6-.4-.8-.2-.2-.4-.3-.8-.3z"/><path fill="#fff" d="M272.4 249.2h-10.8v30.9H253v-30.9h-10.8v-6.9h30.1v6.9h.1zm36.5 30.9h-8.6v-15.4h-15.7v15.4h-8.5v-37.9h8.5v15.1h15.7v-15.1h8.6v37.9zm30 0h-22.7v-37.9H338v6.9h-13.3v8.4h12.4v6.9h-12.4v8.7h14.2v7zm18.3 0v-37.9H371c4.2 0 7.5.8 9.7 2.3 2.3 1.5 3.4 3.7 3.4 6.6 0 2-.7 3.8-2.1 5.4-1.4 1.5-3.1 2.6-5.3 3.2v.1c2.7.3 4.8 1.3 6.5 3 1.6 1.7 2.4 3.7 2.4 6 0 3.5-1.2 6.2-3.7 8.3-2.5 2-5.9 3.1-10.2 3.1h-14.5v-.1zm8.5-31.6v9h3.8c1.8 0 3.1-.4 4.2-1.3 1-.9 1.5-2 1.5-3.5 0-2.8-2.1-4.2-6.2-4.2h-3.3zm0 15.4v10h4.6c2 0 3.5-.5 4.6-1.4s1.7-2.2 1.7-3.8c0-1.5-.6-2.7-1.7-3.6s-2.6-1.3-4.6-1.3l-4.6.1zm36.5-21.6v6.6H399v24.7h3.2v6.6h-14.9v-6.6h3.2v-24.7h-3.2v-6.6h14.9zm4.1 37.8v-37.9h13.8c4.2 0 7.5.8 9.7 2.3 2.3 1.5 3.4 3.7 3.4 6.6 0 2-.7 3.8-2.1 5.4-1.4 1.5-3.1 2.6-5.3 3.2v.1c2.7.3 4.8 1.3 6.5 3 1.6 1.7 2.4 3.7 2.4 6 0 3.5-1.2 6.2-3.7 8.3-2.5 2-5.9 3.1-10.2 3.1h-14.5v-.1zm8.6-31.6v9h3.8c1.8 0 3.1-.4 4.2-1.3 1-.9 1.5-2 1.5-3.5 0-2.8-2.1-4.2-6.2-4.2h-3.3zm0 15.4v10h4.6c2 0 3.5-.5 4.6-1.4s1.7-2.2 1.7-3.8c0-1.5-.6-2.7-1.7-3.6s-2.6-1.3-4.6-1.3l-4.6.1zm47.3 16.2h-22.6v-37.9h8.5v31h14v6.9h.1zm26.5 0H466v-37.9h21.8v6.9h-13.3v8.4h12.4v6.9h-12.4v8.7h14.2v7zm16.5-1.4v-8.5c1.5 1.3 3.2 2.2 5 2.9 1.8.6 3.6 1 5.4 1 1.1 0 2-.1 2.8-.3.8-.2 1.5-.5 2-.8s.9-.7 1.2-1.2.4-1 .4-1.5c0-.7-.2-1.4-.6-2-.4-.6-1-1.1-1.7-1.6s-1.6-1-2.6-1.4c-1-.5-2.1-.9-3.2-1.4-3-1.2-5.2-2.7-6.6-4.5-1.5-1.8-2.2-3.9-2.2-6.4 0-2 .4-3.7 1.2-5.1.8-1.4 1.9-2.6 3.2-3.5s2.9-1.6 4.7-2 3.7-.6 5.7-.6 3.7.1 5.2.4c1.5.2 2.9.6 4.2 1.1v7.9c-.6-.4-1.3-.8-2.1-1.2s-1.5-.6-2.3-.8-1.6-.4-2.4-.5c-.8-.1-1.5-.2-2.2-.2-1 0-1.8.1-2.6.3s-1.5.4-2 .8c-.5.3-1 .7-1.3 1.2s-.4 1-.4 1.6.2 1.2.5 1.7.8 1 1.4 1.4 1.4.9 2.2 1.3c.9.4 1.9.9 3 1.3 1.5.6 2.9 1.3 4.1 2s2.2 1.5 3.1 2.4c.9.9 1.5 1.9 2 3.1s.7 2.5.7 4c0 2.1-.4 3.9-1.2 5.3s-1.9 2.6-3.3 3.5-3 1.5-4.8 1.9-3.7.6-5.8.6-4.1-.2-5.9-.5c-1.8-.5-3.4-1-4.8-1.7zm46.8 2.1c-5.4 0-9.8-1.8-13.3-5.3-3.4-3.5-5.1-8.1-5.1-13.8 0-6 1.7-10.8 5.2-14.5s8.1-5.5 13.8-5.5c5.4 0 9.8 1.8 13.1 5.3s5 8.2 5 14c0 6-1.7 10.8-5.2 14.4s-8 5.4-13.5 5.4zm.3-31.8c-3 0-5.4 1.1-7.1 3.4-1.8 2.2-2.6 5.2-2.6 8.9 0 3.8.9 6.7 2.6 8.9 1.8 2.2 4.1 3.3 6.9 3.3 2.9 0 5.3-1.1 7-3.2s2.6-5.1 2.6-8.8c0-3.9-.8-7-2.5-9.2s-4-3.3-6.9-3.3zm50.5 29.8c-2.8 1.3-6.4 2-10.8 2-5.8 0-10.4-1.7-13.7-5.1s-5-8-5-13.7c0-6.1 1.9-11 5.6-14.7 3.7-3.8 8.6-5.7 14.6-5.7 3.7 0 6.8.5 9.4 1.4v8.2c-2.5-1.5-5.4-2.3-8.7-2.3-3.6 0-6.4 1.1-8.6 3.4-2.2 2.2-3.3 5.3-3.3 9.1 0 3.7 1 6.6 3.1 8.8 2.1 2.2 4.8 3.3 8.3 3.3 3.3 0 6.4-.8 9.1-2.4v7.7zm16.9-36.5v6.6h-3.2v24.7h3.2v6.6h-14.9v-6.6h3.2v-24.7h-3.2v-6.6h14.9zm26.8 37.8h-22.7v-37.9h21.8v6.9h-13.3v8.4h12.4v6.9h-12.4v8.7h14.2v7zm31.8-30.9h-10.8v30.9H659v-30.9h-10.8v-6.9h30.1v6.9zm33.4-6.9l-12.3 24.4v13.5h-8.5v-13.3l-12-24.6h9.7l6.1 14.1c.1.3.4 1.3.9 3.1h.1c.2-1.3.5-2.3.8-3l6.2-14.2h9zm-447.5 54.1v6.6H261v24.7h3.2v6.6h-14.9v-6.6h3.2V303h-3.2v-6.6h14.9zm38.2 37.8h-8.6l-15.6-23.8c-.9-1.4-1.5-2.4-1.9-3.1h-.1c.1 1.3.2 3.4.2 6.1v20.8h-8.1v-37.9h9.2l15 23.1c.7 1 1.3 2.1 1.9 3.1h.1c-.1-.9-.2-2.6-.2-5.2v-20.9h8.1v37.8zm47.5-30.9h-10.8v30.9h-8.6v-30.9h-10.8v-6.9h30.1l.1 6.9zm36.5 30.9h-8.6v-15.4h-15.7v15.4h-8.5v-37.9h8.5v15.1h15.7v-15.1h8.6v37.9zm30 0h-22.7v-37.9h21.8v6.9h-13.3v8.4h12.4v6.9h-12.4v8.7h14.2v7zm50.1 0h-9.8l-5.9-9.7c-.4-.7-.9-1.4-1.3-2s-.8-1.1-1.2-1.5c-.4-.4-.8-.7-1.3-1-.4-.2-.9-.3-1.5-.3h-2.3v14.5h-8.5v-37.9h13.5c9.2 0 13.8 3.4 13.8 10.3 0 1.3-.2 2.5-.6 3.7s-1 2.1-1.7 3-1.6 1.7-2.7 2.3c-1 .7-2.2 1.2-3.5 1.5v.1c.6.2 1.1.5 1.6.9s1 .9 1.5 1.4 1 1.1 1.4 1.7.9 1.2 1.2 1.8l7.3 11.2zm-23.2-31.4v10.5h3.7c1.8 0 3.3-.5 4.4-1.6s1.7-2.4 1.7-4c0-3.3-2-5-5.9-5h-3.9v.1zm48.1 31.4h-22.7v-37.9h21.8v6.9h-13.3v8.4h12.4v6.9h-12.4v8.7h14.2v7zm13.3-13v13h-8.5v-37.9h13.4c9.5 0 14.3 4 14.3 12.1 0 3.8-1.4 6.9-4.1 9.2-2.7 2.4-6.4 3.5-11 3.5l-4.1.1zm0-18.3v11.8h3.4c4.5 0 6.8-2 6.8-6 0-3.9-2.3-5.8-6.8-5.8h-3.4zm54.2 14.9c0 11.4-5.3 17.1-15.9 17.1-10.3 0-15.4-5.6-15.4-16.7v-21.9h8.6v22c0 6.1 2.4 9.2 7.2 9.2 4.7 0 7.1-3 7.1-8.9v-22.3h8.5l-.1 21.5zm6.9 16.4v-37.9h13.8c4.2 0 7.5.8 9.7 2.3 2.3 1.5 3.4 3.7 3.4 6.6 0 2-.7 3.8-2.1 5.4-1.4 1.5-3.1 2.6-5.3 3.2v.1c2.7.3 4.8 1.3 6.5 3s2.4 3.7 2.4 6c0 3.5-1.2 6.2-3.7 8.3s-5.9 3.1-10.2 3.1h-14.5v-.1zm8.5-31.5v9h3.8c1.8 0 3.1-.4 4.2-1.3s1.5-2 1.5-3.5c0-2.8-2.1-4.2-6.2-4.2h-3.3zm0 15.3v10h4.6c2 0 3.5-.5 4.6-1.4s1.7-2.2 1.7-3.8c0-1.5-.6-2.7-1.7-3.6-1.1-.9-2.6-1.3-4.6-1.3l-4.6.1zm47.4 16.2h-22.6v-37.9h8.5v31h14l.1 6.9zm15.4-37.8v6.6H634v24.7h3.2v6.6h-14.9v-6.6h3.2V303h-3.2v-6.6h14.8zm31.3 36.5c-2.8 1.3-6.4 2-10.8 2-5.8 0-10.4-1.7-13.7-5.1s-5-8-5-13.7c0-6.1 1.9-11 5.6-14.7s8.6-5.7 14.6-5.7c3.7 0 6.8.5 9.4 1.4v8.2c-2.5-1.5-5.4-2.3-8.7-2.3-3.6 0-6.4 1.1-8.6 3.4-2.2 2.2-3.3 5.3-3.3 9.1 0 3.7 1 6.6 3.1 8.8 2.1 2.2 4.8 3.3 8.3 3.3 3.3 0 6.4-.8 9.1-2.4v7.7zm34.8 2c-5.4 0-9.8-1.8-13.3-5.3-3.4-3.5-5.1-8.1-5.1-13.8 0-6 1.7-10.8 5.2-14.5s8.1-5.5 13.8-5.5c5.4 0 9.8 1.8 13.1 5.3s5 8.2 5 14c0 6-1.7 10.8-5.2 14.4-3.4 3.6-7.9 5.4-13.5 5.4zm.4-31.8c-3 0-5.4 1.1-7.1 3.4s-2.6 5.2-2.6 8.9c0 3.8.9 6.7 2.6 8.9 1.8 2.2 4.1 3.3 6.9 3.3 2.9 0 5.3-1.1 7-3.2s2.6-5.1 2.6-8.8c0-3.9-.8-7-2.5-9.2s-4-3.3-6.9-3.3zm45.2.2h-13.4v9.3h12.3v6.9h-12.3v14.7h-8.5v-37.9h21.9v7zm18.4 30.9v-37.9H781c4.2 0 7.5.8 9.7 2.3 2.3 1.5 3.4 3.7 3.4 6.6 0 2-.7 3.8-2.1 5.4-1.4 1.5-3.1 2.6-5.3 3.2v.1c2.7.3 4.8 1.3 6.5 3 1.6 1.7 2.4 3.7 2.4 6 0 3.5-1.2 6.2-3.7 8.3-2.5 2-5.9 3.1-10.2 3.1h-14.5v-.1zm8.5-31.5v9h3.8c1.8 0 3.1-.4 4.2-1.3s1.5-2 1.5-3.5c0-2.8-2.1-4.2-6.2-4.2h-3.3zm0 15.3v10h4.6c2 0 3.5-.5 4.6-1.4s1.7-2.2 1.7-3.8c0-1.5-.6-2.7-1.7-3.6-1.1-.9-2.6-1.3-4.6-1.3l-4.6.1zm47.6 16.2h-22.7v-37.9h21.8v6.9h-13.3v8.4h12.4v6.9h-12.4v8.7h14.2v7zm27.3 0H828v-37.9h8.5v31h14v6.9h.1zm38.2 0h-9.3l-2.7-8.4h-13.5l-2.7 8.4h-9.2l13.8-37.9h10.1l13.5 37.9zm-14-14.9l-4.1-12.7c-.3-1-.5-2.1-.6-3.4h-.2c-.1 1.1-.3 2.2-.7 3.3l-4.1 12.8h9.7zm49.2 14.9h-9.8l-5.9-9.7c-.4-.7-.9-1.4-1.3-2-.4-.6-.8-1.1-1.2-1.5s-.8-.7-1.3-1c-.4-.2-.9-.3-1.5-.3h-2.3v14.5h-8.5v-37.9h13.5c9.2 0 13.8 3.4 13.8 10.3 0 1.3-.2 2.5-.6 3.7-.4 1.1-1 2.1-1.7 3s-1.6 1.7-2.7 2.3c-1 .7-2.2 1.2-3.5 1.5v.1c.6.2 1.1.5 1.6.9s1 .9 1.5 1.4 1 1.1 1.4 1.7.9 1.2 1.2 1.8l7.3 11.2zm-23.3-31.4v10.5h3.7c1.8 0 3.3-.5 4.4-1.6 1.1-1.1 1.7-2.4 1.7-4 0-3.3-2-5-5.9-5h-3.9v.1zm56.3 15c0 11.4-5.3 17.1-15.9 17.1-10.3 0-15.4-5.6-15.4-16.7v-21.9h8.6v22c0 6.1 2.4 9.2 7.2 9.2 4.7 0 7.1-3 7.1-8.9v-22.3h8.5l-.1 21.5zm5.2 15v-8.5c1.5 1.3 3.2 2.2 5 2.9s3.6 1 5.4 1c1.1 0 2-.1 2.8-.3.8-.2 1.5-.5 2-.8s.9-.7 1.2-1.2.4-1 .4-1.5c0-.7-.2-1.4-.6-2-.4-.6-1-1.1-1.7-1.6s-1.6-1-2.6-1.4c-1-.5-2.1-.9-3.2-1.4-3-1.2-5.2-2.7-6.6-4.5-1.5-1.8-2.2-3.9-2.2-6.4 0-2 .4-3.7 1.2-5.1s1.9-2.6 3.2-3.5c1.4-.9 2.9-1.6 4.7-2s3.7-.6 5.7-.6 3.7.1 5.2.4c1.5.2 2.9.6 4.2 1.1v7.9c-.6-.4-1.3-.8-2.1-1.2-.7-.3-1.5-.6-2.3-.8-.8-.2-1.6-.4-2.4-.5-.8-.1-1.5-.2-2.2-.2-1 0-1.8.1-2.6.3-.8.2-1.5.4-2 .8-.5.3-1 .7-1.3 1.2s-.4 1-.4 1.6.2 1.2.5 1.7.8 1 1.4 1.4c.6.4 1.4.9 2.2 1.3.9.4 1.9.9 3 1.3 1.5.6 2.9 1.3 4.1 2 1.2.7 2.2 1.5 3.1 2.4.9.9 1.5 1.9 2 3.1s.7 2.5.7 4c0 2.1-.4 3.9-1.2 5.3s-1.9 2.6-3.3 3.5-3 1.5-4.8 1.9-3.7.6-5.8.6-4.1-.2-5.9-.5c-1.8-.5-3.5-1-4.8-1.7z"/><path fill="#73608b" d="M972.9 335.5c-2 0-4-.2-6-.5-1.9-.5-3.6-1-5-1.8l-.3-.1v-9.9l.8.7c1.3 1.1 2.9 2 4.9 2.8 1.7.6 3.4 1 5.2 1 1 0 1.9-.1 2.7-.3.7-.2 1.4-.4 1.9-.7.4-.3.8-.6 1-1 .2-.4.3-.8.3-1.2 0-.6-.2-1.2-.5-1.7-.4-.6-1-1.1-1.6-1.5-.7-.5-1.6-1-2.5-1.3-.6-.3-1.2-.6-1.8-.8-.5-.2-.9-.4-1.4-.6-3-1.2-5.3-2.8-6.8-4.6-1.5-1.9-2.3-4.1-2.3-6.7 0-2.1.4-3.9 1.3-5.3.8-1.5 2-2.7 3.3-3.7 1.6-1 3.2-1.7 4.9-2.1 1.8-.4 3.8-.6 5.8-.6 2.2 0 3.9.1 5.3.4 1.4.2 2.8.6 4.3 1.1l.3.1v9.2l-.8-.5c-.6-.4-1.3-.8-2-1.2-.8-.3-1.5-.6-2.2-.8-.8-.2-1.6-.4-2.3-.5h-.3c-1.8-.2-3-.2-4.3.1-.7.2-1.4.4-1.8.7-.6.4-1 .7-1.2 1.1-.2.4-.3.8-.3 1.3s.2 1 .4 1.4c.3.4.7.9 1.2 1.2.5.4 1.3.9 2.1 1.3.2.1.5.2.7.3.7.3 1.4.7 2.2.9 1.4.6 2.9 1.3 4.2 2 1.2.7 2.2 1.5 3.2 2.5.9.9 1.5 1.9 2.1 3.3.5 1.2.7 2.5.7 4.2 0 2.2-.4 4.1-1.3 5.5-.9 1.5-2 2.8-3.5 3.7-1.4.9-3 1.5-5 2-1.5.4-3.5.6-5.6.6zm-10.2-3c1.2.6 2.8 1.1 4.4 1.5 1.9.3 3.9.5 5.8.5 2 0 3.9-.2 5.7-.6 1.8-.4 3.4-1 4.6-1.8 1.3-.8 2.4-2 3.1-3.3.8-1.3 1.1-3 1.1-5.1 0-1.5-.2-2.7-.7-3.8-.5-1.2-1.1-2.1-1.9-2.9-.9-.9-1.9-1.7-3-2.3-1.3-.7-2.7-1.4-4-2-.8-.3-1.6-.7-2.3-1-.3-.1-.5-.2-.7-.3-.9-.4-1.7-1-2.3-1.3-.7-.4-1.2-1-1.6-1.6-.4-.6-.6-1.3-.6-2s.1-1.3.5-1.9c.3-.5.8-1 1.5-1.4.5-.4 1.3-.7 2.1-.9.9-.2 1.7-.3 2.7-.3.6 0 1.3.1 2 .2h.3c.8.1 1.7.3 2.5.5.7.2 1.5.5 2.4.8.5.3 1 .5 1.4.8v-6.7c-1.3-.5-2.5-.8-3.8-1-1.4-.3-3-.4-5.1-.4-2 0-3.8.2-5.6.6-1.6.4-3 1-4.5 1.9-1.2.8-2.3 2-3 3.3-.8 1.3-1.1 2.9-1.1 4.9 0 2.4.7 4.4 2.1 6.1 1.3 1.7 3.5 3.2 6.4 4.4.5.2.9.4 1.4.6.7.3 1.3.5 1.9.8.9.4 1.9.9 2.7 1.4.6.5 1.3 1 1.8 1.7.4.7.7 1.5.7 2.3 0 .7-.2 1.2-.5 1.8-.3.6-.8 1-1.4 1.4-.6.4-1.4.7-2.1.9-.9.2-1.8.3-2.9.3-2 0-3.8-.3-5.6-1-1.7-.7-3.1-1.4-4.3-2.3v7.2zm-21.6 2.9c-10.5 0-15.9-5.8-15.9-17.2v-22.4h9.6v22.5c0 5.9 2.2 8.7 6.7 8.7 4.4 0 6.6-2.7 6.6-8.4v-22.8h9.5v22.5h-.1c-.2 11.3-5.7 17.1-16.4 17.1zm-14.9-38.6v21.4c0 10.9 4.9 16.2 14.9 16.2 10.4 0 15.4-5.4 15.4-16.6v-.5h.1v-20.5h-7.5v21.8c0 7.8-4.1 9.4-7.6 9.4-5.1 0-7.7-3.3-7.7-9.7v-21.5h-7.6zm-223 38.6c-5.4 0-10-1.8-13.7-5.4-3.5-3.6-5.2-8.3-5.2-14.2 0-6.2 1.7-11 5.3-14.8 3.5-3.8 8.3-5.7 14.2-5.7 5.5 0 10 1.8 13.5 5.5 3.4 3.6 5.1 8.4 5.1 14.3 0 6.1-1.8 11.1-5.3 14.7-3.5 3.7-8.2 5.6-13.9 5.6zm.6-39.1c-5.6 0-10 1.7-13.4 5.3-3.4 3.6-5.1 8.2-5.1 14.2 0 5.5 1.7 10.1 5 13.5 3.5 3.5 7.7 5.1 12.9 5.1 5.4 0 9.8-1.8 13.1-5.2 3.4-3.5 5.1-8.1 5.1-14.1 0-5.6-1.6-10.2-4.9-13.7-3.2-3.4-7.5-5.1-12.7-5.1zm-46.2 39.1c-5.9 0-10.7-1.8-14.1-5.3-3.4-3.5-5.1-8.2-5.1-14 0-6.2 1.9-11.2 5.7-15.1 3.9-3.9 8.9-5.8 15-5.8 3.6 0 6.8.5 9.6 1.4l.3.1v9.4l-.8-.5c-2.5-1.5-5.3-2.2-8.4-2.2-3.5 0-6.1 1.1-8.2 3.2-2.1 2.1-3.2 5-3.2 8.8 0 3.6 1 6.4 3 8.5 2 2.1 4.6 3.1 7.9 3.1 3.3 0 6.2-.8 8.8-2.3l.8-.4v8.9l-.3.1c-2.9 1.4-6.6 2.1-11 2.1zm1.5-39.2c-5.8 0-10.6 1.9-14.2 5.6-3.6 3.6-5.5 8.4-5.5 14.3 0 5.5 1.6 10 4.9 13.4 3.2 3.3 7.7 4.9 13.3 4.9 4.1 0 7.6-.6 10.3-1.8v-6.5c-2.6 1.4-5.5 2-8.6 2-3.6 0-6.4-1.1-8.7-3.5-2.2-2.3-3.2-5.3-3.2-9.1 0-4 1.2-7.2 3.4-9.5 2.3-2.4 5.2-3.5 9-3.5 3 0 5.8.7 8.2 1.9v-7c-2.6-.8-5.6-1.2-8.9-1.2zM543 335.4c-10.6 0-15.9-5.8-15.9-17.2v-22.4h9.6v22.5c0 5.9 2.2 8.7 6.7 8.7 4.4 0 6.6-2.7 6.6-8.4v-22.8h9.5v22.5h-.1c-.2 11.3-5.7 17.1-16.4 17.1zm-14.9-38.6v21.4c0 10.9 4.9 16.2 14.9 16.2 10.4 0 15.4-5.4 15.4-16.6v-.5h.1v-20.5H551v21.8c0 7.8-4.1 9.4-7.6 9.4-5.1 0-7.7-3.3-7.7-9.7v-21.5h-7.6zm253.6 38h-15v-39H781c4.2 0 7.7.8 10 2.4 2.4 1.6 3.6 3.9 3.6 7 0 2.1-.7 4-2.2 5.7-1.1 1.2-2.4 2.1-3.9 2.8 2 .5 3.7 1.4 5.1 2.8 1.7 1.8 2.5 3.9 2.5 6.4 0 3.7-1.3 6.5-3.9 8.7-2.6 2.1-6.2 3.2-10.5 3.2zm-14-1h14c4.1 0 7.4-1 9.9-3 2.4-2 3.5-4.6 3.5-7.9 0-2.2-.8-4.1-2.3-5.7-1.6-1.6-3.7-2.6-6.2-2.8h-.4v-.9l.4-.1c2-.5 3.7-1.5 5.1-3.1 1.3-1.5 2-3.2 2-5.1 0-2.8-1-4.8-3.2-6.2-2.1-1.5-5.4-2.2-9.4-2.2h-13.3v37zm-130 1h-15.9v-.6h-.1v.5h-23.1v-38.9h9.5v31h14v.4h2.9v-23.7h-3.2v-7.6h15.8v7.6h-3.1v23.7h3.2v7.6zm-14.9-1h13.9v-5.6h-3.2v-25.7h3.1v-5.6h-13.8v5.6h3.2v25.7h-3.2v5.6zm-23.2-.1h21.5v-5.9h-14v-31h-7.5v36.9zm-19.3 1.1h-15v-39h14.3c4.2 0 7.7.8 10 2.4 2.4 1.6 3.6 3.9 3.6 7 0 2.1-.7 4-2.2 5.7-1.1 1.2-2.4 2.1-3.9 2.8 2 .5 3.7 1.4 5.1 2.8 1.7 1.7 2.5 3.8 2.5 6.4 0 3.6-1.3 6.5-3.9 8.7-2.6 2.1-6 3.2-10.5 3.2zm-14-1h14c4.3 0 7.5-1 9.9-3 2.4-2 3.5-4.6 3.5-7.9 0-2.3-.7-4.1-2.3-5.6-1.6-1.6-3.7-2.6-6.2-2.9h-.4v-.9l.4-.1c2-.5 3.7-1.5 5.1-3.1 1.3-1.5 2-3.2 2-5.1 0-2.8-1-4.8-3.2-6.2-2.1-1.5-5.4-2.2-9.4-2.2h-13.3v37zm-301.6 1h-15.9v-7.6h3.2v-23.7h-3.2v-7.6h15.9v7.6h-3.2v23.7h3.2v7.6zm-14.9-1h13.9v-5.6h-3.2v-25.7h3.2v-5.6h-13.9v5.6h3.2v25.7h-3.2v5.6zm675.1.9h-11l-6-9.9c-.3-.5-.7-1-1-1.5l-.3-.4c-.4-.6-.8-1.1-1.1-1.4-.4-.4-.7-.6-1.2-.9-.3-.1-.7-.2-1.2-.2h-1.8v14.5h-9.5V296h14c9.5 0 14.3 3.6 14.3 10.8 0 1.3-.2 2.6-.6 3.9-.4 1.1-1 2.1-1.8 3.1s-1.7 1.8-2.9 2.4c-.7.5-1.5.9-2.5 1.2.2.1.4.3.6.5.5.4 1 .9 1.5 1.4.5.5 1.1 1.2 1.5 1.8.1.2.3.4.4.6.3.4.6.8.8 1.3l7.8 11.7zm-10.4-1h8.6l-6.8-10.4c-.2-.4-.5-.8-.8-1.2-.1-.2-.3-.4-.4-.6-.4-.6-.8-1.1-1.3-1.6s-1-1-1.5-1.4c-.5-.4-.9-.6-1.4-.8l-.3-.1v-.9l.4-.1c1.3-.3 2.4-.8 3.3-1.4 1-.6 1.9-1.3 2.6-2.2.7-.9 1.3-1.9 1.6-2.9.4-1.1.6-2.3.6-3.5 0-6.6-4.4-9.8-13.3-9.8h-13v36.9h7.5v-14.5h2.8c.7 0 1.3.1 1.7.4.6.4 1 .7 1.4 1.1.4.4.8 1 1.3 1.6l.3.4c.3.5.7 1 1 1.6l5.7 9.4zm-25 1h-10.4l-2.7-8.4h-12.8l-2.7 8.4h-10.3l.2-.5h-.3v.5h-23.1v-38.9h9.5v31h14v7l13.9-38h10.8l13.9 38.9zm-9.6-1h8.2L875 296.8h-9.4l-13.4 36.9h8.1l2.7-8.4h14.2l2.7 8.4zm-51.4 0H850v-5.9h-14v-31h-7.5v36.9zm-4.7 1h-23.7v-38.9h22.8v7.9h-13.3v7.4H822v7.9h-12.4v7.7h14.2v8zm-22.7-1h21.7v-6h-14.2V318H821v-5.9h-12.4v-9.4h13.3v-5.9h-20.8v36.9zm-65.2 1h-9.5v-38.9h22.9v8h-13.4v8.3h12.3v7.9h-12.3v14.7zm-8.5-1h7.5V319h12.3v-5.9h-12.3v-10.3h13.4v-6h-20.9v36.9zm-222.2 1h-9.5v-38.9h13.9c9.8 0 14.8 4.2 14.8 12.6 0 3.9-1.4 7.2-4.3 9.6-2.7 2.4-6.4 3.6-11.3 3.6h-3.6v13.1zm-8.5-1h7.5v-13.1h4.6c4.6 0 8.1-1.1 10.7-3.4 2.6-2.2 3.9-5.2 3.9-8.8 0-7.8-4.5-11.6-13.8-11.6h-12.9v36.9zm-4.8 1h-23.7v-38.9H491v7.9h-13.3v7.4h12.4v7.9h-12.4v7.7h14.2v8zm-22.7-1h21.7v-6h-14.2V318h12.4v-5.9h-12.4v-9.4H490v-5.9h-20.8v36.9zm-1.8 1h-11l-6-9.9c-.3-.5-.6-1-1-1.5l-.3-.5c-.4-.6-.8-1-1.1-1.4-.4-.4-.7-.6-1.2-.9-.3-.1-.7-.2-1.2-.2h-1.8v14.5h-9.5v-38.9h14c9.5 0 14.3 3.6 14.3 10.8 0 1.3-.2 2.6-.6 3.9-.4 1.3-1.1 2.3-1.8 3.1-.8 1-1.7 1.8-2.9 2.4-.7.5-1.5.9-2.5 1.2.2.1.4.3.6.5.5.4 1 .9 1.5 1.4.5.5 1.1 1.2 1.5 1.8.1.2.3.4.4.6.3.4.6.8.8 1.3l7.8 11.8zm-10.4-1h8.6l-6.8-10.4c-.2-.4-.5-.8-.8-1.2-.1-.2-.3-.4-.4-.6-.4-.6-.8-1.1-1.3-1.6s-1-1-1.5-1.4c-.5-.4-.9-.6-1.4-.8l-.3-.1v-.9l.4-.1c1.3-.3 2.4-.8 3.3-1.4 1-.6 1.9-1.3 2.6-2.2.7-.9 1.2-1.7 1.6-2.9.4-1.2.6-2.3.6-3.5 0-6.6-4.4-9.8-13.3-9.8h-13v36.9h7.5v-14.5h2.8c.7 0 1.3.1 1.7.4.6.4 1 .7 1.4 1.1.4.4.8 1 1.3 1.6l.3.4c.3.5.7 1 1 1.6l5.7 9.4zm-40.1 1h-23.7v-38.9H416v7.9h-13.3v7.4h12.4v7.9h-12.4v7.7h14.2v8zm-22.7-1h21.7v-6h-14.2V318h12.4v-5.9h-12.4v-9.4H415v-5.9h-20.8v36.9zm-7.3 1h-9.6v-15.4h-14.7v15.4h-9.5v-38.9h9.5v15.1h14.7v-15.1h9.6v38.9zm-8.6-1h7.6v-36.9h-7.6v15.1h-16.7v-15.1h-7.5v36.9h7.5v-15.4h16.7v15.4zm-38.7 1H330v-30.9h-10.8v-7.9h31.1v7.4h-.4v.5h-10.3v30.9zm-8.6-1h7.6v-30.9h10.7v-5.9h-29.1v5.9H331v30.9zm-28.1 1h-9.4l-15.7-24c-.4-.5-.7-1.1-1-1.5 0 1.1.1 2.5.1 4.3v21.3h-9.1v-38.9h10l15.1 23.3.9 1.5c0-.8-.1-1.9-.1-3.3V296h9.1v38.7zm-8.8-1h7.8v-36.8h-7.1v20.4c0 3 .1 4.6.2 5.1l.1.6h-.9l-.1-.2c-.2-.3-.3-.5-.5-.8-.4-.7-.9-1.5-1.4-2.2l-14.9-22.9h-8.4v36.9h7.1v-20.3c0-3-.1-5.1-.2-6.1v-.5h.8l.2.3c.5.9 1.1 1.9 1.9 3.1l15.4 23.4zm486.2-5.2h-5.1v-11.1h5.1c2.2 0 3.7.4 4.9 1.4 1.2 1 1.9 2.4 1.9 4 0 1.7-.7 3.2-1.9 4.2s-2.9 1.5-4.9 1.5zm-4.1-1h4.1c1.8 0 3.2-.4 4.3-1.3 1-.8 1.5-2 1.5-3.4 0-1.3-.5-2.4-1.5-3.2-1-.8-2.4-1.2-4.3-1.2h-4.1v9.1zm-197.3 1h-5.1v-11.1h5.1c2.2 0 3.7.4 4.9 1.4 1.3 1 1.9 2.4 1.9 4 0 1.7-.7 3.2-1.9 4.2s-2.9 1.5-4.9 1.5zm-4.1-1h4.1c1.8 0 3.2-.4 4.3-1.3 1-.8 1.5-2 1.5-3.4 0-1.3-.5-2.4-1.5-3.2-1-.8-2.3-1.2-4.3-1.2h-4.1v9.1zm128.6.6c-2.9 0-5.4-1.2-7.3-3.5-1.8-2.4-2.7-5.4-2.7-9.2 0-3.7.9-6.7 2.7-9.2 1.8-2.4 4.3-3.6 7.5-3.6 3 0 5.5 1.2 7.3 3.5 1.7 2.2 2.6 5.4 2.6 9.5 0 3.8-.9 6.9-2.7 9.1-1.8 2.2-4.4 3.4-7.4 3.4zm.2-24.5c-2.9 0-5.1 1.1-6.7 3.2-1.7 2.3-2.5 5.1-2.5 8.6 0 3.6.8 6.4 2.5 8.6 1.7 2.1 3.8 3.1 6.5 3.1s5-1 6.6-3c1.6-2 2.5-4.9 2.5-8.5 0-3.8-.8-6.8-2.4-8.9-1.6-2.1-3.7-3.1-6.5-3.1zm171.9 16.2h-11.1l4.3-13.5c.4-1 .6-2 .7-3.2v-.5h1.1v.5c.1 1.2.3 2.3.6 3.3l4.4 13.4zm-9.7-1h8.3l-3.9-12c-.1-.3-.2-.7-.3-1l-.3.9-3.8 12.1zm-357.7-3.6h-3.9v-12.8h3.9c4.8 0 7.3 2.1 7.3 6.3 0 4.3-2.5 6.5-7.3 6.5zm-2.9-1h2.9c4.2 0 6.3-1.8 6.3-5.5 0-3.6-2.1-5.3-6.3-5.3h-2.9v10.8zm399.2-.4h-4.2v-11.6h4.4c5.3 0 6.4 3 6.4 5.5 0 1.7-.6 3.1-1.8 4.4-1.2 1.1-2.8 1.7-4.8 1.7zm-3.2-1h3.2c1.7 0 3.1-.5 4-1.5 1-1 1.6-2.2 1.6-3.6 0-3-1.8-4.5-5.4-4.5h-3.4v9.6zm-454.2 1h-4.2v-11.6h4.4c5.3 0 6.4 3 6.4 5.5 0 1.7-.6 3.1-1.8 4.4-1.2 1.1-2.8 1.7-4.8 1.7zm-3.2-1h3.2c1.7 0 3.1-.5 4-1.5 1-1 1.6-2.2 1.6-3.6 0-3-1.8-4.5-5.4-4.5h-3.4v9.6zm335.7-.6h-4.3v-10h3.8c5.5 0 6.7 2.6 6.7 4.7 0 1.7-.5 2.9-1.7 3.9s-2.6 1.4-4.5 1.4zm-3.3-1h3.3c1.7 0 2.9-.4 3.9-1.2.9-.8 1.3-1.7 1.3-3.1 0-2.5-1.9-3.7-5.7-3.7h-2.8v8zm-198.1 1h-4.3v-10h3.8c5.5 0 6.7 2.6 6.7 4.7 0 1.7-.5 2.9-1.7 3.9s-2.6 1.4-4.5 1.4zm-3.3-1h3.3c1.7 0 2.9-.4 3.9-1.2.9-.8 1.3-1.7 1.3-3.1 0-2.5-1.9-3.7-5.7-3.7h-2.8v8zm-58.9-29.8c-2 0-4-.2-6-.5-2-.5-3.5-1-4.9-1.7l-.3-.1v-9.9l.8.7c1.3 1.1 2.9 2 4.9 2.8 1.9.6 3.7 1 5.2 1 1.1 0 1.9-.1 2.7-.3.7-.2 1.4-.4 1.9-.7.4-.3.8-.6 1-1 .2-.4.3-.8.3-1.2 0-.6-.2-1.2-.5-1.7-.4-.6-1-1.1-1.6-1.5-.7-.5-1.6-1-2.5-1.3-.6-.3-1.2-.6-1.8-.8-.5-.2-.9-.4-1.4-.6-3-1.2-5.3-2.8-6.8-4.6-1.5-1.9-2.3-4.1-2.3-6.7 0-2.1.4-3.9 1.3-5.3.8-1.5 2-2.7 3.4-3.7s3.1-1.7 4.9-2.1c1.8-.4 3.8-.6 5.8-.6 2.2 0 3.9.1 5.3.4 1.4.2 2.8.6 4.3 1.1l.3.1v9.2l-.8-.5c-.6-.4-1.3-.8-2-1.2-.8-.4-1.5-.6-2.2-.8-.8-.2-1.6-.4-2.3-.5h-.3c-1.8-.2-3.1-.2-4.4.1-.7.2-1.4.4-1.8.7-.6.4-1 .7-1.2 1.1-.2.4-.3.8-.3 1.3s.2 1 .4 1.4c.3.4.7.9 1.2 1.2s1.3.9 2.1 1.3c.2.1.5.2.7.3.7.3 1.4.7 2.2.9 1.4.6 2.9 1.3 4.2 2 1.2.7 2.2 1.5 3.2 2.5.9.9 1.5 1.9 2.1 3.3.5 1.2.7 2.5.7 4.2 0 2.2-.4 4.1-1.3 5.5-.9 1.5-2 2.8-3.5 3.7-1.4.9-3 1.5-5 2-1.6.3-3.6.5-5.7.5zm-10.2-3c1.3.6 2.7 1 4.4 1.5 1.9.3 3.9.5 5.8.5 2 0 3.9-.2 5.7-.6 1.8-.4 3.4-1 4.6-1.8 1.3-.8 2.4-2 3.1-3.3.8-1.3 1.1-3 1.1-5.1 0-1.5-.2-2.7-.7-3.8-.5-1.2-1.1-2.1-1.9-2.9-.9-.9-1.9-1.7-3-2.3-1.3-.7-2.7-1.4-4-2-.8-.3-1.6-.7-2.3-1-.3-.1-.5-.2-.7-.3-.9-.4-1.7-1-2.3-1.3-.7-.4-1.2-1-1.6-1.6-.4-.6-.6-1.3-.6-2s.1-1.3.5-1.9c.3-.5.8-1 1.5-1.4.5-.4 1.3-.6 2.1-.9.9-.2 1.7-.3 2.7-.3.7 0 1.3.1 2 .2h.3c.8.1 1.7.3 2.5.5s1.5.4 2.4.8c.5.2 1 .5 1.4.7v-6.7c-1.3-.5-2.5-.8-3.8-1-1.4-.3-3-.4-5.1-.4-2 0-3.8.2-5.6.6-1.7.4-3.2 1-4.5 1.9-1.2.9-2.3 2-3 3.3-.8 1.3-1.1 2.9-1.1 4.9 0 2.4.7 4.4 2.1 6.1 1.3 1.7 3.5 3.2 6.4 4.4.5.2.9.4 1.4.6.7.3 1.3.5 1.9.8 1 .4 1.9.9 2.7 1.4.6.5 1.3 1 1.8 1.7.4.7.7 1.5.7 2.3 0 .7-.2 1.2-.5 1.8-.3.6-.8 1-1.4 1.4-.6.4-1.4.7-2.1.9-.8.2-1.8.3-2.9.3-1.7 0-3.5-.3-5.6-1-1.7-.7-3.1-1.4-4.3-2.3v7.3zm86.3 2.9c-5.9 0-10.7-1.8-14.1-5.3-3.4-3.5-5.1-8.2-5.1-14 0-6.2 1.9-11.2 5.7-15.1 3.8-3.9 8.8-5.8 15-5.8 3.6 0 6.8.5 9.6 1.4l.3.1v9.4l-.8-.5c-2.5-1.5-5.3-2.2-8.4-2.2-3.5 0-6.2 1.1-8.2 3.2-2.1 2.1-3.2 5-3.2 8.8 0 3.6 1 6.4 3 8.5 2 2.1 4.6 3.1 7.9 3.1 3.3 0 6.2-.8 8.8-2.3l.8-.4v8.9l-.3.1c-2.9 1.4-6.6 2.1-11 2.1zm1.5-39.2c-5.9 0-10.7 1.9-14.2 5.5-3.6 3.6-5.5 8.5-5.5 14.4 0 5.5 1.6 10 4.9 13.4 3.2 3.3 7.7 4.9 13.3 4.9 4.1 0 7.6-.6 10.3-1.8V272c-2.6 1.4-5.5 2-8.6 2-3.6 0-6.4-1.1-8.7-3.5-2.2-2.3-3.2-5.3-3.2-9.1 0-4 1.2-7.2 3.4-9.5 2.3-2.4 5.2-3.5 9-3.5 3 0 5.8.7 8.2 1.9v-7c-2.6-.8-5.6-1.2-8.9-1.2zM552 281.3c-5.4 0-10-1.8-13.7-5.4-3.5-3.6-5.2-8.3-5.2-14.2 0-6.2 1.7-11 5.3-14.8 3.5-3.8 8.3-5.7 14.2-5.7 5.5 0 10.1 1.8 13.5 5.5 3.4 3.6 5.1 8.4 5.1 14.3 0 6.1-1.8 11.1-5.3 14.7-3.6 3.7-8.3 5.6-13.9 5.6zm.6-39.1c-5.6 0-10 1.7-13.4 5.3-3.4 3.6-5.1 8.2-5.1 14.2 0 5.5 1.7 10.1 5 13.5 3.5 3.5 7.7 5.1 12.9 5.1 5.3 0 9.8-1.8 13.1-5.2 3.4-3.5 5.1-8.1 5.1-14.1 0-5.6-1.6-10.2-4.9-13.7-3.2-3.4-7.5-5.1-12.7-5.1zm147.3 38.5h-9.5V267l-11.6-23.8v6.5H668v30.9h-9.5v-30.9h-10.8v-7.9h41.2l6.2 14.4c.1.2.2.7.4 1.4.2-.6.3-1 .5-1.3l6.3-14.5h10.1l-12.6 25v13.9zm-8.5-1h7.5v-13.1l.1-.1 11.9-23.7H703l-6.1 13.9c-.2.5-.5 1.5-.8 2.9l-.1.4h-.9l-.1-.4c-.5-1.9-.8-2.8-.9-3.1l-6-13.8h-8.6l11.7 24v13zm-31.9-.1h7.5v-30.9h10.8v-5.9h-29.1v5.9h10.8v30.9zm-39.3 1.1h-15.9v-7.6h3.2v-23.7h-3.2v-7.6h15.9v7.6H617v23.7h3.2v7.6zm-14.9-1h13.9v-5.6H616v-25.7h3.2v-5.6h-13.9v5.6h3.2v25.7h-3.2v5.6zm-184.5 1h-15v-39h14.3c4.2 0 7.7.8 10 2.4 2.4 1.6 3.6 3.9 3.6 7 0 2.1-.7 4-2.2 5.7-1.1 1.2-2.4 2.1-3.9 2.8 2 .5 3.7 1.4 5.1 2.8 1.7 1.8 2.5 3.9 2.5 6.4 0 3.7-1.3 6.5-3.9 8.7-2.7 2.1-6.2 3.2-10.5 3.2zm-14-1h14c4.1 0 7.4-1 9.9-3 2.4-2 3.5-4.6 3.5-7.9 0-2.2-.8-4.1-2.3-5.7-1.6-1.6-3.7-2.6-6.2-2.8h-.4v-.8l.4-.2c2-.5 3.7-1.5 5.1-3.1 1.3-1.5 2-3.2 2-5.1 0-2.8-1-4.8-3.2-6.2-2.1-1.5-5.4-2.2-9.4-2.2h-13.3v37zm-4.1 1h-15.9v-7.6h3.2v-23.7h-3.2v-7.6h15.9v7.6h-3.2v23.7h3.2v7.6zm-14.9-1h13.9v-5.6h-3.2v-25.7h3.2v-5.6h-13.9v5.6h3.2v25.7h-3.2v5.6zm-16.1 1h-15v-39H371c4.2 0 7.7.8 10 2.4 2.4 1.6 3.6 3.9 3.6 7 0 2.1-.7 4-2.2 5.7-1.1 1.2-2.4 2.1-3.9 2.8 2 .5 3.7 1.4 5.1 2.8 1.7 1.8 2.5 3.9 2.5 6.4 0 3.7-1.3 6.5-3.9 8.7-2.7 2.1-6.2 3.2-10.5 3.2zm-14-1h14c4.1 0 7.4-1 9.9-3 2.4-2 3.5-4.6 3.5-7.9 0-2.2-.8-4.1-2.3-5.7-1.6-1.6-3.7-2.6-6.2-2.8h-.4v-.8l.4-.2c2-.5 3.7-1.5 5.1-3.1 1.3-1.5 2-3.2 2-5.1 0-2.8-1-4.8-3.2-6.2-2.1-1.5-5.4-2.2-9.4-2.2h-13.3v37zm289.3.9h-23.7v-38.9h22.8v7.9h-13.3v7.4h12.4v7.9h-12.4v7.7H647v8zm-22.7-1H646v-6h-14.2v-9.7h12.4V258h-12.4v-9.4h13.3v-5.9h-20.8v36.9zm-135.1 1h-23.7v-38.9h22.8v7.9H475v7.4h12.4v7.9H475v7.7h14.2v8zm-22.7-1h21.7v-6H474v-9.7h12.4V258H474v-9.4h13.3v-5.9h-20.8v36.9zm-4.3 1h-23.1v-38.9h9.5v31h14v7.4h-.4v.5zm-22.1-1h21.5v-5.9h-14v-31h-7.5v36.9zm-100.7 1h-23.7v-38.9h22.8v7.9h-13.3v7.4h12.4v7.9h-12.4v7.7h14.2v8zm-22.7-1h21.7v-6h-14.2v-9.7h12.4V258h-12.4v-9.4h13.3v-5.9h-20.8v36.9zm-7.3 1h-9.6v-15.4h-14.7v15.4h-9.5v-38.9h9.5v15.1h14.7v-15.1h9.6v38.9zm-8.6-1h7.6v-36.9h-7.6v15.1h-16.7v-15.1h-7.5v36.9h7.5v-15.4h16.7v15.4zm-38.7 1h-9.6v-30.9h-10.8v-7.9h31.1v7.4h-.4v.5h-10.3v30.9zm-8.6-1h7.6v-30.9h10.7v-5.9h-29.1v5.9h10.8v30.9zm166-5.2h-5.1v-11.1h5.1c2.2 0 3.7.4 4.9 1.4 1.3 1 1.9 2.4 1.9 4 0 1.7-.7 3.2-1.9 4.2s-2.9 1.5-4.9 1.5zm-4.1-1h4.1c1.8 0 3.2-.4 4.3-1.3 1-.8 1.5-2 1.5-3.4 0-1.3-.5-2.4-1.5-3.2-1-.8-2.4-1.2-4.3-1.2h-4.1v9.1zm-45.1 1h-5.1v-11.1h5.1c2.2 0 3.7.4 4.9 1.4 1.3 1 1.9 2.4 1.9 4 0 1.7-.7 3.2-1.9 4.2s-2.9 1.5-4.9 1.5zm-4.1-1h4.1c1.8 0 3.2-.4 4.3-1.3 1-.8 1.5-2 1.5-3.4 0-1.3-.5-2.4-1.5-3.2-1-.8-2.4-1.2-4.3-1.2h-4.1v9.1zm185.9.6c-2.9 0-5.4-1.2-7.3-3.5-1.8-2.4-2.7-5.4-2.7-9.2 0-4 .9-7 2.7-9.2 1.8-2.4 4.3-3.6 7.5-3.6 3 0 5.5 1.2 7.3 3.5 1.7 2.2 2.6 5.4 2.6 9.5 0 3.8-.9 6.9-2.7 9.1-1.8 2.2-4.4 3.4-7.4 3.4zm.2-24.5c-2.9 0-5.1 1.1-6.7 3.2-1.7 2.1-2.5 4.9-2.5 8.6 0 3.6.8 6.4 2.5 8.6 1.7 2.1 3.8 3.1 6.5 3.1s5-1 6.6-3c1.6-2 2.5-4.9 2.5-8.5 0-3.8-.8-6.8-2.4-8.9-1.6-2.1-3.7-3.1-6.5-3.1zM418.7 258h-4.3v-10h3.8c5.5 0 6.7 2.6 6.7 4.7 0 1.6-.5 2.8-1.7 3.9-1.2 1-2.6 1.4-4.5 1.4zm-3.3-1h3.3c1.7 0 2.9-.4 3.9-1.2.9-.8 1.3-1.8 1.3-3.1 0-2.5-1.9-3.7-5.7-3.7h-2.8v8zm-45.9 1h-4.3v-10h3.8c5.5 0 6.7 2.6 6.7 4.7 0 1.6-.5 2.8-1.7 3.9-1.2 1-2.6 1.4-4.5 1.4zm-3.3-1h3.3c1.7 0 2.9-.4 3.9-1.2.9-.8 1.3-1.8 1.3-3.1 0-2.5-1.9-3.7-5.7-3.7h-2.8v8z"/><path fill="#009de0" d="M199 365.8l-74.7-15.9c-1.2.7-7.5 4.5-15.9 4.5-8.6 0-16.9-7.8-18.2-9H15.4l.1-.5 11.2-117.7 17.1.8v1l-16.1-.8-11.2 116.2h74.1l.1.1c.1.1 9 8.9 17.6 8.9 8.7 0 15.5-4.4 15.5-4.4l.2-.1h.2l73.9 15.7 11.2-118.5-17.6-4.4.2-1 18.4 4.6L199 365.8z"/><path fill="#009de0" d="M49.8 214.2c-2.5 0-4.5 5-4.5 11.3v.5l7.1-9.7c-.7-1.3-1.6-2.1-2.6-2.1zM91.5 204c-2.2 0-4.1 4.4-4.4 10.3 4.5.3 7.5 1.1 8.9 1.7-.1-6.7-2-12-4.5-12zm21.4 24.5c2-1.3 3.4-6.2 3.4-12 0-6.8-2-12.4-4.5-12.4s-4.5 5.6-4.5 12.4c0 2.8.3 5.4.9 7.4 1.5 1.1 3.1 2.8 4.7 4.6zm23.7-12.1c0-6.8-2-12.4-4.5-12.4s-4.5 5.6-4.5 12.4c0 4.7 1 8.8 2.4 10.9 1.6-1 3.5-1.9 5.5-2.6.6-2.1 1.1-5.1 1.1-8.3zm40.6 10.2c0-6.2-2-11.3-4.5-11.3-2.4 0-4.3 4.7-4.5 10.6l8.9 3.3c0-.8.1-1.7.1-2.6z"/><g><path fill="#009de0" d="M189.9 353.3l-14.2-26.1c-1.5-.7-14.6-6.7-31.3-8.9-16.5-2-31.3 5.6-33.3 6.6l-.1.6-.4-.3-.6.3.1-.7c-2-1.4-16.5-11.1-28.9-13.2-12.7-2.2-33.6-.2-35.8 0l-21.2 23.5 12.6-97.5 14.9-21.7h.2c1.4-.2 34.2-4.5 45.4 0 10.1 4 20 16.8 22.3 19.9 1.8-2.8 9.4-13.1 27.1-13.1 20.2 0 42.8 11.2 43 11.4l.2.1 9.1 20.5v.1l-9.1 98.5zM138.8 317c1.9 0 3.8.1 5.8.3 17.9 2.3 31.6 9 31.8 9l.1.1 12.8 23.5 8.8-95.1-8.9-19.9c-2-1-23.4-11.2-42.4-11.2s-26 12.1-26.6 13.1l-8.9 86.9c3.1-1.5 14.3-6.7 27.5-6.7zM37.9 238l-12.2 94.1 19.4-21.5h.2c.2 0 22.7-2.3 36.2 0 11.8 2 25.6 10.9 28.8 13.1l8.9-86.9c-1.2-1.6-11.8-15.8-22.2-20-10.5-4.2-41.7-.4-44.6 0L37.9 238z"/><path fill="#009de0" d="M144.5 317.9c-18-2.3-33.8 6.8-33.8 6.8s-15.8-11.3-29.3-13.5c-13.5-2.3-36.1 0-36.1 0L24 335l70.9.9s4.5 6.8 13.5 9c9 2.3 13.5-4.5 13.5-4.5l68.8 14.7-2.3-9-12.4-19.2s-13.5-6.8-31.5-9z"/></g><path fill="#009de0" d="M173.1 333.1l-.5-.1-128.9-18.1 7.9-98.5h1l-7.9 97.7 127.6 17.8 15.6-96.6 1.4-1.2.6.8-1 1z"/><path fill="#009de0" d="M129.8 152.2c-11.3-4.5-15.8-20.3-15.8-20.3h-2.3s-4.5 15.8-15.8 20.3-15.8 11.3-15.8 15.8 2.3 18 4.5 18h56.5c2.3 0 4.5-13.5 4.5-18s-4.5-11.3-15.8-15.8zm55.1 26.2c-7.4-2.8-10.3-12.7-10.3-12.7h-1.5s-3 9.9-10.3 12.7-10.3 7-10.3 9.9 1.5 11.3 3 11.3h36.9c1.5 0 3-8.5 3-11.3s-3.1-7.1-10.5-9.9zm-124 0c-7.4-2.8-10.3-12.7-10.3-12.7h-1.5s-3 9.9-10.3 12.7-10.3 7-10.3 9.9 1.5 11.3 3 11.3h36.9c1.5 0 3-8.5 3-11.3s-3.1-7.1-10.5-9.9z"/></svg>
