<svg xmlns="http://www.w3.org/2000/svg" width="406" height="46"><path fill="#231F20" d="M146.323 34.529c2.162 0 4.027-1.699 4.027-4.115 0-2.367-1.865-4.074-4.027-4.074-2.203 0-4.074 1.706-4.074 4.074 0 2.379 1.858 4.082 4.129 4.082m-26.821-10.383l2.058-4.986c.915-2.279 1.876-5.72 1.922-5.865.092.284.994 3.69 1.987 5.865l2.065 4.986h-8.032zm-10.553 10.128h6.471l1.824-4.461h12.668l1.822 4.461h7.054L123.918 1h-.576l-14.338 33.241zm-10.267 0h6.474V13.597h-6.474v20.644zm3.26-24.157c2.204 0 4.069-1.689 4.069-4.115 0-2.37-1.865-4.066-4.069-4.066-2.213 0-4.126 1.696-4.126 4.116 0 2.504 1.953 4.065 4.082 4.065m-29.51 24.157h21.485v-5.958H79.154V1.294h-6.711v32.947zM50.317 17.467V7.245h4.563c3.213 0 5.394 1.419 5.394 5.091 0 3.639-2.113 5.131-5.423 5.131h-4.534zm-6.709 16.774h6.709V23.424h4.756c6.623 0 12.13-3.377 12.13-11.088 0-7.706-5.462-11.043-12.13-11.043H43.608v32.948zm-13.625 0h6.711V1.294h-6.711v32.947zM7.716 17.467V7.245h4.558c3.216 0 5.394 1.419 5.394 5.091 0 3.639-2.112 5.131-5.426 5.131H7.716zM1 34.241h6.716V23.424h4.749c6.626 0 12.14-3.377 12.14-11.088 0-7.706-5.467-11.043-12.14-11.043H1v32.948z"/><path fill="#EB008B" d="M398.074 25.857v.825c0 1.75-1.341 2.907-3.995 2.907-1.822 0-2.776-.683-2.776-1.839 0-1.165.711-1.892 2.348-1.892h4.423zm0-3.879h-4.759c-5.039 0-8.343 1.797-8.343 6.201 0 4.826 3.406 6.529 7.239 6.529 2.742 0 4.516-.918 6.056-3.291l-.139 2.859h6.421V22.547c0-6.495-3.984-9.346-9.216-9.346-4.793 0-6.958 1.5-8.867 3.406l3.59 3.883c.913-.837 2.207-1.901 4.65-1.901 2.113.01 3.324 1.003 3.324 3.416M373.549 45c4.796 0 7.338-2.714 7.338-7.459V13.597h-6.475v24.186c0 1.066-.468 1.639-1.483 1.639-.536 0-1.057-.282-1.583-.769l-3.219 3.876c.964 1.194 3.077 2.471 5.49 2.471m4.057-34.851c2.203 0 4.072-1.689 4.072-4.115 0-2.37-1.869-4.066-4.072-4.066-2.199 0-4.125 1.696-4.125 4.066 0 2.488 1.913 4.049 4.184 4.049m-18.435 19.02c-2.888 0-4.655-2.132-4.655-5.195 0-3.097 1.767-5.182 4.655-5.182 2.88 0 4.542 2.129 4.542 5.252.068 2.996-1.719 5.125-4.558 5.125m.016 5.571c6.339 0 11.226-4.457 11.226-10.713 0-6.301-4.887-10.794-11.226-10.794-6.329 0-11.27 4.494-11.27 10.794 0 6.278 5.009 10.678 11.254 10.678m-35.392-.398h6.472V23.185c0-2.613 1.534-4.065 4.135-4.065 2.298 0 3.406 1.277 3.406 3.629v11.493h6.474V22.316c0-5.853-3.216-9.149-7.666-9.149-2.839 0-5.245 1.35-6.492 3.822l.148-3.392h-6.472v20.645h-.005zm-11.369-8.384v.825c0 1.75-1.344 2.907-3.984 2.839-1.824 0-2.788-.683-2.788-1.839 0-1.165.714-1.892 2.353-1.892h4.418v.067zm0-3.879h-4.748c-5.039 0-8.347 1.797-8.347 6.201 0 4.826 3.406 6.529 7.239 6.495 2.738 0 4.512-.918 6.045-3.291l-.141 2.859h6.428V22.513c0-6.495-3.984-9.346-9.207-9.346-4.807 0-6.961 1.5-8.881 3.381l3.594 3.883c.915-.837 2.201-1.901 4.66-1.901 2.105.07 3.28 1.063 3.422 3.476m-24.482 12.668c6.421 0 8.388-3.097 8.388-6.875 0-4.367-3.734-5.773-6.712-6.452-2.788-.627-4.083-.775-4.083-1.937 0-.816.722-1.212 2.214-1.212 1.527 0 2.981.71 3.974 1.549l3.448-3.727c-1.671-1.744-4.071-2.851-7.432-2.851-4.37 0-7.913 1.883-7.913 6.53 0 4.258 3.123 5.819 5.961 6.529 3.313.852 4.684.852 4.684 1.989 0 .873-.676 1.256-2.788 1.256-1.926 0-3.702-.82-5.087-2.172l-3.791 3.406c1.6 2.23 4.38 3.933 9.206 3.933m-19.263-8.783v.825c0 1.75-1.341 2.907-3.981 2.839-1.832 0-2.788-.683-2.788-1.839 0-1.165.714-1.892 2.35-1.892h4.418v.067h.001zm0-3.879h-4.755c-5.036 0-8.35 1.797-8.35 6.201 0 4.826 3.406 6.529 7.239 6.495 2.746 0 4.522-.918 6.055-3.291l-.145 2.859h6.425V22.513c0-6.495-3.98-9.346-9.21-9.346-4.803 0-6.959 1.5-8.874 3.381l3.597 3.883c.907-.837 2.208-1.901 4.658-1.901 2.115.07 3.32 1.063 3.32 3.476m-49.904 12.235h6.474V23.185c0-2.805 1.144-4.065 3.646-4.065 2.448 0 3.123 1.277 3.123 3.733v11.389h6.417V23.185c0-2.805 1.106-4.065 3.608-4.065 2.446 0 3.265 1.277 3.265 3.733v11.389h6.421V22.275c0-5.667-2.971-9.108-8.105-9.108-3.022 0-5.283 1.397-6.958 3.533-1.246-2.426-3.12-3.533-5.758-3.533-2.447 0-4.369 1.107-5.805 3.626l.145-3.196h-6.474l.001 20.644zm-11.804 0h6.475V13.597h-6.475v20.644zm3.256-24.157c2.209 0 4.076-1.689 4.076-4.115 0-2.37-1.868-4.066-4.076-4.066-2.204 0-4.119 1.696-4.119 4.116 0 2.504 1.964 4.065 4.093 4.065m-19.068 19.072c-2.876 0-4.654-2.132-4.654-5.195 0-3.097 1.778-5.182 4.654-5.182 2.877 0 4.542 2.129 4.542 5.182.068 3.013-1.654 5.142-4.492 5.142m-.05 5.571c6.34 0 11.224-4.457 11.224-10.713 0-6.301-4.884-10.794-11.224-10.794-6.327 0-11.267 4.494-11.267 10.794 0 6.278 4.929 10.678 11.317 10.678m-23.939 0h.626l10.929-21.077h-6.566l-2.788 6.159c-.862 1.986-1.531 5.125-1.575 5.421-.099-.433-.819-3.485-1.685-5.421l-2.876-6.159h-7.149l11.084 21.113v-.036z"/></svg>
