<svg xmlns="http://www.w3.org/2000/svg" shape-rendering="geometricPrecision" text-rendering="geometricPrecision" viewBox="0 0 117079.2 25478.5"><defs><style>.fil1{fill-rule:nonzero;fill:#ed853e}</style></defs><g id="Ebene_x0020_1"><path fill="none" d="M0 0h117079v25479H0z"/><path d="M45446 9231v7355l-6508 1150v8l1729-89 633-34 5575-292V8989l-1429 242zm-1005-2396-4072 2138-1480-1966v2745l-4 1v7413l5556-1992V6835z" class="fil1"/><path d="M37880 15696h-1V9753l-5556-2918v8339l4033 1446 1524 2024v-2948zm-6562 891V9231l-1429-242v8340l5575 292 602 32-199-263-4549-803zm24013-1537h-3426l3335-4793v-953h-5003v1220h3250l-3340 4788v958h5184v-1220zm5249 0h-2535v-1796h2358v-1210h-2358v-1530h2535V9304h-4012v6966h4012v-1220zm7759-5746h-1329v3297c0 375 24 1015 71 1920h-33l-3025-5217h-1863v6966h1319v-3278c0-397-30-1061-90-1992h43l3030 5270h1877V9304zm4568 1229h1891V9304h-5260v1229h1892v5737h1477v-5737zm4567-19h448c477 0 828 70 1055 210s341 375 341 705c0 334-111 578-333 734-223 155-567 233-1034 233h-477v-1882zm786 3083 1663 2673h1639c-317-458-1000-1469-2048-3035 412-181 732-431 957-751 226-319 338-683 338-1093 0-702-227-1225-681-1570s-1155-517-2101-517h-2030v6966h1477v-2673h786zm8503-4293v4255c0 540-109 936-326 1189-218 252-568 378-1051 378-498 0-856-125-1072-376s-324-645-324-1182V9304h-1472v4488c0 798 248 1426 743 1885 496 459 1192 688 2087 688 594 0 1109-103 1544-310 435-206 768-503 998-891 230-387 345-838 345-1353V9304h-1472zm7608 6966 1796-5456h43c-39 877-60 1417-65 1620-4 204-7 383-7 539v3297h1377V9304h-2010l-1749 5327h-29l-1648-5327h-2011v6966h1320v-3240c0-372-30-1113-91-2225h43l1677 5465h1354z" style="fill:#134582;fill-rule:nonzero"/><path d="M0 16270h2606c788 0 1411-178 1870-534 459-355 689-851 689-1486 0-448-98-807-293-1077-196-270-514-454-955-553v-47c324-55 583-215 779-482 195-267 293-608 293-1024 0-613-224-1060-670-1341s-1163-422-2151-422H0v6966zm1477-5756h777c422 0 731 58 926 174 196 116 293 307 293 574 0 286-89 491-269 615-179 124-469 186-869 186h-858v-1549zm915 2721c826 0 1239 289 1239 867 0 321-97 559-291 715-194 155-494 233-900 233h-963v-1815h915zm5768 3035V9304H6683v6966h1477zm1880 0h2606c788 0 1412-178 1870-534 459-355 689-851 689-1486 0-448-98-807-293-1077s-514-454-955-553v-47c324-55 583-215 779-482 195-267 293-608 293-1024 0-613-224-1060-670-1341s-1163-422-2151-422h-2168v6966zm1477-5756h777c422 0 731 58 927 174 195 116 293 307 293 574 0 286-90 491-270 615-179 124-469 186-869 186h-858v-1549zm915 2721c826 0 1239 289 1239 867 0 321-97 559-291 715-194 155-494 233-900 233h-963v-1815h915zm8303 1815h-2535v-1796h2359v-1210h-2359v-1530h2535V9304h-4012v6966h4012v-1220zm5882 1220v-1220h-2825V9304h-1477v6966h4302z" class="fil1"/></g></svg>
