<svg xmlns="http://www.w3.org/2000/svg" viewBox="0 0 600 600"><path d="M125.7 478.4c0 5.3-1.4 9.5-4.1 12.6s-6.4 4.6-11 4.6-8.3-1.5-11-4.6-4.1-7.3-4.1-12.6 1.4-9.5 4.1-12.6 6.4-4.6 11-4.6 8.3 1.5 11 4.6 4.1 7.3 4.1 12.6zm-5.7 0c0-4.2-.8-7.4-2.5-9.4-1.7-2.1-4-3.1-6.9-3.1-3 0-5.3 1-7 3.1s-2.5 5.2-2.5 9.4c0 4.1.8 7.2 2.5 9.3 1.7 2.1 4 3.2 6.9 3.2s5.2-1 6.9-3.1 2.6-5.2 2.6-9.4zm31.5-23.9h-.3c-.6-.2-1.4-.4-2.4-.5-1-.2-1.8-.3-2.6-.3-2.4 0-4.1.5-5.1 1.6-1.1 1-1.6 2.9-1.6 5.7v1.1h9.9v4.6h-9.8v28.1h-5.5v-28.1h-3.7V462h3.7v-1c0-3.9 1-6.9 2.9-9s4.7-3.1 8.4-3.1c1.2 0 2.3.1 3.3.2s1.9.3 2.7.4v5h.1zm47.4 30.8c0 3-1.2 5.4-3.7 7.4-2.5 1.9-5.8 2.9-10.1 2.9-2.4 0-4.6-.3-6.7-.9s-3.7-1.2-5.1-1.9v-6.2h.3c1.7 1.3 3.7 2.3 5.8 3.1 2.1.8 4.2 1.2 6.1 1.2 2.4 0 4.3-.4 5.7-1.2 1.4-.8 2.1-2 2.1-3.7 0-1.3-.4-2.3-1.1-2.9-.7-.7-2.2-1.2-4.3-1.7-.8-.2-1.8-.4-3.1-.6s-2.4-.5-3.4-.8c-2.9-.8-4.9-1.9-6.1-3.4s-1.8-3.3-1.8-5.4c0-1.3.3-2.6.8-3.8s1.4-2.3 2.5-3.2c1.1-.9 2.5-1.6 4.2-2.2 1.7-.5 3.6-.8 5.7-.8 2 0 3.9.2 5.9.7s3.7 1.1 5 1.7v5.9h-.3c-1.4-1-3.1-1.9-5.1-2.6s-4-1.1-5.9-1.1c-2 0-3.7.4-5.1 1.2-1.4.8-2.1 1.9-2.1 3.4 0 1.3.4 2.4 1.3 3 .8.7 2.1 1.2 4 1.7 1 .2 2.2.5 3.4.7s2.3.4 3.1.6c2.6.6 4.5 1.6 5.9 3 1.4 1.6 2.1 3.6 2.1 5.9zm35.5-6.9c0 5.3-1.4 9.5-4.1 12.6-2.7 3.1-6.4 4.6-11 4.6s-8.3-1.5-11-4.6-4.1-7.3-4.1-12.6 1.4-9.5 4.1-12.6 6.4-4.6 11-4.6 8.3 1.5 11 4.6 4.1 7.3 4.1 12.6zm-5.7 0c0-4.2-.8-7.4-2.5-9.4-1.7-2.1-4-3.1-6.9-3.1-3 0-5.3 1-7 3.1s-2.5 5.2-2.5 9.4c0 4.1.8 7.2 2.5 9.3 1.7 2.1 4 3.2 6.9 3.2s5.2-1 6.9-3.1 2.6-5.2 2.6-9.4zm41 16.4h-5.5v-3.6c-1.9 1.5-3.6 2.6-5.3 3.4s-3.6 1.2-5.6 1.2c-3.4 0-6.1-1-8-3.1s-2.9-5.2-2.9-9.2V462h5.5v18.6c0 1.7.1 3.1.2 4.3.2 1.2.5 2.2 1 3 .5.9 1.2 1.5 2.1 1.9.8.4 2.1.6 3.7.6 1.4 0 3-.4 4.7-1.1s3.3-1.7 4.7-2.8V462h5.5v32.8h-.1zm27.5-.3c-1 .3-2.2.5-3.4.7-1.2.2-2.3.3-3.3.3-3.3 0-5.9-.9-7.6-2.7-1.7-1.8-2.6-4.7-2.6-8.6v-17.4h-3.7V462h3.7v-9.4h5.5v9.4h11.4v4.6h-11.4v14.9c0 1.7 0 3.1.1 4 .1 1 .4 1.9.8 2.7.4.8 1 1.4 1.8 1.7.8.4 1.9.5 3.4.5.9 0 1.8-.1 2.8-.4s1.7-.5 2.1-.7h.3v5.2h.1zm33.8.3h-5.5v-18.6c0-1.5-.1-2.9-.3-4.2s-.5-2.3-1-3.1c-.5-.8-1.2-1.4-2.1-1.8s-2.1-.6-3.6-.6-3.1.4-4.7 1.1-3.2 1.7-4.7 2.8v24.4h-5.5v-45.6h5.5v16.5c1.7-1.4 3.5-2.5 5.3-3.3s3.7-1.2 5.7-1.2c3.5 0 6.2 1.1 8.1 3.2s2.8 5.2 2.8 9.2v21.2zm56.5 0H382v-3.5c-.5.3-1.1.8-2 1.4s-1.6 1.1-2.4 1.4c-.9.4-2 .8-3.2 1.1s-2.6.5-4.2.5c-2.9 0-5.4-1-7.5-2.9s-3.1-4.4-3.1-7.5c0-2.5.5-4.5 1.6-6s2.6-2.7 4.6-3.6 4.4-1.5 7.2-1.8 5.8-.5 9-.7v-.8c0-1.3-.2-2.3-.7-3.1s-1.1-1.5-1.9-1.9-1.7-.8-2.8-.9-2.2-.2-3.4-.2c-1.4 0-3.1.2-4.8.6s-3.6.9-5.5 1.7h-.3V463c1.1-.3 2.6-.6 4.7-1s4-.5 6-.5c2.3 0 4.3.2 6 .6s3.2 1 4.4 1.9c1.2.9 2.2 2.1 2.8 3.5s1 3.2 1 5.3v22zm-5.5-8.1v-9.1c-1.7.1-3.7.2-5.9.4s-4.1.5-5.4.8c-1.6.4-2.9 1.1-3.8 2.1s-1.5 2.3-1.5 3.9c0 1.9.6 3.3 1.7 4.2s2.9 1.4 5.2 1.4c1.9 0 3.7-.4 5.3-1.1s3-1.5 4.4-2.6zm33.4-32.2h-.3c-.6-.2-1.4-.4-2.4-.5s-1.8-.3-2.6-.3c-2.4 0-4.1.5-5.1 1.6s-1.6 2.9-1.6 5.7v1.1h9.9v4.6h-9.8v28.1H398v-28.1h-3.7V462h3.7v-1c0-3.9 1-6.9 2.9-9s4.7-3.1 8.4-3.1c1.2 0 2.3.1 3.3.2s1.9.3 2.7.4v5h.1zm23.6 13.6h-.3c-.8-.2-1.6-.3-2.4-.4s-1.7-.1-2.7-.1c-1.7 0-3.3.4-4.9 1.1s-3.1 1.7-4.6 2.9v23.2h-5.5V462h5.5v4.8c2.2-1.8 4.1-3 5.8-3.7s3.4-1.1 5.1-1.1c1 0 1.7 0 2.1.1s1.1.1 1.9.3v5.7zm10.8-11.5h-6.2v-5.7h6.2v5.7zm-.3 38.2H444V462h5.5v32.8zm34.7-2.1c-1.8.9-3.6 1.6-5.2 2.1s-3.4.7-5.3.7c-2.4 0-4.5-.3-6.5-1s-3.7-1.7-5.1-3.1-2.5-3.2-3.3-5.3-1.2-4.7-1.2-7.5c0-5.4 1.5-9.6 4.4-12.6s6.8-4.6 11.6-4.6c1.9 0 3.7.3 5.5.8s3.5 1.2 5 1.9v6.1h-.1c-1.7-1.3-3.4-2.3-5.2-3s-3.5-1.1-5.2-1.1c-3.1 0-5.6 1-7.4 3.1s-2.7 5.2-2.7 9.2c0 3.9.9 7 2.7 9.1s4.3 3.2 7.5 3.2c1.1 0 2.2-.1 3.4-.4s2.2-.7 3.1-1.1c.8-.4 1.6-.8 2.3-1.3s1.3-.9 1.7-1.2h.3v6h-.3zm32.2 2.1H511v-3.5c-.5.3-1.1.8-2 1.4s-1.6 1.1-2.4 1.4c-.9.4-2 .8-3.2 1.1s-2.6.5-4.2.5c-2.9 0-5.4-1-7.5-2.9s-3.1-4.4-3.1-7.5c0-2.5.5-4.5 1.6-6s2.6-2.7 4.6-3.6 4.4-1.5 7.2-1.8 5.8-.5 9-.7v-.8c0-1.3-.2-2.3-.7-3.1s-1.1-1.5-1.9-1.9-1.7-.8-2.8-.9-2.2-.2-3.4-.2c-1.4 0-3.1.2-4.8.6s-3.6.9-5.5 1.7h-.3V463c1.1-.3 2.6-.6 4.7-1s4-.5 6-.5c2.3 0 4.3.2 6 .6s3.2 1 4.4 1.9 2.2 2.1 2.8 3.5 1 3.2 1 5.3v22h-.1zm-5.4-8.1v-9.1c-1.7.1-3.7.2-5.9.4s-4.1.5-5.4.8c-1.6.4-2.9 1.1-3.8 2.1s-1.5 2.3-1.5 3.9c0 1.9.6 3.3 1.7 4.2s2.9 1.4 5.2 1.4c1.9 0 3.7-.4 5.3-1.1s3-1.5 4.4-2.6zM340.1 52.4s-3.8-4.6-14.6-4.6-24 12.4-24 22.4 4.6 26.3 4.6 33.2c0 7 4.6 13.9-4.6 11.6-9.3-2.3-92-54.1-92-54.1l-38.6 7 113.6 66.5s3.1-2.3 0 10.8-13.9 41.7-14.7 51.8c-.8 10 31.7 39.4 31.7 39.4l-50.2 64.1-15.5 71.9s56.4-58 76.9-85.8 34.4-51.8 34.4-51.8 6.2-6.8-4.6-9.3c-5.3-1.2-10.8 5.4-10.8 5.4L256 336.1l3.8-27.8 48.7-61.1s7.7-7.7 7.7-13.1-30.9-33.2-30.9-33.2l13.9-64.9-98.9-59.5 15.5-2.3s78.8 47.9 83.5 47.9 13.1-.8 13.5-9.3-4.2-34-4.2-34-2.3-16.3 13.1-21.6c15.4-5.4 24.9 6.2 24.9 6.2s3.5 1.5 2-1.6c-1.4-3.2-8.5-9.4-8.5-9.4z"/><path d="M106.8 84.2c0-4.8 4.1-8.4 8.8-7.9 12.6 1.4 38.1 5.7 73.1 19.5 51 20.1 61.8 39.4 61.8 39.4s-44.1-26.3-79.6-34c-25.2-5.5-46.8-8.2-57.3-9.4-3.9-.5-6.8-3.7-6.8-7.6zm53.1 37.9c-4.1-1.3-8.4 1.2-9.4 5.3-.7 2.9-.3 6 3.5 7.7 8.5 3.9 22.4 0 53.3 12.4s56.4 31.7 56.4 31.7-12.3-23.2-56.8-40.2c-26.5-10.2-40.3-14.8-47-16.9zm191.5-39.5v22.8s-2.3 8.7-9.9 10.4c-7.5 1.7-8.1 6.4-7.5 8.1s-1.8 1.7 12.2 7c13.9 5.2 17.3 7.4 30.4 18.9 6.9 6.1 17.7 22.8 14.8 25.1-2.9 2.3-19.1 0-19.1 0s-3.3-2.3.7-3.5c4.1-1.2 6.8-2.3 6.8-2.3s-.8-9.5-22-23.2c-14-9.1-23.9-10.8-23.9-10.8s-7.9-2.8-7.9-9.3 8.6-13.6 8.6-13.6 10.5-6.9 10.5-12.1c0-9.3-.6-24.5-.6-24.5 3.8 0 6.9 3.1 6.9 7zm-9.9 88.8l51.9 7.7s5.2 6.5-7.5 15.5c-12.8 9-17.9 10.1-17.9 10.1s-5-5.5 1.4-9.6 15.4-10.4 15.6-11.3c.3-.9-44.9-12.5-44.9-12.5m-38.8-2.5s2.3 18.5 18 24.9c15.6 6.4 35.6 7.8 35.6 7.8s-25.8-9-25.5-18.3 2.6-14.5 2.6-14.5h-30.7v.1zm43.4 44.7s33.9 31 42 44.6 24.3 44.3 25.8 51c1.4 6.7 4.3 18.5 4.3 18.5l-20.3-14.2s-13.3-24.9-22-40-19.7-27.5-19.7-27.5-3.6-2.6-6 1.4c-2.4 4.1 1.6 7 1.6 7s14.8 18 18 25.8 7 11.4 9.3 20.4c2.3 8.9 4.6 20.2 4.6 20.2l47.2 27.5s2-18.5-6.1-35.6-16.3-46.4-36.3-67.5-32.4-33.6-32.4-33.6-3.5-3-7.8-1.4-2.2 3.4-2.2 3.4zM63.5 401c0 6.8-1.9 12.3-5.6 16.6-3.7 4.3-8.4 6.4-14 6.4-2.4 0-4.5-.3-6.3-.8s-3.5-1.3-5.2-2.2l-.6 2.1H18.5v-59.7h13.8v21.1c2.1-1.7 4.3-3.1 6.5-4.1s4.8-1.6 7.6-1.6c5.4 0 9.6 2 12.6 5.9s4.5 9.4 4.5 16.3zm-14.3.3c0-3.8-.7-6.8-2-8.8s-3.6-3.1-7-3.1c-1.3 0-2.6.2-4 .6s-2.7 1-3.9 1.7v21.6c1 .4 1.9.6 2.8.7.9.1 2 .2 3.2.2 3.6 0 6.4-1.1 8.1-3.2 1.9-2.2 2.8-5.4 2.8-9.7zM89.6 374H75v-10.5h14.6V374zm-.4 49.2H75.4v-43.1h13.8v43.1zm59.9-22.2c0 6.8-1.9 12.3-5.6 16.6-3.7 4.3-8.4 6.4-14 6.4-2.4 0-4.5-.3-6.3-.8s-3.5-1.3-5.2-2.2l-.6 2.1h-13.3v-59.7H118v21.1c2.1-1.7 4.3-3.1 6.5-4.1s4.8-1.6 7.6-1.6c5.4 0 9.6 2 12.6 5.9s4.4 9.4 4.4 16.3zm-14.2.3c0-3.8-.7-6.8-2-8.8s-3.6-3.1-7-3.1c-1.3 0-2.6.2-4 .6s-2.7 1-3.9 1.7v21.6c1 .4 1.9.6 2.8.7s2 .2 3.2.2c3.6 0 6.4-1.1 8.1-3.2 1.9-2.2 2.8-5.4 2.8-9.7zm40 21.9h-13.8v-59.7h13.8v59.7zm57.4-19h-31.6c.2 3.4 1.5 6 3.9 7.7 2.4 1.8 5.8 2.7 10.4 2.7 2.9 0 5.7-.5 8.5-1.6 2.7-1 4.9-2.2 6.5-3.4h1.5v11.1c-3.1 1.3-6.1 2.2-8.8 2.7-2.8.6-5.8.8-9.2.8-8.6 0-15.3-1.9-19.9-5.8-4.6-3.9-6.9-9.4-6.9-16.6 0-7.1 2.2-12.7 6.5-16.9 4.4-4.2 10.3-6.2 17.9-6.2 7 0 12.3 1.8 15.8 5.3s5.3 8.6 5.3 15.3v4.9h.1zm-13.8-8.1c-.1-2.9-.8-5.1-2.1-6.5-1.4-1.5-3.5-2.2-6.3-2.2-2.7 0-4.8.7-6.6 2.1-1.7 1.4-2.7 3.6-2.9 6.6h17.9zm91.7 13.4c0 4.4-2 8-6 10.8-4 2.7-9.4 4.1-16.4 4.1-3.8 0-7.3-.4-10.4-1.1s-5.6-1.5-7.5-2.4v-11.3h1.3c.7.5 1.5 1 2.4 1.6s2.2 1.2 3.9 1.9c1.4.6 3.1 1.1 4.9 1.5s3.8.6 5.8.6c2.7 0 4.7-.3 6-.9s2-1.5 2-2.7c0-1-.4-1.8-1.1-2.3-.8-.5-2.2-.9-4.4-1.4-1-.2-2.4-.5-4.2-.7-1.8-.3-3.3-.6-4.8-1-3.9-1-6.8-2.6-8.7-4.8-1.9-2.2-2.8-4.9-2.8-8.1 0-4.1 2-7.6 5.9-10.3 3.9-2.7 9.3-4.1 16.1-4.1 3.2 0 6.3.3 9.3 1s5.3 1.3 6.9 2.1v10.9h-1.2c-2-1.4-4.4-2.5-7-3.4s-5.3-1.3-8-1.3c-2.2 0-4.1.3-5.6.9s-2.3 1.5-2.3 2.6c0 1 .3 1.8 1 2.3s2.3 1.1 4.9 1.6c1.4.3 2.9.6 4.5.8 1.6.3 3.3.6 4.9 1 3.6.9 6.3 2.4 8.1 4.5s2.5 4.6 2.5 7.6zm55.2-7.8c0 7.1-2.1 12.7-6.2 16.7-4.1 4.1-9.9 6.1-17.4 6.1s-13.3-2-17.4-6.1-6.2-9.7-6.2-16.7c0-7.1 2.1-12.7 6.2-16.8 4.2-4.1 9.9-6.1 17.3-6.1 7.5 0 13.3 2 17.4 6.1s6.3 9.7 6.3 16.8zm-17 10.4c.9-1.1 1.6-2.4 2-4 .4-1.5.7-3.7.7-6.4 0-2.5-.2-4.7-.7-6.4-.5-1.7-1.1-3.1-1.9-4.1s-1.8-1.8-3-2.2c-1.2-.4-2.4-.7-3.7-.7s-2.5.2-3.5.5c-1 .4-2 1.1-3 2.1-.8 1-1.5 2.4-2 4.1s-.7 3.9-.7 6.6c0 2.4.2 4.4.7 6.1s1.1 3.1 1.9 4.2c.8 1 1.8 1.7 2.9 2.2s2.4.7 3.9.7c1.3 0 2.4-.2 3.6-.6s2-1.1 2.8-2.1zm51.2 12.2c-3.8 0-7.2-.4-10.3-1.3-3.1-.9-5.8-2.3-8.1-4.1-2.3-1.9-4-4.2-5.3-7.1-1.3-2.8-1.9-6.2-1.9-10 0-4 .7-7.5 2-10.4s3.2-5.3 5.6-7.2c2.3-1.8 5-3.1 8.1-4s6.2-1.3 9.5-1.3c2.9 0 5.6.3 8.1 1 2.5.6 4.8 1.5 6.9 2.5v11.8h-2c-.5-.5-1.2-1-1.9-1.6s-1.7-1.2-2.8-1.8c-1-.6-2.2-1-3.4-1.4-1.3-.4-2.7-.6-4.4-.6-3.7 0-6.5 1.2-8.5 3.5s-3 5.5-3 9.5c0 4.1 1 7.3 3 9.4s4.9 3.2 8.6 3.2c1.7 0 3.3-.2 4.7-.6 1.4-.4 2.5-.9 3.5-1.4.9-.5 1.6-1 2.3-1.6.7-.6 1.3-1.1 1.8-1.6h2V421c-2.2 1-4.4 1.8-6.8 2.4-2.2.6-4.8.9-7.7.9zm40-50.3H425v-10.5h14.6V374zm-.4 49.2h-13.8v-43.1h13.8v43.1zm57.4-19H465c.2 3.4 1.5 6 3.9 7.7s5.8 2.7 10.4 2.7c2.9 0 5.7-.5 8.5-1.6 2.7-1 4.9-2.2 6.5-3.4h1.5v11.1c-3.1 1.3-6.1 2.2-8.8 2.7-2.8.6-5.8.8-9.2.8-8.6 0-15.3-1.9-19.9-5.8s-6.9-9.4-6.9-16.6c0-7.1 2.2-12.7 6.5-16.9 4.4-4.2 10.3-6.2 17.9-6.2 7 0 12.3 1.8 15.8 5.3s5.3 8.6 5.3 15.3v4.9h.1zm-13.7-8.1c-.1-2.9-.8-5.1-2.1-6.5-1.4-1.5-3.5-2.2-6.3-2.2-2.7 0-4.8.7-6.6 2.1-1.7 1.4-2.7 3.6-2.9 6.6h17.9zm52.9 26.7c-1.5.4-3.1.7-4.7.9-1.7.2-3.7.3-6.1.3-5.4 0-9.4-1.1-12-3.3-2.6-2.2-3.9-5.9-3.9-11.2v-20.1h-5.7V380h5.7v-12.3h13.8V380h12.9v9.4h-12.9v19.3c0 1.1.2 2.1.6 3 .4.9 1 1.6 1.9 2.1s2.2.8 4 .8c.7 0 1.6-.2 2.8-.5s2-.6 2.4-.8h1.1l.1 9.5zm29.6-14.9l9.8-27.8h14.2L565.5 439h-15l6.8-16.1-16.7-42.7h14.5l10.3 27.7z"/></svg>
