<svg xmlns="http://www.w3.org/2000/svg" viewBox="0 0 500 500"><linearGradient id="SVGID_1_" gradientUnits="userSpaceOnUse" x1="131.315" y1="18.067" x2="131.315" y2="482.786" gradientTransform="matrix(1 0 0 -1 0 502)"><stop offset="0" stop-color="#fff"/><stop offset=".304" stop-color="#88bbe0"/><stop offset="1" stop-color="#313580"/></linearGradient><path d="M250.8 483.9H11.9V19.2h161c43.1 0 77.9 34.9 77.9 77.9v386.8z" fill="url(#SVGID_1_)"/><path d="M252.6 485.8H10V17.3h162.8c44 0 79.8 35.8 79.8 79.8v388.7zm-238.9-3.7h235.2v-385c0-41.9-34.1-76.1-76.1-76.1H13.7v461.1z"/><linearGradient id="SVGID_2_" gradientUnits="userSpaceOnUse" x1="829.798" y1="18.69" x2="829.798" y2="483.409" gradientTransform="rotate(180 601 251)"><stop offset="0" stop-color="#fff"/><stop offset=".304" stop-color="#88bbe0"/><stop offset="1" stop-color="#313580"/></linearGradient><path d="M252.8 483.3h238.9V18.6h-161c-43.1 0-77.9 34.9-77.9 77.9v386.8z" fill="url(#SVGID_2_)"/><path d="M493.5 485.2H250.9V96.5c0-44 35.8-79.8 79.8-79.8h162.8v468.5zm-238.9-3.8h235.2v-461H330.7c-41.9 0-76.1 34.1-76.1 76.1v384.9z"/><g id="Layer_5"><path fill="#fff" d="M367.3 171.7c-3.6-.9-7.2-1.5-11-4.1 5.6-.6 9.6-3.1 12.9-6.5 1.2-1.2 3.1-2.7 2-4.5-1-1.5-3-.2-4.5 0-4 .7-7.8 2.5-13.1 2.5 5.7-3.6 9.5-7.2 10-13.1.1-1 .7-2.2-.4-2.9s-1.9.6-2.5 1.2c-3.1 3.1-7 4.9-11 6.5-12.4 5.1-25.6 6.5-38.8 7-7.3.2-14.7.2-21.8 2.9-1.2.4-2.5.7-3.7 1 1-.2 1.9-.6 2.9-1.1-.9-2.7-3.5-1.1-5-2.1 3.9-6.2 10.8-4.9 16.6-6.8-1.6-1.9-3.9-.5-5.2-1.7 2.2-6.3 10-6.6 12.9-12.2-3.1-1.1-5.1 1.2-7.5 2.1-.4-1.9.5-3.9-.5-6-.5.6-.9.9-1 1.2-1.2 2.6-1.2 2.6-3.7 3-.4.1-.9.7-1 1.2-.4 1.7-1.1 3.5-.5 5.2.9 2.5-.2 3.7-2.1 4.9-1.2-1-.2-3.2-2.4-3.5-.9 1.6-1.5 3.2-1 5.1.6 1.9-.9 2.2-2 2.7-1.5.7-2.1-.4-2.7-1.4-.5-.9-.7-1.9-1-2.9-1.4-5.4-3.5-7-9-7.2-5.1-.1-9.8 1.5-14.3 3.7-4 2-7.8 4-12.2 4.9-3.6.7-6.3-.4-8.3-3.5-2.2-3.5-3.5-7.5-4.5-11.5-2.5-10.6-6.6-20.5-11.3-30.4-9.1-18.5-17.8-37.3-11.2-59 .4-1.1.2-2.1-.9-2.7-1.1-.6-2 .4-2.6 1-3.5 3.5-6.2 7.5-6.8 12.4-.2 2.1-.4 4.2-.7 7.6-1.4-2.4-2.1-3.6-2.6-4.9-1.9-4.1-1.1-8.3-1.2-12.6 0-1 0-2.2-1.1-2.6-1.1-.4-2 .6-2.5 1.4-2.2 3-3 6.3-3.1 10-.1 2.6 0 5.4 0 8.3-3.6-2.1-4.6-5.6-6.8-8-1.2-1.4-2.4-4-4.2-3.1-2 .9-.7 3.4-.6 5.1.2 2 .9 4 .2 6-1.9.1-3.4-2.7-5.2-.9-1.6 1.6-.4 3.6-.1 5.5.1 1.4 1.7 3.4-.7 4-3.1.9-2.6 3.2-2.2 5.4.6 2.9 1.2 5.4-1.5 7.6-1 .7-.7 2.2-.2 3.4 1.2 2.4 2 4.5-.7 6.5-.5.4-.7 1.7-.6 2.5 1 3.1 1.1 6.1-.7 9.1-.4.5-.1 1.5 0 2.1 2 7.1 1.6 14.6 3.9 21.7.7 2.4 2.5 4.6 2.1 7.5-.5 3.5 1.2 6.7 1.4 10.2.2 5.9 3.5 10.8 6.3 15.4 2.7 4.2 5.7 9.1 11.2 10.7 7.3 2.2 14.4 6.7 23 3.1-3.6 6.2-4.2 6.5-10.5 5.4-4.5-.9-9-1.7-13.4-2.4-5.7-.9-11.3-1.9-17.2-1.1-2.7.4-5.9 1.2-5.1 4.7 1.2 5.5-3.4 11.6 1.6 16.7-1.9 6 .6 11 3 16.3 1.4 3.1 2.6 5.6 5.7 7.1 2.6 1.2 5.4 2.6 5.6 6.2.2 4.1 2.6 6 6.5 6.5 2.4.2 4.1.9 4.5 3.7.4 2.7 2.4 4.4 5.4 4 4-.4 8.2 2.9 12.1-.7.1-.1.7-.1.9 0 3.2 3.6 7 1.6 10.8 1.9 6.2.5 11.5-.2 16.4-3.5.4-.2.9-.2 1.2-.2 3.9 0 6.7-1.9 9.1-4.7 1-1.1 2-2.1 3.4-2.7 3.1-1.2 5.7-3 6-6.8.1-1.2 1.1-2 2.2-2.5 6.6-2.9 7.2-6.8 1.9-11.8-4.5-4.2-9-8.6-13.4-12.8-1.2-1.1-2.1-2.5-2.4-4.1-.2-1.4.5-2.4 1.5-3 1.6-.9 2.2.6 3 1.7 4.2 6.5 8.3 13.1 16.7 15.1 6.8 1.6 13.4 3 20.9 2 6.5-.7 12.7-3.2 19.4-3.2 2.7 0 5.6-2.4 9-1.7.9.1 1.6-.4 2.2-1.2.9-1.2 2-1.6 3.5-1.5 4.4.4 7.1-4.4 11.6-3.7.2 0 .7-.9.9-1.4.7-2.6 2.5-3.9 5.2-3.9 1 0 2.2-.4 2.9-1 3.7-4.5 10-3.9 14.3-8.1 3.6-3.5 5.4-4.4 1.5-8.6 2.7-1 5.4-1.7 7.8-2.7 1.4-.5 2.9-1.5 2.9-3.1-1.5-1.5-3.6-1-4.8-1.3zM267.8 161c-7.8-2.6 14.4-4 14.4-4s1.4 0 0 1.4-2.6 4-2.6 4-3.8 1.2-11.8-1.4z"/><path d="M218.1 247.4c-1.9 0-3.7-.4-5.4-2.3h-.2c-2.8 2.5-5.7 1.9-8.4 1.3-1.4-.3-2.7-.6-4-.5-3.2.4-5.6-1.4-6-4.5-.3-2.4-1.6-3-3.9-3.2-4.5-.6-6.8-2.9-7-7.1-.2-3.1-2.3-4.3-5.2-5.7-3.3-1.6-4.6-4.2-6-7.4l-.4-.9c-2.2-5-4.4-9.8-2.7-15.5-3-3.3-2.4-7-1.8-10.5.4-2.2.7-4.2.3-6.2-.3-1.3-.1-2.4.5-3.2 1.1-1.5 3.3-2 5.1-2.3 5.5-.7 10.9.1 16.1.9l1.3.2c4.5.6 9.1 1.5 13.5 2.4 5.4 1 6.2.9 8.9-3.6-6.3 2-11.8-.1-17.2-2.1-1.5-.6-3.1-1.2-4.6-1.6-5.5-1.6-8.6-6.4-11.3-10.5l-.6-1c-2.7-4.4-5.9-9.4-6.1-15.2-.1-1.4-.4-2.8-.7-4.2-.5-2-1-4-.6-6.1.2-1.8-.5-3.3-1.2-5-.3-.7-.7-1.5-.9-2.2-1.2-3.8-1.7-7.7-2.1-11.5-.4-3.4-.8-6.9-1.8-10.2v-.2c-.2-.7-.4-1.8.1-2.5 1.5-2.5 1.7-5.1.7-8.5-.2-1 .1-2.6.8-3.2 2.2-1.6 1.9-3.1.6-5.7-.8-1.8-.6-3.3.4-4.1 2.4-1.9 1.9-4.1 1.3-6.8l-.1-.4c-.4-2.1-.9-4.9 2.7-5.9.3-.1.7-.2.9-.5.2-.3 0-1-.2-1.6-.1-.4-.3-.9-.3-1.3-.1-.4-.2-.9-.3-1.4-.4-1.5-.8-3.2.6-4.6 1.5-1.5 2.9-.6 3.9 0 .4.3.9.5 1.3.6.3-1.2 0-2.5-.2-3.8-.1-.5-.2-.9-.2-1.4 0-.4-.1-.9-.2-1.4-.3-1.5-.7-3.5 1.2-4.4 1.9-.9 3.2.9 4.1 2.2.3.4.6.8.8 1.1.8.9 1.5 1.9 2.2 3 1 1.5 2 3 3.6 4.3v-1.8c0-1.9-.1-3.7 0-5.4.1-4.3 1.2-7.6 3.2-10.3 1.2-1.8 2.4-1.9 3.2-1.6 1.5.5 1.5 2.1 1.5 3.2v3.2c-.1 3.2-.1 6.2 1.2 9.1.4.9.8 1.8 1.6 3.1.1-.9.2-1.8.2-2.5.1-1.1.2-2.2.3-3.2.6-4.5 2.8-8.6 7-12.8l.1-.1c.6-.6 1.8-1.8 3.2-1 .9.5 1.8 1.5 1.2 3.5-6.7 22 2.8 41.4 11.2 58.5 5.7 11.8 9.2 21.2 11.4 30.5.9 3.6 2.1 7.7 4.4 11.3 1.9 2.9 4.3 3.9 7.7 3.2 4.1-.8 7.7-2.6 11.5-4.5l.5-.3c5.4-2.7 10-3.9 14.6-3.8 5.8.3 8.1 2.1 9.6 7.7.2 1 .5 1.9.9 2.7l.1.1c.7 1.1 1 1.5 1.9 1l.4-.2c1.2-.5 1.6-.8 1.3-1.8-.6-2.2.2-4 1-5.6l.2-.4h.4c1.7.2 1.9 1.4 2.1 2.3.1.4.1.7.3 1 1.5-1 2.1-1.9 1.4-3.8-.6-1.5-.2-3 .2-4.5.1-.4.2-.7.3-1.1.2-.6.8-1.5 1.4-1.7 2.3-.3 2.3-.3 3.4-2.7.1-.3.3-.5.6-.8l.5-.5.6-.8.4.9c.7 1.4.6 2.8.5 4 0 .5-.1.9 0 1.3.4-.2.8-.4 1.2-.7 1.6-1 3.5-2 6-1.1l.7.2-.3.6c-1.5 2.8-4 4.3-6.5 5.7-2.6 1.6-5.1 3-6.3 5.9.4.2.9.2 1.5.2 1.1 0 2.4.1 3.4 1.3l.6.7-.9.3c-1.8.6-3.7.9-5.6 1.2-4 .6-7.7 1.2-10.2 4.7.3.1.7.1 1.1.1 1.2 0 2.8 0 3.5 1.9.1 0 .1 0 .2-.1 6.5-2.4 13.4-2.6 20-2.8l1.9-.1c11.8-.4 25.7-1.6 38.6-6.9 3.9-1.6 7.7-3.3 10.8-6.3l.3-.3c.6-.7 1.6-1.8 2.9-1 1.3.7 1 2 .8 2.9 0 .2-.1.4-.1.6-.5 5.5-3.6 9-8.3 12.3 2.5-.2 4.6-.8 6.7-1.4 1.4-.4 2.6-.7 4-1 .4-.1.7-.2 1.2-.3 1.2-.4 3-.9 4 .6 1.3 2-.4 3.7-1.7 4.9l-.4.4c-3.5 3.5-7.3 5.6-11.6 6.4 2.7 1.6 5.4 2.2 8.1 2.8l1.2.3c.3.1.7.1 1.2.1 1.2 0 2.6 0 3.4 1.2l.1.2v.2c0 1.6-1.2 2.9-3.3 3.7-1.5.6-2.9 1.1-4.5 1.6-.8.3-1.6.5-2.5.8 3 3.6 1.7 5.1-1.2 7.9l-.9.9c-2.2 2.1-4.8 3.1-7.3 4-2.6 1-5.1 1.9-7 4.1-.8.9-2.3 1.2-3.3 1.2-2.5 0-4 1.1-4.6 3.4 0 0-.5 1.8-1.5 1.8-2.2-.3-3.9.7-5.7 1.8-1.8 1.1-3.7 2.2-6 2-1.4-.1-2.2.2-2.9 1.2-1 1.4-2.1 1.6-2.8 1.5-1.8-.3-3.5.3-5.1.8-1.3.5-2.5.9-3.8.9-3.9 0-7.7.9-11.4 1.7-2.6.6-5.3 1.2-7.9 1.5-7.5 1-14-.3-21.1-2-8.4-2-12.6-8.5-16.7-14.8l-.3-.5c-.1-.1-.2-.3-.3-.4-.8-1.3-1.1-1.5-1.9-1.1-.6.4-1.4 1.1-1.2 2.3.2 1.4.9 2.7 2.2 3.8 2.3 2.1 4.5 4.3 6.7 6.4 2.2 2.1 4.5 4.3 6.7 6.4 2.8 2.7 4.1 5.1 3.7 7.3-.4 2.2-2.3 4-5.8 5.5-1.2.5-1.8 1.2-1.9 2-.3 4.4-3.4 6.2-6.4 7.4-1.2.5-2.1 1.4-3.1 2.6-2.7 3.3-5.9 4.9-9.6 4.9-.3 0-.7 0-.9.1-4.7 3-9.9 4.1-16.8 3.6-1.1-.1-2.1 0-3.2.2-1 .5-1.8.6-2.7.6zm-5.5-3.6c.3 0 .7.1.9.3 2.1 2.4 4.4 2.1 7 1.8 1.1-.1 2.2-.2 3.4-.2 6.8.5 11.6-.5 16.1-3.4.5-.3 1.2-.3 1.6-.3 3.3 0 6.1-1.4 8.6-4.5.9-1 2-2.2 3.6-2.9 2.8-1.1 5.4-2.6 5.6-6.3.1-1.3 1-2.3 2.6-3 3.1-1.3 4.7-2.9 5-4.6.3-1.8-.8-3.9-3.3-6.2-2.2-2.1-4.5-4.3-6.7-6.4-2.2-2.1-4.5-4.3-6.7-6.4-1.4-1.3-2.3-2.8-2.6-4.5-.3-1.4.4-2.7 1.8-3.6 2-1.1 2.9.5 3.6 1.5.1.1.2.3.3.4l.4.5c4.2 6.4 8.1 12.4 16 14.3 7 1.7 13.4 3 20.7 2 2.6-.3 5.3-.9 7.8-1.5 3.8-.9 7.7-1.8 11.7-1.8 1.1 0 2.2-.4 3.4-.8 1.7-.6 3.6-1.3 5.7-.9.2 0 .8.1 1.6-1 .9-1.3 2.2-1.9 4-1.8 1.9.2 3.5-.8 5.2-1.8 1.8-1.1 3.7-2.2 6.1-2 .1-.2.4-.6.4-.9.8-2.9 2.8-4.3 5.8-4.3.9 0 2-.4 2.4-.8 2-2.4 4.8-3.4 7.5-4.4 2.4-.9 4.9-1.8 6.9-3.7l.9-.9c2.9-2.8 3.6-3.4.5-6.8l-.6-.7.9-.3c1.1-.4 2.3-.8 3.4-1.2 1.6-.5 3-1 4.5-1.6.7-.3 2.3-1 2.5-2.3-.5-.5-1.4-.5-2.3-.5-.5 0-1 0-1.4-.1l-1.2-.3c-3.2-.8-6.5-1.5-9.9-3.9l-1.4-.9 1.6-.2c4.8-.5 8.8-2.5 12.6-6.3l.4-.4c1.4-1.3 2.2-2.3 1.5-3.3-.4-.6-1.1-.5-2.5-.1-.4.1-.9.3-1.3.3-1.3.2-2.5.6-3.9.9-2.8.8-5.7 1.6-9.3 1.6h-2.2l1.8-1.1c5.5-3.4 9.2-6.9 9.7-12.6 0-.3.1-.5.1-.8.2-1 .2-1.3-.2-1.5-.4-.2-.7 0-1.4.7-.1.1-.2.3-.4.4-3.2 3.2-7.3 5-11.2 6.6-13.1 5.4-27.1 6.6-39.1 7l-1.9.1c-6.5.2-13.3.4-19.7 2.8-1.3.4-2.6.8-3.8 1l-.3-1.2c.7-.2 1.4-.4 2.2-.8-.4-.8-1.1-.8-2.2-.8-.8 0-1.6 0-2.3-.5l-.3-.2c-1.3 1.3-2.5 3.8-2.5 3.8l-.1.2-.3.1c-.2.1-4.1 1.3-12.2-1.4-1-.3-2.2-.9-2.1-1.8.3-2 9.2-2.9 16.7-3.4.2 0 .9 0 1.2.7 0 .1 0 .1.1.2 2.8-3.7 6.9-4.4 10.9-5 1.4-.2 2.8-.5 4.2-.8-.5-.2-1.1-.2-1.7-.3-.9 0-1.8-.1-2.6-.8l-.3-.3.1-.4c1.3-3.6 4.2-5.3 7-7 2.2-1.3 4.2-2.5 5.6-4.6-1.6-.3-2.8.5-4.2 1.2-.7.4-1.4.8-2.1 1.1l-.7.3-.1-.7c-.2-.8-.1-1.6-.1-2.4.1-.8.1-1.6-.1-2.4-.1.1-.1.2-.2.2-1.4 2.9-1.5 3-4.2 3.4 0 0-.4.4-.5.8-.1.4-.2.7-.3 1.1-.3 1.3-.7 2.6-.2 3.7 1.1 3-.6 4.5-2.4 5.6l-.4.2-.3-.3c-.7-.6-.9-1.4-1-2-.1-.7-.2-1.1-.7-1.2-.7 1.5-1.1 2.8-.7 4.2.7 2.2-1 2.9-2 3.3l-.4.1c-1.9 1-2.9-.6-3.5-1.5l-.1-.1c-.6-1-.8-2-1.1-3-1.3-5.1-3.1-6.5-8.4-6.7-4.3-.1-8.8 1.1-14 3.7l-.5.3c-3.9 2-7.6 3.8-11.8 4.6-3.9.8-6.9-.5-9-3.8-2.4-3.7-3.6-8-4.6-11.6-2.2-9.2-5.6-18.5-11.3-30.3-8.5-17.3-18.1-36.9-11.2-59.5.4-1.3-.1-1.7-.6-2-.5-.3-1 0-1.8.8l-.1.1c-4 4-6.1 7.9-6.7 12.1-.1 1-.2 2-.3 3.1-.1 1.3-.2 2.7-.4 4.5l-.2 1.9-1.3-2.3c-1.1-1.9-1.8-3.1-2.3-4.3-1.4-3.2-1.4-6.5-1.3-9.6v-3.1c0-1.1 0-1.8-.7-2-.6-.2-1.2.2-1.8 1.1-1.9 2.6-2.9 5.6-3 9.6-.1 1.7-.1 3.5 0 5.3v4.1l-.9-.5c-2.4-1.4-3.8-3.5-4.9-5.3-.7-1-1.3-2-2-2.8l-.9-1.2c-1-1.4-1.7-2.2-2.6-1.8-.9.4-.9 1.3-.5 3 .1.5.2 1 .2 1.5.1.4.1.9.2 1.3.3 1.6.5 3.2 0 4.9l-.1.4h-.4c-.9.1-1.7-.4-2.4-.9-1.1-.7-1.6-.9-2.4-.2-.9.9-.7 1.9-.3 3.4.1.5.3 1 .3 1.5 0 .3.1.7.3 1 .3.8.6 1.7.1 2.5-.3.5-.8.9-1.6 1.1-2.4.7-2.2 2.1-1.8 4.5l.1.3c.6 2.9 1.2 5.6-1.8 8-.9.7-.2 2.3-.1 2.6 1.3 2.4 2.2 4.9-1 7.2-.2.2-.5 1.2-.4 1.9 1.2 3.7.9 6.7-.8 9.5-.2.3 0 1.1 0 1.5v.2c.9 3.4 1.4 6.9 1.8 10.3.4 3.7.9 7.6 2.1 11.3.2.7.5 1.4.8 2.1.8 1.7 1.6 3.5 1.3 5.7-.3 1.9.2 3.7.6 5.7.3 1.4.7 2.9.7 4.4.2 5.5 3.1 10.1 5.9 14.6l.6.9c2.6 4 5.5 8.5 10.6 10 1.6.5 3.2 1.1 4.7 1.6 5.6 2.1 11.4 4.2 17.9 1.5l1.7-.7-.9 1.6c-3.7 6.4-4.5 6.8-11.1 5.7-4.4-.9-8.9-1.7-13.4-2.4l-1.3-.2c-5.4-.8-10.4-1.6-15.7-.9-1.4.2-3.5.6-4.3 1.8-.4.6-.5 1.3-.3 2.2.5 2.2.1 4.5-.3 6.6-.6 3.5-1.2 6.8 1.7 9.7l.3.3-.1.4c-1.7 5.4.4 10 2.6 15l.4.9c1.4 3.1 2.6 5.4 5.4 6.8 2.5 1.2 5.7 2.7 6 6.7.2 3.5 2.1 5.4 5.9 5.9 2.2.2 4.6.8 5 4.3.3 2.5 2.1 3.8 4.7 3.4 1.5-.1 3 .2 4.4.5 2.6.6 5 1.1 7.3-1.1.4.2.8.1 1.1.1zm0 1.2zm0 0zm55.4-84.6c6.5 2.1 10.3 1.6 11.2 1.4.4-.7 1.4-2.7 2.6-3.9l.3-.3c-6.5.4-14 1.4-15.2 2.3.1.1.5.3 1.1.5z"/></g><g id="Layer_3"><ellipse fill="#fff" cx="252.8" cy="362.6" rx="116.1" ry="84.7"/><path d="M339.5 418.7c18.3-14.9 29.5-34.6 29.5-56.1 0-22.4-12.1-42.7-31.7-57.9-20.4-15.8-49.2-25.9-81-26.6h-7.9c-31.9.7-60.5 10.8-81 26.6-19.7 15.2-31.7 35.5-31.7 57.9 0 21.5 11.2 41.2 29.5 56.1v.1c.1.1.1.1.2.1 20.5 16.7 50 27.4 83 28.3H256.2c33-.9 62.5-11.6 83-28.3.1-.1.2-.1.3-.2-.1 0-.1 0 0 0zm-196-53.3h48.3c.5 12.3 3.7 24.4 9.7 35.7-11.5 3-22.4 7.1-32.6 12.1-15.1-13-24.6-29.6-25.4-47.8zm27.6-55.4c10.1 4.7 20.7 8.5 31.9 11.3-6.8 12-10.6 24.9-11.1 38.2h-48.3c.8-18.9 11.1-36.2 27.5-49.5zm189.7 49.6h-48.3c-.5-13.3-4.2-26.3-11.1-38.2 11.1-2.9 21.8-6.6 31.9-11.3 16.3 13.2 26.5 30.5 27.5 49.5zm-112.8-38c-11.7-.2-23-1.5-34.1-3.7 8.2-12.2 19.7-23.2 34.1-32.2v35.9zm0 5.8v32.2h-48.2c.5-12.7 4.1-25 10.7-36.5 12.3 2.6 24.8 4.1 37.5 4.3zm8.1 0c12.8-.2 25.4-1.6 37.5-4.2 6.6 11.5 10.2 23.8 10.7 36.5h-48.2v-32.3zm0-5.8v-36c14.4 9.1 26 20 34.1 32.2-10.9 2.3-22.4 3.5-34.1 3.8zm42-5.6c-7.7-11.7-18.4-22.4-31.7-31.6 23.7 2.2 44.8 10 61.1 21.4-9.3 4.2-19.2 7.7-29.4 10.2zm-91.9 0c-10.2-2.6-20.2-6-29.4-10.2 16.3-11.5 37.6-19.2 61.1-21.4-13.3 9.2-24 19.9-31.7 31.6zm-6.4 49.4H248v29.3c-13.3.2-26.4 1.7-39 4.5-5.5-10.6-8.7-22-9.2-33.8zm48.2 35.2v38.8c-15.4-9.7-27.5-21.7-35.9-34.9 11.8-2.2 23.7-3.6 35.9-3.9zm8.1 38.9v-38.8c12.2.2 24.3 1.6 35.9 4.1-8.2 13-20.4 25-35.9 34.7zm0-44.7v-29.3h48.3c-.5 11.7-3.6 23.2-9.3 33.9-12.6-2.9-25.7-4.4-39-4.6zm56.3-29.4h48.3c-.9 18.2-10.3 34.7-25.4 47.7-10.2-5-21.2-9.1-32.6-12.1 6-11.2 9.3-23.1 9.7-35.6zm-138.1 52.2c9.6-4.6 19.7-8.3 30.3-11.1 7.8 12.7 19 24.3 33.4 34.1-24.8-2.2-47-10.7-63.7-23zm92 23.1c14.2-9.8 25.5-21.4 33.4-34.1 10.6 2.7 20.8 6.5 30.3 11.1-16.7 12.2-38.9 20.7-63.7 23z" fill="#fc6"/></g><g id="Layer_7"><path fill="#fff" d="M249.5 321.2s1.4-1.4 1.4-5.2v-18.4s2-.5 5.6-1.6c3.6-1.1 7.5 1.6 7.5 1.6l1.4 5.2h1.4l-4 5.2-1.4 9.2h1.4l9.2 1.4-13.1 10.5-11.8-2.6 2.4-5.3zM242.9 354s-4 4-2.6 14.4c1.4 10.5 5.2 38.1 5.2 38.1v2.6l2.6 1.4 2.7 13.3L252 434v1.4l-4-1.4-2.6 1.4-1.1 1.7 2.5 2.2 4 1.4h8s-4-14.4-1.4-23.7c2.6-9.2 11.5-20.9 11.5-20.9l3-4.1-4-24.9-10.5-9.2-14.5-3.9zM194.4 336.9s0 1.4 4 0 5.2 0 5.2 0l2.6 2.6-2.6 5.2s-6.6 2.6-10.5 0c-4-2.6-.9-2.7-.9-2.7l7.3-2.5-4.2-.6-.9-2"/></g><g id="Layer_6"><path d="M256.1 409.2c-.2-.5 0-1-.5-1.5-1.9 1.9-4.1 3.1-7 2.7.9 3.4 1.5 6.7 2.2 10 .9 4 1 8.1 1.7 12.1.1.7.2 1.5.4 2.2.1.4.5.9 0 1.2-.5.4-.9-.1-1.2-.2-1.7-.9-3.5-1.1-5.4-.1-1.5.7-1.5 2 0 2.7 2.9 1.5 5.9 1.7 9 1.5 1-.1 2-.2 2.9-.4.4 0 .7.1.9.5 0 .4-.2.5-.6.5-3.5.2-6.8.9-10.3-.1-.7-.1-1.4-.4-2.1-.6-1.6-.7-2.6-2.1-2.4-3.5.2-1.2 1.6-2.5 3.2-2.6 1.1-.1 2.1-.1 3.2.1.7.2 1.1 0 1-.9-.9-4.1-.9-8.3-1.9-12.3-.7-2.9-.7-6-1.7-8.8-.2-.9-.5-1.4-1.5-1.7-.9-.2-1.7-.7-1.7-1.9-.4-6.1-1.5-12.1-2.6-18.1-1.4-7-1.9-14.2-2-21.4-.1-5.4.1-10.5 2.4-15.4.1-.4 0-.6-.1-.9-1.9-3-3.1-6.1-3.6-9.6-.4-2.7-.7-5.4-1-8.1-.1-1-.6-1.2-1.5-1.1-4.7.4-9.5.6-14.2-.4-.4-.1-1 0-1.1-.5-.1-.6.6-.6 1-.9 6.3-3.2 12.3-7.1 17.3-12.2 1.6-1.6 3.2-2.2 5.4-2 1.4.1 2.7.5 3.9-.7.2-.2.9-.4 1.1 0 1 1.1 2.1.7 3.2.6.4 0 .9-.1.9.5 0 .5-.5.4-.9.4-.7.1-1.9-.1-2.1.5-.4 1 0 2.2.5 3.1.4.7 1.5.7 2.2.6 2.1-.1 4.2-.2 6.3-.7 3.1-.7 6.1-1.6 9-2.7.2-.1.6-.1.7-.6-1.2-.1-2.6-.5-3.9-.5-1.5 0-2.6-1.5-4.2-.5-.2.1-.5-.4-.4-.6.7-3.1.7-6.2 1.7-9.2.1-.2.2-.5.4-.6 1.4-.7 1.7-2.2 2.4-3.7-1.6.6-1.5-.2-1.2-1.4.7-3.1-1.1-5.7-4.4-6.2-2.1-.2-4.1.2-6 1-.9.4-1.4 1-1.6 2-.6 3-.7 6.1-.7 9.2 0 3.4 3.2 5.5 6.3 4.4.6-.2 1.2-.7 2.2-.6-2.9 1.6-10.5 1.2-6.2 1.2-2.1-.7-3.2-2.2-3.2-4.4 0-1.5.1-3 .1-4.5s.2-3 .1-4.6c-.2.7-.6 1.6-.9 2.4-.1.2-.1.7-.5.6-.5 0-.4-.5-.4-.9.1-2.9 2.6-5.5 5.7-6.3 1.9-.5 3.7-.5 5.5-.2 3.2.5 5.1 2.7 4.9 6.1 0 .5-.4 1.1.6 1.1.6 0 .6.6.5 1.1-.5 1.1-.7 2.4-1.6 3.1-2.5 2.5-2.1 5.7-2.7 8.8-.2 1 .7 1.2 1.5 1.4 2.7.7 5.5 1 8.2 1.1 2.9.2 4.6 1.6 6.3 3.7 4.1 5.1 7.5 10.7 10.6 16.4.7 1.5 1 3.6.5 5.5-1.4 4.9-3.1 9.3-6.6 13.1-.6.6-.5 1.2-.5 1.9.5 8.1-6.1 15.7-13.8 17.3-6.8 1.4-12.8-.9-17.7-5.7-4-4-6.6-8.7-7.5-14.4 0-.2.1-.6-.4-.9-1.2 2.9-2.1 5.9-2 8.8.2 4.6.2 9.2.7 13.9.7 6.2 1.6 12.4 2.9 18.7.6 3.1 1.1 6.3 1.4 9.5.2 3.5 1.4 4.4 4.9 3.7 2.7-.5 4.7-2 6.3-4.1.4-.1.5.1.6.4-.2 2.4.2 4.7 0 7.1-.1 1.2 0 2.6-.9 3.7-.6-.4-.2-.9-.4-1.4.4-1.9.8-3.8.4-5.8z" fill="#040404"/><path d="M227.4 338.7c-5.7 2.6-11.8 3.7-18.2 3.1-.5 0-.9.2-1.2.5-2.1 1.6-4.4 3.1-7.1 3.7-3.4.7-6.3.2-9.1-1.7-.4-.2-.7-.6-.9-1-.6-1-.5-1.6.7-1.7 2-.4 3.9-.7 6.2-1.2-1.2-.4-2.2-.6-3-1-.7-.2-1.4-.7-1.2-1.7.2-1 1-.5 1.6-.5 1.7.1 3.2-.4 4.9-.9 1.5-.4 2.9-.2 4 1 .7.9 1.5.4 2.1.1 4-2 8.2-2.6 12.4-3.5.4-.1 1.1-.4 1.2.1.1.7-.6.6-1.1.7-4.4.9-8.6 1.9-12.7 3.6-.9.4-1.7.6-2.6-.5-.9-1-2.1-1.2-3.4-.7-1.5.5-3.1.9-4.9.9.7.7 1.5 1 2.2 1.1.6.1 1.1.1 1.7.1.5 0 1 .1 1 .7 0 .5-.4.6-.9.7l-6.3 1.5c-.4.1-1-.2-1.1.4-.1.5.5.7.9 1 3.7 2.5 7.5 2.5 11.3.4 1.4-.7 2.7-1.5 3.9-2.7.2-.4.7-.4 1.1-.2 6.1.4 12.1-.2 17.7-2.6.4-.1.6-.2.8.3z" fill="#0a090a"/><path d="M256.1 409.2c.6 1.2.1 2.5.2 3.7.1 1.1-.2 2.4.2 3.4.1 2.7 2.5 3.1 4.5 4 1.1.5 2.2.9 3.5 1.1.4 0 .7.1 1-.1.4-.4.1-.7-.1-1.1-.6-1-1.5-1.9-2.5-2.5-.5-.4-1.1-.6-1.6-1-1.5-1-1.7-1.6-1.1-3.4 1.5-4.5 3.6-8.5 5.6-12.7.4-.7.7-1.4.7-2.1v-.6c.5-.4 1-.9 1.5-1.2 1.9-1.7 3.2-3.7 2.9-6.6-.6-4.2-.4-8.6-1.5-12.7-.1-.2-.2-.6.1-.7.5-.1.6.2.6.6.2 1.6.7 3.2.9 4.9.1 3.2.6 6.5.7 9.7 0 .9-.1 1.6-.9 2.4-1.2 1.5-2.4 3.1-3.2 4.9-2.1 4.7-4.2 9.5-6.1 14.3-.5 1.1-.2 1.9.7 2.5 1.9 1.2 3.7 2.5 4.5 4.6.6 1.7-.1 3-2 2.9-2.7-.1-5.2-1.5-7.7-2.4-.4-.5-1-.2-1.5-.2.5-4.2.9-7.9.6-11.7z" fill="#080707"/><path d="M266.9 397.8l.4.4c0 .7-.6.9-1 1.1-3 1.4-5.7 3.1-7.8 5.9-.2.4-.5.6-1 .5l-.4-.4c2.1-4 6.1-5.6 9.8-7.5z" fill="#252424"/><path d="M227.4 338.7c-.2-.1-.5-.2-.7-.4 2.1-1.1 4.4-2.2 6.5-3.4.2-.1.5-.4.6-.1.2.4-.1.5-.4.6-2.1 1.3-3.8 2.8-6 3.3z" fill="#343435"/><path d="M256.1 420.4c.6-.4 1.1-.5 1.5.2-.5-.1-1.1-.4-1 .6.1 1.5 0 3.1-.1 4.6-.5-1.6-.5-3.5-.4-5.4z" fill="#333232"/><path fill="#313580" d="M158.8 394.4c-.9-.4-1-1.2-1.5-1.9-.2-.2-.1-.6.2-.7.4-.2.7-.2.9.1.4.8.9 1.5.4 2.5zM195.9 382.2c-1.1-.2-1.2-1.1-1.7-1.5-.2-.2-.4-.5 0-.7s.7-.2.9.1c.3.5.4 1.3.8 2.1zM200.1 344.6c-.4-.1-.9-.1-.9-.6.1-.5.6-.7 1.1-.9.4-.1.6.1.5.5-.1.3 0 1-.7 1zM186.9 364.2c-.1-.1-.4-.2-.4-.4 0-.6-.5-1.4.1-2 .2-.2.5-.1.6.1.4.8.2 1.5-.3 2.3zM168.6 412.2c.5.2 1.1.2 1.4.9.1.5-.4.6-.7.6-.6 0-1.1-.1-1.2-.9-.1-.4.1-.4.5-.6zM177.6 378c0-.5 0-.9.6-.7.5 0 .5.4.5.7 0 .5-.1 1-.7 1s-.4-.5-.4-1zM205.6 395.7c.7.2.7.9.9 1.5 0 .2-.1.6-.4.5-.6-.2-.7-.9-1-1.4-.3-.5.1-.6.5-.6zM202.7 372.8c-.5-.5-.2-.9-.2-1.1.1-.5-.1-1.1.5-1.5.1 0 .4 0 .4.1.4.6 0 1.1-.1 1.7-.2.1-.5.4-.6.8zM193.5 360.3c.5.1.5.4.5.7-.1.4 0 .9-.6.7-.4-.1-1-.1-.9-.6 0-.4.5-.5 1-.8zM172.8 384.3c.5.1.6.4.5.9-.1.4-.2.9-.7.7-.4 0-.4-.4-.4-.7 0-.5.1-.9.6-.9zM191.8 370.3c0 .5-.1 1-.5 1-.6 0-.4-.6-.4-1s-.1-1 .5-.9c.5.1.4.6.4.9zM156.5 383.6c0 .2.1.7-.2.7-.6-.1-.6-.9-.9-1.2-.1-.2.1-.6.5-.6.6 0 .5.6.6 1.1zM174.8 397.5c-.4.2-.6-.1-.7-.2-.4-.5-1.1-.2-1.2-1 0-.1.1-.2.2-.2.7-.1 1.1.6 1.6 1 .2.1.4.2.1.4zM173.5 375c-.4-.1-.5-.1-.5-.2-.2-.5-.9-.9-.7-1.6 0-.1.4-.2.5-.1.7.3.7 1 .7 1.9zM189.8 431c-.5 0-.5-.2-.5-.6s.1-.9.6-.9.6.4.6.7c0 .5-.2.7-.7.8zM171.2 367.4c.5.1.4.5.4.9s0 1.1-.6 1c-.5-.1-.1-.7-.2-1-.1-.4-.1-.8.4-.9zM203.7 385.5c0 .4-.1.6-.4.5-.5-.2-.5-.9-.7-1.4-.1-.1.1-.4.4-.4.8.1.5.9.7 1.3zM185.8 352c-.6-.2-1.1-.5-1.2-1.2 0-.2.4-.4.6-.4.5.3.7.8.6 1.6zM193 349c.5.1 1 .4 1.1 1 0 .2-.1.5-.4.4-.5-.2-1-.4-1.2-1-.1-.2.1-.4.5-.4zM164.4 380.1c-.4.1-.5-.1-.5-.4 0-.4.1-.9.5-1 .4-.1.6.1.6.5s-.3.8-.6.9zM188.9 388.8c0 .2 0 .6-.4.6-.5-.1-.7-.5-.9-1-.1-.4.1-.6.5-.6.7 0 .5.8.8 1zM189.6 399.3c-.1.4-.1.7-.6.7-.6 0-.4-.6-.5-1-.1-.4 0-.6.4-.6.5 0 .6.5.7.9zM184.2 378.7c.1.4 0 .5-.4.6-.6 0-.6-.5-.9-.9-.1-.4.2-.6.5-.6.8-.1.6.6.8.9zM198.2 405.6c-.5 0-.6-.2-.7-.5 0-.4.1-.6.6-.7.4-.1.5.1.5.5.1.4-.1.6-.4.7zM200.7 348.4c0 .4-.2.5-.6.5-.4-.1-.5-.4-.5-.6 0-.4.2-.5.6-.5.4-.2.4.2.5.6zM197.2 367.5c-.4 0-.6-.1-.5-.4 0-.5.4-.6.9-.7.2-.1.6 0 .6.2-.2.6-.6.8-1 .9zM197.1 375c.5-.5.6-1.1 1.5-1 .1 0 .2.2.1.4-.2.6-.8.7-1.6.6zM188.8 344.3c.5.1.6.5.6.9.1.2-.1.6-.4.5-.5-.1-.6-.6-.7-1.1 0-.2.2-.2.5-.3zM193.1 351.7c.5 0 .6.4.7.6s.1.5-.2.6c-.5 0-.7-.2-.9-.7-.1-.2.2-.4.4-.5zM200.5 357.7c.2 0 .5.1.4.4-.1.5-.4.9-.7 1-.2.1-.4-.1-.4-.2 0-.6.2-1 .7-1.2zM205.4 358.4c0 .2-.1.5-.4.5-.4-.1-.5-.5-.5-.9s.2-.5.5-.4c.4.1.4.5.4.8zM195.7 347.7c0 .2-.1.5-.4.5-.4 0-.7-.1-.7-.5 0-.2.2-.5.5-.5s.5.3.6.5zM202.7 349.7c-.5 0-.5-.4-.6-.6-.1-.4 0-.6.4-.6.5 0 .4.2.5.6 0 .1 0 .5-.3.6zM201 352c-.2 0-.5-.1-.5-.4.1-.4.4-.5.7-.5.2 0 .5.2.4.5 0 .4-.3.4-.6.4zM179.7 362.9c-.4 0-.6-.2-.7-.6 0-.2.2-.5.5-.5.6-.1.5.4.6.6 0 .2 0 .4-.4.5zM154.9 404.9c0 .2 0 .4-.2.4-.5 0-.9-.1-.9-.6-.1-.4.2-.5.5-.5.2.1.5.3.6.7zM185.7 356.1c0 .2-.1.5-.4.4-.4-.1-.6-.4-.6-.7 0-.1.2-.4.4-.4.3.1.4.3.6.7zM202 364.4c-.1.4 0 .7-.5.6-.2 0-.4-.2-.4-.5 0-.4.1-.6.5-.6.4-.1.4.3.4.5zM183 368.8c.4 0 .6.1.6.4 0 .4 0 .6-.4.6-.2 0-.5-.1-.5-.4 0-.4.1-.6.3-.6zM189 348.5c-.4 0-.4-.2-.4-.6 0-.4.1-.6.5-.6s.4.2.4.5c.1.4 0 .7-.5.7z"/><path fill="#fefefe" d="M283 338c-4.4-1-7.7-3.2-10.3-7-.9-1.4-.5-2.5-.5-3.9 0-.4.2-.7-.2-1-.6-.1-.6.5-.7.7-.2.7-.4 1.4-.5 2.1-.4 4.6-1.9 8.8-3.2 13.1-.6 1.9-1.9 3.1-3 4.6-.4 1-1.2 1.6-1.7 2.5.7-.6 1-1.7 2.1-2 .9-1 1.9-2 2.7-2.9.1.1.2.2.2.4-.1 1.5-1.5 2.5-1.9 4 0 .2.1.5.1.7.2.1.5-.1.6-.1.2 0 .4.1.4.4.1.5-.5 1-.2 1.5.1.1.4.2.6.1 1.1-1.5 2.2-3 3.2-4.5 0 0 0-.1-.1-.1h-.1c-.2-.1-.2-.2-.4-.5.2-1.2.9-2.1 1.6-3 .1-.1.2-.1.4 0 1.1 1.9 1.9 3.9 2.1 6.1.2 1.9-.4 3.5-2.2 4.4-.6-.9.6-1.1.5-2-.6.4-1.4.9-1.2 1.5.1 1.2-.6 1.1-1.2 1.1-3.5.4-6-1.2-8.2-3.7-5.2-6.1-9.1-12.9-10.1-21.2-.1-1.5-.6-2.9-.9-4.4-.1-.6-.1-1.2.9-1.1 5.4.2 10.3-1.5 15.3-3.4.9-.4 1.7-.7 2.6-1 2.6-1.1 4.4-.6 6.5 1.7 3.2 3.7 6.1 7.7 8.6 12.1.6 1.1 1.2 2.1 1.9 3.1 1.9 2.9 1.9 5.9.7 8.8-1.6 4.9-3.9 9.5-8 12.8-.9.7-1.4 1.6-1.4 2.9-.1 2.6-1 5-2.4 7.2-.7 1.6-1.9 2.9-3.2 4-.4.4-.9.5-1.4.1-.9-2.1-.4-4.4-.1-6.6.5-4 .5-4-3.4-3.9-.6 0-1.2.1-2-.5 2.9-.1 5.1-2.6 8.1-2.1.6.1 1-.2 1.2-.7 1.7-3.9 3.5-7.7 4.5-12 .1-1.6.5-3 1.2-4.2-.9.9-.5 2.5-1.6 3.5-.2.7-.6 1.4-.9 2.2-1-2.5-1.7-4.7-3-6.8-1-1.7-2.1-3.2-3.7-4.5-.6-.4-.9-.9-.6-1.5.4-1.1.6-2.2 1-3.5 2.7 3.4 6 5.6 10.1 6.3 1.2.1 2.4.2 3.5.6-.6.3-1.5.4-2.3-.4z"/><path fill="#fefefe" d="M271.6 373.6c-7.8 3.7-17.1 0-22.4-6.6-4.4-5.4-5.7-11.6-6-18.1-.4-7-.1-13.9.9-20.8.5-2.9 1.5-5.6 2.5-8.5.5-1.2 1.5-.9 2.2-.9.9 0 .7.9.9 1.4.6 4.9 1.2 9.7 2.5 14.4 1.9 6.8 5.6 12.6 10.1 17.9 1.9 2.2 4.6 3.4 7.7 3.1 4.5-.4 6.7-3.6 5.7-8-.7-3.2-2.5-6-4.2-8.7-.2-.5-.7-.7-.7-1.6 1.7.9 2.7 2.4 3.6 3.9 1.6 2.4 2.5 5.2 3.6 7.8.2.5 0 .9-.1 1.4-1 2.4-2 4.6-2.9 7-.2.6-.6.9-1.2.7-.5 0-1.1-.1-1.5.1-2 1.1-4.2 1.6-6.3 2.4-.5.1-1.1.2-1 1 .1.5.5.9 1 1 1 .2 2 .2 2.9.1 1.5-.2 2 .4 1.7 1.7-.2 2-.4 3.9-.2 5.9.1 1 0 2.1 1.1 2.6-.1.5.3.6.1.8z"/><path fill="#fdfdfd" d="M245.9 319c-2.2 5.1-3.1 10.3-3.5 15.7-.5 5.2-.4 10.6-.2 15.9-1.4-2.5-2.5-5.1-2.7-8-.4-4-.7-7.8-1.6-11.7-.2-1-.7-1.9-1.1-2.7-.1-.4-.2-.9-.7-.6-.4.2-.1.6 0 1 .2 1.1.6 2.2.9 3.2.2.7.1 1.1-.7 1.2-4.4.2-8.7.5-13.2-.7 1.4-1.2 3-1.6 4.4-2.5 4.2-2.7 8.5-5.6 12.2-9.1 2.3-2.3 2.5-2.3 6.2-1.7zM257.4 405.6c2.6-3.5 6.2-5.5 10-7.5.7.4.1.7 0 1-1.4 2.9-2.9 5.7-4.1 8.6-1 2-1.7 4.2-2.6 6.2-.4.9-.1 1.5.7 2.1 1.2.7 2.6 1.4 3.6 2.5.4.4.7.9 1.1 1.2.4.5.7 1.2.2 1.9-.4.5-1 .2-1.6.1-2.2-.4-4.1-1.5-6.2-2.1-1.7-.5-1.9-1.9-1.7-3.4.2-3.1 1-6.2.1-9.5-.2-.3.5-.6.5-1.1z"/><path d="M276.3 368.8c2.2-2.2 2.7-5.2 3.4-8.1.2-1.1.7-1.7 1.7-2.7.2 2.6-.2 4.9-1.1 7-1.5 3.6-4.1 6.1-7.3 8.2-.6-.1-.4-.5-.1-.7 1-1.2 1.8-2.8 3.4-3.7z" fill="#f5f5f5"/><path d="M272.4 343.4h-.2c-1 .7-1.2 2-1.9 2.9-.9 1.4-1.5 2.9-3.1 3.6-.1-.1-.1-.2-.2-.2-.4-.6.1-1.1.4-1.5.9-1.4 1.6-2.7 2.5-4.1.1-.4.9-.6.2-1.1-.4-.2-.2-.6-.1-1-.4 1.1-.7 2.2-1.7 3.1-.1 0-.2 0-.4-.1v-.4c.5-1.2 1-2.5 1.6-3.7.4-.9.9-1.1 1.5-.1.4.7 1.3 1.5 1.4 2.6z" fill="#e9e7e8"/><path d="M276.3 368.8c-.9 1.2-1.7 2.2-2.9 3.2-.2.2-1.1.4-.5 1.1-.4.4-.7.6-1.2.6-.1-.2-.2-.4-.4-.6.2 0 .5-.1.7-.1-.2-.2-.6-.1-.6-.5 1.2.2 1.6-1 2.4-1.6.9-.7 1.5-1.6 2.2-2.5 0 .1.2.3.3.4z" fill="#343434"/><path d="M279.3 346.1c.4-1.7 1-3.4 2.4-4.7-.6 1.9-1.4 3.6-1.9 5.5-.2-.4-.3-.7-.5-.8z" fill="#323232"/><path d="M283 338c1.1.2 2.1.5 3.2.7-1.5.7-2.9.1-4.2-.4.4 0 .9.1 1-.3z" fill="#2f2f2f"/><path d="M265.1 347.4c-.7 1-1.5 2-2.2 3-.1-.1-.2-.1-.4-.2.4-1.2 1.2-2.2 2.2-3.1.1 0 .3.1.4.3z" fill="#313030"/><path d="M267.3 349.9c1.4-1.6 2.5-3.4 3.6-5.2.2-.5.2-1.5 1.4-1.2-.5 1-1 2-1.6 3-.9 2-2 3.9-3.7 5.2-.2 0-.7-.1-.4-.5.2-.5.5-.8.7-1.3z" fill="#2b2728"/><path d="M270.3 342.6c.1-.1.2-.4.5-.5-.6 2.9-2.5 5-3.7 7.5-.6 1-.6 1-1 .2.6-2.2 2.4-3.9 3.1-6 .2-.4.7-.8 1.1-1.2z" fill="#221e1f"/><path d="M270.9 346.7c.2-.1.4-.6 1-.5-1.4 2-2.5 4.2-4.4 5.7-.1-.2-.2-.5 0-.7 1.1-1.5 1.9-3.2 3.4-4.5z" fill="#302d2d"/><path d="M270.9 346.7c-.9 1.2-1.7 2.5-2.6 3.7-.4.5-.9.9-.7 1.6-.2-.1-.5-.2-.7-.4 1.2-1.7 2.5-3.5 3.7-5.2l.3.3z" fill="#cecbcc"/><path d="M269.6 343.8c-.9 2.2-2.2 4.1-3.6 6.1-.1-.4-.2-.6-.2-1 1-1.4 1.7-2.9 2.7-4.1.2-.5.3-1 1.1-1z" fill="#c1bebf"/><path d="M272.7 348c-1 1.4-2.2 2.5-3.1 3.9 0-2.2 1.7-2.9 3.1-3.9z" fill="#464344"/><path d="M268.6 344.9c-.7 1.2-1.5 2.6-2.2 3.9-.1.2-.4.1-.5.1.4-1.5 1.5-2.6 2.1-4h.2c0-.1.1-.1.4 0z" fill="#2c2a2a"/><path d="M268.6 344.9c-.1 0-.2 0-.5-.1.6-1.1 1.4-2.2 1.7-3.5.1-.2.1-.7.5-.5.4.1.4.4.2.7-.1.4-.5.6-.2 1.1-.1.5-.2 1-.7 1.1-.4.4-.8.8-1 1.2z" fill="#3f3c3c"/></g></svg>
