<svg xmlns="http://www.w3.org/2000/svg" viewBox="0 0 500 500"><linearGradient id="a" gradientUnits="userSpaceOnUse" x1="7" y1="253.151" x2="496" y2="253.151"><stop offset="0" stop-color="#2654b4"/><stop offset="1" stop-color="#33edec"/></linearGradient><path d="M444.64 183.73s61.87-48.29 49.8-111.67c-7.29-38.29-44.88-36.37-73.5-28.86-16.89 4.44-32.88 11.76-47.53 21.27l-132.5 86.06L7 26.79v310.87l233.91 141.86s132.8-98.09 178.07-129.78 76.96-83 76.96-125.25-51.3-40.76-51.3-40.76zM201.67 411.61L49.25 321.06V103.75l152.42 81.49v226.37zm73.95-217.31l93.01-64.39c2.85-1.98 5.65-4.01 8.41-6.11 14.02-10.71 59.91-48.41 67.6-12.5 9.05 42.25-36.22 69.42-36.22 69.42l-132.8 93.56V194.3zm119.22 125.25l-119.22 86.02v-82.66s94.24-67.16 128.27-87.87c34.71-21.13 33.2 4.53 33.2 4.53 8.59 43.67-42.25 79.98-42.25 79.98z" fill="url(#a)"/></svg>
