<svg xmlns="http://www.w3.org/2000/svg" viewBox="0 0 500 500"><g><path fill="#ec1c24" d="M74.3 103.7c30.6 28.6 44.9 66.4 54.1 106.2 13 63.8 16.8 129.2 11.2 194.1-.3 4-1.7 7.9-4.1 11.2-5.5-22.4-19.9-41.6-39.8-53.1-31.7-20.4-48-51.1-59.3-85.8-9.3-29.6-15.4-60.1-18.4-90.9-16.8-132.6 56.3-81.7 56.3-81.7zM211.2 471.4c16.3-103.2 38.8-204.3 112.4-284 40.7-44.5 96.3-72.5 156.3-78.7 6.1-1 9.2 0 9.2 6.1 0 57.2 2 114.4-15.3 170.6-4.6 15.4-11.9 30-21.5 42.9-14.3 19.9-36.8 32.2-61.3 33.7-36 1.7-71.1 11.1-103.2 27.6-29.7 16.3-53.3 41.7-67.4 72.5-3.1 3.2-3.1 7.3-9.2 9.3zM190.7 352.9c4.1-66.4 9.2-131.8 32.7-194.1 19-53.9 56.2-99.4 105.2-128.7 2.9-2.3 6.5-3.4 10.2-3.1v69.5c-.2 3.2-2.2 6-5.1 7.2-66.4 48-101.1 115.4-122.6 191-6.1 22.5-11.2 46-17.4 68.4-3.7 10.9-3-6.1-3-10.2z"/></g></svg>
