<svg xmlns="http://www.w3.org/2000/svg" viewBox="0 0 500 500"><g><path fill="#534c3c" d="M70.2 322.9l-2.7.8c-.3-1.2-.8-2.4-1.4-3.7-.3-.6-.6-1-.9-1.2-.3-.2-.8-.2-1.5-.2-1 .1-4.4.9-10.2 2.5-4.1 1.1-8.4 2.3-12.7 3.5-8.4 2.4-12.7 3.7-12.9 3.8-.1.1 0 .9.4 2.3.9 3 1.7 5.5 2.4 7.6.5 1.2.8 1.9.9 2 .2.1.4.2.7.2.3 0 2.2-.3 5.8-1.1l.8 2.7c-4.1 1.1-7.6 2.2-10.4 3.3l-.4-.3c-1.6-6.8-3.3-13.4-5.1-19.7-1.8-6.3-4-13.3-6.6-21.1l.4-.5c3-.4 6.5-1.1 10.5-2.1l.8 2.6c-3.5 1.2-5.4 2-5.7 2.2-.2.2-.3.6-.2 1.2.2 1.8 1 5.2 2.5 10.3.1.4.3.7.4.7.2 0 .8-.1 1.7-.4l21.5-6c6.2-1.8 10-2.9 11.4-3.4 1.4-.5 2.2-1 2.4-1.5.1-.3-.1-2.1-.8-5.2l2.7-.8c.7 3.2 1.6 6.5 2.6 10 1.5 4.9 2.7 8.6 3.6 11.5zM61.5 290.8l-2.7.2c-.3-2.4-.5-3.7-.8-4.1-.1-.2-.4-.4-.6-.5-.6-.2-2.6-.2-6.1 0l-12.2.7c-6.5.4-12.4.8-17.7 1.3-2 .2-3.2.4-3.5.8-.3.4-.4 1.8-.4 4.3l-2.4.1c-.1-1.4-.5-3.3-1.1-5.8-.7-2.5-1.4-4.6-2.1-6.1-.3-.6-.5-1-.5-1.1 0-.3.2-.5.6-.5h.2c.5 0 1.4 0 2.5-.1l10.7-.4c2.6-.1 5.6-.3 8.9-.5l-4-4.1c-.8-.9-1.3-1.5-1.6-2-.5-1.1-.9-2.5-.9-4.1-.2-3.5.5-6.1 2.1-7.8 1.6-1.7 4.3-2.7 8.1-3l13.2-.7c2.3-.1 3.8-.3 4.3-.5.3-.1.6-.4.8-.8.2-.4.2-1.7.2-3.7l2.7-.2c0 2.7.1 5.1.2 7.3.1 2 .3 4 .6 6.1l-.5.5c-4.3-.2-8.5-.1-12.7.1-5.7.3-9.1.9-10.5 1.6-1.6 1-2.4 2.6-2.3 4.9.1 1.4.5 2.6 1.2 3.6s1.5 1.7 2.4 2.1c.9.4 2.6.5 5 .3l10.2-.8c2.3-.2 3.7-.4 4.1-.6.2-.1.4-.3.5-.6.2-.5.3-1.9.3-4.3l2.7-.2c0 2.5.1 5.2.3 8 .2 4 .5 7.6.8 10.6zM56.6 222.7l1.1-.8 3 1.9c.8 1.7 1.3 3.5 1.6 5.4.3 1.9.3 3.8 0 5.9-.6 4.8-2.5 8.4-5.6 10.8-3.1 2.4-7.2 3.3-12.2 2.7-3.2-.4-5.8-1.1-7.8-2.2-1.6-.9-2.9-2.1-3.8-3.8-.9-1.6-1.8-3.5-2.6-5.6-.8-2.1-1-4.3-.7-6.7.4-3.6 1.8-6.5 4.1-8.6 2.3-2.1 5.7-2.9 10.2-2.3.6.1 1.4.2 2.5.4l.3 5.5c-.1 1.7-.3 4.1-.7 7.3l-.9 7.1c3.8.1 6.8-.6 9-2.3 2.2-1.7 3.4-4 3.8-7 .2-1.3.1-2.5-.1-3.8-.3-1.3-.6-2.6-1.2-3.9zm-15.1 16.8c.4-2 .8-3.9 1-5.9.2-1.7.4-3.6.4-5.5l-1.6-.2c-2.7-.3-4.8-.1-6.1.7-1.4.8-2.2 2.1-2.4 3.8-.1 1.2 0 2.2.5 3.2.5.9 1.2 1.7 2.2 2.2 1.1.5 3.1 1.1 6 1.7zM68.4 200.8l-1.4-.6c-.2-1.5-.5-2.6-.8-3.5-2.7-1.4-8.9-4.2-18.5-8.3-7-2.9-11.9-4.9-14.9-6-1.6-.6-2.6-.7-3-.5-.6.3-1.5 1.7-2.8 4.3l-2.6-1.1 2.6-5.8 2-4.5c.6-1.4 1.4-3.4 2.5-6.1 1-2.6 1.8-4.5 2.2-5.6 1.9-4.5 4-7.4 6.4-8.8 2.3-1.3 4.8-1.4 7.4-.3 2.7 1.1 4.5 3 5.4 5.7.9 2.7.9 5.9.2 9.7l.2.1c1.9-3.5 3.5-5.8 4.9-6.9 1.4-1.2 3-1.9 4.9-2.1 1.9-.2 3.9.1 5.9.9 2.4 1 4.4 2.7 6 5.1 1.5 2.4 2.4 5 2.5 8 .1 2.9-.8 6.6-2.6 11-.4.9-1 2.2-1.8 3.9-.8 1.6-1.4 2.9-1.8 4-.6 1.3-1.5 3.7-2.9 7.4zm-20.3-22.4l.7-1.6c1.5-3.4 1.9-6.1 1.2-8.1-.7-1.9-2.3-3.4-5-4.6-2.3-1-4.3-1.1-5.9-.5-1.6.7-2.9 2.3-4 4.9-.4 1-.8 2.2-1.2 3.6 6.2 2.8 10 4.5 11.4 5l2.8 1.3zm21.8 9.1c.8-1.1 1.4-2.1 1.9-3.1 1.2-2.9 1.3-5.5.3-7.7s-3.1-4.1-6.3-5.4c-2.1-.9-4-1.3-5.6-1.1s-3 .7-4.2 1.6-2.2 2.6-3.2 4.8l-1.3 3.1.8.3 7.9 3.4 8 3.3 1.7.8zM49.4 130.4c.8-1.2 1.8-2 3.2-2.3 1.4-.3 2.7-.1 3.9.7 1.2.8 2 1.8 2.3 3.2.3 1.4.1 2.7-.7 3.9-.8 1.2-1.8 2-3.2 2.3s-2.7.1-3.9-.7c-1.2-.8-2-1.8-2.3-3.2-.3-1.3-.1-2.6.7-3.9zM85.1 164l-2.3-1.5c1.3-2.2 1.9-3.5 1.9-3.9 0-.4-.4-1-1.2-1.6-1.1-.9-3.6-2.6-7.7-5.2-1.7-1.1-3.4-2.1-4.9-3l-3.3-2c-1.1-.7-1.8-1-2.2-.9-.4.1-.9.6-1.6 1.6l-1.4 2.1-2.2-1.4c2.5-4.7 4.1-8.9 4.6-12.7l1-.3c3.4 2.5 8.5 6 15.4 10.3 4 2.5 6.4 4 7.3 4.3.6.3 1.1.3 1.5.2.3-.1 1.3-1.3 2.8-3.3l2.3 1.5c-2.2 3.3-4 5.9-5.1 7.7-.6 1-2.2 3.7-4.9 8.1zM100.3 142.1l-1.5.8c-3.8-3.8-9.2-8.9-16.3-15.1-3.2-2.8-5.7-5-7.5-6.5l-6.5-5.5c-1-.9-1.7-1.4-2.2-1.5-.3-.1-.6 0-1 .2-.3.2-1.2 1.1-2.8 2.8l-1.8-1.6c.8-.9 1.9-2.5 3.2-4.9 1.4-2.3 2.3-4.2 2.7-5.5l.5-1.5c.3-.3.6-.3 1 .1l2.6 2.4c.9.8 5.5 5 14 12.6l.1-5.2c0-1.7.3-3 .6-4 .4-1 1.1-2 2-3.1 2.5-2.8 5.3-4.3 8.6-4.4 3.3-.1 6.3 1.1 9.2 3.6 1.4 1.2 2.7 2.8 3.8 4.5 1.1 1.8 1.8 3.4 2.2 5s.4 3.2.2 4.9c-.3 2.2-.6 4-.7 5.6-.1 1.9-.4 3.4-.8 4.4-.4 1-1.1 2.1-2.1 3.2s-2 2-3.2 2.7c-1.1.7-2.6 1.4-4.4 1.9 0 .8 0 2.1.1 4.1zm-12.9-20.9l11.5 10.1c1.5.2 2.8.1 4-.4 1.2-.5 2.3-1.2 3.3-2.3 1.6-1.8 2.1-3.8 1.7-6.2-.5-2.3-2.1-4.8-5-7.3-2.7-2.4-5.3-3.6-7.7-3.7-2.4-.1-4.4.8-6 2.6-.8 1-1.4 2.1-1.7 3.3-.3 1-.4 2.4-.1 3.9zM94.2 82.7L93 81.2c2.1-2.3 3.8-4.3 4.9-5.8 1.1-1.5 2.2-3.2 3.3-5.2h1.1c4.8 6.3 11.7 14.9 20.8 25.8 1.8 2.2 3.7 4.4 5.7 6.6 1.2 1.4 2 2.2 2.3 2.3.3.1.7.1 1.1 0 .4-.1 1.5-.8 3.3-2.2l1.7 2.1-2.7 2.1c-1.7 1.3-3.1 2.5-4.3 3.4l-7.5 6.5-1.7-2.1 1.8-1.7c.8-.7 1.2-1.4 1.3-1.8s-.7-1.7-2.2-3.6c-2.1-2.6-5.1-6.3-9-11.1l-9.1-10.9c-2.8-3.3-4.4-5.1-5-5.4-.2-.1-.5-.2-.8-.1-.6.2-1.8 1-3.8 2.6zM158.9 83.2l1.3.3.4 3.5c-.8 1.7-1.9 3.2-3.2 4.6s-2.8 2.6-4.6 3.7c-4.1 2.5-8.1 3.4-11.9 2.4-3.8-.9-7.1-3.5-9.8-7.8-1.7-2.7-2.7-5.2-3.2-7.4-.3-1.8-.2-3.6.5-5.3.7-1.8 1.6-3.6 2.8-5.5 1.1-1.9 2.7-3.5 4.7-4.7 3.1-1.9 6.2-2.6 9.3-2.2 3.1.5 5.8 2.6 8.2 6.5.3.5.7 1.2 1.2 2.2l-4.1 3.7c-1.4 1-3.4 2.3-6.1 4l-6.1 3.8c2.3 3.1 4.8 4.9 7.5 5.5 2.7.6 5.3.1 7.8-1.5 1.1-.7 2-1.5 2.9-2.4 1-1.1 1.7-2.2 2.4-3.4zM136.4 82c1.8-.9 3.5-1.9 5.2-2.9 1.5-.9 3-2 4.5-3.1l-.8-1.3c-1.4-2.3-2.9-3.8-4.4-4.3-1.5-.5-3-.4-4.4.5-1 .6-1.7 1.4-2.2 2.4-.4 1-.5 2-.3 3.1s1 2.9 2.4 5.6zM179.2 65.4l2.8-.8c1 3.1 1.6 4.9 1.9 5.4.3.5 1.2 1 2.5 1.6 1.3.6 2.9.9 4.7.9s3.6-.2 5.3-.7c3-.9 5.1-2.4 6.5-4.5 1.3-2.1 1.6-4.4.9-6.7-.6-2.2-1.7-3.7-3.3-4.5-1.6-.8-4.1-1-7.6-.4-5.2.8-8.8 1-10.8.6-2-.3-3.8-1.2-5.3-2.6-1.5-1.4-2.6-3.3-3.3-5.7-1.2-4-.8-7.8 1.2-11.4 2-3.6 6.1-6.3 12.2-8.1 2.4-.7 4.6-1.2 6.6-1.4 2-.2 4-.2 6.2.1l.5.7c.1 1.4.2 2.7.4 3.8.2 1.1.6 3 1.3 5.7l-2.7.8c-1.1-3.2-1.8-5-2.1-5.4-.6-.6-1.9-1-3.7-1.3-1.9-.3-3.9-.1-6 .5-2.9.9-5 2.2-6.1 4.1-1.2 1.9-1.4 3.9-.8 6.2.4 1.4 1.1 2.4 2 3.3 1 .8 2.1 1.3 3.4 1.4 1.3.1 4-.1 8.1-.6 3.7-.5 6.2-.7 7.6-.6 2.3.2 4.2 1 5.8 2.4s2.7 3.4 3.5 6c1.3 4.5.7 8.7-1.8 12.7-2.6 4-6.8 6.9-12.8 8.7-2.7.8-5.1 1.2-7.5 1.4-2.3.1-4.8 0-7.5-.5-.1-1.6-.2-3-.4-4.3-.3-1.7-.9-4-1.7-6.8zM217.6 52.9c-.5-5.2.3-9.3 2.5-12.1 2.6-3.4 6.7-5.4 12.2-5.9 5.5-.5 9.6.3 12.4 2.6 2.8 2.2 4.4 6.1 4.9 11.4.5 5.5-.5 9.9-3.1 13.2s-6.5 5.2-11.7 5.7c-5.1.5-9.1-.5-12.1-3.1-2.9-2.5-4.6-6.4-5.1-11.8zm8.9-3.1c.6 5.9 1.7 10 3.5 12.3 1.4 1.8 3.2 2.6 5.5 2.4 2-.2 3.6-1.2 4.5-2.9 1-1.7 1.2-4.8.8-9.1-.6-5.9-1.7-10-3.2-12.1-1.3-1.7-3.1-2.4-5.5-2.2-2 .2-3.6 1.2-4.6 3-1 1.7-1.4 4.6-1 8.6zM279.7 47.1l-2.7-.2c0-2.6-.1-4.2-.2-4.6-.2-.6-.9-1.2-1.8-1.8-1-.6-2.2-.9-3.7-1-2.3-.2-4.1.4-5.3 1.6-1.2 1.3-1.9 3.6-2.1 7.1-.3 4.4.5 7.9 2.3 10.4 1.8 2.5 4.3 3.9 7.5 4.1 1.1.1 2.2.1 3.2-.1s1.9-.4 2.7-.7l.5.8c-.6 1-1.1 2.1-1.6 3.1-1.5.6-3 1.1-4.6 1.3-1.5.3-3.1.3-4.6.2-4.8-.3-8.5-1.9-11-4.8s-3.6-6.7-3.2-11.6c.1-1.8.4-3.4.9-4.9.5-1.4 1-2.7 1.7-3.6.7-1 1.4-1.8 2.2-2.4.5-.3 2.5-1.4 6-3.3 2.1-1.1 3.5-1.8 4.5-2 .9-.2 2.1-.3 3.6-.2 1.3.1 2.6.3 3.9.6s2.4.7 3.6 1.2l.5.6c-1.3 3.8-2 7.2-2.3 10.2zM282.9 68.2l.5-2.7c2.5.4 3.9.5 4.3.4.4-.1.8-.7 1.1-1.7.4-1.3 1.1-4.3 2.1-9 .4-2 .8-3.9 1-5.6l.7-3.8c.3-1.3.3-2.1.1-2.4-.2-.3-.9-.7-2.1-.9l-2.4-.6.5-2.5c5.3.7 9.8.6 13.5-.2l.7.8c-1.2 4.1-2.6 10.1-4.2 18-.9 4.6-1.4 7.4-1.5 8.4 0 .7.1 1.2.3 1.4.3.3 1.6.7 4.1 1.4l-.5 2.7c-3.9-.9-6.9-1.6-9-2-1.1-.3-4.2-.8-9.2-1.7zm18.6-45.4c1.4.3 2.5 1 3.3 2.2.8 1.2 1 2.5.8 3.9-.3 1.4-1 2.5-2.2 3.3-1.2.8-2.5 1-3.9.8-1.4-.3-2.5-1-3.3-2.2s-1-2.5-.8-3.9c.3-1.4 1-2.5 2.2-3.3 1.2-.8 2.5-1.1 3.9-.8zM331.7 75.2l.6 1.2-2.5 2.5c-1.8.4-3.7.5-5.6.4-1.9-.1-3.8-.5-5.7-1.2-4.6-1.6-7.7-4.2-9.4-7.7-1.7-3.6-1.7-7.7 0-12.5 1.1-3 2.3-5.4 3.8-7.1 1.2-1.4 2.7-2.4 4.5-2.9s3.8-1 6-1.3c2.2-.3 4.4-.1 6.7.7 3.4 1.2 5.9 3.2 7.5 5.9 1.6 2.7 1.6 6.2.1 10.4-.2.5-.5 1.3-1 2.3l-5.5-.9c-1.6-.5-3.9-1.2-6.9-2.3l-6.8-2.4c-1 3.7-.8 6.8.4 9.3 1.2 2.5 3.2 4.2 6.1 5.2 1.2.4 2.4.7 3.7.7s2.6 0 4-.3zM318.5 57c1.8.8 3.7 1.6 5.6 2.2 1.7.6 3.4 1.1 5.3 1.6l.5-1.5c.9-2.6 1.1-4.6.6-6.1-.5-1.5-1.6-2.6-3.2-3.1-1.1-.4-2.2-.5-3.2-.2s-1.9.8-2.6 1.7c-.8.8-1.8 2.6-3 5.4zM345 59.1l5.2-.5c1.7-3.5 3.2-6.6 4.4-9.3 3.1.6 6.2.9 9.2.9l.5 1.1c-1.9 2.6-4.2 6.3-6.8 11 .8.6 1.7 1.2 2.6 1.6 2 1 3.9 1.8 5.6 2.4l.2.3-.8.9c-.9 1-1.6 1.9-2.2 2.7-2.2-1.3-3.9-2.3-5-2.8-.8-.4-1.6-.8-2.4-1.1-1.1 2-2 3.7-2.8 5.2-3.4 6.6-5.1 10.5-5.2 11.6-.1 1.1.6 2 2.1 2.8.4.2.9.4 1.5.6.6.2 1.2.3 1.8.4l-.1 1.4c-1.9.7-3.7 1.5-5.6 2.3-.8-.3-1.5-.5-2.1-.8-.6-.3-1.2-.5-1.7-.8-1.7-.9-2.9-1.8-3.7-3s-1.2-2.3-1.3-3.5c0-1.2.4-2.6 1.3-4.4.5-.9 1.8-3.4 4-7.4 1.9-3.5 3.4-6.2 4.5-8.3l-1.5-.8c-.6-.3-1.5-.7-2.5-1.1l.8-1.4zM368 68.1l1.6-2.2c4.1 3.1 6.7 5 7.8 5.8 1.6 1.1 3.9 2.7 6.9 4.7l-1.6 2.2c-1.7-1.1-2.8-1.7-3.2-1.8-.4-.1-.8.1-1.1.5-.4.5-1.3 3.7-2.7 9.4l-2.4 9.6 6.7-4.1c6-3.7 9.3-5.9 9.9-6.7.3-.4.3-.8.1-1.1s-1.1-1.2-2.7-2.4l1.6-2.2 1.7 1.3c1.8 1.4 3 2.3 3.6 2.7.6.5 2.4 1.6 5.2 3.5l-1.6 2.2c-.9-.6-1.7-1-2.5-1.1-.3 0-.7 0-1 .1-.6.2-3.5 1.9-8.7 5l-13.3 7.9-12.3 7.3c-2.6 1.4-4.7 2.3-6.1 2.5-1.5.3-2.8.3-4.1 0-1.3-.3-2.6-.9-3.8-1.7-1.2-.9-2.3-2.1-3.2-3.7 1.7-1.5 3.3-3 4.7-4.5l.9.3c.2 1.9 1 3.4 2.4 4.4 1.2.8 2.4 1.2 3.8.9 1.3-.2 4.1-1.6 8.4-4.1l4.9-19.6 2.5-10.6c.2-.9.2-1.5 0-2-.1-.5-.9-1.3-2.4-2.5zM393.4 125.4l2-1.8c1.7 1.8 2.8 2.8 3.2 3 .4.1 1.1-.1 1.9-.7 1.2-.8 3.5-2.8 7.1-5.9 1.6-1.4 3-2.6 4.2-3.8l2.9-2.6c1-.8 1.5-1.5 1.5-1.9 0-.4-.3-1.1-1.1-2l-1.6-1.9 1.9-1.7c3.8 3.7 7.4 6.4 10.8 8v1.1c-3.4 2.5-8.2 6.5-14.2 11.8-3.5 3.1-5.6 5-6.2 5.8-.4.5-.6 1-.6 1.3 0 .4.8 1.6 2.4 3.7l-2 1.8c-2.5-3.1-4.5-5.5-6-7.1-.6-1-2.7-3.3-6.2-7.1zm42.3-24.8c.9 1.1 1.4 2.3 1.3 3.7-.1 1.4-.7 2.6-1.8 3.6-1.1.9-2.3 1.4-3.7 1.3s-2.6-.7-3.6-1.8c-.9-1.1-1.4-2.3-1.3-3.7s.7-2.6 1.7-3.5c1.1-.9 2.3-1.4 3.8-1.3 1.5 0 2.7.6 3.6 1.7zM407.5 140.6l2.3-1.5c1.4 2 2.3 3 2.7 3.1s1 0 1.8-.4c2-1.1 5.3-3.1 10.1-6.1 2.4-1.5 4.4-2.8 6-4 1-.7 1.6-1.2 1.7-1.4.1-.2.1-.4.1-.7-.1-.3-.7-1.4-1.9-3.4l2.2-1.4c.6 1 1.9 2.5 3.6 4.3 1.8 1.9 3.4 3.4 4.9 4.5l.7.6c.2.3 0 .5-.4.8l-.3.1c-.6.3-1.9 1.1-4.1 2.5l6.4 2c.8.2 1.5.6 2 1.1.7.7 1.5 1.6 2.2 2.8 1.3 2 1.9 3.8 2 5.5.1 1.7-.3 3.2-1.1 4.6-.8 1.4-2.5 2.8-5.1 4.4-1.1.7-2.4 1.5-4 2.4-3.1 1.8-5.8 3.4-8 4.8-1.3.8-2.1 1.4-2.4 2-.2.4-.3.7-.3 1.1.1.3.6 1.5 1.5 3.3l-2.3 1.5-2.1-3.5-1.3-2.3-3.8-5.7.2-.5c3.9-1.8 7.7-3.8 11.4-6.2 4.8-3 7.5-5.1 8.3-6.4 1-1.6.8-3.5-.4-5.4-.8-1.3-1.8-2.2-3.1-2.7-1.2-.5-2.3-.7-3.2-.5-.4.1-1.4.6-3 1.6-6.8 4.3-10.7 6.8-11.6 7.4s-1.5 1.2-1.5 1.6c-.1.5.5 1.9 1.8 4.1l-2.3 1.5c-1.9-3.3-3.6-6.1-5-8.4-.8-1.2-2.4-3.6-4.7-7.1zM434.5 189.7l2.7-.9c1.1 2.8 1.9 4.4 2.3 4.7.5.3 1.4.2 2.7-.1 2.8-.7 8-2.3 15.6-4.8 2.9-.9 7.1-2.4 12.6-4.2 3.8-1.3 5.8-2 6.1-2.3.3-.2.5-.6.6-.9.1-.5-.2-2.2-1-5l2.7-.9c1.3 4.4 2.3 7.7 3 10 1.3 4 2.5 7.5 3.7 10.7l-2.7.9c-1.1-2.8-1.9-4.4-2.3-4.7s-1.1-.3-2.2-.1c-2.1.5-6.2 1.7-12.4 3.7-8.2 2.7-13.9 4.5-17.1 5.7-3.2 1.1-5.1 1.9-5.6 2.4-.2.2-.4.6-.4 1 0 .5.3 2 .9 4.5l-2.7.9-1.1-3.8c-.7-2.4-1.3-4.5-1.9-6.4l-3.5-10.4zM453.4 215.1c-2.8.6-4.3 1-4.6 1.3-.8.6-1.4 1.7-1.9 3.1s-.5 3-.2 4.8c.4 2.1 1.1 3.6 2.2 4.5 1.1.9 2.3 1.2 3.8 1 1.3-.2 2.2-.8 2.8-1.7.6-.9.9-2.6 1-5.2.1-3.9.4-6.5.8-7.8s1.2-2.3 2.3-3.2c1.1-.9 2.5-1.5 4.2-1.8 2-.4 3.9-.2 5.6.5 1.7.7 3.2 1.9 4.4 3.7 1.2 1.7 2.1 4.1 2.7 7.2.6 3.2.6 6.3 0 9.3-1.8 0-4.6.3-8.4.9l-.5-2.6c2.3-.6 3.7-1 4.1-1.3.6-.4 1-1.2 1.3-2.2.4-1.4.4-2.8.2-4.2-.3-1.8-1-3.2-2-4-1-.9-2.1-1.2-3.4-1-1.2.2-2 .8-2.5 1.9-.5 1-.8 3.3-.8 6.9 0 2.5-.1 4.2-.3 5.2-.4 1.6-1.1 3-2.2 4s-2.6 1.7-4.5 2c-3.7.7-6.8-.3-9.2-2.8-2.5-2.5-4.1-5.7-4.8-9.7-.2-1.3-.3-2.8-.3-4.4 0-1.6.1-3.5.4-5.4l.5-.6c1.9-.1 5-.5 9-1.1l.3 2.7zM446.8 240l2.7-.1c.2 2.2.4 3.5.6 3.8.1.3.4.5.7.6.5.2 1.7.3 3.5.3 3.2 0 6.2-.1 8.8-.2 5.1-.2 8.1-.4 9.1-.6.6-.1.9-.3 1.2-.6.2-.3.3-1.8.3-4.3l2.6-.1c.6 4.4 1.3 7.6 2 9.5l1.4 3.4c0 .3-.2.5-.6.5h-.5c-1.4 0-3.4 0-6 .1 1.1 1.1 2.5 2.3 4.3 3.6 1.3 1 2.1 1.8 2.5 2.6.4.7.6 1.7.7 3 0 .7-.1 1.4-.3 2.2-2.2-.1-5.2-.1-9 0l-.6-1.5c.8-.5 1.4-1.1 1.7-1.7.3-.6.5-1.4.4-2.4-.1-1.3-.4-2.5-1.2-3.4-.7-.9-1.5-1.5-2.4-1.7-.7-.1-2.9-.1-6.8 0-5.6.2-8.9.4-9.8.6-.6.1-1 .3-1.2.7-.3.5-.5 2.2-.5 5l-2.7.1v-3.7c0-2.4-.1-4.4-.1-6.1-.1-1.6-.2-3.5-.3-5.7l-.5-3.9zM447.3 296.7l-2.7-.3.4-2.5c.2-1.3.4-2.7.5-4 .2-2.1.4-4 .4-5.9l.4-.3 4.5.8-4.4-7.5c-.2-1.3-.2-2.4-.1-3.3.3-2.3 1.1-4.1 2.7-5.2 1.5-1.1 3.6-1.5 6.3-1.2 3.3.4 5.5 1.5 6.6 3.4 1.5 2.4 2.5 7.6 3.1 15.4 2.6.2 4.5 0 5.8-.7 1.7-1 2.8-2.8 3-5.3.1-.6.1-1.2 0-1.9-.1-.6-.2-1.3-.5-2l-3.4-1.9.8-2.2 1.5.2 1.5.1 1.3.1c1.7 3.6 2.8 6.2 3.1 7.7.3 1.1.3 2.6.1 4.6-.3 2.6-.9 4.7-1.9 6.2-1 1.5-2.2 2.6-3.6 3.2-1.4.6-3.4.8-6 .5-1.1-.1-3-.4-5.8-.8-2.9-.4-5.2-.7-6.9-.9-2.8-.3-4.4-.4-5.1-.3-.4 0-.7.2-.9.6.1.2-.3 1.4-.7 3.4zm14.9-11c-.4-4-1.1-6.6-1.9-7.8-.9-1.3-2.1-2-3.8-2.2-1.3-.1-2.4.1-3.3.8-.9.7-1.3 1.6-1.5 2.7-.2 1.7.6 3.6 2.4 5.7l8.1.8zM442.9 326.3l-1.2.7-2.7-2.3c-.5-1.8-.8-3.7-.7-5.5 0-1.9.3-3.8.9-5.8 1.3-4.6 3.7-7.9 7.1-9.8 3.5-1.9 7.6-2.2 12.5-.8 3.1.9 5.5 2 7.3 3.4 1.5 1.1 2.5 2.5 3.2 4.3.7 1.8 1.2 3.7 1.7 5.9.4 2.2.3 4.4-.3 6.7-1 3.5-2.8 6.1-5.4 7.8-2.6 1.7-6.1 2-10.4.8-.5-.2-1.3-.4-2.4-.8l.5-5.5c.3-1.6 1-4 1.8-7.1l2-6.9c-3.8-.7-6.8-.4-9.2.9-2.4 1.4-4 3.5-4.8 6.4-.3 1.2-.5 2.5-.5 3.8.1 1.1.3 2.4.6 3.8zm17.4-14.3c-.7 1.9-1.3 3.8-1.9 5.7-.5 1.7-.9 3.5-1.2 5.4l1.5.5c2.6.7 4.7.8 6.2.2 1.5-.6 2.4-1.7 2.9-3.4.3-1.2.3-2.2 0-3.2s-1-1.8-1.9-2.5c-.9-.8-2.8-1.7-5.6-2.7zM475.7 346.8l1.8.8c-.9 3-1.5 5.5-1.8 7.3-.3 1.8-.5 3.9-.6 6.1l-1 .5c-7.1-3.5-17.2-8.1-30.2-13.8-2.6-1.1-5.3-2.3-8-3.4-1.7-.7-2.8-1-3.1-1-.3 0-.7.2-1 .4-.3.3-1 1.4-1.9 3.5l-2.5-1.1 1.5-3.1c.9-2 1.7-3.6 2.3-5l3.8-9.2 2.5 1.1-.9 2.3c-.4 1-.5 1.8-.3 2.2.2.4 1.4 1.2 3.6 2.2 3 1.4 7.4 3.4 13 5.9l13 5.7c4 1.7 6.3 2.6 6.8 2.6.3 0 .5 0 .7-.2.5-.2 1.2-1.5 2.3-3.8z"/></g><g id="Layer_2"><path fill="#e3d7bd" d="M349.6 388.9c-1.5-6.2-6.4-17-17.4-31.3-3.6-.2-7.4-.6-11.2-1-17-1.8-50.1-25.1-77.9-45.7-27.8-20.6-67.2-47.5-81.5-52.8s-18.8 12.5-18.8 12.5l.1.8 2.6-6.2c-5.4 19.7 33.1 35.8 44.8 42.1 11.6 6.3 49.3 26.9 63.6 36.7 14.3 9.9 10.7 27.8 10.7 27.8l-11.7 25.3c7.6 3.7 19.2 8.6 36.8 14.1 39.4 12.5 51.9 3.6 60.9-2.7-.1.1.8-12.5-1-19.6z"/><path fill="#e3d7bd" d="M354.3 401.3l-3.8 7.3c1.7-1.2 2.9-3.9 3.8-7.3zM369 257.3l-1.4 3.5c.5-1.1 1-2.3 1.4-3.5zM360.3 267.1c2.9-.6 5-2.5 6.7-5.2-.6-2.2-5.1-18.8-21-28.8-15.1-9.5-50.4-28.1-63.3-39.7-17.7-4.7-37.7-22.6-58.4-41.7-24.2-22.4-39.4-31.3-51-34-11.6-2.7-13.4 5.4-13.4 5.4v.1l.9-1.9c-5.4 17.9 8.1 31.3 16.1 39.4s29.6 20.6 34.9 24.2c5.4 3.6 51 35.8 78.8 53.7 18.9 12.2 31.2 22.3 37.1 27.5 9.7 1.2 24.3 2.7 32.6 1z"/><path fill="#e8c573" d="M367 261.9c0 .2.1.3.1.3l.6-1.4 1.4-3.5 22.2-56s1.8-1.8 0-8.1-15.2-21.5-23.3-26c-8.1-4.5-42.1-24.2-58.2-35.8-16.1-11.6-13.4-29.6-13.4-29.6s-21.9 47-25.5 56.9c-3.6 9.9.9 19.7 8.1 30.4.8 1.2 2.1 2.6 3.8 4.1 12.9 11.6 48.3 30.2 63.3 39.7 15.7 10.2 20.3 26.8 20.9 29zM211.7 184.7c-5.4-3.6-26.9-16.1-34.9-24.2s-21.5-21.5-16.1-39.4l-.9 1.9-29.5 62.5s-3.6 17 5.4 27.8c9 10.7 28.7 24.2 34.9 27.8s53.7 33.1 58.2 36.7c4.5 3.6 45.7 30.4 54.6 36.7s27.8 17.9 43 35.8c2.1 2.5 4.1 4.9 5.8 7.2 11 14.3 15.9 25.1 17.4 31.3 1.8 7.2.9 19.7.9 19.7l3.8-7.3 25.7-49.1s4.5-11.6-7.2-34.9c-11.6-23.3-41.2-47.5-41.2-47.5s-1.4-1.4-4.1-3.8c-5.9-5.2-18.2-15.3-37.1-27.5-27.7-17.9-73.4-50.1-78.7-53.7zM253.7 344.1c-14.3-9.9-51.9-30.4-63.6-36.7-11.6-6.3-50.1-22.4-44.8-42.1l-2.6 6.2-22.4 52.9s-7.2 17.9 9 27.8 57.3 34 65.4 38.5c8.1 4.5 30.4 14.3 34 23.3 3.6 9 2.7 29.6 2.7 29.6l21.4-46.4 11.7-25.3s3.6-18-10.8-27.8z"/></g></svg>
