<svg xmlns="http://www.w3.org/2000/svg" viewBox="0 0 600 600"><path d="M-1 1h601.7v601.7H-1z"/><g><path fill="#fff" d="M290.7 416.2c-22.3-20-39.9-44-52-70.6 16.8-4.9 34.2-7.8 52-8.4v-12.1c-19.4.7-38.4 3.8-56.7 9.3-8.5-22.2-13.3-45.9-14-70.3h70.7V252H220c.7-26.4 6.3-52 16.2-75.7 17.6 5.1 35.9 8 54.5 8.6v-12.1c-16.9-.6-33.4-3.2-49.5-7.7 11.9-24.5 28.6-46.6 49.5-65.2V82.2c-47.3 2.1-89.7 23-120.1 55.3 0 0-.1 0-.1.1-29.6 31.5-47.8 73.8-47.8 120.4 0 44.7 16.8 85.6 44.4 116.7 0 .1 0 .1.1.2.1.2.3.2.4.4 30.6 34.2 74.3 56.4 123.2 58.6v-17.7zM277.4 95.5c-20 19.1-36.2 41.3-47.9 65.8-15.5-5.3-30.3-12.5-44.3-21.3 24.6-23.7 56.6-39.8 92.2-44.5zm-100.8 53.4c15.1 9.8 31.2 17.7 47.9 23.6-10.3 24.9-16 51.8-16.7 79.5H135c1.5-39.6 16.9-75.5 41.6-103.1zm-3.3 214.4c-22.7-27.1-36.9-61.5-38.3-99.2h72.8c.7 25.7 5.7 50.7 14.7 74.1-17.3 6.2-33.8 14.6-49.2 25.1zm8.2 9.1c14.4-9.5 29.6-17.2 45.6-22.9 11.8 26.5 28.8 50.6 50.2 71-37.3-5-70.7-22.5-95.8-48.1zM307.9 254.1h73.7c-.8-26.8-6.4-52.8-16.4-76.8-18.5 5.4-37.8 8.3-57.3 8.9v67.9zM372 162.2c18-6.2 35.3-14.7 51.3-25.7l4-3.1c-29.4-29.1-68.9-48.1-112.6-51.2l-3.2 2.6c26 21.5 46.5 47.9 60.5 77.4zM307.9 98v75.9c17.8-.5 35.3-3.2 52.2-7.9-12.5-25.7-30.1-48.8-52.2-68zM379.1 341.7c19.3 7 37.7 16.4 54.7 28.6l5.3 4c24.5-29.5 39.6-66.9 41-107.8H394c-.7 26-5.8 51.4-14.9 75.2zM426.5 380.2c-16.2-11.5-33.8-20.5-52.1-27.1-14 31.4-35.1 59.5-62.3 82.2l4.2 3c44.9-3.6 85.2-24 114.6-54.8l-4.4-3.3zM430.5 146.5c-16.7 11.5-34.7 20.4-53.5 27 10.4 25.3 16.2 52.6 16.9 80.7h86.2c-1.5-42.7-18-81.6-44.4-111.7l-5.2 4zM381.7 266.4H308v61.8c20.4.5 40.3 3.7 59.5 9.5 8.6-22.5 13.5-46.5 14.2-71.3zM362.7 349.2c-17.6-5.2-36-8.1-54.7-8.6v82c23.5-20.5 42.1-45.6 54.7-73.4z"/></g><g><path fill="#fff" d="M96.3 430.9l-50.8 55.5s155.4-28.3 205.1-27.7c49.7.5 52.3 37.1 52.3 37.1V523h-24.1s-14.6-16.2-35.6-17.8c-20.9-1.6-224.5 0-224.5 0l63.8-69.6 13.8-4.7z"/><path fill="#fff" d="M507 430.9l50.8 55.5s-155.4-28.3-205.1-27.7c-49.7.5-52.3 37.1-52.3 37.1V523h24.1s14.6-16.2 35.6-17.8c20.9-1.6 224.5 0 224.5 0l-63.8-69.6-13.8-4.7z"/></g></svg>
