<svg xmlns="http://www.w3.org/2000/svg" viewBox="0 0 621 621"><defs><radialGradient id="radial-gradient" cx="312.5" cy="312.5" r="285" gradientUnits="userSpaceOnUse"><stop offset="0" stop-color="red"/><stop offset=".38" stop-color="#fd0101"/><stop offset=".55" stop-color="#f60504"/><stop offset=".68" stop-color="#e90c09"/><stop offset=".79" stop-color="#d71511"/><stop offset=".8" stop-color="#d41712"/></radialGradient></defs><circle cx="310.5" cy="310.5" r="310.5" fill="#a30a08" id="Layer_2"/><circle cx="311" cy="311" r="295" fill="#b39070" id="Layer_3"/><circle cx="312.5" cy="312.5" r="285" fill="url(#radial-gradient)" id="Layer_4"/><path d="M110 144v357s135-47 218 27c0 0 83-81 214-27V144s-128-59-216 38c0 0-65-98-216-38z" transform="translate(-15 -12)" fill="#164995" id="Layer_5"/><circle fill="#fb0" cx="311" cy="324" r="152" id="Layer_6"/><g id="Layer_7"><path fill="none" stroke="#164995" stroke-miterlimit="10" stroke-width="8px" d="M134 324l358-4"/><path fill="none" stroke="#164995" stroke-miterlimit="10" stroke-width="8px" d="M149 223.6c23 15.4 88.6 54.8 181 53.4 90.7-1.4 154.2-41.4 177-57.4M149 445c23.1-15.4 88.6-54.9 181-53.4C420.7 393 484.2 433 507 449" transform="translate(-15 -12)"/></g><g id="Layer_8"><path fill="none" stroke="#164995" stroke-miterlimit="10" stroke-width="8px" d="M328 174c-73.9 21.2-125 89.5-124.3 166S255.1 482.1 328 503" transform="translate(-15 -12)"/><path fill="none" stroke="#164995" stroke-miterlimit="10" stroke-width="8px" d="M326.7 174c73.9 21.2 124.9 89.5 124.3 166s-51.4 142.1-124.3 163" transform="translate(-15 -12)"/></g><g id="Layer_9"><path fill="none" stroke="#164995" stroke-miterlimit="10" stroke-width="8px" d="M327.7 174c-10.8 10.2-69.5 67.7-71 160.8-1.6 97.5 60.8 158.5 71 168.2M329.7 174c10.8 10.2 69.5 67.7 71 160.8 1.6 97.5-60.8 158.5-71 168.2" transform="translate(-15 -12)"/></g><g id="Layer_10"><path fill="none" stroke="#164995" stroke-miterlimit="10" stroke-width="8px" d="M214 185a211.4 211.4 0 0 0 116 34 211.3 211.3 0 0 0 113-34M238 472.6s33.4-21 92-20.6a210.5 210.5 0 0 1 90.8 21.4" transform="translate(-15 -12)"/></g><g id="Layer_11"><path fill="#fff" d="M324 204.8c-7.5.4-16.7-2.3-29.3-10.6 21.4 23.2 22.4 54.8 21.7 87.2 0 0-21.8 4-54.7-19.4 23.3 20.1 24 32 0 52 5.7-4.3 29-19.1 55.3-18.6 2.8 102-19.7 150-19.7 150 9.3-7.4 18.5-9.7 26.7-9.5z" transform="translate(-15 -12)"/><path fill="#fff" d="M323.7 204.8c7.5.4 16.7-2.3 29.3-10.6-21.4 23.2-22.4 54.8-21.7 87.2 0 0 21.8 4 54.7-19.4-23.3 20.1-24 32 0 52-5.7-4.3-29-19.1-55.3-18.6-2.7 102 19.7 150 19.7 150-9.3-7.4-18.5-9.7-26.7-9.5z" transform="translate(-15 -12)"/></g><g id="Layer_12"><path fill="#fff" d="M325.8 448.3s11 31 33.3 22.5 36.3-74 28.3-76-19 0-19 0c1-3.9 3.1-9 7.5-11s10 1.2 13.3-1.7c1.4-1.3 1.8-3.1 2-12 .1-5.6.1-10.3 0-13.7a30.3 30.3 0 0 1 2.9-12.2c5.9-12.3 18.5-16.3 21.1-17-8.5 9.9-11.8 18.8-13.3 25.2-.9 4.1-.4 3.8-1.2 32.1-.2 7.6-.5 15.2-.7 22.8-.5 7.8-4.1 58.8-34.2 73.8-3.3 1.6-11.2 5.5-19.5 3-11.6-3.8-19.5-17.7-20.5-35.8zM324 448.3s-11 31-33.2 22.5-36.2-74-28.2-76 19 0 19 0c-1-3.9-3.1-9-7.5-11s-10 1.2-13.2-1.7c-1.4-1.3-1.8-3.1-2-12-.1-5.6-.1-10.3 0-13.7a30.3 30.3 0 0 0-2.9-12.2c-5.9-12.3-18.5-16.3-21.1-17 8.5 9.9 11.8 18.8 13.3 25.2.9 4.1.4 3.8 1.2 32.1.2 7.6.5 15.2.8 22.8.5 7.8 4.1 58.8 34.3 73.8 3.3 1.6 11.2 5.5 19.5 3 11-3.8 18.9-17.7 20-35.8z" transform="translate(-15 -12)"/><circle fill="#fff" cx="283.4" cy="432.6" r="3.1"/><circle fill="#fff" cx="335.6" cy="432.6" r="3.1"/><circle fill="#fff" cx="247.8" cy="250.6" r="2.8"/><circle fill="#fff" cx="248" cy="300" r="2.8"/><circle fill="#fff" cx="370.2" cy="252.4" r="2.8"/><circle fill="#fff" cx="370.3" cy="301.8" r="2.8"/><circle fill="#fff" cx="279.8" cy="182.5" r="2.9"/><circle fill="#fff" cx="337.8" cy="182.5" r="2.9"/></g><g id="Layer_13"><path fill="#fb0" d="M231.3 557.3l1.2-1 41.8-36 32.4 30.4-34-16.4"/><path fill="#fb0" d="M271.7 568l85-47.7 37.6 23.9-40.6-41.2-82 65z"/></g></svg>
