<svg xmlns="http://www.w3.org/2000/svg" viewBox="0 0 1200 600"><path fill="#FFF" d="M187.4 78s89.2-10.5 81.5 15-45.1 150.4-45.1 150.4l-18.9 83-12.2 68.8s0 5.4-3.5 4.3c-3.5-1.1-2.8-9.5-2.8-9.5l10.8-284.4-9.8-27.6z"/><path fill="none" d="M310 187.9h679.9v84.7H310z"/><path fill="#8C1C16" d="M376.1 262.5H366l-36.3-56.2c-.9-1.4-1.7-2.9-2.3-4.4h-.3c.3 1.5.4 4.7.4 9.7v51h-8.3V192h10.7l35.3 55.3c1.5 2.3 2.4 3.9 2.9 4.7h.2c-.3-2-.5-5.5-.5-10.4V192h8.3v70.5zM434 239.3h-35.6c.1 5.6 1.6 9.9 4.5 13 2.9 3 6.9 4.6 11.9 4.6 5.7 0 10.9-1.9 15.6-5.6v7.6c-4.4 3.2-10.3 4.8-17.6 4.8-7.1 0-12.7-2.3-16.8-6.9-4.1-4.6-6.1-11-6.1-19.3 0-7.8 2.2-14.2 6.7-19.2 4.4-4.9 10-7.4 16.6-7.4 6.6 0 11.7 2.1 15.3 6.4 3.6 4.3 5.4 10.2 5.4 17.8v4.2zm-8.3-6.8c0-4.7-1.2-8.3-3.4-10.9-2.2-2.6-5.3-3.9-9.2-3.9-3.8 0-7 1.4-9.7 4.1-2.7 2.7-4.3 6.3-4.9 10.7h27.2zM489.1 262.5H481v-8.6h-.2c-3.7 6.5-9.5 9.7-17.3 9.7-6.3 0-11.4-2.3-15.2-6.8-3.8-4.5-5.7-10.6-5.7-18.4 0-8.3 2.1-15 6.3-20 4.2-5 9.8-7.5 16.8-7.5 6.9 0 12 2.7 15.1 8.2h.2v-31.2h8.1v74.6zm-8-22.8v-7.4c0-4.1-1.3-7.5-4-10.3-2.7-2.8-6.1-4.2-10.2-4.2-4.9 0-8.8 1.8-11.6 5.4-2.8 3.6-4.2 8.6-4.2 15 0 5.8 1.4 10.4 4.1 13.7 2.7 3.4 6.3 5 10.9 5 4.5 0 8.1-1.6 10.9-4.9 2.7-3.2 4.1-7.3 4.1-12.3zM545.9 239.3h-35.6c.1 5.6 1.6 9.9 4.5 13 2.9 3 6.9 4.6 11.9 4.6 5.7 0 10.9-1.9 15.6-5.6v7.6c-4.4 3.2-10.3 4.8-17.6 4.8-7.1 0-12.7-2.3-16.8-6.9-4.1-4.6-6.1-11-6.1-19.3 0-7.8 2.2-14.2 6.7-19.2 4.4-4.9 10-7.4 16.6-7.4 6.6 0 11.7 2.1 15.3 6.4 3.6 4.3 5.4 10.2 5.4 17.8v4.2zm-8.2-6.8c0-4.7-1.2-8.3-3.4-10.9-2.2-2.6-5.3-3.9-9.2-3.9-3.8 0-7 1.4-9.7 4.1-2.7 2.7-4.3 6.3-4.9 10.7h27.2zM584.4 220.3c-1.4-1.1-3.4-1.6-6.1-1.6-3.4 0-6.3 1.6-8.6 4.9-2.3 3.2-3.5 7.7-3.5 13.3v25.7h-8.1v-50.4h8.1v10.4h.2c1.1-3.5 2.9-6.3 5.3-8.3s5-3 7.9-3c2.1 0 3.7.2 4.8.7v8.3zM601.2 262.5h-8.1v-74.6h8.1v74.6zM653.6 262.5h-8.1v-7.9h-.2c-3.5 6-8.7 9.1-15.5 9.1-5 0-8.9-1.3-11.8-4-2.8-2.7-4.3-6.2-4.3-10.6 0-9.4 5.5-14.9 16.6-16.4l15.1-2.1c0-8.6-3.5-12.8-10.4-12.8-6.1 0-11.5 2.1-16.4 6.2v-8.3c5-3.1 10.7-4.7 17.1-4.7 11.8 0 17.8 6.3 17.8 18.8v32.7zm-8.1-25.5l-12.1 1.7c-3.7.5-6.6 1.5-8.5 2.8-1.9 1.3-2.9 3.7-2.9 7.1 0 2.5.9 4.5 2.6 6 1.8 1.6 4.1 2.3 7 2.3 4 0 7.3-1.4 9.9-4.2 2.6-2.8 3.9-6.4 3.9-10.6V237zM710.6 262.5h-8.1v-28.7c0-10.7-3.9-16-11.7-16-4 0-7.4 1.5-10 4.5-2.6 3-4 6.9-4 11.5v28.7h-8.1v-50.4h8.1v8.4h.2c3.8-6.4 9.3-9.5 16.5-9.5 5.5 0 9.7 1.8 12.6 5.3 2.9 3.6 4.4 8.7 4.4 15.4v30.8zM768.8 262.5h-8.1v-8.6h-.2c-3.7 6.5-9.5 9.7-17.3 9.7-6.3 0-11.4-2.3-15.2-6.8-3.8-4.5-5.7-10.6-5.7-18.4 0-8.3 2.1-15 6.3-20 4.2-5 9.8-7.5 16.8-7.5 6.9 0 12 2.7 15.1 8.2h.2v-31.2h8.1v74.6zm-8.1-22.8v-7.4c0-4.1-1.3-7.5-4-10.3-2.7-2.8-6.1-4.2-10.2-4.2-4.9 0-8.8 1.8-11.6 5.4-2.8 3.6-4.2 8.6-4.2 15 0 5.8 1.4 10.4 4.1 13.7 2.7 3.4 6.3 5 10.9 5 4.5 0 8.1-1.6 10.9-4.9 2.7-3.2 4.1-7.3 4.1-12.3zM782.1 260.7V252c4.4 3.2 9.2 4.9 14.5 4.9 7.1 0 10.6-2.4 10.6-7.1 0-1.3-.3-2.5-.9-3.4-.6-.9-1.4-1.8-2.5-2.5-1-.7-2.2-1.4-3.6-1.9-1.4-.6-2.9-1.2-4.5-1.8-2.2-.9-4.2-1.8-5.9-2.7-1.7-.9-3.1-1.9-4.2-3s-2-2.4-2.6-3.9c-.6-1.4-.9-3.1-.9-5.1 0-2.4.5-4.5 1.6-6.3s2.5-3.3 4.3-4.6c1.8-1.2 3.9-2.2 6.2-2.8 2.3-.6 4.7-.9 7.2-.9 4.4 0 8.3.8 11.7 2.3v8.2c-3.7-2.4-8-3.6-12.8-3.6-1.5 0-2.9.2-4.1.5-1.2.3-2.3.8-3.1 1.5-.9.6-1.5 1.4-2 2.2-.5.9-.7 1.8-.7 2.9 0 1.3.2 2.4.7 3.3s1.2 1.7 2.1 2.4c.9.7 2 1.3 3.3 1.9 1.3.6 2.8 1.2 4.5 1.8 2.2.9 4.2 1.7 6 2.6s3.3 1.9 4.5 3c1.2 1.1 2.2 2.4 2.9 3.9s1 3.2 1 5.3c0 2.5-.5 4.7-1.6 6.5-1.1 1.8-2.6 3.4-4.4 4.6-1.8 1.2-4 2.1-6.3 2.7-2.4.6-4.9.9-7.5.9-5.2-.1-9.7-1.1-13.5-3.1z"/><g><path fill="#FEFEFE" d="M99.1 162.4c29.5 73.6 54 148.7 68.8 226.7.7 3.9.7 8.5 4.5 11.2 3.4-1.2 2.7-7.3 7.7-6.5 1.2.3 2.4.9 3.7.5 2.6-21.8 2.9-43.7 4.6-65.5 4.6-59.3 15.8-117.2 32.7-174.2 5.9-20 11.4-39.4 34.6-45.9 7.6-9.3 6.9-12.7-4.1-17.3-9.3-3.9-19.3-5.5-29.2-7.2-4-.7-8.3-1-11.9-3.4-.8-.9-.9-1.8-.2-2.8"/><path fill="#EF8708" d="M180.7 395.1c-2.9-.3-4.3.7-4.2 3.9.1 2.2 1.3 4.7-1.1 6.4-4.9-4.4-3.5-10.3-3.5-15.7-.1-37-3.7-73.9-5.8-110.8-1.3-22.7-3-45.3-4.9-67.9-.3-3.8-.8-7.6-1.2-11.5-.8-7.3-4.4-11-12-11.9-11.8-1.4-23.1-5-33.8-10.5-7.3-3.8-13.2-8.9-18.1-15.3-1.6-1-.8-3.8-3.2-4.2V145c1.7-6.9 6.5-11.1 12.4-14.4 14.2-7.8 29.8-11.2 45.6-13.4 11.6-1.6 24.4 1.1 33.2-10 .7-.9 2.1 1.1 2.8 2.2-.1 20.5-.1 41.1-1.5 61.6-.5 7-1.2 13.9-1.2 20.9.2 62.5-.1 124.9-.5 187.4.3 5.5 2 11.4-3 15.8z"/><path fill="#E10A17" d="M210.7 79.9c15.2 1.3 30.2 3.7 44.3 9.6 12.9 5.3 13.7 10.2 3.7 20-7.9 6.3-17.8 8-27 11-7.7 2.5-11.4 7.2-13.5 14.4-8.9 30.6-14.9 61.7-19 93.3-7.1 54.6-11.6 109.4-13 164.4-.1 3.1 1.9 8.7-5.2 6.7-.1-1.3-.3-2.6-.4-4 .1-22.3.3-44.7.4-67 .2-48.5-.8-97.1.9-145.6.8-22.5-1.1-45.3 3.2-67.7.4-2.3-.2-4.8-.3-7.3-4.6-10.3-3.5-20.1 2.6-29.5"/><path fill="#B61717" d="M96.2 161.9c14.3 10 29 19.3 46.7 21.9 1 .2 2 .7 3 .9 16.3 2.8 17 2.8 18 19.3 1.4 22.9 3.5 45.8 5 68.8 2.7 44.2 5.9 88.3 6.5 132.6-5.4 1-7.8-2.1-8.6-6.8-14.2-81.6-40.7-159.7-70.6-236.7z"/><path fill="#EF8808" d="M252.5 247.8c-4.9 20.7-13.2 40.2-19.9 60.3-9.8 29.3-20.3 58.5-30.5 87.7-1.9 5.5-3.4 11.5-11.5 11 1.9-42 6.7-83.3 13.6-124.4.7-4.3 1.9-7 6.6-7.9 2.2-.4 4.8-1.1 6.4-3.2 12.4-6.8 22.8-16.6 35.3-23.5z"/><path fill="#FAD6C8" d="M181.1 399.1c6.2.7 4.4-4 4.5-7 .8-23.4 1-46.8 2.2-70.1 3.5-62.4 9.5-124.6 26.7-185 .5-1.7 1.1-3.3 1.4-5 1.6-8.9 5.9-13.8 15.8-14.4 9.4-.6 18.1-4.9 26.9-8.1-4 6.6-11.4 7.5-17.7 9.9-3.7 1.4-6.2 2.6-7.7 7.2-9.7 30.4-19.1 60.8-25.8 92-5 22.9-8.7 46.1-11.9 69.4-4.8 35.8-6.8 71.7-8.1 107.7 0 4.4-1.1 7.7-6.3 3.4z"/><path fill="#87BC26" d="M252.5 247.8c-10 10.5-20.5 20.4-35.4 23.6 5.1-25.6 13.4-50.2 20.9-75.2 19.7 10.7 24.8 29.7 14.5 51.6z"/><path fill="#BE3225" d="M167.6 372.4c-.3-.4-.9-.9-.9-1.4-.1-.8-.2-1.9 1.1-1.8.2 0 .6 1 .6 1.6-.1.6-.5 1.1-.8 1.6z"/><path fill="#BB3726" d="M169.5 387.2c-1.1-1.1-1.1-2.2-.2-3.3.1-.1.6-.1.6.1.8 1.2.9 2.3-.4 3.2z"/><path fill="#BD3325" d="M164.2 347.6c-.2.5-.5 1.6-.7 1.6-1.2 0-1.2-1.1-1-1.9.1-.5.6-.9 1-1.3.2.5.5 1 .7 1.6z"/><ellipse fill="#E10B17" cx="182.5" cy="447.6" rx="22.4" ry="22.2"/><path fill="none" d="M538.8 274.7h68.8v214.1h-68.8z"/><path fill="#8D1E18" d="M557.8 351c-4.5-1.7-7.8-4.3-9.8-7.9-2-3.6-3-7.6-3-12 0-3.1.5-6.1 1.6-8.8 1.1-2.8 2.7-5.2 4.7-7.3 2.1-2.1 4.5-3.7 7.4-4.9 2.9-1.2 6.2-1.8 9.9-1.8 2.2 0 4.3.2 6.5.6s4 1 5.6 1.7c3.5 0 6.8-.2 9.9-.5 3.1-.3 5.9-.9 8.6-1.7l.6.5-.9 6.7-.6.6h-11.5l-.1.4c2.2 1.8 3.8 4 4.8 6.9 1 2.8 1.5 5.6 1.5 8.3 0 2.8-.5 5.4-1.6 7.9s-2.6 4.7-4.6 6.6c-2 1.9-4.5 3.4-7.6 4.5-3 1.1-6.5 1.7-10.5 1.7h-5c-1.4.6-2.5 1.4-3.2 2.4-.7 1-1.1 1.8-1.1 2.5 0 .8.6 1.6 1.7 2.2 1.1.6 3 1.1 5.5 1.3l12.2 1.3c2.8.3 5.4.9 7.7 1.8 2.4.8 4.5 2 6.3 3.3 1.8 1.4 3.2 3.1 4.2 5 1 2 1.5 4.3 1.5 6.9 0 2.4-.5 4.9-1.6 7.4s-2.7 4.7-4.9 6.6c-2.2 1.8-5.2 3.4-9.1 4.5-3.9 1.2-8.3 1.8-13.3 1.8-4.5 0-8.5-.5-11.8-1.5-3.3-1-6.1-2.3-8.3-3.9-2.2-1.6-3.9-3.5-5-5.6-1.1-2.1-1.6-4.2-1.6-6.4 0-3.5 1.2-6.7 3.5-9.4s5.3-4.6 8.9-5.7l.1-.4c-1.8-.8-3.3-1.7-4.4-2.8-1.1-1.1-1.6-2.5-1.6-4.2 0-2.2.9-3.9 2.6-5.3 1.8-1.3 3.7-2.3 5.7-2.8v-.5zm7.3 17.8c-2.4 0-4.4.4-6.2 1.1s-3.3 1.7-4.5 2.8c-1.2 1.1-2.1 2.4-2.7 3.8-.6 1.4-.9 2.8-.9 4.1 0 3.2 1.8 5.8 5.3 7.9 3.5 2 8.3 3 14.4 3 2.8 0 5.3-.2 7.7-.7 2.3-.5 4.4-1.2 6.1-2.1 1.7-1 3.1-2.1 4.1-3.5 1-1.4 1.5-3 1.5-4.8 0-2-.5-3.7-1.4-4.9-1-1.3-2.2-2.3-3.8-3.1-1.6-.8-3.3-1.4-5.3-1.8-2-.4-3.9-.7-5.9-.9l-8.4-.9zm4.1-21.6c2.3 0 4.4-.4 6.2-1.3 1.8-.8 3.3-2 4.6-3.4 1.3-1.4 2.2-3.1 2.9-5 .7-1.9 1-3.8 1-5.9 0-2.1-.3-4.2-1-6.3-.7-2.1-1.7-4-3-5.7-1.3-1.7-2.9-3.1-4.8-4.2s-4.2-1.6-6.7-1.6c-2.4 0-4.6.5-6.4 1.5-1.8 1-3.3 2.3-4.5 3.9-1.2 1.6-2.1 3.4-2.7 5.4-.6 2-.9 3.9-.9 5.9 0 2 .3 4 .9 6 .6 2 1.6 3.8 2.9 5.4 1.3 1.6 2.9 2.9 4.8 3.8 1.9 1 4.2 1.5 6.7 1.5z"/><path fill="none" d="M600.8 284.4H1243v205.7H600.8z"/><path fill="#8C1C16" d="M649.5 335.8h-35.6c.1 5.6 1.6 9.9 4.5 13 2.9 3 6.9 4.6 11.9 4.6 5.7 0 10.9-1.9 15.6-5.6v7.6c-4.4 3.2-10.3 4.8-17.6 4.8-7.1 0-12.7-2.3-16.8-6.9-4.1-4.6-6.1-11-6.1-19.3 0-7.8 2.2-14.2 6.7-19.2 4.4-4.9 10-7.4 16.6-7.4s11.7 2.1 15.3 6.4c3.6 4.3 5.4 10.2 5.4 17.8v4.2zm-8.3-6.8c0-4.7-1.2-8.3-3.4-10.9-2.2-2.6-5.3-3.9-9.2-3.9-3.8 0-7 1.4-9.7 4.1-2.7 2.7-4.3 6.3-4.9 10.7h27.2zM703.5 359h-8.1v-28.7c0-10.7-3.9-16-11.7-16-4 0-7.4 1.5-10 4.5-2.6 3-4 6.9-4 11.5V359h-8.1v-50.4h8.1v8.4h.2c3.8-6.4 9.3-9.5 16.5-9.5 5.5 0 9.7 1.8 12.6 5.3 2.9 3.6 4.4 8.7 4.4 15.4V359zM739.7 360.1c-7.4 0-13.4-2.4-17.8-7.1-4.4-4.7-6.7-10.9-6.7-18.7 0-8.5 2.3-15.1 6.9-19.8 4.6-4.8 10.9-7.1 18.7-7.1 7.5 0 13.4 2.3 17.6 6.9 4.2 4.6 6.3 11 6.3 19.2 0 8-2.3 14.5-6.8 19.3-4.4 4.9-10.5 7.3-18.2 7.3zm.6-45.9c-5.2 0-9.3 1.8-12.3 5.3s-4.5 8.4-4.5 14.6c0 6 1.5 10.7 4.6 14.1 3 3.4 7.1 5.2 12.2 5.2 5.2 0 9.2-1.7 12-5.1 2.8-3.4 4.2-8.2 4.2-14.4 0-6.3-1.4-11.1-4.2-14.6-2.7-3.4-6.8-5.1-12-5.1zM798.8 360.1c-7.4 0-13.4-2.4-17.8-7.1-4.4-4.7-6.7-10.9-6.7-18.7 0-8.5 2.3-15.1 6.9-19.8 4.6-4.8 10.9-7.1 18.7-7.1 7.5 0 13.4 2.3 17.6 6.9 4.2 4.6 6.3 11 6.3 19.2 0 8-2.3 14.5-6.8 19.3-4.5 4.9-10.6 7.3-18.2 7.3zm.6-45.9c-5.2 0-9.3 1.8-12.3 5.3s-4.5 8.4-4.5 14.6c0 6 1.5 10.7 4.6 14.1 3 3.4 7.1 5.2 12.2 5.2 5.2 0 9.2-1.7 12-5.1 2.8-3.4 4.2-8.2 4.2-14.4 0-6.3-1.4-11.1-4.2-14.6-2.8-3.4-6.8-5.1-12-5.1zM860.1 358.5c-1.9 1-4.4 1.6-7.5 1.6-8.8 0-13.2-4.9-13.2-14.8v-29.8h-8.7v-6.9h8.7v-12.3l8.1-2.6v14.9h12.7v6.9h-12.7v28.4c0 3.4.6 5.8 1.7 7.2 1.1 1.4 3 2.2 5.7 2.2 2 0 3.8-.6 5.3-1.7v6.9zM867.8 357.1v-8.7c4.4 3.2 9.2 4.9 14.5 4.9 7.1 0 10.6-2.4 10.6-7.1 0-1.3-.3-2.5-.9-3.4-.6-.9-1.4-1.8-2.5-2.5-1-.7-2.2-1.4-3.6-1.9s-2.9-1.2-4.5-1.8c-2.2-.9-4.2-1.8-5.9-2.7-1.7-.9-3.1-1.9-4.2-3s-2-2.4-2.6-3.9c-.6-1.4-.9-3.1-.9-5.1 0-2.4.5-4.5 1.6-6.3 1.1-1.8 2.5-3.3 4.3-4.6 1.8-1.2 3.9-2.2 6.2-2.8 2.3-.6 4.7-.9 7.2-.9 4.4 0 8.3.8 11.7 2.3v8.2c-3.7-2.4-8-3.6-12.8-3.6-1.5 0-2.9.2-4.1.5-1.2.3-2.3.8-3.1 1.5-.9.6-1.5 1.4-2 2.2-.5.9-.7 1.8-.7 2.9 0 1.3.2 2.4.7 3.3.5.9 1.2 1.7 2.1 2.4.9.7 2 1.3 3.3 1.9 1.3.6 2.8 1.2 4.5 1.8 2.2.9 4.2 1.7 6 2.6 1.8.9 3.3 1.9 4.5 3 1.2 1.1 2.2 2.4 2.9 3.9s1 3.2 1 5.3c0 2.5-.5 4.7-1.6 6.5-1.1 1.8-2.6 3.4-4.4 4.6-1.8 1.2-4 2.1-6.3 2.7-2.4.6-4.9.9-7.5.9-5.2-.1-9.7-1.1-13.5-3.1zM947.9 356.7c-3.9 2.3-8.5 3.5-13.8 3.5-7.2 0-13-2.3-17.4-7-4.4-4.7-6.6-10.7-6.6-18.2 0-8.3 2.4-15 7.1-20 4.8-5 11.1-7.5 19-7.5 4.4 0 8.3.8 11.7 2.5v8.3c-3.7-2.6-7.7-3.9-12-3.9-5.1 0-9.4 1.8-12.7 5.5s-4.9 8.5-4.9 14.5c0 5.9 1.5 10.6 4.6 14 3.1 3.4 7.3 5.1 12.5 5.1 4.4 0 8.5-1.5 12.4-4.4v7.6zM1001.9 359h-8.1v-29c0-10.5-3.9-15.7-11.7-15.7-3.9 0-7.2 1.5-9.9 4.5s-4 6.9-4 11.7V359h-8.1v-74.6h8.1V317h.2c3.9-6.4 9.4-9.5 16.5-9.5 11.3 0 17 6.8 17 20.5v31zM1053.2 359h-8.1v-7.9h-.2c-3.5 6-8.7 9-15.5 9-5 0-8.9-1.3-11.8-4s-4.3-6.2-4.3-10.6c0-9.4 5.5-14.9 16.6-16.4l15.1-2.1c0-8.6-3.5-12.8-10.4-12.8-6.1 0-11.5 2.1-16.4 6.2v-8.3c5-3.1 10.7-4.7 17.1-4.7 11.8 0 17.8 6.3 17.8 18.8V359zm-8.1-25.5l-12.1 1.7c-3.7.5-6.6 1.5-8.5 2.8s-2.9 3.7-2.9 7.1c0 2.5.9 4.5 2.6 6 1.8 1.6 4.1 2.3 7 2.3 4 0 7.3-1.4 9.9-4.2 2.6-2.8 3.9-6.4 3.9-10.6v-5.1zM1076.7 351.7h-.2v30.4h-8.1v-73.5h8.1v8.9h.2c4-6.7 9.8-10 17.4-10 6.5 0 11.6 2.3 15.2 6.8s5.5 10.5 5.5 18.1c0 8.4-2 15.2-6.1 20.2-4.1 5.1-9.7 7.6-16.8 7.6-6.7-.1-11.7-2.9-15.2-8.5zm-.2-20.3v7c0 4.2 1.4 7.7 4.1 10.6 2.7 2.9 6.1 4.4 10.3 4.4 4.9 0 8.7-1.9 11.5-5.6 2.8-3.7 4.2-8.9 4.2-15.6 0-5.6-1.3-10-3.9-13.2-2.6-3.2-6.1-4.8-10.5-4.8-4.7 0-8.5 1.6-11.3 4.9-3 3.3-4.4 7.4-4.4 12.3z"/><g><path fill="none" d="M272.8 287.9h283.3v156H272.8z"/><path fill="#E10B18" d="M280.8 362.4v-70.5h25.7c7.9 0 13.9 1.4 18.1 4.3 4.2 2.9 6.3 7 6.3 12.2 0 3.8-1.3 7.1-3.9 10-2.6 2.9-5.9 4.8-9.9 6v.2c5 .6 9 2.5 12 5.6 3 3.1 4.5 6.8 4.5 11.3 0 6.5-2.3 11.6-6.9 15.4s-10.9 5.7-18.9 5.7h-27zm15.9-58.8v16.7h7c3.3 0 5.9-.8 7.7-2.4 1.9-1.6 2.8-3.8 2.8-6.6 0-5.2-3.9-7.8-11.6-7.8h-5.9zm0 28.5v18.6h8.6c3.7 0 6.5-.9 8.6-2.6 2.1-1.7 3.1-4 3.1-7 0-2.8-1-5-3.1-6.6-2-1.6-4.9-2.4-8.6-2.4h-8.6zM350.8 304.1c-2.6 0-4.8-.8-6.4-2.3s-2.5-3.5-2.5-5.7c0-2.3.8-4.2 2.5-5.7s3.8-2.2 6.4-2.2c2.7 0 4.8.7 6.5 2.2 1.7 1.5 2.5 3.4 2.5 5.7 0 2.4-.8 4.3-2.5 5.8s-3.9 2.2-6.5 2.2zm7.6 58.3h-15.5V312h15.5v50.4zM386 361.6c0 7.4-1.8 13.4-5.5 17.9-3.6 4.5-8.9 6.7-15.7 6.7-2.3 0-4.7-.5-7.4-1.5v-12.2c2.2 1.2 4.1 1.8 5.8 1.8 4.9 0 7.3-3.8 7.3-11.5v-50.7H386v49.5zm-7.6-57.5c-2.6 0-4.8-.8-6.4-2.3s-2.5-3.5-2.5-5.7c0-2.3.8-4.2 2.5-5.7s3.8-2.2 6.4-2.2c2.7 0 4.8.7 6.5 2.2 1.7 1.5 2.5 3.4 2.5 5.7 0 2.4-.8 4.3-2.5 5.8s-3.9 2.2-6.5 2.2zM413.9 356.6h-.2v5.9h-15.5v-74.6h15.5v31.8h.2c3.8-5.9 9.3-8.8 16.4-8.8 6.5 0 11.5 2.2 15 6.7s5.3 10.6 5.3 18.3c0 8.4-2 15.1-6.1 20.2s-9.6 7.6-16.4 7.6c-6.4 0-11.1-2.4-14.2-7.1zm-.5-21.3v5.2c0 3.2.9 5.9 2.8 8.1 1.9 2.1 4.3 3.2 7.2 3.2 3.5 0 6.3-1.4 8.2-4.1 2-2.7 2.9-6.6 2.9-11.6 0-4.2-.9-7.4-2.7-9.8-1.8-2.3-4.3-3.5-7.6-3.5-3.1 0-5.7 1.2-7.7 3.5-2.1 2.3-3.1 5.3-3.1 9zM504.8 341.7H472c.5 7.3 5.1 11 13.8 11 5.5 0 10.4-1.3 14.6-3.9V360c-4.7 2.5-10.7 3.7-18.1 3.7-8.1 0-14.4-2.3-18.9-6.8-4.5-4.5-6.7-10.8-6.7-18.9 0-8.4 2.4-15 7.3-19.9 4.9-4.9 10.8-7.3 17.9-7.3 7.3 0 13 2.2 17 6.5 4 4.4 6 10.3 6 17.8v6.6zm-14.4-9.6c0-7.2-2.9-10.8-8.8-10.8-2.5 0-4.6 1-6.5 3.1s-2.9 4.6-3.3 7.7h18.6zM528.6 362.4h-15.5v-74.6h15.5v74.6z"/></g></g></svg>
