<svg xmlns="http://www.w3.org/2000/svg" viewBox="0 0 600 600"><path d="M16.3 383.8l57.6-55.9s45.7 5.3 83.4 36.8 61.6 74 61.6 74-57.2-30.2-105.5-40.3-97.1-14.6-97.1-14.6z" fill="#a50019"/><path d="M229.5 426.4s31.9-67.8 75.8-109.5 89.1-71.8 89.1-71.8-16-55.4-77.2-81.6-107.7-18.2-107.7-18.2L20.2 311.1s64.7-8.9 127.3 27.9 82 87.4 82 87.4z" fill="#f5bd00"/><ellipse cx="531.7" cy="243" rx="17.5" ry="13.5" fill="#fff"/><path d="M500.9 220.2c-66.5-.9-137.5 58.1-137.5 58.1s-63.8 51.4-90.5 105.1-31.9 63.8-31.9 63.8 109.5 8.9 169.8-36.8 78.5-72.7 78.5-72.7 25.7-39.9 42.1-55.4 58.5-34.6 58.5-34.6-22.5-26.6-89-27.5zm31.5 33.7c-5.4 0-9.8-4.4-9.8-9.8s4.4-9.8 9.8-9.8 9.8 4.4 9.8 9.8-4.3 9.8-9.8 9.8z" fill="#004996"/></svg>
