<svg xmlns="http://www.w3.org/2000/svg" viewBox="-3.5 21 174 20"><path fill="#2C96DD" d="M15 33a7 7 0 000-10 7 7 0 00-10 0 7 7 0 000 10c2 3 7 3 10 0zm-9-2a5 5 0 010-6 5 5 0 017 0l1 3-1 3c-2 2-5 2-7 0zM-1 41l5-6a1 1 0 00-1-1l-6 5v2h2z"/><g fill="#FFF"><path d="M33 31l-1 3-3 1h-7V21h7l3 1v4l-1 2 1 1 1 2zm-9-8v4h4l2-1v-1-1l-1-1h-5zm7 8l-1-2h-6v4h5l1-1 1-1zM37 35V21h3v14h-3zM55 31l-1 3-3 1h-6V21h7l2 1 1 2-1 2-1 2 2 1v2zm-8-8v4h4l1-1 1-1-1-1-1-1h-4zm6 8v-2h-6v4h4l2-1v-1zM60 35V21h2v12h7v2h-9zM82 33v2h-9V21h9v2h-7v4h6v2h-6v4h7zM89 23l-1 2 1 1 2 1 3 1 1 1 1 2-1 3-4 1-5-2 1-2 2 2h4l1-2-1-1-2-1-3-1c-1 0-2-1-2-3l2-3 3-1 5 2-1 1-2-1h-4zM110 33v2h-10V21h10v2h-7v4h6v2h-6v4h7zM113 35l6-14h1l6 14h-2l-2-4h-5l-2 4h-2zm6-11l-2 6h5l-3-6zM129 35V21h6l3 1 2 4-1 2-2 2 3 5h-2l-3-5h-3v5h-3zm3-7h3l2-1v-1-2l-2-1h-3v5zM144 30a7 7 0 011-7l2-1 3-1a6 6 0 015 3l-2 1-3-2-3 1-2 4 2 4 3 1 2-1 1-1 2 1-2 2-3 1-3-1-2-1-1-3zM170 21v14h-2v-6h-7v6h-2V21h2v6h7v-6h2z"/></g></svg>
