<svg xmlns="http://www.w3.org/2000/svg" viewBox="0 0 1200 600"><g id="Layer_1"><linearGradient id="SVGID_1_" gradientUnits="userSpaceOnUse" x1="98.279" y1="230.7" x2="250.933" y2="383.353"><stop offset="0" stop-color="#ec9"/><stop offset=".14" stop-color="#ba7"/><stop offset=".28" stop-color="#a96"/><stop offset=".41" stop-color="#985"/><stop offset=".51" stop-color="#885"/><stop offset=".61" stop-color="#985"/><stop offset=".72" stop-color="#a96"/><stop offset=".86" stop-color="#ba7"/><stop offset="1" stop-color="#ec9"/></linearGradient><path d="M219.4 313.6c-2.9 0-5.8.3-8.5.9 22.4-11.9 37.6-35.5 37.6-62.6 0-39.2-31.8-71-71-71-37.6 0-68.4 29.3-70.8 66.2-.1 1.6-.2 3.1-.2 4.7s.1 3.2.2 4.7v140.9h112.7c23.2 0 41.9-18.8 41.9-41.9.1-23.1-18.7-41.9-41.9-41.9z" fill="url(#SVGID_1_)"/><path d="M365.7 275.7c0 6-2.9 11.7-10.1 14.9 9.1 2.8 12.4 12.4 12.4 17.3 0 17.3-12.9 22.8-29 22.8h-36.7v-77.4H339c15.3 0 26.7 6.8 26.7 22.4zm-49 8.7H339c9.2 0 12.2-3.9 12.2-8.3 0-3.5-2.9-9.5-12.2-9.5h-22.3v17.8zm0 32.7H339c6 0 14.5-2 14.5-9.3 0-7-8.5-10.6-14.5-10.6h-22.3v19.9zM378.4 330.7v-77.4h14.5v77.4h-14.5zM469.5 275.7c0 6-2.9 11.7-10.1 14.9 9.1 2.8 12.4 12.4 12.4 17.3 0 17.3-12.9 22.8-29 22.8h-36.7v-77.4h36.7c15.3 0 26.7 6.8 26.7 22.4zm-49 8.7h22.3c9.2 0 12.2-3.9 12.2-8.3 0-3.5-2.9-9.5-12.2-9.5h-22.3v17.8zm0 32.7h22.3c6 0 14.5-2 14.5-9.3 0-7-8.5-10.6-14.5-10.6h-22.3v19.9zM496.7 253.3v63.9h39.8v13.5h-54.4v-77.4h14.6zM604.6 330.7h-58v-77.4h58v14.2h-43.5v17.8H603v13.6h-41.9v17.5h43.5v14.3zM686 272c-2.7-4.4-10-8.6-18.4-8.6-10.8 0-16 4.5-16 10.3 0 6.7 8 8.6 17.3 9.7 16.1 2 31.2 6.2 31.2 24.7 0 17.3-15.3 24.7-32.5 24.7-15.8 0-28-4.9-33.7-19l12.2-6.3c3.4 8.5 12.4 12.3 21.8 12.3 9.2 0 17.8-3.2 17.8-11.6 0-7.3-7.6-10.3-17.9-11.4-15.8-1.9-30.4-6.1-30.4-23.4 0-15.9 15.7-22.5 30-22.6 12.1 0 24.6 3.4 30.4 15.4L686 272zM787.4 292.4c-.2 20-12.5 40-39.7 40-27.2 0-39.8-19.6-39.8-39.9 0-20.4 13.1-40.8 39.8-40.8 26.7 0 39.9 20.5 39.7 40.7zm-65.1.4c.3 12.7 7.2 26.3 25.4 26.3s25.1-13.7 25.3-26.4c.2-13.1-7.1-27.7-25.3-27.7-18.3 0-25.8 14.7-25.4 27.8zM866.4 321c-8 7.9-18.3 11.5-29.4 11.5-28.8 0-40.9-19.8-41-39.9-.1-20.2 13.1-40.8 41-40.8 10.5 0 20.5 4 28.4 11.8l-9.7 9.4c-5.1-5-11.9-7.3-18.7-7.3-18.7 0-26.8 13.9-26.7 26.9.1 12.8 7.5 26.2 26.7 26.2 6.7 0 14.4-2.8 19.5-7.9l9.9 10.1zM874.8 330.7v-77.4h14.5v77.4h-14.5zM960.7 330.7h-58v-77.4h58v14.2h-43.5v17.8h41.9v13.6h-41.9v17.5h43.5v14.3zM996.6 266.6H972v-13.3h63.7v13.3h-24.6v64.2h-14.6v-64.2zM1081.8 285.3l20.6-32h17.6v.7l-30.9 44.8v32h-14.6v-32l-29.8-44.8v-.7h17.4l19.7 32z"/></g><g id="Layer_2"><circle fill="none" stroke="#fff" stroke-miterlimit="10" cx="220.8" cy="356.9" r="35.9"/><circle fill="none" stroke="#fff" stroke-miterlimit="10" cx="175.6" cy="251.6" r="61.4"/></g><path d="M186.6 370.6h-16.2l-16 .4 28.6-29.4c46.6-52.7 62.1-55.7 62.1-94.5 0-30-26.7-60.7-61.4-60.7-24.2 0-34.3 4.2-48.9 18.4l-8.4 10c1.1-.9 1.9-1.5 3.3-2.4 10.2-13 27-21.7 45.4-21.7 30.9 0 60.7 24.3 60.7 53.5l1.1 2.9c0 .6.2 3.8.2 4.4-.3 31.6-30.5 52.6-84 103.5l-40 39h17.7l88.6-.4c-11.9-2.8-28.6-11.6-32.8-23z" fill="#fff" id="Layer_5"/></svg>
