<svg xmlns="http://www.w3.org/2000/svg" viewBox="0 0 500 500"><path d="M26.3 335.6c17.8-4.2 35.7-7.6 53.8-10.3 18.1-2.7 36.2-4.7 54.5-5.8 18.3-1 36.6-1.2 54.9.8 9.1 1 18.2 2.6 27 5.4 4.4 1.4 8.7 3.2 12.7 5.4s7.7 5.1 10.7 8.6c-3.2-3.3-7-5.8-11.1-7.8s-8.4-3.5-12.7-4.7c-8.7-2.4-17.7-3.6-26.8-4.4-9-.8-18.1-1-27.2-1-9.1 0-18.2.3-27.2.9-9.1.5-18.1 1.2-27.2 2.1-9.1.8-18.1 1.9-27.1 3s-18.1 2.3-27.1 3.6c-9.2 1.3-18.2 2.8-27.2 4.2z"/><path d="M22.5 347.1c17.3-4.2 34.9-7.6 52.5-10.5 17.6-2.9 35.3-5.3 53.1-6.9 17.8-1.5 35.7-2.5 53.6-1.5 8.9.5 17.9 1.5 26.6 3.7 4.3 1.1 8.7 2.5 12.7 4.6 2 1.1 3.9 2.2 5.7 3.7 1.7 1.5 3.2 3.2 4.3 5.1-2.6-3.7-6.4-6.2-10.4-8-4-1.8-8.3-2.9-12.7-3.8-4.3-.9-8.7-1.5-13.1-1.9-4.4-.4-8.8-.7-13.3-.8-4.4-.1-8.9-.1-13.3-.1-4.4.1-8.9.2-13.3.4-8.9.4-17.7 1-26.6 1.8-8.9.8-17.7 1.7-26.5 2.8-8.8 1-17.7 2.2-26.5 3.4-8.8 1.2-17.6 2.5-26.4 3.8-8.8 1.3-17.6 2.7-26.4 4.2z"/><path d="M36.1 353.1c15.7-3.3 31.5-6 47.4-8.2 15.9-2.2 31.8-4 47.8-5.2 16-1.1 32.1-1.8 48.2-1 8 .4 16.1 1.2 24 2.9 3.9.9 7.9 2 11.5 3.7 1.8.8 3.6 1.9 5.2 3.1 1.6 1.3 3 2.8 3.8 4.7-.9-1.8-2.4-3.2-4-4.3-1.6-1.1-3.4-2-5.2-2.7-3.7-1.5-7.6-2.3-11.5-2.9-7.8-1.3-15.8-1.7-23.8-1.9-8-.1-15.9 0-23.9.3-8 .3-16 .8-23.9 1.4-8 .6-15.9 1.3-23.9 2-8 .7-15.9 1.6-23.9 2.5-8 .9-15.9 1.8-23.9 2.7-8 .8-15.9 1.9-23.9 2.9zM258.5 339.8c.8-2.1 2.3-3.9 3.8-5.6 1.6-1.6 3.3-3.1 5.2-4.4 3.7-2.6 7.8-4.7 12-6.4 2.1-.9 4.3-1.5 6.4-2.3l3.3-.9 1.6-.5 1.7-.4c2.2-.5 4.4-1 6.6-1.4l3.3-.6 3.4-.5c9-1.3 18-1.8 27-1.9 2.3 0 4.5 0 6.8.1l3.4.1 3.4.1 6.8.3 6.7.5c9 .7 17.9 1.7 26.9 3 8.9 1.3 17.8 2.7 26.6 4.4 17.7 3.4 35.2 7.6 52.5 12.3-4.4-.8-8.8-1.7-13.2-2.6-4.4-.9-8.8-1.7-13.2-2.5l-6.6-1.3-6.6-1.2c-4.4-.7-8.8-1.6-13.3-2.3l-6.6-1c-2.2-.4-4.4-.7-6.6-1-4.4-.6-8.9-1.3-13.3-1.8-8.9-1.1-17.8-2.1-26.7-2.8-17.8-1.4-35.8-1.8-53.5.1l-3.3.4-3.3.5c-2.2.3-4.4.7-6.6 1.2l-1.6.3-1.6.4-3.2.8c-2.1.7-4.3 1.2-6.4 2-4.2 1.4-8.3 3.2-12.1 5.6-1.9 1.2-3.7 2.5-5.3 4-1.9 1.6-3.4 3.3-4.4 5.3z"/><path d="M266.7 347.1c.9-2 2.4-3.7 4-5.2s3.5-2.7 5.3-3.9c3.8-2.3 7.9-4 12.1-5.4 8.4-2.7 17.2-4.2 25.9-5.1 8.8-.9 17.6-1 26.4-.9 4.4.2 8.8.2 13.2.6l6.6.4 6.6.6c8.7.8 17.4 2 26.1 3.3 4.3.7 8.7 1.4 13 2.1 4.3.7 8.6 1.6 12.9 2.4 17.2 3.4 34.2 7.6 51.1 12.2-8.6-1.6-17.1-3.5-25.8-5-4.3-.8-8.6-1.7-12.9-2.4-4.3-.7-8.6-1.6-12.9-2.3l-6.5-1.1c-2.2-.4-4.3-.8-6.5-1.1-4.3-.6-8.6-1.3-13-1.9-8.6-1.2-17.3-2.3-26-3.1-17.3-1.7-34.8-2.5-52.2-1.4-2.2.2-4.3.3-6.5.6l-3.2.4c-1.1.1-2.1.3-3.2.5-4.3.6-8.5 1.5-12.7 2.7-4.2 1.1-8.3 2.6-12.1 4.6-1.9 1.1-3.8 2.2-5.4 3.5-1.7 1.4-3.3 2.9-4.3 4.9z"/><path d="M275.4 355c2-3 5-5 8.1-6.8 1.6-.9 3.2-1.6 4.8-2.3 1.6-.7 3.3-1.2 5-1.9 1.7-.7 3.4-1 5.1-1.5l2.6-.7c.9-.2 1.7-.5 2.6-.6l5.2-.9c1.8-.3 3.5-.6 5.3-.8 3.5-.3 7.1-.8 10.6-.9l10.6-.3c1.8-.1 3.5 0 5.3.1l5.3.2c3.5.1 7.1.2 10.6.5 7 .6 14.1 1 21.1 2.1 7 1 14 1.8 20.9 3.1l10.4 1.9 5.2 1 5.2 1.2c6.9 1.6 13.7 3.1 20.6 4.9-7-1-13.9-2.2-20.9-3.3l-5.2-.9-5.2-.7-10.4-1.5-5.2-.7c-1.7-.3-3.5-.5-5.2-.7l-10.5-1.2c-7-.9-14-1.3-20.9-1.9-14-.9-28-1.4-41.9-.2-1.8.1-3.5.3-5.2.6l-5.2.7c-.9.1-1.7.3-2.6.5l-2.6.5c-1.7.4-3.4.6-5.1 1.2-1.7.5-3.4.9-5 1.5-1.6.7-3.3 1.2-4.8 2s-3.1 1.5-4.5 2.6l-1.1.7c-.3.3-.7.6-1 .8-.9.4-1.5 1-2 1.7z"/><g><path d="M497 368.3l-12.1-15.2H281.8v7H218.2v-7H15.1L3 368.3h197.8l-8.2 12.5h114.8l-8.2-12.5z"/></g><g><path d="M416.4 325.3l41.8-94.5s-156.2-7.5-210.6 89.1c0 0-14.4-20.1-68.3-22.2-37-2.6-147.7 18-147.7 18l-7.8 9.9s205.8-48.9 226.2 10.1c0 0 21.2-46.5 71.6-69 56.1-25.2 124.2-27.9 124.2-27.9l-38.6 85.6 9.2.9z"/></g><g><path d="M26.2 419.9c-2.2 1.6-6.1 4.8-8.6 4.5-2.5-.3-4.9-3-4.9-6.1s2.8-8.4 5.4-11 11-9.5 23.1-10.9c.7-.1 1.4.2 1.7.8.5.9.8 1.8.8 2.8 0 1.1-.9 1.9-1.9 2.4-6.1 3.9-7 4-7.3 4-.3 0-.5-.2-.6-.5v-.1c0-.4.9-1.1 1.2-1.3L37 403h-.2c-13.1 3.8-20.9 14.6-20.5 16.8.4 2.2.5 1.6 1.5 1.6 1.1-.2 2.1-.6 2.9-1.3l16-12.2c.3-.3.6-.5 1-.5.6.2 1.1.4 1.6.8.4.2 1.1.7 1.1 1.2-.1.5-.3 1.1-.7 1.5-1.9 3.8-4.7 7.6-8.1 13h.4l9.7-6.2c-.1 2 .2 2.3-5.8 6.3l-7.1 4.8c-1.9 2.5-8.4 9.7-11.4 9.7-1.1 0-1.5-.9-1.6-1.9-.1-2.9 3.8-6.9 8.1-8.9 2.7-3.3 5.1-6.9 7-10.8h-.1l-4.6 3z"/><path d="M59.7 419.9c-1.6 2.4-4.3 3.7-7.1 3.6-1.7 2-4.1 3.2-6.8 3.3-2.3 0-4.4-2.3-4.6-6.3-.2-4 1.5-5.4 4-7.4 2.3-1.9 5.2-3 8.2-3.3 1 0 2.4.4 2.4 1.5s-.5.9-1 1.2c1.3.3 1.5 1.3 1.5 2.6s-.9 3.5-1.7 5.2c2 .3 3.2-1.3 4.5-2.3l.6 1.9zm-13.4-2c-1.1 1.1-1.7 2.5-1.9 4 0 1.3.9 1.6 2 1.6 1.3-.1 2.5-.7 3.4-1.7-.3-.6-.5-1.3-.5-2.1 0-2.3 2.1-5 1.9-5.1-1.8.9-3.4 2-4.9 3.3z"/><path d="M76.7 413c-1.4 2.3-3.6 5.1-3.6 8 0 .7 0 2.2 1 2.2s5.6-3.6 7-4.5l.3 1.4c-2.1 2.3-6.5 6.9-9.8 6.9s-2.3-1.7-2.3-3.2c0-1.1.1-2.3.3-3.4-1.5 1.3-5.7 5.6-7.6 5.6s-3.2-4.2-3.2-5.8c0-5.1 8.7-9.6 12.4-9.8.9 0 1.3.5 1.9 1.2 1.4-2.5 5.3-11.5 8.5-11.5.8.1 1.5.8 1.4 1.6 0 1.3-1.2 3.2-1.9 4.2l-4.4 7.1zm-13.9 8.1c-.1.4.2.8.6.9.5.1 7.6-5.1 8.3-7.7-7.7 2.5-8.7 4-8.9 6.8zM93.2 396.4c.7 0 2.3 0 2.3 1-.3 1.8-1 3.4-2.1 4.9-2.6 3.3-3.6 2.9-4.5 2.9.8-.9 1.4-1.9 2-2.9-.8-.2-1.6-.5-1.6-1.5s2-4.4 3.9-4.4zM108.7 418.9l.4 1.6c-2.7 2.7-7.4 6.6-11 6.5s-6.2-1.9-7-5c-.2.3-.6.5-1 .5s-.8-.3-.8-.8v-.1c0-.5.7-1.2 1.1-1.5l9.5-8.7c.1-1.4.9-2.8 2.5-2.8s1.5.4 1.7 1.6c.2 1.2.9 3.2.9 5.1 0 3.6-2.9 6.3-5.7 8 2.8.4 4.5-.9 6.6-2.5l2.8-1.9zm-14.9.9c1.6.1 2.6 1.4 3.4 2.6 2.6-1.6 3.4-2.4 3.5-4.9.1-2.5-.3-2.1-.5-3.6l-6.4 5.9zM143.6 420.1c-4.6 4.9-7.2 7.1-9.1 7.1-2 0-4-3.8-3.8-5.3.2-1.5-.9-1.5 12.9-16.4.4-.5 1.3-1.3 1.3-2.2s-.8-1.1-1.5-1.1c-2.5 0-10.6 3.6-13 4.9-.9.6-1.9 1-2.9 1.1-.4 0-2.1-.7.2-5.7.7-1.4 1.4-1.9 2.6-2.8l3-2.4c.3-.3.6-.4 1-.4.2 0 .5.2.1.9l-1.2 1.4h.1c3.6-1.3 7.2-2.8 11.2-2.8 1.3 0 2.6 0 3.5 1.2.8 1.4 1.2 2.9 1.3 4.5 0 1.4-.3 3.6-12.2 17.3-1 1.1-.4 1.5 0 1.6.4.1 8-6.2 18.4-18.1 1-1.1 2.7-4 5-4s2 2.2 2 2.8c-.3 1-.9 1.9-1.5 2.7-1.9 2.6-9.8 14.4-9.7 17.1 0 .4.3.8.7.7 3.8-1.9 10.6-8.3 14.5-16.9-.2-.5-.2-1.1-.2-1.6 0-1.5 2.6-4.5 3.3-4.5.7 0 1.2 1.7 1.1 2.3-.4 9.7-13 24.9-18.4 25.7-1.5.2-4.8-1.9-4.8-4.4s1.6-6.6 2.5-9.1h-.1l-6.3 6.4zM184 419.9c-1.6 2.4-4.3 3.7-7.1 3.6-1.7 2-4.1 3.2-6.8 3.3-2.3 0-4.4-2.3-4.6-6.3-.2-4 1.5-5.4 4-7.4 2.3-1.9 5.2-3 8.2-3.3 1 0 2.4.4 2.4 1.5s-.5.9-1 1.2c1.3.3 1.5 1.3 1.5 2.6s-.9 3.5-1.7 5.2c2 .3 3.2-1.3 4.5-2.3l.6 1.9zm-13.4-2c-1.1 1.1-1.7 2.5-1.9 4 0 1.3.9 1.6 2 1.6 1.3-.1 2.5-.7 3.4-1.7-.3-.6-.5-1.3-.5-2.1 0-2.3 2.1-5 1.9-5.1-1.8.9-3.4 2-4.9 3.3z"/><path d="M186.5 417c-1.5 2.4-3.4 3.6-5.2 5.4l-.2-2c1.1-.9 2.1-2 2.9-3.2-.9-.1-1.2-.4-1.2-1.3 0-3.2 4.5-6.3 5.6-6.3.4 0 .8.3.8.8 0 .4-.1.8-.3 1.2 4.1-.5 6.5-1.1 7-.5.6.6 1 1.4 1.1 2.3 0 1.3-.9 2.1-1.9 2.8s-3.4 3.3-3.4 5c.1.7.6 1.2 1.3 1.2 1.9 0 4.7-2.8 6.1-3.9l.3 1.6c-1.6 1.9-6.8 6.8-9.3 6.8-1.7-.1-3.1-1.6-2.9-3.4 0-2.9 2.3-5.3 4-7.4h-.1l-4.6.9z"/><path d="M216.2 413c-1.4 2.3-3.6 5.1-3.6 8 0 .7 0 2.2 1 2.2s5.6-3.6 7-4.5l.3 1.4c-2.1 2.3-6.5 6.9-9.8 6.9-3.3 0-2.3-1.7-2.3-3.2 0-1.1.1-2.3.3-3.4-1.5 1.3-5.7 5.6-7.6 5.6s-3.2-4.2-3.2-5.8c0-5.1 8.7-9.6 12.4-9.8.9 0 1.3.5 1.9 1.2 1.4-2.5 5.3-11.5 8.5-11.5.8.1 1.5.8 1.4 1.6 0 1.3-1.2 3.2-1.9 4.2l-4.4 7.1zm-13.9 8.1c-.1.4.2.8.6.9.5.1 7.6-5.1 8.3-7.7-7.7 2.5-8.7 4-8.9 6.8zM222.8 424.8c0-1.5 2-5.2 4.5-4.7.7.1 2.2.1 2.2 1.4 0 1.3-1.1 5.4-3.8 5.1-2.8-.3-2.9-.3-2.9-1.8zm5.2-10.3c0-1.5 2-5.2 4.5-4.7.7.1 2.2.1 2.2 1.4s-1.1 5.4-3.8 5.1-2.9-.3-2.9-1.8zM251.2 425.6c-1.1.5-2.3.9-3.5 1.1-.7 0-1.3-.1-1.3-.9s2.1-3.5 2.7-4.4c.7-.9.7-1.1 1.3-1.2.7-.1 3.8-.4 5.7-.9l12.7-15.1c1.5-1.9 8.1-8.4 10.3-8.4s2.2 1.5 2.2 2.8-3.6 8-5 10.5c.3 0 .8.1.8.7 0 .5-1.9 2.1-2.5 2.5-.7.4-2.9 2.3-3.8 2.3-.9 0-1-.7-1-1.3 0-3.3 3.8-8.1 5.9-10.5.3-.4.4-.9.1-.9-.3 0-2.5 1.7-7.3 7.3l-8.8 10c7.3 1.4 11 2.2 17.6 3.7l-2.3 2.3c-2.8 2.8-2.6 2.9-11.2 1.1-3.8-.9-7.7-1.3-11.7-1.2l-.9.5zM291.8 420.8c-2 2.4-5.9 6.3-9.1 6.3-3.3 0-3.8-2.9-3.8-5.2 0-5.3 5.4-10.6 8.1-10.6.8 0 2 .2 2 1.2s-4.4 6.1-6.2 7.4c-1.9 1.3.3 2.7 2.3 2.7s4.6-2.3 6.3-3.6l.4 1.8zm-4.2-12.2c0-1.9 2.1-3.4 3.8-3.4.7 0 1.4.6 1.4 1.3 0 1.7-1.6 3.9-3.5 3.9-1-.1-1.7-.9-1.6-1.8h-.1z"/><path d="M297.2 418.8c1.3.8 1.7 2.2 2.3 3.5l5.9-3.7.4 1.6c-1.7 1.6-3.6 3-5.7 4.1.1.8.1 1.6 0 2.4-.3 5.2-6.5 10-9.7 10.6-3.2.5-2.6-3.8-2.6-5.2 0-1.4 1.9-6.3 3-8.8-.8-.6-1.2-1.5-1.3-2.5 0-1.7 1.2-2.3 2.5-2.9 1.3-.7 4-3.5 5.3-6 1.3-2.5 6.8-12.6 9-12.6s1.1 1.2 1.1 2c-.3 2.2-1.1 4.3-2.3 6.1l-7.9 11.4zm-.3 6.5c-1.1.2-2.1 0-3.2-.3-1 1.5-1.7 3.1-2.1 4.9-.1 1.4.2 2.7.9 3.9 3-1.9 4.6-5.1 4.4-8.5z"/><path d="M321.6 419.9c-2.7 3.2-7.5 7.2-11.9 7.2s-4.7-2.8-4.8-5.8c-.2-5.8 6.2-11.7 11.9-11.5 1.4 0 3.2.3 3.2 2.1 0 1.7-2.2 5.4-10.6 8.2v1c-.1 1.6 1.3 2.3 2.7 2.3 3.2 0 6.8-3.2 9.1-5l.4 1.5zm-5.5-7.1c0-.3-.2-.5-.5-.4-2.7.9-4.8 2.9-5.9 5.6 3.8-1.3 6.4-4.4 6.4-5.2zM351.8 426.9c-1.5 1.5-6.9 6.4-8.8 6.4-.6 0-1.1-.5-1.1-1.1 0-1.2 1.9-3.5 2.7-4.4 1.2-1.4 2.8-2.3 4.6-2.7l5.1-5.4-6.5.5c-.3 0-2.2 0-2.3-.5-.3-1.1.1-2.4 1.1-3 1.8-1 3.8-1.7 5.9-2.1l6.8-1.3c1.4-2 5-8 5-10.1s-.7-.9-1.4-.9-.3-.2-3.6.3c-5.1.8-10 2.2-14.7 4.1h2.4c.3 0 .9 0 .9.4s-1 .7-1.3.8l-5.1 1.5c-2.9.9-3.4.4-3.4-.4s2.5-5.7 3.4-6.8c.9-1.1 4-2.6 6.6-3.2 11.4-2.6 14.8-2.7 17.3-2.7s4.5.2 4.5 2.3-4.9 11.9-6.9 14.7l2.9.4-1.7 2.8c-.3.5-.7 1.1-1.2 1.4-1.2.4-2.4.7-3.6.9l-7.6 8.1zM384.2 419.9c-1.6 2.4-4.3 3.7-7.1 3.6-1.7 2-4.1 3.2-6.8 3.3-2.3 0-4.4-2.3-4.6-6.3s1.5-5.4 4-7.4c2.3-1.9 5.2-3 8.2-3.3 1 0 2.4.4 2.4 1.5s-.5.9-1 1.2c1.3.3 1.5 1.3 1.5 2.6s-.9 3.5-1.7 5.2c2 .3 3.2-1.3 4.5-2.3l.6 1.9zm-13.4-2c-1.1 1.1-1.7 2.5-1.9 4 0 1.3.9 1.6 2 1.6 1.3-.1 2.5-.7 3.4-1.7-.3-.6-.5-1.3-.5-2.1 0-2.3 2.1-5 1.9-5.1-1.8.9-3.4 2-4.9 3.3z"/><path d="M386.7 417c-1.5 2.4-3.4 3.6-5.2 5.4l-.2-2c1.1-.9 2.1-2 2.9-3.2-.9-.1-1.2-.4-1.2-1.3 0-3.2 4.5-6.3 5.6-6.3.4 0 .8.3.8.8 0 .4-.1.8-.3 1.2 4.1-.5 6.5-1.1 7-.5.6.6 1 1.4 1.1 2.3 0 1.3-.9 2.1-1.9 2.8-1 .8-3.4 3.3-3.4 5 .1.7.6 1.2 1.3 1.2 1.9 0 4.7-2.8 6.1-3.9l.3 1.6c-1.6 1.9-6.8 6.8-9.3 6.8-1.7-.1-3.1-1.6-2.9-3.4 0-2.9 2.3-5.3 4-7.4h-.1l-4.6.9zM437.5 421.8c.1.4.4.7.8.7.8 0 1.3-.4 3.8-2.4l.8 1.1c-2.1 2.1-5.9 5.7-8.9 5.7s-2.3-1.2-2.3-2.6-.7-.3 3.2-7.4l-9.6.3-9 8.9c-1.1 1.1-2.7 2.9-4.2 2.9s-1.5-.1-1.5-1 3.4-5.7 7.5-7.1l3.4-3.8c-2.8.1-4.2.2-4.2-.9s3.2-4.5 5.6-5.2c2.4-.8 4-.9 4-.3 0 .5-3.2.4-3.2 1.2s.4.4.7.4h2.7l9.8-8.2c4.2-3.6 9.6-7.5 11.5-7.5s1.5 1.1 1.5 1.9c-.2 1.1-.6 2.1-1.2 3l-5.4 9.5c3.3 0 1.3-.4 4 .2-1.3 1.6-2.3 3.2-3.3 5l-3.5.2-3 5.4zm6.7-20.6h-.1l-12.6 10.5h.1l6.8-.4 5.8-10.1zM461.9 420c-2.4 2.5-6.5 7-10.3 7s-3.9-3.2-3.9-5.7c.1-4.8 1.8-9.4 4.8-13.1 3.8-4.8 8.1-8.8 9.5-8.8 1.4 0 .9 1.1.9 1.6-.3 4.1-1.4 8.1-11 17.2-.4 1-.5 2-.3 3 .4 1 1 1.9 2.2 1.9s5.8-2.8 7.5-4.4l.6 1.3zm-9-5.9c2.9-2.7 5.2-5.9 6.6-9.6-2.2 1.1-4.7 5-6.8 9.5l.2.1z"/><path d="M475.1 420c-2.4 2.5-6.5 7-10.3 7-3.8 0-3.9-3.2-3.9-5.7.1-4.8 1.8-9.4 4.8-13.1 3.8-4.8 8.1-8.8 9.5-8.8s.9 1.1.9 1.6c-.3 4.1-1.4 8.1-11 17.2-.4 1-.5 2-.3 3 .4 1 1 1.9 2.2 1.9 1.2 0 5.8-2.8 7.5-4.4l.6 1.3zm-9-5.9c2.9-2.7 5.2-5.9 6.6-9.6-2.2 1.1-4.7 5-6.8 9.5l.2.1z"/></g><g><path d="M11.5 115.5v-1.4l2.7-1.8c.3-2.8.4-9 .4-18.6 0-6.9-.1-11.9-.3-14.8-.2-2.9-.4-3.8-.7-2.8-.3 1-1.8.8-4.6-.8v-2.5h22c4.5 0 7.7.8 9.7 2.3 1.9 1.5 3 3.8 3 6.2.1 2.5-1 5-3 6.6-2.4 1.9-5.2 3.2-8.2 3.7v.3c2.6.1 5.2.7 7.6 1.7 1.5.8 2.7 1.9 3.5 3.4.9 1.6 1.4 3.5 1.4 5.3 0 2.5-.8 4.9-2.3 6.9-1.5 2.1-3.5 3.9-5.9 4.9-3.3 1.3-6.8 1.9-10.3 1.7h-7.9l-7.1-.3zm11.7-25.2h1.5c3.5 0 5.9-.6 7.3-1.8 1.5-1.5 2.3-3.6 2.1-5.8.1-1.8-.5-3.7-1.7-5.1-1.6-1.3-3.6-1.9-5.6-1.7l-3.5.3c-.1 6.3-.1 10.1-.1 11.5v2.6zm.2 21.7c1.1.3 2.2.4 3.4.4 2.5.1 4.9-.8 6.6-2.5 1.7-2.1 2.5-4.7 2.3-7.3.1-1.8-.2-3.6-1-5.2-.7-1.3-1.7-2.3-3-3-1.6-.7-3.4-1.1-5.2-1h-3.1V112zM50.8 115.5V113c2.8-.2 4.4-.4 4.8-.7.5-.7.7-1.5.7-2.4.2-2.7.3-7.7.3-15.1 0-2.8 0-6.9-.1-12.2 0-2-.1-4-.3-6.1-.1-.4-.4-.7-.7-.8-1.5-.4-3.1-.6-4.6-.6v-2.4l9.6.3 10.4-.3v2.5c-1.6 0-3.2.2-4.8.7-.5.5-.7 1.2-.7 2-.2 2-.3 5.9-.3 11.8 0 8 0 13.5.1 16.6-.1 1.9.1 3.8.6 5.6.2.3.5.5.8.6l4.2.4v2.5h-9.7l-10.3.1zM77.5 115.5v-1.4l2.7-1.8c.3-2.8.4-9 .4-18.6 0-6.9-.1-11.9-.3-14.8-.2-2.9-.4-3.8-.7-2.8-.3 1-1.8.8-4.6-.8v-2.5h22c4.5 0 7.7.8 9.7 2.3 1.9 1.5 3 3.8 3 6.2.1 2.5-1 5-3 6.6-2.4 1.9-5.2 3.2-8.2 3.7v.3c2.6.1 5.2.7 7.6 1.7 1.5.8 2.7 1.9 3.5 3.4.9 1.6 1.4 3.5 1.4 5.3 0 2.5-.8 4.9-2.3 6.9-1.5 2.1-3.5 3.9-5.9 4.9-3.3 1.3-6.8 1.9-10.3 1.7h-7.9l-7.1-.3zm11.8-25.2h1.5c3.5 0 5.9-.6 7.3-1.8 1.5-1.5 2.3-3.6 2.1-5.8.1-1.8-.5-3.7-1.7-5.1C97 76.4 95 75.8 93 76l-3.5.3c-.1 6.3-.1 10.1-.1 11.5v2.5zm.2 21.7c1.1.3 2.2.4 3.4.4 2.5.1 4.9-.8 6.6-2.5 1.7-2.1 2.5-4.7 2.3-7.3.1-1.8-.2-3.6-1-5.2-.7-1.3-1.7-2.3-3-3-1.6-.7-3.4-1.1-5.2-1h-3.2v18.4l.1.2zM118.8 115.5V114l3.2-1.8c.3-5.5.4-11.3.4-17.3s0-10.5-.1-13.4c.1-1.7-.1-3.4-.4-5.1-.1-.2-.3-.5-.6-.6l-4.5-.6v-2.5h20.1v2.5c-1.6 0-3.2.2-4.8.7-.3.3-.5.7-.6 1.1-.1.6-.2 3.8-.3 9.8v14.9c0 2.8.1 6.1.3 9.7l5.9.3c3.3 0 6.5-.3 9.7-1 .6-1.9 1.1-4.1 1.5-6.6h2.7c-.5 3-.9 6.7-1.3 11.1l-5.3.3h-25.9zM157 115.5v-1.7l3-1.7c.4-3.2.6-9.8.6-20 0-6.9-.1-11.5-.3-13.8.1-.8-.1-1.6-.6-2.3-1.4-.6-3-.8-4.5-.8v-2.5l11.4.3 16.7-.3 4.8.3.3.3c-.5 3-.9 6-1 9H185c.1-1.6 0-3.2-.3-4.8-.1-.2-.6-.4-1.4-.6-2.6-.4-5.1-.6-7.7-.6l-6.1.3c-.3 6.3-.4 11.3-.4 15.1l6.2.3c1.7.1 3.4 0 5.1-.3.4-.2.6-.5.7-.8.2-1.3.4-2.5.4-3.8h2.7c-.1 3.5-.1 5.7-.1 6.8v6.9h-2.7c0-1.6-.2-3.1-.6-4.6-.2-.3-.5-.5-.8-.6-2.3-.3-4.6-.4-6.9-.3l-3.9.3v3.2c0 5.8.1 10.3.3 13.4h6.1c3.2 0 6.3-.2 9.4-.6.5-1.9.9-4 1.4-6.5h2.5c-.5 3.5-.7 6.9-.8 10.4l-5.3.3h-14.9l-10.9-.3zM211.1 102.7h2.7c-.1 1.8 0 3.6.3 5.3.4.8 1 1.6 1.7 2.1 1.2 1 2.5 1.7 3.9 2.1 1.6.5 3.2.8 4.9.8 2.5.1 5-.7 6.9-2.3 1.7-1.4 2.6-3.6 2.5-5.8.1-1.8-.5-3.5-1.7-4.8-1.1-1.1-3.3-1.9-6.6-2.4-3.3-.4-6.6-1.3-9.7-2.5-1.7-.8-3-2.1-3.9-3.7-1-1.8-1.5-3.8-1.4-5.9-.1-3.7 1.4-7.2 4.1-9.7 2.7-2.6 7-3.9 12.9-3.9 2.1 0 4.1.2 6.2.6 1.8.4 3.6.9 5.3 1.7l.3.7c-.3 1.2-.5 2.3-.7 3.5-.1 1-.2 2.8-.3 5.3h-2.8c.1-1.7-.1-3.5-.4-5.2-.8-1-1.8-1.7-3-2.1-1.7-.8-3.6-1.2-5.5-1.1-2.3-.2-4.6.5-6.5 2-1.5 1.3-2.3 3.2-2.3 5.2 0 1.2.3 2.4 1 3.4.6 1 1.6 1.7 2.7 2.1 2.4.7 4.8 1.3 7.3 1.5 2.3.3 4.7.8 6.9 1.5 1.9.7 3.4 2 4.5 3.7 1.1 1.9 1.6 4 1.5 6.2.1 4.1-1.8 8.1-4.9 10.7-3.3 2.8-7.8 4.2-13.5 4.2-2.3 0-4.6-.2-6.9-.7-2.2-.5-4.4-1.3-6.5-2.4.3-1.3.6-2.6.7-3.9.1-1.4.2-3.5.3-6.2zM270.6 116.2c-7.5 0-13.3-1.9-17.3-5.8-4-3.8-6.1-9.1-6.1-15.9-.1-4.2.9-8.4 3-12.1 1.9-3.3 4.7-5.9 8-7.6 4.1-1.9 8.7-2.8 13.2-2.7 4.4-.2 8.8.7 12.8 2.5 3.2 1.6 5.8 4 7.6 7 1.9 3.4 2.8 7.2 2.7 11.1.1 4.3-.9 8.6-3 12.4-1.9 3.4-4.8 6.2-8.3 8-3.9 2.2-8.2 3.2-12.6 3.1zm1.1-3.2c3.8.2 7.5-1.5 9.8-4.5 2.4-3 3.7-7.6 3.7-13.8s-1.4-11.2-4.2-14.9c-2.3-2.8-5.7-4.2-10.4-4.2-3.9-.2-7.7 1.4-10.3 4.4-2.4 2.9-3.7 7.4-3.7 13.5-.1 3.8.6 7.6 2 11.1 1.9 5.5 7.3 9.1 13.1 8.6v-.2zM339.4 108.9l.7.7c-.5 1-1 2-1.4 3.1-2.2 1.2-4.5 2.1-6.9 2.7-2.5.6-5 .9-7.6.8-4.7.1-9.3-.8-13.5-2.8-3.5-1.7-6.5-4.5-8.4-7.9-2-3.6-3-7.6-3-11.7-.2-6 2.3-11.7 6.8-15.6 4.5-4 10.7-6.1 18.6-6.1 2.6 0 5.2.2 7.7.7 2.6.5 5.2 1.2 7.7 2.1l.3.4c-.4 1-.7 2.1-.8 3.2-.3 1.8-.5 4-.6 6.6h-2.5c0-1.8-.2-3.6-.4-5.3-.4-.7-1-1.2-1.7-1.7-1.2-.9-2.6-1.5-4.1-1.8-1.8-.5-3.7-.7-5.6-.7-4.4-.2-8.6 1.4-11.7 4.5-2.9 3-4.4 7.2-4.4 12.5-.2 5.2 1.7 10.3 5.2 14.1 3.2 3.4 7.6 5.1 13.2 5.1 2 0 4.1-.2 6.1-.7 2.1-.5 4.3-1.2 6.3-2.2zM344.3 115.5V113c2.8-.2 4.4-.4 4.8-.7.5-.7.7-1.5.7-2.4.2-2.7.3-7.7.3-15.1 0-2.8 0-6.9-.1-12.2 0-2-.1-4-.3-6.1-.1-.4-.4-.7-.7-.8-1.5-.4-3.1-.6-4.6-.6v-2.4l9.6.3 10.4-.3v2.5c-1.6 0-3.2.2-4.8.7-.5.5-.7 1.2-.7 2-.2 2-.3 5.9-.3 11.8 0 8 0 13.5.1 16.6-.1 1.9.1 3.8.6 5.6.2.3.5.5.8.6l4.2.4v2.5h-9.7l-10.3.1zM370.6 115.5v-1.7l3-1.5c.4-3.2.6-9.8.6-20 0-6.9-.1-11.5-.3-13.8.1-.8-.1-1.6-.6-2.3-1.4-.6-3-.8-4.5-.8v-2.7l11.4.3 16.7-.3 4.8.3.3.3c-.5 3-.9 6-1 9h-2.4c.1-1.6 0-3.2-.3-4.8-.1-.2-.6-.4-1.4-.6-2.6-.4-5.1-.6-7.7-.6l-6.1.3c-.3 6.3-.4 11.3-.4 15.1l6.2.3c1.7.1 3.4 0 5.1-.3.4-.2.6-.5.7-.8.2-1.3.4-2.5.4-3.8h2.7c-.1 3.5-.1 5.7-.1 6.8v6.9H395c0-1.6-.2-3.1-.6-4.6-.2-.3-.5-.5-.8-.6-2.3-.3-4.6-.4-6.9-.3l-3.9.3v3.2c0 5.8.1 10.3.3 13.4h6.1c3.2 0 6.3-.2 9.4-.6.5-1.9.9-4 1.4-6.5h2.5c-.5 3.5-.7 6.9-.8 10.4l-5.3.3h-14.8l-11-.3zM415.1 115.5V113l3.7-.3 1.3-.6c.3-.4.5-.8.6-1.3.2-.8.3-4.1.4-9.7.1-3.9.1-8 .1-12.1 0-8.1 0-12.2-.1-12.4-.1-.2-.8-.3-2.1-.3l-7.3.3-2 .3-.3.6c-.1.3-.3 2.1-.6 5.3H406c0-3.9-.1-7.3-.3-10.1l.3-.3c6.4.3 12.6.4 18.7.4l20.3-.4.3.4c-.4 2.8-.7 6.1-.8 9.8H442c0-1.9-.2-3.8-.6-5.6-.3-.3-.6-.4-1-.4-3.2-.4-6.5-.5-9.7-.4h-.7c-.1.6-.2 1.1-.1 1.7v21c0 5.9 0 9.6.1 11 .1 1.4.3 2.2.7 2.4 1.6.4 3.2.6 4.8.7v2.5l-9.6-.3-10.8.3zM458.6 115.5V113c1.5.1 3-.1 4.4-.6.5-.3.9-.8 1-1.4 0-.2.1-2.2.3-5.9v-2.3c.1-1.7 0-3.5-.4-5.2-1.4-2.8-2.9-5.5-4.6-8.2-2.7-4.2-4.8-7.3-6.2-9.1-1-1.4-2.2-2.7-3.7-3.7l-1.4-.3h-1.4V74l10-2.1c1 .5 1.9 1.1 2.7 1.8 1.7 1.9 3.1 3.9 4.4 6.1 1.9 3 4.2 7.4 7 13.1l2.5-4.2c2.3-3.8 5.3-9.2 9-16h4.9v1.5c-2.2 2.8-4.2 5.7-6.1 8.7-4.6 7.2-7.2 11.4-7.7 12.7-.4 1.6-.5 3.2-.4 4.8 0 4.8.1 8.2.3 10.1.2 2 .5 2.6.8 2 1.6.4 3.2.6 4.8.6v2.5l-9-.3-11.2.2zM88.1 180.9c-7.5 0-13.3-1.9-17.3-5.8-4-3.8-6.1-9.1-6.1-15.9-.1-4.2.9-8.4 3-12.1 1.9-3.3 4.7-5.9 8-7.6 4.1-1.9 8.7-2.8 13.2-2.7 4.4-.2 8.8.7 12.8 2.5 3.2 1.6 5.8 4 7.6 7 1.9 3.4 2.8 7.2 2.7 11.1.1 4.3-.9 8.6-3 12.4-1.9 3.4-4.8 6.2-8.3 8-3.9 2.2-8.2 3.2-12.6 3.1zm1.1-3.2c3.8.2 7.5-1.5 9.8-4.5 2.4-3 3.7-7.6 3.7-13.8s-1.4-11.2-4.2-14.9c-2.3-2.8-5.7-4.2-10.4-4.2-3.9-.2-7.7 1.4-10.3 4.4-2.4 2.9-3.7 7.4-3.7 13.5-.1 3.8.6 7.6 2 11.1 1.9 5.5 7.3 9.1 13.1 8.6v-.2zM116.8 180.2v-2.5c2.6 0 4.1-.2 4.5-.6.4-.4.6-1.1.6-2.1.3-3.9.4-8.5.4-13.8s0-9.4-.1-12.4c0-2.5-.1-5.1-.6-7.6-.1-.3-.3-.5-.6-.7-1.4-.4-2.8-.6-4.2-.6v-2.5h31.7l.3.6c-.5 3-.8 6-.8 9h-2.5l-.3-3.2c0-.7-.1-1.4-.4-2-.7-.4-1.5-.6-2.3-.7-1.8-.3-3.6-.4-5.5-.4l-5.6.3c-.2 3.5-.3 5.9-.3 7.3v8h4.4l5.6-.3c.3 0 .5-.2.7-.4.4-1.2.5-2.5.6-3.8h2.7c-.1 1.8-.1 3.6-.1 5.3 0 1.8 0 4.5.1 8h-2.7c0-1.6-.2-3.1-.6-4.6-.1-.3-.4-.5-.7-.6-1.9-.3-3.9-.5-5.9-.4h-3.9v11.7c0 1.7.1 3.3.4 4.9.1.3.4.6.7.7 1.7.4 3.4.6 5.1.6v2.5l-9.1-.3-11.6.6zM166.5 180.2v-2.4c6.8-8.5 15.4-20.6 25.9-36.3h-7.6l-9.4.3c-.7 0-1.3.2-1.8.6-.4 1-.7 2.1-.7 3.2l-.3 2.1H170c0-1.4 0-3.1.1-5.1v-2c0-.9-.1-1.9-.3-2.8l.4-.3 11.5.3h22.4v2.3c-9.2 12.3-17.8 24.5-25.9 36.6l11.5.3c2.9.1 5.8-.1 8.7-.4.5 0 .9-.2 1.3-.6.7-1.5 1.1-3 1.4-4.6l.3-1.5h2.5c-.5 3.6-.9 7.2-1 10.8h-3.7l-23.1-.4-9.6-.1zM208.5 177.6c1.2 0 2.4-.2 3.5-.6.6-.7 1.1-1.4 1.4-2.3 1.2-2.6 2.8-6.3 4.8-11l10.8-26.5h4.5l13.8 32.8c.9 2.4 2 4.6 3.4 6.8 1.2.6 2.5.9 3.8.8v2.8l-9.4-.3-10 .3v-2.8l4.2-.4c.3-.2.5-.5.6-.8-.3-1.4-.7-2.7-1.3-3.9l-2-5.1h-15.9l-1.4 3.4c-.4.9-.8 2.3-1.4 4.2-.1.4-.1.7-.1 1.1 0 .4.2.8.6 1l4.2.6v2.8l-7.5-.3-6.8.3.2-2.9zm20.2-29.7l-6.5 15.8h12.9l-6.4-15.8zM257.2 180.2v-2.5h1.8c1 .1 2-.1 2.8-.7.4-.5.6-1.9.7-4.4.2-5.1.3-10.5.3-16.3v-10.6c.1-1.5-.1-2.9-.4-4.4-.1-.3-.4-.6-.7-.7l-4.4-.6v-2.5h15.2l3.4 7.7 11.1 23.1c6.9-13.9 11.8-24.1 14.5-30.7h14.4v2.5c-1.5 0-3.1.2-4.5.7-.5.8-.8 1.8-.7 2.8-.2 2.5-.3 7.4-.3 14.6 0 3.7 0 7.5.1 11.5-.1 2.3.1 4.6.4 6.9.1.3.3.5.6.7l4.2.6v2.5l-8.9-.3-10.7.3v-2.5h1.8c.9.1 1.9-.1 2.7-.6.5-.8.7-1.7.7-2.7.1-1.4.1-4.8.1-10.1v-18.9c-3.1 6.3-7.1 14.5-12 24.8-2 4.2-3.5 7.6-4.6 10.3h-2c-1.5-3.5-3.6-7.9-6.2-13.2L266.2 146v4.1c0 11.4 0 19.4.1 23.8-.1 1.1.1 2.3.7 3.2.4.4 1.9.7 4.5.8v2.5l-6.2-.3-8.1.1zM322.5 180.2v-1.4l2.7-1.8c.3-2.8.4-9 .4-18.6 0-6.9-.1-11.9-.3-14.8-.2-2.9-.4-3.8-.7-2.8-.3 1-1.8.8-4.6-.8v-2.5h22c4.5 0 7.7.8 9.7 2.3 1.9 1.5 3 3.8 3 6.2.1 2.5-1 5-3 6.6-2.4 1.9-5.2 3.2-8.2 3.7v.3c2.6.1 5.2.7 7.6 1.7 1.5.8 2.7 1.9 3.5 3.4.9 1.6 1.4 3.5 1.4 5.3 0 2.5-.8 4.9-2.3 6.9-1.5 2.1-3.5 3.9-5.9 4.9-3.3 1.3-6.8 1.9-10.3 1.7h-7.9l-7.1-.3zm11.7-25.2h1.5c3.5 0 5.9-.6 7.3-1.8 1.5-1.5 2.3-3.6 2.1-5.8.1-1.8-.5-3.7-1.7-5.1-1.6-1.3-3.6-1.9-5.6-1.7l-3.5.3c-.1 6.3-.1 10.1-.1 11.5v2.6zm.1 21.7c1.1.3 2.2.4 3.4.4 2.5.1 4.9-.8 6.6-2.5 1.7-2.1 2.5-4.7 2.3-7.3.1-1.8-.2-3.6-1-5.2-.7-1.3-1.7-2.3-3-3-1.6-.7-3.4-1.1-5.2-1h-3.1V176.7zM361.8 180.2v-2.5c2.8-.2 4.4-.4 4.8-.7.5-.7.7-1.5.7-2.4.2-2.7.3-7.7.3-15.1 0-2.8 0-6.9-.1-12.2 0-2-.1-4-.3-6.1-.1-.4-.4-.7-.7-.8-1.5-.4-3.1-.6-4.6-.6v-2.5l9.6.3 10.4-.3v2.5c-1.6 0-3.2.2-4.8.7-.5.5-.7 1.2-.7 2-.2 2-.3 5.9-.3 11.8 0 8 0 13.5.1 16.6-.1 1.9.1 3.8.6 5.6.2.3.5.5.8.6l4.2.4v2.5H372l-10.2.2zM385.8 177.6c1.2 0 2.4-.2 3.5-.6.6-.7 1.1-1.4 1.4-2.3 1.2-2.6 2.8-6.3 4.8-11l10.8-26.5h4.5l13.8 32.8c.9 2.4 2 4.6 3.4 6.8 1.2.6 2.5.9 3.8.8v2.8l-9.4-.3-10 .3v-2.8l4.2-.4c.3-.2.5-.5.6-.8-.3-1.4-.7-2.7-1.3-3.9l-2-5.1h-16l-1.4 3.4c-.4.9-.8 2.3-1.4 4.2-.1.4-.1.7-.1 1.1 0 .4.2.8.6 1l4.2.6v2.8l-7.5-.3-6.8.3.3-2.9zm20-29.7l-6.5 15.8h12.9l-6.4-15.8z"/></g></svg>
