<svg xmlns="http://www.w3.org/2000/svg" viewBox="0 0 600 600"><path fill="#fff" d="M63 123l475 5v30h35l8 58v290l-13 15H335l-26 23h-18l-22-23H26l-5-358 11-6 26-1z" id="Layer_3"/><g id="Layer_1"><path d="M565.8 146.8h-24.9v17.9h24.9c1.8 0 3.2 1.5 3.2 3.2v340.8c0 1.8-1.5 3.2-3.2 3.2H330.7c-4 0-7.5 2.7-8.6 6.5-2.8 9.9-11.9 16.8-22.1 16.8-10.2 0-19.3-6.9-22.1-16.8-1.1-3.9-4.6-6.5-8.6-6.5H34.2c-1.8 0-3.2-1.5-3.2-3.2V167.9c0-1.8 1.5-3.2 3.2-3.2h24.9v-17.9H34.2c-11.7 0-21.2 9.5-21.2 21.2v340.9c0 11.7 9.5 21.2 21.2 21.2h228.9c6.7 14 21.1 23.4 36.9 23.4 15.8 0 30.1-9.3 36.9-23.4h228.9c11.7 0 21.2-9.5 21.2-21.2v-341c0-11.6-9.5-21.1-21.2-21.1z"/><path d="M540.9 114.3h-213c-20.3 0-36.9 17.2-36.9 38.4v359.2c0 5 4.4 9 9.4 9 4.5 0 8.3-3.3 8.9-7.8 1.4-10 9.4-17.5 18.6-17.5h213c5 0 9-4 9-9V123.2c0-4.9-4-8.9-9-8.9zm-9 363.4h-204c-6.9 0-13.4 2-19 5.6V152.7c0-11.3 8.5-20.5 19-20.5h204v345.5z"/><path d="M272.1 114.2h-213c-5 0-9 4-9 9v363.5c0 5 4 9 9 9h213c9.3 0 17.3 7.5 18.6 17.5.6 4.4 4.8 7.7 9.3 7.7 5 0 9-4 9-9V152.7c0-21.2-16.6-38.5-36.9-38.5zM291 483.3c-5.6-3.5-12.1-5.6-19-5.6H68V132.2h204c10.4 0 19 9.2 19 20.5v330.6z"/></g><ellipse fill="#fff" cx="301" cy="171.5" rx="154" ry="156.5" id="Layer_4"/><path d="M420.5 281.9c25.1-28.3 40.5-65.6 40.5-106.4 0-42.4-16.6-81-43.6-109.8 0 0-.1 0-.1-.1-28.1-29.9-67.5-49-111.3-50.5l-3.1-.1c-.8 0-1.6-.1-2.4-.1s-1.6 0-2.4.1l-3.1.1c-43.8 1.5-83.2 20.6-111.3 50.5 0 0-.1 0-.1.1-27 28.7-43.6 67.3-43.6 109.8 0 40.8 15.3 78 40.5 106.4 0 0 0 .1.1.2l.3.3c28.3 31.6 68.8 51.9 114.1 53.5l3.1.1h2.4c.8 0 1.6 0 2.4-.1l3.1-.1c45.3-1.6 85.9-21.9 114.1-53.6.1-.1.2-.1.3-.2.1 0 .1-.1.1-.1zM151.2 181h66.4c.6 23.5 5.2 46.3 13.4 67.6-15.7 5.7-30.8 13.3-44.9 22.9-20.7-24.7-33.6-56.1-34.9-90.5zm37.9-105c13.8 9 28.4 16.1 43.7 21.5-9.4 22.7-14.5 47.2-15.2 72.5h-66.4c1.3-36 15.4-68.8 37.9-94zm260.7 94h-66.4c-.7-25.2-5.9-49.7-15.2-72.5 15.3-5.4 30-12.5 43.7-21.5 22.5 25.2 36.6 58 37.9 94zM295 97.8c-16-.5-31.7-2.8-46.9-7.1 11.2-23 27.1-43.8 46.9-61.1v68.2zm0 11.1V170h-66.3c.7-24.1 5.7-47.4 14.8-69 16.6 4.7 33.9 7.4 51.5 7.9zm11 0c17.6-.5 34.9-3.1 51.5-8 9 21.6 14.1 45 14.8 69H306v-61zm0-11.1V29.6c19.8 17.3 35.7 38.1 46.9 61.1-15.2 4.3-30.9 6.7-46.9 7.1zm57.6-10.5c-10.6-22.3-25.4-42.6-43.7-60 32.4 4.2 61.6 18.9 84 40.5-12.6 8.2-26.2 14.7-40.3 19.5zm-126.2 0C223.3 82.5 209.7 76 197 67.9c22.5-21.6 51.6-36.3 84-40.5-18.3 17.4-33 37.7-43.6 59.9zm-8.7 93.7H295v55.6c-18.3.5-36.2 3.3-53.5 8.5-7.8-20.2-12.2-41.8-12.8-64.1zm66.3 66.7v73.7c-21.2-18.5-37.9-41-49.2-66 15.9-4.7 32.3-7.3 49.2-7.7zm11 73.7v-73.7c16.8.5 33.3 3.1 49.2 7.7-11.3 25-27.9 47.5-49.2 66zm0-84.8V181h66.3c-.6 22.2-5 43.9-12.8 64.1-17.2-5.2-35.2-8-53.5-8.5zm77.4-55.6h66.4c-1.3 34.4-14.2 65.8-34.9 90.5-14.1-9.5-29.2-17.2-44.9-22.9 8.2-21.3 12.7-44.1 13.4-67.6zm-189.8 98.8c13.1-8.7 27-15.7 41.6-20.9C246 283 261.5 305 281 323.6c-34-4.4-64.5-20.4-87.4-43.8zM320 323.6c19.6-18.6 35-40.6 45.8-64.7 14.6 5.2 28.5 12.2 41.6 20.9-22.9 23.4-53.4 39.4-87.4 43.8z"/><g><path d="M342.2 124.5c19.8-24 18.8-53.1-6.3-74.5-25.2-21.5-20.1 17-34 19.6-3.1.6-5.9 2.6-9 3.8-22.6 8.5-36.3 24.2-41.7 48-8.4 36.8-40.1 60.2-54.7 94.5-10.5 25.1-10.7 39.9 10.5 56.8 26.1 20.8 41 47.4 34.3 82.8-1.3 6.8-13.8 17.1 2.8 21.6 10.8 2.8 21.2 15.5 33.5.5C283 371 294 369.3 300 363c10.2-10.5 16.3-7.1 18 4.6 7 49.6 44 93 28.8 148.3 31.6-20.8 33.9-58.7 7.7-94.8-5-6.8-16.5-11.9-9.5-22.6 16.2-24.3 5.3-42.1-9.9-62.1-16.9-22.4-7.5-43.4 17.4-56 23.6-11.9 49.1-22.8 61.5-52.9-20.3 1.2-39.7-9.2-43.7-22.6-6-20.6-9-43.2-37.9-45.8-5.4-.5-8.2-7.9-4.7-16.3 3.4-8 9.6-12.3 14.5-18.3z" fill="#fcfcfc" stroke="#121111" stroke-width="9" stroke-miterlimit="10"/></g></svg>
