<svg xmlns="http://www.w3.org/2000/svg" viewBox="0 0 500 500"><path fill="#d28f3e" d="M7 346.9s87.2-15.6 125.9-6.4 83.4 19.1 109.5-13.9c0 0-31.6 16.4-107.7-4.5C84.9 308.5 7 346.9 7 346.9zm486 0s-87.2-15.6-125.9-6.4-83.4 19.1-109.5-13.9c0 0 31.6 16.4 107.7-4.5 49.8-13.6 127.7 24.8 127.7 24.8z"/><path d="M45.4 261.5s65.9 30.2 76.3 36.2 60.2 25.3 87.9 23.5c0 0-75.5-39.2-86.4-43.7-10.9-4.4-42.5-17-77.8-16z" fill="#ead6c3"/><path d="M91.6 201.9s41 36.8 60.8 63.3c11.6 15.5 57.4 44.7 67 46.9 0 0-46.2-54.4-61.8-69-15.6-14.6-51.7-39-65.7-41.3h-.3z" fill="#e5c7a8"/><path fill="#d28f3e" d="M277.3 324.1s16.8-20.6 88.4-19.8 82.7-42.9 82.7-42.9-27.6 22.1-95.4 23.2-75.7 39.5-75.7 39.5z"/><path d="M145.6 151.6s30.7 57.4 40.2 90.9c9.5 33.5 47.1 62.3 47.1 62.3s-24.6-54.4-31-71.2c-6.4-16.9-38.5-76.8-56.3-82z" fill="#ddba94"/><path d="M214.1 125.1s8.3 56.6 5.4 91.6c-4.2 48.4 21.6 82.4 21.6 82.4s-4-48.9-3.6-70.9c.4-22.1-1.2-92.4-23.1-103.2l-.3.1z" fill="#ce996e"/><path d="M257.9 302.1s-14.9-51.4 2.7-86.9 18.5-35.3 25-94.2c0 0 19.4 32.3-6.9 106.2-14.8 41.8-14.8 41.8-20.8 74.9z" fill="#c67c2c"/><path fill="#d28f3e" d="M270.7 300.6s-3-40.2 33.4-79 39.6-41 51.5-71.5c0 0 7 30.2-29.8 78.1-17.2 22.6-27.4 27.2-55.1 72.4zm4.5 11.6s3.3-23.5 62.1-59.6 57.1-30.2 74-53.3c0 0 .7 37.2-45.4 57.8-41.7 18.6-90.9 55.1-90.9 55.1h.2z"/><path d="M69.3 95.7V67.6h3.2l12.2 22.1V67.6h3v28.1h-3.2L72.3 73.6v22.1h-3zM105.6 95.7V67.6h16.9v3.3h-13.8v8.6h12.9v3.3h-12.9v9.6H123v3.3h-17.4zM144 95.7l-6.2-28.1h3.2l3.5 18.4c.4 1.9.7 3.8 1 5.7.6-3 .9-4.7 1-5.2l4.4-19h3.7l3.3 14.2c.8 3.5 1.4 6.8 1.8 9.9.3-1.8.7-3.8 1.2-6.1l3.7-18h3.1l-6.4 28.1h-3l-4.9-21.4c-.4-1.8-.7-2.9-.7-3.3-.2 1.3-.5 2.4-.7 3.3l-4.9 21.4H144v.1zM203.3 95.7v-3.4l11.9-18c.8-1.3 1.7-2.4 2.4-3.3h-13v-3.3h16.7V71l-13.1 19.5-1.4 2h14.9v3.3h-18.4v-.1zM237.8 95.7V67.6h16.9v3.3h-13.8v8.6h12.9v3.3h-12.9v9.6h14.3v3.3h-17.4zM269.6 95.7l9-28.1h3.3l9.5 28.1h-3.5l-2.7-8.5h-9.7l-2.6 8.5h-3.3zm6.7-11.5h7.9l-2.4-7.8c-.7-2.4-1.3-4.3-1.7-5.8-.3 1.8-.7 3.6-1.3 5.4l-2.5 8.2zM306.5 95.7V67.6h3.1v24.8H321v3.3h-14.5zM334.9 95.7l9-28.1h3.3l9.5 28.1h-3.5l-2.7-8.5h-9.7l-2.6 8.5h-3.3zm6.7-11.5h7.9l-2.4-7.8c-.7-2.4-1.3-4.3-1.7-5.8-.3 1.8-.7 3.6-1.3 5.4l-2.5 8.2zM371.8 95.7V67.6h3.2l12.2 22.1V67.6h3v28.1H387l-12.2-22.1v22.1h-3zM408.1 95.7V67.6h8c1.8 0 3.2.1 4.2.4 1.3.4 2.5 1 3.4 2 1.2 1.3 2.1 2.9 2.8 4.8.6 1.9.9 4.2.9 6.7 0 2.1-.2 4-.6 5.7-.4 1.6-.9 3-1.6 4.1-.6 1.1-1.4 1.9-2.1 2.5s-1.7 1.1-2.8 1.4c-1.1.3-2.3.5-3.7.5h-8.5zm3-3.3h5c1.5 0 2.7-.2 3.6-.5s1.6-.8 2.1-1.5c.7-.9 1.3-2.1 1.7-3.6s.6-3.3.6-5.4c0-2.9-.4-5.2-1.2-6.8-.8-1.6-1.8-2.6-2.9-3.2-.8-.4-2.2-.6-4-.6h-4.9v21.6z"/><g><path d="M45.7 405.3c-.7-.5-1.4-.9-2.1-1.3-.9-.5-1.3-1.6-.8-2.5.1-.3.3-.4.5-.6a7.4 7.4 0 0 0 3.4-6.5c0-2.8-1.4-5.4-3.8-6.9-2.7-2-6.3-3-11-3h-21c-1.1 0-1.9.8-1.9 1.9v35.7c0 1.1.8 1.9 1.9 1.9h20.6c5.5 0 9.9-1.1 13.2-3.4 3.3-2.3 4.8-5.1 4.5-8.3 0-2.8-1.3-5.4-3.5-7zm-27.1.2h11.3c8.1 0 12.2 2.2 12.2 6.6.1 2.1-1 4.1-2.8 5.3-1.9 1.3-4.7 1.9-8.3 1.9H17.8c-1.1 0-1.9-.8-1.9-1.9v-26.6c0-1.1.8-1.9 1.9-1.9h11c7.2 0 10.8 1.9 10.8 5.8s-3.6 6-10.9 6.5h-8.1c-.9-.1-1.6.6-1.9 1.4l-.6 3h.6m91.1-.3c-.7-.5-1.4-.9-2.1-1.3-.9-.4-1.3-1.6-.9-2.5.1-.3.3-.4.5-.6 2.2-1.4 3.5-3.8 3.4-6.5 0-2.8-1.4-5.4-3.8-6.9-2.7-2-6.4-3-11-3h-21c-1.1 0-1.9.8-1.9 1.9v35.7c0 1.1.8 1.9 1.9 1.9h20.5c5.5 0 9.9-1.1 13.2-3.4 3.3-2.3 4.8-5 4.5-8.1.1-2.8-1.1-5.5-3.4-7.1h.1zm-27.1.2h11.4c8.1 0 12.2 2.2 12.2 6.6.1 2.1-1 4.1-2.8 5.3-1.8 1.3-4.6 1.9-8.1 1.9H82.2c-1.1 0-1.9-.8-1.9-1.9v-26.6c0-1.1.8-1.9 1.9-1.9h10.9c7.2 0 10.8 1.9 10.8 5.8s-3.6 6-11 6.5h-8.1c-.9-.1-1.6.6-1.9 1.4l-.8 2.9h.6M63 388.8v35.1c0 .6-.4 1.1-1 1.1-.2 0-.3 0-.5-.1l-4.9-2.1c-.4-.2-.6-.6-.6-1v-35.5c0-.6.5-1.1 1.1-1.1.2 0 .4.1.5.1l4.8 2.5c.3.2.6.5.6 1z"/><path fill="#999897" d="M358.7 388.8v35.1c0 .6-.4 1.1-1 1.1-.2 0-.3 0-.5-.1l-5-2.1c-.4-.2-.6-.6-.6-1v-35.5c0-.6.4-1.1 1-1.1.2 0 .4.1.6.2l4.9 2.5c.3.1.6.4.6.9z"/><path d="M126.7 388v30.1c-.1.6.4 1 .9 1.1H148.8c.3 0 .6.1.8.4l2.1 2.7c.4.4.4 1.1-.1 1.4-.2.2-.4.3-.7.3h-30.2c-.6 0-1-.4-1-1v-37c0-.6.5-1 1-1 .1 0 .3.1.4.1l5 2.1c.4.1.6.5.6.9v-.1zm63.8 31.6l2 2.6c.4.5.3 1.1-.3 1.5-.2.1-.4.2-.6.2h-35.2c-.6 0-1.1-.5-1.1-1.1v-37.4c0-.6.5-1.1 1.1-1.1h35.2c.6.1 1.1.6 1 1.1 0 .1-.1.3-.1.4l-1.4 2.6c-.2.4-.5.6-.9.6h-26.6c-.6 0-1 .4-1.1 1v10c.1.6.5 1 1.1 1H189c.6 0 1.1.5 1.1 1.1 0 .2-.1.4-.2.6l-1.5 2.6c-.2.3-.5.5-.9.5h-24c-.6 0-1.1.5-1.1 1.1V418c0 .6.5 1.1 1.1 1.1h26.1c.4.1.6.3.9.5z"/><path fill="#999897" d="M401.4 419.6l2 2.6c.4.5.3 1.1-.3 1.5-.2.1-.4.2-.6.2h-35.1c-.6.1-1.1-.4-1.1-1v-37.5c0-.6.5-1.1 1.1-1.1h35.1c.6.1 1.1.6 1 1.1 0 .1-.1.3-.1.4l-1.4 2.6c-.2.4-.5.6-.9.6h-26.7c-.6 0-1 .4-1.1 1v10c.1.6.5 1 1.1 1h25.5c.6 0 1.1.4 1.1 1 0 .2-.1.4-.2.6l-1.6 2.6c-.2.3-.5.5-.9.5h-23.9c-.6 0-1.1.5-1.1 1.1v11.1c0 .6.5 1.1 1.1 1.1h26.1l.9.6zM236.9 396h-3.4c-.7 0-1.3-.4-1.5-1.1-.4-2.2-1.8-3.9-4.2-5.1-2.4-1.2-5.2-1.8-8.5-1.8-2.6-.1-5.1.4-7.5 1.3-2.9 1.1-4.4 3-4.4 5.6s2.1 4.3 6.3 5l14.8 2.5c7.8 1.4 11.8 5 11.8 10.7 0 4.2-2.3 7.3-6.9 9.4-3.5 1.7-8 2.5-13.4 2.5-6.8 0-12-1.3-15.7-3.8-2.9-1.8-4.9-4.9-5.3-8.3-.1-.9.5-1.6 1.4-1.8h3.7c.8 0 1.4.5 1.5 1.3.3 2.6 1.8 4.6 4.5 6 2.7 1.4 5.9 2 9.7 1.9 2.9.1 6-.3 8.8-1.1 3.3-1.1 4.9-2.9 4.9-5.5.1-1.8-.8-3.4-2.3-4.4s-4.5-1.8-8.8-2.6l-10.7-1.9c-7.4-1.3-11.1-4.3-11.1-9.3 0-3.3 1.6-6.5 4.4-8.4 3.1-2.5 7.6-3.8 13.6-3.8 12 0 18.7 3.6 20.1 10.8.2.8-.3 1.6-1.1 1.8-.2.1-.4.1-.6.1h-.1zm59.1 8.2c.1 5.1-1.9 9.9-5.4 13.5-4.5 4.8-11.1 7.3-19.9 7.3s-15.5-2.4-20.1-7.3c-7.2-7.6-7.2-19.6 0-27.1 4.6-4.8 11.3-7.1 20.1-7.1s15.4 2.4 19.9 7.2c3.6 3.6 5.5 8.6 5.4 13.7v-.2zm-7.3 0c0-4.7-1.6-8.6-4.9-11.5-3.3-2.9-7.7-4.5-13.3-4.4-5.6 0-10 1.4-13.2 4.4-3.2 2.9-4.9 6.8-5 11.5 0 4.7 1.6 8.5 4.8 11.5 3.2 2.9 7.6 4.5 13.3 4.6 5.5 0 9.9-1.5 13.2-4.6 3.3-3.1 5-6.8 5-11.4l.1-.1zm54.7-7.8H339c-.5 0-.9-.3-1.1-.8-1.8-5-6.6-7.4-14.3-7.4-5 0-9 1.3-12 3.9-3.1 2.6-4.8 6.5-5 11.7 0 11 5.8 16.4 17.2 16.4 2.8.1 5.6-.6 8.1-2 3.1-1.7 5.5-4.5 6.5-8 .2-.6.7-.9 1.3-.9h4.2c.7-.1 1.3.5 1.3 1.2 0 .1 0 .3-.1.4-1.6 5.5-5.1 9.5-10.7 11.8-3.7 1.5-7.7 2.3-11.7 2.2-6.6 0-11.9-1.6-16.1-4.9-4.8-3.8-7.3-9.2-7.3-16.2 0-6.1 2.2-11.1 6.5-14.9s10.3-5.6 17.8-5.6c6.3 0 11.3 1.3 15.3 3.9 2.9 2 4.8 4.5 5.6 7.3.2.7-.2 1.4-.8 1.6 0 .3-.1.3-.3.3zm66.9-7.6l-1.8-2.8c-.3-.4-.1-1 .3-1.3.1-.1.3-.1.4-.1h38.9c.5-.1 1 .3 1 .9 0 .2-.1.4-.1.6l-1.6 2.8c-.2.3-.5.4-.8.4h-13.4c-.5 0-.9.4-.9.9v32.4c0 .5-.4.9-.9.9-.1 0-.2 0-.3-.1l-5.2-2.3c-.4-.1-.6-.5-.6-.9v-30.1c0-.5-.4-.9-.9-.9h-13.2c-.4 0-.7-.2-.9-.4zm68.2 19.5v14.4c.1.4-.3.8-.7.8-.1 0-.3 0-.4-.1l-5.6-2.6c-.3-.1-.4-.4-.4-.6v-11.9c0-.2-.1-.4-.2-.5l-18.5-22.1c-.3-.3-.3-.8.1-1.1.1-.1.4-.2.6-.2h6.3c.2.1.4.1.5.3l14.1 17.9c.3.3.8.3 1.1.1l.1-.1 14.1-17.9c.2-.2.4-.3.6-.3h6.3c.4-.1.8.3.8.7 0 .2-.1.4-.2.6l-18.4 22.1c-.2.2-.2.3-.2.5z"/></g></svg>
