<svg xmlns="http://www.w3.org/2000/svg" viewBox="0 0 500 500"><path d="M305.9 462.2l173.7 17.5V16.5L305.8 34.4C282.9 37 265.1 55 264.3 76.2v112.7c.8 23.5 19.6 41.9 42.8 41.9h92.1v-16.1h-92.1c-14.4 0-26.1-11.4-26.6-26.1V76.5c.5-13 12.4-24.4 27-26.1l155.8-14 .1 423.5-1.5-.2L307.7 446c-15.7-1.9-26.6-12.2-27.2-25.8V307.1c.5-15.2 12-26.5 26.6-26.5h92.1v-16.1h-92.1c-23.2 0-42 18.5-42.8 42.3v113.8c.9 21.6 18 38.6 41.6 41.4v.2zm-74.8-42.4V306.7c-.8-23.5-19.6-41.9-42.8-41.9H96.2v16.1h92.1c14.7 0 26.2 11.2 26.6 26.1v112.5c-.4 12.1-8.9 24.9-27.1 26.1L32.1 459.9V36.2l1.5.1 154.3 14.3c15.3 1.8 26.7 12.6 27.2 25.7v112.1c-.4 15.1-12 26.5-26.5 26.5H96.4V231h92.1c23.2 0 42-18.6 42.8-42.3V76.1c-.8-21.3-18.3-38.7-41.6-41.4L16 16.4v463.5l173.2-18.2c23.8-1.6 41-18.8 41.9-41.9z" fill="#083f54"/></svg>
