<svg xmlns="http://www.w3.org/2000/svg" viewBox="0 0 882 345"><path d="M50 55.2c82.8 3.5 147-7 190.7-17.6C318.3 19 385.2-12.4 415 17c10 10 12.6 23.5 13.3 33m404.1 5.2c-82.8 3.5-147-7-190.7-17.6C564 19 497.2-12.4 467.4 17c-10 10-12.7 23.5-13.4 33" fill="none" stroke="#b32" stroke-miterlimit="10" stroke-width="10"/><path fill="#b32" d="M410.4 73a34 34 0 0 0 66.8.3z"/><path d="M446.6 177v-2.8l13.7.3 13.2-.3v3H470q-4.2 0-5 1.6t-1 15v18q0 10 1 13.7t5.7 6.5q4.5 2.7 12 2.7a27.5 27.5 0 0 0 13-2.8 11.7 11.7 0 0 0 5.5-6.2q1.7-4.2 1.7-15.8v-17.4q0-12-1.2-13.8t-6-1.7h-2.4v-2.8l12 .3 10.5-.3v3h-3.2q-3.7 0-4.7 2t-1 13.6V210q0 11.8-1 16a18 18 0 0 1-4.4 7.3 21.3 21.3 0 0 1-8.3 5.2 34.7 34.7 0 0 1-12.2 2 41.8 41.8 0 0 1-12.5-1.8 21.6 21.6 0 0 1-8.2-4.3 14.5 14.5 0 0 1-4-6.2q-1.2-3.7-1.2-12.4v-22.6q0-13-.7-14.5t-4.8-1.6zm-320.6.6q-.5 7-.5 14.5v26.3q0 14.6.7 16t5.2 1.6h3.4v2.8l-13.8-.3-13.7.3v-3h4q3 0 4-.7a4.8 4.8 0 0 0 1-3q.5-5.4.5-14V192q0-7.8-.3-14.2h-4.7q-11.3 0-12.5.5t-1.5 4.2l-.6 6.2h-3V183q0-3.4-.5-9.6l29.2.3 25.3-.3q-1 7.8-1 15h-3l-.4-6q-.4-3-1-3.7a3.5 3.5 0 0 0-2.2-.7q-5-.4-11.5-.4zm429.4 117.9q-.4 5.5-.4 11.6v21q0 11.7.6 13t4.2 1h2.8v2.4l-11-.3-11 .4V342h3q2.4 0 3.2-.5a3.8 3.8 0 0 0 1-2.5q.3-4.3.3-11v-21q0-6.3-.2-11.5H544q-9 0-10 .4t-1.2 3.2l-.5 5H530v-4.5q0-2.6-.4-7.6l23.4.4 20.4-.3q-.7 6.3-.8 12h-2.3l-.4-4.7a7 7 0 0 0-.7-3 2.8 2.8 0 0 0-1.8-.6q-4-.3-9.2-.3zm-365.1-78.8h-26.6l-3 7.4q-3.2 7.5-3.2 9a1.8 1.8 0 0 0 .6 1.6 7 7 0 0 0 3 .7l4.4.5v3q-4.4-.4-10-.4t-11.5.3v-3h1.3a10 10 0 0 0 4.2-.6 6.7 6.7 0 0 0 2-2.7q3.3-6.6 6.7-14.3l12.6-28.6q5-11.4 7-16.5h3l23.3 54a53.2 53.2 0 0 0 3.2 6.6 4.7 4.7 0 0 0 1.8 1.6 15 15 0 0 0 4.6.7v2.8q-6-.3-11.4-.3l-13.5.3v-3l4.6-.2a8.2 8.2 0 0 0 3-.5 1.5 1.5 0 0 0 .6-1.2 18.3 18.3 0 0 0-1.5-4.3zm-25-3.8h23.3L177 185.2zm460.4 3.8H601l-3 7.4q-2.8 7.5-2.8 9a2 2 0 0 0 .5 1.6 6 6 0 0 0 2.7.7l4 .5v3q-4-.4-9-.4t-11 .3v-3h1.4a8.7 8.7 0 0 0 4-.6 6.7 6.7 0 0 0 1.8-2.7q3-6.6 6.2-14.3l11.8-28.6q4.7-11.4 6.4-16.5h2.8l21.6 54a55 55 0 0 0 3 6.6 4.4 4.4 0 0 0 1.6 1.6 13 13 0 0 0 4.2.7v2.8q-5.6-.3-10.6-.3l-12.5.3v-3l4.3-.2a7 7 0 0 0 2.7-.5 1.6 1.6 0 0 0 .6-1.2 19.4 19.4 0 0 0-1.3-4.3zm-23-3.8H624l-10.7-27.7zM26.4 203l31.4 29.3 2.8 2.7a4.4 4.4 0 0 0 1.8 1 11.2 11.2 0 0 0 3 .4v3l-6.6-.4-6.5.3-31.8-30q-1.6-1.6-2-1.6t-1 1.8v14q0 10.3.4 11.2t5 1.7h3.4v3L13 239l-13 .3v-3h3.7q3.7 0 4.4-1.3t.8-11.7v-30.7q0-12.6-.7-14.2t-4.3-1.6H0v-3l12.2.4 14.2-.3v2.8h-3.6q-3 0-4 1a4.2 4.2 0 0 0-1 2.7q-.2 2-.2 12.2V205h.6q3.8-3 6.5-5.5t9-9l13-13.4v-3l8.4.2 7.7-.3v2.8H60a11.5 11.5 0 0 0-5.5 1.3q-2.3 1.4-10.6 9zm517.3 0l28.8 29.3 2.6 2.7a4 4 0 0 0 1.7 1 9.5 9.5 0 0 0 2.7.4v3l-6-.4-6 .3-29.2-30q-1.5-1.6-1.8-1.6t-1 1.8v14q0 10.3.5 11.2t4.5 1.7h3.3v3l-12.2-.4-12 .3v-3h3.4q3.4 0 4-1.3t.8-11.7v-30.7q0-12.6-.7-14.2t-4-1.6h-3.4v-3l11.2.4 13-.3v2.8h-3.4q-3 0-3.6 1a4.5 4.5 0 0 0-1 2.7q-.2 2-.2 12.2V205h.6q3.5-3 6-5.5t8.2-9l12-13.4v-3l7.7.2 7-.3v2.8H575a10 10 0 0 0-5 1.3q-2.2 1.4-10 9zM442.8 315.3l23.7 22 2.2 2a3.3 3.3 0 0 0 1.3 1h2.2v2.3l-5-.2-5 .2-23.8-22.7q-1.2-1.2-1.5-1.2t-.8 1.4v10.6q0 7.7.3 8.5t3.8 1.3h2.5v2.2l-10-.2-10 .2v-2.2h2.8q2.8 0 3.3-1t.5-8.8v-23.4q0-9.5-.6-10.7t-3.4-1.2h-2.8v-2.2l9.2.2 10.7-.2v2.2H440a5.7 5.7 0 0 0-3 .6 3.2 3.2 0 0 0-1 2.2v18.6h.4l5-4.3 6.6-6.8 10-10.2V293l6.2.3 5.8-.2v2.3h-2a8.7 8.7 0 0 0-4 1q-1.8 1-8 6.7zM73.4 180.2a3 3 0 0 0-.8-2.4l-2.8-2.5c-.2-.3-.7-.5-.7-.8a.5.5 0 0 1 .7-.5h14.8a.5.5 0 0 1 .6.5c0 .3-.4.5-.6.8l-2.8 2.5a3 3 0 0 0-.8 2.4v53a3 3 0 0 0 .8 2.3l2.8 2.5c.2.3.7.5.7.8a.5.5 0 0 1-.5.5h-15a.5.5 0 0 1-.5-.5c0-.3.5-.5.7-.8l2.8-2.5a3 3 0 0 0 .8-2.4zm237 0a3 3 0 0 0-.8-2.4l-2.8-2.5c-.2-.3-.7-.5-.7-.8a.5.5 0 0 1 .7-.5h14.8a.5.5 0 0 1 .6.5c0 .3-.4.5-.6.8l-2.8 2.5a3 3 0 0 0-.8 2.4v53a3 3 0 0 0 .8 2.3l2.8 2.5c.2.3.7.5.7.8a.5.5 0 0 1-.5.5h-15a.5.5 0 0 1-.5-.5c0-.3.5-.5.7-.8l2.8-2.5a3 3 0 0 0 .8-2.4zm20 119.8a2.2 2.2 0 0 0-.6-1.7l-2-1.8c0-.2-.5-.4-.5-.6a.4.4 0 0 1 .4-.5h10.6a.4.4 0 0 1 .4.4l-.5.5-2 1.8a2.2 2.2 0 0 0-.6 1.8v38a2.2 2.2 0 0 0 .6 1.7l2 1.8c0 .2.5.4.5.6a.4.4 0 0 1-.4.5h-10.6a.4.4 0 0 1-.4-.4l.5-.5 2-1.8a2.2 2.2 0 0 0 .6-1.7zm107.3-71c.3 3.2 1 8 4.7 9.3a17.5 17.5 0 0 0 5.4.8c.4 0 1 .2 1 .6s-.3.7-1.3.7l-15-.5s-2.5-.4-2.5-1 .2-.3.6-.5.5-1.6.3-3l-4.3-45.6-21.6 46c-1.7 3.7-2 4.5-2.8 4.5s-1-1-2.7-4-9.8-19.3-10.2-20.2-10.8-23-11.8-25.5l-3.6 41c-.2 1.5-.3 2.7-.3 4.2s1 3 2.4 3a13 13 0 0 0 3.2.4c.5 0 1 .3 1 .5s-.5.8-1.4.8c-3.2 0-7.7-.3-8.4-.3l-7.3.3c-.8 0-1.4 0-1.4-.7s.4-.5 1-.5a11.2 11.2 0 0 0 2.5-.2c3-.5 3.2-3.7 3.6-7.2L375 175c0-1 .3-1.8 1-1.8s.8.3 1.2 1.3l26.6 55 25.6-54.8c.3-.8.7-1.4 1.3-1.4s1 .7 1 2.4zm439.8-54.5h1.6V189h-1.6a14.5 14.5 0 0 0-4-9.4 12 12 0 0 0-9-3.4 11 11 0 0 0-7.5 2.5 8.5 8.5 0 0 0-3 6.7 11.6 11.6 0 0 0 2.4 7q2.4 3.3 10.3 8.3T879 211a16.5 16.5 0 0 1 3.3 10 17.4 17.4 0 0 1-4.8 12.3 15.4 15.4 0 0 1-11.7 5 30 30 0 0 1-10-2.2 13 13 0 0 0-3.3-.8q-1.4 0-2.2 2.4h-1.7V221h1.7q0 7 4.2 11a13.4 13.4 0 0 0 9.7 4 12 12 0 0 0 8.5-3 10.5 10.5 0 0 0 3.2-8 11.6 11.6 0 0 0-2.7-7q-2.6-3.4-11-8.8-6.7-4.4-9-7a17 17 0 0 1-3.4-5.6 20 20 0 0 1-1.2-6.7 15.6 15.6 0 0 1 4.4-11.6 15.4 15.4 0 0 1 11.4-4.4 25 25 0 0 1 8.4 1.6 11 11 0 0 0 3 .7 1 1 0 0 0 1-.3 4.6 4.6 0 0 0 .5-1.5zM304.2 288.2h1.5v12.5H304a12.3 12.3 0 0 0-3.6-8 11 11 0 0 0-8-3 10 10 0 0 0-6.7 2.2 7.2 7.2 0 0 0-2.6 5.7 9.8 9.8 0 0 0 2.2 6q2 3 9.2 7.2t11 8.7a14 14 0 0 1 3 8.6A14.8 14.8 0 0 1 304 339a14 14 0 0 1-10.5 4.4 27.8 27.8 0 0 1-9-2 12 12 0 0 0-3-.8q-1.2 0-2 2H278v-14.2h1.8a12.7 12.7 0 0 0 3.8 9.5 12.2 12.2 0 0 0 8.7 3.5 11 11 0 0 0 7.6-2.6 9 9 0 0 0 2.8-7 9.8 9.8 0 0 0-2.3-6.2q-2.3-3-9.8-7.6t-8-6a14.7 14.7 0 0 1-3-5 16.8 16.8 0 0 1-1-5.8 13.2 13.2 0 0 1 3.8-10 14 14 0 0 1 10.2-3.7 23.3 23.3 0 0 1 7.5 1.4 10 10 0 0 0 2.7.7 1 1 0 0 0 .7-.3 4 4 0 0 0 .5-1.2zm348.4-49.8V234h6.5v-56.4h-6.4v-4.3h27.2q15.8 0 24.4 8.2t8.6 23.2q0 15.6-8.4 24.7t-23 9zm15.7-5h6.4q8.7 0 13.4-1.5a18.6 18.6 0 0 0 8.3-6q6.7-7.7 6.7-21 0-27.5-28.3-27.5h-6.4zm54.2 5V234h6.5v-56.4h-6.5v-4.3h27.3q15.8 0 24.4 8.2t8.6 23.2q0 15.6-8.4 24.7t-23 9zm15.7-5h6.4q8.7 0 13.4-1.5a18.6 18.6 0 0 0 8.2-6q6.7-7.7 6.7-21 0-27.5-28.4-27.5h-6.4zm100 5h-44.8V234h6.5v-56.4h-6.6v-4.3h43V184h-5v-6.4h-22.2v25H825V197h4.3v15.3H825v-5.5h-16v26.8h24v-7h5zM516 343.2h-31.6V340h4.6v-44h-4.6v-3.4h30.4v8.4h-3.5v-5h-15.8v19.3h11V311h3.2v12h-3v-4.3h-11.2v20.7h17V334h3.6zM259.8 218.8q0 9.3-6.5 14t-16.6 4.3l-5.6-.2-7-.3a33.5 33.5 0 0 0-7 .6q-1.7.5-2-1t2-2a9.7 9.7 0 0 0 3-2.2 6 6 0 0 0 1.2-4v-45.3q0-4.6-5-5.7-2.3-.5-2.3-1.7t.6-1.6a4.6 4.6 0 0 1 2 0 47.6 47.6 0 0 0 6.3.3h14.4q8 0 12.8 3.4t5.2 11.3q0 10-10.8 13.7-1.2.4 0 .7 15.2 2.6 15.2 16zm-13.3-30q0-6.3-3-9.2t-9.2-2.8q-5 0-5.5 1.6a4.7 4.7 0 0 0 0 1v21h3.7q7.3 0 10.6-2.7t3.5-8.8zm4.3 31q0-8-5-12t-10.7-3.5a30.8 30.8 0 0 0-6.2.5v24q0 4.5 8.7 4.5 13.4.2 13.4-13.4z"/><circle cx="77" cy="163.8" r="5.3"/><circle cx="332.2" cy="287.7" r="3.5"/><path d="M594.7 300a2.2 2.2 0 0 0-.6-1.7l-2-1.8c0-.2-.4-.4-.4-.6a.4.4 0 0 1 .4-.5h10.6a.4.4 0 0 1 .4.4l-.5.5-2 1.8a2.2 2.2 0 0 0-.6 1.8v38a2.2 2.2 0 0 0 .5 1.7l2 1.8c0 .2.5.4.5.6a.4.4 0 0 1-.4.5H592a.4.4 0 0 1-.4-.4l.5-.5 2-1.8a2.2 2.2 0 0 0 .7-1.7z"/><circle cx="596.5" cy="287.7" r="3.5"/><path d="M270 210.2h23.2v6H270zm103.4 110.3V333a22.7 22.7 0 0 0 .2 4 4.4 4.4 0 0 0 .7 1.8 3.4 3.4 0 0 0 1.3 1l2.7 1v1.7h-17.7v-1.8a9.3 9.3 0 0 0 3.5-1.3 3.4 3.4 0 0 0 1.3-2 22 22 0 0 0 .3-4.2v-32a23.3 23.3 0 0 0-.2-3.7 4.3 4.3 0 0 0-.7-1.8 3.5 3.5 0 0 0-1.3-1l-2.7-1V292h21q9.8 0 14.7 3t5 10a12.5 12.5 0 0 1-3.3 8.5q-3 3.6-9.5 5.6v.4a12.6 12.6 0 0 1 4.4 2.6 26.7 26.7 0 0 1 4 5.4l3.8 6a36 36 0 0 0 2.8 4.2 10 10 0 0 0 2.4 2 8.7 8.7 0 0 0 3.2 1v2h-11.8a43.4 43.4 0 0 1-3-4.3l-2.8-4.6-3.7-6.2a38.8 38.8 0 0 0-3-4.2 8 8 0 0 0-2-2 6 6 0 0 0-1.8-.6l-3-.2zm0-25.2v22h4.8a30.8 30.8 0 0 0 6-.5 11.7 11.7 0 0 0 4-1.8 9.2 9.2 0 0 0 3.2-3.6 12.6 12.6 0 0 0 1.2-5.7 11.4 11.4 0 0 0-1.4-6 8.7 8.7 0 0 0-4.2-3.5 19 19 0 0 0-7.5-1.2z"/><path fill="#888" d="M9 320h254v6.5H9zm615.6 0h254v6.5h-254z"/></svg>
