<svg xmlns="http://www.w3.org/2000/svg" viewBox="0 0 1200 600"><g><path fill="#313580" d="M576.2 172.3c.1.4.1.7.1 1 0 1.2-.7 2-2.2 2.4-.1 0-1.5.3-4.3.7-7.3 1-14.8 1.9-22.5 2.5-3.3 7-7.3 18.2-12 33.9-4.4 14.3-7.6 26.2-9.6 35.7-.7 3.1-1.7 4.6-3.1 4.6-.9 0-2.6-.5-5.3-1.4-.9-.3-1.5-.8-1.5-1.7.1.8.1-.4.1-3.8 0-6.1 1-11.6 2.9-16.6.7-1.9 1.6-2.8 2.5-2.8.2 0 .7.1 1.5.3.7.2 1.3.3 1.8.3 1.1-4.2 3.7-12.5 7.9-24.9 4.7-14 7.2-21.7 7.7-23-6.3.5-12.7 1.5-19 3-7 1.7-11.7 3.6-13.8 5.5-2.5 2.2-3.7 4.4-3.7 6.6 0 2.3 1.4 6 4.1 11 .3.5.4 1 .4 1.5 0 1-.5 1.5-1.4 1.5-.7 0-1.3-.4-1.8-1.2-3.3-4.7-5.4-8.3-6.4-10.9-.7-1.8-1.2-4.4-1.5-7.8-.5-5 3.7-8.7 12.4-11.1 11.4-3.1 22.8-5.1 34.4-6.2 1.3-2.7 2.3-4 2.9-4 .9 0 2.6 1 4.8 3.1 1.1 0 4.4-.4 9.9-1.2 1-.2 2-.9 3-2.2.9-1.2 3.1-1.9 6.5-2 1.9-.1 3.1.6 3.8 2.1.2.3.7 1.9 1.4 5.1zM610.7 155.2c.5.4.8.9.8 1.4 0 .7-.5 1.1-1.4 1.1-.4 0-.8-.1-1.3-.4-1.9-.9-3.3-1.4-4.3-1.4-2.5 0-5.3 2.5-8.4 7.5-10.9 17.7-18.9 40.9-24.2 69.6 6.7-12.9 14.4-23.2 23-30.9 1.9-1.6 3.2-2.5 4.1-2.5.2 0 1.3.6 3.1 1.7 2.2.9 3.4 1.5 3.7 1.7 1.1.9 1.6 2.6 1.6 4.9 0 .7 0 1.4-.1 2.2-.7 7.3-2.8 16.2-6.3 26.6 1.3-1.7 3.3-4.3 6.1-7.6.7-.7 1.2-1.1 1.7-1.1s.7.3.7.8c0 .6-.3 1.3-.8 2.1-2.4 3.5-5.6 8.5-9.5 15.2-.3.7-1.1 2.4-2.4 5.2-.5 1.3-1.3 2-2.2 2-1.1 0-2.6-.7-4.6-2.2-.8-.6-1-1.5-.4-2.7 7.1-17.8 10.8-31.1 11.2-39.9.1-2.5-.2-3.8-1.1-3.8-.5 0-1.7.7-3.4 2.1-3.2 2.6-7.1 7.1-11.7 13.6-6.1 8.6-10.8 17.3-14.1 26.3-.9 2.6-1.8 3.8-2.5 3.8s-2.1-.8-4.1-2.5c-1-.9-1.4-2.3-1.1-4.3 4.8-26.2 11-48.5 18.7-67 5.7-13.8 10.8-22.8 15.4-27.1 1.2-1.1 2.3-1.6 3.4-1.6 1.2 0 2.6.7 4.4 2 1.8 1.8 3.9 3.5 6 5.2zM646.4 233.5c-10 12.8-17.1 19.2-21.1 19.2-1.9 0-4.4-1.3-7.4-4-3.1-1.4-4.6-3.4-4.6-5.8 0-.5 0-.9.1-1.4.7-5.6 2.2-11.9 4.5-18.7-1.5-.8-2.3-1.5-2.3-2.2 0-.6.4-.9 1.3-.9.7 0 1.3.2 2 .6 3.7-8.2 7-14.1 9.9-17.5 1.9-2.3 3.6-3.5 5.1-3.5.7 0 2.4.6 5.2 1.8-.2-1.2.1-2 1.1-2.2h2.9c1.8 0 2.7.3 2.7.9 0 .1-.1.5-.2 1.1-.1.6-.2 1.1-.2 1.6 0 1.5 0 3.3.1 5.5 0 2.2.1 3.6.1 4.4 0 5.1-1.4 8.7-4.2 10.7-2.6 1.9-5.4 2.8-8.7 2.8-1.7 0-4.5-.5-8.4-1.4-.7 1.3-1.5 3.8-2.3 7.5-1.2 4.7-1.7 8.9-1.6 12.5 0 2.1.7 3.2 2 3.2.5 0 1.1-.1 1.9-.4 4.8-1.7 11.4-6.8 20-15.4.5-.5 1.1-.8 1.6-.8.8 0 1.2.4 1.2 1.1 0 .3-.3.8-.7 1.3zm-7.2-27.3c0-1.6-.4-2.4-1.1-2.4-.5 0-1.1.3-2 1-4 3.3-7.6 9-10.6 17.1.8.1 2.3.2 4.3.4 3.3.1 5.8-.6 7.5-2.3 1.2-1.2 1.9-3.3 2-6.1 0 2.1-.1-.5-.1-7.7zM749.7 179.1c-.6 10.7-4.3 19.5-11.2 26.3-1.5 1.5-3.6 2.9-6.1 4.1-2.3 1.2-4.2 1.8-5.7 1.9 9.8 6.1 16.5 11.5 20 16.2 1.5 2.1 2.3 4 2.3 5.7 0 2.4-1.6 5.7-4.7 9.7.4.7.6 1.4.6 2 0 5.1-9.4 7.6-28.1 7.6-3.9 0-8.1-.1-12.7-.4-4.6-.3-7-1.3-7.3-3.1-.3-1.6 0-3.9 1-6.7.5-1.4 1.3-2 2.5-2-.5 0 .9.2 4.1.6.9.1 1.9 1 2.9 2.6s2.7 2.6 5.2 2.8c1.6.2 3.4.2 5.4.2 8.8 0 15.6-1.1 20.4-3.3 2.4-1.1 3.6-2.7 3.6-4.8 0-2.5-1.4-5.3-4.2-8.2-1.8-1.9-5.4-4.9-10.8-8.8-5.9-4.2-10-6.7-12.2-7.4-4.1 0-6.2-.8-6.2-2.3 0-.5 1.8-2.2 5.4-5.1.9-.7 1.7-1 2.5-1s1.8.3 2.9 1c1 .5 2 1.1 2.9 1.7 4-.2 7.8-2.5 11.4-6.7 1.9-2.3 3.8-5.7 5.6-10.1 2.1-5 3.1-9.2 3.1-12.7 0-2.3-.7-3.8-2.1-4.4-.9-.4-2.5-.5-5-.4-1.6.1-4.4.6-8.2 1.5-4.4 1-7.6 2-9.8 3-3.5 12.8-8.1 26.7-13.8 41.6-5.1 13.6-8.6 21.9-10.5 24.8-1.2 1.9-2.1 3-2.7 3.3-.7.5-2.6 1-5.5 1.6-2 .4-3 .2-3-.4 0-.3.1-.8.3-1.4 2.3-6.6 3.5-11.5 3.5-14.6 0-2.1.2-3.2.6-3.5.2-.1 1.9-.8 5.2-1.9 1.1-.4 1.8.1 2.1 1.4 3.7-7.5 7.2-16.4 10.7-26.8 3-8.9 4.9-15.9 5.9-20.9-11 4.7-18.5 9.6-22.6 14.8-1 1.4-1.5 2.9-1.5 4.5 0 1 .3 2.8.9 5.3.1.6.2 1.1.2 1.4 0 .8-.3 1.2-.8 1.2-.7 0-1.5-.5-2.3-1.4-4.1-4.9-6.2-8.5-6.2-11 0-.9.7-2.2 2.1-4 2.7-3.3 7.4-7 14.1-11.2 6.5-4.1 12.5-7.1 17.9-9.1.4-2.8.6-4.5.4-5.2-.2-1.2.1-1.7 1-1.7.5 0 1 .3 1.6.9 1.8 1.8 2.6 3.1 2.3 3.9 9-2.6 15.2-3.9 18.6-3.8 2.5.1 4.4.8 5.9 2.1.9.9 2.1 2.7 3.6 5.4 1.3-.1 2.3.2 3 .9 1.2 1.2 1.6 2.5 1.5 4.3zM773.4 209.1c-1 5.6-3.6 14.8-7.7 27.7 1.2-1.1 2.8-3 4.9-5.9.3-.4.6-.6.9-.6.7 0 .7.6.2 1.7-.2.5-1.9 3.3-5.2 8.5-2.5 4-4.3 7.5-5.4 10.5-.4.9-1.1 1.4-2 1.4s-2.3-.5-4-1.4c-1.1-.6-1.6-1-1.6-1.3 0-.2.2-.8.7-1.6 2.2-3.9 4.7-10.5 7.4-19.6 2.6-8.9 4.1-15.5 4.4-19.8.1-1.9-.1-2.8-.6-2.8-.4 0-1 .5-2 1.4l-3.8 3.6c-1.4 1.2-2 1.3-2 .2 0-.3.2-.7.6-1.2 1.9-2.7 4-5.3 6.2-7.7.7-.7 1.3-1.1 1.9-1.1.7 0 1.6.5 2.9 1.4 1.9.5 2.9.8 3.2.9.9.6 1.4 1.6 1.4 3.2-.1.7-.2 1.6-.4 2.5zm8.7-27.1c.7.5 1 1.1 1 1.7 0 1.2-1.8 3-5.3 5.6-2.3 1.6-4.6 2.2-6.8 1.7-1.2-.2-2.3-.7-3.2-1.4-.3-.2-.5-.5-.6-.8-.1-.3-.2-.5-.1-.6.1-.2.4-.2.7-.1 3.8-3.3 6.3-5.7 7.5-7.1.9-1.1 1.6-1.6 2-1.6.7 0 2.4.9 4.8 2.6zM829.5 155.2c.5.4.7.8.7 1.2 0 .8-.5 1.2-1.5 1.2-.4 0-.8-.1-1.2-.4-1.9-1-3.3-1.5-4.3-1.5-2.6 0-5.4 2.5-8.5 7.6-11.1 18-19.2 41.6-24.2 70.9 4.3-7.2 7.5-12.4 9.6-15.4 4.3-6.2 8.7-11.3 13.3-15.5 2.2-2 4.2-3 6-3 .9 0 2.3.6 4.3 1.7 3.7 1.7 5.3 4.3 5 7.8-.7 8-2.7 15.8-6 23.5-3.2 7.5-7 13.4-11.4 17.7-1.2 1.2-2.5 1.8-3.8 1.8-2.7 0-6.4-3-11.1-9.1-.5-.7-.8-1.3-.8-1.8 0-.6.3-.9 1-.9s1.4.3 2 .9c2.4 2.1 4.5 3.1 6.2 3.1 1.7 0 3.3-1 4.9-3 2.8-3.6 5.4-8.5 7.7-14.8 2.6-7 4-13.3 4-18.8 0-2.1-.7-3.2-2.2-3.2-.8 0-1.8.4-2.8 1.3-5.1 4.4-10.2 10.6-15.4 18.7-5.5 8.6-9.5 16.9-12 24.9-.5 1.5-1 2.3-1.7 2.3-.3 0-.8-.2-1.3-.6-2.1-1.4-3.3-2.2-3.6-2.5-.8-.8-1.2-1.9-1.2-3.2 0-.7.1-1.5.3-2.4 4.8-26.2 11-48.6 18.5-67 5.7-13.9 10.8-22.9 15.3-27.1 1.2-1.1 2.3-1.7 3.5-1.7 1.2 0 2.6.7 4.4 2 2.1 1.9 4.2 3.6 6.3 5.3zM882.3 155.2c.5.4.8.8.8 1.3 0 .8-.5 1.2-1.4 1.2-.4 0-.8-.1-1.3-.4-1.9-.9-3.3-1.4-4.3-1.4-2.6 0-5.4 2.5-8.5 7.5-11.2 18.2-19.2 41.8-23.9 70.7-.1.8-.3 1.8-.6 3.2.9-1 2.3-2.6 4.2-4.8 1.1-1.3 1.9-1.9 2.3-1.9 1.1 0 1.2.6.2 1.9-4 5.6-6.6 11.6-7.8 17.7-.5 1.5-1 2.3-1.7 2.3-.3 0-.8-.2-1.3-.6-2.1-1.4-3.3-2.2-3.6-2.5-.8-.8-1.2-1.9-1.2-3.2 0-.7.1-1.5.3-2.4 4.8-26.2 10.9-48.6 18.5-67 5.7-13.9 10.8-22.9 15.3-27.1 1.2-1.2 2.5-1.7 3.7-1.7 1.1 0 2.6.7 4.3 2.1 2 1.8 4 3.4 6 5.1zM889.3 233.5c-10 12.8-17.1 19.2-21.1 19.2-1.9 0-4.4-1.3-7.4-4-3.1-1.4-4.6-3.4-4.6-5.8 0-.5 0-.9.1-1.4.7-5.6 2.2-11.9 4.5-18.7-1.5-.8-2.3-1.5-2.3-2.2 0-.6.4-.9 1.3-.9.7 0 1.3.2 2 .6 3.7-8.2 7-14.1 9.9-17.5 1.9-2.3 3.6-3.5 5.1-3.5.7 0 2.4.6 5.2 1.8-.2-1.2.1-2 1.1-2.2h2.9c1.8 0 2.7.3 2.7.9 0 .1-.1.5-.2 1.1-.1.6-.2 1.1-.2 1.6 0 1.5 0 3.3.1 5.5 0 2.2.1 3.6.1 4.4 0 5.1-1.4 8.7-4.2 10.7-2.6 1.9-5.4 2.8-8.7 2.8-1.7 0-4.5-.5-8.4-1.4-.7 1.3-1.5 3.8-2.3 7.5-1.2 4.7-1.7 8.9-1.6 12.5 0 2.1.7 3.2 2 3.2.5 0 1.1-.1 1.9-.4 4.8-1.7 11.4-6.8 20-15.4.5-.5 1.1-.8 1.6-.8.8 0 1.2.4 1.2 1.1-.1.3-.3.8-.7 1.3zm-7.3-27.3c0-1.6-.4-2.4-1.1-2.4-.5 0-1.1.3-2 1-4 3.3-7.6 9-10.6 17.1.8.1 2.3.2 4.3.4 3.3.1 5.8-.6 7.5-2.3 1.2-1.2 1.9-3.3 2-6.1 0 2.1-.1-.5-.1-7.7zM548.4 384.3c0 7.5-3.8 13.4-11.4 18-2.2 3.4-5 5.1-8.5 5.1-6.1-.1-13-2.8-20.5-8.2-6.5-4.6-10.9-9.1-13.4-13.3-2.3-4-3.5-6.5-3.5-7.5 0-1.3.9-2.7 2.8-4.3 1.7-1.5 3.1-2.3 4.1-2.3.9 0 1.4.6 1.4 1.9 0 .5-.1 1.2-.3 2 2.2 5.9 6.8 11.5 13.8 16.6 7 5.1 13.4 7.6 19.2 7.6 5.1 0 7.6-3.5 7.6-10.4 0-3.8-3-11.4-8.9-22.7-5.9-11.3-8.9-19.5-8.9-24.4 0-3.2.9-6.1 2.7-8.6 1.5-2.1 4.2-4.6 8-7.5.7-.5 1.4-.8 2.1-.8 1.1 0 1.7.5 1.7 1.4 0 .7-.4 1.3-1.1 2-3.2 3-4.8 6.7-4.8 11 0 4.8 3 12.8 8.9 23.9s9 17.7 9 20.5zm18.5-56.8c-1.6 5.6-3.8 10.5-6.5 14.7-1.2 1.9-2.4 2.8-3.5 2.8s-2.9-.9-5.6-2.7c-.8-.5-1.2-1.1-1.2-1.7 0-.9.7-1.5 2.2-1.9 1.1-.3 2.3-2.2 3.6-5.6 1.3-3.3 1.9-5.8 1.9-7.7 0-1.9-.8-2.9-2.3-2.9-.5 0-1.2.1-2 .2-1.6.2-5.1 1.3-10.4 3.3-.6.2-1.2.3-1.7.3-1.2 0-1.9-.4-1.9-1.2 0-.8.6-1.5 1.9-2.1 4.6-2.3 9.2-4.2 13.7-5.8 1.4-.5 2.5-.8 3.1-.8.9 0 2.2 1.3 3.7 4 2.3.7 3.7 1.2 4.3 1.5.9.5 1.4 1.4 1.4 2.5-.2.9-.4 1.9-.7 3.1zM598.4 363.9c-.1 3.7-1 8.5-2.7 14.6-2.7 9.6-6.5 17-11.4 22.2-2.6 2.8-5.5 4.2-8.7 4.2-1.2 0-2.8-.3-4.8-.8-3.9-.2-7-1.5-9.5-3.6-2.6-2.4-3.9-5.5-3.7-9.2.2-4.4 1.7-10.5 4.5-18.3 3.1-8.5 6.4-14.7 9.8-18.4 1.6-1.8 2.9-2.7 4-2.7 1.4 0 3.7 1.4 6.8 4.3.9-.4 2.6-1.2 5.3-2.3 1.4-.5 2.4-.7 3.1-.7 1.6 0 3.4 1.5 5.4 4.5 1.4 1.8 1.9 3.9 1.9 6.2zm-7.1 1.8c.3-2.8.4-4.5.4-5.3 0-1.7-.5-2.6-1.6-2.6-.4 0-.9.1-1.6.2l-9.6 3.9c-1.1.5-1.8.7-1.9.7-.3 0-.7-.4-1-1.2-2.4 2.9-4.6 7.1-6.7 12.7-1.6 4.3-2.7 8.2-3.3 11.6-.5 2.3-.7 4.4-.7 6.3 0 6.3 2 9.4 5.9 9.3 1.6 0 3.3-.7 5.1-1.9 3.5-2.3 6.7-7 9.7-14.1 2.8-6.6 4.6-13.1 5.3-19.6zM636.4 357.4c0 6.4-.9 11.5-2.7 15.4-.7 1.6-1.9 2-3.5 1.1-2.3-1.3-3.5-2.3-3.5-3.2 0-.4.3-.8.8-1.2 1.4-4 2-7 1.9-9.2-.1-1.9-1-2.8-2.8-2.8-.2 0-.5-.1-.9-.2s-.7-.2-1-.2c-1.4 0-3.2 1.4-5.3 4.1-2.3 3-4.5 7.3-6.6 12.7-1.7 4.5-2.9 8.3-3.5 11.6-.5 2.3-.7 4.4-.7 6.3 0 6.3 2 9.4 6 9.3 3.5-.1 8.6-4.5 15.4-13.2.7-.8 1.3-1.2 1.8-1.2s.8.3.8 1c0 .3-.1.7-.3 1.2-2.2 5.4-5 10.1-8.6 14.2-.9 1-2.4 1.5-4.6 1.5-1.3 0-2.9-.3-4.8-.8-3.8-.2-6.8-1.5-9.1-3.6-2.4-2.3-3.6-5.4-3.4-9.2.2-4.4 1.7-10.4 4.6-18.2 3.1-8.4 6.3-14.5 9.7-18.3 1.6-1.7 2.9-2.6 4-2.6s3.2.9 6.3 2.7c1.7-.6 3.4-.9 5-.9 3.3.3 5 1.4 5 3.7zM657.4 361c-1 5.6-3.6 14.8-7.7 27.7 1.2-1.1 2.8-3 4.9-5.9.3-.4.6-.6.9-.6.7 0 .7.6.2 1.7-.2.5-1.9 3.3-5.2 8.5-2.5 4-4.3 7.5-5.4 10.5-.4.9-1.1 1.4-2 1.4s-2.3-.5-4-1.4c-1.1-.6-1.6-1-1.6-1.3 0-.2.2-.8.7-1.6 2.2-3.9 4.7-10.5 7.4-19.6 2.6-8.9 4.1-15.5 4.4-19.8.1-1.9-.1-2.8-.6-2.8-.4 0-1 .5-2 1.4l-3.8 3.6c-1.4 1.2-2 1.3-2 .2 0-.3.2-.7.6-1.2 1.9-2.7 4-5.3 6.2-7.7.7-.7 1.3-1.1 1.9-1.1.7 0 1.6.5 2.9 1.4 1.9.5 2.9.8 3.2.9.9.6 1.4 1.6 1.4 3.2-.2.7-.3 1.5-.4 2.5zm8.7-27.1c.7.5 1 1 1 1.7 0 1.2-1.8 3-5.3 5.6-2.3 1.6-4.6 2.2-6.8 1.7-1.2-.2-2.3-.7-3.2-1.4-.3-.2-.5-.5-.6-.8-.1-.3-.2-.5-.1-.6.1-.2.4-.2.7-.1 3.8-3.3 6.3-5.7 7.5-7.1.9-1.1 1.6-1.6 2-1.6.7-.1 2.3.8 4.8 2.6zM696.2 385.4c-10 12.8-17.1 19.2-21.1 19.2-1.9 0-4.4-1.3-7.4-4-3.1-1.4-4.6-3.4-4.6-5.8 0-.5 0-.9.1-1.4.7-5.6 2.2-11.9 4.5-18.7-1.5-.8-2.3-1.5-2.3-2.2 0-.6.4-.9 1.3-.9.7 0 1.3.2 2 .6 3.7-8.2 7-14.1 9.9-17.5 1.9-2.3 3.6-3.5 5.1-3.5.7 0 2.4.6 5.2 1.8-.2-1.2.1-2 1.1-2.2h2.9c1.8 0 2.7.3 2.7.9 0 .1-.1.5-.2 1.1-.1.6-.2 1.1-.2 1.6 0 1.5 0 3.3.1 5.5 0 2.2.1 3.6.1 4.4 0 5.1-1.4 8.7-4.2 10.7-2.6 1.9-5.4 2.8-8.7 2.8-1.7 0-4.5-.5-8.4-1.4-.7 1.3-1.5 3.8-2.3 7.5-1.2 4.7-1.7 8.9-1.6 12.5 0 2.1.7 3.2 2 3.2.5 0 1.1-.1 1.9-.4 4.8-1.7 11.4-6.8 20-15.4.5-.5 1.1-.8 1.6-.8.8 0 1.2.4 1.2 1.1-.1.3-.3.8-.7 1.3zm-7.3-27.3c0-1.6-.4-2.4-1.1-2.4-.5 0-1.1.3-2 1-4 3.3-7.6 9-10.6 17.1.8.1 2.3.2 4.3.4 3.3.1 5.8-.6 7.5-2.3 1.2-1.2 1.9-3.3 2-6.1 0 2-.1-.5-.1-7.7zM736 324.1c1.2.6 1.7 1.3 1.7 2.1 0 .5-.4.8-1.2.8-.2 0-.4 0-.8-.1s-.6-.1-.8-.1c-1.6 0-3.5 1.7-5.7 5.1-2 3-4.7 9.7-8.2 19.9-.3.9-.5 1.4-.4 1.6.1.3.7.5 1.6.5 2.4.2 5.7.1 9.8-.2 1.4-.1 2.1.5 2.1 1.8 0 .9-.5 1.5-1.6 1.7-.9.1-5.4.5-13.7 1.1-4.9 14.5-8 26.7-9 36.7 0 .5-.1 1-.1 1.4 0 1.4.3 2.1 1.1 2.1 1.1 0 4.5-2.7 10.1-8.1.7-.7 1.3-1 1.9-1 .5 0 .9.2 1 .7.1.5-.1 1.1-.6 1.7-3.3 4.4-6.6 8.2-9.8 11.2-1.4 1.3-2.5 1.9-3.4 1.9s-2.3-.7-4.2-2.2c-2.3-.6-3.5-1.9-3.5-3.7 0-.3 0-.6.1-1 1.5-10.6 4.5-23.7 9-39.2-2.2-.3-4.2-.6-5.9-.9-.8-.1-1.2-.6-1.2-1.5s.4-1.5 1.2-1.7 2.3-.7 4.6-1.4c1.4-.5 2.7-1.1 4-1.9 4.4-13.6 7.9-22.5 10.4-26.5 1.4-2.3 3-3.5 4.6-3.5 1.6.3 3.9 1.1 6.9 2.7z"/><path fill="#313580" d="M776 360.2c-5.7 26.4-11.1 46.2-16.1 59.3-9.7 25.5-20.9 38.2-33.5 38.2-7.4 0-15.3-4-23.8-12-.7-.7-1.1-1.4-1.1-2.2 0-1.2.6-1.9 1.7-1.9.6 0 1.1.2 1.7.7 6.7 5.7 12.7 8.6 18 8.6 9.7 0 18.5-8.1 26.4-24.2 6.2-12.6 11.6-29.6 16.3-50.9.3-1.5.8-3.9 1.4-7-4.3 7-9.2 14-14.5 20.8-5.1 6.6-9.2 11.1-12.2 13.6-1.6 1.4-3 2-4 2-.8 0-1.6-.4-2.4-1.3l-2.7-3.3c-.4-.5-.6-.9-.6-1.4v-.1c.1-.5.5-.8 1.1-1.1 2-2.7 3.8-8.5 5.6-17.4 1.3-7 2.2-13.7 2.7-20 .1-1.5-.1-2.2-.6-2.2-.1 0-1.1.7-2.9 2.2-2.9 2.4-4.4 3.6-4.7 3.6-.6 0-.9-.3-.9-.9 0-.3.1-.6.4-.9.7-.9 2.3-3 4.7-6.5 2.2-3.1 3.6-4.6 4.4-4.6.6 0 1.4.2 2.3.7 2.1-.3 3.3-.5 3.5-.5 1.4 0 2.1 1.1 2.1 3.2 0 3.6-1 10.6-3.1 21s-3.7 17.2-5.1 20.2c4.1-3.3 9.5-9.6 16.1-19.2 6.4-9.3 10.4-16.3 12-20.9.1-2.8.7-4.1 1.8-4.1.9 0 2.5.9 4.8 2.7 1.4 1.2 1.8 3.1 1.2 5.8zM881.5 332.3c-1.5 12.9-5.7 26.8-12.8 42-9.2 19.9-19.3 30-30.5 30.5-2.1.1-4.2-.1-6.1-.5-2.2-.4-3.2-1-2.9-1.7-6.8-1.6-11.4-3.6-14-5.7-3.6-3-5.3-7.6-5.1-13.9.4-11.9 4-24.7 10.7-38.4 5.4-11 10.6-18.7 15.6-23.4 2.1-1.9 4-2.9 5.8-2.9 1.8 0 3.6.5 5.4 1.5.7.4 3.1 1.9 7 4.6 3.2-3.5 6-6 8.2-7.6 1.4-.9 2.8-1.4 4.2-1.4 2.4 0 4.6 1.2 6.5 3.6 3.4.2 5.6.7 6.6 1.4 1.2.8 1.8 2.4 1.8 4.9.1 1.5 0 3.8-.4 7zm-8.2-5.1c.2-3.1-.5-4.6-2.2-4.6-1.3 0-3.3.9-5.9 2.8-5.9 4.1-13.1 10.1-21.5 18-.9.9-1.8 1.4-2.5 1.4-.7.1-1-.2-1-.9s.3-1.4.9-2.3c3.6-5.6 7.2-10.5 11-14.6-2.1-1.6-4.1-2.4-5.7-2.4-1 0-1.9.3-2.7.9-4.6 3.3-9.7 10.7-15.5 22.2-6.9 13.6-10.1 25.4-9.6 35.7.2 4.2 1 7.3 2.4 9.5 1.2 1.9 3.4 3.6 6.6 5.2 2.5 1.3 5 1.8 7.4 1.5 8.4-.9 16.7-9.5 25-25.8 7.7-15.6 12.2-31.1 13.3-46.6zM930.6 310.2c.6.5.9.9.9 1.5 0 .8-.5 1.2-1.5 1.2-.5 0-.9-.1-1.3-.3-2.3-1.3-4.4-1.9-6.2-1.9-1.4 0-2.6.3-3.6 1-4.1 2.6-10.6 16.4-19.6 41.3 6.7 1 10.9 1.5 12.7 1.5.9 0 1.4.4 1.4 1.1 0 .8-.5 1.3-1.4 1.5-4.8.9-9.7 1.5-14.7 1.7-5.6 16.7-10.1 32.2-13.2 46.5-2.6 11.6-3.8 19.8-3.8 24.8 0 .4.1 1 .2 1.9.1.8.2 1.5.2 1.9 0 .7-.2 1-.7 1-.6 0-2.1-.7-4.4-2.1-2.8-1.6-4-3.5-3.6-5.7 3.5-18.3 9.5-41 18.2-68.2-3.2.2-5.1.3-5.8.2-.9-.1-1.5-.5-1.8-1.2-.5-1.1-.7-1.7-.7-1.9 0-.6.7-1.1 2-1.4 1.9-.5 3.8-.9 5.7-1.3 1.7-.5 2.7-1.2 3-2 6.6-19.2 11.8-32.3 15.6-39.3 3.1-5.8 6.1-8.7 9-8.7 2.6.1 7.1 2.4 13.4 6.9zM983.9 339.7c-1.4 12-5.2 25.3-11.4 40-7.2 17.3-14.2 26.1-20.9 26.1-4.1 0-9-2.1-14.9-6.5-.5-.4-.7-.8-.7-1.4 0-1.4.7-2.2 2-2.2.3 0 .7.1 1 .2 3.5 1.8 6.6 2.7 9.1 2.8 5.5.2 11.5-8 18.1-24.4 6.3-15.9 9.7-30.1 10.1-42.6.1-4.1-1.9-6.1-6.1-6.1-.7 0-1.4.1-2.2.2-3.2.5-6.9 3-10.9 7.7-4.5 5.2-7.7 11.1-9.6 17.7-.2.9-.4 1.7-.4 2.5 0 1.5.5 2.9 1.5 4.2l2.8 2.8c.5.5.7.9.7 1.2 0 .8-.6 1.2-1.9 1.2-.5 0-.9-.1-1.2-.2-3.5-2.1-6-3.8-7.3-5.1-1.6-1.6-2.3-3.4-2.3-5.5 0-1.9.7-4.6 2.2-8 2.1-5 5.3-9.9 9.6-14.6 4-4.6 7.7-7.5 10.9-8.9 1.5-.7 4.5-.3 9.1 1.1.3-.4.7-.6 1.3-.6 1.6 0 4.8 1.5 9.5 4.6 2.2 1.4 2.8 6 1.9 13.8zM1031.6 381c-2.5 3.7-5.7 9.2-9.6 16.3-.7 1.9-1.5 3.7-2.2 5.6-.6 1.3-1.3 1.9-2.3 1.9-.7 0-1.8-.3-3.3-.9-1.6-.7-2.4-1.3-2.4-2 0-.3.3-.9.8-1.9 2.7-5.4 5.1-12.2 7.2-20.3 2.3-8.5 3.2-15 2.9-19.5-.1-1.8-.5-2.7-1.2-2.7-.5 0-1.3.5-2.4 1.5-10.4 10.1-19.4 23.7-26.9 40.7-.9 2.1-2.1 3.2-3.3 3.2-.9 0-2.4-.5-4.5-1.5-.8-.4-1.3-.7-1.3-1 0-.2.2-.7.7-1.7 2.4-5.2 4.8-11.9 7.1-19.9 2.5-8.7 3.9-15.5 4.3-20.3.1-1.5 0-2.2-.1-2.2l-1.7 1.7c-1.1 1.1-2.7 2.6-4.6 4.3-.4.4-.8.6-1.2.6-.6 0-.9-.2-.9-.7 0-.3.2-.7.6-1.1 1.8-2.3 4.1-5.1 7-8.5.6-.7 1.3-1 1.9-1 1 0 1.9.7 2.6 2.2 3.3 1 4.9 2.5 4.7 4.6-.5 4.5-2.8 12.7-7 24.5 2.8-5.3 6.8-11.3 12-17.8 5.3-6.6 9.2-10.5 11.7-11.6 1.3-.6 2.2-.9 2.7-.9s1.4.5 2.6 1.4c3.4 1.2 5.1 3.2 5.1 5.9 0 2.9-.7 7.5-2.1 13.9-1.1 5.3-2.1 9.4-3.1 12.3 1.2-1.5 2.7-3.5 4.6-5.9.3-.4.7-.6 1-.6.6 0 .9.4.9 1.2-.1-.3-.2-.1-.3.2zM1114.1 307.1c.5.4.7.8.7 1.2 0 .8-.5 1.2-1.5 1.2-.4 0-.8-.1-1.2-.3-1.9-.9-3.4-1.4-4.3-1.4-2.6 0-5.4 2.5-8.5 7.5-11.3 18.5-19.6 43.1-24.8 73.9 1.1-1 2.5-2.6 4.3-4.8 1.1-1.3 1.9-1.9 2.3-1.9 1.1 0 1.2.6.3 1.9-4 5.5-6.6 11.4-7.8 17.7-.5 1.5-1.1 2.3-1.9 2.3-.4 0-.8-.2-1.4-.6-2.1-1.4-3.2-2.2-3.5-2.5-.8-.8-1.2-1.8-1.2-3.2 0-.7.1-1.5.3-2.5 1.8-9.5 3.2-16.6 4.4-21.3-4 5.8-8.6 11.6-13.7 17.4-5.1 5.8-8.8 9.4-11.1 11-1.8 1.2-3.1 1.8-4 1.8-.7 0-1.9-.6-3.4-1.8-2.7-1.6-4-3.6-4-5.7 0-.4 0-.8.1-1.2.9-6.1 3.6-13.3 8.2-21.3 4.6-8.1 9.9-14.9 15.9-20.4 1.9-1.8 3.7-2.7 5.2-2.7 1.6.1 4.5 2 8.6 5.9.4.3.6.7.6 1.1 0 .7-.4 1-1.3 1-.3 0-.6-.1-.9-.2-2.9-1.2-5.2-1.2-7 .1-3.9 2.9-8.1 7.9-12.8 15-5.4 8.2-8.6 15.7-9.5 22.2-.2 1.6.2 2.3 1.2 2.3 1.4 0 3-1 5-2.9 4.6-4.5 9.5-10.1 14.8-16.9 5.4-7 8.9-12.4 10.4-15.9.9-2 1.5-3.9 2-5.7 4.3-15.2 9.1-28.1 14.3-38.9 4.1-8.4 7.7-14 10.9-16.9 1.2-1.1 2.3-1.7 3.3-1.7 1.2 0 2.6.7 4.4 2 2.4 1.8 4.5 3.5 6.6 5.2z"/><path fill="#313580" d="M1106.1 361c-1 5.6-3.6 14.8-7.7 27.7 1.2-1.1 2.8-3 4.9-5.9.3-.4.6-.6.9-.6.7 0 .7.6.2 1.7-.2.5-1.9 3.3-5.2 8.5-2.5 4-4.3 7.5-5.4 10.5-.4.9-1.1 1.4-2 1.4s-2.3-.5-4-1.4c-1.1-.6-1.6-1-1.6-1.3 0-.2.2-.8.7-1.6 2.2-3.9 4.7-10.5 7.4-19.6 2.6-8.9 4.1-15.5 4.4-19.8.1-1.9-.1-2.8-.6-2.8-.4 0-1 .5-2 1.4l-3.8 3.6c-1.4 1.2-2 1.3-2 .2 0-.3.2-.7.6-1.2 1.9-2.7 4-5.3 6.2-7.7.7-.7 1.3-1.1 1.9-1.1.7 0 1.6.5 2.9 1.4 1.9.5 2.9.8 3.2.9.9.6 1.4 1.6 1.4 3.2-.1.7-.2 1.5-.4 2.5zm8.8-27.1c.7.5 1 1 1 1.7 0 1.2-1.8 3-5.3 5.6-2.3 1.6-4.6 2.2-6.8 1.7-1.2-.2-2.3-.7-3.2-1.4-.3-.2-.5-.5-.6-.8-.1-.3-.2-.5-.1-.6.1-.2.4-.2.7-.1 3.8-3.3 6.3-5.7 7.5-7.1.9-1.1 1.6-1.6 2-1.6.7-.1 2.3.8 4.8 2.6zM1155.8 361.8c-3.8 10.5-6.4 19.3-7.8 26.4.6-.6 1.4-1.5 2.4-2.7 1-1.2 1.6-1.9 1.9-2.1.6-.7 1.2-1.1 1.9-1.1.6 0 .9.3.9.9 0 .4-.2.8-.5 1.3-3.9 5.7-6.4 11.5-7.7 17.4-.4 1.6-.9 2.5-1.7 2.5-.7 0-2-.7-3.9-2-1.1-.7-1.8-1.4-1.9-1.9-.2-.5-.2-1.4 0-2.7 1.7-10.5 3.9-19.2 6.5-26.1-3.6 5.8-8.5 12.2-14.6 19.3-5.4 6.1-9.3 10.1-11.7 11.7-1.7 1.2-3 1.8-4 1.8-.7 0-1.9-.6-3.4-1.8-2.2-1.3-3.3-3.1-3.3-5.4 0-.5 0-1 .1-1.5.7-6.1 3.4-13.2 8-21.3 4.6-8.1 9.9-14.9 15.9-20.5 1.9-1.8 3.7-2.7 5.2-2.7 1.5.1 4.3 2 8.5 5.9.4.3.6.7.6 1.1 0 .7-.4 1-1.3 1-.3 0-.6-.1-.9-.2-2.9-1.2-5.3-1.2-7 .1-3.9 2.8-8.2 7.8-12.9 15-5.4 8.2-8.7 15.7-9.8 22.2 0 .3-.1.6-.1.8 0 1 .4 1.5 1.2 1.5 1.4 0 3.1-1 5-2.9 4.6-4.5 9.6-10.1 14.8-16.9 5.4-7 8.9-12.4 10.4-15.9 1.1-2.6 1.8-4.5 2.2-5.6.5-1.9 1.1-2.8 1.7-2.8.6 0 2.1.8 4.3 2.5.9.7 1.5 1.3 1.5 1.9.2.7 0 1.6-.5 2.8z"/></g><g id="Layer_2"><linearGradient id="SVGID_1_" gradientUnits="userSpaceOnUse" x1="126.962" y1="475.329" x2="126.962" y2="102.027"><stop offset="0" stop-color="#fff"/><stop offset=".304" stop-color="#88bbe0"/><stop offset="1" stop-color="#313580"/></linearGradient><path d="M222.9 475.3H31V102h129.3c34.6 0 62.6 28 62.6 62.6v310.7z" fill="url(#SVGID_1_)" stroke="#000" stroke-width="3" stroke-miterlimit="10"/><linearGradient id="SVGID_2_" gradientUnits="userSpaceOnUse" x1="879.533" y1="474.801" x2="879.533" y2="101.5" gradientTransform="matrix(-1 0 0 1 1200 0)"><stop offset="0" stop-color="#fff"/><stop offset=".304" stop-color="#88bbe0"/><stop offset="1" stop-color="#313580"/></linearGradient><path d="M224.5 474.8h191.9V101.5H287.1c-34.6 0-62.6 28-62.6 62.6v310.7z" fill="url(#SVGID_2_)" stroke="#000" stroke-width="3" stroke-miterlimit="10"/></g><path d="M316.5 224.5c-2.9-.7-5.8-1.2-8.8-3.3 4.5-.5 7.7-2.5 10.4-5.2 1-1 2.5-2.2 1.6-3.6-.8-1.2-2.4-.2-3.6 0-3.2.6-6.3 2-10.5 2 4.6-2.9 7.6-5.8 8-10.5.1-.8.6-1.8-.3-2.3-.9-.5-1.5.5-2 1-2.5 2.5-5.6 3.9-8.8 5.2-10 4.1-20.6 5.2-31.2 5.6-5.9.2-11.8.2-17.5 2.3-1 .3-2 .6-3 .8.8-.2 1.5-.5 2.3-.9-.7-2.2-2.8-.9-4-1.7 3.1-5 8.7-3.9 13.3-5.5-1.3-1.5-3.1-.4-4.2-1.4 1.8-5.1 8-5.3 10.4-9.8-2.5-.9-4.1 1-6 1.7-.3-1.5.4-3.1-.4-4.8-.4.5-.7.7-.8 1-1 2.1-1 2.1-3 2.4-.3.1-.7.6-.8 1-.3 1.4-.9 2.8-.4 4.2.7 2-.2 3-1.7 3.9-1-.8-.2-2.6-1.9-2.8-.7 1.3-1.2 2.6-.8 4.1.5 1.5-.7 1.8-1.6 2.2-1.2.6-1.7-.3-2.2-1.1-.4-.7-.6-1.5-.8-2.3-1.1-4.3-2.8-5.6-7.2-5.8-4.1-.1-7.9 1.2-11.5 3-3.2 1.6-6.3 3.2-9.8 3.9-2.9.6-5.1-.3-6.7-2.8-1.8-2.8-2.8-6-3.6-9.2-2-8.5-5.3-16.5-9.1-24.4-7.3-14.9-14.3-30-9-47.4.3-.9.2-1.7-.7-2.2-.9-.5-1.6.3-2.1.8-2.8 2.8-5 6-5.5 10-.2 1.7-.3 3.4-.6 6.1-1.1-1.9-1.7-2.9-2.1-3.9-1.5-3.3-.9-6.7-1-10.1 0-.8 0-1.8-.9-2.1-.9-.3-1.6.5-2 1.1-1.8 2.4-2.4 5.1-2.5 8-.1 2.1 0 4.3 0 6.7-2.9-1.7-3.7-4.5-5.5-6.4-1-1.1-1.9-3.2-3.4-2.5-1.6.7-.6 2.7-.5 4.1.2 1.6.7 3.2.2 4.8-1.5.1-2.7-2.2-4.2-.7-1.3 1.3-.3 2.9-.1 4.4.1 1.1 1.4 2.7-.6 3.2-2.5.7-2.1 2.6-1.8 4.3.5 2.3 1 4.3-1.2 6.1-.8.6-.6 1.8-.2 2.7 1 1.9 1.6 3.6-.6 5.2-.4.3-.6 1.4-.5 2 .8 2.5.9 4.9-.6 7.3-.3.4-.1 1.2 0 1.7 1.6 5.7 1.3 11.7 3.1 17.4.6 1.9 2 3.7 1.7 6-.4 2.8 1 5.4 1.1 8.2.2 4.7 2.8 8.7 5.1 12.4 2.2 3.4 4.6 7.3 9 8.6 5.9 1.8 11.6 5.4 18.5 2.5-2.9 5-3.4 5.2-8.4 4.3-3.6-.7-7.2-1.4-10.8-1.9-4.6-.7-9.1-1.5-13.8-.9-2.2.3-4.7 1-4.1 3.8 1 4.4-2.7 9.3 1.3 13.4-1.5 4.8.5 8.8 2.4 13.1 1.1 2.5 2.1 4.5 4.6 5.7 2.1 1 4.3 2.1 4.5 5 .2 3.3 2.1 4.8 5.2 5.2 1.9.2 3.3.7 3.6 3 .3 2.2 1.9 3.5 4.3 3.2 3.2-.3 6.6 2.3 9.7-.6.1-.1.6-.1.7 0 2.6 2.9 5.6 1.3 8.7 1.5 5 .4 9.2-.2 13.2-2.8.3-.2.7-.2 1-.2 3.1 0 5.4-1.5 7.3-3.8.8-.9 1.6-1.7 2.7-2.2 2.5-1 4.6-2.4 4.8-5.5.1-1 .9-1.6 1.8-2 5.3-2.3 5.8-5.5 1.5-9.5-3.6-3.4-7.2-6.9-10.8-10.3-1-.9-1.7-2-1.9-3.3-.2-1.1.4-1.9 1.2-2.4 1.3-.7 1.8.5 2.4 1.4 3.4 5.2 6.7 10.5 13.4 12.1 5.5 1.3 10.8 2.4 16.8 1.6 5.2-.6 10.2-2.6 15.6-2.6 2.2 0 4.5-1.9 7.2-1.4.7.1 1.3-.3 1.8-1 .7-1 1.6-1.3 2.8-1.2 3.5.3 5.7-3.5 9.3-3 .2 0 .6-.7.7-1.1.6-2.1 2-3.1 4.2-3.1.8 0 1.8-.3 2.3-.8 3-3.6 8-3.1 11.5-6.5 2.9-2.8 4.3-3.5 1.2-6.9 2.2-.8 4.3-1.4 6.3-2.2 1.1-.4 2.3-1.2 2.3-2.5-.7-1-2.4-.6-3.4-.8zm-79.9-8.6c-6.3-2.1 11.6-3.2 11.6-3.2s1.1 0 0 1.1-2.1 3.2-2.1 3.2-3.1 1-9.5-1.1z" fill="#fff" stroke="#000" stroke-miterlimit="10" id="Layer_5"/><g id="Layer_3"><ellipse fill="#fff" cx="224.5" cy="377.8" rx="93.3" ry="68"/><path d="M294.2 422.9c14.7-12 23.7-27.8 23.7-45.1 0-18-9.7-34.3-25.5-46.5-16.4-12.7-39.5-20.8-65.1-21.4H220.9c-25.6.6-48.6 8.7-65.1 21.4-15.8 12.2-25.5 28.5-25.5 46.5 0 17.3 9 33.1 23.7 45.1v.1c.1.1.1.1.2.1 16.5 13.4 40.2 22 66.7 22.7H227.3c26.5-.7 50.2-9.3 66.7-22.7 0-.1.1-.1.2-.2-.1 0-.1 0 0 0zm-157.5-42.8h38.8c.4 9.9 3 19.6 7.8 28.7-9.2 2.4-18 5.7-26.2 9.7-12.1-10.5-19.7-23.8-20.4-38.4zm22.2-44.5c8.1 3.8 16.6 6.8 25.6 9.1-5.5 9.6-8.5 20-8.9 30.7h-38.8c.7-15.2 8.9-29.1 22.1-39.8zm152.4 39.8h-38.8c-.4-10.7-3.4-21.1-8.9-30.7 8.9-2.3 17.5-5.3 25.6-9.1 13.1 10.7 21.3 24.6 22.1 39.8zm-90.6-30.5c-9.4-.2-18.5-1.2-27.4-3 6.6-9.8 15.8-18.6 27.4-25.9v28.9zm0 4.7v25.9H182c.4-10.2 3.3-20.1 8.6-29.3 9.8 2 19.9 3.2 30.1 3.4zm6.5 0c10.3-.2 20.4-1.3 30.1-3.4 5.3 9.2 8.2 19.1 8.6 29.3h-38.7v-25.9zm0-4.7V316c11.6 7.3 20.9 16.1 27.4 25.9-8.8 1.8-18 2.8-27.4 3zm33.7-4.5c-6.2-9.4-14.8-18-25.5-25.4 19 1.8 36 8 49.1 17.2-7.4 3.4-15.4 6.2-23.6 8.2zm-73.8 0c-8.2-2.1-16.2-4.8-23.6-8.2 13.1-9.2 30.2-15.4 49.1-17.2-10.7 7.4-19.3 16-25.5 25.4zm-5.1 39.7h38.7v23.5c-10.7.2-21.2 1.4-31.3 3.6-4.5-8.5-7-17.6-7.4-27.1zm38.7 28.3v31.2c-12.4-7.8-22.1-17.4-28.8-28 9.4-1.9 19-3 28.8-3.2zm6.5 31.2v-31.2c9.8.2 19.5 1.3 28.8 3.3-6.6 10.5-16.4 20.1-28.8 27.9zm0-35.9v-23.5H266c-.4 9.4-2.9 18.6-7.5 27.2-10.1-2.3-20.6-3.5-31.3-3.7zm45.2-23.6h38.8c-.7 14.6-8.3 27.9-20.4 38.3-8.2-4-17-7.3-26.2-9.7 4.8-9 7.5-18.6 7.8-28.6zM161.5 422c7.7-3.7 15.8-6.7 24.3-8.9 6.3 10.2 15.3 19.5 26.8 27.4-19.9-1.8-37.7-8.6-51.1-18.5zm73.9 18.6c11.4-7.9 20.5-17.2 26.8-27.4 8.5 2.2 16.7 5.2 24.3 8.9-13.4 9.8-31.2 16.6-51.1 18.5z" fill="#fc6"/></g><g id="Layer_7"><path fill="#fff" d="M221.9 344.6s1.1-1.1 1.1-4.2v-14.8s1.6-.4 4.5-1.3 6 1.3 6 1.3l1.1 4.2h1.1l-3.2 4.2-1.1 7.4h1.1l7.4 1.1-10.5 8.4-9.5-2.1 2-4.2zM216.6 370.9s-3.2 3.2-2.1 11.6 4.2 30.6 4.2 30.6v2.1l2.1 1.1L223 427l.9 8.2v1.1l-3.2-1.1-2.1 1.1-.9 1.4 2 1.8 3.2 1.1h6.4s-3.2-11.6-1.1-19 9.2-16.8 9.2-16.8l2.4-3.3-3.2-20-8.4-7.4-11.6-3.2zM177.6 357.2s0 1.1 3.2 0 4.2 0 4.2 0l2.1 2.1-2.1 4.2s-5.3 2.1-8.4 0c-3.2-2.1-.7-2.2-.7-2.2l5.9-2-3.4-.5-.8-1.6"/></g><g id="Layer_6"><path d="M227.2 415.3c-.2-.4 0-.8-.4-1.2-1.5 1.5-3.3 2.5-5.6 2.2.7 2.7 1.2 5.4 1.8 8 .7 3.2.8 6.5 1.4 9.7l.3 1.8c.1.3.4.7 0 1-.4.3-.7-.1-1-.2-1.4-.7-2.8-.9-4.3-.1-1.2.6-1.2 1.6 0 2.2 2.3 1.2 4.7 1.4 7.2 1.2.8-.1 1.6-.2 2.3-.3.3 0 .6.1.7.4 0 .3-.2.4-.5.4-2.8.2-5.5.7-8.3-.1-.6-.1-1.1-.3-1.7-.5-1.3-.6-2.1-1.7-1.9-2.8.2-1 1.3-2 2.6-2.1.9-.1 1.7-.1 2.6.1.6.2.9 0 .8-.7-.7-3.3-.7-6.7-1.5-9.9-.6-2.3-.6-4.8-1.4-7.1-.2-.7-.4-1.1-1.2-1.4-.7-.2-1.4-.6-1.4-1.5-.3-4.9-1.2-9.7-2.1-14.5-1.1-5.6-1.5-11.4-1.6-17.2-.1-4.3.1-8.4 1.9-12.4.1-.3 0-.5-.1-.7-1.5-2.4-2.5-4.9-2.9-7.7-.3-2.2-.6-4.3-.8-6.5-.1-.8-.5-1-1.2-.9-3.8.3-7.6.5-11.4-.3-.3-.1-.8 0-.9-.4-.1-.5.5-.5.8-.7 5.1-2.6 9.9-5.7 13.9-9.8 1.3-1.3 2.6-1.8 4.3-1.6 1.1.1 2.2.4 3.1-.6.2-.2.7-.3.9 0 .8.9 1.7.6 2.6.5.3 0 .7-.1.7.4 0 .4-.4.3-.7.3-.6.1-1.5-.1-1.7.4-.3.8 0 1.8.4 2.5.3.6 1.2.6 1.8.5 1.7-.1 3.4-.2 5.1-.6 2.5-.6 4.9-1.3 7.2-2.2.2-.1.5-.1.6-.5-1-.1-2.1-.4-3.1-.4-1.2 0-2.1-1.2-3.4-.4-.2.1-.4-.3-.3-.5.6-2.5.6-5 1.4-7.4.1-.2.2-.4.3-.5 1.1-.6 1.4-1.8 1.9-3-1.3.5-1.2-.2-1-1.1.6-2.5-.9-4.6-3.5-5-1.7-.2-3.3.2-4.8.8-.7.3-1.1.8-1.3 1.6-.5 2.4-.6 4.9-.6 7.4 0 2.7 2.6 4.4 5.1 3.5.5-.2 1-.6 1.8-.5-2.3 1.3-8.4 1-5 1-1.7-.6-2.6-1.8-2.6-3.5 0-1.2.1-2.4.1-3.6 0-1.2.2-2.4.1-3.7-.2.6-.5 1.3-.7 1.9-.1.2-.1.6-.4.5-.4 0-.3-.4-.3-.7.1-2.3 2.1-4.4 4.6-5.1 1.5-.4 3-.4 4.4-.2 2.6.4 4.1 2.2 3.9 4.9 0 .4-.3.9.5.9.5 0 .5.5.4.9-.4.9-.6 1.9-1.3 2.5-2 2-1.7 4.6-2.2 7.1-.2.8.6 1 1.2 1.1 2.2.6 4.4.8 6.6.9 2.3.2 3.7 1.3 5.1 3 3.3 4.1 6 8.6 8.5 13.2.6 1.2.8 2.9.4 4.4-1.1 3.9-2.5 7.5-5.3 10.5-.5.5-.4 1-.4 1.5.4 6.5-4.9 12.6-11.1 13.9-5.5 1.1-10.3-.7-14.2-4.6-3.2-3.2-5.3-7-6-11.6 0-.2.1-.5-.3-.7-1 2.3-1.7 4.7-1.6 7.1.2 3.7.2 7.4.6 11.2.6 5 1.3 10 2.3 15 .5 2.5.9 5.1 1.1 7.6.2 2.8 1.1 3.5 3.9 3 2.2-.4 3.8-1.6 5.1-3.3.3-.1.4.1.5.3-.2 1.9.2 3.8 0 5.7-.1 1 0 2.1-.7 3-.5-.3-.2-.7-.3-1.1.2-1.5.5-3 .2-4.6z" fill="#040404"/><path d="M204.1 358.6c-4.6 2.1-9.5 3-14.6 2.5-.4 0-.7.2-1 .4-1.7 1.3-3.5 2.5-5.7 3-2.7.6-5.1.2-7.3-1.4-.3-.2-.6-.5-.7-.8-.5-.8-.4-1.3.6-1.4 1.6-.3 3.1-.6 5-1-1-.3-1.8-.5-2.4-.8-.6-.2-1.1-.6-1-1.4.2-.8.8-.4 1.3-.4 1.4.1 2.6-.3 3.9-.7 1.2-.3 2.3-.2 3.2.8.6.7 1.2.3 1.7.1 3.2-1.6 6.6-2.1 10-2.8.3-.1.9-.3 1 .1.1.6-.5.5-.9.6-3.5.7-6.9 1.5-10.2 2.9-.7.3-1.4.5-2.1-.4-.7-.8-1.7-1-2.7-.6-1.2.4-2.5.7-3.9.7.6.6 1.2.8 1.8.9.5.1.9.1 1.4.1.4 0 .8.1.8.6 0 .4-.3.5-.7.6l-5.1 1.2c-.3.1-.8-.2-.9.3-.1.4.4.6.7.8 3 2 6 2 9.1.3 1.1-.6 2.2-1.2 3.1-2.2.2-.3.6-.3.9-.2 4.9.3 9.7-.2 14.2-2.1.2 0 .4-.1.5.3z" fill="#0a090a"/><path d="M227.2 415.3c.5 1 .1 2 .2 3 .1.9-.2 1.9.2 2.7.1 2.2 2 2.5 3.6 3.2.9.4 1.8.7 2.8.9.3 0 .6.1.8-.1.3-.3.1-.6-.1-.9-.5-.8-1.2-1.5-2-2-.4-.3-.9-.5-1.3-.8-1.2-.8-1.4-1.3-.9-2.7 1.2-3.6 2.9-6.8 4.5-10.2.3-.6.6-1.1.6-1.7v-.5c.4-.3.8-.7 1.2-1 1.5-1.4 2.6-3 2.3-5.3-.5-3.4-.3-6.9-1.2-10.2-.1-.2-.2-.5.1-.6.4-.1.5.2.5.5.2 1.3.6 2.6.7 3.9.1 2.6.5 5.2.6 7.8 0 .7-.1 1.3-.7 1.9-1 1.2-1.9 2.5-2.6 3.9-1.7 3.8-3.4 7.6-4.9 11.5-.4.9-.2 1.5.6 2 1.5 1 3 2 3.6 3.7.5 1.4-.1 2.4-1.6 2.3-2.2-.1-4.2-1.2-6.2-1.9-.3-.4-.8-.2-1.2-.2.3-3.2.6-6.2.4-9.2z" fill="#080707"/><path d="M235.9 406.1l.3.3c0 .6-.5.7-.8.9-2.4 1.1-4.6 2.5-6.3 4.7-.2.3-.4.5-.8.4l-.3-.3c1.7-3.2 4.9-4.5 7.9-6z" fill="#252424"/><path d="M204.1 358.6l-.6-.3c1.7-.9 3.5-1.8 5.2-2.7.2-.1.4-.3.5-.1.2.3-.1.4-.3.5-1.6 1-3 2.2-4.8 2.6z" fill="#343435"/><path d="M227.2 424.3c.5-.3.9-.4 1.2.2-.4-.1-.9-.3-.8.5.1 1.2 0 2.5-.1 3.7-.4-1.4-.4-2.9-.3-4.4z" fill="#333232"/><path fill="#313580" d="M149 403.4c-.7-.3-.8-1-1.2-1.5-.2-.2-.1-.5.2-.6.3-.2.6-.2.7.1.3.6.7 1.2.3 2zM178.8 393.6c-.9-.2-1-.9-1.4-1.2-.2-.2-.3-.4 0-.6.3-.2.6-.2.7.1.3.4.4 1 .7 1.7zM182.2 363.4c-.3-.1-.7-.1-.7-.5.1-.4.5-.6.9-.7.3-.1.5.1.4.4-.1.2 0 .8-.6.8zM171.6 379.1c-.1-.1-.3-.2-.3-.3 0-.5-.4-1.1.1-1.6.2-.2.4-.1.5.1.3.6.1 1.2-.3 1.8zM156.9 417.7c.4.2.9.2 1.1.7.1.4-.3.5-.6.5-.5 0-.9-.1-1-.7 0-.4.2-.4.5-.5zM164.1 390.2c0-.4 0-.7.5-.6.4 0 .4.3.4.6 0 .4-.1.8-.6.8-.4 0-.3-.4-.3-.8zM186.6 404.4c.6.2.6.7.7 1.2 0 .2-.1.5-.3.4-.5-.2-.6-.7-.8-1.1-.2-.4.1-.5.4-.5zM184.3 386c-.4-.4-.2-.7-.2-.9.1-.4-.1-.9.4-1.2.1 0 .3 0 .3.1.3.5 0 .9-.1 1.4-.1.1-.3.3-.4.6zM176.9 376c.4.1.4.3.4.6-.1.3 0 .7-.5.6-.3-.1-.8-.1-.7-.5 0-.4.4-.5.8-.7zM160.3 395.3c.4.1.5.3.4.7-.1.3-.2.7-.6.6-.3 0-.3-.3-.3-.6 0-.4.1-.7.5-.7zM175.5 384c0 .4-.1.8-.4.8-.5 0-.3-.5-.3-.8 0-.3-.1-.8.4-.7.4.1.3.5.3.7zM147.2 394.7c0 .2.1.6-.2.6-.5-.1-.5-.7-.7-1-.1-.2.1-.5.4-.5.5 0 .4.5.5.9zM161.9 405.9c-.3.2-.5-.1-.6-.2-.3-.4-.9-.2-1-.8 0-.1.1-.2.2-.2.6-.1.9.5 1.3.8.2.1.3.2.1.4zM160.8 387.8c-.3-.1-.4-.1-.4-.2-.2-.4-.7-.7-.6-1.3 0-.1.3-.2.4-.1.6.3.6.9.6 1.6zM173.9 432.8c-.4 0-.4-.2-.4-.5s.1-.7.5-.7.5.3.5.6-.2.5-.6.6zM159 381.7c.4.1.3.4.3.7 0 .3 0 .9-.5.8-.4-.1-.1-.6-.2-.8 0-.3 0-.6.4-.7zM185.1 396.2c0 .3-.1.5-.3.4-.4-.2-.4-.7-.6-1.1-.1-.1.1-.3.3-.3.7.1.4.7.6 1zM170.7 369.3c-.5-.2-.9-.4-1-1 0-.2.3-.3.5-.3.4.3.6.7.5 1.3zM176.5 366.9c.4.1.8.3.9.8 0 .2-.1.4-.3.3-.4-.2-.8-.3-1-.8-.1-.1.1-.3.4-.3zM153.5 391.9c-.3.1-.4-.1-.4-.3 0-.3.1-.7.4-.8.3-.1.5.1.5.4 0 .3-.2.6-.5.7zM173.2 398.9c0 .2 0 .5-.3.5-.4-.1-.6-.4-.7-.8-.1-.3.1-.5.4-.5.5 0 .4.6.6.8zM173.8 407.3c-.1.3-.1.6-.5.6-.5 0-.3-.5-.4-.8-.1-.3 0-.5.3-.5.4 0 .5.4.6.7zM169.4 390.8c.1.3 0 .4-.3.5-.5 0-.5-.4-.7-.7-.1-.3.2-.5.4-.5.6-.1.5.4.6.7zM180.7 412.4c-.4 0-.5-.2-.6-.4 0-.3.1-.5.5-.6.3-.1.4.1.4.4.1.3-.1.5-.3.6zM182.7 366.4c0 .3-.2.4-.5.4-.3-.1-.4-.3-.4-.5 0-.3.2-.4.5-.4.3-.1.3.2.4.5zM179.9 381.8c-.3 0-.5-.1-.4-.3 0-.4.3-.5.7-.6.2-.1.5 0 .5.2-.2.4-.5.6-.8.7zM179.8 387.8c.4-.4.5-.9 1.2-.8.1 0 .2.2.1.3-.2.5-.7.6-1.3.5zM173.1 363.1c.4.1.5.4.5.7.1.2-.1.5-.3.4-.4-.1-.5-.5-.6-.9 0-.1.2-.1.4-.2zM176.6 369.1c.4 0 .5.3.6.5.1.2.1.4-.2.5-.4 0-.6-.2-.7-.6-.1-.2.1-.3.3-.4zM182.5 373.9c.2 0 .4.1.3.3-.1.4-.3.7-.6.8-.2.1-.3-.1-.3-.2.1-.4.2-.7.6-.9zM186.5 374.5c0 .2-.1.4-.3.4-.3-.1-.4-.4-.4-.7 0-.3.2-.4.4-.3.3 0 .3.3.3.6zM178.7 365.9c0 .2-.1.4-.3.4-.3 0-.6-.1-.6-.4 0-.2.2-.4.4-.4s.4.2.5.4zM184.3 367.5c-.4 0-.4-.3-.5-.5-.1-.3 0-.5.3-.5.4 0 .3.2.4.5 0 .1 0 .4-.2.5zM182.9 369.3c-.2 0-.4-.1-.4-.3.1-.3.3-.4.6-.4.2 0 .4.2.3.4 0 .3-.2.3-.5.3zM165.8 378.1c-.3 0-.5-.2-.6-.5 0-.2.2-.4.4-.4.5-.1.4.3.5.5 0 .1 0 .3-.3.4zM145.9 411.8c0 .2 0 .3-.2.3-.4 0-.7-.1-.7-.5-.1-.3.2-.4.4-.4.2.1.4.3.5.6zM170.6 372.6c0 .2-.1.4-.3.3-.3-.1-.5-.3-.5-.6 0-.1.2-.3.3-.3.3.1.4.3.5.6zM183.7 379.3c-.1.3 0 .6-.4.5-.2 0-.3-.2-.3-.4 0-.3.1-.5.4-.5.3-.1.3.2.3.4zM168.5 382.8c.3 0 .5.1.5.3 0 .3 0 .5-.3.5-.2 0-.4-.1-.4-.3-.1-.3 0-.5.2-.5zM173.3 366.5c-.3 0-.3-.2-.3-.5s.1-.5.4-.5c.3 0 .3.2.3.4.1.4 0 .6-.4.6z"/><path fill="#fefefe" d="M248.8 358.1c-3.5-.8-6.2-2.6-8.3-5.6-.7-1.1-.4-2-.4-3.1 0-.3.2-.6-.2-.8-.5-.1-.5.4-.6.6-.2.6-.3 1.1-.4 1.7-.3 3.7-1.5 7.1-2.6 10.5-.5 1.5-1.5 2.5-2.4 3.7-.3.8-1 1.3-1.4 2 .6-.5.8-1.4 1.7-1.6.7-.8 1.5-1.6 2.2-2.3.1.1.2.2.2.3-.1 1.2-1.2 2-1.5 3.2 0 .2.1.4.1.6.2.1.4-.1.5-.1.2 0 .3.1.3.3.1.4-.4.8-.2 1.2.1.1.3.2.5.1.9-1.2 1.8-2.4 2.6-3.6 0 0 0-.1-.1-.1h-.1c-.2-.1-.2-.2-.3-.4.2-1 .7-1.7 1.3-2.4.1-.1.2-.1.3 0 .9 1.5 1.5 3.1 1.7 4.9.2 1.5-.3 2.8-1.8 3.5-.5-.7.5-.9.4-1.6-.5.3-1.1.7-1 1.2.1 1-.5.9-1 .9-2.8.3-4.8-1-6.6-3-4.2-4.9-7.3-10.4-8.1-17-.1-1.2-.5-2.3-.7-3.5-.1-.5-.1-1 .7-.9 4.3.2 8.3-1.2 12.3-2.7.7-.3 1.4-.6 2.1-.8 2.1-.9 3.5-.5 5.2 1.4 2.6 3 4.9 6.2 6.9 9.7.5.9 1 1.7 1.5 2.5 1.5 2.3 1.5 4.7.6 7.1-1.3 3.9-3.1 7.6-6.4 10.3-.7.6-1.1 1.3-1.1 2.3-.1 2.1-.8 4-1.9 5.8-.6 1.3-1.5 2.3-2.6 3.2-.3.3-.7.4-1.1.1-.7-1.7-.3-3.5-.1-5.3.4-3.2.4-3.2-2.7-3.1-.5 0-1 .1-1.6-.4 2.3-.1 4.1-2.1 6.5-1.7.5.1.8-.2 1-.6 1.4-3.1 2.8-6.2 3.6-9.6.1-1.3.4-2.4 1-3.4-.7.7-.4 2-1.3 2.8-.2.6-.5 1.1-.7 1.8-.8-2-1.4-3.8-2.4-5.5-.8-1.4-1.7-2.6-3-3.6-.5-.3-.7-.7-.5-1.2.3-.9.5-1.8.8-2.8 2.2 2.7 4.8 4.5 8.1 5.1 1 .1 1.9.2 2.8.5-.4-.1-1.2 0-1.8-.6z"/><path fill="#fefefe" d="M239.6 386.7c-6.3 3-13.7 0-18-5.3-3.5-4.3-4.6-9.3-4.8-14.5-.3-5.6-.1-11.2.7-16.7.4-2.3 1.2-4.5 2-6.8.4-1 1.2-.7 1.8-.7.7 0 .6.7.7 1.1.5 3.9 1 7.8 2 11.6 1.5 5.5 4.5 10.1 8.1 14.4 1.5 1.8 3.7 2.7 6.2 2.5 3.6-.3 5.4-2.9 4.6-6.4-.6-2.6-2-4.8-3.4-7-.2-.4-.6-.6-.6-1.3 1.4.7 2.2 1.9 2.9 3.1 1.3 1.9 2 4.2 2.9 6.3.2.4 0 .7-.1 1.1-.8 1.9-1.6 3.7-2.3 5.6-.2.5-.5.7-1 .6-.4 0-.9-.1-1.2.1-1.6.9-3.4 1.3-5.1 1.9-.4.1-.9.2-.8.8.1.4.4.7.8.8.8.2 1.6.2 2.3.1 1.2-.2 1.6.3 1.4 1.4-.2 1.6-.3 3.1-.2 4.7.1.8 0 1.7.9 2.1.1.2.4.3.2.5z"/><path fill="#fdfdfd" d="M219 342.8c-1.8 4.1-2.5 8.3-2.8 12.6-.4 4.2-.3 8.5-.2 12.8-1.1-2-2-4.1-2.2-6.4-.3-3.2-.6-6.3-1.3-9.4-.2-.8-.6-1.5-.9-2.2-.1-.3-.2-.7-.6-.5-.3.2-.1.5 0 .8.2.9.5 1.8.7 2.6.2.6.1.9-.6 1-3.5.2-7 .4-10.6-.6 1.1-1 2.4-1.3 3.5-2 3.4-2.2 6.8-4.5 9.8-7.3 2.1-1.9 2.2-1.9 5.2-1.4zM228.2 412.4c2.1-2.8 5-4.4 8-6 .6.3.1.6 0 .8-1.1 2.3-2.3 4.6-3.3 6.9-.8 1.6-1.4 3.4-2.1 5-.3.7-.1 1.2.6 1.7 1 .6 2.1 1.1 2.9 2 .3.3.6.7.9 1 .3.4.6 1 .2 1.5-.3.4-.8.2-1.3.1-1.8-.3-3.3-1.2-5-1.7-1.4-.4-1.5-1.5-1.4-2.7.2-2.5.8-5 .1-7.6-.1-.4.4-.6.4-1z"/><path d="M243.4 382.8c1.8-1.8 2.2-4.2 2.7-6.5.2-.9.6-1.4 1.4-2.2.2 2.1-.2 3.9-.9 5.6-1.2 2.9-3.3 4.9-5.9 6.6-.5-.1-.3-.4-.1-.6.9-.9 1.5-2.2 2.8-2.9z" fill="#f5f5f5"/><path d="M240.3 362.4h-.2c-.8.6-1 1.6-1.5 2.3-.7 1.1-1.2 2.3-2.5 2.9-.1-.1-.1-.2-.2-.2-.3-.5.1-.9.3-1.2.7-1.1 1.3-2.2 2-3.3.1-.3.7-.5.2-.9-.3-.2-.2-.5-.1-.8-.3.9-.6 1.8-1.4 2.5-.1 0-.2 0-.3-.1v-.3c.4-1 .8-2 1.3-3 .3-.7.7-.9 1.2-.1.4.7 1.1 1.3 1.2 2.2z" fill="#e9e7e8"/><path d="M243.4 382.8c-.7 1-1.4 1.8-2.3 2.6-.2.2-.9.3-.4.9-.3.3-.6.5-1 .5-.1-.2-.2-.3-.3-.5.2 0 .4-.1.6-.1-.2-.2-.5-.1-.5-.4 1 .2 1.3-.8 1.9-1.3.7-.6 1.2-1.3 1.8-2 0 .1.1.2.2.3z" fill="#343434"/><path d="M245.8 364.6c.3-1.4.8-2.7 1.9-3.8-.5 1.5-1.1 2.9-1.5 4.4-.1-.3-.2-.5-.4-.6z" fill="#323232"/><path d="M248.8 358.1c.9.2 1.7.4 2.6.6-1.2.6-2.3.1-3.4-.3.3-.1.7 0 .8-.3z" fill="#2f2f2f"/><path d="M234.4 365.6l-1.8 2.4c-.1-.1-.2-.1-.3-.2.3-1 1-1.8 1.8-2.5l.3.3z" fill="#313030"/><path d="M236.2 367.6c1.1-1.3 2-2.7 2.9-4.2.2-.4.2-1.2 1.1-1-.4.8-.8 1.6-1.3 2.4-.7 1.6-1.6 3.1-3 4.2-.2 0-.6-.1-.3-.4.2-.3.4-.6.6-1z" fill="#2b2728"/><path d="M238.6 361.8c.1-.1.2-.3.4-.4-.5 2.3-2 4-3 6-.5.8-.5.8-.8.2.5-1.8 1.9-3.1 2.5-4.8.2-.4.6-.7.9-1z" fill="#221e1f"/><path d="M239.1 365.1c.2-.1.3-.5.8-.4-1.1 1.6-2 3.4-3.5 4.6-.1-.2-.2-.4 0-.6.8-1.2 1.5-2.6 2.7-3.6z" fill="#302d2d"/><path d="M239.1 365.1l-2.1 3c-.3.4-.7.7-.6 1.3l-.6-.3 3-4.2c.1 0 .2.1.3.2z" fill="#cecbcc"/><path d="M238 362.7c-.7 1.8-1.8 3.3-2.9 4.9-.1-.3-.2-.5-.2-.8.8-1.1 1.4-2.3 2.2-3.3.2-.4.3-.8.9-.8z" fill="#c1bebf"/><path d="M240.5 366.1c-.8 1.1-1.8 2-2.5 3.1 0-1.7 1.4-2.3 2.5-3.1z" fill="#464344"/><path d="M237.2 363.6c-.6 1-1.2 2.1-1.8 3.1-.1.2-.3.1-.4.1.3-1.2 1.2-2.1 1.7-3.2h.2c0-.1.1-.1.3 0z" fill="#2c2a2a"/><path d="M237.2 363.6c-.1 0-.2 0-.4-.1.5-.9 1.1-1.8 1.4-2.8.1-.2.1-.6.4-.4.3.1.3.3.2.6-.1.3-.4.5-.2.9-.1.4-.2.8-.6.9-.3.3-.6.6-.8.9z" fill="#3f3c3c"/></g></svg>
