<svg xmlns="http://www.w3.org/2000/svg" viewBox="0 0 1200 600"><g id="Layer_1"><path fill="none" d="M230.5 311.6l5.3-28.6 18-5.3-18-5.3-5.3-18-5.3 18-18 5.3 18 5.3zM163.7 318c-4.2 0-8.5 1.1-11.7 3.2v-28.6h-14.8v75.2l11.7-2.1c3.2 1.1 7.4 2.1 11.7 2.1 14.8 0 25.4-10.6 25.4-25.4 0-14.8-10.6-24.4-22.3-24.4zm-4.2 38.1c-3.2 0-5.3-1.1-7.4-2.1v-21.2c2.1-1.1 5.3-2.1 8.5-2.1 7.4 0 10.6 5.3 10.6 12.7 0 7.4-4.2 12.7-11.7 12.7zM195.6 292.6h14.8v74.2h-14.8zM109.8 319.1h14.8v47.7h-14.8zM86.4 328.6c6.4-2.1 10.6-6.4 10.6-13.8 0-5.3-2.1-10.6-8.5-13.8-4.2-2.1-11.7-4.2-21.2-4.2H47.2v69.9h21.2c7.4 0 13.8-1.1 18-3.2 9.5-2 13.8-8.4 13.8-17.9 0-8.5-4.2-14.8-13.8-17zm-23.3-19.1h5.3c4.2 0 8.5 1 10.6 2.1 2.1 2.2 3.2 4.3 3.2 6.4 0 5.3-4.3 8.5-10.6 7.4h-8.5v-15.9zm21.2 36.1c0 3.2-1 6.3-4.2 7.4-2.2 1.1-6.4 1.1-11.7 1.1h-5.3v-17h9.5c7.4 0 12.7 2.1 11.7 8.5z"/><circle fill="none" cx="117.1" cy="304.2" r="8.5"/><path fill="none" d="M223.2 319.1H238v47.7h-14.8zM289.9 350.9c-4.2 3.2-9.5 4.2-13.8 4.2-8.5 0-13.8-5.3-13.8-12.7 0-7.4 5.3-12.7 13.8-12.7 4.2 0 9.5 2.1 13.8 4.2v-13.8c-4.2-2.1-8.5-3.2-13.8-3.2-14.8 0-27.6 9.5-27.6 25.4 0 14.8 11.7 24.4 26.5 24.4 5.3 0 10.6-1.1 15.9-3.2v-12.7h-1v.1z"/><path fill="#044f7a" d="M160.6 330.7c-3.2 0-6.4 1-8.5 2.1V354c2.1 1 4.2 2.1 7.4 2.1 7.5 0 11.7-5.3 11.7-12.7 0-7.4-3.2-12.7-10.6-12.7z"/><path fill="#044f7a" d="M179.7 126.1C83.2 126.1 4.8 204.5 4.8 301s78.4 174.9 174.8 177.2c73.1 0 135.6-45.6 162.1-109.2h-4.2c-4.2 0-8.5-1-10.6-4.2-3.2 2.1-8.5 4.2-13.8 4.2-3.2 0-7.4-1.1-10.6-3.2-3.2-3.2-5.3-6.4-5.3-11.7s2.1-9.6 5.3-11.7c4.3-2.1 8.5-3.2 13.8-3.2 3.2 0 6.4 0 8.5 1.1v-2.1c0-2.1-1.1-4.3-2.1-5.3s-4.2-2.1-7.4-2.1c-5.3 0-9.6 2.1-13.8 4.2v-12.7c4.3-1.1 9.6-3.2 17-3.2 6.4 0 11.7 1 15.9 4.2 3.2 2.1 5.3 6.3 5.3 12.7v15.9c0 3.1 1.1 4.2 3.2 4.2 1 0 3.1-1.1 4.2-3.2 4.2-16.9 7.4-33.9 7.4-51.9 0-96.4-78.3-174.9-174.8-174.9zm45.5 146.3l5.3-18 5.3 18 18 5.3-18 5.3-5.3 28.6-5.3-28.6-18-5.3 18-5.3zM86.4 363.5c-4.2 2.1-10.6 3.2-18 3.2H47.2v-69.9h20.1c9.5 0 17 2.1 21.2 4.2 6.4 3.2 8.5 8.5 8.5 13.8 0 7.4-4.2 11.7-10.6 13.8 9.6 2.2 13.8 8.5 13.8 17 0 9.5-4.3 15.9-13.8 17.9zm38.2 3.3h-14.8v-47.7h14.8v47.7zm-7.5-54.1c-4.3 0-8.5-4.3-8.5-8.5 0-4.3 4.3-8.5 8.5-8.5 4.3 0 8.5 4.3 8.5 8.5 0 4.3-4.2 8.5-8.5 8.5zm43.5 55.1c-4.3 0-8.5-1-11.7-2.1l-11.7 2.1v-75.2H152v28.6c3.2-2.1 7.5-3.2 11.7-3.2 11.7 0 22.3 9.6 22.3 24.4 0 14.8-10.6 25.4-25.4 25.4zm49.8-1h-14.8v-74.2h14.8v74.2zm27.6 0h-14.8v-47.7H238v47.7zm52.9-3.3c-5.3 2.1-10.6 3.2-15.9 3.2-14.8 0-26.5-9.6-26.5-24.4 0-15.9 12.8-25.4 27.6-25.4 5.3 0 9.6 1.1 13.8 3.2v13.8c-4.3-2.1-9.6-4.2-13.8-4.2-8.5 0-13.8 5.3-13.8 12.7 0 7.4 5.3 12.7 13.8 12.7 4.3 0 9.6-1 13.8-4.2v-.1h1v12.7z"/><path fill="#044f7a" d="M82.2 318c0-1.1-.3-2.1-.8-3.2-1.1-2.3-3.3-3.8-5.7-4.4-2.1-.5-4.7-.9-7.2-.9h-5.3v15.9h8.5c7.7.2 10.5-2.1 10.5-7.4zM72.6 337.1h-9.5v17h5.3c5.3 0 9.5 0 11.7-1.1 3.2-1.1 4.2-4.2 4.2-7.4.1-6.5-4.3-8.5-11.7-8.5zM312.1 353c0 3.2 3.2 4.2 6.4 4.2 2.1 0 5.3-1.1 6.4-2.1v-6.4c-1.1 0-3.2-1.1-5.3-1.1-3.2.1-7.5 1.1-7.5 5.4z"/></g><g id="Layer_2"><path fill="#044f7a" d="M424.2 261.4h-11.3v-7.9h32.3v7.9h-11.5v33.8h-9.6v-33.8zM472.5 253.5v16.1h15.7v-16.1h9.5v41.8h-9.5v-17.5h-15.7v17.5h-9.6v-41.8h9.6zM543.6 277.6h-15.5v9.9h17.3v7.8h-26.8v-41.8h26v7.7h-16.4v8.7h15.5v7.7zM599.3 253.5v41.8h-9.6v-41.8h9.6zM620.1 295.2v-41.8h11.1l8.7 15.3c2.5 4.4 5 9.6 6.9 14.3h.2c-.6-5.5-.8-11.2-.8-17.4v-12.2h8.7v41.8h-10l-9-16.1c-2.5-4.5-5.2-9.9-7.3-14.8l-.2.1c.2 5.5.4 11.4.4 18.2v12.6h-8.7zM681.5 261.4h-11.3v-7.9h32.3v7.9H691v33.8h-9.6v-33.8zM745.2 277.6h-15.5v9.9H747v7.8h-26.8v-41.8h26v7.7h-16.4v8.7h15.5v7.7zM766.1 254c3.1-.5 7.6-.9 12.7-.9 6.2 0 10.6.9 13.6 3.3 2.5 2 3.9 4.9 3.9 8.7 0 5.3-3.8 9-7.4 10.3v.2c2.9 1.2 4.6 4 5.6 7.8 1.3 4.7 2.6 10.2 3.4 11.8h-9.7c-.7-1.2-1.7-4.6-2.9-9.7-1.1-5.2-2.9-6.6-6.8-6.7h-2.9v16.4h-9.4V254zm9.5 18h3.7c4.7 0 7.6-2.4 7.6-6 0-3.8-2.6-5.8-7-5.8-2.3 0-3.6.2-4.3.3V272zM815.8 295.2v-41.8h11.1l8.7 15.3c2.5 4.4 5 9.6 6.9 14.3h.2c-.6-5.5-.8-11.2-.8-17.4v-12.2h8.7v41.8h-10l-9-16.1c-2.5-4.5-5.2-9.9-7.3-14.8l-.2.1c.2 5.5.4 11.4.4 18.2v12.6h-8.7zM881.2 284.5l-3 10.7h-9.9l12.9-41.8h12.5l13 41.8h-10.2l-3.2-10.7h-12.1zm10.7-7.1l-2.6-8.9c-.7-2.5-1.5-5.6-2.1-8.1h-.1c-.6 2.5-1.2 5.6-1.9 8.1l-2.5 8.9h9.2zM930.7 261.4h-11.3v-7.9h32.3v7.9h-11.5v33.8h-9.6v-33.8zM978.9 253.5v41.8h-9.6v-41.8h9.6zM1038.3 273.9c0 13.7-8.4 22-20.7 22-12.5 0-19.8-9.4-19.8-21.3 0-12.5 8.1-21.9 20.5-21.9 13 .1 20 9.7 20 21.2zm-30.4.6c0 8.2 3.9 13.9 10.2 13.9 6.4 0 10.1-6.1 10.1-14.2 0-7.5-3.6-13.9-10.2-13.9-6.3 0-10.1 6.1-10.1 14.2zM1057.2 295.2v-41.8h11.1l8.7 15.3c2.5 4.4 5 9.6 6.9 14.3h.2c-.6-5.5-.8-11.2-.8-17.4v-12.2h8.7v41.8h-10l-9-16.1c-2.5-4.5-5.2-9.9-7.3-14.8l-.2.1c.2 5.5.4 11.4.4 18.2v12.6h-8.7zM1122.6 284.5l-3 10.7h-9.9l12.9-41.8h12.5l13 41.8h-10.2l-3.2-10.7h-12.1zm10.7-7.1l-2.6-8.9c-.7-2.5-1.5-5.6-2.1-8.1h-.1c-.6 2.5-1.2 5.6-1.9 8.1l-2.5 8.9h9.2zM1166.4 253.5h9.6v33.8h16.7v7.9h-26.3v-41.7zM416.1 328.4c2.5-.5 7.6-.9 12.3-.9 5.8 0 9.4.6 12.4 2.4 2.9 1.5 5.1 4.4 5.1 8.2 0 3.7-2.2 7.2-6.9 8.9v.1c4.8 1.3 8.4 4.9 8.4 10.3 0 3.8-1.7 6.8-4.4 8.9-3.1 2.4-8.2 3.8-16.5 3.8-4.7 0-8.2-.3-10.3-.6v-41.1zm9.4 16h3.1c5 0 7.7-2 7.7-5.1 0-3.2-2.4-4.8-6.7-4.8-2.1 0-3.2.1-4.1.2v9.7zm0 18.5c.9.1 2.1.1 3.7.1 4.3 0 8.1-1.6 8.1-6 0-4.2-3.8-5.9-8.6-5.9h-3.2v11.8zM476 327.9v41.8h-9.6v-41.8h9.6zM496.8 328.4c2.5-.5 7.6-.9 12.3-.9 5.8 0 9.4.6 12.4 2.4 2.9 1.5 5.1 4.4 5.1 8.2 0 3.7-2.2 7.2-6.9 8.9v.1c4.8 1.3 8.4 4.9 8.4 10.3 0 3.8-1.7 6.8-4.4 8.9-3.1 2.4-8.2 3.8-16.5 3.8-4.7 0-8.2-.3-10.3-.6v-41.1zm9.5 16h3.1c5 0 7.7-2 7.7-5.1 0-3.2-2.4-4.8-6.7-4.8-2.1 0-3.2.1-4.1.2v9.7zm0 18.5c.9.1 2.1.1 3.7.1 4.3 0 8.1-1.6 8.1-6 0-4.2-3.8-5.9-8.6-5.9h-3.2v11.8zM547.1 327.9h9.6v33.8h16.7v7.9h-26.3v-41.7zM616.7 352h-15.5v9.9h17.3v7.8h-26.8v-41.8h26v7.7h-16.4v8.7h15.5v7.7zM663.1 359.9c2.6 1.3 6.5 2.6 10.5 2.6 4.4 0 6.7-1.8 6.7-4.5 0-2.6-2-4.1-7.1-5.9-7-2.4-11.5-6.3-11.5-12.3 0-7.1 6-12.6 15.9-12.6 4.7 0 8.2 1 10.7 2.1l-2.1 7.6c-1.7-.8-4.7-2-8.8-2-4.1 0-6.1 1.9-6.1 4 0 2.7 2.4 3.8 7.8 5.9 7.4 2.7 10.9 6.6 10.9 12.5 0 7-5.4 13-17 13-4.8 0-9.6-1.2-11.9-2.5l2-7.9zM747.7 348.3c0 13.7-8.4 22-20.7 22-12.5 0-19.8-9.4-19.8-21.3 0-12.5 8.1-21.9 20.5-21.9 12.9.1 20 9.7 20 21.2zm-30.4.6c0 8.2 3.9 13.9 10.2 13.9 6.4 0 10.1-6.1 10.1-14.2 0-7.5-3.6-13.9-10.2-13.9-6.4 0-10.1 6.1-10.1 14.2zM797.4 368.5c-1.7.9-5.7 1.8-10.8 1.8-14.5 0-22-9-22-20.9 0-14.3 10.2-22.2 23-22.2 4.9 0 8.7 1 10.4 1.9l-1.9 7.5c-1.9-.8-4.6-1.5-8-1.5-7.6 0-13.4 4.5-13.4 13.8 0 8.4 5 13.6 13.5 13.6 2.9 0 6.1-.6 7.9-1.4l1.3 7.4zM825.8 327.9v41.8h-9.6v-41.8h9.6zM871.7 352h-15.5v9.9h17.3v7.8h-26.8v-41.8h26v7.7h-16.4v8.7h15.5v7.7zM898.3 335.8H887v-7.9h32.3v7.9h-11.5v33.8h-9.6v-33.8zM944.2 369.6v-17.1l-13.3-24.7h10.9l4.3 10c1.3 3 2.2 5.3 3.2 8h.1c.9-2.6 1.9-5 3.2-8l4.2-10h10.7l-13.9 24.4v17.4h-9.4z"/></g></svg>
