<svg xmlns="http://www.w3.org/2000/svg" fill-rule="evenodd" clip-rule="evenodd" image-rendering="optimizeQuality" shape-rendering="geometricPrecision" text-rendering="geometricPrecision" viewBox="0 0 1925.3 1200.7"><defs><style>.fil0,.fil1{fill:#eb833b;fill-rule:nonzero}.fil1{fill:#2a457d}</style></defs><g id="Ebene_x0020_1"><g id="_2287780945392"><path d="M205 851c-11-12-27-18-49-18-21 0-37 6-48 18-12 12-17 29-17 52s5 41 17 53c11 12 27 18 48 18s37-6 49-18c11-12 17-30 17-53 0-22-6-40-17-52zm-75 18c6-8 15-12 26-12 24 0 35 15 35 46s-11 47-35 47c-11 0-20-4-26-12s-9-19-9-35c0-15 3-27 9-34zm-2-51c2 2 5 3 9 3s7-1 10-4c2-2 3-5 3-9s-1-7-3-9c-3-2-6-3-10-3s-7 1-9 3c-3 2-4 5-4 9s1 7 4 10zm38 0c2 2 6 3 9 3 4 0 8-1 10-4 2-2 4-5 4-9 0-3-2-7-4-9s-6-3-10-3c-3 0-7 1-9 3-3 2-4 5-4 9 0 5 1 8 4 10zm158 94c-4-7-13-13-26-19l-19-10-5-5-2-7c0-4 1-8 4-10 3-3 7-4 13-4l14 2 18 6 10-23-21-7-20-2c-15 0-26 3-34 10s-13 17-13 29c0 7 2 12 4 17l10 13 19 11 18 9 7 6 2 8c0 4-2 8-5 11-4 2-9 3-15 3l-18-2-23-9v27c11 6 24 8 39 8 16 0 28-3 37-10 9-8 13-17 13-30 1-9-2-16-7-22zm86-53h37v-24H343v24h37v113h30V859zm137 89h-50v-35h47v-24h-47v-30h50v-24h-79v137h79v-24zm58-89h9c10 0 17 1 21 4s7 7 7 14c0 6-2 11-7 14-4 3-11 5-20 5h-10v-37zm16 61 33 52h32l-40-60c8-3 14-8 18-14 5-7 7-14 7-22 0-14-4-24-13-31s-23-10-42-10h-40v137h29v-52h16zm112-61h8c10 0 17 1 21 4 5 3 7 7 7 14 0 6-2 11-7 14-4 3-11 5-20 5h-9v-37zm15 61 33 52h32l-40-60c8-3 14-8 19-14 4-7 6-14 6-22 0-14-4-24-13-31s-23-10-41-10h-41v137h30v-52h15zm162 28h-50v-35h46v-24h-46v-30h50v-24h-79v137h79v-24zm58 24V835h-29v137h29zm108-112 16 6 9-23c-13-7-27-10-40-10s-25 3-34 9c-10 5-18 13-23 24s-8 24-8 38c0 23 6 40 16 52 11 12 26 18 46 18 14 0 27-2 38-7v-24c-14 5-25 7-35 7-23 0-35-15-35-46 0-15 3-26 9-35 6-8 15-12 26-12l15 3zm162-25h-29v54h-55v-54h-29v137h29v-59h55v59h29V835zm64 137V835h-29v137h29zm109-60c-5-7-14-13-27-19l-18-10c-3-1-5-3-6-5l-2-7c0-4 2-8 5-10 2-3 7-4 12-4l15 2 18 6 9-23-20-7-21-2c-14 0-26 3-34 10s-12 17-12 29c0 7 1 12 3 17 3 5 6 9 11 13l18 11 18 9 7 6 2 8c0 4-2 8-5 11-3 2-8 3-15 3l-17-2-24-9v27c11 6 24 8 39 8 16 0 28-3 37-10 9-8 14-17 14-30 0-9-3-16-7-22zm106-52 15 6 10-24c-14-6-27-9-41-9-13 0-24 3-34 9-10 5-17 13-22 24-6 11-8 24-8 38 0 23 5 40 16 52 10 12 25 18 46 18 13 0 26-2 37-7v-24c-13 5-25 7-35 7-23 0-34-15-34-46 0-15 3-26 9-35 6-8 14-12 25-12l16 3zm161-25h-29v54h-54v-54h-29v137h29v-59h54v59h29V835zm114 113h-50v-35h47v-24h-47v-30h50v-24h-79v137h79v-24z" class="fil0"/><path d="M0 1199h51c16 0 28-4 37-11 10-7 14-17 14-29 0-9-2-16-6-21-4-6-10-9-19-11v-1c7-1 12-5 16-10s6-12 6-20c0-12-5-21-14-27-8-5-23-8-42-8H0v138zm29-114h16c8 0 14 1 18 3 4 3 6 6 6 12 0 5-2 9-6 12-3 2-9 4-17 4H29v-31zm18 54c17 0 25 6 25 17 0 6-2 11-6 14s-10 5-18 5H29v-36h18zm112 60v-138h-29v138h29zm34 0h52c15 0 28-4 37-11s13-17 13-29c0-9-2-16-5-21-4-6-10-9-19-11v-1c6-1 11-5 15-10s6-12 6-20c0-12-5-21-13-27-9-5-23-8-43-8h-43v138zm29-114h16c8 0 14 1 18 3 4 3 6 6 6 12 0 5-2 9-5 12-4 3-10 4-18 4h-17v-31zm19 54c16 0 24 6 24 17 0 6-2 11-6 14s-9 5-17 5h-20v-36h19zm161 36h-50v-36h47v-24h-47v-30h50v-24h-79v138h79v-24zm114 24v-24h-56v-114h-29v138h85zm76-53h26v28c-6 2-12 2-18 2-12 0-21-3-27-11s-9-20-9-35c0-14 4-25 11-34 8-8 18-13 30-13 11 0 22 3 32 8l9-23c-13-6-26-9-40-9-23 0-41 6-53 19a69 69 0 0 0-19 52c0 23 5 40 16 52 11 13 27 19 48 19a160 160 0 0 0 49-8v-72h-55v25zm167 29h-50v-36h46v-24h-46v-30h50v-24h-80v138h80v-24zm102-37c-4-6-13-13-26-19l-19-9-5-6-2-7c0-4 2-7 4-10 3-2 8-4 13-4l14 2 19 7 9-23c-7-3-14-6-20-7l-21-3c-15 0-26 4-34 11s-13 16-13 28c0 7 2 12 4 17l10 13c5 4 11 8 19 11l18 10 7 6 2 7c0 5-2 8-5 11-3 2-8 4-15 4l-18-3-23-9v27c11 6 24 9 39 9 16 0 28-4 37-11s14-17 14-29c0-9-3-17-8-23zm112 37h-50v-36h46v-24h-46v-30h50v-24h-79v138h79v-24zm114 24v-24h-56v-114h-29v138h85zm109 0v-24h-56v-114h-29v138h85zm97-61c-4-6-13-13-26-19l-18-9-6-6-2-7c0-4 2-7 4-10 3-2 8-4 13-4l14 2 19 7 9-23c-7-3-14-6-20-7l-21-3c-14 0-26 4-34 11s-12 16-12 28c0 7 1 12 3 17l10 13c5 4 11 8 19 11l18 10 7 6 2 7c0 5-2 8-5 11-3 2-8 4-15 4l-18-3-23-9v27c11 6 24 9 39 9 16 0 28-4 37-11s14-17 14-29c0-9-3-17-8-23zm107-52 15 7 9-24c-13-7-27-10-40-10s-24 3-34 9c-10 5-17 14-23 25-5 10-7 23-7 37 0 23 5 40 16 52 10 13 25 19 45 19 14 0 27-3 38-7v-25c-13 5-25 7-35 7-23 0-34-15-34-46 0-14 2-26 9-34 6-8 14-13 25-13l16 3zm161-25h-29v54h-54v-54h-30v138h30v-60h54v60h29v-138zm151 138-49-138h-36l-48 138h31l10-33h50l10 33h32zm-85-58 18-59 3 9 15 51h-36zm131 3h46v-24h-46v-35h50v-24h-79v138h29v-55zm130-59h37v-24h-104v24h38v114h29v-114z" class="fil1"/><path d="M1350 137v421l-373 66 99-5 36-2 319-16V123z" class="fil0"/><path d="m1292 0-233 122-85-112v581l318-114z" class="fil0"/><path d="M917 507V167L599 0v477l231 83 87 116z" class="fil1"/><path d="m801 604-260-46V137l-82-14v478l319 16 35 2z" class="fil1"/></g></g></svg>
