<svg xmlns="http://www.w3.org/2000/svg" viewBox="0 0 1882 579.1"><g><path fill="#fcfcfc" d="M289.8 583.6H3.5c-2.4 0-3-.5-3-3Q.7 294.1.6 7.5c0-2.4.5-3 3-3h573.1c2.4 0 3 .5 3 3q-.1 286.6 0 573.2c0 2.4-.5 3-3 3z" transform="translate(-.6 -4.6)"/><path d="M320.9 376.6c1.1 1.1 2.9.1 4 1.2s1.9.4 3.4.4c-1.2-2.2-3.1-3.2-4-4.9-16.1-18.4-31-37.7-43.8-58.5a378.6 378.6 0 0 1-21.2-39.9l-1.8-3.9c-1.1.9-.5 1.8-.3 2.6 2.3 13.7 4.5 27.5 6.9 41.1.6 3.4-.6 6.4-1.5 9.4a126.4 126.4 0 0 0-4.2 32.7c0 21.6 4.7 41.7 18.7 59.3a367.6 367.6 0 0 1 45.3 72 211.1 211.1 0 0 1 11.8 31.2 1.7 1.7 0 0 1-.3 1.8c-3.6-5.8-7-11.5-10.6-17.1-11.1-17.1-22.4-33.9-37.1-48.3-.7-.7-1.3-2.2-2.4-1.8s-1.2 1.9-1.5 3.1c-3.5 13.3-7.1 26.6-12.3 39.4s-12.9 27.1-24.7 37-25.6 13.4-40.7 12.4a92.7 92.7 0 0 1-34.9-9.9 279 279 0 0 1-52.4-33.3 275.4 275.4 0 0 1-52.2-55.9 269.7 269.7 0 0 1-33-63.7 258.8 258.8 0 0 1-12.9-51.9 271 271 0 0 1-2.9-43.8 276.7 276.7 0 0 1 5-48.1 271.6 271.6 0 0 1 504.9-77.5 267.4 267.4 0 0 1 21.4 51.4 271.2 271.2 0 0 1 7.4 125.4 266.4 266.4 0 0 1-19.7 64.2 270.4 270.4 0 0 1-39.8 63.2 276.4 276.4 0 0 1-53 48.4c-.5.3-.9 1-1.9.7-.4-3.9-.1-7.9-.8-11.9-2.5-12.4-7.6-23.8-13.7-34.8-9.7-17.7-21.5-33.9-34-49.7-1.7-2.2-3.4-2.8-6.3-2.5-25.3 3-46.4-4.5-62.4-24.9a115.8 115.8 0 0 1-9.6-14.8c-.6-1.2-.6-2.4 1.1-1.8s4.3.6 6 2z" transform="translate(-.6 -4.6)" fill="#698e30"/><path fill="#c0d19d" d="M324.3 373.3c2.1 1.4 3.5 3.4 5.4 5.5-2.2.6-3.5-.2-4.8-1l2.1-.3c-.6-1.8-2.7-2.3-2.7-4.2zM320.9 376.6a49.8 49.8 0 0 1-5.4-1.4c-1.5-.6-1.6.2-1.5 1.2s-1.4-.8-1.1-1.6a1.3 1.3 0 0 1 1.6-.8c2.1.9 4.7.6 6.4 2.6z" transform="translate(-.6 -4.6)"/><path fill="#fcfcfc" d="M333.7 121.8c15.6-1.9 30.3-2.6 45.7-.5-2.2 2-3.7 3.6-5.4 5-5.9 4.7-8.8 11.1-10.3 18.3-.5 2.6-1.6 5.1-2.1 7.7s-1.8 2.3-3.5 1.8l-3.6-1.3c-1.7-.5-3.6-2.3-5-.5s-2.9 4.3-2.3 7.1 1.1 5.7 1.5 8.5-.9 5.4-4.9 4.8c-7.6-1.2-13.9-5.4-20.2-9.4a88.3 88.3 0 0 1-15.1-12.4c-.7-.7-1.3-1.7-2.7-1.9a17.4 17.4 0 0 0 1.9 5.7c5.7 13 12.9 24.9 24.9 33.1a34.6 34.6 0 0 0 19.9 6.2c7.6 0 11.4-5.4 9.5-12.8a56.7 56.7 0 0 0-6.4-14.3c-.5-.8-1.8-1.8-.9-2.8s2-.4 3.1-.3c19.7 1.4 35.6 10.8 49.5 24 19.3 18.3 33.5 40.5 46.1 63.7 13.7 25.1 24.8 51.4 34.5 78.2 5.1 14.1 9.6 28.3 14.2 42.5a15.1 15.1 0 0 0 .4 2.2c1.1 2.2 0 2.5-1.9 2.7a77.1 77.1 0 0 1-27.3-3.2 118.9 118.9 0 0 1-22-8.8c-2-1-2.7-.2-3 1.7a74.5 74.5 0 0 1-4.4 14.7 13.7 13.7 0 0 1-4.5 6.1c-9.8 7.5-19.8 14.6-31.2 19.3-.9.4-1.9.8-2.7.2s-.9-1.9-.5-2.9c1-2.9 3.5-4.8 5.4-7 3.7-4.2 7.4-8.2 10.6-12.8s1.9-8.3 3.3-13.2l-7.4 4.8a3.4 3.4 0 0 1-3.6.3c-2.8-1.4-3.3-2.6-1-4.8 5.7-5.4 8.5-12.9 13.8-18.5 1.1-1.1.5-2.2-.7-2.4-6.8-1.2-7.2-6.6-8.1-11.8l-1.2-6.3c-.4-2.1-1.5-2.4-3.1-2.8a96.7 96.7 0 0 0-34.5-1.9 125.8 125.8 0 0 0-35.6 9.2 71.7 71.7 0 0 0-10.1 5.3c.9 1.1 1.6.5 2.4.3 18.1-4.4 36.4-6.7 55-4.3a42.9 42.9 0 0 1 16 5.5c3.3 1.9 3.4 2.7.7 5.5-5.5 5.8-12.5 9.1-19.9 11.9-16.6 6.3-33.2 4.8-49.8-.2a11.9 11.9 0 0 1-5.8-3.8 494.9 494.9 0 0 1-62.4-91.6q-10-18.8-18-38.6c-1.2-2.9-2.2-2.8-4.3-1-10.7 9.3-20.2 19.8-29.3 30.7C201 276.3 186 297 171.5 318q-6.5 9.4-12.6 19c-1.2 1.8-2.1 2.1-4 .9a174.9 174.9 0 0 1-44.3-40.6c-1.1-1.4-2-3.9-3.7-3.6s-1.2 3.1-1.5 4.7a31.4 31.4 0 0 0 0 9.3c.8 7.4-.6 15 1.5 22.4.4 1.3-.6 2-1.7 2.2s-3.8.1-4.8-1.7a44.1 44.1 0 0 1-2.1-5.4c-.3-.7-.3-1.6-1.1-1.8s-1.2.8-1.5 1.3-4.6 4.2-3.9 5.9c1.6 3.7 1.6 8 4.4 11.2s3.4 3.8 3.9 6.5a3.1 3.1 0 0 1-1.2 3.4c-1.2.8-1.9-.4-2.7-1l-4.7-3.6c1.1 3.5 2 6.3 2.8 9.2a12.7 12.7 0 0 1 .5 2.8c.1 1.9-.4 3.9-2.2 4.6s-2.7-1.5-3.4-2.7c-4.3-8.1-10.2-15.4-12.9-24.3s-3.4-16.6-4-25a17.3 17.3 0 0 1 2.1-9c2-4.1 4.1-8.2 5.9-12.4 2.6-6.1 6-11.6 11.1-15.8 1.8-1.5 2-2.9.5-4.5s-1.7-4.8.5-7.3A387.1 387.1 0 0 1 166 198a381.2 381.2 0 0 1 62.3-34.1c2.3-1 4.6-2.2 5.5-4.7 2.4-6.7 8.1-8.4 14.2-9.8s12.7-3 18.9-5 12.4-9.7 12.4-18.1c0-4-.3-7.9 1-11.8 2.4-7.3 7.5-12.4 13.9-16.2s10.7-8.4 12.9-15.8c3.8-12.8 15.9-19.5 30.4-18.4 24.2 1.9 41.7 14.4 54.9 34 1.8 2.7 1.7 4.5-.8 6.7a26.8 26.8 0 0 1-14.6 6.7c-9.1 1.2-18.3 1.7-27.4 3.5a62.5 62.5 0 0 0-13.9 4.8 13.7 13.7 0 0 0-2 2z" transform="translate(-.6 -4.6)"/><path d="M170.6 428c-.1 3.7-.8 7.2-4.4 8.9s-6.7.4-9.6-1.7c-6.8-5-8.4-12.3-8.1-20.2.1-1.5.9-2.1 2.3-1.7 6.1 1.6 12.1 3.6 17.1 7.5 2.4 1.7 2.8 4.4 2.7 7.2z" transform="translate(-.6 -4.6)" fill="#f6f7f3"/><path d="M127.7 429.9c2.5-.4 3 .9 2.8 3.4a53.1 53.1 0 0 1-4.3 16.4c-2.3 5.2-5.9 6.8-10.4 4.9s-7.3-7.7-5.6-12.2c2.9-7.7 9.6-12.5 17.5-12.5z" transform="translate(-.6 -4.6)" fill="#f8f9f5"/><path d="M136.4 390.6c-.1 1.9.1 3.8-1.1 5.6s-4.1 3.5-6.9 2.2c-6.7-3.1-8.5-5.6-8.3-12.5a57.6 57.6 0 0 1 1.4-13c.4-1.7 1-2 2.7-1.4 7.3 2.4 12.2 9.9 12.2 19.1z" transform="translate(-.6 -4.6)" fill="#f6f7f2"/><path d="M175.2 476.8a6.2 6.2 0 0 1-3.8 6.8c-3.8 1.9-7.5.5-10.8-1.8-5.7-3.9-7.3-10.3-9.5-16.3-.6-1.5.7-2.1 2.1-2 6.3.7 12.5 1.6 17.9 5.2 3.3 2.2 4.1 3.8 4.1 8.1z" transform="translate(-.6 -4.6)" fill="#f8f8f5"/><path d="M378.9 220.2a416 416 0 0 1 20.5 48.9 412.6 412.6 0 0 1 13.2 44.5c.6 2.5.2 3-2.3 2.6-5.5-.8-11-1.4-16.6-2-2.1-.2-3.2-.9-3.2-3.4.2-23.7-3.4-46.9-8.3-70l-3.8-18.2a2.7 2.7 0 0 1 .5-2.4z" transform="translate(-.6 -4.6)" fill="#698d30"/></g><g id="Layer_2" data-name="Layer 2"><path fill="#695e4a" d="M683.4 406.2c14.3 4.4 23.5 13.6 26 28.4 3.8 21.8-7.4 41.6-28.2 50.7a66.4 66.4 0 0 1-25.2 5.9c-17.4.3-34.8-.1-52.2 0-3.4 0-4.8-.7-4.8-4.6q.2-73.9.1-147.7c0-4.5 1.9-7.6 6.4-7.6 22.5 0 45-3 67.4.9 18.1 3.1 29.9 13.5 33.2 28.7 3.6 16.8-3.2 32.7-17.8 41.8-1.5.9-3.6 1.2-4.9 3.5zM822.2 389.9c9.8-14.5 22.6-19.5 38.1-18.7s28.4 8.4 34.5 23.7c8.6 21.5 8.4 43.4-1 64.6s-28.5 32.5-52.2 33.9a150.1 150.1 0 0 1-43-4c-4-.9-5.5-2.3-5.5-6.6q.2-71.8-.1-143.7c0-5.2 1.8-7.8 7.2-7.7s12.7.2 19 0c3.4-.1 4.3 1.2 4.2 4.5-.4 17.4.9 34.8-1.2 54zM1184.7 257.5c-9.5 13.4-22 19.3-37.8 19.2-17.6-.2-31-9-37-25.5-7.3-20.3-7.3-40.8.8-60.9 9.2-22.9 27.1-34.1 51.3-36a55.3 55.3 0 0 1 13.6.2c6 1.1 6.8-1.6 6.6-6.6-.3-8.7.1-17.4-.2-26.1-.2-5.5 2.2-7.6 7.4-7.4s11.9.2 17.8 0c3.8-.2 5.2.9 5.1 4.9-.3 10.7-.1 21.4-.1 32.1 0 39-.1 78 .1 117 0 4.7-1.3 6.2-5.9 5.9a141.4 141.4 0 0 0-15.4-.1c-5.2.2-7.2-2.2-6.8-7.2.3-3.3.4-6.4.5-9.5zM1767.5 373.5c9.6 0 19.3.1 29 0 4.3-.1 5.1 3.1 6.2 6 7.9 23 17.1 45.5 22.6 70.1 4.4-13.6 8.4-26.3 12.6-39 3.5-10.5 7.3-20.9 10.8-31.3 1.4-4.1 3.5-6.1 8.2-5.9 7.3.4 14.6.2 22 .1 3.1 0 4.9 0 3.3 4.1-17.6 45.9-34 92.2-52.4 137.8a82.3 82.3 0 0 1-4.2 8.5c-11 20.2-25 28.9-54.2 25.1-4.5-.6-6.2-2.6-5.7-7s1-10.6 1.2-16c.1-3.1 1.1-4.3 4.3-3.4 21.3 5.5 28-2.2 34.9-19.9 3-7.7 3.2-14.5.1-22.5-12.9-33.5-25-67.3-37.4-101.1-.8-1.8-1.8-3.3-1.3-5.6zM1188.2 493.7c-8.6.1-17-1.2-25.4-2.5-4.7-.7-6.4-3-5.9-7.7.7-6.3 1.1-12.6 1.3-18.9.1-3.3 1.3-3.4 4-2.6a99.6 99.6 0 0 0 32.7 4.4 32.8 32.8 0 0 0 13.7-3.3c13.2-6.6 14.6-23.4 2.6-32-7.3-5.2-15.9-7.7-24.1-11.1s-15.3-6.5-21.5-12.2c-21-19.2-16.4-55.2 9-70 14.6-8.5 30.6-10 47-9 5.7.3 11.4 1.4 17.1 1.9 3.1.3 4 1.5 3.7 4.5-.6 5.5-.9 11-1 16.6s-1.5 6.7-6.9 5.5c-10.8-2.5-21.8-4.3-32.9-1.7a27.9 27.9 0 0 0-7.1 2.7c-11 6.3-12.1 20.3-2.2 28.2 6.3 5 13.9 7.4 21.1 10.6s11.6 5 17.2 7.9c30.6 15.8 24.9 53.3 9.9 69.1s-32.5 19.5-52.3 19.6zM674.6 276a93.9 93.9 0 0 1-30.5-3.4c-22-6.6-36.2-21.2-42.5-43.2a110.2 110.2 0 0 1 1.7-67.6c11-31.5 34.6-46.2 66.9-48.6 12.5-.9 24.8.6 37.1 3 2.9.6 4 1.8 3.6 4.8-.7 5.1-1 10.2-1.8 15.3-1.3 8.9-1.3 8.9-10 7.2a142.6 142.6 0 0 0-20.5-2.6c-27.2-1.5-41.5 16-45.5 36.6a88.6 88.6 0 0 0 .8 38.2c6.3 25.9 26.8 34.2 50.7 31.8a75.1 75.1 0 0 0 20.7-4.9c2.7-1.1 3.9-.7 4.2 2.4.6 5.9 1.3 11.8 2.3 17.6s-1.1 7.1-5.8 8.4a131.3 131.3 0 0 1-31.4 5zM1268.8 435.1c0-28.6 13.2-50.5 36.6-59.7 16.3-6.4 32.9-6 49.2.4 12.1 4.8 20.2 13.7 24.6 25.8 6 16.7 6.7 33.7 1.3 50.7-8.8 28.1-35.1 44.7-64.3 41-32.3-4.2-47.3-22.7-47.4-58.2zM1454.2 173.6c12.4-16.5 28.4-21.7 47.6-19.2 14.8 1.9 24.8 12.7 26.2 28.5 1.6 18.4.4 36.8.7 55.2.1 8.9 0 17.8 0 26.7s-1 9.3-9.1 9.3c-5.1 0-10.3-.3-15.4.1s-6.1-.9-6-5.7c.3-22.5.1-45.1.1-67.7 0-1.8.1-3.6 0-5.3-1-14.9-12.8-21-25.3-12.6s-15.9 20.3-16.1 33.9c-.3 16.4-.1 32.8-.1 49.3 0 6.8-1.2 8-7.8 8.1s-12.3-.1-18.4.1c-3.2.1-4.5-.7-4.5-4.2q.2-54.6 0-109.2c0-2.9.5-4.4 3.8-4.3 6.3.2 12.7.1 19 0 4.6 0 6.4 2.4 6.1 6.7s-.6 6.8-.8 10.3zM885.4 174.1c7.3-10.1 15.7-16.7 27.1-19.1a53.6 53.6 0 0 1 21.8-.3c15 2.9 24.4 14.7 24.7 31.9.4 27.1.1 54.2.1 81.3 0 3.9-1.7 6.1-5.6 6.1-7.1.1-14.2-.1-21.4.1-4.3.1-3.4-2.9-3.4-5.3v-65.3a97.9 97.9 0 0 0-.4-11.8c-1.2-9.5-8-14.1-17.3-12-7.6 1.7-12.9 6.5-16.9 13-5.6 8.9-6.7 18.8-6.7 29v44.5c0 6.7-1.3 7.8-8 7.9s-12.3-.2-18.4.1c-3.2.1-4-1.1-4-4.1q.1-54.9 0-109.8c0-3.4 1.4-3.9 4.2-3.8 5.9.2 11.9.2 17.8 0s6.8 2.1 6.6 6.8c-.3 3.2-.2 6.4-.2 10.8zM1052.9 256.8c-9.7 14.2-22.4 19.9-37.8 19.6-13-.3-24.6-4.2-29.8-17.3s-3.7-26.5 6.2-37.7 22.2-14.8 35.6-17.2a170.1 170.1 0 0 1 19.4-2.1c3.1-.2 3.9-1.2 4-4.2.4-12.9-4.9-19-17.9-20.2-11.1-1-21.6 1.5-31.9 5.3-7.2 2.7-7.9 2.2-9-5.3-.3-2.3-.4-4.7-.6-7.1-.9-10.2-.9-10.2 8.9-12.7 16.1-4.1 32.4-5.9 48.8-2.9 22.5 4 31.7 14.8 32.1 37.7.5 25.7.4 51.4.7 77.2 0 3.4-1 4.5-4.4 4.3-5.5-.2-11.1-.3-16.6 0s-8.1-2.1-7.6-7.7c.1-2.8-.1-5.5-.1-9.7zM1368.4 256.1c-9.6 14.6-22.5 20.7-38.5 20.3-12.3-.2-23.4-3.9-29-15.9s-4.8-25.2 3.5-36.5 22.8-17.2 37.3-19.8a200.7 200.7 0 0 1 20-2.1c2.6-.2 3.6-.9 3.7-3.8.6-13-4.7-19.2-17.5-20.5-11.1-1.1-21.6 1.3-31.9 5.1-7.6 2.8-8.3 2.4-9.2-5.4-.4-3.5-.4-7.2-1.3-10.6s.5-6.6 4.9-7.8c16.4-4.6 32.9-6.5 49.9-4.7 23.7 2.5 35 14.3 35.5 38.5.6 25.7.3 51.5.5 77.2 0 3.1-1 4.1-4.1 4-5.9-.2-11.9-.1-17.8 0s-7.2-2.4-6.7-7.4c.4-3.1.4-6.3.7-10.6zM798.5 256.6c-9.4 14.3-22.3 20.1-37.9 19.8-12.8-.2-24.1-4-29.6-16.8s-4.1-25.6 4.8-36.8 22.3-15.9 36.1-18.5a191.2 191.2 0 0 1 20-2.1c2.7-.2 3.6-1 3.8-3.9.7-12.9-4.5-19.3-17.3-20.5-10.9-1-21.2 1.2-31.3 5-8.4 3.1-9.2 2.5-10-6.5-.2-2-.2-4-.4-5.9-1.4-11.3-2.7-9.2 8-12.1 17.3-4.7 35-6.3 52.8-2.7s28.3 15 28.7 33.8c.5 26.9-.4 53.8 1 80.6.2 3.7-1.3 4.2-4.4 4.1-5.7-.2-11.5-.2-17.2 0s-7.3-2-7-7.1c.1-3.1-.1-6.2-.1-10.4zM1047.4 437.3c-10.7 0-21.4.1-32.1-.1-3.6-.1-4.7.9-4.6 4.7.7 18.3 13.9 29.1 34.7 27.7 9.5-.6 18.9-2.1 27.7-5.9 3.4-1.4 4.4-.9 4.6 2.8s1.2 9.8 1.9 14.7c.4 3-.6 5.1-3.5 6-21.2 6.6-42.5 9.3-64.1 2.3-14.3-4.6-24-14.4-28.4-28.8-6.7-22.2-6.3-44.2 5.1-64.9 17.8-32.2 65-30.7 82.2-11.3 11 12.4 14 27.2 13.1 43-.5 9.8-.9 9.8-10.6 9.8zM1634.5 437.3c-10.3 0-20.6.3-30.9-.1-5.5-.2-6.2 1.9-5.5 6.5 2.7 19.1 14.3 26.5 35.3 25.8a75.5 75.5 0 0 0 27.1-5.8c3.6-1.5 4.5-.4 4.8 2.9.4 4.9 1 9.8 1.6 14.7.4 3.4-1 5.2-4.1 6.2-19.4 6-39.1 8.4-59 3.4-16.8-4.2-28.3-14.8-33.2-31.6-5.6-19.1-5.3-38.2 2.2-56.9 16.5-40.9 70.7-38 87.4-16.1 8.9 11.7 11.7 24.8 11.5 39-.2 11.9-.4 11.9-12.2 11.9zM1696.3 403.9c0-20.2.1-40.4-.1-60.5-.1-4.7 1.6-6.8 6-7.8 6.3-1.4 12.7-3 18.9-5.1 4.2-1.4 5.5-.6 5.4 3.9-.3 11.3.1 22.6-.2 33.8-.1 4.2 1.1 5.6 5.3 5.3s10.7.3 16-.2 5.9 1.5 5.5 5.7 0 6.7-.1 10.1c-.2 6.9-1.3 8-8 8-4.9.1-9.9.1-14.8 0-2.8-.1-3.8.8-3.8 3.7.1 17.4-.3 34.8.2 52.2.3 12.3 6 15.9 20.4 14.2 8-1 8-1 8 7v6.5c0 10-.1 10.2-9.8 11.5-8 1.1-16.1 1.9-24.2.7-16.4-2.5-23.8-10.1-24.3-26.8-.6-20.8-.1-41.5-.1-62.3zM1484.1 461.9c.7 7.9 1.5 15.3 2.1 22.8.2 2.6-1.7 3.8-4 4.5-17.3 4.9-34.6 6.4-51.9.1-14.8-5.4-23.2-16.7-26.8-31.6a88.1 88.1 0 0 1 1.3-47.4c7.2-23 25.1-36.8 50.1-38.7a97.8 97.8 0 0 1 27.1 2c3.8.8 4.3 2.4 3.8 5.7a113.7 113.7 0 0 0-1.9 15.3c-.1 5.6-2.8 6.3-7.3 4.9a53.3 53.3 0 0 0-13.4-2.3c-13.6-.6-23.4 5.9-27.6 18.7a54.3 54.3 0 0 0-.6 32.7c3.4 11.7 11.8 17.8 24.1 18.2a58.8 58.8 0 0 0 25-4.9zM955.3 410.2v73c0 6.8-1 7.8-8 7.9s-11.9-.2-17.8.1c-3.9.2-5-1.1-5-5 .2-17.8.1-35.6.1-53.4v-91.4c0-8.7 1.1-9.8 10-9.8 4.9 0 9.9.3 14.8-.1s6 .9 6 5.8c-.3 24.2-.1 48.5-.1 72.9zM731.9 436.6v-49.3c0-6.8 1.4-8.3 8.4-8.3s11.9.1 17.8-.1c3.2-.1 4.6.7 4.5 4.3q-.2 50.5 0 100.9c0 5-2.2 7.2-7.2 7s-12.7-.3-19 0c-3.8.2-4.6-1.2-4.6-4.7.2-16.6.1-33.2.1-49.8zM1273.3 217.3v46.8c0 9.1-.8 9.9-9.7 9.9-5.7 0-11.5-.1-17.2 0-2.9.1-3.8-1-3.7-3.8q.1-51 0-102c0-3.8 1.6-6.2 5.5-6.3 7.3-.2 14.6-.1 21.9-.2 3.9-.1 3.2 2.7 3.2 5v50.6zM1512.1 436c0-16.4.1-32.8-.1-49.2-.1-5.6 2.2-8 7.7-7.9s12.3.1 18.4 0c3.1-.1 4.6.6 4.6 4.2q-.2 50.7-.2 101.4c0 4.8-2.2 6.7-6.9 6.6-6.3-.2-12.7-.2-19 0-3.7.2-4.7-1.1-4.6-4.7.2-16.8.1-33.6.1-50.4zM1527.6 362.4a16.7 16.7 0 0 1-17-16.8c-.1-8.9 7.4-16.4 16.6-16.6a16.7 16.7 0 1 1 .4 33.4zM1275 128.7c0 9.5-7.4 16.6-17.1 16.6s-17.2-7.8-17-16.9a17 17 0 0 1 17-16.3c9.7 0 17.2 7.2 17.1 16.6zM747.6 329.2c9.5.1 16.8 7.2 16.9 16.3a16.8 16.8 0 0 1-17.5 16.9c-9.7-.3-16.6-7.6-16.4-17.3s7.4-16 17-15.9z" transform="translate(-.6 -4.6)"/><path fill="#fefefe" d="M630.4 442.9v-18.4c0-2 .1-3.4 2.7-3.5 10.1-.5 20.2-.8 29.9 2.6s13.5 8.7 14.1 17.9a21.3 21.3 0 0 1-12.4 21.2c-10.1 4.8-20.8 4-31.5 2.9-2.9-.3-2.8-2.2-2.8-4.2V443zM630.5 376.6v-17.2c0-1.8-.2-3.7 2.5-3.6 9 .1 18.1-1.2 27.1 1.1 7.2 1.8 12.5 5.8 13.8 13.6s-.4 16.2-8.1 21.3-15.8 5.7-24.4 5.6c-10.9-.1-10.9 0-10.9-10.7v-10.1zM868.5 428.7c.2 8.6-.8 16.2-3.7 23.5-5.8 14.4-25.8 22.1-39.6 15.4a3 3 0 0 1-1.8-3.3c.4-13.6-1.2-27.3 1.2-40.9 1.4-7.9 4.2-15.2 10.1-21 10.8-10.5 26.4-7 31.3 7.3a50.8 50.8 0 0 1 2.5 19zM1182.2 199.8c.1 9.5.4 19-2.1 28.3-1.8 6.8-4.7 13-10 17.9-10.6 9.7-25.8 6.3-30.1-7.2a64.6 64.6 0 0 1 .9-43.6c4.6-12.1 15.6-18.1 29-16.7s12.4 1.3 12.4 13.8q-.1 3.7-.1 7.5zM1352.5 429.8c-.2 10.1-1.1 17.9-5.2 24.9-5.2 9.1-13.1 13.4-23.6 12.6s-17.2-6.5-20.5-16.2a58.8 58.8 0 0 1-1-34.4c3.4-12.8 13.8-20.3 26.1-19.8s20 7.4 22.8 21.5a111.6 111.6 0 0 1 1.4 11.4zM1025.4 252.9c-7 0-11.5-2.9-13.2-8.6a13.5 13.5 0 0 1 5.7-15.5c9.1-6.1 19.7-6.3 30.1-6.8 1.7-.1 2.4.7 2.4 2.5-.1 15.7-11.8 28.8-25 28.4zM1340.4 252.9c-6.8 0-11.5-2.9-13.1-8a13.7 13.7 0 0 1 5.3-15.8c9.2-6.5 20.1-6.4 30.7-7 2.1-.1 2 1.4 2 2.8 0 15.7-12.4 28.7-24.9 28zM771 252.9c-6.8 0-11.2-2.7-13.1-8.1a13.4 13.4 0 0 1 4.7-15.4c9.3-6.8 20.3-6.8 31.2-7.4 1.5-.1 1.9.9 2 2.3.5 14.2-10.5 29-24.8 28.6zM1032.5 416.4h-18.4c-1.7 0-2.9.1-2.7-2.5a23 23 0 0 1 24.8-20.4c10.5 1 17.5 8.8 17.8 19.4.1 3.1-1.1 3.6-3.7 3.6-6-.2-11.9-.1-17.8-.1zM1619.8 416.4c-5.9 0-11.9-.1-17.8.1-2.8.1-3.3-.9-3-3.5a22.8 22.8 0 0 1 22.5-19.7c11.5.1 18.4 7.1 19.8 19.3.4 3.7-1 3.8-3.7 3.8-6-.1-11.9 0-17.8 0z" transform="translate(-.6 -4.6)"/></g></svg>
