<svg id="Layer_1" xmlns="http://www.w3.org/2000/svg" viewBox="0 0 1200 600"><path fill="#a2998b" d="M68.6 405.4h10.6v17.7H68.6z"/><path transform="rotate(-72.025 79.16 300.376)" fill="#a2998b" d="M70.9 296.7h16.5v7.4H70.9z"/><path transform="rotate(-53.692 110.122 215.329)" fill="#a2998b" d="M100.6 211.9h19v6.8h-19z"/><path fill="#005581" d="M123 141.2c1.9 5.3 5 9.8 8.8 13.9 7.2 7.5 7.7 14.5 1.7 23.1-7 9.8-13.9 19.4-21 29.2-.4.6-.7.5-.9-.1-1.5-5.3-4.4-9.7-8.1-13.7-7.1-7.5-7.4-14.7-1.5-23.2s11.9-16.9 17.9-25.3c.8-1.2 2.2-2.1 1.9-3.9h1.2z"/><path fill="#a2998b" d="M642.2 360.6c21.7-.8 42.3-1.7 63.3-2.4.7 5 .4 9.3-1.5 14.1-26.3-.2-52.8 0-79.8 1.7V223.8c5.9-1.3 11.6-.9 18-.8v137.6z"/><path fill="#005581" d="M67.3 407.4c-6.5-4.8-13.4-8.4-21.6-9.8-5.3-.9-10.4-3.1-14.6-6.6-5.1-4.2-8.1-9.5-8.1-16.1.1-19.4.5-38.9.7-58.2 0-1.1.1-2.1 1.2-3.2 8 5.5 17.1 8.4 26.6 10.5 12 2.7 18.7 11.6 18.6 23.9 0 19.8-.5 39.7-.7 59.5-.7.7-1.4.6-2.1 0z"/><path fill="#a2998b" d="M77.5 396.8c.1-15 .1-29.8.2-44.8.2-18 9.9-26.5 24.3-27.9 4-.5 7.9-2.1 11.8-3.3 3.9-1.3 7.2-3.7 11-5.3 1.7 1.7.8 3.4.9 5.1.5 17.4-1.3 35-1.1 52.5.2 15.3-8.7 22.4-19.9 24.9-8.6 1.9-17.2 6-25.1 9.4-.7.4-1.7-.1-1.8-.9-.5-3.3-.5-6.8-.3-9.7z"/><path fill="#005581" d="M507.1 372.2c-5.8 1.7-11.3 1.1-17.2 1.5V211.4c5.9-1.8 11.9-1.4 18.7-1.5-2.2 54.4-1.1 108.4-1.5 162.3zM77.6 294.6c-4.6-5.8-10.1-10.3-16.6-14-10-5.8-13-14.4-9.4-25.3 4.6-14.3 9.2-28.5 14-43.8 6 7.4 13.4 11.7 20.6 16.3 7.5 5 9.5 13.3 6.6 23-4.6 14.6-9.3 29.1-13.9 43.6-.5.6-.9.6-1.3.2z"/><path fill="#a2998b" d="M84.3 295.7c4.7-14.5 9.2-29.1 14-43.6 3.7-11.1 11.8-15.6 23.6-13.9 5.1.7 10.4.9 15.4-.5 1.4-.4 2.8-.9 4.4-.1 1.2 1.5.1 2.8-.4 4.2-4 12.5-8.4 24.9-12 37.5-3.9 13.6-14.4 17.8-26.4 15.6-6.2-1.2-11.9.9-17.8 1.9-.3-.2-.7-.6-.8-1.1z"/><path fill="#005581" d="M365.3 270v102c-5.4 2.1-11 1.1-16.9 1.8V271.4c5.4-.8 10.8-1.4 16.9-1.4z"/><path fill="#a2998b" d="M116.5 210.2c6.7-9.5 13.4-19 20.2-28.5 4.2-5.9 6.2-7.1 14.1-9.1 4.4.5 8.3 2.4 12.3 3.9 3.9 1.5 7.8 2.4 12.8 2.5-8.3 11.6-15.7 22.7-24.2 33.2-4.7 5.9-12 5.5-18.5 2.6-5.4-2.5-11-3.8-16.9-3.9.2-.2.2-.5.2-.7z"/><path fill="#005581" d="M364 244.7c-5.2.6-9.7 1.9-14.9 1.7-1.7-8-1.2-16-1.5-24.5 6-1.9 12.3-1.8 19-3.3-.9 9-1.8 17.3-2.6 26.1z"/><path d="M84.3 295.7c.4.4.6.7.9 1.1-.5 0-.8.1-1.3.1l.1.1c.2-.4.3-.9.3-1.3z" fill="#a1988a"/><path fill="#005581" d="M335.5 322.5c-2.4-14-11.1-21.4-23.4-25.1-3.9-1.6-9.3-3.5-9.8-4.1 1.9-.7 3.9-1.2 5.7-2.2 14.9-7.2 20.5-19.6 19.8-35.5-.5-13.3-8-23.5-21.6-28.6-6-2.4-12.4-3.5-18.9-4.1-12.7-1.1-25.5.1-38.2.2-3.2 0-6.4-.6-9.7.6v149.8c17.6.1 34.5-.5 51.5-1.7 9.7-.7 19.1-3.4 27.5-8.8 13.8-8.7 20-23.8 17.1-40.5zm-45-85.3c17.4 5.4 24.6 29.4 13 43.4-3.5 4.4-8.5 6.5-13.8 7.8-10.6 2.7-21.3 2.1-32.1 2.1-.1-18.6-.1-36.8-.1-55.9 11.6.2 22.5-.6 33 2.6zm23.1 110.2c-2.4 4.4-6 7.2-10.5 9.2-3.5 1.7-7.3 2.5-11.2 3.1-11 1.9-22.2.6-34.4 1.8v-59.2c13.3 0 26.9-1.2 40 3.1 16.5 5.3 24.4 26.5 16.1 42z"/><path fill="#a2998b" d="M970.2 357.7c-.4-.2-.8-.5-1.2-.6-10.8-3.9-22.2-5.4-33.5-7-5.7-.8-11.6-.7-17.2-3.3.8-4.6 1.8-8.7 4.6-12.1 4.6 0 9.2.1 13.7 0 9.4-.1 17.8-3.2 25.3-8.6 16.7-11.9 17.1-35.8.6-48.1-1.1-.8-2.9-1.1-4-3.8 6.7-6.7 13.6-13.4 20.6-20.5-5.9-.7-11.6-1.5-17.6-2.4-3.5 6.4-7 12.6-10.4 18.6-2.6-.4-4.8-.7-7.2-1.1-13.3-2.2-25.7 0-37 7.5-19.3 13-19 38.5.4 51.4 2.1 1.4 4.8 1.9 6.1 4.4-9.5 10.6-15.1 18.2-5.9 28.6-10.1 6.6-13.9 10-17.9 16.4-7 11.2-5.4 23.2 3.8 31.7 5 4.5 10.7 7.3 17.1 8.6 16.5 3.3 32.7 1.3 48.3-4.4 9.1-3.3 17.2-8 22.7-16.3 10-14.2 10-31.8-11.3-39zm-59.4-57.8c-.5-12.4 8.5-21.1 22.2-20.7 13.9.4 23.7 8.5 23.9 24.3.2 12.7-7.5 21.1-21.9 21.2-15.8 0-24.8-12.3-24.2-24.8zm60.5 90.6c-1.3 3.3-3.2 6.4-6.1 8.1-16.3 9.8-33.6 12-51.4 4.7-10.1-4.1-12.8-11.9-9.4-22.3 2.1-7 6-12.1 12.7-17.2 13.4 1.1 26.6 2.8 39.5 7 3.9 1.3 7.7 2.8 11 5.4 5 4.1 6.1 8.3 3.7 14.3z"/><path fill="#005581" d="M473.9 292c-6.5-15.7-19.1-23.3-36.2-23.5-11-.1-20.9 2.9-30.3 8.3-1.8.9-3.3 2.9-6.1 2.5 1.1-22.9.7-45.7 1.3-69.2-6.7 0-12.4.7-18 1.7v156.1c16.5 5.2 33 8 50 5.8 14.7-2 27-9.1 35-22 11.8-19.2 12.6-39.5 4.3-59.7zm-15.2 47.1c-3.3 11.3-10.6 18.5-22 21.6-11.6 3.1-23.1 2.2-34.9-.2v-69.4c10.6-6.7 21.6-11 34.3-6.5 14.4 5.1 21.9 15.6 24 30.2 1.2 8 .9 16.3-1.4 24.3z"/><path fill="#a2998b" d="M793.4 317.5c1.7-5.3.1-9.9-.9-14.6-2.1-11-6.1-21.1-15.4-28.3-16.3-12.6-38.2-8-52.5 3.9-17 14.1-22.2 33.1-19.8 54.1 2.2 19.8 12.8 34.1 32.5 40.3 7.2 2.2 14.5 2.5 21.8 1.7 13-1.4 23.5-7.5 31.8-17.4-1.3-2.7-1.8-5.3-4.4-7-15 11.6-31.1 15.3-47.9 4.6-11.3-7.3-17.3-25.8-13.7-38.3 22.8 1.6 45.5.9 68.5 1zm-41-38.4c6-.2 11.4 1.7 15.4 6.6 4.6 5.7 6.8 12.3 7.9 19.9h-50.1c1.7-13.8 13.7-25.9 26.8-26.5z"/><path fill="#005581" d="M601.3 350.2c-14.9 11.4-30.5 15.2-47.2 5.4-11.3-6.7-17.8-24-15.1-38.7 22.9.9 46 .5 69.4.6-.4-12-2.2-23-8.3-32.7-7.1-11.7-17.7-17.6-31.2-17.4-12.1.1-22.7 4.7-31.7 12.8-14.5 13.2-19.3 30.1-18.4 49.2 1.1 20.9 13.2 37.4 32.1 43.5 20 6.5 41.5.4 54.3-15.8-1-2.3-1.7-5-3.9-6.9zm-37.4-70.5c8.5-1.4 15.2 1.4 20 8.6 3.3 4.8 4.7 10.4 6.2 17.3h-50.3c1.9-13 11.9-23.9 24.1-25.9z"/><path fill="#a2998b" d="M878.8 368c-.1-15.6-.2-31.1-.4-46.7 0-9.4.5-19-1.1-28.4-2.4-15.1-11.9-24.9-27.3-24.8-5.9 0-11.7.6-17.3 1.9-7.1 1.5-14.3 3.2-20.6 7.8.2 3.3-.2 6.5.7 9.5 1.8.7 3.2.1 4.6-.2 5.4-1.4 10.8-2.8 16.3-4 13.2-2.8 22.2 2.9 25.6 16.1 1.4 5.8 1.3 11.6.9 18-6.5.2-12.3.7-18 1.5-10.5 1.7-20.7 3.8-29.6 10.3-9.4 6.8-13.6 17.7-10.4 28.3 2.8 9.2 12.5 15.7 23.6 16.1 11.8.5 22-3.3 31.6-9.8 1.9-1.2 3.5-3.1 6-3.1 2.2 4.2 2.8 8.8 5.7 12.7 3.2-.2 6.5.6 9.1-1.4.8-1.2.6-2.5.6-3.8zm-20.2-15.7c-7.8 3.7-15.1 9.2-24.8 8.4-9.3-.9-14.6-5.1-17.3-14 .9-5.5 4.2-8.8 8.6-11.2 10.3-5.7 21.5-8.1 33.5-9.9v26.7zM1121.7 354.6c-12.7-8.6-14.4-23-14.9-38.1 24 1.9 47 .8 70.1 1.3 0-4.4 0-8.7-.1-13.1-2.1-4.7-2.6-9.9-4.7-14.6-7.8-17-21.9-24.4-37.7-22.6-18.4 2.1-31.9 12.1-40.3 28.8-6.6 13.1-7.8 27.1-5.1 41.5 1.7 8.1 5.1 15.6 10.7 21.8 10.8 12 24.4 16.4 40.2 15.4 14.3-.8 25.3-7.3 34.5-17.9-1.3-2.5-2.1-5-4.1-7-15.5 11.9-32 15.8-48.6 4.5zm9-74.4c8.6-2.7 15.8-.2 21.2 6.7 4.1 5.3 6.7 11.3 7 18.2-6.2 1.1-44.4 1.4-50.5.5 3.5-12.6 10-21.7 22.3-25.4zM1058.8 272.2v1.1c0 26.3-.5 51.9-.5 78-12.6 7.2-18.4 8.5-25.5 7.9-16-1.3-26.1-7.7-25.8-26.3.2-18.5 0-37.4-.1-56v-9.4h-16.5v1.2c0 25.8-.8 53.8 0 78.7.6 16.1 11.6 25.1 27.6 26.1 13.4.8 25.5-3.4 37-9.7 1.8-.9 3.2-2.9 5.8-2.4.9 4 1.9 7.9 2.8 11.8 4.4.5 8 .1 11.6-1.7 0-27.6-.7-55.4-1-82.8l1.1-23.6-16.5 7.1z"/><path fill="#005581" d="M243.1 445.4v-28.3h4.4v28.3h-4.4zM298.8 445.4l-18.9-23v23h-4.4v-28.3h5.4l18.6 22.9v-22.9h4.4v28.3h-5.1zM339.8 445.4V421H329v-3.9h26.1v3.9h-11v24.4h-4.3zM380.2 445.4v-28.3h23.2v3.9h-18.9v7.9h17.7v3.9h-17.7v8.5h19.2v3.9h-23.6v.2zM434.9 445.4h-4.4v-28.3h15.6c6.2 0 9.4 2.7 9.4 7.9 0 3.1-1.1 4.8-4 6.6 2.9 1.4 3.4 2.7 3.7 9.1.2 3.2.5 3.8 1.8 3.7v.9h-5.4c-.5-1.7-.5-2-.7-5.7-.4-4.7-1.7-6.2-5.5-6.2h-10.5v12zm10.8-15.5c1.8 0 2.8-.2 3.7-.7 1.2-.7 1.8-2.1 1.8-3.8 0-1.8-.7-3.2-1.8-3.8-.8-.5-1.9-.7-3.7-.7h-10.8v9h10.8zM506.8 445.4l-18.9-23v23h-4.4v-28.3h5.4l18.6 22.9v-22.9h4.4v28.3h-5.1zM545.7 437.3l-3.7 8.1h-5l13.2-28.3h5l13.2 28.3h-5.3l-3.7-8.1h-13.7zm6.8-15.3l-5.2 11.6h10.5l-5.3-11.6zM600.9 445.4V421h-10.8v-3.9h26.1v3.9h-11v24.4h-4.3zM641.1 445.4v-28.3h4.4v28.3h-4.4zM704.4 431.5c0 4-1.5 7.9-4.2 10.5-2.8 2.7-6.8 4.2-11.7 4.2-9.5 0-15.9-5.9-15.9-14.9s6.4-14.9 15.9-14.9c9.7 0 15.9 5.9 15.9 15.1zm-27.4-.2c0 6.7 4.6 11.2 11.6 11.2s11.6-4.5 11.6-11.1c0-7-4.6-11.3-11.6-11.3s-11.6 4.5-11.6 11.2zM754.7 445.4l-18.9-23v23h-4.4v-28.3h5.4l18.6 22.9v-22.9h4.4v28.3h-5.1zM793.6 437.3l-3.7 8.1h-5l13.2-28.3h5l13.2 28.3H811l-3.7-8.1h-13.7zm6.8-15.3l-5.2 11.6h10.5l-5.3-11.6zM841.2 445.4v-28.3h4.4v24.4h17.7v3.9h-22.1z"/></svg>
