<svg xmlns="http://www.w3.org/2000/svg" viewBox="0 0 500 500"><path fill="#57499d" d="M426.31 138.83h-.12c-42.28-18.03-101.52-29.62-167.33-30.46h-16.84c-65.93.72-125.17 12.3-167.45 30.34h-.12C33.84 156.02 9 179.31 9 204.99c0 24.6 23.05 47.18 60.91 64.26 0 0 0 .12.12.12.12.12.36.12.48.24 15.29 6.93 32.96 12.9 52.55 17.8l6.33-6.33c-14.45-3.7-27.83-8.12-39.77-13.02 19.71-5.26 40.61-9.55 62.47-12.66 5.97 5.37 12.9 10.63 20.78 15.53h19.71c-9.44-5.61-17.68-11.47-24.48-17.56 23.77-2.87 48.49-4.42 73.93-4.66v22.22h16.6V248.6c25.2.24 50.16 1.91 73.93 4.66-6.93 6.09-15.17 12.06-24.6 17.56h19.95c7.76-5.02 14.69-10.15 20.66-15.53 21.86 3.22 42.88 7.41 62.47 12.66-11.82 4.9-24.96 9.2-39.18 12.9l10.51 5.37c17.92-4.66 34.16-10.27 48.37-16.6-.12-.12.12-.12.36-.24 37.86-17.08 60.91-39.65 60.91-64.26-.13-25.69-25.09-48.98-65.7-66.29zm-205.19-23.29c-27.59 10.51-49.8 22.81-65.69 36.31-21.14-2.99-41.56-6.81-60.67-11.7 33.68-13.03 77.51-21.99 126.36-24.61zM82.81 144.92c20.66 5.49 42.76 9.79 65.69 13.02-14.09 13.74-21.86 28.43-22.93 43.71H25.72c2.03-21.74 23.29-41.56 57.09-56.73zm-4.66 118.24c-31.17-14.93-50.52-34.04-52.43-54.7h99.85c.96 14.09 7.76 27.95 20.07 40.85-23.65 3.46-46.23 8-67.49 13.85zm163.87-21.14c-27.47.24-54.46 2.03-80.5 5.26-11.59-12.3-18.27-25.32-19.23-38.7h99.61v33.44h.12zm0-40.25h-99.61c.96-14.45 8.72-28.55 22.22-41.68 24.96 2.87 51 4.42 77.51 4.78v36.91h-.12zm0-43.6c-24.01-.24-47.66-1.79-70.59-4.3 16.84-13.85 40.73-26.51 70.59-36.91v41.21zm232.78 43.6h-99.85c-.96-15.17-8.84-30.1-22.93-43.71 23.05-3.22 45.03-7.52 65.69-13.02 34.04 15.05 55.18 34.87 57.09 56.73zm-68.79-61.51c-19.23 4.66-39.53 8.72-60.79 11.59-16-13.5-38.1-25.8-65.57-36.19 48.72 2.62 92.56 11.46 126.36 24.6zm-147.39-23.29c29.86 10.39 53.63 23.05 70.59 36.91-22.81 2.63-46.46 4.06-70.59 4.3v-41.21zm0 47.89c26.51-.24 52.43-1.91 77.51-4.78 13.62 13.14 21.14 27.11 22.22 41.68h-99.61v-36.91h-.12zM339 247.15c-25.92-3.22-52.91-4.9-80.5-5.26v-33.56h99.61c-.83 13.5-7.4 26.64-19.11 38.82zm83.37 15.89c-21.14-5.73-43.83-10.39-67.48-13.85 12.3-12.9 19.11-26.63 20.07-40.73h99.85c-1.8 20.78-21.27 39.65-52.44 54.58z"/><path fill="#57499d" d="M388.45 283.94l-33.08-15.77H253.13l-104.63.84-29.38 14.81L53.67 415.2h147.26l10.39 20.18h84.44l10.39-20.18h147.26l-64.96-131.26zm-12.06.72l49.8 107.85 5.02 9.44-32.01-24.85-40.49-103.43 17.68 10.99zm-122.55-11.47h97.22l40.25 105.1h-127.8c-9.67 0-9.67 9.08-9.67 9.08V273.19zm-102.95 0h97.22l-1.07 114.18s.12-9.08-9.55-9.08h-127.8l41.2-105.1zM76 392.51l50.64-107.85 18.75-9.2-42.04 101.52-32.37 24.84 5.02-9.31zm222.51 10.15c-15.65 0-10.51 19.59-10.51 19.59h-68.44s5.26-19.59-10.51-19.59H78.51l5.26-4.06 18.51-14.45 134.25 1.19s13.85 1.19 13.85 13.26c0-11.94 13.97-13.26 13.97-13.26l134.37-1.19 18.39 14.45 5.26 4.06H298.51z"/><g><path fill="#57499d" d="M151.49 257.78c-.36 0-.96-.12-1.43-.96-.24-.36-.6-.72-.96-.96-.84-.6-1.19-1.43-1.19-2.51v-.84c0-1.31-.24-1.43-.84-1.55-1.55-.24-2.51-.96-3.34-1.67-.24-.24-.48-.36-.72-.6-1.43 0-2.39-.84-2.87-1.31-.6-.36-.72-.84-.84-1.19-.48-.24-1.07-.24-1.91-.24-1.55 0-2.15-.84-2.27-1.67-.12-.24-.48-.48-.72-.84-.12-.12-.36-.24-.48-.36-.48-.48-.72-.96-.84-1.31h-.12c-3.22-.72-6.81-1.79-9.55-4.78-.48-.6-1.19-1.07-2.03-1.67l-.12-.12c-.84 0-1.91-.36-2.39-1.67l-.36-.36c-.48-.48-.72-1.07-.72-1.79 0-.12-.12-.12-.12-.12-1.55.36-2.87-.36-3.7-.96-.48-.36-.84-.6-1.31-.72-.84-.48-1.55-1.07-1.91-2.03-.12-.24-.48-.48-.96-.72-1.91-.84-2.51-1.79-2.27-3.82 0-1.07.36-2.03.72-2.63-.24-.72-.12-1.31-.12-1.79v-.36c-.12-1.07-.84-1.91-2.39-2.99-.72-.6-1.55-1.19-2.03-2.15-.48-.72-.96-1.67-1.43-2.39-.48-.72-1.07-1.19-2.03-1.67-.6-.24-1.67-.84-1.91-2.15-.48-.12-.96-.36-1.31-.72-.6-.6-.96-1.55-.96-2.39 0-.84.24-1.43.72-1.79.24-.24.6-.36.84-.48-.12-.48-.6-.84-1.07-.96-.6-.12-1.55-.12-1.91-.96-.24-.48-.12-.84 0-1.19-.48-.24-.84-.6-1.07-1.07-.36-.84 0-1.55.36-2.27.24-.36.36-.84.36-1.31.12-.48.24-.96.48-1.55-.24-.24-.36-.48-.36-.6l-.12-.36c-.24-1.19-.24-2.39-.24-3.34 0-.24 0-.36.12-.48a.917.917 0 0 1-.24-.6c0-.12-.12-.36-.12-.6h-.12c-.48-.36-.84-.72-1.31-.84-1.31-.48-2.03-1.91-2.15-3.11-.24-1.19.12-2.27 1.07-2.99-.24-.96-.48-1.79-.72-2.75-.24.96-.72 1.67-1.43 2.27-.36.36-.84.48-1.31.48-.72-.12-1.07-.84-1.19-1.07-.84-1.43-.6-2.87-.48-4.06 0-.24 0-.48.12-.72v-.12c.24-.96.84-1.31 1.07-1.43.36-.12 1.07-.24 1.79.36l.12.12c.36.36.6.72.72 1.07l-.36-2.51c-.24-.72 0-1.31.12-1.79.6-2.51.36-4.66-1.07-6.81-.36-.48-.6-.96-.84-1.43-.48-.84-.96-1.67-1.55-2.51-1.31-1.91-1.19-4.42-.84-6.09l.12-.6.36-.24v-.12c0-.24-.12-.48-.12-.72 0-.6 0-2.15 1.55-2.63 1.43-.48 2.99.24 3.46 1.43.24.48.24.96.24 1.19 0 .48.12.6.12.6s.12.12.72.24c.96.12 1.79.48 2.51 1.07.24.12.72.36 1.79.12.96-.24 2.15-.12 3.11.48s1.67 1.43 1.91 2.51c.24.6.36 1.19.72 1.79.96-.6 1.67-.6 2.39-.12.72-.24 1.67-.6 2.63.36.48.48.6 1.07.48 1.79-.12.48-.36.96-.72 1.31.6 1.19.48 2.39.36 3.34 0 1.07-.96 1.91-2.27 1.91 0 0 0 .24-.12.36 0 .12-.12.36-.24.48l.12.12.48.48c.6.6 1.19 1.19 1.79 2.03.24-.12.24-.24.12-.72-.24-.72-.12-1.43.24-1.91.6-.84 1.67-.96 2.03-1.07h.36c.48-1.07 1.55-1.07 2.03-1.07h.24l.24.12c.12 0 .36.12.84-.24.6-.48 1.55-1.19 2.75-.84 1.07.36 1.67 1.43 1.91 2.27 0 .12 0 .12.12.24.72-.12 1.43.12 2.03.84.36-.36.6-.72.72-1.31.12-1.91 1.19-3.46 2.63-4.18.6-.36.72-.72.84-1.19.12-.48.12-1.31.84-1.79.72-.36 1.43-.12 1.91.12.72.36.84.24.96.12.36-.36 1.19-.96 2.39-.36l.12.12c.48.36.6.72.72 1.07v.72c.12.12.12.24.24.36.72.84 1.07 1.79 1.43 2.75.12.36.36.84.48 1.19.24.6.6.84.84.96 1.31.48 2.15 1.43 2.63 2.51.36.84.96 1.43 1.91 1.79 2.27.96 4.3 2.15 5.85 3.7l.36.36c.48.36.96.84 1.19 1.67l.36.72c1.43 2.99 2.99 6.21 4.9 8.96l.12.12c.12.24.24.36.36.48.12.24.36.48.48.72.6.84.84 1.79.72 2.75-.24 1.31-.12 2.51.12 3.82l.24 1.31c.12 1.07.24 2.27-.36 3.46-.12.24-.24.36-.24.6-.24.6-.48 1.19-.96 1.67-.48.6-.36.96 0 2.15.24.48.48 1.07.24 1.79-.12.24-.36.6-.84.96 0 .84-.24 1.55-.48 2.15-.12.36-.24.6-.24.96-.12.48-.12 1.19 1.07 2.27l.12.12.24.12c.48.48.96.84.96 1.55 0 .24 0 .36-.12.48.24.72-.12 1.43-.24 1.55l-.12.12v6.57c0 .48 0 .96-.12 1.43 0 .72-.12 1.31 0 1.91v.12c0 .12 0 .36-.12.6.36.24.6.6.72.84s.36.36.48.48c1.19.96 2.51 1.79 3.7 2.27 2.27.84 2.75 2.27 2.75 3.22-.12 1.07.48 1.67 1.55 2.75.72.84 1.55 1.79 1.31 3.34v.12l.24.24c.36.48.6.96.96 1.43.24.48.6.96.84 1.43.6 1.07.96 1.91 1.31 2.99 0 0 0 .12.12.24 0 .24.12.24.12.36 1.07 1.67 1.67 3.46 2.39 5.14.24.48.36.96.6 1.43.48 1.31.96 2.87-.12 4.42-1.19 1.55-3.11 1.07-4.18.84h-.12c-.84-.12-1.55-.6-2.03-1.31-.6-.6-.96-.72-1.31-.72-.72 0-1.31-.24-1.79-.36-.36-.12-.6-.24-.84-.24-2.27-.36-3.58.48-4.78 2.63v.12c0 .12-.12.36-.24.48-1.02.37-1.73.49-2.09.49zm-7.17-10.86c.24.24.48.36.84.6.72.6 1.31.96 2.27 1.19 2.87.48 2.87 2.99 2.87 3.94v.84c0 .24.12.36.24.48.36.24.6.48.84.72 1.67-2.87 4.06-3.94 7.17-3.58.48.12.96.24 1.31.36s.72.24.96.24c1.31 0 2.39.6 3.34 1.67.24.36.36.36.6.48h.24c.96.24 1.31.24 1.55 0 .36-.48.24-.96-.24-2.03-.12-.36-.36-.84-.6-1.43-.6-1.55-1.31-3.22-2.15-4.66-.24-.36-.36-.72-.48-1.07 0-.12 0-.12-.12-.24-.24-.96-.6-1.55-.96-2.39-.24-.48-.6-.96-.84-1.43-.24-.48-.6-.96-.84-1.43-.24-.36-.72-1.07-.6-2.15 0-.36-.12-.6-.72-1.31-.96-.96-2.27-2.27-2.15-4.42 0-.36-.6-.6-1.19-.84-1.55-.6-2.99-1.55-4.42-2.63-.36-.24-.6-.6-.84-.84-.6-.72-.72-.84-1.19-.72l-3.58.96 2.27-2.99c0-.12.12-.12.12-.24.12-.24.48-.72 1.07-.96 0-.48 0-.96.12-1.43 0-.48.12-.84.12-1.31v-6.33c0-.24 0-.48.12-.84l-1.67-.36 1.43-1.19-.12-.12c-.96-.96-2.27-2.51-1.67-4.66.12-.36.24-.72.36-1.07.24-.6.36-1.07.36-1.55 0-.72.36-1.31.84-1.67-.36-1.19-.84-2.75.48-4.42.24-.36.48-.72.72-1.19l.36-.72c.24-.48.12-1.19.12-2.03l-.12-1.31c-.24-1.43-.48-2.99-.12-4.66 0-.12 0-.48-.24-.84l-.12-.24c-.12-.24-.24-.36-.36-.48-.12-.24-.36-.48-.48-.72-1.91-2.87-3.46-6.09-5.02-9.2l-.36-.84c-.12-.36-.36-.48-.72-.84l-.36-.36c-1.43-1.31-3.11-2.39-5.14-3.22-1.67-.72-2.75-1.79-3.22-3.11-.24-.6-.6-.96-1.19-1.19-.84-.24-1.67-1.07-2.27-2.15-.24-.48-.36-.84-.6-1.31-.36-.84-.6-1.55-1.07-2.15 0 0 0-.12-.12-.12s-.24.12-.24.12l-4.78 2.87 2.51-3.7c-.12 0-.24-.12-.36-.12-.24 1.07-.96 1.79-2.03 2.51-1.07.48-1.31 1.67-1.31 2.27-.24 1.43-.72 2.51-1.91 3.22-.48.36-.96.48-1.43.48-.36 0-.96-.24-1.43-.84l-.12-.12h-.12c-.48.24-1.07.24-1.43 0-.36-.24-.6-.6-.72-.72l-.12-.12c0-.12-.12-.24-.12-.48-.12-.12-.12-.36-.24-.6-.12-.36-.24-.48-.24-.6-.12 0-.24.12-.48.36-.36.24-1.31 1.07-2.75.84-.48.72-1.31.96-1.79.96h-.48c.24 1.31 0 2.87-2.15 3.58-.96.36-1.67.12-2.15-.6-.48-.84-1.07-1.43-1.79-2.15l-.48-.48c-1.43-1.07-.96-2.15-.72-2.63.12-.12.12-.36.24-.48.24-.6.72-1.79 2.27-2.03.12-.72.12-1.31-.24-1.79-.48-.48-.48-.96-.48-1.31 0-.12 0-.36.12-.48-.36 0-.6-.12-.96-.36-.6.48-1.19.48-1.67.48-.48-.12-1.07-.36-1.55-1.19-.48-.96-.72-1.67-.96-2.51-.12-.48-.36-.84-.84-1.07-.48-.24-.96-.36-1.31-.24-1.55.36-2.87.24-3.94-.6-.48-.36-.84-.6-1.43-.6-1.91-.36-2.75-1.19-2.87-3.11v-.12l-.12-.24s-.12-.12-.36-.12v.6c.12.48.24 1.43-.48 2.27-.12 1.07-.24 2.63.48 3.82.6.96 1.07 1.79 1.55 2.63.24.48.6.96.84 1.43 1.79 2.75 2.27 5.61 1.43 8.84-.12.24-.12.36-.12.48.24 1.07.36 1.91.48 2.87.24 1.79.48 3.58 1.07 5.26.6 1.67-.24 2.51-.84 2.87-.12.12-.24.24-.12.6.12.6.36 1.07.48 1.19.96.36 1.55.84 2.15 1.31.24.24.6.48.84.72l1.91 1.19-.72.36c.12.12.12.24.12.48.12.6-.12 1.07-.24 1.31s-.36.36-.72.6c0 .6 0 1.19.12 1.79.48.12.84.48.96.84.24.6.12 1.19-.36 1.67-.24.24-.24.6-.48 1.31-.12.6-.24 1.19-.6 1.91 0 .12 0 .12-.12.12.12.12.36.12.48.24.36.12.72.48.96.84.12.36.12.72 0 .96 1.19.36 2.15 1.19 2.63 2.39.84-.12 1.31.24 1.55.48.6.72.72 1.55.24 2.51l-1.07 2.03v.72s.24.12.6.36c1.43.6 2.39 1.43 3.11 2.51.48.72.96 1.67 1.55 2.51.24.6.72.96 1.31 1.43 1.19.84 3.11 2.27 3.34 4.9v.72c0 .36-.12.6 0 .84.36.48.24 1.19-.12 1.79-.24.6-.48 1.07-.48 1.67-.12 1.07-.12 1.07.84 1.43l.12.12c.72.48 1.55.96 2.03 1.91.12.24.36.48.84.72s.96.48 1.55.96c.72.48 1.19.72 1.79.48.72-.12 1.55.12 2.03.6.6.48.96 1.19.96 2.03.36.24.6.6.84 1.07l.12.12c0 .12 0 .12.12.12h.24c.48 0 .96.24 1.19.48 1.07.6 1.91 1.31 2.63 2.03 2.15 2.39 5.14 3.34 7.88 3.94.84-1.19 2.03-1.79 3.11-2.39l.24-.12c.12 0 .12 0 .24-.12.24-.12.72-.36 1.31-.36h1.91l-.72 1.67c-.6 1.31-1.55 1.91-2.27 2.27-.12.12-.36.12-.48.24-.24.12-.48.24-.6.36l-.36.72s-.12 0-.12.12l.12.12.36.36c.48.48 1.07.96 1.43 1.79 1.07 0 2.27 0 3.46.72.24.12.72.36.96.84 0 .12.12.36.12.6.6.6.84.72 1.19.6h.12c.39-.05.86.19 1.22.43zm-1.67 1.91zm-3.35-3.47zm-40.6-40.84c.36 0 .6 0 .84.12l-.12-.72h-.96c-.12.24.12.48.24.6zm51.95 0zm-55.3-5.74zm-.24-7.52zm16.72-24.96c0 .12 0 .12 0 0 0 .12 0 .12 0 0zm-6.92-7.53zm-2.87-1.31zm217.85 99.37l-1.19-.24-.96-.48-.84-.72-.6-.84-.36-.12h-1.79v-1.31l-.84-1.07-.12-.24-.72-.12-1.19-.72-.24-.72-.84-.48-.36-.84-.12-.36h-.6l-.84-.84h-.84l-.12-1.07-1.19-1.07-.6-.96v-.36l-.33.73v-2.03l-.6-.6-.36-.72v-.36l-.12-1.07-.72-.36 1.31-1.31.24-.36.24-.84v-5.97l1.55 4.54.96 1.91v.48l.12.72.36.36.96.48.36.24 1.19.48.36.72.24-.12h3.22l.48-.84.84-.48h1.43l.36.96.12.12.36-.24h1.31l.72 1.43-.24.48h.36l.72.48 1.07.36.24-.12 1.31.24 1.07.36.36-.6.12-.72.72-.72.48-.12v-.84l.24-.12v-.24l.96-1.79.24-1.31v-.36l-.24-.24v-1.19l.12-.24v-.96l.12-.6.12-1.19.24-.72 1.91-1.31v.12h.84l.72-2.27.36-.36.96-.72 2.27-1.43 3.11-.6 2.15-.12 3.94-1.07 6.09-1.43.96-.48h.24l2.39-.72.36-.48-.24-.48.96-.96.36-.24.6-.6.72-.96.96-.84v-.84l.96-.72.6-.6.24-.48v-.24l.36-.72.6-.6.48-.36 3.34-2.87 2.75-3.58.12-.24v-.36l.36-.72.12-.36v-.36l-.48-1.67.48-1.07 1.19-.6 1.43.72.96.24.48.24.48.36.24.12.24.24h1.07v1.07l.12.12.24.84v.6l-.12 1.31v.24l.96-.12.96.48.36 1.31 1.43 1.43.84-.84.12-.72v-1.31l.72-.6-.48-.72-.24-.96-.12-1.79-.48-.96v-1.07l.6-.6.72-.36.48-.48.96-.48h.12v-.12l1.07-1.07h.12l1.19-1.19.36.84v-.12h1.07l.72-.72h1.55l.24.36h.24l.24.24.36-.36.24-.12.24-.24.6-.84.72-.36-.84-.48-.6-.6-.48.48-1.07-2.03v-.84l.24-.36.36-1.07.6-.6.6-.24.24-.36.96-.72.48-1.07.12-.12v-.72l.48.24.84-.84 1.55 2.27h.72l.12-.12.24-.36.12-.48.36-1.43.48-.84.6-.36.96-.6v-.48l.24-.48.6-1.07-.48-.96.6-1.31.6-.24.72-1.07V178l.96-.72.36-.36v-.12l.72-.72 1.91-1.55v-.24l.48-.84.48-.24 1.07-1.31v-1.07l.12-.24v-1.31l.6-.36v-1.67h.72l.6-.6h1.43l.36.6.72.48.24.24.36 1.43v-.6l.72-.72v-.72h1.31l.48-.24h.72l.36.12h.24l.72.48h.96v1.79l-.24 1.19.48.96v.6h.12l1.07.48.24.24.6-.6h1.79l.12 1.19h.72l.84.84h.12l.84.84v.72l.12.24v1.07l-.12.12-.12 1.31-.6 1.07h-.36v1.07l.24.6h1.31l.12-.12.48-.24.36-.48v-.72h2.15l1.19 1.19v.12l.24.12v.96l.84.96v.6h.12l.6-.24h.84l.24.12h1.19l.24.24.24.12 3.11 1.79.12.36h.24l.84.36.12.24v-.24l2.27 1.79h.12l.48.24h1.07l.48.36.96-.48h.96l.72.36.48.48.6.72.36.36v1.31l-.36.72.12.6v.84l-1.55 1.55-.84.48-2.63.84-2.51.72-1.43.6h-.96l-.48.24-.48.48h-1.19l-.72-.84-.48-.6-1.07.84-.36-.36.12.36.84.96.6.48h1.31v.48l1.07.48.24.6.24-.12.48.48h2.03l-.72 1.31.48.48v1.19l-.84.96-.12.24-.36.36-.72.36h-1.19l-.6.12h-1.07l-.12.12h-.48l-1.31.36-1.07.12-2.03 1.07h-.96l-.72-.24h-.48l-.84-.72h-.72l-.24-.36h-.48v.48l-.24.24 1.67 1.67h-2.99l-1.19.48-.48-.48h-.48l-1.19-.48-.6-.36-.72-.72-1.43-.84h-3.46l-.84-.24h-.36l-1.19.24-1.31-.36-.6.24h-2.03l-.24.24h-.48l-.36.36h-1.55l-.6-.84-.24-.24-.6.24h-.72l-.48-.24-.12.12-.24.12-1.31 1.31-1.19-.6-.36-.36-.12-.24v.12l-.6.6v.96h-1.55l-.48.6-.24 1.31-.6 1.43.12.12V213l-.72 1.67-.12.36v.6l.36.84v.84l.36.72v.96l-.84.84h-.36l-.36 1.55 1.19 1.19-2.27.84-.24.36v.6l-.48.84-.84.48h-.72l-.84.36h-1.07l-.24-.12-.12.12-1.07.6v.36l-.12.12.24.6-.36.96.36.12.72.72.36.72.24.6v.96l-.72.72-.72.36h-.36l-.48.6-.6.36-1.19.72v.24l-.72.72-.96.24-.72.12-.12.48.12.12h.24l.84.84v1.55l-.12.24v1.43l-1.07.48-.96.36v.36l-.12 1.19-.36.96-.6.84-.36.36v.84l-.36.72-.6.6-1.07.36-.84-.48-.96-.6-1.91.84-.36.36h-1.19l-.48-.48h-.36l-1.67.24-.12.12-.84 1.07-2.75 1.79-.96.36-1.07-.84-.36-.36-.6.24h-1.31l-1.31-1.07-.36-.12-.6-.24h-1.07l-.84-.6h-.24l-1.43.24h-1.19v-1.91l.24-.24h-.12l-.48.48h-.84l-.36-.12-3.82-.24-.48.48-.6.36-1.19.24-.72.36v.72l-.6 1.07-.84 2.39-.48.48-.72.36h-1.55l-.36.12-1.19 1.43-1.55.48-.96-.36-.84-.36-.72.24-.36.48-1.43 1.43-.72-1.91h-.84l-2.03-.96-3.22.84h-.84l-.48.36v.48l-1.31 1.31-.24-.24-.24.24h-1.55l-.82.73zm-.71-2.75l.12-.24h1.79l.12-.12h.24l.24-.36 1.55-1.19.96-.24h.72l3.34-.84h.48l2.15.96.96-.12h.48l.36.36 1.07-.48h.96l.72.24.6.36h.12l1.19-1.43 1.55-.36h.84l.48-1.43v-1.31l.24-.84.6-.6 2.51-1.07.72-.12.36-.36 1.19-.48 4.42.24.36-.24.48-.24h.84l.24.12h1.07l1.31.6.48.84v.36l1.07.6h.84l.96.24.96.48.72.6.84-.36h.84l.72.36.48.6 1.55-1.07.84-1.07 1.07-.6 2.39-.24h.96l.84.24 2.27-.96h.72l.96.36.36-.72.72-.6.24-.36.12-.48.12-.84v-1.55l.96-.96h.84l-.6-1.19v-.72l-.12-.24v-.84l.24-.96.36-.96.96-.6.84-.12.24-.6.6-.6h.84l.96-.6.36-.48-.6-.48.12-.84v-1.07l.12-.12-.12-.12v-.96l.24-.24-.24-.24v-1.91h.6l.96-.96.6-.36.48-.96.36-.6h1.55l.48.72.72-.36.36-.72.24-.24v-.6l.72-.24.6-2.27.36-.84.36-.36v-.72l-.36-.84v-1.43l.24-.84.48-1.07-.6-.6v-1.31l.6-.6.36-.12.24-.72.12-1.31.36-.72h-.48v-.72l.48-.6.24-.48.84.48h.36l.36-.36h.48v-.72l.24-.84.72-.72h1.31l.6.6h.24l.84.24.24.24.24-.12.72-1.55.96.96h.24l.48.24.48-.36h1.31l.36.36h.84l.6-.6h1.31l.48.72h.12l.36.12.6-.48h1.07l.72.48 1.07-.24h.96l.72.24h2.03l.24-.24h1.43l.72.72.36.24 1.31.84.96.84.48.12h.36l.24-.24v-.36l-.24-.12v-1.43l1.31-1.31h1.31l.72.72.12.24.6.12h.72l.24.36.48.24.6.36.6.12 1.67-.84.6-.24.96-.12.96-.36.6-.6.84.36h.96l-.24-.24-.24-.12-.6-.6v-.36h-.36l-.6-.6h-.24l-.72-.72-.6-.48-.48-.48-.84-1.19-.12-.24h-.96v-2.15l1.79-1.79.48-.24v-1.67l1.43 1.43.12-.12h1.07l1.19.6.36.48.12-.12h1.19l.96.36.36-.12.24-.12.6-.24 2.63-.72 2.39-.84.36-.24.48-.48-.12-1.07.24-.6-.24-.36-.84.36h-.96l-.36.36h-1.07l-.72-.36-.36-.36-.84.84-.6-1.91-.72-.36-.36-.36-.24.84h-1.79l-.6-1.19v-.84l.12-.36v-.36l-.48-.36-1.19-.72h-.96l-.6-.36-.36.12-.24.36v.36l-.84.84h-1.55l-.12-.24h-.48l-.36.24h-1.19l-.72-.72-.36-1.19-.36-.36v-.84l.36-.72-.6.6h-.96l-.6-.12-.96.12-.96.12-.96.48h-3.46l2.63-2.63 1.43-.48-.12-.24v-1.19l-.36-.6-.24-.6.48-.96.6-.6.84-.48-.24-.6-.12-.48h-.72l-.24-.24h-.84v-.12h-.96l-1.19-1.19h-.6l-.84-.48-.6-1.07v-.84l-.72-1.07-.6.84-.24.36v.36l-.6.6-.48.36-.72.72-.12.24-.48.48-.84.36-1.79-.36-.36-1.19-1.19 1.43v.24l-.48.84-.84.48-.36.36-1.07.84v.6l-.36.36.12.6-.96.96h-.96l-.36.48.24.36-.6 1.43-.84 1.43v.6l-.36.72-.6.6-1.19.72-.24 1.31-.36.84-.48.84-.84.6-.72.24h-.84l-.84-.12v2.75l.12.12v1.19l-.36.36v.48l-.24.96-.24.48-.36.36-1.07.48-.84.84-.24.12-.96.96h-1.19l.72 2.51v.84l-.12.48v.36l.12.84.12.24 1.07 1.07v1.31l-.96.96h-.96l-.96-.36h-.48l-.24-.24h-.72l-1.31-.48-.36-.24-.36-.84-.24-1.91-.48-1.19-.12-.84v-.72h-.6l-.6.48.24.36v.72l.12 1.31h.96v1.91l-.48 1.55v.24l-.36.72-.36.36-.24.72-.24.48-1.67 1.55-1.07.6-2.03-.36v-.84l-1.55-1.55-.24-.6H374l-.72-.12h-.84l-.84-.84v-1.55h.12l.12-1.55h-.36l-.24-.6h-.12l-.6-.48v.84l-.24 1.07.12.48-.48 1.31-3.22 4.18-3.58 3.11-.36.24-.36.84-.6.84-.96.96v.36l-.72.96-.96.84-.24.36v.12l-.48.6-.72.6-.36.96-1.07 1.19-.96.48-2.75.84-.84.36-2.27.48-3.94.96-4.3 1.19-2.15.12-2.39.48-.12.12-1.67.96-.72.6-.24.84h.24l.12.12 5.02 2.51h-4.3l1.55 3.11-3.58-1.79h-.12l-.48.24.72.72v.76l-.24.48-.36.6 1.79 1.19h-3.94l-.36.96-.48.84v1.31l-.12.12.12.12h.24l.36.36 2.51 1.19-2.99 1.43h.24l.36.12h.48l.72.72h6.33l-7.05 2.87-1.19-.48h-.36v-.24l-.48.24h-1.19l-1.19-.6-.84-.6-.96-.96-.36-.24-.6-.24-.24.48-.48.48-.72.36h-2.15v-2.03l.12-.12-.24-.12H317.93V245l-4.3 1.43 2.39-2.51h-.84l-.12-.12h-1.19l-.24-.24h-1.55l-.24.12h-2.15l-.6-1.31-.6-.24v.12l-.12 1.55.12.12.96.84h.12l.96.96.24.36h.24l.84.48.36.84.12.6.48.24.6.6.24.48.84.12.6.36.6.6.24.72.72 1.07.96.24.48.24.48.6.48.72.13.09zm8.95-8.48l.24.24.36-.24h.48l-.6-.24-.48.24zm-.47-.36l.24.12-.36-.36.12.24zm58.04-39.89h.12l-.24-1.07v-.84l.12-.84-.84-2.39-.12-.12-.12 1.19v.96l.12.36.48 1.19.12.72.12.84h.24zm6.33-12.78l.6.6-1.55-2.39-.12.12-.36.6-.6.24v.6l.72.72 1.31-.49zm32.85-8.96l.48.12.24-.12-.12-.36-.6.36zm-16.96-12.06l.12-.24-.12.24zm-242.7 57.33c-1.43 0-2.03-1.31-2.15-1.79l-.24-.72.36-.6.48-.48c.24-.36.36-.6.36-.84v-.72l.84-.48c.84-.36 1.43.24 1.67.48l.24.24.12.36c.12.48.24.96.36 1.43s.12.84.24 1.31l.12.36-.12.36c-.36 1.19-1.31 1.19-1.79 1.19-.25-.1-.37-.1-.49-.1zm245.68-62.7h-3.22l.6-1.55-.84-.84 1.31-.36.48-1.07h.84l1.31-1.55 1.55 1.55v1.43l-.36.6.24.48-.6.12-.36.72-.48-.48-.24.12-.23.83zm-332.87-7.65c-.36 0-1.07 0-1.43-.72-.12-.24-.24-.48-.24-.84H76l-.36-.12-.24-.24c-.48-.48-.48-1.07-.48-1.19v-.24c.36-1.55.96-2.03 2.51-1.91h.36c.36 0 .84.12.96.12.36-.48.84-.6 1.43-.48.84.12 1.67.96 2.03 1.55l.12.12c.12.24.12.48.24.72 0 .24.12.36.12.6l.12.24v.24c0 1.19-.84 1.55-1.19 1.55-.36.24-.84.48-1.43.24-.12 0-.12 0-.24-.12-.72.36-1.32.48-1.92.48zm2.99-.59zm0 0zm0 0zm-4.42-2.51h.72-.72zm-.48 0h.24-.24z"/><path fill="#fff" d="M76.12 155.43c.24-1.07.24-.96 1.43-.84.72.12 1.43.24 2.03-.36.24-.24 1.07.36 1.31.84.12.36.24.84.36 1.19 0 .24 0 .36-.24.36-.36 0-.72.6-.96.12-.36-.48-.48-.24-.84 0-.24.36-.72.48-1.07.48-.24 0-.48 0-.36-.24.12-1.19-.72-1.07-1.43-1.19-.23-.12-.23-.24-.23-.36zm51.84 5.25c1.19-.72 1.19-.72 2.03.24.84 1.07 1.19 2.51 1.91 3.7.36.72.84 1.31 1.55 1.55.84.36 1.43.96 1.91 1.91.48 1.19 1.43 2.03 2.63 2.51 2.15.84 3.94 2.03 5.61 3.46.48.48.96.84 1.19 1.43 1.55 3.34 3.22 6.81 5.37 9.91.24.48.6.84.84 1.31.36.48.6 1.07.48 1.91-.36 1.79 0 3.34.24 5.02.12 1.07.36 2.27-.12 3.22-.36.72-.6 1.43-1.07 2.15-.84 1.07-.6 2.15-.24 3.34.24.48.48.96-.24 1.19-.24.12-.48.48-.48.84 0 .96-.48 2.03-.72 2.99-.36 1.31.36 2.51 1.31 3.46.12.12.24.24.48.36.72.6.72.6 0 1.19.48.12.72.24.36.84-.24.24-.24.6-.24.96v6.33c0 1.07-.24 2.39-.12 3.46 0 .24 0 .48-.36.36-.6-.24-.72.24-1.07.72 1.79-.48 2.27.96 3.11 1.79 1.19.96 2.63 1.91 4.06 2.51.96.36 2.03.96 2.03 2.15-.12 1.55.84 2.63 1.91 3.58.6.72 1.07 1.31.96 2.39-.12.48.12.84.36 1.19.6.96 1.07 1.91 1.79 2.87.48.84.84 1.55 1.07 2.63.12.36.12.6.36.96 1.19 2.03 2.03 4.18 2.87 6.33.36 1.07.72 2.27 0 3.22s-2.03.6-2.99.36c-.6-.12-.96-.36-1.31-.84-.6-.72-1.31-1.19-2.39-1.19-.84 0-1.55-.48-2.51-.6-2.75-.36-4.54.6-6.09 3.22-.12.12-.12.36-.24.48-.24.48-.6.72-.96.12-.36-.48-.72-.84-1.19-1.19-.48-.36-.72-.84-.72-1.43v-.84c0-1.55-.36-2.51-1.91-2.75-1.55-.24-2.51-1.19-3.58-2.03-.12-.12-.36-.24-.48-.24-.96.12-1.55-.36-2.27-.96-.24-.24-.6-.24-.36-.84.12-.24-.12-.24-.36-.36-.84-.6-1.91-.6-2.87-.6-.6 0-.96-.12-1.07-.72-.24-.72-.96-1.19-1.43-1.79-.72-.72-.72-1.43.12-2.15.36-.36.96-.6 1.31-.84.72-.36 1.31-.84 1.79-1.79-.48 0-.72.24-1.07.36-1.07.6-2.27 1.19-2.99 2.39-.12.24-.48.24-.72.24-3.34-.72-6.57-1.91-8.96-4.42-.6-.72-1.43-1.31-2.39-1.91-.12-.12-.36-.24-.48-.24-.84.12-1.19-.24-1.43-.96-.12-.24-.36-.48-.6-.72s-.36-.48-.36-.84c0-.84-.72-1.43-1.43-1.31-1.07.24-2.03-.12-2.87-.72-.48-.36-.96-.6-1.43-.84-.6-.36-1.07-.72-1.31-1.31s-.84-.96-1.43-1.31c-1.43-.6-1.79-1.07-1.55-2.63 0-.84.24-1.55.6-2.39.12-.12.24-.36.12-.48-.36-.72-.12-1.43-.12-2.15-.12-1.91-1.43-2.99-2.87-3.94-.6-.48-1.19-.96-1.55-1.79-.48-.84-.96-1.79-1.43-2.51-.6-.96-1.43-1.55-2.63-2.15-.72-.36-1.31-.72-1.19-1.79 0-.36-.12-.48-.6-.48-.84.12-1.79-.84-1.55-1.91 0-.96.48-1.19 1.31-1.07.36 0 .72 0 .96-.12.6-.36.84-.24.96.48.24-.48.12-.84-.12-1.07-.24-.36-.6 0-.84.12-.48.24-.6 0-.72-.48-.12-1.07-1.07-2.15-2.27-2.27-1.07-.12-1.19-.24-.6-1.19.12-.24.24-.36-.12-.48-1.43-.6-1.55-.72-.96-2.15.6-1.07.36-2.51 1.19-3.46.24-.24.12-.48-.24-.48s-.48-.36-.6-.6c-.24-.96-.24-2.15-.24-3.11 0-.24.24-.36.48-.36.36 0 .6-.12.48-.48 0-.36-.36-.36-.6-.24-.36.12-.48 0-.6-.36s.24-.36.48-.48c-.96-.6-1.55-1.43-2.75-1.91-.72-.24-1.19-1.19-1.31-2.15-.12-.72 0-1.31.6-1.91.6-.36.6-.84.36-1.43-.84-2.75-.96-5.49-1.43-8.12-.12-.36 0-.72.12-1.07.72-2.87.36-5.49-1.19-7.88-.72-1.19-1.43-2.63-2.39-3.94-.96-1.43-.96-3.46-.6-5.26.84-.48.36-1.19.36-1.91s0-1.19.72-1.43c.84-.24 1.79.12 2.03.84.12.12.12.36.12.6.12 1.31.48 1.79 1.91 2.03.72.12 1.31.36 2.03.84.84.6 1.91.6 2.87.36 1.31-.36 3.22.6 3.58 2.15.24.72.48 1.43.84 2.27.36.6.84.84 1.43.36.48-.36.84-.6 1.31 0 .24.24.48.12.72 0 .48-.24.96-.48 1.43 0 .36.36 0 1.31-.6 1.55-.36.24-.36.48-.12.72.72.96.6 2.15.48 3.11 0 .48-.48.72-.96.72-1.19.12-1.07 1.19-1.55 2.03-.36.6.24.84.48 1.07.84.84 1.79 1.55 2.39 2.75.24.36.36.24.72.12 1.07-.36 1.55-.96 1.31-2.27-.24-.96.24-1.31 1.19-1.43.6-.12 1.07-.12 1.31-.72.12-.36.48-.36.84-.36.72.24 1.31 0 2.03-.48 1.31-1.07 2.15-.84 2.75.84.12.36.24.6.36.96.12.24.24.36.48.24.72-.48 1.19-.12 1.79.36.36.48.72.48 1.19.12.84-.6 1.19-1.31 1.31-2.39.12-1.31.72-2.63 2.03-3.22.84-.48 1.31-1.07 1.43-2.15.12-.96.24-.96 1.07-.6.72.36 1.55.6 2.39-.12.36-.36.72-.24.96-.12.36.24 0 .48-.12.72-1.53.01-1.65.36-1.89.72zm-38.7 14.45c-.12 1.07-.48 2.03-1.19 2.63-.24.24-.36.24-.6-.24-.72-1.31-.36-2.75-.24-4.06.12-.6.48-.72.96-.36.59.48.83 1.44 1.07 2.03zm76.2 52.44c-.72.12-.96-.36-1.19-.96 0-.12-.12-.24 0-.24.48-.6.84-1.19.96-2.03 0-.24.24 0 .36.12.24.84.36 1.91.6 2.75-.13.36-.37.36-.73.36zm278.41-35.71v-.48l-.12-.12-.24-.24-.36-.48-.24-.24-.24-.12h-.36l-1.07.48h-.36l-.6-.36h-.48l-.12.12v.12l.12.12v.24l-.12.12h-.24l-.24-.12-.12-.12.24-.12v-.24l-.24-.24-.24-.12h-.24l-.6-.48v.36l-.12.12-.12-.36-.24-.24-.24-.24h-.36l-.24-.12-.24-.24-.6-.84-.24-.12h-.24l-.36.24v.48l-.12.12-.12.12-.12.12-.12.36h-.48l-.12-.24v-.36l.12-.24.12-.84h.12l.12-.12v-.12l-.12-.24-.24-.12-.24-.12-.24-.12-.48-.36-1.43-.84-.24-.12h-.12l-.12-.12h-.24l-.12.24h-.12l-.72-.36h-.24l-.6.24h-.6l-.24.12v.12l.12.24v.12l-.12.12-.12.12-.12.24v.24l-.12.12h-.24l-.12-.24h-.6l-.12-.12h-.36l-.6.24-.24.12h-.36l-.12-.12-.36-1.07-.12-.12-.12-.12v-.12l.12-.24.24-.12.84.12.24-.12.24.12h.36l.36-.12.24-.12.36-.6v-.12l-.12-.12-.6-.72-.12-.36v-.36l-.24-.12v-.36l-.48-.48h-.36v.12l-.24.12-.48.6-.36.24-.24.12-.12.12-.12.12-.6.12h-.72l-.12.12.12.36-.12.12h-.6l-.72-.12-.96.12h-.96l-.36.12-.84.36h-.24l.36-.36 1.79-.6.48-.24.24-.24.12-.24-.12-.36-.24-.12h-.24l-.12-.24v-.36h.24l.12-.12v-.6l-.24-.12-.24-.48-.24-.36-.12-.24.12-.24.36-.36.24-.12.24-.12.48.12h.24l.12-.24.12-.96-.12-.36.12-.12.12-.12v-.24l-.12-.24v-.48l-.12-.12h-.24v.12h-.12l-.12-.36-.12-.24-.36-.36h-.24l-.24.12h-.48l-.24-.24h-.12v-.12l-.36-.36v-.6h-.12l-.24.24-.36.6-.12.12h-.48l-.24-.24-.36-.36-.24-.36-.24-.12-.24-.12h-.6l-.24-.12-.12-.24-.12-.24v-1.19l-.12-.24-.48-.6-.12-.24v-.48l.24-.12.12-.12.12-.72v-.36h-.12l-.72-.48H414l-.36-.12h-.24l-.24.12-.12.12h-.48v.36h.12v.12l-.12.12h-.6l-.12.12v.24l.24.6.12.24v.24l-.48.48-.24.36-.12.12h-.12v.48l-.12.12-.48.36-.6.6-.12.12-.12.12-.12.24-.24.24-.24.12-.6-.12-.12-.48.24-.6.24-.48.48-.72.12-.36v-.6l-.12-.24-.24-.12-.24-.12-.12-.12v-.12l.12-.48h.24l.24.12-.24-.96-.12-.12-.6-.36-.12-.24h-.12l-.12.12-.12.12-.12.12-.12.24h-.12v.36l-.12.6-.12.24-.36.24v.96l-.12.24v1.07l-.12.24-.12.24-.24.24-.84 1.07-.24.24-.24.12-.12.24v.48l-.12.24-.24.12-.24.12-.24.24-.24.24-1.19.96-.12.12-.12.12v.12l-.12.48v.12l-.12.12h-.48l-.24.24-.36.24v.12h.36l.24-.12h.12l.12.48-.12.12h-.24l-.24-.12h-.96l-.12.12-.24.24-.6.96-.24.12-.36.12-.12.24.12.24.36-.12.24.36-.24.6-.84 1.43-.12.24v.6l-.12.24-.24.24-1.19.72-.24.12-.12.24-.12.24-.12.6-.12.6-.24.6-.36.6-.48.36-.36.12h-.6l-1.19-.12-.24-.12-.48-.36v.12l-.12.36v.12l-.24-.36.48-.84-.24-.36-.24.24-.48 1.07-.96.72-.12.24-.12.24-.72.36-.12.12v.12l-.12.12-.12.24-.12.48-.12.24v.24l.12.24.24-.24h.12v.36l1.19 1.07.48.24h.48l.6-.24.12.12v.12l-.12.12-.12.12-.12.24v.6l-.12.6-.12.24-.12.12-.24.12-.24.12h-.24l-.24.12-.48.6-.36.36-.24.12-.12.12-.48.48-.12.12h-.6l-.24-.12-.12-.24-.12-.12h-.48v-.12l-.12-.24h-.84l-.12.12-.12.48-.12.12h-.72v.24l.12.12.12.12.24.12.36.48.84 2.75v.6l-.12.6v.6l.12.6.12.6.36.48.48.48.24.24v.24l-.24.24h-.24l-.36-.12-.24-.24h-.48l-.24-.24h-.84l-.84-.24-.24-.12-.12-.24-.12-1.31-.12-.6-.48-1.07-.12-.6v-1.07l.12-1.07-.12-.48v-.6l-.12-.24-.12.12-.12.12-.12.12h-.24l-.36.36v.48l-.12.24-.24.12h-.72l-.24.12-.24.12-.48.48-.24.12-.48.24-.12.12v.24l.12.24.24.48.12.24v.36l.12 1.55.12.48.24.36.24.12h.36v.36l-.12.48-.12.24-.12.24-.48.36-.12.12v.24l.48-.12v.24l-.12.24-.36.48-.12.24-.12.6-.12.24-1.31 1.19-.6.36-.6-.12v-.12l-.12-.36-.12-.12-.12-.12-.24-.24-.84-.84-.24-.24-.12-.24-.24-.84-.24-.12h-.24l-.6.12-.6-.12h-.48l-.12-.12v-.36l.24-.12v-.12l-.12-.6.12-1.31v-.36l-.12-.36-.12-.12-.12-.12v-.36h-.84l-.12-.24-.12-.12-.36-.12-.48-.36-.24-.12-.72-.12-.96-.48-.24.12-.12.24.36 1.31v.6l-.12.6-.24.48.12.6-.24.72-2.99 3.82-3.46 2.99-.6.36-.24.24-.12.24v.24l-.12.36-.36.6-.72.72-.12.12-.12.12-.36.24v.6l-.24.36-1.07.96-.48.72v.12l-.12.12-.72.6-.36.24-.12.12.12.24-.24.6-.72.84-.48.24-2.51.72h-.12l-.84.36-2.27.48-3.94.96-4.06 1.07-2.63 1.67-2.75.48-.36.24-1.55.96-.96.72-.12.12-.12.24-.12.6-.24.84v.36l.12.24.12.12.12.12.24.12.48.12.24.12h-.24l-.12-.12h-.36l-.36-.12h-.36l.12.24.12.6.12.12.48.36.24.24.12.24-.24-.12-.24-.12h-.72l-.48.24H331l-.12-.12h-.12l-.12-.12-.36-.48-.12-.12-.48-.12-.24-.12-.12-.24-.36.24-.12.36-.12.96-.12.6v.24l.12.12h.24l.24.12.12.24h-.24l-.24.12-.24.24-.12.24v.36l.12.12h.24l.96-.12h.24l.36.24h.6l.12-.36.12-.12h.12l.12.12v.12l-.24.36-.12.12-.24.12h-.12l-.48-.12-.24-.12h-.24l-.24.24v.36l.36.24h-.36l-.24-.12h-.36v.36l-.36 1.31-.48.84-.24.48-.12.24v.36l.24.12v.12l-.12.12-.36.12v.6l.36.6h.36l.12.24v.12h.12l.24.12h.24l.24.24h.12l.24.12-.24.12-.24-.12-.24-.12h-.12l-.36.12-.24-.24-.24-.36-.12-.24-.24-.12h-.24l-.84.12-.12.12-.12.48-.24.48v.48l.12.12.24.24.24.72.24.24.6.24.24.24.24.24.24.12h.48l.48-.24h.36l.36.12h.24l.12.12.12.36v.12h.24l.36.12h.24l-.6.24-.6-.24-.48-.36-.48.6-.24.12-.48.24h-.6l-.84-.36-.6-.36-1.07-1.07-.6-.36-1.19-.48-.6-.12-.36.24v.72l-.12.24-.24.24-.24.12h-.6v-.12l.48-.36.24-.24.12-.36-.12-.36-.36-.24-.84-.24-.6-.36h-.36l-.24.12h-.24v-.24l-.12-.12-.24-.12h-.24l-.36.12.12-.12.24-.24v-.36l.12-.24.12-.24.12-.24-.12-.24h-.24l-.24.12-.36.12-.12.24h-.96v-.84l-.12-.12-.12-.36h-.24l-.24.12-.12.24v.6l.12.12v.24l-.12.12-.12.24h-.12l-.36-.36h-.96l-.24.24h-.24l-.24-.24h-2.39l-.24.12h-1.07l-.12-.24-.24-.48-.12-.24-.24-.12-.6-.24-.48-.36-.84-.36-.24-.24-.24-.24-.36-.6-.12-.36v.72l.12-.24v-.48l-.12-.6v-.24l-.12-.24-.24.72-.36.6-.24.24.48.24-.48.36-.12.24v.24l.12.48v.24l.12.24.12.12.12.12.12.12h.72l.24.12v.24l-.12 1.07v.84l.12.24.24.36 1.19 1.07.12.12v.36h.12l.24-.12.12.12.24.6.24.24h.72l.24.12.12.24.24.84.12.24.24.12.48.24.24.24.24.6.36.24.24.12.84.12.24.12.24.24.24.6.72.96.12.36v.24h.6l.72.12.24.12.24.24.6.84.6.48.6.24.6.12.6-.24.12-.12v-.12h.24l.12.12.12.12h.36l.24-.24.12-.12h.12l.24-.12.12-.12.12.12.12-.12v-.36l.12-.24.72-.6.36-.24.48-.12h.84l3.22-.84h.24l1.91.84.24.12h.48l.6-.12h.24l.12.12.12.24v.24l.12.36.12-.12.36-.48 1.19-.48h.48l.36.12.72.36.36.12.84-.24 1.19-1.43.84-.24h1.43l.24-.12.12-.12.72-2.27.48-.84v-.24l-.12-.12h-.36v-.12l.12-.36.24-.24 1.55-.72.36-.12.84-.12.24-.12.24-.24.24-.24.24-.12.36-.12 4.18.24.36.12h.12l.12-.12.12-.12.12-.12.12-.12.24-.12h.24l.24.12h1.07l.36.12.24.12.12.24v.36l-.12.24-.12.24-.24.24-.36.24-.12.12v.12h.24l.48-.12.6-.12h.6l.48.24.48.36h.84l.84.24.6.24 1.07.84h.6l.6-.24.24-.12h.24l.24.12.72.84.36.24.36-.12 2.27-1.43.84-1.07.36-.24.24-.12 2.03-.24h.6l.48.12.12.12.12.12.12.12h.24l.24-.24 2.15-.84.24-.12h.24l.36.12 1.07.72.24.12.36-.12.24-.24.12-.24v-.24l-.2-.45v-.36l.12-.24.48-.36.24-.24.36-.6.24-.72.12-.96v-1.07l.12-.12.12-.12h.12l.72-.12.72-.24.24-.12v-.96l.12-.24v-.72l-.12-.12h-.36l-.24.12h-.12l-.12-.24v-.72l-.12-.24v-.36l.12-.72.24-.6.36-.24 1.07-.12.36-.12.12-.12v-.84l.12-.24.12-.12h.6l.24-.12.6-.48.24-.12.24-.12.48-.6.24-.24h.6l.24-.12.24-.24v-.24l-.12-.36-.24-.36-.24-.24-.12-.12-.24-.12h-.36l-.24.12h-.12l-.24-.24v-.24l.12-.24v-.36l-.12-.24V229l.12-.12h.24l.12-.12.12-.36-.12-.24-.36-.48-.12-.12v-.12h.12l.24-.12.12-.12v-.36l.24-.24.24-.24.84-.48.12-.24.24-.48.24-.36h.24l.36.48.36.24h.48l.84-.36h.6l.24-.12.12-.24v-.6l.12-.24.48-.6v-.12l.96-.36-.24-.24v-.24l.48-2.15.24-.6.24-.24h.48l.12-.12v-.12l-.12-.24-.24-.48v-.84l-.36-.84v-.96l.12-.6.6-1.55v-1.07l-.24-.24-.24-.12-.24-.24v-.24l.12-.12.48-.24.12-.12.24-.6.24-.6.12-1.19.12-.24.12-.36.12-.12.24-.12.12-.12.12-.12.6-.6h.12l.12.12.12.12h.24v-.12l.12-.24.48-.48v-1.19l.12-.48.12-.12h.24l.12.12v.24l.12.24h.84l.36.12.12.12.12.12v.24l.12.24.12.12.24.12.12-.12.72-.72.24-.12.12-.12.12-.12.12-.24.12.12h.48l.6.24h.24l.36-.12.36-.24h.36l.36.36h.36v.24l.36.6h.36l.36-.36h.48l.12-.12v-.12l-.12-.12v-.12l.12-.24.24-.24.12-.12h.12l.6.84h.24l.36-.12.36.12h.24l.24-.12.48-.36h.24l.48.36.6.12 1.07-.24h.6l.84.24h2.75l.24-.24h.36l.12.12.12.12.12.12.48.36 1.07.6.84.84.36.24.36.12.48.12h.6l.24.12.12.12.6-.24h.24l-.12-.12-.24-.24v-.12l.12-.12.12-.12.12-.12.24-.24.12-.12v-.24l-.24-.24v-.84l-.24-.12v-.12l.12-.12.24-.24.24-.24h.24l.24.24.12.24.12.24.24.24h.48l.48.12h.24l.12.24h.24l.24.12.6.48.12.12h.24l.84.24h.24l1.91-.96.36-.12 1.07-.12 1.19-.36h.12l.24-.24.24.12h1.19l.48-.12h1.07l.24-.12.12-.12.12-.24v-.24l-.12-.24h.24l.12.12h.12l.12-.12.12-.12v-.12l-.6-.6-.12-.24.12-.24h-.48l-.12-.12-.36.24-.24.12-.12-.12-.12-.12-.24-.12-.12-.12v-.12l.12-.24v-.48l-.12-.24-.24-.12-.24-.12h-.24v.24l-.24-.12h-.12l-.12-.12v-.12l-.12-.24v-.12h-.6l3.1-.24-.24-.24-.48-.36-.36-.36-.36-.48-.36-.48-.12-.36-.12-.12-.12-.12-.36-.24h-.12v-.36l.12-.12.24-.24.84-.84.48-.24.48.12v.36-.12l.12.12.48-.36.24-.24h.24l.24.12.48.24.48.6.24.36.12.12.12.12h.12l.24-.24.36-.36h.36l.24.12.36.12.48.12h.48l.36-.12.36-.12.48-.24 2.63-.72 2.63-.84.6-.36.72-.72.24-.24v-.36l-.12-.6v-.24l.4-.83zm-51.24 14.45l-.12.24v.12l-.36.6-.12.12v.24-.24l.12-.12.36-.6v-.12l.12-.24v-.12.12zm17.08-41.33h.36l.12-.24h-.12l-.12-.12-.12-.12 1.31-.36-.12-.24.12-.24.24-.12.24.24.12-.24v-.6l-.24-.24-.6.72-.12.12-.48.12h-.24l-.6 1.31h.12l.13.01z"/></g><path fill="#57499d" d="M276.06 228.28c0 .84 0 1.79.12 2.63.6 3.82 2.15 7.29 3.22 10.87 1.07 3.7 2.51 7.29 3.7 10.87.72 2.03 1.43 4.06 2.87 5.85 1.19 1.43 2.15 3.46 3.7 4.42 2.27 1.43 4.78 2.75 7.64 2.63 1.43-.12 2.51.36 3.11 1.91.6 1.55.36 2.03-1.31 2.15-2.39.12-4.54-.36-6.81-.72-3.11-.48-5.97-1.43-9.2-1.31-3.58.12-3.82-.24-4.78-3.58-.12-.24-.12-.6-.12-.84-.24-1.31-.36-2.75.36-3.94.24-.36.12-.72 0-.96-.48-.96-.96-2.03-1.91-2.51-1.43-.6-2.03-1.79-2.75-3.11-.84-1.55-2.03-3.22-3.46-4.42-.96-.84-1.91-1.91-2.75-2.87-1.55-2.15-3.82-3.58-4.06-6.69-.24-2.15-1.31-3.94-2.15-5.97-1.79-4.66-1.91-9.44.96-13.85.24-.36.6-.84.12-1.31-.36-.48-.84-.12-1.19 0-1.43.48-2.87.84-4.42.84-.96 0-1.43-.36-1.91-1.19-2.15-4.3-4.06-8.72-6.21-13.14-.6-1.19-1.19-1.31-2.27-.36-2.27 2.27-3.94 4.66-5.85 7.17-1.19 1.55-2.03 2.03-3.82 1.31-2.15-.6-4.3-1.31-6.33-2.51-1.31-.72-1.55-.6-1.55.96 0 1.07.12 2.39-.72 3.22-1.31 1.31-2.15 2.99-2.75 4.78-.24.6-.48 1.07-.84 1.55-1.31 2.27-2.63 4.54-4.06 6.81-1.19 2.15-2.39 4.18-2.75 6.69-.36 2.51-.96 4.78-1.31 7.29-.12.48-.12.96-.12 1.55v9.67c0 .96.24 2.03.72 2.99.84 2.03 1.91 3.82 2.99 5.73.6 1.07 1.07 2.15 1.55 3.22.36.96 0 1.31-1.07 1.19-.84-.12-1.55-.48-2.39-1.07-1.91-1.79-3.22-3.7-4.66-5.73-1.91-2.39-3.34-5.02-6.21-6.45-1.31-.6-1.55-1.43-1.07-2.99.24-.96.6-2.03 1.07-2.99.96-2.27 1.43-4.66 2.03-7.05.48-1.79 0-3.82-.36-5.73-.36-1.43-.84-2.99-1.43-4.3-.96-2.27-.84-4.42-.36-6.69.24-1.19.48-2.39.48-3.58 0-2.51.72-4.54 3.11-6.09.72-.48 1.43-.96 2.15-1.55 2.03-1.79 3.46-3.7 3.94-6.33.12-.84 0-1.43-.96-1.91-1.07-.36-2.27-.96-3.22-1.55-1.19-.72-1.55-1.31-1.19-2.75.36-1.55.72-3.11 1.07-4.66.48-2.03.6-2.03-1.19-2.87s-2.75-2.51-4.06-3.58c-1.19-1.07-2.15-2.51-2.75-4.06-.96-2.99-2.03-5.97-2.99-9.08-.24-.6-.24-1.19-.24-2.03-.24-2.75.36-5.49.48-8.24 0-.6.24-1.19.48-1.91.6-1.91 1.43-3.7 2.03-5.73.12-.36.36-.72.72-.96 3.94-3.34 7.76-6.81 11.7-10.15 1.07-.96 2.15-2.15 3.58-2.51 1.31-.48 1.43-.72 1.07-2.15-.6-1.79-1.19-3.46-2.15-5.02-2.87-5.61-5.85-10.99-8.6-16.72-.48-1.07-.96-2.27-1.31-3.46-.6-2.51-.96-4.9-1.91-7.29-.12-.48-.24-.96-.24-1.43 0-.96 0-2.03.84-2.51 2.39-1.55 4.78-3.11 7.76-3.34 3.34-.24 6.69-1.07 9.91-2.27 3.94-1.43 7.41-3.82 11.7-4.18.72-.12 1.43-.72 2.39-.84 3.46-.72 6.93-1.91 10.51-2.39 2.87-.24 5.37-1.79 8-2.27 2.03-.36 3.82-.96 5.73-1.55.48-.12.96-.36 1.19-.84.84-1.31 1.79-2.87 1.79-4.42V76c0-2.99 1.19-5.37 3.7-6.81 2.87-1.79 5.97-1.91 9.08-.96 2.63.72 5.02 2.03 7.29 3.58 2.99 2.27 4.42 5.02 3.7 8.96-.36 1.91-.84 3.58-1.79 5.37-.6 1.19-.84 2.51-.84 3.82.12 2.15 0 4.18 0 6.45 0 1.07-.12 1.31-1.31 1.31h-1.79c-.84 0-1.43.36-1.79 1.07-.24.84-.72 1.31-1.43 1.91-.84.6-1.79 1.31-2.27 2.51-.12.48-.6.48-1.07.48-1.31-.12-2.39-.72-3.22-1.79-.48-.48-.96-1.07-1.91-.96-1.07.24-2.27.36-3.46.24-.36 0-.84.12-.84.6.12 1.55-.48 3.11-.36 4.54 0 1.79-.24 3.46-.96 5.02-.6 1.19-.6 2.63 0 3.82 1.43 3.46 2.75 6.93 4.3 10.39 1.19 2.75 2.63 5.49 4.06 8 2.75 4.54 6.45 8.12 10.87 10.99.96.6 1.91 1.31 2.51 2.39 1.91 2.99 3.22 6.09 4.42 9.32.96 2.75 2.15 5.37 4.54 7.17 2.15 1.55 4.3 2.87 7.05 2.51.84-.12 1.91 0 2.75 0 1.55.12 2.15 1.07 1.19 2.63-.36.48-.72.84-1.31 1.07-.6.24-1.07.48-1.79.72-.84.36-.84.6-.24 1.31.48.6 1.19 1.07 1.55 1.79a9.643 9.643 0 0 0 3.46 3.46c1.31.72 2.15 2.03 2.03 3.7 0 .72-.36 1.07-1.07 1.07-.84-.12-1.55-.24-2.39-.6-2.15-.96-4.06-2.39-6.21-3.22-1.43-.48-2.63-1.43-3.46-2.87-1.19-2.15-2.75-4.06-4.78-5.49-2.15-1.31-3.82-3.22-5.61-4.9-2.99-2.99-5.97-6.09-9.44-8.36-1.91-1.19-3.11-3.11-3.94-5.02-1.19-2.87-2.39-5.85-4.3-8.36-3.46-4.42-7.52-8.12-11.7-11.94-.6-.48-.96-.36-1.31.24-1.31 2.39-2.75 4.54-4.06 6.81-.96 1.79-2.15 3.46-2.99 5.37-.96 2.15-1.43 4.42-2.63 6.45-.24.36 0 .72.24.96.48.48.72 1.07.6 1.91-.36 1.91-.12 3.82-.6 5.85-.12.72-.12 1.31.36 2.15l6.69 9.67c2.75 3.94 5.26 7.88 7.88 11.7 1.79 2.63 3.34 5.26 4.3 8.24.96 3.11 2.27 6.09 3.46 9.08 1.43 3.58 2.87 7.17 4.3 10.75.24.48.24 1.07-.24 1.43-.48.48-.6.96-.6 1.55V221c.35 2.74.23 5.01.35 7.28zm-55.54-114.3c-.72 0-.96.36-.72.96 2.03 5.61 3.11 11.47 5.85 16.96.6 1.19 1.43 2.15 2.63 2.87.72.48 1.07.36 1.19-.48.24-2.15.6-4.18.72-6.21.12-1.55.12-3.22.48-4.78.6-2.75.24-5.61.36-8.24 0-.72-.36-.84-.96-.84h-4.66c-1.66-.24-3.22-.24-4.89-.24z"/><path fill="#fff" d="M298.37 270.22c-1.74 0-3.37-.28-4.96-.54-.4-.07-.8-.14-1.2-.2-.98-.15-1.95-.35-2.91-.55-2.08-.43-4.05-.83-6.17-.76-3.91.13-4.35-.44-5.37-4.02-.14-.26-.14-.71-.14-1-.24-1.27-.39-2.87.44-4.25.05-.07.1-.15-.02-.38l-.1-.21c-.41-.83-.83-1.68-1.54-2.04-1.53-.63-2.2-1.87-2.91-3.18l-.1-.17c-.93-1.73-2.11-3.24-3.32-4.25-.98-.86-1.93-1.92-2.81-2.93-.45-.62-.93-1.15-1.4-1.67-1.29-1.44-2.62-2.92-2.81-5.36-.17-1.48-.78-2.82-1.42-4.24-.23-.51-.47-1.02-.68-1.55-2.06-5.36-1.72-10.2 1.01-14.41.31-.46.28-.49.2-.57-.08-.07-.23 0-.32.04s-.18.08-.27.11c-1.21.4-2.83.87-4.61.87-1.12 0-1.82-.43-2.43-1.5-1.21-2.41-2.34-4.87-3.44-7.25-.91-1.97-1.82-3.95-2.79-5.93-.29-.57-.47-.65-.51-.66-.05-.01-.27-.01-.82.48-1.81 1.81-3.24 3.72-4.77 5.75l-1.01 1.34c-1.26 1.64-2.36 2.37-4.52 1.51-1.91-.53-4.22-1.26-6.41-2.55-.31-.17-.5-.25-.62-.3-.02.13-.04.35-.04.74v.35c.01 1.06.03 2.37-.89 3.29-1.1 1.1-1.95 2.59-2.6 4.54-.29.74-.57 1.25-.92 1.72-1.25 2.17-2.59 4.48-4.03 6.77l-.19.34c-1.11 1.99-2.15 3.86-2.47 6.12-.18 1.27-.43 2.5-.66 3.68-.23 1.17-.47 2.37-.65 3.61-.11.47-.11.91-.11 1.47v9.67c0 .9.24 1.89.65 2.72.71 1.72 1.57 3.23 2.48 4.83l.5.88c.61 1.09 1.09 2.19 1.56 3.24.12.31.4 1.05-.04 1.61-.45.58-1.34.48-1.64.45-.89-.13-1.69-.48-2.67-1.18-1.92-1.79-3.21-3.63-4.58-5.57l-.22-.31c-.4-.5-.81-1.05-1.21-1.59-1.38-1.86-2.68-3.62-4.78-4.67-1.94-.88-1.79-2.36-1.38-3.7.19-.76.55-1.95 1.11-3.08.74-1.76 1.18-3.6 1.65-5.55.11-.46.22-.92.33-1.37.4-1.5.06-3.24-.26-4.92l-.11-.56c-.41-1.62-.88-3.03-1.39-4.16-1.11-2.63-.82-5.04-.4-7.06.24-1.2.46-2.33.46-3.46 0-3.04 1.04-5.07 3.38-6.59.68-.46 1.4-.93 2.09-1.51 2.21-1.95 3.33-3.74 3.74-5.98.09-.65.01-.95-.64-1.27-.97-.32-2.19-.91-3.27-1.58-1.27-.76-1.92-1.56-1.46-3.4l1.15-4.98c.31-1.28.31-1.28-.94-1.86-1.25-.58-2.13-1.54-2.91-2.39-.43-.47-.84-.91-1.28-1.27-1.26-1.13-2.29-2.66-2.93-4.31-.42-1.31-.85-2.59-1.28-3.87-.58-1.72-1.17-3.46-1.72-5.24-.26-.66-.26-1.34-.26-2.21-.16-1.75.04-3.56.22-5.31.1-.97.21-1.98.25-2.96 0-.58.2-1.16.41-1.78l.1-.3c.28-.89.62-1.78.94-2.64.38-.99.77-2.01 1.08-3.08.18-.54.52-.99.96-1.28 1.91-1.63 3.85-3.32 5.78-5.02 1.95-1.71 3.89-3.41 5.87-5.09.17-.15.35-.32.53-.48.92-.85 1.96-1.81 3.3-2.15.91-.34.91-.34.64-1.43-.56-1.67-1.15-3.34-2.08-4.85-1.07-2.08-2.12-4.09-3.18-6.1-1.82-3.45-3.7-7.02-5.45-10.68-.59-1.32-1.02-2.47-1.35-3.55-.17-.7-.31-1.35-.45-2-.39-1.81-.76-3.52-1.45-5.23-.15-.59-.28-1.11-.28-1.66 0-1 0-2.38 1.14-3.03 2.38-1.55 4.87-3.17 8.01-3.42 3.06-.22 6.34-.97 9.75-2.23 1.27-.46 2.52-1.04 3.72-1.59 2.53-1.17 5.15-2.37 8.14-2.62.19-.03.48-.17.78-.31.45-.21.96-.45 1.58-.52 1.29-.27 2.66-.63 3.98-.97 2.11-.55 4.3-1.12 6.52-1.42 1.56-.13 3.04-.67 4.46-1.2 1.14-.42 2.31-.85 3.51-1.07 1.78-.31 3.37-.81 5.05-1.34l.61-.19c.45-.11.72-.29.84-.53.75-1.18 1.73-2.72 1.73-4.15V76c0-3.3 1.38-5.83 4-7.33 2.8-1.75 6.02-2.09 9.55-1.01 2.37.65 4.74 1.81 7.45 3.66 3.42 2.6 4.67 5.63 3.95 9.56-.42 2.25-.98 3.91-1.85 5.55-.51 1.01-.77 2.21-.77 3.54.08 1.41.05 2.77.03 4.22-.01.73-.03 1.46-.03 2.23 0 1.29-.29 1.91-1.91 1.91h-1.79c-.61 0-1 .23-1.26.75-.26.93-.87 1.51-1.59 2.1-.89.64-1.7 1.28-2.1 2.27-.21.85-1.13.85-1.63.85-1.53-.14-2.76-.82-3.7-2.02l-.08-.08c-.45-.46-.74-.72-1.28-.65-1.21.27-2.44.36-3.6.24-.09 0-.19.04-.21.05.1.76-.03 1.59-.16 2.39-.11.73-.22 1.42-.17 2.05 0 2.15-.32 3.82-1.01 5.32a3.718 3.718 0 0 0-.01 3.3c.5 1.2.96 2.35 1.43 3.51.91 2.26 1.85 4.61 2.88 6.9 1.08 2.48 2.43 5.15 4.03 7.95 2.58 4.27 6.08 7.8 10.68 10.78.95.59 2.02 1.37 2.7 2.6 2.04 3.18 3.4 6.54 4.46 9.4.89 2.57 2.03 5.17 4.34 6.9 2.01 1.45 4.02 2.73 6.61 2.39.61-.09 1.31-.06 1.98-.03.3.01.58.03.84.03 1.3.1 1.84.65 2.07 1.1.24.46.36 1.26-.36 2.44-.39.52-.83 1.01-1.6 1.32-.19.08-.37.16-.56.23-.39.17-.77.33-1.27.5-.08.03-.14.06-.18.09.04.06.11.15.21.28.17.21.37.4.56.59.37.36.79.77 1.06 1.31a9.141 9.141 0 0 0 3.23 3.22c1.58.86 2.46 2.46 2.33 4.26 0 1-.62 1.63-1.67 1.63-.98-.13-1.73-.26-2.62-.65-1.02-.45-1.97-1-2.9-1.53-1.11-.64-2.16-1.24-3.29-1.68-1.57-.52-2.88-1.6-3.76-3.12-1.25-2.25-2.8-4.03-4.61-5.31-1.64-1-3.02-2.36-4.36-3.67-.44-.43-.87-.86-1.32-1.27l-.76-.76c-2.69-2.7-5.47-5.49-8.59-7.54-1.71-1.07-3.08-2.8-4.16-5.28l-.19-.45c-1.12-2.69-2.27-5.47-4.04-7.78-3.4-4.34-7.35-7.95-11.53-11.77l-.1-.09c-.13-.1-.21-.13-.23-.14 0 .01-.07.07-.17.24-.76 1.38-1.57 2.7-2.36 3.98-.58.94-1.15 1.87-1.7 2.82-.36.68-.77 1.35-1.17 2.03-.63 1.05-1.28 2.14-1.78 3.28-.37.83-.67 1.69-.96 2.53-.46 1.33-.94 2.7-1.7 3.98-.02 0 0 .08.15.23.65.65.9 1.46.77 2.42-.16.86-.2 1.69-.24 2.57-.05 1.07-.1 2.18-.37 3.33-.1.6-.08 1.05.3 1.72l6.66 9.63c1.5 2.15 2.95 4.33 4.34 6.43 1.18 1.77 2.35 3.53 3.54 5.27 1.57 2.31 3.33 5.11 4.38 8.4.73 2.38 1.69 4.73 2.62 7 .28.68.56 1.36.83 2.04l4.3 10.75c.39.77.22 1.64-.43 2.13-.25.26-.36.55-.36 1.08V221c.24 1.77.26 3.39.29 4.95.01.78.03 1.54.07 2.3v.03c0 .82 0 1.75.11 2.54.39 2.52 1.24 4.95 2.05 7.29.4 1.16.8 2.32 1.16 3.49.67 2.31 1.49 4.6 2.29 6.82.48 1.35.96 2.69 1.41 4.03.72 2.04 1.4 3.96 2.77 5.67.4.48.78 1.04 1.15 1.58.72 1.05 1.46 2.13 2.4 2.71 2.2 1.39 4.57 2.68 7.31 2.54 1.79-.14 3.04.62 3.69 2.29.3.77.51 1.56.13 2.16-.38.6-1.17.74-1.96.8-.24.02-.5.02-.76.02zm-14.71-3.25c2.07 0 4.01.4 5.89.79.94.19 1.88.39 2.85.54.41.07.81.13 1.21.2 1.84.31 3.57.6 5.47.51.88-.06 1.01-.23 1.02-.24.02-.03.1-.23-.24-1.1-.45-1.18-1.2-1.63-2.5-1.53-3.02.13-5.66-1.23-8.01-2.72-1.15-.71-1.96-1.9-2.75-3.05-.37-.54-.72-1.05-1.09-1.5-1.5-1.88-2.25-3.99-2.97-6.03-.45-1.35-.93-2.68-1.41-4.02-.8-2.24-1.63-4.55-2.31-6.89-.34-1.15-.74-2.29-1.14-3.44-.83-2.4-1.69-4.87-2.1-7.51-.12-.88-.13-1.85-.13-2.7-.04-.77-.05-1.54-.07-2.33-.03-1.53-.05-3.11-.29-4.9v-7.96c0-.6.09-1.3.77-1.98.34-.26.18-.63.13-.74l-4.32-10.79c-.27-.68-.55-1.35-.82-2.03-.94-2.29-1.91-4.67-2.66-7.1-1-3.13-2.7-5.84-4.22-8.08-1.2-1.74-2.37-3.51-3.55-5.29-1.39-2.1-2.84-4.27-4.33-6.41l-6.69-9.68c-.58-1.01-.6-1.73-.46-2.59.25-1.09.3-2.14.35-3.15.04-.88.08-1.8.25-2.71.08-.56-.05-1-.43-1.38-.81-.81-.44-1.51-.31-1.71.68-1.15 1.12-2.41 1.58-3.74.3-.86.61-1.75 1-2.62.53-1.21 1.2-2.33 1.85-3.42.4-.66.79-1.32 1.15-2 .57-.98 1.14-1.92 1.72-2.86.78-1.27 1.59-2.58 2.34-3.95.19-.32.49-.73 1-.83.38-.07.78.06 1.21.41l.13.12c4.22 3.86 8.21 7.5 11.67 11.92 1.87 2.45 3.05 5.3 4.2 8.06l.18.44c.98 2.24 2.19 3.79 3.71 4.74 3.24 2.12 6.07 4.96 8.8 7.7l.74.75c.44.41.88.84 1.33 1.28 1.29 1.27 2.62 2.58 4.18 3.53 1.99 1.4 3.66 3.32 4.99 5.71.74 1.27 1.8 2.14 3.13 2.59 1.24.48 2.38 1.14 3.48 1.77.9.52 1.83 1.05 2.78 1.47.76.32 1.4.43 2.23.55.3-.01.39-.1.39-.48.1-1.39-.53-2.53-1.72-3.18-1.53-.9-2.81-2.17-3.69-3.69-.2-.39-.51-.7-.85-1.02-.23-.23-.46-.45-.66-.7-.33-.39-.65-.83-.53-1.33.11-.47.55-.71 1-.91.51-.17.87-.33 1.22-.48.19-.08.38-.16.58-.24.48-.19.76-.48 1.06-.88.31-.5.42-.97.29-1.23-.12-.24-.51-.4-1.05-.44-.24.01-.54-.01-.85-.02-.62-.03-1.26-.05-1.77.02-3.03.39-5.35-1.08-7.48-2.62-2.57-1.93-3.8-4.72-4.75-7.45-1.03-2.79-2.36-6.07-4.36-9.19-.57-1.02-1.49-1.69-2.32-2.2-4.76-3.09-8.38-6.74-11.06-11.19-1.63-2.85-3-5.56-4.1-8.07-1.04-2.31-1.98-4.66-2.9-6.94-.46-1.15-.93-2.31-1.41-3.46-.66-1.32-.66-2.95.02-4.32.61-1.31.89-2.83.89-4.75-.06-.73.06-1.52.18-2.29.12-.73.23-1.49.18-2.21 0-.76.58-1.24 1.43-1.24 1.09.11 2.19.03 3.33-.23 1.21-.16 1.87.51 2.34.99l.12.13c.79 1 1.7 1.51 2.86 1.62.11 0 .39 0 .47-.04.56-1.46 1.71-2.29 2.48-2.83.67-.56 1.02-.93 1.21-1.59.5-1.02 1.3-1.51 2.37-1.51h1.79c.53 0 .65-.05.68-.07.01-.03.04-.18.04-.65 0-.77.01-1.52.03-2.25.03-1.42.05-2.77-.03-4.16 0-1.55.3-2.93.9-4.12.84-1.56 1.34-3.07 1.74-5.22.63-3.48-.44-6.06-3.48-8.37-2.56-1.75-4.82-2.87-7.08-3.48-3.2-.99-6.09-.69-8.6.89-2.28 1.3-3.42 3.42-3.42 6.3v6.09c0 1.78-1.09 3.49-1.88 4.74-.17.34-.6.86-1.55 1.09l-.58.18c-1.72.54-3.35 1.05-5.2 1.38-1.09.2-2.17.59-3.31 1.01-1.5.55-3.05 1.12-4.75 1.26-2.12.28-4.27.84-6.35 1.39-1.34.35-2.73.71-4.09.99-.48.06-.88.25-1.27.43-.36.17-.74.34-1.14.41-2.84.24-5.24 1.35-7.79 2.52-1.23.57-2.49 1.15-3.81 1.63-3.52 1.3-6.91 2.08-10.08 2.3-2.83.23-5.09 1.7-7.48 3.25-.53.3-.56 1.02-.56 2.01 0 .4.11.83.22 1.28.7 1.74 1.08 3.49 1.48 5.35.14.64.28 1.29.43 1.94.3.99.72 2.1 1.28 3.36 1.73 3.62 3.61 7.18 5.42 10.62 1.06 2.01 2.12 4.03 3.16 6.07.97 1.58 1.59 3.31 2.18 5.1.45 1.78.18 2.31-1.44 2.9-1.1.28-1.98 1.09-2.83 1.88-.19.17-.37.35-.56.51-1.98 1.68-3.92 3.38-5.86 5.09-1.94 1.7-3.88 3.4-5.85 5.08-.27.19-.45.42-.54.69-.32 1.09-.72 2.14-1.1 3.15-.34.88-.65 1.71-.92 2.58l-.11.32c-.18.54-.34 1-.34 1.42-.04 1.04-.15 2.07-.26 3.06-.18 1.69-.37 3.44-.22 5.13 0 .85 0 1.37.2 1.86.56 1.81 1.14 3.54 1.72 5.26.44 1.29.87 2.58 1.28 3.86.56 1.45 1.48 2.81 2.58 3.8.49.4.94.89 1.38 1.37.74.8 1.5 1.63 2.53 2.12 1.93.9 2.08 1.2 1.6 3.22l-1.15 4.98c-.28 1.11-.11 1.48.92 2.1 1 .62 2.15 1.18 3.11 1.5 1.43.71 1.48 1.69 1.36 2.56-.46 2.51-1.73 4.57-4.14 6.69-.76.63-1.5 1.12-2.21 1.6-1.99 1.29-2.84 2.97-2.84 5.59 0 1.25-.25 2.49-.49 3.69-.39 1.85-.65 4.04.32 6.35.54 1.18 1.03 2.66 1.46 4.39l.11.59c.35 1.82.71 3.69.24 5.45l-.33 1.35c-.46 1.91-.94 3.89-1.73 5.77-.53 1.07-.86 2.16-1.05 2.9-.45 1.48-.14 1.9.74 2.3 2.38 1.19 3.83 3.15 5.23 5.04.39.53.78 1.06 1.2 1.58l.24.34c1.33 1.89 2.59 3.67 4.36 5.33.77.54 1.38.82 2.06.92.34.04.49 0 .55-.01-.02-.03-.03-.15-.11-.38-.46-1.03-.94-2.1-1.52-3.14l-.49-.87c-.93-1.63-1.8-3.17-2.52-4.92-.48-.97-.76-2.12-.76-3.21v-9.67c0-.62 0-1.15.14-1.7.17-1.21.41-2.43.65-3.61.23-1.17.47-2.37.65-3.61.35-2.48 1.45-4.45 2.61-6.53l.2-.36c1.45-2.29 2.78-4.59 4.07-6.82.33-.45.55-.86.8-1.47.7-2.11 1.65-3.75 2.88-4.98.57-.57.56-1.52.54-2.43v-.37c0-.82.04-1.53.58-1.84.53-.31 1.16-.02 1.86.36 2.09 1.23 4.31 1.93 6.2 2.46 1.47.58 2.05.37 3.19-1.1l1-1.33c1.55-2.06 3.01-4 4.9-5.9.51-.45 1.15-.93 1.87-.79.7.14 1.11.81 1.36 1.3.97 1.99 1.89 3.98 2.8 5.95 1.1 2.37 2.23 4.82 3.41 7.18.38.67.68.86 1.38.86 1.6 0 3.04-.41 4.23-.8.05-.02.11-.04.17-.07.31-.13 1.12-.49 1.69.28.75.74.16 1.62-.07 1.96-2.53 3.91-2.84 8.39-.93 13.36.21.5.44 1 .66 1.5.66 1.44 1.34 2.93 1.52 4.62.16 2.06 1.3 3.33 2.51 4.68.49.54.99 1.1 1.44 1.73.83.94 1.74 1.97 2.66 2.77 1.31 1.09 2.6 2.73 3.6 4.59l.09.17c.66 1.21 1.18 2.17 2.36 2.66 1.1.55 1.64 1.64 2.12 2.59l.1.2c.35.71.17 1.24-.04 1.55-.61 1.02-.48 2.34-.27 3.5.01.24.01.56.07.68.94 3.24.97 3.36 4.22 3.25.22-.01.41-.01.6-.01zm-54.7-131.33c-.38 0-.74-.2-1.01-.38-1.22-.73-2.16-1.75-2.83-3.1-1.77-3.53-2.86-7.24-3.92-10.83-.6-2.04-1.23-4.16-1.96-6.19-.24-.59-.1-.99.06-1.23s.51-.53 1.22-.53c1.68 0 3.27 0 4.98.24l4.57-.01c.38 0 1.55 0 1.55 1.43-.04.88-.03 1.75-.01 2.68.03 1.86.05 3.79-.36 5.69-.26 1.11-.32 2.31-.39 3.47-.02.41-.05.83-.08 1.23-.08 1.31-.25 2.59-.43 3.95-.1.75-.2 1.51-.29 2.28-.04.25-.14.95-.71 1.2a.67.67 0 0 1-.39.1zm-8.64-21.04c.01.02.02.06.04.12.76 2.09 1.38 4.22 1.99 6.28 1.04 3.54 2.12 7.2 3.84 10.63.57 1.14 1.35 1.99 2.4 2.62.11.08.2.12.26.15.01-.05.03-.11.04-.2.08-.76.19-1.53.29-2.29.18-1.34.35-2.6.42-3.87.03-.41.05-.81.08-1.21.07-1.21.14-2.46.42-3.66.38-1.76.36-3.62.33-5.41-.01-.9-.03-1.83.01-2.72 0-.12-.02-.18-.03-.19 0 .01-.08-.02-.33-.02h-4.66c-1.71-.24-3.26-.24-4.9-.24-.1-.01-.16 0-.2.01z"/></svg>
