<svg xmlns="http://www.w3.org/2000/svg" viewBox="0 0 600 600"><ellipse cx="301.7" cy="300.1" rx="289.3" ry="287" fill="#fff" stroke="#000" stroke-width="6" stroke-miterlimit="10" id="Layer_2"/><g id="Layer_1"><path d="M301 589.7c-32.9.2-64.7-5.5-95.8-16.4-25.3-8.8-48.9-20.6-70.8-35.9-24.9-17.4-46.5-38.2-64.9-62.3-10.1-13.2-19-27.2-26.6-42-12.6-24.7-21.8-50.6-26.8-77.9-3.5-19.1-5.7-38.3-5-57.7.8-21.9 2.7-43.7 8.3-65 5.5-21 12.7-41.4 22.6-60.8 12.2-23.7 28-44.8 45.4-64.8 10.6-12.2 22.5-23 35.6-32.4 13-9.4 26.7-17.9 40.5-26 9-5.3 18.5-9.9 28.3-13.5 18.2-6.7 36.7-12.7 55.9-16 20.5-3.6 41.3-5.2 62-4.7 20.7.5 41.4 2.8 61.6 8.2 18.7 4.9 37.1 11.1 54.6 19.4 17.9 8.4 34.8 18.5 50.5 30.7 23.1 18.1 44 38.4 61 62.4 14.7 20.7 26.8 42.7 35.9 66.4 6.3 16.4 10.8 33.3 13.2 50.7 2.2 15.8 4.5 31.7 4.5 47.6 0 16.7-2.6 33.4-4.2 50.1-1.2 12.3-4.5 24.3-8.4 35.9-6.3 18.6-13.6 36.8-23.1 54.1-8.3 15.2-17.7 29.7-28.7 43.1-7.5 9.1-16.1 17.3-24.3 25.7-15.6 15.9-33.3 29.1-52.4 40.2-13.8 8-28.5 14.3-43.1 20.9-18.3 8.3-37.9 12.4-57.5 16-15.9 2.9-32.1 3.7-48.3 4zm91.6-178.2v-.5c21.3 0 42.6.1 63.8-.1 3.3 0 6.7-.6 9.9-1.5 7.4-2 11-7 10.8-14.6-.2-7.8-.5-15.7-1-23.5-3.2-45.8-6.6-91.6-9.7-137.4-.5-6.9-1.3-13.3-5.5-18.9-4.1-5.6-7.9-11.4-12.5-16.5-3.7-4.1-9-5.3-14.6-4.4-4.6.7-9.2 1.6-13.9 2-10 .8-20.2 2.1-30.1-.3-8.2-2-16.1-4.9-24.2-7.4-21.6-6.5-43.1-5.9-64.6 1.2-1 .3-2.3.2-3.4 0-5.7-1.3-11.4-3.2-17.2-4.1-20.4-3.2-40.1-.2-59.2 7.6-6.9 2.8-14.1 4.9-21.7 4.7-11-.4-21.9-1-32.9-2.2-7.8-.8-14.4.7-18.9 7.1-4.9 6.9-9.2 14.3-13.8 21.6-.4.6-.4 1.4-.5 2-1.4 22.7-2.9 45.3-4.3 68-1.4 23.7-2.8 47.4-4.1 71-.6 11-1 22-1.3 33-.2 5.4 2.2 9.8 7.1 11.8 4 1.7 8.6 3.1 12.9 3.1 18.9.1 37.9-.3 56.8-.5 24.2-.3 48.5-.5 72.7-.7 1.4 0 3.4.6 4.2 1.6 11.8 14.6 31.7 15 44.9.1 1.4-1.6 2.9-2.2 5-2.2h65.3zm-254 60.6c-1.1-2.9-14.3-14.6-16.3-14.7 2.7 5.4 2.7 5.3-1.8 10.1-5.6 5.9-11.2 11.8-16.8 17.8-3.8 4-3.8 4-8.6 1.3-.1-.1-.3.1-.7.3.1.4.2 1 .5 1.3 3.6 3.3 7.1 6.7 10.9 9.8.5.4 1.9.3 2.7 0 4.1-1.8 8.1-3.7 12.2-5.6 4-1.8 8.1-3.6 12.6-5.6-.4 1.3-.5 2-.7 2.6-2.7 7.5-5.3 14.9-8.1 22.4-.6 1.7-.6 2.8.8 4 3.2 2.8 6.3 5.8 9.5 8.6.5.4 1.2.6 2.2 1.1-.1-.9 0-1.2-.2-1.4-2.8-4.2-2.8-4.2.5-7.8 5.9-6.2 11.7-12.4 17.6-18.6 3.7-3.9 3.7-3.9 8.8-1.7.2.1.5-.1 1.7-.4-3.9-3.6-7.4-6.9-10.9-10.1-.2.2-.5.4-.7.6.1.4.2.9.5 1.3 2.4 3.6 2.3 4.5-.6 7.6l-12.9 13.8c-2.1 2.2-4.3 4.3-6.8 6.8 4.5-12.6 8.9-24.7 13.3-36.9-.2-.2-.5-.4-.7-.6-11.8 5.2-23.7 10.4-36.3 16 .8-1.1 1-1.7 1.4-2.1 5.4-5.8 10.9-11.5 16.4-17.3 4.5-4.8 4.5-4.8 10.5-2.6zm58.7-426.6c-.5-.1-.9-.3-1.2-.2-5.9 2.3-11.8 4.5-17.6 6.9-.5.2-.8 1-1.2 1.5.7.2 1.5.7 2 .5 3-1 4.6.2 5.7 2.9 3.8 9.6 7.7 19.3 11.6 28.9 1 2.5.3 4.1-2.1 5.2-.6.3-1 1-1.6 1.5.2.3.4.5.6.8 6.8-2.5 13.6-4.9 20.3-8.3-.7-.8-.9-1-1-1.1-.3-.1-.6-.1-.9 0-3.2 1.2-4.7-.4-5.7-3.2-1.2-3.3-2.7-6.6-3.9-9.9-.3-.7-.2-1.6-.3-3.3 6.6 4.4 13.3 6.9 18.6 11.6-.4.7-.6 1-.7 1.2-.4.7-.8 1.4-1.3 2.1.9 0 1.9.2 2.7-.1 5.2-2 10.4-4.1 15.6-6.3.9-.4 1.6-1 2.7-1.8-12.6-2-21.2-10.4-32-15.3 1.4-2.7 2.5-5 3.8-7.1 3.2-4.9 4.7-10.9 9.6-14.7.4-.3.3-1 .5-1.6-.6-.1-1.3-.4-1.8-.2-4.2 1.6-8.3 3.3-12.4 5.1-.6.2-.8 1.1-1.2 1.7.6.1 1.3.4 1.9.4 3.3-.4 4.3.6 2.8 3.6-3.2 6.3-6.6 12.5-10.4 19.5-1.6-4.1-2.8-7.5-4.3-10.8-1.5-3.3-2.7-6.5 1.5-8.8-.2.3-.3-.1-.3-.7zM438.1 61c-.2 1-.3 1.2-.3 1.4.1.3.2.6.5.8 3.4 2.1 2.5 4.4.8 7.1-5 7.8-9.9 15.7-14.9 23.4-2.6 4.1-2.7 5.7-8.4 3.1-.1 0-.3.2-.8.6.7.6 1.3 1.3 2 1.7 5.9 3.8 11.7 7.8 17.8 11.2 3.2 1.8 6.9 2.9 10.6 3.4 4.3.6 7.6-1.8 9.7-5.6 2-3.6 1.6-7-.7-10.3-.8-1.1-1.6-2.3-2.6-3.8 1.1.2 1.8.3 2.5.4 7.4 1.2 12.5-4.1 11-11.5-.8-4.2-3.7-6.7-6.9-8.9-3.5-2.4-7.1-4.7-10.7-7-3.2-2-6.3-3.9-9.6-6zM110.4 441.3c-.2-.6-.2-1.3-.5-1.8-3.8-6.3-7.3-12.7-11.6-18.7-2.2-3.1-5.4-6-8.7-7.7-6.9-3.5-14.4 2.2-13.8 9.9.1 1.5.5 3 .8 4.9-1.2-.8-2-1.4-2.8-1.9-5.2-3.5-11.1-1.7-13.6 4.1-1.8 4.2-.7 8 1.4 11.7 3.8 6.5 7.8 12.9 11.7 19.3.2.4.8.6 1.6 1.1 0-.8.2-1.2.1-1.5-1.4-4.4-1.4-4.5 2.4-6.7 7.3-4.4 14.7-8.7 22.1-12.9 6.7-3.9 5.3-3.9 10.9.2zm421.1-188.8c-.2 1-.4 1.6-.4 2.2.8 6.5 1.4 13 2.4 19.4 2.2 14.7 14.5 22 28.6 17.3 10-3.4 15-12 13.8-23.7-.6-6.1-1.4-12.1-2.2-18.2-.1-.6-.4-1.3-1-2.6-.5 1.2-.7 1.5-.8 1.9-.5 4.6-.8 4.9-5.2 5.5-8.4 1.1-16.8 2.2-25.1 3.2-6.7.8-6.7.8-10.1-5zm21.3 68.5c-13.2-.1-22 9.7-22 24.3 0 11.1 10.3 20.7 22.6 20.5 12.7-.2 21.4-8.7 21.9-23.9.4-11.6-9.9-20.9-22.5-20.9zM22.5 284.1c.9 1.9 2.2 3.6 2.2 5.3 0 1.9-1.3 3.8-1.8 5.8-2.1 8.6-1 16.5 5.1 23.4 10.7 12.1 29.3 9.9 36.6-4.4 3.5-6.9 3.1-14.2 1.6-21.5-1.6-8.1-1.6-8.3-9.6-8.2-3.7 0-6.7-.4-7.3-4.7 0-.1-.4-.1-.5-.1-1.4 2.9-1.4 18.5.2 20.9.3-1 .6-1.7.7-2.4.4-2 1.4-3.1 3.5-3 2.6.1 5.3 0 7.9.2.8.1 1.9.8 2.2 1.5 2.7 6.5-.4 13.7-7 15.9-8 2.6-16.1 2.4-23.9-.9-4.4-1.8-6.8-5.3-7.2-10.1-.5-6.3 3.2-12.1 9.8-15.1 1-.4 1.9-1.1 2.8-1.7l-.3-.9h-15zm499.7-55.9c.2.3.5.6.7.9 1-.3 2-.6 3-1l30-12c3.9-1.6 5.8-1.9 8.1 2 .1.2.7.2 1.9.6-1.9-5-3.6-9.3-5.3-13.7-.4.1-.7.2-1.1.3.1.9.3 1.9.1 2.7-.3 1.3-.6 3.2-1.5 3.6-6.1 2.9-12.3 5.5-18.5 8.2-.2-1.1 0-1.7.3-2.2 3.3-5.7 6.3-11.7 10.2-17 4.4-6.2 6-12.1 1.7-18.9-.6-.9-.8-2.1-1.2-3.1-.2-.5-.8-.9-1.2-1.3.6 6.1-3.1 8-7.7 9.7-7.4 2.7-14.6 5.8-21.8 8.7-4.7 1.9-5.4 1.6-8.4-2.4-.2-.2-.6-.3-1.9-.8 2.1 5.4 3.9 10.1 5.8 14.7.3-.1.6-.2.9-.2.1-.4.3-.7.2-1.1-.5-5.1-.2-5.6 4.4-7.6 5.1-2.1 10.2-4.1 15.3-6.2 2.6-1 5.2-2 8.5-3.3-7.9 13.6-15.2 26.5-22.5 39.4zm2.7 236.7c-.3-.3-.6-.5-.8-.8-.5.4-1.1.7-1.6 1.2-1.9 1.8-3.8 1.7-5.7 0-7.6-6.6-15.3-13.1-22.9-19.7-2.1-1.8-2.5-3.5-.7-5.8.4-.5.4-1.2.6-1.9-.2-.1-.5-.1-.7-.2-7.8 8.8-15.6 17.7-23.6 26.8 3 3.5 5.9 6.7 8.8 10 .2-.2.5-.4.7-.5-.1-.4-.1-.8-.3-1.1-3.8-8.2-2.7-13.4 4-19.2.9-.7 2.9-1.2 3.6-.7 3.9 2.9 7.5 6.1 11.3 9.2-4.3 5.5-8.9 2.5-13.3.6-.1.3-.2.6-.3 1l16.5 14.1c.2-.2.4-.5.6-.7-4.6-9.3-4.6-9.3-1-12.9 4 3.4 8 6.9 12.5 10.8-3.2 2.9-5.8 5.7-8.8 7.8-3.6 2.5-7.3.4-10.9-1.3-.1.4-.3.7-.4 1.1 3.1 2.7 6.1 5.3 9.4 8.2 7.8-8.8 15.4-17.4 23-26zM193.7 535c-2.5 5-4.9 9.7-7.5 14.9-3.5-2.4-6.9-4.2-9.7-6.6-3.3-2.8-1.8-7-2.3-10.7-2 2.9-3.5 5.9-5.1 8.7-1 1.7-.7 2.6 1.2 3.5 8.2 3.9 16.3 7.9 24.4 11.8 1.5.7 3.2 1.3 4.7 2 .1-.9 0-1.2-.3-1.5-3.7-2.9-3.8-3.1-1.7-7.2 4-7.8 7.9-15.6 11.9-23.4 2.6-5 2.6-5 8-4 .1 0 .2-.3.6-.7l-4.5-2.4c-7.6-3.7-15.2-7.4-22.7-11.2-4.9-2.5-4.9-2.6-8 1.9-1.6 2.2-3.1 4.5-4.6 6.8.2.2.5.4.7.6.5-.3 1-.4 1.5-.8 6.6-5.4 11.8-5.6 19.2-1.1 1.8 1.1 2.5 2.4 1.5 4.3-1.8 3.7-3.5 7.3-5.4 10.9-.3.5-1.8.9-2.3.6-2.8-1.5-3.2-4.2-2.8-7.1.2-1.4.4-2.8.5-4.2-.3-.1-.6-.2-1-.3-3.2 6.4-6.4 12.7-9.6 19.1.3.3.6.5 1 .8 3.2-3.7 6.1-8 12.3-4.7zm322.4-140.4c.5.3.9.6 1.4.9.2-.5.3-1 .6-1.4 1.5-2.8 3.9-3.4 6.7-2.3 2.1.8 4.1 1.7 6.2 2.6 5.8 2.6 11.6 5.2 18.1 8.1-14.9 4-29.1 7.7-43.2 11.5v1c.8.5 1.6 1 2.5 1.4 9.8 4.4 19.7 8.8 29.5 13.1 2.9 1.3 4.9 2.9 3.8 6.5-.1.3.3.8.9 2 2.2-4.8 4.1-8.9 5.9-13-.3-.2-.6-.3-.8-.5-.3.2-.7.4-.9.7-1.6 2.8-3.8 3.5-6.7 2.2-4.1-1.8-8.2-3.4-12.3-5.2-1.4-.6-2.8-1.3-4.2-2 7.5-2.5 14.8-4.7 22.3-6 6.2-1.1 10.8-3.4 12.4-10 .4-1.6 1.4-2.9 2-4.4.2-.5.1-1.1.2-2.4-2.7 2.9-5.1 5.1-8.4 3.6-8.7-3.8-17.3-7.7-25.9-11.6-2.7-1.2-3.8-3.2-3-6.2.2-.5 0-1.2-.1-1.7-.3-.1-.6-.1-.8-.2-2.2 4.5-4.2 8.9-6.2 13.3zM80.7 217.9c-.4-.3-.7-.5-1.1-.8-2.3 3.7-6 3.9-9.6 4.4-11.9 1.7-23.7 3.5-35.6 5.2-.7.1-1.4.4-2.4.7.6.7.9 1.3 1.3 1.6 9.9 8.2 19.8 16.3 29.6 24.5 1.4 1.2 2.6 2.6 3.6 4 .7 1.1 1 2.5 1.5 3.7h1c1.2-4.6 2.5-9.1 3.7-13.7-.4-.1-.8-.3-1.1-.4-.5.9-1.1 1.8-1.6 2.6-1 1.7-2.4 2.1-4.1 1.1-5.5-3.1-5.9-4.2-3.8-10.2.2-.6.3-1.2.5-1.8 1.8-6.1 1.8-6.1 8.1-6.8.3 0 .6-.1.9-.1 2-.2 2.8.8 2.6 2.7-.1.9 0 1.8 0 2.8.4 0 .8.1 1.3.1 1.7-6.3 3.4-13 5.2-19.6zm48.1-75.9c-4-.3-7.5-.1-10.7-.9-9-2.1-17.9-4.5-26.9-6.8-3.5-.9-7-1.7-11.3-2.8.9 2 1.3 3.3 1.9 4.5l16.5 30.6c1.6 3 3.2 5.9 2.2 9.5-.1.3.4.8.8 1.6 3-4.1 6.4-7.6 8.3-12.1-.7-.1-1.1-.1-1.4.2-4.2 3-5 2.7-7.7-1.6-1.5-2.5-1.6-4.3.5-6.3.9-.8 1.5-1.9 2.2-2.9 4.3-5.9 4.3-5.9 11.2-3.7.1 0 .2 0 .3.1 2.1.5 2.7 1.6 1.5 3.5-.5.8-.5 1.7-.8 2.6.3.1.7.3 1 .4 4.3-5.3 8.5-10.7 12.4-15.9zM317.5 29.3c-.9 11.6-1.7 23.3-2.6 34.9-.2 2.4-2.2 3-4.3 3.1-.6 0-1.3.3-2.5.5 3.5 1.8 21.4 2.8 22.9 1.7-5.9-3.1-5.7-1.2-5-9.6.6-8.4 1.2-16.8 1.8-25.3.4-5.2 2.4-6.5 7.1-3.9 1.8 1 2.9 3.1 4.1 4.9.8 1.1 1 2.6 1.5 3.9.3-.1.7-.1 1-.2.2-2.9.3-5.8.7-8.6.4-2.7-.3-3.5-3.1-3.7-9.4-.5-18.9-1.3-28.3-2-7.1-.5-7.1-.6-7.5 6.5-.1 1.7-.2 3.4-.2 5.1.3.2.7.4 1 .6 2.1-6.6 6-10.3 13.4-7.9zm-180 50c-1.4 0-1.8-.1-2 0-5.6 4-11.3 8-16.8 12.1-.4.3-.3 1.1-.5 1.7.6-.1 1.4.1 1.8-.2 2.5-1.7 4.3-.9 5.9 1.4 6 8.4 12 16.7 18.1 25 1.7 2.3 1.8 4.1-.5 6.1-.5.4-.6 1.3-.9 1.9.7-.1 1.5-.1 2.1-.4 9.2-6.6 18.3-13.3 27.4-19.9 1.6-1.1 1.5-2 .6-3.5-1.7-2.9-3.3-5.9-5-8.7-.6-1-1.3-1.8-2-2.6-.3.1-.6.3-.9.4.4 2 .7 4 1.2 6 1.3 5.1-.2 9.2-4.6 12.2-1.1.7-2.1 1.5-3.2 2.3-3.2 2.2-3.9 2.1-6.2-1-5.9-8.1-11.7-16.4-17.6-24.5-1.6-2.2-1.2-3.9.8-5.5.7-.8 1.2-1.5 2.3-2.8zm230.6-.7c.2-.4.4-.9.6-1.3-.9-.6-1.7-1.1-2.6-1.6-2-1.2-2.3-2.7-1-4.6.7-.9 1.5-1.7 2.1-2.6 1.3-2.1 2.9-2.5 5.1-1.4 2 .9 4.2 1.5 6.3 2.2 4.8 1.5 4.8 1.5 5 6.7.2 5.2.2 5.2-4.7 4.8-.2 0-.5.3-1.5 1 7.1 2.4 13.6 4.6 20.1 6.8-2.8-5.7-2.9-5.7-3.4-12.2l-1.8-21.3c-.5-5.2-.9-10.4-1.4-16.3-1.1 1-1.7 1.4-2.2 1.9-5.1 5.5-10 11.3-15.3 16.6-5.8 5.7-9.6 13.7-18.4 16 0 .3-.1.6-.1.9 4.2 1.3 8.7 2.8 13.2 4.4zM81.3 390.5c.6-3.3-2.5-13-4.2-14-.1.4-.3.8-.3 1.1.1 4.7-.8 5.4-5.4 5.1-3.1-.2-4.9-1.3-5.4-4.5-.3-1.7-.9-3.3-1.4-5-1.5-4.9-1.6-4.9 2.3-8.1 3.8-3.1 3.8-3.1 6.4 1.1.2.3.6.4.9.6.3-.1.6-.3.9-.4-2-6.5-4-13-5.9-19.2-2.2 2.8-3.9 5.5-6.2 7.5-8.7 7.6-17.7 15-26.6 22.4-1 .9-2 1.8-3.6 3.3 2.4.4 3.9.8 5.5 1l31.8 4.2c4 .6 8.1.9 11.2 4.9zm373.4 141.4c.1-4.3.2-4.2 3.9-5.3 2.2-.6 4.5-1.4 6.4-2.6 6.3-4 7.9-11.2 3.9-17.2-3-4.4-7.4-5.4-12.3-5.1-4.4.3-8.7 1.1-13 1.4-3 .2-5.8-.6-6.9-3.8-1-2.7.4-5.7 3.4-7.8 4.6-3.1 10.9-2.7 16.2 1.1.8.6 1.7 1.2 2.5 1.9l.7-.7c-3-4.1-5.9-8.3-9.1-12.7-1.6 4.7-1.6 4.6-6.2 5.9-2.1.6-4.2 1.6-6 2.8-6.2 4.2-8.1 12.1-4.5 17.9 3.2 5.1 8.3 6.1 13.9 5.6 4.5-.5 9.1-1.1 13.6-1.5 2.3-.2 4.6.7 4.9 3.1.2 1.9-.5 4.3-1.6 5.7-2.8 3.3-8.2 4-12.7 2-1.8-.8-3.4-1.9-5.1-2.9-.2.2-.5.4-.7.6 2.8 3.8 5.6 7.5 8.7 11.6zm-95.3 39.9c1.6-8 2.6-15.1 4.4-22.1 2.1-8 1-17.1 8-24.5-5 1.2-9.3 2.2-13.6 3.2 0 .3.1.6.1.8.6.1 1.1.2 1.7.2 2.4-.3 4 .4 4.2 3.1.3 3.9-.8 6.6-3.3 7.1-3.3.8-6.5 1.6-9.8 2.3-.7.2-1.8.4-2 .1-1.8-2.3-3.6-4.7-4.9-7.2-.2-.4 2.3-2.1 3.6-3.2v-1c-6.5 1.6-12.9 3.1-19 4.6 2.4 2 4.9 3.4 6.5 5.5 5.4 6.7 10.6 13.6 15.9 20.5 2.5 3.3 5.1 6.6 8.2 10.6zm-123.7-29.4c.4.2.7.3 1.1.5.5-.9 1.1-1.7 1.6-2.6 3.6-6.5 7.3-8.3 14.6-6.9.9.2 1.8.3 2.7.5 3.6.8 4 1.4 3.4 5-1.4 8.5-2.9 17.1-4.4 25.6-1 6-1.1 6-7 6.2-.1 0-.2.3-.4.9 7.1 1.2 14.1 2.3 21.1 3.4.1-.3.1-.5.2-.8-2.2-1.1-5.2-1.5-4.5-5.1 1.8-10 3.5-20 5.2-30.1.5-2.7 2-3.9 4.7-3.5.5.1 1-.1 2.2-.2-.9-.6-1.2-.9-1.5-.9-11.1-1.9-22.3-3.7-33.4-5.5-.6-.1-1.9.3-2 .7-1.1 4.3-2.3 8.6-3.6 12.8zm43.9-474.3h-2.9c-2 0-3.3-1-3.6-3-1.5-10.9-2.9-21.8-4.4-32.7-.3-2.2.7-3.4 2.9-3.8.8-.1 1.5-1 2.2-1.5-.2-.4-.3-.8-.5-1.3-7.1 1-14.1 2-21.2 3 0 .3-.1.6-.1.9.7.3 1.4.9 2.1.9 2.8.2 3.8 1.8 4.1 4.4l3.9 30.6c.4 2.8-.7 4.3-3.3 4.9-.7.2-1.3.7-2.5 1.3 4.7 1.1 21.8-1.6 23.3-3.7zm207 89.9c-.3.2-.6.4-.8.6 4.3 6 8.5 12 12.8 18 .3-.2.6-.3.9-.5 0-.4 0-.7-.1-1.1-1.8-4.4-1.7-4.8 2-7.6 7.8-5.6 15.7-11.3 23.5-16.9 3.2-2.3 4.1-2.1 6.7.6.3.3.9.4 1.4.6l.6-.6c-4.2-6-8.4-11.9-12.6-17.9-.3.1-.5.3-.8.4 0 .5-.1 1 0 1.3 1.9 4.4 1.9 4.4-1.9 7.1-7.2 5.2-14.4 10.3-21.6 15.5-5.2 3.9-5.2 3.8-10.1.5zm-187.4-6.1c1.8-4.9 3.3-8.8 4.7-12.8 2.4-7 5.1-14 4.8-21.6-.1-4.2-3.4-8-7.4-8.4-4.8-.6-8.1 1.6-9.1 6.4-.5 2.5-.7 5.3-.5 7.9.7 9.7 4.2 18.6 7.5 28.5zM406.3 556c7-3.1 13.4-6.1 19.8-9l-.3-.9c-.4 0-.8-.1-1.1 0-4.5 1.2-4.7 1.1-6.7-3.1-3.6-7.8-7.3-15.7-10.8-23.5-3-6.6-2.3-6 1.8-9 .1-.1 0-.4 0-1.2-6.6 3-13 5.9-19.4 8.8.1.3.2.5.4.8 5.3-1 5.5-1 7.9 4.3 3.6 7.6 7.1 15.3 10.6 23 2.2 4.7 2.1 4.7-1.9 8.2 0 .2 0 .6-.3 1.6zm-128-401.6c-.1-2.2-.1-4.4-.4-6.5-.8-7.6-1.5-15.2-4.8-22.2-2.3-5-5.8-6.3-10.6-4-3.7 1.7-4.8 5.6-2.6 10.2 4.2 8.8 11.5 15.3 18.4 22.5zm42.7-.5c.3.1.5.3.8.4 4.5-5.6 9.2-11 13.5-16.7 1.8-2.4 3-5.3 4.1-8.1.8-2.1.8-4.3-1.1-6.2-4.5-4.6-9.8-4-12.5 1.9-4.2 9.1-4.5 18.9-4.8 28.7zm-59 9.7c.4-.3.7-.6 1.1-.8-2-4.8-3.7-9.8-6-14.4-1.4-2.8-3.5-5.4-5.7-7.8-1.4-1.6-3.4-1.9-5.6-.6-4.2 2.5-4.9 6.4-.9 10.1 5.4 4.9 11.4 9.1 17.1 13.5zm74.9-1.3c.2.2.5.4.7.6 4.8-3.6 9.7-7.1 14.5-10.8 1.6-1.3 3-3 4.1-4.8 1.6-2.7.9-5-1.6-6.9-2.5-1.9-4.9-2-7.1.2-6 6-8.1 14-10.6 21.7zm-85.4 9c.2-.3.5-.6.7-.9-3.2-5.4-6.2-10.8-11.4-14.7-1.9-1.4-3.7-1.8-5.7.2-2.5 2.6-2.3 5.8 1.5 8.1 4.8 2.7 9.9 4.9 14.9 7.3zm97.6-1.2c.2.3.4.5.6.8 4.8-2.4 9.7-4.7 14.5-7.2 1-.5 1.8-1.4 2.4-2.2 1.7-2.2 1-4.2-.7-6-1.6-1.7-3.5-1.7-5.2-.4-5.3 3.8-8.4 9.4-11.6 15zm-105.8 9.6c.3-.4.6-.9.9-1.3-2.2-2.3-4.4-4.8-6.8-7-1.3-1.2-3-2-4.4 0-1.4 2-.9 3.9 1.1 4.8 2.9 1.4 6.1 2.4 9.2 3.5zm113.3-.4c2.7-.8 4.5-1.2 6.3-1.9 1.8-.7 3.7-1.4 5-2.7.7-.7.5-2.8.1-4-.2-.5-2.3-1-3-.6-3.6 1.9-5.9 5.1-8.4 9.2z"/><path fill="#fff" d="M392.6 411.5h-65.1c-2.1 0-3.5.6-5 2.2-13.2 14.9-33 14.4-44.9-.1-.8-1-2.8-1.6-4.2-1.6-24.2.2-48.5.4-72.7.7-18.9.2-37.9.7-56.8.5-4.3 0-8.8-1.4-12.9-3.1-4.9-2-7.3-6.4-7.1-11.8.3-11 .7-22 1.3-33 1.3-23.7 2.6-47.4 4.1-71 1.4-22.7 2.9-45.3 4.3-68 0-.7.1-1.5.5-2 4.5-7.2 8.8-14.6 13.8-21.6 4.5-6.4 11.2-8 18.9-7.1 10.9 1.2 21.9 1.8 32.9 2.2 7.5.3 14.8-1.9 21.7-4.7 19.1-7.8 38.8-10.8 59.2-7.6 5.8.9 11.4 2.7 17.2 4.1 1.1.2 2.4.4 3.4 0 21.4-7.1 42.9-7.7 64.6-1.2 8.1 2.4 16 5.4 24.2 7.4 9.9 2.4 20.1 1.1 30.1.3 4.7-.4 9.3-1.2 13.9-2 5.6-.9 10.9.3 14.6 4.4 4.6 5.1 8.4 10.9 12.5 16.5s5 12.1 5.5 18.9c3.1 45.8 6.5 91.6 9.7 137.4.6 7.8.8 15.7 1 23.5.2 7.6-3.5 12.6-10.8 14.6-3.2.9-6.6 1.5-9.9 1.5-21.3.1-42.6.1-63.8.1-.2.2-.2.3-.2.5zm10.6-2.6v-.6H427c7.9 0 15.9 0 23.8-.2 2.9-.1 5.9-.5 8.7-1.2 8.5-2.2 12.7-7.6 12.5-16.3-.1-6.6-.4-13.2-.8-19.8-3.4-47.7-6.8-95.5-10.3-143.2-.1-1.4-.5-2.9-1.3-4-4.8-7.3-9.8-14.5-14.8-21.7-2.4-3.5-5.9-5.4-10.1-5.2-6 .3-12 .5-17.9 1.4-14 2-27.6 1.2-41-3.5-9.7-3.4-19.5-6.3-29.9-6.9-14.9-.8-29.7-1.3-44 4.1-1 .4-2.4.2-3.5-.1-22.5-6.8-45-6-66.9 1.7-17.7 6.2-35.3 8.2-53.7 5.2-4.4-.7-8.9-.4-13.4-.3-4 .1-6.8 2.3-9 5.5-4.7 7-9.5 14-14 21.1-.9 1.4-1.4 3.2-1.5 4.8-2.1 31.2-4.2 62.4-6 93.6-1.4 23.3-2.3 46.6-3.3 69.9-.3 7.8 2.6 12.5 10.1 14.9 5 1.6 10.6 2.1 15.9 2 38.7-.3 77.4-.7 116.1-1.2 2.8 0 4.6.6 6.4 3 7.2 9.5 17.7 13.1 28.3 10 6.3-1.9 11.4-5.9 15.6-10.8 1.5-1.7 2.8-2.2 4.9-2.2 13 .1 26 .1 39 .1 12.1-.1 24.2-.1 36.3-.1zM138.6 472.1c-6-2.2-6-2.2-10.7 2.7-5.5 5.7-10.9 11.5-16.4 17.3-.4.4-.6.9-1.4 2.1 12.6-5.6 24.4-10.8 36.3-16 .2.2.5.4.7.6-4.4 12.1-8.7 24.3-13.3 36.9 2.5-2.5 4.7-4.6 6.8-6.8l12.9-13.8c2.9-3.2 3-4.1.6-7.6-.2-.4-.3-.8-.5-1.3.2-.2.5-.4.7-.6 3.5 3.2 7 6.5 10.9 10.1-1.2.3-1.5.5-1.7.4-5.1-2.1-5.1-2.2-8.8 1.7-5.9 6.2-11.8 12.4-17.6 18.6-3.4 3.6-3.3 3.6-.5 7.8.1.2.1.6.2 1.4-.9-.5-1.7-.7-2.2-1.1-3.2-2.9-6.2-5.8-9.5-8.6-1.4-1.2-1.5-2.3-.8-4 2.8-7.4 5.4-14.9 8.1-22.4.2-.6.4-1.3.7-2.6-4.5 2-8.6 3.7-12.6 5.6-4.1 1.8-8.1 3.8-12.2 5.6-.8.3-2.2.5-2.7 0-3.7-3.2-7.3-6.5-10.9-9.8-.3-.3-.3-.8-.5-1.3.4-.1.6-.3.7-.3 4.8 2.7 4.8 2.7 8.6-1.3 5.6-5.9 11.2-11.8 16.8-17.8 4.5-4.7 4.5-4.7 1.8-10.1 2.2 0 15.4 11.7 16.5 14.6zM197.3 45.5c0 .6.1.9 0 1-4.2 2.3-3 5.5-1.5 8.8 1.5 3.3 2.7 6.7 4.3 10.8 3.8-7 7.2-13.2 10.4-19.5 1.5-3 .5-4-2.8-3.6-.6.1-1.2-.2-1.9-.4.4-.6.7-1.5 1.2-1.7 4.1-1.8 8.3-3.4 12.4-5.1.5-.2 1.2.1 1.8.2-.1.5-.1 1.3-.5 1.6-4.9 3.8-6.4 9.8-9.6 14.7-1.4 2.1-2.4 4.4-3.8 7.1 10.7 4.8 19.4 13.3 32 15.3-1.1.7-1.9 1.4-2.7 1.8L221 82.8c-.8.3-1.8.1-2.7.1.4-.7.8-1.4 1.3-2.1.2-.3.3-.5.7-1.2-5.3-4.7-12-7.2-18.6-11.6.2 1.7.1 2.6.3 3.3 1.3 3.3 2.7 6.6 3.9 9.9 1 2.8 2.5 4.4 5.7 3.2.3-.1.6-.1.9 0 .2 0 .3.3 1 1.1-6.7 3.4-13.5 5.8-20.3 8.3-.2-.3-.4-.5-.6-.8.5-.5 1-1.2 1.6-1.5 2.3-1.2 3.1-2.8 2.1-5.2-3.9-9.6-7.8-19.2-11.6-28.9-1.1-2.7-2.7-3.9-5.7-2.9-.6.2-1.3-.3-2-.5.4-.5.7-1.3 1.2-1.5 5.8-2.4 11.7-4.6 17.6-6.9.6-.3 1-.1 1.5-.1zM438.1 61c3.3 2.1 6.4 4 9.4 5.9 3.6 2.3 7.2 4.6 10.7 7 3.2 2.2 6.1 4.8 6.9 8.9 1.4 7.4-3.6 12.7-11 11.5-.7-.1-1.3-.2-2.5-.4 1.1 1.5 1.8 2.7 2.6 3.8 2.2 3.3 2.6 6.7.7 10.3-2.1 3.8-5.4 6.2-9.7 5.6-3.6-.5-7.4-1.7-10.6-3.4-6.1-3.4-11.9-7.4-17.8-11.2-.7-.4-1.3-1.1-2-1.7.5-.4.8-.6.8-.6 5.7 2.5 5.7.9 8.4-3.1 5-7.8 9.9-15.6 14.9-23.4 1.8-2.7 2.7-5.1-.8-7.1-.2-.1-.4-.5-.5-.8.2 0 .3-.3.5-1.3zm1.9 27.8c-.5.3-.7.3-.8.5l-6.6 10.2c-2.8 4.2-1.7 6.9 3.4 7.4 1.9.2 4.1-.3 5.7-1.3 3.1-2 5-5.1 4.6-9-.4-4-3.5-5.9-6.3-7.8zm9.9-16.4c-3 4.6-5.8 9.1-8.7 13.6 6.7 4 10.6 3.4 13.7-1.9 2.7-4.4 1.1-8.3-5-11.7zM110.4 441.3c-5.6-4.1-4.2-4.1-10.9-.3-7.4 4.2-14.8 8.6-22.1 12.9-3.8 2.3-3.8 2.3-2.4 6.7.1.3 0 .7-.1 1.5-.7-.5-1.3-.7-1.6-1.1-3.9-6.4-7.9-12.8-11.7-19.3-2.1-3.6-3.2-7.5-1.4-11.7 2.5-5.8 8.3-7.6 13.6-4.1.8.6 1.7 1.1 2.8 1.9-.3-1.8-.7-3.3-.8-4.9-.6-7.7 6.9-13.4 13.8-9.9 3.4 1.7 6.5 4.6 8.7 7.7 4.2 5.9 7.8 12.4 11.6 18.7.3.6.3 1.3.5 1.9zM85 437.8c3.6-2.1 7.1-4.2 10.6-6.2 4.2-2.4 4.3-4.7.5-7.7-2.2-1.8-4.7-2.2-7.4-1.4-7.1 2.2-8.9 8.9-3.7 15.3zm-2.8 1.6c-2.3-3.6-4.6-6.3-8.6-6-3.2.2-5.9 1.8-7.2 4.8-1.4 3.4 0 6.2 2.4 9.1 4.4-2.6 8.7-5.1 13.4-7.9zM531.5 252.5c3.4 5.9 3.4 5.9 10.2 5 8.4-1.1 16.8-2.2 25.1-3.2 4.4-.6 4.7-.9 5.2-5.5 0-.4.3-.7.8-1.9.5 1.4.9 2 1 2.6.8 6.1 1.6 12.1 2.2 18.2 1.2 11.8-3.9 20.3-13.8 23.7-14.1 4.8-26.4-2.5-28.6-17.3-1-6.4-1.6-12.9-2.4-19.4-.1-.6.1-1.2.3-2.2zm19.7 29.6c4.2-1 8.8-1.8 13.2-3.3 6-2.1 8.6-6.2 8.4-11.7-.1-2.2-.7-3.2-3.1-2.8-4.3.7-8.7 1.1-13 1.7-5.9.8-11.9 1.6-17.8 2.4-1.9.2-3 1.1-2.9 3.1.1 3.9 2.3 7.5 6.1 8.7 2.7.8 5.6 1.2 9.1 1.9zM552.8 321c12.6.1 22.9 9.3 22.5 20.8-.5 15.2-9.2 23.7-21.9 23.9-12.3.2-22.7-9.3-22.6-20.5 0-14.5 8.9-24.3 22-24.2zm-5.1 10.8c-1.7.2-4 .3-6.1.8-3.9.9-6.8 3.1-7.6 7.4-.8 4.3.8 7.6 4.5 9.8 7.8 4.6 16.4 5.9 25.2 4.6 4.8-.7 7.6-3.6 8.3-7.7.9-4.7-1.3-7.8-5.1-10.1-5.7-3.5-12.1-4.2-19.2-4.8zM22.5 284.1h15.1l.3.9c-.9.6-1.8 1.2-2.8 1.7-6.6 3-10.3 8.7-9.8 15.1.4 4.8 2.8 8.3 7.2 10.1 7.8 3.3 15.9 3.5 23.9.9 6.7-2.2 9.7-9.4 7-15.9-.3-.7-1.4-1.5-2.2-1.5-2.6-.2-5.3-.1-7.9-.2-2.1-.1-3.2 1.1-3.5 3-.1.7-.4 1.4-.7 2.4-1.6-2.5-1.6-18-.2-20.9.2 0 .5 0 .5.1.7 4.3 3.6 4.7 7.3 4.7 7.9-.1 7.9.1 9.6 8.2 1.5 7.3 1.9 14.6-1.6 21.5-7.3 14.3-25.9 16.5-36.6 4.4-6.1-6.9-7.2-14.8-5.1-23.4.5-2 1.8-3.9 1.8-5.8-.1-1.7-1.5-3.4-2.3-5.3zM522.2 228.2c7.3-12.9 14.6-25.7 22.3-39.3-3.3 1.3-5.9 2.2-8.5 3.3-5.1 2-10.2 4-15.3 6.2-4.7 2-4.9 2.5-4.4 7.6 0 .3-.2.7-.2 1.1-.3.1-.6.2-.9.2-1.8-4.6-3.6-9.3-5.8-14.7 1.3.6 1.7.6 1.9.8 3 4 3.7 4.3 8.4 2.4 7.3-2.9 14.5-6 21.8-8.7 4.6-1.7 8.3-3.6 7.7-9.7.4.4.9.8 1.2 1.3.5 1 .7 2.2 1.2 3.1 4.3 6.8 2.7 12.7-1.7 18.9-3.8 5.3-6.8 11.3-10.2 17-.3.5-.5 1-.3 2.2 6.2-2.7 12.4-5.3 18.5-8.2.9-.4 1.2-2.3 1.5-3.6.2-.9-.1-1.8-.1-2.7.4-.1.7-.2 1.1-.3 1.7 4.4 3.4 8.7 5.3 13.7-1.2-.4-1.7-.4-1.9-.6-2.3-3.8-4.1-3.5-8.1-2l-30 12c-1 .4-2 .7-3 1-.1-.5-.3-.8-.5-1zM524.9 464.9c-7.6 8.6-15.2 17.2-22.9 26.1-3.3-2.9-6.4-5.5-9.4-8.2.1-.4.3-.7.4-1.1 3.6 1.6 7.3 3.8 10.9 1.3 3-2.1 5.6-4.9 8.8-7.8-4.5-3.9-8.5-7.3-12.5-10.8-3.6 3.5-3.6 3.6 1 12.9-.2.2-.4.5-.6.7l-16.5-14.1c.1-.3.2-.6.3-1 4.5 1.9 9 4.9 13.3-.6-3.7-3.1-7.4-6.3-11.3-9.2-.7-.5-2.8-.1-3.6.7-6.8 5.7-7.8 11-4 19.2.2.3.2.7.3 1.1-.2.2-.5.4-.7.5-2.9-3.3-5.8-6.6-8.8-10 8-9.1 15.8-17.9 23.6-26.8.2.1.5.1.7.2-.2.6-.2 1.4-.6 1.9-1.8 2.2-1.4 4 .7 5.8 7.7 6.5 15.3 13.1 22.9 19.7 1.9 1.7 3.8 1.8 5.7 0 .5-.4 1.1-.8 1.6-1.2.1.2.4.4.7.7zM193.7 535c-6.2-3.3-9.1 1-12.3 4.8-.3-.3-.6-.5-1-.8 3.2-6.4 6.4-12.7 9.6-19.1.3.1.6.2 1 .3-.2 1.4-.4 2.8-.5 4.2-.4 2.9 0 5.6 2.8 7.1.5.3 2.1-.1 2.3-.6 1.9-3.6 3.7-7.3 5.4-10.9.9-1.9.2-3.2-1.5-4.3-7.4-4.6-12.6-4.3-19.2 1.1-.4.3-1 .5-1.5.8-.2-.2-.5-.4-.7-.6 1.5-2.3 3.1-4.5 4.6-6.8 3.2-4.5 3.1-4.4 8-1.9 7.5 3.8 15.1 7.5 22.7 11.2 1.5.7 3 1.6 4.5 2.4-.4.4-.5.7-.6.7-5.4-1-5.5-1-8 4-4 7.8-7.9 15.6-11.9 23.4-2.1 4.1-2 4.3 1.7 7.2.3.2.4.6.3 1.5-1.6-.7-3.2-1.3-4.7-2-8.1-3.9-16.2-8-24.4-11.8-1.9-.9-2.2-1.7-1.2-3.5 1.6-2.9 3.1-5.8 5.1-8.7.5 3.7-1 8 2.3 10.7 2.8 2.4 6.1 4.2 9.7 6.6 2.6-5.3 5-10 7.5-15zM516.1 394.6l6-13.2c.3.1.6.1.8.2 0 .6.2 1.2.1 1.7-.9 3 .2 4.9 3 6.2 8.6 3.9 17.2 7.8 25.9 11.6 3.4 1.5 5.7-.8 8.4-3.6-.1 1.3 0 1.9-.2 2.4-.6 1.5-1.6 2.9-2 4.4-1.6 6.6-6.2 8.9-12.4 10-7.5 1.3-14.8 3.5-22.3 6 1.4.7 2.7 1.4 4.2 2 4.1 1.7 8.2 3.4 12.3 5.2 2.9 1.2 5.1.6 6.7-2.2.2-.3.6-.4.9-.7.3.2.6.3.8.5-1.9 4.1-3.7 8.2-5.9 13-.5-1.2-1-1.7-.9-2 1.2-3.6-.9-5.2-3.8-6.5-9.9-4.3-19.7-8.7-29.5-13.1-.9-.4-1.7-.9-2.5-1.4v-1c14.1-3.7 28.3-7.5 43.2-11.5-6.5-2.9-12.3-5.6-18.1-8.1-2-.9-4.1-1.8-6.2-2.6-2.9-1.1-5.2-.5-6.7 2.3-.2.4-.4.9-.6 1.4-.3-.3-.8-.6-1.2-1zM80.7 217.9c-1.8 6.6-3.5 13.3-5.3 19.9-.4 0-.8-.1-1.3-.1 0-.9-.1-1.9 0-2.8.1-1.9-.6-2.9-2.6-2.7-.3 0-.6.1-.9.1-6.3.7-6.3.7-8.1 6.8-.2.6-.3 1.2-.5 1.8-2.1 6-1.7 7 3.8 10.2 1.7 1 3.1.6 4.1-1.1.5-.9 1.1-1.8 1.6-2.6.4.1.8.3 1.1.4-1.2 4.6-2.5 9.1-3.7 13.7h-1c-.5-1.2-.7-2.6-1.5-3.7-1-1.5-2.3-2.9-3.6-4-9.8-8.2-19.7-16.3-29.6-24.5-.4-.4-.7-.9-1.3-1.6 1-.3 1.7-.6 2.4-.7 11.9-1.8 23.7-3.5 35.6-5.2 3.6-.5 7.3-.7 9.6-4.4.5 0 .9.2 1.2.5zm-23.2 26.5c1-3.7 1.9-7 2.9-10.6-4.9.7-9.1 1.3-14.1 2 4.1 3 7.3 5.6 11.2 8.6zM128.8 142c-3.9 5.2-8.1 10.6-12.2 16.1-.3-.1-.7-.3-1-.4.3-.9.3-1.9.8-2.6 1.2-2 .5-3-1.5-3.5-.1 0-.2 0-.3-.1-7-2.2-7-2.2-11.2 3.7-.7 1-1.4 2.1-2.2 2.9-2.1 2-2.1 3.8-.5 6.3 2.7 4.3 3.5 4.6 7.7 1.6.3-.2.7-.3 1.4-.2-1.9 4.5-5.3 7.9-8.3 12.1-.4-.8-.9-1.3-.8-1.6.9-3.6-.6-6.5-2.2-9.5-5.5-10.2-11.1-20.4-16.5-30.6-.6-1.2-1.1-2.5-1.9-4.5 4.4 1.1 7.9 1.9 11.3 2.8 9 2.3 17.9 4.8 26.9 6.8 3 .6 6.5.4 10.5.7zm-31.6 15.9c2.5-3.3 4.6-6.1 7-9.3-4.9-1.3-9.1-2.3-13.9-3.6 2.4 4.6 4.5 8.5 6.9 12.9zM317.5 29.3c-7.5-2.4-11.3 1.2-13.4 8-.3-.2-.7-.4-1-.6.1-1.7.1-3.4.2-5.1.4-7.1.4-7.1 7.5-6.5 9.4.7 18.9 1.5 28.3 2 2.8.1 3.5 1 3.1 3.7-.4 2.8-.5 5.7-.7 8.6-.3.1-.7.1-1 .2-.5-1.3-.8-2.8-1.5-3.9-1.2-1.8-2.4-4-4.1-4.9-4.7-2.6-6.7-1.3-7.1 3.9-.6 8.4-1.2 16.8-1.8 25.3-.6 8.4-.9 6.5 5 9.6-1.5 1.2-19.5.1-22.9-1.7 1.3-.3 1.9-.5 2.5-.5 2.1-.1 4.1-.7 4.3-3.1 1-11.7 1.8-23.4 2.6-35zM137.5 79.3c-1.1 1.2-1.6 2-2.3 2.5-2 1.6-2.4 3.3-.8 5.5 5.9 8.1 11.7 16.4 17.6 24.5 2.3 3.2 3.1 3.2 6.2 1 1.1-.7 2.1-1.5 3.2-2.3 4.4-3 5.8-7.1 4.6-12.2-.5-2-.8-4-1.2-6 .3-.1.6-.3.9-.4.7.9 1.5 1.7 2 2.6 1.7 2.9 3.2 5.9 5 8.7.9 1.5 1 2.4-.6 3.5-9.2 6.6-18.3 13.3-27.4 19.9-.5.4-1.4.3-2.1.4.3-.7.4-1.5.9-1.9 2.3-1.9 2.2-3.7.5-6.1-6.1-8.3-12.1-16.6-18.1-25-1.6-2.2-3.4-3.1-5.9-1.4-.5.3-1.2.2-1.8.2.1-.6.1-1.5.5-1.7 5.6-4.1 11.2-8.1 16.8-12.1.2.2.6.3 2 .3zM368.1 78.6c-4.5-1.5-9-3.1-13.5-4.6 0-.3.1-.6.1-.9 8.9-2.2 12.6-10.3 18.4-16 5.4-5.3 10.2-11 15.3-16.6.5-.5 1.1-1 2.2-1.9.5 5.9 1 11.1 1.4 16.3l1.8 21.3c.6 6.5.6 6.5 3.4 12.2-6.5-2.2-13-4.4-20.1-6.8 1.1-.7 1.3-1 1.5-1 5 .4 5 .5 4.7-4.8-.2-5.1-.2-5.1-5-6.7-2.1-.7-4.3-1.3-6.3-2.2-2.2-1-3.8-.7-5.1 1.4-.6.9-1.4 1.7-2.1 2.6-1.3 1.9-1 3.4 1 4.6.9.5 1.7 1.1 2.6 1.6.1.6-.1 1-.3 1.5zm13.7-24.9c-.3-.1-.5-.2-.8-.3-3.1 3.3-6.1 6.6-9.5 10.2 4 1.3 7.5 2.5 11.4 3.8-.4-4.9-.8-9.3-1.1-13.7zM81.3 390.5c-3.1-4.1-7.2-4.3-11.2-4.9l-31.8-4.2c-1.6-.2-3.1-.5-5.5-1 1.6-1.5 2.6-2.4 3.6-3.3 8.9-7.5 17.8-14.8 26.6-22.4 2.3-2 3.9-4.7 6.2-7.5 1.9 6.2 3.9 12.7 5.9 19.2-.3.1-.6.3-.9.4-.3-.2-.7-.3-.9-.6-2.6-4.2-2.6-4.2-6.4-1.1-3.9 3.2-3.9 3.2-2.3 8.1.5 1.6 1.1 3.3 1.4 5 .5 3.1 2.4 4.3 5.4 4.5 4.6.3 5.4-.4 5.4-5.1 0-.4.2-.7.3-1.1 1.7 1.1 4.8 10.7 4.2 14zM64 381.7c-1.2-3.9-2.2-7.2-3.4-11.1-3.7 3.1-7 5.9-10.9 9.1 5.1.7 9.3 1.3 14.3 2zM454.7 531.9c-3.1-4.1-5.9-7.8-8.7-11.4.2-.2.5-.4.7-.6 1.7 1 3.3 2.1 5.1 2.9 4.5 2 9.9 1.3 12.7-2 1.2-1.4 1.8-3.9 1.6-5.7-.3-2.4-2.6-3.3-4.9-3.1-4.6.4-9.1 1-13.6 1.5-5.6.6-10.6-.4-13.9-5.6-3.7-5.8-1.7-13.7 4.5-17.9 1.8-1.2 3.9-2.1 6-2.8 4.5-1.4 4.6-1.3 6.2-5.9 3.2 4.4 6.2 8.6 9.1 12.7l-.7.7c-.8-.6-1.7-1.3-2.5-1.9-5.4-3.8-11.6-4.3-16.2-1.1-3 2.1-4.4 5.1-3.4 7.8 1.2 3.2 4 4 6.9 3.8 4.4-.3 8.7-1 13-1.4 4.9-.4 9.4.7 12.3 5.1 4 5.9 2.5 13.1-3.9 17.2-1.9 1.2-4.2 2-6.4 2.6-3.7.9-3.7.8-3.9 5.1zM359.4 571.8c-3.1-4-5.6-7.2-8.2-10.5-5.3-6.8-10.4-13.8-15.9-20.5-1.7-2.1-4.1-3.5-6.5-5.5 6.2-1.5 12.5-3.1 19-4.6 0 .8.1 1 0 1-1.3 1.1-3.8 2.8-3.6 3.2 1.3 2.6 3.1 4.9 4.9 7.2.2.3 1.3.1 2-.1 3.3-.7 6.5-1.5 9.8-2.3 2.4-.6 3.6-3.2 3.3-7.1-.2-2.7-1.8-3.4-4.2-3.1-.5.1-1.1-.1-1.7-.2 0-.3-.1-.6-.1-.8 4.3-1 8.5-2 13.6-3.2-7 7.4-5.9 16.5-8 24.5-1.8 6.8-2.9 14-4.4 22zm3.3-30c-4.2 1-7.8 1.9-12 2.8 3.2 4.1 5.9 7.6 8.7 11.2.3-.1.5-.2.8-.3.7-4.3 1.6-8.6 2.5-13.7zM235.7 542.4c1.2-4.2 2.4-8.5 3.8-12.7.1-.4 1.4-.8 2-.7 11.2 1.8 22.3 3.7 33.4 5.5.3.1.6.4 1.5.9-1.2.1-1.7.2-2.2.2-2.7-.4-4.3.9-4.7 3.5-1.8 10-3.5 20.1-5.2 30.1-.6 3.6 2.3 4 4.5 5.1-.1.3-.1.5-.2.8-7-1.1-14-2.3-21.1-3.4.3-.6.3-.9.4-.9 5.9-.3 5.9-.2 7-6.2 1.5-8.5 3-17 4.4-25.6.6-3.7.2-4.2-3.4-5-.9-.2-1.8-.4-2.7-.5-7.3-1.3-11 .4-14.6 6.9-.5.9-1.1 1.8-1.6 2.6-.5-.2-.9-.4-1.3-.6zM279.6 68.1c-1.5 2.1-18.6 4.8-23.1 3.8 1.2-.6 1.8-1.2 2.5-1.3 2.6-.6 3.7-2.1 3.3-4.9-1.4-10.2-2.7-20.4-3.9-30.6-.3-2.5-1.3-4.2-4.1-4.4-.7 0-1.4-.6-2.1-.9 0-.3.1-.6.1-.9 7.1-1 14.1-2 21.2-3 .2.4.3.8.5 1.3-.7.5-1.4 1.4-2.2 1.5-2.2.4-3.2 1.6-2.9 3.8 1.4 10.9 2.9 21.8 4.4 32.7.3 2 1.6 3 3.6 3 .7-.1 1.5-.1 2.7-.1zM486.6 158c4.9 3.4 4.9 3.4 10.2-.4 7.2-5.1 14.4-10.3 21.6-15.5 3.7-2.7 3.7-2.7 1.9-7.1-.2-.4 0-.9 0-1.3.3-.1.5-.3.8-.4 4.2 6 8.4 11.9 12.6 17.9l-.6.6c-.5-.2-1-.3-1.4-.6-2.7-2.7-3.6-2.8-6.7-.6-7.9 5.6-15.7 11.2-23.5 16.9-3.8 2.7-3.9 3.2-2 7.6.1.3.1.7.1 1.1-.3.2-.6.3-.9.5-4.3-6-8.5-12-12.8-18 .2-.3.4-.5.7-.7zM299.2 151.9c-3.3-10-6.8-18.9-7.5-28.5-.2-2.6-.1-5.3.5-7.9 1-4.9 4.3-7 9.1-6.4 4 .5 7.3 4.2 7.4 8.4.2 7.6-2.4 14.6-4.8 21.6-1.4 4-2.9 8-4.7 12.8zM406.3 556c.3-1 .2-1.4.4-1.5 4-3.5 4-3.5 1.9-8.2-3.5-7.7-7-15.3-10.6-23-2.5-5.3-2.6-5.3-7.9-4.3-.1-.3-.2-.5-.4-.8 6.4-2.9 12.8-5.8 19.4-8.8 0 .8.1 1.1 0 1.2-4.1 3-4.8 2.3-1.8 9 3.5 7.9 7.2 15.7 10.8 23.5 2 4.3 2.2 4.4 6.7 3.1.3-.1.7 0 1.1 0l.3.9c-6.5 2.8-12.9 5.7-19.9 8.9zM278.3 154.4c-6.9-7.1-14.2-13.7-18.4-22.6-2.2-4.6-1.1-8.5 2.6-10.2 4.8-2.2 8.3-1 10.6 4 3.3 7 4 14.6 4.8 22.2.2 2.2.3 4.4.4 6.6zM321 153.9c.4-9.8.6-19.6 4.9-28.8 2.7-5.9 8-6.5 12.5-1.9 1.9 1.9 1.9 4.1 1.1 6.2-1.1 2.8-2.3 5.7-4.1 8.1-4.3 5.7-9 11.2-13.5 16.7-.4 0-.6-.2-.9-.3zM262 163.6c-5.7-4.5-11.7-8.7-17.1-13.5-4-3.7-3.3-7.5.9-10.1 2.1-1.3 4.1-1 5.6.6 2.1 2.4 4.3 4.9 5.7 7.8 2.3 4.7 4.1 9.6 6 14.4-.4.3-.7.6-1.1.8zM336.9 162.3c2.5-7.7 4.6-15.6 10.5-21.7 2.2-2.2 4.6-2.1 7.1-.2 2.5 1.9 3.2 4.2 1.6 6.9-1.1 1.8-2.4 3.6-4.1 4.8-4.7 3.7-9.6 7.2-14.5 10.8-.1-.2-.4-.4-.6-.6zM251.5 171.3c-5-2.4-10.1-4.6-14.8-7.4-3.8-2.2-4-5.5-1.5-8.1 1.9-2 3.8-1.6 5.7-.2 5.2 3.8 8.2 9.3 11.4 14.7-.3.4-.6.7-.8 1zM349.1 170.1c3.2-5.6 6.3-11.2 11.7-15.1 1.7-1.3 3.6-1.3 5.2.4 1.7 1.8 2.4 3.8.7 6-.7.9-1.5 1.8-2.4 2.2-4.8 2.5-9.7 4.8-14.5 7.2-.3-.2-.5-.5-.7-.7zM243.3 179.7c-3.1-1.1-6.2-2-9.2-3.5-2-.9-2.5-2.8-1.1-4.8s3.1-1.2 4.4 0c2.4 2.2 4.5 4.7 6.8 7-.3.4-.6.9-.9 1.3zM356.6 179.3c2.5-4.1 4.8-7.3 8.4-9.2.7-.4 2.8.1 3 .6.4 1.2.6 3.3-.1 4-1.3 1.3-3.2 2-5 2.7-1.8.7-3.7 1.1-6.3 1.9z"/><path d="M403.2 408.9h-36.3c-13 0-26 0-39-.1-2.1 0-3.4.5-4.9 2.2-4.2 4.9-9.3 8.9-15.6 10.8-10.6 3.1-21.1-.5-28.3-10-1.8-2.4-3.6-3-6.4-3-38.7.5-77.4 1-116.1 1.2-5.3 0-10.9-.5-15.9-2-7.4-2.3-10.4-7-10.1-14.9.9-23.3 1.9-46.6 3.3-69.9 1.8-31.2 4-62.4 6-93.6.1-1.6.6-3.5 1.5-4.8 4.6-7.1 9.3-14.1 14-21.1 2.2-3.2 5-5.4 9-5.5 4.5-.1 9-.4 13.4.3 18.4 3 36 1 53.7-5.2 21.9-7.7 44.4-8.6 66.9-1.7 1.1.3 2.5.5 3.5.1 14.3-5.4 29.1-4.9 44-4.1 10.4.6 20.2 3.5 29.9 6.9 13.4 4.7 27 5.4 41 3.5 5.9-.8 11.9-1.1 17.9-1.4 4.3-.2 7.7 1.7 10.1 5.2 5 7.2 9.9 14.4 14.8 21.7.7 1.1 1.2 2.6 1.3 4 3.5 47.7 6.9 95.5 10.3 143.2.5 6.6.7 13.2.8 19.8.1 8.7-4 14.2-12.5 16.3-2.8.7-5.8 1.2-8.7 1.2-7.9.2-15.9.2-23.8.2h-23.8v.7zm-66.8-218.5c-11.9-.2-22.1.1-32 3.6-2.5.9-3.4 2.1-3.3 4.7.3 38.6.5 77.2.8 115.7.1 17.8.3 35.6.4 53.4 0 2.4.8 3.2 3.1 3.2 2.8 0 5.7.4 8.5.6 32.2 2.8 64.5 5.6 96.7 8.3 8.1.7 16.2 1.7 24.3 1.6 7.7-.1 13.4-4.5 15.9-11.8 1.5-4.5 1.9-9.5 2.2-14.3.2-4.3-.6-8.7-.8-13.1-2.9-44.5-5.8-89-8.6-133.5-.4-6.4-3-9.2-9.4-9.4-4.3-.1-8.8.2-13.1.9-16.5 2.6-32.7 2.4-48.4-3.8-12.3-4.5-24.9-6.3-36.3-6.1zm-37.6 92.5h-.5v-26c-.1-19.8-.2-39.5-.2-59.3 0-2.2-.6-3.4-2.8-3.8-2.8-.6-5.5-1.8-8.3-2.1-20.7-2.5-41-1.7-60.7 6.1-11.1 4.4-22.6 5.9-34.5 5-5.8-.4-11.5-1.5-17.3-1.8-3.8-.2-7.7-.2-11.5.5-3.9.7-5.6 3.3-5.8 7.2-.6 10.6-1.1 21.2-1.6 31.7-2.2 39.2-4.4 78.5-6.5 117.7-.4 6.8.8 13.3 5.2 18.7 5.6 7 13.5 7.8 21.7 6.8 17.6-2 35.1-4.5 52.8-6.3 22.3-2.3 44.6-4.1 66.9-6 2.5-.2 3.2-1 3.2-3.5-.2-28.2-.1-56.6-.1-84.9zm27.6 122.5c1 .1 1.9.2 2.8.2 40.6-.2 81.2-.3 121.8-.5 2.4 0 4.9-.3 7.2-.9 6.2-1.7 11.4-5 10.8-13.9-1.2-19-2-38-3.3-57-2.1-31-4.9-61.9-6.7-92.9-.6-10.1-2.8-18.9-9.3-26.6-.9-1.1-1.7-2.3-2.6-3.5-.6 1.6-.5 2.8-.4 4.1.5 7.3 1.1 14.6 1.6 21.9 2.2 33.2 4.4 66.4 6.5 99.6.5 8 1.4 16.1 1.2 24.1-.2 10.7-4.4 19.5-15.1 23.6-4.9 1.9-10.1 2-15.4 1.4-22-2.2-43.9-4.6-65.9-6.6-17.2-1.6-34.5-2.7-51.7-4-.4 0-.8.1-1.4.2 3.6 3.3 7.2 6.2 10.3 9.4 5.9 5.9 11.1 12.1 9.6 21.4zm-33.7-29.9c-.5-.1-.7-.3-.9-.2-9.8.6-19.7.9-29.5 1.9-26.2 2.7-52.4 5.8-78.6 8.6-4.7.5-9.5 1.2-14.3 1.1-9.4-.2-16.6-4.4-20.6-13.2-2.3-5.2-3-10.7-2.7-16.4 2.6-47.5 5.2-94.9 7.8-142.4.1-1.1.1-2.1.2-3.2-.3-.1-.5-.2-.8-.3-2.6 4-5 8-7.7 11.8-2.1 3-2.9 6.3-3.1 10-.8 13.9-1.8 27.8-2.7 41.7-1.8 29.5-3.6 58.9-5.3 88.4-.6 10.1-.8 20.1-1.2 30.2-.2 5.8 2.4 10 7.9 11.7 3.6 1.2 7.5 2 11.3 1.9 39.7-.4 79.4-.9 119.1-1.4 1 0 1.9-.1 2.8-.2-1.8-15 9.5-21.6 18.3-30zm7.6-1.1c-8 5.5-15.6 11.1-20.6 19.4-2.1 3.4-3.3 7.1-1.4 11 2.6 5.2 6.3 9.5 11.4 12.3 9.5 5.1 18.1 3.5 28.1-5.1 6.5-5.6 7.3-11.5 2.6-18.6-5.3-7.9-12.8-13.3-20.1-19zM440 88.8c2.8 1.9 5.9 3.8 6.2 7.8.4 3.9-1.5 7-4.6 9-1.6 1-3.8 1.5-5.7 1.3-5-.5-6.1-3.2-3.4-7.4l6.6-10.2c.2-.2.5-.2.9-.5zM449.9 72.4c6.1 3.4 7.7 7.3 5 11.7-3.1 5.3-7 5.9-13.7 1.9 2.9-4.5 5.8-8.9 8.7-13.6zM85 437.8c-5.2-6.4-3.5-13.1 3.7-15.3 2.7-.8 5.2-.4 7.4 1.4 3.8 3 3.7 5.3-.5 7.7-3.4 2-6.9 4-10.6 6.2zM82.2 439.4c-4.7 2.7-9 5.2-13.4 7.8-2.4-2.8-3.8-5.7-2.4-9.1 1.3-3 3.9-4.6 7.2-4.8 4-.1 6.3 2.5 8.6 6.1zM551.2 282.1c-3.4-.7-6.4-1-9.1-1.9-3.7-1.2-5.9-4.8-6.1-8.7-.1-2.1 1.1-2.9 2.9-3.1 5.9-.8 11.9-1.6 17.8-2.4 4.3-.6 8.7-1 13-1.7 2.4-.4 3 .6 3.1 2.8.1 5.5-2.4 9.6-8.4 11.7-4.4 1.5-9 2.2-13.2 3.3zM547.7 331.8c7 .6 13.5 1.3 19.2 4.8 3.8 2.3 6 5.5 5.1 10.1-.7 4.1-3.5 7-8.3 7.7-8.9 1.2-17.4 0-25.2-4.6-3.7-2.2-5.3-5.5-4.5-9.8.8-4.2 3.7-6.4 7.6-7.4 2.2-.5 4.4-.6 6.1-.8zM57.5 244.4c-3.9-3-7.2-5.6-11.2-8.7 5-.7 9.1-1.3 14.1-2-1 3.8-1.8 7-2.9 10.7zM97.2 157.9c-2.4-4.5-4.5-8.4-6.9-12.8 4.8 1.2 9 2.3 13.9 3.6-2.4 3.2-4.4 5.9-7 9.2zM381.8 53.7c.4 4.4.8 8.7 1.2 13.7-3.9-1.3-7.4-2.5-11.4-3.8 3.4-3.6 6.4-6.9 9.5-10.2.1.1.4.2.7.3zM64 381.7c-4.9-.7-9.2-1.3-14.3-2 3.9-3.2 7.2-6 10.9-9.1 1.1 3.9 2.2 7.2 3.4 11.1zM362.7 541.8c-.9 5-1.8 9.4-2.6 13.7-.3.1-.5.2-.8.3-2.7-3.5-5.5-7-8.7-11.2 4.3-.9 7.9-1.8 12.1-2.8z"/><path fill="#fff" d="M336.4 190.4c11.4-.1 24 1.6 36.1 6.4 15.7 6.2 32 6.4 48.4 3.8 4.3-.7 8.7-1 13.1-.9 6.5.2 9 3 9.4 9.4 2.9 44.5 5.7 89 8.6 133.5.3 4.4 1 8.7.8 13.1-.2 4.8-.6 9.8-2.2 14.3-2.5 7.3-8.2 11.7-15.9 11.8-8.1.1-16.2-.9-24.3-1.6-32.2-2.7-64.5-5.5-96.7-8.3-2.8-.2-5.7-.6-8.5-.6-2.3 0-3.1-.8-3.1-3.2 0-17.8-.2-35.6-.4-53.4-.3-38.6-.5-77.2-.8-115.7 0-2.7.8-3.9 3.3-4.7 10.2-3.8 20.4-4.2 32.2-3.9zM298.8 282.9c0 28.3 0 56.6.1 84.9 0 2.5-.7 3.3-3.2 3.5-22.3 1.9-44.6 3.7-66.9 6-17.6 1.8-35.2 4.2-52.8 6.3-8.2 1-16 .1-21.7-6.8-4.4-5.4-5.5-12-5.2-18.7 2.1-39.2 4.3-78.5 6.5-117.7.6-10.6 1.1-21.1 1.6-31.7.2-3.9 1.9-6.4 5.8-7.2 3.7-.7 7.7-.7 11.5-.5 5.8.4 11.5 1.4 17.3 1.8 11.8.9 23.4-.6 34.5-5 19.7-7.8 40-8.6 60.7-6.1 2.8.3 5.5 1.5 8.3 2.1 2.2.5 2.8 1.6 2.8 3.8 0 19.8.1 39.5.2 59.3v26h.5z"/><path fill="#fff" d="M326.4 405.4c1.5-9.3-3.7-15.5-9.4-21.3-3.2-3.3-6.7-6.2-10.3-9.4.5-.1 1-.2 1.4-.2 17.2 1.3 34.5 2.4 51.7 4 22 2 44 4.3 65.9 6.6 5.2.5 10.4.5 15.4-1.4 10.7-4.2 14.9-12.9 15.1-23.6.2-8-.7-16.1-1.2-24.1-2.1-33.2-4.3-66.4-6.5-99.6-.5-7.3-1.1-14.6-1.6-21.9-.1-1.3-.2-2.5.4-4.1.9 1.2 1.6 2.4 2.6 3.5 6.5 7.7 8.7 16.5 9.3 26.6 1.7 31 4.5 61.9 6.7 92.9 1.3 19 2.1 38 3.3 57 .6 8.9-4.6 12.2-10.8 13.9-2.3.6-4.8.9-7.2.9-40.6.2-81.2.4-121.8.5-1.1-.1-1.9-.2-3-.3zM292.7 375.5c-8.8 8.4-20.1 15-18.3 30.1-.9.1-1.8.2-2.8.2-39.7.5-79.4 1.1-119.1 1.4-3.8 0-7.7-.8-11.3-1.9-5.5-1.7-8.1-5.9-7.9-11.7.4-10.1.6-20.1 1.2-30.2 1.7-29.5 3.5-58.9 5.3-88.4.9-13.9 1.9-27.8 2.7-41.7.2-3.7 1-6.9 3.1-10 2.7-3.9 5.2-7.9 7.7-11.8.3.1.5.2.8.3-.1 1.1-.1 2.1-.2 3.2-2.6 47.5-5.2 94.9-7.8 142.4-.3 5.7.4 11.2 2.7 16.4 3.9 8.8 11.2 13 20.6 13.2 4.7.1 9.5-.6 14.3-1.1 26.2-2.9 52.4-5.9 78.6-8.6 9.8-1 19.7-1.3 29.5-1.9.2-.2.4-.1.9.1z"/><path fill="#fff" d="M300.3 374.4c7.3 5.7 14.8 11.2 20.1 19 4.7 7 3.9 12.9-2.6 18.6-10 8.6-18.5 10.3-28.1 5.1-5.2-2.8-8.9-7.1-11.4-12.3-1.9-3.9-.6-7.6 1.4-11 5-8.4 12.6-14 20.6-19.4z"/></g></svg>
