<svg xmlns="http://www.w3.org/2000/svg" viewBox="0 0 500 500"><path d="M365.9 238.82c28.54-2.36 55.09-10.39 80.37-23.65 21.48-11.27 32.79-28.11 36.5-52.52 10.9-71.73-25.65-129.13-95.25-147.07 0 0-18.96-3.21-32.94-3.21s-30.3 3.46-30.3 3.46c-45.88 11.49-71.4 63.16-51.94 105.66 17.26 37.69 53.86 52.43 96.24 38.76 24.94-8.04 37.58-27.11 33.61-50.71-4.81-28.56-23.31-45.31-49.68-44.97-23.07.3-39.68 18.82-35 39.46 2.36 10.41 7.38 19.27 19.34 20.49 10.73 1.1 17.53-4.87 22-14.18 1.66-3.46.73-9.22 7.13-8.97 10.33 15.57 7.18 26.73-9.24 32.91-15.2 5.73-37 .25-45.6-11.45-8.75-11.92-7.3-35.21 3.06-48.85 16.95-22.33 41.12-30.37 64.9-21.61 35.59 13.12 50.83 32.67 48.96 62.85-2.03 32.73-18.34 53.88-50.51 58.31-25.95 3.58-51.08 8.79-75.57 17.71-10.63 3.87-19.72 1.85-27.67-6.31-5.54-5.69-11.26-11.21-16.89-16.81-55.28-54.95-110.76-61.7-178.38-22.83-28.42 16.34-51.43 35.8-56.09 68.69-2.36 9.82-3.8 22.73-3.8 36.93 0 14.02 1.41 26.79 3.71 36.56C28.5 323.45 51 347.69 81.4 366.36c28.94 17.77 59.36 22.22 87.18.52 28.81-22.47 47.57-53.72 48.24-90.61.56-30.47-41.33-64.23-72.42-63.79-35.93.5-74.12 35.22-75.44 68.73-.74 18.81 7.63 33.8 21.54 45.32 16 13.26 45.12 13.03 58.6.72 13.02-11.88 16.8-40.3 7.41-56.61-4.94-8.57-11.62-15.03-22.28-14.74-10.6.29-16.86 7.13-21.69 15.73-7.35 13.1-2.23 24.41 11.03 37.8-17.95-6.88-17.95-6.88-19.47-10.09-10.93-23.08 9.69-52.87 35.22-50.89 25.31 1.97 42.69 22.63 41.39 49.18-1.47 29.8-22.01 52.3-47.92 51.21-34.18-1.44-59.05-17.66-72.69-49.41-7.79-18.12-10.97-37.22-10.81-57.08.37-46.7 25.98-73.75 72.6-76.78 56.4-3.67 93.58 26.94 125.08 68.54 8.85 11.69 9.52 22.31 2.77 35.88-15.16 30.47-26.83 62.47-32.21 96.3-9.58 60.29 24.58 113.36 81.33 127.33.08.03.19.05.28.07.17.04.33.09.5.13h.03c5.3 1.2 22.63 2.08 43.23 2.08s37.92-.88 43.23-2.08h.26c58.54-14.72 85.24-56.3 95.61-112.28 8.95-48.32-18.51-79.81-50.66-107.89-30.52-26.66-65.06-18.23-97.97-4.16-35.75 15.28-64.48 69.47-57.77 105.76 6.47 34.97 38.15 60.54 72.5 58.51 38.19-2.26 73.91-33.58 76.75-67.28 2.41-28.71-15.57-56.66-41.33-64.23-18.26-5.37-36.22 4.35-49.5 26.2-8.4 13.83-6.27 26.11 4.4 37.41 5.37 5.69 11.76 9.69 18.63 2.76 6.16-6.22 8.57-13.76.78-20.68-3.2-2.84-11.13-2.03-6.24-9.93 3.12-5.04 8.08-5.71 13.19-5.83 19.94-.48 36.37 26.39 26.49 43.99-9.1 16.2-24.68 21.65-42.12 21.7-16.03.05-29.1-5.24-37.06-21.17-13.75-27.5-10.96-49.98 10.86-73.21 20.7-22.04 54.84-29.74 79.33-17.9 55.19 26.67 71.68 88.01 36.86 137.7-27.96 39.91-67.53 46.07-112.99 42.37-43.27-3.52-64.21-27.24-74.38-66.05-21.44-81.74 29.36-153.79 114.13-160.79z" fill="#c4bc08"/></svg>
