<svg xmlns="http://www.w3.org/2000/svg" viewBox="0 0 500 500"><path d="M312.2 71.2c-1.1 10.2-5.6 17.8-11 17.8-6.3 0-11.4-10.3-11.4-23 0-5.5.9-10.6 2.5-14.6L250.9 10 10.4 250.5 250.9 491l240.5-240.5L312.2 71.2z" fill="#fff"/><path fill="#1b4681" d="M250.9 493.8L7.6 250.5l1.4-1.4L250.9 7.2 294.7 51l-.5 1.2c-1.6 3.9-2.4 8.7-2.4 13.8 0 12.4 4.9 21 9.4 21 4.1 0 8-6.9 9-16l.5-4.1 183.5 183.6-1.4 1.4-241.9 241.9zM13.2 250.5l237.7 237.7 237.7-237.7-175-175.1c-1.9 9.5-6.7 15.6-12.4 15.6-7.5 0-13.4-11-13.4-25 0-5.1.8-10 2.2-14.1l-39.1-39.1L13.2 250.5z"/><g id="Layer_3"><path fill="#1b4681" d="M148.8 238.6c0-9.8-.6-42.2-.8-46.9-.8-15.4-5.1-15.8-17.2-15.8h-8.3c-1.6 0-2.1-.6-2.1-1.8v-6.7c0-1.4.6-1.8 2.1-1.8 4.2 0 16.2.8 35.3.8 8.5 0 24.3-.8 33.7-.8 20.7 0 37.7 1.8 46.9 7.1 15 8.3 20.4 20.4 20.4 36.1 0 26.2-11.6 32.8-32.3 43.8l.8.6c25.7 8.5 43 24.3 43 52.5 0 13.6-8.3 32-20.4 39.7-11.1 6.9-26.2 9.5-50.6 9.5-18.3 0-28.6-.8-39.7-.8-13.2 0-28.8.8-33.9.8-3.2 0-3.7-.6-3.7-1.6v-6.9c0-1.4.6-1.8 2.4-1.8H137c8.3 0 9.5-3.2 10.6-11.7.8-6.1 1.4-41.1 1.4-62.8l-.2-31.5zm23.3 10.3c5.1.6 9.5.6 14 .6 15 0 27-2.4 33.4-6.9 10.9-8.3 14.8-20.1 14.8-31.8 0-10.1-3.2-20.7-13-27.8-9.5-6.7-22.7-9-36.3-9-3.7 0-6.7-.2-8.7.2-2.1.6-3.7 2.4-3.7 4.8-.2 5.3-.6 28.4-.6 50.3l.1 19.6zm0 25.5v36.5c0 24.3 5.9 35.3 27.8 35.3 22.3 0 42.6-10.6 42.6-42.2 0-21.5-10.9-35.5-26.5-41.6-10.9-4.2-23.3-4.5-35.5-4.5H172l.1 16.5z"/><path d="M278.1 242.9c0-7.9-1-67.5-1.4-72.6-.7-7.9-4-11.3-16.5-11.3H241c-1.6 0-2.6-.7-2.6-2v-9c0-1.4 1-2 2.3-2 4 0 20.9 1 51.7 1 29.5 0 40.1-1 44.7-1 1.6 0 2.3 1 2.3 2.3v8.3c0 1.6-1 2.3-2.6 2.3h-15.5c-6.7 0-11.6 2.6-11.6 9.3 0 3.3-1 76.5-1 80.5v25.5c0 3.3 1 79.8 1 83.5 0 10.2 4.9 11.9 15.6 11.9h13.6c1.6 0 2.6.7 2.6 2.3v8.6c0 1.4-1 2-3 2-4 0-17.2-1-46.1-1-31.5 0-45.7 1-49.4 1-1.6 0-2.6-.7-2.6-2v-9c0-1.4 1-2 2.6-2h18.5c6.7 0 13.6-1 14.9-9.6.7-4.9 1.6-76.5 1.6-94.1v-23.2h.1z" fill="#1a4581"/></g><g id="Layer_4"><path d="M269.5 138.4c7.9-5.5 19.1-13.8 20-17.2 1.4-5.3-2.6-17.2 0-21.2s10.6-5.3 10.6-5.3-4 11.9 2.6 19.9c3.2 3.9 10.3 11 16.2 17.6 5.3-6 9-14.7 9-20.2 0-9.3-9.3-29.2-13.2-34.5-4-5.3 7.9-25.2 7.9-25.2S313.3 59 308 62.9c-5.3 4-5.3 22.5-9.3 22.5s-4-11.9 2.6-31.8c6.7-19.9-13.2-31.8-13.2-31.8v23.9c0 13.3-37.1 25.1-37.1 52.9 0 27.1 17.4 39.1 18.5 39.8z" fill="#f8bc2e"/></g></svg>
