<svg xmlns="http://www.w3.org/2000/svg" viewBox="0 0 500 500"><path fill="#407eb5" d="M250.86 389.15c-52.21 0-94.69-60.24-94.69-134.29s42.48-134.29 94.69-134.29 94.69 60.24 94.69 134.29-42.48 134.29-94.69 134.29zm0-251.36c-42.72 0-77.47 52.52-77.47 117.07s34.75 117.07 77.47 117.07 77.47-52.52 77.47-117.07-34.75-117.07-77.47-117.07z"/><path fill="#407eb5" d="M436.8 172.82v-.25h-.35c-.46-.34-.95-.68-1.42-1.02 29.22-41.57 42.16-77.58 26.16-97.14-24.1-29.48-97.83-2.01-176.14 47.57-11.22-.93-22.64-1.4-34.18-1.4-61.68 0-119.81 13.46-163.66 37.9-45.44 25.32-70.47 59.56-70.47 96.39 0 27.47 13.94 53.49 39.88 75.46-28.43 40.89-40.82 76.23-25.02 95.54C38.42 434.22 49.23 438 63.02 438c32.43 0 81.25-20.96 133.11-52.5 17.73 2.4 36.07 3.65 54.74 3.65 61.69 0 119.81-13.46 163.66-37.9 45.45-25.33 70.47-59.56 70.47-96.39 0-30.27-16.94-58.78-48.2-82.04zm30.33 73.44h-42.44c-1.28-15.45-5.92-30.21-13.44-43.82 3.55-4.25 6.92-8.46 10.2-12.65h9.63c20.38 16.38 33.24 35.68 36.05 56.47zm-120.11 0h-87.55v-56.47h121.84c3.19 3.54 6.1 7.24 8.77 11.04-12.43 14.39-26.8 29.63-43.06 45.43zm-73.71 64.38h-13.84v-47.17h69.32a977.543 977.543 0 0 1-41.86 36.24c-4.57 3.75-9.11 7.37-13.62 10.93zm-31.06 61.11c-7.26-.29-14.38-.97-21.35-1.98 7.11-4.7 14.24-9.54 21.35-14.54v16.52zm-45.24-6.91c-27.25-7.44-50.96-20.38-68.77-36.98h114.01v6.34c-15.69 11.38-30.81 21.58-45.24 30.64zm22.25-175.05h23v56.47h-88.43c15.68-14.85 33-30.14 52-45.69 4.51-3.69 8.98-7.27 13.43-10.78zm40.21-51.81c.4.02.79.05 1.18.07-.39.27-.79.54-1.18.81v-.88zm27.61 2.99c29.04 5.13 55 16.28 75.33 31.6H259.47v-12.89c9.43-6.67 18.64-12.9 27.61-18.71zm-44.83 31.6h-.57l.57-.42v.42zm146.14 0c-5.54-5.49-11.61-10.63-18.17-15.39 12.55 4.48 24.2 9.64 34.75 15.39h-16.58zm-146.14-21.64a949.37 949.37 0 0 0-28.92 21.64h-74.02c26.59-20.03 62.78-32.97 102.94-34.59v12.95zm-50.39 38.86c-21.78 17.97-43.02 37.09-62.63 56.47H94.32c2.04-20.79 11.35-40.09 26.1-56.47h71.44zm-79.57 73.68a747.15 747.15 0 0 0-14.9 16.07 88.901 88.901 0 0 1-3.07-16.07h17.97zm23.89 0h106.08v47.17H112.85a105.62 105.62 0 0 1-8.27-13.34c9.45-10.85 19.98-22.16 31.6-33.83zm-31.44 64.39c7.63 9.04 16.62 17.33 26.76 24.69-18.98-6.78-35.86-15.12-50.05-24.69h23.29zm154.73 14.97c6.64-4.89 13.23-9.89 19.76-14.97h94.25c-27.12 25.27-67.94 42.03-114.01 43.89v-28.92zm41.25-32.19c18.3-15.09 36.2-30.98 53.1-47.17h53.58c-1.66 16.97-8.15 32.96-18.52 47.17h-88.16zm70.57-64.38c9.8-9.94 19.12-19.9 27.87-29.78 4.41 9.44 7.23 19.42 8.24 29.78h-36.11zm76.57-160.95c8.47 10.35-.56 38.43-27.32 76.69-1.98-1.19-3.95-2.37-6.02-3.52-28.85-16.08-63.9-27.37-102.05-33.23 72.04-42.45 123.67-54.26 135.39-39.94zm-334.53 87.26H96.75c10.55-5.75 22.19-10.91 34.75-15.39-6.56 4.76-12.63 9.9-18.17 15.39zm-42.69 17.22h27.89c-12.22 16.93-19.82 36.08-21.5 56.47H34.59c2.82-20.79 15.68-40.09 36.05-56.47zm-36.05 73.68h42.44c.88 10.72 3.37 21.1 7.34 31-4.6 5.44-9 10.84-13.18 16.17h-2.82v3.61c-.59.77-1.17 1.54-1.75 2.31-18.04-15.63-29.41-33.71-32.03-53.09zm10.32 151.49c-8.27-10.11.2-37.18 25.55-74.09 5.23 3.6 10.8 7.07 16.74 10.38 23.91 13.32 52.08 23.36 82.74 29.75-66.62 37.57-113.89 47.58-125.03 33.96zm325.31-62.41c10.14-7.37 19.14-15.65 26.76-24.69h23.29c-14.18 9.57-31.06 17.91-50.05 24.69zm71.32-41.91h-32.26c8.65-14.53 14.03-30.43 15.41-47.17h42.44c-2.29 16.97-11.26 32.96-25.59 47.17z"/><path d="M50.81 352.31c-3.61 0-6.54 2.94-6.54 6.54 0 3.61 2.93 6.54 6.54 6.54s6.54-2.94 6.54-6.54c0-3.61-2.93-6.54-6.54-6.54z" fill="none"/><path fill="#53a8d3" d="M249.29 268.69c8.48-1.98 37.81-7.95 63.55-2.55v-72.29c-14.58-3.29-33.76-.98-55.66 17.94l-5.54 4.79-5.62-4.71c-1.54-1.28-30.11-24.58-59.55-17.16v72.42c13.96-2.27 39.31-4.74 62.82 1.56z"/><path fill="#53a8d3" d="M318.33 285.61c-26.37-10.23-66.59.19-67 .3l-2.32.62-2.3-.68c-29.99-8.84-66.4 0-66.76.09l-10.68 2.65-.01-85.58a59.226 59.226 0 0 0-6.54 5.7v85.06h177.33v-85.03c-2.01-1.94-5.4-4.88-9.99-7.73v89.16l-11.73-4.56z"/><path fill="#1c4b75" d="M355.19 199.68c-.77-.9-19.21-22.04-48.71-24.25-18.62-1.39-37.11 4.95-55.09 18.87-23.69-16.8-69.06-33.07-103.66 5.21l-2.22 2.46v109.02h211.76V202.1l-2.08-2.42zm-6.54 102.7H154.11v-97.1c42.01-46.48 97.44 0 97.44 0 31.91-27.57 59.08-23.6 76.49-15.15h2.01v1.01c11.8 6.21 18.59 14.14 18.59 14.14v97.1z"/><path fill="#1c4b75" d="M330.06 191.14V201c4.58 2.85 7.98 5.8 9.99 7.73v85.03H162.72V208.7c2.15-2.16 4.33-4.05 6.54-5.7v-8.75h17.22v.45c29.43-7.41 58.01 15.88 59.55 17.16l5.62 4.71 5.54-4.79c21.9-18.93 41.08-21.24 55.66-17.94v-3.72h15.2c-17.42-8.45-44.59-12.42-76.49 15.15 0 0-55.44-46.48-97.44 0v97.1h194.54v-97.1c-.01.01-6.81-7.92-18.6-14.13z"/><path d="M312.84 266.14c-25.74-5.4-55.07.56-63.55 2.55-23.51-6.3-48.86-3.83-62.82-1.56v-72.42c-5.77 1.45-11.58 4.09-17.22 8.3l.01 85.58 10.68-2.65c.36-.09 36.77-8.94 66.76-.09l2.3.68 2.32-.62c.4-.11 40.63-10.53 67-.3l11.72 4.55V201c-4.6-2.86-10.4-5.62-17.22-7.16v72.3z" fill="#fff"/><path fill="#1c4b75" d="M330.06 190.13h-2.01c.68.33 1.36.67 2.01 1.01v-1.01z"/><path fill="#1c4b75" d="M312.84 193.85c6.81 1.54 12.61 4.3 17.22 7.16v-9.86c-.65-.34-1.33-.68-2.01-1.01h-15.2v3.71zM186.47 194.26h-17.22v8.75c5.64-4.21 11.44-6.85 17.22-8.3v-.45z"/><path fill="#407eb5" d="M50.81 335.09c-13.1 0-23.76 10.66-23.76 23.76 0 13.1 10.66 23.76 23.76 23.76s23.76-10.66 23.76-23.76c0-13.1-10.66-23.76-23.76-23.76zm0 30.3c-3.61 0-6.54-2.94-6.54-6.54s2.93-6.54 6.54-6.54 6.54 2.94 6.54 6.54-2.93 6.54-6.54 6.54zM56 310h23v17H56z"/></svg>
