<svg xmlns="http://www.w3.org/2000/svg" viewBox="0 0 600 600"><path d="M13.2 436.9c33.5 11.6 39.2 57.9 78.3 57.8 3.8 0 8.1-1.1 11.3-3.1 43-26.3 80.9-22.3 117.9 16.8-2.5-24.2-.1-50.3-8.6-72.1-13.2-33.8-1.7-43.9 29.1-40.5 74.5 8.2 148.9-16.4 223.5.8 14.5 3.3 30.2-1.7 40.4-14.8 11.8-15.2 27.2-17.9 45.6-18.7 38.5-1.7 49.8-21.8 34.5-56.9-1.6-3.6-4.8-8.1-3.9-11.1 12.2-37-7.8-29.9-32.9-29.4-24 .5-56.8-22.3-50.6-40.2 8.2-23.5-3.8-26.9-14-32.1-18.3-9.4-24.7-25.7-35.5-40.9-14.3-20.1 1.5-52.4-25.3-61.5-24.8-8.4-51.8-14.9-77.1 5.7-26.3 21.3-64.1 24.4-86.6 52.7-54.1-17.7-58 38.5-84.4 60.2-12.3 10.1-15.6 15.9-31.2 8.3-27.7-13.5-38.3-2.6-44.4 25.8-6.1 28.5-6.5 65.7-48.6 71.9-19.3 2.8-30.7 11.6-23.4 32.9 4.1 11.8-.3 22.2-6.5 30.6-14.3 19-16.3 54.7-7.6 57.8z" fill="#86fefd" stroke="#5a66b8" stroke-width="8" stroke-miterlimit="10"/><g><path fill="none" stroke="#5a66b8" stroke-width="7" stroke-linecap="round" stroke-linejoin="round" stroke-miterlimit="10" d="M354 340.4c-.2-6.2-.8-12.4-.4-18.5.7-12.7.3-25.3.4-38 .2-31.8.4-63.7.4-95.5 0-3.5 1.6-5.2 4.1-7 10.1-7.7 21.2-9.7 33.5-7.5 13.5 2.4 26 7.2 38 13.6 8.1 4.3 16.2 8.6 25.1 10.8 4.1 1 4.4 2.8 4.5 6.2.5 11.8 1.2 23.7 2.1 35.5 1.1 13.8 2 27.7 2.9 41.5 1.1 18.3 2.7 36.7 3.9 55 .4 5.5.1 11 .1 17h-5.5c-30.3 0-60.7 0-91-.1-2.9 0-5.6.4-8 2.1-7.2 4.9-14.6 4.5-22 .5-2.6-1.4-5.1-2-8-2-14.8.1-29.7.1-44.5 0-18-.1-37.6-.1-55.6-.2"/><path fill="none" stroke="#5a66b8" stroke-width="7" stroke-linecap="round" stroke-linejoin="round" stroke-miterlimit="10" d="M256.5 197.4c-1.3 16.2-2.7 32.3-4 48.5-.8 10.7-.8 21.4-2.2 32-1.8 14.5-1.6 29.1-3.7 43.5-.7 4.5-1.4 9.4.6 14.6 4.9-4.6 9-9.3 13.8-13 7.5-5.7 16.5-8.2 25.4-10.6 8.7-2.2 17.4-4.1 26.5-4.6 9-.5 17.4.7 24.5 6.7 4.7 3.9 9.5 7.9 12.6 13.4.7 1.2 1.4 2.4 3 2.5M450.5 197.9c-.8 7.1.8 14 1 21 .6 20.2 1.9 40.3 2.8 60.5.7 16.5 2.7 32.9 2.2 49.5-.1 2 1 4.5-2 5.5"/><path fill="none" stroke="#5a66b8" stroke-width="7" stroke-linecap="round" stroke-linejoin="round" stroke-miterlimit="10" d="M272 187.4c-.2 6.7 0 13.4-.6 20-.4 4.2-.8 8.3-.9 12.5-.2 12.5-1.3 25-2.2 37.5-1.4 19.5-2.2 39-3.7 58.5-.1 1.1.3 2.3.5 3.5M434 190.9c.5 22.9 2 45.7 3.4 68.5 1 15.6 1.5 31.3 2 47 .1 4.3 2.3 8.6.6 13M455.6 333.9c-2 1.7-6.4 2.1-8.6 2-27-1.1-54-.1-81-.5-1.6 0-2.8.2-4 1.5-5.6 5.6-10.3 5.9-16.9 1.5-2-1.3-4.1-2.1-6.5-2-13 .3-26-.1-39 .4-15.6.6-31.3.1-47 .2-1.2 0-4.4-.1-5.2-.9M454 333.4c-1.3-1.3-2.9-2.5-4-4-7.2-9.6-17.9-13.5-28.6-16.8-9.5-2.9-19.3-4.4-29.4-4.3-14.5.1-25.3 6.2-33.4 17.7-1.3 1.9-2.4 3.9-4.6 5"/><path fill="none" stroke="#5a66b8" stroke-width="7" stroke-linecap="round" stroke-linejoin="round" stroke-miterlimit="10" d="M354 184.9c-5.4-3.1-10.4-6.6-16.5-8.6-5.8-2-11.6-2.6-17.5-2.3-14.9.6-29.2 4-42.9 9.6-6 2.5-11.8 6-16.9 10-3.7 2.9-7.4 3.7-11.6 3.8-2.8.1-3.9.9-4.1 4-1 15.5-2.3 31-3.1 46.5-.5 9.7-1.9 19.3-2.4 29-.6 11.3-1.6 22.7-2.4 34-.8 11-1.8 22-2.4 33-.2 4.1-.3 5.6-.2 9.7"/></g></svg>
