<svg xmlns="http://www.w3.org/2000/svg" viewBox="0 0 600 600"><path d="M107.4 262l-36.7 21.6-40.8 274.7s127-72.7 182.9-88.6 137.4-30.3 137.4-30.3 56.7-58.3 98.2-67.9 90.2-12.8 90.2-12.8 47.4-11.8 40.7-31.8c-6.6-20-135.7-103.6-135.7-103.6L107.4 262z" fill="#2c2e8e"/><path d="M351.6 420.6s-3.2-47.4 76.5-67.3 145.8-22.4 145.8-22.4L363.6 171.4s11.9-14.6-13.1 2.8-37.2 142.7-37.2 142.7l38.3 103.7zm-1.5 6.7s-83.1-17.6-157.3 17.6-127 75.1-127 75.1L81 293.1s27.9-33.5 58.3-35.9c30.3-2.4 170.9 75.1 170.9 75.1l39.9 95z" fill="#457ec2" stroke="#a7d8f8" stroke-width="3" stroke-miterlimit="10"/><path d="M350.9 417.7S451.5 283.5 486.7 274c35.4-9.7 65.5-11.2 65.5-11.2l-189.3-94.2-94.2 49.5-16 20.8 98.2 178.8" fill="#a7d8f8" stroke="#3f71bb" stroke-width="3" stroke-miterlimit="10"/><path d="M98.6 230.1s141.3-15.2 168.5 0 83.1 187.7 83.1 187.7-57.5-19.2-137.4-20-110.2 29.5-110.2 29.5l-4-197.2z" fill="#62adec" stroke="#3f71bb" stroke-width="3" stroke-miterlimit="10"/><path d="M291.8 211.6s35.5 72.5 67.5 105.5c46.7 48.3 79.1 42.7 79.1 42.7s-37.3 5.3-34.9 17.8c2.8 14.3 28.9 29.7 28.9 29.7s-38.2 1.8-74.9-45.5c-42.3-54.7-80.9-126.5-80.9-126.5l14.4-10" fill="#ad1a21"/><radialGradient id="a" cx="201.6" cy="445.8" r="114.2" gradientTransform="matrix(1 0 0 -1 0 600)" gradientUnits="userSpaceOnUse"><stop offset="0" stop-color="#a8cecb"/><stop offset="1" stop-color="#3b4292"/></radialGradient><circle cx="201.6" cy="154.2" r="114.2" fill="url(#a)"/><path d="M287.8 229.9c17.9-20.2 28.8-46.7 28.8-75.7 0-30.2-11.8-57.7-31-78.1l-.1-.1c-20-21.3-48-34.9-79.2-35.9l-2.2-.1h-3.4l-2.2.1c-31.2 1.1-59.2 14.7-79.2 35.9l-.1.1c-19.2 20.4-31 47.9-31 78.1 0 29 10.9 55.5 28.8 75.7 0 0 0 .1.1.1.1.1.2.1.2.2 20.1 22.5 49 37 81.1 38.1l2.2.1h3.4l2.2-.1c32.2-1.1 61.1-15.6 81.2-38.1l.2-.2c.2 0 .2-.1.2-.1zM96.2 158.1h47.3c.4 16.7 3.7 32.9 9.5 48.1-11.2 4.1-21.9 9.5-31.9 16.3-14.9-17.5-24-39.9-24.9-64.4zm27-74.7c9.8 6.4 20.2 11.5 31.1 15.3-6.7 16.2-10.3 33.6-10.8 51.6H96.2c.9-25.7 10.9-49 27-66.9zm185.4 66.9h-47.3c-.5-18-4.2-35.4-10.8-51.6 10.9-3.8 21.3-8.9 31.1-15.3 16 17.9 26.1 41.2 27 66.9zM198.4 98.9c-11.4-.3-22.6-2-33.4-5.1 8-16.4 19.3-31.2 33.4-43.5v48.6zm0 7.9v43.5h-47.1c.5-17.1 4.1-33.7 10.5-49.1 11.8 3.4 24.1 5.3 36.6 5.6zm7.9 0c12.5-.3 24.8-2.2 36.6-5.7 6.4 15.4 10 32 10.5 49.1h-47.1v-43.4zm0-7.9V50.4c14.1 12.3 25.4 27.1 33.4 43.5-10.8 3-22 4.7-33.4 5zm41-7.4c-7.6-15.8-18.1-30.3-31.1-42.7 23.1 3 43.8 13.4 59.8 28.8-9 5.8-18.7 10.4-28.7 13.9zm-89.8 0c-10-3.5-19.7-8.1-28.7-13.8 16-15.4 36.7-25.8 59.8-28.8-13.1 12.3-23.6 26.7-31.1 42.6zm-6.2 66.6h47.1v39.5c-13 .3-25.8 2.4-38 6.1-5.5-14.4-8.6-29.7-9.1-45.6zm47.1 47.4V258c-15.1-13.2-26.9-29.2-35-46.9 11.4-3.4 23.1-5.2 35-5.6zm7.9 52.5v-52.4c12 .3 23.7 2.2 35 5.5-8 17.7-19.9 33.7-35 46.9zm0-60.3v-39.5h47.1c-.4 15.8-3.6 31.2-9.1 45.6-12.2-3.8-25-5.8-38-6.1zm55-39.6h47.3c-.9 24.5-10.1 46.8-24.8 64.4-10-6.8-20.7-12.2-31.9-16.3 5.7-15.2 9-31.4 9.4-48.1zm-134.9 70.3c9.3-6.2 19.2-11.2 29.6-14.9 7.7 17.2 18.7 32.8 32.6 46.1-24.3-3.2-46-14.5-62.2-31.2zm89.9 31.2c13.9-13.2 24.9-28.9 32.6-46.1 10.4 3.7 20.3 8.7 29.6 14.9-16.3 16.7-38 28-62.2 31.2z" fill="#8eb3dc"/></svg>
