<svg xmlns="http://www.w3.org/2000/svg" viewBox="0 0 600 600"><path fill="#fff" d="M63 123l475 5v30h35l8 58v290l-13 15H335l-26 23h-18l-22-23H26l-5-358 11-6 26-1z" id="Layer_3"/><path d="M565.8 146.8h-24.9v17.9h24.9c1.8 0 3.2 1.5 3.2 3.2v340.8c0 1.8-1.5 3.2-3.2 3.2H330.7c-4 0-7.5 2.7-8.6 6.5-2.8 9.9-11.9 16.8-22.1 16.8s-19.3-6.9-22.1-16.8c-1.1-3.9-4.6-6.5-8.6-6.5H34.2c-1.8 0-3.2-1.5-3.2-3.2V167.9c0-1.8 1.5-3.2 3.2-3.2h24.9v-17.9H34.2c-11.7 0-21.2 9.5-21.2 21.2v340.9c0 11.7 9.5 21.2 21.2 21.2h228.9c6.7 14 21.1 23.4 36.9 23.4s30.1-9.3 36.9-23.4h228.9c11.7 0 21.2-9.5 21.2-21.2v-341c0-11.6-9.5-21.1-21.2-21.1z"/><path d="M540.9 114.3h-213c-20.3 0-36.9 17.2-36.9 38.4v359.2c0 5 4.4 9 9.4 9 4.5 0 8.3-3.3 8.9-7.8 1.4-10 9.4-17.5 18.6-17.5h213c5 0 9-4 9-9V123.2c0-4.9-4-8.9-9-8.9zm-9 363.4h-204c-6.9 0-13.4 2-19 5.6V152.7c0-11.3 8.5-20.5 19-20.5h204v345.5z"/><path d="M272.1 114.2h-213c-5 0-9 4-9 9v363.5c0 5 4 9 9 9h213c9.3 0 17.3 7.5 18.6 17.5.6 4.4 4.8 7.7 9.3 7.7 5 0 9-4 9-9V152.7c0-21.2-16.6-38.5-36.9-38.5zM291 483.3c-5.6-3.5-12.1-5.6-19-5.6H68V132.2h204c10.4 0 19 9.2 19 20.5v330.6z"/><g><path fill="#fff" stroke="#000" stroke-width="8" stroke-miterlimit="10" d="M457.7 329.3c-.9-2.7-3.3-4.5-6.1-4.5-1.4 0-2.7.4-3.8 1.3L427.7 341c-4.5 3.4-7.8 8.2-9.2 13.6l-7 26.4c-1.8 6.7 1.7 13.8 8.2 16.5l3.7 1.5c1.7.7 3.5 1 5.3 1 5.3 0 10-2.9 12.4-7.6l16.1-31.7c4.2-8.3 5-17.7 2.2-26.5l-1.7-4.9zM406.7 311.4c-2.5-15.5 3.7-31 16.2-40.4l18.9-14.3c9.4-7.1 15.8-17.5 18-29.1l.9-5.1c1.1-6-.5-12.1-4.3-16.8-3.9-4.7-9.6-7.4-15.7-7.4-8.9 0-20.5-6.4-25.2-14l-27.3-44C373.5 116.7 351.1 98 325 87.8c-1.3-.5-2.7-.8-4.1-.8-4 0-7.7 2.1-9.8 5.6l-3.2 5.3c-2.5 4.2-7.2 6.9-12.1 6.9-1.9 0-3.8-.4-5.6-1.2l-9.7-4.2c-3.8-1.6-6.6-4.8-7.8-8.8-1.2-3.9-.6-8.2 1.5-11.6.9-1.4 1-3.2.3-4.7s-2.1-2.6-3.8-2.8c-5.6-.7-11.2-1-16.7-.9l-32.9.7c-26.3.5-50 14.3-63.4 36.9l-30.4 51c-8.5 14.3-8 32.5 1.3 46.3l15 22.3c5.8 8.6 15.5 13.8 25.9 13.8 1.3 0 2.7-.1 4-.3l48-6.2c6.5-.8 13 1.6 17.4 6.5 3.6 4 5.4 9.1 5.1 14.4a7.5 7.5 0 0 0-1.4 5.2c.2 2.3 1.5 4.5 3.5 5.9l9.5 6.7c11.1 7.8 15.8 22.3 11.3 35.1l-3.2 9.2c-5.5 16-5.2 33.5.8 49.3l21.6 56.9c3.7 9.6 12.7 16.1 23 16.6l19.5.8h1.1c6.4 0 12.6-2.4 17.4-6.7l16.2-14.8c6.5-5.9 10.5-13.9 11.3-22.6l1.1-11c.8-8.6 5.5-16.2 12.8-20.8l5-3.1c12-7.6 18.2-21.5 16-35.4l-2.8-15.9z"/></g></svg>
