<svg xmlns="http://www.w3.org/2000/svg" viewBox="0 0 600 600"><g><circle cx="291.8" cy="267.8" r="256.8" fill="#007f3d"/><path fill="#ed1c24" d="M406.4 453.6s-47.4 31.6-79 31.6-39.5 15.8-39.5 15.8-7.9-15.8-39.5-15.8-79-31.6-79-31.6L74.5 572.1v7.9h426.8v-7.9l-94.9-118.5z"/><path fill="#fff" d="M469.7 532.6l-63.2-79s-58 19.8-84.9 19.8-33.7 9.9-33.7 9.9-6.7-9.9-33.7-9.9-84.9-19.8-84.9-19.8l-63.2 79s55.3 7.9 94.8 7.9 86.9-7.9 86.9-7.9 31.6 7.9 102.7 7.9 79.2-7.9 79.2-7.9z"/><path fill="#ed1c24" d="M382.7 145.3s6.3 56.7 0 79c-6.8 24.1-39.5 79-63.2 126.4s-15.8 110.6-15.8 110.6 71.1-23.7 94.8-39.5c23.7-15.8 63.2-63.2 63.2-142.3s-79-134.2-79-134.2z"/><path d="M374.8 177c0-55.3-55.3-118.5-55.3-118.5s7.7 8.8 0 39.5c-7.9 31.6-94.8 150.2-94.8 229.2s71.1 134.3 71.1 134.3-7.9-23.7-7.9-71.1 86.9-158.1 86.9-213.4z" fill="#f7941e"/><path d="M287.9 11s15.8 31.6 15.8 71.1-86.9 150.2-86.9 229.2 47.4 142.3 47.4 142.3-71.1 0-110.6-63.2S122 271.9 122 271.9s0-63.2 71.1-126.4 94.8-95 94.8-134.5z" fill="#ffde00"/></g></svg>
