<svg xmlns="http://www.w3.org/2000/svg" viewBox="0 0 600 600"><path d="M292.6 56.5s222.8-11.2 220.7 188.8c-2 200.1-122.2 215.6-204.1 216.7S70.8 444.4 77 278.5 145.5 63.7 261.5 57.6c24.3-1.3 31.1-1.1 31.1-1.1z" fill="#7f3f98"/><path d="M427.8 224.6l-126.6 8.9 7.6-124.3h-32.5l7.1 124-127.8-8.6V257l127.8-7.6-7.1 159.7H300.1c4.9 0 12.6.2 23.1.7s16.6.7 18.5.7c17.5 0 31.3-4.4 41.3-13.1 9-7.9 13.5-18.1 13.5-30.6 0-11.6-3.9-20.9-11.6-27.7-7.1-6.4-15.1-10.9-23.9-13.6-1.4-.5-1.4-1.2.2-2 7.8-4.2 13.9-9.2 18.3-14.9 3.3-4.3 5.5-7.4 6.5-9.3 2.2-4.5 3.3-10 3.3-16.4 0-8.5-2.5-15.7-7.4-21.6-2.5-3-5.4-5.4-8.6-7.5l54.3 3.2v-32.4h.2zm-62.5 117.8c7.3 7.3 11 16.5 11 27.6 0 11.9-3.4 20.9-10.3 27.2-5.7 5.2-13.8 7.8-24.2 7.8-8.4 0-14.8-.9-19.1-2.6-2.2-1-3.5-7.6-3.9-19.8v-52.4c0-1.4.3-2.2.8-2.4 1-.5 2.5-.7 4.5-.7 17.2-.1 30.9 5.1 41.2 15.3zm1.4-31.7c-2.7 5.3-6.4 9.1-11 11.5-1.4.7-2.3 1-3 1-.2 0-3.1-.3-8.6-.8-4.6-.4-7.7-.6-9.2-.6-3.4 0-6.9 0-10.3.1-3.5.1-5.1.1-4.8.1-.9 0-1.3-.8-1.3-2.3 0-39.7.1-60.4.2-61.9.2-1.3.8-2.1 2-2.4 1.6-.5 5.1-.7 10.5-.7 12.1 0 21.8 3.7 29 11.2s10.9 16.3 10.9 26.7c.1 6.3-1.4 12.3-4.4 18.1z" fill="#fff"/><path fill="none" d="M50.9 495.3h488.3V600H50.9z"/><path d="M109.6 520.7c8.4 1 13.9 4.4 13.9 11.2 0 4.8-2.7 8.6-6.8 10.8-3.7 2.1-9.2 3.1-15.2 3.1H83.2v-2.5c5.5-.5 6.2-1 6.2-7.1v-27.5c0-6.1-.6-6.6-5.8-7.1v-2.5h21c5.5 0 9.1.7 11.9 2.5 2.7 1.7 4.2 4.6 4.2 8.2 0 6.8-6 9.6-11.2 10.7v.2h.1zm-9-1c6.9 0 10-2.7 10-8.7 0-6.5-3.9-8.9-7.8-8.9-1.6 0-2.8.4-3.2.9-.5.5-.6 1.6-.6 3.1v13.7l1.6-.1zm-1.7 16.4c0 5.3 1.4 6.8 5.3 6.8 4-.1 8.6-3 8.6-10.1 0-6.7-4.2-10.2-12.4-10.2H99l-.1 13.5zM127.4 545.9v-2.3c4.2-.5 4.6-.8 4.6-5.9v-14.3c0-4.8-.5-5-4-5.5v-2.1c4.3-.5 9.1-1.4 13.1-2.6v24.5c0 5 .4 5.3 4.7 5.9v2.3h-18.4zm3.5-42.3c0-2.9 2.4-5 5.1-5 2.9 0 5.1 2.2 5.1 5 0 2.7-2.2 5-5.2 5-2.6 0-5-2.3-5-5zM163.1 514.5c2-.9 3.2-1.4 4.6-1.4 8.7 0 14.9 7.1 14.9 15.2 0 10.5-8.2 18.4-18.7 18.4-4 0-7.7-.7-12.7-2.6v-39c0-4.2-.4-4.8-4.4-5.1v-2.2c3.7-.4 9.5-1.4 13.6-2.6v20.6l2.7-1.3zm-2.6 23.6c0 1 .1 1.8.4 2.4.4 1.2 2.1 3.3 4.4 3.4 3.9.1 7.4-4.2 7.4-13.2 0-9.1-4.6-12.7-9.2-12.7-1.2 0-1.9.2-3 .5v19.6zM215.6 538.7c-4.4 6.6-10 8-13 8-9.6 0-14.9-7.1-14.9-15.4 0-5.5 2.3-10.1 5.3-13 3.2-3.2 7.1-5.1 11.1-5.1 6.6 0 11.7 5.7 11.7 11.6 0 1.4-.4 2.4-2.1 2.6-1.3.1-10.1.9-17.1 1.2.4 7.7 4.6 11.6 9.7 11.6 2.8 0 5.5-.9 8-3.1l1.3 1.6zM197 525.1c3-.1 5.6-.1 8.6-.2 1.1-.1 1.4-.2 1.5-1.4 0-3.7-1.6-7.4-4.4-7.4-2.8 0-5.3 3.3-5.7 9zM217.5 545.9v-2.3c4.2-.6 4.7-1 4.7-5.6v-33c0-4.3-.4-4.5-4.3-5v-2.1c4.1-.5 9.4-1.4 13.5-2.6V538c0 4.8.4 5.1 4.8 5.6v2.3h-18.7zM259 523.3c-1.9-4.4-4.2-7.3-7.6-7.3-1.9 0-3.7 1.6-3.7 3.9 0 2.2 1.7 3.9 5.3 5.5 5.8 2.5 9.7 5 9.7 10.7 0 7.1-6.8 10.7-12.9 10.7-3.8 0-7.6-1.4-9.1-2.4-.4-1.2-1.1-6.2-1.2-9.6l2.2-.2c1.6 4.5 4.9 9.5 9.3 9.5 2.4 0 4-1.7 4-3.9 0-2.1-1-3.9-5.5-6-3.3-1.7-9.1-4.5-9.1-10.7 0-5.6 4.5-10.2 12.1-10.2 3.3 0 5.3.6 6.9 1.3.7 1.7 1.6 6.8 1.7 8.2l-2.1.5zM295 538.7c-4.4 6.6-10 8-13 8-9.6 0-14.9-7.1-14.9-15.4 0-5.5 2.3-10.1 5.3-13 3.2-3.2 7.1-5.1 11.1-5.1 6.6 0 11.7 5.7 11.7 11.6 0 1.4-.4 2.4-2.1 2.6-1.3.1-10.1.9-17.1 1.2.4 7.7 4.6 11.6 9.7 11.6 2.8 0 5.5-.9 8-3.1l1.3 1.6zm-18.6-13.6c3-.1 5.6-.1 8.6-.2 1.1-.1 1.4-.2 1.5-1.4 0-3.7-1.6-7.4-4.4-7.4-2.8 0-5.3 3.3-5.7 9zM296.9 545.9v-2.3c4.2-.6 4.7-1 4.7-5.6v-33c0-4.3-.4-4.5-4.3-5v-2.1c4.1-.5 9.4-1.4 13.5-2.6V538c0 4.8.4 5.1 4.8 5.6v2.3h-18.7zM338.4 523.3c-1.9-4.4-4.2-7.3-7.6-7.3-1.9 0-3.7 1.6-3.7 3.9 0 2.2 1.7 3.9 5.3 5.5 5.8 2.5 9.7 5 9.7 10.7 0 7.1-6.8 10.7-12.9 10.7-3.8 0-7.6-1.4-9.1-2.4-.4-1.2-1.1-6.2-1.2-9.6l2.2-.2c1.6 4.5 4.9 9.5 9.3 9.5 2.4 0 4-1.7 4-3.9 0-2.1-1-3.9-5.5-6-3.3-1.7-9.1-4.5-9.1-10.7 0-5.6 4.5-10.2 12.1-10.2 3.3 0 5.3.6 6.9 1.3.7 1.7 1.6 6.8 1.7 8.2l-2.1.5zM369.5 546c-2.1-2.7-6.2-9.1-9.4-14.3-.6-1-1.1-1.4-1.6-1.4-.1 0-.2 0-.5.1v7.6c0 4.7.5 4.9 4.7 5.5v2.3h-18.5v-2.3c4.3-.6 4.8-.7 4.8-5.5v-33.3c0-4-.5-4.5-4.3-5v-2c3.3-.4 8.5-1.2 13.4-2.6v33.1c1.7-.4 3-1.6 4.1-2.7 1.6-1.8 3.4-4.7 4.2-6.3.9-1.5.6-2.4-2.2-2.9v-2.2l15.6-.6v2.2c-4.5.8-7 1.7-9 3.7-1.9 1.9-3 3.2-5 5.9 1.9 3.2 8.2 11.7 10.4 14.5 2.3 2.6 3.5 3.2 6 3.7v2.3l-12.7.2zM406.8 546.7c-1.9 0-3.5-.6-4.4-1.5-1-.9-1.5-1.8-1.9-2.7-2.7 1.8-6.1 4.2-7.5 4.2-6.1 0-9.7-4.8-9.7-9.2 0-3.7 1.7-5.5 5.5-6.9 4.2-1.6 9.8-3.3 11.4-4.8v-2.2c0-4.5-1.7-7.1-4.4-7.1-.9 0-1.7.4-2.4 1.3-.9 1-1.5 2.7-2.1 5-.5 1.9-1.5 2.4-3 2.4-1.9 0-4.5-1.7-4.5-3.6 0-1.3.9-2.2 2.5-3.5 2.7-1.9 7.8-4.4 12-5.1 3 0 5.1.6 7.1 2.1 3.1 2.4 3.7 5.5 3.7 9.5v11.9c0 3.3 1.2 4.2 2.3 4.2.9 0 1.7-.3 2.4-.6l.7 2.3-7.7 4.3zm-6.6-18c-1.3.6-2.5 1.4-4 2.2-2.2 1.2-3.4 2.4-3.4 4.9 0 4 2.7 5.5 4.3 5.5 1 0 1.8-.3 3-1.2v-11.4h.1zM431 514.5c2-.9 3.2-1.4 4.6-1.4 8.7 0 14.9 7.1 14.9 15.2 0 10.5-8.2 18.4-18.7 18.4-4 0-7.7-.7-12.7-2.6v-39c0-4.2-.4-4.8-4.4-5.1v-2.2c3.7-.4 9.5-1.4 13.6-2.6v20.6l2.7-1.3zm-2.7 23.6c0 1 .1 1.8.4 2.4.4 1.2 2.1 3.3 4.4 3.4 3.9.1 7.4-4.2 7.4-13.2 0-9.1-4.6-12.7-9.2-12.7-1.2 0-1.9.2-3 .5v19.6zM483.4 538.7c-4.4 6.6-10 8-13 8-9.6 0-14.9-7.1-14.9-15.4 0-5.5 2.3-10.1 5.3-13 3.2-3.2 7.1-5.1 11.1-5.1 6.6 0 11.7 5.7 11.7 11.6 0 1.4-.4 2.4-2.1 2.6-1.3.1-10.1.9-17.1 1.2.4 7.7 4.6 11.6 9.7 11.6 2.8 0 5.5-.9 8-3.1l1.3 1.6zm-18.6-13.6c3-.1 5.6-.1 8.6-.2 1.1-.1 1.4-.2 1.5-1.4 0-3.7-1.6-7.4-4.4-7.4-2.7 0-5.3 3.3-5.7 9zM503 545.9c-1.3.5-2.4.8-3 .8-5.5 0-8.8-2.6-8.8-9.1v-20.2h-4.5l-.4-.9 2-2.6h2.9v-5.3l8.1-5.6 1 .4V514h7.1c.9.8.7 2.9-.4 3.5h-6.6v17.8c0 5.6 2.6 6.3 4.1 6.3 1.2 0 2.4-.3 3.6-.9l.7 2.5-5.8 2.7z"/></svg>
