<svg xmlns="http://www.w3.org/2000/svg" viewBox="0 0 600 600"><circle cx="301" cy="303" r="280" fill="#005baf" id="Layer_3"/><g id="Layer_2"><path fill="#fff" d="M308.9 374.6V229c0-2.7-2.2-4.9-4.9-4.9s-4.9 2.2-4.9 4.9v145.6c0 2.7 2.2 4.9 4.9 4.9s4.9-2.2 4.9-4.9z"/><path fill="#fff" d="M450.3 192.4c-10.3 0-23.2-4.4-36.8-9.2-17.2-6-36.7-12.7-57-12.7-23.4 0-37.7 10.3-45.6 18.9-2.9 3.2-5.2 6.4-6.9 9.3-1.7-2.9-4-6.1-6.9-9.3-7.9-8.6-22.2-18.9-45.6-18.9-20.2 0-39.8 6.8-57 12.7-13.6 4.7-26.4 9.2-36.8 9.2-2.7 0-4.9 2.2-4.9 4.9v196.4c0 2.7 2.2 4.9 4.9 4.9 11.9 0 25.5-4.7 39.9-9.7 16.5-5.7 35.2-12.2 53.8-12.2 16 0 28.9 5.3 38.4 15.7 1.8 2 4.9 2.1 6.9.3s2.1-4.9.3-6.9c-7.9-8.6-22.2-18.9-45.6-18.9-20.2 0-39.8 6.8-57 12.7-11.5 4-22.5 7.8-31.9 8.9V201.9c10.7-1 22.6-5.1 35.1-9.5 16.5-5.7 35.2-12.2 53.8-12.2 37.6 0 47.5 29.9 47.9 31.1.6 2 2.5 3.4 4.7 3.4 2.1 0 4-1.4 4.7-3.4.1-.3 10-31.1 47.9-31.1 18.6 0 37.3 6.5 53.8 12.2 12.5 4.3 24.3 8.4 35.1 9.5v186.6c-9.4-1.1-20.3-4.9-31.9-8.9-17.2-6-36.7-12.7-57-12.7-23.4 0-37.7 10.3-45.6 18.9-1.8 2-1.7 5.1.3 6.9 2 1.8 5.1 1.7 6.9-.3 9.5-10.4 22.4-15.7 38.4-15.7 18.6 0 37.3 6.5 53.8 12.2 14.4 5 28 9.7 39.9 9.7 2.7 0 4.9-2.2 4.9-4.9V197.3c-.1-2.7-2.2-4.9-4.9-4.9z"/><path fill="#fff" d="M450.3 408.3c-10.3 0-23.2-4.4-36.8-9.2-17.2-6-36.7-12.7-57-12.7-22 0-35.9 9.1-44.1 17.3h-16.9c-8.1-8.2-22.1-17.3-44.1-17.3-20.2 0-39.8 6.8-57 12.7-13.6 4.7-26.4 9.2-36.8 9.2-2.7 0-4.9 2.2-4.9 4.9s2.2 4.9 4.9 4.9c11.9 0 25.5-4.7 39.9-9.7 16.5-5.7 35.2-12.2 53.8-12.2 16 0 28.9 5.3 38.4 15.7.9 1 2.2 1.6 3.6 1.6h21.1c1.4 0 2.7-.6 3.6-1.6 9.5-10.4 22.4-15.7 38.4-15.7 18.6 0 37.3 6.5 53.8 12.2 14.4 5 28 9.7 39.9 9.7 2.7 0 4.9-2.2 4.9-4.9.1-2.7-2-4.9-4.7-4.9zM236.7 174.3c.7 0 1.3.1 1.9.2 20.6-10.7 41.5-19.4 62.1-26 9.5-3.1 30.4-9.6 45.7-11.1h.4c31.7-5.1 61.3-4.5 86.1 2.6 24.8 7.1 43.5 20.4 54.1 38.7 22.4 38.8 6.3 93.7-36.4 145v13.6c50.2-56.5 69.7-119.2 44.3-163.1-11.7-20.3-32.3-35.1-59.5-42.9-26.5-7.5-58.1-8.1-91.8-2.4-.1 0-.2 0-.3.1-28.6 5.2-45.5 11.1-45.5 11.1v.1c-26.3 8.4-53.1 20.1-78.9 35-1.1.7-2.3 1.3-3.4 2 8.2-2.1 15.7-3.2 21.2-2.9z"/><path fill="#fff" d="M370.3 393.7c-6 3.9-12.1 7.7-18.4 11.3-73.3 42.4-153.5 58.8-209.5 42.9-24.8-7.1-43.5-20.4-54.1-38.7-16.9-29.2-12.5-68.7 12.5-111.1 14.4-24.5 34.6-48.2 59.2-69.8v-12c-28 23.6-51 49.9-67 77.2-26.7 45.4-31.1 88.1-12.5 120.3 11.8 20.3 32.3 35.1 59.5 42.9 58.2 16.6 141.2-.2 216.5-43.8 8.9-5.2 17.6-10.6 25.8-16.2l-12-3z"/><circle fill="#fff" cx="85.3" cy="327.8" r="29.3"/><circle fill="#fff" cx="493.5" cy="178.2" r="29.3"/></g></svg>
