<svg id="Layer_1" xmlns="http://www.w3.org/2000/svg" viewBox="0 0 969.1 817.5"><circle fill="#fff" cx="654.3" cy="370.1" r="252.6"/><path fill="#70a2c7" d="M0 0h969.1v817.5H0z" id="Layer_10"/><g id="Layer_9"><path fill="#fff" d="M637.1 279.4L497 224.2l-47.5-48-17.5-20.4-19.6-46-90.8-59.3v72.6l33 35.7-4.1 51.1-34 52.2-63.9 65.4-11.4 27.6v84.8h-37.1l-22.7-13.3-20.6 5.1-76.3 77.7v41.9L66 589.1v16.3h39.2l13.4 26.6 42.2 32.7-14.4 38.8-11.3 24.6 64.9-6.2 44.3 16.4h194.9l35 16.3 131-8.1-20.7-50.1 61.9-191.1z"/><path fill="#00007f" d="M472.2 765.2l-35.3-16.4H242.4l-43.8-16.2-80.7 7.7 18.7-40.8 11.6-31.2-38-29.4L98.6 616H55.5v-29.2L74 548.9v-43.8l81.4-82.9 27.6-6.8 23.9 14h23.8V353l13-31.4 64.6-66.1 32-49.1 3.5-43.9-32.7-35.3V31.1l109.7 71.6 20.2 47.4 16.2 18.9 45.7 46.2 144.4 56.9 9.7 234.6L595.7 696l24.8 60.1-148.3 9.1zm-226-37.4h195.3l34.7 16.2 113.7-7-16.6-40.1 62.5-193-8.9-217.2-135.8-53.5-49.6-50.2-18.5-21.6-19-44.6-71.9-46.9V119l33.3 36.1-4.7 58.3-36 55.3-63.2 64.7-9.8 23.8v93.2h-50.4l-21.5-12.6-13.6 3.4L95 513.7v40l-18.5 37.8v3.4h35.2l15.2 30.3 46.4 36-17.4 46.8-3.7 8 49.1-4.7 44.9 16.5z"/></g><circle fill="#fff" cx="654.1" cy="374.5" r="247.9" id="Layer_11"/><path transform="matrix(1 -.0041 .0041 1 -1.511 3.186)" fill="#00007f" d="M653.5 354.9h242.4v29H653.5z" id="Layer_6"/><path fill="#00007f" d="M839.5 189.3c-49.7-49.7-115.7-77-186-77s-136.3 27.4-186 77c-49.7 49.7-77 115.7-77 186s27.4 136.3 77 186c49.7 49.7 115.7 77 186 77s136.3-27.4 186-77c49.7-49.7 77-115.7 77-186s-27.4-136.3-77-186zM639 158.5v429.7c-34.3-32.4-90.4-100.1-95.7-199.4-3.4-63.5 14.3-123.9 52.8-179.5 15-21.8 30.6-38.8 42.9-50.8zm29 432V147.1c32.9 29.1 97.4 99.4 103.1 206.1 3.4 63.5-14.3 123.9-52.8 179.5-18.3 26.6-37.3 46-50.3 57.8zM419.5 375.3c0-114.7 82.9-210.4 192-230.2-12 12.4-25.9 28.3-39.3 47.7-18.6 26.9-32.9 55.4-42.7 84.8-12.1 36.4-17.2 74.4-15.2 112.8 3.3 61.7 24.3 119.3 62.5 171.2 13.4 18.3 27.2 33.2 39.1 44.7-111.2-18.1-196.4-114.8-196.4-231zm274.6 230.5c13.7-13.2 31.3-32.2 48.1-56.5 18.6-26.9 32.9-55.4 42.7-84.8 12.1-36.4 17.2-74.4 15.2-112.8-3.3-61.7-24.3-119.3-62.5-171.2-9.2-12.5-18.1-23.1-26.3-32 101.2 25.8 176.3 117.7 176.3 226.8-.1 115.2-83.7 211.2-193.5 230.5z"/><g id="Layer_7"><path fill="#fff" d="M775.4 371.1l-169.2-1.8c-16 2.2-31 8.9-43.3 19.3-26.6 22.7-29.5 54.3-29.9 60.8v234h242.4V371.1z"/><path fill="#00007f" d="M789.9 697.9H518.5V448.5c.6-10.2 5-45.4 35-70.9 14.5-12.2 32-20 50.7-22.6l1.1-.2 184.6 2v341.1zm-242.4-29h213.4V385.4l-153.7-1.6c-12.9 2-25 7.5-34.9 15.9-20.8 17.8-24.2 42.4-24.7 50.2v219z"/><g><path fill="#fff" d="M290.2 371.1l169.2-1.8c16 2.2 31 8.9 43.3 19.3 26.6 22.7 29.5 54.3 29.9 60.8v234H290.2V371.1z"/><path fill="#00007f" d="M547.1 697.9H275.7V356.8l184.6-2 1.1.2c18.7 2.6 36.2 10.4 50.6 22.6l.1.1c30 25.6 34.3 60.8 35 70.9v249.3zm-242.4-29h213.4v-219c-.5-7.8-3.9-32.4-24.8-50.2-10-8.4-22-13.9-34.9-15.9l-153.7 1.6v283.5z"/></g></g><g id="Layer_8"><path fill="#00007f" d="M547.4 682.1l-28.8-3.2c3.6-32.6 21.6-56.3 52-68.6 20.8-8.4 40.6-8.4 43.2-8.3h160.9v29H613.3c-2.4-.1-60.2-.5-65.9 51.1z"/><path fill="#00007f" d="M518.3 682.1c-2.4-21.9-13.5-36.6-34.1-44.8-16-6.5-31.7-6.2-31.9-6.2H291v-29h160.9c2.6 0 22.4 0 43.2 8.3 30.5 12.3 48.5 36 52 68.6l-28.8 3.1z"/></g></svg>
