<svg xmlns="http://www.w3.org/2000/svg" viewBox="0 0 500 500"><path d="M253.3 12.6S362.2-.2 352.8 30.9c-9.4 31.1-55.1 183.6-55.1 183.6l-23.1 101.3-14.9 84s0 6.6-4.3 5.3c-4.3-1.3-3.4-11.6-3.4-11.6l13.2-347.3c.1.1-11.9-33.6-11.9-33.6z" fill="#fff"/><path d="M145.5 115.7c36 89.9 65.9 181.6 84 276.8.9 4.8.9 10.4 5.5 13.7 4.2-1.5 3.3-8.9 9.4-7.9 1.5.4 2.9 1.1 4.5.6 3.2-26.6 3.5-53.4 5.6-80 5.6-72.4 19.3-143.1 39.9-212.7 7.2-24.4 13.9-48.1 42.2-56 9.3-11.4 8.4-15.5-5-21.1-11.4-4.8-23.6-6.7-35.7-8.8-4.9-.9-10.1-1.2-14.5-4.2-1-1.1-1.1-2.2-.2-3.4" fill="#fefefe"/><path d="M245.1 399.8c-3.5-.4-5.3.9-5.1 4.8.1 2.7 1.6 5.7-1.3 7.8-6-5.4-4.3-12.6-4.3-19.2-.1-45.2-4.5-90.2-7.1-135.3-1.6-27.7-3.7-55.3-6-82.9-.4-4.6-1-9.3-1.5-14-1-8.9-5.4-13.4-14.7-14.5-14.4-1.7-28.2-6.1-41.3-12.8-8.9-4.6-16.1-10.9-22.1-18.7-2-1.2-1-4.6-3.9-5.1V94.4c2.1-8.4 7.9-13.6 15.1-17.6 17.3-9.5 36.4-13.7 55.7-16.4 14.2-2 29.8 1.3 40.5-12.2.9-1.1 2.6 1.3 3.4 2.7-.1 25-.1 50.2-1.8 75.2-.6 8.5-1.5 17-1.5 25.5.2 76.3-.1 152.5-.6 228.8.5 6.8 2.6 14-3.5 19.4z" fill="#ef8708"/><path d="M281.7 14.9c18.6 1.6 36.9 4.5 54.1 11.7 15.8 6.5 16.7 12.5 4.5 24.4-9.6 7.7-21.7 9.8-33 13.4-9.4 3.1-13.9 8.8-16.5 17.6-10.9 37.4-18.2 75.3-23.2 113.9-8.7 66.7-14.2 133.6-15.9 200.7-.1 3.8 2.3 10.6-6.3 8.2-.1-1.6-.4-3.2-.5-4.9.1-27.2.4-54.6.5-81.8.2-59.2-1-118.6 1.1-177.8 1-27.5-1.3-55.3 3.9-82.7.5-2.8-.2-5.9-.4-8.9-5.6-12.6-4.3-24.5 3.2-36" fill="#e10a17"/><path d="M332.8 219.9c-6 25.3-16.1 49.1-24.3 73.6-12 35.8-24.8 71.4-37.2 107.1-2.3 6.7-4.2 14-14 13.4 2.3-51.3 8.2-101.7 16.6-151.9.9-5.3 2.3-8.5 8.1-9.6 2.7-.5 5.9-1.3 7.8-3.9 15-8.3 27.7-20.2 43-28.7z" fill="#ef8808"/><path d="M245.6 404.7c7.6.9 5.4-4.9 5.5-8.5 1-28.6 1.2-57.1 2.7-85.6 4.3-76.2 11.6-152.1 32.6-225.9.6-2.1 1.3-4 1.7-6.1 2-10.9 7.2-16.8 19.3-17.6 11.5-.7 22.1-6 32.8-9.9-4.9 8.1-13.9 9.2-21.6 12.1-4.5 1.7-7.6 3.2-9.4 8.8-11.8 37.1-23.3 74.2-31.5 112.3-6.1 28-10.6 56.3-14.5 84.7-5.9 43.7-8.3 87.5-9.9 131.5 0 5.4-1.4 9.4-7.7 4.2z" fill="#fad6c8"/><path d="M332.8 219.9c-12.2 12.8-25 24.9-43.2 28.8 6.2-31.3 16.4-61.3 25.5-91.8 24 13.1 30.3 36.3 17.7 63z" fill="#87bc26"/><path d="M230.7 250.5c-1.8-28.1-4.4-56-6.1-84-1.2-20.1-2.1-20.1-22-23.6-1.2-.2-2.4-.9-3.7-1.1-21.6-3.2-39.6-14.5-57-26.7 36.5 94 68.9 189.4 86.2 289 1 5.7 3.9 9.5 10.5 8.3-.7-54.1-4.6-108-7.9-161.9z" fill="#b61717"/><ellipse cx="247.3" cy="463.9" rx="27.4" ry="27.1" fill="#e10b17"/></svg>
