<svg xmlns="http://www.w3.org/2000/svg" viewBox="0 0 600 600"><g id="Layer_1"><path fill="#fff" d="M42 242h519v273H42z"/><path fill="#350865" d="M554 249v259H49V249h505m14-14H35v287h533V235z"/><path fill="#fff" d="M303.5 559c-14.7 0-26.9-11-28.4-25.7l-.6-6.3H40V241h525v286H332.5l-.6 6.3c-1.5 14.7-13.7 25.7-28.4 25.7z"/><path fill="#350865" d="M558 248v272H326.1l-1.2 12.6c-1.1 11-10.3 19.4-21.4 19.4s-20.3-8.3-21.4-19.4l-1.2-12.6H47V248h511m14-14H33v300h235.2c1.8 18 16.9 32 35.3 32s33.6-14 35.3-32H572V234z"/><path fill="none" stroke="#350865" stroke-width="6" stroke-miterlimit="10" d="M545 239l-3 268s-189-29-237 5M59 239l3 268s189-29 237 5"/><path fill="none" stroke="#350865" stroke-width="6" stroke-miterlimit="10" d="M525 239l-2.7 245.4s-173.1-26.6-217 4.6M80 239l2.7 245.4s173.1-26.6 217 4.6"/><path fill="none" stroke="#350865" stroke-width="6" stroke-miterlimit="10" d="M503.3 244l-2.4 217s-153-23.5-191.9 4M109 244l2.4 217s153-23.5 191.9 4"/><path fill="none" stroke="#350865" stroke-width="11" stroke-miterlimit="10" d="M303.5 451.5l-1 70"/><ellipse fill="#fff" cx="304.5" cy="238" rx="220.5" ry="224"/><path fill="#350865" d="M467.2 74.8C423.5 31.1 365.3 7 303.5 7s-120 24.1-163.7 67.8S72 176.7 72 238.5s24.1 120 67.8 163.7S241.7 470 303.5 470s120-24.1 163.7-67.8S535 300.3 535 238.5s-24.1-120-67.8-163.7zm34 252.2h-34.5c8-25.4 12.5-52.8 13.2-81h40c-1 28.3-7.4 55.7-18.7 81zM87.1 246h40c.7 28.2 5.2 55.6 13.2 81h-34.5c-11.3-25.3-17.7-52.7-18.7-81zm18.7-96h34.5c-8 25.4-12.5 52.8-13.2 81h-40c1-28.3 7.4-55.7 18.7-81zm294.1 81c-.4-28.2-2.8-55.6-7-81h58c8.3 24.9 13.3 52.2 14 81h-65zm-46 176H311v-65h63.8c-4 19-9.2 36.5-15.4 52.1-1.7 4.5-3.6 8.8-5.5 12.9zM311 454v-32h34.9c-10.7 17.6-22.7 28.7-34.9 32zm-49.9-32H296v32c-12.2-3.3-24.2-14.4-34.9-32zm-13.6-27.9c-6.2-15.6-11.3-33.2-15.4-52.1H296v65h-42.9c-1.9-4.1-3.8-8.4-5.6-12.9zM253.1 70H296v65h-63.8c4-19 9.2-36.5 15.4-52.1 1.7-4.5 3.6-8.8 5.5-12.9zM296 23v32h-34.9c10.7-17.6 22.7-28.7 34.9-32zm49.8 32H311V23c12.2 3.3 24.2 14.4 34.8 32zm13.7 27.9c6.2 15.6 11.3 33.2 15.4 52.1H311V70h42.9c1.9 4.1 3.8 8.4 5.6 12.9zM296 150v81h-73.9c.4-28.3 2.8-55.7 7.2-81H296zm0 96v81h-66.7c-4.4-25.3-6.9-52.7-7.2-81H296zm15 81v-81h73.9c-.4 28.3-2.8 55.7-7.2 81H311zm0-96v-81h66.7c4.4 25.3 6.9 52.7 7.2 81H311zm79.1-96c-4.3-21-9.9-40.5-16.7-57.7-1-2.5-2-5-3.1-7.3h34.4c16.5 17.8 30.3 39.9 40.5 65h-55.1zm-27-80c-5.3-9.9-11.1-18.4-17.1-25.4 15.4 5.6 29.9 14.3 43.1 25.4h-26zm-119.2 0h-26c13.2-11.1 27.7-19.7 43.1-25.4-6 7-11.8 15.5-17.1 25.4zm-7.2 15c-1 2.4-2.1 4.8-3.1 7.3-6.8 17.2-12.4 36.7-16.7 57.7h-55.2c10.2-25.1 24.1-47.2 40.5-65h34.5zm-22.6 80c-4.3 25.4-6.7 52.8-7 81h-64.9c.7-28.8 5.7-56.1 14-81h57.9zm-72 96H207c.4 28.2 2.8 55.6 7 81h-58c-8.2-24.9-13.2-52.2-13.9-81zm74.8 96c4.3 21 9.9 40.5 16.7 57.7 1 2.5 2 5 3.1 7.3h-34.4c-16.5-17.8-30.3-39.9-40.5-65h55.1zm27 80c5.3 9.9 11.1 18.4 17.1 25.4-15.4-5.6-29.9-14.3-43.1-25.4h26zm119.2 0h26c-13.2 11.1-27.7 19.7-43.1 25.4 6-7 11.8-15.5 17.1-25.4zm7.2-15c1-2.4 2.1-4.8 3.1-7.3 6.8-17.2 12.4-36.7 16.7-57.7h55.2c-10.2 25.1-24.1 47.2-40.5 65h-34.5zm22.6-80c4.3-25.4 6.7-52.8 7-81h64.9c-.7 28.8-5.7 56.1-14 81h-57.9zm87-96c-.7-28.2-5.2-55.6-13.2-81h34.5c11.3 25.3 17.7 52.7 18.7 81h-40zm13.9-96h-32.2c-8.3-21.7-19.2-41.7-32.5-59.4-1.4-1.9-2.9-3.8-4.4-5.6h14.9c5.9 4.8 11.7 9.9 17.1 15.4 14.8 14.9 27.2 31.6 37.1 49.6zm-75.3-80h-7.3c-3.6-3.6-7.3-7.1-11-10.3 6.3 3.1 12.4 6.6 18.3 10.3zm-222.7 0h-7.3c5.9-3.7 12.1-7.2 18.3-10.3-3.8 3.2-7.5 6.7-11 10.3zm-45.4 30.4c5.5-5.5 11.2-10.6 17.1-15.4h14.9c-1.5 1.8-2.9 3.7-4.4 5.6-13.3 17.7-24.3 37.7-32.5 59.4h-32.2c9.8-18 22.2-34.7 37.1-49.6zM113.2 342h32.2c8.3 21.7 19.2 41.7 32.5 59.4 1.4 1.9 2.9 3.8 4.4 5.6h-14.9c-5.9-4.8-11.7-9.9-17.1-15.4a222.31 222.31 0 0 1-37.1-49.6zm75.3 80h7.3c3.6 3.6 7.3 7.1 11 10.3-6.3-3.1-12.4-6.6-18.3-10.3zm222.7 0h7.3c-5.9 3.7-12.1 7.2-18.3 10.3 3.8-3.2 7.5-6.7 11-10.3zm45.4-30.4c-5.5 5.5-11.2 10.6-17.1 15.4h-14.9c1.5-1.8 2.9-3.7 4.4-5.6 13.3-17.7 24.3-37.7 32.5-59.4h32.2c-9.8 18-22.2 34.7-37.1 49.6z"/></g></svg>
