<svg xmlns="http://www.w3.org/2000/svg" viewBox="0 0 500 500"><path d="M136.66 270.24c0-12.57-10.7-25.78-13.21-28.92 1.25 3.78 2.51 8.81 2.51 13.84 0 16.35-.63 38.99 7.54 62.89 2.51 6.92 5.67 13.21 9.43 18.24-1.25-2.51-1.89-4.4-3.14-6.92-8.15-23.91-3.13-42.78-3.13-59.13M176.28 286.59h.63-.63M196.4 289.73s0-.62 0 0c0-.62 0-.62 0 0M151.13 272.13c-1.25-3.14-1.25-7.54.63-10.06 2.51-1.89 5.03-3.14 8.81-2.51 1.89.63 4.4 2.51 5.67 4.4.63 3.14 1.25 5.67-1.25 8.81-2.51 1.89-5.67 5.03-9.43 3.14-3.17-.01-3.17-2.53-4.43-3.78M244.83 377.78s.62 0 0 0h.63-.63M412.74 212.38l-6.92-11.32s-3.14-2.51-8.81-5.03c-18.87-6.92-37.73-6.92-74.21 61.63-17.6 32.7-32.08 59.11-40.87 71.68-10.06 13.84-19.49 21.38-37.1 33.33-1.89 1.25-3.14 2.51-5.03 3.14-5.67-1.25-10.06-3.78-14.46-5.67-6.29-3.14-11.32-6.92-16.35-11.32-11.95-10.7-18.87-17.6-18.87-17.6s-4.4 20.75-4.4 37.73c0 0-7.54-3.14-11.32-5.03-9.43-5.03-21.38-13.84-30.81-27.05 9.43 19.49 25.16 32.08 37.1 38.36 2.51 1.25 5.03 3.14 5.03 3.14C186.35 394.11 211.5 496 211.5 496s-15.1-91.19-15.72-106.29v-7.54c8.17 3.14 18.24 5.03 30.19 3.14 6.29-1.25 13.84-3.78 20.75-8.17h.63-.63c6.29 1.89 13.21 2.51 21.38 3.14 5.67 0 10.06-.63 14.46-1.25 15.72-4.4 21.38-13.21 25.16-22.02 2.51-6.29 5.03-15.72 3.78-20.13 3.78-1.89 10.06-5.03 20.13-13.21 22.64-17.6 26.41-22.64 21.38-40.25l-5.03-10.06c3.78-1.25 10.7-3.14 15.72-4.4 15.72-5.03 32.7-13.84 42.13-23.89 6.27-7.53 11.94-25.14 6.91-32.69M229.1 371.49c-1.89.63-3.14 1.25-5.03 1.89-11.32 3.14-21.38 2.51-29.56.63.63-15.72 1.89-32.7 1.89-32.7s5.67 8.81 18.24 20.13c3.14 2.51 6.29 5.67 10.06 7.54 1.26-.01 2.51 1.24 4.4 2.51zm51.57-5.67c-5.67 2.51-12.57 3.78-20.75 3.78h-2.51c10.06-6.92 16.98-12.57 23.27-20.13 3.14-3.78 6.92-8.17 10.06-13.84l3.14 6.92s3.78-.63 6.29 0h.63c-2.52 7.56-8.81 18.24-20.13 23.27zm120.75-135.2c-9.43 11.95-35.22 20.13-48.43 26.41-12.57 6.29-22.64 9.43-22.64 9.43l6.29 11.32s4.4 0 8.17 1.25c0 8.81-5.03 19.49-23.27 33.95-10.06 7.54-15.72 11.32-18.87 13.21 0 0-4.4 1.89-8.17 3.14.63-.63 1.25-1.25 1.25-2.51l3.78-6.92c5.67-10.06 13.21-23.27 22.02-39.62 35.22-65.4 61-77.35 80.49-72.95 0 0 1.89 2.51 2.51 4.4 3.15 10.08 1.9 13.24-3.13 18.89zM194.51 382.17"/><path d="M218.42 397.89h-1.25c-1.25.63-3.14 1.89-3.14 3.78v3.14c.63 1.89 1.25 3.78 2.51 5.03.63.63 1.25.63 1.89 1.25.63.63 1.89 0 2.51 0 1.89 0 3.78-.63 5.67-1.89 2.51-1.89 2.51-5.03 1.89-7.54-1.91-4.39-6.31-3.14-10.08-3.77M219.04 218.05c1.89 3.14 3.78 5.67 5.03 8.81-1.25-1.89-1.89-4.4-3.14-6.29l3.14 3.14c15.1 14.46 18.24 10.7 20.13 10.7l-6.29-11.32c-1.89 0-4.4 2.51-13.84-5.03-1.89-1.25-3.78-3.14-6.29-5.67-6.92-17.6-9.43-34.59-10.06-42.13-.63-11.95 5.03-18.87 5.03-18.87l-6.29-11.32s-5.67 6.29-5.03 18.87c.63 8.81 4.4 29.56 13.21 50.3-1.25-1.25-2.51-3.14-4.4-4.4-7.55-8.19-16.35-19.51-23.9-32.09 8.81 16.35 20.75 32.7 30.19 42.76 1.25 1.28 1.89 1.9 2.51 2.54"/><path d="M186.34 173.39c-6.92-13.21-12.57-27.05-13.84-38.98-3.14-24.52-9.43-66.03 26.41-93.7 34.59-27.05 57.22-16.98 67.29-10.06.63 6.92-1.89 14.46-5.67 20.13-3.78 6.29-14.46 10.7-14.46 10.7l6.29 11.32c3.14.63 5.03 1.25 6.92 2.51v.63c0 2.51-1.25 5.03-1.89 7.54-4.4 10.06-14.46 17.6-14.46 17.6l6.29 11.32s9.43-6.92 14.46-17.6c1.89-5.03 3.78-10.7.63-15.1l-5.67-10.06c3.14-1.89 6.29-4.4 8.17-7.54 5.03-8.17 8.17-20.13 2.51-27.67l-4.4-8.81c-.63-.63-1.25-2.51-1.25-2.51-.63-.63-1.25-1.89-2.51-2.51-8.81-6.92-32.08-18.87-67.92 8.81s-29.56 69.18-26.41 93.7c.65 15.06 9.45 33.3 19.51 50.28M164.96 272.76c2.51-3.14 1.89-5.67 1.25-8.81-1.25-1.89-3.78-3.78-5.67-4.4-3.14-.63-6.29.63-8.81 2.51-1.25 2.51-1.89 6.92-.63 10.06 1.25 1.25 1.25 3.78 4.4 3.78 3.81 1.88 6.95-1.27 9.46-3.14"/><path d="M369.97 82.2c-.63-1.25-1.25-2.51-1.89-3.78l-6.29-10.7c-3.78-6.29-11.95-11.95-38.98-2.51-23.27 8.17-42.76 31.44-55.33 53.46-5.03 8.81-8.81 16.98-11.32 23.89-9.43 25.78-6.92 49.05-6.92 49.05l6.29 11.32s-2.51-23.27 6.92-49.05c3.78-10.06 10.06-23.27 18.24-35.22 12.57-18.24 28.92-35.84 48.43-42.76 20.13-6.92 29.56-5.67 35.22-1.89l.63.63c1.25 6.29.63 13.21-5.67 16.98-7.54 4.4-44.65 24.52-44.65 24.52l1.25 2.51 5.03 8.81s4.4 2.51 8.17 6.29c0 3.78-1.25 10.06-8.17 14.46-9.43 5.67-15.72 10.06-18.87 11.32-.63.63-1.25.63-1.25.63l6.29 11.32s.63-.63 4.4 1.89c-3.14 16.98-2.51 35.22-22.02 57.22-3.14 3.14-6.29 6.29-9.43 8.17-15.1 11.95-27.05 13.21-37.1 13.21h-.63c-3.78-5.03-8.81-10.7-14.46-18.24-1.89-1.89-3.14-4.4-5.03-6.92 3.14 6.29 6.92 12.57 11.32 17.6 1.89 2.51 3.78 5.03 5.67 7.54-3.78-.63-10.06-1.89-16.98-4.4-16.35-5.03-37.73-12.57-50.94-13.84-20.13-1.25-38.98 0-46.54-1.25-6.92-1.25-12.57-3.14-12.57-3.14s6.29 3.78 8.81 11.32c1.25.63 5.03 1.89 10.06 3.14 6.92 1.25 26.41 0 46.54 1.25 11.95.63 29.56 6.92 44.65 11.32 10.06 3.14 19.49 6.29 24.52 6.29h1.89c2.51 3.14 4.4 5.67 6.29 7.54a930.18 930.18 0 0 0-5.67 3.78c-12.57 10.7-18.87 18.87-22.02 27.67 0 .63-.63 1.25-.63 1.89h-3.78c-5.03.63-10.7 1.25-16.35 3.14-.63-1.25-1.25-2.51-1.89-3.78l-5.67-10.06c-.63-1.89-1.89-3.14-3.78-5.03 3.78-2.51 6.92-5.67 9.43-8.81 5.03-5.67 6.92-10.06 4.4-13.84l-5.67-10.06c0-.63-.63-1.25-1.25-1.89-3.14-3.78-11.32-1.89-11.32-1.89l6.29 11.32s1.89-.63 4.4-.63c-1.25 1.89-2.51 3.14-3.78 5.03-7.54 8.81-23.27 16.98-23.27 16.98l6.29 11.32s11.95-2.51 18.24 1.25l.63.63c0 2.51-1.25 5.03-3.14 8.17-3.14 3.78-6.92 6.92-10.7 9.43-6.92 4.4-13.21 8.17-13.21 8.17l6.29 11.32s11.95-6.92 10.06-5.67c5.03-2.51 10.7-5.67 17.6-8.81 5.03-2.51 10.7-4.4 16.35-5.03.63 0 1.25 0 2.51-.63 0 3.14.63 5.67 2.51 8.17l6.29 11.32c1.25 2.51 3.78 5.03 6.92 6.29 10.7 5.03 16.98-2.51 18.24-9.43.63-3.14 0-6.29-1.89-8.81l-6.29-10.7c-1.89-3.14-5.67-5.67-10.06-6.92-.63 0-1.89-.63-2.51-.63 3.78-5.67 9.43-11.95 18.24-18.87 2.51-1.89 5.67-3.78 8.17-5.03l-6.29-11.32-6.29-6.29c8.17 0 16.98-1.25 27.67-8.17 5.03-3.14 10.7-6.29 16.35-11.32 23.27-17.6 25.16-44.02 26.41-53.46.63-6.29-6.92-22.02-7.54-22.64 3.14-1.89 5.67-4.4 10.7-7.54h.63c11.95-7.54 7.54-19.49 7.54-19.49 0-.63-.63-.63-.63-1.25L327.79 128c-.63-.63-1.25-1.89-1.89-2.51 3.14-1.89 7.54-3.78 11.95-6.29 10.7-5.67 23.89-13.21 27.67-15.72 8.22-4.93 7.6-13.72 4.45-21.28M248.59 317.4c1.89.63 3.78 1.25 5.03 2.51v1.89c-1.25 6.92-6.92 15.1-18.24 9.43-.63-.63-1.89-.63-2.51-1.25-.63-4.4 0-9.43 1.25-13.84 5.68-.62 10.71 0 14.47 1.26z"/></svg>
