<svg xmlns="http://www.w3.org/2000/svg" viewBox="0 0 1200 600"><path fill="#535e69" d="M847.3 275.4c-12.9 0-25.7-.1-38.6.1-3.4 0-4.2-.8-4-4.3 2.1-44 .7-88.1.8-132.2 0-3.8-.4-7.5-.8-11.3-.3-2.5.1-3.7 3.1-3.7 25.4.1 50.8.1 76.1 0 2.5 0 3.2 1 3.2 3.3-.2 5 1.7 11.2-.7 14.5-2.3 3.3-8.8.4-13.5.5-12.5.2-25 .1-37.5-.1-3.3-.1-4.8.5-4.8 4.4.3 12 .2 24 0 36-.1 3.5 1.1 4.3 4.4 4.2 14.4-.2 28.8-.1 43.2-.4 3.6-.1 4.9.8 4.6 4.5-.4 4.7 1.9 10.9-.9 13.9-2.6 2.7-8.7.2-13.3.3-11.3.1-22.6.1-33.9-.1-3.1-.1-4.1.9-4.1 4.1.2 14.4.2 28.8 0 43.2 0 3.3.9 4.4 4.3 4.3 17.5-.5 35 .8 52.4-.8 2.3-.2 3.1.4 3 2.7-.1 4.5-.2 8.9 0 13.4.2 3.2-1.3 3.5-4 3.5-12.9-.1-26 0-39 0zM841.7 384.6c-.6-24.2.9-48.4-1.2-72.5-.2-2.3.3-3 2.6-3 25.5.1 51.1.1 76.6 0 2.5 0 3.1 1 3.2 3.3.9 15.8 1 15.6-14.6 15-12.7-.4-25.4-.2-38.1-.4-2.9-.1-3.8.9-3.8 3.8.1 12.3.2 24.7 0 37-.1 3.6 1.4 4.2 4.5 4.1 14.7-.4 29.5.6 44.2-.7 2.6-.2 3.4.7 3.3 3.1-.1 3.9-.2 7.9 0 11.8.3 3.6-.9 4.7-4.6 4.4-14-1-28.1-.5-42.2-.8-4.4-.1-5.4 1.4-5.3 5.5.3 13.5.3 27.1 0 40.6-.1 4.8 1.4 5.6 5.8 5.5 17.1-.4 34.3.5 51.4-.7 2.2-.1 2.7.4 2.6 2.4-.1 4.8-.1 9.6 0 14.4.1 2.4-1.1 2.8-3.2 2.8-26.6 0-53.2-.1-79.7 0-2.7 0-3-1-2.8-3.4 2.1-23.9.7-48 1.3-72.2zM639.7 385.7c-.1-13.6 1.3-25.6 5.4-37.2 9.2-26.5 29.2-41.7 57.2-43.2 14.3-.8 28.4.6 42.2 4.7 2.7.8 3.7 1.5 2.7 4.4-1.3 4.2-2.4 8.6-3.2 12.9-.6 3.1-1.7 3.2-4.5 2.1-11.2-4.7-23-6.7-35.2-5.9-14.4 1-25.4 7.9-31.1 21-10.8 24.9-11.1 50.4-.8 75.5 8.7 21.3 25.6 28.1 47.3 20.4 9.1-3.2 17.6-7.8 24.9-14.1 3.2-2.8 4.8-2.3 6.8 1.1 1.8 3.1 4 6 6.1 8.9 1.1 1.4 1.5 2.4-.3 3.7-16.2 12.3-33.5 22.1-54.4 23.4-24.2 1.6-44.1-10.8-54.7-34.1-6.3-14.2-8.5-29.4-8.4-43.6zM398.3 436.8c12.4 6.2 24.8 9 38.2 7.5 12.9-1.5 22.2-9.3 23.8-20.5 1.1-8-1.8-14.4-7.8-19.6-7.7-6.8-16.8-11.1-25.6-16.1-5.6-3.3-11.1-6.8-16.4-10.6-23.9-17.5-18-52.7 4.2-65 19-10.5 38.6-8.2 58.4-3 2.3.6 1.7 2.1 1.3 3.6-1.1 4.3-2.3 8.6-3.1 13-.5 3.1-1.8 3-4.2 2-8.6-3.8-17.6-5.5-27.1-4.3-13.2 1.7-21.3 11.5-19.5 23.6.9 5.8 4.8 9.3 9.1 12.5 6.9 5.2 14.5 9.1 22 13.2 5.8 3.3 11.5 6.8 16.8 10.8 29.6 21.8 16.7 64.4-10.2 75-16.2 6.4-32.5 5.5-49.1 2.4-4-.7-7.9-2.2-11.9-3.1-3.2-.7-4.3-2-3.3-5.3 1.8-5.2 2.9-10.3 4.4-16.1zM1057.2 309.2c10.6 0 20.5.1 30.4 0 2.3 0 2.6 1.4 3.5 3 10.1 18.4 20.4 36.8 30.9 55.9 1.3-2.1 2.3-3.6 3.2-5.1 9.5-17 20.1-33.5 28.6-51.1.7-1.5 1.3-2.6 3.3-2.6 9.6.1 19.1 0 29.1 0-18.8 24.9-33.1 52-49.6 77.8-1.8 2.9-2.7 5.7-2.6 9.1.5 20.6-.9 41.2 1.1 61.7.2 2.3-.7 2.6-2.5 2.6-7.4 0-14.8-.1-22.1 0-2.4 0-2.9-1-2.6-3.1 2-20.7.5-41.5 1-62.2.1-2.3-.3-4.3-1.5-6.3-14.6-23.6-29.1-47.3-43.7-70.9-2.1-2.9-4.1-5.4-6.5-8.8zM1006.5 391.1v39.1c0 8.7-.4 17.5.9 26.2.4 2.6.1 4.2-3.2 4.1-7-.2-14.1-.1-21.1 0-2.1 0-3-.3-2.7-2.9 1.3-13.3 1.1-26.7 1.1-40.1 0-28.3-.1-56.6.1-84.9 0-4.7-1.4-5.8-5.8-5.6-10.8.5-21.6.4-32.4.8-3.3.1-5.2-.3-4.7-4.2.5-4.6-1.8-10.5.9-13.4 2.8-3 8.7-.9 13.3-.9 30.4-.1 60.7 0 91.1-.1 3.8 0 5.7.7 5.2 5-.5 4.4 1.8 10.1-.9 12.9-2.7 2.8-8.4.5-12.8.5-7.9 0-15.8.1-23.7-.4-4.5-.3-5.3 1.4-5.2 5.5 0 19.3-.1 38.9-.1 58.4zM747.8 275.4c-12 0-24-.1-36 .1-3.4.1-4-1-3.6-4.1.6-4.7.8-9.6.8-14.4.1-38.2 0-76.5 0-114.7 0-3.9-.1-7.9-.5-11.8-.6-6.4-.7-6.4 5.5-6.4h18.5c2 0 3.3.2 2.9 2.8-1.6 11.1-.9 22.2-1 33.4-.1 30.5 0 61-.1 91.6 0 3.7.8 5.1 4.8 4.9 15.1-.5 30.2.6 45.2-.8 2.3-.2 3 .5 3 2.7-.1 4.3-.3 8.6 0 12.9.2 3.4-1.2 3.9-4.1 3.9-11.7-.2-23.5-.1-35.4-.1zM805 384.6c.6 24.3-.9 48.7 1.1 73 .2 2.5-.6 2.9-2.8 2.9-7-.1-14.1-.1-21.1 0-2.8.1-3.4-1-3.2-3.6 2.2-41.3.5-82.6 1-123.9.1-6.7 0-13.4-1-20-.4-2.8.3-4 3.4-3.9 6.8.2 13.7.1 20.6 0 2.1 0 3.3-.1 3.1 2.9-2 24.2-.6 48.4-1.1 72.6zM550.5 195.3c.7 25.5-.9 51.1 1.1 76.6.2 2.7-.4 3.6-3.2 3.5-6.9-.2-13.7-.2-20.6 0-2.8.1-3.3-.9-3.2-3.6 2.1-43 .6-86 .9-129.1 0-5.1-.5-10.3-.9-15.4-.2-2.4.4-3.4 3-3.4 7 .1 14.1.1 21.1 0 2.6 0 3.1 1 2.9 3.4-1.9 22.7-.5 45.4-1.1 68zM497.6 220.6c-4.4-15.8-16.2-22.5-32.7-24.9 2.9-.9 4.7-1.5 6.4-2.1 10.9-4.2 18.6-11.5 21.6-23 5.6-21.5-7.5-40.7-30.3-44.5-16.7-2.8-33.5-1.8-50.3-1.9-3.2 0-7.3-1.4-9.3.8-1.3 1.5.3 5.5.3 8.4.2 46.5 1.4 92.9-.7 139.3-.1 2 .3 2.8 2.4 2.8 19.3-.5 38.8 1.5 58-1.2 26-3.9 41.7-28.3 34.6-53.7zm-66.4-78.9c2 .1 4.1 0 7.3 0 4.1.2 9.4.3 14.6 1.6 10.1 2.6 15.1 8 15.9 17.5.9 11.1-3.5 19.6-12.6 23.6-8.4 3.7-17.4 3.2-26.3 3.2-2.3 0-2.2-1.6-2.2-3.2 0-13.2.1-26.4 0-39.5 0-2.6.9-3.4 3.3-3.2zm25.1 113.1c-8.6 2.6-17.3 1.7-26 1.9-2.8.1-2.3-1.9-2.3-3.5v-22.6V208c0-1.9 0-3.4 2.6-3.3 8.9.1 17.8-.2 26.5 2.7 11.4 3.7 16.6 11.6 16.4 24.8-.3 11.8-5.9 19.2-17.2 22.6zM677.8 212.2c-6.3-10.5-16.4-14.6-29-16.5 3.3-1.2 5.6-1.8 7.8-2.8 9.5-4 16.3-10.6 19.5-20.6 6.9-21.7-6.2-42.3-29.5-46.3-19.1-3.2-38.3-1.6-57.5-2-2.4 0-2.9 1-2.7 3.1.4 4.4 1 8.9.9 13.3-.3 43.7 1.3 87.5-.9 131.2-.1 2.9.5 3.8 3.5 3.8 15.9-.2 31.9.1 47.8-.3 10.1-.2 19.6-2.7 28.1-8.6 16.5-11.4 22.2-37.2 12-54.3zm-63.4-70.5c7.5.1 15.1-.2 22.5 1.6 10.4 2.5 15.1 7.8 15.8 17.4.9 11.8-3.4 19.9-12.9 23.9-8.3 3.5-17.1 3-25.8 3-2.6 0-2.4-1.9-2.4-3.6v-19.5-19c-.1-2-.1-3.8 2.8-3.8zm25.2 113.2c-8.4 2.4-17 1.6-25.5 1.7-3.1 0-2.5-2.2-2.5-4v-22.1-22.1c0-1.9-.1-3.9 2.7-3.8 8.9 0 17.8-.2 26.5 2.6 11.1 3.6 16.8 12 16.5 24.3-.3 12.5-6.1 20.1-17.7 23.4zM615.9 338c-5.5-13.4-15.4-23.4-29.2-28.9-29.8-11.9-63.4 1.3-78.3 30.8-7.3 14.4-9.9 29.8-9.7 46.3-.2 10.1.8 20.7 3.5 31 5.4 20.5 16 36.8 37.3 43.4 31.4 9.8 62.9-3.8 76.1-33.8 13.1-29.3 12.4-59.3.3-88.8zm-24.3 84.1c-8.3 18.6-25.5 26.7-42.6 19.9-12.6-5-17.8-15.9-21.1-28-2.7-9.6-3.5-19.5-3.3-28.7-.2-14.5 1.4-27.9 7.5-40.3 5-10.3 12.4-18.1 24.2-20.4 14.3-2.8 26.1 2.6 33.5 15.2 5.4 9.2 7.7 19.4 8.6 29.8 1.4 18 .7 35.7-6.8 52.5z"/><path d="M304.2 316.3c-8.4-10.9-19.2-18.4-32.6-23.1.9-1 1.2-1.4 1.6-1.7 28.6-25.8 40.4-57.8 32.5-95.4-8.7-41.2-33.8-68.9-74.7-81-18.2-5.4-37.2-6-56.1-6.1-49.7-.1-99.5.1-149.2-.1-4.6 0-5.6 1.3-5.6 5.7.2 46 .1 91.9.1 137.9 0 73.3.1 146.5-.1 219.8 0 5 1.4 6.2 6.3 6.1 20.8-.3 41.5.1 62.3-.2 36.3-.4 72.7 1.7 109-1.9 23.5-2.3 46.4-7.4 67.5-18.4 34.4-18.1 54.2-46 55.5-85.6.5-20.2-3.8-39.4-16.5-56zM172.1 442.5c-27.9.6-55.9.4-83.8.8-3.9.1-4.8-1.1-4.8-4.9.1-96.5.1-193.1 0-289.6 0-4.1 1.1-5.1 5.1-5 26.9.2 53.8 0 80.8.1 37.2.3 68.5 25.3 75.9 60.3 7.7 36.8-10 71.7-44.3 87.6-.7.3-1.4.8-3 1.6 22.1 9.7 37.1 24.9 44.9 46.8 17.1 48.9-18.9 101.2-70.8 102.3z" fill="#00a0c7"/></svg>
