<svg xmlns="http://www.w3.org/2000/svg" viewBox="0 0 600 600"><path d="M567 595H35c-16 0-29-13.1-29-29V34C6 18 19.1 5 35 5h532c16 0 29 13.1 29 29v532c0 15.9-13.1 29-29 29z" fill="#00a0c7"/><path d="M511.4 335.1c-12.5-16.3-28.7-27.6-48.8-34.6 1.3-1.4 1.8-2.1 2.3-2.6 42.8-38.6 60.5-86.6 48.6-142.9-13-61.7-50.5-103.2-111.8-121.2-27.3-8.1-55.7-9-83.9-9.1-74.5-.2-149 .1-223.5-.2-6.9 0-8.5 1.9-8.4 8.6.2 68.8.2 137.7.2 206.5 0 109.7.1 219.4-.2 329.1 0 7.5 2.1 9.3 9.4 9.2 31.1-.4 62.2.1 93.2-.2 54.4-.7 108.9 2.5 163.3-2.8 35.2-3.4 69.5-11 101-27.6 51.5-27.1 81.1-69 83.1-128.1 1-30.6-5.5-59.3-24.5-84.1zm-197.8 189c-41.8.9-83.7.6-125.5 1.2-5.9.1-7.2-1.7-7.2-7.3.2-144.6.2-289.1 0-433.7 0-6.1 1.7-7.6 7.6-7.5 40.3.3 80.6-.1 120.9.2 55.7.4 102.6 37.9 113.6 90.3 11.5 55.1-15 107.4-66.4 131.1-1.1.5-2.1 1.1-4.4 2.4 33.1 14.5 55.6 37.3 67.2 70 25.9 73.3-28 151.6-105.8 153.3z" fill="#fff"/></svg>
