<svg xmlns="http://www.w3.org/2000/svg" viewBox="0 0 1200 600"><g id="Layer_7"><radialGradient id="SVGID_1_" cx="316.556" cy="279.76" r="205.494" gradientTransform="matrix(1.2633 -.01458 .00875 .7578 -120.458 74.347)" gradientUnits="userSpaceOnUse"><stop offset="0"/><stop offset="1" stop-color="#020202" stop-opacity="0"/></radialGradient><path d="M596.7 278.1c1 82.6-139.2 151.2-313 153.2S-31.8 368-32.8 285.4c-1-82.6 139.2-151.2 313-153.2s315.5 63.3 316.5 145.9z" fill="url(#SVGID_1_)"/><ellipse fill="#fff" stroke="#fff" stroke-miterlimit="10" cx="278.6" cy="281.8" rx="236.4" ry="141.9"/><path d="M276.2 138.8c-5.7 0-5.7-.1-11.3.1l-1.5 6.3s-21.5 67-25.2 138.8S255 413.7 255 413.7l2.7 8.5c9.1.6 9.2.3 18.6.3 128.9 0 233.5-63.5 233.5-141.9S405.1 138.8 276.2 138.8z" fill="#494991" stroke="#fff" stroke-miterlimit="10"/><path fill="none" d="M551.3 166.9H1178v253.8H551.3z"/><path fill="#494991" d="M580.5 175.5h-10.2v29.2h-8.1v-29.2h-10.1V169h28.4v6.5zM617.5 204.7h-8.1v-14.6h-14.8v14.6h-8.1V169h8.1v14.3h14.8V169h8.1v35.7zM648.4 204.7H627V169h20.6v6.6H635v8h11.7v6.5H635v8.2h13.4v6.4zM696.4 203.4c-2.6 1.3-6 1.9-10.2 1.9-5.5 0-9.8-1.6-12.9-4.8-3.1-3.2-4.7-7.5-4.7-12.9 0-5.7 1.8-10.4 5.3-13.9 3.5-3.6 8.1-5.3 13.7-5.3 3.5 0 6.4.4 8.8 1.3v7.8c-2.4-1.4-5.1-2.1-8.2-2.1-3.4 0-6.1 1.1-8.1 3.2-2.1 2.1-3.1 5-3.1 8.6 0 3.5 1 6.2 2.9 8.3s4.6 3.1 7.9 3.1c3.1 0 6-.8 8.6-2.3v7.1zM735.3 204.7h-8.8l-2.5-8h-12.7l-2.5 8h-8.7l13-35.7h9.5l12.7 35.7zm-13.1-14.1l-3.8-12c-.3-.9-.5-2-.6-3.2h-.2c-.1 1-.3 2.1-.6 3.1l-3.9 12.1h9.1zM766.2 175.5H756v29.2h-8.1v-29.2h-10.1V169h28.4v6.5zM803.2 204.7h-8.1v-14.6h-14.8v14.6h-8.1V169h8.1v14.3h14.8V169h8.1v35.7zM827.7 205.3c-5.1 0-9.3-1.7-12.5-5-3.2-3.3-4.8-7.7-4.8-13 0-5.6 1.6-10.2 4.9-13.7s7.6-5.2 13-5.2c5.1 0 9.2 1.7 12.4 5 3.1 3.3 4.7 7.7 4.7 13.2 0 5.6-1.6 10.1-4.9 13.6-3.2 3.4-7.5 5.1-12.8 5.1zm.4-30c-2.8 0-5.1 1.1-6.7 3.2-1.7 2.1-2.5 4.9-2.5 8.4s.8 6.3 2.5 8.4c1.7 2.1 3.8 3.1 6.5 3.1 2.8 0 5-1 6.6-3s2.4-4.8 2.4-8.3c0-3.7-.8-6.6-2.4-8.6-1.5-2.2-3.7-3.2-6.4-3.2zM873.9 204.7h-21.3V169h8.1v29.2h13.2v6.5zM891 169v6.2h-3v23.3h3v6.2h-14v-6.2h3v-23.3h-3V169h14zM923.1 203.4c-2.6 1.3-6 1.9-10.2 1.9-5.5 0-9.8-1.6-12.9-4.8-3.1-3.2-4.7-7.5-4.7-12.9 0-5.7 1.8-10.4 5.3-13.9 3.5-3.6 8.1-5.3 13.7-5.3 3.5 0 6.4.4 8.8 1.3v7.8c-2.4-1.4-5.1-2.1-8.2-2.1-3.4 0-6.1 1.1-8.1 3.2-2.1 2.1-3.1 5-3.1 8.6 0 3.5 1 6.2 2.9 8.3s4.6 3.1 7.9 3.1c3.1 0 6-.8 8.6-2.3v7.1zM555.4 266v-35.7h13c4 0 7.1.7 9.2 2.2 2.1 1.5 3.2 3.5 3.2 6.2 0 1.9-.7 3.6-2 5.1-1.3 1.4-3 2.5-5 3v.1c2.5.3 4.6 1.3 6.1 2.8 1.5 1.6 2.3 3.5 2.3 5.7 0 3.3-1.2 5.9-3.5 7.8s-5.5 2.9-9.6 2.9h-13.7zm8-29.8v8.5h3.5c1.7 0 3-.4 3.9-1.2 1-.8 1.4-1.9 1.4-3.3 0-2.6-2-3.9-5.9-3.9h-2.9zm0 14.4v9.4h4.4c1.9 0 3.3-.4 4.4-1.3 1.1-.9 1.6-2 1.6-3.5 0-1.4-.5-2.6-1.6-3.4-1-.8-2.5-1.2-4.3-1.2h-4.5zM600.4 230.2v6.2h-3v23.3h3v6.2h-14v-6.2h3v-23.3h-3v-6.2h14zM605.2 264.6v-8c1.4 1.2 3 2.1 4.7 2.7 1.7.6 3.4.9 5.1.9 1 0 1.9-.1 2.7-.3.8-.2 1.4-.4 1.9-.8.5-.3.9-.7 1.1-1.1.2-.4.4-.9.4-1.4 0-.7-.2-1.3-.6-1.9-.4-.5-.9-1.1-1.6-1.5-.7-.5-1.5-.9-2.5-1.3-.9-.4-2-.9-3.1-1.3-2.8-1.2-4.9-2.6-6.2-4.3s-2.1-3.7-2.1-6.1c0-1.9.4-3.5 1.1-4.8.7-1.3 1.8-2.4 3.1-3.3 1.3-.9 2.8-1.5 4.5-1.9 1.7-.4 3.5-.6 5.4-.6 1.9 0 3.5.1 4.9.3 1.4.2 2.8.6 4 1v7.5c-.6-.4-1.3-.8-2-1.1-.7-.3-1.4-.6-2.2-.8-.7-.2-1.5-.4-2.2-.5s-1.4-.1-2.1-.1c-.9 0-1.7.1-2.5.3s-1.4.4-1.9.7c-.5.3-.9.7-1.2 1.1s-.4.9-.4 1.5.2 1.1.5 1.6.8.9 1.3 1.3c.6.4 1.3.8 2.1 1.2.8.4 1.8.8 2.8 1.3 1.4.6 2.7 1.2 3.9 1.9 1.1.7 2.1 1.4 2.9 2.3.8.8 1.4 1.8 1.9 2.9.4 1.1.6 2.4.6 3.8 0 2-.4 3.7-1.1 5-.8 1.4-1.8 2.5-3.1 3.3-1.3.8-2.8 1.4-4.5 1.8-1.7.4-3.5.5-5.4.5-2 0-3.8-.2-5.6-.5-1.8-.1-3.3-.6-4.6-1.3zM667.7 266h-8.1v-14.6h-14.8V266h-8.1v-35.7h8.1v14.3h14.8v-14.3h8.1V266zM692.2 266.6c-5.1 0-9.3-1.7-12.5-5-3.2-3.3-4.8-7.7-4.8-13 0-5.6 1.6-10.2 4.9-13.7s7.6-5.2 13-5.2c5.1 0 9.2 1.7 12.4 5 3.1 3.3 4.7 7.7 4.7 13.2 0 5.6-1.6 10.1-4.9 13.6-3.3 3.4-7.5 5.1-12.8 5.1zm.4-30c-2.8 0-5.1 1.1-6.7 3.2-1.7 2.1-2.5 4.9-2.5 8.4s.8 6.3 2.5 8.4c1.7 2.1 3.8 3.1 6.5 3.1 2.8 0 5-1 6.6-3s2.4-4.8 2.4-8.3c0-3.7-.8-6.6-2.4-8.6-1.5-2.2-3.7-3.2-6.4-3.2zM725.2 253.7V266h-8.1v-35.7h12.6c9 0 13.5 3.8 13.5 11.4 0 3.6-1.3 6.5-3.9 8.7-2.6 2.2-6 3.3-10.4 3.3h-3.7zm0-17.3v11.1h3.2c4.3 0 6.4-1.9 6.4-5.6 0-3.7-2.1-5.5-6.4-5.5h-3.2zM748.1 264.6v-8c1.4 1.2 3 2.1 4.7 2.7 1.7.6 3.4.9 5.1.9 1 0 1.9-.1 2.7-.3.8-.2 1.4-.4 1.9-.8.5-.3.9-.7 1.1-1.1.2-.4.4-.9.4-1.4 0-.7-.2-1.3-.6-1.9-.4-.5-.9-1.1-1.6-1.5-.7-.5-1.5-.9-2.5-1.3-.9-.4-2-.9-3.1-1.3-2.8-1.2-4.9-2.6-6.2-4.3s-2.1-3.7-2.1-6.1c0-1.9.4-3.5 1.1-4.8.7-1.3 1.8-2.4 3.1-3.3 1.3-.9 2.8-1.5 4.5-1.9 1.7-.4 3.5-.6 5.4-.6 1.9 0 3.5.1 4.9.3 1.4.2 2.8.6 4 1v7.5c-.6-.4-1.3-.8-2-1.1-.7-.3-1.4-.6-2.2-.8-.7-.2-1.5-.4-2.2-.5s-1.4-.1-2.1-.1c-.9 0-1.7.1-2.5.3s-1.4.4-1.9.7c-.5.3-.9.7-1.2 1.1s-.4.9-.4 1.5.2 1.1.5 1.6.8.9 1.3 1.3c.6.4 1.3.8 2.1 1.2.8.4 1.8.8 2.8 1.3 1.4.6 2.7 1.2 3.9 1.9 1.1.7 2.1 1.4 2.9 2.3.8.8 1.4 1.8 1.9 2.9.4 1.1.6 2.4.6 3.8 0 2-.4 3.7-1.1 5-.8 1.4-1.8 2.5-3.1 3.3-1.3.8-2.8 1.4-4.5 1.8-1.7.4-3.5.5-5.4.5-2 0-3.8-.2-5.6-.5-1.8-.1-3.3-.6-4.6-1.3zM788 229.4l-4.8 11.1h-4.8l2.8-11.1h6.8zM836.7 264.7c-2.6 1.3-6 1.9-10.2 1.9-5.5 0-9.8-1.6-12.9-4.8-3.1-3.2-4.7-7.5-4.7-12.9 0-5.7 1.8-10.4 5.3-13.9 3.5-3.6 8.1-5.3 13.7-5.3 3.5 0 6.4.4 8.8 1.3v7.8c-2.4-1.4-5.1-2.1-8.2-2.1-3.4 0-6.1 1.1-8.1 3.2-2.1 2.1-3.1 5-3.1 8.6 0 3.5 1 6.2 2.9 8.3s4.6 3.1 7.9 3.1c3.1 0 6-.8 8.6-2.3v7.1zM859.3 266.6c-5.1 0-9.3-1.7-12.5-5-3.2-3.3-4.8-7.7-4.8-13 0-5.6 1.6-10.2 4.9-13.7s7.6-5.2 13-5.2c5.1 0 9.2 1.7 12.4 5 3.1 3.3 4.7 7.7 4.7 13.2 0 5.6-1.6 10.1-4.9 13.6-3.3 3.4-7.5 5.1-12.8 5.1zm.4-30c-2.8 0-5.1 1.1-6.7 3.2-1.7 2.1-2.5 4.9-2.5 8.4s.8 6.3 2.5 8.4c1.7 2.1 3.8 3.1 6.5 3.1 2.8 0 5-1 6.6-3s2.4-4.8 2.4-8.3c0-3.7-.8-6.6-2.4-8.6-1.5-2.2-3.7-3.2-6.4-3.2zM916.3 266h-8.1l-14.7-22.5c-.9-1.3-1.5-2.3-1.8-3h-.1c.1 1.3.2 3.2.2 5.8V266h-7.6v-35.7h8.7l14.2 21.8c.6 1 1.2 2 1.8 2.9h.1c-.1-.8-.2-2.5-.2-4.9v-19.8h7.6V266zM946.5 236.8h-12.6v8.8h11.6v6.5h-11.6V266h-8.1v-35.7h20.7v6.5zM975.1 266h-21.4v-35.7h20.6v6.6h-12.6v8h11.7v6.5h-11.7v8.2h13.4v6.4zM1012.1 266h-9.2l-5.6-9.2c-.4-.7-.8-1.3-1.2-1.9-.4-.5-.8-1-1.2-1.4-.4-.4-.8-.7-1.2-.9-.4-.2-.9-.3-1.4-.3h-2.2V266H982v-35.7h12.8c8.7 0 13 3.2 13 9.7a10.3 10.3 0 0 1-2.2 6.4c-.7.8-1.5 1.6-2.5 2.2-1 .6-2.1 1.1-3.3 1.4v.1c.5.2 1 .4 1.5.8s1 .8 1.4 1.3c.5.5.9 1 1.3 1.6s.8 1.1 1.2 1.7l6.9 10.5zm-22-29.7v9.9h3.5c1.7 0 3.1-.5 4.2-1.5s1.6-2.3 1.6-3.8c0-3.1-1.9-4.7-5.6-4.7h-3.7zM1038.1 266h-21.4v-35.7h20.6v6.6h-12.6v8h11.7v6.5h-11.7v8.2h13.4v6.4zM1077.3 266h-8.1l-14.7-22.5c-.9-1.3-1.5-2.3-1.8-3h-.1c.1 1.3.2 3.2.2 5.8V266h-7.6v-35.7h8.7L1068 252c.6 1 1.2 2 1.8 2.9h.1c-.1-.8-.2-2.5-.2-4.9v-19.8h7.6V266zM1112.3 264.7c-2.6 1.3-6 1.9-10.2 1.9-5.5 0-9.8-1.6-12.9-4.8-3.1-3.2-4.7-7.5-4.7-12.9 0-5.7 1.8-10.4 5.3-13.9 3.5-3.6 8.1-5.3 13.7-5.3 3.5 0 6.4.4 8.8 1.3v7.8c-2.4-1.4-5.1-2.1-8.2-2.1-3.4 0-6.1 1.1-8.1 3.2-2.1 2.1-3.1 5-3.1 8.6 0 3.5 1 6.2 2.9 8.3s4.6 3.1 7.9 3.1c3.1 0 6-.8 8.6-2.3v7.1zM1141.3 266h-21.4v-35.7h20.6v6.6h-12.6v8h11.7v6.5h-11.7v8.2h13.4v6.4zM570.5 327.9c-5.1 0-9.3-1.7-12.5-5-3.2-3.3-4.8-7.7-4.8-13 0-5.6 1.6-10.2 4.9-13.7 3.3-3.5 7.6-5.2 13-5.2 5.1 0 9.2 1.7 12.4 5 3.1 3.3 4.7 7.7 4.7 13.2 0 5.6-1.6 10.1-4.9 13.6-3.3 3.3-7.5 5.1-12.8 5.1zm.4-30.1c-2.8 0-5.1 1.1-6.7 3.2-1.7 2.1-2.5 4.9-2.5 8.4s.8 6.3 2.5 8.4c1.7 2.1 3.8 3.1 6.5 3.1 2.8 0 5-1 6.6-3 1.6-2 2.4-4.8 2.4-8.3 0-3.7-.8-6.6-2.4-8.6-1.5-2.1-3.7-3.2-6.4-3.2zM616 298h-12.6v8.8H615v6.5h-11.6v13.9h-8.1v-35.7H616v6.5zM638.6 327.2v-35.7h13c4 0 7.1.7 9.2 2.2 2.1 1.5 3.2 3.5 3.2 6.2 0 1.9-.7 3.6-2 5.1-1.3 1.4-3 2.5-5 3v.1c2.5.3 4.6 1.3 6.1 2.8 1.5 1.6 2.3 3.5 2.3 5.7 0 3.3-1.2 5.9-3.5 7.8s-5.5 2.9-9.6 2.9h-13.7zm8-29.8v8.5h3.5c1.7 0 3-.4 3.9-1.2 1-.8 1.4-1.9 1.4-3.3 0-2.6-2-3.9-5.9-3.9h-2.9zm0 14.5v9.4h4.4c1.9 0 3.3-.4 4.4-1.3 1.1-.9 1.6-2 1.6-3.5 0-1.4-.5-2.6-1.6-3.4-1-.8-2.5-1.2-4.3-1.2h-4.5zM704 327.2h-8.8l-2.5-8H680l-2.5 8h-8.7l13-35.7h9.5l12.7 35.7zm-13.2-14.1l-3.8-12c-.3-.9-.5-2-.6-3.2h-.2c-.1 1-.3 2.1-.6 3.1l-3.9 12.1h9.1zM741.9 327.2h-8.1L719 304.8c-.9-1.3-1.5-2.3-1.8-3h-.1c.1 1.3.2 3.2.2 5.8v19.6h-7.6v-35.7h8.7l14.2 21.8c.6 1 1.2 2 1.8 2.9h.1c-.1-.8-.2-2.5-.2-4.9v-19.8h7.6v35.7zM780.7 324.8c-3.5 2-7.8 3-13 3-5.8 0-10.3-1.6-13.6-4.8-3.3-3.2-5-7.6-5-13.1 0-5.6 1.8-10.2 5.4-13.7 3.6-3.5 8.4-5.3 14.5-5.3 3.8 0 7.1.5 10 1.6v7.6c-2.8-1.6-6.1-2.4-10.1-2.4-3.3 0-6.1 1.1-8.2 3.3-2.1 2.2-3.2 5.1-3.2 8.7 0 3.7.9 6.5 2.8 8.5s4.4 3 7.6 3c1.9 0 3.5-.3 4.6-.8v-7h-7.2V307h15.2v17.8zM810.2 327.2h-21.3v-35.7h8.1v29.2h13.2v6.5zM847.7 327.2h-8.8l-2.5-8h-12.7l-2.5 8h-8.7l13-35.7h9.5l12.7 35.7zm-13.1-14.1l-3.8-12c-.3-.9-.5-2-.6-3.2h-.2c-.1 1-.3 2.1-.6 3.1l-3.9 12.1h9.1zM853.5 327.2v-35.7h12.7c12.7 0 19 5.8 19 17.4 0 5.6-1.7 10-5.2 13.3-3.5 3.3-8.1 5-13.8 5h-12.7zm8-29.2v22.7h4c3.5 0 6.2-1 8.2-3.1 2-2.1 3-4.9 3-8.5 0-3.4-1-6.1-3-8-2-2-4.7-2.9-8.3-2.9h-3.9zM913.8 327.2h-21.4v-35.7H913v6.6h-12.6v8h11.7v6.5h-11.7v8.2h13.4v6.4zM919.2 325.9v-8c1.4 1.2 3 2.1 4.7 2.7 1.7.6 3.4.9 5.1.9 1 0 1.9-.1 2.7-.3.8-.2 1.4-.4 1.9-.8s.9-.7 1.1-1.1c.2-.4.4-.9.4-1.4 0-.7-.2-1.3-.6-1.9-.4-.5-.9-1.1-1.6-1.5-.7-.5-1.5-.9-2.5-1.3-.9-.4-2-.9-3.1-1.3-2.8-1.2-4.9-2.6-6.2-4.3-1.4-1.7-2.1-3.7-2.1-6.1 0-1.9.4-3.5 1.1-4.8.7-1.3 1.8-2.4 3.1-3.3 1.3-.9 2.8-1.5 4.5-1.9 1.7-.4 3.5-.6 5.4-.6 1.9 0 3.5.1 4.9.3 1.4.2 2.8.6 4 1v7.5c-.6-.4-1.3-.8-2-1.1-.7-.3-1.4-.6-2.2-.8-.7-.2-1.5-.4-2.2-.5s-1.4-.1-2.1-.1c-.9 0-1.7.1-2.5.3s-1.4.4-1.9.7c-.5.3-.9.7-1.2 1.1s-.4.9-.4 1.5.2 1.1.5 1.6.8.9 1.3 1.3c.6.4 1.3.8 2.1 1.2s1.8.8 2.8 1.3c1.4.6 2.7 1.2 3.9 1.9 1.1.7 2.1 1.4 2.9 2.3.8.8 1.4 1.8 1.9 2.9.4 1.1.6 2.4.6 3.8 0 2-.4 3.7-1.1 5s-1.8 2.5-3.1 3.3c-1.3.8-2.8 1.4-4.5 1.8-1.7.4-3.5.5-5.4.5-2 0-3.8-.2-5.6-.5-1.8-.2-3.3-.7-4.6-1.3zM981.6 327.2h-8.1v-14.6h-14.8v14.6h-8.1v-35.7h8.1v14.3h14.8v-14.3h8.1v35.7zM569.7 396.6h-6.4c-5.4-5.9-8.1-13.2-8.1-21.8 0-8.3 2.7-15.7 8.1-22.1h6.4c-5 6.7-7.6 14-7.6 22.1 0 8 2.6 15.3 7.6 21.8zM601.1 387.2c-2.6 1.3-6 1.9-10.2 1.9-5.5 0-9.8-1.6-12.9-4.8s-4.7-7.5-4.7-12.9c0-5.7 1.8-10.4 5.3-13.9 3.5-3.6 8.1-5.3 13.7-5.3 3.5 0 6.4.4 8.8 1.3v7.8c-2.4-1.4-5.1-2.1-8.2-2.1-3.4 0-6.1 1.1-8.1 3.2-2.1 2.1-3.1 5-3.1 8.6 0 3.5 1 6.2 2.9 8.3 1.9 2.1 4.6 3.1 7.9 3.1 3.1 0 6-.8 8.6-2.3v7.1zM608.6 388.5v-35.7h13c4 0 7.1.7 9.2 2.2 2.1 1.5 3.2 3.5 3.2 6.2 0 1.9-.7 3.6-2 5.1-1.3 1.4-3 2.5-5 3v.1c2.5.3 4.6 1.3 6.1 2.8 1.5 1.6 2.3 3.5 2.3 5.7 0 3.3-1.2 5.9-3.5 7.8s-5.5 2.9-9.6 2.9h-13.7zm8.1-29.8v8.5h3.5c1.7 0 3-.4 3.9-1.2 1-.8 1.4-1.9 1.4-3.3 0-2.6-2-3.9-5.9-3.9h-2.9zm0 14.4v9.4h4.4c1.9 0 3.3-.4 4.4-1.3 1.1-.9 1.6-2 1.6-3.5 0-1.4-.5-2.6-1.6-3.4-1-.8-2.5-1.2-4.3-1.2h-4.5zM668.3 387.2c-2.6 1.3-6 1.9-10.2 1.9-5.5 0-9.8-1.6-12.9-4.8s-4.7-7.5-4.7-12.9c0-5.7 1.8-10.4 5.3-13.9 3.5-3.6 8.1-5.3 13.7-5.3 3.5 0 6.4.4 8.8 1.3v7.8c-2.4-1.4-5.1-2.1-8.2-2.1-3.4 0-6.1 1.1-8.1 3.2-2.1 2.1-3.1 5-3.1 8.6 0 3.5 1 6.2 2.9 8.3 1.9 2.1 4.6 3.1 7.9 3.1 3.1 0 6-.8 8.6-2.3v7.1zM675.8 388.5v-35.7h13c4 0 7.1.7 9.2 2.2 2.1 1.5 3.2 3.5 3.2 6.2 0 1.9-.7 3.6-2 5.1-1.3 1.4-3 2.5-5 3v.1c2.5.3 4.6 1.3 6.1 2.8 1.5 1.6 2.3 3.5 2.3 5.7 0 3.3-1.2 5.9-3.5 7.8s-5.5 2.9-9.6 2.9h-13.7zm8-29.8v8.5h3.5c1.7 0 3-.4 3.9-1.2 1-.8 1.4-1.9 1.4-3.3 0-2.6-2-3.9-5.9-3.9h-2.9zm0 14.4v9.4h4.4c1.9 0 3.3-.4 4.4-1.3 1.1-.9 1.6-2 1.6-3.5 0-1.4-.5-2.6-1.6-3.4-1-.8-2.5-1.2-4.3-1.2h-4.5zM712.5 396.6h-6.4c5.1-6.5 7.6-13.8 7.6-21.8s-2.5-15.3-7.6-22.1h6.4c5.4 6.4 8.1 13.8 8.1 22.1.1 8.6-2.7 15.8-8.1 21.8z"/><path fill="#484891" d="M126.6 364.2s18.8-14.6 32.6-79.1c6.1-28.3 8.9-38.3 8.9-38.3l1.8-2.5h16.3s3.5-8.9-4.3-8.5c-7.8.4-10.6 0-10.6 0s15.5-51.9 20.2-58.5c4-5.6 6.7-8.5 17.7-8.5s14.2 6.7 14.5 13.1c.4 6.4.5 22-12.1 25.2-9.4 2.4-8.9-3.2-8.9-3.2l1.8-13.8h5.3l.4-4.3h-5.1l1.9-8.2h-5.3l-1.7 7.8h-5l-1.8 3.9 5 .4s1.8 0 0 10.6-8.5 9.6-8.5 9.6 23.3 11.3 34.1-7.4 3.8-31.2 3.8-31.2-5.3-8.2-19.5-8.2c-6.4 0-12.3 2.7-16.8 5.6-5.4 3.5-9.8 8.3-12.9 13.9-3.2 5.7-7.9 14.8-11.4 25.2-6 17.7-9.2 29.4-9.2 29.4l-17.7.7s-4.6 12.8 4.3 12.1 11.3-.4 11.3-.4-9.9 36.9-17.4 66.3c-7.4 29.5-11.7 48.3-11.7 48.3z"/><g><path transform="rotate(-85 179.71 281.788)" fill="none" d="M159.1 260.8h41.2v42h-41.2z"/><path fill="#484891" d="M167.9 293.3l2.7-31.2 11.3 1c3.5.3 6.1 1.2 7.9 2.6 1.8 1.4 2.5 3.3 2.3 5.6-.1 1.7-.8 3.1-2.1 4.3-1.2 1.2-2.8 1.9-4.6 2.2v.1c2.2.5 3.9 1.4 5.1 2.9s1.7 3.2 1.6 5.1c-.2 2.9-1.5 5-3.7 6.5s-5.1 2.1-8.6 1.8l-11.9-.9zm8.2-12.8l-.7 8.2 3.8.3c1.6.1 2.9-.1 3.9-.8 1-.7 1.5-1.7 1.6-3 .1-1.2-.3-2.3-1.1-3.1s-2.1-1.3-3.7-1.4l-3.8-.2zm1.1-12.6l-.6 7.4 3.1.3c1.4.1 2.6-.1 3.5-.8.9-.6 1.4-1.6 1.5-2.8.2-2.3-1.4-3.6-4.8-3.9l-2.7-.2z"/></g><g><path transform="rotate(-83.016 169.481 335.228)" fill="none" d="M148.9 314.2h41.2v42h-41.2z"/><path fill="#484891" d="M156.7 344.5l5.4-30.8 11.2 2c3.4.6 6 1.7 7.6 3.3 1.6 1.6 2.2 3.5 1.8 5.8-.3 1.7-1.1 3-2.5 4.1-1.3 1-2.9 1.7-4.8 1.8v.1c2.1.7 3.8 1.8 4.8 3.4 1.1 1.6 1.4 3.3 1.1 5.3-.5 2.8-1.9 4.9-4.2 6.2-2.3 1.3-5.2 1.6-8.7 1l-11.7-2.2zm9.3-12l-1.4 8.1 3.8.7c1.6.3 2.9.1 4-.5 1-.6 1.7-1.5 1.9-2.8.2-1.2-.1-2.3-.8-3.1-.8-.9-2-1.4-3.6-1.7l-3.9-.7zm2.2-12.4l-1.3 7.3 3.1.5c1.4.3 2.6.1 3.6-.4.9-.5 1.5-1.4 1.7-2.6.4-2.3-1.1-3.7-4.5-4.3l-2.6-.5z"/></g><g><path transform="rotate(-80.003 126.615 269.957)" fill="none" d="M107.1 248.3h39.1v43.3h-39.1z"/><path fill="#494991" d="M136.3 284.3c-2.4.7-5.5.7-9.1.1-4.7-.8-8.2-2.9-10.4-6.1-2.2-3.3-2.9-7.2-2.1-11.8.9-4.9 3.1-8.7 6.7-11.2s7.8-3.4 12.7-2.5c3 .5 5.5 1.4 7.4 2.5l-1.2 6.7c-1.8-1.6-4.1-2.6-6.7-3.1-2.9-.5-5.4 0-7.5 1.5-2.1 1.5-3.4 3.8-4 6.9-.5 3-.1 5.5 1.3 7.6 1.4 2.1 3.5 3.3 6.3 3.8 2.7.5 5.3.3 7.8-.7l-1.2 6.3z"/></g><g><path transform="rotate(-75.001 114.929 319.684)" fill="none" d="M95.4 298h39.1v43.3H95.4z"/><path fill="#494991" d="M123.4 334.8c-2.5.5-5.5.2-9.1-.7-4.6-1.2-7.9-3.6-9.8-7-1.9-3.4-2.3-7.4-1.1-12 1.3-4.8 3.8-8.3 7.6-10.6 3.8-2.2 8.1-2.7 12.8-1.4 2.9.8 5.3 1.8 7.2 3.1l-1.8 6.6c-1.7-1.8-3.8-3-6.4-3.7-2.8-.8-5.4-.5-7.6.8-2.2 1.3-3.7 3.5-4.6 6.5-.8 2.9-.6 5.5.6 7.6 1.2 2.2 3.2 3.6 5.9 4.4 2.7.7 5.3.7 7.8 0l-1.5 6.4z"/></g><g><path fill="none" d="M251.2 163.2h203.1v251.5H251.2z"/><path fill="#fff" stroke="#fff" stroke-miterlimit="10" d="M334.6 166.7h-6.5v-2.4H344v2.4h-6.6v19.1h-2.8v-19.1zM346.1 163.2h2.8v9.6h.1c.4-.8 1.1-1.5 2-2 .8-.5 1.8-.8 2.9-.8 2.1 0 5.4 1.3 5.4 6.6v9.2h-2.8V177c0-2.5-.9-4.6-3.6-4.6-1.8 0-3.3 1.3-3.8 2.8-.2.4-.2.8-.2 1.3v9.3h-2.8v-22.6zM365.4 178.7c.1 3.8 2.5 5.4 5.3 5.4 2 0 3.2-.4 4.3-.8l.5 2c-1 .4-2.7 1-5.1 1-4.8 0-7.6-3.1-7.6-7.8 0-4.7 2.7-8.3 7.2-8.3 5 0 6.4 4.4 6.4 7.3 0 .6-.1 1-.1 1.3h-10.9zm8.2-2.1c0-1.8-.7-4.6-3.9-4.6-2.8 0-4.1 2.6-4.3 4.6h8.2zM315.9 223.4c-1 .5-3.1 1-5.7 1-6.1 0-10.6-3.8-10.6-10.9 0-6.7 4.6-11.3 11.2-11.3 2.7 0 4.4.6 5.1 1l-.7 2.3c-1.1-.5-2.6-.9-4.3-.9-5 0-8.4 3.2-8.4 8.9 0 5.3 3 8.6 8.3 8.6 1.7 0 3.4-.4 4.5-.9l.6 2.2zM327.7 224.1l-.2-1.9h-.1c-.9 1.2-2.5 2.3-4.7 2.3-3.1 0-4.7-2.2-4.7-4.4 0-3.7 3.3-5.8 9.3-5.7v-.4c0-1.3-.4-3.6-3.5-3.6-1.4 0-2.9.4-4 1.1l-.6-1.9c1.3-.8 3.1-1.4 5.1-1.4 4.7 0 5.9 3.2 5.9 6.3v5.8c0 1.3.1 2.6.3 3.7h-2.8zm-.5-7.8c-3.1-.1-6.5.5-6.5 3.5 0 1.8 1.2 2.7 2.6 2.7 2 0 3.3-1.3 3.7-2.6.1-.3.2-.6.2-.9v-2.7zM337.7 204.3v4.4h4v2.1h-4v8.3c0 1.9.5 3 2.1 3 .7 0 1.3-.1 1.6-.2l.1 2.1c-.5.2-1.4.4-2.5.4-1.3 0-2.4-.4-3-1.2-.8-.8-1.1-2.2-1.1-4v-8.4h-2.4v-2.1h2.4V205l2.8-.7zM344.9 201.5h2.8v9.6h.1c.4-.8 1.1-1.5 2-2 .8-.5 1.8-.8 2.9-.8 2.1 0 5.4 1.3 5.4 6.6v9.2h-2.8v-8.9c0-2.5-.9-4.6-3.6-4.6-1.8 0-3.3 1.3-3.8 2.8-.2.4-.2.8-.2 1.3v9.3h-2.8v-22.5zM376.6 216.3c0 5.7-4 8.2-7.7 8.2-4.2 0-7.4-3.1-7.4-7.9 0-5.2 3.4-8.2 7.7-8.2 4.4 0 7.4 3.2 7.4 7.9zm-12.3.2c0 3.4 1.9 5.9 4.7 5.9 2.7 0 4.7-2.5 4.7-6 0-2.6-1.3-5.9-4.6-5.9s-4.8 3-4.8 6zM380.1 201.5h2.8v22.7h-2.8v-22.7zM390.8 204.4c0 1-.7 1.7-1.8 1.7-1 0-1.7-.8-1.7-1.7 0-1 .7-1.8 1.8-1.8 1 0 1.7.8 1.7 1.8zm-3.1 19.7v-15.4h2.8v15.4h-2.8zM406.1 223.6c-.7.4-2.4.9-4.4.9-4.7 0-7.7-3.2-7.7-7.9 0-4.8 3.3-8.2 8.3-8.2 1.7 0 3.1.4 3.9.8l-.6 2.2c-.7-.4-1.7-.7-3.3-.7-3.5 0-5.5 2.6-5.5 5.8 0 3.6 2.3 5.8 5.4 5.8 1.6 0 2.6-.4 3.4-.8l.5 2.1zM301.9 241.2c1.2-.3 3.1-.4 5.1-.4 2.8 0 4.6.5 5.9 1.6 1.1.8 1.8 2.1 1.8 3.8 0 2.1-1.4 3.9-3.6 4.7v.1c2 .5 4.4 2.2 4.4 5.4 0 1.9-.7 3.3-1.8 4.3-1.5 1.4-3.9 2-7.4 2-1.9 0-3.4-.1-4.3-.3v-21.2zm2.7 8.8h2.5c2.9 0 4.7-1.5 4.7-3.6 0-2.5-1.9-3.5-4.7-3.5-1.3 0-2 .1-2.5.2v6.9zm0 10.3c.5.1 1.3.1 2.3.1 2.9 0 5.5-1.1 5.5-4.2 0-2.9-2.5-4.1-5.6-4.1h-2.3v8.2zM322.2 242.7c0 1-.7 1.7-1.8 1.7-1 0-1.7-.8-1.7-1.7 0-1 .7-1.8 1.8-1.8 1 0 1.7.8 1.7 1.8zm-3.1 19.7V247h2.8v15.4h-2.8zM326.1 259.6c.8.5 2.3 1.1 3.7 1.1 2 0 3-1 3-2.3 0-1.3-.8-2.1-2.9-2.8-2.8-1-4.1-2.5-4.1-4.4 0-2.5 2-4.5 5.3-4.5 1.6 0 2.9.4 3.8 1l-.7 2c-.6-.4-1.7-.9-3.2-.9-1.7 0-2.6 1-2.6 2.1 0 1.3.9 1.9 2.9 2.6 2.7 1 4.1 2.4 4.1 4.7 0 2.7-2.1 4.6-5.8 4.6-1.7 0-3.3-.4-4.3-1.1l.8-2.1zM339.2 239.8h2.8v9.6h.1c.4-.8 1.1-1.5 2-2 .8-.5 1.8-.8 2.9-.8 2.1 0 5.4 1.3 5.4 6.6v9.2h-2.8v-8.9c0-2.5-.9-4.6-3.6-4.6-1.8 0-3.3 1.3-3.8 2.8-.2.4-.2.8-.2 1.3v9.3h-2.8v-22.5zM370.8 254.6c0 5.7-4 8.2-7.7 8.2-4.2 0-7.4-3.1-7.4-7.9 0-5.2 3.4-8.2 7.7-8.2 4.4-.1 7.4 3.2 7.4 7.9zm-12.2.1c0 3.4 1.9 5.9 4.7 5.9 2.7 0 4.7-2.5 4.7-6 0-2.6-1.3-5.9-4.6-5.9s-4.8 3.1-4.8 6zM374.4 252c0-2-.1-3.6-.1-5h2.5l.1 2.6h.1c1.1-1.9 3-3 5.5-3 3.7 0 6.5 3.2 6.5 7.8 0 5.6-3.4 8.3-7 8.3-2 0-3.8-.9-4.8-2.4h-.1v8.4h-2.8V252zm2.8 4.1c0 .4.1.8.1 1.1.5 1.9 2.2 3.3 4.2 3.3 3 0 4.7-2.4 4.7-6 0-3.1-1.6-5.7-4.6-5.7-1.9 0-3.7 1.4-4.2 3.5-.1.4-.2.8-.2 1.1v2.7zM392.1 259.6c.8.5 2.3 1.1 3.7 1.1 2 0 3-1 3-2.3 0-1.3-.8-2.1-2.9-2.8-2.8-1-4.1-2.5-4.1-4.4 0-2.5 2-4.5 5.3-4.5 1.6 0 2.9.4 3.8 1l-.7 2c-.6-.4-1.7-.9-3.2-.9-1.7 0-2.6 1-2.6 2.1 0 1.3.9 1.9 2.9 2.6 2.7 1 4.1 2.4 4.1 4.7 0 2.7-2.1 4.6-5.8 4.6-1.7 0-3.3-.4-4.3-1.1l.8-2.1zM408.2 240.6c-.7 2.7-2.1 6.1-3 7.6l-1.8.2c.7-1.9 1.5-5.2 1.9-7.5l2.9-.3zM294.2 300c-1 .5-3.1 1-5.7 1-6.1 0-10.6-3.8-10.6-10.9 0-6.7 4.6-11.3 11.2-11.3 2.7 0 4.4.6 5.1 1l-.7 2.3c-1.1-.5-2.6-.9-4.3-.9-5 0-8.4 3.2-8.4 8.9 0 5.3 3 8.6 8.3 8.6 1.7 0 3.4-.4 4.5-.9l.6 2.2zM311.2 292.9c0 5.7-4 8.2-7.7 8.2-4.2 0-7.4-3.1-7.4-7.9 0-5.2 3.4-8.2 7.7-8.2 4.4-.1 7.4 3.1 7.4 7.9zm-12.3.1c0 3.4 1.9 5.9 4.7 5.9 2.7 0 4.7-2.5 4.7-6 0-2.6-1.3-5.9-4.6-5.9s-4.8 3.1-4.8 6zM314.7 289.5c0-1.6 0-2.9-.1-4.2h2.5l.2 2.6h.1c.8-1.5 2.6-2.9 5.1-2.9 2.1 0 5.5 1.3 5.5 6.6v9.2h-2.8v-8.9c0-2.5-.9-4.6-3.6-4.6-1.9 0-3.3 1.3-3.8 2.9-.1.4-.2.8-.2 1.3v9.3h-2.8v-11.3zM332.7 300.7v-13.3h-2.2v-2.1h2.2v-.7c0-2.2.5-4.1 1.8-5.4 1.1-1 2.5-1.4 3.8-1.4 1 0 1.9.2 2.4.4l-.4 2.2c-.4-.2-1-.4-1.8-.4-2.4 0-3 2.1-3 4.5v.8h3.7v2.1h-3.7v13.3h-2.8zM342.9 293.5c.1 3.8 2.5 5.4 5.3 5.4 2 0 3.2-.4 4.3-.8l.5 2c-1 .4-2.7 1-5.1 1-4.8 0-7.6-3.1-7.6-7.8 0-4.7 2.7-8.3 7.2-8.3 5 0 6.4 4.4 6.4 7.3 0 .6-.1 1-.1 1.3h-10.9zm8.2-2c0-1.8-.7-4.6-3.9-4.6-2.8 0-4.1 2.6-4.3 4.6h8.2zM357.3 290.1c0-1.8 0-3.4-.1-4.8h2.5l.1 3h.1c.7-2.1 2.4-3.4 4.3-3.4.3 0 .5 0 .8.1v2.6c-.3-.1-.6-.1-1-.1-2 0-3.4 1.5-3.8 3.6-.1.4-.1.8-.1 1.3v8.2h-2.8v-10.5zM369 293.5c.1 3.8 2.5 5.4 5.3 5.4 2 0 3.2-.4 4.3-.8l.5 2c-1 .4-2.7 1-5.1 1-4.8 0-7.6-3.1-7.6-7.8 0-4.7 2.7-8.3 7.2-8.3 5 0 6.4 4.4 6.4 7.3 0 .6-.1 1-.1 1.3H369zm8.2-2c0-1.8-.7-4.6-3.9-4.6-2.8 0-4.1 2.6-4.3 4.6h8.2zM383.4 289.5c0-1.6 0-2.9-.1-4.2h2.5l.2 2.6h.1c.8-1.5 2.6-2.9 5.1-2.9 2.1 0 5.5 1.3 5.5 6.6v9.2h-2.8v-8.9c0-2.5-.9-4.6-3.6-4.6-1.9 0-3.3 1.3-3.8 2.9-.1.4-.2.8-.2 1.3v9.3h-2.8v-11.3zM412.1 300.1c-.7.4-2.4.9-4.4.9-4.7 0-7.7-3.2-7.7-7.9 0-4.8 3.3-8.2 8.3-8.2 1.7 0 3.1.4 3.9.8l-.6 2.2c-.7-.4-1.7-.7-3.3-.7-3.5 0-5.5 2.6-5.5 5.8 0 3.6 2.3 5.8 5.4 5.8 1.6 0 2.6-.4 3.4-.8l.5 2.1zM416.8 293.5c.1 3.8 2.5 5.4 5.3 5.4 2 0 3.2-.4 4.3-.8l.5 2c-1 .4-2.7 1-5.1 1-4.8 0-7.6-3.1-7.6-7.8 0-4.7 2.7-8.3 7.2-8.3 5 0 6.4 4.4 6.4 7.3 0 .6-.1 1-.1 1.3h-10.9zm8.2-2c0-1.8-.7-4.6-3.9-4.6-2.8 0-4.1 2.6-4.3 4.6h8.2zM357.7 328c0 7.4-4.5 11.3-10 11.3-5.7 0-9.7-4.4-9.7-10.9 0-6.8 4.2-11.3 10-11.3 5.9 0 9.7 4.5 9.7 10.9zm-16.7.4c0 4.6 2.5 8.7 6.9 8.7s6.9-4.1 6.9-8.9c0-4.3-2.2-8.7-6.9-8.7-4.6-.1-6.9 4.2-6.9 8.9zM362 339v-13.3h-2.2v-2.1h2.2v-.7c0-2.2.5-4.1 1.8-5.4 1.1-1 2.5-1.4 3.8-1.4 1 0 1.9.2 2.4.4l-.4 2.2c-.4-.2-1-.4-1.8-.4-2.4 0-3 2.1-3 4.5v.8h3.7v2.1h-3.7V339H362zM277.5 356.1c1.2-.3 3.1-.4 5.1-.4 2.8 0 4.6.5 5.9 1.6 1.1.8 1.8 2.1 1.8 3.8 0 2.1-1.4 3.9-3.6 4.7v.1c2 .5 4.4 2.2 4.4 5.4 0 1.9-.7 3.3-1.8 4.3-1.5 1.4-3.9 2-7.4 2-1.9 0-3.4-.1-4.3-.3v-21.2zm2.8 8.8h2.5c2.9 0 4.7-1.5 4.7-3.6 0-2.5-1.9-3.5-4.7-3.5-1.3 0-2 .1-2.5.2v6.9zm0 10.3c.5.1 1.3.1 2.3.1 2.9 0 5.5-1.1 5.5-4.2 0-2.9-2.5-4.1-5.6-4.1h-2.3v8.2zM303.2 377.3l-.2-1.9h-.1c-.9 1.2-2.5 2.3-4.7 2.3-3.1 0-4.7-2.2-4.7-4.4 0-3.7 3.3-5.8 9.3-5.7v-.3c0-1.3-.4-3.6-3.5-3.6-1.4 0-2.9.4-4 1.1l-.6-1.9c1.3-.8 3.1-1.4 5.1-1.4 4.7 0 5.9 3.2 5.9 6.3v5.8c0 1.3.1 2.6.3 3.7h-2.8zm-.4-7.9c-3.1-.1-6.5.5-6.5 3.5 0 1.8 1.2 2.7 2.6 2.7 2 0 3.3-1.3 3.7-2.6.1-.3.2-.6.2-.9v-2.7zM310.1 366c0-1.6 0-2.9-.1-4.2h2.5l.2 2.6h.1c.8-1.5 2.6-2.9 5.1-2.9 2.1 0 5.5 1.3 5.5 6.6v9.2h-2.8v-8.9c0-2.5-.9-4.6-3.6-4.6-1.9 0-3.3 1.3-3.8 2.9-.1.4-.2.8-.2 1.3v9.3h-2.8V366zM341.1 361.8c-.1 1.1-.1 2.4-.1 4.2v9c0 3.5-.7 5.7-2.2 7.1-1.5 1.4-3.7 1.9-5.6 1.9-1.9 0-3.9-.4-5.1-1.3l.7-2.1c1 .6 2.6 1.2 4.5 1.2 2.9 0 5-1.5 5-5.4v-1.7h-.1c-.9 1.4-2.5 2.6-4.9 2.6-3.8 0-6.6-3.3-6.6-7.5 0-5.2 3.4-8.2 7-8.2 2.7 0 4.1 1.4 4.8 2.7h.1l.1-2.3h2.4zm-2.9 6.1c0-.5 0-.9-.2-1.3-.5-1.6-1.9-3-3.9-3-2.7 0-4.6 2.3-4.6 5.8 0 3 1.5 5.6 4.6 5.6 1.7 0 3.3-1.1 3.9-2.9.2-.5.2-1 .2-1.5v-2.7zM345.6 354.6h2.8v22.7h-2.8v-22.7zM361.7 377.3l-.2-1.9h-.1c-.9 1.2-2.5 2.3-4.7 2.3-3.1 0-4.7-2.2-4.7-4.4 0-3.7 3.3-5.8 9.3-5.7v-.3c0-1.3-.4-3.6-3.5-3.6-1.4 0-2.9.4-4 1.1l-.6-1.9c1.3-.8 3.1-1.4 5.1-1.4 4.7 0 5.9 3.2 5.9 6.3v5.8c0 1.3.1 2.6.3 3.7h-2.8zm-.4-7.9c-3.1-.1-6.5.5-6.5 3.5 0 1.8 1.2 2.7 2.6 2.7 2 0 3.3-1.3 3.7-2.6.1-.3.2-.6.2-.9v-2.7zM381.9 354.6v18.7c0 1.4 0 2.9.1 4h-2.5l-.1-2.7h-.1c-.9 1.7-2.7 3-5.3 3-3.7 0-6.6-3.2-6.6-7.8 0-5.1 3.2-8.3 6.9-8.3 2.4 0 4 1.1 4.7 2.4h.1v-9.2h2.8zm-2.8 13.5c0-.4 0-.8-.1-1.2-.4-1.8-1.9-3.3-4.1-3.3-2.9 0-4.6 2.6-4.6 6 0 3.1 1.5 5.7 4.6 5.7 1.9 0 3.6-1.2 4.1-3.4.1-.4.1-.8.1-1.2v-2.6zM388.1 370.1c.1 3.8 2.5 5.4 5.3 5.4 2 0 3.2-.4 4.3-.8l.5 2c-1 .4-2.7 1-5.1 1-4.8 0-7.6-3.1-7.6-7.8s2.7-8.3 7.2-8.3c5 0 6.4 4.4 6.4 7.3 0 .6-.1 1-.1 1.3h-10.9zm8.2-2c0-1.8-.7-4.6-3.9-4.6-2.8 0-4.1 2.6-4.3 4.6h8.2zM402.1 374.4c.8.5 2.3 1.1 3.7 1.1 2 0 3-1 3-2.3 0-1.3-.8-2.1-2.9-2.8-2.8-1-4.1-2.5-4.1-4.4 0-2.5 2-4.5 5.3-4.5 1.6 0 2.9.4 3.8 1l-.7 2c-.6-.4-1.7-.9-3.2-.9-1.7 0-2.6 1-2.6 2.1 0 1.3.9 1.9 2.9 2.6 2.7 1 4.1 2.4 4.1 4.7 0 2.7-2.1 4.6-5.8 4.6-1.7 0-3.3-.4-4.3-1.1l.8-2.1zM415.1 354.6h2.8v9.6h.1c.4-.8 1.1-1.5 2-2 .8-.5 1.8-.8 2.9-.8 2.1 0 5.4 1.3 5.4 6.6v9.2h-2.8v-8.9c0-2.5-.9-4.6-3.6-4.6-1.8 0-3.3 1.3-3.8 2.8-.2.4-.2.8-.2 1.3v9.3h-2.8v-22.5z"/></g></g></svg>
