<svg id="Layer_1" xmlns="http://www.w3.org/2000/svg" viewBox="0 0 500 500"><ellipse cx="249.8" cy="246.2" rx="245.7" ry="149" fill="#fff"/><path fill="#494991" d="M249.8 396.6c-65.9 0-127.9-15.6-174.5-43.9-46.8-28.3-72.6-66.2-72.6-106.5S28.5 168 75.4 139.6C122 111.3 184 95.7 249.9 95.7s127.9 15.6 174.5 43.9c46.9 28.4 72.7 66.3 72.7 106.6s-25.8 78.2-72.7 106.6c-46.7 28.3-108.7 43.8-174.6 43.8zm0-297.9C115.2 98.7 5.7 164.8 5.7 246.2s109.5 147.5 244.1 147.5 244.1-66.1 244.1-147.5S384.5 98.7 249.8 98.7z"/><path fill="#494991" d="M249.8 96c-6 0-6-.1-11.9.1l-1.6 6.6s-22.6 70.3-26.5 145.7c-3.9 75.4 17.6 136.2 17.6 136.2l2.8 8.9c9.6.6 9.7.3 19.5.3 135.3 0 245.1-66.7 245.1-149S385.2 96 249.8 96z"/><path fill="#484891" d="M92.8 332.7s19.7-15.3 34.2-83c6.4-29.7 9.3-40.2 9.3-40.2l1.9-2.6h17.1s3.7-9.3-4.5-8.9-11.1 0-11.1 0 16.3-54.5 21.2-61.4c4.2-5.9 7-8.9 18.6-8.9 11.5 0 14.9 7 15.2 13.8.4 6.7.5 23.1-12.7 26.5-9.9 2.5-9.3-3.4-9.3-3.4l1.9-14.5h5.6l.4-4.5h-5.4l2-8.6h-5.6l-1.8 8.2h-5.2l-1.9 4.1 5.2.4s1.9 0 0 11.1-8.9 10.1-8.9 10.1 24.5 11.9 35.8-7.8 4-32.8 4-32.8-5.6-8.6-20.5-8.6c-6.7 0-12.9 2.8-17.6 5.9-5.7 3.7-10.3 8.7-13.5 14.6-3.4 6-8.3 15.5-12 26.5-6.3 18.6-9.7 30.9-9.7 30.9l-18.6.7s-4.8 13.4 4.5 12.7 11.9-.4 11.9-.4-10.4 38.7-18.3 69.6c-7.7 30.7-12.2 50.5-12.2 50.5z"/><path transform="rotate(-85 148.545 246.15)" fill="none" d="M126.9 224.1h43.3v44.1h-43.3z"/><path fill="#484891" d="M136.1 258.2l2.8-32.8 11.9 1c3.7.3 6.4 1.3 8.3 2.7 1.9 1.5 2.6 3.5 2.4 5.9-.1 1.8-.8 3.3-2.2 4.5-1.3 1.3-2.9 2-4.8 2.3v.1c2.3.5 4.1 1.5 5.4 3s1.8 3.4 1.7 5.4c-.2 3-1.6 5.2-3.9 6.8-2.3 1.6-5.4 2.2-9 1.9l-12.6-.8zm8.6-13.4l-.7 8.6 4 .3c1.7.1 3-.1 4.1-.8 1-.7 1.6-1.8 1.7-3.1.1-1.3-.3-2.4-1.2-3.3-.8-.8-2.2-1.4-3.9-1.5l-4-.2zm1.2-13.2l-.6 7.8 3.3.3c1.5.1 2.7-.1 3.7-.8.9-.6 1.5-1.7 1.6-2.9.2-2.4-1.5-3.8-5-4.1l-3-.3z"/><path transform="rotate(-83.016 137.77 302.213)" fill="none" d="M116.1 280.2h43.3v44.1h-43.3z"/><path fill="#484891" d="M124.4 312l5.7-32.3 11.8 2.1c3.6.6 6.3 1.8 8 3.5 1.7 1.7 2.3 3.7 1.9 6.1-.3 1.8-1.2 3.1-2.6 4.3-1.4 1-3 1.8-5 1.9v.1c2.2.7 4 1.9 5 3.6 1.2 1.7 1.5 3.5 1.2 5.6-.5 2.9-2 5.1-4.4 6.5-2.4 1.4-5.5 1.7-9.1 1l-12.5-2.4zm9.7-12.6l-1.5 8.5 4 .7c1.7.3 3 .1 4.2-.5 1-.6 1.8-1.6 2-2.9.2-1.3-.1-2.4-.8-3.3-.8-.9-2.1-1.5-3.8-1.8l-4.1-.7zm2.3-13l-1.4 7.7 3.3.5c1.5.3 2.7.1 3.8-.4.9-.5 1.6-1.5 1.8-2.7.4-2.4-1.2-3.9-4.7-4.5l-2.8-.6z"/><path transform="rotate(-80.003 92.791 233.684)" fill="none" d="M72.3 211h41v45.5h-41z"/><path fill="#494991" d="M103 248.8c-2.5.7-5.8.7-9.6.1-4.9-.8-8.6-3-10.9-6.4-2.3-3.5-3-7.6-2.2-12.4.9-5.1 3.3-9.1 7-11.8 3.8-2.6 8.2-3.6 13.3-2.6 3.1.5 5.8 1.5 7.8 2.6l-1.3 7c-1.9-1.7-4.3-2.7-7-3.3-3-.5-5.7 0-7.9 1.6s-3.6 4-4.2 7.2c-.5 3.1-.1 5.8 1.4 8s3.7 3.5 6.6 4c2.8.5 5.6.3 8.2-.7l-1.2 6.7z"/><path transform="rotate(-75.001 80.495 285.89)" fill="none" d="M60 263.2h41v45.5H60z"/><path fill="#494991" d="M89.4 301.8c-2.6.5-5.8.2-9.6-.7-4.8-1.3-8.3-3.8-10.3-7.3s-2.4-7.8-1.2-12.6c1.4-5 4-8.7 8-11.1 4-2.3 8.5-2.8 13.4-1.5 3 .8 5.6 1.9 7.6 3.3l-1.9 6.9c-1.8-1.9-4-3.1-6.7-3.9-2.9-.8-5.7-.5-8 .8-2.3 1.4-3.9 3.7-4.8 6.8-.8 3-.6 5.8.6 8 1.3 2.3 3.4 3.8 6.2 4.6 2.8.7 5.6.7 8.2 0l-1.5 6.7z"/><path fill="none" d="M223.6 121.6h213.2v264H223.6z"/><path fill="#fff" stroke="#fff" stroke-miterlimit="10" d="M311.1 125.3h-6.8v-2.5H321v2.5h-6.9v20.1h-2.9v-20.1zM323.2 121.6h2.9v10.1h.1c.4-.8 1.2-1.6 2.1-2.1.8-.5 1.9-.8 3-.8 2.2 0 5.7 1.4 5.7 6.9v9.7h-2.9v-9.2c0-2.6-.9-4.8-3.8-4.8-1.9 0-3.5 1.4-4 2.9-.2.4-.2.8-.2 1.4v9.8h-2.9v-23.9zM343.5 137.9c.1 4 2.6 5.7 5.6 5.7 2.1 0 3.4-.4 4.5-.8l.5 2.1c-1 .4-2.8 1-5.4 1-5 0-8-3.3-8-8.2s2.8-8.7 7.6-8.7c5.2 0 6.7 4.6 6.7 7.7 0 .6-.1 1-.1 1.4h-11.4v-.2zm8.6-2.2c0-1.9-.7-4.8-4.1-4.8-2.9 0-4.3 2.7-4.5 4.8h8.6zM291.5 184.8c-1 .5-3.3 1-6 1-6.4 0-11.1-4-11.1-11.4 0-7 4.8-11.9 11.8-11.9 2.8 0 4.6.6 5.4 1l-.7 2.4c-1.2-.5-2.7-.9-4.5-.9-5.2 0-8.8 3.4-8.8 9.3 0 5.6 3.1 9 8.7 9 1.8 0 3.6-.4 4.7-.9l.5 2.4zM303.9 185.6l-.2-2h-.1c-.9 1.3-2.6 2.4-4.9 2.4-3.3 0-4.9-2.3-4.9-4.6 0-3.9 3.5-6.1 9.8-6v-.4c0-1.4-.4-3.8-3.7-3.8-1.5 0-3 .4-4.2 1.2l-.6-2c1.4-.8 3.3-1.5 5.4-1.5 4.9 0 6.2 3.4 6.2 6.6v6.1c0 1.4.1 2.7.3 3.9h-2.9v.1zm-.5-8.2c-3.3-.1-6.8.5-6.8 3.7 0 1.9 1.3 2.8 2.7 2.8 2.1 0 3.5-1.4 3.9-2.7.1-.3.2-.6.2-.9v-2.9zM314.4 164.8v4.6h4.2v2.2h-4.2v8.7c0 2 .5 3.1 2.2 3.1.7 0 1.4-.1 1.7-.2l.1 2.2c-.5.2-1.5.4-2.6.4-1.4 0-2.5-.4-3.1-1.3-.8-.8-1.2-2.3-1.2-4.2v-8.8H309v-2.2h2.5v-3.9l2.9-.6zM322 161.9h2.9V172h.1c.4-.8 1.2-1.6 2.1-2.1.8-.5 1.9-.8 3-.8 2.2 0 5.7 1.4 5.7 6.9v9.7h-2.9v-9.3c0-2.6-.9-4.8-3.8-4.8-1.9 0-3.5 1.4-4 2.9-.2.4-.2.8-.2 1.4v9.8H322v-23.8zM355.2 177.4c0 6-4.2 8.6-8.1 8.6-4.4 0-7.8-3.3-7.8-8.3 0-5.5 3.6-8.6 8.1-8.6 4.7 0 7.8 3.4 7.8 8.3zm-12.9.2c0 3.6 2 6.2 4.9 6.2 2.8 0 4.9-2.6 4.9-6.3 0-2.7-1.4-6.2-4.8-6.2s-5 3.1-5 6.3zM358.9 161.9h2.9v23.8h-2.9v-23.8zM370.1 164.9c0 1-.7 1.8-1.9 1.8-1 0-1.8-.8-1.8-1.8s.7-1.9 1.9-1.9c1.1 0 1.8.8 1.8 1.9zm-3.2 20.7v-16.2h2.9v16.2h-2.9zM386.2 185.1c-.7.4-2.5.9-4.6.9-4.9 0-8.1-3.4-8.1-8.3 0-5 3.5-8.6 8.7-8.6 1.8 0 3.3.4 4.1.8l-.6 2.3c-.7-.4-1.8-.7-3.5-.7-3.7 0-5.8 2.7-5.8 6.1 0 3.8 2.4 6.1 5.7 6.1 1.7 0 2.7-.4 3.6-.8l.5 2.2zM276.8 203.5c1.3-.3 3.3-.4 5.4-.4 2.9 0 4.8.5 6.2 1.7 1.2.8 1.9 2.2 1.9 4 0 2.2-1.5 4.1-3.8 4.9v.1c2.1.5 4.6 2.3 4.6 5.7 0 2-.7 3.5-1.9 4.5-1.6 1.5-4.1 2.1-7.8 2.1-2 0-3.6-.1-4.5-.3v-22.3h-.1zm2.8 9.3h2.6c3 0 4.9-1.6 4.9-3.8 0-2.6-2-3.7-4.9-3.7-1.4 0-2.1.1-2.6.2v7.3zm0 10.8c.5.1 1.4.1 2.4.1 3 0 5.8-1.2 5.8-4.4 0-3-2.6-4.3-5.9-4.3h-2.4v8.6h.1zM298.1 205.1c0 1-.7 1.8-1.9 1.8-1 0-1.8-.8-1.8-1.8s.7-1.9 1.9-1.9c1.1 0 1.8.9 1.8 1.9zm-3.2 20.7v-16.2h2.9v16.2h-2.9zM302.2 222.8c.8.5 2.4 1.2 3.9 1.2 2.1 0 3.1-1 3.1-2.4s-.8-2.2-3-2.9c-2.9-1-4.3-2.6-4.3-4.6 0-2.6 2.1-4.7 5.6-4.7 1.7 0 3 .4 4 1l-.7 2.1c-.6-.4-1.8-.9-3.4-.9-1.8 0-2.7 1-2.7 2.2 0 1.4.9 2 3 2.7 2.8 1 4.3 2.5 4.3 4.9 0 2.8-2.2 4.8-6.1 4.8-1.8 0-3.5-.4-4.5-1.2l.8-2.2zM316 202.1h2.9v10.1h.1c.4-.8 1.2-1.6 2.1-2.1.8-.5 1.9-.8 3-.8 2.2 0 5.7 1.4 5.7 6.9v9.7h-2.9v-9.3c0-2.6-.9-4.8-3.8-4.8-1.9 0-3.5 1.4-4 2.9-.2.4-.2.8-.2 1.4v9.8H316v-23.8zM349.1 217.6c0 6-4.2 8.6-8.1 8.6-4.4 0-7.8-3.3-7.8-8.3 0-5.5 3.6-8.6 8.1-8.6 4.7-.1 7.8 3.4 7.8 8.3zm-12.8.1c0 3.6 2 6.2 4.9 6.2 2.8 0 4.9-2.6 4.9-6.3 0-2.7-1.4-6.2-4.8-6.2s-5 3.3-5 6.3zM352.9 214.9c0-2.1-.1-3.8-.1-5.2h2.6l.1 2.7h.1c1.2-2 3.1-3.1 5.8-3.1 3.9 0 6.8 3.4 6.8 8.2 0 5.9-3.6 8.7-7.3 8.7-2.1 0-4-.9-5-2.5h-.1v8.8h-2.9V215zm3 4.3c0 .4.1.8.1 1.2.5 2 2.3 3.5 4.4 3.5 3.1 0 4.9-2.5 4.9-6.3 0-3.3-1.7-6-4.8-6-2 0-3.9 1.5-4.4 3.7-.1.4-.2.8-.2 1.2v2.7zM371.5 222.8c.8.5 2.4 1.2 3.9 1.2 2.1 0 3.1-1 3.1-2.4s-.8-2.2-3-2.9c-2.9-1-4.3-2.6-4.3-4.6 0-2.6 2.1-4.7 5.6-4.7 1.7 0 3 .4 4 1l-.7 2.1c-.6-.4-1.8-.9-3.4-.9-1.8 0-2.7 1-2.7 2.2 0 1.4.9 2 3 2.7 2.8 1 4.3 2.5 4.3 4.9 0 2.8-2.2 4.8-6.1 4.8-1.8 0-3.5-.4-4.5-1.2l.8-2.2zM388.4 202.9c-.7 2.8-2.2 6.4-3.1 8l-1.9.2c.7-2 1.6-5.5 2-7.9l3-.3zM268.7 265.3c-1 .5-3.3 1-6 1-6.4 0-11.1-4-11.1-11.4 0-7 4.8-11.9 11.8-11.9 2.8 0 4.6.6 5.4 1l-.7 2.4c-1.2-.5-2.7-.9-4.5-.9-5.2 0-8.8 3.4-8.8 9.3 0 5.6 3.1 9 8.7 9 1.8 0 3.6-.4 4.7-.9l.5 2.4zM286.6 257.8c0 6-4.2 8.6-8.1 8.6-4.4 0-7.8-3.3-7.8-8.3 0-5.5 3.6-8.6 8.1-8.6 4.6-.1 7.8 3.3 7.8 8.3zm-12.9.1c0 3.6 2 6.2 4.9 6.2 2.8 0 4.9-2.6 4.9-6.3 0-2.7-1.4-6.2-4.8-6.2s-5 3.3-5 6.3zM290.2 254.2c0-1.7 0-3-.1-4.4h2.6l.2 2.7h.1c.8-1.6 2.7-3 5.4-3 2.2 0 5.8 1.4 5.8 6.9v9.7h-2.9v-9.3c0-2.6-.9-4.8-3.8-4.8-2 0-3.5 1.4-4 3-.1.4-.2.8-.2 1.4v9.8h-2.9v-11.9h-.2zM309.1 266v-14h-2.3v-2.2h2.3v-.7c0-2.3.5-4.3 1.9-5.7 1.2-1 2.6-1.5 4-1.5 1 0 2 .2 2.5.4l-.4 2.3c-.4-.2-1-.4-1.9-.4-2.5 0-3.1 2.2-3.1 4.7v.8h3.9v2.2h-3.9v14h-3zM319.9 258.4c.1 4 2.6 5.7 5.6 5.7 2.1 0 3.4-.4 4.5-.8l.5 2.1c-1 .4-2.8 1-5.4 1-5 0-8-3.3-8-8.2 0-4.9 2.8-8.7 7.6-8.7 5.2 0 6.7 4.6 6.7 7.7 0 .6-.1 1-.1 1.4h-11.4v-.2zm8.6-2.1c0-1.9-.7-4.8-4.1-4.8-2.9 0-4.3 2.7-4.5 4.8h8.6zM335 254.9c0-1.9 0-3.6-.1-5h2.6l.1 3.1h.1c.7-2.2 2.5-3.6 4.5-3.6.3 0 .5 0 .8.1v2.7c-.3-.1-.6-.1-1-.1-2.1 0-3.6 1.6-4 3.8-.1.4-.1.8-.1 1.4v8.6H335v-11zM347.3 258.4c.1 4 2.6 5.7 5.6 5.7 2.1 0 3.4-.4 4.5-.8l.5 2.1c-1 .4-2.8 1-5.4 1-5 0-8-3.3-8-8.2 0-4.9 2.8-8.7 7.6-8.7 5.2 0 6.7 4.6 6.7 7.7 0 .6-.1 1-.1 1.4h-11.4v-.2zm8.6-2.1c0-1.9-.7-4.8-4.1-4.8-2.9 0-4.3 2.7-4.5 4.8h8.6zM362.4 254.2c0-1.7 0-3-.1-4.4h2.6l.2 2.7h.1c.8-1.6 2.7-3 5.4-3 2.2 0 5.8 1.4 5.8 6.9v9.7h-2.9v-9.3c0-2.6-.9-4.8-3.8-4.8-2 0-3.5 1.4-4 3-.1.4-.2.8-.2 1.4v9.8h-2.9v-11.9h-.2zM392.5 265.4c-.7.4-2.5.9-4.6.9-4.9 0-8.1-3.4-8.1-8.3 0-5 3.5-8.6 8.7-8.6 1.8 0 3.3.4 4.1.8l-.6 2.3c-.7-.4-1.8-.7-3.5-.7-3.7 0-5.8 2.7-5.8 6.1 0 3.8 2.4 6.1 5.7 6.1 1.7 0 2.7-.4 3.6-.8l.5 2.2zM397.4 258.4c.1 4 2.6 5.7 5.6 5.7 2.1 0 3.4-.4 4.5-.8l.5 2.1c-1 .4-2.8 1-5.4 1-5 0-8-3.3-8-8.2 0-4.9 2.8-8.7 7.6-8.7 5.2 0 6.7 4.6 6.7 7.7 0 .6-.1 1-.1 1.4h-11.4v-.2zm8.6-2.1c0-1.9-.7-4.8-4.1-4.8-2.9 0-4.3 2.7-4.5 4.8h8.6zM335.4 294.7c0 7.8-4.7 11.9-10.5 11.9-6 0-10.2-4.6-10.2-11.4 0-7.1 4.4-11.9 10.5-11.9 6.2-.1 10.2 4.6 10.2 11.4zm-17.5.4c0 4.8 2.6 9.1 7.2 9.1s7.2-4.3 7.2-9.3c0-4.5-2.3-9.1-7.2-9.1-4.8-.2-7.2 4.3-7.2 9.3zM339.9 306.2v-14h-2.3V290h2.3v-.7c0-2.3.5-4.3 1.9-5.7 1.2-1 2.6-1.5 4-1.5 1 0 2 .2 2.5.4l-.4 2.3c-.4-.2-1-.4-1.9-.4-2.5 0-3.1 2.2-3.1 4.7v.8h3.9v2.2h-3.9v14h-3zM251.2 324.2c1.3-.3 3.3-.4 5.4-.4 2.9 0 4.8.5 6.2 1.7 1.2.8 1.9 2.2 1.9 4 0 2.2-1.5 4.1-3.8 4.9v.1c2.1.5 4.6 2.3 4.6 5.7 0 2-.7 3.5-1.9 4.5-1.6 1.5-4.1 2.1-7.8 2.1-2 0-3.6-.1-4.5-.3v-22.3h-.1zm2.9 9.2h2.6c3 0 4.9-1.6 4.9-3.8 0-2.6-2-3.7-4.9-3.7-1.4 0-2.1.1-2.6.2v7.3zm0 10.8c.5.1 1.4.1 2.4.1 3 0 5.8-1.2 5.8-4.4 0-3-2.6-4.3-5.9-4.3H254v8.6h.1zM278.2 346.4l-.2-2h-.1c-.9 1.3-2.6 2.4-4.9 2.4-3.3 0-4.9-2.3-4.9-4.6 0-3.9 3.5-6.1 9.8-6v-.3c0-1.4-.4-3.8-3.7-3.8-1.5 0-3 .4-4.2 1.2l-.6-2c1.4-.8 3.3-1.5 5.4-1.5 4.9 0 6.2 3.4 6.2 6.6v6.1c0 1.4.1 2.7.3 3.9h-3.1zm-.4-8.3c-3.3-.1-6.8.5-6.8 3.7 0 1.9 1.3 2.8 2.7 2.8 2.1 0 3.5-1.4 3.9-2.7.1-.3.2-.6.2-.9v-2.9zM285.4 334.5c0-1.7 0-3-.1-4.4h2.6l.2 2.7h.1c.8-1.6 2.7-3 5.4-3 2.2 0 5.8 1.4 5.8 6.9v9.7h-2.9v-9.3c0-2.6-.9-4.8-3.8-4.8-2 0-3.5 1.4-4 3-.1.4-.2.8-.2 1.4v9.8h-2.9v-11.9h-.2zM318 330.1c-.1 1.2-.1 2.5-.1 4.4v9.4c0 3.7-.7 6-2.3 7.5-1.6 1.5-3.9 2-5.9 2-2 0-4.1-.4-5.4-1.4l.7-2.2c1 .6 2.7 1.3 4.7 1.3 3 0 5.2-1.6 5.2-5.7v-1.8h-.1c-.9 1.5-2.6 2.7-5.1 2.7-4 0-6.9-3.5-6.9-7.9 0-5.5 3.6-8.6 7.3-8.6 2.8 0 4.3 1.5 5 2.8h.1l.1-2.4h2.5v-.1zm-3.1 6.4c0-.5 0-.9-.2-1.4-.5-1.7-2-3.1-4.1-3.1-2.8 0-4.8 2.4-4.8 6.1 0 3.1 1.6 5.9 4.8 5.9 1.8 0 3.5-1.2 4.1-3 .2-.5.2-1 .2-1.6v-2.9zM322.7 322.6h2.9v23.8h-2.9v-23.8zM339.6 346.4l-.2-2h-.1c-.9 1.3-2.6 2.4-4.9 2.4-3.3 0-4.9-2.3-4.9-4.6 0-3.9 3.5-6.1 9.8-6v-.3c0-1.4-.4-3.8-3.7-3.8-1.5 0-3 .4-4.2 1.2l-.6-2c1.4-.8 3.3-1.5 5.4-1.5 4.9 0 6.2 3.4 6.2 6.6v6.1c0 1.4.1 2.7.3 3.9h-3.1zm-.4-8.3c-3.3-.1-6.8.5-6.8 3.7 0 1.9 1.3 2.8 2.7 2.8 2.1 0 3.5-1.4 3.9-2.7.1-.3.2-.6.2-.9v-2.9zM360.8 322.6v19.6c0 1.5 0 3 .1 4.2h-2.6l-.1-2.8h-.1c-.9 1.8-2.8 3.1-5.6 3.1-3.9 0-6.9-3.4-6.9-8.2 0-5.4 3.4-8.7 7.2-8.7 2.5 0 4.2 1.2 4.9 2.5h.1v-9.7h2.9zm-2.9 14.2c0-.4 0-.8-.1-1.3-.4-1.9-2-3.5-4.3-3.5-3 0-4.8 2.7-4.8 6.3 0 3.3 1.6 6 4.8 6 2 0 3.8-1.3 4.3-3.6.1-.4.1-.8.1-1.3v-2.6zM367.3 338.9c.1 4 2.6 5.7 5.6 5.7 2.1 0 3.4-.4 4.5-.8l.5 2.1c-1 .4-2.8 1-5.4 1-5 0-8-3.3-8-8.2 0-4.9 2.8-8.7 7.6-8.7 5.2 0 6.7 4.6 6.7 7.7 0 .6-.1 1-.1 1.4h-11.4v-.2zm8.6-2.1c0-1.9-.7-4.8-4.1-4.8-2.9 0-4.3 2.7-4.5 4.8h8.6zM382 343.4c.8.5 2.4 1.2 3.9 1.2 2.1 0 3.1-1 3.1-2.4s-.8-2.2-3-2.9c-2.9-1-4.3-2.6-4.3-4.6 0-2.6 2.1-4.7 5.6-4.7 1.7 0 3 .4 4 1l-.7 2.1c-.6-.4-1.8-.9-3.4-.9-1.8 0-2.7 1-2.7 2.2 0 1.4.9 2 3 2.7 2.8 1 4.3 2.5 4.3 4.9 0 2.8-2.2 4.8-6.1 4.8-1.8 0-3.5-.4-4.5-1.2l.8-2.2zM395.6 322.6h2.9v10.1h.1c.4-.8 1.2-1.6 2.1-2.1.8-.5 1.9-.8 3-.8 2.2 0 5.7 1.4 5.7 6.9v9.7h-2.9V337c0-2.6-.9-4.8-3.8-4.8-1.9 0-3.5 1.4-4 2.9-.2.4-.2.8-.2 1.4v9.8h-2.9v-23.7z"/></svg>
