<svg xmlns="http://www.w3.org/2000/svg" viewBox="0 0 1000 500"><g id="Layer_6"><path fill="#fff" d="M477.8 67c-3 11.6-11.7 20.2-27.2 20.2-20.4 0-30.7-15.5-30.7-34.9 0-18.6 10.3-35.3 31-35.3 16.1 0 24.8 9.2 26.9 20.6h-9c-2.5-7.5-7.4-13.1-18.2-13.1-15.1 0-21.2 13.7-21.2 27.5 0 13.5 5.8 27.6 21.6 27.6 10.5 0 15.1-6.1 17.7-12.7h9.1zM545.8 67c-3 11.6-11.7 20.2-27.2 20.2-20.4 0-30.7-15.5-30.7-34.9 0-18.6 10.3-35.3 31-35.3 16.1 0 24.8 9.2 26.9 20.6h-9c-2.4-7.5-7.4-13.1-18.2-13.1-15.1 0-21.2 13.7-21.2 27.5 0 13.5 5.8 27.6 21.6 27.6 10.5 0 15.1-6.1 17.7-12.7h9.1zM559.1 18h26.2c14.4 0 21.1 7.7 21.1 17.1 0 8-4.5 13.1-9.8 14.9 4.8 1.5 12.1 6.3 12.1 16.3 0 12.9-9.8 20-22.8 20h-26.8V18zm24.4 28.5c9.9 0 13.7-3.9 13.7-10.6 0-6.1-4.3-10.3-12.4-10.3h-17v20.9h15.7zm-15.6 32.4h16.9c8.5 0 14.5-4 14.5-12.6 0-7.4-4.7-12.4-16.3-12.4h-15.1v25zM255.2 204.2v-70.3h26.5c4.7 0 8.2.2 10.7.7 3.5.6 6.3 1.7 8.7 3.3 2.3 1.6 4.2 3.9 5.6 6.8 1.4 2.9 2.1 6.1 2.1 9.6 0 6-1.9 11-5.7 15.2-3.8 4.1-10.7 6.2-20.6 6.2h-18v28.6h-9.3zm9.3-36.9h18.2c6 0 10.3-1.1 12.8-3.4 2.5-2.2 3.8-5.4 3.8-9.5 0-2.9-.7-5.5-2.2-7.6-1.5-2.1-3.4-3.5-5.9-4.1-1.6-.4-4.5-.6-8.7-.6h-18v25.2zM361.9 204.2v-7.5c-4 5.8-9.4 8.6-16.2 8.6-3 0-5.8-.6-8.4-1.7-2.6-1.2-4.5-2.6-5.8-4.3-1.3-1.7-2.2-3.9-2.7-6.4-.4-1.7-.5-4.4-.5-8.1v-31.6h8.6v28.3c0 4.5.2 7.5.5 9.1.5 2.3 1.7 4.1 3.5 5.3 1.8 1.3 3.9 1.9 6.5 1.9s5-.7 7.3-2 3.9-3.1 4.8-5.4c.9-2.3 1.4-5.6 1.4-10v-27.3h8.6V204h-7.6zM399.9 204.2h-8v-70.3h8.6V159c3.6-4.6 8.3-6.9 14-6.9 3.1 0 6.1.6 8.9 1.9 2.8 1.3 5.1 3 6.9 5.3s3.2 5 4.2 8.3c1 3.2 1.5 6.7 1.5 10.4 0 8.7-2.2 15.5-6.5 20.2s-9.5 7.1-15.5 7.1-10.7-2.5-14.2-7.5v6.4zm-.1-25.8c0 6.1.8 10.5 2.5 13.2 2.7 4.4 6.4 6.7 11 6.7 3.8 0 7-1.6 9.8-4.9 2.8-3.3 4.1-8.2 4.1-14.7 0-6.7-1.3-11.6-4-14.7-2.6-3.2-5.8-4.7-9.6-4.7s-7 1.6-9.8 4.9-4 8-4 14.2zM455.3 204.2v-70.3h8.6v70.3h-8.6zM486.2 143.8v-9.9h8.6v9.9h-8.6zm0 60.4v-50.9h8.6v50.9h-8.6zM513.3 189l8.5-1.3c.5 3.4 1.8 6 4 7.9 2.2 1.8 5.3 2.7 9.2 2.7 4 0 6.9-.8 8.8-2.4 1.9-1.6 2.9-3.5 2.9-5.7 0-2-.8-3.5-2.5-4.6-1.2-.8-4.1-1.7-8.8-2.9-6.3-1.6-10.7-3-13.2-4.1-2.4-1.2-4.3-2.8-5.6-4.8-1.3-2.1-1.9-4.3-1.9-6.8 0-2.3.5-4.4 1.6-6.3 1-1.9 2.5-3.5 4.2-4.8 1.3-1 3.2-1.8 5.5-2.5s4.8-1 7.5-1c4 0 7.5.6 10.5 1.7 3 1.2 5.3 2.7 6.7 4.7 1.4 2 2.4 4.6 3 7.9l-8.4 1.2c-.4-2.6-1.5-4.7-3.3-6.1-1.8-1.5-4.4-2.2-7.8-2.2-4 0-6.8.7-8.5 2-1.7 1.3-2.5 2.8-2.5 4.6 0 1.1.4 2.1 1.1 3 .7.9 1.8 1.7 3.3 2.3.9.3 3.4 1.1 7.6 2.2 6.1 1.6 10.4 3 12.8 4s4.3 2.6 5.7 4.5c1.4 2 2.1 4.4 2.1 7.4 0 2.9-.8 5.6-2.5 8.1s-4.1 4.5-7.3 5.9c-3.2 1.4-6.7 2.1-10.7 2.1-6.6 0-11.7-1.4-15.1-4.1-3.7-3.1-5.9-7.2-6.9-12.6zM574.8 204.2v-70.3h8.6v25.2c4-4.7 9.1-7 15.3-7 3.8 0 7.1.7 9.8 2.2 2.8 1.5 4.8 3.5 6 6.2 1.2 2.6 1.8 6.4 1.8 11.4v32.3h-8.6v-32.3c0-4.3-.9-7.5-2.8-9.4-1.9-2-4.5-3-7.9-3-2.6 0-5 .7-7.2 2-2.3 1.3-3.9 3.1-4.8 5.4-1 2.3-1.4 5.4-1.4 9.4v27.9h-8.8zM638.3 143.8v-9.9h8.6v9.9h-8.6zm0 60.4v-50.9h8.6v50.9h-8.6zM668.9 204.2v-50.9h7.8v7.2c3.7-5.6 9.1-8.4 16.2-8.4 3.1 0 5.9.6 8.5 1.7 2.6 1.1 4.5 2.6 5.8 4.3 1.3 1.8 2.2 3.9 2.7 6.4.3 1.6.5 4.4.5 8.4v31.3h-8.6v-31c0-3.5-.3-6.1-1-7.9-.7-1.7-1.9-3.1-3.6-4.2-1.7-1-3.7-1.6-6-1.6-3.7 0-6.9 1.2-9.5 3.5s-4 6.8-4 13.3v27.8h-8.8zM730.8 208.5l8.4 1.2c.4 2.6 1.3 4.5 2.9 5.7 2.1 1.6 5.1 2.4 8.8 2.4 4 0 7.1-.8 9.3-2.4 2.2-1.6 3.6-3.8 4.4-6.7.4-1.8.7-5.5.6-11.1-3.8 4.4-8.5 6.7-14.1 6.7-7 0-12.4-2.5-16.3-7.6-3.8-5.1-5.8-11.1-5.8-18.2 0-4.9.9-9.3 2.6-13.5 1.8-4.1 4.3-7.3 7.7-9.5s7.3-3.4 11.8-3.4c6 0 11 2.4 14.9 7.3v-6.1h8v44c0 7.9-.8 13.6-2.4 16.9-1.6 3.3-4.2 5.9-7.7 7.8-3.5 1.9-7.8 2.9-12.9 2.9-6.1 0-11-1.4-14.7-4.1s-5.6-6.8-5.5-12.3zm7.2-30.7c0 6.7 1.3 11.6 4 14.6 2.7 3.1 6 4.6 10 4.6s7.3-1.5 10-4.6c2.7-3.1 4-7.8 4-14.4 0-6.2-1.4-10.9-4.1-14.1s-6.1-4.7-10-4.7c-3.8 0-7.1 1.6-9.8 4.7s-4.1 7.8-4.1 13.9z"/></g><path d="M662.5 337.6s-49.1 0-90.1-8.2c-24.8-5-40.5-13-49.1-18.6v-6.3s-1.3 1.3-4.1 3.4c-2.8-2.1-4.1-3.4-4.1-3.4v6.3c-8.6 5.6-24.3 13.7-49.1 18.6-40.9 8.2-90.1 8.2-90.1 8.2L318.6 485s49.1-16.4 114.6-16.4 65.5 16.4 65.5 16.4h41s0-16.4 65.5-16.4S719.8 485 719.8 485l-57.3-147.4z" id="Layer_4"/><g id="Layer_2"><path fill="#090983" d="M355.5 448.2l40.9-106.4s16.4-8.2 40.9-24.6c24.6-16.4 32.8-32.8 49.1-32.8 16.4 0 32.8 16.4 32.8 16.4v131s-16.4-24.6-40.9-24.6-32.8 41-122.8 41M687.1 448.2l-40.9-106.4s-16.4-8.2-40.9-24.6c-24.6-16.4-32.8-32.8-49.1-32.8-16.4 0-32.8 16.4-32.8 16.4v131s16.4-24.6 40.9-24.6 32.7 41 122.8 41"/></g><g id="Layer_5"><path d="M355.5 452.2h-6l43.6-113.5 1.4-.7c.2-.1 16.5-8.3 40.5-24.3 9.1-6.1 15.9-12.2 21.9-17.5 10-8.9 17.8-15.9 29.5-15.9 17.9 0 34.9 16.9 35.6 17.6l1.2 1.2v146.1l-7.5-11.2c-.2-.2-15.5-22.7-37.5-22.7-7.1 0-12.9 4.3-21 10.3-16.4 12.2-41.2 30.6-101.7 30.6zm44.2-107.6L361.4 444c53.4-1.1 75-17.1 90.9-28.9 9-6.7 16.1-12 25.9-12 16.4 0 29.3 9.8 36.8 17.4v-118c-3.9-3.5-16.6-14.1-28.7-14.1-8.6 0-14.7 5.5-24 13.9-5.9 5.3-13.2 11.8-22.8 18.2-20.6 13.8-35.3 21.8-39.8 24.1z"/><path d="M693 452.2h-6c-60.5 0-85.4-18.4-101.8-30.6-8.1-6-14-10.3-21-10.3-22 0-37.4 22.5-37.5 22.7l-7.5 11.2V299.1l1.2-1.2c.7-.7 17.8-17.6 35.6-17.6 11.7 0 19.5 7 29.5 15.9 6 5.3 12.8 11.4 21.9 17.5 24 16 40.3 24.2 40.5 24.3l1.4.7L693 452.2zm-128.8-49.1c9.8 0 16.9 5.3 25.9 12 15.9 11.8 37.5 27.8 90.9 28.9l-38.2-99.4c-4.5-2.4-19.3-10.3-39.9-24.1-9.6-6.4-16.9-13-22.8-18.2-9.3-8.3-15.5-13.9-24.1-13.9-12.1 0-24.8 10.5-28.7 14.1v118c7.7-7.6 20.5-17.4 36.9-17.4z"/></g></svg>
