<svg id="Layer_1" xmlns="http://www.w3.org/2000/svg" viewBox="0 0 500 500"><g><path fill="#090983" d="M215.67 76.04c-2.8 10.82-10.92 18.85-25.38 18.85-19.03 0-28.64-14.46-28.64-32.56 0-17.35 9.61-32.93 28.92-32.93 15.02 0 23.14 8.58 25.1 19.22h-8.4c-2.33-7-6.9-12.22-16.98-12.22-14.09 0-19.78 12.78-19.78 25.66 0 12.59 5.41 25.75 20.15 25.75 9.8 0 14.09-5.69 16.51-11.85h8.49v.08zM279.11 76.04c-2.8 10.82-10.92 18.85-25.38 18.85-19.03 0-28.64-14.46-28.64-32.56 0-17.35 9.61-32.93 28.92-32.93 15.02 0 23.14 8.58 25.1 19.22h-8.4c-2.24-7-6.9-12.22-16.98-12.22-14.09 0-19.78 12.78-19.78 25.66 0 12.59 5.41 25.75 20.15 25.75 9.8 0 14.09-5.69 16.51-11.85h8.49v.08zM291.51 30.33h24.44c13.43 0 19.68 7.18 19.68 15.95 0 7.46-4.2 12.22-9.14 13.9 4.48 1.4 11.29 5.88 11.29 15.21 0 12.03-9.14 18.66-21.27 18.66h-25V30.33zm22.77 26.58c9.24 0 12.78-3.64 12.78-9.89 0-5.69-4.01-9.61-11.57-9.61h-15.86v19.5h14.65zm-14.56 30.23h15.77c7.93 0 13.53-3.73 13.53-11.75 0-6.9-4.38-11.57-15.21-11.57h-14.09v23.32zM8 204.04v-65.58h24.72c4.38 0 7.65.19 9.98.65 3.27.56 5.88 1.59 8.12 3.08 2.15 1.49 3.92 3.64 5.22 6.34 1.31 2.71 1.96 5.69 1.96 8.96 0 5.6-1.77 10.26-5.32 14.18-3.55 3.82-9.98 5.78-19.22 5.78H16.68v26.68H8v-.09zm8.68-34.43h16.98c5.6 0 9.61-1.03 11.94-3.17 2.33-2.05 3.55-5.04 3.55-8.86 0-2.71-.65-5.13-2.05-7.09s-3.17-3.27-5.5-3.82c-1.49-.37-4.2-.56-8.12-.56h-16.8v23.5zM107.54 204.04v-7c-3.73 5.41-8.77 8.02-15.11 8.02-2.8 0-5.41-.56-7.84-1.59-2.43-1.12-4.2-2.43-5.41-4.01-1.21-1.59-2.05-3.64-2.52-5.97-.37-1.59-.47-4.1-.47-7.56v-29.48h8.02v26.4c0 4.2.19 7 .47 8.49.47 2.15 1.59 3.82 3.27 4.94 1.68 1.21 3.64 1.77 6.06 1.77 2.43 0 4.66-.65 6.81-1.87 2.15-1.21 3.64-2.89 4.48-5.04s1.31-5.22 1.31-9.33v-25.47h8.02v47.49h-7.09v.21zM142.99 204.04h-7.46v-65.58h8.02v23.42c3.36-4.29 7.74-6.44 13.06-6.44 2.89 0 5.69.56 8.3 1.77s4.76 2.8 6.44 4.94c1.68 2.15 2.99 4.66 3.92 7.74.93 2.99 1.4 6.25 1.4 9.7 0 8.12-2.05 14.46-6.06 18.85-4.01 4.38-8.86 6.62-14.46 6.62-5.6 0-9.98-2.33-13.25-7v5.97h.09zm-.09-24.07c0 5.69.75 9.8 2.33 12.31 2.52 4.1 5.97 6.25 10.26 6.25 3.55 0 6.53-1.49 9.14-4.57s3.82-7.65 3.82-13.71c0-6.25-1.21-10.82-3.73-13.71-2.43-2.99-5.41-4.38-8.96-4.38-3.55 0-6.53 1.49-9.14 4.57s-3.72 7.45-3.72 13.24zM194.68 204.04v-65.58h8.02v65.58h-8.02zM223.51 147.69v-9.24h8.02v9.24h-8.02zm0 56.35v-47.49h8.02v47.49h-8.02zM248.79 189.86l7.93-1.21c.47 3.17 1.68 5.6 3.73 7.37 2.05 1.68 4.94 2.52 8.58 2.52 3.73 0 6.44-.75 8.21-2.24 1.77-1.49 2.71-3.27 2.71-5.32 0-1.87-.75-3.27-2.33-4.29-1.12-.75-3.82-1.59-8.21-2.71-5.88-1.49-9.98-2.8-12.31-3.82-2.24-1.12-4.01-2.61-5.22-4.48-1.21-1.96-1.77-4.01-1.77-6.34 0-2.15.47-4.1 1.49-5.88.93-1.77 2.33-3.27 3.92-4.48 1.21-.93 2.99-1.68 5.13-2.33 2.15-.65 4.48-.93 7-.93 3.73 0 7 .56 9.8 1.59 2.8 1.12 4.94 2.52 6.25 4.38s2.24 4.29 2.8 7.37l-7.84 1.12c-.37-2.43-1.4-4.38-3.08-5.69-1.68-1.4-4.1-2.05-7.28-2.05-3.73 0-6.34.65-7.93 1.87-1.59 1.21-2.33 2.61-2.33 4.29 0 1.03.37 1.96 1.03 2.8.65.84 1.68 1.59 3.08 2.15.84.28 3.17 1.03 7.09 2.05 5.69 1.49 9.7 2.8 11.94 3.73s4.01 2.43 5.32 4.2c1.31 1.87 1.96 4.1 1.96 6.9 0 2.71-.75 5.22-2.33 7.56-1.59 2.33-3.82 4.2-6.81 5.5s-6.25 1.96-9.98 1.96c-6.16 0-10.92-1.31-14.09-3.82-3.48-2.91-5.53-6.74-6.46-11.77zM306.16 204.04v-65.58h8.02v23.51c3.73-4.38 8.49-6.53 14.27-6.53 3.55 0 6.62.65 9.14 2.05 2.61 1.4 4.48 3.27 5.6 5.78 1.12 2.43 1.68 5.97 1.68 10.64v30.13h-8.02V173.9c0-4.01-.84-7-2.61-8.77-1.77-1.87-4.2-2.8-7.37-2.8-2.43 0-4.66.65-6.72 1.87-2.15 1.21-3.64 2.89-4.48 5.04-.93 2.15-1.31 5.04-1.31 8.77v26.03h-8.2zM365.4 147.69v-9.24h8.02v9.24h-8.02zm0 56.35v-47.49h8.02v47.49h-8.02zM393.95 204.04v-47.49h7.28v6.72c3.45-5.22 8.49-7.84 15.11-7.84 2.89 0 5.5.56 7.93 1.59 2.43 1.03 4.2 2.43 5.41 4.01 1.21 1.68 2.05 3.64 2.52 5.97.28 1.49.47 4.1.47 7.84v29.2h-8.02v-28.92c0-3.27-.28-5.69-.93-7.37-.65-1.59-1.77-2.89-3.36-3.92-1.59-.93-3.45-1.49-5.6-1.49-3.45 0-6.44 1.12-8.86 3.27-2.43 2.15-3.73 6.34-3.73 12.41v25.94h-8.21v.08zM451.7 208.05l7.84 1.12c.37 2.43 1.21 4.2 2.71 5.32 1.96 1.49 4.76 2.24 8.21 2.24 3.73 0 6.62-.75 8.68-2.24 2.05-1.49 3.36-3.55 4.1-6.25.37-1.68.65-5.13.56-10.36-3.55 4.1-7.93 6.25-13.15 6.25-6.53 0-11.57-2.33-15.21-7.09-3.55-4.76-5.41-10.36-5.41-16.98 0-4.57.84-8.68 2.43-12.59 1.68-3.82 4.01-6.81 7.18-8.86s6.81-3.17 11.01-3.17c5.6 0 10.26 2.24 13.9 6.81v-5.69H492v41.05c0 7.37-.75 12.69-2.24 15.77-1.49 3.08-3.92 5.5-7.18 7.28s-7.28 2.71-12.03 2.71c-5.69 0-10.26-1.31-13.71-3.82-3.46-2.55-5.24-6.37-5.14-11.5zm6.71-28.64c0 6.25 1.21 10.82 3.73 13.62 2.52 2.89 5.6 4.29 9.33 4.29s6.81-1.4 9.33-4.29c2.52-2.89 3.73-7.28 3.73-13.43 0-5.78-1.31-10.17-3.82-13.15s-5.69-4.38-9.33-4.38c-3.55 0-6.62 1.49-9.14 4.38-2.52 2.88-3.83 7.27-3.83 12.96z"/></g><path d="M387.98 328.49s-45.81 0-84.06-7.65c-23.14-4.66-37.78-12.13-45.81-17.35v-5.88s-1.21 1.21-3.82 3.17c-2.61-1.96-3.82-3.17-3.82-3.17v5.88c-8.02 5.22-22.67 12.78-45.81 17.35-38.16 7.65-84.06 7.65-84.06 7.65L67.15 466s45.81-15.3 106.91-15.3 61.11 15.3 61.11 15.3h38.25s0-15.3 61.11-15.3S441.44 466 441.44 466l-53.46-137.51z" id="Layer_4"/><path fill="#fff" d="M101.57 431.67l38.16-99.26s15.3-7.65 38.16-22.95c22.95-15.3 30.6-30.6 45.81-30.6 15.3 0 30.6 15.3 30.6 15.3v122.21s-15.3-22.95-38.16-22.95-30.6 38.25-114.57 38.25M410.93 431.67l-38.16-99.26s-15.3-7.65-38.16-22.95c-22.95-15.3-30.6-30.6-45.81-30.6-15.3 0-30.6 15.3-30.6 15.3v122.21s15.3-22.95 38.16-22.95 30.51 38.25 114.57 38.25"/><g id="Layer_5"><path d="M101.57 435.4h-5.6l40.68-105.89 1.31-.65c.19-.09 15.39-7.74 37.78-22.67 8.49-5.69 14.83-11.38 20.43-16.33 9.33-8.3 16.61-14.83 27.52-14.83 16.7 0 32.56 15.77 33.21 16.42l1.12 1.12v136.3l-7-10.45c-.19-.19-14.46-21.18-34.98-21.18-6.62 0-12.03 4.01-19.59 9.61-15.3 11.38-38.44 28.55-94.88 28.55zm41.24-100.38l-35.73 92.73c49.82-1.03 69.97-15.95 84.8-26.96 8.4-6.25 15.02-11.2 24.16-11.2 15.3 0 27.33 9.14 34.33 16.23V295.74c-3.64-3.27-15.49-13.15-26.77-13.15-8.02 0-13.71 5.13-22.39 12.97-5.5 4.94-12.31 11.01-21.27 16.98-19.22 12.87-32.93 20.33-37.13 22.48z"/><path d="M416.43 435.4h-5.6c-56.44 0-79.67-17.17-94.97-28.55-7.56-5.6-13.06-9.61-19.59-9.61-20.52 0-34.89 20.99-34.98 21.18l-7 10.45v-136.3l1.12-1.12c.65-.65 16.61-16.42 33.21-16.42 10.92 0 18.19 6.53 27.52 14.83 5.6 4.94 11.94 10.64 20.43 16.33 22.39 14.93 37.6 22.58 37.78 22.67l1.31.65 40.77 105.89zm-120.16-45.81c9.14 0 15.77 4.94 24.16 11.2 14.83 11.01 34.98 25.94 84.8 26.96l-35.64-92.73c-4.2-2.24-18.01-9.61-37.22-22.48-8.96-5.97-15.77-12.13-21.27-16.98-8.68-7.74-14.46-12.97-22.48-12.97-11.29 0-23.14 9.8-26.77 13.15v110.08c7.18-7.08 19.12-16.23 34.42-16.23z"/></g></svg>
