<svg xmlns="http://www.w3.org/2000/svg" viewBox="0 0 500 500"><path d="M254.93 172.28c-24.62 32.63-32.32 68.33-22.16 107.73 1.23 4.62 6.46 10.77.92 14.47-4.62 3.08-9.85-2.46-14.47-4.92-52.63-32.01-59.1-86.8-15.7-130.5 11.7-11.7 24.32-22.47 36.94-33.55 30.78-26.47 41.86-60.33 37.24-100.03-.31-3.69-.31-7.69-.62-11.7 0-.31.62-.62 2.15-2.77 24.62 19.08 40.63 42.48 43.4 73.87 2.46 26.47-8.93 49.55-19.08 72.95-4 8.93-8.31 17.85-7.69 28.01.92 16.01 12.93 23.39 27.39 16.62 9.54-4.31 15.08-12.31 19.08-21.24 8.93-20.62 12.93-41.86 11.7-64.33-.31-3.08-1.54-7.69 2.15-9.23 4-1.85 5.85 2.46 8 4.92 29.86 40.94 42.78 86.49 32.63 136.97-5.23 25.55-19.7 45.55-41.55 60.02-7.69 4.92-15.7 10.16-23.7 14.77-32.01 18.47-49.55 46.17-53.86 82.8-.92 6.77-2.46 13.54-3.69 20.01 0 .62-1.23 1.23-2.46 2.15-6.46-2.77-7.69-9.54-9.85-15.08-19.7-48.32-4-98.49 41.55-133.58 13.85-10.77 28.01-21.24 37.86-36.94-5.85 3.08-11.39 5.85-17.24 8.93-11.39 5.85-23.39 9.85-36.32 9.85-22.78-.31-37.55-14.16-39.4-36.94-1.22-18.47 3.7-35.71 6.78-53.26z" fill="#0082c8"/><path d="M481.47 463.77c-38.47 9.85-74.18 13.54-109.27 18.16-57.25 7.08-114.81 11.7-172.67 9.54-45.86-1.85-91.72-4.92-135.12-22.47-13.24-5.23-25.85-12-35.4-22.78-15.08-17.24-14.77-35.4.92-52.33 12.62-13.54 28.93-21.55 45.86-28.32 41.55-16.62 85.57-24.01 129.58-29.55 3.39-.31 6.77-1.23 9.85 1.54-.62 5.85-6.16 5.54-9.54 7.39-17.24 8-34.47 16.62-48.63 29.55-24.32 22.47-21.55 47.09 8 62.48 28.32 14.77 59.4 18.47 90.8 21.85 66.79 7.08 133.58 6.46 200.68 3.08 6.78-.91 14.16-2.15 24.94 1.86z"/></svg>
