<svg id="Layer_1" xmlns="http://www.w3.org/2000/svg" viewBox="0 0 500 500"><path fill="#fff" d="M39.75 221.85C39.75 103.71 135.47 8 253.61 8s213.85 95.71 213.85 213.85S371.75 435.7 253.61 435.7c-118.14-.67-213.86-96.39-213.86-213.85"/><path d="M53.12 221.85c0-110.44 90.05-200.49 200.49-200.49S454.1 111.41 454.1 221.85s-90.05 200.49-200.49 200.49c-111.12 0-200.49-90.05-200.49-200.49" fill="#fafae3"/><path fill="#981a3c" d="M253.61 428c-113.72 0-206.15-92.43-206.15-206.15S139.88 15.7 253.61 15.7s206.15 92.43 206.15 206.15S367.22 428 253.61 428zm0-400.97c-107.38 0-194.82 87.44-194.82 194.82s87.44 194.82 194.82 194.82 194.82-87.44 194.82-194.82S360.99 27.03 253.61 27.03z"/><path fill="#981a3c" d="M383.75 289.36c2.83 2.15 3.51 7.7 0 9.17-4.87 2.15-7.02 5.66-7.7 11.21-2.15 18.24-21.86 21.86-37.27 22.54-12.01.68-17.56 2.15-22.54 9.17-1.36 2.83-4.19 9.17-4.87 11.21-8.5 19.03-1.36 42.93-2.83 40.1-2.83-4.87-11.21-25.37-42.25-35.23-8.5-2.83-66.83-19.71-85.07-21.86 0 0 4.19-6.34 4.19-7.7 0-2.15-.68-9.17-4.87-12.01-37.27-21.86-52.1-42.93-64-71.7-12.01-29.56-23.9-58.33 4.19-99.9 14.05-20.39 42.25-37.27 59.13-40.78C208.53 76.19 275.35 72 317.6 86.84c25.37 8.5 49.27 16.88 65.47 34.43 34.43 37.95 15.52 73.17 1.36 83.03-3.51 2.83-6.34 6.34-6.34 10.53 0 7.7-.68 10.53 9.17 21.86 7.7 8.5 12.01 12.69-.68 23.22-1.36 1.36-1.36 3.51-.68 5.66.68 2.83.68 4.19 1.36 6.34.68 1.36 2.83 3.51.68 7.02-.68 1.26-2.83 7.6-4.19 10.43"/><path fill="#fff" d="M314.09 220.49c2.15-7.7 10.53-13.37 17.56-15.52 6.34-2.15 9.17 3.51-1.36 5.66-3.51 1.37-10.53 2.73-16.2 9.86M321.8 226.72c2.15 2.15 6.34 2.15 7.02 4.19 1.36 2.83 4.87 9.85 5.66 11.21 1.36.68 2.15 2.15 2.15 4.87v9.17c0 9.17 5.66 10.53 7.7 7.02 1.36 4.19 1.36 20.39-2.83 24.58-2.83 2.15-7.02 5.66-9.85 7.7 6.34-11.21 6.34-14.73 2.83-27.41-2.15-7.02-9.85-21.07-12.01-23.9-2.15-2.83-2.83-10.53-.68-12.01-.68-.68-1.36-.68-2.15-2.15 1.36.68 2.83-.68 1.36-2.15-1.36-1.36-4.87-4.19-4.87-4.19 2.15 1.03 5.67 3.07 5.67 3.07M346.49 289.36l5.66-4.19c-.68 2.15-1.36 3.51-.68 6.34l-4.98-2.15zM345.02 286.53c1.36-2.15 5.66-5.66 6.34-7.02.68-2.15.68-4.19-.68-7.02-2.15-2.83-3.51-7.7-1.36-12.69-.68 5.66 1.36 9.17 2.83 11.21 1.36 2.15 4.87 7.7 1.36 9.17-2.15 2.16-7.02 4.99-8.49 6.35M326.78 216.19c6.34 10.53-3.51 13.37-6.34 2.83 2.83 4.19 7.7 3.51 6.34-2.83M193.12 98.05c30.24-12.69 64-9.85 96.39-.68 35.91 10.53 62.64 33.75 66.15 61.96 3.51 27.41-1.36 33.75-10.53 32.4 0 0 0-31.6-7.7-42.93 4.19 12.69 6.34 31.6 2.83 40.1 0-9.85-9.85-41.46-20.39-52.78 8.5 12.69 12.69 26.73 13.37 37.27-3.51-11.21-10.53-29.56-24.58-44.97-18.24-19.71-29.56-28.09-58.33-33.75-19.26-4.32-44.52.55-57.21 3.38"/><path fill="#fff" d="M256.44 99.41c20.39 4.87 42.93 18.24 53.46 35.91 14.73 22.54 21.07 39.42 21.07 57.65 0 1.36 1.36 1.36 2.15.68.68-.68 2.15 0 2.83 1.36.68 2.15 2.83 3.51 2.83 5.66 1.36-.68 6.34.68 4.19 6.34-4.87 10.53-4.87 23.22 2.83 28.09 11.21 7.02 13.37 14.05 9.85 16.88-.68-4.87-4.87-11.21-10.53-14.73-7.02-4.87-11.21-14.73-7.7-23.22 4.87-12.69-.68-13.37-4.87-12.01-2.83.68-12.69 2.83-15.52 5.66 2.15-4.87 4.87-10.53 5.66-12.69.68-1.36 1.36-2.15 2.83.68 1.36 2.15 2.15 3.51 2.83 5.66 5.66-16.2-8.5-44.97-21.07-64.68-10.06-18.21-33.28-32.26-50.84-37.24M344.34 297.86c-4.87 2.83-7.02 9.85-7.7 14.73-1.36 9.17-4.87 15.52-16.2 18.24-3.51.68-16.88 2.83-21.07 2.83-7.02 0-13.37 2.83-19.71 10.53-2.83 3.51-5.66 9.85-9.17 14.73l8.5 3.51c-.68-7.02 2.83-14.73 4.19-16.88 4.87-9.85 12.01-9.17 16.2-9.85 4.87-.68 18.24-2.15 21.86-2.83 12.01-2.83 16.88-9.85 18.24-18.24 1.34-6.24 2.7-15.41 4.86-16.77"/><path fill="#981a3c" d="M188.14 356.19c2.15 0 2.15 0 2.15 2.15v8.5c0 1.36 0 1.36-2.15 1.36v.68h5.66v-.68c-2.15 0-2.15 0-2.15-1.36v-3.51h2.15c2.15 3.51 3.51 5.66 4.19 5.66h2.15l-2.83-2.83-2.15-2.83c1.36-.68 2.83-2.15 2.83-3.51 0-2.15-2.15-3.51-4.19-3.51l-5.66-.12zm4.3 0h1.36c1.36 0 2.83.68 2.83 2.83s-.68 3.51-2.83 3.51h-1.36v-6.34zm14.05 6.34c0-7.02-5.66-12.69-12.69-12.69-7.02 0-12.69 5.66-12.69 12.69 0 7.02 5.66 12.69 12.69 12.69 7.02 0 12.69-5.66 12.69-12.69m-2.16 0c0 5.66-4.87 11.21-10.53 11.21-5.66 0-10.53-4.87-10.53-11.21 0-5.66 4.87-11.21 10.53-11.21 6.34 0 10.53 4.87 10.53 11.21M154.38 465.27v-11.21h-1.36c0 .68-.68 1.36-1.36 1.36-1.36 0-4.19-1.36-8.5-1.36-9.85 0-12.01 7.02-12.01 9.85 0 2.15 0 7.02 9.17 11.21l3.51 1.36c3.51 1.36 5.66 2.83 5.66 6.34 0 .68 0 5.66-6.34 5.66-7.02 0-9.85-5.66-10.53-11.21h-1.36v12.69h1.36c0-.68.68-1.36 1.36-1.36 1.36 0 4.19 1.36 9.17 1.36 9.85 0 13.37-6.34 13.37-10.53 0-5.66-4.19-8.5-5.66-9.17l-7.7-3.51c-4.19-2.15-5.66-3.51-5.66-6.34 0-3.51 2.83-4.87 5.66-4.87 6.34 0 9.17 5.66 10.53 9.85h.68v-.12zM172.73 488.49c-2.15 0-2.83-1.36-2.83-2.83v-19.71h-9.85v1.36c2.15.68 2.83.68 2.83 2.83v15.52c0 2.83-.68 2.83-2.83 2.83v1.36h12.69v-1.36zm-10.53-30.24c0 2.15 1.36 4.19 4.19 4.19 2.15 0 4.19-1.36 4.19-4.19 0-2.15-2.15-4.19-4.19-4.19-2.15-.12-4.19 2.03-4.19 4.19M202.98 488.49c-2.83 0-2.83-1.36-2.83-2.83v-12.69c0-5.66-4.19-7.02-7.02-7.02-4.19 0-7.02 2.83-7.7 4.19v-3.51h-9.85v1.36c2.15 0 2.83.68 2.83 2.83v15.52c0 2.83-.68 2.83-2.83 2.83v1.36h12.57v-1.36c-2.15 0-2.83-1.36-2.83-2.83v-14.05c0-.68 2.15-2.83 4.19-2.83 2.83 0 2.83 2.83 2.83 4.19v12.69c0 2.15-.68 2.83-2.83 2.83v1.36h12.69v-2.15h.79v.11zM226.88 484.18c-1.36 1.36-2.83 2.83-5.66 2.83-4.19 0-7.02-4.19-7.02-11.21 0-2.15.68-8.5 4.19-8.5.68 0 2.15.68 2.15 2.15 0 2.83 0 5.66 2.83 5.66.68 0 3.51 0 3.51-3.51s-4.19-5.66-8.5-5.66c-4.87 0-12.69 2.83-12.69 13.37 0 6.34 4.19 12.01 11.21 12.01 4.19 0 7.7-2.15 9.85-5.66v-1.47h.13zM238.09 475.12c0-7.02 2.15-8.5 3.51-8.5 2.15 0 2.83 1.36 2.83 2.15.68 1.36.68 4.19.68 5.66h-7.02v.69zm12.69 8.38c-.68 1.36-2.83 3.51-6.34 3.51-4.87 0-6.34-4.87-6.34-9.85h13.37c0-2.83-.68-12.01-9.85-12.01-6.34 0-11.21 4.87-11.21 12.69 0 9.17 5.66 12.69 10.53 12.69 4.19 0 7.02-1.36 10.53-6.34l-.69-.69zM290.87 488.49c-4.87 0-5.66-1.36-5.66-4.87v-29.56h-.68l-13.37 5.66v1.36c2.15-.68 3.51-1.36 4.19-1.36 2.15 0 2.15 2.15 2.15 3.51v19.71c0 3.51 0 4.87-6.34 4.87v1.36h19.71v-.68zM296.54 490.53c16.2-1.36 23.22-11.21 23.22-21.07 0-12.69-7.02-15.52-12.01-15.52-9.85 0-11.21 8.5-11.21 11.21 0 9.17 5.66 10.53 9.85 10.53h2.83c.68 0 1.36-.68 2.15-.68-2.83 9.85-9.17 12.69-14.05 13.37v2.15l-.78.01zm7.7-27.41c0-4.19 0-7.02 3.51-7.02s4.19 3.51 4.19 13.37c0 1.36 0 3.51-.68 4.87 0 .68-1.36.68-2.15.68-4.19-.69-4.87-4.88-4.87-11.9M325.31 463.12c.68-1.36 2.83-4.19 6.34-4.19 4.19 0 5.66 2.15 5.66 5.66 0 4.87-4.19 5.66-7.02 7.02v.68c4.19 1.36 10.53 3.51 10.53 10.53 0 4.87-2.83 6.34-5.66 6.34-3.51 0-4.87-4.87-9.17-4.87-1.36 0-3.51 1.36-3.51 2.83 0 3.51 3.51 4.87 7.7 4.87 9.85 0 16.2-6.34 16.2-13.37 0-3.51-2.15-7.7-6.34-9.17 2.15-1.36 4.19-2.83 4.19-6.34 0-4.87-3.51-7.02-9.17-7.02-6.34 0-10.53 4.87-12.01 7.7l2.26-.67zM374.58 454.73h-21.86l-2.15 11.21h1.36c1.36-4.19 3.51-4.19 4.87-4.19h11.21l-10.53 27.41h4.87l12.23-34.43z"/></svg>
