<svg xmlns="http://www.w3.org/2000/svg" viewBox="0 0 500 500"><path d="M148.97 298.34c1.86 12.59 3.5 23.78 5.13 36.13-12.59 2.8-19.58-3.73-20.51-18.88-1.63-24.01 23.54-47.56 54.08-49.42v-49.42h-37.76c1.17 11.89 2.56 24.24 3.96 36.83-18.65-4.43-22.15-18.65-20.05-35.43 2.33-16.78 26.81-31.94 55.48-33.8 0-6.76.93-13.75-.23-20.28-3.73-23.31 4.9-40.33 22.61-55.71 28.44-24.71 55.01-51.75 82.52-77.39 4.43-3.96 10.49-8.39 15.85-8.39 48.25-.7 96.74-.47 151.52-.47-23.54 21.45-42.89 38.7-61.31 56.65-4.66 4.43-9.32 11.66-9.56 17.72-.7 87.18-.47 174.37-.47 268.31 20.05-24.71 45.69-36.83 53.38-64.11-9.79-3.96-16.78-6.76-23.78-9.56.7-2.33 1.4-4.43 1.86-6.76 11.19 0 22.85-1.86 33.34.7 6.53 1.63 15.39 9.79 15.85 15.62 1.86 24.94 1.17 50.12.47 75.06 0 4.2-4.2 8.63-7.23 12.12-7.69 8.39-16.32 16.08-24.01 24.48-12.59 13.99-25.18 27.97-48.25 20.28-.7 13.99-9.09 27.74 12.82 30.3-20.51 23.08-20.51 23.08-41.03 5.59 4.43-10.96 8.39-20.75 14.22-34.5h-89.05c-60.14 0-120.29-.47-180.2.47-14.92.23-24.24-5.59-35.43-14.45-31.47-24.48-41.26-54.55-39.4-94.41 3.5-67.14.47-134.51 1.63-201.64.23-10.49 7.69-21.21 13.05-31.24 2.1-4.2 6.76-7.23 10.49-10.72 20.51-19.81 38-49.65 62.24-56.88 33.57-9.79 72.03-2.56 109.8-2.56.47 8.16.7 14.92 1.17 24.71-8.63 0-16.55 1.4-23.78-.23-38.46-8.16-61.31 15.15-82.99 40.56-2.8 3.5-4.9 8.86-4.9 13.29-.23 91.38-.23 182.99-.23 274.14 52.68 13.05 72.96-9.79 68.07-76.93-11.63.22-23.28.22-39.37.22zm125.65-56.41c0 6.99-.7 12.82.23 18.18 4.43 25.88-6.29 44.29-25.64 60.84-19.58 16.78-36.83 36.37-58.28 58.05h182.06V242.16c-32.63-.23-63.87-.23-98.37-.23zm97.91-82.76V79.21h-96.51v79.96h96.51zm1.4 14.46h-97.91v53.62h97.91v-20.28-33.34z" fill="#900"/></svg>
