<svg xmlns="http://www.w3.org/2000/svg" viewBox="0 0 1000 500"><g id="Layer_4"><path fill="#0024aa" d="M474.7 171.8c12 0 22.9 4.1 31.8 10.8V97.5h-63.6v85.1c8.9-6.7 19.8-10.8 31.8-10.8zM421.7 224.8c0-12 4.1-22.9 10.8-31.8h-63.9v63.6h63.9c-6.6-8.9-10.8-19.8-10.8-31.8zM516.9 193c6.7 8.9 10.8 19.8 10.8 31.8s-4.1 22.9-10.8 31.8h63.9V193h-63.9zM474.7 277.8c-12 0-22.9-4.1-31.8-10.8v222.9h63.6v-223c-8.8 6.8-19.8 10.9-31.8 10.9z"/></g><g id="Layer_3"><path fill="#0024aa" d="M697.4 18C627.5 18 564.7 48.1 521 95.9c38.9-29 87.1-46.1 139.3-46.1 128.8 0 233.3 104.4 233.3 233.3 0 80-40.3 150.5-101.6 192.6 84.7-36.6 144-120.9 144-219.1C936 124.8 829.2 18 697.4 18zM205.9 376.1h-52.3v-33.4c0-9.7-.6-15.8-1.7-18.2-1.1-2.4-3.6-3.6-7.4-3.6-4.3 0-7 1.5-8.2 4.4s-1.7 9.3-1.7 19v89.2c0 9.3.6 15.4 1.7 18.3 1.2 2.8 3.8 4.3 7.8 4.3 3.9 0 6.4-1.4 7.6-4.3 1.2-2.9 1.8-9.6 1.8-20.1v-24.2h52.3v7.5c0 19.9-1.5 34-4.4 42.3-2.9 8.3-9.4 15.6-19.5 21.9-10.1 6.3-22.5 9.4-37.2 9.4-15.3 0-28-2.7-37.9-8S90.3 468 87 458.6c-3.2-9.4-4.8-23.5-4.8-42.3v-56.1c0-13.8.5-24.2 1.5-31.2s4-13.6 8.9-20 11.8-11.5 20.5-15.1c8.7-3.7 18.8-5.5 30.1-5.5 15.4 0 28.1 2.8 38.1 8.5s16.6 12.8 19.8 21.3c3.1 8.5 4.7 21.7 4.7 39.6v18.3zM384.9 376.1h-52.3v-33.4c0-9.7-.6-15.8-1.7-18.2-1.1-2.4-3.6-3.6-7.4-3.6-4.3 0-7 1.5-8.2 4.4-1.2 2.9-1.7 9.3-1.7 19v89.2c0 9.3.6 15.4 1.7 18.3 1.2 2.8 3.8 4.3 7.8 4.3 3.9 0 6.4-1.4 7.6-4.3 1.2-2.9 1.8-9.6 1.8-20.1v-24.2h52.3v7.5c0 19.9-1.5 34-4.4 42.3-2.9 8.3-9.4 15.6-19.5 21.9s-22.5 9.4-37.2 9.4c-15.3 0-28-2.7-37.9-8s-16.5-12.6-19.8-22-4.8-23.5-4.8-42.3v-56.1c0-13.8.5-24.2 1.5-31.2 1-6.9 4-13.6 8.9-20s11.8-11.5 20.5-15.1c8.7-3.7 18.8-5.5 30.1-5.5 15.4 0 28.1 2.8 38.1 8.5s16.6 12.8 19.8 21.3c3.1 8.5 4.7 21.7 4.7 39.6v18.3z"/><path fill="#0024aa" d="M743.8 288.4v201.5h-52.2l-.1-136-20.8 136h-37L611.8 357l-.1 132.9h-52.2V288.4h77.3c2.3 12.1 4.7 26.4 7.1 42.8l8.5 51.2 13.7-94.1h77.7z"/></g></svg>
