<svg xmlns="http://www.w3.org/2000/svg" viewBox="0 0 500 500"><path d="M497 82.78c-32.02 38.99-42.48 80.14-13.94 125.19-1.66 1.16-3.32 2.41-4.98 3.57-6.06-2.16-12.94-3.07-17.92-6.64-20.82-14.68-41.23-29.95-61.47-45.46-7.8-5.97-14.19-6.39-23.31-1.83-51.68 25.55-105.44 45.63-163.18 51.35-69.35 6.89-135.39-3.65-192.72-46.96-20.41-15.43-19-18.67 2.65-32.27 66.2-41.89 138.38-60.48 216.28-59.65 55.42.58 103.62 22.57 149.41 50.52 12.94 7.88 21.74 7.72 33.93-.5 21.82-14.77 44.96-27.79 67.53-41.48 2.49 1.43 5.15 2.84 7.72 4.16zM31.84 140.52c19.74 10.37 36.83 24.39 55.92 28.12 23.64 4.73 39.74-14.1 53.59-32.94 2.82 21.57-11.61 32.44-26.38 43.55 81.38 28.95 206.57 11.53 259.33-35.01-107.18-78.46-253.61-74.07-342.46-3.72zm416.88 25.14c3.82-18.25 7.55-35.84 11.7-55.33-15.18 9.79-29.53 19.08-44.96 28.95 12.52 9.87 23.14 18.33 33.26 26.38z"/><path d="M109.16 105.1c5.72 1.74 6.97 9.37 2.07 12.78-3.15 2.16-5.72 3.82-8.54 4.65-.83.25-1.99-.25-3.15-1.16-3.65-2.65-3.9-8.05-.58-11.12 2.32-2.07 4.73-4.07 7.47-5.23.66-.34 1.57-.25 2.73.08zM138.28 125.18c1.83-.91 2.57-3.07 1.66-4.89-2.07-3.82-6.89-5.14-10.62-2.99l-7.3 4.15c-2.74 1.58-2.57 5.89.5 6.89 3.07 1.07 8.05.9 15.76-3.16z"/><g><path d="M50.09 288.03h31.52v62.22h.66c3.15-5.39 6.47-10.45 9.62-15.43l31.94-46.79h39.07l-46.71 59.9 49.03 80.8h-37.17L93.7 367.92l-12.11 14.85v45.96h-31.5v-140.7zM297.23 374.8c-.66-16.92-1.24-37.33-1.24-57.82h-.66c-4.4 17.92-10.2 38-15.68 54.5l-17.09 54.92h-24.81l-15.02-54.5c-4.56-16.51-9.37-36.5-12.69-54.92h-.41c-.83 19-1.49 40.73-2.49 58.24l-2.49 53.43h-29.53l8.96-140.7h42.39l13.77 46.96c4.4 16.26 8.79 33.85 11.86 50.27h.66c3.98-16.26 8.79-34.84 13.36-50.52l15.02-46.79h41.56l7.72 140.7h-31.11l-2.08-53.77zM355.89 395.96c8.54 4.4 21.74 8.79 35.26 8.79 14.6 0 22.32-6.06 22.32-15.26 0-8.79-6.72-13.77-23.56-19.83-23.39-8.13-38.58-21.07-38.58-41.56 0-23.98 20.08-42.39 53.26-42.39 15.85 0 27.54 3.32 35.92 7.13l-7.13 25.63c-5.64-2.74-15.68-6.72-29.45-6.72s-20.49 6.22-20.49 13.61c0 8.96 7.96 12.94 26.13 19.83 24.81 9.21 36.5 22.15 36.5 41.98 0 23.56-18.17 43.64-56.74 43.64-16.09 0-31.94-4.15-39.9-8.54l6.46-26.31z"/></g></svg>
