<svg xmlns="http://www.w3.org/2000/svg" viewBox="0 0 1000 500"><path d="M816 47.3c-38.6 47-51.2 96.6-16.8 150.9-2 1.4-4 2.9-6 4.3-7.3-2.6-15.6-3.7-21.6-8-25.1-17.7-49.7-36.1-74.1-54.8-9.4-7.2-17.1-7.7-28.1-2.2-62.3 30.8-127.1 55-196.7 61.9-83.6 8.3-163.2-4.4-232.3-56.6-24.6-18.6-22.9-22.5 3.2-38.9C323.4 53.4 410.4 31 504.3 32c66.8.7 124.9 27.2 180.1 60.9 15.6 9.5 26.2 9.3 40.9-.6 26.3-17.8 54.2-33.5 81.4-50 3 1.7 6.2 3.4 9.3 5zm-560.7 69.6c23.8 12.5 44.4 29.4 67.4 33.9 28.5 5.7 47.9-17 64.6-39.7 3.4 26-14 39.1-31.8 52.5 98.1 34.9 249 13.9 312.6-42.2-129.2-94.6-305.7-89.3-412.8-4.5zm502.5 30.3c4.6-22 9.1-43.2 14.1-66.7-18.3 11.8-35.6 23-54.2 34.9 15.1 11.9 27.9 22.1 40.1 31.8z"/><path d="M348.5 74.2c6.9 2.1 8.4 11.3 2.5 15.4-3.8 2.6-6.9 4.6-10.3 5.6-1 .3-2.4-.3-3.8-1.4-4.4-3.2-4.7-9.7-.7-13.4 2.8-2.5 5.7-4.9 9-6.3.8-.4 1.9-.3 3.3.1zM383.6 98.4c2.2-1.1 3.1-3.7 2-5.9-2.5-4.6-8.3-6.2-12.8-3.6l-8.8 5c-3.3 1.9-3.1 7.1.6 8.3 3.7 1.3 9.7 1.1 19-3.8z"/><g><path d="M277.3 294.7h38v75h.8c3.8-6.5 7.8-12.6 11.6-18.6l38.5-56.4h47.1L357 366.9l59.1 97.4h-44.8L329.9 391l-14.6 17.9v55.4h-38V294.7zM575.2 399.3c-.8-20.4-1.5-45-1.5-69.7h-.8c-5.3 21.6-12.3 45.8-18.9 65.7l-20.6 66.2h-29.9l-18.1-65.7c-5.5-19.9-11.3-44-15.3-66.2h-.5c-1 22.9-1.8 49.1-3 70.2l-3 64.4H428l10.8-169.6h51.1l16.6 56.6c5.3 19.6 10.6 40.8 14.3 60.6h.8c4.8-19.6 10.6-42 16.1-60.9l18.1-56.4h50.1l9.3 169.6h-37.5l-2.5-64.8zM645.9 424.8c10.3 5.3 26.2 10.6 42.5 10.6 17.6 0 26.9-7.3 26.9-18.4 0-10.6-8.1-16.6-28.4-23.9-28.2-9.8-46.5-25.4-46.5-50.1 0-28.9 24.2-51.1 64.2-51.1 19.1 0 33.2 4 43.3 8.6l-8.6 30.9c-6.8-3.3-18.9-8.1-35.5-8.1s-24.7 7.5-24.7 16.4c0 10.8 9.6 15.6 31.5 23.9 29.9 11.1 44 26.7 44 50.6 0 28.4-21.9 52.6-68.4 52.6-19.4 0-38.5-5-48.1-10.3l7.8-31.7z"/></g></svg>
