<svg xmlns="http://www.w3.org/2000/svg" viewBox="0 0 2629.4 882"><g data-name="Layer 4" fill="#d78f3a"><path d="M363.3 677S248.8 856 130.4 858.6s-84.2-86.8-75-100 36.8-30.3 63.2-26.3 50 19.7 55.3 46.1c0 0 100-50 123.7-109.2zM579.7 677s114.4 179 232.9 181.6 84.2-86.8 75-100-36.8-30.3-63.2-26.3-50 19.7-55.3 46.1c0 0-100-50-123.7-109.2z"/></g><g data-name="Layer 2" fill="#832c93"><path d="M29.1 83.6v579s39.5 65.8 163.2 32.9 203.9-2.6 203.9-2.6 42.1-63.7 64.5-83.8-284.3-495.2-284.3-495.2S133 137.6 29.1 83.6z"/><path d="M913.8 83.6v579s-39.5 65.8-163.2 32.9-203.9-2.6-203.9-2.6-42.1-63.7-64.5-83.8 284.2-495.2 284.2-495.2 43.5 23.7 147.4-30.3z"/></g><g data-name="Layer 3" fill="#bb4731"><path d="M150.1 32.3v538.2s18.4 51.3 102.6 35.5 78.9-25.5 211.8 3V77s-19.7-19.7-55.3-30.4c-46-13.8-63.2-9-150 23.8-19.4 7.4-35.9-.8-51.3-5.3-27.3-7.9-46.6-22.7-57.8-32.8zM790.3 32.3v538.2s-18.4 51.3-102.6 35.5-78.9-25.5-211.8 3V77s19.7-19.7 55.3-30.4c46-13.8 63.2-9 150 23.8 19.4 7.4 35.9-.8 51.3-5.3 27.3-7.9 46.7-22.7 57.8-32.8z"/></g><path d="M288.2 216s-16.3 19.8-22 30-13.5 19.1-12.7 26.5 3.5 12.5 6.7 14 12.2 1.8 16-3.1 4.5-11.9 12-15.7 38.1-13.8 50.1-14.8c0 0 12-.9 18.3 10.2s10.3 17.1 13.8 18.9 4.8.5 5.6.2a18.8 18.8 0 0 0 11.9-12.8c2.7-9.8-1.5-15.6-1.5-15.6s-12.3-23.4-16-28.9-27.9-52.3-28.8-54.2-15.8-21.5-15.8-21.5a33.7 33.7 0 0 0-10-3.4c-5.8-1-12.5 1-17.4 5.1s-7 8.1-6.4 11.7 3.5 6.4 5.9 6.6 6-.1 8.5 4.1-.2 10-.2 10-9.7 22.2-18 32.7z" fill="#f5f08f" data-name="Layer 5"/><path d="M304.8 228.2s6-15.8 10.3-20.8 5.7-3.7 7.8-3.7 4.2 2.2 4.8 3.3 5 7.7 5.4 12.5.3 8.1-1.4 10.3-4.3 5.6-8.6 6.9-7.5 2.4-12.8 1.8-6.9-2.7-6.9-6.2a8.5 8.5 0 0 1 1.4-4.1z" fill="#bb4731" data-name="Layer 6"/><g data-name="Layer 7"><path d="M255.3 359.9s12.3 17.1 14 26.7-1 43.9-1.8 47.9-2 9.7-5.6 12.9-11.6 8.6-13.9 13.7-6 10.1-2.5 19.1 9.4 10.8 14.7 11.7 16.8-2.1 19.1-3.9 7.6-6.3 10-20.9-4.2-41.4-4.8-47.1-.9-23 4.7-28 9-7.7 16.4-7.5 39.5 2.8 47.3 5.2 11.2 3.7 12.5 5.9.6-2.5 1.8 5.9 2.9 38.4 1.6 47.2-2.7 19.4-1.4 22.9 1.8 5.9 4.7 6.9 6.7.7 8.8-3 1.1-19.2 1.2-21.3.6-50.5-1.6-68.5-1.6-19.3-5.3-26.1-11.5-11.5-14.3-12.2a72.7 72.7 0 0 0-14.7-2.5c-8.6-.6-21.7.8-37.2 1.6s-15 2.1-24.9 1.1-8.3-3.4-12.9-7.1-3.3-7.9-10.1-9.5-8.2 5-8.2 5-.9 1.1-1.5 7.4 3.9 16.5 3.9 16.5zM575.4 137.5a16.7 16.7 0 0 0-8.6 12.1 52.8 52.8 0 0 0 1.2 20.5s7.8 14.2 8.6 17.5 1.6 6.4 0 9.3-6.6 11.2-8.6 17.3-4.7 17.9-3.4 24.8 4.9 13.9 5.4 20.5.9 5.9-.8 9.2-4.1 9.6-3.4 13.1 1.6 7.8 7.6 9.8 13.4 1.3 17 .4 15.9-5.2 19.2-16.2 6-22.5.5-30.1-10.2-14.4-15.3-19.9-8.7-11.1-3.3-14.9 8.8-2.8 11.4-.9 43.1 39.1 50.1 49.3 11.5 16.7 15.2 20.6 9.2 8.4 14.3 5.5 10.7-12.6 10.6-17.4 0-19.2-3.4-23.6-6.3-10.4-13.5-18.3-6.2-5.2-7.4-10.3 5.4-4.7 7.5-5.5 8.3-2.5 11.2-10.2 7.3-21.3 2.2-28.1-14.7-13-15.3-16.6-4.6-12.8-8.9-15.9-11.8-.8-14.8 2.5-9 10.5-8.1 20.3 3.4 20.2 6.9 26 .8 8.2.8 8.2-2.6 4.2-7.9-.3-30.7-26-33.4-30.4-24-23.1-25-25.3-5.8-3.7-8.6-3zM572.5 358.7c-3.4-.1-19.6-1.4-33.4 25.1s-8.9 51.2-5.2 64.2 17.1 35.7 47.8 42.4c12.9 2.8 24.5-7.2 31.6-12.2s9.9-3.9 9.9-3.9 4.8-.3 9 5.3 15 8.7 21.1 9.6 29.1.7 45.1-20.2 21.1-43.4 19-58.5-14.5-40.7-26.3-49.3-25.7-1.3-25.7-1.3a11 11 0 0 0-5.1 12.3c2.1 8.5 11.8 8.3 19.1 21.6s8 24.8 7.8 28.9-.4 27.6-15.9 35.3-23.3-.9-24.1-1.6-12.3-10-10.5-29.6 4-36.3 3.2-43.4-.3-19.5-17.3-20.1-16.6 22.1-16.6 22.1 2.4 36.7 1.8 44.3-.2 23.5-10.4 27.1-18.6 6-31.3-5.3-6.1-42-6.1-42 13.5-29.4 20.1-32.7c4.9-2.5 7.2-17.7-7.6-18.1z" fill="#f4f18f"/><path d="M1096.9 382.3q-23.7 8.5-44.7 8.5-36.7 0-59.1-22T970.7 311q0-36.3 22.3-58.9t58.3-22.5q20.4 0 43.6 7v21.7q-23.7-10.9-44.4-10.9-23.9 0-39.3 17.5t-15.4 44.6q0 27.3 17.4 44.7t44.7 17.4q16.5 0 39-8.6zM1128.8 310.1q0-36.8 18.1-58.7t48.5-21.9q30.5 0 48.5 21.9t18.1 58.7q0 36.9-18.1 58.8t-48.5 21.9q-30.5 0-48.5-21.9t-18.1-58.8zm25.2 0q0 30.2 10.7 46.6t30.6 16.4q19.9 0 30.7-16.4t10.8-46.6q0-30.1-10.8-46.4t-30.7-16.4q-19.9 0-30.6 16.4t-10.8 46.4zM1302 387.1V232.8h22.4l70.5 111.7h.2V232.8h19.3v154.3h-21.8l-71-112.8h-.4v112.8zM1585.6 382.3q-23.7 8.5-44.7 8.5-36.7 0-59.1-22t-22.4-57.8q0-36.3 22.3-58.9t58.3-22.5q20.4 0 43.6 7v21.7q-23.7-10.9-44.4-10.9-23.9 0-39.3 17.5t-15.4 44.6q0 27.3 17.4 44.7t44.7 17.4q16.5 0 39-8.6zM1617.4 310.1q0-36.8 18.1-58.7t48.5-21.9q30.5 0 48.5 21.9t18.1 58.7q0 36.9-18.1 58.8t-48.5 21.9q-30.5 0-48.5-21.9t-18.1-58.8zm25.2 0q0 30.2 10.7 46.6T1684 373q19.9 0 30.7-16.4t10.8-46.6q0-30.1-10.8-46.4t-30.7-16.3q-19.9 0-30.6 16.4t-10.8 46.4zM1795 387.1V233.3h43q26.8 0 37.3 4.4 22.3 9.2 22.3 32.6 0 16.1-7.7 26.8T1864 317l53.1 70h-28.6l-48.5-64h-21.3v64zm23.6-81.7h12.4q19.1 0 30.2-8.4t11.1-22.7q0-13.3-8.4-18.3t-30.9-4.9h-14.5zM1951.4 387.1V233.3h46.4q76.7 0 76.7 73.8 0 34.2-16.7 55.3a57.9 57.9 0 0 1-25.7 19q-15.3 5.7-40.7 5.7zm23.6-17.7h11.9q33.8 0 48.1-13.4t14.3-45.1q0-32.1-12.9-46t-43.2-13.9H1975zM2100.1 387.1l60.7-153.8h23.6l60.7 153.8h-25l-14.5-38.5h-70.3l-14.8 38.5zm42.2-56.2h56.2l-28.2-73.5zM2279.3 387.1V232.8h22.4l70.5 111.7h.2V232.8h19.3v154.3h-21.8l-71-112.8h-.4v112.8zM2486.6 387.1V251h-59.1v-17.7h141.9V251h-59.2v136.1z" fill="#bb4731" stroke="#bb4731" stroke-miterlimit="10" stroke-width="15"/><path d="M983.4 554.7v-98.9h26.9q11.6 0 17.9 1.9a21 21 0 0 1 10.3 6.7q5.3 6.4 5.3 17.3 0 15.8-10.7 24.7t-29.7 9h-6.2v39.3zm13.9-49.9h5.7q12.5 0 19.3-5.7t6.8-16.3q0-8.8-5.4-12.6t-17.8-3.8h-8.6zM1066.6 455.8h14v62.4q0 14.9 5.5 21.7t17.5 6.8q11.7 0 16.6-6.4t4.9-21.6v-62.9h12.4v62.7q0 13-2.5 19.9a27.9 27.9 0 0 1-9.2 12.2q-8.3 6.5-22.8 6.5-18.8 0-27.6-9.5t-8.9-29.6zM1170.6 554.7v-98.9h25.7q14.8 0 22.8 5.6t7.9 16.2a23.9 23.9 0 0 1-5.3 15.2q-5.3 6.7-15 10.4 24.3 7.4 24.3 26.8a24.2 24.2 0 0 1-5.3 15.4 21.9 21.9 0 0 1-9.8 7.2q-5.7 2.1-16 2.1zm13.9-55.5h4.5q11.3 0 17.4-4.8t6.1-13.7q0-14.4-22.6-14.4h-5.5zm0 45h2.9q15.4 0 19.9-1.9 8.7-3.7 8.7-13.6t-7.9-14.7q-7.9-5.8-19.7-5.8h-3.9zM1257.7 554.7v-98.9h14v88.4h44.5v10.5zM1339 554.7v-98.9h14v98.9zM1380.7 552.9V539q16.7 7.8 27.5 7.8 8.2 0 13.3-4.4a14.4 14.4 0 0 0 5-11.4 15.2 15.2 0 0 0-3.3-9.9q-3.3-4.1-12.2-9.1l-6.8-3.9q-12.6-7.2-17.8-13.6a22.8 22.8 0 0 1-5.2-14.8 24.2 24.2 0 0 1 8.3-18.9q8.3-7.4 21.1-7.4a84 84 0 0 1 24.1 3.8V470q-15.6-6.1-23.3-6.1a18.4 18.4 0 0 0-12 3.9 12.1 12.1 0 0 0-4.7 9.8 12.6 12.6 0 0 0 3.5 8.8q3.5 3.8 12.7 9.1l7.1 4q12.8 7.3 17.9 13.8a24.5 24.5 0 0 1 5.1 15.6q0 12.9-9.5 20.7t-25.2 7.8q-10.1-.2-25.6-4.5zM1468.9 554.7v-98.9h14v41.7h47v-41.7h14v98.9h-14V508h-47v46.7zM1577.7 554.7v-98.9h14v98.9zM1625.6 554.7v-98.9h13.8l49.8 76.4v-76.4h12v98.9h-13.7l-49.9-76.4v76.4zM1809.3 552.1q-18 5.1-31.3 5.1-23.6 0-36.2-13.4t-12.6-38.5q0-24.7 12.8-38.3t36-13.6a117.9 117.9 0 0 1 31.2 4.5v13q-20.5-6.9-31.3-7-16 0-24.9 10.9t-8.9 30.6q0 19.6 9.5 30.5t26.6 10.9a52.3 52.3 0 0 0 15.2-2.5V512h14zM1968.3 549.7a68.6 68.6 0 0 1-31.9 7.6q-23.1 0-35.6-13.5t-12.6-38.4q0-24.8 12.8-38.4t36.1-13.6q13.2 0 31.1 4.3v13.2q-20.3-7-31.3-7-16.1 0-24.9 10.9t-8.8 30.7q0 19 9.4 29.9t25.8 10.9q14 0 30-8.6zM2037.4 557.2q-21.1 0-33.6-14.1t-12.6-37.8q0-23.7 12.6-37.8t33.6-14.1q21.1 0 33.6 14.1t12.6 37.8q0 23.7-12.6 37.8t-33.6 14.1zm0-10.5q14.8 0 23.1-11t8.3-30.6q0-19.4-8.3-30.4t-23.1-10.9q-14.8 0-23.1 10.9t-8.3 30.4q0 19.6 8.3 30.6t23.1 11zM2111.7 554.7v-98.9h13.8l49.8 76.4v-76.4h12v98.9h-13.7l-49.9-76.4v76.4zM2295.4 549.7a68.6 68.6 0 0 1-31.9 7.6q-23.1 0-35.6-13.5t-12.6-38.4q0-24.8 12.8-38.4t36.1-13.6q13.2 0 31.1 4.3v13.2q-20.3-7-31.3-7-16.1 0-24.9 10.9t-8.8 30.7q0 19 9.4 29.9t25.8 10.9q14 0 30-8.6zM2324.2 554.7v-98.9h55.3v10.5h-41.2V498h34.6v10.4h-34.6v35.8h44.1v10.5zM2406.7 554.7v-98.9h29.9q14.2 0 21.8 6.3t7.6 18.2a28.2 28.2 0 0 1-5.2 16.8 33.2 33.2 0 0 1-14.7 11.3l33 46.3h-17.2l-28.2-41.8h-13.1v41.8zm13.9-52.3h4.6q13 0 19.8-5.3t6.8-15.4q0-15.4-22.2-15.4h-8.8zM2501.6 554.7v-98.9h13.8l49.8 76.4v-76.4h12v98.9h-13.7l-49.9-76.4v76.4z" fill="#832c93"/></g></svg>
