<svg id="Layer_1" xmlns="http://www.w3.org/2000/svg" viewBox="0 0 500 500"><style>.st0{fill:#d78f3a}.st1{fill:#832c93}.st2{fill:#bb4731}.st4{fill:#f4f18f}</style><path class="st0" d="M149.9 385.6c-17.1 30.2-66 54.7-66 54.7-3-14.7-16.1-23.5-30.9-25.7-14.7-2.2-30.1 7.3-35.3 14.7-5.1 7.4-24.2 57.2 41.8 55.8 58.1-1.3 114.6-78.8 127.3-97.3-9.4-1.6-21.9-2.7-36.9-2.2zM312.9 387.6c12.7 18.5 69.1 96.1 127.3 97.4 66.1 1.5 47-48.4 41.8-55.8-5.1-7.4-20.5-16.9-35.3-14.7-14.7 2.2-27.9 11-30.9 25.7 0 0-48.9-24.5-66-54.7-14.9-.4-27.4.7-36.9 2.1z"/><path class="st1" d="M127.9 344.1c-47 8.8-57.2-19.8-57.2-19.8V72.4c-12.9.4-34.9-2.8-67.5-19.8v323s22 36.7 91 18.4c21-5.6 39.8-7.9 55.7-8.4 15-.5 27.5.6 37 2.1 13.5 2.1 21 4.9 21 4.9s23.5-35.5 36-46.7c.1-.1.2-.3.3-.4-72.3-15.6-69.7-10.2-116.3-1.4zM427.8 72.3v251.9s-10.3 28.6-57.2 19.8c-46.3-8.7-44.1-14.1-115.1 1 .1.3.3.5.5.7 12.5 11.2 36 46.7 36 46.7s7.5-2.8 21.1-4.9c9.5-1.5 22-2.6 37-2.1 15.9.5 34.7 2.8 55.7 8.4 69 18.4 91-18.4 91-18.4v-323c-33.9 17.8-56.3 20.6-69 19.9z"/><path class="st2" d="M131.5 45.3c-10.8 4.1-20-.4-28.6-3-15.2-4.4-26-12.7-32.2-18.3v300.3s10.3 28.6 57.2 19.8c46.6-8.7 44.1-14.1 116.4 1.3.6.1 1.2.3 1.8.4V48.9s-11-11-30.9-17c-25.7-7.6-35.3-4.9-83.7 13.4zm16.2 81.2c4.6-5.9 10-18.2 10-18.2s1.5-3.2.1-5.6c-1.4-2.3-3.4-2.2-4.7-2.3-1.3-.1-3-1.7-3.3-3.7-.3-2 .8-4.2 3.6-6.5 2.7-2.3 6.5-3.4 9.7-2.8 1.9.3 3.8 1 5.6 1.9 0 0 8.3 10.9 8.8 12s14 27.2 16.1 30.2c2.1 3.1 8.9 16.1 8.9 16.1s2.3 3.2.8 8.7c-.9 3.3-3.4 6-6.6 7.1-.4.2-1.2.9-3.1-.1-2-1-4.2-4.4-7.7-10.5-3.5-6.2-10.2-5.7-10.2-5.7-6.7.6-23.8 6.1-27.9 8.3-4.2 2.1-4.6 6-6.7 8.8-2.1 2.7-7.1 2.6-8.9 1.7s-3.3-3.7-3.7-7.8 3.9-9.1 7.1-14.8c3-5.8 12.1-16.8 12.1-16.8zm51.7 144.7c-1.2 2.1-3.3 2.2-4.9 1.7-1.6-.6-1.9-1.9-2.6-3.8-.7-2 .1-7.9.8-12.8.7-4.9-.2-21.6-.9-26.3s-.3-2.1-1-3.3-2.6-2-7-3.3c-4.4-1.3-22.3-2.8-26.4-2.9-4.1-.1-6 1.4-9.1 4.2-3.1 2.8-3 12.4-2.6 15.6s4 18.1 2.7 26.3c-1.3 8.1-4.3 10.7-5.6 11.7-1.3 1-7.7 2.7-10.7 2.2-3-.5-6.2-1.5-8.2-6.5-2-5 .1-7.8 1.4-10.7 1.3-2.8 5.7-5.9 7.8-7.6s2.7-5 3.1-7.2 2-21.4 1-26.7c-.9-5.4-7.8-14.9-7.8-14.9s-2.5-5.7-2.2-9.2c.3-3.5.8-4.1.8-4.1s.8-3.7 4.6-2.8c3.8.9 3.1 3.2 5.6 5.3s1.7 3.4 7.2 4c5.5.6 5.2-.2 13.9-.6 8.6-.4 16-1.2 20.8-.9 2.8.2 5.5.6 8.2 1.4 1.6.4 5.9 3 8 6.8 2.1 3.8 1.7 4.5 3 14.6 1.2 10 .9 37 .9 38.2-.2.9.4 9.6-.8 11.6zM370.5 344.1c47 8.8 57.2-19.8 57.2-19.8V24c-6.2 5.6-17 13.9-32.2 18.3-8.6 2.5-17.8 7.1-28.6 3-48.4-18.3-58-21-83.7-13.3-19.9 6-30.9 17-30.9 17v296.8c1-.2 2.1-.4 3.1-.7 71-15.1 68.8-9.7 115.1-1zm-61.9-233.5c-.4-1.8-4.8-9.8-4.8-9.8-1-3.7-1.2-7.6-.7-11.4.5-2.9 2.2-5.4 4.8-6.8 1.6-.4 4.2.4 4.8 1.7.6 1.2 12.4 11.7 13.9 14.1 1.5 2.5 15.7 14.4 18.6 17s4.4.2 4.4.2 1.5-1.3-.4-4.6c-2-3.2-3.3-9-3.8-14.5s2.8-9.5 4.5-11.3c1.7-1.8 5.9-3.1 8.3-1.4s4.6 6.9 5 8.9c.3 2 5.7 5.5 8.5 9.3 2.8 3.8.4 11.4-1.2 15.7-1.6 4.3-5.1 5.2-6.2 5.7-1.2.4-4.9.2-4.2 3.1.7 2.8.1 1.3 4.1 5.7 4 4.4 5.6 7.8 7.5 10.2 1.9 2.5 1.8 10.5 1.9 13.2.1 2.7-3.1 8.1-5.9 9.7-2.8 1.6-5.9-.9-8-3.1-2.1-2.2-4.6-5.8-8.5-11.5-3.9-5.7-26.5-26.4-27.9-27.5-1.5-1.1-3.3-1.6-6.4.5-3 2.1-1 5.2 1.8 8.3 2.8 3.1 5.5 6.9 8.5 11.1 3.1 4.2 1.6 10.7-.3 16.8-1.8 6.1-8.7 8.5-10.7 9s-6.1.9-9.5-.2-3.8-3.5-4.2-5.5c-.4-2 .9-5.5 1.9-7.3.9-1.8.7-1.5.4-5.1-.3-3.7-2.3-7.6-3-11.4-.7-3.8.8-10.4 1.9-13.8 1.1-3.4 3.9-8 4.8-9.7 1-1.7.5-3.4.1-5.3zm2.8 169c-17.1-3.7-24.6-16.4-26.7-23.7s-4.8-21 2.9-35.8 16.7-14.1 18.6-14c8.3.2 7 8.7 4.2 10.1-3.7 1.8-11.2 18.2-11.2 18.2s-3.7 17.1 3.4 23.4 11.8 5 17.5 3c5.7-2 5.5-10.9 5.8-15.1.3-4.2-1-24.7-1-24.7s-.2-12.7 9.3-12.3 9.2 7.3 9.7 11.2c.4 4-.8 13.3-1.8 24.2-1 10.9 5.4 16.1 5.9 16.5s4.8 5.2 13.4.9c8.6-4.3 8.8-17.4 8.9-19.7s-.3-8.7-4.4-16.1c-4.1-7.4-9.5-7.3-10.7-12-.7-2.7.5-5.5 2.8-6.9 0 0 7.8-4.1 14.3.7s13.5 19.1 14.7 27.5c1.2 8.4-1.7 21-10.6 32.6-8.9 11.7-21.8 11.8-25.2 11.3s-9.4-2.2-11.8-5.4-5-3-5-3-1.6-.6-5.5 2.2c-3.8 2.8-10.3 8.4-17.5 6.9z"/><path d="M128.3 158c.4 4.1 2 7 3.7 7.8s6.8 1 8.9-1.7c2.1-2.7 2.5-6.6 6.7-8.8 4.2-2.1 21.3-7.7 27.9-8.3 0 0 6.7-.5 10.2 5.7 3.5 6.2 5.7 9.5 7.7 10.5s2.7.3 3.1.1c3.3-1.1 5.7-3.8 6.6-7.1 1.5-5.5-.8-8.7-.8-8.7s-6.9-13.1-8.9-16.1c-2.1-3.1-15.6-29.2-16.1-30.2s-8.8-12-8.8-12c-1.7-.9-3.6-1.6-5.6-1.9-3.2-.6-7 .6-9.7 2.8-2.7 2.3-3.9 4.5-3.6 6.5.3 2 2 3.6 3.3 3.7 1.3.1 3.3-.1 4.7 2.3 1.4 2.3-.1 5.6-.1 5.6s-5.4 12.4-10 18.2c0 0-9.1 11-12.3 16.7-3 5.8-7.3 10.8-6.9 14.9zm28.6-24.7s3.3-8.8 5.7-11.6c2.4-2.8 3.2-2.1 4.4-2.1s2.3 1.2 2.7 1.8c.3.6 2.8 4.3 3 7s.2 4.5-.8 5.7-2.4 3.1-4.8 3.8c-2.4.7-4.2 1.3-7.1 1-3-.3-3.8-1.5-3.8-3.5 0-.6.3-1.4.7-2.1z" fill="#f5f08f"/><path class="st2" d="M160 139c3 .3 4.7-.3 7.1-1 2.4-.7 3.8-2.6 4.8-3.8s1-3.1.8-5.7-2.7-6.4-3-7c-.3-.6-1.5-1.8-2.7-1.8s-2-.7-4.4 2.1c-2.4 2.8-5.7 11.6-5.7 11.6-.5.7-.7 1.5-.8 2.3 0 1.8.9 3 3.9 3.3z"/><path class="st4" d="M200.1 259.4c.1-1.2.3-28.2-.9-38.2-1.2-10-.9-10.8-3-14.6-2.1-3.8-6.4-6.4-8-6.8-2.7-.7-5.4-1.2-8.2-1.4-4.8-.3-12.1.4-20.8.9-8.6.4-8.4 1.2-13.9.6s-4.6-1.9-7.2-4-1.8-4.4-5.6-5.3c-3.8-.9-4.6 2.8-4.6 2.8s-.5.6-.8 4.1c-.3 3.5 2.2 9.2 2.2 9.2s6.9 9.5 7.8 14.9c.9 5.4-.6 24.5-1 26.7s-1.1 5.4-3.1 7.2-6.5 4.8-7.8 7.6c-1.3 2.8-3.3 5.6-1.4 10.7 2 5 5.2 6 8.2 6.5 3 .5 9.4-1.2 10.7-2.2 1.3-1 4.2-3.5 5.6-11.7 1.3-8.1-2.3-23.1-2.7-26.3s-.5-12.8 2.6-15.6c3.1-2.8 5-4.3 9.1-4.2 4.1.1 22 1.6 26.4 2.9 4.4 1.3 6.2 2.1 7 3.3s.3-1.4 1 3.3 1.6 21.4.9 26.3c-.7 4.9-1.5 10.8-.8 12.8s1 3.3 2.6 3.8c1.6.6 3.7.4 4.9-1.7s.7-10.5.8-11.6zM303.8 125.5c-1.1 3.4-2.6 10-1.9 13.8.7 3.8 2.7 7.8 3 11.4.3 3.7.5 3.3-.4 5.1-.9 1.8-2.3 5.4-1.9 7.3.4 2 .9 4.4 4.2 5.5s7.5.7 9.5.2c2-.5 8.9-2.9 10.7-9 1.8-6.1 3.3-12.6.3-16.8-3.1-4.2-5.7-8-8.5-11.1-2.8-3.1-4.9-6.2-1.8-8.3 3-2.1 4.9-1.6 6.4-.5s24 21.8 27.9 27.5c3.9 5.7 6.4 9.3 8.5 11.5 2.1 2.2 5.1 4.7 8 3.1 2.8-1.6 6-7 5.9-9.7-.1-2.7 0-10.7-1.9-13.2s-3.5-5.8-7.5-10.2c-4-4.4-3.5-2.9-4.1-5.7-.7-2.8 3-2.6 4.2-3.1 1.2-.4 4.6-1.4 6.2-5.7 1.6-4.3 4.1-11.9 1.2-15.7-2.8-3.8-8.2-7.3-8.5-9.3-.3-2-2.6-7.1-5-8.9s-6.6-.4-8.3 1.4c-1.7 1.8-5 5.9-4.5 11.3.5 5.5 1.9 11.3 3.8 14.5 2 3.2.4 4.6.4 4.6s-1.5 2.3-4.4-.2-17.1-14.5-18.6-17-13.4-12.9-13.9-14.1c-.6-1.2-3.2-2.1-4.8-1.7-2.6 1.4-4.3 3.9-4.8 6.8-.5 3.8-.3 7.7.7 11.4 0 0 4.4 7.9 4.8 9.8s.9 3.6 0 5.2c-1 1.7-3.8 6.4-4.9 9.8zM334.6 270.6s2.7-.2 5 3 8.4 4.9 11.8 5.4 16.2.4 25.2-11.3c8.9-11.7 11.8-24.2 10.6-32.6-1.2-8.4-8.1-22.7-14.7-27.5s-14.3-.7-14.3-.7c-2.4 1.4-3.5 4.2-2.8 6.9 1.2 4.7 6.6 4.6 10.7 12s4.5 13.8 4.4 16.1-.2 15.4-8.9 19.7c-8.6 4.3-13-.5-13.4-.9s-6.9-5.6-5.9-16.5 2.2-20.3 1.8-24.2c-.4-4-.2-10.9-9.7-11.2S325 221 325 221s1.3 20.5 1 24.7c-.3 4.2-.1 13.1-5.8 15.1s-10.4 3.3-17.5-3-3.4-23.4-3.4-23.4 7.5-16.4 11.2-18.2c2.7-1.4 4-9.9-4.2-10.1-1.9-.1-10.9-.8-18.6 14s-5 28.6-2.9 35.8 9.5 19.9 26.7 23.7c7.2 1.6 13.7-4 17.6-6.8 3.9-2.8 5.5-2.2 5.5-2.2z"/></svg>
