<svg  xmlns="http://www.w3.org/2000/svg" viewBox="0 0 1200 600"><path fill="#BAB7B0" d="M14.9 365.488h47.141V317.84H14.9v47.648zm83.637 0h47.141V317.84H98.537v47.648zM14.9 281.851h47.141v-48.155H14.9v48.155zm83.637 0h47.141v-48.155H98.537v48.155z"/><path fill="#71A8BC" d="M1191.393 244.341c0-5.069-3.548-10.645-10.645-10.645-27.372 0-45.62 64.882-45.62 64.882l-28.893-51.703 15.207-5.069v-3.041h-58.799v3.041l15.207 6.083 37.003 61.841v45.62l-18.755 4.055v3.548h60.827v-3.548l-18.248-5.069v-48.155c1.014-2.028 16.22-49.168 41.565-50.689 6.589.001 11.151-4.054 11.151-11.151M1064.67 354.843l-43.086-116.585h-10.138l-45.62 116.585-13.179 5.069v3.548h37.51v-3.548l-13.179-5.069 12.672-35.482h38.017l12.672 36.496-17.234 4.055v3.548h57.786v-3.548l-16.221-5.069zm-40.551-42.071h-32.948l16.221-45.62 16.727 45.62zm-59.83-63.803l13.703-7.832v-2.372h-37.003v3.041l13.179 7.096-23.317 82.623-28.893-92.761h-9.124l-8.11 23.824-24.331 68.937-24.331-85.158 15.207-5.069v-2.534h-55.758v3.041l15.207 5.069 37.003 116.585h7.096l33.455-89.213 31.427 89.72h6.59l38-114.997zm-239.742 12.607c0-11.658 6.59-19.262 17.741-19.262 12.672 0 23.824 10.138 34.469 31.934h4.055l-3.041-38.524-10.138 6.59c-7.603-3.548-14.7-6.59-24.331-6.59-19.262 0-39.031 14.193-39.031 37.51 0 14.193 7.603 25.345 20.276 31.427l20.276 8.11c17.741 7.603 22.303 13.179 22.303 25.345 0 11.658-8.11 20.276-21.796 20.276-13.179 0-27.372-8.11-39.537-36.496h-4.055l2.534 44.099h3.041l7.096-6.59c7.603 4.055 17.741 7.096 29.4 7.096 20.276 0 42.579-15.207 42.579-40.551 0-15.207-7.603-24.331-23.317-31.934-7.096-3.548-15.207-6.083-21.796-10.138-14.875-7.678-16.728-13.178-16.728-22.302m-106.954 1.013c0-11.658 8.11-19.262 18.755-19.262 12.672 0 24.331 10.138 35.482 31.934h3.041l-3.041-38.524h-3.548l-7.603 6.59c-5.576-4.562-12.165-7.603-22.303-7.603-19.262 0-39.031 14.193-39.031 37.51 0 14.193 7.096 25.345 20.276 31.427l20.276 8.11c17.741 7.603 22.303 13.179 22.303 25.345 0 11.658-8.11 20.276-22.303 20.276-13.179 0-27.372-8.11-39.538-36.496h-4.055l2.028 44.099h4.055l7.603-6.59c7.603 4.055 17.741 7.096 29.4 7.096 21.289 0 42.579-15.207 42.579-40.551 0-15.207-7.096-24.331-22.81-31.934-7.603-3.548-12.008-5.817-22.303-10.138-13.687-5.068-19.263-12.165-19.263-21.289M580.59 301.62c0-35.482-20.276-64.882-60.827-64.882-38.524 0-60.827 30.413-60.827 64.882 0 35.482 20.276 65.896 59.813 65.896 38.524 0 61.841-30.414 61.841-65.896m-26.865 0c0 40.551-14.193 59.813-31.934 59.813-19.262 0-35.482-15.207-35.482-59.813s12.165-60.32 30.413-60.32c19.262 0 37.003 21.289 37.003 60.32m-122.161 61.841l28.961-.136-.068-3.92c-6.083-1.014-15.207-3.548-20.276-7.603-5.069-5.069-8.617-15.207-13.686-26.865-3.548-10.138-11.152-19.262-25.345-22.303v-1.014c24.331-4.055 35.482-17.234 35.482-31.934 0-16.727-15.207-30.413-42.579-30.413h-65.896v3.041l18.248 5.069V355.35l-18.248 4.055v3.548h60.827v-3.548l-19.262-4.055v-49.168h5.069c11.152 0 16.727 2.534 22.303 14.193l9.124 21.796c6.591 15.207 10.139 21.29 25.346 21.29m-48.155-63.869h-13.686v-53.73h13.686c15.207 0 26.865 9.124 26.865 26.865s-12.165 26.865-26.865 26.865m-74.512 57.279l4.055-29.4h-2.534l-21.796 27.879c-5.069 2.028-9.124 3.041-15.207 3.041-25.345 0-44.099-21.796-44.099-59.813 0-40.551 17.741-55.758 34.469-55.758 17.741 0 31.934 12.165 43.086 37.003h4.055l-2.028-44.099h-3.041l-7.096 6.083c-8.11-4.055-20.276-6.083-30.413-6.083-39.031 0-66.91 30.413-66.91 65.896 0 39.031 26.865 64.375 65.896 64.375 17.741 0 28.386-3.041 40.551-8.617"/></svg>
