<svg xmlns="http://www.w3.org/2000/svg" viewBox="0 0 100 100"><path d="M87 82.9c-1.5 1.8-2.8 2.9-4.9 2.8 1.4-2.4 0-4.4-1.1-5.7s-2-3.9-4.3-4.6a1.5 1.5 0 01-.7-1c-.1-1.4-1.3-2.3-1.8-3.5s-2.1-3.2-3.4-4.6-.7-.6-.8-1-2-3-3.2-4.3c1.3-2.4-2-3.8-1.4-6.4-.7 0-1.5-.2-1.9.1l-5.7 3.4.7 1.6c-.1.1-.3.6-.6.6s-2.6 1.4-3.7 2.4l-4.7 4.2.6 1.3-.7.3h-3a3.9 3.9 0 00-2.1.6 22.7 22.7 0 01-8.2 2.2V73c-1.9-.9-3.9-.4-6-.6l-1 2.4c-3 1.2-5.3 3.6-8.2 5a40.6 40.6 0 00-8.5 4.9l.9 1.4-.6.2H10c-.6 0-1.1-1-1.8 0s-.5-.1-.8-.3l-4.2-2.1c1-2.1 3-3 4.7-4.1s2-1.3 2.3-2.5l.2-.2c.5 0 1.1.1 1.3-.1 2.1-2.7 6.1-2.8 7.7-5.6a11.5 11.5 0 002.2.4c2.8-.2 5.3-1.4 8.1-1.4s3.3-2.2 4.9-3.5a33.6 33.6 0 014.3-3.1c2.4-1.4 4.9-1.1 7.9-2.4l4.3-3.4.6 1.4a11 11 0 002.6-1.5 61.2 61.2 0 018.8-6.6 3.3 3.3 0 00-.6-3.7c-1.3-1.4-1.9-3.2-2.7-4.8s-1.9-3.6-3.8-4.9a12.8 12.8 0 00-1.6-7.1A6.6 6.6 0 0154 28c0-2.3-1.2-3.7-3.3-4.8.9-1.4-2.2-3.3.5-4.9l2.6 4.5c.1-1.8.5-2.9-.3-4.1s0-1.8 1-2.4a1.7 1.7 0 011.5 2c-.1 2.1 0 4.2 0 6.4a23.1 23.1 0 012.4 2.9l4.9 8.2c-.3 1.9.9 3.4 1.3 5.1s1.1 1.5 1.4 2.4c-1.6 2.1.8 4.2-.2 6.5a4.4 4.4 0 003.2-.3c.8-.5 2.1-.1 3.5-.1s2.4-2.9 3-4.6 3.1-2.3 2.4-4.6h3c5.6-5.9 6.7-6.2 14.7-10a.2.2 0 01.2.2 8.3 8.3 0 01.2 1.3L86.5 37l1.8.9a24.2 24.2 0 00-11.8 9.4 6.8 6.8 0 004.3-1.8c2.7-2.4 6-4.1 9.1-6a19.7 19.7 0 004.3-3.3c1.9 1.7 3.2-.7 5.1-.1v1.8l-5.7 1.7c-.2 0-.3.3-.5.4-4 2.7-8.4 4.7-12 8l-.4.4 1.2 1.2-.3.4h-3.7a7.9 7.9 0 00-4.4 1.4 8.8 8.8 0 01-2.1 1.2c-1.1.6-1.1.6-1.4 2.5a37.1 37.1 0 002.8 2.6c.9.7 1.3 2 2.5 2.5a2.3 2.3 0 01.7 1c.3 3.6 3 6.3 4 9.6.4 1 1.6 1 2.8 1.2a5.5 5.5 0 00.2 5.8 16.1 16.1 0 004 5.1zm-61.4-9.7a36.4 36.4 0 01-4.3 1.2A13.7 13.7 0 0014 78l.6.8c-6.2 2.7-6.2 2.7-8.5 5.5.4 0 .7.1 1-.1 2.2-1 4.3-2.4 6.7-3s2.4-1.5 3.8-2.1a16.9 16.9 0 003.6-2.3c1.2-.9 2.2-2 3.7-2.4s.4-.6.7-1.2zm10.3-3.8a18.1 18.1 0 012.9-.9c4.5-.6 8-3.3 11.9-5.1.4-.1.4-.9.7-1.6-2.8 1.5-5.3 2.9-8.3 2.8-.8-.1-1.5.6-3.2 1.6s-2.9.7-3.8 1.9-.1.4-.2 1.3zm32.4-11.9l3.1 5.5c1 1.8 3.9 4.3 4.8 7.2a2.4 2.4 0 001.9 1.5C76.9 68.8 72 59.5 71 58.6s-.9-1.6-2.7-1.1zm-6-13.8c1.1-2.9-1.7-4.6-1-7.1a1.6 1.6 0 00-.7-1.3c-1.4-.6-1.3-2-1.9-3.1a14.3 14.3 0 00-1.2-2.1c-.3-.4-.8-.5-1.9-1 1.5 1.9.9 4.1 3 4.7l-.6.8z"/></svg>
