<svg id="Layer_1" xmlns="http://www.w3.org/2000/svg" viewBox="0 0 1500 500"><path fill="#0f3a50" d="M695.8 267.9c-6.4 0-11.5-5.2-11.5-11.5v-9.7c0-6.4 5.2-11.5 11.5-11.5 6.4 0 11.5 5.2 11.5 11.5v9.7c.1 6.4-5.1 11.5-11.5 11.5zM734 303.4c-6.4 0-11.5-5.2-11.5-11.5v-80.7c0-6.4 5.2-11.5 11.5-11.5 6.4 0 11.5 5.2 11.5 11.5v80.7c0 6.4-5.1 11.5-11.5 11.5zM772.2 347.1c-6.4 0-11.5-5.2-11.5-11.5V167.5c0-6.4 5.2-11.5 11.5-11.5 6.4 0 11.5 5.2 11.5 11.5v168.1c0 6.4-5.1 11.5-11.5 11.5z"/><path d="M810.4 319.8c-6.4 0-11.5-5.2-11.5-11.5V194.8c0-6.4 5.2-11.5 11.5-11.5 6.4 0 11.5 5.2 11.5 11.5v113.5c0 6.4-5.2 11.5-11.5 11.5z" fill="#507280"/><path d="M848.5 285.7c-6.4 0-11.5-5.2-11.5-11.5V229c0-6.4 5.2-11.5 11.5-11.5 6.4 0 11.5 5.2 11.5 11.5v45.2c.1 6.3-5.1 11.5-11.5 11.5z" fill="#859fa6"/><circle cx="886.7" cy="251.5" r="11.5" fill="#c0cdd2"/><g><path d="M906.9 69.4H823c-7 0-12.7 5.7-12.7 12.7v20.2c0 7 5.7 12.7 12.7 12.7h83.9c75.1 0 136.6 61.5 136.6 136.6S982 388.2 906.9 388.2H823c-7 0-12.7 5.7-12.7 12.7V421c0 7 5.7 12.7 12.7 12.7h83.9c100.6 0 182.1-81.5 182.1-182.1 0-100.7-81.5-182.2-182.1-182.2z" fill="#c49a42"/></g><g><path fill="#0f3a50" d="M1140.7 219c0 1.8-.3 3.5-.9 4.9s-1.4 2.6-2.5 3.6-2.4 1.7-4 2.2-3.5.8-5.6.8h-2.7v10.4c0 .2-.1.3-.2.5-.1.1-.3.2-.5.3-.3.1-.6.2-1 .2-.4.1-1 .1-1.6.1s-1.2 0-1.6-.1-.8-.1-1-.2c-.3-.1-.4-.2-.5-.3s-.2-.3-.2-.5v-29.4c0-.8.2-1.4.6-1.8.4-.4 1-.6 1.6-.6h7.7c.8 0 1.5 0 2.2.1s1.5.2 2.5.4 2 .6 3 1.1 1.9 1.2 2.6 2 1.2 1.7 1.6 2.8c.3 1 .5 2.2.5 3.5zm-7 .5c0-1.1-.2-2.1-.6-2.8s-.9-1.3-1.5-1.6c-.6-.4-1.2-.6-1.9-.7-.6-.1-1.3-.1-2-.1h-2.8v11.1h3c1.1 0 1.9-.1 2.7-.4s1.3-.7 1.8-1.2.8-1.1 1-1.8c.2-.9.3-1.7.3-2.5zM1169.1 239.3c.2.6.3 1.1.4 1.4.1.4 0 .6-.2.8s-.5.3-1 .3-1.1.1-1.9.1h-2c-.5 0-.8-.1-1.1-.2-.3-.1-.4-.2-.5-.3s-.2-.3-.3-.5l-2.2-6.6H1148l-2.1 6.4-.3.6c-.1.2-.3.3-.5.4-.2.1-.6.2-1 .2s-1 .1-1.8.1-1.4 0-1.8-.1-.7-.2-.9-.4-.2-.5-.2-.8.2-.8.4-1.4l10.1-29c.1-.3.2-.5.4-.7.1-.2.3-.3.6-.4s.7-.2 1.2-.2h4.5c.6 0 1 .1 1.4.2s.6.2.7.4.3.4.4.8l10 28.9zm-15-24l-4.6 13.9h9.3l-4.7-13.9zM1197.9 240.9c0 .2 0 .3-.1.5-.1.1-.2.2-.5.3s-.6.1-1.1.2c-.5 0-1.2.1-2 .1-.7 0-1.3 0-1.7-.1-.4 0-.8-.1-1-.2-.2-.1-.4-.2-.5-.4-.1-.1-.2-.3-.3-.5l-2.9-7.3c-.4-.8-.7-1.6-1-2.2-.3-.6-.7-1.2-1.1-1.6-.4-.4-.9-.8-1.4-1s-1.2-.3-1.9-.3h-2.1v12.4c0 .2-.1.3-.2.5-.1.1-.3.2-.5.3-.3.1-.6.2-1 .2-.4.1-1 .1-1.6.1s-1.2 0-1.6-.1-.8-.1-1-.2c-.3-.1-.4-.2-.5-.3s-.2-.3-.2-.5v-29.7c0-.7.2-1.3.6-1.6s.8-.5 1.4-.5h8.5c.9 0 1.6 0 2.1.1.6 0 1.1.1 1.5.1 1.3.2 2.5.5 3.5 1s1.9 1 2.7 1.8c.7.7 1.3 1.6 1.7 2.6.4 1 .6 2.2.6 3.4 0 1.1-.1 2.1-.4 3s-.7 1.7-1.2 2.4-1.2 1.3-2 1.8-1.7.9-2.7 1.3c.5.2.9.5 1.4.9.4.3.8.7 1.2 1.2s.7 1 1.1 1.6.7 1.3 1 2.1l2.8 6.4c.3.6.4 1.1.5 1.4-.2.4-.1.6-.1.8zm-8.6-22.2c0-1.1-.2-2-.7-2.7s-1.3-1.3-2.4-1.6c-.3-.1-.7-.2-1.1-.2-.4-.1-1-.1-1.8-.1h-3v9.3h3.4c.9 0 1.8-.1 2.5-.3s1.3-.5 1.8-1c.5-.4.8-.9 1.1-1.5.1-.5.2-1.2.2-1.9zM1224 211.8c0 .5 0 .9-.1 1.2 0 .3-.1.6-.2.8s-.2.4-.3.5c-.1.1-.3.2-.4.2h-8.2v26.3c0 .2-.1.3-.2.5-.1.1-.3.2-.5.3-.3.1-.6.2-1 .2-.4.1-1 .1-1.6.1s-1.2 0-1.6-.1-.8-.1-1-.2c-.3-.1-.4-.2-.5-.3s-.2-.3-.2-.5v-26.3h-8.2c-.2 0-.3-.1-.4-.2-.1-.1-.2-.3-.3-.5-.1-.2-.1-.5-.2-.8 0-.3-.1-.8-.1-1.2 0-.5 0-.9.1-1.3 0-.4.1-.6.2-.8s.2-.4.3-.5c.1-.1.3-.1.4-.1h23c.2 0 .3 0 .4.1s.2.2.3.5c.1.2.1.5.2.8.1.4.1.8.1 1.3zM1254.8 239.4c0 .4-.1.7-.2 1s-.3.6-.5.8-.5.3-.8.4c-.3.1-.6.1-.9.1h-2.8c-.6 0-1.1-.1-1.5-.2s-.8-.3-1.2-.6c-.4-.3-.7-.7-1-1.3-.3-.5-.7-1.2-1.1-2.1l-8.1-15.3c-.5-.9-1-1.9-1.4-2.9-.5-1.1-.9-2.1-1.3-3.1h-.1c.1 1.2.1 2.4.2 3.6 0 1.2.1 2.4.1 3.7v17.1c0 .2 0 .3-.1.5-.1.1-.3.2-.5.3s-.5.2-.9.2-.9.1-1.5.1-1.1 0-1.5-.1-.7-.1-.9-.2c-.2-.1-.4-.2-.5-.3s-.1-.3-.1-.5v-29.4c0-.8.2-1.4.7-1.8s1-.6 1.7-.6h3.6c.6 0 1.2.1 1.6.2.4.1.8.3 1.2.5.3.3.7.6 1 1s.6 1 .9 1.7l6.4 11.9c.4.7.7 1.4 1.1 2.1s.7 1.4 1 2.1.7 1.4 1 2.1.6 1.3.9 2c-.1-1.2-.1-2.4-.1-3.7v-19c0-.2.1-.3.2-.5.1-.1.3-.3.5-.4.2-.1.5-.2.9-.2s.9-.1 1.5-.1 1.1 0 1.4.1c.4 0 .7.1.9.2.2.1.4.2.4.4.1.1.1.3.1.5v29.7h-.3zM1281.3 239.2c0 .5 0 .9-.1 1.2 0 .3-.1.6-.2.8s-.2.3-.3.4c-.1.1-.3.1-.4.1h-16.4c-.6 0-1-.2-1.4-.5s-.6-.9-.6-1.6v-28.5c0-.7.2-1.3.6-1.6s.8-.5 1.4-.5h16.3c.2 0 .3 0 .4.1s.2.2.3.4c.1.2.1.5.2.8 0 .3.1.7.1 1.3 0 .5 0 .9-.1 1.2 0 .3-.1.6-.2.8s-.2.3-.3.4c-.1.1-.3.1-.4.1h-11.7v8h9.9c.2 0 .3 0 .4.1s.2.2.3.4c.1.2.1.5.2.8 0 .3.1.7.1 1.2s0 .9-.1 1.2c0 .3-.1.6-.2.8s-.2.3-.3.4c-.1.1-.3.1-.4.1h-9.9v9.2h11.8c.2 0 .3 0 .4.1s.2.2.3.4c.1.2.1.5.2.8.1.7.1 1.1.1 1.6zM1311.4 240.9c0 .2 0 .3-.1.5-.1.1-.2.2-.5.3s-.6.1-1.1.2c-.5 0-1.2.1-2 .1-.7 0-1.3 0-1.7-.1-.4 0-.8-.1-1-.2-.2-.1-.4-.2-.5-.4-.1-.1-.2-.3-.3-.5l-2.9-7.3c-.4-.8-.7-1.6-1-2.2-.3-.6-.7-1.2-1.1-1.6-.4-.4-.9-.8-1.4-1s-1.2-.3-1.9-.3h-2.1v12.4c0 .2-.1.3-.2.5-.1.1-.3.2-.5.3-.3.1-.6.2-1 .2-.4.1-1 .1-1.6.1s-1.2 0-1.6-.1-.8-.1-1-.2c-.3-.1-.4-.2-.5-.3s-.2-.3-.2-.5v-29.7c0-.7.2-1.3.6-1.6s.8-.5 1.4-.5h8.5c.9 0 1.6 0 2.1.1.6 0 1.1.1 1.5.1 1.3.2 2.5.5 3.5 1s1.9 1 2.7 1.8c.7.7 1.3 1.6 1.7 2.6.4 1 .6 2.2.6 3.4 0 1.1-.1 2.1-.4 3s-.7 1.7-1.2 2.4-1.2 1.3-2 1.8-1.7.9-2.7 1.3c.5.2.9.5 1.4.9.4.3.8.7 1.2 1.2.4.5.7 1 1.1 1.6s.7 1.3 1 2.1l2.8 6.4c.3.6.4 1.1.5 1.4-.2.4-.1.6-.1.8zm-8.6-22.2c0-1.1-.2-2-.7-2.7s-1.3-1.3-2.4-1.6c-.3-.1-.7-.2-1.1-.2-.4-.1-1-.1-1.8-.1h-3v9.3h3.4c.9 0 1.8-.1 2.5-.3s1.3-.5 1.8-1c.5-.4.8-.9 1.1-1.5.1-.5.2-1.2.2-1.9zM1335.1 232c0 1.7-.3 3.2-1 4.5-.6 1.3-1.5 2.4-2.6 3.2-1.1.9-2.4 1.5-3.8 2-1.5.4-3 .7-4.7.7-1.1 0-2.2-.1-3.1-.3-1-.2-1.8-.4-2.6-.7s-1.4-.5-1.9-.8-.9-.5-1.1-.8c-.2-.2-.4-.5-.5-.9s-.1-1-.1-1.8c0-.5 0-1 .1-1.3s.1-.6.2-.9c.1-.2.2-.4.3-.5.1-.1.3-.1.4-.1.2 0 .6.1 1 .4.4.3 1 .6 1.7.9.7.3 1.5.6 2.4.9.9.3 2 .4 3.2.4.8 0 1.5-.1 2.2-.3.6-.2 1.2-.5 1.6-.8.4-.4.8-.8 1-1.3s.4-1.1.4-1.7c0-.7-.2-1.4-.6-1.9s-.9-1-1.6-1.4c-.6-.4-1.4-.8-2.2-1.2-.8-.4-1.7-.7-2.6-1.1-.9-.4-1.7-.9-2.6-1.4-.8-.5-1.6-1.1-2.2-1.8s-1.2-1.6-1.6-2.5c-.4-1-.6-2.1-.6-3.5 0-1.6.3-2.9.9-4.1.6-1.2 1.4-2.2 2.3-3 1-.8 2.1-1.4 3.5-1.8 1.3-.4 2.8-.6 4.3-.6.8 0 1.5.1 2.3.2.8.1 1.5.3 2.2.5s1.3.4 1.8.7.9.5 1 .6c.2.2.3.3.3.4.1.1.1.3.2.5s.1.4.1.7v2.3c0 .3-.1.6-.1.8-.1.2-.1.4-.3.5-.1.1-.3.2-.4.2s-.5-.1-.9-.4-.9-.5-1.5-.8-1.3-.5-2-.8c-.8-.2-1.6-.3-2.6-.3-.7 0-1.4.1-1.9.3s-1 .4-1.4.7-.6.7-.8 1.1-.3.9-.3 1.4c0 .7.2 1.3.6 1.9.4.5.9 1 1.6 1.4s1.4.8 2.3 1.2c.8.4 1.7.7 2.6 1.2.9.4 1.7.9 2.6 1.4.8.5 1.6 1.1 2.2 1.8.7.7 1.2 1.6 1.6 2.5.5 1 .7 2.2.7 3.5z"/><path fill="#0f3a50" opacity=".75" enable-background="new" d="M1123.4 292.8c0 .1 0 .3-.1.4s-.2.2-.4.2c-.2.1-.4.1-.7.2-.3 0-.6.1-1 .1s-.7 0-1-.1c-.3 0-.5-.1-.7-.2s-.3-.1-.4-.2-.1-.2-.1-.4v-31.4c0-.1 0-.3.1-.4s.2-.2.4-.2c.2-.1.4-.1.7-.2s.6-.1 1-.1.8 0 1 .1c.3 0 .5.1.7.2s.3.1.4.2.1.2.1.4v31.4zM1156.8 291.7c0 .3-.1.6-.2.9-.1.2-.3.4-.4.6-.2.2-.4.3-.6.3-.2.1-.5.1-.7.1h-1.4c-.5 0-.8 0-1.2-.1-.3-.1-.7-.3-1-.5s-.6-.6-.9-1-.6-1-1-1.6l-10-18.6c-.5-1-1-2-1.6-3-.5-1.1-1-2.1-1.5-3.1h-.1c0 1.2.1 2.4.1 3.7v23.5c0 .1 0 .2-.1.3-.1.1-.2.2-.4.3-.2.1-.4.1-.7.2-.3 0-.6.1-1.1.1-.4 0-.8 0-1.1-.1-.3 0-.5-.1-.7-.2s-.3-.1-.3-.3c-.1-.1-.1-.2-.1-.3v-30.1c0-.7.2-1.2.6-1.4.4-.3.8-.4 1.2-.4h2.1c.5 0 .9 0 1.3.1.3.1.6.2.9.4.3.2.5.5.8.8s.5.8.8 1.3l7.7 14.3c.5.9.9 1.7 1.4 2.6.4.8.9 1.7 1.3 2.5l1.2 2.4 1.2 2.4c0-1.3-.1-2.7-.1-4.2v-21.9c0-.1 0-.2.1-.3s.2-.2.4-.3c.2-.1.4-.1.7-.2.3 0 .6-.1 1.1-.1.4 0 .7 0 1 .1.3 0 .5.1.7.2s.3.2.3.3.1.2.1.3v30h.2zM1186 262.7c0 .3 0 .6-.1.8 0 .2-.1.4-.2.6l-.3.3c-.1.1-.2.1-.4.1h-9.2v28.3c0 .1 0 .3-.1.4s-.2.2-.4.2c-.2.1-.4.1-.7.2-.3 0-.6.1-1 .1s-.7 0-1-.1c-.3 0-.5-.1-.7-.2s-.3-.1-.4-.2-.1-.2-.1-.4v-28.3h-9.2c-.1 0-.3 0-.4-.1l-.3-.3c-.1-.1-.1-.3-.2-.6 0-.2-.1-.5-.1-.8s0-.6.1-.8c0-.2.1-.4.2-.6s.2-.3.3-.3c.1-.1.2-.1.4-.1h22.7c.1 0 .3 0 .4.1l.3.3c.1.2.1.3.2.6.1.2.2.5.2.8zM1208.9 291.7c0 .3 0 .6-.1.8s-.1.4-.2.6-.2.3-.3.3c-.1.1-.2.1-.4.1h-15.7c-.4 0-.8-.1-1.1-.4s-.5-.7-.5-1.4v-29.1c0-.7.2-1.1.5-1.4s.7-.4 1.1-.4h15.5c.1 0 .3 0 .4.1l.3.3c.1.2.1.3.2.6 0 .2.1.5.1.8s0 .6-.1.8-.1.4-.2.6l-.3.3c-.1.1-.2.1-.4.1H1195v10.3h11c.1 0 .3 0 .4.1l.3.3c.1.1.1.3.2.6 0 .2.1.5.1.8s0 .6-.1.8-.1.4-.2.5l-.3.3c-.1.1-.2.1-.4.1h-11v11.7h13c.1 0 .3 0 .4.1l.3.3c.1.1.1.3.2.6v.8zM1237.7 292.8c0 .1 0 .3-.1.4l-.3.3c-.2.1-.4.1-.7.2-.3 0-.7.1-1.2.1-.4 0-.8 0-1.1-.1-.3 0-.5-.1-.7-.2s-.3-.2-.4-.3c-.1-.1-.2-.3-.2-.5l-3-7.7c-.4-.9-.7-1.7-1.1-2.4-.4-.7-.8-1.4-1.4-1.9s-1.1-.9-1.8-1.2c-.7-.3-1.6-.4-2.6-.4h-2.9V293c0 .1 0 .3-.1.4s-.2.2-.4.2c-.2.1-.4.1-.7.2-.3 0-.6.1-1 .1s-.8 0-1-.1c-.3 0-.5-.1-.7-.2s-.3-.1-.4-.2-.1-.2-.1-.4v-30.3c0-.7.2-1.1.5-1.4s.7-.4 1.1-.4h6.9c.8 0 1.5 0 2.1.1s1 .1 1.5.1c1.3.2 2.4.6 3.3 1 1 .5 1.8 1.1 2.4 1.8.7.7 1.1 1.6 1.5 2.5s.5 2 .5 3.1-.1 2.1-.4 2.9-.7 1.6-1.3 2.3c-.6.7-1.2 1.2-2 1.7s-1.6.9-2.6 1.2c.5.2 1 .5 1.5.9.4.4.8.8 1.2 1.3.4.5.7 1.1 1.1 1.7s.7 1.4 1 2.2l2.9 7.2c.2.6.4 1 .5 1.3.2.3.2.5.2.6zm-6.5-22.9c0-1.3-.3-2.4-.9-3.2s-1.5-1.5-2.9-1.9c-.4-.1-.9-.2-1.4-.3-.5-.1-1.2-.1-2.1-.1h-3.7v11h4.2c1.1 0 2.1-.1 3-.4s1.5-.7 2.1-1.2 1-1.1 1.2-1.8c.4-.6.5-1.3.5-2.1zM1268.7 291.7c0 .3-.1.6-.2.9-.1.2-.3.4-.4.6-.2.2-.4.3-.6.3-.2.1-.5.1-.7.1h-1.4c-.5 0-.8 0-1.2-.1-.3-.1-.7-.3-1-.5s-.6-.6-.9-1-.6-1-1-1.6l-10-18.6c-.5-1-1-2-1.6-3-.5-1.1-1-2.1-1.5-3.1h-.1c0 1.2.1 2.4.1 3.7v23.5c0 .1 0 .2-.1.3-.1.1-.2.2-.4.3-.2.1-.4.1-.7.2-.3 0-.6.1-1.1.1-.4 0-.8 0-1.1-.1-.3 0-.5-.1-.7-.2s-.3-.1-.3-.3c-.1-.1-.1-.2-.1-.3v-30.1c0-.7.2-1.2.6-1.4.4-.3.8-.4 1.2-.4h2.1c.5 0 .9 0 1.3.1.3.1.6.2.9.4.3.2.5.5.8.8s.5.8.8 1.3l7.7 14.3c.5.9.9 1.7 1.4 2.6.4.8.9 1.7 1.3 2.5l1.2 2.4 1.2 2.4c0-1.3-.1-2.7-.1-4.2v-21.9c0-.1 0-.2.1-.3s.2-.2.4-.3c.2-.1.4-.1.7-.2.3 0 .6-.1 1.1-.1.4 0 .7 0 1 .1.3 0 .5.1.7.2s.3.2.3.3.1.2.1.3v30h.2zM1301.9 291.9c.1.4.2.7.2.9 0 .2-.1.4-.2.5s-.4.2-.7.2c-.3 0-.7.1-1.2.1h-1.2c-.3 0-.5-.1-.7-.1-.2-.1-.3-.1-.4-.2s-.1-.2-.2-.4l-2.8-8h-13.6l-2.7 7.9c-.1.2-.1.3-.2.4s-.2.2-.4.3c-.2.1-.4.1-.7.2-.3 0-.7.1-1.1.1-.5 0-.9 0-1.2-.1-.3 0-.5-.1-.7-.2-.1-.1-.2-.3-.2-.5s.1-.5.2-.9l11-30.4c.1-.2.2-.3.3-.5.1-.1.3-.2.5-.3.2-.1.5-.1.8-.1h2.5c.4 0 .6.1.9.1.2.1.4.2.5.3.1.1.2.3.3.5l11 30.2zm-14.1-26.8l-5.7 16.3h11.4l-5.7-16.3zM1323.8 262.7c0 .3 0 .6-.1.8 0 .2-.1.4-.2.6l-.3.3c-.1.1-.2.1-.4.1h-9.2v28.3c0 .1 0 .3-.1.4s-.2.2-.4.2c-.2.1-.4.1-.7.2-.3 0-.6.1-1 .1s-.7 0-1-.1c-.3 0-.5-.1-.7-.2s-.3-.1-.4-.2-.1-.2-.1-.4v-28.3h-9.2c-.1 0-.3 0-.4-.1l-.3-.3c-.1-.1-.1-.3-.2-.6 0-.2-.1-.5-.1-.8s0-.6.1-.8c0-.2.1-.4.2-.6s.2-.3.3-.3c.1-.1.2-.1.4-.1h22.7c.1 0 .3 0 .4.1l.3.3c.1.2.1.3.2.6.1.2.2.5.2.8zM1332.8 292.8c0 .1 0 .3-.1.4s-.2.2-.4.2c-.2.1-.4.1-.7.2-.3 0-.6.1-1 .1s-.7 0-1-.1c-.3 0-.5-.1-.7-.2s-.3-.1-.4-.2-.1-.2-.1-.4v-31.4c0-.1 0-.3.1-.4s.2-.2.4-.2c.2-.1.4-.1.7-.2.3 0 .6-.1 1-.1s.8 0 1 .1c.3 0 .5.1.7.2s.3.1.4.2.1.2.1.4v31.4zM1368.9 276.8c0 2.6-.3 5-.9 7.1s-1.6 3.9-2.8 5.4-2.8 2.6-4.7 3.4c-1.9.8-4 1.2-6.5 1.2s-4.6-.4-6.4-1.1-3.3-1.8-4.4-3.2c-1.2-1.4-2-3.1-2.6-5.2s-.9-4.5-.9-7.1.3-4.9.9-7 1.6-3.9 2.8-5.4 2.8-2.6 4.7-3.4 4-1.2 6.5-1.2c2.4 0 4.5.4 6.3 1.1s3.3 1.8 4.5 3.2c1.2 1.4 2.1 3.1 2.7 5.2.5 2 .8 4.3.8 7zm-4.6.3c0-1.9-.2-3.6-.5-5.2s-.9-3-1.6-4.1c-.8-1.2-1.8-2.1-3.1-2.7-1.3-.7-2.9-1-4.7-1-1.9 0-3.5.4-4.7 1.1s-2.3 1.6-3.1 2.8c-.8 1.2-1.4 2.6-1.7 4.1-.3 1.6-.5 3.2-.5 5 0 1.9.2 3.7.5 5.3.3 1.6.9 3 1.6 4.2.8 1.2 1.8 2.1 3 2.7 1.3.6 2.9 1 4.8 1s3.5-.4 4.8-1.1 2.3-1.7 3.1-2.9c.8-1.2 1.4-2.6 1.7-4.2.2-1.6.4-3.3.4-5zM1400.4 291.7c0 .3-.1.6-.2.9-.1.2-.3.4-.4.6-.2.2-.4.3-.6.3-.2.1-.5.1-.7.1h-1.4c-.5 0-.8 0-1.2-.1-.3-.1-.7-.3-1-.5s-.6-.6-.9-1-.6-1-1-1.6l-10-18.6c-.5-1-1-2-1.6-3-.5-1.1-1-2.1-1.5-3.1h-.1c0 1.2.1 2.4.1 3.7v23.5c0 .1 0 .2-.1.3-.1.1-.2.2-.4.3-.2.1-.4.1-.7.2-.3 0-.6.1-1.1.1-.4 0-.8 0-1.1-.1-.3 0-.5-.1-.7-.2s-.3-.1-.3-.3c-.1-.1-.1-.2-.1-.3v-30.1c0-.7.2-1.2.6-1.4.4-.3.8-.4 1.2-.4h2.1c.5 0 .9 0 1.3.1.3.1.6.2.9.4.3.2.5.5.8.8s.5.8.8 1.3l7.7 14.3c.5.9.9 1.7 1.4 2.6.4.8.9 1.7 1.3 2.5l1.2 2.4 1.2 2.4c0-1.3-.1-2.7-.1-4.2v-21.9c0-.1 0-.2.1-.3s.2-.2.4-.3c.2-.1.4-.1.7-.2.3 0 .6-.1 1.1-.1.4 0 .7 0 1 .1.3 0 .5.1.7.2s.3.2.3.3.1.2.1.3v30h.2zM1433.6 291.9c.1.4.2.7.2.9s-.1.4-.2.5-.4.2-.7.2c-.3 0-.7.1-1.2.1h-1.2c-.3 0-.5-.1-.7-.1-.2-.1-.3-.1-.4-.2s-.1-.2-.2-.4l-2.8-8h-13.6l-2.7 7.9c-.1.2-.1.3-.2.4s-.2.2-.4.3c-.2.1-.4.1-.7.2-.3 0-.7.1-1.1.1-.5 0-.9 0-1.2-.1-.3 0-.5-.1-.7-.2-.1-.1-.2-.3-.2-.5s.1-.5.2-.9l11-30.4c.1-.2.2-.3.3-.5.1-.1.3-.2.5-.3.2-.1.5-.1.8-.1h2.5c.4 0 .6.1.9.1.2.1.4.2.5.3.1.1.2.3.3.5l11 30.2zm-14.1-26.8l-5.7 16.3h11.4l-5.7-16.3zM1456 291.6c0 .3 0 .6-.1.8s-.1.4-.2.6-.2.3-.3.4c-.1.1-.2.1-.4.1h-14.4c-.4 0-.8-.1-1.1-.4s-.5-.7-.5-1.4v-30.3c0-.1 0-.3.1-.4s.2-.2.4-.2c.2-.1.4-.1.7-.2.3 0 .6-.1 1-.1s.8 0 1 .1.5.1.7.2.3.1.4.2.1.2.1.4v28.3h11.7c.2 0 .3 0 .4.1l.3.3c.1.1.1.3.2.6s0 .5 0 .9z"/></g><g><path fill="#0f3a50" d="M93.7 183.2H49.3c-2.6 0-4.7 2.1-4.7 4.7v127c0 2.6 2.1 4.7 4.7 4.7h44.4c37.7 0 68.3-30.6 68.3-68.3 0-37.5-30.6-68.1-68.3-68.1zm1.6 110.6H68.9v-84.7h26.4c23.4 0 42.3 19 42.3 42.3s-18.9 42.4-42.3 42.4zM260.6 288.4h-52l-9.7 24.4c-1.7 4.2-5.7 6.9-10.2 6.9h-12.3c-2.6 0-4.3-2.6-3.3-5l52.1-125.2c3.5-8.4 15.4-8.4 18.9 0l52 125.2c1 2.4-.8 5-3.4 5h-12.1c-4.5 0-8.5-2.7-10.2-6.9l-9.8-24.4zm-8.3-20.5l-17.7-44.6-17.7 44.6h35.4zM491.4 288.4h-52l-9.7 24.4c-1.7 4.2-5.7 6.9-10.2 6.9h-12.3c-2.6 0-4.3-2.6-3.3-5L456 189.5c3.5-8.4 15.4-8.4 18.9 0l52 125.2c1 2.4-.8 5-3.4 5h-12.1c-4.5 0-8.5-2.7-10.2-6.9l-9.8-24.4zm-8.3-20.5l-17.7-44.6-17.7 44.6h35.4zM351.4 281.3l36.6-91.8c1.5-3.8 5.2-6.3 9.3-6.3h13.6c2.3 0 3.9 2.4 3 4.5l-51.3 125.1c-4 9.7-17.6 9.9-21.8.3l-55-125.3c-.9-2.2.6-4.6 3-4.6h14c4 0 7.6 2.4 9.2 6.1l39.4 92zM654.6 315.3l-28.2-48.9c13-7.6 22-21.4 22.3-37.5.5-25.2-19.7-45.7-44.7-45.7h-46.4c-2.5 0-4.5 2-4.5 4.5V315c0 2.6 2.1 4.7 4.7 4.7h7.2c5.1 0 9.3-4.2 9.3-9.3v-37.7h28.9c.8 0 1.6 0 2.3-.1l23.4 40.6c2.3 4 6.6 6.5 11.3 6.5h11.9c2.3.1 3.7-2.4 2.5-4.4zm-80.3-109.9H605c12.5 0 22.5 10.1 22.5 22.5 0 12.5-10.1 22.5-22.5 22.5h-30.7v-45z"/></g><g><path fill="#818080" d="M420.2 406c.3 0 .6-.3.8-.7.2-.4.3-1.2.3-2.2 0-.6-.1-1-.1-1.4 0-.4-.1-.7-.2-.9-.1-.3-.3-.4-.4-.5-.1-.1-.3-.1-.5-.1h-5.5v-5.6c0-.2-.1-.4-.2-.5-.1-.2-.3-.3-.6-.4-.3-.1-.6-.2-1.1-.2-.4-.1-1-.1-1.7-.1s-1.2.1-1.7.1-.8.1-1.1.2c-.3.1-.5.3-.6.4-.1.1-.2.3-.2.5v5.6h-3c-.2 0-.4 0-.5.1-.2.1-.3.3-.4.5-.1.2-.2.5-.2.9-.1.4-.1.9-.1 1.4 0 1 .1 1.8.3 2.2.2.5.4.7.8.7h3v12.9c0 1.5.2 2.9.5 4s.8 2.1 1.5 2.8 1.6 1.2 2.6 1.6c1.1.3 2.3.5 3.7.5.6 0 1.1 0 1.6-.1.5 0 1-.1 1.4-.2.5-.1.9-.3 1.2-.4.3-.2.5-.3.7-.5.2-.1.3-.5.4-.9.1-.4.2-1.1.2-1.9v-1.2c-.1-.3-.1-.6-.2-.8 0-.2-.1-.3-.2-.4-.1-.1-.2-.1-.3-.1-.1 0-.2.1-.4.1s-.4.1-.6.2c-.2.1-.5.1-.8.2-.3.1-.6.1-1 .1-1.1 0-1.9-.3-2.3-1-.4-.7-.6-1.7-.6-3.1V406h5.5zM450 410.7c0-1.8-.2-3.4-.5-4.7-.4-1.3-.9-2.4-1.6-3.4-.7-1-1.6-1.7-2.8-2.3-1.2-.5-2.6-.8-4.3-.8-1.4 0-2.7.3-4 .9-1.2.6-2.5 1.5-3.7 2.7v-13.9c0-.2-.1-.3-.2-.5s-.3-.3-.6-.4c-.3-.1-.6-.1-1.1-.2-.4-.1-1-.1-1.7-.1s-1.2 0-1.7.1c-.5 0-.8.1-1.1.2-.3.1-.5.3-.6.4-.1.1-.2.3-.2.5v37c0 .2.1.4.2.5.1.2.3.3.6.4.3.1.6.2 1.1.2.4.1 1 .1 1.7.1s1.2-.1 1.7-.1.8-.1 1.1-.2c.3-.1.5-.3.6-.4.1-.1.2-.3.2-.5v-16.7c1-1.3 2-2.2 2.9-2.9s1.8-1 2.7-1c.7 0 1.4.1 1.9.4.5.3 1 .7 1.3 1.2.4.5.6 1.1.8 1.8s.3 1.7.3 2.9v14.3c0 .2.1.4.2.5.1.2.3.3.6.4.3.1.6.2 1.1.2.4.1 1 .1 1.7.1s1.2-.1 1.7-.1.8-.1 1.1-.2c.3-.1.5-.3.6-.4.1-.1.2-.3.2-.5h-.2v-15.5zM479.8 414.9c.4-.4.6-1 .6-1.9h-.1v-1.2c0-1.8-.2-3.4-.7-4.9-.4-1.5-1.1-2.8-2.1-3.9s-2.2-2-3.7-2.6c-1.5-.6-3.3-.9-5.4-.9-2 0-3.8.3-5.4 1-1.5.7-2.9 1.7-4 2.9-1.1 1.3-1.9 2.8-2.5 4.6-.6 1.8-.9 3.8-.9 6 0 2.3.2 4.4.8 6.1.5 1.7 1.4 3.2 2.5 4.3 1.1 1.2 2.5 2 4.2 2.6 1.7.5 3.7.8 5.9.8 1.2 0 2.4 0 3.5-.2s2.1-.4 2.9-.6c.9-.3 1.6-.5 2.1-.7s.9-.4 1-.5c.1-.1.2-.3.3-.4.1-.1.2-.3.2-.5.1-.2.1-.4.1-.7v-1.1-1.2c-.1-.3-.1-.5-.2-.7s-.2-.3-.3-.4c-.1-.1-.2-.1-.4-.1-.3 0-.6.1-1.1.3-.4.2-1 .4-1.7.6s-1.5.4-2.4.6c-1 .2-2.1.3-3.3.3s-2.2-.2-3.1-.5c-.8-.3-1.5-.8-2.1-1.4-.5-.6-.9-1.3-1.2-2.2-.3-.9-.4-1.8-.4-2.9h15.3c.7 0 1.2-.2 1.6-.6zm-17-4c0-.9.2-1.7.4-2.5s.6-1.4 1-2c.5-.6 1-1.1 1.7-1.4.7-.3 1.5-.5 2.4-.5 1.8 0 3.1.6 4 1.7.9 1.1 1.3 2.7 1.2 4.7h-10.7zM515.1 414c-.6-.6-1.3-1.1-2-1.5-.8-.4-1.5-.8-2.3-1.1-.8-.4-1.6-.6-2.3-.9-.8-.2-1.4-.5-2-.8-.6-.3-1-.6-1.4-1-.3-.4-.5-.9-.5-1.5 0-.4 0-.8.2-1.1.2-.4.4-.7.7-.9.3-.3.7-.5 1.2-.6.5-.1 1.1-.2 1.7-.2.9 0 1.7.1 2.4.3.7.2 1.4.4 1.9.6s.9.4 1.3.6c.4.2.6.3.8.3s.3 0 .4-.1c.1-.1.2-.2.3-.4 0-.2.1-.5.1-.8v-1.2-1.1c0-.3-.1-.5-.1-.7-.1-.2-.1-.4-.2-.5-.1-.1-.2-.3-.4-.4-.2-.1-.5-.3-.9-.5-.4-.1-.9-.3-1.5-.5-.6-.1-1.3-.3-2-.4-.7-.1-1.5-.2-2.3-.2-1.6 0-3 .2-4.3.6-1.2.4-2.3 1-3.2 1.7-.9.7-1.5 1.6-2 2.6s-.7 2.1-.7 3.3c0 1.1.2 2.2.5 3 .4.9.8 1.6 1.4 2.2.5.6 1.2 1.1 1.9 1.5.7.4 1.4.8 2.2 1.1.7.3 1.5.6 2.2.9.7.2 1.3.5 1.9.8.6.3 1.1.7 1.4 1.1.3.5.5.9.5 1.5 0 .5-.1.9-.3 1.3-.2.3-.4.7-.8.9-.4.3-.8.5-1.3.6-.5.1-1.1.2-1.7.2-1 0-1.9-.2-2.7-.4-.8-.3-1.5-.5-2.1-.8-.6-.3-1.1-.6-1.5-.8-.4-.3-.7-.4-.9-.4-.1 0-.3 0-.4.1-.1.1-.2.2-.3.4-.1.2-.2.5-.2.8-.1.3-.1.8-.1 1.3 0 .9.1 1.5.2 1.9.1.4.3.7.5.9s.5.4 1 .6c.5.3 1 .5 1.7.7s1.4.4 2.3.5c.9.1 1.8.2 2.7.2 1.5 0 3-.1 4.3-.5 1.4-.3 2.5-.9 3.5-1.6s1.8-1.6 2.3-2.7c.5-1.1.8-2.4.8-3.8 0-1.1-.2-2.1-.5-2.9-.3-.9-.8-1.6-1.4-2.2zM544.6 403.2c-1.1-1.2-2.4-2.1-4.1-2.7-1.7-.6-3.6-.9-5.9-.9s-4.3.3-6 1-3.2 1.6-4.3 2.9c-1.2 1.3-2 2.8-2.6 4.6-.6 1.8-.9 3.8-.9 5.9 0 2.2.3 4.2.8 5.9.5 1.8 1.3 3.2 2.4 4.4s2.4 2.1 4.1 2.7c1.6.6 3.6.9 5.8.9 2.4 0 4.4-.3 6.1-1s3.2-1.7 4.3-3c1.2-1.3 2-2.8 2.6-4.6.5-1.8.8-3.8.8-5.9 0-2.2-.3-4.2-.7-5.8-.5-1.8-1.3-3.2-2.4-4.4zm-4.6 14.1c-.2 1.1-.6 2-1.1 2.7-.5.8-1.1 1.3-1.9 1.7-.8.4-1.7.6-2.8.6-1.1 0-2.1-.2-2.9-.6-.8-.4-1.4-1-1.9-1.8s-.8-1.7-1-2.7-.3-2.2-.3-3.4c0-1.4.1-2.6.4-3.6.2-1.1.6-2 1.1-2.7.5-.8 1.1-1.3 1.9-1.7.8-.4 1.7-.6 2.8-.6 1.1 0 2.1.2 2.9.6.8.4 1.4 1 1.9 1.8s.8 1.7 1 2.7.3 2.2.3 3.4c0 1.3-.1 2.5-.4 3.6zM576.7 400.2c-.3-.1-.6-.2-1.1-.2-.4-.1-1-.1-1.7-.1s-1.2.1-1.7.1-.8.1-1.1.2c-.3.1-.5.3-.6.4-.1.1-.2.3-.2.5v16.7c-1 1.3-2 2.2-2.9 2.9s-1.8 1-2.7 1c-.7 0-1.4-.1-1.9-.4s-1-.7-1.3-1.2c-.4-.5-.6-1.1-.8-1.8s-.3-1.7-.3-3v-14.2c0-.2-.1-.4-.2-.5-.1-.2-.3-.3-.6-.4-.3-.1-.6-.2-1.1-.2-.4-.1-1-.1-1.7-.1s-1.2.1-1.7.1-.8.1-1.1.2c-.3.1-.5.3-.6.4-.1.1-.2.3-.2.5v15.4c0 1.9.2 3.5.5 4.8s.8 2.4 1.5 3.4 1.6 1.7 2.8 2.3c1.2.5 2.7.8 4.4.8 1.6 0 3.1-.3 4.5-1.1s2.8-1.9 4.2-3.4v2.9c0 .2 0 .4.1.5.1.2.3.3.5.4.2.1.5.2.9.2.4.1.9.1 1.5.1s1.1-.1 1.5-.1.7-.1.9-.2c.2-.1.4-.3.5-.4.1-.1.1-.3.1-.5h.4v-25.1c0-.2-.1-.4-.2-.5-.1-.2-.3-.3-.6-.4zM607.8 410.7c0-1.8-.2-3.4-.5-4.7-.4-1.3-.9-2.4-1.6-3.4s-1.6-1.7-2.8-2.3c-1.2-.5-2.6-.8-4.3-.8-1.6 0-3.1.3-4.5 1.1s-2.8 1.9-4.2 3.4v-2.9c0-.2 0-.4-.1-.5-.1-.2-.3-.3-.5-.4-.2-.1-.5-.2-.9-.2-.4-.1-.9-.1-1.5-.1s-1.1.1-1.5.1c-.3 0-.7.1-.9.2-.2.1-.4.3-.5.4-.1.1-.1.3-.1.5v25.1c0 .2.1.4.2.5.1.2.3.3.6.4.3.1.6.2 1.1.2.4.1 1 .1 1.7.1s1.2-.1 1.7-.1.8-.1 1.1-.2c.3-.1.5-.3.6-.4.1-.1.2-.3.2-.5v-16.7c1-1.3 2-2.2 2.9-2.9s1.8-1 2.7-1c.7 0 1.4.1 1.9.4.5.3 1 .7 1.3 1.2.4.5.6 1.1.8 1.8s.3 1.7.3 2.9v14.3c0 .2.1.4.2.5.1.2.3.3.6.4.3.1.6.2 1.1.2.4.1 1 .1 1.7.1s1.2-.1 1.7-.1.8-.1 1.1-.2c.3-.1.5-.3.6-.4.1-.1.2-.3.2-.5h-.4v-15.5zM639 389.3c0-.2-.1-.4-.2-.5-.1-.2-.3-.3-.6-.4-.3-.1-.6-.1-1.1-.2-.4-.1-1-.1-1.7-.1s-1.2 0-1.7.1c-.5 0-.8.1-1.1.2-.3.1-.5.2-.6.4-.1.1-.2.3-.2.5v13.6c-1.1-1.1-2.3-1.9-3.4-2.5-1.1-.6-2.4-.9-3.8-.9-1.8 0-3.3.3-4.7 1-1.3.7-2.5 1.6-3.4 2.9-.9 1.3-1.6 2.8-2.1 4.6s-.7 3.8-.7 6c0 1.9.2 3.6.6 5.3.4 1.7 1 3.1 1.8 4.4s1.9 2.3 3.2 3c1.4.7 3 1.1 4.9 1.1 1.7 0 3.3-.5 4.7-1.2s2.8-1.8 4.1-3.2v2.8c0 .2.1.4.2.5.1.2.3.3.5.4.2.1.5.2.9.2.4.1.9.1 1.5.1.5 0 1-.1 1.4-.1s.7-.1.9-.2c.2-.1.4-.3.5-.4.1-.1.1-.3.1-.5v-36.9zm-7 28.6c-.6.8-1.2 1.4-1.7 1.9-.5.6-1 1-1.5 1.3-.5.3-.9.6-1.4.7-.4.1-.9.2-1.4.2-1 0-1.8-.2-2.4-.7s-1.1-1.1-1.5-1.9c-.4-.8-.6-1.7-.8-2.7s-.3-2-.3-3.1c0-1 .1-2 .3-2.9.2-1 .5-1.8.9-2.6.4-.7.9-1.3 1.6-1.8s1.5-.7 2.4-.7c1 0 2 .3 2.9 1 .9.6 1.9 1.6 2.9 2.9v8.4zM681.5 403.2c-1.1-1.2-2.4-2.1-4.1-2.7-1.7-.6-3.6-.9-5.9-.9s-4.3.3-6 1-3.2 1.6-4.3 2.9c-1.2 1.3-2 2.8-2.6 4.6-.6 1.8-.9 3.8-.9 5.9 0 2.2.3 4.2.8 5.9.5 1.8 1.3 3.2 2.4 4.4s2.4 2.1 4.1 2.7c1.6.6 3.6.9 5.8.9 2.4 0 4.4-.3 6.1-1s3.2-1.7 4.3-3c1.2-1.3 2-2.8 2.6-4.6.5-1.8.8-3.8.8-5.9 0-2.2-.3-4.2-.7-5.8-.5-1.8-1.3-3.2-2.4-4.4zm-4.6 14.1c-.2 1.1-.6 2-1.1 2.7-.5.8-1.1 1.3-1.9 1.7-.8.4-1.7.6-2.8.6-1.1 0-2.1-.2-2.9-.6-.8-.4-1.4-1-1.9-1.8s-.8-1.7-1-2.7-.3-2.2-.3-3.4c0-1.4.1-2.6.4-3.6.2-1.1.6-2 1.1-2.7.5-.8 1.1-1.3 1.9-1.7.8-.4 1.7-.6 2.8-.6 1.1 0 2.1.2 2.9.6.8.4 1.4 1 1.9 1.8s.8 1.7 1 2.7.3 2.2.3 3.4c0 1.3-.1 2.5-.4 3.6zM705 389.5c-.1-.2-.2-.4-.3-.5-.2-.1-.4-.3-.8-.4-.3-.1-.8-.3-1.5-.4-.7-.1-1.4-.2-2.1-.2-1.6 0-2.9.2-4 .6-1.2.4-2.1 1-2.8 1.9-.7.8-1.3 1.9-1.6 3.2s-.5 2.8-.5 4.5v2.1h-3.1c-.2 0-.4 0-.5.1-.1.1-.2.3-.3.5-.1.2-.2.5-.2.9-.1.4-.1.9-.1 1.4 0 1 .1 1.8.3 2.2.2.5.4.7.8.7h3.2v20.3c0 .2.1.4.2.5.1.2.3.3.6.4.3.1.6.2 1.1.2.5.1 1 .1 1.7.1s1.2-.1 1.7-.1.8-.1 1.1-.2c.3-.1.5-.3.6-.4.1-.1.2-.3.2-.5v-20.3h4.6c.3 0 .6-.3.8-.7s.3-1.2.3-2.2c0-.6-.1-1-.1-1.4 0-.4-.1-.7-.2-.9-.1-.3-.3-.4-.4-.5-.2-.1-.3-.1-.5-.1h-4.6V398c0-.8.1-1.4.2-2 .1-.6.3-1.1.5-1.4.2-.4.5-.6.9-.8.4-.1.8-.2 1.3-.2.4 0 .8 0 1.1.1.3.1.6.1.8.2.2.1.5.1.6.2.1.1.3.1.4.1s.2 0 .3-.1c.1-.1.2-.2.3-.4.1-.2.2-.5.2-.8.1-.3.1-.8.1-1.3 0-.6 0-1-.1-1.2-.1-.4-.1-.7-.2-.9zM727.8 388.3c-.3-.1-.6-.1-1.1-.2-.4-.1-1-.1-1.7-.1s-1.2 0-1.7.1c-.5 0-.8.1-1.1.2-.3.1-.5.3-.6.4-.1.1-.2.3-.2.5v37c0 .2.1.4.2.5.1.2.3.3.6.4.3.1.6.2 1.1.2.4.1 1 .1 1.7.1s1.2-.1 1.7-.1.8-.1 1.1-.2c.3-.1.5-.3.6-.4.1-.1.2-.3.2-.5v-37c0-.2-.1-.3-.2-.5s-.3-.3-.6-.4zM739.4 389c-1.6 0-2.7.2-3.3.8-.6.6-.9 1.6-.9 3 0 1.3.2 2.3.8 2.8.5.5 1.6.8 3.2.8 1.5 0 2.6-.3 3.2-.8.6-.6.9-1.6.9-3 0-1.3-.3-2.3-.7-2.8-.6-.5-1.6-.8-3.2-.8zM741.9 400.2c-.3-.1-.6-.1-1.1-.2-.4-.1-1-.1-1.7-.1s-1.2 0-1.7.1c-.5 0-.8.1-1.1.2-.3.1-.5.3-.6.4-.1.1-.2.3-.2.5v25.1c0 .2.1.4.2.5.1.2.3.3.6.4.3.1.6.2 1.1.2.4.1 1 .1 1.7.1s1.2-.1 1.7-.1.8-.1 1.1-.2c.3-.1.5-.3.6-.4.1-.1.2-.3.2-.5v-25.1c0-.2-.1-.3-.2-.5s-.3-.3-.6-.4zM764.7 389.5c-.1-.2-.2-.4-.3-.5-.2-.1-.4-.3-.8-.4-.3-.1-.8-.3-1.5-.4-.7-.1-1.4-.2-2.1-.2-1.6 0-2.9.2-4 .6-1.2.4-2.1 1-2.8 1.9-.7.8-1.3 1.9-1.6 3.2s-.5 2.8-.5 4.5v2.1H748c-.2 0-.4 0-.5.1-.1.1-.2.3-.3.5-.1.2-.2.5-.2.9-.1.4-.1.9-.1 1.4 0 1 .1 1.8.3 2.2.2.5.4.7.8.7h3.1v20.3c0 .2.1.4.2.5.1.2.3.3.6.4.3.1.6.2 1.1.2.5.1 1 .1 1.7.1s1.2-.1 1.7-.1.8-.1 1.1-.2c.3-.1.5-.3.6-.4.1-.1.2-.3.2-.5v-20.3h4.6c.3 0 .6-.3.8-.7s.3-1.2.3-2.2c0-.6-.1-1-.1-1.4 0-.4-.1-.7-.2-.9-.1-.3-.3-.4-.4-.5-.2-.1-.3-.1-.5-.1h-4.6V398c0-.8.1-1.4.2-2 .1-.6.3-1.1.5-1.4.2-.4.5-.6.9-.8.4-.1.8-.2 1.3-.2.4 0 .8 0 1.1.1.3.1.6.1.8.2.2.1.5.1.6.2.1.1.3.1.4.1s.2 0 .3-.1c.1-.1.2-.2.3-.4.1-.2.2-.5.2-.8.1-.3.1-.8.1-1.3v-1.2c-.1-.4-.1-.7-.2-.9zM789.6 414.9c.4-.4.6-1 .6-1.9h-.1v-1.2c0-1.8-.2-3.4-.7-4.9-.4-1.5-1.1-2.8-2.1-3.9s-2.2-2-3.7-2.6c-1.5-.6-3.3-.9-5.4-.9-2 0-3.8.3-5.4 1-1.5.7-2.9 1.7-4 2.9-1.1 1.3-1.9 2.8-2.5 4.6-.6 1.8-.9 3.8-.9 6 0 2.3.2 4.4.8 6.1.5 1.7 1.4 3.2 2.5 4.3 1.1 1.2 2.5 2 4.2 2.6 1.7.5 3.7.8 5.9.8 1.2 0 2.4 0 3.5-.2s2.1-.4 2.9-.6c.9-.3 1.6-.5 2.1-.7s.9-.4 1-.5c.1-.1.2-.3.3-.4.1-.1.2-.3.2-.5.1-.2.1-.4.1-.7v-1.1-1.2c-.1-.3-.1-.5-.2-.7s-.2-.3-.3-.4c-.1-.1-.2-.1-.4-.1-.3 0-.6.1-1.1.3-.4.2-1 .4-1.7.6s-1.5.4-2.4.6c-1 .2-2.1.3-3.3.3-1.2 0-2.2-.2-3.1-.5-.8-.3-1.5-.8-2.1-1.4-.5-.6-.9-1.3-1.2-2.2-.3-.9-.4-1.8-.4-2.9H788c.7 0 1.2-.2 1.6-.6zm-16.9-4c0-.9.2-1.7.4-2.5s.6-1.4 1-2c.5-.6 1-1.1 1.7-1.4s1.5-.5 2.4-.5c1.8 0 3.1.6 4 1.7.9 1.1 1.3 2.7 1.2 4.7h-10.7z"/></g></svg>
