<svg id="Layer_1" xmlns="http://www.w3.org/2000/svg" viewBox="0 0 600 600"><path fill="#0f3a50" d="M33.2 319.2c-9 0-16.2-7.3-16.2-16.2v-13.7c0-9 7.3-16.2 16.2-16.2 9 0 16.2 7.3 16.2 16.2V303c.1 9-7.2 16.2-16.2 16.2zM87 369.2c-9 0-16.2-7.3-16.2-16.2V239.3c0-9 7.3-16.2 16.2-16.2 9 0 16.2 7.3 16.2 16.2V353c0 9-7.2 16.2-16.2 16.2zM140.8 430.7c-9 0-16.2-7.3-16.2-16.2V177.8c0-9 7.3-16.2 16.2-16.2 9 0 16.2 7.3 16.2 16.2v236.8c0 8.9-7.2 16.1-16.2 16.1z"/><path d="M194.6 392.3c-9 0-16.2-7.3-16.2-16.2V216.2c0-9 7.3-16.2 16.2-16.2 9 0 16.2 7.3 16.2 16.2v159.9c0 9-7.3 16.2-16.2 16.2z" fill="#507280"/><path d="M248.3 344.2c-9 0-16.2-7.3-16.2-16.2v-63.7c0-9 7.3-16.2 16.2-16.2 9 0 16.2 7.3 16.2 16.2V328c.1 8.9-7.2 16.2-16.2 16.2z" fill="#859fa6"/><circle cx="302.1" cy="296.1" r="16.2" fill="#c0cdd2"/><g><path d="M330.5 39.6H212.4c-9.9 0-17.9 8-17.9 17.9V86c0 9.9 8 17.9 17.9 17.9h118.2c105.8 0 192.4 86.6 192.4 192.4s-86.6 192.4-192.4 192.4H212.4c-9.9 0-17.9 8-17.9 17.9v28.3c0 9.9 8 17.9 17.9 17.9h118.2c141.7 0 256.5-114.8 256.5-256.5C587 154.4 472.2 39.6 330.5 39.6z" fill="#c49a42"/></g></svg>
