<svg xmlns="http://www.w3.org/2000/svg" viewBox="0 0 1000 500"><circle cx="512.1" cy="238.7" r="72.9" fill="#fdc625"/><path d="M21 196.5h33.6c26.7 0 45.2 17 45.2 42.7 0 25.7-18.5 42.5-45.2 42.5H21v-85.2zm33.6 69.3c16.9 0 26.7-12.1 26.7-26.6 0-15.1-9.2-26.7-26.7-26.7H39.1v53.3h15.5zM168.9 267h-38.1l-5.4 14.7h-19.9l33-85.2h22.7l32.8 85.2h-19.8l-5.3-14.7zm-33.2-15.7h28.2l-14.1-39.1-14.1 39.1zM193.2 196.5h20.7l23.6 65.5 23.5-65.5h20.7l-32.8 85.2h-22.7l-33-85.2zM295.9 196.5H314v85.2h-18.1v-85.2zM337.2 196.5h33.6c26.7 0 45.2 17 45.2 42.7 0 25.7-18.5 42.5-45.2 42.5h-33.6v-85.2zm33.6 69.3c16.9 0 26.7-12.1 26.7-26.6 0-15.1-9.2-26.7-26.7-26.7h-15.5v53.3h15.5zM470 239.2c0-26.2 19.8-44.1 44.7-44.1 19.4 0 30.3 10.2 36.3 20.8l-15.6 7.7c-3.6-6.9-11.2-12.4-20.7-12.4-14.8 0-26.1 11.9-26.1 28s11.2 28 26.1 28c9.5 0 17.1-5.4 20.7-12.4l15.6 7.5c-6.1 10.6-16.9 20.9-36.3 20.9-24.9.1-44.7-17.8-44.7-44zM603 239.2c0-26.2 19.8-44.1 44.7-44.1 19.4 0 30.3 10.2 36.3 20.8l-15.6 7.7c-3.6-6.9-11.2-12.4-20.7-12.4-14.8 0-26.1 11.9-26.1 28s11.2 28 26.1 28c9.5 0 17.1-5.4 20.7-12.4l15.6 7.5c-6.1 10.6-16.9 20.9-36.3 20.9-24.9.1-44.7-17.8-44.7-44zM741.5 195.1c25.8 0 44.6 18.4 44.6 44.1 0 25.7-18.8 44.1-44.6 44.1-25.7 0-44.5-18.4-44.5-44.1 0-25.7 18.8-44.1 44.5-44.1zm0 16.1c-15.7 0-25.8 12-25.8 28 0 15.8 10.1 28 25.8 28 15.7 0 25.9-12.1 25.9-28 0-16-10.2-28-25.9-28zM845.4 195.1c25.8 0 44.6 18.4 44.6 44.1 0 25.7-18.8 44.1-44.6 44.1-25.7 0-44.5-18.4-44.5-44.1.1-25.7 18.9-44.1 44.5-44.1zm0 16.1c-15.7 0-25.8 12-25.8 28 0 15.8 10.1 28 25.8 28 15.7 0 25.9-12.1 25.9-28 .1-16-10.1-28-25.9-28zM933.8 247.6l-6.6 7.9v26.2h-18.1v-85.2h18.1v38.1l30.1-38.1h22.4l-33.9 40 36.1 45.2h-22.4l-25.7-34.1z"/></svg>
