<svg xmlns="http://www.w3.org/2000/svg" viewBox="0 0 600 600"><path d="M301.8 23.5C151 23.5 28.5 145.9 28.5 296.7S150.9 570 301.8 570 575 447.6 575 296.8 452.6 23.5 301.8 23.5zm164.9 251c-3.7.9-12 4.9-16.7 8-4.6 3.1-4.6 5.2-5.2 9.3-.6 4-3.4 6.8-5.2 11.7-1.9 4.9-3.1 11.7-4.9 30.5-1.9 19.1-22.5 37.9-25 45-.9 2.8-2.2 7.7-5.2 19.4-3.1 11.7-2.5 17.9-2.5 17.9-4 24.1-73.4 31.1-75.6 21-8-38.6-17.9-35.8-21-55.8-.3-1.5-2.5-7.7-2.5-9.3-.3 1.5-2.5 7.7-2.5 9.3-3.4 20-13.3 17.3-21 55.8-2.2 10.5-71.9 3.1-75.6-21 0 0 .6-6.2-2.5-17.9s-4-16.7-5.2-19.4c-2.5-6.8-23.1-25.9-25-45s-3.1-25.6-4.9-30.5-4.3-7.7-5.2-11.7c-.6-4-.6-6.2-5.2-9.3-4.6-3.1-15.1-6.8-18.8-8-3.7-.9-6.8-6.2-5.2-10.8 2.2-6.5 10.2-10.2 26.2-8.3 8 .9 15.1 4.3 19.7 8 4.6 4 6.2 8.3 7.1 12.3 0-1.5 7.4-32.7 8.6-37.3 1.2-4.6 13-40.4 14.8-46.3 1.9-5.9 6.5-18.5 8-22.5 2.8-7.7 18.8-9.6 21 3.4 1.5-5.9 4-18.8 13-20.7 8.9-1.5 17.6 1.9 17.3 16 4.9-2.5 16.3-.9 17.3 9.9.6 5.9-.6 12.6-1.2 18.5-.3 4.9-1.5 9.3-1.9 12.3 4-2.8 15.4-2.5 15.7 10.2 0 0 .6 17.3-.6 29.6-.9 9.3 0 11.7 1.5 21.6.3 2.2 4 14.2 4.6 16.3.6-2.2 4.3-13.9 4.6-16.3 1.2-9.9 2.5-12.3 1.5-21.6-1.2-12.3-.6-29.6-.6-29.6 0-12.6 11.7-13 15.7-10.2-.3-3.1-1.2-7.4-1.9-12.3-.6-5.9-1.5-12.6-1.2-18.5.9-10.8 12.3-12.6 17.3-9.9-.3-14.2 8.3-17.6 17.3-16s11.4 14.5 13 20.7c2.2-12.6 18.2-11.1 21-3.4 1.5 4 6.5 16.7 8 22.5 1.9 5.9 13.6 41.6 14.8 46.3 1.2 4.3 8.3 35.8 8.6 37.3.9-3.7 2.5-8.3 7.1-12.3s11.7-7.1 19.7-8c16.3-1.9 22.2 1.9 24.4 8.3 1.3 4.7-1.8 9.6-5.5 10.8z" fill="#001a72"/><path d="M466.7 274.5c-3.7.9-12 4.9-16.7 8-4.6 3.1-4.6 5.2-5.2 9.3-.6 4-3.4 6.8-5.2 11.7-1.9 4.9-3.1 11.7-4.9 30.5-1.9 19.1-22.5 37.9-25 45-.9 2.8-2.2 7.7-5.2 19.4-3.1 11.7-2.5 17.9-2.5 17.9-4 24.1-73.4 31.1-75.6 21-8-38.6-17.9-35.8-21-55.8-.3-1.5-2.5-7.7-2.5-9.3-.3 1.5-2.5 7.7-2.5 9.3-3.4 20-13.3 17.3-21 55.8-2.2 10.5-71.9 3.1-75.6-21 0 0 .6-6.2-2.5-17.9s-4-16.7-5.2-19.4c-2.5-6.8-23.1-25.9-25-45s-3.1-25.6-4.9-30.5-4.3-7.7-5.2-11.7c-.6-4-.6-6.2-5.2-9.3-4.6-3.1-15.1-6.8-18.8-8-3.7-.9-6.8-6.2-5.2-10.8 2.2-6.5 10.2-10.2 26.2-8.3 8 .9 15.1 4.3 19.7 8 4.6 4 6.2 8.3 7.1 12.3 0-1.5 7.4-32.7 8.6-37.3 1.2-4.6 13-40.4 14.8-46.3 1.9-5.9 6.5-18.5 8-22.5 2.8-7.7 18.8-9.6 21 3.4 1.5-5.9 4-18.8 13-20.7 8.9-1.5 17.6 1.9 17.3 16 4.9-2.5 16.3-.9 17.3 9.9.6 5.9-.6 12.6-1.2 18.5-.3 4.9-1.5 9.3-1.9 12.3 4-2.8 15.4-2.5 15.7 10.2 0 0 .6 17.3-.6 29.6-.9 9.3 0 11.7 1.5 21.6.3 2.2 4 14.2 4.6 16.3.6-2.2 4.3-13.9 4.6-16.3 1.2-9.9 2.5-12.3 1.5-21.6-1.2-12.3-.6-29.6-.6-29.6 0-12.6 11.7-13 15.7-10.2-.3-3.1-1.2-7.4-1.9-12.3-.6-5.9-1.5-12.6-1.2-18.5.9-10.8 12.3-12.6 17.3-9.9-.3-14.2 8.3-17.6 17.3-16s11.4 14.5 13 20.7c2.2-12.6 18.2-11.1 21-3.4 1.5 4 6.5 16.7 8 22.5 1.9 5.9 13.6 41.6 14.8 46.3 1.2 4.3 8.3 35.8 8.6 37.3.9-3.7 2.5-8.3 7.1-12.3s11.7-7.1 19.7-8c16.3-1.9 22.2 1.9 24.4 8.3 1.3 4.7-1.8 9.6-5.5 10.8z" fill="#fff"/></svg>
