<svg xmlns="http://www.w3.org/2000/svg" viewBox="0 0 500 500"><path fill="#EE4036" d="M175.2 234.8c-17.4 0-31.5 14.1-31.5 31.5s14.1 31.5 31.5 31.5 31.5-14.1 31.5-31.5-14.1-31.5-31.5-31.5z"/><path fill="#EE4036" d="M250.1 6.4C116.1 6.4 7 115.5 7 249.5s109.1 243.1 243.1 243.1 243.1-109 243.1-243.1c0-134-109-243.1-243.1-243.1zm-17.4 259.9c0 31.7-25.8 57.5-57.5 57.5s-57.5-25.8-57.5-57.5 25.8-57.5 57.5-57.5c11.6 0 22.5 3.5 31.5 9.5v-57.7c0-7.2 5.8-13 13-13s13 5.8 13 13v105.7zm53.7 40.8c0 7.2-5.8 13-13 13s-13-5.8-13-13V218c0-7.2 5.8-13 13-13s13 5.8 13 13v89.1zm41.2 0c0 7.2-5.8 13-13 13s-13-5.8-13-13V218c0-7.2 5.8-13 13-13s13 5.8 13 13v89.1zm41.2 0c0 7.2-5.8 13-13 13s-13-5.8-13-13V218c0-7.2 5.8-13 13-13s13 5.8 13 13v89.1z"/></svg>
