<svg id="Layer_1" xmlns="http://www.w3.org/2000/svg" viewBox="0 0 500 500"><path fill="#459697" d="M60 212.1v-2.4h3.3c3.7 0 6.3-1.2 7.8-3.5.9-1.4 1.4-4.6 1.4-9.5v-56.1c0-5.4-.6-8.8-1.8-10.2-1.7-1.9-4.1-2.8-7.4-2.8H60v-2.4h35.4c13 0 22.9 1.5 29.6 4.4s12.2 7.9 16.3 14.7c4.1 6.9 6.2 14.8 6.2 23.8 0 12.1-3.7 22.2-11 30.3-8.2 9-20.8 13.6-37.7 13.6l-38.8.1zm24.8-6.3c5.4 1.2 10 1.8 13.7 1.8 9.9 0 18.1-3.5 24.7-10.4 6.5-7 9.8-16.4 9.8-28.3 0-12-3.3-21.5-9.8-28.4-6.5-6.9-14.9-10.4-25.2-10.4-3.8 0-8.2.6-13.1 1.9-.1 0-.1 73.8-.1 73.8zM166.5 175.5c0 8.7 2.1 15.6 6.3 20.5 4.3 5 9.3 7.4 15.1 7.4 3.8 0 7.2-1.1 10-3.2s5.2-5.7 7.1-10.9l2 1.3c-.9 5.8-3.5 11.2-7.8 16-4.3 4.8-9.7 7.2-16.2 7.2-7.1 0-13.1-2.7-18.1-8.2-5-5.5-7.5-12.9-7.5-22.1 0-10 2.6-17.9 7.7-23.5s11.6-8.4 19.4-8.4c6.6 0 12 2.2 16.2 6.5s6.3 10.1 6.3 17.4h-40.5zm0-3.7h27.2c-.2-3.8-.7-6.4-1.4-7.9-1.1-2.4-2.7-4.3-4.8-5.6s-4.3-2.1-6.6-2.1c-3.6 0-6.7 1.4-9.5 4.1-2.8 2.8-4.5 6.6-4.9 11.5zM252.8 151.7v20h-2.1c-1.6-6.3-3.7-10.6-6.3-12.8s-5.8-3.4-9.7-3.4c-3 0-5.4.8-7.2 2.4-1.8 1.6-2.8 3.3-2.8 5.3 0 2.4.7 4.4 2.1 6.1 1.3 1.8 4 3.6 8.1 5.6l9.4 4.6c8.7 4.2 13 9.8 13 16.7 0 5.3-2 9.6-6.1 12.9-4 3.3-8.6 4.9-13.6 4.9-3.6 0-7.7-.6-12.3-1.9-1.4-.4-2.6-.6-3.5-.6-1 0-1.8.6-2.3 1.7h-2.1v-21h2.1c1.2 6 3.5 10.5 6.9 13.5 3.4 3 7.1 4.5 11.3 4.5 2.9 0 5.4-.9 7.2-2.6s2.8-3.8 2.8-6.3c0-3-1-5.4-3.1-7.4s-6.2-4.6-12.4-7.6c-6.2-3.1-10.3-5.9-12.2-8.3-1.9-2.4-2.9-5.5-2.9-9.2 0-4.8 1.6-8.9 5-12.1 3.3-3.3 7.6-4.9 12.8-4.9 2.3 0 5.1.5 8.4 1.5 2.2.6 3.6 1 4.4 1 .7 0 1.2-.1 1.6-.4s.8-1 1.4-2l2.1-.2zM282.9 134.1v19.3h13.7v4.5h-13.7V196c0 3.8.5 6.4 1.6 7.7 1.1 1.3 2.5 2 4.2 2 1.4 0 2.8-.4 4.1-1.3s2.4-2.2 3.1-3.9h2.5c-1.5 4.2-3.6 7.3-6.3 9.5-2.7 2.1-5.5 3.2-8.5 3.2-2 0-3.9-.5-5.8-1.6s-3.3-2.6-4.2-4.7c-.9-2-1.4-5.2-1.4-9.4V158h-9.3v-2.1c2.4-.9 4.8-2.5 7.2-4.8s4.6-4.9 6.6-8c1-1.6 2.4-4.6 4.1-8.9l2.1-.1zM322.6 151.7v47.2c0 3.7.3 6.1.8 7.3s1.3 2.1 2.4 2.7 3 .9 5.7.9v2.3H303v-2.3c2.9 0 4.8-.3 5.8-.8s1.8-1.5 2.3-2.8.9-3.7.9-7.4v-22.6c0-6.4-.2-10.5-.6-12.4-.3-1.4-.8-2.3-1.4-2.9s-1.5-.8-2.6-.8c-1.2 0-2.6.3-4.4 1l-.9-2.3 17.7-7.2 2.8.1zm-5.3-30.7c1.8 0 3.3.6 4.6 1.9 1.3 1.3 1.9 2.8 1.9 4.6s-.6 3.3-1.9 4.6-2.8 1.9-4.6 1.9-3.3-.6-4.6-1.9-1.9-2.8-1.9-4.6.6-3.3 1.9-4.6 2.7-1.9 4.6-1.9zM355.9 164.1c6.9-8.3 13.4-12.4 19.7-12.4 3.2 0 6 .8 8.3 2.4 2.3 1.6 4.1 4.2 5.5 7.9.9 2.6 1.4 6.5 1.4 11.8v25.1c0 3.7.3 6.2.9 7.6.5 1.1 1.2 1.9 2.3 2.5 1 .6 3 .9 5.8.9v2.3h-29v-2.3h1.2c2.7 0 4.6-.4 5.7-1.3s1.9-2.1 2.3-3.7c.2-.6.3-2.6.3-6v-24c0-5.3-.7-9.2-2.1-11.6-1.4-2.4-3.7-3.6-7-3.6-5.1 0-10.1 2.8-15.2 8.3v30.9c0 4 .2 6.4.7 7.4.6 1.2 1.4 2.1 2.5 2.7 1 .6 3.2.9 6.4.9v2.3h-29v-2.3h1.3c3 0 5-.8 6-2.3 1-1.5 1.6-4.4 1.6-8.7v-21.8c0-7.1-.2-11.3-.5-12.9-.3-1.5-.8-2.6-1.5-3.1-.7-.6-1.5-.8-2.7-.8-1.2 0-2.6.3-4.3 1l-1-2.3 17.7-7.2h2.8l-.1 12.3zM401.1 153.4h27.4v2.4h-1.4c-1.9 0-3.4.4-4.3 1.3-1 .8-1.4 1.9-1.4 3.1 0 1.7.7 4 2.1 6.9l14.3 29.6 13.1-32.4c.7-1.8 1.1-3.5 1.1-5.2 0-.8-.1-1.4-.5-1.7-.3-.5-.9-.8-1.6-1.1-.7-.3-2-.4-3.8-.4v-2.4h19.1v2.4c-1.6.2-2.8.5-3.6 1-.9.5-1.8 1.5-2.8 2.9-.4.6-1.1 2.2-2.2 4.9l-23.9 58.6c-2.3 5.7-5.3 10-9.1 12.9-3.7 2.9-7.3 4.4-10.8 4.4-2.5 0-4.6-.7-6.2-2.2-1.6-1.5-2.4-3.1-2.4-5 0-1.8.6-3.2 1.8-4.3s2.8-1.6 4.8-1.6c1.4 0 3.3.5 5.8 1.4 1.7.6 2.8 1 3.2 1 1.3 0 2.7-.7 4.2-2s3-3.9 4.6-7.7l4.2-10.2-21.1-44.3c-.6-1.3-1.7-3-3.1-4.9-1.1-1.5-1.9-2.5-2.6-3-1-.7-2.6-1.3-4.7-1.8l-.2-2.6z"/><path fill="#033d63" d="M39.6 279v22c0 4.8.5 7.7 1.6 8.9 1.4 1.6 3.5 2.4 6.4 2.4h2.9v2.1H18.1v-2.1h2.8c3.2 0 5.5-1 6.8-3.1.7-1.1 1.1-3.9 1.1-8.2v-48.7c0-4.8-.5-7.7-1.5-8.9-1.5-1.6-3.6-2.4-6.5-2.4H18v-2.1h27.7c6.7 0 12.1.7 16 2.1 3.9 1.4 7.2 3.7 9.8 7 2.7 3.3 4 7.2 4 11.7 0 6.2-2 11.2-6.1 15-4.1 3.9-9.8 5.8-17.2 5.8-1.8 0-3.8-.1-5.9-.4-2.1-.2-4.3-.6-6.7-1.1zm0-3.1c2 .4 3.7.7 5.2.8s2.8.3 3.9.3c3.9 0 7.2-1.5 10-4.5s4.2-6.9 4.2-11.6c0-3.3-.7-6.3-2-9.1s-3.2-4.9-5.7-6.3c-2.4-1.4-5.2-2.1-8.3-2.1-1.9 0-4.3.4-7.3 1.1v31.4zM127.8 263.4v30.9c0 5.9.1 9.5.4 10.8.3 1.3.7 2.2 1.3 2.8.6.5 1.3.8 2.1.8 1.1 0 2.4-.3 3.9-.9l.8 1.9-15.2 6.3h-2.5v-10.8c-4.4 4.8-7.7 7.7-10 9-2.3 1.2-4.7 1.8-7.3 1.8-2.9 0-5.3-.8-7.4-2.5-2.1-1.7-3.6-3.8-4.4-6.4-.8-2.6-1.2-6.3-1.2-11v-22.8c0-2.4-.3-4.1-.8-5-.5-.9-1.3-1.6-2.3-2.1-1-.5-2.9-.7-5.5-.7v-2.1h17.9v34.1c0 4.8.8 7.9 2.5 9.3 1.7 1.5 3.6 2.2 6 2.2 1.6 0 3.4-.5 5.4-1.5 2-1 4.4-2.9 7.2-5.7v-28.9c0-2.9-.5-4.8-1.6-5.9-1.1-1-3.3-1.6-6.6-1.6v-2.1l17.3.1zM154.1 272.2c4.9-6.9 10.3-10.3 16-10.3 5.2 0 9.8 2.2 13.7 6.7s5.8 10.6 5.8 18.3c0 9-3 16.3-9 21.9-5.2 4.8-10.9 7.1-17.2 7.1-3 0-6-.5-9-1.6-3.1-1.1-6.2-2.7-9.4-4.8v-52.8c0-5.8-.1-9.3-.4-10.7-.3-1.3-.7-2.2-1.3-2.7-.6-.5-1.3-.7-2.2-.7-1 0-2.3.3-3.9.9l-.8-1.9 15.3-6.2h2.5l-.1 36.8zm0 3.5v30.5c1.9 1.9 3.8 3.3 5.9 4.2 2 .9 4.1 1.4 6.2 1.4 3.4 0 6.5-1.9 9.4-5.6 2.9-3.7 4.4-9.1 4.4-16.2 0-6.5-1.5-11.5-4.4-15.1-2.9-3.5-6.2-5.3-9.9-5.3-2 0-3.9.5-5.9 1.5-1.5.9-3.4 2.4-5.7 4.6zM214.6 235.2v67.6c0 3.2.2 5.3.7 6.3.5 1 1.2 1.8 2.1 2.4 1 .5 2.8.8 5.4.8v2h-25v-2c2.3 0 3.9-.2 4.8-.7.9-.5 1.5-1.3 2-2.4.5-1.1.7-3.2.7-6.4v-46.3c0-5.7-.1-9.3-.4-10.6-.3-1.3-.7-2.2-1.3-2.7-.6-.5-1.3-.7-2.2-.7-1 0-2.2.3-3.7.9l-.9-1.9 15.2-6.2 2.6-.1zM246.3 261.9v41c0 3.2.2 5.3.7 6.4.5 1.1 1.1 1.8 2.1 2.4.9.5 2.6.8 5 .8v2h-24.8v-2c2.5 0 4.2-.2 5-.7.9-.5 1.5-1.3 2-2.4s.8-3.2.8-6.4v-19.6c0-5.5-.2-9.1-.5-10.7-.3-1.2-.7-2-1.2-2.5-.6-.5-1.3-.7-2.3-.7-1 0-2.3.3-3.8.8l-.8-2 15.4-6.2 2.4-.2zm-4.6-26.7c1.6 0 2.9.5 4 1.6s1.6 2.4 1.6 4-.5 2.9-1.6 4-2.4 1.7-4 1.7-2.9-.6-4-1.7-1.7-2.4-1.7-4 .5-2.9 1.6-4c1.2-1 2.5-1.6 4.1-1.6zM293.3 261.9v17.4h-1.8c-1.4-5.5-3.2-9.2-5.4-11.1-2.2-2-5-3-8.4-3-2.6 0-4.7.7-6.3 2.1-1.6 1.4-2.4 2.9-2.4 4.6 0 2.1.6 3.9 1.8 5.3 1.1 1.5 3.5 3.1 7 4.8l8.1 4c7.5 3.7 11.3 8.5 11.3 14.5 0 4.6-1.8 8.4-5.3 11.2-3.5 2.8-7.4 4.3-11.8 4.3-3.1 0-6.7-.6-10.7-1.7-1.2-.4-2.2-.6-3-.6-.9 0-1.5.5-2 1.5h-1.8V297h1.8c1 5.2 3 9.1 6 11.7 2.9 2.6 6.2 4 9.8 4 2.6 0 4.6-.7 6.3-2.2 1.6-1.5 2.4-3.3 2.4-5.4 0-2.6-.9-4.7-2.7-6.5-1.8-1.7-5.4-4-10.8-6.6-5.4-2.7-8.9-5.1-10.6-7.2-1.7-2.1-2.5-4.8-2.5-8 0-4.2 1.4-7.7 4.3-10.5s6.6-4.2 11.2-4.2c2 0 4.4.4 7.3 1.3 1.9.6 3.2.8 3.8.8.6 0 1.1-.1 1.4-.4s.7-.8 1.2-1.7l1.8-.2zM319.7 235.2v37.3c4.1-4.5 7.4-7.4 9.8-8.7 2.4-1.3 4.8-1.9 7.2-1.9 2.9 0 5.4.8 7.5 2.4 2.1 1.6 3.6 4.1 4.6 7.5.7 2.4 1.1 6.7 1.1 13v18c0 3.2.3 5.4.8 6.6.4.9 1 1.6 1.9 2.1.9.5 2.5.8 4.9.8v2h-25v-2h1.2c2.4 0 4-.4 5-1.1s1.6-1.8 1.9-3.2c.1-.6.2-2.3.2-5.2v-18c0-5.6-.3-9.2-.9-11-.6-1.7-1.5-3-2.8-3.9-1.3-.9-2.8-1.3-4.6-1.3-1.8 0-3.7.5-5.7 1.5s-4.3 2.9-7.1 5.8v26.9c0 3.5.2 5.7.6 6.5.4.9 1.1 1.6 2.2 2.1 1.1.6 2.9.9 5.5.9v2h-25.3v-2c2.3 0 4-.4 5.3-1.1.7-.4 1.3-1.1 1.8-2.1.4-1 .7-3.2.7-6.3v-46.1c0-5.8-.1-9.4-.4-10.7-.3-1.3-.7-2.2-1.3-2.7-.6-.5-1.3-.7-2.3-.7-.8 0-2 .3-3.8.9l-.8-1.9 15.2-6.2 2.6-.2zM370.3 282.6c0 7.6 1.8 13.5 5.5 17.8 3.7 4.3 8.1 6.5 13.1 6.5 3.3 0 6.2-.9 8.7-2.8 2.5-1.8 4.5-5 6.2-9.4l1.7 1.1c-.8 5.1-3 9.7-6.8 13.9-3.7 4.2-8.4 6.3-14.1 6.3-6.1 0-11.4-2.4-15.7-7.1-4.4-4.8-6.5-11.2-6.5-19.2 0-8.7 2.2-15.5 6.7-20.4 4.5-4.9 10.1-7.3 16.8-7.3 5.7 0 10.4 1.9 14.1 5.6s5.5 8.8 5.5 15.1l-35.2-.1zm0-3.2h23.6c-.2-3.3-.6-5.6-1.2-6.9-.9-2.1-2.3-3.7-4.1-4.9-1.8-1.2-3.8-1.8-5.8-1.8-3.1 0-5.8 1.2-8.3 3.6-2.4 2.4-3.8 5.7-4.2 10zM427.2 261.9v11.5c4.3-7.6 8.6-11.5 13.1-11.5 2 0 3.7.6 5.1 1.9 1.3 1.2 2 2.7 2 4.3 0 1.5-.5 2.7-1.5 3.7s-2.1 1.5-3.4 1.5c-1.3 0-2.8-.6-4.4-1.9-1.6-1.3-2.8-1.9-3.6-1.9-.7 0-1.4.4-2.2 1.1-1.7 1.5-3.4 4-5.2 7.5v24.4c0 2.8.4 5 1.1 6.4.5 1 1.3 1.8 2.6 2.5 1.2.7 3 1 5.3 1v2H410v-2c2.6 0 4.5-.4 5.8-1.2.9-.6 1.6-1.5 1.9-2.8.2-.6.3-2.4.3-5.4v-19.8c0-5.9-.1-9.5-.4-10.6-.2-1.1-.7-2-1.3-2.5-.7-.5-1.5-.8-2.4-.8-1.1 0-2.4.3-3.9.8l-.6-2 15.4-6.2h2.4zM483.2 261.9v17.4h-1.8c-1.4-5.5-3.2-9.2-5.4-11.1-2.2-2-5-3-8.4-3-2.6 0-4.7.7-6.3 2.1-1.6 1.4-2.4 2.9-2.4 4.6 0 2.1.6 3.9 1.8 5.3 1.1 1.5 3.5 3.1 7 4.8l8.1 4c7.5 3.7 11.3 8.5 11.3 14.5 0 4.6-1.8 8.4-5.3 11.2-3.5 2.8-7.4 4.3-11.8 4.3-3.1 0-6.7-.6-10.7-1.7-1.2-.4-2.2-.6-3-.6-.9 0-1.5.5-2 1.5h-1.8V297h1.8c1 5.2 3 9.1 6 11.7 2.9 2.6 6.2 4 9.8 4 2.6 0 4.6-.7 6.3-2.2 1.6-1.5 2.4-3.3 2.4-5.4 0-2.6-.9-4.7-2.7-6.5-1.8-1.7-5.4-4-10.8-6.6-5.4-2.7-8.9-5.1-10.6-7.2-1.7-2.1-2.5-4.8-2.5-8 0-4.2 1.4-7.7 4.3-10.5s6.6-4.2 11.2-4.2c2 0 4.4.4 7.3 1.3 1.9.6 3.2.8 3.8.8.6 0 1.1-.1 1.4-.4s.7-.8 1.2-1.7l1.8-.2z"/></svg>
