<svg id="Layer_1" xmlns="http://www.w3.org/2000/svg" viewBox="0 0 1000 500"><path fill="#459697" d="M30 277.12v-2.37h3.27c3.67 0 6.28-1.17 7.82-3.52.94-1.41 1.41-4.57 1.41-9.48v-56.12c0-5.42-.6-8.82-1.79-10.19-1.67-1.88-4.14-2.82-7.43-2.82H30v-2.37h35.36c12.98 0 22.86 1.47 29.63 4.42s12.21 7.86 16.34 14.73c4.12 6.88 6.18 14.82 6.18 23.83 0 12.09-3.67 22.19-11.02 30.3-8.24 9.05-20.8 13.58-37.67 13.58H30zm24.79-6.28c5.42 1.2 9.97 1.79 13.65 1.79 9.91 0 18.13-3.48 24.66-10.44 6.53-6.96 9.8-16.4 9.8-28.32 0-12-3.27-21.46-9.8-28.38-6.53-6.92-14.93-10.38-25.18-10.38-3.84 0-8.22.62-13.13 1.86v73.87zM136.47 240.54c-.04 8.71 2.07 15.55 6.34 20.5 4.27 4.95 9.29 7.43 15.05 7.43 3.84 0 7.19-1.06 10.03-3.17 2.84-2.11 5.22-5.73 7.14-10.86l1.99 1.28c-.9 5.85-3.5 11.18-7.82 15.98-4.31 4.8-9.72 7.21-16.21 7.21-7.05 0-13.08-2.74-18.1-8.23-5.02-5.49-7.53-12.87-7.53-22.13 0-10.04 2.57-17.86 7.72-23.48 5.15-5.62 11.61-8.42 19.38-8.42 6.58 0 11.98 2.17 16.21 6.5s6.34 10.13 6.34 17.39h-40.54zm0-3.72h27.16c-.21-3.76-.66-6.41-1.35-7.94-1.07-2.39-2.66-4.27-4.77-5.64-2.11-1.37-4.32-2.05-6.63-2.05-3.55 0-6.72 1.38-9.51 4.13-2.79 2.76-4.43 6.59-4.9 11.5zM222.77 216.71v19.99h-2.11c-1.62-6.28-3.71-10.55-6.25-12.81s-5.78-3.4-9.71-3.4c-2.99 0-5.4.79-7.24 2.37-1.84 1.58-2.75 3.33-2.75 5.25 0 2.39.68 4.44 2.05 6.15 1.32 1.75 4.01 3.61 8.07 5.57l9.35 4.55c8.67 4.23 13 9.8 13 16.72 0 5.34-2.02 9.64-6.05 12.91-4.04 3.27-8.55 4.9-13.55 4.9-3.59 0-7.69-.64-12.3-1.92-1.41-.43-2.56-.64-3.46-.64-.98 0-1.75.56-2.31 1.67h-2.11v-20.95h2.11c1.2 5.98 3.48 10.49 6.85 13.52 3.37 3.03 7.15 4.55 11.34 4.55 2.95 0 5.35-.86 7.21-2.59 1.86-1.73 2.79-3.81 2.79-6.25 0-2.95-1.04-5.42-3.11-7.43s-6.2-4.55-12.4-7.62c-6.19-3.08-10.25-5.85-12.17-8.33-1.92-2.43-2.88-5.51-2.88-9.23 0-4.83 1.65-8.86 4.97-12.11 3.31-3.25 7.59-4.87 12.84-4.87 2.31 0 5.1.49 8.39 1.47 2.18.64 3.63.96 4.36.96.68 0 1.22-.15 1.6-.45.38-.3.83-.96 1.35-1.99h2.12zM252.94 199.15v19.28h13.71v4.48h-13.71v38.05c0 3.8.54 6.36 1.63 7.69 1.09 1.32 2.49 1.99 4.2 1.99 1.41 0 2.78-.44 4.1-1.31 1.32-.87 2.35-2.17 3.08-3.88h2.5c-1.5 4.19-3.61 7.33-6.34 9.45-2.73 2.11-5.55 3.17-8.46 3.17-1.96 0-3.89-.54-5.77-1.63-1.88-1.09-3.27-2.65-4.16-4.68-.9-2.03-1.35-5.16-1.35-9.38v-39.46h-9.29v-2.11c2.35-.94 4.75-2.53 7.21-4.77 2.46-2.24 4.64-4.9 6.57-7.98.98-1.62 2.35-4.59 4.1-8.9h1.98zM292.59 216.71v47.15c0 3.67.27 6.12.8 7.34.53 1.22 1.32 2.12 2.37 2.72 1.05.6 2.96.9 5.73.9v2.31h-28.51v-2.31c2.86 0 4.78-.28 5.77-.83.98-.55 1.76-1.47 2.34-2.75.58-1.28.87-3.74.87-7.37v-22.61c0-6.36-.19-10.48-.58-12.36-.3-1.37-.77-2.32-1.41-2.85-.64-.53-1.52-.8-2.63-.8-1.2 0-2.65.32-4.36.96l-.9-2.31 17.68-7.18h2.83zm-5.31-30.69c1.79 0 3.32.63 4.58 1.89 1.26 1.26 1.89 2.79 1.89 4.58s-.63 3.33-1.89 4.61c-1.26 1.28-2.79 1.92-4.58 1.92s-3.33-.64-4.61-1.92c-1.28-1.28-1.92-2.82-1.92-4.61s.63-3.32 1.89-4.58 2.8-1.89 4.64-1.89zM325.91 229.13c6.88-8.29 13.43-12.43 19.67-12.43 3.2 0 5.96.8 8.26 2.4 2.31 1.6 4.14 4.24 5.51 7.91.94 2.56 1.41 6.49 1.41 11.79v25.05c0 3.72.3 6.24.9 7.56.47 1.07 1.23 1.9 2.27 2.5 1.05.6 2.98.9 5.8.9v2.31H340.7v-2.31h1.22c2.73 0 4.64-.42 5.73-1.25 1.09-.83 1.85-2.06 2.27-3.68.17-.64.26-2.65.26-6.02v-24.02c0-5.34-.69-9.21-2.08-11.63-1.39-2.41-3.73-3.62-7.02-3.62-5.08 0-10.14 2.78-15.18 8.33v30.94c0 3.97.23 6.43.7 7.37.6 1.24 1.42 2.15 2.47 2.72 1.05.58 3.17.87 6.37.87v2.31h-29.02v-2.31h1.28c2.99 0 5.01-.76 6.05-2.27 1.05-1.52 1.57-4.41 1.57-8.68v-21.78c0-7.05-.16-11.34-.48-12.88-.32-1.54-.81-2.58-1.47-3.14-.66-.55-1.55-.83-2.66-.83-1.2 0-2.63.32-4.29.96l-.96-2.31 17.68-7.18h2.75v12.42zM371.07 218.44h27.35v2.37h-1.35c-1.92 0-3.36.42-4.32 1.25-.96.83-1.44 1.87-1.44 3.11 0 1.67.7 3.97 2.11 6.92l14.29 29.6 13.13-32.42c.73-1.75 1.09-3.48 1.09-5.19 0-.77-.15-1.35-.45-1.73-.34-.47-.88-.84-1.6-1.12-.73-.28-2.01-.42-3.84-.42v-2.37h19.09v2.37c-1.58.17-2.8.51-3.65 1.03-.85.51-1.79 1.47-2.82 2.88-.38.6-1.11 2.24-2.18 4.93l-23.9 58.55c-2.31 5.68-5.33 9.97-9.07 12.88-3.74 2.9-7.33 4.36-10.79 4.36-2.52 0-4.59-.73-6.21-2.18-1.62-1.45-2.43-3.12-2.43-5 0-1.79.59-3.23 1.76-4.32 1.17-1.09 2.79-1.63 4.84-1.63 1.41 0 3.33.47 5.77 1.41 1.71.64 2.78.96 3.2.96 1.28 0 2.68-.66 4.2-1.99 1.52-1.32 3.04-3.89 4.58-7.69l4.16-10.19-21.08-44.27c-.64-1.32-1.67-2.97-3.08-4.93-1.07-1.49-1.94-2.5-2.63-3.01-.98-.68-2.56-1.28-4.74-1.79v-2.37z"/><path fill="#033d63" d="M462.81 236.44v25.3c0 5.47.6 8.86 1.79 10.19 1.62 1.88 4.08 2.82 7.37 2.82h3.33v2.37h-37.22v-2.37h3.27c3.67 0 6.3-1.2 7.88-3.59.85-1.32 1.28-4.46 1.28-9.42v-56.12c0-5.47-.58-8.86-1.73-10.19-1.67-1.88-4.14-2.82-7.43-2.82h-3.27v-2.37h31.84c7.77 0 13.9.8 18.39 2.4 4.48 1.6 8.26 4.3 11.34 8.1s4.61 8.31 4.61 13.52c0 7.09-2.34 12.86-7.02 17.3-4.68 4.44-11.29 6.66-19.83 6.66-2.09 0-4.36-.15-6.79-.45-2.43-.29-5.04-.73-7.81-1.33zm0-3.65c2.26.43 4.27.75 6.02.96 1.75.21 3.25.32 4.48.32 4.44 0 8.27-1.72 11.5-5.16 3.22-3.44 4.84-7.89 4.84-13.36 0-3.76-.77-7.25-2.31-10.47s-3.72-5.64-6.53-7.24c-2.82-1.6-6.02-2.4-9.61-2.4-2.18 0-4.98.41-8.39 1.22v36.13zM564.41 218.44v35.55c0 6.79.16 10.94.48 12.46.32 1.52.83 2.57 1.54 3.17.71.6 1.53.9 2.47.9 1.32 0 2.82-.36 4.49-1.09l.9 2.24-17.55 7.24h-2.88v-12.43c-5.04 5.47-8.88 8.9-11.53 10.31-2.65 1.41-5.45 2.11-8.39 2.11-3.29 0-6.14-.95-8.55-2.85-2.41-1.9-4.09-4.35-5.03-7.34-.94-2.99-1.41-7.22-1.41-12.68v-26.2c0-2.78-.3-4.7-.9-5.77-.6-1.07-1.49-1.89-2.66-2.47-1.18-.58-3.3-.84-6.37-.8v-2.37h20.56v39.27c0 5.47.95 9.05 2.85 10.76 1.9 1.71 4.2 2.56 6.89 2.56 1.84 0 3.92-.58 6.25-1.73s5.09-3.35 8.3-6.6v-33.25c0-3.33-.61-5.58-1.83-6.76-1.22-1.17-3.75-1.8-7.59-1.89v-2.37h19.96zM594.65 228.56c5.68-7.9 11.81-11.85 18.39-11.85 6.02 0 11.28 2.57 15.76 7.72s6.73 12.18 6.73 21.11c0 10.42-3.46 18.81-10.38 25.18-5.94 5.47-12.56 8.2-19.86 8.2-3.42 0-6.89-.62-10.41-1.86-3.52-1.24-7.12-3.1-10.79-5.57v-60.8c0-6.66-.16-10.76-.48-12.3-.32-1.54-.82-2.58-1.5-3.14-.68-.55-1.54-.83-2.56-.83-1.2 0-2.69.34-4.49 1.02l-.9-2.24 17.62-7.18h2.88v42.54zm0 4.1v35.11c2.18 2.14 4.43 3.75 6.76 4.84 2.33 1.09 4.71 1.63 7.14 1.63 3.89 0 7.51-2.14 10.86-6.41 3.35-4.27 5.03-10.48 5.03-18.64 0-7.52-1.68-13.29-5.03-17.33-3.35-4.04-7.16-6.05-11.43-6.05-2.26 0-4.53.58-6.79 1.73-1.71.85-3.89 2.56-6.54 5.12zM664.35 186.02v77.84c0 3.67.27 6.11.8 7.3.53 1.2 1.35 2.1 2.47 2.72 1.11.62 3.18.93 6.21.93v2.31h-28.76v-2.31c2.69 0 4.53-.28 5.51-.83.98-.55 1.75-1.47 2.31-2.75.55-1.28.83-3.74.83-7.37v-53.3c0-6.62-.15-10.69-.45-12.2-.3-1.52-.78-2.55-1.44-3.11-.66-.55-1.51-.83-2.53-.83-1.11 0-2.52.34-4.23 1.02l-1.09-2.24 17.49-7.18h2.88zM700.87 216.71v47.15c0 3.67.27 6.12.8 7.34.53 1.22 1.32 2.12 2.37 2.72 1.05.6 2.96.9 5.73.9v2.31h-28.51v-2.31c2.86 0 4.78-.28 5.77-.83.98-.55 1.76-1.47 2.34-2.75.58-1.28.87-3.74.87-7.37v-22.61c0-6.36-.19-10.48-.58-12.36-.3-1.37-.77-2.32-1.41-2.85-.64-.53-1.52-.8-2.63-.8-1.2 0-2.65.32-4.36.96l-.9-2.31 17.68-7.18h2.83zm-5.32-30.69c1.79 0 3.32.63 4.58 1.89 1.26 1.26 1.89 2.79 1.89 4.58s-.63 3.33-1.89 4.61c-1.26 1.28-2.79 1.92-4.58 1.92s-3.33-.64-4.61-1.92c-1.28-1.28-1.92-2.82-1.92-4.61s.63-3.32 1.89-4.58c1.25-1.26 2.8-1.89 4.64-1.89zM755 216.71v19.99h-2.11c-1.62-6.28-3.71-10.55-6.25-12.81s-5.78-3.4-9.71-3.4c-2.99 0-5.4.79-7.24 2.37-1.84 1.58-2.75 3.33-2.75 5.25 0 2.39.68 4.44 2.05 6.15 1.32 1.75 4.01 3.61 8.07 5.57l9.35 4.55c8.67 4.23 13 9.8 13 16.72 0 5.34-2.02 9.64-6.05 12.91-4.04 3.27-8.55 4.9-13.55 4.9-3.59 0-7.69-.64-12.3-1.92-1.41-.43-2.56-.64-3.46-.64-.98 0-1.75.56-2.31 1.67h-2.11v-20.95h2.11c1.2 5.98 3.48 10.49 6.86 13.52 3.37 3.03 7.15 4.55 11.34 4.55 2.95 0 5.35-.86 7.21-2.59 1.86-1.73 2.79-3.81 2.79-6.25 0-2.95-1.04-5.42-3.11-7.43s-6.2-4.55-12.4-7.62c-6.19-3.08-10.25-5.85-12.17-8.33-1.92-2.43-2.88-5.51-2.88-9.23 0-4.83 1.65-8.86 4.97-12.11 3.31-3.25 7.59-4.87 12.84-4.87 2.31 0 5.1.49 8.39 1.47 2.18.64 3.63.96 4.36.96.68 0 1.22-.15 1.6-.45.38-.3.83-.96 1.35-1.99H755zM785.36 186.02v42.92c4.74-5.21 8.5-8.55 11.28-10.03 2.78-1.47 5.55-2.21 8.33-2.21 3.33 0 6.19.92 8.58 2.75 2.39 1.84 4.16 4.72 5.32 8.65.81 2.73 1.22 7.73 1.22 14.99v20.76c0 3.72.3 6.26.9 7.62.43 1.02 1.15 1.84 2.18 2.43 1.03.6 2.9.9 5.64.9v2.31h-28.83v-2.31h1.35c2.73 0 4.63-.42 5.7-1.25 1.07-.83 1.81-2.06 2.24-3.68.13-.68.19-2.69.19-6.02V243.1c0-6.41-.33-10.61-.99-12.62-.66-2.01-1.72-3.51-3.17-4.52-1.45-1-3.2-1.51-5.25-1.51-2.09 0-4.27.56-6.53 1.67-2.26 1.11-4.98 3.35-8.14 6.73v31.01c0 4.01.22 6.51.67 7.5.45.98 1.28 1.8 2.5 2.47 1.22.66 3.32.99 6.31.99v2.31h-29.08v-2.31c2.6 0 4.65-.41 6.15-1.22.85-.43 1.54-1.24 2.05-2.43.51-1.2.77-3.63.77-7.3v-53.11c0-6.7-.16-10.83-.48-12.36-.32-1.54-.81-2.58-1.47-3.14-.66-.55-1.55-.83-2.66-.83-.9 0-2.35.34-4.36 1.02l-.9-2.24 17.55-7.18h2.93zM843.6 240.54c-.04 8.71 2.07 15.55 6.34 20.5 4.27 4.95 9.29 7.43 15.06 7.43 3.84 0 7.19-1.06 10.03-3.17 2.84-2.11 5.22-5.73 7.14-10.86l1.99 1.28c-.9 5.85-3.5 11.18-7.82 15.98-4.31 4.8-9.72 7.21-16.21 7.21-7.05 0-13.08-2.74-18.1-8.23-5.02-5.49-7.53-12.87-7.53-22.13 0-10.04 2.57-17.86 7.72-23.48 5.15-5.62 11.61-8.42 19.38-8.42 6.58 0 11.98 2.17 16.21 6.5s6.34 10.13 6.34 17.39H843.6zm0-3.72h27.16c-.21-3.76-.66-6.41-1.35-7.94-1.07-2.39-2.66-4.27-4.77-5.64-2.11-1.37-4.32-2.05-6.63-2.05-3.55 0-6.72 1.38-9.51 4.13-2.8 2.76-4.43 6.59-4.9 11.5zM909.13 216.71v13.2c4.91-8.8 9.95-13.2 15.12-13.2 2.35 0 4.29.72 5.83 2.15s2.31 3.09 2.31 4.97c0 1.67-.56 3.08-1.67 4.23-1.11 1.15-2.43 1.73-3.97 1.73-1.5 0-3.17-.74-5.03-2.21-1.86-1.47-3.23-2.21-4.13-2.21-.77 0-1.6.43-2.5 1.28-1.92 1.75-3.91 4.63-5.96 8.65v28.12c0 3.25.41 5.7 1.22 7.37.55 1.15 1.54 2.11 2.95 2.88 1.41.77 3.44 1.15 6.09 1.15v2.31h-30.04v-2.31c2.99 0 5.21-.47 6.66-1.41 1.07-.68 1.81-1.77 2.24-3.27.21-.73.32-2.8.32-6.21v-22.74c0-6.83-.14-10.9-.42-12.2-.28-1.3-.79-2.25-1.54-2.85-.75-.6-1.68-.9-2.79-.9-1.32 0-2.82.32-4.48.96l-.64-2.31 17.75-7.18h2.68zM973.58 216.71v19.99h-2.11c-1.62-6.28-3.71-10.55-6.25-12.81s-5.78-3.4-9.71-3.4c-2.99 0-5.4.79-7.24 2.37-1.84 1.58-2.75 3.33-2.75 5.25 0 2.39.68 4.44 2.05 6.15 1.32 1.75 4.01 3.61 8.07 5.57l9.35 4.55c8.67 4.23 13 9.8 13 16.72 0 5.34-2.02 9.64-6.05 12.91-4.04 3.27-8.55 4.9-13.55 4.9-3.59 0-7.69-.64-12.3-1.92-1.41-.43-2.56-.64-3.46-.64-.98 0-1.75.56-2.31 1.67h-2.11v-20.95h2.11c1.2 5.98 3.48 10.49 6.86 13.52 3.37 3.03 7.15 4.55 11.34 4.55 2.95 0 5.35-.86 7.21-2.59 1.86-1.73 2.79-3.81 2.79-6.25 0-2.95-1.04-5.42-3.11-7.43s-6.2-4.55-12.4-7.62c-6.19-3.08-10.25-5.85-12.17-8.33-1.92-2.43-2.88-5.51-2.88-9.23 0-4.83 1.65-8.86 4.97-12.11 3.31-3.25 7.59-4.87 12.84-4.87 2.31 0 5.1.49 8.39 1.47 2.18.64 3.63.96 4.36.96.68 0 1.22-.15 1.6-.45.38-.3.83-.96 1.35-1.99h2.11z"/></svg>
