<svg xmlns="http://www.w3.org/2000/svg" viewBox="0 0 560 320"><g id="pr"><path d="M401.4 53.1c-21.5-16.5-48.6-30.3-81.2-41.6 51.5 76.1 42.2 148.3-27.7 216.6.1 0 .2-.1.3-.1 65.5-34 101.7-92.4 108.6-174.9z" fill="#d1eaf1"/><path d="M437.7 90.4c-9.5-13.6-21.6-26-36.3-37.3-6.9 82.5-43.1 140.9-108.6 174.9 67-22.4 115.2-68.3 144.9-137.6z" fill="#b0d3e5"/><path d="M465.9 80.9c-17.9-23.1-39-42.3-63.3-57.6 0 10.3-.4 20.2-1.2 29.8 14.7 11.2 26.8 23.6 36.3 37.3C408 159.7 359.8 205.6 292.8 228c-.1 0-.1.1-.2.1 91-12.1 148.7-61.2 173.3-147.2z" fill="#a5cbe2"/><path d="M473 50.1c-1.9 10.7-4.3 21-7.1 30.8 10.9 14 20.5 29.5 29 46.4-47.7 61.6-115 95.2-202.3 100.8 116.4-4.5 193.3-31.4 230.8-80.6-9-31.3-25.7-63.8-50.4-97.4z" fill="#5c99ca"/><path d="M494.9 127.3c-8.5-16.9-18.1-32.4-29-46.4-24.6 86-82.3 135.1-173.3 147.2 87.3-5.6 154.6-39.2 202.3-100.8z" fill="#5294c7"/><path d="M533.5 211.3c0-12.9-1.7-24.6-5-35.3-49.2 33.6-127.9 50.9-235.9 52 67.1 1.2 147.4-4.4 240.9-16.7" fill="#2468b9"/></g><g id="pl"><path d="M29.9 214.6c0-11.2 1.7-24.6 5-40.3C77.4 209 149.5 226.9 251.5 228c-56 2.3-129.8-2.2-221.6-13.4" fill="#7aa4d6"/><path d="M40 147.5c0-4.5 4.5-21.3 13.4-50.4 38.1 78.3 104.1 122 198.1 130.9-100.8-2.2-171.3-29-211.5-80.5" fill="#9bc0dd"/></g><g id="Bible"><path d="M301.7 231.4c-9 0-16.7 3.5-19.2 8.4h-1.8c-2.5-4.8-10.1-8.4-19.1-8.4H29.9v10.9h.1c1.3 5.2 15 9.3 31.8 9.3 4.1 0 8.1-.3 11.7-.7v4.8h419.7v-4.4c2.6.2 5.4.3 8.3.3 16.8 0 30.5-4.1 31.8-9.3h.1v-10.9H301.7z" fill="#6c6c6c"/><circle fill="#a1a1a1" cx="482.2" cy="243.2" r="5"/><path fill="#a1a1a1" d="M401.7 240.6h65.5v6.7h-65.5v-6.7z"/></g><path fill="#595959" d="M108.4 280.7h3.9v29.7h-3.9zM134.8 299.5h9.1c-.4 2.2-1.5 4-3.3 5.6-1.9 1.6-4.2 2.4-7.2 2.4-2.3 0-4.5-.6-6.5-1.6-1.9-1-3.4-2.5-4.6-4.4-1.1-2-1.6-3.9-1.6-6 0-1.9.5-3.9 1.6-5.7 1-1.8 2.6-3.2 4.5-4.3 2-1.1 4-1.6 6.2-1.6 1.8 0 3.6.4 5.4 1.2 1.9.8 3.6 2 5.1 3.5l.3.3 2.9-2.8-.4-.4c-2-1.8-4.3-3.3-6.5-4.3-2.2-.9-4.5-1.3-7.1-1.3-3 0-5.8.7-8.3 2.1-2.3 1.3-4.2 3.1-5.8 5.7-1.4 2.3-2.2 5.1-2.2 7.9 0 3.8 1.2 7.1 3.7 10 3.2 3.7 7.6 5.6 13 5.6 4.5 0 8.2-1.4 10.8-4 2.8-2.7 4.2-6.3 4.2-11v-.5h-13.4v3.6zM95.1 281.7c-2-.7-5-1-9.6-1H79v29.7h9.8c3.4 0 6.4-.6 8.5-1.7 2.1-1.1 3.8-2.8 5-5 1.3-2.2 2-4.8 2-7.9 0-3.4-.8-6.4-2.5-8.9-1.5-2.3-3.8-4.1-6.7-5.2zm5.2 14.3c0 2.4-.6 4.6-1.8 6.4-1.2 1.7-2.8 2.9-4.8 3.6-1.5.5-4.1.7-8.2.7h-2.8l.1-22.1h1.5c3.9 0 6.9.3 8.8.8 2.3.7 4.1 2 5.3 3.8 1.3 2 1.9 4.2 1.9 6.8zM186.8 280.7l-14.1 29.7h4.2l4.5-9.5h11.8l4.5 9.5h4.2L188 280.7h-1.2zm4.7 16.5h-8.2l4.1-8.7 4.1 8.7zM209.1 306.7v-26h-3.8v29.8h14.9v-3.8zM152.2 280.7h3.9v29.7h-3.9zM175.6 280.7h-16.7v3.8h6.4v25.9h3.9v-25.9h6.4z"/><g><path fill="#2852aa" d="M250.3 295.6c-.7-.6-1.5-1.1-2.6-1.5.9-.6 1.5-1.3 2-2.2.7-1.2 1-2.4 1-3.7 0-1.4-.4-2.8-1.2-4-.8-1.3-1.9-2.2-3.1-2.7-1.5-.6-3.3-.8-5.5-.8h-6v29.7h8.4c2.8 0 5.2-.8 7.1-2.5 1.7-1.5 2.7-3.7 2.7-6.2 0-1.3-.2-2.4-.8-3.4-.5-1.1-1.1-1.9-2-2.7zm-4.4-5.1c-.4.7-1.1 1.2-2 1.6-.6.3-1.8.6-4.2.6h-1.1v-8.3h2.7c2 0 3.3.3 4.1 1 .8.7 1.2 1.6 1.2 2.7 0 .8-.2 1.7-.7 2.4zm-7.3 6.1h1.2c2.7 0 4.3.2 5 .4 1.5.4 2.5 1 3.2 1.9.8.8 1.2 1.7 1.2 2.9 0 .9-.3 1.7-.8 2.5-.6.8-1.4 1.4-2.2 1.7-.9.4-2.4.6-4.4.6h-3.1v-10zM325.6 284.5v-3.8h-17.4v29.7h17.3v-3.8H312v-10.3h13.5v-3.8H312v-8zM293.6 280.7h-3.9v29.8h14.9v-3.8h-11zM257.2 280.7h3.9v29.7h-3.9zM282.3 295.6c-.7-.6-1.5-1.1-2.6-1.5.9-.6 1.5-1.3 2-2.2.7-1.2 1-2.4 1-3.7 0-1.4-.4-2.8-1.2-4-.8-1.3-1.9-2.2-3.1-2.7-1.5-.6-3.3-.8-5.5-.8h-6v29.7h8.4c2.8 0 5.2-.8 7.1-2.5 1.7-1.5 2.7-3.7 2.7-6.2 0-1.3-.2-2.4-.8-3.4-.5-1.1-1.1-1.9-2-2.7zm-4.4-5.1c-.4.7-1.1 1.2-2 1.6-.6.3-1.8.6-4.2.6h-1.1v-8.3h2.7c2 0 3.3.3 4.1 1 .8.7 1.2 1.6 1.2 2.7 0 .8-.2 1.7-.7 2.4zm-7.3 6.1h1.2c2.7 0 4.3.2 5 .4 1.5.4 2.5 1 3.2 1.9.8.8 1.2 1.7 1.2 2.9 0 .9-.3 1.7-.8 2.5-.6.8-1.4 1.4-2.2 1.7-.9.4-2.4.6-4.4.6h-3.1v-10z"/></g><g><path fill="#595959" d="M491.1 280.7l-6.9 11.3-7.1-11.3h-4.5l9.7 15.6v14.1h3.8v-14.1l9.5-15.6zM374.7 280c-2.7 0-5.3.7-7.7 2.1-2.5 1.4-4.4 3.3-5.7 5.7-1.4 2.6-2.1 5.2-2.1 7.9 0 4.3 1.5 7.9 4.5 11s6.8 4.5 11.2 4.5c4.3 0 8-1.5 11.1-4.5 3-3 4.5-6.7 4.5-11.1 0-4.4-1.5-8-4.5-11.1-3.1-3-6.8-4.5-11.3-4.5zm6.2 25.9c-1.8 1-3.8 1.5-5.9 1.5-3.3 0-6-1.1-8.3-3.4-2.3-2.2-3.4-5-3.4-8.2 0-2.3.5-4.3 1.5-6 1-1.8 2.5-3.3 4.3-4.3 1.9-1.1 3.8-1.6 5.7-1.6 2.1 0 4 .5 5.9 1.6 1.8 1 3.2 2.5 4.3 4.2 1 1.8 1.5 3.7 1.5 5.9 0 2.3-.5 4.3-1.5 6.1-.8 1.7-2.2 3.1-4.1 4.2zM348.7 293.4l-.7-.5c-1.6-1.2-2.6-2-3-2.3-.6-.6-1-1.1-1.3-1.8-.2-.5-.3-1-.3-1.6 0-.8.3-1.6 1-2.2.6-.6 1.4-1 2.4-1 .9 0 1.6.3 2.3.6.8.4 1.8 1.6 2.6 2.7l.3.4 3.1-2.4-.3-.4c-1.3-1.9-2.6-3.1-3.9-3.8-1.2-.7-2.5-1.1-4.1-1.1-1.3 0-2.6.3-3.7 1-1.1.6-2 1.5-2.7 2.6-.6 1.1-1 2.3-1 3.7 0 1.7.5 3.2 1.6 4.7.6.8 2.1 2.2 4.6 4 2.4 1.8 3.9 3.2 4.8 4.5.6.8.9 1.6.9 2.5 0 .7-.2 1.5-.6 2.2-.3.6-.9 1.1-1.7 1.6-.7.4-1.5.6-2.4.6-2.2 0-4-1.5-5.6-4.4l-.3-.5-3.3 2 .2.4c1.3 2.5 2.6 4 4 4.9 1.5 1 3.2 1.5 5 1.5 2.4 0 4.4-.8 6.1-2.4 1.7-1.6 2.6-3.5 2.6-5.8 0-1.5-.5-3.1-1.5-4.6-.9-1.6-2.7-3.4-5.1-5.1zM455.5 284.5h6.4v25.9h3.9v-25.9h6.4v-3.8h-16.7zM437 310.4h17.2v-3.8h-13.5v-10.3h13.5v-3.8h-13.5v-8h13.8v-3.8H437zM427.5 280.7h3.9v29.7h-3.9zM419.8 302.9c-2.6 3-5.9 4.5-9.7 4.5-3.6 0-6.5-1.1-8.7-3.4-2.3-2.3-3.5-5.1-3.5-8.4 0-2.2.5-4.2 1.5-6.1.9-1.7 2.3-3 4.3-4.2 1.8-1.1 3.8-1.6 6.1-1.6 1.9 0 3.8.4 5.6 1.3 1.6.8 3.2 2 4.3 3.5l.3.4 3.1-2.3-.3-.4c-1.3-1.9-3.1-3.4-5.4-4.6-2.2-1.1-4.7-1.7-7.5-1.7-4.7 0-8.7 1.5-11.7 4.4-3 3-4.5 6.7-4.5 11 0 4 1.3 7.6 3.8 10.5 3 3.4 7.1 5.2 12.3 5.2 2.7 0 5.1-.5 7.4-1.5 2.3-1 4.1-2.5 5.6-4.3l.3-.4-3.1-2.3-.2.4z"/></g></svg>
