<svg xmlns="http://www.w3.org/2000/svg" width="800" height="800"><g transform="translate(0 -252.362)"><circle cx="400" cy="552.362" r="300" fill="#0ff"/><path fill="red" d="M380 277.362h40v540h-40z"/><path fill="red" d="M250 372.362h300v40H250z"/><g aria-label="eBible.org" style="line-height:0%;text-align:center" font-weight="400" font-family="Gentium Basic" letter-spacing="0" word-spacing="0" text-anchor="middle" font-size="173.333"><path d="M80.271 931.632q-4.4 0-8.125 1.692-3.64 1.693-6.517 4.825-2.793 3.047-4.74 7.363-1.861 4.232-2.623 9.394H94.49q1.947 0 2.539-.592.677-.677.677-2.454 0-2.286-.677-5.671-.592-3.47-2.539-6.686-1.862-3.301-5.332-5.586-3.385-2.285-8.887-2.285zm31.315 25.221q-1.523 1.693-4.062 3.132-2.54 1.438-5.248 2.539H57.758q.085 6.601 1.778 12.61 1.777 5.925 4.993 10.495 3.3 4.486 7.871 7.194 4.655 2.708 10.41 2.708 2.624 0 5.078-.338 2.54-.339 5.417-1.524 2.878-1.184 6.348-3.47 3.554-2.285 8.294-6.178 1.1.592 1.862 1.693.846 1.1 1.27 1.777-5.671 6.178-9.987 9.987-4.232 3.724-8.04 5.755-3.725 2.032-7.449 2.624-3.64.677-7.955.677-6.517 0-12.442-2.793-5.84-2.793-10.325-7.871-4.486-5.163-7.194-12.357-2.624-7.278-2.624-16.25 0-5.67 1.27-11.172 1.269-5.5 3.639-10.41 2.454-4.909 5.924-9.056 3.47-4.147 7.871-7.194 1.862-1.27 4.147-2.454 2.37-1.27 4.91-2.2 2.538-.932 4.993-1.44 2.539-.592 4.824-.592 5.501 0 9.818 1.523 4.316 1.524 7.532 4.148 3.216 2.539 5.417 6.009 2.2 3.385 3.555 7.194 1.438 3.808 2.03 7.786.593 3.893.593 7.448z" style="-inkscape-font-specification:'Gentium Basic'" fill="red"/><path d="M153.48 901.925q-1.184 0-2.454.084-1.184 0-2.454.085v40.54h2.878q9.648 0 15.573-1.862 6.009-1.946 9.31-4.909 3.3-2.962 4.485-6.686 1.185-3.724 1.185-7.363 0-4.232-1.439-7.871-1.354-3.64-4.655-6.263-3.3-2.709-8.802-4.232-5.417-1.523-13.626-1.523zm9.057 47.057q-4.063 0-7.533.423-3.385.339-6.432.847v44.94q0 .678.762 1.27 1.439.508 3.3.847 1.862.254 3.81.423 1.946.17 3.892.254 1.947.084 3.64.084 6.093 0 11.002-1.523 4.91-1.608 8.38-4.401 3.554-2.793 5.416-6.686 1.862-3.978 1.862-8.718 0-4.655-1.693-9.563-1.608-4.91-5.078-8.972-3.385-4.062-8.717-6.601-5.248-2.624-12.611-2.624zm41.979 24.883q0 7.194-2.878 13.034-2.793 5.755-7.955 9.817-5.078 4.063-12.188 6.263t-15.657 2.2q-1.862 0-4.486-.084-2.54 0-5.501-.085-2.963-.085-6.094-.17-3.132-.084-6.094-.253-7.025-.254-14.726-.593h-6.179v-3.639q5.755-1.185 8.972-2.54 3.3-1.438 3.3-2.623v-91.914q-3.216.423-6.347.931-3.047.423-5.925.931l-.762-5.247q3.301-.931 7.618-1.778 4.4-.93 9.225-1.608 4.824-.761 9.818-1.185 4.993-.507 9.563-.507 8.464 0 15.32 1.608 6.855 1.523 11.594 4.485 4.825 2.963 7.364 7.194 2.623 4.232 2.623 9.564 0 9.14-4.316 15.742-4.316 6.517-11.764 9.395 5.416 1.016 10.071 3.808 4.655 2.793 8.04 6.94 3.47 4.063 5.417 9.31 1.947 5.163 1.947 11.003zM219.92 1003.995v-3.64q5.755-1.184 8.802-2.538 3.047-1.44 3.047-2.624v-47.904q0-4.316-.17-6.94-.169-2.708-1.27-4.147-1.1-1.523-3.554-2.2-2.37-.678-6.855-1.1v-3.386q2.623-.508 5.501-1.185 2.962-.762 5.84-1.608 2.877-.931 5.501-1.947 2.624-1.015 4.824-2.031h2.878v72.448q0 1.016 2.793 2.539 2.877 1.439 9.056 2.624v3.639zm27.083-106.725q0 2.37-.762 4.485-.761 2.116-2.116 3.724-1.27 1.524-3.047 2.455-1.777.93-3.893.93-3.808 0-5.501-2.115-1.608-2.116-1.608-6.01 0-2.369.762-4.485.761-2.116 2.116-3.64 1.354-1.607 3.046-2.454 1.778-.93 3.809-.93 7.194 0 7.194 8.04zM341.456 962.354q0 4.91-1.27 10.072-1.269 5.163-3.723 10.072-2.455 4.908-6.01 9.31-3.554 4.4-8.125 7.701-4.485 3.216-9.902 5.078-5.417 1.947-11.68 1.947-1.608 0-4.485-.762-2.793-.677-6.517-2.03-3.64-1.355-7.956-3.302-4.316-2.03-8.887-4.57V894.307q0-3.893-.423-6.009-.423-2.116-1.608-3.131-1.185-1.1-3.385-1.439-2.116-.338-5.586-.762v-3.385q5.586-1.354 10.664-2.708 5.078-1.44 9.902-4.063l.847.846q.507.508 1.015.931.593.508 1.27 1.1v66.778q4.231-5.078 8.379-8.802 4.231-3.724 8.04-6.094 3.893-2.454 7.194-3.64 3.3-1.184 5.755-1.184 5.755 0 10.58 2.708 4.908 2.709 8.379 7.871 3.554 5.079 5.5 12.442 2.032 7.363 2.032 16.588zm-11.426 7.11q0-8.464-1.777-14.98-1.693-6.602-4.655-11.088-2.878-4.486-6.686-6.855-3.809-2.37-7.871-2.37-1.524 0-4.063.93-2.454.847-5.586 2.963-3.131 2.031-6.686 5.586-3.555 3.47-7.11 8.717v34.447q3.386 2.54 6.856 4.232 3.555 1.692 6.686 2.708 3.217.931 5.756 1.354 2.623.423 4.147.423 5.162 0 9.056-2.2 3.893-2.285 6.517-5.925 2.708-3.723 4.062-8.378t1.354-9.564zM354.151 1003.995v-3.64q3.64-.592 6.094-1.184 2.455-.677 3.893-1.27 1.44-.677 2.032-1.354.677-.677.677-1.354V894.308q0-3.81-.508-5.925-.508-2.116-1.862-3.131-1.354-1.1-3.64-1.44-2.285-.422-5.84-.846v-3.385q6.095-1.185 11.173-2.624t10.325-4.147l3.047 2.878v119.505q0 1.27 2.878 2.624 2.877 1.354 9.817 2.539v3.639zM438.11 931.632q-4.401 0-8.125 1.692-3.64 1.693-6.517 4.825-2.793 3.047-4.74 7.363-1.862 4.232-2.623 9.394h36.223q1.947 0 2.54-.592.677-.677.677-2.454 0-2.286-.677-5.671-.593-3.47-2.54-6.686-1.861-3.301-5.332-5.586-3.385-2.285-8.886-2.285zm31.315 25.221q-1.524 1.693-4.063 3.132-2.539 1.438-5.247 2.539h-44.518q.084 6.601 1.777 12.61 1.777 5.925 4.994 10.495 3.3 4.486 7.87 7.194 4.656 2.708 10.41 2.708 2.624 0 5.079-.338 2.539-.339 5.417-1.524 2.877-1.184 6.347-3.47 3.555-2.285 8.295-6.178 1.1.592 1.861 1.693.847 1.1 1.27 1.777-5.67 6.178-9.987 9.987-4.232 3.724-8.04 5.755-3.724 2.032-7.448 2.624-3.64.677-7.956.677-6.517 0-12.441-2.793-5.84-2.793-10.326-7.871-4.486-5.163-7.194-12.357-2.624-7.278-2.624-16.25 0-5.67 1.27-11.172 1.27-5.5 3.64-10.41 2.454-4.909 5.924-9.056 3.47-4.147 7.87-7.194 1.863-1.27 4.148-2.454 2.37-1.27 4.909-2.2 2.539-.932 4.993-1.44 2.54-.592 4.825-.592 5.5 0 9.817 1.523 4.317 1.524 7.533 4.148 3.216 2.539 5.416 6.009 2.201 3.385 3.555 7.194 1.439 3.808 2.031 7.786.593 3.893.593 7.448zM507.595 993.585q0 2.962-.93 5.501-.847 2.455-2.455 4.316-1.523 1.862-3.724 2.878-2.116 1.1-4.57 1.1-4.57 0-6.517-2.454t-1.947-7.025q0-2.877.931-5.332.931-2.539 2.54-4.4 1.607-1.947 3.723-3.048 2.2-1.1 4.57-1.1 4.232 0 6.264 2.54 2.115 2.454 2.115 7.024zM583.26 965.486q0-6.686-2.201-12.695-2.2-6.094-5.67-10.664-3.47-4.655-7.872-7.364-4.4-2.708-8.717-2.708-6.432 0-10.833 2.454-4.402 2.455-7.11 6.771-2.624 4.232-3.808 10.072-1.185 5.84-1.185 12.61 0 6.687 2.37 12.78 2.37 6.01 5.924 10.58 3.64 4.57 7.956 7.278 4.316 2.624 8.21 2.624 6.008 0 10.325-2.2 4.316-2.286 7.11-6.433 2.792-4.147 4.146-9.987t1.354-13.118zm13.118-2.54q0 5.671-1.439 11.088-1.439 5.417-3.978 10.24-2.539 4.825-6.093 8.972-3.555 4.063-7.872 7.025-4.231 2.962-9.056 4.57-4.824 1.693-9.987 1.693-8.04 0-14.557-3.047-6.432-3.047-11.087-8.379-4.57-5.332-7.11-12.695-2.454-7.363-2.454-15.996 0-5.586 1.354-11.003 1.44-5.416 3.894-10.24 2.539-4.91 6.009-8.972 3.554-4.147 7.786-7.11 4.317-2.962 9.225-4.654 4.994-1.693 10.241-1.693 7.956 0 14.388 3.047 6.517 3.047 11.088 8.463 4.654 5.332 7.109 12.696 2.539 7.363 2.539 15.996zM668.487 925.877q.762.507.677 2.962 0 2.454-.677 5.67-.592 3.216-1.608 6.602-1.015 3.385-2.031 5.67h-3.64q-.507-3.385-1.438-5.755-.931-2.37-2.2-3.724-1.186-1.439-2.709-2.031-1.439-.677-3.047-.677-1.862 0-4.4 1.608-2.455 1.523-5.079 4.909-2.624 3.3-5.247 8.548-2.54 5.163-4.57 12.357v33.177q0 1.27 3.13 2.624 3.217 1.354 11.173 2.539v3.639h-38.848v-3.64q5.586-1.269 8.717-2.454 3.132-1.27 3.132-2.708v-49.258q0-2.793-.17-4.655-.169-1.946-.422-3.131-.254-1.185-.678-1.862-.338-.677-.677-1.1-.592-.593-1.354-.932-.677-.423-1.862-.677-1.1-.254-2.708-.338-1.608-.17-3.978-.339v-3.385q5.501-1.439 10.749-2.878 5.332-1.523 9.563-3.893l2.963 2.962 1.1 19.212q2.285-4.654 4.909-8.717 2.708-4.062 5.755-7.025 3.047-3.047 6.348-4.74 3.385-1.692 7.024-1.692 2.709 0 5.84.677 3.132.677 6.263 2.455zM730.44 953.214q0-4.486-1.523-8.464-1.439-4.062-4.401-7.025-2.878-3.046-7.279-4.74-4.316-1.776-9.987-1.776-2.116 0-4.74 1.1-2.538 1.1-4.823 3.216-2.286 2.116-3.809 5.332-1.523 3.216-1.523 7.363 0 4.486 1.354 8.548 1.439 3.978 4.231 6.94 2.878 2.963 7.194 4.74 4.402 1.693 10.41 1.693 2.455 0 5.079-1.016 2.708-1.1 4.824-3.216 2.2-2.2 3.555-5.332 1.438-3.131 1.438-7.363zm-14.557 51.12q-3.216-.339-5.924-.762-2.709-.423-5.078-.931-6.094 3.3-9.649 5.924-3.47 2.624-5.247 4.655-1.778 2.116-2.285 3.809-.424 1.693-.424 3.047 0 3.554 2.37 6.686 2.37 3.216 6.348 5.501 3.978 2.37 9.225 3.724 5.248 1.439 11.003 1.439 5.67 0 10.325-1.524 4.655-1.523 7.956-4.231 3.3-2.624 5.078-6.348 1.862-3.64 1.862-8.04 0-2.37-1.1-4.401-1.1-1.947-3.978-3.555t-7.871-2.878q-4.909-1.27-12.61-2.116zm26.406-54.59q0 6.517-2.962 11.933-2.877 5.332-7.617 9.226-4.74 3.808-10.749 6.009-6.009 2.116-12.187 2.116h-.339q-4.062 3.385-5.586 5.67-1.523 2.2-1.523 2.708 0 1.016.846 2.032.931.93 3.301 1.862 2.454.846 6.686 1.777 4.232.846 10.834 1.608 9.225 1.016 15.234 3.047 6.01 2.031 9.564 4.74 3.554 2.623 4.909 5.67 1.438 3.047 1.438 6.01 0 4.654-1.777 8.801-1.777 4.232-4.824 7.787-3.047 3.555-7.194 6.432-4.147 2.878-8.887 4.909-4.74 2.031-9.818 3.131-5.078 1.1-10.071 1.1-3.978 0-8.21-.592-4.232-.508-8.379-1.693-4.147-1.184-7.87-3.046-3.64-1.778-6.433-4.401-2.793-2.54-4.486-5.84-1.608-3.216-1.608-7.364 0-2.2.762-4.654.846-2.37 3.3-5.163 2.455-2.793 6.856-6.01 4.401-3.216 11.68-7.109-5.502-1.946-7.617-4.4-2.116-2.455-2.116-4.994 0-.677.423-1.778.423-1.184 1.693-2.793 1.354-1.692 3.724-3.808 2.454-2.116 6.347-4.824-4.316-1.185-7.87-3.386-3.471-2.285-6.01-5.416-2.454-3.217-3.893-7.194-1.354-4.063-1.354-8.803 0-6.178 2.793-11.68 2.793-5.585 7.363-9.648 4.57-4.147 10.41-6.517 5.84-2.454 12.018-2.454 5.078 0 9.48 1.439 4.485 1.439 8.124 4.062 4.401-.423 7.956-1.1 3.555-.677 6.348-1.439 2.877-.761 5.078-1.523 2.2-.762 3.978-1.439l1.692 2.54q-1.015 2.369-1.946 4.4-.931 1.947-2.878 4.063-3.216.592-6.347.93-3.047.34-6.94.508 2.2 3.217 3.385 6.856 1.27 3.64 1.27 7.702z" style="-inkscape-font-specification:'Gentium Basic'" fill="#00f"/></g></g></svg>
