<svg xmlns="http://www.w3.org/2000/svg" version="1.0" viewBox="0 0 84 75"><path fill="#B73025" d="M1.7 1.8C.2 3.4 0 7 0 32.3c0 28.4 0 28.6 2.2 30.1 3.4 2.4 75.2 2.4 78.6 0C83 60.9 83 60.7 83 32c0-24.9-.2-29.1-1.6-30.4C80.1.2 75 0 41.6 0 5.8 0 3.2.1 1.7 1.8zM74 19.6c4.5 1.8 4.8 2.8 2 6.3-1.7 2-2.3 2.2-5 1.2-9.2-3.2-17.9 6.4-13.5 14.8 2.3 4.6 7.4 6.8 12.7 5.4 3.8-1 4.2-.9 6.4 1.6 1.3 1.4 2.4 2.9 2.4 3.2 0 1.4-7.5 3.9-11.7 3.9-21 0-26.6-28-7.3-36.4 4.6-2 9-2 14 0zm-55.9 4.9l8.7 5.6 8.6-5.6a86 86 0 019.3-5.5c.5 0 .7 8.3.5 18.5L44.9 56H37V45c0-6.1-.3-11-.8-11-.4 0-2.4 1.1-4.4 2.5-4.5 3.1-5.3 3.1-10.3 0a21.8 21.8 0 00-4.7-2.5 36 36 0 00-.8 11v11H8V37.5c0-10.2.3-18.5.6-18.5.4 0 4.6 2.5 9.5 5.5z"/></svg>
