<svg xmlns="http://www.w3.org/2000/svg" viewBox="0 0 75 39.6"><path d="M46 18a12 12 0 0 0 3-7A11 11 0 0 0 37 0h-4a3 3 0 0 0-3 3 3 3 0 0 0 3 3h2c5 0 7 1 7 5s-3 5-7 5h-6a4 4 0 0 0-1 0 2 2 0 0 0-2 3 4 4 0 0 0 1 2l15 17a4 4 0 0 0 2 2 3 3 0 0 0 4-4 3 3 0 0 0-1-2L37 23a14 14 0 0 0-2-1l4-1a9 9 0 0 0 7-3ZM72 0H58a3 3 0 0 0-3 3v7a3 3 0 0 0 3 4 3 3 0 0 0 4-4V6h10a3 3 0 0 0 3-3 3 3 0 0 0-3-3ZM72 17h-6a11 11 0 0 0-11 11v8a3 3 0 0 0 3 4 3 3 0 0 0 4-4v-9a5 5 0 0 1 5-5h5a3 3 0 0 0 3-3 3 3 0 0 0-3-2ZM20 0H3a3 3 0 0 0-3 3v6a3 3 0 0 0 4 3 3 3 0 0 0 3-3V6h13a3 3 0 0 0 3-3 3 3 0 0 0-3-3ZM20 34h-8a5 5 0 0 1-5-6v-6h10a3 3 0 0 0 3-3 3 3 0 0 0-3-2H3a3 3 0 0 0-3 3v8a11 11 0 0 0 11 11h9a3 3 0 0 0 3-2 2 2 0 0 0-3-3Z" /></svg>
