<svg xmlns="http://www.w3.org/2000/svg" viewBox="0 0 600 600"><path id="Layer_2" d="M0 0h600v600H0z" fill="#8b0039"/><g id="Layer_1"><path d="M26 245c0 8-.1 16-.1 24 0 2.1-.1 4.2 0 6.2.1 1.4-.4 1.7-1.7 1.7-4.7-.1-9.5 0-14.1 0v-75.3c.6-.4 1.5-.2 2.1-.2h49.2c1.8 0 2.4.4 2.3 2.2-.2 3.6.2 7.3-.2 10.9-11.4 0-22.7.1-34.2.1-3.4 0-3.4 0-3.4 3.3 0 3.9.1 7.9 0 11.8 0 1.6.3 2.1 2 2 9.8-.1 19.6 0 29.4-.1 1.7 0 2.1.4 2 2-.1 3.6-.1 7.3-.1 10.9-.7.4-1.6.2-2.3.2H28.2c-.9 0-1.6-.2-2.2.3z" fill="#fff"/><path d="M63.4 214.4c0-3.6-.1-7.2 0-10.8.1-1.8-.5-2.2-2.2-2.2-17 .1-34.2 0-51.2 0v-.4h51.7c1.6 0 2.3.2 2.2 2.1-.2 3.1 0 6.3-.1 9.5 0 .6.5 1.4-.4 1.8zm241-15.5v.4c-2.7 1.2-5.4 1.1-8.2 0v-.4h8.2zm186.3 189.4v-.3c2.3-1.1 4.6-1.1 6.9 0v.3h-6.9zM594.5 257h.4v4.3l-.2.1h-.2c-1.1-1.5-1-2.9 0-4.4zm-160.7-18.4c-1.9-5.8-5-7.7-10.8-6.6-3.6.6-5.9 2.9-6.8 6.9-.3 1.6-.4 3.1-.4 4.7-.1 11-.1 21.9-.1 32.9-4.5.4-8.8.1-13.3.2-.8 0-1.1-.4-1.1-1.2v-52c0-1.8.4-2.4 2.2-2.3 3.7.2 7.4-.2 11.1.2.1 0 .2-.2.2-.3.8 2.4 0 4.9.5 7.8 3.5-6.4 8.7-9.3 15.7-9.6s12.4 2.6 15.8 8.8c1.5-1.7 2.4-3.3 3.9-4.6 6.3-5.4 13.4-5.3 20.6-2.3 6.9 2.9 10 8.6 10.1 15.9.2 12.7 0 25.3.1 38.1 0 1.5-.4 1.8-1.8 1.8-3.6-.1-7.3-.1-11 0-1.7.1-2.2-.3-2.2-2.1.1-10.8 0-21.5 0-32.3 0-1.5-.1-2.8-.4-4.3-1-4.2-3.4-6.3-7.2-6.5-4.4-.2-7.8 1.9-9.3 5.5-.8 2.2-1 4.5-1 6.8v29.3c0 .8-.1 1.6-.1 2.4-.3 1.1-1.2 1-2.1 1-3.5 0-7.1-.1-10.5 0-1.6 0-1.9-.5-1.9-2V241c.1-.8.3-1.7-.2-2.4zm-219.4 92.9c-.5-.6-1.1-.3-1.8-.3-8.6 0-17.2 0-25.9-.1-1.8 0-2 .6-2 2.1.1 10 0 19.9.1 29.9 0 1.6-.4 2.1-2 2-4.1-.1-8.2-.1-12.3 0-1.2 0-1.6-.3-1.6-1.6v-72.7c0-1.2.4-1.6 1.6-1.6 4.2.1 8.3.1 12.5 0 1.5 0 1.8.4 1.8 1.8-.1 8.2 0 16.5-.1 24.7 0 1.8.3 2.3 2.2 2.3 8.4-.1 16.9 0 25.3-.1.6 0 1.5.3 2-.4.4-1.7.1-3.4.2-5.1v-21.1c0-.7-.2-1.5.2-2.1 4.7 0 9.3 0 13.9-.1 1.7 0 1.5.9 1.5 1.9v72c0 1.5-.3 2-1.9 1.9-4.5-.1-9-.1-13.5-.1-.4-.7-.2-1.6-.2-2.3v-28.9c.2-.6.4-1.4 0-2.1z" fill="#fff"/><path d="M296.2 199.3h8.2c14 1.2 24.3 9.3 27.7 21.7 1.4 5 1.4 5-3.6 5h-9.7c-1.1 0-1.8-.2-2.2-1.5-2.6-7.7-6.8-11.1-14.4-11.5-7.6-.5-13.7 2.5-16.9 9.3-5.2 10.9-5.2 22.1-.2 33 5.9 13.1 22.5 11.5 28.2 4.1 1.7-2.2 2.9-4.6 3.5-7.3.2-1 .7-1.4 1.8-1.4 4.3 0 8.6.1 12.9 0 1.2 0 1.7.4 1.4 1.7-3.8 16.6-15 26-31.3 26.4-11.9.3-22.1-3.4-29.2-13.6-3.7-5.5-5.6-11.7-6.3-18.3-.9-8.4-.7-16.7 2.1-24.8 4.5-13.5 13.9-21.1 28-22.8zm-101.9 28.1c6.8-8.1 17-10.5 26-6.2 5.8 2.7 8.9 7.4 9.7 13.7.5 4.5.2 9 .3 13.5 0 8.8 0 17.7.1 26.5 0 1.7-.4 2.1-2 2-3.4-.1-6.9-.2-10.3 0-2.3.2-2.7-.7-2.6-2.7.1-10.3.1-20.5 0-30.7 0-1.9 0-3.7-.5-5.5-.8-3.1-2.7-5-5.7-5.7-8.1-2.1-14.8 3.3-14.9 12 0 10.2-.1 20.4 0 30.5 0 1.8-.4 2.3-2.3 2.2-3.5-.1-7.1-.1-10.5 0-1.7.1-2.1-.4-2.1-2.1.1-20.3 0-40.6 0-60.9 0-3.7.1-7.5 0-11.2 0-1.4.3-1.8 1.7-1.7 3.8.1 7.6.1 11.4 0 1.4 0 1.8.3 1.8 1.8-.1 8-.1 16.1-.1 24.5zM75 309h15.3c1.1 0 1.4.6 1.7 1.6 3.5 12.3 7.2 24.6 10.7 36.9.2.8.2 1.8 1 2.5 2.4-8.4 4.7-16.8 7.1-25.2 1.2-4.6 2.6-9.2 3.8-13.8.4-1.5 1-1.9 2.5-1.9 4.1.1 8 .1 12 0 1 0 1.8 0 1.2 1.5-7.7 21.8-15.2 43.6-23.1 65.3-3.7 10.2-7.7 12.4-18.7 11.8-1.2-.1-2.4-.2-3.6-.1-1.4.1-1.9-.3-1.8-1.8.1-2.9.1-5.9 0-8.8 0-1 .3-1.4 1.4-1.2.7.1 1.6.1 2.4.1 5.4-.1 7.8-2.3 8.6-7.6.2-1.2-.4-2.3-.7-3.3-6.3-18-12.8-36-19.1-54-.4-.6-.5-1.2-.7-2zm519.5-52v4.4c-.8 7.2-4.7 12.2-11.3 14.6-9.8 3.6-19.7 3.3-29.3-.6-6.3-2.6-10.1-7.6-10.9-14.5-.2-1.6.2-2 1.8-2 3.9.1 7.9 0 11.8 0 .6 0 1.6-.4 1.7.8.4 4.7 3.6 6.3 7.6 7.1 2.5.5 5.1.5 7.7.1 1.4-.2 2.6-.6 3.8-1.5 3.4-2.3 3.3-5.9-.4-7.7-3.4-1.7-7.2-2.1-10.8-2.8-3.5-.7-7-1.5-10.4-2.8-5.5-2.1-9.9-5.4-10.7-11.7-.7-6.5 1.1-12.2 6.3-16.5 2-1.7 4.4-2.8 6.9-3.4 7.7-2 15.4-1.8 22.9.8 6.9 2.4 10.5 7.6 11.5 14.6.2 1.2.1 2-1.6 2-3.7-.1-7.5 0-11.2 0-.7 0-1.7.2-1.9-.9-.9-4.8-4.4-6.1-8.6-6.3-2.4-.1-4.8 0-7 .9-1.9.7-3 2.1-3.1 4.3-.1 2 1.2 3 2.8 3.6 3.7 1.7 7.9 2.2 11.8 3 4.4.9 8.6 2 12.7 4.1 4.4 2.1 7.3 5.4 7.9 10.4zm-169.2 59.4c3-4.2 6.6-7.2 11.6-8.3 5.1-1.1 10.2-.8 15 1.4 6.6 3 9.8 8.5 9.9 15.6.2 12.8 0 25.7.1 38.5 0 1.5-.5 1.6-1.8 1.6-3.7-.1-7.5-.1-11.2 0-1.6.1-1.9-.5-1.9-2 .1-9.6 0-19.1 0-28.6 0-1.6-.1-3.1-.1-4.7-.4-8.1-5.8-11.8-13.5-9.1-4.3 1.5-6.4 4.6-7.3 8.8-.3 1.6-.4 3.3-.4 4.9 0 9.6-.1 19.2 0 28.8 0 1.6-.4 2-1.9 1.9-3.7-.1-7.5-.1-11.2 0-1.2 0-1.7-.2-1.7-1.6.1-17.6.1-35.1 0-52.7 0-1.4.3-1.9 1.8-1.8 3.6.1 7.3.1 11 0 1.2 0 1.6.4 1.6 1.6-.1 1.8 0 3.7 0 5.7zm-276-66.3c0-5.5-.1-11 0-16.5 0-1.8-.3-2.5-2.2-2.3-1.2.1-2.4 0-3.6 0-1.4.1-2-.2-1.9-1.7.1-2.4.1-4.8 0-7.1-.1-1.6.5-1.9 1.9-1.8 1 .1 2.2-.1 3.2 0 2.3.4 2.7-.7 2.6-2.7-.1-3.5 0-7.2-.1-10.8 0-1.6.5-2 2-1.9 3.7.1 7.5.1 11.2 0 1.5 0 1.8.4 1.8 1.9-.1 3.7.1 7.5-.1 11.2-.1 1.8.3 2.6 2.3 2.4 1.8-.2 3.5 0 5.4-.1 1 0 1.6.2 1.6 1.4-.1 2.6-.1 5.2 0 7.8 0 1.2-.4 1.5-1.6 1.4-2-.1-4.1 0-6 0-1.1 0-1.7.2-1.7 1.5.1 10.1 0 20 0 30.1 0 2 .9 2.9 2.8 3.1 1.6.2 3.1.4 4.7.1 1.1-.2 1.7 0 1.7 1.4-.1 2.8 0 5.6 0 8.4 0 .6.2 1.5-.9 1.5-4.8.1-9.6.5-14.3-.4-6-1.2-8.5-4.3-8.6-10.5v-.4c-.2-5.4-.2-10.7-.2-16zm215.5 68.4c1.8-2.7 3-5.1 4.9-7 3.4-3.4 7.6-4.3 12.3-4.1.8 0 1.2.4 1.2 1.4v12.7c0 1-.5 1.1-1.4 1-1.5-.1-2.9-.1-4.3 0-7.8.3-12 4.8-12.2 12.7v27.7c0 1.6-.2 2.3-2.1 2.2-3.7-.2-7.5-.1-11.2 0-1 0-1.7-.1-1.7-1.5v-53.2c0-1.1.3-1.5 1.5-1.5 3.8.1 7.6.1 11.4 0 1 0 1.4.3 1.4 1.4.1 2.6.2 5.1.2 8.2zm-242.9-69.9c0-8.6.1-17.2 0-25.8 0-1.8.5-2.2 2.2-2.1 3.5.1 7.2.1 10.7 0 1.7-.1 2 .5 2 2.1-.1 17.5-.1 34.8 0 52.3 0 1.6-.4 1.9-1.9 1.9-3.7-.1-7.5-.1-11.2 0-1.5 0-1.8-.4-1.8-1.8v-26.6zm282 88.5v26.2c0 1.4-.3 1.9-1.8 1.8-3.8-.1-7.6-.1-11.4 0-1.2 0-1.8-.2-1.8-1.6.1-17.7.1-35.2 0-52.9 0-1.5.5-1.7 1.8-1.6 3.8.1 7.6.1 11.4 0 1.6 0 1.8.5 1.7 1.9 0 8.6.1 17.4.1 26.2zm-274-136.8c1.9.2 5-1 6.3.5 1.1 1.2.3 4.4.4 6.6v5.2c0 1-.2 1.6-1.4 1.6-4.1-.1-8-.1-12 0-1.2 0-1.5-.4-1.4-1.6 0-3.5.1-7.2 0-10.7 0-1.2.4-1.6 1.7-1.6 1.9.1 3.9 0 6.4 0zm266.5 102h-6c-1 0-1.4-.3-1.4-1.4.1-3.6.1-7.3 0-11 0-1.1.3-1.6 1.5-1.5 4.1.1 8 .1 12 0 1 0 1.4.3 1.4 1.4 0 3.6-.1 7.3 0 11 0 1.1-.3 1.6-1.5 1.5-1.9-.1-4 0-6 0zm18.5-81.3v1.5c-.4-.8-1-1.2-2-1.1-3.2.1-6.4.1-9.7 0-1.4 0-1.7.5-1.7 1.8v51.6c0 1.4.4 1.8 1.8 1.8 4.2-.1 8.3 0 12.5 0-.2.7-.8.4-1.2.4h-11.8c-1.4 0-1.7-.4-1.7-1.7v-52.7c0-1.2.2-1.8 1.7-1.7 4 .1 8.1.1 12.1.1zm18.9 17.6c.8.6.4 1.6.4 2.4v33.2c0 1.7.3 2.3 2.2 2.2 3.2-.1 6.4-.1 9.7 0 .9 0 1.9-.1 2.5-.8.3 1-.1 1.2-1 1.2-4.2 0-8.3-.1-12.5 0-1.7 0-1.1-1.1-1.1-1.9v-31.2c-.1-1.7-.2-3.3-.2-5.1zm68.6 14c.7-.6 1.7-.3 2.5-.3h35.3c-.1.6-.6.4-1 .4-12.3 0-24.6-.1-36.8-.1zM341.8 357.2c-.6-.4-.4-1.1-.4-1.8v-34.8c.4.6.4 1.4.4 2.1v34.5zm-127.4-25.7c.6.6.4 1.5.4 2.3v31.3c-.6-.1-.4-.6-.4-1v-32.6zM26 245c.4-.8 1.1-.4 1.8-.4h31.4c-.4.9-1.2.4-1.9.4H26zm188.8 44.4v26.1c0 .7.3 1.6-.4 2.2v-27.3c0-.4-.2-.9.4-1zM61.2 324.3c2.6-1.5 5.1-3 6.4-5.6 3.6-7 3.5-13.9-.6-20.5-3.8-6.3-10.3-8.6-17.2-8.8-13.3-.3-26.5-.1-39.8-.1v75.8h33.8c3.6 0 7.3-.3 10.9-.9 8.9-1.6 16.2-8.8 17.7-18.1 1.5-9.9-1.9-16.8-11.2-21.8zm-36-6.8c.1-4.5.1-9 0-13.5 0-1.2.4-1.6 1.7-1.6 3.2.1 6.3 0 10 0 3.1.1 6.8-.2 10.4.3 5.5.7 8.2 3.9 7.5 9.1-.4 3.2-2.8 5.7-6.4 6.5-1.4.3-2.7.5-4.1.5-5.8.1-11.6 0-17.5.1-1.2.1-1.7-.1-1.6-1.4zm22.1 34.1c-7 .6-13.9.1-20.8.3-.9 0-1.2-.3-1.2-1.2v-17.6c0-1.4.7-1.2 1.7-1.2h10.1c3.3 0 6.8-.1 10.1 0 6 .3 9.6 3.8 9.7 9.1-.1 6.2-3.5 10.1-9.6 10.6zm474.8-9.7c0-10.4-.1-20.8 0-31.2 0-1.4-.3-1.8-1.8-1.8-3.7.1-7.4.1-11 0-1 0-1.5.3-1.5 1.5.1 2 0 4.1 0 6-2.7-4.2-6-7.1-10.7-8.3-10.2-2.8-20.6 1.8-25.6 11.3-2.5 4.9-3.5 10.1-3.6 15.4-.1 8.2 1.1 16 6.3 22.7 7.7 9.9 27.4 11.2 32.5.3 0-.1.2-.1.5-.2-.1 3.7.3 7.3-.4 10.9-.7 3.8-2.8 6.6-6.6 7.7-3.4.9-7 .8-10.4-.1-2-.6-3.5-1.8-4.2-3.9-.2-.9-.6-1.1-1.5-1.1-4.7 0-9.2.1-13.8 0-1.1 0-1.1.5-1 1.5.5 3.6 2.1 6.8 4.9 9.2 4.7 4.2 10.4 5.5 16.4 6.1h6.9c1.6-.1 3.1-.3 4.7-.5 12.8-1.9 19.3-8.9 19.7-21.8.3-7.9.2-15.8.2-23.7zm-14.6-5.1c.1 2.6-.3 5.1-1 7.6-1.9 5.6-5.8 8.5-11.5 8.5-5-.1-8.9-3.2-10.6-8.5-1.6-5.4-1.5-10.8.3-16 1.6-4.6 4.5-7.6 9.6-8 4.8-.4 8.9 2.2 11.2 6.8 1.5 2.9 2.1 6.3 2 9.6zm-392.2-62.2c-3.2-2.3-2.9-5.7-2.9-8.9v-29.5c0-7.6-3.2-12.3-10.3-15-6.6-2.6-13.5-2.6-20.4-1.5-9.9 1.7-15 7.1-16.6 16.8-.3 1.9 0 2.5 2.1 2.4 3.3-.2 6.8-.1 10.1 0 1.4.1 2.1-.2 2.3-1.7.2-2 1.2-3.7 3-4.7 4.3-2.2 8.5-2.1 12.8 0 2 1 2.8 3.5 2.4 5.8-.4 2.2-2.1 3-3.9 3.4-1.2.3-2.6.4-3.8.6-5.3.9-10.7 1-15.8 2.9-11.7 4.3-15.2 20.5-6.1 28.8 5 4.5 11 4.7 17.2 3.7 5.1-.8 9.1-3.5 12.9-7.4.4 2 .8 3.4 1.1 5 .1 1 .5 1.5 1.7 1.5h13.3c.4 0 1 .2 1.2-.5 0-.5.3-1.3-.3-1.7zm-17.4-17.3c-.4 7.1-9.7 12.7-16.2 9.8-2.3-1-3.4-2.8-3.6-5.2-.2-2.9.5-5.4 3.1-7.1 1.9-1.2 4.1-1.7 6.2-2.1 3.4-.6 7.1-1 10.5-2.9 0 2.7.1 5.1 0 7.5z" fill="#fff"/><path d="M344.8 362.9c-2.3-1.2-2.4-3.5-3-5.6-.4-.7-.2-1.6-.3-2.6v-31.9c0-.7.1-1.6-.2-2.3-.5-4.7-3.1-7.8-7.1-9.9-7.3-3.9-15.1-4.1-22.9-2.8-10.3 1.7-15.2 6.9-16.9 17.1-.2 1.7 0 2.2 1.8 2.1 3.5-.1 7.2-.1 10.7 0 1.2.1 1.7-.3 1.9-1.6.6-3.4 2.8-5.4 6.1-6 2.7-.5 5.3-.4 7.9.3 3 .9 4.6 3.1 4.4 6.1-.2 2.3-1.8 3.6-5 4.2-4.7.7-9.3 1.5-14 2.2-9.7 1.5-15.2 7.5-15.7 17.1-.4 7.9 3.6 14.2 11 16.2 7.8 2.2 15.1.9 21.4-4.4.9-.7 1.8-1.6 2.7-2.4.4 1.7.8 3.3 1.1 4.9.2 1 .7 1.4 1.8 1.4h13.3c.4 0 1.1.2 1.2-.4.1-.5.4-1.4-.2-1.7zm-17.6-17.2c-.1 3-1.7 5.4-4.1 7.3-2.6 2-5.6 2.9-8.8 3-3.4.1-6-1.8-6.8-4.9-.8-3.3.4-6.6 3.3-8.3 1.9-1 4.1-1.5 6.1-1.9 3.4-.6 6.8-1 10.2-2.9.1 2.8.2 5.2.1 7.7zm-75.4-4.7h1.5c11.2 0 22.5-.1 33.8 0 1.7 0 2.3-.5 2.1-2.2-.2-2.2-.2-4.3-.4-6.4-.7-6.9-2.6-13.2-7.7-18.2-5.7-5.7-12.9-7.1-20.6-6.8-11 .4-19.1 6.2-22.6 16.6-3.2 9.6-2.7 19 1 28.4 2.4 5.8 6.5 9.9 12.5 12 6.8 2.5 13.7 2.9 20.7.9 8.6-2.4 13.9-8.1 16.5-16.8-4.9 0-9.6 0-14.4.1-.8 0-1 .4-1.4 1-1.2 2.6-3.4 4.1-6.1 4.7-8.4 2.1-15.7-3.5-15.8-12.3-.1-.7 0-1.1.9-1zm-.4-11.4c1-6.2 5.2-10.1 11.1-10.1 5.8 0 10.3 4.2 11.1 10.2.2 1.1 0 1.7-1.4 1.7h-9.8c-3.2 0-6.4-.1-9.7 0-1.3 0-1.5-.4-1.3-1.8zm142.9-82.9c-.6-15.6-9.8-25.7-25.3-27.3-9.2-.9-17.8 1.2-24.4 8.1-5.7 5.9-7.6 13.3-7.6 21.3 0 7.1 1.4 13.7 5.8 19.3 6.5 8.2 15.6 10.8 25.7 10.1 7.7-.5 14.4-3.3 19.4-9.3 5.4-6.5 6.8-14.1 6.4-22.2zm-16.8 11.4c-2 5.1-6.2 7.8-11.9 7.8-5.5 0-9.8-2.6-11.7-7.5-2.4-6.1-2.5-12.5-.2-18.7 2-5.3 6.2-8 11.9-8 5.9 0 10.1 2.9 12 8.3 1.1 2.7 1.5 5.6 1.6 8.5-.1 3.4-.4 6.5-1.7 9.6zm127.1-5.6h33.2c.7 0 1.6.2 2.3-.2.3-3.4.1-6.8-.4-10.1-1.7-10.8-6.5-18.9-17.7-22-3.2-.9-6.5-1.1-10-1-11.5.4-20.2 6.9-23.4 17.8-2.5 8.5-2.1 17.1.7 25.6 2.2 6.4 6.4 11.1 12.8 13.6 6.5 2.6 13.3 3 20 1.4 8.4-2 14-7.3 16.9-15.5.3-.7.7-1.6-.8-1.6h-12.9c-.5 0-.8 0-1.2.5-3.6 5.1-7.4 6.5-13.2 5.1-5.6-1.5-10.1-8.3-8.6-13.4.8-.4 1.6-.2 2.3-.2zm-2.1-10.1c.7-4.2 2.1-8 6.2-9.9 4.4-1.9 8.5-1.6 12.3 1.6 2.4 2 3.3 4.7 3.9 7.7.2 1.2-.1 1.5-1.2 1.5h-20c-.5-.1-1.4.2-1.2-.9z" fill="#fff"/></g></svg>
