<svg xmlns="http://www.w3.org/2000/svg" viewBox="0 0 1000 500"><path d="M64.1 320.2H33.3v-82H23v-25.9h10.3v-31.6c0-26.4 11-49.5 40.7-49.5 5.1 0 10.1 1.1 14.7 3.5v27.5c-4-2-7.9-3.7-12.5-3.7-13.6 0-12.1 17.8-12.1 26.6v27.3h24.6v25.9H64.1v81.9zM204.7 266.3c0 33.4-22.9 57.4-56.7 57.4-33.8 0-56.7-24-56.7-57.4 0-33.6 23.1-57.6 56.7-57.6 33.7.1 56.7 24 56.7 57.6zm-82.2 0c0 14.5 9.7 30.1 25.5 30.1s25.5-15.6 25.5-30.1c0-14.9-9.7-30.3-25.5-30.3s-25.5 15.4-25.5 30.3zM250 320.2h-30.8V133.8H250v186.4zM302.5 251.8h.4l32.3-39.6h40l-45.5 47.5 49 60.4h-40.4L303 274.2h-.4v45.9h-30.8V133.8h30.8v118zM485.6 292.7c-18.5 15.6-39.6 30.8-61.1 30.8-24.4 0-43.3-19.8-43.3-43.7 0-29 27.7-45.9 50.3-60.2-7.7-10.8-17.4-22-17.4-36.3 0-17.6 14.9-31.9 32.3-31.9 17.1 0 30.1 13.8 30.1 30.8 0 18.9-14.9 29.9-31 40.9l40.9 55.8 21.1-23.1 8.1 4.4-23.1 26.4 25.3 33.6h-11.4l-20.8-27.5zm-58.5-57.8c-15.8 10.1-35.4 22.9-35.4 43.7 0 18.7 13.4 34.9 32.7 34.9s39.6-16.5 54.9-29.2l-41.8-56.5-10.4 7.1zm-2.4-50.5c0 11.9 8.8 20.7 14.7 30.5 11.6-9.2 26.6-16.3 26.6-33 0-11.2-8.8-20.7-20.2-20.7-12.1.1-21.1 11.5-21.1 23.2zM577 237.1c-3.3-7-9.9-11.4-17.8-11.4-8.6 0-17.4 7-17.4 15.8 0 24.4 49.5 12.5 49.5 49.2 0 18.7-14.5 31.6-32.7 31.6-16.9 0-30.8-10.3-34.9-26.8l9.7-3.1c3.7 12.1 11.9 20.7 25.3 20.7 12.7 0 22.9-10.1 22.9-22.9 0-12.5-9.7-16.5-19.8-20-13.8-5.1-29.7-11-29.7-28.1 0-15.4 13-25.7 27.7-25.7 10.3 0 21.5 6.8 25.9 16.3l-8.7 4.4zM626.6 236.9h.4c7.5-13 23.7-20.4 38.7-20.4 31 0 50.1 24.2 50.1 53.8s-19.1 52.1-49.7 52.1c-15.6 0-30.8-6.8-39.1-19.8h-.4v76.9h-9.9V218.6h9.9v18.3zm-.6 34.7c0 23.7 16 41.5 40.4 41.5 23.7 0 39.6-20 39.6-42.6 0-23.3-15.2-44.8-40-44.8-26 0-40 21.5-40 45.9zM749.7 231.8h.4c4-9.2 11.2-15.4 22-15.4 4 0 7.3.9 10.8 2.4l-5.3 8.8c-2.4-1.3-4.4-2-7-2-22.2 0-20.9 27.7-20.9 42.6v51.9h-9.9V218.6h9.9v13.2zM914.2 261.7l41.8-43.1h12.7l-42.6 44 56.9 57.6h-13l-50.3-50.8-5.5 5.7v45.1h-9.9V138.9h9.9v122.8zM821.6 178.4c1.5 1.6 3.4 2.9 5.7 3.9s5.1 1.4 8.3 1.4c2.9 0 5.6-.5 7.9-1.4 2.4-1 4.4-2.3 6.1-4 1.7-1.7 3-3.7 3.9-6 .9-2.3 1.4-4.8 1.4-7.4 0-5.4-1.6-9.7-4.9-13-3.3-3.3-7.8-5-13.6-5-3.1 0-5.8.5-8.2 1.4-2.4.9-4.4 2.3-6.1 4-1.6 1.7-2.9 3.7-3.8 6-.9 2.3-1.3 4.8-1.3 7.4 0 2.6.4 5 1.1 7.1.9 2.1 2 4 3.5 5.6zm7-21.1c1.8-1.9 4.3-2.9 7.4-2.9 3.4 0 6 1.1 7.7 3.2s2.5 4.8 2.5 8c0 3.1-.9 5.6-2.6 7.6-1.8 2-4.2 3-7.4 3-3.6 0-6.2-1-7.8-3-1.6-2-2.5-4.8-2.5-8.3 0-3.2.9-5.7 2.7-7.6zM887.2 314.2c-.3-.6-1.2-1.4-2.7-2.4-1.5-1-3.3-2.3-5.4-3.9-2.1-1.6-4.2-3.6-6.4-6.1-1.9-2.1-3.5-4.8-4.9-7.7l2.1-50.1c0-5.8-.6-11-1.8-15.6-1.2-4.6-3.2-8.5-6.1-11.6-2.8-3.1-6.5-5.5-11.1-7.2-4.6-1.7-10.2-2.5-16.8-2.5-3.4 0-6.9.3-10.3 1-3.4.7-6.6 1.6-9.6 2.6-3 1.1-5.6 2.3-7.9 3.5-2.3 1.3-3.9 2.4-4.8 3.3-.9.9-1.5 1.9-1.7 2.8-.2.9-.3 2.2-.3 3.8 0 .9.1 1.7.2 2.3.1.6.3 1.2.5 1.6.2.4.6.7.9.8s.8.2 1.2.2c.7 0 1.9-.5 3.6-1.6 1.7-1.1 3.8-2.3 6.4-3.6 2.6-1.3 5.6-2.6 9-3.6 3.4-1.1 7.3-1.6 11.6-1.6 4.4 0 8.2.6 11.3 1.7 3.1 1.1 5.6 2.8 7.5 5 1.9 2.2 3.3 5 4.2 8.3.9 3.3 1.3 7.2 1.3 11.5v8.7h-15.5c-7 0-13.4.7-19.1 2.1-5.7 1.4-10.6 3.5-14.7 6.2-4.1 2.8-7.2 6.2-9.4 10.4-2.2 4.1-3.3 9-3.3 14.6 0 4.6.8 8.7 2.3 12.3s3.6 6.8 6.4 9.4c2.8 2.6 6.2 4.6 10.2 5.9 4 1.4 8.6 2.1 13.7 2.1 5.7 0 11.1-1.3 16.4-4 5.3-2.7 10.1-6.5 14.4-11.4l1 .1c.6 1 1.2 2 1.9 3 1.8 2.6 3.7 4.9 5.7 6.9s4 3.8 5.9 5.2c1.9 1.4 3.4 2.3 4.6 2.7 1.1.4 2.1.5 3 .3.9-.2 2-.6 3.4-1.1.8-.3 1.4-.7 1.9-1 .5-.3.9-.7 1.2-1 .3-.4.4-.7.4-1.1-.1-.5-.2-.8-.4-1.2zm-44.1-13.7c-4.4 2.9-9.1 4.3-14.2 4.3-6.4 0-11.4-1.8-15-5.5-3.5-3.6-5.3-8.5-5.3-14.6 0-3.5.6-6.7 1.9-9.4 1.2-2.7 3.2-5.1 5.7-7 2.6-2 5.8-3.4 9.7-4.5 3.9-1 8.4-1.5 13.5-1.5h17.7v25c-4.9 6-9.6 10.4-14 13.2z"/></svg>
