<svg xmlns="http://www.w3.org/2000/svg" viewBox="0 0 500 500"><path d="M23.3 286.8h-16v-42.4H2V231h5.3v-16.4C7.3 201 13 189 28.4 189c2.6 0 5.2.6 7.6 1.8V205c-2.1-1-4.1-1.9-6.5-1.9-7 0-6.3 9.2-6.3 13.8V231H36v13.4H23.3v42.4zM96 258.9c0 17.3-11.9 29.7-29.3 29.7s-29.3-12.4-29.3-29.7c0-17.4 12-29.8 29.3-29.8 17.4.1 29.3 12.4 29.3 29.8zm-42.5 0c0 7.5 5 15.6 13.2 15.6s13.2-8.1 13.2-15.6c0-7.7-5-15.7-13.2-15.7s-13.2 8-13.2 15.7zM119.5 286.8h-15.9v-96.5h15.9v96.5zM146.6 251.4h.2l16.7-20.5h20.7l-23.5 24.6 25.4 31.3h-20.9L146.9 263h-.2v23.8h-15.9v-96.4h15.9l-.1 61zM241.4 272.6c-9.6 8.1-20.5 15.9-31.6 15.9-12.6 0-22.4-10.2-22.4-22.6 0-15 14.3-23.8 26-31.2-4-5.6-9-11.4-9-18.8 0-9.1 7.7-16.5 16.7-16.5 8.8 0 15.6 7.1 15.6 15.9 0 9.8-7.7 15.5-16 21.2l21.2 28.9 10.9-12 4.2 2.3-12 13.7 13.1 17.4h-5.9l-10.8-14.2zm-30.3-29.9c-8.2 5.2-18.3 11.9-18.3 22.6 0 9.7 6.9 18.1 16.9 18.1s20.5-8.5 28.4-15.1L216.5 239l-5.4 3.7zm-1.2-26.2c0 6.2 4.6 10.7 7.6 15.8 6-4.8 13.8-8.4 13.8-17.1 0-5.8-4.6-10.7-10.5-10.7-6.3.1-10.9 6-10.9 12zM288.7 243.8c-1.7-3.6-5.1-5.9-9.2-5.9-4.5 0-9 3.6-9 8.2 0 12.6 25.6 6.5 25.6 25.5 0 9.7-7.5 16.4-16.9 16.4-8.7 0-15.9-5.3-18.1-13.9l5-1.6c1.9 6.3 6.2 10.7 13.1 10.7 6.6 0 11.9-5.2 11.9-11.9 0-6.5-5-8.5-10.2-10.4-7.1-2.6-15.4-5.7-15.4-14.5 0-8 6.7-13.3 14.3-13.3 5.3 0 11.1 3.5 13.4 8.4l-4.5 2.3zM314.4 243.7h.2c3.9-6.7 12.3-10.6 20-10.6 16 0 25.9 12.5 25.9 27.8s-9.9 27-25.7 27c-8.1 0-15.9-3.5-20.2-10.2h-.2v39.8h-5.1v-83.3h5.1v9.5zm-.3 18c0 12.3 8.3 21.5 20.9 21.5 12.3 0 20.5-10.4 20.5-22 0-12.1-7.9-23.2-20.7-23.2-13.5-.1-20.7 11-20.7 23.7zM378.1 241.1h.2c2.1-4.8 5.8-8 11.4-8 2.1 0 3.8.5 5.6 1.2l-2.7 4.6c-1.2-.7-2.3-1-3.6-1-11.5 0-10.8 14.3-10.8 22v26.9H373v-52.5h5.1v6.8zM463.2 256.5l21.6-22.3h6.6l-22 22.8 29.4 29.8h-6.7l-26-26.3-2.8 2.9v23.3h-5.1V193h5.1l-.1 63.5zM415.3 213.4c.8.8 1.8 1.5 2.9 2 1.2.5 2.6.7 4.3.7 1.5 0 2.9-.3 4.1-.7 1.2-.5 2.3-1.2 3.2-2.1.9-.9 1.6-1.9 2-3.1.5-1.2.7-2.5.7-3.8 0-2.8-.8-5-2.5-6.7-1.7-1.7-4-2.6-7-2.6-1.6 0-3 .3-4.2.7-1.2.5-2.3 1.2-3.2 2.1-.8.9-1.5 1.9-2 3.1-.5 1.2-.7 2.5-.7 3.8s.2 2.6.6 3.7c.4 1.1 1 2.1 1.8 2.9zm3.6-10.9c.9-1 2.2-1.5 3.8-1.5 1.8 0 3.1.6 4 1.7.9 1.1 1.3 2.5 1.3 4.1 0 1.6-.5 2.9-1.3 3.9-.9 1-2.2 1.6-3.8 1.6-1.9 0-3.2-.5-4-1.6-.8-1-1.3-2.5-1.3-4.3-.1-1.6.4-2.9 1.3-3.9zM449.2 283.7c-.2-.3-.6-.7-1.4-1.2s-1.7-1.2-2.8-2c-1.1-.8-2.2-1.9-3.3-3.2-1-1.1-1.8-2.5-2.5-4l1.1-25.9c0-3-.3-5.7-.9-8.1-.6-2.4-1.7-4.4-3.2-6-1.4-1.6-3.4-2.8-5.7-3.7-2.4-.9-5.3-1.3-8.7-1.3-1.8 0-3.6.2-5.3.5s-3.4.8-5 1.3c-1.6.6-2.9 1.2-4.1 1.8-1.2.7-2 1.2-2.5 1.7s-.8 1-.9 1.4c-.1.5-.2 1.1-.2 2 0 .5.1.9.1 1.2s.2.6.3.8c.1.2.3.4.5.4s.4.1.6.1c.4 0 1-.3 1.9-.8.9-.6 2-1.2 3.3-1.9 1.3-.7 2.9-1.3 4.7-1.9 1.8-.6 3.8-.8 6-.8 2.3 0 4.2.3 5.8.9 1.6.6 2.9 1.4 3.9 2.6 1 1.1 1.7 2.6 2.2 4.3.5 1.7.7 3.7.7 6v4.5h-8c-3.6 0-6.9.4-9.9 1.1-2.9.7-5.5 1.8-7.6 3.2-2.1 1.4-3.7 3.2-4.9 5.4-1.1 2.1-1.7 4.7-1.7 7.6 0 2.4.4 4.5 1.2 6.4.8 1.9 1.9 3.5 3.3 4.9s3.2 2.4 5.3 3.1c2.1.7 4.5 1.1 7.1 1.1 2.9 0 5.7-.7 8.5-2.1s5.2-3.4 7.5-5.9l.5.1c.3.5.6 1 1 1.6.9 1.3 1.9 2.5 2.9 3.6 1 1 2.1 2 3.1 2.7 1 .7 1.8 1.2 2.4 1.4.6.2 1.1.3 1.6.2s1-.3 1.8-.6c.4-.2.7-.4 1-.5.3-.2.5-.4.6-.5.2-.2.2-.4.2-.6-.3-.5-.4-.7-.5-.9zm-22.8-7.1c-2.3 1.5-4.7 2.2-7.3 2.2-3.3 0-5.9-.9-7.8-2.8-1.8-1.9-2.7-4.4-2.7-7.6 0-1.8.3-3.5 1-4.9.6-1.4 1.7-2.6 2.9-3.6 1.3-1 3-1.8 5-2.3 2-.5 4.3-.8 7-.8h9.2v12.9c-2.6 3.2-5 5.5-7.3 6.9z"/></svg>
