<svg xmlns="http://www.w3.org/2000/svg" viewBox="0 0 1200 600"><path fill="#988A80" d="M987.5 227.5c-7 9.6-15.1 16.6-24.5 22.1-18 10.5-37.7 15.8-57.9 19.4-24.6 4.4-49.5 6.4-74.4 6.8-1.5 0-3.1.4-4.6.5-7.5.5-7.5.5-7.5 8.2 0 46.3-.1 92.6.1 138.8 0 4.2-1 5.5-5.3 5.4-14.5-.3-29-.3-43.5 0-4.4.1-5.7-1-5.7-5.6.1-73.6.1-147.2.1-220.7 0-35.9 0-71.9-.1-107.8 0-3.7.9-5 4.9-5 83.1.1 166.3.1 249.4.1h4c-2.1 4.9-5 8.5-8.2 12-14.4 15.3-32.8 22.3-53 25.9-9.4 1.7-19 2.1-28.5 2.1-36.4-.1-72.8 0-109.2-.1-4.1 0-5.2 1-5.1 5.1.2 31.6.1 63.2 0 94.9 0 3.4.7 4.6 4.5 4.8 24.4 1.2 48.7 1.2 73.1.4 30.2-1.2 60.3-2.9 91.4-7.3z"/><linearGradient id="a" gradientUnits="userSpaceOnUse" x1="979.8" y1="436.1" x2="1189.044" y2="436.1" gradientTransform="matrix(1 0 0 -1 0 600)"><stop offset="0" stop-color="#C2228E"/><stop offset=".648" stop-color="#F05B94"/></linearGradient><path fill="url(#a)" d="M1189 139.5h-4.3c-19.4 0-38.8-.1-58.3.1-3.9 0-4.9-1.1-4.8-4.9.4-16.3.6-32.7.8-49V75.5c-13.9 19.7-27.1 39.5-40 59.3-2 3.1-4.2 5.1-8.1 4.7h-63.8c2.8 2.5 4.5 4 6.2 5.6 11 10.5 22 21.1 33.1 31.6 2.4 2.3 2.5 3.9.7 6.6-5.5 8.5-11.8 16.5-17.8 24.7-9.2 10.4-18.5 20.6-29.5 29.1-7.3 5.7-15.2 10.7-23.4 15.2 21.6-1.2 41.6-7.5 60.2-18.5 12.2-6.1 22.8-14.5 32.9-23.5 5.9-5.2 5.8-5.3 11.5-.5 11.7 11.4 23.4 22.9 35.9 35 .1-2.1.2-2.8.2-3.5.3-19.3.6-38.5.7-57.8 0-2.8.8-4.5 3.3-5.8 8.7-4.9 17.3-10 26-15 12.9-7.5 25.7-15 38.5-22.5.1-.2 0-.5 0-.7z"/><path fill="#988A80" d="M738.2 324.4c-3.3-25.4-15.2-45.2-38.5-57.3-12.8-6.7-26.7-9.2-42-10 22.7-7.5 29.3-15.3 35.7-23.9 13-17.5 16.8-37.5 15.4-59-3.6-55.7-47.9-83.2-89.4-84.3-41.3-1.1-82.7-.2-124-.3-3.7 0-4.6 1.2-4.6 4.7.1 109.9.1 219.7 0 329.6 0 3.9 1.2 4.8 4.9 4.8 44.9-.1 89.8-.1 134.7-.1 17.8 0 35.3-2.3 52.2-8.3 24.3-8.7 42.7-23.7 51.5-48.8 5.3-15.4 6.2-31.2 4.1-47.1zM545.4 181.1c0-17.4.1-34.9-.1-52.3 0-3.1.7-4.3 4.1-4.2 17.6.5 35.2-.8 52.7.9 7.8.8 15.5 2.3 22.9 5.2 16.1 6.3 25.7 18.1 28.7 35.1 2.2 12.9 1.8 25.8-2.1 38.4-5.1 16.6-17 25.9-33.2 30.5-9.2 2.6-18.8 3.6-28.3 3.8-13.3.2-26.5-.2-39.8.2-4.3.1-5.1-1.3-5-5.2.2-17.5.1-34.9.1-52.4zM683 358.8c-6.7 19.9-22.6 27.7-41.9 30.6-8.5 1.3-17.1 1.7-25.8 1.7h-63.4c-7.3 0-6.5.8-6.5-6.3v-46.7c0-16.5.1-33-.1-49.5 0-2.9.6-4.1 3.8-4.1 26.2.2 52.4-.1 78.6.4 11.7.2 23.2 2.9 33.8 8.2 13.6 6.9 21.8 17.6 24 32.9 1.8 11.2 1.1 22.2-2.5 32.8z"/><path fill="#988A81" d="M439 94.2c.1-3.6-1-4.8-4.7-4.7-12.3.2-24.7-.1-37 .1-8.5.2-16.9 1.1-25.1 3.5-20.9 5.9-36.8 19.2-50.4 35.3-21.7 25.6-42.8 51.8-64.1 77.8-54.9 67-109.8 134.1-165.5 200.4-5.9 7-11.8 14.1-18.1 21.6 1.3.2 1.9.3 2.4.3 14.8 0 29.6-.1 44.4-.1 9.5 0 17.3-3.5 23.7-10.5 14.4-15.7 27.1-32.8 40.9-48.9 5.7-6.7 10.1-14.6 17.3-19.8 39.2-28.7 84-43.3 131.5-50.6 15.4-2.4 30.9-3.3 46.4-4.4 3.7-.3 3.9 1.4 3.9 4.3-.1 22.2 0 44.4-.1 66.6 0 19.6 0 39.2-.2 58.8 0 3.7 1 4.6 4.6 4.6 15-.2 29.9-.2 44.9 0 3.6 0 4.4-1.1 4.3-4.4-.2-6.9.1-13.9.1-20.8 0-80.4-.2-160.8.1-241.1.4-22.7.4-45.4.7-68zm-53.8 68.6c-.5 10-.3 20-.3 30-.1 15-.1 29.9 0 44.9 0 3.5-1.1 4.2-4.4 4.6-44.7 5.1-86.7 17.7-124.2 43.4-.5.3-1.1.6-1.6.9-.3-.2-.5-.5-.8-.7C297.4 233 340.9 180 385.3 126c0 13.2.4 25-.1 36.8z"/><path fill="none" d="M20.333 468.333H1079v69H20.333z"/><path fill="#988A81" d="M30.126 486.956c-.24 0-.336.096-.432.384l-2.592 6.576c-.48 1.2-.72 2.353-.72 2.93 0 .863.432 1.487 1.92 1.487h.72c.576 0 .72.096.72.384 0 .384-.288.48-.816.48-1.536 0-3.6-.145-5.088-.145-.528 0-3.168.144-5.665.144-.624 0-.912-.096-.912-.48 0-.287.2-.383.58-.383.43 0 1.11-.048 1.49-.097 2.21-.288 3.12-1.92 4.08-4.32l12.05-29.763c.58-1.392.87-1.92 1.35-1.92.43 0 .72.433 1.2 1.536 1.15 2.64 8.84 21.84 11.91 29.13 1.83 4.32 3.22 4.99 4.23 5.23.72.14 1.44.19 2.02.19.38 0 .62.05.62.38 0 .38-.43.48-2.21.48-1.72 0-5.23 0-9.07-.1-.86-.05-1.44-.05-1.44-.39 0-.29.2-.39.68-.43.34-.1.67-.53.43-1.11l-3.84-9.89c-.09-.24-.24-.34-.48-.34H30.13zm9.793-2.4c.24 0 .28-.145.24-.288l-4.32-11.81c-.05-.19-.1-.432-.24-.432s-.24.24-.29.432l-4.42 11.762c-.05.19 0 .336.19.336h8.83zm33.64.72c0 6.144 0 9.456 1.01 10.32.81.72 2.06 1.056 5.81 1.056 2.54 0 4.41-.048 5.61-1.344.57-.624 1.15-1.97 1.24-2.88.05-.433.14-.72.53-.72.33 0 .38.24.38.815 0 .527-.34 4.128-.72 5.52-.29 1.057-.53 1.297-3.03 1.297-3.46 0-5.96-.096-8.12-.145-2.16-.096-3.89-.144-5.86-.144-.53 0-1.58 0-2.74.05-1.11 0-2.35.1-3.31.1-.63 0-.96-.14-.96-.48 0-.24.19-.38.77-.38.72 0 1.29-.09 1.73-.19.96-.19 1.2-1.24 1.39-2.64.24-2.01.24-5.81.24-10.22v-8.45c0-7.29 0-8.64-.1-10.17-.1-1.63-.48-2.4-2.07-2.73-.39-.09-.96-.14-1.59-.14-.53 0-.82-.09-.82-.43s.33-.43 1.05-.43c2.25 0 5.28.15 6.57.15 1.15 0 4.65-.14 6.53-.14.67 0 1 .1 1 .44s-.29.43-.87.43c-.53 0-1.29.05-1.87.15-1.3.24-1.68 1.06-1.78 2.74-.09 1.54-.09 2.88-.09 10.18v8.45zm34.8 0c0 6.144 0 9.456 1.01 10.32.81.72 2.06 1.056 5.81 1.056 2.54 0 4.41-.048 5.61-1.344.57-.624 1.15-1.97 1.24-2.88.05-.433.14-.72.53-.72.33 0 .38.24.38.815 0 .527-.34 4.128-.72 5.52-.29 1.057-.53 1.297-3.03 1.297-3.46 0-5.96-.096-8.12-.145-2.16-.096-3.89-.144-5.86-.144-.53 0-1.58 0-2.74.05-1.1 0-2.35.1-3.31.1-.63 0-.96-.14-.96-.48 0-.24.19-.38.77-.38.72 0 1.29-.09 1.73-.19.96-.19 1.2-1.24 1.39-2.64.24-2.01.24-5.81.24-10.22v-8.45c0-7.29 0-8.64-.1-10.17-.1-1.63-.48-2.4-2.07-2.73-.39-.09-.96-.14-1.59-.14-.53 0-.82-.09-.82-.43s.33-.43 1.05-.43c2.25 0 5.28.15 6.57.15 1.15 0 4.66-.14 6.53-.14.67 0 1.01.1 1.01.44s-.29.43-.86.43c-.53 0-1.3.05-1.88.15-1.3.24-1.68 1.06-1.78 2.74-.1 1.54-.1 2.88-.1 10.18v8.45zm28.8-8.45c0-7.296 0-8.64-.1-10.176-.1-1.633-.58-2.448-1.64-2.688-.53-.145-1.15-.192-1.73-.192-.48 0-.77-.096-.77-.48 0-.287.38-.384 1.15-.384 1.82 0 4.85.145 6.24.145 1.2 0 4.03-.14 5.85-.14.62 0 1.01.1 1.01.39 0 .39-.29.48-.77.48-.48 0-.86.05-1.44.15-1.3.24-1.68 1.06-1.78 2.74-.1 1.54-.1 2.88-.1 10.18v8.45c0 4.66 0 8.45.19 10.52.14 1.3.48 2.16 1.92 2.35.67.1 1.73.19 2.45.19.53 0 .77.14.77.38 0 .34-.39.48-.91.48-3.17 0-6.2-.14-7.49-.14-1.11 0-4.13.14-6.05.14-.62 0-.96-.14-.96-.48 0-.24.19-.38.77-.38.72 0 1.3-.1 1.73-.19.96-.19 1.25-1.01 1.39-2.4.24-2.01.24-5.81.24-10.46v-8.45zm29.37 10.13c-.24 0-.34.096-.43.384l-2.6 6.576c-.48 1.2-.72 2.353-.72 2.93 0 .863.43 1.487 1.92 1.487h.72c.57 0 .72.096.72.384 0 .384-.29.48-.82.48-1.54 0-3.6-.145-5.09-.145-.53 0-3.17.144-5.67.144-.63 0-.92-.096-.92-.48 0-.287.19-.383.57-.383.43 0 1.1-.048 1.49-.097 2.21-.288 3.12-1.92 4.08-4.32l12.05-29.763c.57-1.392.86-1.92 1.34-1.92.43 0 .72.433 1.2 1.536 1.15 2.64 8.83 21.84 11.91 29.13 1.82 4.32 3.21 4.99 4.22 5.23.72.14 1.44.19 2.01.19.38 0 .62.05.62.38 0 .38-.43.48-2.21.48-1.73 0-5.23 0-9.07-.1-.87-.05-1.44-.05-1.44-.39 0-.29.19-.39.67-.43.33-.1.67-.53.43-1.11l-3.84-9.89c-.1-.24-.24-.34-.48-.34h-10.7zm9.79-2.4c.24 0 .29-.145.24-.288l-4.32-11.81c-.05-.19-.1-.432-.24-.432s-.24.24-.29.432l-4.41 11.762c-.05.19 0 .336.19.336h8.83zm30.33 8.112c.09 3.744.72 4.992 1.68 5.33.81.287 1.72.335 2.49.335.52 0 .81.096.81.384 0 .384-.43.48-1.11.48-3.12 0-5.04-.145-5.96-.145-.44 0-2.69.144-5.19.144-.62 0-1.06-.048-1.06-.48 0-.287.29-.383.77-.383.62 0 1.48-.048 2.16-.24 1.24-.384 1.44-1.776 1.48-5.952l.43-28.27c0-.96.14-1.63.62-1.63.52 0 .96.63 1.77 1.49.57.63 7.87 8.31 14.88 15.27 3.26 3.27 9.74 10.18 10.56 10.95h.24l-.48-21.55c-.05-2.93-.48-3.84-1.63-4.32-.72-.29-1.88-.29-2.55-.29-.58 0-.77-.14-.77-.43 0-.38.53-.43 1.25-.43 2.49 0 4.8.15 5.81.15.52 0 2.35-.14 4.7-.14.62 0 1.1.05 1.1.44 0 .29-.29.43-.86.43-.48 0-.87 0-1.44.15-1.35.39-1.73 1.39-1.78 4.08l-.53 30.29c0 1.06-.19 1.49-.63 1.49-.53 0-1.1-.52-1.63-1.05-3.02-2.88-9.17-9.17-14.16-14.12-5.23-5.18-10.56-11.04-11.43-11.95h-.15l.53 20.02zm48.76 1.97c-4.71-4.13-5.96-9.506-5.96-14.16 0-3.267 1.01-8.93 5.61-13.155 3.45-3.17 8.02-5.09 15.17-5.09 2.97 0 4.75.193 6.96.48 1.82.24 3.36.673 4.8.816.53.04.72.28.72.57 0 .38-.15.96-.24 2.64-.1 1.58-.05 4.22-.15 5.18-.05.72-.15 1.1-.58 1.1-.39 0-.48-.39-.48-1.06-.05-1.49-.67-3.17-1.87-4.42-1.59-1.68-5.33-2.98-9.75-2.98-4.18 0-6.92 1.05-9.03 2.97-3.5 3.21-4.42 7.77-4.42 12.43 0 11.42 8.69 17.09 15.12 17.09 4.28 0 6.87-.48 8.79-2.69.81-.91 1.44-2.31 1.63-3.17.14-.77.24-.96.62-.96.34 0 .43.33.43.72 0 .57-.57 4.75-1.05 6.38-.24.81-.43 1.06-1.25 1.39-1.92.77-5.57 1.1-8.64 1.1-6.58 0-12.1-1.44-16.47-5.24zm43.44-17.81c0-7.298 0-8.64-.1-10.178-.1-1.633-.48-2.4-2.07-2.736-.38-.097-1.2-.145-1.87-.145-.53 0-.82-.1-.82-.44s.33-.44 1.05-.44c1.29 0 2.69.05 3.89.05 1.25.05 2.35.09 3.02.09 1.53 0 11.09 0 12-.05.91-.1 1.68-.19 2.06-.29.24-.05.53-.19.77-.19s.29.19.29.43c0 .33-.24.91-.39 3.12-.05.48-.15 2.59-.24 3.17-.05.24-.15.52-.48.52s-.43-.24-.43-.68c0-.34-.05-1.15-.29-1.73-.34-.87-.82-1.44-3.22-1.73-.81-.1-5.85-.19-6.81-.19-.24 0-.34.14-.34.47v12.14c0 .33.05.53.33.53 1.06 0 6.58 0 7.68-.1 1.15-.1 1.87-.24 2.3-.72.34-.39.53-.63.77-.63.19 0 .33.09.33.38s-.19 1.05-.38 3.5c-.05.96-.2 2.88-.2 3.21 0 .38 0 .91-.43.91-.34 0-.43-.19-.43-.43-.05-.48-.05-1.11-.19-1.73-.24-.96-.91-1.68-2.69-1.87-.91-.1-5.66-.15-6.82-.15-.24 0-.288.19-.288.48v3.79c0 1.63-.05 6.05 0 7.44.09 3.31.86 4.03 5.76 4.03 1.242 0 3.26 0 4.51-.58s1.82-1.59 2.16-3.56c.092-.53.19-.72.53-.72.38 0 .38.38.38.86 0 1.1-.38 4.37-.62 5.33-.34 1.25-.77 1.25-2.6 1.25-3.6 0-6.24-.1-8.305-.15-2.06-.1-3.55-.15-4.99-.15-.53 0-1.59 0-2.74.05-1.1 0-2.35.093-3.31.093-.62 0-.96-.14-.96-.48 0-.24.19-.38.77-.38.72 0 1.3-.1 1.73-.19.96-.19 1.2-1.25 1.39-2.64.24-2.02.24-5.81.24-10.224v-8.44zm56.25 0c0-7.298 0-8.64-.1-10.178-.1-1.633-.48-2.4-2.07-2.736-.39-.097-1.2-.145-1.87-.145-.53 0-.82-.1-.82-.44s.33-.44 1.05-.44c2.54 0 5.56.14 6.52.14 2.35 0 4.23-.15 5.86-.15 8.69 0 10.22 4.65 10.22 7.2 0 3.94-2.26 6.29-4.9 8.4 3.93 1.34 8.73 4.75 8.73 10.37 0 5.13-3.99 10.46-12.82 10.46-.58 0-1.97-.1-3.36-.15-1.44-.1-2.88-.15-3.6-.15-.53 0-1.59 0-2.74.05-1.11 0-2.35.1-3.31.1-.63 0-.96-.14-.96-.48 0-.24.19-.38.77-.38.72 0 1.29-.1 1.73-.19.96-.2 1.2-1.25 1.39-2.64.24-2.02.24-5.81.24-10.23v-8.44zm5.76.815c0 .385.15.48.34.528.43.1 1.15.15 2.25.15 1.58 0 2.64-.19 3.45-.91 1.25-1.01 1.97-2.73 1.97-5.09 0-3.21-1.88-7.44-6-7.44-.68 0-1.11 0-1.59.1-.34.1-.43.29-.43.82v11.86zm6.34 3.84c-1.01-.72-2.12-1.057-3.99-1.152-.87-.04-1.35-.04-2.07-.04-.19 0-.29.1-.29.34V492c0 3.167.14 3.983 1.68 4.607 1.29.528 2.4.576 3.5.576 2.16 0 5.81-1.15 5.81-6.144 0-2.98-1.01-7.01-4.66-9.56zm26.64-4.656c0-7.297 0-8.64-.1-10.177-.1-1.633-.58-2.448-1.63-2.688-.53-.145-1.15-.192-1.73-.192-.48 0-.77-.096-.77-.48 0-.287.38-.384 1.15-.384 1.82 0 4.85.145 6.24.145 1.2 0 4.03-.14 5.85-.14.62 0 1.01.1 1.01.39 0 .39-.29.48-.77.48-.48 0-.86.05-1.44.15-1.3.24-1.68 1.06-1.78 2.74-.1 1.54-.1 2.88-.1 10.18v8.45c0 4.66 0 8.45.19 10.52.14 1.3.48 2.16 1.92 2.35.67.1 1.72.19 2.44.19.53 0 .77.14.77.38 0 .34-.38.48-.91.48-3.17 0-6.19-.14-7.49-.14-1.1 0-4.13.14-6.05.14-.63 0-.96-.14-.96-.48 0-.24.19-.38.77-.38.72 0 1.3-.1 1.73-.19.96-.19 1.25-1.01 1.39-2.4.24-2.01.24-5.81.24-10.46v-8.45zm27.45 0c0-7.297 0-8.64-.1-10.177-.1-1.633-.48-2.4-2.07-2.736-.39-.097-1.2-.145-1.87-.145-.53 0-.82-.1-.82-.44s.33-.44 1.05-.44c2.55 0 5.57.14 6.53.14 2.35 0 4.22-.15 5.86-.15 8.69 0 10.22 4.65 10.22 7.2 0 3.94-2.25 6.29-4.89 8.4 3.93 1.34 8.73 4.75 8.73 10.37 0 5.13-3.98 10.46-12.81 10.46-.58 0-1.97-.1-3.36-.15-1.44-.1-2.88-.15-3.6-.15-.53 0-1.59 0-2.74.05-1.1 0-2.35.1-3.31.1-.63 0-.96-.14-.96-.48 0-.24.19-.38.77-.38.72 0 1.29-.1 1.73-.19.96-.2 1.2-1.25 1.39-2.64.24-2.02.24-5.81.24-10.23v-8.44zm5.76.816c0 .385.14.48.33.528.43.1 1.15.15 2.25.15 1.58 0 2.64-.19 3.45-.91 1.24-1.01 1.96-2.73 1.96-5.09 0-3.21-1.87-7.44-6-7.44-.67 0-1.1 0-1.58.1-.34.1-.43.29-.43.82v11.86zm6.33 3.84c-1.01-.72-2.11-1.057-3.99-1.152-.87-.04-1.35-.04-2.07-.04-.2 0-.29.1-.29.34V492c0 3.167.14 3.983 1.68 4.607 1.29.528 2.4.576 3.5.576 2.16 0 5.8-1.15 5.8-6.144 0-2.98-1.01-7.01-4.66-9.56zm32.64 3.792c0 6.145 0 9.457 1.01 10.32.81.72 2.06 1.057 5.8 1.057 2.54 0 4.41-.048 5.61-1.344.57-.624 1.15-1.97 1.24-2.88.05-.433.14-.72.53-.72.33 0 .38.24.38.815 0 .527-.34 4.128-.72 5.52-.29 1.057-.53 1.297-3.03 1.297-3.46 0-5.96-.096-8.12-.145-2.16-.096-3.89-.144-5.86-.144-.53 0-1.59 0-2.74.05-1.11 0-2.35.1-3.31.1-.62 0-.96-.14-.96-.48 0-.24.19-.38.77-.38.72 0 1.3-.09 1.73-.19.96-.19 1.2-1.24 1.39-2.64.24-2.01.24-5.81.24-10.22v-8.45c0-7.29 0-8.64-.1-10.17-.1-1.63-.48-2.4-2.07-2.73-.39-.09-.96-.14-1.59-.14-.53 0-.82-.09-.82-.43s.333-.43 1.053-.43c2.255 0 5.28.15 6.576.15 1.15 0 4.66-.14 6.53-.14.67 0 1.01.1 1.01.44s-.29.43-.86.43c-.53 0-1.3.05-1.878.15-1.297.24-1.68 1.06-1.777 2.74-.1 1.54-.1 2.88-.1 10.18v8.45zm28.8-8.448c0-7.297 0-8.64-.1-10.177-.1-1.633-.58-2.448-1.64-2.688-.53-.145-1.15-.192-1.73-.192-.48 0-.77-.096-.77-.48 0-.287.38-.384 1.15-.384 1.82 0 4.85.145 6.24.145 1.2 0 4.03-.14 5.85-.14.62 0 1.01.1 1.01.39 0 .39-.29.48-.77.48-.48 0-.87.05-1.44.15-1.3.24-1.68 1.06-1.78 2.74-.1 1.54-.1 2.88-.1 10.18v8.45c0 4.66 0 8.45.19 10.52.14 1.3.48 2.16 1.92 2.35.67.1 1.73.19 2.45.19.53 0 .77.14.77.38 0 .34-.39.48-.91.48-3.17 0-6.2-.14-7.49-.14-1.11 0-4.13.14-6.05.14-.62 0-.96-.14-.96-.48 0-.24.19-.38.77-.38.72 0 1.3-.1 1.73-.19.96-.19 1.25-1.01 1.39-2.4.24-2.01.24-5.81.24-10.46v-8.45zm48.81 21.793c-1.92.72-4.99 1.25-7.54 1.25-14.07 0-19.54-10.418-19.54-19.06 0-7.824 5.61-18.577 19.68-18.577 11.47 0 19.44 6.96 19.44 18.193 0 8.45-5.33 13.777-8.35 15.794l9.65 4.944c10.12 5.185 16.51 5.712 19.77 5.712 2.5 0 6.05-.384 9.36-1.68.28-.096.52-.24.72-.24.24 0 .43.192.43.433 0 .28-.24.43-.58.57-2.88 1.39-8.31 3.6-15.22 3.6-7.25 0-12.38-1.87-20.31-6.53l-7.54-4.42zm5.33-16.896c0-11.617-7.2-17.186-13.83-17.186-6.29 0-11.91 4.032-11.91 15.17 0 11.424 6.91 17.76 14.64 17.76 3.84 0 11.09-1.68 11.09-15.744z"/><path fill="#988A81" d="M570.17 476.827c0-7.297 0-8.64-.095-10.177-.096-1.633-.48-2.4-2.064-2.736-.38-.097-1.2-.145-1.87-.145-.53 0-.81-.1-.81-.44s.34-.44 1.06-.44c2.55 0 5.57.14 7.01.14 1.15 0 4.18-.15 5.91-.15.72 0 1.06.09 1.06.43s-.29.43-.77.43c-.52 0-.81.05-1.39.14-1.29.24-1.68 1.05-1.77 2.73-.1 1.53-.1 2.88-.1 10.17v6.72c0 6.96 1.4 9.89 3.75 11.81 2.16 1.77 4.37 1.97 6 1.97 2.12 0 4.71-.67 6.63-2.59 2.64-2.64 2.79-6.96 2.79-11.91v-6c0-7.3 0-8.64-.09-10.18-.09-1.63-.48-2.4-2.06-2.73-.38-.1-1.2-.15-1.72-.15s-.82-.1-.82-.44.34-.43 1.01-.43c2.45 0 5.47.14 5.52.14.58 0 3.6-.15 5.47-.15.67 0 1.01.1 1.01.43s-.29.44-.87.44c-.53 0-.81.04-1.39.14-1.29.24-1.68 1.05-1.77 2.73-.1 1.53-.1 2.88-.1 10.17v5.13c0 5.33-.53 10.99-4.56 14.45-3.41 2.93-6.86 3.46-9.98 3.46-2.54 0-7.15-.15-10.65-3.31-2.45-2.21-4.27-5.76-4.27-12.72v-7.01zm48.722 0c0-7.297 0-8.64-.097-10.177-.096-1.633-.48-2.4-2.063-2.736-.385-.097-1.2-.145-1.872-.145-.528 0-.816-.1-.816-.44s.336-.44 1.056-.44c1.296 0 2.688.05 3.89.05 1.247.05 2.352.09 3.023.09 1.536 0 11.09 0 12-.05.913-.1 1.68-.19 2.065-.29.24-.05.527-.19.768-.19s.288.19.288.43c0 .33-.24.91-.384 3.12-.048.48-.145 2.59-.24 3.17-.048.24-.144.52-.48.52-.336 0-.432-.24-.432-.68 0-.34-.048-1.15-.288-1.73-.336-.87-.816-1.44-3.216-1.73-.816-.1-5.856-.19-6.817-.19-.24 0-.336.14-.336.47v12.14c0 .33.05.53.34.53 1.06 0 6.58 0 7.68-.1 1.16-.1 1.88-.24 2.31-.72.34-.39.53-.63.77-.63.2 0 .34.09.34.38s-.19 1.05-.38 3.5c-.05.96-.19 2.88-.19 3.21 0 .38 0 .91-.43.91-.33 0-.43-.19-.43-.43-.04-.48-.04-1.11-.19-1.73-.24-.96-.91-1.68-2.68-1.87-.91-.1-5.66-.15-6.82-.15-.24 0-.28.19-.28.48v3.79c0 1.63-.05 6.05 0 7.44.1 3.31.87 4.03 5.76 4.03 1.25 0 3.27 0 4.52-.58 1.25-.58 1.82-1.59 2.16-3.56.1-.53.19-.72.53-.72.39 0 .39.38.39.86 0 1.1-.38 4.37-.62 5.33-.33 1.25-.77 1.25-2.59 1.25-3.6 0-6.24-.1-8.3-.15-2.06-.1-3.55-.15-4.99-.15-.52 0-1.58 0-2.73.05-1.1 0-2.35.093-3.31.093-.62 0-.96-.14-.96-.48 0-.24.2-.38.77-.38.72 0 1.3-.1 1.73-.19.96-.19 1.2-1.25 1.4-2.64.24-2.02.24-5.81.24-10.224v-8.44zm62.302 8.448c0 4.608 0 8.21.24 10.225.145 1.393.433 2.448 1.872 2.64.672.097 1.73.193 2.4.193.624 0 .816.144.816.384 0 .336-.336.48-1.057.48-3.024 0-6.048-.145-7.297-.145-1.248 0-4.27.144-6.096.144-.673 0-1.01-.096-1.01-.48 0-.24.193-.383.722-.383.72 0 1.296-.097 1.728-.192.96-.19 1.2-1.24 1.393-2.64.24-2.01.24-5.61.24-10.22v-8.45c0-7.29 0-8.64-.097-10.17-.096-1.63-.48-2.4-2.063-2.73-.385-.09-1.2-.14-1.873-.14-.48 0-.815-.09-.815-.38 0-.38.384-.48 1.104-.48 1.25 0 2.65.05 3.89.05 1.25.05 2.36.1 3.03.1 1.83 0 11.57 0 12.68-.04.91-.05 1.49-.05 1.97-.19.29-.09.53-.29.77-.29.19 0 .34.19.34.43 0 .34-.24.91-.38 2.16-.05.48-.14 3.32-.24 3.89-.05.39-.14.67-.48.67-.34 0-.43-.24-.48-.76 0-.39 0-1.15-.29-1.83-.33-.67-1.34-1.39-3.17-1.44l-7.39-.14c-.29 0-.43.15-.43.67v12c0 .29.05.44.34.44l6.15-.04c.82 0 1.49 0 2.16-.05.91-.05 1.59-.24 2.07-.86.24-.29.34-.48.63-.48.19 0 .29.15.29.43s-.24 1.49-.38 2.98c-.09.96-.19 3.17-.19 3.5 0 .43 0 .91-.48.91-.28 0-.38-.33-.38-.67s-.09-.91-.28-1.49c-.24-.67-.96-1.54-2.45-1.73-1.2-.15-6.29-.15-7.1-.15-.24 0-.33.1-.33.44v3.89zm29.568-8.448c0-7.297 0-8.64-.097-10.177-.096-1.633-.48-2.4-2.063-2.736-.385-.097-1.2-.145-1.873-.145-.53 0-.82-.1-.82-.44s.33-.44 1.05-.44c2.54 0 5.56.14 6.57.14 1.63 0 5.28-.15 6.77-.15 3.02 0 6.24.29 8.83 2.06 1.34.91 3.26 3.36 3.26 6.57 0 3.55-1.49 6.82-6.34 10.75 4.27 5.37 7.58 9.65 10.41 12.62 2.68 2.78 4.65 3.12 5.37 3.26.53.1.96.14 1.34.14s.57.14.57.38c0 .38-.34.48-.91.48h-4.56c-2.69 0-3.89-.24-5.14-.91-2.06-1.11-3.89-3.36-6.58-7.06-1.92-2.64-4.13-5.91-4.75-6.63-.24-.29-.53-.34-.87-.34l-4.18-.1c-.24 0-.38.09-.38.38v.67c0 4.46 0 8.26.24 10.27.14 1.39.43 2.44 1.87 2.64.72.09 1.78.19 2.35.19.38 0 .57.15.57.39 0 .33-.34.48-.96.48-2.78 0-6.34-.15-7.06-.15-.91 0-3.94.14-5.86.14-.63 0-.96-.14-.96-.48 0-.24.19-.38.77-.38.72 0 1.29-.1 1.72-.19.96-.19 1.2-1.25 1.4-2.64.24-2.01.24-5.81.24-10.22v-8.44zm5.664 3.792c0 .52.096.72.432.86 1.01.33 2.448.48 3.648.48 1.92 0 2.545-.19 3.408-.82 1.44-1.06 2.833-3.27 2.833-7.2 0-6.82-4.513-8.79-7.345-8.79-1.2 0-2.064.05-2.545.19-.336.1-.432.29-.432.67v14.59z"/><path fill="#988A81" d="M754.68 486.956c-.24 0-.335.096-.432.384l-2.592 6.576c-.48 1.2-.72 2.353-.72 2.93 0 .863.432 1.487 1.92 1.487h.72c.576 0 .72.096.72.384 0 .384-.287.48-.815.48-1.53 0-3.6-.145-5.08-.145-.52 0-3.17.144-5.66.144-.62 0-.91-.096-.91-.48 0-.287.2-.383.58-.383.43 0 1.11-.048 1.49-.097 2.21-.288 3.12-1.92 4.08-4.32l12.05-29.763c.58-1.392.87-1.92 1.35-1.92.44 0 .72.433 1.2 1.536 1.15 2.64 8.84 21.84 11.91 29.13 1.83 4.32 3.22 4.99 4.23 5.23.72.14 1.44.19 2.02.19.39 0 .63.05.63.38 0 .38-.43.48-2.21.48-1.73 0-5.23 0-9.07-.1-.86-.05-1.44-.05-1.44-.39 0-.29.19-.39.67-.43.34-.1.68-.53.44-1.11l-3.84-9.89c-.1-.24-.24-.34-.48-.34H754.7zm9.794-2.4c.24 0 .288-.145.24-.288l-4.32-11.81c-.05-.19-.097-.432-.24-.432-.145 0-.24.24-.288.432l-4.417 11.762c-.05.19 0 .336.19.336h8.83zm30.334 8.112c.097 3.744.72 4.992 1.68 5.33.817.287 1.73.335 2.497.335.528 0 .816.096.816.384 0 .384-.43.48-1.1.48-3.12 0-5.04-.145-5.95-.145-.43 0-2.69.144-5.18.144-.62 0-1.05-.048-1.05-.48 0-.287.29-.383.77-.383.63 0 1.49-.048 2.16-.24 1.25-.384 1.44-1.776 1.49-5.952l.44-28.27c0-.96.15-1.63.62-1.63.53 0 .96.63 1.78 1.49.58.63 7.87 8.31 14.88 15.27 3.27 3.27 9.75 10.18 10.56 10.95h.24l-.48-21.55c-.05-2.93-.48-3.84-1.63-4.32-.72-.29-1.87-.29-2.54-.29-.57 0-.77-.14-.77-.43 0-.38.53-.43 1.25-.43 2.5 0 4.8.15 5.81.15.53 0 2.35-.14 4.7-.14.63 0 1.11.05 1.11.44 0 .29-.29.43-.86.43-.48 0-.86 0-1.44.15-1.34.39-1.72 1.39-1.77 4.08l-.53 30.29c0 1.06-.19 1.49-.62 1.49-.53 0-1.1-.52-1.63-1.05-3.02-2.88-9.16-9.17-14.16-14.12-5.23-5.18-10.56-11.04-11.42-11.95h-.15l.53 20.02zm59.232 9.697c3.504.336 5.664 1.68 5.664 3.84 0 1.92-1.968 5.137-8.832 5.137-.433 0-.816-.144-.816-.48 0-.432.576-.624 1.248-.624 1.584 0 4.032-1.2 4.032-3.216 0-1.296-.576-3.024-3.792-3.504-.672-.097-1.057-.24-1.057-.385 0-.144.145-.24.77-.72l3.84-2.88c-8.93-1.2-17.474-6.817-17.474-19.058 0-3.265 1.008-8.93 5.616-13.153 3.45-3.17 8.01-5.09 15.16-5.09 2.97 0 4.75.193 6.96.48 1.82.24 3.36.673 4.8.816.52.05.72.288.72.576 0 .385-.15.96-.24 2.64-.1 1.585-.05 4.226-.15 5.186-.05.72-.15 1.104-.58 1.104-.39 0-.48-.384-.48-1.056-.05-1.488-.68-3.168-1.88-4.416-1.59-1.68-5.33-2.977-9.75-2.977-4.18 0-6.92 1.056-9.03 2.977-3.51 3.216-4.42 7.776-4.42 12.433 0 11.425 8.69 17.09 15.12 17.09 4.27 0 6.86-.48 8.78-2.688.82-.912 1.44-2.305 1.64-3.168.14-.77.24-.97.62-.97.33 0 .43.33.43.72 0 .57-.58 4.75-1.06 6.38-.24.81-.43 1.05-1.25 1.39-1.92.77-5.57 1.1-8.64 1.1-.92 0-1.78-.05-2.55-.1l-3.46 2.59zm36.336-15.41c-.24 0-.336.097-.433.385l-2.592 6.576c-.48 1.2-.72 2.353-.72 2.93 0 .863.44 1.487 1.92 1.487h.72c.58 0 .73.096.73.384 0 .384-.29.48-.81.48-1.53 0-3.6-.145-5.09-.145-.52 0-3.16.144-5.66.144-.62 0-.91-.096-.91-.48 0-.287.2-.383.58-.383.43 0 1.11-.048 1.49-.097 2.21-.288 3.12-1.92 4.08-4.32l12.05-29.763c.58-1.392.87-1.92 1.35-1.92.43 0 .72.433 1.2 1.536 1.15 2.64 8.84 21.84 11.91 29.13 1.83 4.32 3.22 4.99 4.23 5.23.72.14 1.44.19 2.02.19.39 0 .63.05.63.38 0 .38-.43.48-2.21.48-1.72 0-5.23 0-9.07-.1-.86-.05-1.44-.05-1.44-.39 0-.29.19-.39.67-.43.34-.1.68-.53.44-1.11l-3.84-9.89c-.09-.24-.24-.34-.48-.34H890.4zm9.793-2.4c.24 0 .28-.144.24-.287l-4.33-11.81c-.05-.19-.1-.432-.24-.432s-.24.24-.29.432l-4.42 11.762c-.05.19 0 .336.19.336h8.83zm27.64-7.728c0-7.297 0-8.64-.1-10.177-.1-1.633-.58-2.448-1.63-2.688-.53-.145-1.15-.192-1.73-.192-.48 0-.77-.096-.77-.48 0-.287.38-.384 1.15-.384 1.82 0 4.85.145 6.24.145 1.2 0 4.03-.14 5.85-.14.62 0 1.01.1 1.01.39 0 .39-.29.48-.77.48-.48 0-.87.05-1.44.15-1.3.24-1.68 1.06-1.78 2.74-.1 1.54-.1 2.88-.1 10.18v8.45c0 4.66 0 8.45.19 10.52.14 1.3.48 2.16 1.92 2.35.67.1 1.73.19 2.45.19.53 0 .77.14.77.38 0 .34-.39.48-.91.48-3.17 0-6.19-.14-7.49-.14-1.11 0-4.13.14-6.05.14-.63 0-.96-.14-.96-.48 0-.24.19-.38.77-.38.72 0 1.29-.1 1.73-.19.96-.19 1.25-1.01 1.4-2.4.24-2.01.24-5.81.24-10.46v-8.45zm24.81 21.793c-.77-.335-.91-.575-.91-1.632 0-2.64.19-5.52.24-6.288.04-.72.19-1.248.57-1.248.43 0 .48.432.48.815 0 .624.19 1.633.43 2.448 1.05 3.553 3.88 4.85 6.86 4.85 4.32 0 6.43-2.93 6.43-5.474 0-2.35-.72-4.56-4.71-7.68l-2.21-1.72c-5.28-4.13-7.1-7.49-7.1-11.37 0-5.28 4.41-9.07 11.09-9.07 3.12 0 5.13.48 6.38.82.43.1.67.24.67.58 0 .63-.19 2.02-.19 5.76 0 1.06-.15 1.44-.53 1.44-.34 0-.48-.29-.48-.86 0-.43-.24-1.92-1.25-3.16-.72-.91-2.11-2.35-5.24-2.35-3.55 0-5.71 2.07-5.71 4.95 0 2.21 1.1 3.89 5.09 6.91l1.34 1.01c5.81 4.37 7.87 7.68 7.87 12.24 0 2.79-1.06 6.1-4.52 8.36-2.4 1.54-5.09 1.97-7.63 1.97-2.79 0-4.95-.33-7.01-1.25zm36.33-21.793c0-7.297 0-8.64-.1-10.177-.1-1.633-.48-2.4-2.07-2.736-.39-.097-1.2-.145-1.88-.145-.53 0-.82-.1-.82-.44s.33-.44 1.05-.44c1.29 0 2.68.05 3.89.05 1.24.05 2.35.09 3.02.09 1.53 0 11.09 0 12-.05.91-.1 1.68-.19 2.06-.29.24-.05.52-.19.76-.19s.29.19.29.43c0 .33-.24.91-.39 3.12-.05.48-.14 2.59-.24 3.17-.05.24-.14.52-.48.52s-.43-.24-.43-.68c0-.34-.05-1.15-.29-1.73-.34-.87-.82-1.44-3.22-1.73-.82-.1-5.86-.19-6.82-.19-.24 0-.34.14-.34.47v12.14c0 .33.04.53.33.53 1.06 0 6.58 0 7.68-.1 1.15-.1 1.88-.24 2.31-.72.33-.39.53-.63.77-.63.19 0 .33.09.33.38s-.19 1.05-.39 3.5c-.05.96-.19 2.88-.19 3.21 0 .38 0 .91-.44.91-.34 0-.43-.19-.43-.43-.05-.48-.05-1.11-.19-1.73-.24-.96-.92-1.68-2.69-1.87-.91-.1-5.67-.15-6.82-.15-.24 0-.29.19-.29.48v3.79c0 1.63-.05 6.05 0 7.44.1 3.31.86 4.03 5.76 4.03 1.25 0 3.262 0 4.51-.58 1.25-.58 1.822-1.59 2.16-3.56.094-.53.19-.72.53-.72.38 0 .38.38.38.86 0 1.1-.385 4.37-.625 5.33-.338 1.25-.77 1.25-2.595 1.25-3.6 0-6.24-.1-8.3-.15-2.06-.1-3.55-.15-4.99-.15-.53 0-1.583 0-2.735.05-1.103 0-2.35.093-3.31.093-.62 0-.96-.14-.96-.48 0-.24.19-.38.77-.38.72 0 1.294-.1 1.73-.19.96-.19 1.2-1.25 1.39-2.64.24-2.02.24-5.81.24-10.224v-8.44z"/></svg>
