<svg id="Layer_1" xmlns="http://www.w3.org/2000/svg" viewBox="0 0 500 500"><style>.st0{fill:#988a80}.st2{fill:#988a81}</style><path class="st0" d="M399.4 127.6c-3 4.1-6.4 7.1-10.4 9.4-7.6 4.5-16 6.7-24.6 8.2-10.4 1.9-21 2.7-31.6 2.9-.6 0-1.3.2-2 .2-3.2.2-3.2.2-3.2 3.5v59c0 1.8-.4 2.3-2.3 2.3-6.2-.1-12.3-.1-18.5 0-1.9 0-2.4-.4-2.4-2.4v-93.8-45.8c0-1.6.4-2.1 2.1-2.1H414.1c-.9 2.1-2.1 3.6-3.5 5.1-6.1 6.5-13.9 9.5-22.5 11-4 .7-8.1.9-12.1.9h-46.4c-1.7 0-2.2.4-2.2 2.2.1 13.4 0 26.8 0 40.3 0 1.4.3 2 1.9 2 10.4.5 20.7.5 31.1.2 13-.5 25.8-1.2 39-3.1z"/><linearGradient id="SVGID_1_" gradientUnits="userSpaceOnUse" x1="396.116" y1=".571" x2="485" y2=".571" gradientTransform="translate(0 100)"><stop offset="0" stop-color="#c2228e"/><stop offset=".648" stop-color="#f05b94"/></linearGradient><path d="M485 90.2h-26.6c-1.7 0-2.1-.5-2-2.1.2-6.9.3-13.9.3-20.8V63c-5.9 8.4-11.5 16.8-17 25.2-.8 1.3-1.8 2.2-3.4 2h-27.1c1.2 1.1 1.9 1.7 2.6 2.4 4.7 4.5 9.3 9 14.1 13.4 1 1 1.1 1.7.3 2.8-2.3 3.6-5 7-7.6 10.5-3.9 4.4-7.9 8.8-12.5 12.4-3.1 2.4-6.5 4.5-9.9 6.5 9.2-.5 17.7-3.2 25.6-7.9 5.2-2.6 9.7-6.2 14-10 2.5-2.2 2.5-2.3 4.9-.2 5 4.8 9.9 9.7 15.2 14.9 0-.9.1-1.2.1-1.5.1-8.2.3-16.4.3-24.6 0-1.2.3-1.9 1.4-2.5 3.7-2.1 7.3-4.2 11-6.4 5.5-3.2 10.9-6.4 16.4-9.6-.1 0-.1-.1-.1-.2z" fill="url(#SVGID_1_)"/><path class="st0" d="M293.5 168.7c-1.4-10.8-6.5-19.2-16.4-24.3-5.4-2.8-11.3-3.9-17.8-4.2 9.6-3.2 12.4-6.5 15.2-10.2 5.5-7.4 7.1-15.9 6.5-25.1-1.5-23.7-20.3-35.3-38-35.8-17.5-.5-35.1-.1-52.7-.1-1.6 0-2 .5-2 2v140c0 1.7.5 2 2.1 2h57.2c7.6 0 15-1 22.2-3.5 10.3-3.7 18.1-10.1 21.9-20.7 2.3-6.6 2.7-13.3 1.8-20.1zm-81.9-60.8V85.7c0-1.3.3-1.8 1.7-1.8 7.5.2 15-.3 22.4.4 3.3.3 6.6 1 9.7 2.2 6.8 2.7 10.9 7.7 12.2 14.9.9 5.5.8 11-.9 16.3-2.2 7.1-7.2 11-14.1 13-3.9 1.1-8 1.5-12 1.6-5.6.1-11.3-.1-16.9.1-1.8 0-2.2-.6-2.1-2.2v-22.3zm58.4 75.5c-2.8 8.5-9.6 11.8-17.8 13-3.6.6-7.3.7-11 .7h-26.9c-3.1 0-2.8.3-2.8-2.7v-19.8-21c0-1.2.3-1.7 1.6-1.7 11.1.1 22.3 0 33.4.2 5 .1 9.9 1.2 14.4 3.5 5.8 2.9 9.3 7.5 10.2 14 .8 4.6.5 9.3-1.1 13.8z"/><path class="st2" d="M166.4 71c0-1.5-.4-2-2-2-5.2.1-10.5 0-15.7 0-3.6.1-7.2.5-10.7 1.5-8.9 2.5-15.6 8.2-21.4 15-9.2 10.9-18.2 22-27.2 33-23.3 28.5-46.6 57-70.3 85.1-2.5 3-5 6-7.7 9.2.6.1.8.1 1 .1h18.9c4 0 7.3-1.5 10.1-4.5 6.1-6.7 11.5-13.9 17.4-20.8 2.4-2.8 4.3-6.2 7.3-8.4 16.7-12.2 35.7-18.4 55.9-21.5 6.5-1 13.1-1.4 19.7-1.9 1.6-.1 1.7.6 1.7 1.8v28.3c0 8.3 0 16.7-.1 25 0 1.6.4 2 2 2 6.4-.1 12.7-.1 19.1 0 1.5 0 1.9-.5 1.8-1.9-.1-2.9 0-5.9 0-8.8 0-34.2-.1-68.3 0-102.4.1-9.6.1-19.2.2-28.8zm-22.9 29.1c-.2 4.2-.1 8.5-.1 12.7v19.1c0 1.5-.5 1.8-1.9 2-19 2.2-36.8 7.5-52.8 18.4-.2.1-.5.3-.7.4l-.3-.3c18.5-22.5 37-45 55.8-67.9.1 5.6.2 10.6 0 15.6zM86.9 301c-.3 0-.4.1-.5.4l-3 7.6c-.6 1.4-.8 2.7-.8 3.4 0 1 .5 1.7 2.2 1.7h.8c.7 0 .8.1.8.4 0 .4-.3.6-.9.6-1.8 0-4.2-.2-5.9-.2-.6 0-3.7.2-6.6.2-.7 0-1.1-.1-1.1-.6 0-.3.2-.4.7-.4.5 0 1.3-.1 1.7-.1 2.6-.3 3.6-2.2 4.7-5l14-34.5c.7-1.6 1-2.2 1.6-2.2.5 0 .8.5 1.4 1.8 1.3 3.1 10.2 25.3 13.8 33.8 2.1 5 3.7 5.8 4.9 6.1.8.2 1.7.2 2.3.2.4 0 .7.1.7.4 0 .4-.5.6-2.6.6-2 0-6.1 0-10.5-.1-1-.1-1.7-.1-1.7-.4 0-.3.2-.4.8-.5.4-.1.8-.6.5-1.3l-4.4-11.5c-.1-.3-.3-.4-.6-.4H86.9zm11.4-2.8c.3 0 .3-.2.3-.3l-5-13.7c-.1-.2-.1-.5-.3-.5-.2 0-.3.3-.3.5l-5.1 13.6c-.1.2 0 .4.2.4h10.2zM137.2 299.1c0 7.1 0 11 1.2 12 .9.8 2.4 1.2 6.7 1.2 2.9 0 5.1-.1 6.5-1.6.7-.7 1.3-2.3 1.4-3.3.1-.5.2-.8.6-.8.4 0 .4.3.4.9 0 .6-.4 4.8-.8 6.4-.3 1.2-.6 1.5-3.5 1.5-4 0-6.9-.1-9.4-.2s-4.5-.2-6.8-.2c-.6 0-1.8 0-3.2.1-1.3 0-2.7.1-3.8.1-.7 0-1.1-.2-1.1-.6 0-.3.2-.4.9-.4.8 0 1.5-.1 2-.2 1.1-.2 1.4-1.4 1.6-3.1.3-2.3.3-6.7.3-11.8v-9.8c0-8.5 0-10-.1-11.8-.1-1.9-.6-2.8-2.4-3.2-.4-.1-1.1-.2-1.8-.2-.6 0-.9-.1-.9-.5s.4-.5 1.2-.5c2.6 0 6.1.2 7.6.2 1.3 0 5.4-.2 7.6-.2.8 0 1.2.1 1.2.5s-.3.5-1 .5c-.6 0-1.5.1-2.2.2-1.5.3-1.9 1.2-2.1 3.2-.1 1.8-.1 3.3-.1 11.8v9.8zM177.6 299.1c0 7.1 0 11 1.2 12 .9.8 2.4 1.2 6.7 1.2 2.9 0 5.1-.1 6.5-1.6.7-.7 1.3-2.3 1.4-3.3.1-.5.2-.8.6-.8.4 0 .4.3.4.9 0 .6-.4 4.8-.8 6.4-.3 1.2-.6 1.5-3.5 1.5-4 0-6.9-.1-9.4-.2s-4.5-.2-6.8-.2c-.6 0-1.8 0-3.2.1-1.3 0-2.7.1-3.8.1-.7 0-1.1-.2-1.1-.6 0-.3.2-.4.9-.4.8 0 1.5-.1 2-.2 1.1-.2 1.4-1.4 1.6-3.1.3-2.3.3-6.7.3-11.8v-9.8c0-8.5 0-10-.1-11.8-.1-1.9-.6-2.8-2.4-3.2-.4-.1-1.1-.2-1.8-.2-.6 0-.9-.1-.9-.5s.4-.5 1.2-.5c2.6 0 6.1.2 7.6.2 1.3 0 5.4-.2 7.6-.2.8 0 1.2.1 1.2.5s-.3.5-1 .5c-.6 0-1.5.1-2.2.2-1.5.3-1.9 1.2-2.1 3.2-.1 1.8-.1 3.3-.1 11.8v9.8zM210.9 289.3c0-8.5 0-10-.1-11.8-.1-1.9-.7-2.8-1.9-3.1-.6-.2-1.3-.2-2-.2-.6 0-.9-.1-.9-.6 0-.3.4-.4 1.3-.4 2.1 0 5.6.2 7.2.2 1.4 0 4.7-.2 6.8-.2.7 0 1.2.1 1.2.4 0 .4-.3.6-.9.6-.6 0-1 .1-1.7.2-1.5.3-1.9 1.2-2.1 3.2-.1 1.8-.1 3.3-.1 11.8v9.8c0 5.4 0 9.8.2 12.2.2 1.5.6 2.5 2.2 2.7.8.1 2 .2 2.8.2.6 0 .9.2.9.4 0 .4-.4.6-1.1.6-3.7 0-7.2-.2-8.7-.2-1.3 0-4.8.2-7 .2-.7 0-1.1-.2-1.1-.6 0-.3.2-.4.9-.4.8 0 1.5-.1 2-.2 1.1-.2 1.4-1.2 1.6-2.8.3-2.3.3-6.7.3-12.1l.2-9.9zM245 301c-.3 0-.4.1-.5.4l-3 7.6c-.6 1.4-.8 2.7-.8 3.4 0 1 .5 1.7 2.2 1.7h.8c.7 0 .8.1.8.4 0 .4-.3.6-.9.6-1.8 0-4.2-.2-5.9-.2-.6 0-3.7.2-6.6.2-.7 0-1.1-.1-1.1-.6 0-.3.2-.4.7-.4.5 0 1.3-.1 1.7-.1 2.6-.3 3.6-2.2 4.7-5l14-34.5c.7-1.6 1-2.2 1.6-2.2.5 0 .8.5 1.4 1.8 1.3 3.1 10.2 25.3 13.8 33.8 2.1 5 3.7 5.8 4.9 6.1.8.2 1.7.2 2.3.2.4 0 .7.1.7.4 0 .4-.5.6-2.6.6-2 0-6.1 0-10.5-.1-1-.1-1.7-.1-1.7-.4 0-.3.2-.4.8-.5.4-.1.8-.6.5-1.3l-4.4-11.5c-.1-.3-.3-.4-.6-.4H245zm11.3-2.8c.3 0 .3-.2.3-.3l-5-13.7c-.1-.2-.1-.5-.3-.5-.2 0-.3.3-.3.5l-5.1 13.6c-.1.2 0 .4.2.4h10.2zM291.5 307.6c.1 4.3.8 5.8 1.9 6.2.9.3 2 .4 2.9.4.6 0 .9.1.9.4 0 .4-.5.6-1.3.6-3.6 0-5.8-.2-6.9-.2-.5 0-3.1.2-6 .2-.7 0-1.2-.1-1.2-.6 0-.3.3-.4.9-.4.7 0 1.7-.1 2.5-.3 1.4-.4 1.7-2.1 1.7-6.9l.5-32.8c0-1.1.2-1.9.7-1.9.6 0 1.1.7 2.1 1.7.7.7 9.1 9.6 17.2 17.7 3.8 3.8 11.3 11.8 12.2 12.7h.3l-.6-25c-.1-3.4-.6-4.4-1.9-5-.8-.3-2.2-.3-2.9-.3-.7 0-.9-.2-.9-.5 0-.4.6-.5 1.4-.5 2.9 0 5.6.2 6.7.2.6 0 2.7-.2 5.5-.2.7 0 1.3.1 1.3.5 0 .3-.3.5-1 .5-.6 0-1 0-1.7.2-1.6.4-2 1.6-2.1 4.7l-.6 35.1c0 1.2-.2 1.7-.7 1.7-.6 0-1.3-.6-1.9-1.2-3.5-3.3-10.6-10.6-16.4-16.4-6.1-6-12.2-12.8-13.2-13.8h-.2l.8 23.2zM348 309.9c-5.5-4.8-6.9-11-6.9-16.4 0-3.8 1.2-10.3 6.5-15.2 4-3.7 9.3-5.9 17.6-5.9 3.4 0 5.5.2 8.1.6 2.1.3 3.9.8 5.6.9.6.1.8.3.8.7 0 .4-.2 1.1-.3 3.1-.1 1.8-.1 4.9-.2 6-.1.8-.2 1.3-.7 1.3-.4 0-.6-.4-.6-1.2-.1-1.7-.8-3.7-2.2-5.1-1.8-1.9-6.2-3.4-11.3-3.4-4.8 0-8 1.2-10.5 3.4-4.1 3.7-5.1 9-5.1 14.4 0 13.2 10.1 19.8 17.5 19.8 4.9 0 8-.6 10.2-3.1.9-1.1 1.7-2.7 1.9-3.7.2-.9.3-1.1.7-1.1.4 0 .5.4.5.8 0 .7-.7 5.5-1.2 7.4-.3.9-.5 1.2-1.4 1.6-2.2.9-6.5 1.3-10 1.3-7.6-.1-14-1.8-19-6.2zM398.3 289.3c0-8.5 0-10-.1-11.8-.1-1.9-.6-2.8-2.4-3.2-.4-.1-1.4-.2-2.2-.2-.6 0-.9-.1-.9-.5s.4-.5 1.2-.5c1.5 0 3.1.1 4.5.1 1.4.1 2.7.1 3.5.1 1.8 0 12.8 0 13.9-.1 1.1-.1 1.9-.2 2.4-.3.3-.1.6-.2.9-.2s.3.2.3.5c0 .4-.3 1.1-.4 3.6-.1.6-.2 3-.3 3.7-.1.3-.2.6-.6.6s-.5-.3-.5-.8c0-.4-.1-1.3-.3-2-.4-1-.9-1.7-3.7-2-.9-.1-6.8-.2-7.9-.2-.3 0-.4.2-.4.6v14.1c0 .4.1.6.4.6 1.2 0 7.6 0 8.9-.1 1.3-.1 2.2-.3 2.7-.8.4-.4.6-.7.9-.7.2 0 .4.1.4.4 0 .3-.2 1.2-.4 4.1-.1 1.1-.2 3.3-.2 3.7 0 .4 0 1.1-.5 1.1-.4 0-.5-.2-.5-.5-.1-.6-.1-1.3-.2-2-.3-1.1-1.1-1.9-3.1-2.2-1.1-.1-6.6-.2-7.9-.2-.3 0-.3.2-.3.6v4.4c0 1.9-.1 7 0 8.6.1 3.8 1 4.7 6.7 4.7 1.4 0 3.8 0 5.2-.7 1.4-.7 2.1-1.8 2.5-4.1.1-.6.2-.8.6-.8.4 0 .4.4.4 1 0 1.3-.4 5.1-.7 6.2-.4 1.4-.9 1.4-3 1.4-4.2 0-7.2-.1-9.6-.2-2.4-.1-4.1-.2-5.8-.2-.6 0-1.8 0-3.2.1-1.3 0-2.7.1-3.8.1-.7 0-1.1-.2-1.1-.6 0-.3.2-.4.9-.4.8 0 1.5-.1 2-.2 1.1-.2 1.4-1.4 1.6-3.1.3-2.3.3-6.7.3-11.8l-.2-9.9z"/><linearGradient id="SVGID_2_" gradientUnits="userSpaceOnUse" x1="71.89" y1="354.367" x2="364.305" y2="356.123"><stop offset="0" stop-color="#c2228e"/><stop offset=".648" stop-color="#f05b94"/></linearGradient><path d="M80.5 349.3c0-8.8 0-10.5-.1-12.3-.1-2-.6-2.9-2.5-3.3-.5-.1-1.5-.2-2.3-.2-.6 0-1-.1-1-.5s.4-.5 1.3-.5c3.1 0 6.7.2 7.9.2 2.8 0 5.1-.2 7.1-.2 10.5 0 12.4 5.6 12.4 8.7 0 4.8-2.7 7.6-5.9 10.2 4.8 1.6 10.6 5.7 10.6 12.5 0 6.2-4.8 12.7-15.5 12.7-.7 0-2.4-.1-4.1-.2-1.7-.1-3.5-.2-4.4-.2-.6 0-1.9 0-3.3.1-1.3 0-2.8.1-4 .1-.8 0-1.2-.2-1.2-.6 0-.3.2-.5.9-.5.9 0 1.6-.1 2.1-.2 1.2-.2 1.5-1.5 1.7-3.2.3-2.4.3-7 .3-12.4v-10.2zm6.9 1c0 .5.2.6.4.6.5.1 1.4.2 2.7.2 1.9 0 3.2-.2 4.2-1.1 1.5-1.2 2.4-3.3 2.4-6.2 0-3.9-2.3-9-7.3-9-.8 0-1.3 0-1.9.1-.4.1-.5.3-.5 1v14.4zm7.7 4.6c-1.2-.9-2.6-1.3-4.8-1.4-1-.1-1.6-.1-2.5-.1-.2 0-.3.1-.3.4v13.8c0 3.8.2 4.8 2 5.6 1.6.6 2.9.7 4.2.7 2.6 0 7-1.4 7-7.4 0-3.6-1.2-8.5-5.6-11.6z" fill="url(#SVGID_2_)"/><linearGradient id="SVGID_3_" gradientUnits="userSpaceOnUse" x1="71.892" y1="354.047" x2="364.306" y2="355.803"><stop offset="0" stop-color="#c2228e"/><stop offset=".648" stop-color="#f05b94"/></linearGradient><path d="M127.3 349.3c0-8.8 0-10.5-.1-12.3-.1-2-.7-3-2-3.3-.6-.2-1.4-.2-2.1-.2-.6 0-.9-.1-.9-.6 0-.3.5-.5 1.4-.5 2.2 0 5.9.2 7.6.2 1.5 0 4.9-.2 7.1-.2.8 0 1.2.1 1.2.5 0 .5-.3.6-.9.6-.6 0-1 .1-1.7.2-1.6.3-2 1.3-2.1 3.3-.1 1.9-.1 3.5-.1 12.3v10.2c0 5.6 0 10.2.2 12.7.2 1.6.6 2.6 2.3 2.8.8.1 2.1.2 3 .2.6 0 .9.2.9.5 0 .4-.5.6-1.1.6-3.8 0-7.5-.2-9.1-.2-1.3 0-5 .2-7.3.2-.8 0-1.2-.2-1.2-.6 0-.3.2-.5.9-.5.9 0 1.6-.1 2.1-.2 1.2-.2 1.5-1.2 1.7-2.9.3-2.4.3-7 .3-12.7l-.1-10.1z" fill="url(#SVGID_3_)"/><linearGradient id="SVGID_4_" gradientUnits="userSpaceOnUse" x1="71.893" y1="353.886" x2="364.307" y2="355.642"><stop offset="0" stop-color="#c2228e"/><stop offset=".648" stop-color="#f05b94"/></linearGradient><path d="M160.5 349.3c0-8.8 0-10.5-.1-12.3-.1-2-.6-2.9-2.5-3.3-.5-.1-1.5-.2-2.3-.2-.6 0-1-.1-1-.5s.4-.5 1.3-.5c3.1 0 6.7.2 7.9.2 2.8 0 5.1-.2 7.1-.2 10.5 0 12.4 5.6 12.4 8.7 0 4.8-2.7 7.6-5.9 10.2 4.8 1.6 10.6 5.7 10.6 12.5 0 6.2-4.8 12.7-15.5 12.7-.7 0-2.4-.1-4.1-.2-1.7-.1-3.5-.2-4.4-.2-.6 0-1.9 0-3.3.1-1.3 0-2.8.1-4 .1-.8 0-1.2-.2-1.2-.6 0-.3.2-.5.9-.5.9 0 1.6-.1 2.1-.2 1.2-.2 1.5-1.5 1.7-3.2.3-2.4.3-7 .3-12.4v-10.2zm7 1c0 .5.2.6.4.6.5.1 1.4.2 2.7.2 1.9 0 3.2-.2 4.2-1.1 1.5-1.2 2.4-3.3 2.4-6.2 0-3.9-2.3-9-7.3-9-.8 0-1.3 0-1.9.1-.4.1-.5.3-.5 1v14.4zm7.7 4.6c-1.2-.9-2.6-1.3-4.8-1.4-1-.1-1.6-.1-2.5-.1-.2 0-.3.1-.3.4v13.8c0 3.8.2 4.8 2 5.6 1.6.6 2.9.7 4.2.7 2.6 0 7-1.4 7-7.4 0-3.6-1.2-8.5-5.6-11.6z" fill="url(#SVGID_4_)"/><linearGradient id="SVGID_5_" gradientUnits="userSpaceOnUse" x1="71.895" y1="353.578" x2="364.309" y2="355.334"><stop offset="0" stop-color="#c2228e"/><stop offset=".648" stop-color="#f05b94"/></linearGradient><path d="M214.6 359.5c0 7.4 0 11.4 1.2 12.5 1 .9 2.5 1.3 7 1.3 3.1 0 5.3-.1 6.8-1.6.7-.8 1.4-2.4 1.5-3.5.1-.5.2-.9.6-.9.4 0 .5.3.5 1 0 .6-.4 5-.9 6.7-.3 1.3-.6 1.6-3.7 1.6-4.2 0-7.2-.1-9.8-.2-2.6-.1-4.7-.2-7.1-.2-.6 0-1.9 0-3.3.1-1.3 0-2.8.1-4 .1-.8 0-1.2-.2-1.2-.6 0-.3.2-.5.9-.5.9 0 1.6-.1 2.1-.2 1.2-.2 1.5-1.5 1.7-3.2.3-2.4.3-7 .3-12.4v-10.2c0-8.8 0-10.5-.1-12.3-.1-2-.6-2.9-2.5-3.3-.5-.1-1.2-.2-1.9-.2-.6 0-1-.1-1-.5s.4-.5 1.3-.5c2.7 0 6.4.2 8 .2 1.4 0 5.6-.2 7.9-.2.8 0 1.2.1 1.2.5s-.3.5-1 .5c-.6 0-1.6.1-2.3.2-1.6.3-2 1.3-2.1 3.3-.1 1.9-.1 3.5-.1 12.3v10.2z" fill="url(#SVGID_5_)"/><linearGradient id="SVGID_6_" gradientUnits="userSpaceOnUse" x1="71.897" y1="353.313" x2="364.311" y2="355.069"><stop offset="0" stop-color="#c2228e"/><stop offset=".648" stop-color="#f05b94"/></linearGradient><path d="M249.5 349.3c0-8.8 0-10.5-.1-12.3-.1-2-.7-3-2-3.3-.6-.2-1.4-.2-2.1-.2-.6 0-.9-.1-.9-.6 0-.3.5-.5 1.4-.5 2.2 0 5.9.2 7.6.2 1.5 0 4.9-.2 7.1-.2.8 0 1.2.1 1.2.5 0 .5-.3.6-.9.6s-1 .1-1.7.2c-1.6.3-2 1.3-2.1 3.3-.1 1.9-.1 3.5-.1 12.3v10.2c0 5.6 0 10.2.2 12.7.2 1.6.6 2.6 2.3 2.8.8.1 2.1.2 3 .2.6 0 .9.2.9.5 0 .4-.5.6-1.1.6-3.8 0-7.5-.2-9.1-.2-1.3 0-5 .2-7.3.2-.8 0-1.2-.2-1.2-.6 0-.3.2-.5.9-.5.9 0 1.6-.1 2.1-.2 1.2-.2 1.5-1.2 1.7-2.9.3-2.4.3-7 .3-12.7l-.1-10.1z" fill="url(#SVGID_6_)"/><linearGradient id="SVGID_7_" gradientUnits="userSpaceOnUse" x1="71.864" y1="358.769" x2="364.278" y2="360.526"><stop offset="0" stop-color="#c2228e"/><stop offset=".648" stop-color="#f05b94"/></linearGradient><path d="M308.5 375.7c-2.3.9-6 1.5-9.1 1.5-17 0-23.6-12.6-23.6-23.1 0-9.5 6.8-22.5 23.8-22.5 13.9 0 23.5 8.4 23.5 22 0 10.2-6.4 16.7-10.1 19.1l11.7 6c12.3 6.3 20 6.9 23.9 6.9 3 0 7.3-.5 11.3-2 .3-.1.6-.3.9-.3.3 0 .5.2.5.5s-.3.5-.7.7c-3.5 1.7-10 4.4-18.4 4.4-8.8 0-15-2.3-24.6-7.9l-9.1-5.3zm6.5-20.5c0-14.1-8.7-20.8-16.7-20.8-7.6 0-14.4 4.9-14.4 18.4 0 13.8 8.4 21.5 17.7 21.5 4.6 0 13.4-2.1 13.4-19.1z" fill="url(#SVGID_7_)"/><linearGradient id="SVGID_8_" gradientUnits="userSpaceOnUse" x1="71.898" y1="353.021" x2="364.313" y2="354.778"><stop offset="0" stop-color="#c2228e"/><stop offset=".648" stop-color="#f05b94"/></linearGradient><path d="M340.6 349.3c0-8.8 0-10.5-.1-12.3-.1-2-.6-2.9-2.5-3.3-.5-.1-1.5-.2-2.3-.2-.6 0-1-.1-1-.5s.4-.5 1.3-.5c3.1 0 6.7.2 8.5.2 1.4 0 5.1-.2 7.1-.2.9 0 1.3.1 1.3.5s-.3.5-.9.5c-.6 0-1 .1-1.7.2-1.6.3-2 1.3-2.1 3.3-.1 1.9-.1 3.5-.1 12.3v8.1c0 8.4 1.7 12 4.5 14.3 2.6 2.1 5.3 2.4 7.3 2.4 2.6 0 5.7-.8 8-3.1 3.2-3.2 3.4-8.4 3.4-14.4v-7.3c0-8.8 0-10.5-.1-12.3-.1-2-.6-2.9-2.5-3.3-.5-.1-1.5-.2-2.1-.2s-1-.1-1-.5.4-.5 1.2-.5c3 0 6.6.2 6.7.2.7 0 4.4-.2 6.6-.2.8 0 1.2.1 1.2.5s-.3.5-1 .5c-.6 0-1 .1-1.7.2-1.6.3-2 1.3-2.1 3.3-.1 1.9-.1 3.5-.1 12.3v6.2c0 6.4-.6 13.3-5.5 17.5-4.1 3.5-8.3 4.2-12.1 4.2-3.1 0-8.7-.2-12.9-4-3-2.7-5.2-7-5.2-15.4l-.1-8.5z" fill="url(#SVGID_8_)"/><linearGradient id="SVGID_9_" gradientUnits="userSpaceOnUse" x1="71.904" y1="352.163" x2="364.318" y2="353.919"><stop offset="0" stop-color="#c2228e"/><stop offset=".648" stop-color="#f05b94"/></linearGradient><path d="M399.5 349.3c0-8.8 0-10.5-.1-12.3-.1-2-.6-2.9-2.5-3.3-.5-.1-1.5-.2-2.3-.2-.6 0-1-.1-1-.5s.4-.5 1.3-.5c1.6 0 3.3.1 4.7.1 1.5.1 2.8.1 3.7.1 1.9 0 13.4 0 14.5-.1 1.1-.1 2-.2 2.5-.3.3-.1.6-.2.9-.2.3 0 .3.2.3.5 0 .4-.3 1.1-.5 3.8-.1.6-.2 3.1-.3 3.8-.1.3-.2.6-.6.6-.4 0-.5-.3-.5-.8 0-.4-.1-1.4-.3-2.1-.4-1-1-1.7-3.9-2.1-1-.1-7.1-.2-8.2-.2-.3 0-.4.2-.4.6v14.7c0 .4.1.6.4.6 1.3 0 8 0 9.3-.1 1.4-.1 2.3-.3 2.8-.9.4-.5.6-.8.9-.8.2 0 .4.1.4.5 0 .3-.2 1.3-.5 4.2-.1 1.2-.2 3.5-.2 3.9 0 .5 0 1.1-.5 1.1-.4 0-.5-.2-.5-.5-.1-.6-.1-1.3-.2-2.1-.3-1.2-1.1-2-3.3-2.3-1.1-.1-6.9-.2-8.2-.2-.3 0-.3.2-.3.6v4.6c0 2-.1 7.3 0 9 .1 4 1 4.9 7 4.9 1.5 0 3.9 0 5.5-.7 1.5-.7 2.2-1.9 2.6-4.3.1-.6.2-.9.6-.9.5 0 .5.5.5 1 0 1.3-.5 5.3-.8 6.4-.4 1.5-.9 1.5-3.1 1.5-4.4 0-7.5-.1-10-.2s-4.3-.2-6-.2c-.6 0-1.9 0-3.3.1-1.3 0-2.8.1-4 .1-.8 0-1.2-.2-1.2-.6 0-.3.2-.5.9-.5.9 0 1.6-.1 2.1-.2 1.2-.2 1.5-1.5 1.7-3.2.3-2.4.3-7 .3-12.4l-.2-10z" fill="url(#SVGID_9_)"/><path class="st2" d="M87.3 420.3c0 4.7 0 8.4.2 10.4.1 1.4.4 2.5 1.9 2.7.7.1 1.8.2 2.4.2.6 0 .8.1.8.4 0 .3-.3.5-1.1.5-3.1 0-6.2-.1-7.4-.1-1.3 0-4.4.1-6.2.1-.7 0-1-.1-1-.5 0-.2.2-.4.7-.4.7 0 1.3-.1 1.8-.2 1-.2 1.2-1.3 1.4-2.7.2-2.1.2-5.7.2-10.4v-8.6c0-7.4 0-8.8-.1-10.4-.1-1.7-.5-2.4-2.1-2.8-.4-.1-1.2-.1-1.9-.1-.5 0-.8-.1-.8-.4 0-.4.4-.5 1.1-.5h4c1.3 0 2.4.1 3.1.1h12.9c.9 0 1.5 0 2-.2.3-.1.5-.3.8-.3.2 0 .3.2.3.4 0 .3-.2.9-.4 2.2 0 .5-.1 3.4-.2 4 0 .4-.1.7-.5.7-.3 0-.4-.2-.5-.8 0-.4 0-1.2-.3-1.9s-1.4-1.4-3.2-1.5l-7.5-.1c-.3 0-.4.1-.4.7V413c0 .3 0 .4.3.4h8.5c.9 0 1.6-.2 2.1-.9.2-.3.3-.5.6-.5.2 0 .3.1.3.4 0 .3-.2 1.5-.4 3-.1 1-.2 3.2-.2 3.6 0 .4 0 .9-.5.9-.3 0-.4-.3-.4-.7 0-.3-.1-.9-.3-1.5-.2-.7-1-1.6-2.5-1.8-1.2-.1-6.4-.1-7.2-.1-.2 0-.3.1-.3.4v4.1zM117.5 411.7c0-7.4 0-8.8-.1-10.4-.1-1.7-.5-2.4-2.1-2.8-.4-.1-1.2-.1-1.9-.1-.5 0-.8-.1-.8-.4 0-.3.3-.4 1.1-.4 2.6 0 5.7.1 6.7.1 1.7 0 5.4-.1 6.9-.1 3.1 0 6.4.3 9 2.1 1.4.9 3.3 3.4 3.3 6.7 0 3.6-1.5 6.9-6.5 11 4.4 5.5 7.7 9.8 10.6 12.9 2.7 2.8 4.7 3.2 5.5 3.3.5.1 1 .1 1.4.1.4 0 .6.1.6.4 0 .4-.3.5-.9.5h-4.6c-2.7 0-4-.2-5.2-.9-2.1-1.1-4-3.4-6.7-7.2-2-2.7-4.2-6-4.8-6.8-.2-.3-.5-.3-.9-.3l-4.3-.1c-.2 0-.4.1-.4.4v.7c0 4.6 0 8.4.2 10.5.1 1.4.4 2.5 1.9 2.7.7.1 1.8.2 2.4.2.4 0 .6.1.6.4 0 .3-.3.5-1 .5-2.8 0-6.5-.1-7.2-.1-.9 0-4 .1-6 .1-.6 0-1-.1-1-.5 0-.2.2-.4.8-.4.7 0 1.3-.1 1.8-.2 1-.2 1.2-1.3 1.4-2.7.2-2.1.2-5.9.2-10.4v-8.8zm5.7 3.9c0 .5.1.7.4.9 1 .3 2.5.5 3.7.5 2 0 2.6-.2 3.5-.8 1.5-1.1 2.9-3.3 2.9-7.3 0-6.9-4.6-9-7.5-9-1.2 0-2.1 0-2.6.2-.3.1-.4.3-.4.7v14.8z"/><path class="st2" d="M162.2 422c-.2 0-.3.1-.4.4l-2.6 6.7c-.5 1.2-.7 2.4-.7 3 0 .9.4 1.5 2 1.5h.7c.6 0 .7.1.7.4 0 .4-.3.5-.8.5-1.6 0-3.7-.1-5.2-.1-.5 0-3.2.1-5.8.1-.6 0-.9-.1-.9-.5 0-.3.2-.4.6-.4.4 0 1.1 0 1.5-.1 2.3-.3 3.2-2 4.2-4.4l12.3-30.3c.6-1.4.9-2 1.4-2 .4 0 .7.4 1.2 1.6 1.2 2.7 9 22.3 12.1 29.7 1.9 4.4 3.3 5.1 4.3 5.3.7.1 1.5.2 2.1.2.4 0 .6 0 .6.4s-.4.5-2.3.5c-1.8 0-5.3 0-9.2-.1-.9 0-1.5 0-1.5-.4 0-.3.2-.4.7-.4.3-.1.7-.5.4-1.1l-3.9-10.1c-.1-.2-.2-.3-.5-.3l-11-.1zm10-2.4c.2 0 .3-.1.2-.3l-4.4-12c0-.2-.1-.4-.2-.4s-.2.2-.3.4l-4.5 12c0 .2 0 .3.2.3h9zM203.1 427.9c.1 3.8.7 5.1 1.7 5.4.8.3 1.8.3 2.5.3.5 0 .8.1.8.4 0 .4-.4.5-1.1.5-3.2 0-5.1-.1-6.1-.1-.4 0-2.7.1-5.3.1-.6 0-1.1 0-1.1-.5 0-.3.3-.4.8-.4.6 0 1.5 0 2.2-.2 1.3-.4 1.5-1.8 1.5-6.1l.4-28.8c0-1 .1-1.7.6-1.7s1 .6 1.8 1.5c.6.6 8 8.5 15.2 15.6 3.3 3.3 9.9 10.4 10.8 11.2h.2l-.5-22c0-3-.5-3.9-1.7-4.4-.7-.3-1.9-.3-2.6-.3-.6 0-.8-.1-.8-.4 0-.4.5-.4 1.3-.4 2.5 0 4.9.1 5.9.1.5 0 2.4-.1 4.8-.1.6 0 1.1 0 1.1.4 0 .3-.3.4-.9.4-.5 0-.9 0-1.5.1-1.4.4-1.8 1.4-1.8 4.2l-.5 30.9c0 1.1-.2 1.5-.6 1.5-.5 0-1.1-.5-1.7-1.1-3.1-2.9-9.3-9.3-14.4-14.4-5.3-5.3-10.8-11.3-11.6-12.2h-.1l.7 20.5zM263.5 437.7c3.6.3 5.8 1.7 5.8 3.9 0 2-2 5.2-9 5.2-.4 0-.8-.1-.8-.5s.6-.6 1.3-.6c1.6 0 4.1-1.2 4.1-3.3 0-1.3-.6-3.1-3.9-3.6-.7-.1-1.1-.2-1.1-.4 0-.1.1-.2.8-.7l3.9-2.9c-9.1-1.2-17.8-6.9-17.8-19.4 0-3.3 1-9.1 5.7-13.4 3.5-3.2 8.2-5.2 15.5-5.2 3 0 4.8.2 7.1.5 1.9.2 3.4.7 4.9.8.5 0 .7.3.7.6 0 .4-.1 1-.2 2.7-.1 1.6 0 4.3-.1 5.3 0 .7-.1 1.1-.6 1.1-.4 0-.5-.4-.5-1.1 0-1.5-.7-3.2-1.9-4.5-1.6-1.7-5.4-3-9.9-3-4.3 0-7 1.1-9.2 3-3.6 3.3-4.5 7.9-4.5 12.7 0 11.6 8.9 17.4 15.4 17.4 4.4 0 7-.5 9-2.7.8-.9 1.5-2.3 1.7-3.2.1-.8.2-1 .6-1 .3 0 .4.3.4.7 0 .6-.6 4.8-1.1 6.5-.2.8-.4 1.1-1.3 1.4-2 .8-5.7 1.1-8.8 1.1-.9 0-1.8 0-2.6-.1l-3.6 2.7zM300.5 422c-.2 0-.3.1-.4.4l-2.6 6.7c-.5 1.2-.7 2.4-.7 3 0 .9.4 1.5 2 1.5h.7c.6 0 .7.1.7.4 0 .4-.3.5-.8.5-1.6 0-3.7-.1-5.2-.1-.5 0-3.2.1-5.8.1-.6 0-.9-.1-.9-.5 0-.3.2-.4.6-.4.4 0 1.1 0 1.5-.1 2.3-.3 3.2-2 4.2-4.4l12.3-30.3c.6-1.4.9-2 1.4-2 .4 0 .7.4 1.2 1.6 1.2 2.7 9 22.3 12.1 29.7 1.9 4.4 3.3 5.1 4.3 5.3.7.1 1.5.2 2.1.2.4 0 .6 0 .6.4s-.4.5-2.3.5c-1.8 0-5.3 0-9.2-.1-.9 0-1.5 0-1.5-.4 0-.3.2-.4.7-.4.3-.1.7-.5.4-1.1l-3.9-10.1c-.1-.2-.2-.3-.5-.3l-11-.1zm10-2.4c.2 0 .3-.1.2-.3l-4.4-12c0-.2-.1-.4-.2-.4s-.2.2-.3.4l-4.5 12c0 .2 0 .3.2.3h9zM338.7 411.7c0-7.4 0-8.8-.1-10.4-.1-1.7-.6-2.5-1.7-2.7-.5-.1-1.2-.2-1.8-.2-.5 0-.8-.1-.8-.5 0-.3.4-.4 1.2-.4 1.9 0 4.9.1 6.4.1 1.2 0 4.1-.1 6-.1.6 0 1 .1 1 .4 0 .4-.3.5-.8.5s-.9 0-1.5.1c-1.3.2-1.7 1.1-1.8 2.8-.1 1.6-.1 2.9-.1 10.4v8.6c0 4.7 0 8.6.2 10.7.1 1.3.5 2.2 2 2.4.7.1 1.8.2 2.5.2.5 0 .8.1.8.4 0 .3-.4.5-.9.5-3.2 0-6.3-.1-7.6-.1-1.1 0-4.2.1-6.2.1-.6 0-1-.1-1-.5 0-.2.2-.4.8-.4.7 0 1.3-.1 1.8-.2 1-.2 1.3-1 1.4-2.4.2-2.1.2-5.9.2-10.7v-8.6zM364 433.9c-.8-.3-.9-.6-.9-1.7 0-2.7.2-5.6.2-6.4 0-.7.2-1.3.6-1.3.4 0 .5.4.5.8 0 .6.2 1.7.4 2.5 1.1 3.6 4 4.9 7 4.9 4.4 0 6.6-3 6.6-5.6 0-2.4-.7-4.6-4.8-7.8l-2.3-1.8c-5.4-4.2-7.2-7.6-7.2-11.6 0-5.4 4.5-9.2 11.3-9.2 3.2 0 5.2.5 6.5.8.4.1.7.2.7.6 0 .6-.2 2.1-.2 5.9 0 1.1-.1 1.5-.5 1.5-.3 0-.5-.3-.5-.9 0-.4-.2-2-1.3-3.2-.7-.9-2.2-2.4-5.3-2.4-3.6 0-5.8 2.1-5.8 5 0 2.3 1.1 4 5.2 7l1.4 1c5.9 4.5 8 7.8 8 12.5 0 2.8-1.1 6.2-4.6 8.5-2.4 1.6-5.2 2-7.8 2-2.9.2-5.1-.1-7.2-1.1zM401 411.7c0-7.4 0-8.8-.1-10.4-.1-1.7-.5-2.4-2.1-2.8-.4-.1-1.2-.1-1.9-.1-.5 0-.8-.1-.8-.4 0-.3.3-.4 1.1-.4h4c1.3 0 2.4.1 3.1.1h12.2c.9-.1 1.7-.2 2.1-.3.2 0 .5-.2.8-.2.2 0 .3.2.3.4 0 .3-.2.9-.4 3.2 0 .5-.1 2.6-.2 3.2 0 .2-.1.5-.5.5s-.4-.2-.4-.7c0-.3 0-1.2-.3-1.8-.3-.9-.8-1.5-3.3-1.8-.8-.1-6-.2-6.9-.2-.2 0-.3.1-.3.5V413c0 .3 0 .5.3.5 1.1 0 6.7 0 7.8-.1 1.2-.1 1.9-.2 2.3-.7.3-.4.5-.6.8-.6.2 0 .3.1.3.4s-.2 1.1-.4 3.6c0 1-.2 2.9-.2 3.3 0 .4 0 .9-.4.9-.3 0-.4-.2-.4-.4 0-.5 0-1.1-.2-1.8-.2-1-.9-1.7-2.7-1.9-.9-.1-5.8-.1-6.9-.1-.2 0-.3.2-.3.5v11.5c.1 3.4.9 4.1 5.9 4.1 1.3 0 3.3 0 4.6-.6 1.3-.6 1.9-1.6 2.2-3.6.1-.5.2-.7.5-.7.4 0 .4.4.4.9 0 1.1-.4 4.5-.6 5.4-.3 1.3-.8 1.3-2.6 1.3-3.7 0-6.4-.1-8.5-.1-2.1-.1-3.6-.1-5.1-.1h-2.8c-1.1 0-2.4.1-3.4.1-.6 0-1-.1-1-.5 0-.2.2-.4.8-.4.7 0 1.3-.1 1.8-.2 1-.2 1.2-1.3 1.4-2.7.2-2.1.2-5.9.2-10.4l-.2-8.9z"/></svg>
