<svg xmlns="http://www.w3.org/2000/svg" viewBox="0 0 1200 600"><g><path d="M191.6 373.1c-8.7 3.1-25.9 8.3-46.3 8.3-22.8 0-41.6-5.8-56.3-19.9-13-12.5-21-32.6-21-56.1.2-44.9 31.1-77.8 81.6-77.8 17.4 0 31.1 3.8 37.5 6.9l-4.7 15.9c-8-3.6-18.1-6.5-33.3-6.5-36.6 0-60.6 22.8-60.6 60.6 0 38.2 23 60.8 58.1 60.8 12.7 0 21.5-1.8 25.9-4v-44.9l.2-15.4v-.2h18.8v72.3zM760.5 209.6c-3.3 1.2-9.8 3.1-17.6 3.1-8.7 0-15.8-2.2-21.4-7.6-4.9-4.8-8-12.4-8-21.3.1-17.1 11.8-29.5 31-29.5 6.6 0 11.8 1.4 14.3 2.6l-1.8 6c-3.1-1.4-6.9-2.5-12.6-2.5-13.9 0-23 8.7-23 23 0 14.5 8.7 23.1 22.1 23.1 4.8 0 8.1-.7 9.8-1.5v-17.1l.1-5.9v-.1h7.1v27.7zM1146 322.5c-3.3 1.2-9.8 3.1-17.6 3.1-8.7 0-15.8-2.2-21.4-7.6-4.9-4.8-8-12.4-8-21.3.1-17.1 11.8-29.5 31-29.5 6.6 0 11.8 1.4 14.3 2.6l-1.8 6c-3.1-1.4-6.9-2.5-12.6-2.5-13.9 0-23 8.7-23 23 0 14.5 8.7 23.1 22.1 23.1 4.8 0 8.1-.7 9.8-1.5v-17.1l.1-5.9v.1h7.1v27.5z"/><path fill="#010002" d="M214.9 185.6c-2.4-3.3-7.2-3.3-9.5-.1v.1c-2.6 3.6-5.2 7-7.9 10.5-1.6 2-1.7 4.8-.2 6.9 19.7 28.6 30.1 61.9 30.1 96.1 0 39.3-13.1 76.4-37.8 107.3-1.7 2.1-1.7 5-.1 7.1l2.2 2.9c.1.1.2.3.4.4 1.1 1.3 2.4 2.5 3.6 3.8.9.9 1.8 1.8 2.7 2.8 2.4 2.6 6.5 2.4 8.8-.3 29.2-35.6 44.7-78.5 44.7-124-.2-40.6-12.9-79.9-37-113.5zM369 123.5c-2.5-2.9-7-2.6-9.2.4-2.5 3.5-5 7.1-7.5 10.9-1.5 2.2-1.3 5.1.4 7.1 39.7 45.6 61.6 103.8 61.6 163.9 0 59.2-21.5 116.9-60.5 162.4l-.1.1c-2.1 2.4-1.8 6 .5 8.2l.1.1 6.3 5.4 3.4 2.9c2.4 2.1 6.1 1.8 8.2-.6 42.8-49.9 66.3-113.2 66.3-178.3.2-67.3-24.5-132.1-69.5-182.5zM528.1 55.9c-2.2-2.3-5.8-2.5-8.2-.5l-6.3 5.7-3.2 2.9c-2.4 2.2-2.6 5.9-.3 8.4 56.7 61.1 87.9 140.4 87.9 223.4 0 77.8-27.8 153.4-78.4 212.8-2.1 2.5-1.8 6.3.8 8.4 2.6 2.1 5.1 4.3 7.7 6.5l1.8 1.5c2.5 2.1 6.2 1.8 8.3-.6 54.3-63.8 84.2-145 84.2-228.6 0-89.2-33.4-174.4-94.3-239.9z"/><path fill="none" d="M464.8 248.4h232.4v191.4H464.8z"/><path d="M475.4 347.6v-94.1h13.3l30.2 47.6c7 11 12.4 20.9 16.9 30.6l.3-.1c-1.1-12.6-1.4-24-1.4-38.7v-39.4h11.5v94.1h-12.3L504 299.8c-6.6-10.5-12.8-21.2-17.6-31.4l-.4.1c.7 11.9 1 23.2 1 38.8v40.2h-11.6zM372 355l-13.4 1.2-17.7-29c-2-3.3-3.9-6.2-5.7-8.5-1.8-2.4-3.7-4.3-5.7-5.8-1.9-1.5-4-2.6-6.3-3.3-2.2-.7-4.8-1-7.6-1h-12.3v54.5h-15V235h38.2c5.6 0 10.8.7 15.5 2.1 4.7 1.4 8.8 3.5 12.3 6.4 3.5 2.9 6.2 6.4 8.2 10.7 2 4.3 2.9 9.2 2.9 15 0 4.5-.7 8.6-2 12.3-1.3 3.7-3.2 7-5.7 10-2.5 2.9-5.5 5.4-8.9 7.5-3.5 2.1-7.4 3.6-11.7 4.8l-1.7 1.3c2.1 1-7.7 0-6.1 1.2 1.6 1.2 10.8 6.9 12.2 8.5 1.4 1.7 1 4 2.4 6.1 1.4 2.1 4.4 3.3 6.1 6.1l22 28zm-68.6-106.4v46.5h20.4c3.8 0 7.2-.6 10.4-1.7s5.9-2.8 8.3-4.9c2.3-2.1 4.1-4.7 5.5-7.8 1.3-3.1 2-6.5 2-10.3 0-6.8-2.2-12.2-6.7-16-4.4-3.8-10.9-5.8-19.3-5.8h-20.6zM336.8 304.1l-16 5"/><path d="M376.9 356.2l-20.7 4.9-40.3-58.6h19.5zM289.1 237.9h19.5v125.7h-19.5zM803.2 212.7H774v-56.3h6.6v50.4h22.6v5.9zM834.5 213.6c-8 0-14.4-2.6-19.2-7.9-4.8-5.3-7.2-12.1-7.2-20.5 0-9.1 2.4-16.3 7.3-21.7 4.9-5.4 11.6-8.1 20-8.1 7.8 0 14 2.6 18.8 7.9 4.8 5.2 7.1 12.1 7.1 20.5 0 9.2-2.4 16.5-7.3 21.8-4.8 5.4-11.3 8-19.5 8zm.5-52.2c-5.9 0-10.7 2.1-14.4 6.4-3.7 4.3-5.5 9.9-5.5 16.8s1.8 12.5 5.4 16.8c3.6 4.2 8.3 6.3 14.1 6.3 6.2 0 11.1-2 14.6-6 3.6-4 5.3-9.7 5.3-16.9 0-7.4-1.7-13.2-5.2-17.2-3.5-4.2-8.2-6.2-14.3-6.2zM872.5 212.7v-56.3h16c4.9 0 8.7 1.2 11.6 3.6 2.9 2.4 4.3 5.5 4.3 9.3 0 3.2-.9 6-2.6 8.3-1.7 2.4-4.1 4-7.1 5v.2c3.8.4 6.8 1.9 9.1 4.3s3.4 5.6 3.4 9.4c0 4.8-1.7 8.7-5.2 11.7s-7.8 4.5-13.1 4.5h-16.4zm6.5-50.4v18.2h6.8c3.6 0 6.5-.9 8.5-2.6 2.1-1.7 3.1-4.2 3.1-7.4 0-5.5-3.6-8.2-10.8-8.2H879zm0 24.2v20.3h9c3.9 0 6.9-.9 9-2.7 2.1-1.8 3.2-4.3 3.2-7.5 0-6.7-4.5-10-13.6-10H879zM962.2 212.7h-7.3l-6-15.8H925l-5.6 15.8H912l21.6-56.3h6.8l21.8 56.3zM946.7 191l-8.8-24c-.3-.8-.6-2-.9-3.8h-.2c-.3 1.6-.6 2.9-.9 3.8l-8.8 24h19.6zM999.7 212.7h-29.2v-56.3h6.6v50.4h22.6v5.9z"/><g><path d="M759.1 324.4h-7.9l-9.4-15.8c-.9-1.5-1.7-2.7-2.5-3.8-.8-1-1.6-1.9-2.5-2.5-.9-.7-1.8-1.1-2.7-1.4-1-.3-2.1-.5-3.3-.5h-5.4v24h-6.6v-56.3h16.8c2.5 0 4.7.3 6.8.9 2.1.6 3.9 1.6 5.4 2.8s2.7 2.8 3.6 4.7c.9 1.9 1.3 4.1 1.3 6.6 0 2-.3 3.8-.9 5.4-.6 1.6-1.4 3.1-2.5 4.4-1.1 1.3-2.4 2.4-3.9 3.3s-3.3 1.6-5.2 2.1v.2c.9.4 1.8.9 2.5 1.4.7.5 1.4 1.2 2 1.9.6.7 1.3 1.6 1.9 2.5.6.9 1.3 2 2.1 3.2l10.4 16.9zm-33.8-50.3v20.4h9c1.6 0 3.2-.2 4.6-.7 1.4-.5 2.6-1.2 3.6-2.1 1-.9 1.8-2.1 2.4-3.4.6-1.3.9-2.9.9-4.5 0-3-1-5.4-2.9-7.1-2-1.7-4.8-2.5-8.5-2.5h-9.1zM796.7 324.4h-29.9v-56.3h28.6v6h-22v18.7h20.3v5.9h-20.3v19.7h23.3v6zM845.9 322.1c-4.2 2.2-9.3 3.3-15.6 3.3-8 0-14.4-2.6-19.2-7.7-4.8-5.2-7.2-11.9-7.2-20.3 0-9 2.7-16.3 8.1-21.8 5.4-5.6 12.3-8.3 20.6-8.3 5.3 0 9.8.8 13.3 2.3v7c-4-2.3-8.5-3.4-13.4-3.4-6.5 0-11.7 2.2-15.7 6.5s-6 10.1-6 17.3c0 6.9 1.9 12.3 5.6 16.4 3.8 4.1 8.7 6.1 14.8 6.1 5.7 0 10.6-1.3 14.7-3.8v6.4zM880.1 325.4c-8 0-14.4-2.6-19.2-7.9-4.8-5.3-7.2-12.1-7.2-20.5 0-9.1 2.4-16.3 7.3-21.7 4.9-5.4 11.6-8.1 20-8.1 7.8 0 14 2.6 18.8 7.9 4.8 5.2 7.1 12.1 7.1 20.5 0 9.2-2.4 16.5-7.3 21.8-4.8 5.3-11.4 8-19.5 8zm.4-52.3c-5.9 0-10.7 2.1-14.4 6.4-3.7 4.3-5.5 9.9-5.5 16.8s1.8 12.5 5.4 16.8c3.6 4.2 8.3 6.3 14.1 6.3 6.2 0 11.1-2 14.6-6 3.6-4 5.3-9.7 5.3-16.9 0-7.4-1.7-13.2-5.2-17.2-3.4-4.1-8.2-6.2-14.3-6.2zM958.4 324.4h-7.9l-9.4-15.8c-.9-1.5-1.7-2.7-2.5-3.8-.8-1-1.6-1.9-2.5-2.5-.9-.7-1.8-1.1-2.7-1.4-1-.3-2.1-.5-3.3-.5h-5.4v24H918v-56.3h16.8c2.5 0 4.7.3 6.8.9 2.1.6 3.9 1.6 5.4 2.8s2.7 2.8 3.6 4.7c.9 1.9 1.3 4.1 1.3 6.6 0 2-.3 3.8-.9 5.4-.6 1.6-1.4 3.1-2.5 4.4-1.1 1.3-2.4 2.4-3.9 3.3s-3.3 1.6-5.2 2.1v.2c.9.4 1.8.9 2.5 1.4.7.5 1.4 1.2 2 1.9.6.7 1.3 1.6 1.9 2.5.6.9 1.3 2 2.1 3.2l10.5 16.9zm-33.8-50.3v20.4h9c1.6 0 3.2-.2 4.6-.7 1.4-.5 2.6-1.2 3.6-2.1 1-.9 1.8-2.1 2.4-3.4.6-1.3.9-2.9.9-4.5 0-3-1-5.4-2.9-7.1-2-1.7-4.8-2.5-8.5-2.5h-9.1zM966.1 324.4v-56.3h15.6c19.9 0 29.8 9.2 29.8 27.5 0 8.7-2.8 15.7-8.3 21-5.5 5.3-12.9 7.9-22.1 7.9h-15zm6.6-50.3v44.4h8.4c7.4 0 13.1-2 17.2-5.9 4.1-4 6.2-9.6 6.2-16.8 0-14.4-7.7-21.6-23-21.6h-8.8zM1034.6 268.1v5.7h-5.5v45h5.5v5.7H1017v-5.7h5.5v-45h-5.5v-5.7h17.6zM1089.4 324.4h-8.1l-29-44.9c-.7-1.1-1.3-2.3-1.8-3.5h-.2c.2 1.2.3 3.8.3 7.7v40.7h-6.6v-56.3h8.6l28.2 44.2c1.2 1.8 1.9 3.1 2.3 3.8h.2c-.3-1.6-.4-4.4-.4-8.3v-39.7h6.6v56.3z"/></g><g><path d="M764.2 433.9h-8.1l-29-44.9c-.7-1.1-1.3-2.3-1.8-3.5h-.3c.2 1.2.3 3.8.3 7.7v40.7h-6.6v-56.3h8.6l28.2 44.2c1.2 1.8 1.9 3.1 2.3 3.8h.2c-.3-1.6-.4-4.4-.4-8.3v-39.7h6.6v56.3zM808.8 433.9h-29.9v-56.3h28.6v6h-22v18.7h20.3v5.9h-20.3V428h23.3v5.9zM852.9 383.6h-16.3V434H830v-50.4h-16.2v-6h39.1v6zM928.5 377.6l-15.9 56.3h-7.7l-11.6-41.2c-.5-1.8-.8-3.7-.9-5.7h-.2c-.2 1.9-.5 3.8-1 5.7l-11.7 41.2h-7.7l-16.5-56.3h7.3l12 43.2c.5 1.8.8 3.7.9 5.7h.2c.1-1.4.5-3.3 1.2-5.7l12.5-43.2h6.3l11.9 43.5c.4 1.5.7 3.2.9 5.3h.2c.1-1.4.5-3.2 1.1-5.4l11.5-43.4h7.2zM959.6 434.9c-8 0-14.4-2.6-19.2-7.9-4.8-5.3-7.2-12.1-7.2-20.5 0-9.1 2.4-16.3 7.3-21.7 4.9-5.4 11.6-8.1 20-8.1 7.8 0 14 2.6 18.8 7.9 4.8 5.2 7.1 12.1 7.1 20.5 0 9.2-2.4 16.5-7.3 21.8-4.8 5.3-11.3 8-19.5 8zm.5-52.3c-5.9 0-10.7 2.1-14.4 6.4-3.7 4.3-5.5 9.9-5.5 16.8s1.8 12.5 5.4 16.8 8.3 6.3 14.1 6.3c6.2 0 11.1-2 14.6-6 3.6-4 5.3-9.7 5.3-16.9 0-7.4-1.7-13.2-5.2-17.2s-8.2-6.2-14.3-6.2zM1037.9 433.9h-7.9l-9.4-15.8c-.9-1.5-1.7-2.7-2.5-3.8-.8-1-1.6-1.9-2.5-2.5-.9-.7-1.8-1.1-2.7-1.4-1-.3-2.1-.5-3.3-.5h-5.4v24h-6.6v-56.3h16.8c2.5 0 4.7.3 6.8.9 2.1.6 3.9 1.6 5.4 2.8 1.5 1.3 2.7 2.8 3.6 4.7.9 1.9 1.3 4.1 1.3 6.6 0 2-.3 3.8-.9 5.4-.6 1.6-1.4 3.1-2.5 4.4-1.1 1.3-2.4 2.4-3.9 3.3-1.5.9-3.3 1.6-5.2 2.1v.2c.9.4 1.8.9 2.5 1.4s1.4 1.2 2 1.9c.6.7 1.3 1.6 1.9 2.5s1.3 2 2.1 3.2l10.4 16.9zm-33.7-50.3V404h9c1.6 0 3.2-.2 4.6-.7 1.4-.5 2.6-1.2 3.6-2.1 1-.9 1.8-2.1 2.4-3.4.6-1.3.9-2.9.9-4.5 0-3-1-5.4-2.9-7.1s-4.8-2.5-8.5-2.5h-9.1zM1084.9 433.9h-9.2l-21.8-25.8c-.8-1-1.3-1.6-1.5-2h-.2v27.7h-6.6v-56.3h6.6V404h.2c.4-.6.9-1.2 1.5-1.9l21.1-24.6h8.2l-24.2 27 25.9 29.4z"/></g></g></svg>
