<svg xmlns="http://www.w3.org/2000/svg" viewBox="0 0 600 600"><g id="Layer_4"><path d="M142.4 373.1c-8.7 3.1-25.9 8.3-46.3 8.3-22.8 0-41.6-5.8-56.3-19.9-13-12.5-21-32.6-21-56.1.2-44.9 31.1-77.8 81.6-77.8 17.4 0 31.1 3.8 37.5 6.9l-4.7 15.9c-8-3.6-18.1-6.5-33.3-6.5-36.6 0-60.6 22.8-60.6 60.6 0 38.2 23 60.8 58.1 60.8 12.7 0 21.5-1.8 25.9-4v-44.9l.2-15.4v-.2h18.8v72.3h.1z"/><path fill="#010002" d="M165.7 185.6c-2.4-3.3-7.2-3.3-9.5-.1v.1c-2.6 3.6-5.2 7-7.9 10.5-1.6 2-1.7 4.8-.2 6.9 19.7 28.6 30.1 61.9 30.1 96.1 0 39.3-13.1 76.4-37.8 107.3-1.7 2.1-1.7 5-.1 7.1l2.2 2.9c.1.1.2.3.4.4 1.1 1.3 2.4 2.5 3.6 3.8.9.9 1.8 1.8 2.7 2.8 2.4 2.6 6.5 2.4 8.8-.3 29.2-35.6 44.7-78.5 44.7-124-.2-40.6-12.9-79.9-37-113.5zM319.8 123.5c-2.5-2.9-7-2.6-9.2.4-2.5 3.5-5 7.1-7.5 10.9-1.5 2.2-1.3 5.1.4 7.1 39.7 45.6 61.6 103.8 61.6 163.9 0 59.2-21.5 116.9-60.5 162.4l-.1.1c-2.1 2.4-1.8 6 .5 8.2l.1.1 6.3 5.4 3.4 2.9c2.4 2.1 6.1 1.8 8.2-.6 42.8-49.9 66.3-113.2 66.3-178.3.2-67.3-24.5-132.1-69.5-182.5zM478.9 55.9c-2.2-2.3-5.8-2.5-8.2-.5l-6.3 5.7-3.2 2.9c-2.4 2.2-2.6 5.9-.3 8.4 56.7 61.1 87.9 140.4 87.9 223.4 0 77.8-27.8 153.4-78.4 212.8-2.1 2.5-1.8 6.3.8 8.4 2.6 2.1 5.1 4.3 7.7 6.5l1.8 1.5c2.5 2.1 6.2 1.8 8.3-.6 54.3-63.8 84.2-145 84.2-228.6 0-89.2-33.4-174.4-94.3-239.9z"/><g><path fill="none" d="M415.6 248.4H648v191.4H415.6z"/><path d="M426.2 347.6v-94.1h13.3l30.2 47.6c7 11 12.4 20.9 16.9 30.6l.3-.1c-1.1-12.6-1.4-24-1.4-38.7v-39.4H497v94.1h-12.3l-29.9-47.8c-6.6-10.5-12.8-21.2-17.6-31.4l-.4.1c.7 11.9 1 23.2 1 38.8v40.2l-11.6.1z"/></g><g><path d="M322.8 355l-13.4 1.2-17.7-29c-2-3.3-3.9-6.2-5.7-8.5-1.8-2.4-3.7-4.3-5.7-5.8-1.9-1.5-4-2.6-6.3-3.3-2.2-.7-4.8-1-7.6-1h-12.3v54.5h-15V235h38.2c5.6 0 10.8.7 15.5 2.1 4.7 1.4 8.8 3.5 12.3 6.4s6.2 6.4 8.2 10.7 2.9 9.2 2.9 15c0 4.5-.7 8.6-2 12.3-1.3 3.7-3.2 7-5.7 10-2.5 2.9-5.5 5.4-8.9 7.5-3.5 2.1-7.4 3.6-11.7 4.8l-1.7 1.3c2.1 1-7.7 0-6.1 1.2s10.8 6.9 12.2 8.5c1.4 1.7 1 4 2.4 6.1s4.4 3.3 6.1 6.1l22 28zm-68.6-106.4v46.5h20.4c3.8 0 7.2-.6 10.4-1.7s5.9-2.8 8.3-4.9c2.3-2.1 4.1-4.7 5.5-7.8 1.3-3.1 2-6.5 2-10.3 0-6.8-2.2-12.2-6.7-16-4.4-3.8-10.9-5.8-19.3-5.8h-20.6z"/><path class="st1" d="M287.6 304.1l-16 5"/><path d="M327.7 356.2l-20.7 4.9-40.3-58.6h19.5zM239.9 237.9h19.5v125.7h-19.5z"/></g></g></svg>
