<svg xmlns="http://www.w3.org/2000/svg" viewBox="0 0 1000 500"><g id="Layer_1"><path fill="#203154" d="M319.5 143.1l-22.7 21.5c-16.4-16.1-34.3-28.3-53.8-36.6s-38.5-12.5-57-12.5c-23 0-44.9 5.7-65.7 17-20.8 11.3-36.9 26.6-48.4 46-11.4 19.4-17.2 39.8-17.2 61.4 0 22.1 5.9 43.1 17.8 63 11.8 19.9 28.2 35.5 49.1 46.9 20.9 11.4 43.8 17.1 68.6 17.1 30.2 0 55.7-8.5 76.6-25.5 20.9-17 33.3-39.1 37.1-66.2h-93.6v-28.3h126.5c-.3 45.4-13.7 81.4-40.4 108-26.7 26.7-62.4 40-107 40-54.3 0-97.2-18.5-128.9-55.5C36.2 310.8 24 277.9 24 240.5c0-27.8 7-53.7 21-77.6s33.1-42.7 57.5-56.2c24.3-13.5 51.9-20.3 82.6-20.3 24.9 0 48.3 4.5 70.2 13.5s43.3 23.4 64.2 43.2zM392.9 387.3V93.8h6.4l195.3 225v-225h28.9v293.5H617L423.3 165.1v222.3h-30.4zM694.8 93.8h58.5c33.5 0 56.1 1.5 67.8 4.4 16.8 4.1 30.5 12.6 41.1 25.4 10.6 12.8 16 29 16 48.4 0 19.6-5.2 35.7-15.6 48.4-10.4 12.7-24.7 21.3-42.9 25.6-13.3 3.2-38.2 4.8-74.6 4.8h-21v136.5h-29.3V93.8zm29.4 28.7v99.6l49.7.6c20.1 0 34.8-1.8 44.1-5.5 9.3-3.7 16.6-9.6 21.9-17.7 5.3-8.2 8-17.3 8-27.4 0-9.8-2.7-18.8-8-27s-12.3-14-21.1-17.4c-8.7-3.5-23-5.2-42.8-5.2h-51.8zM932.7 93.8H962v293.5h-29.3V93.8z"/></g><g id="Layer_3"><path fill="#7dc6e7" d="M406.3 454.3l44.9-44.9h-89.9zM609.3 36.2l-45 44.9h89.9z"/></g></svg>
