<svg id="Layer_1" xmlns="http://www.w3.org/2000/svg" viewBox="0 0 500 500"><path fill="#203154" d="M159.3 189.5l-11.9 11.3c-8.6-8.5-18-14.9-28.3-19.2s-20.2-6.6-30-6.6c-12.1 0-23.6 3-34.5 8.9s-19.4 14-25.4 24.2-9 20.9-9 32.3c0 11.6 3.1 22.7 9.4 33.1 6.2 10.5 14.8 18.7 25.8 24.6 11 6 23 9 36.1 9 15.9 0 29.3-4.5 40.3-13.4 11-8.9 17.5-20.6 19.5-34.8h-49.2V244h66.5c-.2 23.9-7.2 42.8-21.2 56.8s-32.8 21-56.2 21c-28.5 0-51.1-9.7-67.7-29.2-12.8-15-19.2-32.3-19.2-52 0-14.6 3.7-28.2 11-40.8 7.4-12.6 17.4-22.4 30.2-29.5 12.8-7.1 27.3-10.7 43.4-10.7 13.1 0 25.4 2.4 36.9 7.1 11.3 4.8 22.5 12.4 33.5 22.8zM197.9 317.9V163.6h3.4l102.6 118.3V163.6h15.2v154.3h-3.4L213.9 201.1v116.8h-16zM356.6 163.6h30.7c17.6 0 29.5.8 35.6 2.3 8.8 2.2 16 6.6 21.6 13.3s8.4 15.2 8.4 25.4c0 10.3-2.7 18.8-8.2 25.4-5.5 6.7-13 11.2-22.5 13.5-7 1.7-20.1 2.5-39.2 2.5h-11v71.7h-15.4V163.6zm15.4 15.1V231l26.1.3c10.6 0 18.3-.9 23.2-2.9 4.9-1.9 8.7-5 11.5-9.3 2.8-4.3 4.2-9.1 4.2-14.4 0-5.2-1.4-9.9-4.2-14.2-2.8-4.3-6.5-7.4-11.1-9.1-4.6-1.8-12.1-2.7-22.5-2.7H372zM481.6 163.6H497v154.3h-15.4V163.6z"/><g id="Layer_3"><path fill="#7dc6e7" d="M204.9 353.1l23.6-23.6h-47.2zM311.6 133.3L288 156.9h47.2z"/></g></svg>
