<svg xmlns="http://www.w3.org/2000/svg" viewBox="0 0 1000 1000" xml:space="preserve"><path fill="#24aae2" d="M621.2 11.6c18.4 1.6 29.7 4.5 44.4 8.2A272.5 272.5 0 0 1 871 245.6c5 33.3 2.2 66.9 2.8 100.3.2 9.3-4.1 6.8-9.3 3.9a322.9 322.9 0 0 0-168-44.4c-19 .3-19.6 0-18.8-18.6 1-24.5-8.2-44.1-26.2-60.1a66.3 66.3 0 0 0-44.9-18.4c-102.6-.1-205.2-.3-307.8.1-40.7.2-72.6 34.9-72.7 78.6-.3 81.4-.1 162.8-.1 244.2 0 60.5-.1 121 .1 181.5.1 38.4 21.7 67.9 56.7 77.5 9.7 2.7 19.8 3.7 29.9 3.7h445c14.7 0 15-.3 15-15.3 0-47.2-1.5-94.4.4-141.5 2-48.3-38.1-80.8-81-80.8H335l-1-2.7c4.5-3.3 8.8-6.7 13.4-9.8 65.6-45 131.4-89.8 196.8-135a262 262 0 0 1 156.3-48.5 272 272 0 0 1 268.4 280.4v331.7c0 16.2 0 16.2-16.1 16.2-217.1 0-434.2.1-651.3-.1A272.3 272.3 0 0 1 33.1 751.2a313.4 313.4 0 0 1-1.8-39.9c0-145.1-.6-290.3.3-435.4.4-64.3 23.8-120.8 65.8-169.6 44.4-51.6 100.9-81.1 167.7-91.7 6.3-1 11.1-2.4 19-3.1l337.1.1z"/></svg>
