<svg xmlns="http://www.w3.org/2000/svg" id="Layer_1" x="0" y="0" version="1.1" viewBox="0 0 1000 1000" xml:space="preserve"><style>.st1{fill:#17a7de}.st3{fill:#70cbef}.st4{fill:#1f4697}.st5{fill:#1fa5de}.st7{fill:#4b90cd}.st8{fill:#0a76ba}.st9{fill:#e8262e}</style><path fill="none" d="m581.5 702.6 18-16.3c-6.2 5.5-12.2 10.9-18 16.3z"/><path d="M45.8 493.5c13.5 38.3 29.4 61.1 29.4 61.1s45.4 66.7 20.8 120.3c-9.4 20.5-31.6 47.8-48.8 82.4 56.5-26.6 137.6-49.8 245.4-45.7a1149 1149 0 0 0-93.9-216 542.8 542.8 0 0 0-76.2-105.3 296.7 296.7 0 0 1-76.7 103.2z" class="st1"/><path fill="#0675bb" d="M47.3 757.2C19.5 813.1 4.7 887.8 78.3 983c0 0 64.8-163 151.8-172.7 39.9-4.4 63.1 1.6 90.9 9-5.9-28.5-14.8-65.3-28.3-107.8-107.8-4.1-188.9 19.1-245.4 45.7z"/><path d="M35 318.3a313.9 313.9 0 0 0 10.8 175.2 296.1 296.1 0 0 0 76.7-103.3A412.9 412.9 0 0 0 35 318.3z" class="st3"/><path d="M469.8 738.3s138.8-144.8 167.6-216.9A984.9 984.9 0 0 0 670.8 421a423.4 423.4 0 0 1-188.9 36.4c-308.9-10.4-259-351.3-259-351.3s-39.3 4.4-84 39.6c20 53.5 22.8 121.7 3.4 191a358.3 358.3 0 0 1-19.5 53.3 539.7 539.7 0 0 1 76.3 105.4c44.2 78.5 74 153.4 93.9 216a811.3 811.3 0 0 1 176.8 26.9z" class="st4"/><path d="M138.9 145.7c-31.3 24.7-65.3 64.5-90.2 128.6a318 318 0 0 0-13.5 43.9 414.6 414.6 0 0 1 87.5 71.8 350.3 350.3 0 0 0 19.5-53.3c19.5-69.3 16.7-137.5-3.3-191z" class="st1"/><path d="M929.9 162.7s-27.5 60.1-85 126.1v.3l.2-.3c-.1 47.9-1 130.7-6.1 181-7.2 71.5-12.3 87.4-12.6 88.4 42.9-17.3 80.2-29 111-36.7 52.9-184.3-7.5-358.8-7.5-358.8z" class="st3"/><path d="M469.8 738.3a803 803 0 0 0-176.9-26.9c13.5 42.5 22.5 79.3 28.3 107.8 32.1 8.5 70.3 18.7 147.3 16.5a500.3 500.3 0 0 1 57.1-79.7l-55.8-17.7z" class="st5"/><path fill="#74cbf0" d="m468.6 835.7 5.8-.2c55.3-1.9 114.5-5.4 172.4-19.6A578.2 578.2 0 0 0 525.7 756a495.9 495.9 0 0 0-57.1 79.7z"/><path d="M581.5 702.6c5.8-5.3 11.7-10.8 18-16.3l9.2-8.3c30.3-27.1 81.2-55.6 126.2-78a1157.5 1157.5 0 0 1 91.2-41.8s5.2-14.5 12.6-88.5c5.1-50.2 6-132.8 6.1-180.7-41.8 47.9-99.4 98.7-173.9 131.9a994 994 0 0 1-33.4 100.5c-28.8 72-167.6 216.9-167.6 216.9 20 5.4 38.5 11.4 55.7 17.6 1.2-1.1 15.6-16.4 55.9-53.3z" class="st7"/><path d="M735 600c-45 22.4-95.9 50.9-126.2 78a683.5 683.5 0 0 1 90.4-59.1c12.2-6.7 24.1-13 35.8-18.9zM826.2 558.3l-3 1.3 3.3-1.3c.3-1 5.4-16.9 12.6-88.4 5.1-50.3 6-133.2 6.1-181l-.2.3c-.1 47.9-1 130.6-6.1 180.7-7.5 73.8-12.7 88.4-12.7 88.4z" class="st7"/><path d="M699.2 618.9a677 677 0 0 0-90.4 59.1l-3 2.8 3.3-2.8a833 833 0 0 1 137.5-83.7L735 600c-11.7 5.9-23.6 12.2-35.8 18.9zM526 756l9.6-9.3-9.8 9.2.2.1zM813.8 563.5l9.6-4 3-1.3v-.1l-3.3 1.3c-2 1-5.2 2.4-9.3 4.1z" class="st7"/><path d="m469.8 738.3 55.9 17.7a699.2 699.2 0 0 0-55.9-17.7z" class="st5"/><path d="M813.8 563.5zM735 600l11.6-5.7c23.7-11.8 46.1-21.9 67.2-30.8l9.4-4A1157.5 1157.5 0 0 0 735 600z" class="st7"/><path d="M525.8 755.9c-.1.1-.1.1 0 0zM581.5 702.6c-16.2 15.1-30.8 29.5-45.9 44.2l70.2-65.9-6.2 5.5a685.5 685.5 0 0 0-18.1 16.2zM599.5 686.3l6.2-5.5 3-2.8-9.2 8.3z" class="st8"/><path d="M535.6 746.7c15.1-14.6 29.7-29.1 45.9-44.2-40.4 36.9-54.7 52.3-55.8 53.4l9.9-9.2z" class="st8"/><g><path d="M826.5 558.2c0 .1 0 .1 0 0l-3.1 1.3-9.6 4c-14.1 6.1-38.9 17-67.2 30.8l-11.3 5.7a820.2 820.2 0 0 0-126.2 78l-3.3 2.8-70.2 65.9-9.6 9.3-.2-.1-.1.1c54 19.6 94.1 42.1 121.1 59.9 66-16.2 130.2-46.3 185.1-103.9-20.4-60.4-5.4-153.8-5.4-153.8zM897.2 532.9l4.9-1.5-4.9 1.5z" class="st8"/><path d="M826.5 558.2a966.2 966.2 0 0 1 70.7-25.3 662.6 662.6 0 0 0-70.7 25.3z" class="st3"/><path d="M937.5 521.5c-11 2.8-22.8 6.1-35.4 9.9l-4.9 1.5a934 934 0 0 0-70.7 25.3s-15 93.4 5.4 153.8a430.6 430.6 0 0 0 74.2-108.7 495.8 495.8 0 0 0 31.4-81.8z" class="st4"/></g><g><path d="M704.2 49.3c.2 3.3.4 6.7.4 10.1 0 68.1-43.9 126.3-106.1 150.3a400.8 400.8 0 0 0 42.4 79.4c12.7-140.1 144-267.6 144-267.6s-46.8 21.1-80.7 27.8z" class="st4"/><path d="M704.6 59.4c0-3.4-.1-6.7-.4-10.1-7.3 1.4-14 2.2-19.5 2-31-1.5-43.8-17.4-43.8-17.4s-36 18.6-53.6 87.3c-7 27.4.1 59.6 11.1 88.4 62.3-23.9 106.2-82.1 106.2-150.2z" class="st1"/></g><g><path d="M415.7 288.4c-24.3 48.1-85.3 136.9-85.3 136.9l-.4.4c9.5 5.2 19.6 9.6 30.2 12.5 59.5 16.4 89.3 24.8 158.8 18.9s124-10.9 155.8-33.7c31.3-44.2 25.8-117.6 17.9-149.8s-25.8-31.8-25.8-31.8 9.4 31.8 6.9 68.5-43.2 78.4-61.5 89.3c-18.4 10.9-34.2 16.4-34.7 5-.5-11.4 45.6-68 43.7-88.3-2-20.3-2.5-30.8-25.8-64.5C572 218 558.1 152 558.6 105.9s36.7-89.3 36.7-89.3-45 42-69.8 101.4a1511 1511 0 0 0 11.3 123.9c8.4 52.1 12.9 103.7-6.9 137.9s-38.7 70-68.5 65.2c-8.6-1.4-16.2-3.7-22.6-6.2-2.5.9-4.9 1.4-7.1 1.5-24.3 1-45.6-8.4-46.6-34.7s54.6-72.4 80.4-98.2c25.8-25.8 28.8-64.5 24.8-140.9s-51.6-96.3-51.6-96.3 5 5 8.9 29.8c4 24.8-7.4 65.5-26.8 120.1a7 7 0 0 0-.5 1.3c4.5 22.2 5.5 47.1-4.6 67z" class="st9"/><path fill="#fcb142" d="m330 425.8.4-.4s61-88.8 85.3-136.9c10.1-19.9 9.1-44.8 4.4-67.1-15.6 41.5-84.1 112.4-132.7 173.2a226.5 226.5 0 0 0 42.6 31.2z"/><path fill="#f89c20" d="M330 425.8a217.6 217.6 0 0 1-42.5-31.3 420.1 420.1 0 0 0-38.4 54.7c-27.4 49.4-5.3 145.1 8.3 192 3.7-147.7 66.9-210.2 72.6-215.4z"/><path fill="#ed4624" d="M529.8 379.7c19.8-34.2 15.4-85.8 6.9-137.9-4.9-30.5-8.9-84.4-11.3-123.9-2 4.8-3.9 9.7-5.6 14.7-22.8 67-14.4 219.3-17.9 236.7-3.2 15.8-38.6 60.6-63.3 69.4 6.5 2.6 14 4.9 22.6 6.2 29.9 4.8 48.8-30.9 68.6-65.2z"/></g><g><path fill="#f0e929" d="M360.1 438.3a140.3 140.3 0 0 1-30.2-12.5c-5.6 5.3-68.8 67.7-72.7 215.5 4.8 16.7 8.6 27.3 8.6 27.3s68.5-50.1 89.3-66.5c9.3-7.3 17-13.1 31.1-18.6 25.8-44.2 89.5-124.4 89.5-124.4-41.8-.4-70-8.3-115.6-20.8z"/><path d="M674.7 423.4c-31.8 22.8-86.3 27.8-155.8 33.7-7.7.7-15 1.1-21.8 1.5 153.4-4.4 177.6-35.2 177.6-35.2zM497.1 458.6l-21.4.4c6.8.1 13.9 0 21.4-.4z" class="st9"/><path fill="#f15a2e" d="M674.7 423.4s-24.3 30.8-177.6 35.2c-7.6.3-14.6.5-21.4.4 0 0-63.6 80.1-89.5 124.4 17.4-6.9 44.6-13.5 96.9-22.5 94.9-16.3 160.4-93.3 191.6-137.5z"/></g></svg>
