<svg xmlns="http://www.w3.org/2000/svg" viewBox="0 0 500 500"><path d="M251.49 12C120.32 12 14 118.32 14 249.49c0 52.47 17.03 100.98 45.86 140.27-35.99-53-34.99-140.27-34.99-140.27s-8.23-66.4 55.22-144.36 171.4-76.82 171.4-76.82 54.39 0 110.59 36.26c72.95 47.06 79.77 146.85 79.77 146.85S401.96 53.7 256.93 46.44 59.32 160.65 59.32 160.65s-68.89 143.23 65.27 241.13 252-7.26 252-7.26-10.88 16.31-50.76 41.7-85.2 30.82-121.47 30.82c-36.22 0-88.73-14.48-134.61-64.68C113.32 454.12 178.58 487 251.51 487 382.68 487 489 380.68 489 249.51S382.66 12 251.49 12zm61.82 339.7c-12.47 6.08-36.83 14.47-62.94 14.47-33.06 0-58.01-11.04-76.58-34.26-17.41-21.71-27.55-55.58-27.26-94.43 0-81.1 44.09-133.26 108.79-133.26 24.08 0 42.93 6.47 51.93 12.18l-7.83 37.69c-10.73-6.08-23.79-11.04-44.39-11.04-41.78 0-71.07 32.36-71.07 92.14 0 58.25 27.26 92.89 67.88 92.89 12.77 0 22.34-2.28 26.98-5.33V258.8H244.3v-36.94h69.04V351.7h-.03z" fill="#1e5cba"/></svg>
