<svg xmlns="http://www.w3.org/2000/svg" id="Layer_1" x="0" y="0" version="1.1" viewBox="0 0 1000 1000" xml:space="preserve"><style>.st1{fill:#fff}</style><linearGradient id="SVGID_1_" x1="5.6" x2="994.5" y1="499.7" y2="499.7" gradientUnits="userSpaceOnUse"><stop offset="0" stop-color="#234091"/><stop offset="1" stop-color="#cc1d69"/></linearGradient><path fill="url(#SVGID_1_)" d="M993.7 831.2c1.1-219.9 1-439.8 0-659.7 0-8.8-.7-17.3-1.9-25.6l-.4-2.5-1-5.9-.3-1.3a155 155 0 0 0-73.8-104.8 179.6 179.6 0 0 0-89.4-22.5 118677.3 118677.3 0 0 0-653.8.1c-33.9 0-64.2 8-89.4 22.5A154.7 154.7 0 0 0 9.9 136.3l-.3 1.3-1 5.9-.4 2.5c-1.2 8.3-1.8 16.8-1.9 25.6-1 219.9-1.1 439.8 0 659.7a156.3 156.3 0 0 0 92 145.6c11.1 5 23.1 9 35.8 12l2.6.5c7.6 1.5 15.7 1.7 23.5 1.7H226c66.7-.9 133.4-.4 200.1 0h147.6c66.7-.4 133.4-1 200.1 0h65.8c7.8 0 15.8-.2 23.5-1.7l2.6-.5c12.7-2.9 24.7-6.9 35.8-12 50-23.2 91.8-72.1 92.2-145.7z"/><path d="M866.2 160.5c-109.9-27.8-220-54.6-330-81.7l-4.7-1-.2 278.9h168.1c-4.2-59.3-39.8-76.3-93-69.7 0-21.3-.9-39.4.2-57.5 1.2-20.1 13.5-29.8 33.1-24.9 61 15.2 121.9 30.7 182.4 47.6 26.3 7.4 32.3 18.2 32.3 45.7 0 124.6-.4 249.2 0 373.8.1 23.8-9.7 40.9-31.3 48.6a5165.5 5165.5 0 0 1-180.2 61.6c-23.3 7.4-30.3 1.2-34.3-22.6-1.3-7.6-2.3-15.4-2.3-23.2-.1-67.5-.2-135 .2-202.5.2-35.1 10.7-45.2 45.5-45.4l31.2-.2c44-.7 73.3-26.9 80-71.7-1.5-.8-3.1-2.3-4.8-2.3-60.5.6-121 .2-181.3 2.6-33 1.3-46.9 18.8-47 52.2-.2 92.2-.1 184.3-.1 276.5v176.2c21.2-6.3 40.1-11.6 58.9-17.5l292.7-92.6c43.7-13.9 52.2-25.5 52.2-71.6V249.2c.2-48.3-20.7-76.9-67.6-88.7zM469.7 469c-.1-33.4-14-50.9-47-52.2-60.4-2.5-120.9-2-181.3-2.6-1.6 0-3.3 1.6-4.8 2.3 6.6 44.8 36 71 80 71.7 10.4.2 20.8.2 31.2.2 34.8.2 45.3 10.2 45.5 45.4.4 67.5.3 135 .2 202.5 0 7.7-1 15.5-2.3 23.2-4 23.8-11 30.1-34.3 22.6a5461.8 5461.8 0 0 1-180.2-61.6c-21.6-7.8-31.3-24.8-31.3-48.6.4-124.6.1-249.2 0-373.8 0-27.5 6-38.3 32.3-45.7a6341.7 6341.7 0 0 1 182.4-47.6c19.6-4.9 31.9 4.7 33.1 24.9 1.1 18 .2 36.2.2 57.5-53.2-6.6-88.8 10.4-93 69.7h168.1L468.3 78l-4.7 1c-110 27.1-220.1 53.9-330 81.7C87 172.3 66.1 200.9 66 249.3v490.6c0 46.1 8.4 57.8 52.2 71.6l292.7 92.6c18.7 5.9 37.7 11.2 58.9 17.5V745.4c0-92 .2-184.2-.1-276.4z" class="st1"/></svg>
