<svg xmlns="http://www.w3.org/2000/svg" viewBox="0 0 1000 500" xml:space="preserve"><style>.st1{fill:#fff}</style><g id="Layer_1"><linearGradient id="SVGID_1_" x1="13.5" x2="274.5" y1="240" y2="240" gradientUnits="userSpaceOnUse"><stop offset="0" stop-color="#234091"/><stop offset="1" stop-color="#cc1d69"/></linearGradient><path fill="url(#SVGID_1_)" d="M274.2 327.5c.3-58 .3-116 0-174.1a48 48 0 0 0-.5-6.7l-.1-.7-.3-1.6-.1-.3a40.5 40.5 0 0 0-19.5-27.6 48.6 48.6 0 0 0-23.6-6l-86.3-.1-86.3.1c-8.9 0-16.9 2.1-23.6 6a41 41 0 0 0-19.5 27.6l-.1.3-.3 1.6-.1.7c-.3 2.2-.5 4.4-.5 6.7-.3 58-.3 116 0 174.1a41.1 41.1 0 0 0 24.3 38.4c2.9 1.3 6.1 2.4 9.4 3.2l.7.1c2 .4 4.1.4 6.2.4h17.4c17.6-.3 35.2-.1 52.8 0h39c17.6-.1 35.2-.3 52.8 0h17.4c2.1 0 4.2 0 6.2-.4l.7-.1c3.4-.8 6.5-1.8 9.4-3.2a41 41 0 0 0 24.5-38.4z"/></g><g id="Layer_2"><path d="M240.6 150.5c-29-7.3-58-14.4-87.1-21.6l-1.2-.3-.1 73.6h44.4c-1.1-15.6-10.5-20.1-24.5-18.4 0-5.6-.2-10.4.1-15.2.3-5.3 3.6-7.9 8.7-6.6 16.1 4 32.2 8.1 48.1 12.6 7 1.9 8.5 4.8 8.5 12.1v98.6c0 6.3-2.6 10.8-8.2 12.8-15.8 5.7-31.6 11.2-47.5 16.3-6.2 2-8 .3-9-6a42 42 0 0 1-.6-6.1v-53.4c0-9.3 2.8-11.9 12-12l8.2-.1c11.6-.2 19.3-7.1 21.1-18.9-.4-.2-.8-.6-1.3-.6-16 .2-31.9 0-47.9.7-8.7.4-12.4 5-12.4 13.8v119.4l15.5-4.6 77.2-24.4c11.5-3.7 13.8-6.7 13.8-18.9V173.8c.1-12.7-5.4-20.2-17.8-23.3zM136 231.9c0-8.8-3.7-13.4-12.4-13.8-15.9-.6-31.9-.5-47.9-.7-.4 0-.9.4-1.3.6 1.8 11.8 9.5 18.7 21.1 18.9l8.2.1c9.2.1 11.9 2.7 12 12v53.4c0 2-.3 4.1-.6 6.1-1 6.3-2.9 7.9-9 6-16-5.1-31.8-10.6-47.5-16.3-5.7-2-8.3-6.6-8.2-12.8v-98.6c0-7.3 1.6-10.1 8.5-12.1 16-4.5 32-8.6 48.1-12.6 5.2-1.3 8.4 1.3 8.7 6.6.3 4.8.1 9.5.1 15.2-14-1.8-23.4 2.7-24.5 18.4h44.4l-.1-73.6-1.2.3c-29 7.2-58.1 14.2-87.1 21.6-12.4 3.1-17.9 10.7-17.9 23.4v129.5c0 12.2 2.2 15.2 13.8 18.9l77.2 24.4c4.9 1.6 9.9 3 15.5 4.6v-46.5l.1-73z" class="st1"/></g><g id="Layer_4"><linearGradient id="SVGID_00000121990360730283995300000009153279252897086083_" x1="351.3" x2="937.4" y1="300.5" y2="300.5" gradientUnits="userSpaceOnUse"><stop offset="0" stop-color="#234091"/><stop offset="1" stop-color="#cc1d69"/></linearGradient><path fill="url(#SVGID_00000121990360730283995300000009153279252897086083_)" d="M456.3 355.5h-18.9c-.9-3.5-1.6-7.3-1.9-10-6.1 8.3-16.5 12-30.5 12-31.2 0-48.2-24.6-48.2-55.7 0-33.4 18.7-58.2 52.8-58.2 29 0 44.7 17.3 47 35.4h-26.7c-1.7-6.1-6.3-14.4-20.6-14.4-19.9 0-25 18.1-25 36.1 0 17.9 6 35.6 25.2 35.6 17.6 0 20.6-13.1 20.6-20.8v-.9h-20.9V293h47v62.5z"/><linearGradient id="SVGID_00000029732408315353849990000007344305490285362582_" x1="351.3" x2="937.4" y1="301.4" y2="301.4" gradientUnits="userSpaceOnUse"><stop offset="0" stop-color="#234091"/><stop offset="1" stop-color="#cc1d69"/></linearGradient><path fill="url(#SVGID_00000029732408315353849990000007344305490285362582_)" d="m509.7 333.5-7.1 23h-26.2l34.7-110.2h34l36.2 110.2h-28l-7.5-23h-36.1zm31-22a861.2 861.2 0 0 1-13.2-45.8h-.2c-2.6 11.4-7.3 28-12.4 45.8h25.8z"/><linearGradient id="SVGID_00000171687920362258445160000015516110652111214995_" x1="351.3" x2="937.4" y1="300.4" y2="300.4" gradientUnits="userSpaceOnUse"><stop offset="0" stop-color="#234091"/><stop offset="1" stop-color="#cc1d69"/></linearGradient><path fill="url(#SVGID_00000171687920362258445160000015516110652111214995_)" d="M620.7 312.8v42.6H593V245.2h52c25.3 0 38.4 13.6 38.4 30.5 0 15-8.4 22.8-16 26.1 5.5 2.1 13.6 8.1 13.6 27.6v5.3a92 92 0 0 0 1.6 20.7h-26.9a77.1 77.1 0 0 1-2.4-24.7v-1.9c0-10.7-2.6-16.1-19.2-16.1h-13.4zm0-21.1h18c11.9 0 16.3-4.6 16.3-12.7 0-8-5.3-12.6-16-12.6h-18.3v25.3z"/><linearGradient id="SVGID_00000054242698371700120600000015056082422373437319_" x1="351.3" x2="937.4" y1="300.4" y2="300.4" gradientUnits="userSpaceOnUse"><stop offset="0" stop-color="#234091"/><stop offset="1" stop-color="#cc1d69"/></linearGradient><path fill="url(#SVGID_00000054242698371700120600000015056082422373437319_)" d="M691.2 245.2h43.6c31.8 0 51.7 21.5 51.7 53.7 0 32-19.3 56.5-52.6 56.5h-42.7V245.2zm26.8 88.6h14.6c18.4 0 26.2-14.2 26.2-34.8 0-17.5-7.4-32.1-26-32.1H718v66.9z"/><linearGradient id="SVGID_00000083050984695546074840000010860434774991360691_" x1="351.3" x2="937.4" y1="298.7" y2="298.7" gradientUnits="userSpaceOnUse"><stop offset="0" stop-color="#234091"/><stop offset="1" stop-color="#cc1d69"/></linearGradient><path fill="url(#SVGID_00000083050984695546074840000010860434774991360691_)" d="M875.6 306.6h-49.4v26.8h57.2v22h-83.1V242h81.2v22h-55.3v20.6h49.4v22z"/><linearGradient id="SVGID_00000177473018908151312830000010175144483612329896_" x1="351.3" x2="937.4" y1="309.4" y2="309.4" gradientUnits="userSpaceOnUse"><stop offset="0" stop-color="#234091"/><stop offset="1" stop-color="#cc1d69"/></linearGradient><path fill="url(#SVGID_00000177473018908151312830000010175144483612329896_)" d="M892.3 373.5V245.2h32.5c12.2 24.6 32.6 64.1 37.1 76.6h.4a562 562 0 0 1-1.3-48.5v-28.1h24.2v110.2h-30.9c-10.2-20.7-33.5-67.6-38.4-81h-.3c.8 9.4 1.1 32.3 1.1 51.9v47.1h-24.4z"/></g><g id="Layer_5"><linearGradient id="SVGID_00000152981366867462743140000010145827304456312750_" x1="351.3" x2="937.4" y1="180.4" y2="180.4" gradientUnits="userSpaceOnUse"><stop offset="0" stop-color="#234091"/><stop offset="1" stop-color="#cc1d69"/></linearGradient><path fill="url(#SVGID_00000152981366867462743140000010145827304456312750_)" d="M451.1 234.7h-17.2c-.9-3.3-1.5-7.1-1.8-10.7-6 8.1-16.7 12.5-31.8 12.5-31.6 0-49.2-23.9-49.2-54.9 0-32.7 19-57.3 53.3-57.3 28 0 44.5 15.8 47.1 34.4H428c-2.2-7.3-8-15.9-23.9-15.9-22.3 0-28.7 18.7-28.7 37.9 0 18.7 7.3 37.2 28.9 37.2 20.1 0 23.8-14 23.8-23.7v-1h-23.9v-19.3h46.9v60.8z"/><linearGradient id="SVGID_00000043420704783862873820000000325887166619206324_" x1="351.3" x2="937.4" y1="180.3" y2="180.3" gradientUnits="userSpaceOnUse"><stop offset="0" stop-color="#234091"/><stop offset="1" stop-color="#cc1d69"/></linearGradient><path fill="url(#SVGID_00000043420704783862873820000000325887166619206324_)" d="M611.9 202.8c2.5 10.9 10.3 15.7 22.9 15.7 12.6 0 17.9-5 17.9-12.9 0-8.9-5.2-12.7-23.9-17-29.6-6.9-36.9-17.7-36.9-32.4 0-19 14.2-31.8 39.9-31.8 28.9 0 40.4 15.5 42 31.4h-23.7c-1.1-6.7-4.8-14-18.9-14-9.5 0-15.3 3.9-15.3 11.7 0 7.6 4.6 10.6 22.2 14.7 31.6 7.5 38.6 19.2 38.6 34.6 0 19.9-15 33.5-43.8 33.5-27.6 0-42.2-13.6-44.8-33.4h23.8z"/><linearGradient id="SVGID_00000047768580585165754750000003210952896057592193_" x1="351.3" x2="937.4" y1="180.3" y2="180.3" gradientUnits="userSpaceOnUse"><stop offset="0" stop-color="#234091"/><stop offset="1" stop-color="#cc1d69"/></linearGradient><path fill="url(#SVGID_00000047768580585165754750000003210952896057592193_)" d="M694.1 125.9h45c23.1 0 38.8 13 38.8 33.7 0 23.6-17.9 34.5-39.4 34.5h-20.9v40.6h-23.5V125.9zm23.6 49.4h18c10.9 0 18.6-4.2 18.6-15.3 0-11.2-8.1-15.4-18.1-15.4h-18.4v30.7z"/><linearGradient id="SVGID_00000062904312542561300610000005211838804660103584_" x1="351.3" x2="937.4" y1="179.4" y2="179.4" gradientUnits="userSpaceOnUse"><stop offset="0" stop-color="#234091"/><stop offset="1" stop-color="#cc1d69"/></linearGradient><path fill="url(#SVGID_00000062904312542561300610000005211838804660103584_)" d="M855.4 187.8h-33.9v27.6h60.4v19.3h-83.2V124.2h77.1v19.3h-54.3v25h33.9v19.3z"/><linearGradient id="SVGID_00000041269061644979169450000014738215976486731405_" x1="351.3" x2="937.4" y1="180.3" y2="180.3" gradientUnits="userSpaceOnUse"><stop offset="0" stop-color="#234091"/><stop offset="1" stop-color="#cc1d69"/></linearGradient><path fill="url(#SVGID_00000041269061644979169450000014738215976486731405_)" d="M892.6 125.9h23.5v89.5h65.7l-.3 19.3h-88.9V125.9z"/><linearGradient id="SVGID_00000168798105039613232210000011472347894710824336_" x1="351.3" x2="937.4" y1="180.3" y2="180.3" gradientUnits="userSpaceOnUse"><stop offset="0" stop-color="#234091"/><stop offset="1" stop-color="#cc1d69"/></linearGradient><path fill="url(#SVGID_00000168798105039613232210000011472347894710824336_)" d="M523.4 124.3c-33.8 0-53.5 24.3-53.5 56 0 31.2 17.9 56 52 56 35.3 0 53.5-26.1 53.5-56.3 0-33.4-20.2-55.7-52-55.7z"/></g><g id="Layer_6"><path d="M978.8 223.8c0-2.1-31.3-3.8-70.7-4-.5-50.2-2-87.1-3.8-87.1s-3.3 36.8-3.8 87.1c-39.4.1-70.7 1.8-70.7 4 0 2.1 31.3 3.8 70.6 4l-.1 24.6c0 66 1.8 119.6 4 119.6s4-53.5 4-119.6l-.1-24.6c39.3-.2 70.6-1.9 70.6-4zM506 207c-2.5 1.2-5.6.1-6.5-2.5-.2-.5-.3-1.1-.3-1.7v-45c0-1.4.6-2.7 1.5-3.6a4.6 4.6 0 0 1 5-.9l50.1 20.1c1.8.7 3.1 2.5 3.1 4.5v.5a5 5 0 0 1-2.7 4.4L506 207z" class="st1"/></g></svg>
