<svg xmlns="http://www.w3.org/2000/svg" viewBox="0 0 1000 500"><g id="Layer_3"><path fill="#ce3829" d="M163 243c0 10.9.6 17.5 1.9 19.8 1.3 2.3 5 3.4 11.1 3.4h2.6v3.4h-46v-3.4h2.6c6.2 0 9.9-1.1 11.1-3.4 1.2-2.3 1.9-8.8 1.9-19.8v-50.2c0-10.5-.6-16.7-1.7-18.7-1.1-1.7-2.9-2.8-5.4-3.2-.4-.1-1.2-.2-2.3-.2H132.6v-3.4h46v3.4H172.4c-1 0-1.8.1-2.3.2-2.4.4-4.1 1.5-5.2 3.2-1.2 2.2-1.9 8.4-1.9 18.7V213h53.4v-20.2c0-10.4-.6-16.6-1.9-18.7-1.1-1.7-2.9-2.8-5.4-3.2-.5-.1-2.7-.2-6.5-.2h-2.8v-3.4h46.5v3.4h-5.8c-1 0-1.8.1-2.3.2-2.6.4-4.3 1.5-5.2 3.2-1.2 2.4-1.9 8.6-1.9 18.7V243c0 10.9.6 17.5 1.9 19.8 1.3 2.3 5 3.4 11.1 3.4h2.3v3.4h-46.5v-3.4h3.5c6.1 0 9.7-1.1 11-3.4 1.3-2.3 2-8.8 2-19.8v-24.7H163V243zM308.1 269.6c-6.7 0-10.7-3.5-12-10.5-10.2 7-18.5 10.5-24.8 10.5-4.3 0-7.9-1.2-10.8-3.5-2.9-2.4-4.3-5.3-4.3-9 0-5.4 3.4-10.2 10.3-14.7 4.9-3.2 10.9-6.3 17.9-9.4l11.7-4.6v-3.1c0-6.3-1-10.6-3.1-13-2.1-2.4-5.8-3.6-11.1-3.6-7.5 0-11.6 2.3-12.3 6.8l-.3 1.7c-.9 4.5-3.1 6.8-6.5 6.8-2.9 0-4.3-1.5-4.3-4.5 0-3.6 2.4-6.8 7.3-9.7 4.9-2.9 10.8-4.3 17.4-4.3 12.4 0 20 3.9 22.7 11.6.7 1.7 1.1 5.1 1.1 10v29.2c0 5.6 1.6 8.3 4.9 8.3 3.2 0 5.2-2.5 6.2-7.4h2.8c-.7 8.2-4.9 12.4-12.8 12.4zm-39.7-15.8c0 7.2 3.1 10.8 9.3 10.8 4.4 0 10.5-3.2 18.4-9.6v-23.1l-8.3 3.4c-13 5.2-19.4 11.4-19.4 18.5zM344.3 221.1h.3c1.9-4.6 4.6-8.4 8.3-11.3 3.7-2.9 7.6-4.4 11.6-4.4 2.7 0 5 1 7.1 2.9 2.1 1.9 3.1 4.1 3.1 6.6 0 3.5-1.6 5.2-4.9 5.2-2.6 0-4.5-1.9-5.7-5.6-.8-2.5-2.2-3.7-4.2-3.7-2.5 0-5.3 1.7-8.5 5.2-2.9 3.2-4.7 6.5-5.4 9.9-.6 2.4-.9 6.2-.9 11.4v11.1c0 8.6.4 13.5 1.1 14.7 1.1 2.1 3.8 3.1 8 3.1h2.2v3.4h-32.7v-3.4h1.5c3.7 0 6.1-.6 7.3-1.9 1.2-1.2 1.8-3.9 1.8-7.9V231c0-8.5-.4-13.5-1.1-14.8-1-2-3.7-2.9-8-2.9h-1.5v-3.4c3.6-.5 9.4-1.9 17.4-4.2l1.1-.3c1.4 4.5 2.1 9.7 2.1 15.7zM397.6 214.3v1.2c6.5-6.8 14-10.2 22.5-10.2s15.6 3.1 21.1 9.3c5.6 6.2 8.3 14 8.3 23.5 0 8.5-2.9 15.9-8.8 22.2-5.8 6.4-13.1 9.6-21.9 9.6-7.8 0-14.9-3-21.3-9v25.3c0 8.5.4 13.5 1.1 14.8 1 2 3.8 2.9 8.2 2.9h.9v3.4h-32.3V304h2.2c3.7 0 6.1-.6 7.3-1.9 1.2-1.2 1.8-3.8 1.8-7.7v-64c0-8.7-.3-13.7-.9-14.8-1-2-3.8-2.9-8.2-2.9h-2.2v-3.5c5.7-.5 11.9-1.7 18.8-3.7h2c1 3.1 1.4 6.1 1.4 8.8zm18.2 51.7c6.6 0 11.8-2.7 15.6-8.2 3.8-5.5 5.7-12.3 5.7-20.5 0-8.6-1.9-15.4-5.7-20.2-3.8-4.8-9-7.3-15.4-7.3s-12.5 3.5-18.4 10.5V256c5.7 6.7 11.8 10 18.2 10zM472.1 230c-.1.5-.2 1.2-.2 2v3.2c0 11.8 2.4 20.2 7.1 25 3.6 3.6 8 5.4 13.1 5.4 9.1 0 15.5-4.1 19.4-12.3h3.5c-1.6 4.9-4.8 8.9-9.3 11.8-4.6 2.9-9.9 4.4-15.8 4.4-8.7 0-16.1-3.1-21.9-9.3-5.9-6.2-8.8-13.2-8.8-21 0-9.8 2.8-17.9 8.5-24.2 5.7-6.5 12.7-9.7 21.1-9.7 7.5 0 13.7 2.2 18.5 6.6 5 4.3 7.6 9.9 7.7 16.7h-42.9v1.4zm30.1-5.8v-1.5c0-4.3-1.2-7.7-3.6-10.3-2.4-2.5-5.7-3.8-9.8-3.8-9.2 0-14.6 5.7-16.2 17.1h29.5c.1-.5.1-1 .1-1.5zM539.7 221.1h.3c1.9-4.6 4.6-8.4 8.3-11.3 3.7-2.9 7.6-4.4 11.6-4.4 2.7 0 5 1 7.1 2.9 2.1 1.9 3.1 4.1 3.1 6.6 0 3.5-1.6 5.2-4.9 5.2-2.6 0-4.5-1.9-5.7-5.6-.8-2.5-2.2-3.7-4.2-3.7-2.5 0-5.3 1.7-8.5 5.2-2.9 3.2-4.7 6.5-5.4 9.9-.6 2.4-.9 6.2-.9 11.4v11.1c0 8.6.4 13.5 1.1 14.7 1.1 2.1 3.8 3.1 8 3.1h2.2v3.4H519v-3.4h1.5c3.7 0 6.1-.6 7.3-1.9 1.2-1.2 1.8-3.9 1.8-7.9V231c0-8.5-.4-13.5-1.1-14.8-1-2-3.7-2.9-8-2.9H519v-3.4c3.6-.5 9.4-1.9 17.4-4.2l1.1-.3c1.5 4.5 2.2 9.7 2.2 15.7z"/><path fill="#377bbf" d="M667.2 266.9h-3.1c-.9-3.9-2.5-7.5-4.6-10.6-9.1 9.9-20.7 14.8-34.9 14.8s-25.9-4.6-35-13.7c-9.2-9.2-13.7-21-13.7-35.5 0-16.2 4.5-29.4 13.6-39.7 8.8-10.1 20.5-15.1 34.9-15.1 8.7 0 16.6 2 23.6 5.9 4.9 2.8 8.8 5.8 11.6 9.1.9-2.2 1.7-4.3 2.4-6.5s1.1-4.4 1.3-6.6h3.2v38.1h-2.3c-2-11.8-5.7-20.6-11.3-26.2-6.7-6.6-15.2-9.9-25.6-9.9-11.1 0-19.6 4.4-25.5 13.2-5.9 8.8-8.8 21.4-8.8 37.9 0 13.5 3.2 24.4 9.7 32.6 6.5 8.3 15 12.4 25.6 12.4 2.2 0 4.4-.2 6.6-.5 2.3-.4 4.5-1 6.6-1.8 2.2-.8 4.1-1.8 5.9-2.9 1.8-1.1 3.4-2.3 4.7-3.5 3-2.9 5.8-7.3 8.3-13.1 2-4.3 3.1-8.7 3.5-13.3h3.1v34.9zM685.6 214.9c6.4-6.4 14.2-9.6 23.5-9.6s17.1 3.2 23.5 9.6c6.4 6.4 9.6 14.2 9.6 23.6 0 8.3-3.1 15.6-9.4 21.9-6.2 6.2-14 9.3-23.6 9.3-9.5 0-17.3-3.1-23.6-9.3-6.2-6.3-9.3-13.6-9.3-21.9-.1-9.4 3-17.3 9.3-23.6zm23.4 51.6c7.1 0 12.3-2.4 15.5-7.1 3.2-4.7 4.9-11.5 4.9-20.4 0-20.1-6.8-30.1-20.4-30.1-13.5 0-20.2 10-20.2 30.1 0 18.3 6.7 27.5 20.2 27.5zM773.5 263.1c1.1 2.1 3.9 3.1 8.2 3.1h1.7v3.4h-33v-3.4h2.2c3.7 0 6.1-.6 7.3-1.9 1.2-1.2 1.8-3.9 1.8-7.9v-69.1c0-5.8-.2-9.2-.6-10.3-1.1-3-4-4.5-8.5-4.5h-1.1v-3.4h.8c1.7 0 3.8-.2 6-.5 2.3-.3 4.8-.7 7.7-1.2l2.5-.6c.8-.2 1.6-.5 2.5-.9h1.5v82.6c0 8.3.3 13.2 1 14.6zM812 263.1c1.1 2.1 3.9 3.1 8.2 3.1h1.7v3.4h-33v-3.4h2.2c3.7 0 6.1-.6 7.3-1.9 1.2-1.2 1.8-3.9 1.8-7.9v-69.1c0-5.8-.2-9.2-.6-10.3-1.1-3-4-4.5-8.5-4.5H790v-3.4h.8c1.7 0 3.8-.2 6-.5 2.3-.3 4.8-.7 7.7-1.2l2.5-.6c.8-.2 1.6-.5 2.5-.9h1.5v82.6c-.1 8.3.2 13.2 1 14.6zM851.5 263.1c1 2 3.7 2.9 7.9 2.9h1.7v3.5h-33V266h2.5c3.7 0 6.1-.6 7.3-1.7 1.2-1.1 1.8-3.7 1.8-7.7V230c0-7.9-.5-12.8-1.5-14.5-.9-1.6-3.6-2.5-8-2.5h-2v-3.5c4.3-.5 8.2-1.1 11.6-1.6 3.4-.6 6.4-1.4 9.1-2.5h1.7v43.2c-.2 8.3.2 13.1.9 14.5zM838 168.6c1.4-1.5 3.3-2.3 5.7-2.3 2 0 3.7.8 5.3 2.3 1.6 1.5 2.4 3.4 2.4 5.6s-.8 4-2.4 5.6c-1.6 1.6-3.4 2.4-5.3 2.4-2.2 0-4-.8-5.6-2.4-1.5-1.6-2.3-3.5-2.3-5.6s.8-4 2.2-5.6zM889.4 211.1c.4 2.1.7 4.5.8 7.2 7.1-8.6 15-13 23.6-13 9.4 0 15.3 3.6 17.9 10.8 1 2.6 1.5 4.9 1.5 6.9v25.5c0 8.3.3 13.2.9 14.5 1.2 2.1 4 3.1 8.3 3.1h.9v3.4h-31.6v-3.4h1.5c3.7 0 6.2-.6 7.4-1.8 1.2-1.2 1.9-3.8 1.9-7.9v-33c0-8.7-4.3-13.1-13-13.1-7.1 0-13.6 4.4-19.4 13.1v25.2c0 8.6.3 13.5.9 14.5 1.3 2.1 4.1 3.1 8.3 3.1h.9v3.4h-31.3v-3.4h1.2c3.6 0 6-.6 7.3-1.8 1.2-1.2 1.9-3.8 1.9-7.9V230c0-8.6-.3-13.5-.9-14.7-.9-2-3.7-2.9-8.2-2.9H869v-3.5c6-.6 11.2-1.6 15.6-2.9l1.4-.6h2.2c.4 1.7.8 3.6 1.2 5.7zM955.8 249.3c3.4 11.7 9.6 17.6 18.5 17.6 3.2 0 5.8-1 7.9-3.1 2.1-2.1 3.2-4.7 3.2-7.9s-1-5.8-3.1-7.9c-1-1-2.5-1.9-4.5-2.5-2-.7-4.4-1.7-7.4-3.2-7.8-3.8-12.9-7.8-15.3-11.9-1.4-2.7-2.2-5.5-2.2-8.3 0-2.4.4-4.6 1.3-6.6.9-2.1 2.1-3.8 3.6-5.3s3.3-2.7 5.4-3.5c2.1-.9 4.3-1.3 6.8-1.3 4.8 0 9.1 2.2 12.8 6.5.9-.9 1.9-2.7 2.9-5.4h2.8v19.1h-2.8c-1-4.9-3-9-5.9-12.1-2.9-3.1-6.3-4.7-10-4.7-2.9 0-5.3.9-7.3 2.7-2 1.8-2.9 4-2.9 6.6 0 1.4.2 2.7.7 3.9.5 1.1 1.2 2.2 2.3 3.3 1.1 1.1 2.6 2.2 4.5 3.2 1.9 1.1 4.2 2.2 7 3.5 7.7 3.5 13 7 15.7 10.6 2 2 2.9 5 2.9 9.3 0 5.3-1.7 9.7-5.2 13.1-3.4 3.4-7.9 5.1-13.5 5.1-5.4 0-10.4-2.3-15.3-6.8-1.4 1.5-2.5 3.6-3.2 6.2h-2.9v-20.1h3.2z"/><g><path fill="#999b9d" d="M579.5 290.1v-1.5h23.8c10.8 0 17.3 3.2 19.5 9.6l.7 3.1c.1.5.1 1.1.1 1.6 0 5.7-2.4 10.4-7.1 14.1-.2.1-.4.3-.5.4-4.3 3.1-10.4 4.6-18.4 4.6-3.8 0-6.7-.3-8.8-.8l-5.1 18.5c-.8 2.8-1.2 4.6-1.2 5.6 0 1.7.4 2.8 1.2 3.3.7.4 2.5.8 5.3 1.2v1.5h-23.5v-1.5c3-.4 4.9-1.1 5.7-2 .7-.8 1.4-2.5 2.2-5.1l11.3-40.8c1.1-3.8 1.6-6.3 1.6-7.7 0-1.6-.9-2.7-2.6-3.3-.9-.3-2.3-.6-4.2-.8zm16.9 4l-6.8 23.8c2.2.3 3.8.5 5 .5 5.5 0 9.7-.8 12.7-2.4 4.3-2.6 6.4-6.9 6.4-13.2 0-4.4-1.2-7.5-3.6-9.1-2.2-1.5-5.3-2.3-9.3-2.3-2.3 0-3.7.7-4.2 2.2-.1.2-.1.3-.2.5zM669.3 340l1.3.9c-4 5.6-6.9 9-8.8 10.2-1.4.6-2.9 1-4.4 1.1-2.7 0-4.2-1.2-4.5-3.7-.1-.3-.1-.5-.1-.9 0-2 1.4-8.3 4.3-18.9-6.8 11.3-12 18.4-15.7 21.2-2.2 1.7-4.6 2.5-7.2 2.5-3.4 0-5.1-1.8-5.1-5.3 0-1.5.8-5.5 2.4-11.8l3.6-13.6c.9-3.4 1.3-5.5 1.3-6.4 0-.8-.4-1.4-1.1-1.7-.7-.4-2.3-.6-4.7-.6v-1.3c4.4-.5 9.2-1.4 14.4-2.6l.3.2-8.7 34.8c-.1.2-.1.5-.1.9 0 1.4.7 2.2 2 2.4 3.1 0 7.6-4.7 13.5-14 2.8-4.4 5-8.7 6.6-13.1.8-2 2.1-5.4 3.9-10.4h7.1l-7.6 28.7c-1.2 4.6-1.8 7.1-1.8 7.5 0 1.1.4 1.6 1.1 1.6 1.1 0 2.7-1.3 4.9-3.8.8-1.1 1.9-2.4 3.1-3.9zM684.4 289.5v-1.6c4.8-.6 9.7-1.3 14.7-2.2l.5.5-10 37.2c4.7-7.3 9.1-11.8 13.1-13.4 1.7-.7 3.5-1.1 5.5-1.1 4.3 0 7.5 1.8 9.5 5.3 1.1 1.9 1.6 3.9 1.6 6.2 0 6.8-2.8 13.4-8.3 19.9-5.2 6.2-11.1 10-17.7 11.5-1.5.3-3 .5-4.5.5-3.8 0-7.3-.9-10.5-2.7-1.5-.8-2.3-1.6-2.3-2.4v-.4l13.1-48.1.2-.7c.1-.3.2-.9.5-1.8.6-2.1.9-3.5.9-4.1 0-1.2-.4-1.9-1.3-2.1-.8-.3-2.4-.4-5-.5zm20 24.1c-4.5 0-8.9 3.7-13.2 11-3.6 6.5-5.9 12.9-6.7 19.2-.1 1.1-.2 2.1-.2 3 0 2.2 1.5 3.3 4.4 3.3 4.2 0 8.2-1.9 11.8-5.7 4.1-4.3 7.2-9.5 9.2-15.6.9-2.6 1.3-4.9 1.3-6.9 0-4.2-1.5-6.8-4.4-7.9l-2.2-.4zM744.6 339.4l1.2.9c-4.1 6.1-7.5 9.8-10.2 11-1.3.6-2.8 1-4.4 1-3.1 0-4.7-1.8-4.7-5.4 0-.5.2-1.3.5-2.5l13.2-50.7c.3-.8.4-1.3.4-1.7 0-1.5-2.2-2.2-6.5-2.2v-1.5c4.6-.6 9.6-1.4 15-2.6l.5.5-14.6 55.5-.3 1c-.5 2-.8 3.3-.8 3.7 0 1.2.5 1.7 1.4 1.7 1.7 0 3.9-1.8 6.6-5.5.7-.7 1.6-1.8 2.7-3.2zM771.6 340.3l1.2 1.1c-4.1 6-7.6 9.5-10.6 10.5-.9.3-1.9.5-2.9.5-2.9 0-4.4-1.8-4.4-5.5 0-1.9.7-5.3 2.1-10.5l4.6-17c.6-1.9.9-3.3.9-4.2 0-1.1-.6-1.8-1.7-2l-4.3-.3v-1.5c2.9-.3 8.1-1.1 15.4-2.4l.3.2-8.4 30.9-.1.2v.2l-.5 1.7c-.6 1.7-1 3.1-1 4.2 0 .6.4 1.1 1.2 1.3.1.1.3.1.4.1.9 0 2.2-.9 3.9-2.6 1-1.1 2.3-2.7 3.9-4.9zm-.8-51.8c1.9 0 3.4 1 4.3 3 .3.8.5 1.5.5 2.3 0 2-.9 3.5-2.8 4.4-.6.3-1.2.5-1.9.5-2.4 0-3.8-1.2-4.4-3.5-.1-.5-.2-1.1-.2-1.6 0-2.4 1-4 2.9-4.8.5-.3 1.1-.3 1.6-.3zM781.3 337.2h1.5c1.3 7.7 3.9 12 7.8 12.9.6.1 1.3.2 2 .2 3.2 0 5.4-1.4 6.5-4.1.4-1 .6-2.1.6-3.3 0-2.7-1.8-6.4-5.4-11-4-5.2-6-9.3-6-12.4 0-4.5 2-7.7 6-9.4 1.7-.8 3.6-1.2 5.7-1.2 1.6 0 3.4.3 5.4 1 1.7.4 2.9.7 3.5.7 1.3 0 2.2-.6 2.9-1.7h1.3l-1.9 13.3h-1.5c-1-7.4-3.9-11-8.8-11-3 0-4.8 1.3-5.3 3.9-.1.4-.1.8-.1 1.2 0 2.4 1.7 5.8 5.2 10.1 4.4 5.4 6.5 9.9 6.5 13.4 0 4.7-2 8.2-6 10.6-2.2 1.3-4.8 1.9-7.8 1.9-1.5 0-3.3-.3-5.3-1-2.3-.6-3.9-.9-4.7-.9-.9 0-1.7.7-2.3 2h-1.5l1.7-15.2zM860.7 340l1.2 1.2c-3.8 5.6-7.1 9-9.9 10.2-1.2.5-2.6.8-4.1.8-2.4 0-3.8-1.1-4.1-3.3-.1-.3-.1-.5-.1-.8 0-1.1.6-4 1.9-8.8l5.3-19.9c.4-1.8.7-2.8.7-3.2 0-1.1-.6-1.8-1.8-2.2-.3-.1-.5-.2-.9-.2-2.4 0-5.8 2.4-10.1 7.2-1.7 2-3.3 4.1-4.8 6.3-2.5 3.8-4.5 8.1-6 13.1-.8 2.4-1.8 6-3 10.8h-7.2l13-49.2 1-3.6c.9-2.9 1.3-5.1 1.3-6.5 0-1-.6-1.7-1.9-2.3l-1.2-.2c-.2 0-.4 0-.5.1-.1.1-.2.1-.3.1h-2.5v-1.4c4.9-.6 9.9-1.4 15.1-2.6l.5.5-11.5 43c7.7-12 14.2-18.6 19.7-20 .8-.2 1.5-.3 2.3-.3 3 0 5 1.3 6 3.9.3.8.4 1.6.4 2.5 0 2.3-1.5 8.5-4.6 18.5-2 6.3-3.1 10.3-3.2 12 0 1 .5 1.5 1.5 1.7 1 0 2.4-1.1 4.2-3.2.8-.7 2-2.2 3.6-4.2zM899.3 340.8l1.2 1.2c-5.2 5.9-10.9 9.3-17.3 10.2-.9.1-1.8.2-2.6.2-5 0-8.6-2-10.8-6-1.2-2.1-1.8-4.5-1.8-7.2 0-6.7 2.7-13.1 8.1-19.2 5.2-6 10.9-9.5 17.2-10.7 1.3-.3 2.5-.4 3.6-.4 4.1 0 6.6 1.5 7.4 4.5.2.6.3 1.3.3 2 0 4.8-3 9-8.9 12.5-4.4 2.6-9.6 4.3-15.6 5.1l-2.7.4c-.6 2.6-1 4.5-1 6 0 3.9 1.7 6.5 5 7.9 1.2.5 2.6.8 4 .8 2.9 0 6-1.2 9.5-3.7 1.2-1.1 2.7-2.2 4.4-3.6zM879.5 327l-1.6 4.2c6.5-1.6 11.2-3.6 14.1-6 .4-.3.9-.7 1.3-1.2 3.2-3.1 4.8-6.2 4.8-9.3 0-2-.8-3.2-2.5-3.6l-.9-.1c-3 0-6.3 2.2-9.9 6.7-2.2 2.9-4 6-5.3 9.3zM920 351.2h-7.3l7.8-28c1-4.4 1.5-7 1.5-7.9 0-1.8-1.1-2.7-3.4-2.7-.6 0-1.7.2-3.3.5v-1.6c2.8-.4 7.8-1.3 14.9-2.6l.3.2-5.1 20.8 1.3-3.5c1.7-4.1 4.5-8.4 8.5-12.8l.8-.8c2.6-2.7 5-4 7.3-4s3.7 1.1 4.3 3.4c.1.5.2 1.1.2 1.6-.3 2.9-1.8 4.5-4.4 4.7-1.5 0-2.6-.6-3.3-1.7-.1-.1-.1-.3-.2-.4-.4-.9-1-1.3-1.5-1.3-1.7 0-4.2 2.8-7.5 8.4-2.9 4.9-5.5 10.5-7.6 16.9-.7 2.5-1.9 6.2-3.3 10.8zM948.4 337.2h1.5c1.3 7.7 3.9 12 7.8 12.9.6.1 1.3.2 2 .2 3.2 0 5.4-1.4 6.5-4.1.4-1 .6-2.1.6-3.3 0-2.7-1.8-6.4-5.4-11-4-5.2-6-9.3-6-12.4 0-4.5 2-7.7 6-9.4 1.7-.8 3.6-1.2 5.7-1.2 1.6 0 3.4.3 5.4 1 1.7.4 2.9.7 3.5.7 1.3 0 2.2-.6 2.9-1.7h1.3l-1.9 13.3h-1.5c-1-7.4-3.9-11-8.8-11-3 0-4.8 1.3-5.3 3.9-.1.4-.1.8-.1 1.2 0 2.4 1.7 5.8 5.2 10.1 4.4 5.4 6.5 9.9 6.5 13.4 0 4.7-2 8.2-6 10.6-2.2 1.3-4.8 1.9-7.8 1.9-1.5 0-3.3-.3-5.3-1-2.3-.6-3.9-.9-4.7-.9-.9 0-1.7.7-2.3 2h-1.5l1.7-15.2z"/></g></g><g id="Layer_2"><path fill="#ce3829" d="M4.8 209.5h109.3v-49.8s-6.4 1.6-11.3 8-8 16.1-8 16.1 3.2-14.5-1.6-20.9c-4.8-6.4-9.6-9.6-9.6-9.6s1.6 14.5-3.2 20.9-14.5 17.7-16.1 17.7c-1.6 0 9.6-14.5 9.6-27.3s-3.2-16.1-4.8-17.7c-1.6-1.6-8-6.4-8-6.4s-1.6 20.9-6.4 22.5c-4.8 1.6-14.5 6.4-19.3 11.3-4.8 4.8-8 9.6-8 9.6s1.6-9.6 4.8-17.7c3.2-8 4.8-11.3 4.8-11.3s-12.3 5.5-20.9 11.3C6.4 172.5 4.8 179 4.8 179v30.5z"/><path fill="#377bbf" d="M114.9 221.6v46.6H4v-46.6s4 .8 10.5-.8c6.4-1.6 9.6-6.4 9.6-6.4s0 16.1 6.4 16.1 19.3-14.5 20.9-16.1c1.6-1.6 1.6 16.1 6.4 16.1s14.5-17.7 16.1-16.1c1.6 1.6 0 16.1 4.8 16.1s12.9-16.1 16.1-16.1c3.2 0 3.2 9.6 9.6 9.6s10.5-2.4 10.5-2.4z"/></g></svg>
