<svg xmlns="http://www.w3.org/2000/svg" viewBox="0 0 500 500"><path d="M50.17 269.12h405.7V84.27s-23.76 5.94-41.94 29.69c-18.19 23.76-29.69 59.76-29.69 59.76s11.88-53.82-5.94-77.58c-17.82-23.76-35.63-35.63-35.63-35.63s5.94 53.82-11.88 77.58-53.82 65.7-59.76 65.7c-5.94 0 35.63-53.82 35.63-101.33s-11.88-59.76-17.82-65.7C282.9 30.82 259.14 13 259.14 13s-5.94 77.58-23.76 83.52-53.82 23.76-71.64 41.94c-17.82 17.82-29.69 35.63-29.69 35.63s5.94-35.63 17.82-65.7c11.88-29.69 17.82-41.94 17.82-41.94s-45.66 20.42-77.58 41.94c-36 23.38-41.94 47.51-41.94 47.51v113.22z" fill="#ce3829"/><path d="M458.84 314.03V487H47.2V314.03s14.85 2.97 38.97-2.97c23.76-5.94 35.63-23.76 35.63-23.76s0 59.76 23.76 59.76 71.64-53.82 77.58-59.76c5.94-5.94 5.94 59.76 23.76 59.76s53.82-65.7 59.76-59.76c5.94 5.94 0 59.76 17.82 59.76s47.88-59.76 59.76-59.76 11.88 35.63 35.63 35.63 38.97-8.9 38.97-8.9z" fill="#377bbf"/></svg>
