<svg xmlns="http://www.w3.org/2000/svg" viewBox="0 0 1000 500" xml:space="preserve"><style>.st0{display:none}</style><path id="Layer_3" fill="#c3a730" d="M400 352c-4-14-14-30-24-38-11-8-21-9-21-16s22-14 27-27c6-13-7-27-7-27s-3 0-2-38c0-37 26-53 33-60 8-7 8-32 8-32l-24-24-11 2-1 6c-3-6-8-10-12-11h-1l-14-18-16 15c-10-3-13-12-35-10-21 3-55 33-57 35l-15 1s-13 10-27 14l-7-19-83-66-14 29-36-16h-4l16 38-9 32c-1 7 11 10 10 16 0 6-13 23-18 30s-2 14-2 17c0 4-5 8-6 14s7 5 18 7c10 3 5 18 2 27l-13 45c1 0 3 0 12 5s8 10 9 32c0 22 24 18 28 21 5 2 0 15 7 27s18 26 36 29c18 4 28-17 35-18s19 18 23 23c4 4 9 15 30 24 16 7 64 18 87 24l20 6c50 18 48 10 48 10l-45-21-7-5 3-4c9-11 27-12 51-18s18-23 18-23-5-25-10-38z"/><path id="Layer_2" fill="#fad906" d="M57 52s3-2 5 0c3 1 2 13 8 13s12-1 21-10 16-18 19-18c2 0 1 1 1 9s0 16-2 19-7 16 9 25 31 11 48 11 38-15 38-15 12 0 15-2c2-1 36-32 57-34 22-2 25 7 35 9 10 3 26 3 31 4 4 0 10 5 12 10 3 6 3 15 14 16l22 1s0 25-8 32c-7 7-33 22-33 60s2 37 2 37 13 15 7 28c-5 12-26 20-26 27-1 7 9 8 20 16 10 8 20 24 24 37l10 39s7 17-18 23c-24 6-42 7-51 18s-8 16-8 16-77-18-98-26c-21-9-26-20-30-25s-17-23-24-22c-6 1-16 22-34 18-18-3-29-18-36-29-7-12-17-18-22-21-4-3-13-6-14-27 0-22 0-28-9-32-8-5-11-5-11-5l13-45c2-10 8-25-3-27s-19-1-18-7c2-6 7-10 7-14s-3-11 2-17 18-24 18-30c1-6-11-9-10-16s9-41 17-46z"/><path id="Layer_6" fill="#b09831" d="M277 177h-50l-2-2v-53c0-3-2-4-4-4h-12c-3 0-4 2-4 4v53l-2 2h-52c-3 0-5 3-5 6v9c0 3 2 5 5 5h52l2 2v163c0 4 3 7 7 7h6c4 0 7-3 7-7V199l2-2h50c3 0 6-2 6-5v-9c0-3-3-6-6-6z"/><g id="Layer_5"><path fill="#c3a730" stroke="#96853b" stroke-miterlimit="10" d="M270 166h-50l-2-2v-54c0-2-2-4-4-4h-12c-3 0-4 2-4 4v54l-2 2h-52c-3 0-5 2-5 5v9c0 3 2 6 5 6h52l2 2v163c0 4 3 7 7 7h6c4 0 7-3 7-7V188l2-2h50c3 0 6-3 6-6v-9c0-3-3-5-6-5z"/><path d="M493 195h-22v16h25v12h-38v-66h37v12h-24v14h22v12zM517 170h-16v-13h46v12h-17v54h-13v-53zM589 195h-22v16h25v12h-38v-66h37v12h-24v14h22v12zM601 158l18-1c9 0 15 1 19 5 4 3 6 7 6 13 0 9-6 14-11 16v1c4 2 7 6 8 12l5 18h-14l-4-15c-2-8-4-10-10-10h-4v25h-13v-64zm13 28h6c6 0 10-4 10-9 0-6-3-9-10-9h-6v18zM653 223v-66h16l13 24c3 7 7 15 9 23h1l-2-28v-19h13v66h-14l-13-26-10-23h-1l1 29v20h-13zM728 206l-4 17h-14l18-66h18l19 66h-15l-5-17h-17zm15-11-3-14-3-13h-1l-2 13-4 14h13zM772 157h14v53h24v13h-38v-66zM835 157h14v53h24v13h-38v-66zM894 157v66h-13v-66h13zM906 157h36v12h-23v15h22v12h-22v27h-13v-66zM988 195h-22v16h24v12h-38v-66h37v12h-23v14h22v12zM508 304v-27h-1l-6 25-8 26h-10l-6-26-6-25-1 27-1 25h-13l4-66h18l6 22 5 23 6-23 6-22h18l3 66h-13l-1-25zM546 263v66h-13v-66h13zM558 329v-66h15l13 24 10 23-1-28v-19h12v66h-14l-13-26-10-23v49h-12zM632 263v66h-13v-66h13zM644 313c4 2 9 4 15 4 6 1 10-2 10-7 0-4-3-6-10-9-10-4-17-10-17-19 0-11 9-20 23-20 7 0 12 2 15 3l-3 13c-2-2-6-4-12-4s-9 3-9 7 3 6 11 9c10 4 15 10 15 19 0 11-7 21-24 21-6 0-13-2-17-4l3-13zM703 276h-16v-13h46v13h-16v53h-14v-53zM740 264l18-1c9 0 15 1 19 5 4 3 6 8 6 14 0 8-6 14-11 16 4 2 7 6 8 12l5 19h-14l-4-16c-2-8-4-10-10-10h-4v26h-13v-65zm13 28h6c6 0 10-4 10-9 0-6-3-9-10-9h-6v18zM806 263v66h-13v-66h13zM853 301h-22v15h25v13h-38v-66h37v12h-24v14h22v12zM865 313c4 2 9 4 15 4 6 1 10-2 10-7 0-4-3-6-10-9-10-4-17-10-17-19 0-11 9-20 23-20 7 0 12 2 15 3l-3 13c-2-2-6-4-12-4s-9 3-9 7 3 6 11 9c10 4 15 10 15 19 0 11-7 21-24 21-6 0-13-2-17-4l3-13z"/></g></svg>
