<svg xmlns="http://www.w3.org/2000/svg" id="Layer_1" x="0" y="0" version="1.1" viewBox="0 0 1000 1000" xml:space="preserve"><style>.st0{fill:#c3a730}</style><path d="M916 739c-10-31-32-67-56-84-23-18-46-21-46-36 1-16 48-33 60-62 13-28-15-61-15-61s-6 1-6-84 60-120 76-136c17-16 18-72 18-72l-54-55-25 4-3 13c-6-12-17-22-28-23l-32-41-38 33c-23-5-29-26-77-21s-126 74-130 77c-5 3-33 4-33 4s-30 21-61 30l-16-42L263 33l-31 65-82-36h-9l36 87c-10 27-18 62-20 72-3 16 24 23 23 36s-31 53-41 67-5 32-5 40-11 17-14 31c-4 14 17 12 40 16 23 5 12 39 6 61-5 22-29 101-29 101s7 0 25 10c19 11 19 24 21 73 1 49 54 40 65 47 10 6-1 35 15 61 15 26 41 59 81 67s63-39 78-41c15-3 45 39 54 50s19 36 67 56c36 14 145 41 195 53l46 15c113 39 109 21 109 21l-103-46c-5-2-10-7-15-12l7-9c20-24 60-26 116-39s39-53 39-53-11-56-21-87z" class="st0"/><path fill="#fad906" d="M141 62s6-4 12 0c5 4 4 31 16 31s27-2 49-23 37-40 42-40c4 0 3 3 3 19s1 38-4 44c-5 7-16 35 19 56s70 25 109 24c39 0 86-33 86-33s28-1 33-4c4-3 82-72 130-77s54 15 77 21c23 5 59 6 70 8 11 1 22 11 28 23s7 32 31 35c25 3 51 2 51 2s-1 57-18 73-76 51-76 136 6 84 6 84 27 33 15 61c-12 29-59 46-60 62 0 15 23 18 46 35s46 54 56 85 21 87 21 87 16 39-39 52c-56 14-96 16-116 40s-18 37-18 37-174-40-222-59c-47-20-58-45-67-56s-38-53-53-50c-16 2-38 49-78 41s-66-41-81-67c-16-26-39-41-49-47s-30-12-32-61c-1-49-1-62-20-72s-25-11-25-11l29-101c6-22 17-56-6-61s-44-2-41-16 14-23 14-31-5-26 6-40c10-14 40-54 41-67s-26-20-23-36 21-92 38-104z"/><path fill="#b09831" d="M638 346H523c-2 0-4-2-4-5V220c0-5-4-9-9-9h-27c-5 0-9 4-9 9v121c0 3-2 4-4 4H353c-7 1-12 6-12 13v21c0 7 5 12 12 12h117c2 0 4 2 4 4v368c0 9 7 16 16 16h13c9 0 16-7 16-16V395c0-2 2-4 4-4h115c7 0 12-5 12-12v-21c0-7-5-12-12-12z"/><path d="M622 319H508c-3 0-4-2-4-4V194c0-5-5-9-10-9h-27c-5 0-9 4-9 9v121c0 2-2 4-4 4H337c-7 0-12 6-12 12v21c0 7 5 13 12 13h117c2 0 4 1 4 4v368c0 9 7 16 16 16h14c8 0 16-7 16-16V369c0-2 1-4 4-4h114c7 0 13-6 13-12v-22c0-6-6-12-13-12z" class="st0"/><path fill="#96853b" d="M488 754h-14c-9 0-17-8-17-17V369c0-2-1-3-3-3H337c-7 0-13-6-13-13v-22c0-7 6-13 13-13h117c2 0 3-1 3-3V194c0-6 5-10 10-10h27c6 0 11 4 11 10v121c0 2 1 3 3 3h114c8 0 13 6 13 13v22c0 7-5 13-13 13H508c-2 0-3 1-3 3v368c0 9-8 17-17 17zM337 320c-6 0-11 5-11 11v21c0 7 5 12 11 12h117c3 0 5 2 5 5v368c0 8 7 15 15 15h14c8 0 15-7 15-15V369c0-3 2-5 5-5h114c7 0 12-5 12-11v-22c0-6-5-11-12-11H508c-3 0-5-2-5-5V194c0-4-4-8-9-8h-27c-4 0-8 4-8 8v121c0 3-2 5-5 5H337z"/></svg>
