<svg xmlns="http://www.w3.org/2000/svg" viewBox="0 0 500 500"><path fill="#b1104c" d="M155.28 108c-4.84 2.8-10.19 6.37-16.55 11.21-6.11 4.58-10.95 8.4-14.01 11.46-5.09 5.09-7.64 10.44-7.39 16.05.25 5.6 1.53 10.7 4.07 15.79l50.17 100.86 144.15-71.57-48.9-98.56c-2.8-5.6-6.11-9.68-10.19-12.48-4.07-2.8-9.68-4.08-17.32-3.82-5.09.25-11.46 1.02-19.1 2.8-7.64 1.78-13.75 3.31-18.08 5.09l-9.17-18.59L300.2 13H4v147.21l142.12-70.55 9.16 18.34zM161.14 462.27c.25-5.35-1.27-10.7-4.07-16.55L38.38 206.82c-2.8-5.6-6.11-9.68-9.93-12.48-3.82-2.8-9.68-4.08-17.32-3.82-2.29 0-4.58.25-7.13.76v294.93h139.57c4.84-3.31 8.15-6.11 10.44-8.4 4.58-5.1 6.88-10.19 7.13-15.54zM346.3 32.87c.25 5.35 1.53 10.7 4.08 16.05l118.68 239.15c2.8 5.6 6.37 9.93 10.19 12.99 4.08 3.06 9.68 4.33 17.06 4.08h1.02V13H358.01c-1.53 1.27-3.31 2.8-4.58 4.08-4.84 5.09-7.13 10.18-7.13 15.79zM497.58 335.94l-136.77 68-9.17-18.59c3.82-2.29 9.42-5.6 16.55-9.93 7.39-4.33 11.97-7.9 14.26-10.7 4.58-5.35 7.13-10.44 7.39-15.54.25-5.09-1.02-10.44-4.07-16.55l-57.81-116.39-144.15 71.57 56.54 113.85c2.8 5.35 6.11 9.68 10.7 12.73 4.33 3.06 9.93 4.58 16.81 4.08 3.57-.25 9.42-1.53 17.57-3.57 7.9-2.29 14.52-4.33 19.1-6.37l9.17 18.59-118.18 58.58h302.06V335.94z"/><path d="M304.53 408.78c-4.84 2.04-11.21 4.07-19.1 6.37-7.9 2.29-13.75 3.31-17.57 3.57-6.62.25-12.22-1.02-16.81-4.07-4.33-3.06-7.9-7.39-10.7-12.73l-56.54-113.85 144.15-71.57 57.81 116.39c3.06 6.11 4.33 11.46 4.08 16.55s-2.8 10.19-7.39 15.54c-2.29 2.8-6.88 6.11-14.26 10.7-7.39 4.33-12.73 7.64-16.55 9.93l9.17 18.59 136.77-68v-31.07h-1.02c-7.39.25-12.99-1.02-17.06-4.08s-7.39-7.39-10.19-12.99L350.37 48.91c-2.55-5.35-4.08-10.7-4.08-16.05-.25-5.35 2.29-10.7 7.39-15.79 1.53-1.27 3.06-2.8 4.58-4.08h-57.81L193.23 66.23l9.17 18.59c4.33-1.53 10.44-3.31 18.08-5.09 7.64-1.78 14.01-2.8 19.1-2.8 7.64-.25 13.5 1.02 17.32 3.82 4.07 2.8 7.39 6.88 10.19 12.48l48.9 98.56-144.15 71.57-50.17-100.86c-2.55-5.09-3.82-10.44-4.07-15.79-.25-5.6 2.29-10.95 7.39-16.05 3.06-2.8 7.64-6.62 14.01-11.46 6.11-4.58 11.72-8.4 16.55-11.21l-9.17-18.59L4 160.21v30.82c2.55-.25 5.09-.51 7.13-.76 7.64-.25 13.24 1.02 17.32 3.82 3.82 2.8 7.13 7.13 9.93 12.48l118.68 238.9c2.8 5.6 4.07 11.21 4.07 16.55 0 5.35-2.55 10.44-7.13 15.28-2.29 2.29-5.6 5.09-10.44 8.4h52.21l118.17-58.58-9.41-18.34z" fill="#fff"/></svg>
