<svg xmlns="http://www.w3.org/2000/svg" viewBox="0 0 1000 500" xml:space="preserve"><style>.st0{fill:#dfe0df}.st1{font-family:&apos;TrajanSansPro-Regular&apos;}</style><g id="Layer_4"><path d="M62 335h342v4H62zM639 336h295v3H639z" class="st0"/></g><g id="Layer_2"><text class="st1" font-size="70" transform="matrix(1 0 0 1.2 62 305)">HERMON</text><text class="st1" font-size="72" transform="matrix(1 0 0 1.2 629 305)">FORLAG</text></g><g id="Layer_3"><linearGradient id="SVGID_1_" x1="452.2" x2="622.2" y1="128.6" y2="248.4" gradientUnits="userSpaceOnUse"><stop offset="0" stop-color="#e8d7c1"/><stop offset="1" stop-color="#cead76"/></linearGradient><path fill="url(#SVGID_1_)" d="M479 237s9 1 9-4c1-5-3-17 1-23A9670 9670 0 0 1 637 11s-6 25-22 58l-21 47s22-19 24-18c2 0-1 14-6 30l-19 51s7-8 7-5l-7 33h4s-2 16-5 19c-4 2 0 7 0 7s22 38-4 68-39 33-39 33-12-1-11 3c1 5 7 7 7 7s-16-5-12 4c4 10 83 144 83 144s-42-56-52-65-19-24-35-23c-15 1-18 14-18 14s-4-5-5-16l-6-29c-1-2-3-13-2-16 0-2-43-24-44-49s0-53-3-57-9-13-13-13l-6 1s3-6 6-7c4 0 7-10 20-9 14 1 15 15 21 14z"/></g></svg>
