<svg xmlns="http://www.w3.org/2000/svg" viewBox="0 0 1000 1000" xml:space="preserve"><linearGradient id="a" x1="366" x2="708.9" y1="249" y2="490.4" gradientUnits="userSpaceOnUse"><stop offset="0" stop-color="#e8d7c1"/><stop offset="1" stop-color="#cead76"/></linearGradient><path fill="url(#a)" d="M420 468s19 2 19-8c1-11-6-35 0-48A20354 20354 0 0 1 738 11s-11 50-43 118-42 94-42 94 44-38 47-37c4 1-1 30-12 62s-38 102-38 102 14-15 14-10-14 66-14 66h9s-5 33-11 38c-7 5 0 15 0 15s45 76-8 137-78 68-78 68-24-4-22 6c2 9 14 13 14 13s-33-10-25 9 168 289 168 289-86-113-105-131c-20-18-39-48-70-47-31 2-37 29-37 29s-7-11-11-32-10-57-11-60c-2-2-6-26-5-31s-85-49-87-99c-2-51-1-107-6-114s-18-28-26-28-14 2-14 2 6-11 14-13c8-1 13-20 40-18 28 2 29 30 41 29z"/></svg>
