<svg xmlns="http://www.w3.org/2000/svg" viewBox="0 0 1000 500"><path d="M542.3 151.7c-2.1-.1-4.3 0-6.4-.3-1.3-.2-2.6.3-3.9.4-.8.1-1.6.3-2.4.2-2.6-.2-5 .5-7.5 1.3-3.1 1-6.2 2.2-9.4 2.8-2.8.5-5.4 1.5-8.1 2.3-2.3.7-4.7 1.2-7 2.1-1.9.8-3.8 1.5-5.5 2.6-.5.3-1.1.6-1.7.7-1.6.3-3.1.9-4.6 1.7-.4.2-.8.5-1.3.5-2.1.3-3.9 1.5-5.7 2.5-2 1-4 1.9-5.9 2.9-1.5.8-3.1 1.4-4.8 2-2.2.8-4.2 2-6 3.6-.3.3-.6.6-1 .8-1.4.7-2.5 1.7-3.5 2.9-.2.3-.5.6-.8.7-1.7.4-3 1.8-4.7 2.2-1.4.4-2.3 1.2-2.5 2.8 0 .4-.2.7-.2 1-.2 2.5-.3 5-.6 7.5-.2 1.8-.2 3.6-.7 5.3-.8 2.5-.7 5.1-1 7.7-.4 3.6-.1 7.3-.8 11-.3 1.9-.1 3.9 0 5.8.1 2.7-.1 5.4-.2 8.1-.1 3.3-1 6.5-.9 9.8.1 2.8-.8 5.5-.9 8.3 0 .4-.1.8 0 1.2.6 2.2.3 4.4 0 6.5-.2 1.7-.3 3.5-.2 5.2.1 1.7-.4 3.2-1.6 4.4-1.6 1.8-3.5 3.2-5.5 4.5-2 1.2-4 2.1-6.1 3.1-1 .4-1.6 1.3-2.4 1.8-1.7 1.2-3.5 2.3-5.1 3.7-.7.6-1.6.8-2.4 1.3-4.5 2.5-9.1 4.9-13.5 7.5-1.2.7-2.4 1.2-3.5 2.1-.4.3-1 .6-1.5.8-1.9.7-3.6 1.7-5.3 2.6-.5.3-1 .4-1.6.3-1.3-.3-1.8-1-1.3-2.3.3-.9.7-1.7 1.6-2.2.8-.5 1.1-1.6 1.8-2.2 1.3-1.1 2.5-2.3 3.7-3.4.6-.6 1.2-1.3 1.6-2 .4-.7.3-.9-.5-1-.4-.1-.8-.1-1.2-.3-2.2-1.1-2.8-2.6-1.4-4.7 1-1.5 1.9-3 3.4-4.1 1.1-.8 1.9-1.8 2.9-2.7.3-.3.5-.6.6-.9.6-1.6 1.4-3.1.7-4.8-.1-.3-.1-.6 0-.9.2-1 0-2-.5-2.8-.8-1.5-.8-3.1-.3-4.6.4-1.3.5-2.5-.3-3.8-.8-1.3-.5-2.8.1-4.1 1.2-2.5.7-5.2.8-7.8 0-.7-.4-1-.9-1.2-.9-.3-1-.9-.9-1.7.2-1.2.4-2.4 1-3.5 1-2 2.3-3.8 4-5.3.6-.5 1-1.2 1.2-1.9.6-2.4 1.6-4.8 2.8-6.9.8-1.6.7-2.5-.4-3.7-.9-.9-1.1-2.2-1.1-3.4 0-2.3-.2-4.7-.3-7-.1-1.7-.3-3.4-.8-5-.4-1.4-.4-2.8-.3-4.2.1-2.4.7-4.6.8-7 0-1-.2-1.9-.7-2.8-1.6-2.5-2.8-5.3-3.7-8.2-.5-1.5-1.1-2.9-2-4.3-.9-1.2-1.4-2.6-2.2-3.9-.9-1.5-2.1-2.7-3.5-3.8-1-.7-1.7-1.7-2.6-2.6-.9-.9-.9-2.1-.6-3.3.3-.8.4-1.7.4-2.6-.1-2.6 1-4.5 3.2-5.9l3.3-2.1c.6-.4 1.2-.7 1.8-.7 1.9-.2 3.7-.9 5.5-1.2.8-.1 1.6-.2 2.4-.2 1.5-.1 2.4-.9 2.4-2.4 0-4.2.7-8.4.6-12.7 0-1.2-.1-2.4-.6-3.6-.3-.7-.2-1.4-.3-2.1-.6-3.1-1-6.2-1.2-9.4-.1-1.3-.1-2.6-.5-3.9-.2-.7-.1-1.6-.1-2.4.1-4.2-.3-8.4-.3-12.7 0-1.7 0-3.4-.6-5-.3-.7-.1-1.4-.1-2.1.2-2.3-.2-4.5-1.3-6.6-.7-1.3-1.1-2.8-1.2-4.2-.1-1.9-.8-3.7-1.8-5.3-.3-.4-.4-.9-.6-1.4-.7-2-1.1-4.1-1.1-6.3 0-1-.4-2-1-2.8-1.6-2.2-1.9-4.6-1.5-7.1.1-.6.2-1.1.3-1.7.3-1.6.3-3.1-.2-4.7-.5-1.7-.9-3.5-.9-5.3 0-1.8-.3-3.7-.3-5.5 0-1.4-.3-2.8-1-4.1-.8-1.5-1.4-3-1.5-4.8-.1-1.4-.9-2.7-1.6-3.9-.3-.6-.9-1-1.6-1.1-1-.2-2-.5-2.9-.9-.3-.1-.6-.2-.9-.2-3.9-.1-7.5-1.3-10.8-3.3-1.2-.7-2.2-1.7-2.6-3.1-.7-2.5.3-4.5 1.9-6.1 3.9-3.6 8.5-4.2 13.3-2.3.7.3 1.5.5 2.2.3 2.7-.7 5.5-.8 8.3-1.1 2.6-.3 5.1-.7 7.7-1.3.6-.2 1.3-.4 1.8-.8 2.3-1.6 5-2.1 7.5-3 1.7-.7 3.5-1.2 5.2-1.8 3.1-1.1 6.3-1.3 9.5-1.7 1.9-.2 3.9.2 5.5 1.4.7.5 1.6.7 2.3 1.2 1.7 1.1 2.4 2.7 2.2 4.7-.2 1.8-.5 3.5-.8 5.3-.4 2-.4 4.1-.4 6.1 0 1.7 0 3.3.3 5 .3 1.9 0 3.8 0 5.8 0 4.1.4 8.2.3 12.4-.1 4 0 7.9-.5 11.9 0 .3-.1.5 0 .8.5 2.4-.1 4.8-.1 7.2 0 .5 0 1-.1 1.4-.7 1.8-.4 3.5-.1 5.3.4 2.6.5 5.3.6 7.9.1 3.1.3 6.1.2 9.2 0 2.1.1 4.3.4 6.4.1 1 .3 2-.2 3-.2.4-.1.9 0 1.4.8 4.1.9 8.3 1.9 12.4.3 1.3.4 2.6.3 3.9-.1 1.1 0 2.1.2 3.2.3 2.3.6 4.5.6 6.8v.8c-.6 2.2.3 4.3.4 6.5 0 .5.2.7.9.6 1.5-.2 3-.7 4.4-1.2 2.1-.7 4.3-1.2 6.5-1.8.6-.2 1.3-.4 1.9-.7 2.8-1.2 5.6-1.4 8.5-.9 2.2.4 4.3.3 6.5.1 2.7-.2 5.3-.9 8-1.2 2.5-.3 5.1-.3 7.6 0 2.5.4 5.1.2 7.6-.2 3.6-.5 7.2-1.3 10.8-1.9 2.5-.4 5-.3 7.5-.1 1.7.2 3.3.1 5 0 2.2-.2 4.4-.4 6.5.3 2.4.8 4.8.6 7.3.4 2-.2 4-.4 6.1-.5 4.1-.2 8.1-.5 12.2-1.2.2 0 .5 0 .6-.1.9-1 2.1-1 3.3-1 2-.1 3.1-1.2 3.7-2.9.8-2.4 2-4.6 2.9-6.9.9-2.4 2.2-4.6 3-7.1.1-.4.3-.7.6-1.1.8-1.2 1.2-2.5 1.7-3.9.9-2.9 2-5.8 3-8.7.3-.9.6-1.8.9-2.8.3-.9.6-1.8 1.1-2.7.9-1.8 1.5-3.8 2.1-5.7.6-1.7 1.4-3.4 2.1-5.1.4-.9.9-1.7 1.1-2.7.5-1.9 1.4-3.8 2.3-5.5 1.2-2.2 2.6-4.2 4.4-6 .1-.1.3-.3.5-.3 1.3-.4 2.6-1 3.9-1.3 1.6-.3 2.8-1 4.1-1.9 1-.7 2.3-.9 3.4-1.2.7-.2 1.4-.4 2-.8.3-.1.5-.3.8-.4 3.1-.7 5.8-2.5 8.9-3.1 1.3-.2 2.4-.9 3.5-1.5 1.6-.9 3.3-1.7 5.2-1.4 1.7.3 3.3.5 4.9.9 1.9.4 2.8 2.2 2.2 4.1-.2.6-.4 1.3-.7 1.9-.3.7-.4 1.5-.3 2.2.2 1.1-.2 2.1-.6 3.1-1 2.7-3.4 4.4-4.9 6.7-.4.6-.9 1.1-1.4 1.7-.4.6-.9 1.1-1.6 1.4-.5.2-.7.5-.9 1-.4.9-1 1.7-1.7 2.3-2.7 2.7-4.4 5.9-5.4 9.6-.6 2.2-1.3 4.4-2.8 6.3-1.2 1.5-1.9 3.3-1.7 5.4.1 1.5-.4 3.1-1.2 4.5-.6 1.1-.9 2.2-.8 3.4.1 2.7-1 5.1-2.5 7.2-.8 1.2-1.2 2.6-1.7 3.9-.2.7-.4 1.4-.8 2-1 1.7-1.9 3.5-3.2 5-1.3 1.6-2.9 2.8-4.7 3.9-1.4.8-2.1 1.9-1.9 3.5.2 1.2.2 2.4 1 3.5.6.9.1 2 .1 3 0 1.2-.3 2.5-1 3.5-.8 1.2-.8 2.8-2.1 3.7-.1.1-.1.3-.1.4-.4 3.3-1.1 6.5-2.1 9.7-.6 1.9-1 3.9-1.5 5.9-1.2 4.9-1.9 9.9-1.6 15 .1 2.1.1 4.2-.2 6.3-.4 2.7-1.7 5.1-2.7 7.6-.8 1.9-1.2 3.9-1.1 5.9.1 2.4-.6 4.7-.9 7.1-.3 2.2-.7 4.3-.7 6.5 0 3.2-.3 6.5-.9 9.7-.3 1.5-.9 3-1.3 4.5-.8 3.1-.9 6.1-.1 9.2.7 2.4 1.6 4.9 1.2 7.5-.3 2.1.4 4.1.7 6.2.2 1.3.6 2.4 1 3.7.7 2.3 1.3 4.6.8 7-.2 1-.3 2-.2 3 0 1.1.6 2.2 1.2 3.2.9 1.4 1.2 2.9.5 4.5-.3.7-.2 1.4 0 2.1.3 1 .8 1.9 1.2 2.8.8 1.4 1 2.9.1 4.4-.4.7-.5 1.2.3 1.7.2.1.4.3.5.6.2 1.3 1.2 1.9 2.1 2.4 1.7.9 3.5 1.4 5.3 1.9.6.2 1.5.1 1.7.7.2.8-.6 1.2-1.1 1.7-1.1.9-2.4 1.2-3.8 1.5-.4.1-.8.1-1.2 0-3.2-.3-6.5 0-9.7-.3-1.2-.1-2.4-.4-3.6-.8-2-.7-4.1-1-6.3-1-.9 0-1.7-.1-2.6-.3-.7-.1-1.4-.3-2.1-.2-.8.1-1.6-.3-2.4-.6-1.6-.7-3.3-1.2-5-1.5-2.4-.4-3.9-1.9-4.8-4-1-2.4-1.9-4.8-1.7-7.5.2-2.7-.8-5.2-1.7-7.7-1.5-4.2-2.4-8.5-2-13 .1-1.3-.1-2.5-.5-3.8-1.3-3.8-1-7.7-.1-11.5.5-2.1 1-4.3 1.3-6.4.4-2.6 1.5-5 3.1-7.1.8-1 1-2.1.6-3.3-1-3-1.7-6.1-2.1-9.2-.2-1.7.1-3.2.7-4.8.2-.4.3-.9.6-1.2 1.1-1.5.9-3.1.5-4.8-.7-2.9-.5-5.8.2-8.6.5-1.8 1.1-3.6 2.1-5.2.7-1.2.7-2.6.9-3.8.3-2.2.5-4.5.8-6.7.5-3.8 1-7.6 1.6-11.4.5-2.9-1-5.6-3.3-7.2-.5-.4-1-.7-1.6-1-1-.6-2-1-3.2-1-1.3-.9-2.7-.9-4.1-.9zM751.2 445.3c-.4.7-.4 1.3-.4 2v35.5c0 2.4.2 4.8.8 7.1.6 2 1.6 3.6 3.7 4.4.4.1.8.3.7.8-.1.5-.6.5-1 .5h-18.6c-.5 0-1 0-1.5-.1-.3 0-.5-.2-.5-.5s.1-.5.3-.6l.1-.1c3.2-1.2 3.9-3.9 4.4-6.8.4-2.2.3-4.4.3-6.6v-59.4c0-.6 0-1.1.1-1.7.1-.8.6-1 1.3-.6.3.2.5.5.8.7 5.1 5.6 10.3 11.2 15.4 16.8 4 4.3 7.9 8.6 11.9 13 6.8 7.4 13.7 14.9 20.5 22.3.4.4.7.9 1.2 1 .4-.4.3-.8.3-1.2v-37.3c0-2-.2-4-.8-5.9-.6-2-1.6-3.5-3.6-4.3-.4-.1-.8-.3-.7-.8.1-.6.6-.6 1.1-.6h18.8c.6 0 1.4-.3 1.6.5.2.8-.7.9-1.2 1.1-1.3.7-2.2 1.7-2.7 3s-.9 2.6-1 4c-.1 2-.3 4-.3 6v56.9c0 1.1.1 2.1.1 3.2 0 .4 0 .9-.4 1.1-.5.2-.9 0-1.2-.3-.2-.3-.5-.5-.7-.8-6.9-7.5-13.9-15-20.8-22.5-7.4-8-14.7-16-22.1-23.9-1.6-1.7-3.2-3.5-4.7-5.2-.3-.1-.6-.6-1.2-.7zM296.5 460.4c-.3-4.5.2-9.2 1.5-13.8 2.9-10.8 9.6-18.1 19.9-22.3 5.7-2.3 11.6-3.2 17.7-3 6 .2 11.7 1.4 17.2 4 8.9 4.3 14.9 11.1 17.5 20.7 2.4 8.6 2.5 17.4.2 26-3.4 12.5-11.7 20.2-24 23.8-3.9 1.2-8 1.8-12.1 1.7-9.7-.1-18.8-2.6-26.4-9-4.3-3.6-7.2-8.2-9.1-13.4-1.6-4.7-2.5-9.5-2.4-14.7zm37.6-30.2c-2.3-.1-4.8.1-7.2.7-5.3 1.2-9.8 3.7-13.2 8-2.2 2.8-3.6 6-4.6 9.4-1.3 4.6-1.5 9.4-1.2 14.1.3 4.9 1.3 9.7 3.7 14.1 2.7 5.1 6.8 8.6 12.2 10.5 6 2 12 2.1 18.1.7 7.6-1.8 12.8-6.4 15.8-13.6 1.5-3.6 2.2-7.4 2.5-11.3.4-5.8 0-11.4-2-16.9-2.9-8.1-8.5-13.2-17-15.1-2.1-.5-4.5-.6-7.1-.6zM728.2 459.4c.2 5.1-.5 10.2-2.2 15.1-3.2 9.2-9.2 15.6-18.1 19.5-4.9 2.1-10 3.2-15.3 3.4-7.1.3-13.9-.8-20.4-3.9-9.3-4.3-15.3-11.5-17.9-21.3-2.5-9.4-2.4-18.9.7-28.2 3-8.9 9-15.2 17.5-19 4.6-2.1 9.5-3.1 14.5-3.5 6.3-.5 12.3.3 18.2 2.3 12.5 4.4 19.8 13.3 22.2 26.3.7 3.1.9 6.1.8 9.3zm-11.4-.6c.1-3.6-.4-7.7-1.6-11.7-2.6-8.3-8-13.9-16.5-16.1-4.5-1.2-9.1-1.2-13.7-.5-8.5 1.3-14.6 5.8-18 13.7-1.6 3.7-2.3 7.6-2.6 11.6-.4 6 .1 11.9 2.3 17.6 2.8 7.2 7.9 12.1 15.4 14.1 5.4 1.5 10.9 1.5 16.3.2 7.4-1.8 12.6-6.2 15.7-13.2 2-4.7 2.7-9.9 2.7-15.7zM379.6 359.4c.1 5-.5 9.6-1.9 14.1-3.3 10.6-10.2 17.7-20.6 21.5-5.4 2-11.1 2.9-16.8 2.7-7-.3-13.7-1.9-19.8-5.5-7.2-4.3-11.9-10.5-14.5-18.5-1.2-3.9-1.8-7.9-2-11.9-.2-6 .3-12 2.4-17.8 3.5-9.8 10.4-16.3 20.1-19.8 6.7-2.4 13.6-3.1 20.6-2.3 4.3.5 8.4 1.5 12.4 3.3 10 4.5 16.3 12.2 18.8 22.9 1 3.8 1.5 7.7 1.3 11.3zm-64 .1c-.1 4.8.5 9.5 2.2 14 2.8 7.5 8 12.4 15.8 14.5 4.6 1.2 9.4 1.3 14.1.5 8.5-1.5 14.4-6.1 17.8-14 1.5-3.6 2.2-7.3 2.5-11.1.5-6.6-.1-13.1-2.8-19.2-2.8-6.4-7.6-10.6-14.4-12.5-4.8-1.4-9.7-1.5-14.5-.8-3.1.5-6.2 1.5-8.9 3.1-4.8 2.9-7.9 7.1-9.8 12.3-1.5 4.3-2.1 8.7-2 13.2zM406.8 323.5h11.8c5.7 0 11.2 1 16.4 3.1 8.4 3.4 14 9.4 17.2 17.8 2.5 6.5 3.1 13.3 2.5 20.2-.3 4.1-1.1 8.1-2.7 11.9-2.5 6.1-6.7 10.8-12.5 13.9-4.6 2.5-9.5 3.8-14.7 4.6-5 .7-10 .9-15.1.9h-17.1c-.5 0-.9 0-1.4-.1-.3 0-.5-.2-.5-.5-.1-.3.1-.5.3-.6.2-.1.4-.2.5-.3 1.7-.7 2.7-2 3.2-3.7.5-1.5.8-3.1.9-4.6.2-2.6.3-5.3.3-7.9v-32.3c0-4-.2-8.1-.3-12.1-.1-1.7-.3-3.4-.8-5.1-.6-1.8-1.5-3.2-3.3-3.9-.2-.1-.4-.2-.5-.3-.2-.1-.3-.4-.3-.6.1-.2.2-.3.5-.4.5 0 .9-.1 1.4-.1 4.7.1 9.5.1 14.2.1zm.3 34.4c.1 0 .1 0 0 0v22.2c0 1.1.1 2.1.4 3.2.4 1.5 1.3 2.5 2.8 3 .8.3 1.6.5 2.4.6 3.6.4 7.1.4 10.7-.2 9.9-1.9 16.4-7.4 19-17.2 1.6-6 1.6-12.1.1-18.2-1.4-5.6-4.2-10.3-8.8-13.7-4.6-3.4-9.8-4.9-15.4-5.3-3.3-.2-6.5.2-9.8.6-1.1.1-1.3.3-1.3 1.4v1.4c-.1 7.4-.1 14.8-.1 22.2zM482.3 323.5h11.8c5.2 0 10.3.8 15.1 2.6 10.1 3.7 16.5 11 19.5 21.2 2.4 8.5 2.4 17 .1 25.5-2.4 8.9-8 15.1-16.4 18.8-4.7 2.1-9.6 3.1-14.6 3.6-4.6.5-9.3.6-13.9.6H468c-.6 0-1.4.2-1.6-.5-.3-.8.7-.9 1.2-1.1 1.4-.7 2.2-1.8 2.7-3.2 1-2.7 1.2-5.5 1.2-8.3v-41.8c0-2.9 0-5.7-.3-8.6-.2-1.6-.4-3.2-1.1-4.7-.6-1.3-1.4-2.2-2.7-2.8l-.6-.3c-.3-.1-.5-.3-.5-.7 0-.4.4-.4.7-.5h1.4c4.6.2 9.2.2 13.9.2zm.3 34v21c0 1.2.1 2.4.2 3.7.4 2.8 1.5 4.1 4.3 4.6 3 .5 5.9.7 9 .4 3.3-.3 6.6-1 9.6-2.5 7-3.4 10.9-9.1 12.5-16.6 1-4.7 1-9.4.3-14.2-.6-4.1-2-7.9-4.5-11.3-3.6-4.9-8.5-7.8-14.3-9.3-5.3-1.4-10.7-1-16.1-.3-.7.1-1 .4-1 1.1v23.4zM711.2 355.9c-.4-.6-1-.7-1.5-1-1.7-1-3.3-2-4.7-3.4-2.4-2.7-3.2-5.9-3.3-9.3-.2-9.4 6.2-17.5 15.7-19.9 4.2-1 8.4-.8 12.6.1l2.7.6c.8.2 1.6.2 2.4-.1 1-.4 1.3-.1 1.3.9V334.9c0 .4 0 .8-.1 1.2-.1.5-.5.6-.9.3s-.6-.7-.8-1.1c-2.7-4.2-6.7-5.6-11.4-4.9-4.7.6-8.1 3.3-9.4 8-1 3.7-.6 7.4 1.8 10.6 2.3 3 5.5 4.2 9.3 3.9 1.6-.1 3.2-.3 4.8-.7.4-.1.9-.2 1.1.1.2.3 0 .7-.2 1-.9 1.9-1.8 3.8-2.7 5.6-.6 1.2-.7 1.2-2.2 1.1-3.9-.5-7.6-.1-10.9 2.3-3.5 2.5-5.6 5.9-5.8 10.2-.3 5.2 1.9 9.5 6 12.6 3.9 3 8.4 3.9 13.3 3.5 5.4-.5 10.2-2.3 14.5-5.6 4.6-3.6 7.6-8.2 8.4-14.1.5-4-.6-7.5-2.8-10.7-.3-.5-.7-.7-1.3-.7-2.3-.2-4.6-.4-6.9-.3-2.2.1-4.1.8-5.6 2.4-.4.4-.7.9-1.3.9-.5 0-.9-.2-.6-.7 1.3-2.7 2.6-5.3 4.9-7.3 2-1.7 4.4-2.5 7-2.8 1.9-.3 3.8-.3 5.6-.3h16.4c2 0 4-.3 5.9-.7 2.1-.5 3.7-1.6 5-3.3.3-.4.6-.8 1-1.1.2-.2.6-.2.9 0 .3.2.3.5.3.8v.1c-1.3 3.1-2.2 6.4-4.3 9.1-1.9 2.5-4.5 3.4-7.5 3.5-2.6.1-5.2 0-7.8.1H759c-.6 0-.7.3-.5.8.1.2.2.5.3.7 4 8.3 3.1 16.1-2.1 23.6-5 7-11.9 11.2-20.1 13.3-7.8 2-15.7 2-23.4-.5-5.5-1.8-10.1-5.1-12.8-10.3-3.4-6.5-4.2-13.3-.9-20.2 2.1-4.5 5.8-7.3 10.4-8.9.4 0 1 .1 1.3-.5zM561.5 453.4H577.4c.5 0 .9-.3.9-.8v-1.1-15.8c0-2.2-.2-4.3-.7-6.4-.5-2.2-1.5-3.9-3.7-4.7-.4-.2-.8-.3-.8-.8.1-.6.6-.6 1.1-.6h18.5c.5 0 .9 0 1.4.1.3 0 .5.2.5.5s-.1.5-.3.7c-.3.2-.5.3-.8.4-1.4.7-2.3 1.8-2.9 3.2-.5 1.4-.8 2.8-.9 4.3-.2 2.4-.3 4.9-.3 7.3v39c0 3.3.1 6.5.6 9.8.2 1 .4 2 .8 2.9.6 1.3 1.4 2.2 2.7 2.8.3.1.6.2.8.4.5.3.4.9-.1 1.1-.4.1-.8.1-1.2.1h-18.4c-.5 0-1.3.2-1.5-.5-.2-.8.6-.8 1.1-1.1 1.5-.7 2.4-1.9 2.9-3.4.7-1.8 1-3.8 1-5.7.1-7.2.1-14.5.1-21.7 0-1.4-.1-1.5-1.6-1.5h-30.5c-1.4 0-1.5.1-1.5 1.5 0 7.1 0 14.3.1 21.4 0 1.8.3 3.6.8 5.3.5 1.9 1.5 3.5 3.4 4.2.2.1.5.2.7.4.3.3.2.8-.2 1-.4.1-.8.1-1.2.1h-19c-.4 0-.9-.1-.9-.6 0-.4.3-.6.7-.7 2.5-.9 3.5-3 3.9-5.4.4-2.2.6-4.3.6-6.5v-46.1c0-2.2-.2-4.4-.6-6.5-.5-2.4-1.4-4.4-3.9-5.3-.4-.2-.8-.3-.7-.9.1-.5.6-.5 1-.5h18.5c.5 0 .9 0 1.4.1.3 0 .5.2.6.5.1.3-.1.6-.4.8l-.6.3c-1.7.7-2.7 2.1-3.2 3.9-.6 2-.9 4.1-.9 6.2v17c0 1.6 0 1.7 1.8 1.7 5-.4 10-.4 15-.4zM259.4 362H243.5c-.6 0-.9.4-.9 1v1.1c0 5.2-.1 10.3 0 15.5.1 3 0 5.9.5 8.9.2 1.2.5 2.3 1 3.4.6 1.3 1.6 2.3 2.9 2.8.4.2 1 .3.8.9-.1.6-.7.5-1.2.5h-18.7c-.6 0-1.4.3-1.6-.5-.2-.8.7-.8 1.2-1.1 1.4-.7 2.3-1.9 2.8-3.3.6-1.6.8-3.3.9-4.9.2-2.8.3-5.6.3-8.4v-32.5c0-3.8-.1-7.7-.3-11.5-.1-1.8-.3-3.7-1-5.4-.5-1.6-1.5-2.8-3.1-3.4-.2-.1-.5-.2-.7-.3-.2-.1-.4-.4-.3-.6.1-.3.3-.4.6-.4h19.7c.4.1 1-.1 1.1.5.1.6-.5.7-.9.9-1.8.8-2.8 2.1-3.3 4-.5 1.6-.7 3.3-.8 5-.3 6-.2 11.9-.2 17.9v.9c0 .6.4.9 1 .9h30.8c2.1 0 2.1 0 2.1-2V336c0-2.3-.2-4.6-.9-6.8-.5-1.8-1.6-3.2-3.3-3.9-.2-.1-.5-.2-.7-.4-.4-.3-.2-.8.3-.9.4-.1.8-.1 1.2-.1h18.3c.5.1 1.3-.2 1.5.5.2.7-.6.8-1.1 1-1.4.7-2.3 1.8-2.8 3.3-.9 2.4-1 5-1.1 7.5-.1 4.4-.1 8.9-.1 13.3 0 11.5 0 23 .1 34.4 0 2.2.2 4.4.8 6.5.5 2 1.5 3.7 3.6 4.5.4.1.8.3.7.8-.1.5-.6.5-1 .5H273.3c-.5 0-1 0-1.5-.1-.3 0-.5-.2-.5-.5-.1-.3.1-.5.3-.6.2-.1.4-.2.5-.3 1.8-.7 2.8-2.2 3.3-4 .7-2.3.9-4.6.9-7 .1-6.6.1-13.3.1-19.9 0-1.6-.1-1.7-1.6-1.7-5.2-.1-10.3-.1-15.4-.1zM614.2 360.2v25c0 1.6.3 3.3.7 4.8.5 2.1 1.5 3.8 3.7 4.6.4.1.8.3.7.9-.1.5-.6.5-1 .5H599.2c-.5 0-1.1.2-1.3-.5-.1-.7.5-.8 1-1 1.4-.6 2.4-1.7 2.9-3.2.5-1.4.8-2.8 1-4.3.2-2 .3-4.1.3-6.1v-42.4c0-2.6-.2-5.2-.6-7.8-.2-1.4-.6-2.8-1.5-4-.6-.8-1.3-1.4-2.2-1.8-.4-.2-1-.3-.9-.9.1-.7.8-.4 1.3-.5H626.1c3.8 0 7.5.6 11.2 1.6 1.9.5 3.8 1.3 5.5 2.3 3.8 2.2 6 5.6 6.9 9.9.8 4 1 8.1 0 12.1-1.3 5.2-4.3 8.9-8.9 11.5-1.6.9-3.4 1.7-5.2 2.2-1.2.4-1.3.4-.5 1.5 4.8 6.8 9.5 13.5 14.3 20.2 1.1 1.6 2.3 3.3 3.4 4.9 1.2 1.7 2.6 3.1 4.4 4.1.1 0 .2.1.3.2.5.3 1.2.5 1 1.3-.2.7-.9.5-1.4.6-2.8.4-5.6.3-8.4.3-3.3 0-5.9-1.2-7.8-4.1-2.4-3.7-4.9-7.3-7.4-10.9-4.8-7.1-9.6-14.2-14.3-21.4-.1-.2-.3-.4-.4-.6-.2-.5-.9-.9-.5-1.5s1.1-.7 1.8-.5c2.8.5 5.6.2 8.3-.4 3.2-.8 6-2.2 8.1-4.9 1.5-2 2.2-4.3 2.3-6.9 0-1.2 0-2.3-.3-3.5-.8-3.2-2.6-5.6-5.6-7.1-1.9-1-4-1.5-6.1-1.8-3.6-.5-7.2-.6-10.8-.2-1.8.2-1.8.7-1.8 2v25.8zM430.4 451.7v-17c0-2.1-.2-4.2-.9-6.2-.6-1.8-1.6-3.2-3.4-3.9-.2-.1-.5-.2-.7-.4-.4-.3-.3-.8.2-1 .4-.1.9-.1 1.4-.1h18.4c.5.1 1.3-.2 1.4.5.2.8-.6.8-1.1 1.1-1.4.7-2.3 1.8-2.9 3.2-.5 1.3-.8 2.7-.9 4.2-.2 2.1-.3 4.3-.3 6.4 0 10.1 0 20.2-.1 30.3 0 5.7-.9 11.2-3.6 16.3-2.5 4.9-6.3 8.2-11.4 10.1-3.7 1.4-7.6 2-11.5 2.2-4.5.2-8.9-.1-13.2-1.3-7.6-2.1-12.8-6.9-15.5-14.4-1.2-3.4-1.8-7-2-10.6-.5-11.2-.1-22.4-.2-33.7 0-2.1 0-4.3-.4-6.4-.1-1-.4-2-.7-3-.6-1.7-1.6-2.9-3.3-3.6-.4-.1-.8-.3-.7-.9.1-.5.6-.5 1-.6H398.9c.6 0 1.4-.3 1.6.4.3.9-.7.9-1.2 1.2-1.3.7-2.1 1.7-2.7 3-.6 1.4-.9 2.8-1 4.3-.2 2.2-.3 4.4-.3 6.6v25.3c0 3.2.1 6.4.6 9.6.3 2.3.9 4.6 1.9 6.8 1.9 4.1 5 6.7 9.3 7.7 4.3 1 8.6 1 12.8-.3 3.9-1.2 6.6-3.8 8.2-7.5 1.6-3.5 2.1-7.2 2.2-11 .2-5.7.1-11.5.1-17.3zM518.3 475.8V491.2c0 .9-.4 1.4-1.3 1.6-3.5 1-7 2.1-10.6 2.9-4.1 1-8.3 1.5-12.6 1.6-5.6.2-11.1-.3-16.4-2.3-8.1-2.9-14.2-8.2-18.4-15.8-3.3-6-4.9-12.5-4.9-19.4-.1-9.1 2.3-17.4 7.7-24.8 5.2-7.1 12.2-11.3 20.8-13 6.2-1.3 12.4-1 18.5.1l6.9 1.2c1.1.2 2.2.2 3.3-.1 1.1-.4 1.4-.1 1.4 1v10.7c0 1.4-.6 1.7-1.7.9-3.5-2.5-7.5-4-11.6-4.9-5.5-1.3-11-1.4-16.4.6-7.4 2.7-12.4 7.9-15.1 15.1-3.4 8.8-3.4 17.7.5 26.4s10.7 13.7 20.1 15.2c4.3.7 8.5.6 12.7-.6 1.7-.5 3.3-1.3 5-1.9.7-.3.9-.7.9-1.4-.1-3.9.1-7.8-.1-11.6-.1-2.1 0-4.3-.4-6.4-.2-.9-.4-1.8-.7-2.7-.6-1.4-1.5-2.4-2.8-3.1-.5-.2-1.3-.3-1.1-1 .2-.8 1-.5 1.5-.6.6-.1 1.2 0 1.8 0h11c1.9 0 2 .1 2 2v14.9zM563.6 323.5H584.2c1.4 0 1.5.1 1.5 1.5v8.4c0 .9.1 1.7.1 2.6 0 .4-.1.7-.4.9-.5.2-.8-.1-1-.4-.1-.2-.2-.3-.3-.5-1.3-2.6-3.6-3.4-6.3-3.7-2.2-.2-4.5-.3-6.7-.3h-11.6c-1.5 0-1.6.1-1.6 1.6v18.2c0 1.4.1 1.5 1.5 1.5 4.6 0 9.3 0 13.9-.1 1.4 0 2.7-.3 4.1-.6 2.2-.5 3.9-1.7 4.9-3.8.2-.5.4-1.3 1.2-1.1.9.2.5 1.1.5 1.7 0 5.2 0 10.3-.1 15.5v1.5c0 .3-.1.6-.5.7-.3.1-.6-.1-.8-.3-.2-.3-.5-.7-.7-1-1.3-2.5-3.6-3.6-6.3-3.7-5.5-.3-11-.3-16.5-.3-1.2 0-1.3.1-1.3 1.3v17.6c0 1 .2 1.9.3 2.9.4 2.2 1.7 3.4 3.9 3.7 4.1.4 8.1.4 12.2.1 1.6-.1 3.3-.1 4.9-.4 2.6-.5 4.7-1.7 6.1-4 .2-.3.5-.7.7-1 .2-.3.5-.4.8-.3.4.1.4.4.4.7v1.1l-1.2 10.8c-.2 1.5-.4 1.7-2 1.7H543c-.5 0-1.3.2-1.5-.4-.2-.8.7-.9 1.2-1.2 1.2-.6 2.1-1.6 2.6-2.9.5-1.2.8-2.5.9-3.9.2-1.8.4-3.7.4-5.5v-44.4c0-2.5-.1-5.1-.6-7.6-.5-2.4-1.4-4.4-3.8-5.3-.3-.1-.7-.3-.6-.8.1-.5.5-.4.9-.5H563.6zM235.4 429.6v6c-.1 1.1-.7 1.3-1.5.6-.4-.3-.7-.6-1-1-2.5-2.5-5.4-4.3-8.9-4.8-3.8-.6-7.6-.5-11.1 1.5-5.3 3.1-6.3 9.7-2.2 14.3 1.5 1.6 3.3 2.9 5.2 4 2.9 1.6 5.8 3.1 8.6 4.6 3 1.6 5.8 3.5 8.1 5.9 3.4 3.5 5.1 7.8 5.5 12.6.3 3.8 0 7.4-1.5 11-2.3 5.5-6.5 9-12 11.1-3 1.1-6.1 1.6-9.3 1.9-5.8.5-11.2-.8-16.7-2.4-1.2-.4-1.7-1-1.8-2.3-.2-3.2-.5-6.4-.7-9.6 0-.6-.4-1.5.4-1.8.7-.3 1.1.5 1.5.9 3.2 3.3 7.1 5.5 11.7 6.1 4.3.6 8.5.2 12.1-2.5 4-2.9 5.9-8.3 4.6-12.9-.8-2.8-2.7-4.8-4.9-6.5-2.3-1.8-4.8-3.1-7.3-4.5-3.2-1.7-6.4-3.4-9.3-5.6-1.6-1.2-3-2.5-4.3-3.9-6.2-7.1-5.7-21.1 4.7-27.4 4.9-3 10.1-4.2 15.8-3.7 3.1.3 6 1 9 1.7 1.4.3 2.8.6 4.1-.2.6-.4 1-.1 1.1.6.1.4.1.8.1 1.2v5.1zM632 457.9v22.5c0 2.8.1 5.5.6 8.2.2 1 .4 2 .9 2.9.6 1.2 1.4 2.1 2.7 2.6.3.1.6.2.8.4.5.3.4.9-.1 1.1-.4.1-.8.1-1.2.1h-19c-.4-.1-.9-.1-.9-.6-.1-.4.3-.6.6-.7 3-1.1 3.7-3.7 4.1-6.5.4-2.3.4-4.6.4-6.9v-46.8c0-2.4 0-2.5-2.4-2.5-2.2 0-4.5 0-6.7.1-1.4 0-2.7.3-4.1.6-1.6.5-3 1.4-3.9 2.8l-.9 1.2c-.2.2-.4.3-.7.2-.3-.1-.4-.3-.3-.6 0-.7.1-1.3.1-2 .3-3 .6-6.1.9-9.1.1-1.6.3-1.8 2-1.8h43.8c1.3 0 1.4.1 1.6 1.4.2 1.5.3 3 .5 4.6.2 1.9.4 3.9.5 5.8.1.6.4 1.5-.4 1.8-.7.3-1-.5-1.3-1-1.7-2.8-4.5-3.5-7.5-3.7-2.8-.2-5.7-.1-8.6-.1-1.2 0-1.3.2-1.4 1.3v1.2c-.1 7.7-.1 15.6-.1 23.5zM275.8 459.2v23.7c0 2.1.2 4.3.6 6.4.5 2.2 1.5 4.1 3.8 5 .4.1.8.3.7.9-.1.5-.6.5-1 .5h-18.7c-.5 0-.9 0-1.4-.1-.3 0-.5-.2-.5-.5s.1-.5.3-.6c.1-.1.3-.1.4-.2 2.1-.8 3.2-2.5 3.7-4.6.6-2.5.8-5 .8-7.6v-48.7c0-1.7-.1-1.8-1.7-1.7-3.3 0-6.6-.2-9.9.3-2.5.4-4.5 1.5-5.9 3.7-.3.5-.6 1.1-1.3.8-.6-.2-.4-.9-.4-1.4.4-3.6.7-7.1 1.1-10.7.1-1.3.3-1.4 1.6-1.4h43.1c2.4 0 2.4 0 2.6 2.3.3 3.3.6 6.5.9 9.7 0 .5.4 1.2-.4 1.5-.6.2-.9-.4-1.1-.8-1.7-3-4.6-3.8-7.7-3.9-2.8-.2-5.6-.1-8.4-.1-1.3 0-1.4.2-1.5 1.6V444c.3 5.1.3 10.1.3 15.2z"/></svg>
