<svg xmlns="http://www.w3.org/2000/svg" viewBox="0 0 500 500"><path d="M309.17 257.02c-3.48-.17-7.12 0-10.59-.5-2.15-.33-4.3.5-6.45.66-1.32.17-2.65.5-3.97.33-4.3-.33-8.28.83-12.41 2.15-5.13 1.66-10.26 3.64-15.56 4.63-4.63.83-8.94 2.48-13.41 3.81-3.81 1.16-7.78 1.99-11.59 3.48-3.14 1.32-6.29 2.48-9.1 4.3-.83.5-1.82.99-2.81 1.16-2.65.5-5.13 1.49-7.61 2.81-.66.33-1.32.83-2.15.83-3.48.5-6.45 2.48-9.43 4.14-3.31 1.66-6.62 3.14-9.77 4.8-2.48 1.32-5.13 2.32-7.94 3.31-3.64 1.32-6.95 3.31-9.93 5.96-.5.5-.99.99-1.66 1.32-2.32 1.16-4.14 2.81-5.79 4.8-.33.5-.83.99-1.32 1.16-2.81.66-4.97 2.98-7.78 3.64-2.32.66-3.81 1.99-4.14 4.63 0 .66-.33 1.16-.33 1.66-.33 4.14-.5 8.28-.99 12.41-.33 2.98-.33 5.96-1.16 8.77-1.32 4.14-1.16 8.44-1.66 12.74-.66 5.96-.17 12.08-1.32 18.21-.5 3.14-.17 6.45 0 9.6.17 4.47-.17 8.94-.33 13.41-.17 5.46-1.66 10.76-1.49 16.22.17 4.63-1.32 9.1-1.49 13.74 0 .66-.17 1.32 0 1.99.99 3.64.5 7.28 0 10.76-.33 2.81-.5 5.79-.33 8.61.17 2.81-.66 5.3-2.65 7.28-2.65 2.98-5.79 5.3-9.1 7.45-3.31 1.99-6.62 3.48-10.1 5.13-1.66.66-2.65 2.15-3.97 2.98-2.81 1.99-5.79 3.81-8.44 6.12-1.16.99-2.65 1.32-3.97 2.15-7.45 4.14-15.06 8.11-22.34 12.41-1.99 1.16-3.97 1.99-5.79 3.48-.66.5-1.66.99-2.48 1.32-3.14 1.16-5.96 2.81-8.77 4.3-.83.5-1.66.66-2.65.5-2.15-.5-2.98-1.66-2.15-3.81.5-1.49 1.16-2.81 2.65-3.64 1.32-.83 1.82-2.65 2.98-3.64 2.15-1.82 4.14-3.81 6.12-5.63.99-.99 1.99-2.15 2.65-3.31.66-1.16.5-1.49-.83-1.66-.66-.17-1.32-.17-1.99-.5-3.64-1.82-4.63-4.3-2.32-7.78 1.66-2.48 3.14-4.97 5.63-6.79 1.82-1.32 3.14-2.98 4.8-4.47.5-.5.83-.99.99-1.49.99-2.65 2.32-5.13 1.16-7.94-.17-.5-.17-.99 0-1.49.33-1.66 0-3.31-.83-4.63-1.32-2.48-1.32-5.13-.5-7.61.66-2.15.83-4.14-.5-6.29-1.32-2.15-.83-4.63.17-6.79 1.99-4.14 1.16-8.61 1.32-12.91 0-1.16-.66-1.66-1.49-1.99-1.49-.5-1.66-1.49-1.49-2.81.33-1.99.66-3.97 1.66-5.79 1.66-3.31 3.81-6.29 6.62-8.77.99-.83 1.66-1.99 1.99-3.14.99-3.97 2.65-7.94 4.63-11.42 1.32-2.65 1.16-4.14-.66-6.12-1.49-1.49-1.82-3.64-1.82-5.63 0-3.81-.33-7.78-.5-11.59-.17-2.81-.5-5.63-1.32-8.28-.66-2.32-.66-4.63-.5-6.95.17-3.97 1.16-7.61 1.32-11.59 0-1.66-.33-3.14-1.16-4.63-2.65-4.14-4.63-8.77-6.12-13.57-.83-2.48-1.82-4.8-3.31-7.12-1.49-1.99-2.32-4.3-3.64-6.45-1.49-2.48-3.48-4.47-5.79-6.29-1.66-1.16-2.81-2.81-4.3-4.3-1.49-1.49-1.49-3.48-.99-5.46.5-1.32.66-2.81.66-4.3-.17-4.3 1.66-7.45 5.3-9.77l5.46-3.48c.99-.66 1.99-1.16 2.98-1.16 3.14-.33 6.12-1.49 9.1-1.99 1.32-.17 2.65-.33 3.97-.33 2.48-.17 3.97-1.49 3.97-3.97 0-6.95 1.16-13.9.99-21.02 0-1.99-.17-3.97-.99-5.96-.5-1.16-.33-2.32-.5-3.48-.99-5.13-1.66-10.26-1.99-15.56-.17-2.15-.17-4.3-.83-6.45-.33-1.16-.17-2.65-.17-3.97.17-6.95-.5-13.9-.5-21.02 0-2.81 0-5.63-.99-8.28-.5-1.16-.17-2.32-.17-3.48.33-3.81-.33-7.45-2.15-10.92-1.16-2.15-1.82-4.63-1.99-6.95-.17-3.14-1.32-6.12-2.98-8.77-.5-.66-.66-1.49-.99-2.32-1.16-3.31-1.82-6.79-1.82-10.43 0-1.66-.66-3.31-1.66-4.63-2.65-3.64-3.14-7.61-2.48-11.75.17-.99.33-1.82.5-2.81.5-2.65.5-5.13-.33-7.78-.83-2.81-1.49-5.79-1.49-8.77s-.5-6.12-.5-9.1c0-2.32-.5-4.63-1.66-6.79-1.32-2.48-2.32-4.97-2.48-7.94-.17-2.32-1.49-4.47-2.65-6.45-.5-.99-1.49-1.66-2.65-1.82-1.66-.33-3.31-.83-4.8-1.49-.5-.17-.99-.33-1.49-.33-6.45-.17-12.41-2.15-17.87-5.46-1.99-1.16-3.64-2.81-4.3-5.13-1.16-4.14.5-7.45 3.14-10.1 6.45-5.96 14.07-6.95 22.01-3.81 1.16.5 2.48.83 3.64.5 4.47-1.16 9.1-1.32 13.74-1.82 4.3-.5 8.44-1.16 12.74-2.15.99-.33 2.15-.66 2.98-1.32 3.81-2.65 8.28-3.48 12.41-4.97 2.81-1.16 5.79-1.99 8.61-2.98 5.13-1.82 10.43-2.15 15.72-2.81 3.14-.33 6.45.33 9.1 2.32 1.16.83 2.65 1.16 3.81 1.99 2.81 1.82 3.97 4.47 3.64 7.78-.33 2.98-.83 5.79-1.32 8.77-.66 3.31-.66 6.79-.66 10.1 0 2.81 0 5.46.5 8.28.5 3.14 0 6.29 0 9.6 0 6.79.66 13.57.5 20.52-.17 6.62 0 13.08-.83 19.7 0 .5-.17.83 0 1.32.83 3.97-.17 7.94-.17 11.92 0 .83 0 1.66-.17 2.32-1.16 2.98-.66 5.79-.17 8.77.66 4.3.83 8.77.99 13.08.17 5.13.5 10.1.33 15.23 0 3.48.17 7.12.66 10.59.17 1.66.5 3.31-.33 4.97-.33.66-.17 1.49 0 2.32 1.32 6.79 1.49 13.74 3.14 20.52.5 2.15.66 4.3.5 6.45-.17 1.82 0 3.48.33 5.3.5 3.81.99 7.45.99 11.25v1.32c-.99 3.64.5 7.12.66 10.76 0 .83.33 1.16 1.49.99 2.48-.33 4.97-1.16 7.28-1.99 3.48-1.16 7.12-1.99 10.76-2.98.99-.33 2.15-.66 3.14-1.16 4.63-1.99 9.27-2.32 14.07-1.49 3.64.66 7.12.5 10.76.17 4.47-.33 8.77-1.49 13.24-1.99 4.14-.5 8.44-.5 12.58 0 4.14.66 8.44.33 12.58-.33 5.96-.83 11.92-2.15 17.87-3.14 4.14-.66 8.28-.5 12.41-.17 2.81.33 5.46.17 8.28 0 3.64-.33 7.28-.66 10.76.5 3.97 1.32 7.94.99 12.08.66 3.31-.33 6.62-.66 10.1-.83 6.79-.33 13.41-.83 20.19-1.99.33 0 .83 0 .99-.17 1.49-1.66 3.48-1.66 5.46-1.66 3.31-.17 5.13-1.99 6.12-4.8 1.32-3.97 3.31-7.61 4.8-11.42 1.49-3.97 3.64-7.61 4.97-11.75.17-.66.5-1.16.99-1.82 1.32-1.99 1.99-4.14 2.81-6.45 1.49-4.8 3.31-9.6 4.97-14.4.5-1.49.99-2.98 1.49-4.63.5-1.49.99-2.98 1.82-4.47 1.49-2.98 2.48-6.29 3.48-9.43.99-2.81 2.32-5.63 3.48-8.44.66-1.49 1.49-2.81 1.82-4.47.83-3.14 2.32-6.29 3.81-9.1 1.99-3.64 4.3-6.95 7.28-9.93.17-.17.5-.5.83-.5 2.15-.66 4.3-1.66 6.45-2.15 2.65-.5 4.63-1.66 6.79-3.14 1.66-1.16 3.81-1.49 5.63-1.99 1.16-.33 2.32-.66 3.31-1.32.5-.17.83-.5 1.32-.66 5.13-1.16 9.6-4.14 14.73-5.13 2.15-.33 3.97-1.49 5.79-2.48 2.65-1.49 5.46-2.81 8.61-2.32 2.81.5 5.46.83 8.11 1.49 3.14.66 4.63 3.64 3.64 6.79-.33.99-.66 2.15-1.16 3.14-.5 1.16-.66 2.48-.5 3.64.33 1.82-.33 3.48-.99 5.13-1.66 4.47-5.63 7.28-8.11 11.09-.66.99-1.49 1.82-2.32 2.81-.66.99-1.49 1.82-2.65 2.32-.83.33-1.16.83-1.49 1.66-.66 1.49-1.66 2.81-2.81 3.81-4.47 4.47-7.28 9.77-8.94 15.89-.99 3.64-2.15 7.28-4.63 10.43-1.99 2.48-3.14 5.46-2.81 8.94.17 2.48-.66 5.13-1.99 7.45-.99 1.82-1.49 3.64-1.32 5.63.17 4.47-1.66 8.44-4.14 11.92-1.32 1.99-1.99 4.3-2.81 6.45-.33 1.16-.66 2.32-1.32 3.31-1.66 2.81-3.14 5.79-5.3 8.28-2.15 2.65-4.8 4.63-7.78 6.45-2.32 1.32-3.48 3.14-3.14 5.79.33 1.99.33 3.97 1.66 5.79.99 1.49.17 3.31.17 4.97 0 1.99-.5 4.14-1.66 5.79-1.32 1.99-1.32 4.63-3.48 6.12-.17.17-.17.5-.17.66-.66 5.46-1.82 10.76-3.48 16.05-.99 3.14-1.66 6.45-2.48 9.77-1.99 8.11-3.14 16.39-2.65 24.83.17 3.48.17 6.95-.33 10.43-.66 4.47-2.81 8.44-4.47 12.58-1.32 3.14-1.99 6.45-1.82 9.77.17 3.97-.99 7.78-1.49 11.75-.5 3.64-1.16 7.12-1.16 10.76 0 5.3-.5 10.76-1.49 16.05-.5 2.48-1.49 4.97-2.15 7.45-1.32 5.13-1.49 10.1-.17 15.23 1.16 3.97 2.65 8.11 1.99 12.41-.5 3.48.66 6.79 1.16 10.26.33 2.15.99 3.97 1.66 6.12 1.16 3.81 2.15 7.61 1.32 11.59-.33 1.66-.5 3.31-.33 4.97 0 1.82.99 3.64 1.99 5.3 1.49 2.32 1.99 4.8.83 7.45-.5 1.16-.33 2.32 0 3.48.5 1.66 1.32 3.14 1.99 4.63 1.32 2.32 1.66 4.8.17 7.28-.66 1.16-.83 1.99.5 2.81.33.17.66.5.83.99.33 2.15 1.99 3.14 3.48 3.97 2.81 1.49 5.79 2.32 8.77 3.14.99.33 2.48.17 2.81 1.16.33 1.32-.99 1.99-1.82 2.81-1.82 1.49-3.97 1.99-6.29 2.48-.66.17-1.32.17-1.99 0-5.3-.5-10.76 0-16.05-.5-1.99-.17-3.97-.66-5.96-1.32-3.31-1.16-6.79-1.66-10.43-1.66-1.49 0-2.81-.17-4.3-.5-1.16-.17-2.32-.5-3.48-.33-1.32.17-2.65-.5-3.97-.99a36.189 36.189 0 0 0-8.28-2.48c-3.97-.66-6.45-3.14-7.94-6.62-1.66-3.97-3.14-7.94-2.81-12.41.33-4.47-1.32-8.61-2.81-12.74-2.48-6.95-3.97-14.07-3.31-21.52.17-2.15-.17-4.14-.83-6.29-2.15-6.29-1.66-12.74-.17-19.03.83-3.48 1.66-7.12 2.15-10.59.66-4.3 2.48-8.28 5.13-11.75 1.32-1.66 1.66-3.48.99-5.46a81.479 81.479 0 0 1-3.48-15.23c-.33-2.81.17-5.3 1.16-7.94.33-.66.5-1.49.99-1.99 1.82-2.48 1.49-5.13.83-7.94-1.16-4.8-.83-9.6.33-14.23.83-2.98 1.82-5.96 3.48-8.61 1.16-1.99 1.16-4.3 1.49-6.29.5-3.64.83-7.45 1.32-11.09.83-6.29 1.66-12.58 2.65-18.87.83-4.8-1.66-9.27-5.46-11.92-.83-.66-1.66-1.16-2.65-1.66-1.66-.99-3.31-1.66-5.3-1.66-2.14-1.51-4.45-1.51-6.77-1.51z"/></svg>
