<svg xmlns="http://www.w3.org/2000/svg" viewBox="0 0 500 500"><path d="M477.7 87.1h-81.1v121.5h-66.1V87.1H237.1v32.1c-14.9-23.3-43.2-32.1-79.5-32.1H11v316.7h150.4c28.6 0 56.4-8.5 75.5-27v27H330.3v-94.9c-8.1-2-17-6-25.6-13.6-10.4 11.4-25.1 18.3-43.4 18.3-46 0-71.9-22.5-71.9-61.8 0-24 12.1-39.4 28.4-48.7-5.8-10.6-8.9-21.6-8.9-35.2 0-25.8 18.4-45.3 47.3-45.3 15.7.2 31.5 7.5 39.8 18.8l-4.1 29.8h-2.3c0-25.3-13.4-40.7-33.4-40.7-17.9 0-31 15.8-31 37.4 0 22.1 13.1 38.9 37.3 63.2 9.8 9.9 22.8 23.5 42.6 41.9 6.2-15.7 6.5-34.2.1-48.8-3.1-7.2-7.8-12-15.1-12h-3.7v-2.6h47v2.6h-3.6c-6.9 0-9.9 4.8-8.7 11.9 3.7 21.6 1.1 41.8-6.9 57.5 5.2 5.1 10.6 10.2 16.2 14.7v-29.1h66.1v136.6H490V87.1h-12.3zM86 141.2h46.4c22.4 0 43.1 6.2 43.1 36.4 0 26.6-16.4 37.7-38.3 37.7H86v-74.1zm54.7 208.5H86v-86.9h55.9c26.8 0 45.1 12.9 45.1 45.2.1 32.8-21.5 41.7-46.3 41.7z"/><path d="M296.7 287.8c-19.7-18.3-32.7-31-45.1-43.7-12.6-13-22.7-23.8-29.9-34.7-10.8 11.2-15.1 26.2-15.1 42.4 0 31.8 19.8 53.8 54.8 53.8 15.2-.1 27.1-7.2 35.3-17.8z"/></svg>
