<svg id="Layer_1" xmlns="http://www.w3.org/2000/svg" viewBox="0 0 500 500"><path fill="#f2950a" d="M12.52 304.46c2.18 4.01 5.36 5.99 10.31 6.98 5.73 1.15 11.66-.57 13.19-8.17l.99-4.95c-3.21 3.01-7.97 4.82-12.84 3.84-9.03-1.8-14.05-9.82-11.82-20.99 2.22-11.1 9.9-16.72 19-14.9 4.66.93 8.36 4.05 10.39 8.41l1.04-5.23 5.37 1.07-6.72 33.6c-2.29 11.47-11.03 13.44-19.48 11.75-5.87-1.17-9.66-3.12-12.94-7.95l3.51-3.46zm28.34-25.47c-1.26-3.38-4.9-6.79-9.2-7.65-6.95-1.39-12.21 3.3-13.74 10.96-1.52 7.6 1.52 14.01 8.47 15.4 4.3.86 8.99-.96 11.45-3.6l3.02-15.11zM53.4 289.54c2.01-10.03 10.22-16.81 20.75-14.7 10.53 2.11 15.5 11.52 13.5 21.55-2 10.03-10.23 16.88-20.76 14.77-10.53-2.11-15.49-11.59-13.49-21.62zm28.59 5.72c1.41-7.02-1.42-14.14-8.8-15.62-7.38-1.48-12.8 3.99-14.2 11.02-1.42 7.09 1.48 14.23 8.86 15.71 7.38 1.46 12.72-4.02 14.14-11.11zM102.46 267.68l5.37 1.07-3.68 18.41c3.55-3.24 8.17-4.7 12.89-3.76 9.03 1.81 13.97 10.24 11.76 21.27-2.25 11.25-10 16.85-19.03 15.05-4.87-.97-8.6-4.33-10.47-8.35l-1.03 5.16-5.37-1.07 9.56-47.78zm6.92 46.98c7.02 1.41 12.31-3.42 13.84-11.09s-1.48-14.22-8.5-15.63c-4.23-.85-8.97.89-11.44 3.53l-3.14 15.69c1.27 3.38 5.02 6.66 9.24 7.5zM156.5 324.09c-3.49 2.58-7.77 3.44-12.42 2.51-5.87-1.17-11.32-6.36-9.82-13.89 1.55-7.74 8.51-10.15 14.39-8.97 4.73.94 8.37 3.24 10.51 7.02l1.25-6.23c.93-4.65-2.26-8.05-7.28-9.06-4.16-.83-7.82 0-11.56 2.68l-1.76-4.23c4.5-3.12 9.31-4.09 14.97-2.96 7.31 1.46 12.74 5.98 11.06 14.36l-4.75 23.78-5.38-1.07.79-3.94zm1.98-9.89c-1.5-3.28-4.87-5.45-8.67-6.21-5.02-1-9.16 1.45-10.04 5.89-.87 4.37 2.01 8.23 7.02 9.23 3.8.76 7.74.06 10.39-2.4l1.3-6.51zM179.69 287a3.66 3.66 0 0 1 4.3-2.87c2.01.4 3.34 2.31 2.94 4.32-.4 2-2.38 3.32-4.39 2.92-1.94-.39-3.25-2.37-2.85-4.37zm-.96 9.64l5.37 1.07-6.92 34.61-5.37-1.07 6.92-34.61zM190.44 327.45l4.53-22.64-5.73-1.15.94-4.73 5.73 1.15 1.89-9.45 5.37 1.07-1.89 9.45 7.02 1.41-.94 4.73-7.02-1.41-4.3 21.49c-.51 2.58.26 4.67 2.62 5.14 1.5.3 3.07-.06 3.94-.71l.78 4.33c-1.62 1.02-3.74 1.56-6.89.93-5.08-1-7.08-4.46-6.05-9.61zM236.95 320.58c1.22-6.09-1.57-8.51-6.23-9.44-4.15-.83-8.68.94-11.32 3.32l-5.06 25.29-5.37-1.07 9.55-47.79 5.37 1.07-3.64 18.2c3.01-2.38 8.34-4.44 13.57-3.39 7.24 1.45 10.33 5.72 8.83 13.24l-4.89 24.43-5.38-1.07 4.57-22.79zM80.64 322.88a2.628 2.628 0 0 1 3.07-2.05c1.43.29 2.38 1.64 2.09 3.08a2.683 2.683 0 0 1-3.13 2.09c-1.38-.28-2.32-1.7-2.03-3.12zm-.69 6.88l3.83.76-4.93 24.69-3.83-.76 4.93-24.69zM100.92 363.24c1.55 2.86 3.83 4.27 7.35 4.97 4.09.82 8.32-.41 9.41-5.83l.71-3.53c-2.29 2.15-5.69 3.44-9.16 2.74-6.44-1.29-10.03-7-8.44-14.98 1.59-7.93 7.06-11.93 13.56-10.63 3.32.66 5.96 2.89 7.41 6l.75-3.73 3.83.76-4.81 23.99c-1.63 8.18-7.87 9.59-13.9 8.38-4.19-.84-6.89-2.23-9.23-5.67l2.52-2.47zm20.22-18.18c-.9-2.41-3.5-4.85-6.57-5.46-4.96-.99-8.71 2.35-9.8 7.82-1.08 5.42 1.08 10 6.04 10.99 3.07.61 6.42-.69 8.17-2.57l2.16-10.78zM129.09 372.11c1.69.34 2.92 0 4.2-1.87l2.38-3.41-5.34-27.01 4.14.83 4.18 21.89 12.23-18.61 4.19.84-18.3 27.23c-2.2 3.28-4.98 4.16-8.26 3.56-.82-.16-2.06-.57-2.74-.92l1.31-3.35c.51.37 1.4.7 2.01.82zM187.29 359.46c.62-3.11-.36-5.38-3.53-6.02-2.56-.51-5.63.79-7.3 2.47l-3.62 18.1-3.83-.76 3.35-16.77c.62-3.11-.31-5.38-3.53-6.02-2.51-.5-5.53.8-7.26 2.53l-3.61 18.04-3.83-.76 4.93-24.69 3.83.76-.72 3.57c1.34-1.38 5.18-3.32 8.81-2.6 3.78.76 5.52 3.23 5.73 5.93 1.83-1.97 5.62-3.66 9.2-2.95 4.5.9 6.4 3.88 5.41 8.84l-3.57 17.84-3.84-.77 3.38-16.74zM200.4 353.84l3.83.76-.8 3.98c2.52-2.21 5.76-3.53 9.13-2.85l-.79 3.94c-.44-.19-.89-.33-1.5-.45-2.35-.47-5.96.83-7.48 2.6l-3.49 17.48-3.83-.76 4.93-24.7zM229.7 381.76c-2.32 1.77-5.93 3.07-9.61 2.33-5.16-1.03-7.37-4.08-6.3-9.45l3.49-17.43 3.83.76-3.25 16.25c-.87 4.34 1.07 6.07 4.4 6.73 3.02.6 6.23-.56 8.05-2.27l3.63-18.15 3.83.76-4.93 24.71-3.83-.76.69-3.48z"/><g id="Layer_3"><path fill="#f2950a" d="M101.25 225.81c4.35 7.91 10.66 11.77 20.45 13.67 11.34 2.2 23.05-1.27 25.96-16.3l1.9-9.79c-6.31 5.98-15.69 9.61-25.33 7.74-17.86-3.46-27.9-19.23-23.62-41.35 4.26-21.97 19.37-33.17 37.37-29.68 9.21 1.78 16.56 7.91 20.63 16.5l2.01-10.35 10.63 2.06-12.88 66.5c-4.39 22.68-21.65 26.7-38.37 23.46-11.62-2.25-19.13-6.05-25.67-15.56l6.92-6.9zm55.71-50.69c-2.53-6.67-9.77-13.37-18.28-15.01-13.75-2.67-24.09 6.66-27.03 21.83-2.91 15.03 3.17 27.68 16.92 30.34 8.51 1.64 17.75-2 22.59-7.24l5.8-29.92zM194.3 143.37c.77-3.97 4.63-6.46 8.46-5.72 3.97.77 6.63 4.52 5.86 8.49-.77 3.97-4.66 6.6-8.63 5.83-3.83-.73-6.46-4.63-5.69-8.6zm-1.78 19.07l10.63 2.06-13.26 68.48-10.63-2.06 13.26-68.48zM214.54 247.75c4.35 7.91 10.67 11.77 20.45 13.67 11.34 2.2 23.05-1.27 25.96-16.3l1.9-9.79c-6.31 5.98-15.69 9.61-25.33 7.74-17.86-3.46-27.9-19.23-23.62-41.35 4.26-21.97 19.37-33.17 37.37-29.68 9.21 1.78 16.56 7.91 20.63 16.5l2.01-10.35 10.63 2.06-12.87 66.5c-4.39 22.68-21.65 26.7-38.37 23.46-11.62-2.25-19.13-6.05-25.67-15.56l6.91-6.9zm55.71-50.69c-2.53-6.67-9.77-13.37-18.28-15.01-13.75-2.67-24.09 6.66-27.03 21.83-2.91 15.03 3.17 27.68 16.92 30.34 8.51 1.64 17.75-2 22.59-7.24l5.8-29.92z"/></g><g><path fill="#f2950a" d="M360.25 239.27s31.8-63.03 22.95-99.86c-5.89-24.51-30.53-39.6-55.04-33.71-24.51 5.89-39.6 30.53-33.71 55.04 8.85 36.82 65.8 78.53 65.8 78.53z"/><path d="M360.67 241l-1.09-.8c-2.34-1.71-57.4-42.39-66.24-79.2-6.02-25.08 9.48-50.39 34.56-56.42 25.08-6.01 50.39 9.48 56.42 34.56 8.84 36.82-21.73 98.06-23.04 100.64l-.61 1.22zm-21.85-135.42c-3.43 0-6.91.4-10.39 1.24-23.85 5.73-38.6 29.8-32.87 53.65 7.97 33.19 56.34 71.03 64.27 77.06 4.33-8.97 30.23-64.65 22.25-97.84-4.89-20.38-23.16-34.11-43.26-34.11z"/><path fill="#f2950a" d="M360.31 239.09s64.54-23.44 82.84-55.42c12.17-21.28 4.79-48.4-16.5-60.57-21.29-12.17-48.4-4.79-60.57 16.5-18.3 31.97-5.77 99.49-5.77 99.49z"/><path d="M359.43 240.63l-.24-1.33c-.51-2.78-12.39-68.3 5.9-100.28 12.46-21.79 40.33-29.39 62.13-16.92 10.56 6.04 18.13 15.82 21.33 27.56 3.2 11.74 1.63 24.02-4.41 34.57-18.29 31.98-80.78 54.97-83.44 55.93l-1.27.47zm45.25-122.24c-15.02 0-29.64 7.82-37.62 21.76-16.46 28.79-7.49 87.7-5.87 97.37 9.15-3.5 64.49-25.65 80.95-54.43 5.73-10.03 7.22-21.69 4.19-32.83-3.04-11.14-10.23-20.44-20.25-26.18-6.76-3.85-14.13-5.69-21.4-5.69z"/><path fill="#f2950a" d="M358.65 238.91s63.03 31.8 99.86 22.95c24.51-5.89 39.6-30.53 33.71-55.04s-30.53-39.6-55.04-33.71c-36.82 8.84-78.53 65.8-78.53 65.8z"/><path d="M443.86 264.57c-36.4 0-83.47-23.5-85.73-24.64l-1.21-.61.8-1.09c1.71-2.34 42.38-57.4 79.19-66.24 12.16-2.91 24.71-.93 35.37 5.59 10.65 6.53 18.13 16.81 21.05 28.97 6.03 25.08-9.48 50.39-34.56 56.42-4.63 1.11-9.66 1.6-14.91 1.6zm-83.46-26.08c8.97 4.33 64.65 30.22 97.84 22.25 23.86-5.73 38.6-29.8 32.87-53.65-2.78-11.56-9.89-21.34-20.02-27.54-10.14-6.22-22.09-8.11-33.63-5.32-33.2 7.96-71.04 56.33-77.06 64.26z"/><g><path fill="#f2950a" d="M358.84 238.96s23.44 64.54 55.42 82.84c21.28 12.17 48.4 4.79 60.57-16.5 12.17-21.28 4.79-48.4-16.5-60.57-31.98-18.3-99.49-5.77-99.49-5.77z"/><path d="M436.22 328.79c-7.66 0-15.42-1.93-22.53-6-31.98-18.29-54.97-80.78-55.93-83.44l-.46-1.27 1.33-.24c2.77-.51 68.29-12.4 100.27 5.9 10.56 6.04 18.14 15.83 21.33 27.56 3.2 11.74 1.63 24.01-4.41 34.57-8.39 14.68-23.79 22.92-39.6 22.92zm-75.82-88.94c3.51 9.16 25.65 64.5 54.43 80.95 10.03 5.74 21.69 7.22 32.83 4.18 11.14-3.03 20.44-10.23 26.18-20.25 5.73-10.03 7.22-21.69 4.18-32.83-3.03-11.14-10.23-20.44-20.25-26.18-28.79-16.46-87.7-7.49-97.37-5.87z"/></g><g><path fill="#f2950a" d="M354.44 237.3s-31.8 63.03-22.95 99.86c5.89 24.51 30.53 39.6 55.04 33.71s39.6-30.53 33.71-55.04c-8.85-36.82-65.8-78.53-65.8-78.53z"/><path d="M375.86 373.29c-21.13 0-40.34-14.43-45.49-35.86-8.84-36.81 21.73-98.05 23.04-100.64l.61-1.21 1.09.8c2.34 1.71 57.4 42.39 66.24 79.2 6.02 25.08-9.48 50.39-34.56 56.42-3.65.87-7.32 1.29-10.93 1.29zm-21-134.24c-4.33 8.97-30.23 64.65-22.25 97.84 2.78 11.56 9.89 21.34 20.02 27.55 10.14 6.21 22.08 8.11 33.63 5.32 23.85-5.73 38.6-29.8 32.87-53.65-7.98-33.2-56.34-71.03-64.27-77.06z"/></g><g><path fill="#f2950a" d="M354.38 237.49s-64.54 23.44-82.84 55.42c-12.17 21.28-4.79 48.4 16.5 60.57s48.4 4.79 60.57-16.5c18.3-31.97 5.77-99.49 5.77-99.49z"/><path d="M310.01 360.48c-7.66 0-15.42-1.93-22.53-6-21.8-12.47-29.39-40.34-16.92-62.13 18.29-31.98 80.78-54.97 83.44-55.93l1.27-.46.24 1.33c.51 2.78 12.39 68.3-5.9 100.28-8.39 14.67-23.79 22.91-39.6 22.91zm43.48-121.43c-9.16 3.51-64.49 25.65-80.95 54.43-5.73 10.03-7.22 21.69-4.18 32.83 3.04 11.14 10.23 20.44 20.25 26.18 20.7 11.84 47.17 4.62 59.01-16.07 16.46-28.78 7.49-87.7 5.87-97.37z"/></g></g></svg>
