<svg xmlns="http://www.w3.org/2000/svg" viewBox="0 0 1000 500"><g><path fill="#f2950a" d="M95.04 350.95c3.73 6.88 9.19 10.27 17.67 11.97 9.83 1.97 20-.98 22.61-14.01l1.7-8.48c-5.51 5.16-13.66 8.26-22.02 6.59-15.48-3.09-24.1-16.83-20.27-35.99 3.81-19.04 16.98-28.67 32.58-25.55 7.99 1.6 14.33 6.95 17.82 14.42l1.79-8.97 9.21 1.84-11.52 57.61c-3.93 19.66-18.92 23.05-33.41 20.15-10.07-2.01-16.56-5.35-22.19-13.63l6.03-5.95zm48.6-43.68c-2.16-5.8-8.4-11.65-15.78-13.12-11.91-2.38-20.93 5.65-23.56 18.8-2.6 13.03 2.61 24.03 14.52 26.41 7.37 1.47 15.41-1.64 19.63-6.17l5.19-25.92zM165.15 325.36c3.44-17.2 17.52-28.82 35.58-25.21 18.06 3.61 26.58 19.75 23.15 36.95s-17.54 28.94-35.6 25.33c-18.07-3.61-26.57-19.87-23.13-37.07zm49.02 9.8c2.41-12.04-2.44-24.25-15.09-26.78-12.65-2.53-21.94 6.85-24.35 18.9-2.43 12.16 2.53 24.4 15.19 26.93 12.65 2.52 21.81-6.88 24.25-19.05zM249.26 287.88l9.21 1.84-6.31 31.57c6.09-5.55 14.01-8.06 22.11-6.44 15.48 3.1 23.96 17.56 20.17 36.48-3.86 19.29-17.15 28.9-32.63 25.8-8.35-1.67-14.74-7.42-17.96-14.32l-1.77 8.85-9.21-1.84 16.39-81.94zm11.87 80.56c12.04 2.41 21.1-5.87 23.73-19.02s-2.53-24.39-14.57-26.8c-7.25-1.45-15.38 1.52-19.61 6.05l-5.38 26.9c2.17 5.8 8.59 11.42 15.83 12.87zM341.93 384.6c-5.99 4.42-13.32 5.9-21.3 4.3-10.07-2.01-19.41-10.91-16.83-23.81 2.65-13.27 14.59-17.4 24.67-15.38 8.11 1.62 14.35 5.56 18.03 12.04l2.14-10.69c1.6-7.98-3.88-13.81-12.48-15.53-7.13-1.42-13.41 0-19.82 4.6l-3.02-7.25c7.71-5.35 15.97-7.02 25.67-5.08 12.53 2.51 21.84 10.25 18.97 24.62l-8.15 40.78-9.22-1.84 1.34-6.76zm3.39-16.95c-2.58-5.63-8.35-9.34-14.86-10.64-8.6-1.72-15.7 2.48-17.22 10.1-1.5 7.49 3.44 14.11 12.04 15.83 6.51 1.3 13.27.1 17.81-4.11l2.23-11.18zM381.69 321.01c.69-3.44 4.05-5.59 7.37-4.92 3.44.69 5.72 3.96 5.04 7.4-.69 3.43-4.08 5.7-7.52 5.01-3.32-.67-5.57-4.06-4.89-7.49zm-1.64 16.53l9.21 1.84-11.86 59.34-9.21-1.84 11.86-59.34zM400.13 390.36l7.76-38.82-9.83-1.97 1.62-8.11 9.83 1.97 3.24-16.21 9.21 1.84-3.24 16.21 12.04 2.41-1.62 8.11-12.04-2.41-7.37 36.85c-.88 4.42.44 8.01 4.5 8.82 2.58.52 5.26-.1 6.76-1.21l1.33 7.42c-2.78 1.75-6.41 2.68-11.82 1.6-8.72-1.73-12.14-7.66-10.37-16.5zM479.88 378.58c2.09-10.45-2.7-14.6-10.69-16.19-7.12-1.42-14.89 1.62-19.41 5.7l-8.67 43.36-9.21-1.84 16.38-81.94 9.21 1.84-6.24 31.2c5.16-4.08 14.3-7.62 23.27-5.82 12.41 2.48 17.72 9.8 15.14 22.7l-8.38 41.89-9.22-1.84 7.82-39.06zM211.85 382.52c.49-2.46 2.89-3.98 5.26-3.51 2.45.49 4.08 2.82 3.59 5.28-.49 2.45-2.91 4.07-5.36 3.58-2.37-.47-3.98-2.9-3.49-5.35zm-1.18 11.8l6.57 1.31-8.46 42.34-6.57-1.31 8.46-42.34zM246.62 451.74c2.66 4.91 6.56 7.32 12.6 8.53 7.01 1.4 14.27-.7 16.13-9.99l1.21-6.05c-3.93 3.69-9.75 5.89-15.71 4.7-11.04-2.21-17.2-12.01-14.47-25.68 2.72-13.59 12.11-20.46 23.25-18.23 5.7 1.14 10.22 4.96 12.71 10.29l1.28-6.4 6.57 1.31-8.22 41.11c-2.8 14.02-13.5 16.44-23.84 14.37-7.19-1.44-11.82-3.82-15.83-9.73l4.32-4.23zm34.68-31.18c-1.54-4.14-6-8.31-11.26-9.36-8.5-1.7-14.93 4.03-16.81 13.41-1.86 9.29 1.86 17.14 10.36 18.84 5.26 1.05 11-1.18 14.01-4.4l3.7-18.49zM294.93 466.95c2.89.58 5.01 0 7.21-3.21l4.08-5.84-9.16-46.31 7.1 1.42 7.17 37.53 20.97-31.91 7.19 1.44-31.39 46.68c-3.77 5.62-8.54 7.14-14.17 6.1-1.4-.28-3.54-.98-4.7-1.58l2.25-5.75c.87.65 2.4 1.22 3.45 1.43zM394.73 445.25c1.07-5.34-.61-9.23-6.05-10.32-4.39-.88-9.66 1.35-12.52 4.24l-6.2 31.03-6.57-1.31 5.75-28.75c1.07-5.34-.53-9.22-6.05-10.32-4.3-.86-9.48 1.38-12.45 4.34l-6.19 30.94-6.57-1.31 8.46-42.34 6.57 1.31-1.23 6.13c2.3-2.36 8.89-5.7 15.11-4.45 6.49 1.3 9.47 5.54 9.82 10.17 3.14-3.38 9.64-6.28 15.78-5.05 7.72 1.54 10.98 6.66 9.28 15.16l-6.12 30.59-6.58-1.32 5.76-28.74zM417.21 435.62l6.57 1.31-1.37 6.83c4.32-3.79 9.87-6.05 15.66-4.89l-1.35 6.75c-.75-.33-1.53-.57-2.58-.78-4.03-.81-10.22 1.42-12.83 4.45l-5.99 29.98-6.57-1.31 8.46-42.34zM467.45 483.49c-3.98 3.03-10.17 5.26-16.48 4-8.85-1.77-12.64-7-10.8-16.2l5.98-29.89 6.57 1.31-5.57 27.87c-1.49 7.45 1.84 10.4 7.54 11.54 5.17 1.03 10.68-.96 13.81-3.89l6.22-31.12 6.57 1.31-8.46 42.34-6.57-1.31 1.19-5.96z"/></g><g id="Layer_3"><path fill="#f2950a" d="M247.19 216.09c7.46 13.56 18.28 20.19 35.06 23.44 19.45 3.77 39.52-2.18 44.51-27.95l3.25-16.78c-10.82 10.26-26.9 16.48-43.43 13.28-30.63-5.93-47.84-32.98-40.5-70.9 7.3-37.68 33.21-56.87 64.08-50.89 15.8 3.06 28.4 13.57 35.38 28.29l3.44-17.75 18.23 3.53-22.08 114.02c-7.53 38.89-37.12 45.78-65.8 40.22-19.93-3.86-32.8-10.38-44.02-26.68l11.88-11.83zm95.53-86.93c-4.34-11.43-16.75-22.92-31.34-25.74-23.58-4.57-41.31 11.42-46.34 37.43-4.99 25.77 5.44 47.46 29.02 52.03 14.59 2.82 30.43-3.43 38.73-12.42l9.93-51.3zM406.75 74.73c1.32-6.81 7.94-11.07 14.51-9.8 6.81 1.32 11.36 7.75 10.05 14.56-1.32 6.81-7.99 11.32-14.8 10-6.57-1.28-11.08-7.96-9.76-14.76zm-3.05 32.7l18.23 3.53-22.74 117.42-18.23-3.53 22.74-117.42zM441.45 253.71c7.46 13.56 18.29 20.19 35.06 23.44 19.45 3.77 39.52-2.18 44.51-27.95l3.25-16.78c-10.82 10.26-26.9 16.48-43.43 13.28-30.63-5.93-47.84-32.98-40.5-70.9 7.3-37.68 33.21-56.87 64.08-50.89 15.8 3.06 28.4 13.57 35.38 28.29l3.44-17.75 18.23 3.53L539.4 252c-7.53 38.89-37.12 45.78-65.8 40.22-19.93-3.86-32.8-10.38-44.02-26.68l11.87-11.83zm95.53-86.92c-4.34-11.43-16.75-22.92-31.34-25.74-23.58-4.57-41.31 11.42-46.34 37.43-4.99 25.77 5.44 47.46 29.02 52.03 14.59 2.82 30.43-3.43 38.73-12.42l9.93-51.3z"/></g><g id="Layer_2"><path fill="#f2950a" d="M691.3 239.17s54.52-108.08 39.35-171.23C720.55 25.92 678.3.03 636.28 10.13c-42.02 10.1-67.91 52.35-57.81 94.37 15.17 63.15 112.83 134.67 112.83 134.67z"/><path d="M692.02 242.13l-1.87-1.37c-4.01-2.94-98.42-72.68-113.59-135.8-10.33-43.01 16.26-86.41 59.26-96.75 43.01-10.3 86.41 16.26 96.74 59.26 15.16 63.13-37.26 168.14-39.5 172.57l-1.04 2.09zM654.56 9.92c-5.88 0-11.85.68-17.82 2.12-40.9 9.83-66.19 51.1-56.36 92 13.67 56.91 96.6 121.8 110.21 132.13 7.43-15.38 51.83-110.86 38.16-167.77-8.4-34.94-39.74-58.48-74.19-58.48z"/><path fill="#f2950a" d="M691.4 238.85s110.67-40.19 142.04-95.03c20.87-36.49 8.21-82.99-28.29-103.86s-82.99-8.21-103.86 28.29c-31.37 54.83-9.89 170.6-9.89 170.6z"/><path d="M689.89 241.49l-.42-2.28c-.88-4.76-21.25-117.11 10.11-171.95 21.37-37.37 69.16-50.39 106.54-29.01 18.1 10.35 31.09 27.13 36.58 47.26 5.48 20.13 2.8 41.18-7.56 59.28-31.36 54.84-138.52 94.25-143.07 95.91l-2.18.79zm77.59-209.6c-25.76 0-50.82 13.41-64.5 37.32-28.22 49.36-12.84 150.38-10.06 166.96 15.69-6.01 110.58-43.99 138.8-93.33 9.83-17.19 12.38-37.19 7.18-56.29-5.21-19.11-17.54-35.05-34.73-44.89-11.58-6.62-24.22-9.77-36.69-9.77z"/><path fill="#f2950a" d="M688.56 238.54s108.08 54.52 171.23 39.35c42.02-10.1 67.91-52.35 57.81-94.37s-52.35-67.91-94.37-57.81c-63.15 15.17-134.67 112.83-134.67 112.83z"/><path d="M834.67 282.55c-62.42 0-143.12-40.29-147-42.25l-2.07-1.04 1.37-1.87c2.94-4.01 72.67-98.43 135.79-113.59 20.85-4.99 42.37-1.59 60.65 9.59 18.27 11.19 31.09 28.83 36.1 49.67 10.34 43.01-16.25 86.41-59.26 96.75-7.96 1.9-16.58 2.74-25.58 2.74zm-143.11-44.73c15.38 7.43 110.85 51.82 167.77 38.16 40.91-9.83 66.19-51.1 56.36-92-4.76-19.82-16.95-36.59-34.33-47.23-17.38-10.66-37.87-13.9-57.67-9.12-56.93 13.66-121.81 96.59-132.13 110.19z"/><g><path fill="#f2950a" d="M688.88 238.63s40.19 110.67 95.03 142.04c36.49 20.87 82.99 8.21 103.86-28.29 20.87-36.49 8.21-82.99-28.29-103.86-54.84-31.37-170.6-9.89-170.6-9.89z"/><path d="M821.57 392.66a77.51 77.51 0 0 1-38.63-10.29c-54.84-31.36-94.25-138.52-95.9-143.07l-.79-2.18 2.28-.42c4.75-.88 117.1-21.26 171.94 10.11 18.11 10.35 31.1 27.14 36.58 47.26 5.48 20.13 2.8 41.17-7.56 59.28-14.41 25.19-40.81 39.31-67.92 39.31zm-130.02-152.5c6.01 15.7 43.99 110.59 93.33 138.81 17.19 9.84 37.19 12.38 56.3 7.17 19.11-5.2 35.05-17.54 44.89-34.73 9.83-17.19 12.38-37.19 7.17-56.3-5.2-19.11-17.54-35.05-34.73-44.89-49.36-28.23-150.37-12.84-166.96-10.06z"/></g><g><path fill="#f2950a" d="M681.33 235.79s-54.52 108.08-39.35 171.23c10.1 42.02 52.35 67.91 94.37 57.81 42.02-10.1 67.91-52.35 57.81-94.37-15.17-63.15-112.83-134.67-112.83-134.67z"/><path d="M718.07 468.97c-36.23 0-69.17-24.75-78-61.49-15.16-63.12 37.26-168.13 39.5-172.57l1.04-2.07 1.87 1.37c4.01 2.94 98.42 72.68 113.59 135.8 10.33 43.01-16.26 86.4-59.26 96.74a80.466 80.466 0 0 1-18.74 2.22zm-36.02-230.18c-7.43 15.38-51.83 110.86-38.16 167.77 4.76 19.82 16.95 36.59 34.33 47.24 17.39 10.65 37.86 13.9 57.67 9.12 40.9-9.83 66.19-51.1 56.36-92-13.67-56.92-96.6-121.8-110.2-132.13z"/></g><g><path fill="#f2950a" d="M681.24 236.11S570.57 276.3 539.2 331.14c-20.87 36.49-8.21 82.99 28.29 103.86s82.99 8.21 103.86-28.29c31.37-54.83 9.89-170.6 9.89-170.6z"/><path d="M605.15 447a77.51 77.51 0 0 1-38.63-10.29c-37.38-21.38-50.39-69.17-29.02-106.54 31.36-54.84 138.52-94.25 143.07-95.91l2.18-.79.42 2.28c.88 4.76 21.25 117.12-10.11 171.95-14.4 25.18-40.8 39.3-67.91 39.3zm74.56-208.21c-15.7 6.02-110.58 43.99-138.8 93.33-9.83 17.19-12.38 37.19-7.17 56.3 5.21 19.11 17.54 35.05 34.73 44.89 35.49 20.3 80.89 7.93 101.19-27.56 28.21-49.35 12.83-150.38 10.05-166.96z"/></g></g></svg>
