<svg xmlns="http://www.w3.org/2000/svg" viewBox="0 0 1000 1000" xml:space="preserve"><path fill="#d02128" d="M750 209c-143 35-164 45-164 45l-23 177h54v109h-69l-39 300s74-31 160-57c85-26 125-31 125-31s17-160 95-354 95-224 95-224-91 1-234 35z"/><path fill="none" d="M298 225c-121-50-214-62-214-62s12 31 58 222 56 343 56 343 33 9 105 44c73 35 134 73 134 73V516l-6-1c-36-8-53-6-53-6v-64s29 1 57 10l2 1V287s-18-12-139-62z"/><path d="M437 845s-61-38-133-73c-73-35-106-45-106-45s-10-151-56-342-58-222-58-222 93 12 214 62 139 62 139 62v169l33 12V258s-24-13-182-69-262-69-262-69 15 34 75 247 56 382 56 382 44 11 138 50c95 39 175 81 175 81V529c-7-4-17-9-33-13v329z"/><path d="M378 445v64s17-2 54 6l5 1v-60l-2-1c-28-9-57-10-57-10zM893 132s-90 13-227 65-157 66-157 66v204l32-12c28-9 57-10 57-10v64s-17-2-54 6c-16 4-28 9-35 13v326s69-41 151-77c81-37 120-47 120-47s-4-161 48-363 65-235 65-235z"/></svg>
