<svg xmlns="http://www.w3.org/2000/svg" viewBox="0 0 1000 500"><g id="Layer_2"><path fill="#0f0" d="M222.2 280.9c-1.7 2.9-.6 5.9-.2 9.9-6.7-5.5-8 2.9-12.3 3.8-1.2.2-.2 2.7.5 3.9 1.3 2.1 2 4.1-.1 6.3-2.2 2.2-4.4 1.6-6.9.6-4.3-1.7-8.1-3.1-10.2-8.3-1.3-3.2-6.3-5.3-10.4-5.8-7.5-.9-10.6-3.3-11.8-10.3-2-11.3-18.2-17.7-28.6-11.1-3 1.9-4.7 2.7-5.8-1.5-.5-2-2.1-2.3-4-1.8-6.5 1.5-11.5 11.9-8.9 18.1 2.3 5.7 1.3 11.4-2.5 16-2 2.4-4.8 4-8.9 2.4-6.4-2.5-10.4 2-12.5 8.2-2.3 6.6-5.9 12.7-6.5 20.1-.2 2.4-3.9 2.8-6.5 2.6-2.6-.2-3.7-2.4-3.8-4.4-.1-5.5-4.7-10-3.7-15.8.1-.7-.3-1.9-.9-2.3-9.9-7.3-10.8-21.2-20.8-28.4-1.5-1.1-1.6-3-1.5-4.6.4-7.1-2.1-13.7-3.6-20.4-1.2-5.2-6.8-6.7-11.3-8.3-4.8-1.7-11.5-1.4-5.5-9.2.1-.2.1-.4.2-.6 1.1-1.9-4.9-5.9 1.8-6.1 5.7-.2 11.3 3.2 11.1 7.9-.4 6.2 3.9 8.9 7.1 12.6 2.2 2.4 5.2 3 7.3 1 2.8-2.7 6.4-3.8 9.2-6 3.6-2.8 6.6-3.7 10.2-1 2.8 2.1 4.6 1.2 6-1.5 1.2-2.2 2.2-4.6 5.2-4.9 2.6-.3 1.4-2.2.9-3.3-2.7-5.7-4.1-12-8.7-16.9-2.1-2.2-3.4-5.1-2.2-9.2 1.4-4.8-.1-10.1 3.3-14.9 1.7-2.4-2.4-4.5-4.6-5.8-2.1-1.2-4.6-2.2-2.7-5.1 1.7-2.5 2.6-7.3 7.2-5 3.9 1.9 4-.1 4.6-3 1.1-5.5 1.3-11.4 6.9-15 2.3-1.5 1-3.8-.3-5.6-4-5.4-3.7-10.3.4-15.9 4.7-6.5 11.3-10.4 17.6-14.7 1.2-.8 2.7-1.5 4.1-1.6 4.1-.4 10.1 1.9 7.7-6.5-.3-1 2.5-.9 3.9-.8 6.8.3 13.5-.3 20.2-1.3 1.9-.3 4.1-.5 4.7-2.6 2.8-10.6 10-17.4 18.4-23.9 4.7-3.6 6.8-10.6 13.5-12.6.7-.2 1.1-1.7 1.4-2.7 3.3-10.2 14.9-13.3 23.2-6.4 1.9 1.6 2.5 3.4 1.4 5.5-1 1.9-1.1 3.8.2 5.3 7.2 8.7 5.1 19.5 6.7 29.4.8 5-1.8 8.5-6.6 10.1-5.5 1.8-10.6 1.1-14.2-3.8-3.7-5.1-7.4-10.2-8.9-17.1.9 7.7-4.6 11.6-8.7 16.3-3.6 4.2-1.1 8.8-.4 13.2.1.8 1 1.4 2 1.1.9-.3 1.3-1 1.2-1.9-.1-.8-.4-1.7-.2-2.5.4-2.2.4-5.1 3.3-5.4 3-.3 3.6 2.3 4.2 4.6.4 1.4.8 2.9 1.4 4.2 1.5 2.9 2.9 3.9 5.2.3 4.1-6.2 15.4-6.7 19.7-.9 2.2 2.9 4.8 2.2 5.3 0 1.7-6.9 9.6-9.4 10.3-16.6 2.9.6 4 2.9 5.5 4.5 2.1 2.1 2.5 4.9 1.4 7.7-1.1 2.7-3.3 1.9-5.4 1.6-1.5-.2-3.2 0-3.4 1.9-.2 2-1.3 4.2.9 5.9 1.2.9 2.9 1.9 4 .6 4.1-4.6 9.2-3.1 14.2-2.8 3.8.2 7.5.9 11.3.9 2.7 0 6.1-1.2 7.6 1.4 1.3 2.2-3.2 3-3 6.2 5.6-.6 10.4 3.3 16.1 3 1.5-.1 2.9.6 4 1.7 1.2 1.3 1.8 3.9 4.3 2.4 1.9-1.2 1.1-3.4 1.3-5.3.3-2.9-1.6-5.2-2.1-7.9-.3-1.8.3-3.4 2.1-4.2 1.5-.6 2.7.3 2.9 1.6 1 9.6 10.9 13 14.4 20.9 1.5 3.4 3.9 6.4 4.9 10.1.3 1.1.6 2.2 1.9 2.1 1.5-.2 2-1.4 2-2.8 0-.4 0-.9-.3-1.2-4.8-8 1.9-14.5 3-21.8.1-.7.7-1.7 1.4-2 8.3-4.2 12.9-12.5 19.8-18.2 1.5-1.2 3.2-2.6 5-1.2 1.6 1.3 1.1 3-.2 4.4-.6.6-1.4 1.4-.5 2.1 6.5 5.6.8 9.8-1.8 14.1-1.5 2.5-2.3 4.6-2.2 7.6.3 6.2-4.8 10.6-6.3 16.2-.6 2.2-2.1 4.3-1.2 6.6 2.2 5.5-1.3 9.1-4.4 12.2-3.4 3.5-7.8 6.1-11.9 9 2.6 3.8 5 .1 7.1-.6 5.4-1.8 9.4-5.7 10.7-11.4 1.1-4.7 3-7.9 10-6.7-3.2-3-8.8-.8-7.9-6 .5-3.1.7-6.5 2.8-9 2.5-3.1 4.1-6 3.2-10.3-.7-3.1 1-6.4 3.7-7.4 5.9-2.2 8-6.1 7.2-12.3 6.9 7.3-2.7 13.9-.6 22 2.3-3.1.5-7.4 4.2-8.3 2.8-.7 2-5.8 5-4.7 3.1 1.2 5.6 4 8.3 6.2.6.5.9 1.4 1.4 2.1 1.1 1.4 1.3 4.8 3.4 3.6 2.6-1.5-.1-3.4-1.3-5-3.3-4.4-.9-9.1.3-13.1s5.3-1.8 8.3-1.5c2.5.3 5 .4 7.6.5 3.4 0 6.6.5 4.8-5.3-1.5-4.9 4.6-5.8 7-8.7.8-1 2.7-1.1 3.9-1.8 5.2-2.9 11.8-2 16.6-6.6 1.5-1.4 6.7-3.3 9.6.9.5.8 1.8.9 2.2.2 2.4-4.2 9.2-3.7 10.1-9.8.3-2.2 2.6-4.2 4.3-6.1 1.7-1.9 3.7-4.1 6.5-2.5 2 1.2 5.9 1.9 3.2 5.9 2.6 1.5 2.5 6.5 7.4 5.3 5.3-1.3 10.2-1.2 13.8 4.4 3.9 6 4.6 11.6.1 17.4-1.5 2-1.5 3.2.2 5.4 4.7 5.8 6.8 7 14.8 7.5 3 .2 5.6-.1 8.2 3.2 3.6 4.6 11.8 2 13.1-3.8 1-4.4 3.1-6.3 7.6-4.4 3 1.2 6.1-.7 9.3 1 5.8 3 7.2 8.3 8.4 13.9.4 1.6.4 3.4 1 4.9 1.1 2.7 2.8 5.1 6 4.8 2.9-.3 1.7-3.4 2.3-5.2.7-2.2 1-4.4 1.8-8.1 3.5 5.9 6.6 4.3 10.3 1.4 2.2-1.7 5.4-2 8.2-3.1 3.2-1.2 5.2-2.5 2.3-6.3-1.9-2.4 1.1-10 4.2-10.7 6.1-1.3 11.7-5.4 18.4-3.2.2.1.5.3.6.2 7.5-8.2 13.7.6 20.3 1.9 4.6.9 7.4.6 10.6-2.7 2.3-2.4 5.5-3.9 8.2-5.8 5-3.5 9.9-2.5 13.7 1.6 4.1 4.5 7.3 3.4 10.3-.7 1.9-2.7 3.9-4.6 7.1-5.8 3.8-1.4 7.1-3.7 7.2-8.6 0-2.3 1.6-4.2 4-4.1 2.4.1 3 1.9 2.4 4.1-.5 1.6.3 2.8 1.8 2.1 1.9-.8 4.6 1.1 5.7-1.4.7-1.5-.6-2.6-1.9-3.5-7.1-5-7.1-5.8 0-10.5 6.1-4 10.6-9.9 18.2-12 12-3.3 24.1-5.1 36.3-6.9 2.8-.4 5-1.4 6.5-3.1 3.2-3.5 6.8-5 11.5-5.4 6.3-.5 9.1 1.5 7.7 7.7-1.1 4.7.8 7.8 4.1 10.5 2.8 2.3 2.1 5.2-.6 5.8-4.7 1.2-8.7 5.7-14.3 3.3-1.5-.7-3.4-.3-4 1-2.1 5.4-6 6.4-11.2 4.4 9.6 5.7 8.2 14 1.3 20.7 8.3-3.3 13.7 2.2 19.8 4.2 2.9 1 4.5 4.7 1.6 6.5-9.4 5.9-8.3 16-10.3 24.7-1.4 6-.8 12.5-.9 18.8 0 3.1-1.7 2.9-3.7 2.6-6.6-.8-9.1 2.8-9.9 8.7-.2 1.9 1.5 6.9-4 3.8-.2-.1-1 .3-1 .5.4 3.9-4.4 6-4.4 8.4 0 5.7 2 11.5 3.2 17.2.2.9 1.2 1.1 2.1.7.4-.2.8-.3 1.2-.4 6.1-1 3.4 6.5 7.6 7.8 4.1 1.2 6.7 3.4 3.6 8.3-1.9 3.1-.5 6.2 2.1 8.5 3.2 2.7 3.8 5.4.5 8.5-.9.8-2.1 2.4-1.8 3.1 2.5 6.9.5 14 1.6 20.9 1.5 9.8-.9 19.1-3.2 28.4-.1.3-1 .4-1.8.7-.2-.7-.6-1.4-.5-1.8 3.6-8.6-1.6-14.1-6.9-19.4-5.6-5.7-10.9-11.7-16.2-17.8-6.7-7.9-8.2-17.1-9.5-26.7-.1-.4-.1-.9.1-1.2 6.8-10.9 3.1-23.5 5.4-35.1.5-2.5 1.2-4.9 1.9-7.3.6-2.2.5-4.8-1.6-5.5-2.4-.8-4.3 1.1-4.9 3.6-.7 2.7-.9 5.4-1.7 8-.4 1.4-.1 3.9-2.2 3.9-1.2 0-3-1-3.7-2.1-1.7-2.6-3.3-5.7-6.7-3.3-3.1 2.2-7 4.6-6.6 9.3.5 4.7.5 9.2-1.2 13.7-1.2 3.2-.4 5.6 3.7 6.4 3.5.7 3.3 2.9.9 4.9-3.3 2.9-6.7 5.6-10.1 8.4-2 1.7-4.1 3.9-5.1-1-.4-1.9-9.5.2-10.1 2.6-1.7 7.6-9.2 9.5-14.1 10.6-11 2.4-15.2 9.2-17.9 18.6-3.7 13.1-7.3 26.4-14.1 38.4-.6 1.1-1.8 2.2-1 3.5.8 1.4 2.2.6 3.4.3 4-1 7 2.4 10.9 2.4 1.6 0 2.7.5 3.5-1.3 2.6-5.5 6.4-5.7 11.2-2.6 3.3 2.1 7.3 5.3 9.9-1.2.7-1.8.8-3.2-.6-4.6-1.2-1.1-2.1-2.6-.3-3.6 1.6-1 2.8.5 3.7 1.6 1.9 2.5 4.2 5 5.2 7.9 4.8 13.6 15.9 22.4 24.7 33-.4.3-.7.8-.9.7-2.4-.1-5.2-2.9-7-.3-2.3 3.3-.8 7.4.1 11 .9 3.6 3.8 6.2 7.2 7.5 3.2 1.3 4.6 3.4 5 7.4-3.8-1.6-6.7-2.2-6.9 3.1-.1 2.7-2.1 2.2-3.4.5-1.9-2.4-2.3-5.4-3.4-8.1-4.7-11-10.3-21.5-13.9-33-.8-2.5-2.9-5.3-5.2-4.7-2.8.7-1.6 4.2-1.5 6.6 0 .2 0 .4.1.6 10.6 23.9 2.8 46.5-4.4 69.3-2.2 6.9-4.1 13.7-9.8 18.8-2.5 2.2-5.1 4-8.5 3.2-4-1-6.3 0-7.5 4.2-.4 1.3-1.4 4.9-4.3 3-2.1-1.3-2.4-3.4-.7-5.9 3.1-4.5.2-8.9-1.4-13.1-2-5.6-.8-9.2 5-10.2 4.1-.7 5-2.9 5.5-6.4.8-6.5-.7-13.1.7-19.6.3-1.4-.7-3-2.2-3.5-1.5-.5-2.1 1-3.1 1.7-3.9 2.7-6.3 7.3-11.4 8.5-3.2.7-5.9.4-6.9-2.5-3.1-8.9-10.7-8.6-17.7-8.7-3.8-.1-5.6-1.1-7.5-4.2-3.9-6.5-8.3-12.6-12.3-19.1-4.7-7.6-26.4-7.5-31.8.5-.7 1-1.7 2.2-.5 3.3 4.1 3.6 2 6.9.1 10.7-1.6 3.1-2.2 6.8-2.9 10.3-1.8 9.7-6.5 12.1-16.1 10.5-7-1.2-14.3-4.3-21.2 3.8-7.2 8.4-22.7 7.6-32.1 1.1-5.8-4-12-6.5-19.6-4.6-7.9 1.9-11.5-.4-15.5-7.5-3.5-6.2-10.5-7.2-16.3-9.5-3.1-1.2-6.9 4.8-6.3 9.1 1.1 8.4-2.3 11.1-10.4 9-5.8-1.5-11.2-2.1-16-7.3-4.9-5.4-18-3.7-25 2.2-3.4 2.9-7.3 1.6-10.5 3-4.5 2-6.3-2.2-9-2.8-9.1-2-11.1-9.3-14.6-15.7-.4-.7-1-1.9-1.6-1.9-6.3 0-11.2-3.6-16.7-5.5-3.4-1.2-4.1-2.5-4.8-4.9-2.1-7.7-2.2-15.9-5.4-23.4-3.7-8.7-4-8.6-13.2-6.7-4.1.9-8.6 1.5-9.4-4.9-.1-1.1-1.7-2.3-2.9-3.1-4.3-2.8-6.9-5.9-5.1-11.7 1-3.1-5.2-6.9-9.7-6.7-13.6 0-31.3-3.3-41.6-7.5z"/><path fill="#0f0" d="M342.4 83.3c-15.6-.3-27.5 8.6-40 16.2-8 4.9-12 11.5-10.1 21.1.6 3-.7 4-3.6 2.8-7.2-3-12.2-14.5-9.4-21.8.4-.9 1.1-2.4 1.7-2.5 5.6-.6 8.9-5.1 12.8-8.2 6.1-4.7 13.2-7.8 19.2-12.7 6.3-5.1 15.3-6.8 23.6-5.3 4.9.9 9.5 1.4 14.3.3 2.7-.6 6-1 7 2.3 1 3.4-1.7 5.4-4.4 6.8-3.4 1.8-7.3.8-11.1 1zM447.3 70.5c-6.4 2.3-12.8-.2-15.5-6.2-.8-1.7-1.5-3.5-2.4-5.1-1.3-2.2-5.7-3-3.3-7 3.2-5.2 4.1-12 10.5-14.9 1.3-.6 2.6-.8 3.2.6 1.1 2.8 4.3 5.1 2.8 8.5-1.7 3.8-2.6 6.4 2.7 8.1 3 1 2.6 4.6 2 7.2-.7 3.1-.8 6 0 8.8zM559.9 86.8c2.8-2.6 6.3-3.8 10.4-3 2.7.5 6.6-.7 7.2 3.2.6 3.9-.3 8-4.4 10.3-1.1.6-2.6.7-3.4 1.5-5.4 5.9-10.4 6.5-15.2-.6-.9-1.3-1.7-.6-2.6.1-1.2.8-2 .3-2.4-.9-.2-.7-.3-2.3-.2-2.3 4.6-.6 4-5.2 5.9-7.8 1.3-2 2.6-1.8 4.7-.5z"/><path fill="#0f0" d="M447.3 70.5c.6-1.6 1.2-3.1 1.9-4.7.6-1.2 1.7-2.3 3-2 4.6 1.3 5.8 5.8 7.6 9.3 1.3 2.5-.2 5.1-3.1 5.9-4 1.1-9 5-11.6 2.8-3.3-2.8 1.7-7.3 2.2-11.3zM67.3 130.1c.2 2.7-1.1 4.5-3.8 4.7-2.2.2-9.9-10.4-9.5-13.1.4-2.7 2.7-3 4.8-3 4.6.1 8.6 5.6 8.5 11.4z"/></g><g id="Layer_1"><path fill="#ddedfc" d="M13.6 230.5l10.3-54.3h8.6l-10.3 54.3z"/><path fill="#0066ca" d="M31.9 176.7L21.8 230h-7.6l10.1-53.2h7.6m1.2-1.1h-9.6L13 231h9.6l10.5-55.3z"/><path fill="#ddedfc" d="M59.2 230.5l4.1-21.9c.2-1.4.5-3.2.5-4.8 0-5.2-3-6.2-5.5-6.2-4.5 0-10.3 5.3-12.1 15l-3.4 18h-8.5l5.1-26.9c.9-4.4 1.5-8.5 2-11.7v-.3h7.4l-.8 7.2h1l.1-.2c3.5-5.2 8.3-7.9 13.9-7.9 6 0 9.7 3.9 9.7 10.5 0 1.7-.3 4.4-.7 6.5l-4.3 22.8h-8.5z"/><path fill="#0066ca" d="M63.1 191.1c5.7 0 9.2 3.7 9.2 10 0 1.7-.3 4.4-.7 6.4L67.3 230h-7.5l4-21.4c.2-1.4.5-3.2.5-4.9 0-4.3-2.1-6.7-6-6.7-4.7 0-10.8 5.4-12.6 15.4L42.5 230H35l4.9-26.3c.9-4.4 1.5-8.4 1.9-11.6h6.5l-.7 6.1-.1 1.1h1.8l.3-.4c3.5-5.1 8.1-7.8 13.5-7.8m0-1c-5.6 0-10.7 2.7-14.3 8.1h-.2l.8-7.2H41c-.5 3.4-1.1 7.6-2 12.4L33.8 231h9.5l3.4-18.4c1.7-9.3 7.3-14.6 11.6-14.6 3.8 0 5 2.5 5 5.7 0 1.6-.2 3.3-.5 4.8L58.6 231h9.5l4.4-23.2c.4-2 .7-4.8.7-6.6.1-7.6-4.4-11.1-10.1-11.1z"/><path fill="#ddedfc" d="M88.5 231.3c-4.6 0-8.5-1.3-10.5-2.6l2.1-6c2.3 1.2 6 2.5 9.3 2.5 3.9-.1 6.6-2.3 6.6-5.4 0-2.7-1.4-4.5-5.5-6.6-3.5-1.8-7.6-5-7.6-10 0-7.4 6.4-12.6 15.6-12.6 4 0 7.1.9 8.8 1.8l-2.1 5.9c-1.2-.6-3.8-1.6-7.2-1.6-3.9 0-6.6 2.1-6.6 5.2 0 2.8 2.6 4.5 5.4 5.9 5.5 3 8 6.3 8 10.3.2 8-6.3 13.2-16.3 13.2z"/><path fill="#0066ca" d="M98.6 191.1c3.6 0 6.5.8 8.2 1.5l-1.8 5c-1.4-.6-3.8-1.4-6.9-1.4-4.1 0-7.1 2.4-7.1 5.7 0 3 2.7 4.9 5.7 6.4 5.3 2.9 7.8 6 7.8 9.9 0 7.7-6.3 12.6-16 12.6-4.2 0-7.9-1.1-9.9-2.3l1.8-5.1c2.4 1.2 5.8 2.3 9.1 2.3 4.2-.1 7.1-2.5 7.1-5.9 0-3.4-2.1-5.1-5.8-7-3.3-1.7-7.3-4.8-7.3-9.5 0-7.2 6.2-12.2 15.1-12.2m0-1c-9.4 0-16.1 5.4-16.1 13.1 0 4.6 3.3 8 7.9 10.4 3.9 2 5.2 3.6 5.2 6.1 0 2.6-2.3 4.8-6.1 4.9-3.6 0-7.5-1.6-9.6-2.7l-2.5 6.9c2.1 1.6 6.5 2.9 11.1 2.9 9.6 0 17-4.8 17-13.6 0-5.1-3.9-8.4-8.3-10.7-3.4-1.7-5.2-3.3-5.2-5.5 0-2.7 2.5-4.7 6.1-4.7 3.3 0 6 1 7.5 1.8l2.5-6.9c-1.9-1-5.3-2-9.5-2z"/><path fill="#ddedfc" d="M124.2 231.4c-5.6 0-9-2.9-9-7.7 0-2.3.3-4.5.9-7.3l3.6-18.4h-5.4l1.2-6.4h5.4l1.7-8.7 8.7-2.1-2 10.8h9L137 198h-8.9l-3.3 16.5c-.3 1.9-.7 4-.7 5.8 0 2.6 1.4 4 4 4 .9 0 1.8 0 2.7-.1l-.8 6.5c-1.4.4-3.7.7-5.8.7z"/><path fill="#0066ca" d="M130.5 181.4l-1.8 9.5-.2 1.2h9l-1.1 5.4h-8.9l-.2.8-3.2 16.2c-.3 1.9-.7 4-.7 5.8 0 2.9 1.6 4.5 4.5 4.5h2.1l-.7 5.6c-1.3.4-3.4.6-5.3.6-5.4 0-8.5-2.6-8.5-7.2 0-2.3.3-4.5.9-7.3l3.4-17.8.2-1.2h-5.2l1-5.4H121.2l.2-.8 1.5-8 7.6-1.9m1.3-1.3l-9.8 2.4-1.6 8.6H115l-1.4 7.4h5.4l-3.4 17.8c-.7 2.9-.9 5.2-.9 7.5 0 4.6 2.9 8.2 9.5 8.2 2.3 0 4.8-.3 6.2-.8l.9-7.5c-1 .2-2.1.2-3.3.2-2.5 0-3.5-1.4-3.5-3.5 0-1.7.3-3.8.7-5.7l3.2-16.1h8.9l1.5-7.4h-9l2-11.1z"/><path fill="#ddedfc" d="M139.3 230.5l7.3-38.9h8.6l-7.4 38.9h-8.5zm13.4-45.7c-1.3 0-2.4-.5-3.2-1.3-.8-.8-1.2-2-1.2-3.3 0-3 2.3-5.3 5.2-5.3 2.7 0 4.6 1.9 4.6 4.7-.1 3.1-2.3 5.2-5.4 5.2z"/><path fill="#0066ca" d="M153.5 175.4c2.4 0 4.1 1.7 4.1 4.1-.1 2.8-2.1 4.8-4.9 4.8-1.2 0-2.2-.4-2.9-1.1-.7-.7-1.1-1.8-1-3 0-2.7 2-4.8 4.7-4.8m1.1 16.7l-7.2 37.9h-7.5l7.2-37.9h7.5m-1.1-17.7c-3.1 0-5.7 2.4-5.7 5.8-.1 2.9 2 5.1 4.9 5.1 3.2 0 5.8-2.2 5.9-5.7 0-3.1-2.1-5.2-5.1-5.2zm2.3 16.7h-9.6l-7.5 39.9h9.5l7.6-39.9z"/><path fill="#ddedfc" d="M171.9 231.4c-5.6 0-9-2.9-9-7.7 0-2.3.3-4.5.9-7.3l3.6-18.4H162l1.2-6.4h5.4l1.7-8.7 8.7-2.1-2 10.8h9l-1.3 6.4h-8.9l-3.3 16.5c-.3 1.9-.7 4-.7 5.8 0 2.6 1.4 4 4 4 .9 0 1.8 0 2.7-.1l-.8 6.5c-1.4.4-3.8.7-5.8.7z"/><path fill="#0066ca" d="M178.2 181.4l-1.8 9.5-.2 1.2h9l-1.1 5.4h-8.9l-.2.8-3.2 16.2c-.3 1.9-.7 4-.7 5.8 0 2.9 1.6 4.5 4.5 4.5h2.1l-.7 5.6c-1.3.4-3.4.6-5.3.6-5.4 0-8.5-2.6-8.5-7.2 0-2.3.3-4.5.9-7.3l3.4-17.8.2-1.2h-5.4l1-5.4H168.7l.2-.8 1.5-8 7.8-1.9m1.3-1.3l-9.8 2.4-1.6 8.6h-5.4l-1.4 7.4h5.4l-3.4 17.8c-.7 2.9-.9 5.2-.9 7.5 0 4.6 2.9 8.2 9.5 8.2 2.3 0 4.8-.3 6.2-.8l.9-7.5c-1 .2-2.1.2-3.3.2-2.5 0-3.5-1.4-3.5-3.5 0-1.7.3-3.8.7-5.7l3.2-16.1h8.9l1.5-7.4h-9l2-11.1z"/><path fill="#ddedfc" d="M198.8 231.4c-6.4 0-9.9-3.8-9.9-10.8 0-2.2.3-4.5.8-7l4.2-22h8.5l-4 21.2c-.4 2.1-.7 4-.7 5.6 0 4 1.9 6.2 5.6 6.2 4.4 0 9.9-4.9 11.6-13.9l3.6-19h8.5l-5.1 26.9c-.8 4.4-1.4 8.1-1.8 11.5l-.1.5h-7.4l.8-7h-1l-.1.2c-3.7 4.8-8.5 7.6-13.5 7.6z"/><path fill="#0066ca" d="M226.4 192.1l-5 26.3c-.8 4.4-1.4 8.3-1.8 11.5h-6.4l.7-5.8.1-1.1h-1.8l-.3.4c-3.6 4.8-8.2 7.5-13 7.5-4.3 0-9.4-1.8-9.4-10.3 0-2.1.3-4.4.8-6.9l4.1-21.6h7.5l-3.9 20.6c-.4 2.1-.7 4.1-.7 5.7 0 4.3 2.2 6.7 6.1 6.7 5.4 0 10.6-6.2 12.1-14.3l3.5-18.6h7.4m1.2-1.1h-9.5l-3.7 19.4c-1.6 8.3-6.7 13.5-11.1 13.5-3.8 0-5.1-2.4-5.1-5.7 0-1.6.2-3.5.7-5.5L203 191h-9.5l-4.3 22.4c-.6 2.7-.8 5-.8 7.1 0 8.2 4.6 11.3 10.4 11.3 5 0 10-2.7 13.8-7.9h.2l-.8 7h8.4c.5-3.4 1.1-7.6 2-12.4l5.2-27.4z"/><path fill="#ddedfc" d="M243.8 231.4c-5.6 0-9-2.9-9-7.7 0-2.3.3-4.5.9-7.3l3.6-18.4h-5.4l1.2-6.4h5.4l1.7-8.7 8.7-2.1-2 10.8h9l-1.3 6.4h-8.9l-3.3 16.5c-.3 1.9-.7 4-.7 5.8 0 2.6 1.4 4 4 4 .9 0 1.8 0 2.7-.1l-.8 6.5c-1.4.4-3.7.7-5.8.7z"/><path fill="#0066ca" d="M250.1 181.4l-1.8 9.5-.2 1.2h9l-1.1 5.4h-8.8l-.2.8-3.2 16.2c-.3 1.9-.7 4-.7 5.8 0 2.9 1.6 4.5 4.5 4.5h2.1l-.7 5.6c-1.3.4-3.4.6-5.3.6-5.4 0-8.5-2.6-8.5-7.2 0-2.3.3-4.5.9-7.3l3.4-17.8.2-1.2h-5.4l1-5.4H240.7l.2-.8 1.5-8 7.7-1.9m1.3-1.3l-9.8 2.4-1.6 8.6h-5.4l-1.4 7.4h5.4l-3.4 17.8c-.7 2.9-.9 5.2-.9 7.5 0 4.6 2.9 8.2 9.5 8.2 2.3 0 4.8-.3 6.2-.8l.9-7.5c-1 .2-2.1.2-3.3.2-2.5 0-3.5-1.4-3.5-3.5 0-1.7.3-3.8.7-5.7l3.2-16.1h8.9l1.5-7.4h-9l2-11.1z"/><path fill="#ddedfc" d="M275.1 231.3c-10.1 0-15.9-5.8-15.9-16 0-11.9 8.9-24.7 22.1-24.7 7.5 0 12.4 4.2 12.4 10.7 0 8.6-7.7 12.7-23.6 12.7h-2.5l-.1.5c-.2 1.4.1 4.2 1.1 6 1.6 2.8 4.6 4.3 8.6 4.3 3.7 0 7.3-.8 10.6-2.4l.8 5.9c-3.6 1.9-8.7 3-13.5 3zm5-34.5c-6.2 0-10.3 5.5-11.5 10.5l-.1.6h2.1c4.9 0 8.4-.4 10.9-1.3 2.8-1 4.3-2.8 4.3-5.2-.1-2.8-2.3-4.6-5.7-4.6z"/><path fill="#0066ca" d="M281.3 191.1c7.2 0 11.9 4 11.9 10.2 0 8.2-7.6 12.2-23.1 12.2h-2.9l-.1.9c-.2 1.7.2 4.6 1.2 6.3 1.7 3 4.9 4.6 9.1 4.6 3.6 0 7-.7 10.2-2.1l.6 4.9c-3.6 1.7-8.4 2.7-13 2.7-9.8 0-15.4-5.6-15.4-15.5-.1-11.7 8.6-24.2 21.5-24.2m-10.8 17.3c6.7 0 15.7-.7 15.7-7 0-3.1-2.4-5.2-6.1-5.2-6.5 0-10.8 5.7-12 10.9l-.3 1.2h1.2c.5.1 1 .1 1.5.1m10.8-18.3c-13.8 0-22.6 13.1-22.6 25.2 0 9.8 5.3 16.5 16.4 16.5 4.8 0 10.2-1.1 14.1-3.1l-.9-7c-2.9 1.5-6.5 2.6-11 2.6-3.8 0-6.6-1.4-8.2-4.1-.9-1.6-1.2-4.3-1.1-5.7h2c14.3 0 24.1-3.4 24.1-13.2.1-6.6-4.9-11.2-12.8-11.2zm-10.8 17.3H269c1.1-4.8 5.1-10.2 11.1-10.2 3 0 5.1 1.6 5.1 4.2 0 4.6-5.7 6-14.7 6z"/><path fill="#ddedfc" d="M313.9 230.5L320 198h-5.2l1.2-6.4h5.2l.5-2.5c1-5.8 3.3-10.4 6.5-13.2 2.7-2.3 6.3-3.6 10.2-3.6 2.2 0 4.1.3 5.3.8l-1.6 6.6c-1-.3-2.2-.5-3.5-.5-4.3 0-7.4 3.6-8.4 9.8l-.4 2.5h8.3l-1.2 6.4h-8.3l-6.1 32.5h-8.6z"/><path fill="#0066ca" d="M338.3 172.9c2.1 0 3.7.3 4.7.6l-1.4 5.7c-.9-.2-2-.4-3.1-.4-4.5 0-7.8 3.7-8.9 10.2l-.3 1.9-.2 1.2H337.4l-1 5.4H328.2l-.2.8-6 31.7h-7.5l5.9-31.3.2-1.2h-5.2l1-5.4h5.1l.2-.8.4-2.1c.7-4 2.4-9.4 6.3-12.9 2.7-2.2 6.2-3.4 9.9-3.4m0-1c-3.7 0-7.5 1.1-10.5 3.7-3.8 3.3-5.7 8.4-6.6 13.4l-.4 2h-5.2l-1.4 7.4h5.2l-6.1 32.5h9.5l6.1-32.5h8.3l1.4-7.4h-8.3l.3-1.9c.9-5.2 3.4-9.3 7.9-9.3 1.6 0 2.9.2 3.9.7l1.8-7.5c-1-.6-3.1-1.1-5.9-1.1z"/><path fill="#ddedfc" d="M354.6 231.4c-9.5 0-15.8-6.4-15.8-16 0-13.9 9.9-24.7 22.5-24.7 11 0 15.9 8.1 15.9 16.1 0 13.7-9.9 24.6-22.6 24.6zm5.6-34.4c-8.1 0-12.5 10.7-12.5 18.1 0 5.9 3.3 9.8 8.3 9.8 7.3 0 12.4-9.6 12.4-18.3-.1-4.4-2.2-9.6-8.2-9.6z"/><path fill="#0066ca" d="M361.4 191.1c10.6 0 15.4 7.8 15.4 15.6 0 13.5-9.7 24.2-22.1 24.2-9.2 0-15.3-6.2-15.3-15.5 0-6.5 2.2-12.5 6.2-17 4-4.7 9.6-7.3 15.8-7.3m-5.5 34.4c7.6 0 12.9-9.9 12.9-18.8 0-4.7-2.3-10.2-8.6-10.2-8.4 0-13 11-13 18.6 0 6.2 3.5 10.4 8.7 10.4m5.5-35.4c-13.6 0-23 11.7-23 25.2 0 9.5 6.2 16.5 16.3 16.5 13.6 0 23.1-11.6 23.1-25.2-.1-8.7-5.7-16.5-16.4-16.5zm-5.5 34.4c-4.8 0-7.8-3.9-7.8-9.3 0-7.5 4.4-17.6 12-17.6 5.8 0 7.6 5.1 7.6 9.2.1 7.8-4.6 17.7-11.8 17.7z"/><path fill="#ddedfc" d="M382.4 230.5l4.6-24c.7-3.9 1.2-8.1 1.6-11.4.1-1.3.3-2.5.4-3.5h7.3c-.2 2.5-.5 5.1-.8 7.9l-.1.6h1.1l.1-.3c2.9-5.8 7.3-9.1 12.1-9.1.5 0 1 0 1.5.1l-1.7 8.3c-.5-.1-1-.1-1.4-.1-6.5 0-11.4 5.9-13.2 15.8l-3 15.6h-8.5z"/><path fill="#0066ca" d="M408.7 191.1h.9l-1.5 7.4c-.3 0-.7-.1-1-.1-6.7 0-11.8 6.1-13.7 16.2l-2.9 15.2H383l4.4-23.4c.7-3.9 1.2-8.1 1.6-11.4.1-1.1.2-2.2.4-3.1h6.3c-.2 2.3-.4 4.8-.8 7.3l-.2 1.1h1.9l.3-.6c1.8-3 5.5-8.6 11.8-8.6m0-1c-5.5 0-9.8 3.9-12.5 9.3h-.2c.4-2.9.7-5.7.9-8.4h-8.3c-.5 3.6-1 9.7-2 15.3l-4.7 24.6h9.5l3-16.1c1.6-8.5 5.9-15.4 12.7-15.4.7 0 1.3.1 1.8.2l1.9-9.3c-.7-.1-1.4-.2-2.1-.2z"/><path fill="#ddedfc" d="M438.5 230.8c-4.9 0-9.4-.3-12.2-.7l10-53c3.8-.8 8.2-1.2 12.8-1.2 5.8 0 9.8 1 13 3.3 3.3 2 5.1 5.2 5.1 9 0 7.3-6 11.5-11.1 12.9l-.4.1v1l.4.1c5.3 1.6 8.5 6 8.5 11.6 0 5-2.5 9.4-6.9 12.5-4.2 3-10.3 4.4-19.2 4.4zm-2.8-6.9l.5.1c1.6.2 3.3.2 5.1.2 8.9 0 14.2-4 14.2-10.7 0-5.5-4.1-8.6-11.3-8.6h-4.9l-3.6 19zm13.5-41.5c-2.2 0-4.1.2-5.2.4l-.3.1-3 16h5c7.6 0 12.8-3.8 12.8-9.5-.1-4.6-3.3-7-9.3-7z"/><path fill="#0066ca" d="M449.2 176.3c5.7 0 9.6 1 12.7 3.2 3.1 1.9 4.9 5 4.9 8.6 0 7-5.8 11.1-10.7 12.4l-.7.2v1.7l.7.2c5.1 1.5 8.1 5.7 8.1 11.2 0 4.8-2.4 9.1-6.7 12.1-4.1 2.9-10.1 4.3-18.9 4.3-4.6 0-8.8-.2-11.6-.6l9.8-52.2c3.6-.7 7.9-1.1 12.4-1.1m-9.2 23H445.6c7.9 0 13.3-4 13.3-10 0-4.7-3.6-7.5-9.8-7.5-2.2 0-4.2.2-5.3.4l-.6.2-.1.6-2.9 15.1-.2 1.2m1.4 25.4c9.1 0 14.7-4.3 14.7-11.2 0-5.7-4.4-9.1-11.8-9.1H439l-.2.8-3.4 18.1-.2 1.1 1.1.1c1.5.2 3.2.2 5.1.2m7.8-49.4c-5 0-9.6.5-13.3 1.3l-10.2 53.8c2.6.5 7.2.8 12.8.8 8.4 0 14.9-1.2 19.5-4.5 4-2.8 7.1-7.1 7.1-12.9 0-6.3-3.7-10.6-8.8-12.1v-.2c6.1-1.6 11.5-6.4 11.5-13.4 0-4.2-2.1-7.5-5.3-9.4-3.4-2.4-7.6-3.4-13.3-3.4zm-8 23l2.9-15.1c1-.2 2.9-.4 5.1-.4 5.2 0 8.8 2 8.8 6.5 0 5.7-5.2 9-12.3 9h-4.5zm.2 25.4c-1.8 0-3.5-.1-5.1-.2l3.4-18.1h4.5c5.8 0 10.8 2.2 10.8 8.1.1 7.4-6.5 10.2-13.6 10.2z"/><path fill="#ddedfc" d="M471.2 230.5l7.3-38.9h8.6l-7.4 38.9h-8.5zm13.4-45.7c-1.3 0-2.4-.5-3.2-1.3-.8-.8-1.2-2-1.2-3.3 0-3 2.3-5.3 5.2-5.3 2.7 0 4.6 1.9 4.6 4.7-.1 3.1-2.3 5.2-5.4 5.2z"/><path fill="#0066ca" d="M485.4 175.4c2.4 0 4.1 1.7 4.1 4.1-.1 2.8-2.1 4.8-4.9 4.8-1.2 0-2.2-.4-2.9-1.1-.7-.7-1.1-1.8-1-3 0-2.7 2-4.8 4.7-4.8m1.1 16.7l-7.2 37.9h-7.5l7.2-37.9h7.5m-1.1-17.7c-3.1 0-5.7 2.4-5.7 5.8-.1 2.9 2 5.1 4.9 5.1 3.2 0 5.8-2.2 5.9-5.7 0-3.1-2.2-5.2-5.1-5.2zm2.3 16.7h-9.6l-7.5 39.9h9.5l7.6-39.9z"/><g><path fill="#ddedfc" d="M505.9 231.4c-4.7 0-8.2-1.1-10.3-3.3-1.7-1.7-2.5-4-2.5-7 0-2 .2-4.1.7-6.8l8.3-41h8.6l-5 24.2h1l.1-.2c3.1-4.2 7.7-6.6 12.7-6.6 8.5 0 11.5 7 11.5 13.6.2 13.3-9.3 27.1-25.1 27.1zm9.5-34c-5.4 0-10.5 5.7-12.1 13.5l-.8 3.7c-.2 1.3-.5 2.9-.4 4.9 0 3.5 2.1 5.6 5.8 5.6 8.8 0 14.3-11.3 14.3-19 0-5.4-2.6-8.7-6.8-8.7z"/><path fill="#0066ca" d="M510.1 173.8l-4.7 23-.2 1.2h1.9l.3-.4c3-4.1 7.5-6.4 12.3-6.4 8.1 0 11 6.8 11 13.1 0 6.5-2.3 13-6.3 17.9-3.2 4-9 8.7-18.5 8.7-4.5 0-7.9-1.1-9.9-3.1-1.6-1.6-2.4-3.8-2.3-6.6 0-1.9.2-4 .7-6.7l8.2-40.7h7.5m-2.3 51.8c9.2 0 14.8-11.4 14.8-19.5 0-5.6-2.8-9.1-7.3-9.1-5.7 0-11 5.8-12.6 13.9l-.8 3.7c-.2 1.3-.5 2.9-.4 4.9 0 3.8 2.4 6.1 6.3 6.1m3.6-52.8h-9.6l-8.4 41.5c-.4 2.2-.7 4.6-.7 6.9-.1 7.2 4.9 10.7 13.3 10.7 17 0 25.7-15 25.7-27.6 0-7.1-3.5-14.1-12-14.1-5.2 0-9.9 2.5-13.1 6.8h-.2l5-24.2zm-3.6 51.8c-3.4 0-5.3-1.8-5.3-5.1-.1-1.9.2-3.4.4-4.8l.8-3.7c1.6-8 6.7-13.1 11.6-13.1 4.4 0 6.3 3.7 6.3 8.1.1 7.8-5.4 18.6-13.8 18.6z"/></g><g><path fill="#ddedfc" d="M536.2 230.5l11-57.2h8.4l-10.8 57.2z"/><path fill="#0066ca" d="M555 173.8L544.4 230h-7.5l10.8-56.2h7.3m1.3-1h-9.5L535.6 231h9.6l11.1-58.2z"/></g><g><path fill="#ddedfc" d="M573.2 231.3c-10.1 0-15.9-5.8-15.9-16 0-11.9 8.9-24.7 22.1-24.7 7.5 0 12.4 4.2 12.4 10.7 0 8.6-7.7 12.7-23.6 12.7h-2.5l-.1.5c-.2 1.4.1 4.2 1.1 6 1.6 2.8 4.6 4.3 8.6 4.3 3.7 0 7.3-.8 10.6-2.4l.8 5.9c-3.6 1.9-8.6 3-13.5 3zm5-34.5c-6.2 0-10.3 5.5-11.5 10.5l-.1.6h2.1c4.9 0 8.4-.4 10.9-1.3 2.8-1 4.3-2.8 4.3-5.2-.1-2.8-2.3-4.6-5.7-4.6z"/><path fill="#0066ca" d="M579.4 191.1c7.2 0 11.9 4 11.9 10.2 0 8.2-7.6 12.2-23.1 12.2h-2.9l-.1.9c-.2 1.7.2 4.6 1.2 6.3 1.7 3 4.9 4.6 9.1 4.6 3.6 0 7-.7 10.2-2.1l.6 4.9c-3.6 1.7-8.4 2.7-13 2.7-9.8 0-15.4-5.6-15.4-15.5-.1-11.7 8.6-24.2 21.5-24.2m-10.8 17.3c6.7 0 15.7-.7 15.7-7 0-3.1-2.4-5.2-6.1-5.2-6.5 0-10.8 5.7-12 10.9l-.3 1.2h1.2c.5.1 1 .1 1.5.1m10.8-18.3c-13.8 0-22.6 13.1-22.6 25.2 0 9.8 5.3 16.5 16.4 16.5 4.8 0 10.2-1.1 14.1-3.1l-.9-7c-2.9 1.5-6.5 2.6-11 2.6-3.8 0-6.6-1.4-8.2-4.1-.9-1.6-1.2-4.3-1.1-5.7h2c14.3 0 24.1-3.4 24.1-13.2.1-6.6-4.9-11.2-12.8-11.2zm-10.8 17.3h-1.5c1.1-4.8 5.1-10.2 11.1-10.2 3 0 5.1 1.6 5.1 4.2 0 4.6-5.7 6-14.7 6z"/></g><g><path fill="#ddedfc" d="M621 230.5l8.9-46.9h-15.3l1.5-7.4h39.2l-1.5 7.4h-15.4l-8.8 46.9z"/><path fill="#0066ca" d="M654.7 176.7l-1.2 6.4H638l-.2.8-8.7 46.1h-7.5l8.7-45.7.2-1.2H615.2l1.2-6.4h38.3m1.2-1h-40.2l-1.6 8.4h15.3l-8.9 46.9h9.6l8.8-46.9h15.4l1.6-8.4z"/></g><g><path fill="#ddedfc" d="M647.8 230.5l4.6-24c.7-3.9 1.2-8.1 1.6-11.4.1-1.3.3-2.5.4-3.5h7.3c-.2 2.5-.5 5.1-.8 7.9l-.1.6h1.1l.1-.3c2.9-5.8 7.3-9.1 12.1-9.1.5 0 1 0 1.5.1l-1.7 8.3c-.5-.1-1-.1-1.4-.1-6.5 0-11.4 5.9-13.2 15.8l-3 15.6h-8.5z"/><path fill="#0066ca" d="M674.1 191.1h.9l-1.5 7.4c-.3 0-.7-.1-1-.1-6.7 0-11.8 6.1-13.7 16.2l-2.9 15.2h-7.5l4.4-23.4c.7-3.9 1.2-8.1 1.6-11.4.1-1.1.2-2.2.4-3.1h6.3c-.2 2.3-.4 4.8-.8 7.3l-.2 1.1h1.9l.3-.6c1.8-3 5.5-8.6 11.8-8.6m0-1c-5.5 0-9.8 3.9-12.5 9.3h-.2c.4-2.9.7-5.7.9-8.4H654c-.5 3.6-1 9.7-2 15.3l-4.7 24.6h9.5l3-16.1c1.6-8.5 5.9-15.4 12.7-15.4.7 0 1.3.1 1.8.2l1.9-9.3c-.7-.1-1.5-.2-2.1-.2z"/></g><g><path fill="#ddedfc" d="M687.1 231.4c-6.8 0-11.3-5.3-11.3-13.1 0-13.7 9.5-27.6 27.6-27.6 3.7 0 8.2.6 11.5 1.6l-4 20.4c-1.1 5.7-1.8 12.9-1.7 17.8h-7.8c.1-2 .3-4.5.6-7.2l.2-1.9H701l-.1.3c-3.4 6.4-8.1 9.7-13.8 9.7zm13.8-34.4c-9.2 0-16.2 10.3-16.2 19.5 0 5.2 2.3 8.1 6.2 8.1 4.6 0 10.2-5.5 12.2-16.1l2.2-10.9-.5-.1c-1-.3-2.4-.5-3.9-.5z"/><path fill="#0066ca" d="M703.4 191.1c3.5 0 7.7.6 10.9 1.5l-3.9 19.9c-1.1 5.6-1.7 12.5-1.7 17.4h-6.8c.1-1.9.3-4.2.6-6.7l.1-1.3.1-1.1h-1.9l-.3.5c-3.3 6.2-7.8 9.4-13.4 9.4-6.5 0-10.8-5.1-10.8-12.6 0-13.3 9.3-27 27.1-27m-12.5 34.1c4.8 0 10.7-5.7 12.7-16.5l2.1-10.5.2-.9-.9-.3c-1.2-.3-2.5-.4-4.2-.4-9.5 0-16.7 10.6-16.7 20 .1 5.4 2.6 8.6 6.8 8.6m12.5-35.1c-18.6 0-28.1 14.5-28.1 28.1 0 8 4.7 13.6 11.8 13.6 5.1 0 10.3-2.5 14.3-9.9h.2c-.3 3.4-.7 6.6-.7 9h8.8c-.2-4.8.5-12.2 1.6-18.2l4.1-20.8c-3-.9-7.7-1.8-12-1.8zm-12.5 34.1c-4.2 0-5.7-3.4-5.7-7.6 0-9.1 6.8-19 15.7-19 1.7 0 2.9.2 3.9.4l-2.1 10.5c-1.9 10.1-7.3 15.7-11.8 15.7z"/></g><g><path fill="#ddedfc" d="M744.5 230.5l4.1-21.9c.2-1.4.5-3.2.5-4.8 0-5.2-3-6.2-5.5-6.2-4.5 0-10.3 5.3-12.1 15l-3.4 18h-8.5l5.1-26.9c.9-4.4 1.5-8.5 2-11.7v-.3h7.4l-.8 7.2h1l.1-.2c3.5-5.2 8.3-7.9 13.9-7.9 6 0 9.7 3.9 9.7 10.5 0 1.7-.3 4.4-.7 6.5l-4.3 22.8h-8.5z"/><path fill="#0066ca" d="M748.5 191.1c5.7 0 9.2 3.7 9.2 10 0 1.7-.3 4.4-.7 6.4l-4.3 22.4h-7.5l4-21.4c.2-1.4.5-3.2.5-4.9 0-4.3-2.1-6.7-6-6.7-4.7 0-10.8 5.4-12.6 15.4l-3.3 17.6h-7.5l4.9-26.3c.9-4.4 1.5-8.4 1.9-11.6h6.5l-.7 6.1-.1 1.1h1.8l.3-.4c3.5-5 8.1-7.7 13.6-7.7m0-1c-5.6 0-10.7 2.7-14.3 8.1h-.2l.8-7.2h-8.4c-.5 3.4-1.1 7.6-2 12.4l-5.2 27.5h9.5l3.4-18.4c1.7-9.3 7.3-14.6 11.6-14.6 3.8 0 5 2.5 5 5.7 0 1.6-.2 3.3-.5 4.8l-4.3 22.5h9.5l4.4-23.2c.4-2 .7-4.8.7-6.6.1-7.5-4.4-11-10-11z"/></g><g><path fill="#ddedfc" d="M773.8 231.3c-4.6 0-8.5-1.3-10.5-2.6l2.1-6c2.3 1.2 6 2.5 9.3 2.5 3.9-.1 6.6-2.3 6.6-5.4 0-2.7-1.4-4.5-5.5-6.6-3.5-1.8-7.6-5-7.6-10 0-7.4 6.4-12.6 15.6-12.6 4 0 7.1.9 8.8 1.8l-2.1 5.9c-1.2-.6-3.8-1.6-7.2-1.6-3.9 0-6.6 2.1-6.6 5.2 0 2.8 2.6 4.5 5.4 5.9 5.5 3 8 6.3 8 10.3.2 8-6.3 13.2-16.3 13.2z"/><path fill="#0066ca" d="M783.9 191.1c3.6 0 6.5.8 8.2 1.5l-1.8 5c-1.4-.6-3.8-1.4-6.9-1.4-4.1 0-7.1 2.4-7.1 5.7 0 3 2.7 4.9 5.7 6.4 5.3 2.9 7.8 6 7.8 9.9 0 7.7-6.3 12.6-16 12.6-4.2 0-7.9-1.1-9.9-2.3l1.8-5.1c2.4 1.2 5.8 2.3 9 2.3 4.2-.1 7.1-2.5 7.1-5.9 0-3.4-2.1-5.1-5.8-7-3.3-1.7-7.3-4.8-7.3-9.5.1-7.2 6.3-12.2 15.2-12.2m0-1c-9.4 0-16.1 5.4-16.1 13.1 0 4.6 3.3 8 7.9 10.4 3.9 2 5.2 3.6 5.2 6.1 0 2.6-2.3 4.8-6.1 4.9-3.6 0-7.5-1.6-9.6-2.7l-2.5 6.9c2.1 1.6 6.5 2.9 11.1 2.9 9.6 0 17-4.8 17-13.6 0-5.1-3.9-8.4-8.3-10.7-3.4-1.7-5.2-3.3-5.2-5.5 0-2.7 2.5-4.7 6.1-4.7 3.3 0 6 1 7.5 1.8l2.5-6.9c-1.9-1-5.3-2-9.5-2z"/></g><g><path fill="#ddedfc" d="M797.3 230.5l11-57.2h8.4l-10.8 57.2z"/><path fill="#0066ca" d="M816.1 173.8L805.5 230H798l10.8-56.2h7.3m1.2-1h-9.5L796.7 231h9.6l11-58.2z"/></g><g><path fill="#ddedfc" d="M829.6 231.4c-6.8 0-11.3-5.3-11.3-13.1 0-13.7 9.5-27.6 27.6-27.6 3.7 0 8.2.6 11.5 1.6l-4 20.4c-1.1 5.7-1.8 12.9-1.7 17.8h-7.8c.1-2 .3-4.5.6-7.2l.2-1.8h-1.1l-.1.3c-3.5 6.3-8.2 9.6-13.9 9.6zm13.7-34.4c-9.2 0-16.2 10.3-16.2 19.5 0 5.2 2.3 8.1 6.2 8.1 4.6 0 10.2-5.5 12.2-16.1l2.2-10.9-.5-.1c-1-.3-2.3-.5-3.9-.5z"/><path fill="#0066ca" d="M845.9 191.1c3.5 0 7.7.6 10.9 1.5l-3.9 19.9c-1.1 5.6-1.7 12.5-1.7 17.4h-6.8c.1-1.9.3-4.2.6-6.7l.1-1.3.1-1.1h-1.9l-.3.5c-3.3 6.2-7.8 9.4-13.4 9.4-6.5 0-10.8-5.1-10.8-12.6 0-13.3 9.3-27 27.1-27m-12.5 34.1c4.8 0 10.7-5.7 12.7-16.5l2.1-10.5.2-.9-.9-.2c-1.2-.3-2.5-.4-4.2-.4-9.5 0-16.7 10.6-16.7 20 .1 5.3 2.5 8.5 6.8 8.5m12.5-35.1c-18.6 0-28.1 14.5-28.1 28.1 0 8 4.7 13.6 11.8 13.6 5.1 0 10.3-2.5 14.3-9.9h.2c-.3 3.4-.7 6.6-.7 9h8.8c-.2-4.8.5-12.2 1.6-18.2l4.1-20.8c-3-.9-7.7-1.8-12-1.8zm-12.5 34.1c-4.2 0-5.7-3.4-5.7-7.6 0-9.1 6.8-19 15.7-19 1.7 0 2.9.2 3.9.4l-2.1 10.5c-2 10.1-7.4 15.7-11.8 15.7z"/></g><g><path fill="#ddedfc" d="M874.1 231.4c-5.6 0-9-2.9-9-7.7 0-2.3.3-4.5.9-7.3l3.6-18.4h-5.4l1.2-6.4h5.4l1.7-8.7 8.7-2.1-2 10.8h9l-1.3 6.4H878l-3.3 16.5c-.3 1.9-.7 4-.7 5.8 0 2.6 1.4 4 4 4 .9 0 1.8 0 2.7-.1l-.8 6.5c-1.4.4-3.7.7-5.8.7z"/><path fill="#0066ca" d="M880.5 181.4l-1.8 9.5-.2 1.2h9l-1.1 5.4h-8.9l-.2.8-3.2 16.2c-.3 1.9-.7 4-.7 5.8 0 2.9 1.6 4.5 4.5 4.5h2.1l-.7 5.6c-1.3.4-3.4.6-5.3.6-5.4 0-8.5-2.6-8.5-7.2 0-2.3.3-4.5.9-7.3l3.4-17.8.2-1.2h-5.2l1-5.4H871.2l.2-.8 1.5-8 7.6-1.9m1.2-1.3l-9.8 2.4-1.6 8.6h-5.4l-1.4 7.4h5.4l-3.4 17.8c-.7 2.9-.9 5.2-.9 7.5 0 4.6 3 8.2 9.5 8.2 2.3 0 4.8-.3 6.2-.8l.9-7.5c-1 .2-2.1.2-3.3.2-2.5 0-3.5-1.4-3.5-3.5 0-1.7.3-3.8.7-5.7l3.2-16.1h8.9l1.5-7.4h-9l2-11.1z"/></g><g><path fill="#ddedfc" d="M889.2 230.5l7.3-38.9h8.6l-7.4 38.9h-8.5zm13.4-45.7c-1.3 0-2.4-.5-3.2-1.3-.8-.8-1.2-2-1.2-3.3 0-3 2.3-5.3 5.2-5.3 2.7 0 4.6 1.9 4.6 4.7 0 3.1-2.3 5.2-5.4 5.2z"/><path fill="#0066ca" d="M903.5 175.4c2.4 0 4.1 1.7 4.1 4.1-.1 2.8-2.1 4.8-4.9 4.8-1.2 0-2.2-.4-2.9-1.1-.7-.7-1.1-1.8-1-3-.1-2.7 2-4.8 4.7-4.8m1 16.7l-7.2 37.9h-7.5l7.2-37.9h7.5m-1-17.7c-3.1 0-5.7 2.4-5.7 5.8-.1 2.9 2 5.1 4.9 5.1 3.2 0 5.8-2.2 5.9-5.7-.1-3.1-2.2-5.2-5.1-5.2zm2.2 16.7h-9.6l-7.5 39.9h9.5l7.6-39.9z"/></g><g><path fill="#ddedfc" d="M926.3 231.4c-9.5 0-15.8-6.4-15.8-16 0-13.9 9.9-24.7 22.5-24.7 11 0 15.9 8.1 15.9 16.1 0 13.7-9.9 24.6-22.6 24.6zm5.6-34.4c-8.1 0-12.5 10.7-12.5 18.1 0 5.9 3.3 9.8 8.3 9.8 7.3 0 12.4-9.6 12.4-18.3-.1-4.4-2.2-9.6-8.2-9.6z"/><path fill="#0066ca" d="M933 191.1c10.6 0 15.4 7.8 15.4 15.6 0 13.5-9.7 24.2-22.1 24.2-9.2 0-15.3-6.2-15.3-15.5 0-6.5 2.2-12.5 6.2-17 4-4.7 9.7-7.3 15.8-7.3m-5.4 34.4c7.6 0 12.9-9.9 12.9-18.8 0-4.7-2.3-10.2-8.6-10.2-8.4 0-13 11-13 18.6-.1 6.2 3.5 10.4 8.7 10.4m5.4-35.4c-13.6 0-23 11.7-23 25.2 0 9.5 6.2 16.5 16.3 16.5 13.6 0 23.1-11.6 23.1-25.2 0-8.7-5.6-16.5-16.4-16.5zm-5.4 34.4c-4.8 0-7.8-3.9-7.8-9.3 0-7.5 4.4-17.6 12-17.6 5.8 0 7.6 5.1 7.6 9.2.1 7.8-4.7 17.7-11.8 17.7z"/></g><g><path fill="#ddedfc" d="M978.9 230.5l4.1-21.9c.2-1.4.5-3.2.5-4.8 0-5.2-3-6.2-5.5-6.2-4.5 0-10.3 5.3-12.1 15l-3.4 18H954l5-26.9c.9-4.4 1.5-8.5 2-11.7v-.3h7.4l-.8 7.2h1l.1-.2c3.5-5.2 8.3-7.9 13.9-7.9 6 0 9.7 3.9 9.7 10.5 0 1.7-.3 4.4-.7 6.5l-4.3 22.8h-8.4z"/><path fill="#0066ca" d="M982.8 191.1c5.7 0 9.2 3.7 9.2 10 0 1.7-.3 4.4-.7 6.4L987 230h-7.5l4-21.4c.2-1.4.5-3.2.5-4.9 0-4.3-2.1-6.7-6-6.7-4.7 0-10.8 5.4-12.6 15.4l-3.3 17.6h-7.5l4.9-26.3c.9-4.4 1.5-8.4 1.9-11.6h6.5l-.7 6.1-.1 1.1h1.8l.3-.4c3.6-5.1 8.2-7.8 13.6-7.8m0-1c-5.6 0-10.7 2.7-14.3 8.1h-.2l.8-7.2h-8.4c-.5 3.4-1.1 7.6-2 12.4l-5.2 27.5h9.5l3.4-18.4c1.7-9.3 7.3-14.6 11.6-14.6 3.8 0 5 2.5 5 5.7 0 1.6-.2 3.3-.5 4.8l-4.3 22.5h9.5l4.4-23.2c.4-2 .7-4.8.7-6.6.2-7.5-4.3-11-10-11z"/></g><g><path fill="#0066ca" d="M28.5 298.6l4.9-24.7H23l.8-3.9h26.7l-.8 3.9H39.3l-4.9 24.7h-5.9zM48.6 298.6l5.7-28.6h6L58 281.7h11.8l2.3-11.7H78l-5.7 28.6h-6l2.6-13H57.2l-2.6 13h-6zM79.3 298.6L85 270h18l-.8 3.9H90.1l-1.6 8h9.7l-.7 3.7h-9.7l-1.8 9h12.9l-.8 3.9H79.3zM120.8 298.6l-1.5-28.6h5.5l1.1 20.6 9-20.6h5l.3 20.3 9.6-20.3h4.5l-13.5 28.6H135l-.3-18.9-8.2 18.9h-5.7zM165.3 299.3c-3.5 0-6.3-1-8.3-2.9-2-2-3-4.6-3-7.9 0-3.2.8-6.3 2.5-9.3s3.8-5.4 6.6-7.2c2.7-1.8 5.9-2.7 9.6-2.7 3.7 0 6.5 1 8.4 3 2 2 2.9 4.6 2.9 7.9 0 3.2-.8 6.3-2.4 9.2s-3.8 5.4-6.6 7.2c-2.7 1.8-5.9 2.7-9.7 2.7zm1.3-3.9c1.9 0 3.6-.6 5.3-1.8 1.7-1.2 3-3.1 4.1-5.5 1.1-2.4 1.7-4.9 1.7-7.5 0-2.5-.6-4.3-1.7-5.5-1.1-1.2-2.6-1.8-4.5-1.8-1.8 0-3.6.6-5.2 1.9-1.7 1.3-3.1 3.1-4.2 5.5s-1.6 4.9-1.6 7.4.6 4.4 1.8 5.6c1.2 1.1 2.6 1.7 4.3 1.7zM185.9 298.6l5.7-28.6h10.8c1.9 0 3.4.2 4.4.5 1 .4 1.8 1 2.3 1.9.6.9.9 1.9.9 3.1 0 1.9-.6 3.7-1.9 5.5-1.3 1.8-3.2 3.2-5.6 4.3l6.1 13.3h-6.5l-4.9-11.9h-3.1l-2.4 11.9h-5.8zm9-15.7h1.8c2.2 0 4-.7 5.3-2.1 1.3-1.4 1.9-2.8 1.9-4.3 0-.6-.1-1.1-.4-1.4-.3-.4-.7-.6-1.4-.8-.6-.2-1.9-.3-3.7-.3h-1.7l-1.8 8.9zM212.7 298.6l5.7-28.6h12c3.1 0 5.3.3 6.8 1s2.6 1.7 3.5 3.2c.9 1.5 1.3 3.4 1.3 5.8 0 3.4-.8 6.6-2.3 9.6-1.6 3-3.6 5.2-6.1 6.8-2.5 1.5-5.7 2.3-9.7 2.3h-11.2zm6.7-3.9h3.4c2.7 0 4.9-.6 6.7-1.8s3.2-2.9 4.3-5.2 1.7-4.7 1.7-7.2c0-2.3-.7-4-2.2-5-1.5-1-4.1-1.5-7.9-1.5h-1.8l-4.2 20.7zM264.1 298.6L269 274h-10.4l.8-3.9h26.7l-.8 3.9H275l-4.9 24.7h-6zM296.1 299.3c-3.5 0-6.3-1-8.3-2.9-2-2-3-4.6-3-7.9 0-3.2.8-6.3 2.5-9.3s3.8-5.4 6.6-7.2c2.7-1.8 5.9-2.7 9.6-2.7 3.7 0 6.5 1 8.4 3 2 2 2.9 4.6 2.9 7.9 0 3.2-.8 6.3-2.4 9.2-1.6 3-3.8 5.4-6.6 7.2s-5.9 2.7-9.7 2.7zm1.3-3.9c1.9 0 3.6-.6 5.3-1.8 1.7-1.2 3-3.1 4.1-5.5 1.1-2.4 1.7-4.9 1.7-7.5 0-2.5-.6-4.3-1.7-5.5-1.1-1.2-2.6-1.8-4.5-1.8-1.8 0-3.6.6-5.2 1.9-1.7 1.3-3.1 3.1-4.2 5.5s-1.6 4.9-1.6 7.4.6 4.4 1.8 5.6c1.2 1.1 2.6 1.7 4.3 1.7zM329.8 298.6l5.7-28.6h18l-.8 3.9h-12.1l-1.6 8h9.7l-.7 3.7h-9.7l-1.8 9h12.9l-.8 3.9h-18.8zM359.4 270h6.1l-3.9 18c-.2.9-.3 1.8-.3 2.6 0 1.4.5 2.5 1.4 3.4 1 .8 2.2 1.2 3.7 1.2 1.6 0 2.9-.5 4.1-1.5 1.2-1 2-2.9 2.6-5.7l3.6-18.1h5.4l-3.4 16.7c-.7 3.3-1.5 5.8-2.6 7.4s-2.6 2.9-4.4 3.8c-1.9.9-3.9 1.4-6.3 1.4-2.9 0-5.3-.7-7.3-2.2-1.9-1.5-2.9-3.5-2.9-6 0-1.2.2-2.5.5-3.9l3.7-17.1zM382.5 298.6l5.7-28.6H399c1.9 0 3.4.2 4.4.5 1 .4 1.8 1 2.3 1.9.6.9.9 1.9.9 3.1 0 1.9-.6 3.7-1.9 5.5s-3.2 3.2-5.6 4.3l6.1 13.3h-6.5l-4.9-11.9h-3.1l-2.4 11.9h-5.8zm9-15.7h1.8c2.2 0 4-.7 5.3-2.1 1.3-1.4 1.9-2.8 1.9-4.3 0-.6-.1-1.1-.4-1.4-.3-.4-.7-.6-1.4-.8-.6-.2-1.9-.3-3.7-.3h-1.7l-1.8 8.9zM421.1 299.3c-3.5 0-6.3-1-8.3-2.9-2-2-3-4.6-3-7.9 0-3.2.8-6.3 2.5-9.3 1.6-3 3.8-5.4 6.6-7.2 2.7-1.8 5.9-2.7 9.6-2.7s6.5 1 8.4 3c2 2 2.9 4.6 2.9 7.9 0 3.2-.8 6.3-2.4 9.2s-3.8 5.4-6.6 7.2-6 2.7-9.7 2.7zm1.3-3.9c1.9 0 3.6-.6 5.3-1.8s3-3.1 4.1-5.5c1.1-2.4 1.7-4.9 1.7-7.5 0-2.5-.6-4.3-1.7-5.5-1.1-1.2-2.6-1.8-4.5-1.8-1.8 0-3.6.6-5.2 1.9-1.7 1.3-3.1 3.1-4.2 5.5s-1.6 4.9-1.6 7.4.6 4.4 1.8 5.6c1.1 1.1 2.6 1.7 4.3 1.7zM441.7 298.6l5.7-28.6h10c3.2 0 5.4.6 6.5 1.7 1.1 1.1 1.7 2.5 1.7 4 0 1.8-.6 3.8-1.7 5.7-1.2 2-2.7 3.5-4.8 4.5-2 1-4.4 1.5-7.1 1.5h-2.2l-2.2 11.2h-5.9zm8.8-15h1.4c1.5 0 2.8-.3 3.8-.8 1.1-.5 1.9-1.4 2.6-2.6.7-1.2 1-2.4 1-3.5 0-.9-.3-1.5-1-2s-2.1-.7-4.4-.7h-1.5l-1.9 9.6zM466 298.6l5.7-28.6h18l-.8 3.9h-12.1l-1.6 8h9.7l-.7 3.7h-9.7l-1.8 9h12.9l-.8 3.9H466zM487.1 298.6L503 270h6.1l5.5 28.6h-5.9l-1.4-7.3H496l-4 7.3h-4.9zm10.9-11.2h8.5l-2.3-11.2-6.2 11.2zM518.8 298.6l5.7-28.6h5.3l9.3 20 4-20h4.6l-5.7 28.6h-5.1l-9.4-20-4 20h-4.7zM559.4 298.6l15.9-28.6h6.1l5.5 28.6H581l-1.4-7.3h-11.3l-4 7.3h-4.9zm11-11.2h8.5l-2.3-11.2-6.2 11.2zM591.1 298.6l5.7-28.6h5.3l9.3 20 4-20h4.6l-5.7 28.6h-5.1l-9.4-20-4 20h-4.7zM621.3 298.6L627 270h12c3.1 0 5.3.3 6.8 1s2.6 1.7 3.5 3.2c.9 1.5 1.3 3.4 1.3 5.8 0 3.4-.8 6.6-2.3 9.6-1.6 3-3.6 5.2-6.1 6.8s-5.7 2.3-9.7 2.3h-11.2zm6.8-3.9h3.4c2.7 0 4.9-.6 6.7-1.8 1.7-1.2 3.2-2.9 4.3-5.2 1.1-2.3 1.7-4.7 1.7-7.2 0-2.3-.7-4-2.2-5s-4.1-1.5-7.9-1.5h-1.8l-4.2 20.7zM662.9 298.6l15.9-28.6h6.1l5.5 28.6h-5.9l-1.4-7.3h-11.3l-4 7.3h-4.9zm10.9-11.2h8.5l-2.3-11.2-6.2 11.2zM694.1 298.3l.9-4.6c2.9 1.2 5.3 1.8 7.3 1.8 1.8 0 3.2-.4 4.2-1.2.9-.8 1.4-1.8 1.4-3 0-1-.4-2-1.1-2.7-.7-.8-1.5-1.5-2.3-2.1l-1.6-1.2c-1.6-1.1-2.7-2.3-3.5-3.4-.8-1.1-1.2-2.3-1.2-3.7 0-1.6.5-3.1 1.4-4.5.9-1.4 2.2-2.5 3.7-3.3 1.6-.8 3.5-1.2 5.8-1.2 2.5 0 5.2.4 8 1.3l-.9 4.3c-2.7-1.1-5.1-1.7-7.2-1.7-1.5 0-2.6.3-3.5 1-.9.7-1.3 1.5-1.3 2.6 0 .8.2 1.5.7 2.1.5.6 1.3 1.3 2.4 2.2l1.8 1.3c2 1.5 3.4 2.9 4.1 4.1.7 1.2 1.1 2.4 1.1 3.7 0 1.5-.5 3.1-1.5 4.5-1 1.5-2.4 2.6-4.2 3.4-1.8.8-4.2 1.2-7 1.2-2.5.1-5-.2-7.5-.9zM718.5 298.6l5.7-28.6h6l-5.7 28.6h-6zM728.7 298.6l15.9-28.6h6.1l5.5 28.6h-5.9l-1.4-7.3h-11.3l-4 7.3h-4.9zm10.9-11.2h8.5l-2.3-11.2-6.2 11.2zM760.4 298.6l5.7-28.6h5.3l9.3 20 4-20h4.6l-5.7 28.6h-5.1l-9.4-20-4 20h-4.7zM803.7 298.6l5.7-28.6h10c3.2 0 5.4.6 6.5 1.7 1.1 1.1 1.7 2.5 1.7 4 0 1.8-.6 3.8-1.7 5.7s-2.7 3.5-4.8 4.5c-2 1-4.4 1.5-7.1 1.5h-2.2l-2.2 11.2h-5.9zm8.8-15h1.4c1.5 0 2.8-.3 3.8-.8 1.1-.5 1.9-1.4 2.6-2.6.7-1.2 1-2.4 1-3.5 0-.9-.3-1.5-1-2s-2.1-.7-4.4-.7h-1.5l-1.9 9.6zM828 298.6l5.7-28.6h18l-.8 3.9h-12.1l-1.6 8h9.7l-.7 3.7h-9.7l-1.8 9h12.9l-.8 3.9H828zM863.5 299.3c-3.5 0-6.3-1-8.3-2.9-2-2-3-4.6-3-7.9 0-3.2.8-6.3 2.5-9.3 1.6-3 3.8-5.4 6.6-7.2 2.7-1.8 5.9-2.7 9.6-2.7s6.5 1 8.4 3c2 2 2.9 4.6 2.9 7.9 0 3.2-.8 6.3-2.4 9.2s-3.8 5.4-6.6 7.2-5.9 2.7-9.7 2.7zm1.4-3.9c1.9 0 3.6-.6 5.3-1.8 1.7-1.2 3-3.1 4.1-5.5 1.1-2.4 1.7-4.9 1.7-7.5 0-2.5-.6-4.3-1.7-5.5-1.1-1.2-2.6-1.8-4.5-1.8-1.8 0-3.6.6-5.2 1.9-1.7 1.3-3.1 3.1-4.2 5.5s-1.6 4.9-1.6 7.4.6 4.4 1.8 5.6c1.1 1.1 2.6 1.7 4.3 1.7zM884.2 298.6l5.7-28.6h10c3.2 0 5.4.6 6.5 1.7 1.1 1.1 1.7 2.5 1.7 4 0 1.8-.6 3.8-1.7 5.7s-2.7 3.5-4.8 4.5-4.4 1.5-7.1 1.5h-2.2l-2.2 11.2h-5.9zm8.8-15h1.4c1.5 0 2.8-.3 3.8-.8 1.1-.5 1.9-1.4 2.6-2.6.7-1.2 1-2.4 1-3.5 0-.9-.3-1.5-1-2s-2.1-.7-4.4-.7h-1.5l-1.9 9.6zM908.5 298.6l5.7-28.6h6l-4.9 24.7h13.3l-.8 3.9h-19.3zM931.7 298.6l5.7-28.6h18l-.8 3.9h-12.1l-1.6 8h9.7l-.7 3.7h-9.7l-1.8 9h12.9l-.8 3.9h-18.8zM955 298.3l.9-4.6c2.9 1.2 5.3 1.8 7.3 1.8 1.8 0 3.2-.4 4.2-1.2.9-.8 1.4-1.8 1.4-3 0-1-.4-2-1.1-2.7-.7-.8-1.5-1.5-2.3-2.1l-1.6-1.2c-1.6-1.1-2.7-2.3-3.5-3.4-.8-1.1-1.2-2.3-1.2-3.7 0-1.6.5-3.1 1.4-4.5.9-1.4 2.2-2.5 3.7-3.3 1.6-.8 3.5-1.2 5.8-1.2 2.5 0 5.2.4 8 1.3l-.9 4.3c-2.7-1.1-5.1-1.7-7.2-1.7-1.5 0-2.6.3-3.5 1s-1.3 1.5-1.3 2.6c0 .8.2 1.5.7 2.1.5.6 1.3 1.3 2.4 2.2l1.8 1.3c2 1.5 3.4 2.9 4.1 4.1.7 1.2 1.1 2.4 1.1 3.7 0 1.5-.5 3.1-1.5 4.5-1 1.5-2.4 2.6-4.2 3.4-1.8.8-4.2 1.2-7 1.2-2.5.1-5-.2-7.5-.9z"/></g></g></svg>
