<svg id="Layer_1" xmlns="http://www.w3.org/2000/svg" viewBox="0 0 1153 504"><path fill="#514435" d="M518.1 74.5v93.1h-12V74.5h12zm21.9 44.3c0-6.9-.1-12.6-.6-18.1h10.8l.7 11h.3c3.3-6.4 11-12.6 22.1-12.6 9.3 0 23.6 5.5 23.6 28.5v39.9h-12.1v-38.4c0-10.8-4-19.7-15.5-19.7a17.3 17.3 0 0 0-17.1 18v40.2H540v-48.8zm75 36.4c4.8 3 10.3 4.6 16 4.8 8.8 0 13-4.4 13-9.9s-3.5-9-12.4-12.3c-12-4.3-17.7-10.9-17.7-18.9 0-10.8 8.7-19.6 23.1-19.6 5.7-.1 11.4 1.3 16.4 4.1l-3 8.8a26.5 26.5 0 0 0-13.7-3.9c-7.2 0-11.2 4.1-11.2 9.1s4 8 12.7 11.3c11.6 4.4 17.5 10.2 17.5 20.2 0 11.7-9.1 20-25 20-7.3 0-14.1-1.8-18.8-4.6l3.1-9.1zm71-73.7v19.2h17.4v9.3H686v36c0 8.3 2.3 13 9.1 13 2.4 0 4.7-.2 7-.8l.6 9.1A30 30 0 0 1 692 169c-5.7 0-10.2-1.8-13.1-5.1s-4.7-9.5-4.7-17.4V110h-10.4v-9.3h10.4v-16l11.8-3.2zm44.6.5c.1 4.1-2.9 7.5-7.7 7.5-4 .1-7.2-3.1-7.3-7.1V82a7.4 7.4 0 0 1 7.2-7.6h.4c4-.1 7.3 3 7.4 7v.6zm-13.5 85.6v-66.9h12.2v66.8l-12.2.1zM764 81.5v19.2h17.4v9.3H764v36c0 8.3 2.3 13 9.1 13 2.4 0 4.7-.2 7-.8l.6 9.1A30 30 0 0 1 770 169c-5.7 0-10.2-1.8-13.1-5.1s-4.7-9.5-4.7-17.4V110h-10.4v-9.3h10.4v-16l11.8-3.2zm87 67.9c0 6.9.1 13 .6 18.2h-10.8l-.7-10.9h-.3a25 25 0 0 1-22.1 12.4c-10.5 0-23.1-5.8-23.1-29.3v-39.1h12.2v37c0 12.7 3.9 21.3 14.9 21.3 8.1 0 13.8-5.7 16-11 .7-2 1.1-4.1 1.1-6.2v-41H851v48.6zm62-13c.3 16.4 10.8 23.2 22.9 23.2a43 43 0 0 0 18.5-3.5l2.1 8.7a54.9 54.9 0 0 1-22.2 4.1c-20.6 0-32.9-13.5-32.9-33.7s11.9-36 31.4-36c21.8 0 27.6 19.2 27.6 31.5 0 1.9-.1 3.8-.4 5.7h-47zm35.6-8.7c.1-7.7-3.2-19.7-16.8-19.7s-17.7 11.3-18.6 19.7h35.4zm56.3 39.9V110h-9.4v-9.3h9.4v-3.1c0-9.4 2.1-18 7.7-23.3a23.4 23.4 0 0 1 16.3-6.2c3.6 0 7.1.6 10.4 1.9l-1.7 9.4a17.1 17.1 0 0 0-7.7-1.5c-10.4 0-13 9.1-13 19.3v3.6h16.2v9.2h-16.2v57.6h-12zm97.8-34c0 24.7-17.1 35.5-33.3 35.5-18.1 0-32-13.3-32-34.4s14.6-35.5 33.1-35.5 32.2 14 32.2 34.4zm-53 .7c0 14.6 8.4 25.7 20.3 25.7s20.3-10.9 20.3-26c0-11.3-5.7-25.7-20-25.7s-20.6 13.3-20.6 26zm68.3-12.7c0-7.9-.1-14.6-.6-20.9h10.6l.4 13.1h.6c3-9 10.4-14.6 18.5-14.6 1.2 0 2.4.1 3.5.4v11.5c-1.3-.3-2.7-.4-4.1-.4-8.6 0-14.6 6.5-16.3 15.6-.4 1.9-.6 3.8-.6 5.7v35.6h-12v-46zm-611.9 85.8a116 116 0 0 1 22-1.9c12 0 19.7 2.1 25.5 6.8s7.7 9.1 7.7 16.4c0 9-5.9 16.8-15.7 20.4v.3c8.8 2.2 19.2 9.5 19.2 23.3.1 7-2.8 13.8-7.9 18.6-6.5 5.9-17 8.7-32.2 8.7a145 145 0 0 1-18.6-1.1v-91.5zm12 38.1H529c12.7 0 20.2-6.6 20.2-15.6 0-10.9-8.3-15.2-20.4-15.2-3.6-.1-7.1.2-10.6.8l-.1 30zm0 44.6c3.3.5 6.7.7 10.1.6 12.4 0 23.9-4.6 23.9-18.1s-10.9-18-24-18h-9.9l-.1 35.5zm75.9-76.5c.1 4.1-2.9 7.5-7.7 7.5-4 .1-7.2-3.1-7.3-7.1v-.4a7.4 7.4 0 0 1 7.2-7.6h.4c4-.1 7.3 3 7.4 7v.6zm-13.5 85.6v-66.8h12.2v66.8h-12.2zm31.8 0c.3-4.6.6-11.3.6-17.3v-80.8h12v42h.3c4.3-7.5 12-12.3 22.8-12.3 16.6 0 28.3 13.8 28.2 34.1 0 23.9-15.1 35.8-30 35.8-9.7 0-17.4-3.7-22.4-12.6h-.4l-.6 11-10.5.1zm12.6-26.8a18.7 18.7 0 0 0 18.8 18.6c12.7 0 20.3-10.4 20.3-25.7 0-13.4-6.9-24.9-19.9-24.9-8.3 0-16 5.7-18.5 14.9-.4 1.6-.6 3.3-.7 5v12.1zm66.5-71.3h12.2v98.1h-12.2v-98.1zm39.4 66.9c.3 16.4 10.8 23.2 22.9 23.2a43 43 0 0 0 18.5-3.5l2.1 8.7a54.9 54.9 0 0 1-22.2 4.1c-20.6 0-32.9-13.5-32.9-33.7s11.9-36 31.4-36c21.8 0 27.6 19.2 27.6 31.5 0 1.9-.1 3.8-.4 5.7h-47zm35.6-8.7c.1-7.7-3.2-19.7-16.8-19.7s-17.7 11.3-18.6 19.7h35.4zM523.8 348h-28.4v-10.3h68.9V348h-28.4v82.9h-12.1V348zm44.3 36.8c0-7.9-.1-14.6-.6-20.9h10.6l.4 13.1h.6c3-9 10.4-14.6 18.5-14.6 1.2 0 2.4.1 3.5.4v11.5c-1.3-.3-2.7-.4-4.1-.4-8.6 0-14.6 6.5-16.3 15.6-.4 1.9-.6 3.8-.6 5.7v35.6h-12v-46zm81.5 46l-1-8.4h-.4a24.7 24.7 0 0 1-20.4 9.9c-13.5 0-20.4-9.5-20.4-19.2 0-16.2 14.4-25 40.2-24.9v-1.4c0-5.5-1.5-15.5-15.2-15.5-6.2 0-12.2 1.8-17.4 5l-2.8-8a41.3 41.3 0 0 1 22-5.9c20.4 0 25.4 13.9 25.4 27.3v25a95 95 0 0 0 1.1 16l-11.1.1zm-1.8-34.1c-13.3-.3-28.3 2.1-28.3 15.1 0 7.9 5.2 11.6 11.5 11.6 7.3.2 13.8-4.3 16.2-11.2.4-1.3.7-2.6.7-3.9l-.1-11.6zm31.3-14.6c0-6.9-.1-12.6-.6-18.1h10.8l.7 11h.3c3.3-6.4 11-12.6 22.1-12.6 9.3 0 23.6 5.5 23.6 28.5v39.9h-12.1v-38.5c0-10.8-4-19.7-15.5-19.7-7.6.1-14.2 5.1-16.3 12.4-.6 1.8-.8 3.8-.8 5.7v40.2h-12.2v-48.8zm75 36.3c4.8 3 10.3 4.6 16 4.8 8.8 0 13-4.4 13-9.9s-3.5-9-12.4-12.3c-12-4.3-17.7-10.9-17.7-18.9 0-10.8 8.7-19.6 23.1-19.6 5.7-.1 11.4 1.3 16.4 4.1l-3 8.8a26.5 26.5 0 0 0-13.7-3.9c-7.2 0-11.2 4.1-11.2 9.1s4 8 12.7 11.3c11.6 4.4 17.5 10.2 17.5 20.2 0 11.7-9.1 20-25 20-7.3 0-14.1-1.8-18.8-4.6l3.1-9.1zm56.3-85.6h12.2v98.1h-12.2v-98.1zm69.6 98l-1-8.4h-.4a24.7 24.7 0 0 1-20.4 9.9c-13.5 0-20.4-9.5-20.4-19.2 0-16.2 14.4-25 40.2-24.9v-1.4c0-5.5-1.5-15.5-15.2-15.5-6.2 0-12.2 1.8-17.4 5l-2.8-8a41.3 41.3 0 0 1 22-5.9c20.4 0 25.4 13.9 25.4 27.3v25a95 95 0 0 0 1.1 16l-11.1.1zm-1.8-34.1c-13.3-.3-28.3 2.1-28.3 15.1 0 7.9 5.2 11.6 11.5 11.6 7.3.2 13.8-4.3 16.2-11.2.4-1.3.7-2.6.7-3.9l-.1-11.6zm45.5-51.9V364h17.4v9.3h-17.4v36c0 8.3 2.3 13 9.1 13 2.4 0 4.7-.2 7-.8l.6 9.1a30.5 30.5 0 0 1-10.8 1.7c-5.7 0-10.2-1.8-13.1-5.1s-4.7-9.5-4.7-17.4v-36.6h-10.3V364h10.4v-16l11.8-3.2zm44.6.4c.1 4.1-2.9 7.5-7.7 7.5-4 .1-7.2-3.1-7.3-7.1v-.4a7.4 7.4 0 0 1 7.2-7.6h.4c4-.1 7.3 3 7.4 7v.6zm-13.5 85.6V364H967v66.8h-12.2zm92.8-34c0 24.7-17.1 35.5-33.3 35.5-18.1 0-32-13.3-32-34.4s14.6-35.5 33.1-35.5 32.2 14 32.2 34.4zm-53 .7c0 14.6 8.4 25.7 20.3 25.7s20.3-10.9 20.3-26c0-11.3-5.7-25.7-20-25.7s-20.7 13.3-20.6 26zm68.3-15.4c0-6.9-.1-12.6-.6-18.1h10.8l.7 11h.3c3.3-6.4 11-12.6 22.1-12.6 9.3 0 23.6 5.5 23.6 28.5v39.9h-12.2v-38.5c0-10.8-4-19.7-15.5-19.7-7.6.1-14.2 5.1-16.3 12.4-.6 1.8-.8 3.8-.8 5.7v40.2h-12.2l.1-48.8z"/>  <g id="Layer_2_1_"><path fill="#514435" d="M151.7 454.4c-20.9-8.2-21.7-14.4-18.5-26.9l-15-7.3a38.7 38.7 0 0 1-23.7-30.5 32.5 32.5 0 0 1 7.3-25.2c4-5.1 10.2-5.1 15.9-5.9a17 17 0 0 1 5.5-.1c15.5 2.8 27.5-6.2 40.3-12.1 1.9-.9 3.5-4.8 3.4-7.3s-3.5-4.2-6.8-4.1c-13.3.4-19.7-5.2-21.6-18-.3-2.1-1.9-4.1-2.9-6.1-.8-1.5-1.4-3.1-1.7-4.7 7.2 7.4 13.5 2.4 19.5-.9 4.1-2.2 7.5-2.6 11 .3l18.1 14.9-5.8 2.1c-8 2.8-11.1 9.6-6.3 16.5 5.9 8.8 12.7 17.1 20.2 24.6 7.8 7.6 17.1 13.8 25.7 20.6 5 3.9 9.4 4.1 14.7.5l37.4-25c6.6-4.4 7.7-8.3 5.4-15.8a164 164 0 0 0-22.4-44.4c-6.2-9-16.1-12.4-27.9-9.7s-18.1 8.9-20 20.2c-.8 4.9-.9 9.9-1.3 15.5-.8-1-1.4-2.1-1.9-3.3-2.6-9.3-5.7-18.4-7.6-27.9s5.3-21.8 13.4-26.1 19.8-1.7 27 4.9a171.5 171.5 0 0 1 45 63.4c4 10.2 8 20.4 11.6 30.8.5 1.5 0 4.6-1.1 5.4-16 11.1-32.2 21.9-48.3 32.8-4.7 3.2-8.5 2.4-12.4-1.3-10.4-9.6-21.2-18.7-31.4-28.5a186.4 186.4 0 0 1-16.2-18.2c-2.4-2.9-4.4-3.6-7.6-1.6s-8.2 4.5-12.2 6.9-4.7 4.4-1 9.3c4.6 6.1 8.7 12.5 12.3 19.2 7.1 13.5 1.4 34.4-20.3 36.7l-9.4 1.1c-4.8.7-6.5 4-4.2 8.3 3.1 5.9 10.4 8.7 17.6 6.7 11.4-3.1 22.7-6.6 34.2-9.1s24.2.1 34.3 9.1c6.2 5.6 8.6 17.4-.5 23.7a40 40 0 0 1-19.6 6.7c-12.8 1.3-25.6 2.4-38-2.3-3.7-1.4-7-3.7-10.3-5.9s-7-6.4-3.9-12zm-10.3-29.9c16.1-.1 23.4-11.1 18.4-23a54.2 54.2 0 0 0-31-33.4c-12.6-4.9-25.6 1.7-25.2 16 .3 9.3 3.4 18 11 24.3 3.6 3 7.1 6.1 11.1 8.4 6 3.5 12.2 6.1 15.8 7.8l-.1-.1zm62.7 20.8c-15-1-28 2.1-40.8 6.6-4.1 1.5-8.5 3.1-8.6 8.4s4.2 7.2 7.9 9.4l3.2 1.4a40.6 40.6 0 0 0 22.1 1.3c10.9-1.4 21.9-2.4 31.5-8.6 4.1-2.6 7.6-5.9 6.2-11.4s-6-6.8-10.8-7.2-7.8.1-10.6.1h-.1zm233.8-135.9c-6 2.1-11.9 3.3-16.7-1.2-12.2-11.6-22.1-24.5-21.4-42.7.1-1.6.3-3.3.6-4.9.6-1.7.8-3.5.7-5.3l-12.7 10h-1.8c6.1-22.5-8.3-36.1-20.2-51.3l-37.6 28c3.8 5.4 7.2 10 10.4 14.9a65 65 0 0 1 11.6 28.4 42.6 42.6 0 0 1-14.3 37.2c-8.1 7.6-24.9 7.7-35.3 1-11.2-7.2-21-16.4-28.9-27.2-5.8-7.9-12-15.6-17.7-23.5a42 42 0 0 1-5.3-11.1c9.1 3.9 15.5-.1 22.1-4.8 24.2-17.1 48.7-33.8 73.1-50.7 8.6-6 10.9-13.8 7-23.4-.3-.8-.2-1.7.4-2.4l25.2 36.4 25.5 37c2.5-4.9 5.1-8.9 6.3-13.2.5-1.9-1.7-4.8-3.3-6.9s-5.6-5.3-7.6-8.5c-4.4-7.1-3.3-14.8-.4-22.1 2-5 5.4-5.9 9.9-2.8 3 2 7.5 3.5 5.4 8.6-.8 1.9-2.1 3.5-3.7 4.8-1.6 1.3-3.9 1.9-5.8 2.9-4.3 2.3-4.9 5.2-1.6 8.7l1.1 1c8.1 7.7 8.1 7.7 15.2-.6a23.4 23.4 0 0 1 36.6 1.7l1.2 2.7c-9.1-7.8-19.8-6.6-27.6 2.5s-7.7 10.2.8 18.2l18.9 17.8c4.3 4.1 8 3.8 9.5-2s1.4-12.1 1.8-18.2c.1-2.3-.4-4.6.5-7.1.3 2.1 1 4.1 1 6.2-.4 9.5 2.1 19.2-2.3 28.6-.9 1.9.2 4.8.5 8.3-4.3-5-7.8-9.5-11.8-13.5-6.3-6.3-12.7-12.7-19.7-18.4s-8.2-4.3-11.8 3a47 47 0 0 0-5.2 22.1 33.8 33.8 0 0 0 17.3 30.1c2.4 1.5 6.3 1.1 10.1 1.7zm-115.2-63.6l-4.4 2.7c-12.7 8.5-25.4 17.1-38.2 25.4-6.3 4.1-8.1 8.2-4.8 15 6 12.6 15.7 21.6 30.1 21s25.1-7.3 31.3-20.5a23 23 0 0 0 2-8.6 39.6 39.6 0 0 0-16-35z"/><path fill="#514435" d="M270 140c3.8 3.9 7.2 7.1 10.2 10.6s3.4 8.2-.9 13c-8.4 9.4-16.7 19-24.6 28.9-4.4 5.4-5.3 12.1-4.3 19s7 12.9 15.2 11a73 73 0 0 0 48.9-36.4 56.3 56.3 0 0 0 9.2-27.1c.1-8.1-2.8-14.9-6.8-21.5l-2.8-4.5 1-1c3.5 2.9 7.4 5.4 10.3 8.7a51 51 0 0 1 11.7 40.5c-.5 5.8-1.2 11.7-3.1 17.1s-4.5 11.5-8.7 15.4a75.7 75.7 0 0 1-48.9 22.2 40 40 0 0 1-28.4-10.6c-2.9-2.5-4.4-7.3-5.3-11.3s-.5-9.3-.6-13.9-1.7-5-5.7-4.5c-5.3.7-10.6.8-15.9.3-17.6-1.6-28.5-17.9-30.8-30.6-3.7-19.9 10.4-53.3 28.2-63a47.4 47.4 0 0 1 31.3-5.6c10 1.5 20.1 2.8 30.4 8-1 .3-2.1.5-3.1.6a57.5 57.5 0 0 0-34.4 10 105.8 105.8 0 0 0-35.1 38.3 22.9 22.9 0 0 0 5.3 29.8c4.3 3.4 9.3 4.7 14 2s11.2-6.7 15.4-11.4c8.6-9.5 16.2-19.8 24.3-29.8l4-4.2z"/><path fill="#514435" d="M157.4 171l-1.9-14.5c-1.8-12.9-2.9-9.3 7.6-14.8 2.2-1.1 4.5-2 7.4-3.3l6.1 27.5c3.3 16.1 5.8 32.5 14.1 47.1a92.5 92.5 0 0 0 23.1 26.7c3.9 3.2 8.2 3.3 12.6.8 2.1-1.2 4.3-2.2 7-3.6 0 4.7.3 8.6-.1 12.3a6.4 6.4 0 0 1-3 4c-4.2 2.3-8.7 4.2-13.1 6.2s-9.6 1.4-13.9-2.2c-6.8-5.6-13.7-11-21.3-17.1l-.5 5c-1.6 14.3-5.6 27.1-18.2 36.2s-23.6 9-35.7 5.5c-25.4-7.4-40.1-25.2-44.8-51.1-1.5-7.8-2.1-15.8-1.8-23.8.9-23.1 14-39.1 33.3-49.2 11.5-6 24.1-1.8 35.2 4.9l6.5 4.1 1.4-.7zm17.5 61.6c.1-14.4-7.7-32.4-18.8-48.8a33 33 0 0 0-19.1-14.5 31.3 31.3 0 0 0-38.4 24.4c-4.4 24.9 5 46 20 65 1.7 2.2 4.1 3.9 6.3 5.6 10.6 8.7 21.9 8.9 33.4 2.3s17-15.2 16.6-34zm144.4 103c10.5 4.2 19.1 8.5 20.7 20.4.7 4 4.4 6.7 8.4 6h.1c7.9-1.2 18.3-12.2 17.7-19.9-.4-4.8-2.7-9.4-4-13.6.8.7 2.3 2.1 4 3.3 5.6 3.9 11.6 6 18.3 3.2 5.1-2.1 7-6.9 3.8-11.4a33.2 33.2 0 0 0-10.1-9.3c-6-3.4-6.4-3.1-4.9-10.8 7.8 2.9 14 7.3 17.8 14.9 2 3.9 2.4 9.9 8.7 9.5s5.5-5.9 7.1-9.7a8.7 8.7 0 0 1 2.5-3.2c-1.5 7.7-1.1 14.6 6.7 20.9-3.7.5-6.1.5-8.3 1.2s-6.4 1.6-8 3.6c-8.1 10.6-13.5 12.2-25.1 6.2-1 3.7-2.3 7.3-2.9 11a18.7 18.7 0 0 1-11.8 15c-3.9 1.7-5.7 4.2-5.8 8.7-.2 13.3-2 26.3-10.3 37.4a45.4 45.4 0 0 1-8.5 9c-5.6 4.4-11.6 8.4-17.9 11.8a50.2 50.2 0 0 1-38.7 4.1 24 24 0 0 1-16-23.5 35 35 0 0 1 2-9.6c-.6 6.8.4 13 5.2 18.1s9 7.1 15.4 6.6c25.1-2 46-11.6 59.6-33.8 8.6-14 8.8-24.2-6.5-38.2-4.4-4-9.4-7.4-14-11.3s-3.3-10.5-5.2-16.6zM227.6 56.1c7.6-14.2-1.8-24-10.2-34.2l-1.9-1.6a5.5 5.5 0 0 1-1.7-2c6.7.2 14-3.7 19.5 3.9s11.5 14.6 17.2 21.9 16.4 7.3 22.2 1.7c8.7-8.4 7.3-7.5 18.3-2.3 3.5 1.6 7.2 2.5 11 2.6 1.8.1 4.5-1.9 5.2-3.6s-.2-4.5-1.3-6.2c-1.9-2.8-4-5.5-6.2-8 10.5 1.4 17.6 12.2 27.3 16.4-4.5-.2-8.9-.2-13.4.1-2.2.2-4.2 1.9-6.4 3 1 1.9 1.6 4.2 3 5.7 5.7 6 6.2 12.5.8 18.7-7 8-15.5 13.5-26.5 14.2-9.1.6-18.2 1.8-27.3 2-10.9.3-21-3.2-30.5-8.3-2-1.2-3.8-2.8-5.3-4.6a81.3 81.3 0 0 0 34.5 3.9c7.1-.6 14.1-2.2 20.8-4.7 7.6-2.7 8.3-8.3 3.7-14.9s-11-10.5-19.9-9.1c-4.7.8-9.7-.1-14.4.7-6.2 1-12.3 3-18.5 4.7zM396.5 128c-2-13.4-10.9-24.2-14.4-37.2l14.7 28c4.1 7.8 7.8 15.8 12.2 23.4 3.4 5.9 3.9 5.7 8.8 1.3l8.2-7.4c1 4 2 8.1-3.1 10.9a9.8 9.8 0 0 0-3.8 3.2c-.7 1.2-1.2 3.4-.5 4.4 2.8 4.7 6 9.2 9.2 13.6 6.1 8.6 13.6 10.9 22.3 7.4 5.5 13.5 11.4 26.9 16.3 40.6 2.6 7.3 2.9 15.3 4.8 22.9a92.5 92.5 0 0 1 1.6 41.5c-.1.7-.5 1.4-1.1 1.8a58 58 0 0 1 0-5.9c1.6-10.2 0-20.2-2.1-30.2a273.6 273.6 0 0 0-19.9-61.6c-3.5-7.2-5.7-7.6-11-1.5-3.1 3.6-5.8 7.6-8.9 11.3-.8 1-2.6 2.6-3.2 2.3-1.3-.8-2.3-2-2.9-3.5a8.6 8.6 0 0 1-.3-3.9c1.4-12.4-3.2-22.1-14.1-30l-21.4 19-4.4-5.9 22.3-19.1c-8.8-12.7-20.7-21.3-33.2-28.9s-24.9-14.8-37.3-22.2c-7.6-4.5-7.6-4.6-24.4-7L336 78.8c-2.1 9.9-2.1 10 5.6 14.8 10.7 6.7 21.6 13.2 32.2 20.1 7.3 4.8 14.3 10.1 21.5 15.1l1.2-.8zM201 91.7c-18 4.7-35.3 8.6-52.3 13.8a146 146 0 0 0-26.9 11.7c-6.6 3.6-12.4 8.7-18.4 13.4-7.7 6-16 8.4-25.7 5.4-6.8-2.1-9.8-7.8-13-13.1-5.8-9.6-5.2-12.3 3.6-19.5 1.9-1.6 4-2.9 6.5-4.7 1.3 6.2 4.5 9.9 10.8 9.6-.3 9.7 4.6 13.5 13.5 10.1 4.9-1.7 9.4-4.1 13.6-7.2 11.1-8.7 24.1-10.7 37.5-11.6h2.5c13.6 1.4 19-6.8 15.1-22.1-.7-2.8-.6-4.7 1.7-5.9 4.7-2.4 9.4-5.2 14.4-6.5s8 1.4 7.5 6.8 1.3 9.7 4.7 13.7c1.6 1.7 3 3.6 4.9 6.1zM70.5 256.3l-55.6-27-4.4 23.1c-3 15.5 1 29.8 8.4 43.2 2.6 4.8 6.3 9.8 10.8 12.8 6.7 4.7 14.5 3 21.3-.9 4.2-2.4 7.7-6.1 11-8.7a33.6 33.6 0 0 1-20.2 24.9c-2.4.7-4.9.5-7.2-.4a32 32 0 0 1-16.7-15.7c-7.5-15.9-13-32.5-11.7-50.5s5.5-36.8 16.2-52.3c3.8-5.6 10.3-10 16.5-13.1s12.9.8 18.4 4.8 10.4 12.6 11.7 20.2c2.3 12.8 2.3 26 3.3 39.1l-1.8.5zM55 221.9h-.4v-9c-.2-6.1-2.3-11-8.5-13.4s-12.6-2.1-17 3-7.9 11.3-11.4 17.3c-1.9 3.2-.8 6.3 2.7 7.9l27.1 12.5c3.6 1.6 5.9-.1 6.4-3.8s.7-9.7 1.1-14.5zm374.7 155.4l4.2-18.9c8.8 6.1 9.5-4.1 15.5-5.1-1.7 6.9-2.4 13.9-5.1 20a120 120 0 0 1-35.3 43.4c-9 7.5-19.4 13.4-29.5 19.5-5.9 3.6-9.7 3.7-18.7 2.4l6.3-36.8.9.2c.4 5.4.6 10.9 1.3 16.3 1.2 9 6.8 12 14.9 7.7a148.6 148.6 0 0 0 37.5-26.1 125 125 0 0 0 21.7-28.5c.6-1.2 1.1-2.4 1.5-3.7v-1.4l-1.4-1.3-10.7 14.4-3.1-2.1zM19.8 192.1c4.1-5.4 5.1-11 2.6-17.4-.8-1.9-.1-4.4-.1-7 10.3 5.5 15.7 2.7 17.8-8.4a32.4 32.4 0 0 1 9.7-17.2c-.4 6 1.1 10.9-3.5 15.1s-2.5 8.9.8 12.2c6.6 6.6 21.4 7.3 28 .6 2.2-2.2 2.6-6.1 3.6-9.3s.8-6.4 2.4-8.9c2.9-4.5 8.5-4.1 11.6.3s2.5 14.1-3.2 18.9a37.7 37.7 0 0 1-31.6 8.8c-3.7-.7-7.3-3.7-10.4-6.3-6-5.1-9.2-4.7-13.7 1.8s-8.7 11.8-12.9 17.7l-1.1-.9zm328 237.2l-8.5 9.3c-1.8 2-3.9 3.6-5.4 5.8-2.9 4.2-2.5 7.7 1.3 11.1 5.5 4.9 11.5 9.1 20.1 8.9l-10.3 6.5c-.7-1.6-1.1-5-2.4-5.4a9.8 9.8 0 0 0-7.3 1.2c-7.2 4.7-14 5-21.6.9s-17.6-1.5-26.9-1.3l20.3-11c7.1-4 14.4-7.7 21.1-12.2s12.5-9.6 18.7-14.5l.9.7zM69.9 330.1c3.2 2.4 5.5 4.3 8 5.8 13.3 8 30.6.2 32.9-15.1 1.3-8.6 1-17.3 1.4-25.6-.4-.3.1-.1.4.3a44.7 44.7 0 0 1 5.4 38.6c-3.6 10.9-12 15-22.4 16.1-8.8.9-18.2-4.8-22.4-13l-3.3-7.1zm71.8-272.8c1.5-3.9 2.5-7.4 4.2-10.7s2.7-4.1 4.6-4.8c3.7-1.2 7.7-1.4 11.4-1.9.9 2.7 1.6 5.4 2.7 8.1 1.7 4.2.7 8.1-3.4 10.1s-10.7 3.4-16.2.5l-3.3-1.3zm259.7 38.1l14.8 16.5c2.2 2.4 4.6 3.5 7.6-1l14.6 18c-7.7 4.8-8 5-13.3-1.5-8.5-10.2-16.5-20.7-24.8-31l1.1-1zm61.8 194.3c0 6.8.1 13.5-.1 20.3a4.7 4.7 0 0 1-2.6 3.5c-6.1 1.9-9.6 6.2-12.2 11.7-2.6 5.7-5.6 11.3-8.8 16.7a294.3 294.3 0 0 1 22.5-52.6l1.2.4zM176.6 27.9l6.6-2.5c4.2 9.2 15.5 4.4 21.1 11.5l-25.8 15c5.8-9.2 14.7-18.1-1.9-24zm-73.2 405.8c-23.8-7.9-37.1-27.5-51.8-45.6 6.1 4.2 6.1 4.2 8.7-6.8.5 4.1.4 8 1.4 11.5s2.5 7.4 4.9 10.1a126.5 126.5 0 0 0 35.4 29.7l1.4 1.1z"/><path fill="#514435" d="M98.5 97.2a38.9 38.9 0 0 0 14.9-23c.5-2.1 4-3.7 6.3-5.3 2.6-1.9 5.4-3.6 8.3-4.9-5.7 4.8-7.5 11.2-8.9 18.1-.6 3.1-4.8 5.7-7.8 8s-7.9 5.4-11.9 8l-.9-.9zm-39.9 266c-2.3-4.7-4.3-9.4-6.7-13.8-1.4-2.6-3.3-4.6.3-7.1 6-4.1 6.7-4.2 10.2.5-6.5 5.8-2.9 13.6-3.8 20.4zm195.8 118.7c-1 4.6 2.5 4.8 6.3 4.7 3.1-.2 6.2.1 9.2.8h-51.2v-.9c6-.5 12.1-.7 18.1-1.4s11.6-2.1 17.6-3.2zM365.1 65.7l14.6 21.5-.7.5c-2.9-3.8-6.1-7.5-8.7-11.5s-4.9-4.6-8.8-4c-.8.1-1.9.4-2.4 0s-2.9-2.3-3.1-3.6 1.8-2.7 3.2-3 4.8-.5 7.2-.6l-1.3.7zm-257 5.2c-5.5 5.4-5.5 5.4-12.9-1.7l8.1-6.4 4.8 8.1z"/>  </g>  <path fill="#514435" d="M880.9 81.5v19.2h17.4v9.3h-17.4v36c0 8.3 2.3 13 9.1 13 2.4 0 4.7-.2 7-.8l.6 9.1a30 30 0 0 1-10.7 1.7c-5.7 0-10.2-1.8-13.1-5.1s-4.7-9.5-4.7-17.4V110h-10.4v-9.3h10.4v-16l11.8-3.2z"/></svg>
