<svg xmlns="http://www.w3.org/2000/svg" viewBox="0 0 500 500"><g id="Layer_2_1_"><path fill="#514435" d="M161.7 453.4c-20.9-8.2-21.7-14.4-18.5-26.9l-15-7.3c-13-6.2-21.6-15.9-23.7-30.5-1.4-9.4 1.6-17.8 7.3-25.2 4-5.1 10.2-5.1 15.9-5.9 1.8-.3 3.7-.4 5.5-.1 15.5 2.8 27.5-6.2 40.3-12.1 1.9-.9 3.5-4.8 3.4-7.3s-3.5-4.2-6.8-4.1c-13.3.4-19.7-5.2-21.6-18-.3-2.1-1.9-4.1-2.9-6.1-.8-1.5-1.4-3.1-1.7-4.7 7.2 7.4 13.5 2.4 19.5-.9 4.1-2.2 7.5-2.6 11 .3 5.8 4.7 11.5 9.4 18.1 14.9l-5.8 2.1c-8 2.8-11.1 9.6-6.3 16.5 5.9 8.8 12.7 17.1 20.2 24.6 7.8 7.6 17.1 13.8 25.7 20.6 5 3.9 9.4 4.1 14.7.5l37.4-25c6.6-4.4 7.7-8.3 5.4-15.8-4.9-16.1-13-30.6-22.4-44.4-6.2-9-16.1-12.4-27.9-9.7s-18.1 8.9-20 20.2c-.8 4.9-.9 9.9-1.3 15.5-.8-1-1.4-2.1-1.9-3.3-2.6-9.3-5.7-18.4-7.6-27.9s5.3-21.8 13.4-26.1 19.8-1.7 27 4.9c19.5 17.9 35.2 38.6 45 63.4 4 10.2 8 20.4 11.6 30.8.5 1.5 0 4.6-1.1 5.4-16 11.1-32.2 21.9-48.3 32.8-4.7 3.2-8.5 2.4-12.4-1.3-10.4-9.6-21.2-18.7-31.4-28.5-5.8-5.7-11.2-11.8-16.2-18.2-2.4-2.9-4.4-3.6-7.6-1.6s-8.2 4.5-12.2 6.9-4.7 4.4-1 9.3c4.6 6.1 8.7 12.5 12.3 19.2 7.1 13.5 1.4 34.4-20.3 36.7l-9.4 1.1c-4.8.7-6.5 4-4.2 8.3 3.1 5.9 10.4 8.7 17.6 6.7 11.4-3.1 22.7-6.6 34.2-9.1s24.2.1 34.3 9.1c6.2 5.6 8.6 17.4-.5 23.7-6 4.2-12.6 6-19.6 6.7-12.8 1.3-25.6 2.4-38-2.3-3.7-1.4-7-3.7-10.3-5.9s-7-6.4-3.9-12zm-10.3-29.9c16.1-.1 23.4-11.1 18.4-23-1-2.7-2.1-5.3-3.4-7.8-6.5-11.5-15-20.7-27.6-25.6s-25.6 1.7-25.2 16c.3 9.3 3.4 18 11 24.3 3.6 3 7.1 6.1 11.1 8.4 6 3.5 12.2 6.1 15.8 7.8l-.1-.1zm62.7 20.8c-15-1-28 2.1-40.8 6.6-4.1 1.5-8.5 3.1-8.6 8.4s4.2 7.2 7.9 9.4c1 .5 2.1 1 3.2 1.4 7.2 3.1 14.7 2.3 22.1 1.3 10.9-1.4 21.9-2.4 31.5-8.6 4.1-2.6 7.6-5.9 6.2-11.4s-6-6.8-10.8-7.2-7.8.1-10.6.1h-.1zM447.9 308.4c-6 2.1-11.9 3.3-16.7-1.2-12.2-11.6-22.1-24.5-21.4-42.7.1-1.6.3-3.3.6-4.9.6-1.7.8-3.5.7-5.3l-12.7 10h-1.8c6.1-22.5-8.3-36.1-20.2-51.3l-37.6 28c3.8 5.4 7.2 10 10.4 14.9 5.8 8.7 10.4 18 11.6 28.4 1.6 14.7-3.6 27.3-14.3 37.2-8.1 7.6-24.9 7.7-35.3 1-11.2-7.2-21-16.4-28.9-27.2-5.8-7.9-12-15.6-17.7-23.5-2.3-3.4-4.1-7.2-5.3-11.1 9.1 3.9 15.5-.1 22.1-4.8 24.2-17.1 48.7-33.8 73.1-50.7 8.6-6 10.9-13.8 7-23.4-.3-.8-.2-1.7.4-2.4l25.2 36.4 25.5 37c2.5-4.9 5.1-8.9 6.3-13.2.5-1.9-1.7-4.8-3.3-6.9s-5.6-5.3-7.6-8.5c-4.4-7.1-3.3-14.8-.4-22.1 2-5 5.4-5.9 9.9-2.8 3 2 7.5 3.5 5.4 8.6-.8 1.9-2.1 3.5-3.7 4.8s-3.9 1.9-5.8 2.9c-4.3 2.3-4.9 5.2-1.6 8.7l1.1 1c8.1 7.7 8.1 7.7 15.2-.6 9.5-11.3 27.8-10.5 36.6 1.7.5.9.9 1.8 1.2 2.7-9.1-7.8-19.8-6.6-27.6 2.5s-7.7 10.2.8 18.2l18.9 17.8c4.3 4.1 8 3.8 9.5-2s1.4-12.1 1.8-18.2c.1-2.3-.4-4.6.5-7.1.3 2.1 1 4.1 1 6.2-.4 9.5 2.1 19.2-2.3 28.6-.9 1.9.2 4.8.5 8.3-4.3-5-7.8-9.5-11.8-13.5-6.3-6.3-12.7-12.7-19.7-18.4s-8.2-4.3-11.8 3c-3.5 6.8-5.3 14.4-5.2 22.1.2 13.3 6.1 23.3 17.3 30.1 2.4 1.5 6.3 1.1 10.1 1.7zm-115.2-63.6l-4.4 2.7c-12.7 8.5-25.4 17.1-38.2 25.4-6.3 4.1-8.1 8.2-4.8 15 6 12.6 15.7 21.6 30.1 21s25.1-7.3 31.3-20.5c1.2-2.7 1.9-5.6 2-8.6.9-14.3-4.6-25.8-16-35z"/><path fill="#514435" d="M280 139c3.8 3.9 7.2 7.1 10.2 10.6s3.4 8.2-.9 13c-8.4 9.4-16.7 19-24.6 28.9-4.4 5.4-5.3 12.1-4.3 19s7 12.9 15.2 11c21.5-5 38-17.1 48.9-36.4 4.7-8.4 9.1-16.9 9.2-27.1.1-8.1-2.8-14.9-6.8-21.5l-2.8-4.5 1-1c3.5 2.9 7.4 5.4 10.3 8.7 10.3 11.6 13.1 25.6 11.7 40.5-.5 5.8-1.2 11.7-3.1 17.1s-4.5 11.5-8.7 15.4c-13.7 12.8-29.9 21.4-48.9 22.2-10.6.4-20.5-3.5-28.4-10.6-2.9-2.5-4.4-7.3-5.3-11.3s-.5-9.3-.6-13.9-1.7-5-5.7-4.5c-5.3.7-10.6.8-15.9.3-17.6-1.6-28.5-17.9-30.8-30.6-3.7-19.9 10.4-53.3 28.2-63 9.5-5.4 20.5-7.4 31.3-5.6 10 1.5 20.1 2.8 30.4 8-1 .3-2.1.5-3.1.6-12.7-.7-23.9 3.4-34.4 10-15.1 9.6-26.4 22.9-35.1 38.3-6.1 10.8-3.4 22.9 5.3 29.8 4.3 3.4 9.3 4.7 14 2s11.2-6.7 15.4-11.4c8.6-9.5 16.2-19.8 24.3-29.8 1.1-1.2 2.3-2.4 4-4.2z"/><path fill="#514435" d="M167.4 170c-.6-4.8-1.2-9.7-1.9-14.5-1.8-12.9-2.9-9.3 7.6-14.8 2.2-1.1 4.5-2 7.4-3.3 2.1 9.5 4.2 18.5 6.1 27.5 3.3 16.1 5.8 32.5 14.1 47.1 5.9 10.3 13.8 19.4 23.1 26.7 3.9 3.2 8.2 3.3 12.6.8 2.1-1.2 4.3-2.2 7-3.6 0 4.7.3 8.6-.1 12.3-.4 1.7-1.5 3.1-3 4-4.2 2.3-8.7 4.2-13.1 6.2s-9.6 1.4-13.9-2.2c-6.8-5.6-13.7-11-21.3-17.1-.2 2-.3 3.5-.5 5-1.6 14.3-5.6 27.1-18.2 36.2s-23.6 9-35.7 5.5c-25.4-7.4-40.1-25.2-44.8-51.1-1.5-7.8-2.1-15.8-1.8-23.8.9-23.1 14-39.1 33.3-49.2 11.5-6 24.1-1.8 35.2 4.9l6.5 4.1 1.4-.7zm17.5 61.6c.1-14.4-7.7-32.4-18.8-48.8-4.4-6.6-10.7-12.4-19.1-14.5-17.2-4.4-35.3 6.8-38.4 24.4-4.4 24.9 5 46 20 65 1.7 2.2 4.1 3.9 6.3 5.6 10.6 8.7 21.9 8.9 33.4 2.3s17-15.2 16.6-34zM329.3 334.6c10.5 4.2 19.1 8.5 20.7 20.4.7 4 4.4 6.7 8.4 6h.1c7.9-1.2 18.3-12.2 17.7-19.9-.4-4.8-2.7-9.4-4-13.6.8.7 2.3 2.1 4 3.3 5.6 3.9 11.6 6 18.3 3.2 5.1-2.1 7-6.9 3.8-11.4-2.7-3.8-6.1-6.9-10.1-9.3-6-3.4-6.4-3.1-4.9-10.8 7.8 2.9 14 7.3 17.8 14.9 2 3.9 2.4 9.9 8.7 9.5s5.5-5.9 7.1-9.7c.6-1.3 1.4-2.3 2.5-3.2-1.5 7.7-1.1 14.6 6.7 20.9-3.7.5-6.1.5-8.3 1.2s-6.4 1.6-8 3.6c-8.1 10.6-13.5 12.2-25.1 6.2-1 3.7-2.3 7.3-2.9 11-.9 6.8-5.4 12.5-11.8 15-3.9 1.7-5.7 4.2-5.8 8.7-.2 13.3-2 26.3-10.3 37.4-2.4 3.4-5.3 6.4-8.5 9-5.6 4.4-11.6 8.4-17.9 11.8-12.2 6.3-25.3 8.2-38.7 4.1-9.6-2.9-16.6-13.4-16-23.5.2-3.3.9-6.5 2-9.6-.6 6.8.4 13 5.2 18.1s9 7.1 15.4 6.6c25.1-2 46-11.6 59.6-33.8 8.6-14 8.8-24.2-6.5-38.2-4.4-4-9.4-7.4-14-11.3s-3.3-10.5-5.2-16.6zM237.6 55.1c7.6-14.2-1.8-24-10.2-34.2-.6-.6-1.2-1.1-1.9-1.6s-1.3-1.2-1.7-2c6.7.2 14-3.7 19.5 3.9s11.5 14.6 17.2 21.9c5.7 7.3 16.4 7.3 22.2 1.7 8.7-8.4 7.3-7.5 18.3-2.3 3.5 1.6 7.2 2.5 11 2.6 1.8.1 4.5-1.9 5.2-3.6s-.2-4.5-1.3-6.2c-1.9-2.8-4-5.5-6.2-8 10.5 1.4 17.6 12.2 27.3 16.4-4.5-.2-8.9-.2-13.4.1-2.2.2-4.2 1.9-6.4 3 1 1.9 1.6 4.2 3 5.7 5.7 6 6.2 12.5.8 18.7-7 8-15.5 13.5-26.5 14.2-9.1.6-18.2 1.8-27.3 2-10.9.3-21-3.2-30.5-8.3-2-1.2-3.8-2.8-5.3-4.6 11.3 4.2 22.9 4.7 34.5 3.9 7.1-.6 14.1-2.2 20.8-4.7 7.6-2.7 8.3-8.3 3.7-14.9s-11-10.5-19.9-9.1c-4.7.8-9.7-.1-14.4.7-6.2 1-12.3 3-18.5 4.7zM406.5 127c-2-13.4-10.9-24.2-14.4-37.2l14.7 28c4.1 7.8 7.8 15.8 12.2 23.4 3.4 5.9 3.9 5.7 8.8 1.3l8.2-7.4c1 4 2 8.1-3.1 10.9-1.5.7-2.8 1.8-3.8 3.2-.7 1.2-1.2 3.4-.5 4.4 2.8 4.7 6 9.2 9.2 13.6 6.1 8.6 13.6 10.9 22.3 7.4 5.5 13.5 11.4 26.9 16.3 40.6 2.6 7.3 2.9 15.3 4.8 22.9 3.4 13.8 4.5 27.6 1.6 41.5-.1.7-.5 1.4-1.1 1.8-.1-2-.1-3.9 0-5.9 1.6-10.2 0-20.2-2.1-30.2-4.5-21.2-10.5-41.9-19.9-61.6-3.5-7.2-5.7-7.6-11-1.5-3.1 3.6-5.8 7.6-8.9 11.3-.8 1-2.6 2.6-3.2 2.3-1.3-.8-2.3-2-2.9-3.5-.4-1.3-.5-2.6-.3-3.9 1.4-12.4-3.2-22.1-14.1-30l-21.4 19-4.4-5.9 22.3-19.1c-8.8-12.7-20.7-21.3-33.2-28.9s-24.9-14.8-37.3-22.2c-7.6-4.5-7.6-4.6-24.4-7L346 77.8c-2.1 9.9-2.1 10 5.6 14.8 10.7 6.7 21.6 13.2 32.2 20.1 7.3 4.8 14.3 10.1 21.5 15.1l1.2-.8zM211 90.7c-18 4.7-35.3 8.6-52.3 13.8-9.3 3-18.4 6.9-26.9 11.7-6.6 3.6-12.4 8.7-18.4 13.4-7.7 6-16 8.4-25.7 5.4-6.8-2.1-9.8-7.8-13-13.1-5.8-9.6-5.2-12.3 3.6-19.5 1.9-1.6 4-2.9 6.5-4.7 1.3 6.2 4.5 9.9 10.8 9.6-.3 9.7 4.6 13.5 13.5 10.1 4.9-1.7 9.4-4.1 13.6-7.2 11.1-8.7 24.1-10.7 37.5-11.6h2.5c13.6 1.4 19-6.8 15.1-22.1-.7-2.8-.6-4.7 1.7-5.9 4.7-2.4 9.4-5.2 14.4-6.5s8 1.4 7.5 6.8 1.3 9.7 4.7 13.7c1.6 1.7 3 3.6 4.9 6.1zM80.5 255.3l-55.6-27c-1.6 8.3-3 15.7-4.4 23.1-3 15.5 1 29.8 8.4 43.2 2.6 4.8 6.3 9.8 10.8 12.8 6.7 4.7 14.5 3 21.3-.9 4.2-2.4 7.7-6.1 11-8.7-1.2 9.8-10.2 21.5-20.2 24.9-2.4.7-4.9.5-7.2-.4-7.3-3-13.3-8.6-16.7-15.7-7.5-15.9-13-32.5-11.7-50.5 1.3-18 5.5-36.8 16.2-52.3 3.8-5.6 10.3-10 16.5-13.1s12.9.8 18.4 4.8 10.4 12.6 11.7 20.2c2.3 12.8 2.3 26 3.3 39.1l-1.8.5zM65 220.9h-.4c0-3 .1-6 0-9-.2-6.1-2.3-11-8.5-13.4s-12.6-2.1-17 3-7.9 11.3-11.4 17.3c-1.9 3.2-.8 6.3 2.7 7.9 9 4.2 18 8.4 27.1 12.5 3.6 1.6 5.9-.1 6.4-3.8s.7-9.7 1.1-14.5zM439.7 376.3l4.2-18.9c8.8 6.1 9.5-4.1 15.5-5.1-1.7 6.9-2.4 13.9-5.1 20-7.8 17.6-20.7 31.4-35.3 43.4-9 7.5-19.4 13.4-29.5 19.5-5.9 3.6-9.7 3.7-18.7 2.4l6.3-36.8.9.2c.4 5.4.6 10.9 1.3 16.3 1.2 9 6.8 12 14.9 7.7 13.5-7.2 26.5-14.9 37.5-26.1 8.5-8.7 16-17.8 21.7-28.5.6-1.2 1.1-2.4 1.5-3.7.1-.5.1-.9 0-1.4l-1.4-1.3-10.7 14.4-3.1-2.1zM29.8 191.1c4.1-5.4 5.1-11 2.6-17.4-.8-1.9-.1-4.4-.1-7 10.3 5.5 15.7 2.7 17.8-8.4 1.2-6.4 4.3-11.7 9.7-17.2-.4 6 1.1 10.9-3.5 15.1s-2.5 8.9.8 12.2c6.6 6.6 21.4 7.3 28 .6 2.2-2.2 2.6-6.1 3.6-9.3s.8-6.4 2.4-8.9c2.9-4.5 8.5-4.1 11.6.3s2.5 14.1-3.2 18.9c-9.2 7.6-19.9 10.9-31.6 8.8-3.7-.7-7.3-3.7-10.4-6.3-6-5.1-9.2-4.7-13.7 1.8s-8.7 11.8-12.9 17.7l-1.1-.9zM357.8 428.3l-8.5 9.3c-1.8 2-3.9 3.6-5.4 5.8-2.9 4.2-2.5 7.7 1.3 11.1 5.5 4.9 11.5 9.1 20.1 8.9l-10.3 6.5c-.7-1.6-1.1-5-2.4-5.4-2.5-.6-5.1-.1-7.3 1.2-7.2 4.7-14 5-21.6.9s-17.6-1.5-26.9-1.3l20.3-11c7.1-4 14.4-7.7 21.1-12.2s12.5-9.6 18.7-14.5l.9.7zM79.9 329.1c3.2 2.4 5.5 4.3 8 5.8 13.3 8 30.6.2 32.9-15.1 1.3-8.6 1-17.3 1.4-25.6-.4-.3.1-.1.4.3 7.2 12.1 10 24.8 5.4 38.6-3.6 10.9-12 15-22.4 16.1-8.8.9-18.2-4.8-22.4-13-1.1-2.2-2-4.3-3.3-7.1zM151.7 56.3c1.5-3.9 2.5-7.4 4.2-10.7s2.7-4.1 4.6-4.8c3.7-1.2 7.7-1.4 11.4-1.9.9 2.7 1.6 5.4 2.7 8.1 1.7 4.2.7 8.1-3.4 10.1s-10.7 3.4-16.2.5c-1.1-.5-2.2-.9-3.3-1.3zM411.4 94.4l14.8 16.5c2.2 2.4 4.6 3.5 7.6-1l14.6 18c-7.7 4.8-8 5-13.3-1.5-8.5-10.2-16.5-20.7-24.8-31l1.1-1zM473.2 288.7c0 6.8.1 13.5-.1 20.3-.2 1.5-1.2 2.8-2.6 3.5-6.1 1.9-9.6 6.2-12.2 11.7-2.6 5.7-5.6 11.3-8.8 16.7 5.5-18.4 13.6-35.7 22.5-52.6l1.2.4zM186.6 26.9l6.6-2.5c4.2 9.2 15.5 4.4 21.1 11.5l-25.8 15c5.8-9.2 14.7-18.1-1.9-24zM113.4 432.7c-23.8-7.9-37.1-27.5-51.8-45.6 6.1 4.2 6.1 4.2 8.7-6.8.5 4.1.4 8 1.4 11.5s2.5 7.4 4.9 10.1c10.4 11.5 21.3 22.5 35.4 29.7.5.3 1 .7 1.4 1.1z"/><path fill="#514435" d="M108.5 96.2c7.6-5.6 12.9-13.8 14.9-23 .5-2.1 4-3.7 6.3-5.3 2.6-1.9 5.4-3.6 8.3-4.9-5.7 4.8-7.5 11.2-8.9 18.1-.6 3.1-4.8 5.7-7.8 8s-7.9 5.4-11.9 8l-.9-.9zM68.6 362.2c-2.3-4.7-4.3-9.4-6.7-13.8-1.4-2.6-3.3-4.6.3-7.1 6-4.1 6.7-4.2 10.2.5-6.5 5.8-2.9 13.6-3.8 20.4zM264.4 480.9c-1 4.6 2.5 4.8 6.3 4.7 3.1-.2 6.2.1 9.2.8h-51.2v-.9c6-.5 12.1-.7 18.1-1.4s11.6-2.1 17.6-3.2zM375.1 64.7l14.6 21.5-.7.5c-2.9-3.8-6.1-7.5-8.7-11.5s-4.9-4.6-8.8-4c-.8.1-1.9.4-2.4 0s-2.9-2.3-3.1-3.6 1.8-2.7 3.2-3 4.8-.5 7.2-.6l-1.3.7zM118.1 69.9c-5.5 5.4-5.5 5.4-12.9-1.7l8.1-6.4 4.8 8.1z"/></g></svg>
