<svg xmlns="http://www.w3.org/2000/svg" viewBox="0 0 1000 500"><g id="Layer_2"><path fill="#2c2872" d="M43.6 194.8s2.4-5.5 7.9-5.7 18.9-.7 18.9-.7 10.2-25 16.6-25c6.5 0 3.5 25.2 3.5 25.2h13.1s6.3 1.6 6.2 5.4l-66.2.8zM141 194.8s2.4-5.5 7.9-5.7c5.5-.1 18.9-.7 18.9-.7s10.2-25 16.6-25c6.5 0 3.5 25.2 3.5 25.2H201s6.3 1.6 6.2 5.4l-66.2.8zM181 337.6s-2.4 5.5-7.9 5.7c-5.5.1-18.9.7-18.9.7s-10.2 25-16.6 25c-6.5 0-3.5-25.2-3.5-25.2H121s-6.3-1.6-6.2-5.4l66.2-.8zM89.9 337.6s-2.4 5.5-7.9 5.7c-5.5.1-18.9.7-18.9.7S53 369 46.5 369 43 343.8 43 343.8H29.8s-6.3-1.6-6.2-5.4l66.3-.8z"/></g><g id="Layer_3"><path fill="#2c2872" d="M174.6 316.1c-4.7-11.8-11-29.7-16-46-1.3.3-2.8.3-4.1.3h-6.1l-2.3 18.2c-1.4 10.9-2.9 22.5-3.2 27.5h-9.6c.8-4.9 2.6-16.6 4-27.5l6.8-53.3c1.4-10.9 2.9-23.8 3.4-28.6h15.7c14.7 0 22.3 12.6 22.3 27.9 0 20.4-11.2 30-19.4 33.5 3.6 8.4 7.9 20.8 12.2 31.5l18.6-100.8H58.6l-26 130.3h140.2l2.4-13.1h-.6zm-98.2-80.8l-6.7 52.2c-1.4 10.9-2.9 23.6-3.3 28.6h-9.7c.8-4.9 2.8-17.7 4.2-28.6l6.7-52.2c1.4-10.9 2.8-23.8 3.3-28.6h9.7c-.9 4.9-2.8 17.8-4.2 28.6zm51.6-10.6c-1.5-6.4-6.1-10.7-13-10.7-7.8 0-14.6 5.9-14.6 19 0 19.6 23.6 26.5 23.6 52.8 0 19.6-11.2 32.7-25.5 32.7-8.7 0-13-4.5-17.9-5.6l2.2-16.8c1.8 6.5 9 12.8 16.1 12.8 9.4 0 16-8.8 16-21.7 0-21.7-23.4-28.6-23.4-53.2 0-18.8 10.4-29.5 23.5-29.5 6.8 0 10.5 3 15.1 4l-2.1 16.2z"/><path fill="#2c2872" d="M161.1 216.5h-5.7l-6 45h7c9.7 0 19.9-9.1 19.9-25.9 0-10.6-4.6-19.1-15.2-19.1z"/><path d="M245.2 235.5c0 5.5.2 12 .3 14.5h-7.2c.2-2.5.3-9 .3-14.5V209c0-5.5-.2-12.1-.3-14.5h7.2c-.2 2.4-.3 9-.3 14.5v26.5zM258.7 250.1c.2-2.3.3-7.5.3-11.8v-29.4c0-4.9-.2-11.3-.3-15.7h1.5c2.4 3 3.9 4.6 6.7 7.7l30.1 35.8V209c0-4.6-.2-11.1-.2-14.5h6.8c-.2 3.6-.2 10.1-.2 14.5v30.3c0 3.4 0 7.1.2 11.8h-1.5c-2-2.6-3.4-4.2-6-7.2l-30.6-36.4-.2 31c0 4.2.2 9.4.3 11.7h-6.9zM342.8 235.4c0 9.3-6.8 15.8-16.8 15.8-5.3 0-8.5-1.4-12.7-2V240c2 3.4 7.3 6 12.8 6 6 0 9.6-4.1 9.6-9.8 0-12-20.7-11.9-20.7-28 0-9.5 6.7-15 16.1-15 4.2 0 6.8 1.1 10.2 1.5v8.8c-1.5-3.6-5.5-5.2-10.2-5.2-5.4 0-9.3 3.2-9.3 9-.1 11.8 21 12.1 21 28.1zM379.2 194.4c5.6 0 11.5-.1 14.1-.2v6c-2.5-.2-8.5-.3-14.1-.3h-5.7c-.1 3-.1 7.2-.1 10.5v25.2c0 5.5.1 12 .3 14.5h-7.2c.2-2.5.2-9 .2-14.5v-25.2c0-3.3-.1-7.5-.2-10.5H361c-5.5 0-11.4.2-13.9.3v-6c2.5.2 8.4.2 13.9.2h18.2zM407.1 235.5c0 5.5.2 12 .3 14.5h-7.2c.2-2.5.3-9 .3-14.5V209c0-5.5-.2-12.1-.3-14.5h7.2c-.2 2.4-.3 9-.3 14.5v26.5zM446.9 194.4c5.6 0 11.5-.1 14.1-.2v6c-2.5-.2-8.5-.3-14.1-.3h-5.7c-.1 3-.1 7.2-.1 10.5v25.2c0 5.5.1 12 .3 14.5h-7.2c.2-2.5.2-9 .2-14.5v-25.2c0-3.3-.1-7.5-.2-10.5h-5.6c-5.5 0-11.4.2-13.9.3v-6c2.5.2 8.4.2 13.9.2h18.3zM475.4 194.4c-.2 2.2-.3 8.8-.3 14.5v18.8c0 10.5 6.1 17.5 14.7 17.5s14.6-7 14.6-17.5V209c0-4.6 0-11.1-.2-14.5h7.2c-.2 3.6-.2 10.1-.2 14.5v18.6c0 14.5-8.9 23.4-21.3 23.4s-21.3-8.9-21.3-23.4V209c0-5.8-.2-12.4-.3-14.5h7.1zM550.9 194.4c5.6 0 11.5-.1 14.1-.2v6c-2.5-.2-8.5-.3-14.1-.3h-5.7c-.1 3-.1 7.2-.1 10.5v25.2c0 5.5.1 12 .3 14.5h-7.2c.2-2.5.2-9 .2-14.5v-25.2c0-3.3-.1-7.5-.2-10.5h-5.6c-5.5 0-11.4.2-13.9.3v-6c2.5.2 8.4.2 13.9.2h18.3zM578.5 244.5h7.1c5.6 0 11.3-.1 13.7-.2v6c-2.4-.2-8.1-.2-13.7-.2h-14.1c.2-4.5.3-10.9.3-14.5v-26.7c0-5.6-.2-12-.3-14.5H585c5.6 0 11.2-.2 13.7-.3v6.1c-2.5-.2-8.1-.3-13.7-.3h-6.5v17.7h6.4c5.5 0 10.2-.1 12.7-.2v6c-2.5-.2-7.1-.2-12.7-.2h-6.4v21.3zM626.6 250.1c.2-2.5.3-9 .3-14.5V209c0-5.6-.2-12.1-.3-14.5h13.9c5.6 0 10.7-.2 13.2-.3v6.1c-2.5-.2-7.6-.3-13.2-.3h-7v19.3h7c5 0 8.5-.2 10.9-.3v6.2c-2.4-.2-5.8-.3-10.9-.3h-7v10.8c0 5.5.2 12 .2 14.5h-7.1zM688.6 193.4c16.1 0 28.8 12.9 28.8 28.8S704.7 251 688.6 251s-28.8-12.9-28.8-28.8c.1-15.8 12.7-28.8 28.8-28.8zm0 52c12.2 0 22-10.3 22-23.2 0-12.8-9.8-23.1-22-23.1s-22 10.3-22 23.1 9.8 23.2 22 23.2zM734.6 236c0 5.5.1 11.5.3 14.1h-7.2c.2-2.5.3-8.5.3-14.1v-27c0-5.5-.1-12.1-.3-14.5h11.6c12.4 0 19.1 6.8 19.1 16.3 0 8.7-5.4 13.2-11 15 5.9 7.3 12.8 18.3 19.3 24.4h-9c-4.6-5.8-11.3-15.1-16-23.2-1 .2-1.8.2-2.7.2h-4.4v8.8zm0-13.9h5.3c6.8 0 11.8-4.6 11.8-11.3 0-5.8-4.1-11.1-12.6-11.1h-4.5v22.4z"/><g><path d="M264 316.7c0 9.3-6.8 15.8-16.8 15.8-5.3 0-8.5-1.4-12.7-2v-9.3c2 3.4 7.3 6 12.8 6 6 0 9.6-4.1 9.6-9.8 0-12-20.7-11.9-20.7-28 0-9.5 6.7-15 16.1-15 4.2 0 6.8 1.1 10.2 1.5v8.8c-1.5-3.6-5.5-5.2-10.2-5.2-5.4 0-9.3 3.2-9.3 9 0 11.9 21 12.1 21 28.2zM316.9 329.5c-4.8 1.5-9 2.7-15.2 2.7-16.9 0-29.7-12.9-29.7-28.8s12.8-28.8 29.7-28.8c6.6 0 10.4 1.5 14.6 2.5v7.8c-3.8-3.2-8.7-4.4-14.2-4.4-13 0-23.4 10.2-23.4 22.9s10.4 23 23.5 23c5.8 0 11.1-1.4 14.7-4.6v7.7zM332.6 317.3c0 5.5.1 11.5.3 14.1h-7.2c.2-2.5.3-8.5.3-14.1v-27.1c0-5.5-.1-12.1-.3-14.5h11.6c12.4 0 19.1 6.8 19.1 16.3 0 8.7-5.4 13.2-11 15 5.9 7.3 12.8 18.3 19.3 24.4h-9c-4.6-5.8-11.3-15.1-16-23.2-1 .2-1.8.2-2.7.2h-4.4v8.9zm0-13.9h5.3c6.8 0 11.8-4.6 11.8-11.3 0-5.8-4.1-11.1-12.6-11.1h-4.5v22.4zM377.2 316.8c0 5.5.2 12 .3 14.5h-7.2c.2-2.5.3-9 .3-14.5v-26.6c0-5.5-.2-12.1-.3-14.5h7.2c-.2 2.4-.3 9-.3 14.5v26.6zM397.7 316.8c0 5.5.2 12 .3 14.5h-7.2c.2-2.5.2-9 .2-14.5v-28.2c0-5.5-.1-10.5-.2-12.9h12.4c11.5 0 18.3 7.2 18.3 16.9s-7.5 16.9-18.4 16.9h-5.4v7.3zm0-12.4h5c7.3 0 12.3-5.9 12.3-11.9 0-6.3-4.5-11.7-12.4-11.7h-4.9v23.6zM458.1 275.7c5.6 0 11.5-.1 14.1-.2v6c-2.5-.2-8.5-.3-14.1-.3h-5.7c-.1 3-.1 7.2-.1 10.5v25.2c0 5.5.1 12 .3 14.5h-7.2c.2-2.5.2-9 .2-14.5v-25.2c0-3.3-.1-7.5-.2-10.5h-5.6c-5.5 0-11.4.2-13.9.3v-6c2.5.2 8.4.2 13.9.2h18.3zM486.7 275.7c-.2 2.2-.3 8.8-.3 14.5V309c0 10.5 6.1 17.5 14.7 17.5s14.6-7 14.6-17.5v-18.8c0-4.6 0-11.1-.2-14.5h7.2c-.2 3.6-.2 10.1-.2 14.5v18.6c0 14.5-8.9 23.4-21.3 23.4s-21.3-8.9-21.3-23.4v-18.6c0-5.8-.2-12.4-.3-14.5h7.1zM541.9 317.3c0 5.5.1 11.5.3 14.1H535c.2-2.5.3-8.5.3-14.1v-27.1c0-5.5-.1-12.1-.3-14.5h11.6c12.4 0 19.1 6.8 19.1 16.3 0 8.7-5.4 13.2-11 15 5.9 7.3 12.8 18.3 19.3 24.4h-9c-4.6-5.8-11.3-15.1-16-23.2-1 .2-1.8.2-2.7.2h-4.4v8.9zm0-13.9h5.3c6.8 0 11.8-4.6 11.8-11.3 0-5.8-4.1-11.1-12.6-11.1h-4.5v22.4zM586.2 325.8h7.1c5.6 0 11.3-.1 13.7-.2v6c-2.4-.2-8.1-.2-13.7-.2h-14.1c.2-4.5.3-10.9.3-14.5v-26.7c0-5.6-.2-12-.3-14.5h13.4c5.6 0 11.2-.2 13.7-.3v6.1c-2.5-.2-8.1-.3-13.7-.3h-6.5v17.7h6.4c5.5 0 10.2-.1 12.7-.2v6c-2.5-.2-7.1-.2-12.7-.2h-6.4v21.3zM641.3 317.3c0 5.5.1 11.5.3 14.1h-7.2c.2-2.5.3-8.5.3-14.1v-27.1c0-5.5-.1-12.1-.3-14.5H646c12.3 0 19.1 6.8 19.1 16.3 0 8.7-5.4 13.2-11 15 5.9 7.3 12.8 18.3 19.3 24.4h-9c-4.6-5.8-11.3-15.1-16-23.2-1 .2-1.8.2-2.7.2h-4.4v8.9zm0-13.9h5.3c6.8 0 11.8-4.6 11.8-11.3 0-5.8-4.1-11.1-12.6-11.1h-4.5v22.4zM685.6 325.8h7.1c5.6 0 11.3-.1 13.7-.2v6c-2.4-.2-8.1-.2-13.7-.2h-14.1c.2-4.5.3-10.9.3-14.5v-26.7c0-5.6-.2-12-.3-14.5H692c5.6 0 11.2-.2 13.7-.3v6.1c-2.5-.2-8.1-.3-13.7-.3h-6.5v17.7h6.4c5.5 0 10.2-.1 12.7-.2v6c-2.5-.2-7.2-.2-12.7-.2h-6.4v21.3zM743.6 316.7c0 9.3-6.8 15.8-16.8 15.8-5.3 0-8.5-1.4-12.7-2v-9.3c2 3.4 7.3 6 12.8 6 6 0 9.6-4.1 9.6-9.8 0-12-20.7-11.9-20.7-28 0-9.5 6.7-15 16.1-15 4.2 0 6.8 1.1 10.2 1.5v8.8c-1.5-3.6-5.5-5.2-10.2-5.2-5.4 0-9.3 3.2-9.3 9-.1 11.9 21 12.1 21 28.2zM760 325.8h7.2c5.6 0 11.3-.1 13.7-.2v6c-2.4-.2-8.1-.2-13.7-.2h-14.1c.2-4.5.3-10.9.3-14.5v-26.7c0-5.6-.2-12-.3-14.5h13.4c5.6 0 11.2-.2 13.7-.3v6.1c-2.5-.2-8.1-.3-13.7-.3H760v17.7h6.4c5.5 0 10.2-.1 12.7-.2v6c-2.5-.2-7.2-.2-12.7-.2H760v21.3zM830.3 331.3c-.8-2.4-2.1-5.5-3.7-9.2l-4.1-9.7h-21.2l-4 9.5c-1.8 4.3-2.9 7.2-3.6 9.3h-7.5c1.9-3.5 4-7.8 5.9-12.4l19.2-44.4h1.9l19.4 44.4c2 4.6 4.2 9 6.1 12.4h-8.4zm-18.4-44.8l-8.4 20.5h16.7l-8.3-20.5zM852.2 317.3c0 5.5.1 11.5.3 14.1h-7.2c.2-2.5.3-8.5.3-14.1v-27.1c0-5.5-.1-12.1-.3-14.5h11.6c12.4 0 19.1 6.8 19.1 16.3 0 8.7-5.4 13.2-11 15 5.9 7.3 12.8 18.3 19.3 24.4h-9c-4.6-5.8-11.3-15.1-16-23.2-1 .2-1.8.2-2.7.2h-4.4v8.9zm0-13.9h5.3c6.8 0 11.8-4.6 11.8-11.3 0-5.8-4.1-11.1-12.6-11.1h-4.5v22.4zM930.7 329.5c-4.8 1.5-9 2.7-15.2 2.7-16.9 0-29.7-12.9-29.7-28.8s12.8-28.8 29.7-28.8c6.6 0 10.4 1.5 14.6 2.5v7.8c-3.8-3.2-8.7-4.4-14.2-4.4-13 0-23.4 10.2-23.4 22.9s10.4 23 23.5 23c5.9 0 11.1-1.4 14.7-4.6v7.7zM939.4 331.3c.2-2.3.2-7.5.2-11.8v-29.3c0-5.8-.1-12.4-.2-14.5h7.2c-.2 2.2-.3 8.8-.3 14.5v8.5h30.4v-8.5c0-4.6 0-11.1-.2-14.5h7.2c-.2 3.6-.3 10.1-.3 14.5v29.4c0 4.2.2 9.4.3 11.7h-7.2c.2-2.3.2-7.5.2-11.8v-15.4h-30.4v15.5c0 4.2.2 9.4.3 11.7h-7.2z"/></g></g></svg>
