<svg xmlns="http://www.w3.org/2000/svg" viewBox="0 0 500 500"><path fill="#0f0" d="M132 224.1c-1.1 1.9-.4 3.8-.1 6.4-4.4-3.6-5.2 1.9-8 2.5-.8.1-.1 1.8.3 2.5.8 1.4 1.3 2.7-.1 4.1-1.4 1.4-2.9 1-4.5.4-2.8-1.1-5.3-2-6.6-5.4-.8-2.1-4.1-3.4-6.8-3.8-4.9-.6-6.9-2.1-7.7-6.7-1.3-7.4-11.8-11.5-18.6-7.2-2 1.2-3.1 1.8-3.8-1-.3-1.3-1.4-1.5-2.6-1.2-4.2 1-7.5 7.7-5.8 11.8 1.5 3.7.8 7.4-1.6 10.4-1.3 1.6-3.1 2.6-5.8 1.6-4.2-1.6-6.8 1.3-8.1 5.3-1.5 4.3-3.8 8.3-4.2 13.1-.1 1.6-2.5 1.8-4.2 1.7s-2.4-1.6-2.5-2.9c-.1-3.6-3.1-6.5-2.4-10.3.1-.5-.2-1.2-.6-1.5-6.4-4.8-7-13.8-13.5-18.5-1-.7-1-2-1-3 .3-4.6-1.4-8.9-2.3-13.3-.8-3.4-4.4-4.4-7.4-5.4-3.1-1.1-7.5-.9-3.6-6 .1-.1.1-.3.1-.4.7-1.2-3.2-3.8 1.2-4 3.7-.1 7.4 2.1 7.2 5.1-.3 4 2.5 5.8 4.6 8.2 1.4 1.6 3.4 2 4.8.7 1.8-1.8 4.2-2.5 6-3.9 2.3-1.8 4.3-2.4 6.6-.7 1.8 1.4 3 .8 3.9-1 .8-1.4 1.4-3 3.4-3.2 1.7-.2.9-1.4.6-2.1-1.8-3.7-2.7-7.8-5.7-11-1.4-1.4-2.2-3.3-1.4-6 .9-3.1-.1-6.6 2.1-9.7 1.1-1.6-1.6-2.9-3-3.8-1.4-.8-3-1.4-1.8-3.3 1.1-1.6 1.7-4.8 4.7-3.3 2.5 1.2 2.6-.1 3-2 .7-3.6.8-7.4 4.5-9.8 1.5-1 .7-2.5-.2-3.6-2.6-3.5-2.4-6.7.3-10.3 3.1-4.2 7.4-6.8 11.5-9.6.8-.5 1.8-1 2.7-1 2.7-.3 6.6 1.2 5-4.2-.2-.7 1.6-.6 2.5-.5 4.4.2 8.8-.2 13.1-.8 1.2-.2 2.7-.3 3.1-1.7 1.8-6.9 6.5-11.3 12-15.6 3.1-2.3 4.4-6.9 8.8-8.2.5-.1.7-1.1.9-1.8 2.1-6.6 9.7-8.7 15.1-4.2 1.2 1 1.6 2.2.9 3.6-.7 1.2-.7 2.5.1 3.4 4.7 5.7 3.3 12.7 4.4 19.1.5 3.3-1.2 5.5-4.3 6.6-3.6 1.2-6.9.7-9.2-2.5-2.4-3.3-4.8-6.6-5.8-11.1.6 5-3 7.5-5.7 10.6-2.3 2.7-.7 5.7-.3 8.6.1.5.7.9 1.3.7.6-.2.8-.7.8-1.2-.1-.5-.3-1.1-.1-1.6.3-1.4.3-3.3 2.1-3.5 2-.2 2.3 1.5 2.7 3 .3.9.5 1.9.9 2.7 1 1.9 1.9 2.5 3.4.2 2.7-4 10-4.4 12.8-.6 1.4 1.9 3.1 1.4 3.4 0 1.1-4.5 6.2-6.1 6.7-10.8 1.9.4 2.6 1.9 3.6 2.9 1.4 1.4 1.6 3.2.9 5-.7 1.8-2.1 1.2-3.5 1-1-.1-2.1 0-2.2 1.2-.1 1.3-.8 2.7.6 3.8.8.6 1.9 1.2 2.6.4 2.7-3 6-2 9.2-1.8 2.5.1 4.9.6 7.4.6 1.8 0 4-.8 4.9.9.8 1.4-2.1 2-2 4 3.6-.4 6.8 2.1 10.5 2 1-.1 1.9.4 2.6 1.1.8.8 1.2 2.5 2.8 1.6 1.2-.8.7-2.2.8-3.4.2-1.9-1-3.4-1.4-5.1-.2-1.2.2-2.2 1.4-2.7 1-.4 1.8.2 1.9 1 .7 6.2 7.1 8.5 9.4 13.6 1 2.2 2.5 4.2 3.2 6.6.2.7.4 1.4 1.2 1.4 1-.1 1.3-.9 1.3-1.8 0-.3 0-.6-.2-.8-3.1-5.2 1.2-9.4 2-14.2.1-.5.5-1.1.9-1.3 5.4-2.7 8.4-8.1 12.9-11.8 1-.8 2.1-1.7 3.3-.8 1 .8.7 2-.1 2.9-.4.4-.9.9-.3 1.4 4.2 3.6.5 6.4-1.2 9.2-1 1.6-1.5 3-1.4 4.9.2 4-3.1 6.9-4.1 10.5-.4 1.4-1.4 2.8-.8 4.3 1.4 3.6-.8 5.9-2.9 7.9-2.2 2.3-5.1 4-7.7 5.9 1.7 2.5 3.3.1 4.6-.4 3.5-1.2 6.1-3.7 7-7.4.7-3.1 2-5.1 6.5-4.4-2.1-2-5.7-.5-5.1-3.9.3-2 .5-4.2 1.8-5.9 1.6-2 2.7-3.9 2.1-6.7-.5-2 .7-4.2 2.4-4.8 3.8-1.4 5.2-4 4.7-8 4.5 4.8-1.8 9-.4 14.3 1.5-2 .3-4.8 2.7-5.4 1.8-.5 1.3-3.8 3.3-3.1 2 .8 3.6 2.6 5.4 4 .4.3.6.9.9 1.4.7.9.8 3.1 2.2 2.3 1.7-1-.1-2.2-.8-3.3-2.1-2.9-.6-5.9.2-8.5.8-2.6 3.4-1.2 5.4-1 1.6.2 3.3.3 4.9.3 2.2 0 4.3.3 3.1-3.4-1-3.2 3-3.8 4.6-5.7.5-.7 1.8-.7 2.5-1.2 3.4-1.9 7.7-1.3 10.8-4.3 1-.9 4.4-2.1 6.2.6.3.5 1.2.6 1.4.1 1.6-2.7 6-2.4 6.6-6.4.2-1.4 1.7-2.7 2.8-4s2.4-2.7 4.2-1.6c1.3.8 3.8 1.2 2.1 3.8 1.7 1 1.6 4.2 4.8 3.4 3.4-.8 6.6-.8 9 2.9 2.5 3.9 3 7.5.1 11.3-1 1.3-1 2.1.1 3.5 3.1 3.8 4.4 4.6 9.6 4.9 2 .1 3.6-.1 5.3 2.1 2.3 3 7.7 1.3 8.5-2.5.7-2.9 2-4.1 4.9-2.9 2 .8 4-.5 6.1.7 3.8 2 4.7 5.4 5.5 9 .3 1 .3 2.2.7 3.2.7 1.8 1.8 3.3 3.9 3.1 1.9-.2 1.1-2.2 1.5-3.4.5-1.4.7-2.9 1.2-5.3 2.3 3.8 4.3 2.8 6.7.9 1.4-1.1 3.5-1.3 5.3-2 2.1-.8 3.4-1.6 1.5-4.1-1.2-1.6.7-6.5 2.7-7 4-.8 7.6-3.5 12-2.1.1.1.3.2.4.1 4.9-5.3 8.9.4 13.2 1.2 3 .6 4.8.4 6.9-1.8 1.5-1.6 3.6-2.5 5.3-3.8 3.3-2.3 6.4-1.6 8.9 1 2.7 2.9 4.8 2.2 6.7-.5 1.2-1.8 2.5-3 4.6-3.8 2.5-.9 4.6-2.4 4.7-5.6 0-1.5 1-2.7 2.6-2.7 1.6.1 2 1.2 1.6 2.7-.3 1 .2 1.8 1.2 1.4 1.2-.5 3 .7 3.7-.9.5-1-.4-1.7-1.2-2.3-4.6-3.3-4.6-3.8 0-6.8 4-2.6 6.9-6.4 11.8-7.8 7.8-2.1 15.7-3.3 23.6-4.5 1.8-.3 3.3-.9 4.2-2 2.1-2.3 4.4-3.3 7.5-3.5 4.1-.3 5.9 1 5 5-.7 3.1.5 5.1 2.7 6.8 1.8 1.5 1.4 3.4-.4 3.8-3.1.8-5.7 3.7-9.3 2.1-1-.5-2.2-.2-2.6.7-1.4 3.5-3.9 4.2-7.3 2.9 6.2 3.7 5.3 9.1.8 13.5 5.4-2.1 8.9 1.4 12.9 2.7 1.9.7 2.9 3.1 1 4.2-6.1 3.8-5.4 10.4-6.7 16.1-.9 3.9-.5 8.1-.6 12.2 0 2-1.1 1.9-2.4 1.7-4.3-.5-5.9 1.8-6.4 5.7-.1 1.2 1 4.5-2.6 2.5-.1-.1-.7.2-.7.3.3 2.5-2.9 3.9-2.9 5.5 0 3.7 1.3 7.5 2.1 11.2.1.6.8.7 1.4.5.3-.1.5-.2.8-.3 4-.7 2.2 4.2 4.9 5.1 2.7.8 4.4 2.2 2.3 5.4-1.2 2-.3 4 1.4 5.5 2.1 1.8 2.5 3.5.3 5.5-.6.5-1.4 1.6-1.2 2 1.6 4.5.3 9.1 1 13.6 1 6.4-.6 12.4-2.1 18.5-.1.2-.7.3-1.2.5-.1-.5-.4-.9-.3-1.2 2.3-5.6-1-9.2-4.5-12.6-3.6-3.7-7.1-7.6-10.5-11.6-4.4-5.1-5.3-11.1-6.2-17.4-.1-.3-.1-.6.1-.8 4.4-7.1 2-15.3 3.5-22.8.3-1.6.8-3.2 1.2-4.8.4-1.4.3-3.1-1-3.6-1.6-.5-2.8.7-3.2 2.3-.5 1.8-.6 3.5-1.1 5.2-.3.9-.1 2.5-1.4 2.5-.8 0-2-.7-2.4-1.4-1.1-1.7-2.1-3.7-4.4-2.1-2 1.4-4.6 3-4.3 6.1.3 3.1.3 6-.8 8.9-.8 2.1-.3 3.6 2.4 4.2 2.3.5 2.1 1.9.6 3.2-2.1 1.9-4.4 3.6-6.6 5.5-1.3 1.1-2.7 2.5-3.3-.7-.3-1.2-6.2.1-6.6 1.7-1.1 4.9-6 6.2-9.2 6.9-7.2 1.6-9.9 6-11.6 12.1-2.4 8.5-4.8 17.2-9.2 25-.4.7-1.2 1.4-.7 2.3.5.9 1.4.4 2.2.2 2.6-.7 4.6 1.6 7.1 1.6 1 0 1.8.3 2.3-.8 1.7-3.6 4.2-3.7 7.3-1.7 2.1 1.4 4.8 3.4 6.4-.8.5-1.2.5-2.1-.4-3-.8-.7-1.4-1.7-.2-2.3 1-.7 1.8.3 2.4 1 1.2 1.6 2.7 3.3 3.4 5.1 3.1 8.8 10.3 14.6 16.1 21.5-.3.2-.5.5-.6.5-1.6-.1-3.4-1.9-4.6-.2-1.5 2.1-.5 4.8.1 7.2.6 2.3 2.5 4 4.7 4.9 2.1.8 3 2.2 3.3 4.8-2.5-1-4.4-1.4-4.5 2-.1 1.8-1.4 1.4-2.2.3-1.2-1.6-1.5-3.5-2.2-5.3-3.1-7.2-6.7-14-9-21.5-.5-1.6-1.9-3.4-3.4-3.1-1.8.5-1 2.7-1 4.3 0 .1 0 .3.1.4 6.9 15.6 1.8 30.3-2.9 45.1-1.4 4.5-2.7 8.9-6.4 12.2-1.6 1.4-3.3 2.6-5.5 2.1-2.6-.7-4.1 0-4.9 2.7-.3.8-.9 3.2-2.8 2-1.4-.8-1.6-2.2-.5-3.8 2-2.9.1-5.8-.9-8.5-1.3-3.6-.5-6 3.3-6.6 2.7-.5 3.3-1.9 3.6-4.2.5-4.2-.5-8.5.5-12.8.2-.9-.5-2-1.4-2.3-1-.3-1.4.7-2 1.1-2.5 1.8-4.1 4.8-7.4 5.5-2.1.5-3.8.3-4.5-1.6-2-5.8-7-5.6-11.5-5.7-2.5-.1-3.6-.7-4.9-2.7-2.5-4.2-5.4-8.2-8-12.4-3.1-4.9-17.2-4.9-20.7.3-.5.7-1.1 1.4-.3 2.1 2.7 2.3 1.3 4.5.1 7-1 2-1.4 4.4-1.9 6.7-1.2 6.3-4.2 7.9-10.5 6.8-4.6-.8-9.3-2.8-13.8 2.5-4.7 5.5-14.8 4.9-20.9.7-3.8-2.6-7.8-4.2-12.8-3-5.1 1.2-7.5-.3-10.1-4.9-2.3-4-6.8-4.7-10.6-6.2-2-.8-4.5 3.1-4.1 5.9.7 5.5-1.5 7.2-6.8 5.9-3.8-1-7.3-1.4-10.4-4.8-3.2-3.5-11.7-2.4-16.3 1.4-2.2 1.9-4.8 1-6.8 2-2.9 1.3-4.1-1.4-5.9-1.8-5.9-1.3-7.2-6.1-9.5-10.2-.3-.5-.7-1.2-1-1.2-4.1 0-7.3-2.3-10.9-3.6-2.2-.8-2.7-1.6-3.1-3.2-1.4-5-1.4-10.3-3.5-15.2-2.4-5.7-2.6-5.6-8.6-4.4-2.7.6-5.6 1-6.1-3.2-.1-.7-1.1-1.5-1.9-2-2.8-1.8-4.5-3.8-3.3-7.6.7-2-3.4-4.5-6.3-4.4-8.5 1-20.1-1.2-26.8-3.9z"/><path fill="#0f0" d="M210.2 95.5c-10.2-.2-17.9 5.6-26 10.5-5.2 3.2-7.8 7.5-6.6 13.7.4 2-.5 2.6-2.3 1.8-4.7-2-7.9-9.4-6.1-14.2.3-.6.7-1.6 1.1-1.6 3.6-.4 5.8-3.3 8.3-5.3 4-3.1 8.6-5.1 12.5-8.3 4.1-3.3 10-4.4 15.4-3.4 3.2.6 6.2.9 9.3.2 1.8-.4 3.9-.7 4.6 1.5.7 2.2-1.1 3.5-2.9 4.4-2.2 1.2-4.8.6-7.3.7zM278.5 87.2c-4.2 1.5-8.3-.1-10.1-4-.5-1.1-1-2.3-1.6-3.3-.8-1.4-3.7-2-2.1-4.6 2.1-3.4 2.7-7.8 6.8-9.7.8-.4 1.7-.5 2.1.4.7 1.8 2.8 3.3 1.8 5.5-1.1 2.5-1.7 4.2 1.8 5.3 2 .7 1.7 3 1.3 4.7-.4 2-.5 3.9 0 5.7zM351.8 97.8c1.8-1.7 4.1-2.5 6.8-2 1.8.3 4.3-.5 4.7 2.1.4 2.5-.2 5.2-2.9 6.7-.7.4-1.7.5-2.2 1-3.5 3.8-6.8 4.2-9.9-.4-.6-.8-1.1-.4-1.7.1-.8.5-1.3.2-1.6-.6-.1-.5-.2-1.5-.1-1.5 3-.4 2.6-3.4 3.8-5.1.9-1.3 1.7-1.1 3.1-.3z"/><path fill="#0f0" d="M278.5 87.2c.4-1 .8-2 1.2-3.1.4-.8 1.1-1.5 2-1.3 3 .8 3.8 3.8 4.9 6.1.8 1.6-.1 3.3-2 3.8-2.6.7-5.9 3.3-7.5 1.8-2.2-1.8 1.1-4.7 1.4-7.3zM31.2 126c.1 1.8-.7 2.9-2.5 3.1-1.4.1-6.4-6.8-6.2-8.5.3-1.8 1.8-2 3.1-2 3.1 0 5.7 3.6 5.6 7.4z"/><path fill="#0066ca" d="M72.1 376.7l9.3-48.8h7.7l-9.3 48.8z"/><path fill="#0066ca" d="M88.6 328.3l-9.1 47.9h-6.8l9.1-47.8 6.8-.1m1-.9H81l-9.4 49.7h8.6l9.4-49.7zM113.1 376.7l3.7-19.7c.2-1.3.4-2.9.4-4.3 0-4.7-2.7-5.6-4.9-5.6-4 0-9.3 4.8-10.9 13.5l-3.1 16.2h-7.6l4.6-24.2c.8-4 1.3-7.6 1.8-10.5v-.3h6.6l-.7 6.5h.9l.1-.2c3.1-4.7 7.5-7.1 12.5-7.1 5.4 0 8.7 3.5 8.7 9.4 0 1.5-.3 4-.6 5.8l-3.9 20.5h-7.6z"/><path fill="#0066ca" d="M116.6 341.3c5.1 0 8.3 3.3 8.3 9 0 1.5-.3 4-.6 5.8l-3.9 20.2h-6.7l3.6-19.2c.2-1.3.4-2.9.4-4.4 0-3.9-1.9-6-5.4-6-4.2 0-9.7 4.9-11.3 13.8l-2.9 15.8h-6.7l4.4-23.6c.8-4 1.3-7.5 1.7-10.4h5.8l-.6 5.5-.1 1h1.6l.3-.4c3.1-4.7 7.2-7.1 12.1-7.1m0-.9c-5 0-9.6 2.4-12.8 7.3h-.2l.7-6.5h-7.5c-.4 3.1-1 6.8-1.8 11.1l-4.7 24.8h8.5l3.1-16.5c1.5-8.4 6.6-13.1 10.4-13.1 3.4 0 4.5 2.2 4.5 5.1 0 1.4-.2 3-.4 4.3l-3.8 20.2h8.5l4-20.8c.4-1.8.6-4.3.6-5.9.1-6.9-4-10-9.1-10zM139.4 377.4c-4.1 0-7.6-1.2-9.4-2.3l1.9-5.4c2.1 1.1 5.4 2.2 8.4 2.2 3.5-.1 5.9-2.1 5.9-4.9 0-2.4-1.3-4-4.9-5.9-3.1-1.6-6.8-4.5-6.8-9 0-6.6 5.8-11.3 14-11.3 3.6 0 6.4.8 7.9 1.6l-1.9 5.3c-1.1-.5-3.4-1.4-6.5-1.4-3.5 0-5.9 1.9-5.9 4.7 0 2.5 2.3 4 4.9 5.3 4.9 2.7 7.2 5.7 7.2 9.3 0 7.1-5.8 11.8-14.8 11.8z"/><path fill="#0066ca" d="M148.5 341.3c3.2 0 5.8.7 7.4 1.3l-1.6 4.5c-1.3-.5-3.4-1.3-6.2-1.3-3.7 0-6.4 2.2-6.4 5.1 0 2.7 2.4 4.4 5.1 5.8 4.8 2.6 7 5.4 7 8.9 0 6.9-5.7 11.3-14.4 11.3-3.8 0-7.1-1-8.9-2.1l1.6-4.6c2.2 1.1 5.2 2.1 8.2 2.1 3.8-.1 6.4-2.2 6.4-5.3s-1.9-4.6-5.2-6.3c-3-1.5-6.6-4.3-6.6-8.5 0-6.5 5.6-10.9 13.6-10.9m0-.9c-8.4 0-14.5 4.9-14.5 11.8 0 4.1 3 7.2 7.1 9.3 3.5 1.8 4.7 3.2 4.7 5.5s-2.1 4.3-5.5 4.4c-3.2 0-6.7-1.4-8.6-2.4l-2.2 6.2c1.9 1.4 5.8 2.6 10 2.6 8.6 0 15.3-4.3 15.3-12.2 0-4.6-3.5-7.5-7.5-9.6-3.1-1.5-4.7-3-4.7-4.9 0-2.4 2.2-4.2 5.5-4.2 3 0 5.4.9 6.7 1.6l2.2-6.2c-1.7-1-4.7-1.9-8.5-1.9zM171.5 377.5c-5 0-8.1-2.6-8.1-6.9 0-2.1.3-4 .8-6.6l3.2-16.5h-4.9l1.1-5.8h4.9l1.5-7.8 7.8-1.9-1.8 9.7h8.1l-1.2 5.8h-8l-3 14.8c-.3 1.7-.6 3.6-.6 5.2 0 2.3 1.3 3.6 3.6 3.6.8 0 1.6 0 2.4-.1l-.7 5.8c-1.2.4-3.2.7-5.1.7z"/><path fill="#0066ca" d="M177.1 332.5l-1.6 8.5-.2 1.1h8.1l-1 4.9h-8l-.2.7-2.9 14.6c-.3 1.7-.6 3.6-.6 5.2 0 2.6 1.4 4 4 4h1.9l-.6 5c-1.2.4-3.1.5-4.8.5-4.9 0-7.6-2.3-7.6-6.5 0-2.1.3-4 .8-6.6l3.1-16 .2-1.1H163l.9-4.9h4.8l.2-.7 1.3-7.2 6.9-1.5m1.2-1.1l-8.8 2.2-1.4 7.7h-4.9l-1.3 6.6h4.9l-3.1 16c-.6 2.6-.8 4.7-.8 6.7 0 4.1 2.6 7.4 8.5 7.4 2.1 0 4.3-.3 5.6-.7l.8-6.7c-.9.2-1.9.2-3 .2-2.2 0-3.1-1.3-3.1-3.1 0-1.5.3-3.4.6-5.1l2.9-14.5h8l1.3-6.6h-8.1l1.9-10.1zM185.1 376.7l6.6-35h7.7l-6.6 35h-7.7zm12-41.1c-1.2 0-2.2-.4-2.9-1.2-.7-.7-1.1-1.8-1.1-3 0-2.7 2.1-4.8 4.7-4.8 2.4 0 4.1 1.7 4.1 4.2 0 2.9-2 4.8-4.8 4.8z"/><path fill="#0066ca" d="M197.8 327.1c2.2 0 3.7 1.5 3.7 3.7-.1 2.5-1.9 4.3-4.4 4.3-1.1 0-2-.4-2.6-1-.6-.6-1-1.6-.9-2.7 0-2.4 1.8-4.3 4.2-4.3m1 15l-6.5 34.1h-6.7l6.5-34.1h6.7m-1-15.9c-2.8 0-5.1 2.2-5.1 5.2-.1 2.6 1.8 4.6 4.4 4.6 2.9 0 5.2-2 5.3-5.1 0-2.8-1.9-4.7-4.6-4.7zm2.1 15.1h-8.6l-6.7 35.9h8.5l6.8-35.9zM214.3 377.5c-5 0-8.1-2.6-8.1-6.9 0-2.1.3-4 .8-6.6l3.2-16.5h-4.9l1.1-5.8h4.9l1.5-7.8 7.8-1.9-1.8 9.7h8.1l-1.2 5.8h-8l-3 14.8c-.3 1.7-.6 3.6-.6 5.2 0 2.3 1.3 3.6 3.6 3.6.8 0 1.6 0 2.4-.1l-.7 5.8c-1.1.4-3.3.7-5.1.7z"/><path fill="#0066ca" d="M220 332.5l-1.6 8.5-.2 1.1h8.1l-1 4.9h-8l-.2.7-2.9 14.6c-.3 1.7-.6 3.6-.6 5.2 0 2.6 1.4 4 4 4h1.9l-.6 5c-1.2.4-3.1.5-4.8.5-4.9 0-7.6-2.3-7.6-6.5 0-2.1.3-4 .8-6.6l3.1-16 .2-1.1h-4.9l.9-4.9h4.8l.2-.7 1.3-7.2 7.1-1.5m1.2-1.1l-8.8 2.2-1.4 7.7h-4.9l-1.3 6.6h4.9l-3.1 16c-.6 2.6-.8 4.7-.8 6.7 0 4.1 2.6 7.4 8.5 7.4 2.1 0 4.3-.3 5.6-.7l.8-6.7c-.9.2-1.9.2-3 .2-2.2 0-3.1-1.3-3.1-3.1 0-1.5.3-3.4.6-5.1l2.9-14.5h8l1.3-6.6h-8.1l1.9-10.1zM238.5 377.5c-5.8 0-8.9-3.4-8.9-9.7 0-2 .3-4 .7-6.3l3.8-19.8h7.6l-3.6 19c-.4 1.9-.6 3.6-.6 5 0 3.6 1.7 5.6 5 5.6 4 0 8.9-4.4 10.4-12.5l3.2-17.1h7.6l-4.6 24.2c-.7 4-1.3 7.3-1.6 10.3l-.1.4h-6.6l.7-6.3h-.9l-.1.2c-3.2 4.4-7.5 7-12 7z"/><path fill="#0066ca" d="M263.3 342.1l-4.5 23.6c-.7 4-1.3 7.5-1.6 10.3h-5.8l.6-5.2.1-1h-1.5l-.3.4c-3.2 4.3-7.4 6.7-11.7 6.7-3.9 0-8.4-1.6-8.4-9.3 0-1.9.3-4 .7-6.2l3.7-19.4h6.7l-3.5 18.5c-.4 1.9-.6 3.7-.6 5.1 0 3.9 2 6 5.5 6 4.9 0 9.5-5.6 10.9-12.8l3.1-16.7h6.6m1.1-.8h-8.5l-3.3 17.4c-1.4 7.5-6 12.1-10 12.1-3.4 0-4.6-2.2-4.6-5.1 0-1.4.2-3.1.6-4.9l3.7-19.6h-8.5l-3.9 20.1c-.5 2.4-.7 4.5-.7 6.4 0 7.4 4.1 10.2 9.3 10.2 4.5 0 9-2.4 12.4-7.1h.2l-.7 6.3h7.5c.4-3.1 1-6.8 1.8-11.1l4.7-24.7zM279 377.5c-5 0-8.1-2.6-8.1-6.9 0-2.1.3-4 .8-6.6l3.2-16.5H270l1.1-5.8h4.9l1.5-7.8 7.8-1.9-1.8 9.7h8.1l-1.2 5.8h-8l-3 14.8c-.3 1.7-.6 3.6-.6 5.2 0 2.3 1.3 3.6 3.6 3.6.8 0 1.6 0 2.4-.1l-.7 5.8c-1.2.4-3.3.7-5.1.7z"/><path fill="#0066ca" d="M284.6 332.5L283 341l-.2 1.1h8.1l-1 4.9H282l-.2.7-2.9 14.6c-.3 1.7-.6 3.6-.6 5.2 0 2.6 1.4 4 4 4h1.9l-.6 5c-1.2.4-3.1.5-4.8.5-4.9 0-7.6-2.3-7.6-6.5 0-2.1.3-4 .8-6.6l3.1-16 .2-1.1h-4.9l.9-4.9h4.8l.2-.7 1.3-7.2 7-1.5m1.2-1.1l-8.8 2.2-1.4 7.7h-4.9l-1.3 6.6h4.9l-3.1 16c-.6 2.6-.8 4.7-.8 6.7 0 4.1 2.6 7.4 8.5 7.4 2.1 0 4.3-.3 5.6-.7l.8-6.7c-.9.2-1.9.2-3 .2-2.2 0-3.1-1.3-3.1-3.1 0-1.5.3-3.4.6-5.1l2.9-14.5h8l1.3-6.6h-8l1.8-10.1zM307.1 377.4c-9.1 0-14.3-5.2-14.3-14.4 0-10.7 8-22.2 19.9-22.2 6.7 0 11.1 3.8 11.1 9.6 0 7.7-6.9 11.4-21.2 11.4h-2.2l-.1.4c-.2 1.3.1 3.8 1 5.4 1.4 2.5 4.1 3.9 7.7 3.9 3.3 0 6.6-.7 9.5-2.2l.7 5.3c-3.2 1.8-7.8 2.8-12.1 2.8zm4.5-31c-5.6 0-9.3 4.9-10.3 9.4l-.1.5h1.8c4.4 0 7.5-.4 9.8-1.2 2.5-.9 3.9-2.5 3.9-4.7-.1-2.4-2.1-4-5.1-4z"/><path fill="#0066ca" d="M312.6 341.3c6.5 0 10.7 3.6 10.7 9.2 0 7.4-6.8 11-20.8 11H300l-.1.8c-.2 1.5.2 4.1 1.1 5.7 1.5 2.7 4.4 4.1 8.2 4.1 3.2 0 6.3-.6 9.2-1.9l.5 4.4c-3.2 1.5-7.5 2.4-11.7 2.4-8.8 0-13.8-5-13.8-13.9-.2-10.6 7.7-21.8 19.2-21.8m-9.7 15.5c6 0 14.1-.6 14.1-6.3 0-2.8-2.2-4.7-5.5-4.7-5.8 0-9.7 5.1-10.8 9.8l-.3 1.1h1.1c.5.1 1 .1 1.4.1m9.7-16.4c-12.4 0-20.3 11.8-20.3 22.6 0 8.8 4.8 14.8 14.7 14.8 4.3 0 9.2-1 12.7-2.8l-.8-6.3c-2.6 1.3-5.8 2.3-9.9 2.3-3.4 0-5.9-1.3-7.4-3.7-.8-1.4-1.1-3.9-1-5.1h1.8c12.8 0 21.7-3.1 21.7-11.9.1-5.8-4.4-9.9-11.5-9.9zm-9.7 15.5h-1.3c1-4.3 4.6-9.2 10-9.2 2.7 0 4.6 1.4 4.6 3.8-.1 4.1-5.2 5.4-13.3 5.4zM341.9 376.7l5.5-29.2h-4.7l1.1-5.8h4.7l.4-2.2c.9-5.2 3-9.3 5.8-11.9 2.4-2.1 5.7-3.2 9.2-3.2 2 0 3.7.3 4.8.7l-1.4 5.9c-.9-.3-2-.4-3.1-.4-3.9 0-6.6 3.2-7.5 8.8l-.4 2.2h7.5l-1.1 5.8h-7.5l-5.5 29.2-7.8.1z"/><path fill="#0066ca" d="M363.9 324.9c1.9 0 3.3.3 4.2.5l-1.3 5.1c-.8-.2-1.8-.4-2.8-.4-4 0-7 3.3-8 9.2l-.3 1.7-.2 1.1h7.5l-.9 4.9h-7.3l-.2.7-5.4 28.5h-6.7l5.3-28.1.2-1.1h-4.7l.9-4.9h4.6l.2-.7.4-1.9c.6-3.6 2.2-8.4 5.7-11.6 2.3-1.9 5.4-3 8.8-3m0-.9c-3.3 0-6.7 1-9.4 3.3-3.4 3-5.1 7.5-5.9 12l-.4 1.8h-4.7l-1.3 6.6h4.7l-5.5 29.2h8.5l5.5-29.2h7.5l1.3-6.6h-7.5l.3-1.7c.8-4.7 3.1-8.4 7.1-8.4 1.4 0 2.6.2 3.5.6l1.6-6.7c-.9-.5-2.8-.9-5.3-.9zM378.5 377.5c-8.5 0-14.2-5.8-14.2-14.4 0-12.5 8.9-22.2 20.2-22.2 9.9 0 14.3 7.3 14.3 14.5 0 12.3-8.9 22.1-20.3 22.1zm5-30.9c-7.3 0-11.2 9.6-11.2 16.3 0 5.3 3 8.8 7.5 8.8 6.6 0 11.1-8.6 11.1-16.4-.1-4.1-2-8.7-7.4-8.7z"/><path fill="#0066ca" d="M384.6 341.3c9.5 0 13.8 7 13.8 14 0 12.1-8.7 21.7-19.9 21.7-8.3 0-13.7-5.6-13.7-13.9 0-5.8 2-11.2 5.6-15.3 3.6-4.2 8.6-6.5 14.2-6.5m-4.9 30.9c6.8 0 11.6-8.9 11.6-16.9 0-4.2-2.1-9.2-7.7-9.2-7.5 0-11.7 9.9-11.7 16.7 0 5.6 3.1 9.4 7.8 9.4m4.9-31.8c-12.2 0-20.7 10.5-20.7 22.6 0 8.5 5.6 14.8 14.6 14.8 12.2 0 20.8-10.4 20.8-22.6 0-7.8-5.1-14.8-14.7-14.8zm-4.9 30.9c-4.3 0-7-3.5-7-8.4 0-6.7 4-15.8 10.8-15.8 5.2 0 6.8 4.6 6.8 8.3.1 7-4.2 15.9-10.6 15.9zM403.5 376.7l4.1-21.6c.6-3.5 1.1-7.3 1.4-10.2.1-1.2.3-2.2.4-3.1h6.6c-.2 2.2-.4 4.6-.7 7.1l-.1.5h1l.1-.3c2.6-5.2 6.6-8.2 10.9-8.2.4 0 .9 0 1.3.1l-1.5 7.5c-.4-.1-.9-.1-1.3-.1-5.8 0-10.2 5.3-11.9 14.2l-2.7 14-7.6.1z"/><path fill="#0066ca" d="M427.1 341.3h.8l-1.3 6.6c-.3 0-.6-.1-.9-.1-6 0-10.6 5.5-12.3 14.6l-2.6 13.7H404l4-21c.6-3.5 1.1-7.3 1.4-10.2.1-1 .2-2 .4-2.8h5.7c-.2 2.1-.4 4.3-.7 6.6l-.2 1h1.7l.3-.5c1.5-2.9 4.9-7.9 10.5-7.9m0-.9c-4.9 0-8.8 3.5-11.2 8.4h-.2c.4-2.6.6-5.1.8-7.5H409c-.4 3.2-.9 8.7-1.8 13.7l-4.2 22h8.5l2.7-14.5c1.4-7.6 5.3-13.8 11.4-13.8.6 0 1.2.1 1.6.2l1.7-8.4c-.5-.1-1.2-.1-1.8-.1z"/><g><path fill="#0066ca" d="M20.7 457.5c-4.1 0-8-.3-10.3-.6l8.5-44.9c3.2-.7 6.9-1 10.8-1 4.9 0 8.3.8 11 2.8 2.8 1.7 4.3 4.4 4.3 7.6 0 6.2-5.1 9.7-9.4 10.9l-.3.1v.8l.3.1c4.5 1.4 7.2 5.1 7.2 9.8 0 4.2-2.1 8-5.8 10.6-3.6 2.6-8.8 3.8-16.3 3.8zm-2.4-5.8l.4.1c1.4.2 2.8.2 4.3.2 7.5 0 12-3.4 12-9.1 0-4.7-3.5-7.3-9.6-7.3h-4.1l-3 16.1zm11.5-35.2c-1.9 0-3.5.2-4.4.3l-.3.1-2.5 13.5h4.2c6.4 0 10.8-3.2 10.8-8-.1-3.8-2.8-5.9-7.8-5.9z"/><path fill="#0066ca" d="M29.8 411.4c4.8 0 8.1.8 10.8 2.7 2.6 1.6 4.1 4.2 4.1 7.3 0 5.9-4.9 9.4-9.1 10.5l-.6.1v1.5l.6.2c4.3 1.3 6.9 4.8 6.9 9.5 0 4.1-2 7.7-5.7 10.2-3.5 2.5-8.6 3.6-16 3.6-3.9 0-7.5-.2-9.8-.5l8.3-44.2c3-.6 6.6-.9 10.5-.9M22 430.8h4.7c6.7 0 11.3-3.4 11.3-8.5 0-4-3-6.3-8.3-6.3-1.9 0-3.6.2-4.5.3l-.5.2-.1.5-2.5 12.8-.1 1m1.1 21.6c7.7 0 12.4-3.6 12.4-9.5 0-4.8-3.7-7.7-10-7.7H21l-.2.7-2.9 15.3-.2.9.9.1c1.5.2 2.9.2 4.5.2m6.7-41.9c-4.2 0-8.1.4-11.3 1.1l-8.6 45.5c2.2.4 6.1.7 10.8.7 7.1 0 12.6-1 16.5-3.8 3.4-2.4 6-6 6-10.9 0-5.3-3.1-9-7.5-10.2v-.2c5.2-1.4 9.7-5.4 9.7-11.3 0-3.6-1.8-6.3-4.5-8-2.8-2-6.3-2.9-11.1-2.9zM23 430l2.5-12.8c.8-.2 2.5-.3 4.3-.3 4.4 0 7.5 1.7 7.5 5.5 0 4.8-4.4 7.6-10.4 7.6H23zm.1 21.5c-1.5 0-3-.1-4.3-.2l2.9-15.3h3.8c4.9 0 9.1 1.9 9.1 6.9.1 6.2-5.4 8.6-11.5 8.6z"/></g><g><path fill="#0066ca" d="M48.4 457.3l6.2-32.9h7.3l-6.3 32.9h-7.2zm11.3-38.7c-1.1 0-2-.4-2.7-1.1-.7-.7-1-1.7-1-2.8 0-2.5 1.9-4.5 4.4-4.5 2.3 0 3.9 1.6 3.9 4-.1 2.6-2 4.4-4.6 4.4z"/><path fill="#0066ca" d="M60.4 410.6c2 0 3.5 1.4 3.5 3.5-.1 2.4-1.8 4.1-4.1 4.1-1 0-1.9-.3-2.5-.9-.6-.6-.9-1.5-.8-2.5-.1-2.4 1.6-4.2 3.9-4.2m.9 14.2l-6.1 32.1h-6.3l6.1-32.1h6.3m-.9-15c-2.6 0-4.8 2-4.8 4.9-.1 2.5 1.7 4.3 4.1 4.3 2.7 0 4.9-1.9 5-4.8 0-2.7-1.8-4.4-4.3-4.4zm1.9 14.1h-8.1l-6.3 33.8h8l6.4-33.8z"/></g><g><path fill="#0066ca" d="M77.8 458c-4 0-6.9-.9-8.7-2.8-1.4-1.4-2.1-3.4-2.1-5.9 0-1.7.2-3.5.6-5.8l7-34.7h7.3l-4.2 20.5h.8l.1-.2c2.6-3.6 6.5-5.6 10.8-5.6 7.2 0 9.7 5.9 9.7 11.5.1 11.3-8 23-21.3 23zm8-28.8c-4.6 0-8.9 4.8-10.2 11.4l-.7 3.1c-.2 1.1-.4 2.5-.3 4.1 0 3 1.8 4.7 4.9 4.7 7.5 0 12.1-9.6 12.1-16.1 0-4.4-2.2-7.2-5.8-7.2z"/><path fill="#0066ca" d="M81.3 409.3l-4 19.5-.2 1h1.6l.3-.3c2.5-3.5 6.3-5.4 10.4-5.4 6.9 0 9.3 5.8 9.3 11.1 0 5.5-1.9 11-5.3 15.2-2.7 3.4-7.6 7.4-15.7 7.4-3.8 0-6.7-.9-8.4-2.6-1.4-1.4-2-3.2-1.9-5.6 0-1.6.2-3.4.6-5.7l6.9-34.5h6.4m-1.9 43.7c7.8 0 12.5-9.7 12.5-16.5 0-4.7-2.4-7.7-6.2-7.7-4.8 0-9.3 4.9-10.7 11.8l-.7 3.1c-.2 1.1-.4 2.5-.3 4.1 0 3.3 2.1 5.2 5.4 5.2m3-44.7h-8.1l-7.1 35.1c-.3 1.9-.6 3.9-.6 5.8-.1 6.1 4.1 9.1 11.3 9.1 14.4 0 21.8-12.7 21.8-23.4 0-6-3-11.9-10.2-11.9-4.4 0-8.4 2.1-11.1 5.8h-.2l4.2-20.5zm-3 43.9c-2.9 0-4.5-1.5-4.5-4.3-.1-1.6.2-2.9.3-4.1l.7-3.1c1.4-6.8 5.7-11.1 9.8-11.1 3.7 0 5.3 3.1 5.3 6.9.1 6.5-4.5 15.7-11.6 15.7z"/></g><g><path fill="#0066ca" d="M103.4 457.3l9.3-48.5h7.1l-9.1 48.5z"/><path fill="#0066ca" d="M119.3 409.3l-9 47.6H104l9.1-47.6h6.2m1.1-.9h-8l-9.5 49.3h8.1l9.4-49.3z"/></g><g><path fill="#0066ca" d="M134.7 457.9c-8.6 0-13.5-4.9-13.5-13.5 0-10.1 7.5-20.9 18.7-20.9 6.3 0 10.5 3.6 10.5 9.1 0 7.3-6.5 10.8-20 10.8h-2.1l-.1.4c-.2 1.2.1 3.6.9 5.1 1.4 2.4 3.9 3.6 7.3 3.6 3.1 0 6.2-.7 9-2l.7 5c-3 1.5-7.2 2.4-11.4 2.4zm4.3-29.2c-5.2 0-8.7 4.7-9.7 8.9l-.1.5h1.8c4.1 0 7.1-.3 9.2-1.1 2.4-.8 3.6-2.4 3.6-4.4-.1-2.3-1.9-3.9-4.8-3.9z"/><path fill="#0066ca" d="M140 423.9c6.1 0 10.1 3.4 10.1 8.6 0 6.9-6.4 10.3-19.6 10.3H128l-.1.8c-.2 1.4.2 3.9 1 5.3 1.4 2.5 4.1 3.9 7.7 3.9 3 0 5.9-.6 8.6-1.8l.5 4.1c-3 1.4-7.1 2.3-11 2.3-8.3 0-13-4.7-13-13.1 0-9.8 7.4-20.4 18.3-20.4m-9.2 14.7c5.7 0 13.3-.6 13.3-5.9 0-2.6-2-4.4-5.2-4.4-5.5 0-9.1 4.8-10.2 9.2l-.3 1h1c.6.1 1 .1 1.4.1m9.2-15.5c-11.7 0-19.1 11.1-19.1 21.3 0 8.3 4.5 14 13.9 14 4.1 0 8.6-.9 11.9-2.6l-.8-5.9c-2.5 1.3-5.5 2.2-9.3 2.2-3.2 0-5.6-1.2-6.9-3.5-.8-1.4-1-3.6-.9-4.8h1.7c12.1 0 20.4-2.9 20.4-11.2 0-5.6-4.2-9.5-10.9-9.5zm-9.2 14.6h-1.3c.9-4.1 4.3-8.6 9.4-8.6 2.5 0 4.3 1.4 4.3 3.6.1 3.8-4.7 5-12.4 5z"/></g><g><path fill="#0066ca" d="M175.2 457.3l7.5-39.7h-12.9l1.3-6.3h33.1l-1.2 6.3h-13.1l-7.4 39.7z"/><path fill="#0066ca" d="M203.7 411.7l-1 5.4H189.5l-.2.7-7.4 39h-6.3l7.4-38.7.2-1h-12.9l1-5.4h32.4m1.1-.8h-34l-1.4 7.1h13l-7.5 39.7h8.1l7.5-39.7h13l1.3-7.1z"/></g><g><path fill="#0066ca" d="M197.9 457.3l3.9-20.3c.6-3.3 1-6.9 1.4-9.7.1-1.1.3-2.1.3-3h6.2c-.2 2.1-.4 4.3-.7 6.7l-.1.5h.9l.1-.3c2.5-4.9 6.2-7.7 10.2-7.7.4 0 .8 0 1.3.1l-1.4 7c-.4-.1-.8-.1-1.2-.1-5.5 0-9.7 5-11.2 13.4l-2.5 13.2-7.2.2z"/><path fill="#0066ca" d="M220.2 423.9h.8l-1.3 6.3c-.3 0-.6-.1-.8-.1-5.7 0-10 5.2-11.6 13.7l-2.5 12.9h-6.3l3.7-19.8c.6-3.3 1-6.9 1.4-9.7.1-.9.2-1.9.3-2.6h5.3c-.2 1.9-.3 4.1-.7 6.2l-.2.9h1.6l.3-.5c1.5-2.6 4.6-7.3 10-7.3m0-.8c-4.7 0-8.3 3.3-10.6 7.9h-.2c.3-2.5.6-4.8.8-7.1h-7c-.4 3-.8 8.2-1.7 13l-4 20.8h8l2.5-13.6c1.4-7.2 5-13 10.8-13 .6 0 1.1.1 1.5.2l1.6-7.9c-.5-.3-1.2-.3-1.7-.3z"/></g><g><path fill="#0066ca" d="M231.2 458c-5.8 0-9.6-4.5-9.6-11.1 0-11.6 8-23.4 23.4-23.4 3.1 0 6.9.5 9.7 1.4l-3.4 17.3c-.9 4.8-1.5 10.9-1.4 15.1h-6.6c.1-1.7.3-3.8.5-6.1l.2-1.6h-1l-.1.3c-2.9 5.3-6.9 8.1-11.7 8.1zm11.7-29.1c-7.8 0-13.7 8.7-13.7 16.5 0 4.4 1.9 6.9 5.2 6.9 3.9 0 8.6-4.7 10.3-13.6l1.9-9.2-.4-.1c-.9-.3-2.1-.5-3.3-.5z"/><path fill="#0066ca" d="M245 423.9c3 0 6.5.5 9.2 1.3l-3.3 16.8c-.9 4.7-1.4 10.6-1.4 14.7h-5.8c.1-1.6.3-3.6.5-5.7l.1-1.1.1-.9h-1.6l-.3.4c-2.8 5.2-6.6 8-11.3 8-5.5 0-9.1-4.3-9.1-10.7-.1-11.2 7.8-22.8 22.9-22.8m-10.6 28.9c4.1 0 9.1-4.8 10.8-14l1.8-8.9.2-.8-.8-.3c-1-.3-2.1-.3-3.6-.3-8 0-14.1 9-14.1 16.9 0 4.7 2.1 7.4 5.7 7.4m10.6-29.7c-15.7 0-23.8 12.3-23.8 23.8 0 6.8 4 11.5 10 11.5 4.3 0 8.7-2.1 12.1-8.4h.2c-.3 2.9-.6 5.6-.6 7.6h7.5c-.2-4.1.4-10.3 1.4-15.4l3.5-17.6c-2.7-.8-6.7-1.5-10.3-1.5zm-10.6 28.8c-3.6 0-4.8-2.9-4.8-6.4 0-7.7 5.8-16.1 13.3-16.1 1.4 0 2.5.2 3.3.3l-1.8 8.9c-1.6 8.6-6.2 13.3-10 13.3z"/></g><g><path fill="#0066ca" d="M279.8 457.3l3.5-18.5c.2-1.2.4-2.7.4-4.1 0-4.4-2.5-5.2-4.7-5.2-3.8 0-8.7 4.5-10.2 12.7l-2.9 15.2h-7.2l4.3-22.8c.8-3.7 1.3-7.2 1.7-9.9v-.3h6.3l-.7 6.1h.8l.1-.2c3-4.4 7-6.7 11.8-6.7 5.1 0 8.2 3.3 8.2 8.9 0 1.4-.3 3.7-.6 5.5l-3.6 19.3h-7.2z"/><path fill="#0066ca" d="M283.2 423.9c4.8 0 7.8 3.1 7.8 8.5 0 1.4-.3 3.7-.6 5.4l-3.6 19h-6.3l3.4-18.1c.2-1.2.4-2.7.4-4.1 0-3.6-1.8-5.7-5.1-5.7-4 0-9.1 4.6-10.7 13l-2.8 14.9h-6.3l4.1-22.3c.8-3.7 1.3-7.1 1.6-9.8h5.5l-.6 5.2-.1.9h1.5l.3-.3c2.9-4.3 6.8-6.6 11.5-6.6m0-.8c-4.7 0-9.1 2.3-12.1 6.9h-.2l.7-6.1h-7.1c-.4 2.9-.9 6.4-1.7 10.5l-4.4 23.3h8l2.9-15.6c1.4-7.9 6.2-12.4 9.8-12.4 3.2 0 4.2 2.1 4.2 4.8 0 1.4-.2 2.8-.4 4.1l-3.6 19h8L291 438c.3-1.7.6-4.1.6-5.6.1-6.4-3.7-9.3-8.4-9.3z"/></g><g><path fill="#0066ca" d="M304.6 457.9c-3.9 0-7.2-1.1-8.9-2.2l1.8-5.1c1.9 1 5.1 2.1 7.9 2.1 3.3-.1 5.6-1.9 5.6-4.6 0-2.3-1.2-3.8-4.7-5.6-3-1.5-6.4-4.2-6.4-8.5 0-6.3 5.4-10.7 13.2-10.7 3.4 0 6 .8 7.5 1.5l-1.8 5c-1-.5-3.2-1.4-6.1-1.4-3.3 0-5.6 1.8-5.6 4.4 0 2.4 2.2 3.8 4.6 5 4.7 2.5 6.8 5.3 6.8 8.7 0 7-5.5 11.4-13.9 11.4z"/><path fill="#0066ca" d="M313.1 423.9c3 0 5.5.7 6.9 1.3l-1.5 4.2c-1.2-.5-3.2-1.2-5.8-1.2-3.5 0-6 2-6 4.8 0 2.5 2.3 4.1 4.8 5.4 4.5 2.5 6.6 5.1 6.6 8.4 0 6.5-5.3 10.7-13.5 10.7-3.6 0-6.7-.9-8.4-1.9l1.5-4.3c2 1 4.9 1.9 7.6 1.9 3.6-.1 6-2.1 6-5s-1.8-4.3-4.9-5.9c-2.8-1.4-6.2-4.1-6.2-8 .1-6.2 5.4-10.4 12.9-10.4m0-.8c-8 0-13.6 4.6-13.6 11.1 0 3.9 2.8 6.8 6.7 8.8 3.3 1.7 4.4 3 4.4 5.2s-1.9 4.1-5.2 4.1c-3 0-6.3-1.4-8.1-2.3l-2.1 5.8c1.8 1.4 5.5 2.5 9.4 2.5 8.1 0 14.4-4.1 14.4-11.5 0-4.3-3.3-7.1-7-9.1-2.9-1.4-4.4-2.8-4.4-4.7 0-2.3 2.1-4 5.2-4 2.8 0 5.1.8 6.3 1.5l2.1-5.8c-1.6-.8-4.5-1.6-8.1-1.6z"/></g><g><path fill="#0066ca" d="M324.5 457.3l9.3-48.5h7.1l-9.1 48.5z"/><path fill="#0066ca" d="M340.4 409.3l-9 47.6h-6.3l9.1-47.6h6.2m1-.9h-8l-9.4 49.3h8.1l9.3-49.3z"/></g><g><path fill="#0066ca" d="M351.8 458c-5.8 0-9.6-4.5-9.6-11.1 0-11.6 8-23.4 23.4-23.4 3.1 0 6.9.5 9.7 1.4l-3.4 17.3c-.9 4.8-1.5 10.9-1.4 15.1h-6.6c.1-1.7.3-3.8.5-6.1l.2-1.5h-.9l-.1.3c-3 5.2-7 8-11.8 8zm11.6-29.1c-7.8 0-13.7 8.7-13.7 16.5 0 4.4 1.9 6.9 5.2 6.9 3.9 0 8.6-4.7 10.3-13.6l1.9-9.2-.4-.1c-.8-.3-1.9-.5-3.3-.5z"/><path fill="#0066ca" d="M365.6 423.9c3 0 6.5.5 9.2 1.3l-3.3 16.8c-.9 4.7-1.4 10.6-1.4 14.7h-5.8c.1-1.6.3-3.6.5-5.7l.1-1.1.1-.9h-1.6l-.3.4c-2.8 5.2-6.6 8-11.3 8-5.5 0-9.1-4.3-9.1-10.7 0-11.2 7.9-22.8 22.9-22.8M355 452.8c4.1 0 9.1-4.8 10.8-14l1.8-8.9.2-.8-.8-.1c-1-.3-2.1-.3-3.6-.3-8 0-14.1 9-14.1 16.9.1 4.5 2.1 7.2 5.7 7.2m10.6-29.7c-15.7 0-23.8 12.3-23.8 23.8 0 6.8 4 11.5 10 11.5 4.3 0 8.7-2.1 12.1-8.4h.2c-.3 2.9-.6 5.6-.6 7.6h7.5c-.2-4.1.4-10.3 1.4-15.4l3.5-17.6c-2.7-.8-6.6-1.5-10.3-1.5zM355 451.9c-3.6 0-4.8-2.9-4.8-6.4 0-7.7 5.8-16.1 13.3-16.1 1.4 0 2.5.2 3.3.3l-1.8 8.9c-1.7 8.6-6.2 13.3-10 13.3z"/></g><g><path fill="#0066ca" d="M389.5 458c-4.7 0-7.6-2.5-7.6-6.5 0-1.9.3-3.8.8-6.2l3-15.6h-4.6l1-5.4h4.6l1.4-7.4 7.4-1.8-1.7 9.1h7.6l-1.1 5.4h-7.5l-2.8 14c-.3 1.6-.6 3.4-.6 4.9 0 2.2 1.2 3.4 3.4 3.4.8 0 1.5 0 2.3-.1l-.7 5.5c-1.2.5-3.1.7-4.9.7z"/><path fill="#0066ca" d="M394.9 415.7l-1.5 8-.2 1h7.6l-.9 4.6H392.3l-.2.7-2.7 13.7c-.3 1.6-.6 3.4-.6 4.9 0 2.5 1.4 3.8 3.8 3.8h1.8l-.6 4.7c-1.1.3-2.9.5-4.5.5-4.6 0-7.2-2.2-7.2-6.1 0-1.9.3-3.8.8-6.2l2.9-15.1.2-1h-4.4l.8-4.6h4.6l.2-.7 1.3-6.8 6.4-1.4m1-1.1l-8.3 2-1.4 7.3h-4.6l-1.2 6.3h4.6l-2.9 15.1c-.6 2.5-.8 4.4-.8 6.3 0 3.9 2.5 6.9 8 6.9 1.9 0 4.1-.3 5.2-.7l.8-6.3c-.8.2-1.8.2-2.8.2-2.1 0-3-1.2-3-3 0-1.4.3-3.2.6-4.8l2.7-13.6h7.5l1.3-6.3H394l1.9-9.4z"/></g><g><path fill="#0066ca" d="M402.3 457.3l6.2-32.9h7.3l-6.3 32.9h-7.2zm11.3-38.7c-1.1 0-2-.4-2.7-1.1-.7-.7-1-1.7-1-2.8 0-2.5 1.9-4.5 4.4-4.5 2.3 0 3.9 1.6 3.9 4 0 2.6-1.9 4.4-4.6 4.4z"/><path fill="#0066ca" d="M414.4 410.6c2 0 3.5 1.4 3.5 3.5-.1 2.4-1.8 4.1-4.1 4.1-1 0-1.9-.3-2.5-.9-.6-.6-.9-1.5-.8-2.5-.2-2.4 1.6-4.2 3.9-4.2m.8 14.2l-6.1 32.1h-6.3l6.1-32.1h6.3m-.8-15c-2.6 0-4.8 2-4.8 4.9-.1 2.5 1.7 4.3 4.1 4.3 2.7 0 4.9-1.9 5-4.8-.1-2.7-1.9-4.4-4.3-4.4zm1.9 14.1h-8.1l-6.3 33.8h8l6.4-33.8z"/></g><g><path fill="#0066ca" d="M433.7 458c-8 0-13.4-5.4-13.4-13.5 0-11.8 8.4-20.9 19-20.9 9.3 0 13.5 6.9 13.5 13.6 0 11.6-8.4 20.8-19.1 20.8zm4.7-29.1c-6.9 0-10.6 9.1-10.6 15.3 0 5 2.8 8.3 7 8.3 6.2 0 10.5-8.1 10.5-15.5 0-3.7-1.8-8.1-6.9-8.1z"/><path fill="#0066ca" d="M439.4 423.9c9 0 13 6.6 13 13.2 0 11.4-8.2 20.5-18.7 20.5-7.8 0-13-5.2-13-13.1 0-5.5 1.9-10.6 5.2-14.4 3.5-4 8.3-6.2 13.5-6.2m-4.6 29.1c6.4 0 10.9-8.4 10.9-15.9 0-4-1.9-8.6-7.3-8.6-7.1 0-11 9.3-11 15.7-.1 5.3 3 8.8 7.4 8.8m4.6-29.9c-11.5 0-19.5 9.9-19.5 21.3 0 8 5.2 14 13.8 14 11.5 0 19.6-9.8 19.6-21.3-.1-7.4-4.8-14-13.9-14zm-4.6 29.1c-4.1 0-6.6-3.3-6.6-7.9 0-6.3 3.7-14.9 10.2-14.9 4.9 0 6.4 4.3 6.4 7.8.1 6.6-4 15-10 15z"/></g><g><path fill="#0066ca" d="M478.2 457.3l3.5-18.5c.2-1.2.4-2.7.4-4.1 0-4.4-2.5-5.2-4.7-5.2-3.8 0-8.7 4.5-10.2 12.7l-2.9 15.2h-7.2l4.2-22.8c.8-3.7 1.3-7.2 1.7-9.9v-.3h6.3l-.7 6.1h.8l.1-.2c3-4.4 7-6.7 11.8-6.7 5.1 0 8.2 3.3 8.2 8.9 0 1.4-.3 3.7-.6 5.5l-3.6 19.3h-7.1z"/><path fill="#0066ca" d="M481.5 423.9c4.8 0 7.8 3.1 7.8 8.5 0 1.4-.3 3.7-.6 5.4l-3.6 19h-6.3l3.4-18.1c.2-1.2.4-2.7.4-4.1 0-3.6-1.8-5.7-5.1-5.7-4 0-9.1 4.6-10.7 13l-2.8 14.9h-6.3l4.1-22.3c.8-3.7 1.3-7.1 1.6-9.8h5.5l-.6 5.2-.1.9h1.5l.3-.3c3.1-4.3 7-6.6 11.5-6.6m0-.8c-4.7 0-9.1 2.3-12.1 6.9h-.2l.7-6.1h-7.1c-.4 2.9-.9 6.4-1.7 10.5l-4.4 23.3h8l2.9-15.6c1.4-7.9 6.2-12.4 9.8-12.4 3.2 0 4.2 2.1 4.2 4.8 0 1.4-.2 2.8-.4 4.1l-3.6 19h8l3.7-19.6c.3-1.7.6-4.1.6-5.6.3-6.4-3.5-9.3-8.4-9.3z"/></g></svg>
