<svg id="Layer_1" xmlns="http://www.w3.org/2000/svg" viewBox="0 0 500 500"><path fill="#2c2872" d="M90.33 86.86S95.75 74.45 108.16 74s42.65-1.58 42.65-1.58S173.83 16 188.27 16c14.67 0 7.9 56.87 7.9 56.87h29.56s14.22 3.61 13.99 12.19l-149.39 1.8zM310.14 86.86s5.42-12.41 17.83-12.86c12.41-.23 42.65-1.58 42.65-1.58S393.64 16 408.08 16c14.67 0 7.9 56.87 7.9 56.87h29.56s14.22 3.61 13.99 12.19l-149.39 1.8zM400.41 409.14s-5.42 12.41-17.83 12.86c-12.41.23-42.65 1.58-42.65 1.58S316.91 480 302.47 480c-14.67 0-7.9-56.87-7.9-56.87H265s-14.22-3.61-13.99-12.19l149.4-1.8zM194.82 409.14s-5.42 12.41-17.83 12.86c-12.41.23-42.65 1.58-42.65 1.58S111.54 480 96.87 480s-7.9-56.87-7.9-56.87H59.18s-14.22-3.61-13.99-12.19l149.63-1.8zM385.97 360.61c-10.61-26.63-24.82-67.03-36.11-103.81-2.93.68-6.32.68-9.25.68h-13.77l-5.19 41.07c-3.16 24.6-6.54 50.78-7.22 62.06h-21.67c1.81-11.06 5.87-37.46 9.03-62.06l15.35-120.29c3.16-24.6 6.54-53.71 7.67-64.54h35.43c33.18 0 50.33 28.44 50.33 62.96 0 46.04-25.28 67.7-43.78 75.6 8.12 18.96 17.83 46.94 27.53 71.09L436.3 95.88H124.18L65.5 389.95h316.4l5.42-29.56h-1.35v.22zM164.35 178.26l-15.12 117.81c-3.16 24.6-6.54 53.26-7.45 64.54h-21.89c1.81-11.06 6.32-39.95 9.48-64.54l15.12-117.81c3.16-24.6 6.32-53.71 7.45-64.54h21.89c-2.03 11.06-6.32 40.17-9.48 64.54zm116.45-23.92c-3.39-14.44-13.77-24.15-29.34-24.15-17.6 0-32.95 13.32-32.95 42.88 0 44.23 53.26 59.81 53.26 119.16 0 44.23-25.28 73.8-57.55 73.8-19.63 0-29.34-10.16-40.4-12.64l4.96-37.91c4.06 14.67 20.31 28.89 36.33 28.89 21.21 0 36.11-19.86 36.11-48.97 0-48.97-52.81-64.54-52.81-120.06 0-42.43 23.47-66.58 53.04-66.58 15.35 0 23.7 6.77 34.08 9.03l-4.73 36.55z"/><path fill="#2c2872" d="M355.5 135.84h-12.86L329.1 237.39h15.8c21.89 0 44.91-20.54 44.91-58.45-.01-23.92-10.39-43.1-34.31-43.1z"/></svg>
