<svg xmlns="http://www.w3.org/2000/svg" viewBox="0 0 1000 1000" xml:space="preserve"><path d="M119 184a62 62 0 1 1 0 124 62 62 0 0 1 0-124m0-29a91 91 0 1 0 0 182 91 91 0 0 0 0-182zM978 776c-8-1-22-2-34-6-20-6-26-20-30-58l-49-355c-2-14-6-23-12-23s-11 6-20 21L669 639 498 358c-13-18-17-24-24-24-6 0-10 6-12 23l-37 242c-16-28-45-53-94-85l-30-20c-41-27-48-50-48-70 0-27 18-54 67-54 43 0 70 20 82 39 8 13 10 28 10 34 2 9 4 11 7 11 5 0 7-4 7-15 0-52 1-64 2-83 0-4-2-6-8-8l-29-7c-25-5-43-6-69-6-90 0-145 48-152 110 0-33 1-44 2-56 1-21 7-29 23-32l17-2c6 0 11-1 11-6 0-3-3-6-13-6l-97 2-88-2c-10 0-13 2-13 6s4 6 11 6c8 1 14 1 18 3 14 2 20 12 21 29 2 19 2 36 2 127v103c0 58-1 100-4 125-1 17-6 29-18 31l-19 3c-7 0-12 1-12 5 0 5 5 6 15 6l86-1 84 1h311c10 0 12-1 12-6 0-4-2-5-11-5l-22-3c-15-3-21-10-21-27l2-47 18-166c11 20 37 68 48 85 22 38 59 105 80 138 17 26 20 31 27 31 5 0 8-3 24-33l124-226 21 210c3 26 2 30-7 33-5 1-7 4-7 6 0 3 2 6 14 7 68 3 117 3 166 3 10 0 15-1 15-5 0-5-4-6-12-6zm-697-17c-46 0-91-27-102-75l-3-19c0-4-1-10-5-10h-1V472c4 45 27 83 93 129l37 25c51 34 55 55 55 79 1 25-17 54-74 54z"/></svg>
