<svg xmlns="http://www.w3.org/2000/svg" viewBox="0 0 500 500"><path fill="#c20032" d="M378.89 373.65c-2.94 1.72-5.52 2.33-8.21 2.94-34.93 7.84-69.87 15.81-104.8 23.53-28.81 6.37-57.61 12.63-86.54 18.51-30.28 6.25-60.68 12.26-91.57 15.57-5.15.61-10.54.37-15.81.25-1.96 0-4.66-.12-4.9-2.57-.37-2.57 2.33-3.06 4.17-3.68 10.91-3.8 22.31-5.88 33.71-7.97 45.84-8.46 92.06-14.83 138.02-22.06 44.13-6.99 88.5-12.75 131.77-24.52 1.1-.49 2.2-.98 4.16 0zM378.16 357.59c-2.94 2.7-6.5 2.7-9.93 3.06-36.9 4.05-73.67 8.34-110.69 12.01-34.57 3.43-69.13 7.11-103.95 9.44-23.29 1.59-46.58 3.55-69.99 3.19-5.27-.12-10.54-.49-15.69-1.72-1.72-.37-3.8-.74-3.8-2.94 0-2.21 2.08-2.57 3.8-3.06 8.58-2.21 17.28-3.19 25.99-3.8 30.28-2.21 60.68-3.68 91.07-4.66 23.66-.74 47.31-1.59 70.97-2.57 24.39-.98 48.79-1.96 73.06-3.68 15.57-1.1 31.01-3.43 46.58-5.15.86-.12 1.72-.12 2.58-.12zM375.71 336.51c-6.74 2.08-13.61 1.47-20.35 1.1-20.1-1.23-40.33-1.35-60.43-1.59-25.37-.37-50.87-.98-76.24-1.84-25.5-.86-51.11-1.96-76.61-3.55-24.15-1.59-48.42-2.82-72.32-7.72-2.33-.49-4.54-.98-6.62-2.33-1.1-.74-2.33-1.47-2.08-3.06.25-1.47 1.72-2.21 2.94-2.21 4.41-.37 8.7-.86 13.12-.74 33.1.49 65.95 3.92 98.8 6.99 30.15 2.82 60.19 5.52 90.34 8.21 22.8 2.08 45.6 4.17 68.52 5.76 5.88.37 11.89-.25 17.9-.37 6.74-.12 13.36 1.35 20.1.12.97-.24 2.19-.37 2.93 1.23zM336.6 317.51c-10.79.61-21.21-2.33-31.62-3.92-45.72-6.74-91.32-14.1-136.67-22.55-30.03-5.52-60.06-10.79-89.36-19.98-3.19-.98-6.37-2.08-9.32-3.8-1.59-.98-3.92-1.72-3.19-4.05.61-2.08 3.06-2.08 4.9-1.96 6.62.25 13.12 1.1 19.61 2.21 32.36 5.64 64.48 13.12 96.47 20.35 47.68 10.79 95.37 22.19 143.29 31.87 1.97.6 4.06.72 5.89 1.83zM336.6 317.63c9.93 0 19.61 2.57 29.42 3.8 3.8.49 7.72.37 11.28 2.45-4.78.61-9.56-.25-14.34-.98-8.95-1.22-17.9-2.08-26.36-5.27 0-.12 0 0 0 0z"/><g id="Layer_3"><path fill="#c20032" d="M450.72 315.67c0-8.58-7.72-18.63-15.94-21.08-24.52-7.35-49.03-14.59-73.55-21.94-55.04-16.43-109.95-33.46-165.23-49.15-32.97-9.44-66.07-18.75-99.53-26.11-6.99-2.33-14.1-4.41-21.21-6.13-2.21-.49-3.19-1.59-3.19-3.92 0-16.92.12-33.95 0-50.87 0-3.43 2.08-4.05 4.66-4.66 14.83-3.19 29.79-6.37 44.62-9.68 23.78-5.39 47.56-10.79 71.34-16.3 27.95-6.37 55.65-13.36 83.35-20.72 34.2-9.07 68.28-18.63 101.62-30.4 16.55-5.76 32.97-12.14 48.54-20.23 7.84-4.05 15.08-8.83 20.23-16.3 2.21-3.19 3.43-6.37 3.43-10.17L418.73 9.6c-39.84 7.6-78.82 18.75-117.67 29.79-55.28 15.69-110.2 32.73-165.23 49.15-24.52 7.35-49.03 14.59-73.55 21.94-8.21 2.45-15.94 12.5-15.94 21.08-.12 18.39-.25 36.9 0 55.28 0 2.08.25 3.92.74 5.64 0 3.8 1.23 6.99 3.43 10.17 5.15 7.48 12.38 12.26 20.23 16.3 15.57 8.09 31.99 14.34 48.54 20.23 33.46 11.64 67.42 21.33 101.62 30.4 27.7 7.35 55.4 14.34 83.35 20.72 23.78 5.39 47.56 10.91 71.34 16.3 14.83 3.31 29.66 6.5 44.62 9.68 2.57.61 4.66 1.23 4.66 4.66-.12 16.92-.12 33.95 0 50.87 0 2.33-.98 3.43-3.19 3.92-14.59 3.68-28.81 8.7-43.02 13.61-55.77 19.61-110.93 40.57-167.32 58.35-32.73 10.3-65.82 19.73-99.29 27.33a713.504 713.504 0 0 1-32.24 6.62c-4.66.86-6.13 2.82-5.64 7.23.61 5.64 2.21 6.86 8.21 5.76 48.3-8.58 95.98-19.49 143.54-31.13 52.59-12.87 104.93-26.6 155.8-44.99 18.75-6.74 37.26-13.97 53.93-25.01 8.09-5.39 14.59-12.01 14.83-22.43.49-18.5.37-36.89.24-55.4z"/><path fill="#c20032" d="M118.17 189.41c2.94 1.72 5.52 2.33 8.21 2.94 34.93 7.84 69.87 15.81 104.8 23.53 28.81 6.37 57.61 12.63 86.54 18.51 30.4 6.25 60.8 12.14 91.57 15.44 5.15.61 10.54.37 15.81.25 1.96 0 4.66-.12 4.9-2.57.37-2.57-2.33-3.06-4.17-3.68-10.91-3.8-22.31-5.88-33.71-7.97-45.84-8.46-92.06-14.83-138.02-22.06-44.13-6.99-88.5-12.75-131.77-24.52-1.09-.36-2.2-.97-4.16.13zM118.91 173.36c2.94 2.7 6.5 2.7 9.93 3.06 36.9 4.05 73.67 8.34 110.69 12.01 34.57 3.43 69.13 7.11 103.95 9.44 23.29 1.59 46.58 3.55 69.99 3.19 5.27-.12 10.54-.49 15.69-1.72 1.72-.37 3.8-.74 3.8-2.94 0-2.21-2.08-2.57-3.8-3.06-8.58-2.21-17.28-3.19-25.99-3.8-30.28-2.21-60.68-3.68-91.07-4.66-23.66-.74-47.31-1.59-70.97-2.57-24.39-.98-48.79-1.96-73.06-3.68-15.57-1.1-31.01-3.43-46.58-5.15-.99-.12-1.85-.12-2.58-.12zM121.24 152.27c6.74 2.08 13.61 1.47 20.35 1.1 20.1-1.23 40.33-1.35 60.43-1.59 25.37-.37 50.87-.98 76.24-1.84 25.5-.86 51.11-1.96 76.61-3.55 24.15-1.59 48.42-2.82 72.32-7.72 2.33-.49 4.54-.98 6.62-2.33 1.1-.74 2.33-1.47 2.08-3.06-.25-1.47-1.72-2.21-2.94-2.21-4.41-.37-8.7-.86-13.12-.74-33.1.49-65.95 3.92-98.8 6.99-30.15 2.82-60.19 5.52-90.34 8.21-22.8 2.08-45.6 4.17-68.52 5.76-5.88.37-11.89-.25-17.9-.37-6.74-.12-13.36 1.35-20.1.12-.85-.24-2.08-.36-2.93 1.23zM160.46 133.27c10.79.61 21.21-2.33 31.62-3.92 45.72-6.74 91.32-14.1 136.67-22.55 30.03-5.52 60.06-10.79 89.36-19.98 3.19-.98 6.37-2.08 9.32-3.8 1.59-.98 3.92-1.72 3.19-4.05-.61-2.08-3.06-2.08-4.9-1.96-6.62.25-13.12 1.1-19.61 2.21-32.36 5.64-64.48 13.12-96.47 20.35-47.68 10.79-95.37 22.19-143.29 31.87-1.97.61-4.05.61-5.89 1.83z"/><path fill="#c20032" d="M161.32 133.27c-9.93 0-19.61 2.57-29.42 3.8-3.8.49-7.72.37-11.28 2.45 4.78.61 9.56-.25 14.34-.98 8.95-1.1 17.9-2.08 26.36-5.27z"/></g></svg>
