<svg xmlns="http://www.w3.org/2000/svg" id="Layer_1" x="0" y="0" version="1.1" viewBox="0 0 1000 1000" xml:space="preserve"><style>.st1{fill:#fff}</style><path fill="#275d78" d="M978 977H58c-19 0-35-16-35-35V58c0-20 16-36 35-36h884c20 0 36 16 36 36v919z"/><path d="M860 267H133V142c0-4 3-8 8-8h719c4 0 8 4 8 8v117c0 5-4 8-8 8zM860 484H133V359c0-5 3-8 8-8h719c4 0 8 3 8 8v117c0 4-4 8-8 8zM858 868H133V744c0-5 4-10 9-10h716c5 0 10 5 10 10v114c0 5-5 10-10 10z" class="st1"/><path fill="#a4d9f1" d="M890 681H292c-8 0-15-7-15-16V563c0-9 7-16 15-16h583c8 0 15 7 15 16v118z"/></svg>
