<svg xmlns="http://www.w3.org/2000/svg" viewBox="0 0 1000 500"><g><linearGradient id="SVGID_1_" gradientUnits="userSpaceOnUse" x1="24.59" y1="221.821" x2="246.994" y2="433.794"><stop offset="0" stop-color="#43cbf5"/><stop offset="1" stop-color="#1d81c6"/></linearGradient><path d="M13.5 211.7l122.9 38.7s11 4.1 12.4 19.3c1.8 19.3 5.5 111.8 5.5 111.8s-9.7-24.8-42.8-31.8-55.2-6.9-64.9-34.5-33.1-103.5-33.1-103.5z" fill="url(#SVGID_1_)"/><linearGradient id="SVGID_2_" gradientUnits="userSpaceOnUse" x1="88.396" y1="154.875" x2="310.8" y2="366.849"><stop offset="0" stop-color="#43cbf5"/><stop offset="1" stop-color="#1d81c6"/></linearGradient><path d="M307.5 211.7l-122.9 38.7s-11 4.1-12.4 19.3c-1.8 19.3-5.5 111.8-5.5 111.8s9.7-24.8 42.8-31.8 55.2-6.9 64.9-34.5 33.1-103.5 33.1-103.5z" fill="url(#SVGID_2_)"/></g><g id="Layer_3"><linearGradient id="SVGID_3_" gradientUnits="userSpaceOnUse" x1="111.737" y1="228.847" x2="115.418" y2="117.185"><stop offset="0" stop-color="#fbae48"/><stop offset="1" stop-color="#f89928"/></linearGradient><path d="M150.1 242.1c4.1-19.3-19.3-24.8-19.3-24.8s-13.8-4.1-34.5-12.4-21.4-18.6-21.4-18.6-6.2 22.8 9 31.1 66.2 24.7 66.2 24.7z" fill="url(#SVGID_3_)"/><linearGradient id="SVGID_4_" gradientUnits="userSpaceOnUse" x1="206.272" y1="231.963" x2="209.953" y2="120.301"><stop offset="0" stop-color="#fbae48"/><stop offset="1" stop-color="#f89928"/></linearGradient><path d="M168.4 242.1c-4.1-19.3 19.3-24.8 19.3-24.8s13.8-4.1 34.5-12.4 22.5-20 22.5-20 5.5 24.8-9.7 33.1-66.6 24.1-66.6 24.1z" fill="url(#SVGID_4_)"/><linearGradient id="SVGID_5_" gradientUnits="userSpaceOnUse" x1="117.288" y1="229.03" x2="120.97" y2="117.368"><stop offset="0" stop-color="#fbae48"/><stop offset="1" stop-color="#f89928"/></linearGradient><path d="M109.4 159.9s-12.4 15.2-5.5 24.8c6.9 9.7 20.7 16.6 44.2 17.9 0 0-45.6 6.9-56.6-12.4s17.9-30.3 17.9-30.3z" fill="url(#SVGID_5_)"/><linearGradient id="SVGID_6_" gradientUnits="userSpaceOnUse" x1="199.908" y1="231.753" x2="203.589" y2="120.091"><stop offset="0" stop-color="#fbae48"/><stop offset="1" stop-color="#f89928"/></linearGradient><path d="M218.5 144.8s25.6 16.6 13.8 37.3c-11.8 20.7-64.9 20.7-64.9 20.7s38.8-15.3 49-26.9c10.3-11.8 2.1-31.1 2.1-31.1z" fill="url(#SVGID_6_)"/><linearGradient id="SVGID_7_" gradientUnits="userSpaceOnUse" x1="132.383" y1="229.527" x2="136.064" y2="117.865"><stop offset="0" stop-color="#fbae48"/><stop offset="1" stop-color="#f89928"/></linearGradient><path d="M150.8 97.8s4.1 13.8 1.4 26.2c-2.8 12.4-11 16.6-12.4 37.3s11 26.2 11 26.2-33.1-1.4-33.1-29 27.6-37.2 33.1-60.7z" fill="url(#SVGID_7_)"/><linearGradient id="SVGID_8_" gradientUnits="userSpaceOnUse" x1="177.138" y1="231.003" x2="180.819" y2="119.341"><stop offset="0" stop-color="#fbae48"/><stop offset="1" stop-color="#f89928"/></linearGradient><path d="M201.9 147.5c-1 24.9-30.4 31.8-30.4 31.8 13.8-9.7 16.6-19.3 15.2-31.8-1.4-12.4-22.8-31.1-26.2-48.3C157.7 85.4 164 64 164 64s-2.8 11 12.4 34.5c15.1 23.5 26.2 31.8 25.5 49z" fill="url(#SVGID_8_)"/></g><g id="Layer_4"><path fill="#2880bf" d="M334.3 215v53.5s0 4.9-4.9 4.9H327v25.5h9c8.2 0 16-4.1 20.2-11.2 2.7-4.5 4.7-10.7 4.7-19.2V215h-26.6zM367.1 240.5h24.3v35.2s0 3 3 3 3-3 3-3l.6-35.2h23.7v46.2s1.2 13.4-26.7 13.4c-29.2 0-27.9-13.4-27.9-13.4v-46.2zM551.8 240.5h23.1v58.3h-23.1zM551.8 219.9h23.1v15.8h-23.1zM619.8 240.5v21.9h-10.9s-3.6 0-3.6 7.3 3.6 8.5 3.6 8.5h10.9v19.4s-36.4 9.7-38.9-17 0-44.9 38.9-40.1zM805.7 240.5h-31.6V298.8h24.3v-37.6h7.3zM768 235.1c-1.3-15.7-12.9-19.7-23.1-20.1H706v83.8h28v-20.2c34.2 3 36.4-16.1 34-43.5zm-27.9 19.6H734v-16.9h6.1s3.6 1.3 3.6 9.1-3.6 7.8-3.6 7.8zM837.3 240.5c-29.2 0-29.2 19.4-29.2 19.4v17s0 23.1 21.9 23.1 34-3.6 34-3.6v-18.2s-5.5 4.3-20 4.3c-14.6 0-12.8-6.7-12.8-6.7h34v-18.2c0-.1 1.2-17.1-27.9-17.1zm5.4 23.7h-12.1v-3.6s0-3.6 6.1-3.6 6.1 3.6 6.1 3.6v3.6zM918.7 260s-13.4-4.9-19.4-3.6c-6.1 1.2-3.6 3.6-3.6 3.6s-1.2 1.2 10.9 2.4 15.8 10.9 15.8 17-1.2 21.9-26.7 20.7c-25.5-1.2-24.3-4.9-24.3-4.9l1.2-17s19.4 7.3 23.1 3.6c3.6-3.6-3.6-4.9-10.3-5.5-6-.5-14-4.3-14.6-15.8-.4-7.3 1.2-21.9 24.3-21.9s24.3 4.9 24.3 4.9l-.7 16.5zM973.4 260s-13.4-4.9-19.4-3.6c-6.1 1.2-3.6 3.6-3.6 3.6s-1.2 1.2 10.9 2.4 15.8 10.9 15.8 17-1.2 21.9-26.7 20.7c-25.5-1.2-24.3-4.9-24.3-4.9l1.2-17s19.4 7.3 23.1 3.6c3.6-3.6-3.6-4.9-10.3-5.5-6-.5-14-4.3-14.6-15.8-.4-7.3 1.2-21.9 24.3-21.9s24.3 4.9 24.3 4.9l-.7 16.5zM519 239.3c-24.3-1.2-26.7 4.9-26.7 4.9v17s1.8-4.3 16.4-4.3c14.6 0 12.1 6.1 12.1 6.1h-17s-15.2-1.8-15.2 17.6c0 19.4 15.8 18.2 15.8 18.2h40.1v-43.7s-1.2-14.6-25.5-15.8zm1.8 44.3h-8.5s-2.4 0-2.4-3.6 2.4-3.6 2.4-3.6h8.5v7.2zM655 239.3c-24.3-1.2-26.7 4.9-26.7 4.9v17s1.8-4.3 16.4-4.3c14.6 0 12.1 6.1 12.1 6.1h-17s-15.2-1.8-15.2 17.6c0 19.4 15.8 18.2 15.8 18.2h40.1v-43.7c.1 0-1.2-14.6-25.5-15.8zm1.9 44.3h-8.5s-2.4 0-2.4-3.6 2.4-3.6 2.4-3.6h8.5v7.2zM459.4 215v25.5H440s-13.4 0-13.4 21.9V280s-.6 19.4 18.8 19.4c13.4 0 37.1-.6 37.1-.6V215h-23.1zm-.6 63.8s-8.5 1.2-8.5-6.1v-5.9c0-2.6 1.6-4.9 4.1-5.7 1.1-.3 2.6-.6 4.4-.6v18.3z"/></g></svg>
