<svg xmlns="http://www.w3.org/2000/svg" viewBox="0 0 500 500"><linearGradient id="a" gradientUnits="userSpaceOnUse" x1="39.566" y1="252.087" x2="377.899" y2="574.553"><stop offset="0" stop-color="#43cbf5"/><stop offset="1" stop-color="#1d81c6"/></linearGradient><path d="M22.6 236.7l186.9 58.8s16.8 6.3 18.9 29.4c2.7 29.4 8.4 170.1 8.4 170.1s-14.7-37.8-65.1-48.3-84-10.5-98.7-52.5-50.4-157.5-50.4-157.5z" fill="url(#a)"/><linearGradient id="b" gradientUnits="userSpaceOnUse" x1="136.632" y1="150.245" x2="474.965" y2="472.712"><stop offset="0" stop-color="#43cbf5"/><stop offset="1" stop-color="#1d81c6"/></linearGradient><path d="M469.9 236.7L283 295.5s-16.8 6.3-18.9 29.4c-2.7 29.4-8.4 170.1-8.4 170.1s14.7-37.8 65.1-48.3 84-10.5 98.7-52.5 50.4-157.5 50.4-157.5z" fill="url(#b)"/><linearGradient id="c" gradientUnits="userSpaceOnUse" x1="172.14" y1="262.774" x2="177.74" y2="92.908"><stop offset="0" stop-color="#fbae48"/><stop offset="1" stop-color="#f89928"/></linearGradient><path d="M230.5 282.9c6.3-29.4-29.4-37.8-29.4-37.8s-21-6.3-52.5-18.9c-31.5-12.6-32.5-28.3-32.5-28.3s-9.4 34.6 13.7 47.3 100.7 37.7 100.7 37.7z" fill="url(#c)"/><linearGradient id="d" gradientUnits="userSpaceOnUse" x1="315.951" y1="267.516" x2="321.551" y2="97.649"><stop offset="0" stop-color="#fbae48"/><stop offset="1" stop-color="#f89928"/></linearGradient><path d="M258.3 282.9c-6.3-29.4 29.4-37.8 29.4-37.8s21-6.3 52.5-18.9c31.5-12.6 34.2-30.4 34.2-30.4s8.4 37.8-14.7 50.4c-23.1 12.6-101.4 36.7-101.4 36.7z" fill="url(#d)"/><linearGradient id="e" gradientUnits="userSpaceOnUse" x1="180.585" y1="263.053" x2="186.185" y2="93.186"><stop offset="0" stop-color="#fbae48"/><stop offset="1" stop-color="#f89928"/></linearGradient><path d="M168.6 157.9s-18.9 23.1-8.4 37.8 31.5 25.2 67.2 27.3c0 0-69.3 10.5-86.1-18.9s27.3-46.2 27.3-46.2z" fill="url(#e)"/><linearGradient id="f" gradientUnits="userSpaceOnUse" x1="306.27" y1="267.196" x2="311.87" y2="97.33"><stop offset="0" stop-color="#fbae48"/><stop offset="1" stop-color="#f89928"/></linearGradient><path d="M334.5 134.9s39 25.2 21 56.7c-18 31.5-98.7 31.5-98.7 31.5s59-23.3 74.5-40.9c15.8-17.9 3.2-47.3 3.2-47.3z" fill="url(#f)"/><linearGradient id="g" gradientUnits="userSpaceOnUse" x1="203.547" y1="263.81" x2="209.147" y2="93.943"><stop offset="0" stop-color="#fbae48"/><stop offset="1" stop-color="#f89928"/></linearGradient><path d="M231.6 63.5s6.3 21 2.1 39.9-16.8 25.2-18.9 56.7c-2.1 31.5 16.8 39.9 16.8 39.9s-50.4-2.1-50.4-44.1 42-56.7 50.4-92.4z" fill="url(#g)"/><linearGradient id="h" gradientUnits="userSpaceOnUse" x1="271.631" y1="266.055" x2="277.231" y2="96.188"><stop offset="0" stop-color="#fbae48"/><stop offset="1" stop-color="#f89928"/></linearGradient><path d="M309.3 139.1c-1.5 37.8-46.2 48.3-46.2 48.3 21-14.7 25.2-29.4 23.1-48.3s-34.6-47.3-39.9-73.5c-4.2-21 5.3-53.6 5.3-53.6s-4.2 16.8 18.9 52.5 39.8 48.3 38.8 74.6z" fill="url(#h)"/></svg>
