<svg xmlns="http://www.w3.org/2000/svg" viewBox="0 0 500 500"><path d="M192.45 195.84c-.12-2.81-2.44-2.69-4.03-2.93-12.57-2.44-25.02-4.76-37.59-7.08-19.77-3.66-39.42-7.2-59.19-10.98-2.56-.49-7.08-.37-7.08-3.17 0-2.69 4.52-2.44 7.08-3.05 31.37-6.22 62.73-12.2 94.22-18.31 6.71-1.34 7.08-1.71 4.27-8.06-6.22-13.91-12.82-27.7-19.16-41.62-.98-2.07-3.05-4.64-1.46-6.47 2.07-2.32 4.64.37 6.71 1.22 13.91 6.22 27.7 12.69 41.62 18.92 6.47 2.93 6.71 2.69 8.06-4.15 5.86-30.39 11.72-60.9 17.57-91.29.49-2.81 1.34-5.49 2.07-8.18.24-1.1.61-2.56 1.83-2.69 1.83-.12 1.83 1.71 2.07 2.93 1.59 7.93 3.05 15.99 4.52 23.92 4.64 25.39 9.4 50.89 14.04 76.28 1.1 6.22 1.34 6.35 7.32 3.66 14.65-6.71 29.17-13.43 43.82-20.14 1.59-.73 3.42-2.32 5-.85 1.59 1.46.12 3.54-.61 5.13-5.98 13.06-12.2 26.12-18.19 39.3-5 10.74-4.88 10.74 6.47 12.94 30.76 5.98 61.63 10.98 92.27 17.94 2.07.49 5.74.12 5.61 2.69-.12 2.32-3.78 2.2-5.86 2.69-21.85 4.15-43.69 8.18-65.54 12.2-10.74 1.95-21.48 4.15-32.22 5.98-4.03.73-5.49 1.83-3.42 6.1 7.08 14.77 13.79 29.78 20.63 44.67.73 1.59 2.44 3.42 1.1 5-1.71 1.95-3.78.12-5.37-.61-14.52-6.59-28.93-13.43-43.33-20.02-5.98-2.81-6.35-2.56-7.57 3.91-5.98 32.22-11.96 64.56-17.94 96.78-.37 2.07-.12 5.37-2.32 5.49-2.81.12-2.69-3.3-3.17-5.37-5.86-25.63-10.01-51.75-15.13-77.62-1.22-6.47-2.44-13.06-3.91-19.53-1.1-5.37-1.95-5.98-6.96-3.66-14.28 6.35-28.32 12.94-42.47 19.53-.49.24-.85.49-1.34.61-1.71.49-3.54 2.2-5.13.73-1.71-1.59-.12-3.42.61-5 6.59-14.28 13.18-28.68 19.77-42.96.98-1.59 1.72-3.3 2.33-4.88zm50.89 107.89c1.83-38.93 1.83-77.62 0-116.31-3.3 6.71-5.61 13.67-9.03 20.02-5.13 9.89-6.83 19.77-3.17 30.51.73 2.2.85 4.52 1.22 6.83 3.66 19.53 7.32 39.3 10.98 58.95zm-.37-147.92c2.07-38.81 2.32-77.62.98-117.41-.49 1.34-.73 1.71-.73 1.95-4.88 26-9.64 51.99-14.52 78.11-.24 1.34-.12 2.56.49 3.91 4.51 11.1 9.15 22.21 13.78 33.44zm-11.1 12.57c-11.59-5.74-23.43-10.86-35.64-15.01-1.83-.61-3.54-.37-5.37 0-13.67 2.56-27.34 5-41.01 7.57-12.33 2.32-24.65 4.64-36.86 6.83 0 .12 0 .37.12.49 39.55.12 79.09.12 118.76.12zm149.02-.12c.12-.12.24-.37.24-.49-27.09-4.88-54.07-9.76-81.16-14.52-1.1-.24-2.44-.24-3.42.24-11.59 4.64-23.19 9.28-34.78 14.04.12.24.12.61.24.85 39.67-.12 79.21-.12 118.88-.12zm-122.78 9.88c19.28 19.41 38.69 38.93 58.95 59.32-7.08-14.65-13.67-28.32-20.38-41.98-.49-.98-1.46-1.83-2.56-2.2-12.09-5.13-24.17-10.13-36.01-15.14zm-17.58-17.45c-3.54-8.54-7.57-16.96-10.5-25.75-2.93-8.91-7.93-14.89-16.96-18.31-10.13-3.91-19.65-9.15-29.54-13.91 17.7 20.87 37.23 39.42 57 57.97zm-4.15 17.33c-12.2 5.13-24.29 10.25-36.49 15.38-.98.37-1.95 1.34-2.44 2.32-6.35 12.94-12.45 25.87-18.67 38.81 20.62-17.33 39.05-36.74 57.6-56.51zm17.46-17.58c19.28-19.16 38.81-38.57 58.22-57.85-.12 0-.49-.24-.61-.12-13.55 6.22-26.85 12.82-39.91 20.14-1.34.73-2.44 1.83-2.93 3.17-5.01 11.72-10.01 23.44-14.77 34.66zM32.45 399.78c0 2.24.09 4.11.37 5.61.28 1.4.75 2.52 1.4 3.36.75.75 1.68 1.31 2.99 1.59 1.21.28 2.9.37 5.05.37v3.46H13.2v-3.46c2.06 0 3.83-.09 5.05-.37 1.31-.28 2.24-.75 2.99-1.49s1.21-1.78 1.4-3.18c.28-1.31.37-3.08.37-5.14v-41.86c0-2.24-.09-4.11-.37-5.42-.28-1.31-.75-2.34-1.4-3.08-.65-.75-1.59-1.21-2.71-1.4-1.12-.19-2.62-.28-4.39-.28v-3.55h27.28v3.46c-1.78 0-3.27.09-4.39.37-1.12.28-2.06.75-2.71 1.5-.65.75-1.12 1.87-1.4 3.27-.28 1.4-.37 3.27-.37 5.7v22.14l22.43-27c1.21-1.49 1.78-2.62 1.78-3.46 0-1.68-1.68-2.52-5.14-2.52v-3.46H73.3v3.36c-1.21 0-2.24.09-3.18.19-.93.19-1.78.47-2.62.93-.84.47-1.78 1.12-2.71 2.06-.93.93-2.06 2.06-3.36 3.46L44.5 374.37l26.26 31.49c1.5 1.78 2.9 2.99 4.2 3.64s3.08 1.03 5.33 1.03v3.46H52.72v-3.46c2.34 0 4.02-.19 5.05-.56s1.5-1.03 1.5-1.87c0-.47-.28-1.12-.75-2.06-.47-.93-1.21-1.96-2.34-3.36L38.71 381.1l-6.17 7.19v11.49h-.09zM141.86 389.04h-24.01c-1.03 2.43-1.87 4.58-2.62 6.54-.75 1.87-1.31 3.55-1.78 4.86-.47 1.4-.75 2.52-.93 3.46s-.28 1.78-.28 2.34c0 1.68.56 2.8 1.59 3.46 1.12.65 2.9.93 5.42.93v3.46H97.48v-3.46c1.4-.19 2.52-.37 3.55-.75 1.03-.28 1.87-.75 2.62-1.21.75-.56 1.4-1.21 1.96-2.15.56-.84 1.12-1.96 1.68-3.18l23.36-58.4h3.83l20.37 50.64c1.4 3.36 2.62 6.07 3.55 8.04 1.03 1.96 1.96 3.55 2.99 4.58.93 1.03 1.96 1.68 3.08 1.96s2.43.47 4.02.47v3.46h-29.25v-3.46c3.18 0 5.33-.28 6.54-.93 1.21-.56 1.78-1.59 1.78-2.99 0-.56 0-1.12-.09-1.68-.09-.47-.19-1.03-.28-1.68-.19-.56-.37-1.31-.65-2.06s-.65-1.59-1.03-2.62l-3.65-9.63zm-22.23-4.49h20.46l-9.9-26.54-10.56 26.54zM209.61 397.07c0 2.99.09 5.33.37 7.1.28 1.78.75 3.08 1.4 4.02s1.68 1.59 2.99 1.87c1.31.28 2.99.47 5.05.56v3.46h-29.06v-3.46c2.06-.09 3.83-.28 5.05-.56 1.31-.37 2.24-.93 2.99-1.87.75-.93 1.21-2.15 1.4-3.83.28-1.68.37-3.83.37-6.73v-36.44c0-2.52-.09-4.58-.28-6.26-.19-1.68-.65-2.99-1.21-3.92-.65-.93-1.5-1.59-2.71-2.06-1.21-.37-2.71-.65-4.67-.75v-3.27h27.28v3.46c-1.96.09-3.46.28-4.58.75-1.12.37-2.06 1.12-2.71 2.15-.65 1.03-1.03 2.34-1.21 4.11-.19 1.78-.28 3.92-.28 6.63v35.04h-.19zM301.55 362.22c0 4.77-1.4 8.78-4.3 11.96-2.9 3.18-7.48 5.33-13.74 6.35l19.81 23.92c1.59 1.96 3.36 3.36 5.33 4.3 1.96.84 4.3 1.49 6.91 1.96v3.46h-17.29l-21.96-28.22c-.75-1.03-1.49-1.87-2.24-2.43-.65-.56-1.4-1.03-2.15-1.4s-1.59-.56-2.62-.65-2.15-.09-3.55-.09v18.69c0 2.24.09 4.02.37 5.42.28 1.4.84 2.52 1.68 3.27s2.15 1.31 3.74 1.59c1.68.28 3.83.37 6.54.37v3.46H246.4v-3.46c2.06-.09 3.83-.28 5.05-.56 1.31-.28 2.24-.84 2.99-1.5.75-.75 1.21-1.78 1.4-3.08.28-1.31.37-2.99.37-5.14v-41.86c0-2.06-.09-3.83-.28-5.05-.19-1.31-.65-2.34-1.21-3.08-.65-.75-1.5-1.21-2.71-1.5-1.21-.28-2.71-.47-4.67-.56v-3.46h28.22c8.22 0 14.67 1.5 19.15 4.58 4.6 3.09 6.84 7.29 6.84 12.71zm-35.79 14.58h6.35c5.98 0 10.47-1.12 13.36-3.27 2.9-2.15 4.39-5.79 4.39-10.84 0-4.86-1.12-8.32-3.46-10.37-2.34-2.06-5.89-3.18-10.84-3.18h-8.22c-1.03 0-1.49.47-1.49 1.5v26.16h-.09zM372.94 344c5.23 0 10.18.93 14.76 2.8 4.58 1.87 8.5 4.39 11.87 7.66 3.36 3.27 5.98 7.01 7.94 11.4 1.87 4.39 2.9 9.06 2.9 14.2 0 4.86-.93 9.44-2.9 13.64-1.96 4.2-4.58 7.94-7.94 11.12-3.36 3.18-7.29 5.61-11.87 7.48s-9.44 2.71-14.67 2.71-10.09-.93-14.67-2.71c-4.58-1.87-8.5-4.3-11.87-7.48a35.098 35.098 0 0 1-7.94-11.12c-1.96-4.2-2.9-8.78-2.9-13.64 0-5.05.93-9.81 2.9-14.2 1.87-4.39 4.58-8.13 7.94-11.4 3.36-3.27 7.29-5.79 11.87-7.66 4.39-1.87 9.25-2.8 14.58-2.8zm0 65.97c3.92 0 7.48-.65 10.65-2.06 3.18-1.4 5.79-3.36 8.04-5.89 2.24-2.62 3.92-5.7 5.14-9.34 1.21-3.64 1.78-7.76 1.78-12.33 0-4.77-.56-9.16-1.78-12.99-1.21-3.83-2.9-7.19-5.14-9.9-2.24-2.71-4.95-4.86-8.04-6.26-3.18-1.5-6.73-2.24-10.65-2.24s-7.48.75-10.65 2.24c-3.18 1.5-5.89 3.55-8.04 6.26-2.24 2.71-3.92 5.98-5.14 9.9-1.21 3.83-1.78 8.22-1.78 12.99 0 4.58.56 8.69 1.78 12.33 1.21 3.64 2.9 6.82 5.14 9.34 2.24 2.62 4.95 4.58 8.04 5.89 3.08 1.4 6.63 2.06 10.65 2.06zM439.47 392.96h3.36c.37 2.71 1.21 5.14 2.34 7.29s2.62 4.02 4.39 5.51c1.78 1.5 3.83 2.62 6.07 3.46 2.34.84 4.77 1.21 7.48 1.21 4.39 0 7.94-1.03 10.47-3.18 2.62-2.06 3.83-4.95 3.83-8.5 0-1.5-.28-2.9-.75-4.11s-1.4-2.43-2.52-3.64c-1.21-1.12-2.8-2.34-4.77-3.46-1.96-1.12-4.58-2.34-7.57-3.64-3.74-1.59-6.82-3.18-9.34-4.67-2.52-1.5-4.49-3.08-5.98-4.67a15.246 15.246 0 0 1-3.18-5.14c-.65-1.87-.93-3.92-.93-6.26 0-2.71.47-5.33 1.49-7.66 1.03-2.34 2.34-4.39 4.2-6.07 1.78-1.68 3.92-2.99 6.35-3.92 2.43-.93 5.14-1.4 8.04-1.4 2.62 0 5.05.37 7.38 1.21 2.24.84 4.58 2.15 6.91 4.02l2.34-4.02h2.06l1.03 17.85h-3.36c-1.4-4.95-3.55-8.6-6.26-10.93-2.71-2.43-5.98-3.55-9.81-3.55-3.64 0-6.54.93-8.69 2.71-2.15 1.78-3.27 4.2-3.27 7.29 0 1.4.28 2.71.75 3.92.47 1.12 1.21 2.24 2.34 3.36 1.12 1.03 2.52 2.06 4.2 3.18 1.78 1.03 3.92 2.15 6.45 3.27 4.39 1.96 8.13 3.83 11.03 5.51 2.9 1.68 5.23 3.46 7.01 5.14 1.78 1.68 2.99 3.46 3.64 5.42.75 1.87 1.12 4.02 1.12 6.35 0 2.99-.56 5.7-1.78 8.22-1.21 2.52-2.9 4.67-5.05 6.45-2.15 1.78-4.77 3.18-7.76 4.2-2.99 1.03-6.26 1.5-9.9 1.5-3.46 0-6.45-.47-9.16-1.4-2.71-.93-5.51-2.62-8.32-4.86l-2.52 4.39h-2.06l-1.3-20.38z"/><g><path d="M8.3 478v-43.78h3.07V478H8.3zM59.24 478h-3.07l-25.89-38.84h-.26c.26 4.6.34 8.09.34 10.48V478h-2.9v-43.78h3.07l25.89 38.84h.17c-.17-3.58-.26-6.98-.26-10.22v-28.53h2.98V478h-.07zM86.75 478h-3.07v-40.88H69.46v-2.9h31.52v2.9H86.75V478zM135.04 478h-23.93v-43.78h23.93v2.81h-20.87v16.52h19.68v2.81h-19.68v18.74h20.87v2.9zM151.74 458.92V478h-3.07v-43.78h10.39c5.45 0 9.45 1.02 12.01 2.98 2.56 2.04 3.92 5.03 3.92 9.03 0 2.9-.77 5.45-2.3 7.41-1.53 2.04-3.92 3.49-7.07 4.34l11.92 19.93h-3.66l-11.33-19.08h-10.82v.09zm0-2.64h8.35c3.66 0 6.56-.85 8.6-2.47s3.07-4.09 3.07-7.33c0-3.32-1.02-5.79-2.98-7.24-1.96-1.53-5.28-2.3-9.8-2.3h-7.24v19.34zM220.65 478h-3.07l-25.89-38.84h-.26c.26 4.6.34 8.09.34 10.48V478h-2.9v-43.78h3.07l25.89 38.84h.17c-.17-3.58-.26-6.98-.26-10.22v-28.53h2.98V478h-.07zM257.78 462.5h-17.8l-6.13 15.42h-3.41l17.63-43.95h1.96l17.29 43.95h-3.41l-6.13-15.42zm-16.69-2.72h15.67l-5.96-15.76c-.51-1.28-1.11-2.98-1.79-5.11-.51 1.96-1.11 3.66-1.79 5.2l-6.13 15.67zM288.62 478h-3.07v-40.88h-14.22v-2.9h31.52v2.9h-14.22V478zM312.98 478v-43.78h3.07V478h-3.07zM368.94 456.03c0 6.98-1.7 12.44-5.2 16.52s-8.26 6.05-14.39 6.05c-6.05 0-10.9-2.04-14.31-6.05-3.41-4-5.2-9.54-5.2-16.52s1.79-12.44 5.28-16.44 8.26-5.96 14.39-5.96c6.13 0 10.9 2.04 14.31 6.05 3.41 4 5.12 9.36 5.12 16.35zm-35.86 0c0 6.3 1.36 11.07 4.17 14.57 2.81 3.49 6.81 5.11 12.01 5.11 5.28 0 9.28-1.7 12.1-5.11s4.17-8.26 4.17-14.57-1.36-11.16-4.17-14.48c-2.81-3.32-6.81-5.03-12.01-5.03s-9.2 1.7-12.1 5.11c-2.89 3.41-4.17 8.18-4.17 14.4zM414.51 478h-3.07l-25.89-38.84h-.26c.26 4.6.34 8.09.34 10.48V478h-2.9v-43.78h3.07l25.89 38.84h.17c-.17-3.58-.26-6.98-.26-10.22v-28.53h2.98V478h-.07zM451.65 462.5h-17.8l-6.13 15.42h-3.41l17.63-43.95h1.96l17.29 43.95h-3.41l-6.13-15.42zm-16.7-2.72h15.67l-5.96-15.76c-.51-1.28-1.11-2.98-1.79-5.11-.51 1.96-1.11 3.66-1.79 5.2l-6.13 15.67zM471.07 478v-43.78h3.07v40.88H495v2.9h-23.93z"/></g></svg>
