<svg xmlns="http://www.w3.org/2000/svg" viewBox="0 0 1000 500"><path d="M455 180.7c-.1-2.3-2-2.2-3.3-2.4-10.3-2-20.5-3.9-30.8-5.8-16.2-3-32.3-5.9-48.5-9-2.1-.4-5.8-.3-5.8-2.6 0-2.2 3.7-2 5.8-2.5 25.7-5.1 51.4-10 77.2-15 5.5-1.1 5.8-1.4 3.5-6.6-5.1-11.4-10.5-22.7-15.7-34.1-.8-1.7-2.5-3.8-1.2-5.3 1.7-1.9 3.8.3 5.5 1 11.4 5.1 22.7 10.4 34.1 15.5 5.3 2.4 5.5 2.2 6.6-3.4 4.8-24.9 9.6-49.9 14.4-74.8.4-2.3 1.1-4.5 1.7-6.7.2-.9.5-2.1 1.5-2.2 1.5-.1 1.5 1.4 1.7 2.4 1.3 6.5 2.5 13.1 3.7 19.6 3.8 20.8 7.7 41.7 11.5 62.5.9 5.1 1.1 5.2 6 3 12-5.5 23.9-11 35.9-16.5 1.3-.6 2.8-1.9 4.1-.7 1.3 1.2.1 2.9-.5 4.2-4.9 10.7-10 21.4-14.9 32.2-4.1 8.8-4 8.8 5.3 10.6 25.2 4.9 50.5 9 75.6 14.7 1.7.4 4.7.1 4.6 2.2-.1 1.9-3.1 1.8-4.8 2.2-17.9 3.4-35.8 6.7-53.7 10-8.8 1.6-17.6 3.4-26.4 4.9-3.3.6-4.5 1.5-2.8 5 5.8 12.1 11.3 24.4 16.9 36.6.6 1.3 2 2.8.9 4.1-1.4 1.6-3.1.1-4.4-.5-11.9-5.4-23.7-11-35.5-16.4-4.9-2.3-5.2-2.1-6.2 3.2-4.9 26.4-9.8 52.9-14.7 79.3-.3 1.7-.1 4.4-1.9 4.5-2.3.1-2.2-2.7-2.6-4.4-4.8-21-8.2-42.4-12.4-63.6-1-5.3-2-10.7-3.2-16-.9-4.4-1.6-4.9-5.7-3-11.7 5.2-23.2 10.6-34.8 16-.4.2-.7.4-1.1.5-1.4.4-2.9 1.8-4.2.6-1.4-1.3-.1-2.8.5-4.1 5.4-11.7 10.8-23.5 16.2-35.2.8-1.3 1.4-2.7 1.9-4zm41.7 88.4c1.5-31.9 1.5-63.6 0-95.3-2.7 5.5-4.6 11.2-7.4 16.4-4.2 8.1-5.6 16.2-2.6 25 .6 1.8.7 3.7 1 5.6 3 16 6 32.2 9 48.3zm-.3-121.2c1.7-31.8 1.9-63.6.8-96.2-.4 1.1-.6 1.4-.6 1.6-4 21.3-7.9 42.6-11.9 64-.2 1.1-.1 2.1.4 3.2 3.7 9.1 7.5 18.2 11.3 27.4zm-9.1 10.3c-9.5-4.7-19.2-8.9-29.2-12.3-1.5-.5-2.9-.3-4.4 0-11.2 2.1-22.4 4.1-33.6 6.2-10.1 1.9-20.2 3.8-30.2 5.6 0 .1 0 .3.1.4 32.4.1 64.8.1 97.3.1zm122.1-.1c.1-.1.2-.3.2-.4-22.2-4-44.3-8-66.5-11.9-.9-.2-2-.2-2.8.2-9.5 3.8-19 7.6-28.5 11.5.1.2.1.5.2.7 32.5-.1 64.9-.1 97.4-.1zm-100.6 8.1c15.8 15.9 31.7 31.9 48.3 48.6-5.8-12-11.2-23.2-16.7-34.4-.4-.8-1.2-1.5-2.1-1.8-9.9-4.2-19.8-8.3-29.5-12.4zm-14.4-14.3c-2.9-7-6.2-13.9-8.6-21.1-2.4-7.3-6.5-12.2-13.9-15-8.3-3.2-16.1-7.5-24.2-11.4 14.5 17.1 30.5 32.3 46.7 47.5zm-3.4 14.2c-10 4.2-19.9 8.4-29.9 12.6-.8.3-1.6 1.1-2 1.9-5.2 10.6-10.2 21.2-15.3 31.8 16.9-14.2 32-30.1 47.2-46.3zm14.3-14.4l47.7-47.4c-.1 0-.4-.2-.5-.1-11.1 5.1-22 10.5-32.7 16.5-1.1.6-2 1.5-2.4 2.6-4.1 9.6-8.2 19.2-12.1 28.4zM262.8 382.7c0 2.4.1 4.4.4 6 .3 1.5.8 2.7 1.5 3.6.8.8 1.8 1.4 3.2 1.7 1.3.3 3.1.4 5.4.4v3.7h-31.1v-3.7c2.2 0 4.1-.1 5.4-.4 1.4-.3 2.4-.8 3.2-1.6.8-.8 1.3-1.9 1.5-3.4.3-1.4.4-3.3.4-5.5v-44.8c0-2.4-.1-4.4-.4-5.8-.3-1.4-.8-2.5-1.5-3.3-.7-.8-1.7-1.3-2.9-1.5-1.2-.2-2.8-.3-4.7-.3V324h29.2v3.7c-1.9 0-3.5.1-4.7.4-1.2.3-2.2.8-2.9 1.6-.7.8-1.2 2-1.5 3.5-.3 1.5-.4 3.5-.4 6.1V363l24-28.9c1.3-1.6 1.9-2.8 1.9-3.7 0-1.8-1.8-2.7-5.5-2.7V324h23.2v3.6c-1.3 0-2.4.1-3.4.2-1 .2-1.9.5-2.8 1-.9.5-1.9 1.2-2.9 2.2-1 1-2.2 2.2-3.6 3.7l-18.1 20.8 28.1 33.7c1.6 1.9 3.1 3.2 4.5 3.9 1.4.7 3.3 1.1 5.7 1.1v3.7h-29.5v-3.7c2.5 0 4.3-.2 5.4-.6 1.1-.4 1.6-1.1 1.6-2 0-.5-.3-1.2-.8-2.2-.5-1-1.3-2.1-2.5-3.6l-18.7-23.1-6.6 7.7v12.3zM379.9 371.2h-25.7c-1.1 2.6-2 4.9-2.8 7-.8 2-1.4 3.8-1.9 5.2-.5 1.5-.8 2.7-1 3.7-.2 1-.3 1.9-.3 2.5 0 1.8.6 3 1.7 3.7 1.2.7 3.1 1 5.8 1v3.7h-23.3v-3.7c1.5-.2 2.7-.4 3.8-.8 1.1-.3 2-.8 2.8-1.3.8-.6 1.5-1.3 2.1-2.3.6-.9 1.2-2.1 1.8-3.4l25-62.5h4.1l21.8 54.2c1.5 3.6 2.8 6.5 3.8 8.6 1.1 2.1 2.1 3.8 3.2 4.9 1 1.1 2.1 1.8 3.3 2.1 1.2.3 2.6.5 4.3.5v3.7h-31.3v-3.7c3.4 0 5.7-.3 7-1 1.3-.6 1.9-1.7 1.9-3.2 0-.6 0-1.2-.1-1.8-.1-.5-.2-1.1-.3-1.8-.2-.6-.4-1.4-.7-2.2-.3-.8-.7-1.7-1.1-2.8l-3.9-10.3zm-23.8-4.8H378L367.4 338l-11.3 28.4zM452.4 379.8c0 3.2.1 5.7.4 7.6.3 1.9.8 3.3 1.5 4.3s1.8 1.7 3.2 2c1.4.3 3.2.5 5.4.6v3.7h-31.1v-3.7c2.2-.1 4.1-.3 5.4-.6 1.4-.4 2.4-1 3.2-2 .8-1 1.3-2.3 1.5-4.1.3-1.8.4-4.1.4-7.2v-39c0-2.7-.1-4.9-.3-6.7-.2-1.8-.7-3.2-1.3-4.2-.7-1-1.6-1.7-2.9-2.2-1.3-.4-2.9-.7-5-.8V324H462v3.7c-2.1.1-3.7.3-4.9.8-1.2.4-2.2 1.2-2.9 2.3-.7 1.1-1.1 2.5-1.3 4.4-.2 1.9-.3 4.2-.3 7.1v37.5zM550.8 342.5c0 5.1-1.5 9.4-4.6 12.8-3.1 3.4-8 5.7-14.7 6.8l21.2 25.6c1.7 2.1 3.6 3.6 5.7 4.6 2.1.9 4.6 1.6 7.4 2.1v3.7h-18.5l-23.5-30.2c-.8-1.1-1.6-2-2.4-2.6-.7-.6-1.5-1.1-2.3-1.5-.8-.4-1.7-.6-2.8-.7-1.1-.1-2.3-.1-3.8-.1v20c0 2.4.1 4.3.4 5.8.3 1.5.9 2.7 1.8 3.5.9.8 2.3 1.4 4 1.7 1.8.3 4.1.4 7 .4v3.7h-33.9v-3.7c2.2-.1 4.1-.3 5.4-.6 1.4-.3 2.4-.9 3.2-1.6.8-.8 1.3-1.9 1.5-3.3.3-1.4.4-3.2.4-5.5v-44.8c0-2.2-.1-4.1-.3-5.4-.2-1.4-.7-2.5-1.3-3.3-.7-.8-1.6-1.3-2.9-1.6-1.3-.3-2.9-.5-5-.6V324H523c8.8 0 15.7 1.6 20.5 4.9 4.9 3.3 7.3 7.8 7.3 13.6zm-38.3 15.6h6.8c6.4 0 11.2-1.2 14.3-3.5 3.1-2.3 4.7-6.2 4.7-11.6 0-5.2-1.2-8.9-3.7-11.1-2.5-2.2-6.3-3.4-11.6-3.4h-8.8c-1.1 0-1.6.5-1.6 1.6v28zM627.2 323c5.6 0 10.9 1 15.8 3s9.1 4.7 12.7 8.2c3.6 3.5 6.4 7.5 8.5 12.2 2 4.7 3.1 9.7 3.1 15.2 0 5.2-1 10.1-3.1 14.6s-4.9 8.5-8.5 11.9c-3.6 3.4-7.8 6-12.7 8-4.9 2-10.1 2.9-15.7 2.9s-10.8-1-15.7-2.9c-4.9-2-9.1-4.6-12.7-8-3.6-3.4-6.4-7.3-8.5-11.9-2.1-4.5-3.1-9.4-3.1-14.6 0-5.4 1-10.5 3.1-15.2 2-4.7 4.9-8.7 8.5-12.2 3.6-3.5 7.8-6.2 12.7-8.2 4.7-2 9.9-3 15.6-3zm0 70.6c4.2 0 8-.7 11.4-2.2 3.4-1.5 6.2-3.6 8.6-6.3 2.4-2.8 4.2-6.1 5.5-10 1.3-3.9 1.9-8.3 1.9-13.2 0-5.1-.6-9.8-1.9-13.9-1.3-4.1-3.1-7.7-5.5-10.6-2.4-2.9-5.3-5.2-8.6-6.7-3.4-1.6-7.2-2.4-11.4-2.4s-8 .8-11.4 2.4c-3.4 1.6-6.3 3.8-8.6 6.7-2.4 2.9-4.2 6.4-5.5 10.6-1.3 4.1-1.9 8.8-1.9 13.9 0 4.9.6 9.3 1.9 13.2 1.3 3.9 3.1 7.3 5.5 10 2.4 2.8 5.3 4.9 8.6 6.3 3.3 1.5 7.1 2.2 11.4 2.2zM698.4 375.4h3.6c.4 2.9 1.3 5.5 2.5 7.8s2.8 4.3 4.7 5.9c1.9 1.6 4.1 2.8 6.5 3.7 2.5.9 5.1 1.3 8 1.3 4.7 0 8.5-1.1 11.2-3.4 2.8-2.2 4.1-5.3 4.1-9.1 0-1.6-.3-3.1-.8-4.4-.5-1.3-1.5-2.6-2.7-3.9-1.3-1.2-3-2.5-5.1-3.7-2.1-1.2-4.9-2.5-8.1-3.9-4-1.7-7.3-3.4-10-5s-4.8-3.3-6.4-5c-1.6-1.7-2.7-3.6-3.4-5.5-.7-2-1-4.2-1-6.7 0-2.9.5-5.7 1.6-8.2s2.5-4.7 4.5-6.5c1.9-1.8 4.2-3.2 6.8-4.2 2.6-1 5.5-1.5 8.6-1.5 2.8 0 5.4.4 7.9 1.3 2.4.9 4.9 2.3 7.4 4.3l2.5-4.3h2.2l1.1 19.1h-3.6c-1.5-5.3-3.8-9.2-6.7-11.7-2.9-2.6-6.4-3.8-10.5-3.8-3.9 0-7 1-9.3 2.9-2.3 1.9-3.5 4.5-3.5 7.8 0 1.5.3 2.9.8 4.2.5 1.2 1.3 2.4 2.5 3.6 1.2 1.1 2.7 2.2 4.5 3.4 1.9 1.1 4.2 2.3 6.9 3.5 4.7 2.1 8.7 4.1 11.8 5.9 3.1 1.8 5.6 3.7 7.5 5.5 1.9 1.8 3.2 3.7 3.9 5.8.8 2 1.2 4.3 1.2 6.8 0 3.2-.6 6.1-1.9 8.8-1.3 2.7-3.1 5-5.4 6.9-2.3 1.9-5.1 3.4-8.3 4.5-3.2 1.1-6.7 1.6-10.6 1.6-3.7 0-6.9-.5-9.8-1.5-2.9-1-5.9-2.8-8.9-5.2l-2.7 4.7h-2.2l-1.4-21.8z"/><g><path d="M214.3 469.9v-51.4h3.6v51.4h-3.6zM274.1 469.9h-3.6l-30.4-45.6h-.3c.3 5.4.4 9.5.4 12.3v33.3h-3.4v-51.4h3.6l30.4 45.6h.2c-.2-4.2-.3-8.2-.3-12v-33.5h3.5v51.3zM306.4 469.9h-3.6v-48h-16.7v-3.4h37v3.4h-16.7v48zM363.1 469.9H335v-51.4h28.1v3.3h-24.5v19.4h23.1v3.3h-23.1v22h24.5v3.4zM382.7 447.5v22.4h-3.6v-51.4h12.2c6.4 0 11.1 1.2 14.1 3.5 3 2.4 4.6 5.9 4.6 10.6 0 3.4-.9 6.4-2.7 8.7-1.8 2.4-4.6 4.1-8.3 5.1l14 23.4h-4.3l-13.3-22.4h-12.7zm0-3.1h9.8c4.3 0 7.7-1 10.1-2.9s3.6-4.8 3.6-8.6c0-3.9-1.2-6.8-3.5-8.5-2.3-1.8-6.2-2.7-11.5-2.7h-8.5v22.7zM463.6 469.9H460l-30.4-45.6h-.3c.3 5.4.4 9.5.4 12.3v33.3h-3.4v-51.4h3.6l30.4 45.6h.2c-.2-4.2-.3-8.2-.3-12v-33.5h3.5v51.3zM507.2 451.7h-20.9l-7.2 18.1h-4l20.7-51.6h2.3l20.3 51.6h-4l-7.2-18.1zm-19.6-3.2H506l-7-18.5c-.6-1.5-1.3-3.5-2.1-6-.6 2.3-1.3 4.3-2.1 6.1l-7.2 18.4zM543.4 469.9h-3.6v-48h-16.7v-3.4h37v3.4h-16.7v48zM572 469.9v-51.4h3.6v51.4H572zM637.7 444.1c0 8.2-2 14.6-6.1 19.4s-9.7 7.1-16.9 7.1c-7.1 0-12.8-2.4-16.8-7.1s-6.1-11.2-6.1-19.4 2.1-14.6 6.2-19.3 9.7-7 16.9-7c7.2 0 12.8 2.4 16.8 7.1s6 11 6 19.2zm-42.1 0c0 7.4 1.6 13 4.9 17.1s8 6 14.1 6c6.2 0 10.9-2 14.2-6s4.9-9.7 4.9-17.1c0-7.4-1.6-13.1-4.9-17s-8-5.9-14.1-5.9-10.8 2-14.2 6-4.9 9.6-4.9 16.9zM691.2 469.9h-3.6l-30.4-45.6h-.3c.3 5.4.4 9.5.4 12.3v33.3h-3.4v-51.4h3.6l30.4 45.6h.2c-.2-4.2-.3-8.2-.3-12v-33.5h3.5v51.3zM734.8 451.7h-20.9l-7.2 18.1h-4l20.7-51.6h2.3l20.3 51.6h-4l-7.2-18.1zm-19.6-3.2h18.4l-7-18.5c-.6-1.5-1.3-3.5-2.1-6-.6 2.3-1.3 4.3-2.1 6.1l-7.2 18.4zM757.6 469.9v-51.4h3.6v48h24.5v3.4h-28.1z"/></g></svg>
