<svg id="Layer_1" xmlns="http://www.w3.org/2000/svg" viewBox="0 0 500 500"><path fill="#1649be" d="M181.8 261.9c-1 13.6-2.1 27.2-3.3 40.8-.3 3.8.7 4.5 4.5 3.5 6-1.5 11.8-4.8 18.3-2.5.4.2.9.2 1.4.1 6.7-1 12 2.8 17.8 5.1 1.3.5 3.1 1.6 3.9 1.1.9-.5 1.4-2.5 1.4-3.8-.1-3.7-.8-7.4-.7-11.1.2-5.5 2.3-6.3 6.8-3.3 1.2.8 2.7 1.3 4.1 1.9.4-1.8 1.7-3.9 1.2-5.5-.6-1.9-2.2-4.4-3.8-4.9-6.4-1.9-8.5-5.8-7.4-12 .2-.7-.1-1.5-.1-2.5 0-.8-.1-1.8 0-2.8.9-6.7.9-8.2-8.1-10.5-9.9-2.6-19.9-3-30-.7-4.5 1.1-5.7 2.4-6 7.1zm23.7 24.6c.3-6.6.7-13.1 1.2-19.7.4-4.5 1.9-5.3 6.2-3.8 6.7 2.3 6.7 2.4 6.6 9.5-.1 3 0 6 0 8.9h-.1c0 4 .1 8 0 12-.2 5-2.1 6.1-6.7 4.3-7.5-3-7.6-3-7.2-11.2zm-9-24.7c1.4.2 3 1.9 3.7 3.3.7 1.4.3 3.4.3 5.1h-.2c-.3 6.8-.6 13.6-1 20.4-.3 4.3-7.8 7.9-11.4 5.3-.9-.7-1.5-2.3-1.4-3.5.3-8 .7-16 1.4-24.1.3-4.3 4.3-7.3 8.6-6.5zM370.7 276.4c-.9-.4-2.4-.6-3-.1-.6.5-.5 2-.3 3 .5 3 1.3 5.8 1.8 8.7 1.7 11.1 3.2 22.3 4.8 33.5.4 2.9 1.1 5.5 4.3 6.9 12.8 5.3 26.3 8.1 39.7 11 3.3.7 4.8-.9 4-4.2-1.2-4.7-2.3-9.4-3.4-14.1-1.2-5.4-.2-6.5 6.2-6 1.5.1 4.6.7 4.7-3 .1-3.7-2.7-3.3-5.3-3.1-5.2.5-7.5-1.2-8.7-6.4-.9-4.2-1.9-8.5-2.7-12.8-.6-3-2.1-4.7-5.3-4.6-13.1.6-25-3.7-36.8-8.8zM388 324c-5.5-1.7-9.5-4.3-9.9-11.1-.4-7.4-1.9-14.7-3-22.1-.4-2.7.8-4.2 3.6-3.5 9 2.5 9.9 1.5 11 11.1.9 7.4 2.1 14.7 3.1 21.7.1 3.7-1.6 4.9-4.8 3.9zm25.6 1.2c.2 3.3-1.4 4.7-4.6 4.3-8.4-1.2-9-1.7-10.1-8.4-1.4-8-2.8-15.9-4.1-23.8-.8-5.1.5-6.2 5.7-5.3 7 1.1 7.1 1.1 8.5 8 1.6 8.4 3.1 16.8 4.6 25.2zM100.5 247.8c2.5-.4 5.8-.8 9-1.7 7-1.8 13.8-3.9 20.7-5.7 5.2-1.3 6.4-2.6 7.3-8 2.1-12.9 4.2-25.7 6.4-38.5.4-2.6-.5-3.5-3.1-2.6-.7.2-1.3.7-2 1-9 3.9-18 7.7-28 8.6-3.6.3-5.2 1.8-6 5.2-2.1 9.7-4.5 19.3-6.7 29-.6 2.7-1.5 5.2-2.1 7.9-.6 3.1.8 4.8 4.5 4.8zm21.7-16.2c1.4-8 2.8-16.1 4.7-24.1.4-1.8 2.3-3.8 4-4.9 2.9-1.8 4.7-.3 4.6 3.1-1.3 7.7-2.3 15.5-4 23.1-.6 2.3-2.6 4.8-4.6 6.2-2.9 1.8-5.4-.1-4.7-3.4zm-17.4 3.4c2-8 3.8-16.3 6-24.5.8-2.8 3.5-4.1 6.2-3.4 2.9.8 2.2 3.6 1.8 5.7-1.3 7-2.8 13.9-4.2 20.8-.6 3.2-2.5 5.1-5.7 5.5-3 .4-4.2-.8-4.1-4.1zM154.8 231.5c4.6-2.5 9.2-5 13.6-7.6 1.2-.7 2.7-1.9 3-3.1 1.1-5.6 1.7-11.4 2.6-17-.4-.3-.8-.5-1.2-.9-1.6.9-3.1 2.1-4.8 2.7-1.6.6-3.4.7-5.1.9.2-1.9.3-4 .8-5.8.2-.7 1.3-1.2 2-1.6 4.4-2.5 8.9-4.8 13.4-7.2 3.5-1.9 5.1-.9 5.2 3.1 0 1.2-.2 2.5-.3 3.7-.7 4.6-1.5 9.1-2.2 13.6-.2.9 0 2.3.5 2.6.6.3 1.8 0 2.7-.4 2.6-1.2 3.5-3.5 3.7-6.4.6-7.3 1.3-14.6 2.2-21.8.7-5.4.1-7-5.1-8.5-4.1-1.2-8.2-2.8-12.5-3.6-1.9-.3-4.2.6-6.2 1.3-.7.2-1.2 1.8-1.2 2.7 0 .4 1.4 1.1 2.3 1.2 2.2.4 4.5.3 6.6 1.1 1.4.5 3.3 1.9 3.4 3.1.1 1.2-1.4 3-2.7 3.7-3.2 1.8-6.8 3-10 4.8-3.7 2-8.1 3.3-8.9 8.6-1 6.9-2.2 13.6-3.4 20.5-.5 2.7-1.5 5.3-1.8 8-.4 2.7.9 3.6 3.4 2.3zm9.9-17.8c.7 1.1 2.1 2.6 1.8 3-1.3 1.7-3.1 3.1-4.6 4.6-.8-.8-1.6-1.7-3.2-3.4 2.5-1.8 4.2-3 6-4.2zM346.5 225.2c8.7 4 17.6 7.3 26.5 10.7 2.2.8 3.9 0 3.9-2.8-1.5-11.9-2.8-23.8-4.7-35.8-.3-1.9-2.6-4.5-4.5-5.1-8.9-3.1-17-7.2-24.6-12.7-.8-.6-2-.5-3-.8-.2.9-.6 1.8-.6 2.7.8 12.5 1.6 25 2.8 37.4.3 2.4 2.2 5.5 4.2 6.4zm14.2-28.6c1.6-.4 3.8-.1 5.1.9 1.4 1.1 2.6 3.2 2.9 5 1.1 7.3 1.8 14.7 2.7 22.1.2 2.7-1.7 4.3-3.9 2.8-2.1-1.5-4.6-3.8-5.1-6.2-1.6-6.7-2.2-13.6-3-20.6-.2-1.2.6-3.8 1.3-4zm-13.7-6.9c1.4.6 3.2.7 4.2 1.7 1.5 1.4 3.3 3.3 3.6 5.3 1.1 7.3 1.6 14.7 2.3 22.1.4 3.8-1.6 5.2-4.7 3.1-1.9-1.3-4-3.6-4.4-5.8-1.2-7.2-1.8-14.5-2.5-21.7-.1-1.5 1-3.1 1.5-4.7zM75.9 341.7c7.5-1.1 14-1.9 20.6-3 .9-.1 1.9-1.1 2.5-2 1.9-3.1 2.1-6.2-.3-9.4-2.9-3.8-5.7-7.7-8.4-11.8-.8-1.2-1.3-3.1-.9-4.3.3-.9 2.3-1.6 3.7-1.8 2.5-.4 5.1.1 7.4-.7 1.8-.7 3.9-2.5 4.5-4.2 1.6-5 2.6-10.3 3.8-15.5.6-3-.6-3.8-3.5-3.1-5 1.2-10.1 2.5-15.2 3.1-2.8.4-4.3 1.4-4.9 4.1-1.4 6-2.9 11.8-4.1 17.8-.3 1.3.1 3.1.8 4.2 2.2 3.6 5 6.8 7.1 10.4 1.1 1.7 2.2 4.2 1.7 5.9-.3 1.1-3.4 1.7-5.3 2.1-2.5.5-5.2.3-7.7.8-2.8.6-3.7 3-3.4 5.5-.2.8 1.2 1.6 1.6 1.9zm21.2-48c1.3.2 2.5 1.8 3.2 2.3-.3 4.4-3.9 7.6-7.1 7-1.2-.3-2.8-2.1-2.8-3.3-.2-3.2 3.5-6.5 6.7-6zM323.9 258.5c1.4 1.5 2.6 3.2 4.1 4.6 3.8 3.6 7.9 7.1 11.7 10.8.9.9 1.1 2.7 1.6 4.1-1.7-.1-3.5 0-5.1-.5-4.8-1.5-9.5-3.5-14.4-4.9-2.5-.8-3.7.6-3.5 3.2l.6 6.6c.3 6.1.4 12.1.7 18.2.2 2.7 1.4 5.2 4.5 4.9 3.1-.3 2-3.2 1.9-5.1-.1-5-.5-9.9-.6-14.9-.1-3.9 1.5-5 5.1-3.7 2.9 1.1 5.7 2.2 8.6 3.3 4.8 1.9 9 4.3 9.1 10.4.1 5 .6 9.9 1.2 14.8.2 1.8 1.1 3.7 2.1 5.3.5.8 2 1.1 3.1 1.6.4-1.2 1.3-2.4 1.2-3.5-1-10.5-2.1-20.9-3.5-31.4-.3-2.4-1.6-5-3.2-6.8-3.8-4.4-8-8.5-12.1-12.5-3.5-3.3-7.7-4.9-12.4-5.6-.1.4-.4.7-.7 1.1zM135.2 276.2c-.8.3-1.9 1.2-1.9 1.8 0 .7.9 1.8 1.7 2.1 3.8 1.4 7.6 2.8 11.6 3.9 2 .5 4.6.5 4.2 3-.3 1.8-2 4.1-3.7 4.8-5.1 2.1-10.5 3.7-15.9 5.2-3.6.9-5.2 2.7-5.7 6.6-.9 7.6-2.5 15.2-3.8 22.7-.2.8-.4 1.7-.3 2.6.2 2.1 1.4 3.2 3.1 1.6 1.7-1.7 3.4-4 4-6.3 1.2-4.8 1.6-9.8 2.4-14.7.5-3.3 2.2-5.8 5.4-7 3.9-1.4 7.9-2.8 11.9-4.1 3.4-1.1 5.1.3 4.6 3.8-.2.9-.7 1.9-.8 2.8-.9 4.7-1.7 9.4-2.6 14.1 4.5.1 6.7-1.8 7.6-6.1 1.4-8.9 2.7-17.9 3.7-26.8.2-1.3-1.2-3.6-2.4-4.2-3.9-2.1-8.2-3.5-12.2-5.5-3.8-2-7.3-1.6-10.9-.3zM206.4 208.5c1.2.3 3.2-.2 4-1.1 2.1-2.5 4.4-3.1 7.3-2.2 1.8.5 3.6 1.1 5.2 1.9 3.2 1.7 6.2 3.6 7.3 7.5.3 1.1 1.8 1.8 2.8 2.6.1.1 1.1-.6 1.3-1 1.6-2.6.3-9.4-2.4-10.3-7-2.5-9.2-8.6-12.1-14.3-.7-1.3-.2-3.1-.3-4.6 1.4.1 3.1-.2 4.3.4 2.3 1.1 3.8.9 4.5-1.7.7-2.6 2.2-2.9 4.5-1.8 2.3 1.1 3.5-.6 3.1-2.5-.3-1.4-1.8-2.6-2.9-3.7-1.2-1.2-3.3-2.1-3.9-3.6-2.2-5.5-8.1-9.9-14-9.4-1.3.1-3.3 1.7-3.4 2.8-.8 8.3-2.6 16.8 2.8 24.5.8 1.2 1.1 3.5.5 4.7-.4.9-2.7.9-4.2 1.3-5.8-.9-6.6-.3-6.9 5.3-.1.6-.3 1.4-.1 1.8.8 1.5 1.6 3.1 2.6 3.4zm13-37.1c3.1.2 4.2 2.1 4.1 5-.1 2.3-.9 3.9-3.5 3.7-3.3-.3-3.7-2.8-3.9-5.3-.3-2.3 1-3.4 3.3-3.4zM272.7 280.3c4 .3 4.3.7 2.8 4.5-.7 1.7-1.4 3.5-2.5 5-2.3 3.3-2.7 6.8-2.3 10.6.4 4.6.2 9.2.3 13.8.1 1.4.6 2.8.9 4.3 1.4-1.1 3.1-2.2 4.2-3.5.5-.6.2-1.9.2-2.9 0-4.2-.4-8.5 0-12.6.2-2.1 1.4-4.8 3.1-5.8 3.7-2.3 7.9-4 12-5.6 3.5-1.4 5.5-.1 5.7 3.8.2 3.2-.1 6.5.2 9.7.1 1.2 1.1 2.2 1.6 3.3 1.2-.7 2.8-1.2 3.4-2.3.7-1.1.7-2.8.6-4.3-.1-3.1-.3-6.2-.6-9.3.1 0 .1-.1.2 0v-3c0-1.1.1-2.2.1-3.3-.1-3.6-1.4-4.5-4.7-3.2-3.8 1.4-7.7 2.8-11.5 4.1-2.7.9-4.2-.2-3.7-2.7.3-1.3 1.2-2.4 1.7-3.7.8-2.1 1.9-4.1 2-6.2.2-2.9-2-3.8-4.5-2.3-4.5 2.7-4.6 2.6-5.8-2.5-.2-.8-.8-2.2-1.4-2.3-.9-.2-2.2.4-2.8 1.1-.8.8-1.7 2.1-1.7 3.1-.1 3.5.1 6.9.4 10.4.1.6 1.3 1.7 2.1 1.8zM309.3 211.5c.4.2 1.8-1 2.2-1.8 1.1-1.9 2.4-2.9 4.5-2 3.9 1.6 7.9 3.1 11.6 5 6.3 3.3 6.2 3.5 6.6-3.7-.4-1.7-.6-3.5-1.3-4.9-.8-1.6-2.3-1.8-3.5 0-2.3 3.5-4.1 3.6-6.1-.1-1.8-3.2-3.3-6.6-4.8-10-.3-.8-.2-2.6.3-3 .8-.6 2.3-.6 3.4-.4.8.1 1.4.9 2.2 1.3 1 .4 2.6 1.1 3 .7.7-.7.9-2.1.9-3.2-.1-3.1-.4-6.2-.5-9.2-.2-8.1-.9-9.2-8.9-10.2-2.4-.3-5-3.8-7-.7-1.2 1.9-.7 5.1-.7 7.6.2 6.7-1.4 13.6 3.3 19.7.8 1.1.5 3.2.7 4.8-1.6-.1-3.3.1-4.8-.3-1.8-.5-3.5-.7-3.8 1.4-.4 2.2-.3 4.5.1 6.6.3.9 1.6 2 2.6 2.4zm9.5-37.4c1.4.1 3 1.8 4.1 3.2.6.8.8 2.5.6 3.5-.4 1.6-1.5 3-2.3 4.4-1.5-1.2-3.2-2.2-4.5-3.7-.6-.7-.4-2.1-.8-4.3.6-.8 1.8-3.2 2.9-3.1zM272.3 219.1c1-1.2 2.6-2.3 2.9-3.6.5-2.2-.1-4.7.3-7 .3-2.4.9-4.8 1.9-7 .4-.8 2.5-1.6 3.5-1.3.8.2 1.6 2 1.7 3.2.2 2.1-.2 4.2-.1 6.3.1.7.7 2 1.1 2.1.8.1 2.2-.5 2.4-1.1.6-2.1.9-4.2 1.2-6.4.3-2.4.1-5 .8-7.2.4-1.1 2.5-2.1 3.7-2.2.8-.1 2.1 1.9 2.3 3.1.3 1.9-.4 4-.1 5.9.3 1.6 1.3 4.1 2.2 4.2 2.7.3 2.8-2.2 2.8-4.2.1-3.8.1-7.7-.1-11.5-.1-1.3-.7-2.7-1-4.1-1.2.4-2.3 1.1-3.5 1.4-1.6.4-3.5 1.1-4.8.6-1.1-.4-1.8-2.6-1.9-4-.2-2.7.1-5.5.1-8.2 0-1.7-5.1-7.6-6.7-7.9-.3-.1-.7-.1-.7.1-1.1 2.2-2.5 4.5-3.1 6.8-.6 2 .7 3.2 2.9 3.3.8.1 1.9.7 2.3 1.4 2.2 3.6-.2 10.7-3.7 12.9-2.8 1.8-6.9 4-7.4 6.7-1.2 5.4-.3 11.2-.3 16.8.3.4.8.6 1.3.9zM387.8 227.9c6.2.6 7.2 3.5 7.8 9.4.2 1.6.6 3.2 1.3 4.5.6.8 2 1.1 3.1 1.6.4-1.1 1.3-2.1 1.3-3.1 0-1.6-.7-3.1-.9-4.7-.6-4 .5-5.1 5.8-4.8.2-.1 1.6-.4 2.2-1.2.4-.6.1-2.6-.6-3-1.3-.8-3-1.3-4.6-1.3-4 .1-6.1-.9-5.7-4.5 1-8.7-6.2-13.5-8.7-20.4-.3-.8-1.9-1.3-3.1-1.4-.4-.1-1.5 1.7-1.3 2.2 1.5 4.3-.1 9.9 5.5 12.6 2.8 1.4 3.4 4.7 2.3 7.5-1 2.7-3.4 1.5-5.5 1.2-.8-.1-2.4.2-2.6.6-.3.9-.2 2.3.4 3 1 .8 2.2 1.7 3.3 1.8z"/><path fill="#1649be" d="M495.6 393.2c-4.7-15.3-9.2-30.6-13.9-45.9-4.1-13.4-8.5-26.7-12.7-40.1-4.3-14-8.5-28-12.9-42-4.7-15-9.7-30-14.4-45-2.5-7.7-4.7-15.4-7.1-23.1-.9-3-2.2-5.7-6.4-3.7-1 .5-3.2-.6-4.4-1.6-2.4-2-4.5-4.5-6.7-6.7-2.6-2.6-5.3-5.1-8-7.6-.9-.9-1.9-1.7-2.8-2.6v-.1c-.1-.1-.2-.1-.3-.2l-.1-.1c-1-.7-1.9-1.6-3-1.7-4.2-.8-8.6-1.2-12.8-2.1-6.5-1.3-13.4-.7-19.3-4.5-3.5-2.2-7.4-4-11-6-5.5-3-11.1-5.8-16.6-9-9.1-5.1-17.1-12.4-28.2-13.3-.3-.1-.5-.2-.7-.2-11.9-3.2-23.5-2.3-34.8 2.8-3.1 1.4-6.3 3.1-8.9 5.2-4.7 3.9-9 8.2-13.4 12.4-3.6 3.5-4.7 3.4-7.5-.7-8.7-12.6-20.5-19.9-36-21.4-17.4-1.7-33.1 3.2-47.7 12.1-4.6 2.8-8.9 6.4-13.6 9.1-7.3 4.1-14.7 8.2-22.5 11.3-5.8 2.3-11.6 5.9-18.5 4.5-2.3-.4-15.4 0-17.8.5-.8.2-1.4 1.6-2.1 2.4l-.1.1c-4 4.8-7.7 10.1-14.2 12-.6.2-1.1 1-1.5 1.6-1.7 2.6-4.1 3.5-7.1 2.9-3.1-.6-4.6.7-5.5 3.6-5.3 17.9-10.5 35.9-15.8 53.7-4.7 15.7-9.6 31.4-14.3 47-3 10.1-5.8 20.3-8.8 30.4-3.1 10.6-6.4 21.1-9.7 31.6-4 12.9-8.1 25.8-12.2 38.6-.3.8-.3 1.4-.3 1.9-.2 1.3-.2 2.7.4 4.2 75.2-.4 150.3.7 225.4-.2l.7.7s4.5 5.2 20.9 6c12.1.5 19.3-4.2 22.3-6.7l-.2.2c75.3.9 150.6-.2 225.9.2 1.6-4.1-.8-7.2-1.8-10.5zM258.8 161.4c3.8-4.2 8-8.1 12.3-11.9 6.5-5.9 14.5-8.1 23-9.5 7.8-1.2 15.3-.8 22.7 1.9 2.9 1.1 6.2 1.2 8.9 2.6 7.9 4.3 15.4 9.4 23.3 13.8 12.6 7.1 25 14.8 40.1 15.7 5.4.3 10.7 1.4 16.1 2.2.2 1.2.4 2.4.7 3.5 1.9 7 4 13.9 5.8 20.8 6.9 25.5 13.6 51.1 20.4 76.6 5.3 19.8 10.7 39.5 15.9 59.3 2.3 8.6 4.1 17.4 6.7 26 2 6.5 1.5 8.2-5.1 9.6-18.3 3.9-36.3 2.4-54.2-2.3-13.1-3.4-25.2-9.4-37.3-15.6-14.5-7.5-30-12.5-46.6-12.6-13.5-.1-26.7.7-38.9 7.7-7 4-12.5 9.2-16.9 15.8-.7 1.1-2.5 1.6-3.7 2.3 0-.1-.1-.1-.1-.2l3.7-201.1c.9-1.6 1.9-3.2 3.2-4.6zm-177 64.1c4.1-15.8 8-31.5 11.9-47.3.1-.3.1-.7.1-1 12.1.1 33.7-3.1 44.2-8.4 9.8-4.9 18.7-11.6 28.2-17.2 7.9-4.6 15.8-9.5 25.1-11 7.7-1.2 15.4-1.3 23.3-.9 12.6.7 21.7 7 29.5 15.8 2.9 3.3 5.2 6.9 7.7 10.6l-5.9 201.5-.4.4c-.9-1-2.1-1.8-2.7-3-1.1-1.8-1.6-4.2-3-5.8-6.9-8.1-16-13.1-26-15.2-18.9-3.9-37.9-3-56.1 3.8-9.1 3.4-17.8 8.1-27 11.5-8.9 3.3-18.1 6.1-27.4 8.5-17.7 4.5-35.6 6.7-53.8 4.3-4.6-.6-5.6-2.5-4.4-6.9 2.6-9.3 5.1-18.6 7.6-28 5-19.1 9.7-38.2 14.7-57.3 4.7-17.9 9.6-36.1 14.4-54.4zm408.3 174.9c-9.3.4-18.6.7-27.9.8-43.6.1-87.2.1-130.8.1-19 0-38-.1-57 0-.4 0-.8.3-1.3.7-.3.3-1 .7-1.9 1.2-3 1.6-9.3 3.8-20 3.8-11 0-18.6-2.7-22.5-4.4v-.1c-1-.2-1.8-1.2-2.8-1.4l-.1-.1.1.1h-.2c-19-.1-38 0-57 0-43.6 0-87.2.1-130.8-.1-9.3 0-18.6-.4-27.9-.8-1 0-1.8-.2-2.5-.5 0-3.2-.5-5.7.1-7.9 6.4-21.7 13-43.3 19.4-64.9 6.1-20.6 12.1-41.2 18.3-61.8 5.3-18 10.8-35.9 16.2-53.9 1.2-4.1 2.4-8.1 3.7-12.1.7-2.1 2.2-3.9 4.8-3 2.7.9 2.2 3.2 1.6 5.3-.4 1.4-1 2.8-1.4 4.2-5.5 19.1-11 38.2-16.5 57.2l-15 51c-7.2 24.6-14.5 49.2-21.8 73.9-.8 2.7.1 3.8 2.8 3.7 1.7-.1 3.5-.3 5.2-.3 33.8 0 67.6-.1 101.4 0l92.8.3c2.2 0 3.2-.9 3.8-3.1.6-2.2 1.4-4.6 2.9-6.3 4.9-5.7 10.2-10.9 18.8-9.9 1.4.2 3-.1 4.5-.3 5.5-.8 10.7-.1 15.4 2.8 5.8 3.6 11.6 7.3 12.2 15.3.1.8 1.9 2.2 3 2.2 13 .1 26.1-.2 39.1-.2 21.7.1 43.4.4 65.2.5 26 .1 51.9 0 77.9.1 6.6 0 13.1.1 19.8.1 3.4 0 4.3-1.1 3.4-4-2.9-9.2-5.9-18.4-8.7-27.7-8.7-28.5-17.3-57-25.9-85.5-7.5-24.6-14.9-49.2-22.3-73.8-.6-1.9-1.2-4.2 1.3-5 2.6-.8 3.3 1.5 4 3.5 1.4 4.2 2.7 8.5 4 12.8 8.8 28 17.6 55.9 26.3 83.8 4.6 14.7 9 29.4 13.6 44.1 5.6 17.8 11.3 35.5 16.9 53.3 1 4-.4 6.1-4.2 6.3z"/><ellipse fill="#1649be" cx="249.9" cy="390.2" rx="20.5" ry="10.8"/></svg>
