<svg id="Layer_1" xmlns="http://www.w3.org/2000/svg" viewBox="0 0 500 500"><path fill="#c29f53" d="M109.2 109.4H165L62.8 393H7l102.2-283.6z"/><g id="Layer_3"><path fill="#c29f53" d="M201.2 217.4c26.1 8 59.6 12.7 96.2 12.7 83.5 0 151-25.1 151-55.8 0-17.9-22.5-33.6-57.8-43.9-72.8 7.2-161.8 28.2-189.4 87z"/><path fill="#c29f53" d="M297.4 118.7c-83.5 0-151 25.1-151 55.8 0 5.8 2.5 11.5 7 16.9 50.6-39.1 142.5-57.1 218.3-65.5-22-4.7-47.2-7.2-74.3-7.2zm-143.9 72.7c-15.7 12-27.4 26.1-33.4 42.4-43.4 117.2 244.7 159 370.3 159v-13.9S188.3 397.4 193 253.5c.5-13.4 3.3-25.4 8.4-36.1-22.2-6.7-38.9-15.7-47.9-26zM495 127.9v-9.4s-55.1-.3-123.4 7.2c6.7 1.3 13 3 19 4.7 57.3-5.3 104.4-2.5 104.4-2.5z"/></g></svg>
