<svg id="Layer_1" xmlns="http://www.w3.org/2000/svg" viewBox="0 0 500 500"><path fill="#80983d" d="M443.8 122.8v334c-18.5-27.1-45.9-42.2-71-60.1-54-38.7-108.4-76.8-162.8-115-4.4-3.2-5.4-5.4-2.1-10.1 8.9-13.2 17.1-26.6 25.7-39.9 1.7-2.6 3.8-4.3 6.6-5.7 66.5-33.6 133-67.1 199.1-101.8 1.2-.6 2.5-1.7 4.5-1.4zM54.7 417.5v-20.6c0-73.6.2-146.9-.2-220.5 0-6.1 2-9 7.3-11.6 54.4-27.5 109.3-54.1 166.1-76.6 18-7.2 36.1-14.2 55.4-17.7 4.9-.9 9.8-1.5 13 2.9 3.2 4.4.9 9-1.2 13.5-11.6 22.8-26.8 43.4-41.3 64.5-9.3 13.6-19.1 26.9-28.6 40.4-2.1 3.1-4.7 5.2-8.1 7-19.1 10.7-38.2 21.4-57.3 32.3-6.9 4-13.3 8.7-18.7 14.5-15.7 17-18.3 38.5-7.2 61.2 1.7 3.5 2.9 6 0 9.8-25.4 32.4-50.5 65-75.7 97.4-.6.5-1.6 1.3-3.5 3.5zM387.7 493.8c-2.3 1.4-4.7.8-7.2.8H62.4c-2.6 0-6.9 2-7.3-2.1-.6-4.1-2-8.6 2.8-12.4C72.3 468.8 85 455.5 97 441.7c5-5.8 8.7-12.1 8.4-20-.2-3.1 1.2-5.5 3.1-8.1 17.4-23.9 35-47.7 52.3-71.7 2.9-4 5-4.6 9.2-1.7 71.6 50.2 143.3 100.3 214.8 150.5.9.6 2.7 1.1 2.9 3.1z"/><path d="M276.2 165.5c17.6-27.4 33.9-53.7 50.9-79.4 21.9-33.2 18.3-36.7 1.7-71.4-1.1-2.1-2.4-4.3-3.7-6.3 1.8-2.1 4-1.2 5.8-1.2 35.5 0 71 0 106.4-.2 5.2 0 7 1.1 6.9 6.7-.2 19.5-.2 38.9-.1 58.3 0 3.2-.8 5.4-3.8 7-53.2 29.2-106.6 58.1-160.9 85.5-.3.2-.9.3-3.2 1z" fill="#7f983d"/><path fill="#80983d" d="M230.8 7c-55.5 18.7-110.5 38.6-166 57.8 5.4-9.9 12.4-18.2 21.1-25.4 3.2-2.6 6.3-5.2 9.5-7.6 1.2-.9 2-2 1.4-3.5-.8-1.5-2.3-1.2-3.5-1.1-3.2.5-6.1 1.7-8.9 3.2-9.5 5.5-19.1 10.9-29.5 16.7v-37C54.9 7 56.9 7 59 7H230.8z"/></svg>
