<svg xmlns="http://www.w3.org/2000/svg" viewBox="0 0 500 500"><path d="M250.3 8C117.6 8 10 115.6 10 248.3s107.6 240.3 240.3 240.3S490.6 381 490.6 248.3 383 8 250.3 8zm168 408.3c-44.8 44.8-104.6 69.6-168 69.6-63.4 0-123.2-24.6-168-69.5-44.8-44.8-69.6-104.6-69.6-168.1s24.8-123.2 69.6-168 104.6-69.6 168-69.6c63.5 0 123.2 24.8 168 69.6s69.6 104.6 69.6 168c0 63.4-24.8 123.2-69.6 168z"/><path d="M251.5 25.8c-121.7-.4-221.2 98.8-221.3 220.7-.1 122.1 98.8 221.5 221 221.6 121.6.3 221-99.2 221.3-221 .2-121.7-98.8-220.9-221-221.3zm1.8 4.1c9-.9 23.7 6.6 28.5 15.1h-28c-2.2 0-2.3-1.1-2.2-2.7.1-1.3-.8-3.2 2-3.1 1.1.1 3 .8 2.8-1.3-.1-2-1.9-1.2-3-1.2-3.1-.1-1.8-2.4-1.9-3.8 0-1.1-.8-2.7 1.8-3zm74.4 81.8c.1-4.3 3.2-7.1 6.1-10 8.3-8.5 8.2-8.3 17.6-1.6 4.2 3 6.5 6.2 5.8 11.6-.4 3-.1 5.9-.1 8.9 0 4.6-.1 9 0 13.6 0 1.9-.5 2.4-2.4 2.4-8.2-.1-16.4-.1-24.6 0-1.9 0-2.4-.5-2.4-2.4 0-7.6-.3-15.1 0-22.5zm26.6-26.6c2.3-.1 2.8.7 2.8 3-.1 4.2 0 8.5 0 13.2-4-2.8-7.8-5.5-11.6-8.1-1.3-.8-1.3-2-1.3-3.4v-6.3c0-1.1 0-2-1.5-2-1.2 0-1.5.9-1.3 1.7 2 8.1-3.5 12-8.6 16.2-1.6 1.3-3 3.1-4.8 5V63.3c9.4 5.1 18.6 10.2 27.7 15.1 1.2.7 1.5 1.6 1.3 2.7-.1 1.9-1.6 1.1-2.6 1.3-1.2.3-3.4-.9-3.4 1.3s2.3 1.6 3.3 1.4zm9.7 51.7c-3.6.5-4.4-.9-4.3-4.4.3-8.1.1-16.2.1-24.2 1.2-.7 1.9.4 2.6.9 38.5 31.4 60.7 71.6 66.5 121 1.5 12.5 1.2 25.2 0 37.8-.3 2.6-.9 3.4-3.5 3.2-4.3-.1-8.5-.1-12.8 0-1.6 0-2.6-.3-2.6-2.3-.1-10-.3-19.9-.3-30.6 3.2 3 5.8 5.4 8.3 7.8.8.8 1.5 1.7 2.7.4 1.1-1.2-.1-1.6-.7-2.3-.3-.3-.5-.7-.9-.8-8.8-5.4-11.3-13.3-9.7-23.2 0-.4.1-.8 0-1.2-.7-2.8 3.1-1.1 3.2-3.4.1-2.7-3.1-.7-3.2-2.8-.3-2.7 3.5-.7 3.4-3.4-.1-2.4-3.5-.3-3.4-2.8.1-2.3 3.8-.5 3.2-3.4-.4-2.2-3.9 0-3.4-2.7.3-1.5.1-2.7-1.6-2.6-1.5 0-1.7 1.2-1.3 2.4.3.8 0 1.3-.7 1.6-3.4.9-3.2 1.9-.3 3.4 1.3.7 1.2 1.8-.1 2.6-2.4 1.6-2.4 1.6 0 3.2 1.3.9 1.3 1.7-.4 2.6-2.6 1.2-2.4 2.6 0 3.2 1.7.5 1.3 1.3 1.5 2.4v2.6c0 12.7 0 12.5-12.8 11.6-1.9-.1-2.4-.7-2.4-2.6 0-17.1-.1-34.3-.1-51.4 0-.8-.5-2.2 1.2-1.9 1.1.1 2-.3 2-1.6s-.9-1.8-2-1.5c-1.3.3-1.3-.5-1.3-1.3s-.1-1.7 1.3-1.3c1.1.3 2-.3 2-1.5 0-1.3-.9-1.8-2-1.6-1.3.1-1.2-.7-1.3-1.5-.1-1.1.3-1.5 1.5-1.2 1.1.1 1.9-.4 1.9-1.7 0-.9-.7-1.5-1.2-1.3-2.3.4-2.3-.8-1.9-2.4.3-.9-.4-1.6-1.3-1.7-1.2-.1-1.9.5-1.7 1.7 0 .8.5 2-.3 2.3-1.2.3-2.8-.3-2.7 1.8 0 1.9 1.9 1.1 2.8 1.6.4.3 1.5 2.4-.8 2.6-1.1 0-2 .4-2 1.6 0 1.2.9 1.6 2 1.6 1.1-.1 1.1.5 1.2 1.2 0 .9-.1 1.6-1.3 1.5-1.1-.1-2 .5-1.9 1.7.1.9.9 1.5 1.8 1.3 2.4-.1 1.3 1.8 1.3 2.7.1 8.3 0 16.7-.4 25.3-.7-2.3-1.3-4.7-2.2-7-5.2-14.9-12.4-28.8-24.9-39.3-1.2-.9-1.2-2-1.2-3.4 0-4.2.3-8.2 0-12.4-.3-3.5.9-4.8 4.4-4.4.9.1 3 .9 3.1-1.1.2-2.3-2-1.5-3.1-1.4zm19.8 208.8c-2-4.4-2.6-9-.9-13.6.8-2.4 2.4-4.2 5-4.7 2-.4 3.6.5 4.6 2.3.9 1.9.5 3.4-1.2 4.3-1.2.7-2.3 1.3-1.5 2.4.9 1.3 2.3.1 3.2-.5 2.3-1.5 3.1-3.8 2.3-6.3-.8-2.8-2.7-4.6-5.7-5-3.8-.5-7.5 2-9.2 6.2-1.2 3.1-1.2 6.3-1.1 10-2.2-.3-4.2-1.1-6.2-.7-3.5.7-6.1 2.6-6.6 6.2-.4 3 .5 5.3 3.4 6.6.9.4 2 1.1 2.7.1.8-1.2-.1-1.9-1.3-2.4-2-.8-2.6-2.6-2-4.6.5-2.2 2.3-3.2 4.4-3.4 3.5-.3 6.5.8 7.9 4.3 1.6 3.8.3 8.6-3.1 11-3.5 2.7-9.2 2.6-13.2-.1-4-2.8-6.7-9.2-5.5-12.9.3-.9 1.1-1.6 1.7-2.3 6.3-6.9 12.7-13.7 18.8-20.7 1.8-2 3.5-3 6.2-2.8 3.4.3 6.9 0 10.2 0 1.1 0 2-.1 1.9-1.5-.1-1.2-.9-1.2-1.9-1.2h-13.6c-1.9 0-2.7 1.3-3.6 2.6-6.5 6.9-12.8 13.9-19.9 21.7 0-10.6.1-20.2 0-29.6 0-2.4 1.1-2.7 3-2.7 10.9.1 21.8.1 32.7 0 1.1 0 3.2 1.1 3.2-1.3 0-2.3-2.2-1.3-3.2-1.2-3.2.4-4.2-.7-4-3.9.3-8.3.1-16.7 0-25 0-2 .3-3.1 2.7-3.1 8.9.1 17.8 0 27.7 0-6.2 4.8-11.6 9-17 13.2-3 2.2-4.7 4.8-5 8.5-.3 3.8 1.3 6.6 4.6 8.5 3.1 1.8 6.2 1.9 9.3 0 3.5-2.2 4.3-6.9 2-10-2.3-2.8-6.5-3-8.3 0-.4.7-1.5 1.7-.4 2.6.7.4 1.6.4 2.3-.5 1.3-2 3.1-2.2 4.4-.1 1.3 2.2.9 4.3-1.3 5.9-2.6 1.8-6.3.9-8.3-1.6-2.3-2.8-1.9-7.4 1.3-9.8 6.9-5.4 14-10.6 21-15.9.3-.3.8-.1 1.2-.3-4.2 40.3-30.3 88.7-67.4 115.4v-32.4c2.8 2.6 5.4 4.8 9 5.5 5 .9 9.4 0 12.8-3.8 3.4-4.2 4.1-8.7 1.9-13.4zm-26.8 72c0 3-1.9 2.2-3.4 2.2-1.6 0-3.4.5-3.4-2.3.1-6.9 0-13.9 0-20.7 0-4.4 4.6-2.2 6.7-4 .1 8.3 0 16.6.1 24.8zm-4.5-26.3c-2.8 1.1-5.8 1.5-8.3-.9-.8-.7-.9-1.5-.4-2.3 2.4-4.6 1.1-9.4.5-14.1-.5-4.6-1.2-9.3-2.3-13.9-2.6-11.6-.7-22.8 1.9-34.1 3.4-14.7 5-29.6 3.1-44.7-.7-5.7-3.2-10.9-4.6-16.4 8.5 9 14.4 19.4 14.5 32 .3 29.8.1 59.5.3 89.3 0 3.4-2.3 4.1-4.7 5.1zm-11.2 32.8c.1 1.2 0 2.6 0 3.8.1 1.5-.3 2.4-2 2.4-2.7-.1-5.3 0-8.6 0 5.7-6.2-.4-10.5-1.8-15.7h16.3c1.9 0 2.4.7 2.4 2.6 0 1.9-.3 3.2-2.4 2.7-3.9-.9-4.2 1.4-3.9 4.2zm-22.9.5c-.4-7.5.7-15.3-1.6-22.8-.5-1.8 5.8-8.5 7.9-8.6 1.1 0 2.4.1 4.3.1-1.5 4.2-2.7 7.7-4 11.3-1.3 3.6-1.1 7.1.9 10.5 1.3 2.3 2.6 4.7 3.8 7.1.8 1.6 1.6 3.5-.1 5-2.8 2.6-6.3 2.4-9.7 1.6-2.2-.4-1.4-2.5-1.5-4.2zm-91.1 17.8c2-3.1 3.8-5.5 5.4-8.1.4-.7.9-1.2 1.6-1.1.8.3.7 1.1.7 1.8 1 7.4.6 7.8-7.7 7.4zm7.8 4.9c0 2.2-1.2 2.2-2.8 1.9-5.4-.7-10.8-.5-16 .5-1.7.4-2.3.1-2.3-1.6v-12.8c0-1.5.3-2.3 2-2.3 4.6.3 9 .1 14.3.1-2.7 4.2-5 7.7-7.8 11.8 3.8 0 6.9.1 10.1 0 1.7.1 2.5.5 2.5 2.4zm-70.7-16.6c-2.4 0-3.5-.5-3.1-3.1.1-.9-.1-2 0-3 .7-3.6-.7-5.2-4.6-4.7-1.6.3-3.6.7-3.6-2.4 0-3.4 2-2.7 3.9-2.7 6.7-.3 13.6-.3 20.5-.3 0 .7.1 1.1 0 1.2-2 3.4-3.5 6.7.5 9.7 2.8 2.2 9.2 1.6 12-.9 1.9-1.8 1.3-4.2 1.7-6.3.3-1.1-1.1-2.8.7-3.2 1.5-.4 3.5-.9 4.7.5 3.2 3.8 6.6 4 10.4 1.1.9-.8 1.5-.8 2.3.3 1.3 1.6 3.2 2.8 4.3 4.7 3.4 5.7 8.6 5.7 14.1 5.1 2-.1 4-.7 4.7-3 .7-2.6-.4-4.4-2.4-5.8-1.5-.9-3.1-1.7-5.4-3H276c-.5 1.7-2.2 2-3.2 3-3.1 2.6-5.4 5.4-4.2 9.8.7 2.3-.1 3-2.6 3H164.4zm-16.3-94.9c2.6 7.7 2.4 15.6 2.3 23.6-.1 19.1-.1 38.2 0 57.3 0 2.8-.9 3.2-3.4 3.2-2.4 0-3.5-.3-3.5-3.2.1-84.5.1-168.9.1-253.5 0-.3.1-.7.3-1.6 4.6 1.6 8.6 3.2 12.9 3.9 1.6.3 2 1.2 1.9 2.7-.5 7.8 1.6 14.8 6.1 21.3.8 1.2.9 2-.4 2.7-.1 0-.3.1-.4.3-16.8 10.4-18.8 26.4-15.6 43.5 1.9 10.1 2.3 19.8-.4 29.8-1.2 4.3-.8 8.5 1.6 12.3.9 1.5.9 3 .9 4.4v46.3c0 1.6.4 3.4-1.9 4.2-1.6.4-.8 1.8-.5 2.8zm-.8-253.2c-1.2-.3-3 .8-3.5-1.3-.4-2 1.1-2.7 2.4-3.4 8.8-4.8 17.6-9.6 26.8-14.7v41.7c-4-4.3-7.8-8.1-12.1-11.2-1.2-.9-1.2-2.2-1.2-3.4V84c0-.8 0-1.7-1.2-1.7-1.2-.1-1.3.7-1.5 1.6v.4c1.9 7.4-2.6 11.3-7.9 14.8-1.7 1.1-3.2 2.6-5.4 4.4 0-5.9.1-10.9 0-15.9-.1-2.8 1.6-2.3 3.4-2.4 1.1-.1 3 .7 3.1-1.2.1-2-1.8-1.2-2.9-1.4zm26 51.3c0 2.4-.9 2.7-3 2.7-4-.1-7.9 0-11.8 0h-12.2c-1.9 0-2.4-.5-2.4-2.4.1-8.5 0-17 0-25.4 0-.8 0-1.6.8-2.3 4.2-3.9 8.6-7.3 13.1-10.8 1.1-.8 1.7 0 2.6.5 4.2 3.2 8.1 6.7 11 11 1.2 1.7 2.2 3.6 2 5.9-.1 6.9-.2 13.9-.1 20.8zm-29.6 6.4c.4-1.9 2-1.1 3.2-1.1h29.3c-4.3 3.1-7.5 5.7-10 8.9-.7.9-1.5.9-2.6.7-5.9-1.3-11.8-2.7-17.5-5.1-1.3-.7-2.8-1.2-2.4-3.4zm34.6-3.6c-2.7 0-2.4-1.5-2.4-3.2V64.7c0-1.6-.5-3.9 2-3.9 2.6 0 2.8 2 2.8 4.2v68.4c0 1.5.4 3.3-2.4 3.3zm32-51.7c2.4-.1 3.2.7 3.1 3.1-.1 4.8 0 9.8 0 15.6-4.4-4.4-8.3-8.3-13.1-11-1.2-.7-.9-2-.9-3.1v-6.7c0-.9-.4-1.6-1.5-1.5-.9 0-1.3.8-1.2 1.3 2.6 9.3-5 12.7-10 17.6-.7 1.1-1.6 2.2-3.1 3.6V63c9.6 4.4 19 8.8 28.3 12.9 2.4 1.1 1.5 3.1 1.5 4.7 0 2.4-2 1.2-3.2 1.6-1.2.3-3.4-.8-3.5 1.2 0 2.5 2.3 1.6 3.6 1.6zm-21.8 17.9c11.4-11.3 7.7-10.5 19.1-1.1 4.4 3.6 6.6 8.1 6.1 14s-.3 11.8 0 17.8c0 2.3-.5 3-2.8 2.8-3.2-.3-6.5 0-9.7-.8-5.8-1.3-11.6-1.1-17.6.7 0-8.5-.1-16.4 0-24.4-.1-3.7 2.3-6.6 4.9-9zm95.6-23.8c.1 2.7-.5 4-3.5 3.5-.9-.1-2.2-.1-2.2 1.3 0 1.3 1.2 1.5 2.2 1.2 3-.5 3.4.9 3.4 3.5-.1 14.9 0 29.8-.1 44.7 0 1.1 1.1 3-1.3 3.2-2.2.3-2.7-.7-3.2-2.7-4.7-15.8-13.2-29.6-21.9-43.3-3.9-6.2-6.7-12.2-5.8-19.7.1-1.1.8-2.8-1.2-3-2.4-.1-1.8 1.9-1.6 3.1 1.1 7.5-1.7 13.5-5.8 19.7-7.7 11.7-14.5 23.8-19.4 37.2-.8 2.3-1.5 4.6-1.9 6.9-.4 2-1.6 1.9-3.1 1.9-2.2.1-1.6-1.5-1.6-2.6 0-15.5 0-30.8-.1-46.3 0-2.6 1.2-2.7 3.1-2.6 1.1 0 2.6.4 2.7-1.2 0-1.7-1.5-1.5-2.6-1.3-2.8.4-3.2-.9-3.2-3.4.1-7 .1-13.9 0-20.9-.1-2.7.5-3.6 3.5-3.5 10.1.1 20.2 0 30.4 0 10 0 19.8.1 29.8 0 2.6 0 3.8.4 3.6 3.4-.5 7-.4 13.9-.2 20.9zm1.6 105.9c-2.3-3.6-2.7-7-.1-10.6 1.2-1.6 1.3-3.6 1.3-5.7 0-3.1.4-6.2 2.2-9 2.3-3.8 5.7-4.7 10-3-8.8 5.1-12.3 17-8.1 28 1.3 3.5 1.5 7.1 1.7 10.8.1 2.2-.7 2.8-2.7 3.4-3.8.8-7.3.4-10.9-.4-2-.4-2.4-1.7-2.2-3.4.3-2 1.6-1.5 3-1.2 2.7.7 5.1.5 6.9-1.9 1.9-2.5.2-4.8-1.1-7zm35.8-1.3c1.2 3.8 4 7.1 7.7 7 6.1-.1 7.3 4.2 9.4 7.9 0 .4.1.8.7 2.4-3.1-1.7-5-3.1-7.1-4.2-3.8-1.9-7.7-3.2-11.8-1.6-2.3.8-2.8 0-3.2-2.2-.8-3.5-.9-6.9-.3-10.5.8-4.7.4-9.7-.7-14.4-1.1-5-3.6-8.9-8.9-10.5 5-3.5 9.2-2.7 12.3 2 2.6 3.9 2.7 8.2 1.8 12.7-1 3.8-1.1 7.6.1 11.4zm20.6-14.3c-.1-2.3.5-3.4 2.7-3.6 4.2-.7 7.9-2.6 12.1-4v67.4c-7.4-7.9-13.2-16.2-14.4-26.9-.4-3.1-1.5-6.2-3.6-8.5-2.7-3.1-2.3-5.5-.3-8.9 2.8-4.7 3.8-10.1 3.5-15.5zm-1.1-7.8c-.7-3.4-2-6.2-3.6-9.6 6.7-1.5 13.1-3.2 19.7-5.8v10c0 .5 0 1.2-.1 1.6-.7 1.6-13.2 6.2-14.8 5.4-.6-.3-1-1.1-1.2-1.6zM295.4 195c-.9-3.1-.1-5.2 3.8-7.3 3.5-1.8 6.1-1.8 8.9.4 2.2 1.7 6.2.5 6.6 4.7.3 3 .1 5.9-.8 8.8-.7 2.4-1.2 5-1.9 7.4-2.2 6.6-7.1 9.8-13.7 9.6-5.5-.3-7.1-2.4-5.3-7.7 1.7-5 2.5-10 2.4-15.9zm17.5-28.2c-2.2.4-4.3.7-6.5 1.1-.8.1-1.8.3-1.3 1.5.3 1.1.9 1.1 2 1.1 7.4-.1 7.4-.1 7.5 7.4v1.7c-.3 8.2-.3 8.2-7.7 4.8-3.1-1.5-5.8-.8-8.2 1.1-2.6 2-4 1.5-5.1-1.6-1.2-3.8-.8-7.5-.8-11.3 0-3.2 2.2-2.7 4-2.7 2.2 0 3.5.9 3.1 3.4-.4 1.9-.9 3.9-1.3 5.8-.1.7-1.1 1.6.3 2.2.9.4 1.8 0 2-.9.7-2.8 1.5-5.8 1.9-8.6.3-1.9-1.2-3-3-3.6-2.3-1.2-4.4-.5-6.6-1.2 1.2-4.4 3.9-6.9 8.3-7.1 5.5-.6 9.1 1.7 11.4 6.9zM279 201.4c3.8.9 7.5 1.3 11.3.3 2.4-.7 2.4.5 2 2.2-.4 1.9-.9 3.8-1.6 5.7-2.7 7.9 0 11.7 8.5 11.8 7.1 0 12.8-4 15.2-11.2.7-2.2 1.2-4.3 1.7-6.6 1.5-5.5 4.3-7.3 10.1-6.2 5.1.8 8.5 5.1 13.3 6.5.3 0 .5.7.5.9 0 .8-.5.8-1.2.8-8.8-.1-15.2 3.9-20.6 10.6-2.7 3.4-6.7 5.1-10.9 6.2-9.3 2.6-17.9 6.2-23.4 14.8-.4.7-1.2 1.5-1.9 1.5-10.8.9-19 7.7-28 12.4-1.1.5-2.2 2.2-3.2 1.3-1.5-.9-.9-2.8-.7-4.3.7-2.8 1.9-5.4 3.9-7.4 7.5-7.1 11.4-16 12.7-26.1.7-5.9 4.6-9.4 8.6-13.1 1.2-1 2.5-.5 3.7-.1zm-17.5 80.9c-4.7-8.2-3.4-12.4 4.3-17.9 5.8-4.2 12.1-7.3 18.6-10.1 4.8-2.2 9.8-1.9 14.8-.3-2.8 11.7-10.1 20.3-18.4 28-4.6 4.2-7.7 9-9.6 14.7-1.3 4.3-2.6 8.6-6.1 13.3.1-2.4 0-3.8.3-5 1.7-8 .1-15.4-3.9-22.7zm5.5 72.6c2 1.8 2.6 3.2 1.1 6.1-3.1 6.2-4.6 13.1-5.3 20.1-.9 10.2 4.2 15.3 14.3 14.1 3.5-.4 4.8.7 5.1 3.9.1 2.2.7 4.2.5 6.3-.1 4-2.8 6.6-7 6.6h-48.9c-1.2 0-3.5 1.2-3.6-1.3 0-2.3 2.2-1.6 3.5-1.9 3.1-.8 6.3-1.3 9.4-2.3 5.8-1.9 8.1-6.1 4.6-11.2-7.1-10.4-5.5-21.3-3.8-32.3.5-3.4 1.6-6.7 4-9.3 7.8-7.9 8.2-17.2 5.9-27.2-1.5-6.5-1.7-12.7 1.5-19 2.3-4.6 1.2-9.7.1-14.5-.7-3.2-.8-6.5-.1-9.7.8-3.9.8-7.8-.1-11.7-.8-4.4.1-8.7 1.9-13.3 2.3 3 4.4 5.7 7.1 7.8 1.1.8 1.3 1.5.5 2.8-2.3 3.5-2.6 7.5-.3 10.9 8.8 12.5 5.4 26 3.9 39.3-.5 4.6-1.2 9.3-1.7 13.9-.8 8.4.5 16.1 7.4 21.9zm82.6-97.5c.5 1.6-1.2 2.2-1.9 1.2-1.3-1.7-3.6-2.6-4.3-5-1.2-4.3-2.8-4.7-6.1-1.5-3 3.4-3 3.4-5.8 3.5.4-5.1.4-5.1-7.4-2.8-.8-4.2 1.5-7.1 3.8-10.2 3.5-4.6 3-7-2.3-9.6 2.2-2.7 5.1-3.8 8.3-4.4 3.1-.5 4.2.9 3.6 3.9-.3 1.1-.7 2.2-.9 3.2-1.9 5.5-.5 7.1 5.4 7 .9 0 2-.1 3 0 4 .4 5.9 3 5.1 6.9-.5 2.6-1.4 5.2-.5 7.8zm-7.1-19.2c-.7 1.2-1.5 2.7-3.2 2-1.9-.8-.5-2.2-.3-3.2 1.1-3.4 2.8-7-.7-9.7-3.4-2.7-7-.7-10.4.8-1.3.5-2.7 1.6-3.8 2.7-2 2.2-2.4 4.2.9 5.5 1.3.5 2.4.9 2 2.7-.3 1.3-.9 2.6-2 3.1-1.5.8-2.2-.9-2.8-1.9-2.8-3.8-3.4-7.9-1.3-12.4 2.2-4.6 6.2-7.1 10.9-7.1 9.1 0 15 9.7 10.7 17.5zm-14.3 19.2c.9 2 6.2 1.8 8.8-.5 1.1-.9 2-2.2 3.8-4-.5 4.3 3.2 4.8 4.6 7.5-8.5 4-16.8 3.1-25.6.1.9-1.3 1.6-2.4 2.4-3.4 2-2.6 4.7-2.5 6 .3zm5.8 11.5c.5-1.9.7-3.5 3.2-3.5 2.7-.1 2.4 2 3 3.4 6.2 13.2 4.8 27.1 3.6 40.9 0 .1 0 .3-.1.4-1.1 7.1-1.1 7.1-8.1 7-7.5-.1-13.7 3-19.3 7.7-3.4 2.8-6.6 5.8-9.8 8.8-5.4 5-11.4 8.9-18.4 10.9-4.6 1.5-9 3.6-13.3 6.2 1.5-4.2 4.2-7 7.7-9.3 2.8-1.8 5.2-4 6.7-6.9 4.3-8.1 10.6-14.4 17.4-20.2 14.1-12.2 22.4-27.8 27.4-45.4zm-49 130.4c-.3-1.5-.7-3-.9-4.7 3.6-1.1 7.4-1.6 11.4-.3-.9 2-2 3.8-2.8 5.7-1.6 4-1.2 7.9 1.1 11.8 1.6 2.8 2.7 6.3-1.6 7.5-7.5 1.9-14 5.8-20.5 10-1.9-4.7-.3-7.8 3.5-10 3.4-2 5.8-5 8.2-7.9 3.1-3.6 2.3-7.9 1.6-12.1zm10.4.7c2.2-5.3 3.1-5.5 8.1-3 2.7 1.5 5.5 3 8.5 3.9 2.4.8 5 9.3 3.5 11.2-.7.8-1.6.5-2.3.5-2.4-.1-4.7-.1-7-.1h-3c-7.5 0-10.9-5.2-7.8-12.5zm18.8-11.8c-.5 3.2-.9 6.5-1.5 10-4.3-.7-7.4-3.5-11-4.8-1.3-.5-.4-1.6 0-2.6 5.2-12 4.3-24.2 1.6-36.6-.7-3.1-.9-6.1-.8-9.3.3-3.2 1.2-6.1 4.3-7.8 1.5.5.4 2 1.1 2.8-.1 2.3.3 4.6 1.3 6.6 7.1 13.3 7.5 27.3 5 41.7zM287 347.6c4.3-1.3 8.6-2.8 13.2-5.7-1.1 5.7 0 10.2.9 14.9 2 10.8 2.8 21.5-1.8 32-.7 1.3-.9 3.1-3.1 2.4-5.3-1.5-10.4-.4-15.5.7-12.5 2.4-16.6-1.5-14.8-14.1.7-4.4 1.9-8.8 3.2-13.1 3-8.9 9.3-14.2 17.9-17.1zm-93.5 64.5c-1.3-.1-3.4.4-2.7-1.9.3-1.3-.3-3.9 2.6-3.4 1.3.1 3.8-.5 3 2.6.3 2.2-.8 3-2.9 2.7zm.8-7.9c-4.2-1.1-8.1-2.4-11.8-4.6-2.2-1.2-3.6-3.2-3.9-5.8 0-.3-.1-.5-.1-.8 2.2-19-4.2-37.3-4.7-56-.1-7.1.3-14.5 1.1-22.6 3.2 2.7 5.1 5.5 5.9 8.5 2.2 8.6 7.7 14.7 14.3 19.9 1.8 1.5 2.6 3 2.3 5.4-.8 7 .8 13.9 1.8 20.6 1.6 11.3-.3 22.3-1.6 33.4-.5 2.2-1.6 2.4-3.3 2zm-34.2-29.1c-.4-1.9.7-2.2 1.8-2.8 1.6-.8 3.2-1.6 5.3-2.6 1.6 11.6 3 22.6 4.7 33.8.4 3.1-1.9 3.8-3.9 5.9-2.8-12-5.3-23.1-7.9-34.3zm5.5 37c-3.1 0-5.8-.3-8.5 0-3.1.3-4-.5-4-3.9.3-15.8.1-31.4.8-47.3 3.8 17 7.7 33.9 11.7 51.2zm-7.3-110.8c.8 1.8-.4 3-1.2 4.3-1.9 2.7-2.8 5.4-2.7 8.6.5 2 1.2 4 1.8 6.1.3.8.5 2 1.3 1.9 4.3-.7 3.6 2.7 3.6 4.7 0 2.4-3 1.9-4.6 2.8-.8.5-1.8 1.1-2.8.7-1.1-.5-.7-1.5-.7-2.2v-45c0-.4.1-.8.3-1.3 4 1.8 6.5 3.8 5 8.6-1 3.6-1.6 7.2 0 10.8zm2.2 11.1c-2.4.4-.7 2.3-.8 3.4-.1 1.1.5 2.2-.7 3.6-1.9-3.4-2.6-6.5-1.1-10 1.1-2.4 2.7-4.6 3.5-7.1.8-2.4 5.4-2.3 7.1.1 1.9 2.7 1.6 6.9-.7 9.2-1.5 1.5-3.1 2.8-4.8 4.3-1.4-1.2.3-4.1-2.5-3.5zm11.3-1.1c-.3 4.4-.3 7.9-.7 11.3-.5 4.2-4.7 2.6-6.9 4.7-1.3-7.3-1.3-7.3 7.6-16zm-.9 16.8c-.5 11.2.5 22.1 2.7 32.8.5 3-1.6 3.1-3.1 3.5-2.3.7-1.3-1.6-1.5-2.6-1.3-8.6-2.4-17.4-3.8-26-.8-6.1-.9-6.1 5.7-7.7zm5.9 71c.3 1.5.9 3.6-1.1 3.9-2.2.3-1.3-2.2-1.5-3.5-1.3-9.2-2.7-18.4-3.9-27.6-.1-1.3-1.1-3 .1-3.9 1.1-.8 2.6-1.7 3.8-1.7 1.6.1 1.5 2.2 1.6 3.4.1 4.2 0 8.2 0 10.4-.6 7.5-.4 13.3 1 19zm1.1 6.2c2.2 7.8 2.2 7.8-8.1 6.5 2.8-2.4 5.4-4.4 8.1-6.5zm1.6 12.3c1.2-1.7 2.6-3.4 3.9-4.8.9-1.1 2.3-2 3.8-1.3s1.5 2.2 1.6 3.6c.1.9.1 1.9.3 3.9.7 3.2-1.8 4.7-5.5 5.1-2 .3-3.8-.1-4.8-1.8-1.3-1.6-.3-3.2.7-4.7zm1.2-15.7c2.4 1.1 4.6 2.2 7 3.1.9.4 1.6.8 1.2 2.2-.4 1.1-.8 1.3-2 1.6-5.5.6-5.5.6-6.2-6.9zm-3.1-123.6c0-.3-.1-.5-.1-.8.7-9.2-1.2-17.8-5.9-25.8-1.6-2.8-.8-6.1 0-9.2 2.3-8.3 1.6-16.2-4-23.3-3.6-4.6-8.2-6.2-13.6-6.7-.8-.1-2.4.4-2.2-1.1.3-2 .9-3.9 2.3-5.4.8-.9 1.3-.4 2.2.1 10.2 7.1 21.9 8.9 33.9 8.8 2.6 0 3.9.7 4.4 3.2 1.2 5.7 3.5 10.9.5 17-1.5 3.1.4 6.7 1.5 9.8 1.6 4.6 2 9-.1 13.6-1.6 3.6-.9 7.1.5 10.6 1.6 3.9 2.8 7.9 1.2 12.4-1.2 3.5.4 6.7 2.6 9.6 2.8 3.8 4.8 7.9 7.1 12 3 5.4 3 10 0 15.3-4.2 7-8.1 14.7-9.7 23.8-6.1-5.4-11.8-9.8-13.9-17.4-1.5-5.2-4.4-9.8-8.5-13.5-1.1-.9-2.3-1.9-1.2-3.5 6-9.3 5.3-19.3 3-29.5zm37.7-98c.4 5.7-2.3 7.4-8.5 5.4 2.3-3.4 4.8-6.6 5.7-10.6 1.1-4.7.3-6.3-4.3-7.9-.9-.4-1.9-.7-2.3-1.6-.8-1.7-1.5-3.9-3.4-4-3.4-.3-6.6-1.9-10-.9-2.7.7-4.8 2.3-5.8 5.1-.8 2.2-2 4-3.5 5.8-1.9 2.3-3.6 2-5.7.3-1.3-1.2-1.3-1.9.1-2.8 1.9-1.1 3.1-2.6 3.4-4.6.7-4.2 3.4-5.5 7.1-5.4 1.5 0 3.2 0 4.4-1.1 2.8-2.4 5.5-3.4 8.1.5.7 1.1 2.2.8 3.1.4 3.2-1.7 4.6 0 5.5 2.8.8 2.4 2.4 4.4 4.8 5.7 2.7 1.5 3.1 3.5 2 6.1-.7 2.1-.8 4.4-.7 6.8zm-24.5-15.6c1.3-3.5 10.6-2 12.5 1.5 1.1 1.9 2.4 3.1 4.6 3.4 2 .3 2.4 1.6 2.4 3.4-.1 5-7.9 15.3-12.7 16.8-.7.1-1.2.1-1.3.3-4.6.1-9.6-4.3-10-8.6 0-.5 0-1.3-.3-1.6-6-7.4 2.9-10.4 4.8-15.2zm-.4 26.2c1.3 1.5 3.8 2.2 5.5 1.5 5.4-1.9 9 1.7 13.5 4-3 1.5-4.6 4-6.6 6.1-3.6 3.6-6.3 3.9-10.5 1.1-3.5-2.4-7.5-3.1-11.6-3.2-1.9 0-3.8 0-5.4-1.1-2.6-1.7-5.7-4-5.4-7.1.3-2.3 4.2-2.2 6.6-2.8.7-.3 1.5-.1 2.2-.3 4.3-1.7 8.2-2.1 11.7 1.8zm-19.5 8.3c2.6 2.3 5.1 3.9 8.6 3.9 4.6 0 8.9.8 12.8 3.8 3.1 2.4 6.7 2 10-.1 1.6-1.1 3-2.6 4.3-4 5.2-5.9 8.9-5.2 11.4 2.2.7 2-1.2 2-2 2.4-8.6 3.9-17.5 5-26.7 5-10-.1-19.7-1.5-28.5-6.3-4.8-2.7-4.8-3-.9-6.6.3-.1.4-.4.7-.5 2-1.6 3.8-4 6.1-4.4 2-.7 2.4 2.9 4.2 4.6zm73.5 127c.4 2.3.8 4.4 1.2 6.7.9 6.1-.5 11.2-4 16.3-10 14.4-12 29.8-3.4 45.8 3.1 5.7 2.2 7.8-3.9 9.6-10.9 3.1-10.5 3-12.4-8.2-1.7-10.4-2-20.5.8-30.6 1.5-5.1-.3-10.1-2-14.9-.8-2.3-.5-3.6 1.2-5.2 2.2-2 3.9-4.4 5.9-6.7 6.7-7.3 11.3-15.2 12.1-25.4.5-7.5 2.7-10.2 7.1-12.8.3 2.4 0 4.7-1.1 6.6-3.3 6-2.7 12.4-1.5 18.8zm-4.3-21.6c-3 2.7-3 7.9-3.4 12.1-.5 5.9-2.7 10.9-6.5 15.3-3.8 4-7 8.6-11.3 12.7-1.5-3.6.1-6.1 1.7-8.3 3.5-4.6 4.3-9 2.3-14.9-2.8-8.5-.5-17.4.3-26.1.5-6.7 3.2-11.7 8.8-15.6 2.2-1.5 3.6-3 6.7-2.2 2.8.8 5.1-1.6 7.7-3.2.8 3.6-.5 6.9-.4 10 .4 7.4.4 14.2-5.9 20.2zm5.5-38c-.5 1.6.9 4-1.3 5.9-4.7 3.9-13.1 1.2-14.5-4.8-.1-.7 0-1.1.4-1.5 2.6-2.8 5-5.9 7.8-8.3 2.6-2.2 7.7 1.5 7.8 5.5 0 .8-.1 1.9-.2 3.2zm-17.9 3c.5.5 1.3 1.5.1 2-.9.3-2.2 1.2-2.8-.4-.3-.8-.4-1.6-.7-2.4-2.7-10.8-5.4-21.7-8.1-32.4-.7-2.4-.5-3.8 2.4-4.4 2.6-.5 4.2-.9 5 2.6 1.6 8.2 3.9 16.2 5.9 24.2 0 .7.1 1.6.3 2.4.3 1.3-.7 2.2-1.5 2.8-1.7 1.7-2.9 3.3-.6 5.6zm10.7-15c-2.6.3-3.9 2.7-6.2 4.6-2.3-9.3-4.4-18.2-6.7-26.9-.3-1.2-.4-1.9 1.2-2.4 7-2.7 7.9-2.3 9.6 4.7 1.3 5.7 2.6 11.3 3.9 16.8.4 1.7.5 2.8-1.8 3.2zm-23-24.8c-2.6.5-3.2 1.2-2.6 3.9 3.4 12.8 6.5 25.4 9.6 38.2.7 2.7 1.3 3.8 4.2 2.6.8-.4 1.7-.3 2.4-.5 1.3-.5 2.6-.5 3.4.8.8 1.5-.8 1.9-1.5 2.4-7.8 5.8-12.9 13.3-14.9 22.9-.5 2.4-1.5 4.7-3.6 7.1-3.4-7.5-6.7-14.5-11.2-21.1-.8-1.2-.9-2.8-.4-4.2 1.9-5.1.5-9.8-1.5-14.4-1.5-3.4-.7-6.5-.1-9.8 1.1-7.4 4.3-14.1 5.9-21.4 2.2-9.2 9.3-14.9 15.9-21 1.5-1.3 1.9.3 2.6 1.1 2.2 3.1 4.4 6.1 7.1 9.7-5.4 1.3-10.4 2.8-15.3 3.7zm3.8-16.4c-3.8 2.8-6.7 6.3-9.8 10-3.8 4.3-6.7 9-7.3 14.9-.3 2-.9 4-2.8 6.1-1.6-4.3-2.6-8.2-.5-12.8 1.7-3.8-.3-8.1-1.2-12-.4-1.5-.8-3-1.3-4.8 7.7-1.1 15.2-2.2 21.9-5.9.7-.4 1.5-.5 1.8.4.3 1.4.9 2.8-.8 4.1zM199.1 410c.8-5.7 1.5-11.2 2.4-16.8 1.7-11.3.9-22.6-.9-33.8-1.9-10.8.5-20.7 5-30.6 4.3-9.6 8.7-19.1 13.1-28.8 0-.1 0-.1-.1-.2.3-1.1.5-2.2.8-3.2h.1l.7.7v.2c-.3 1.6 0 3.5-.8 5.2.1 7.9-1.5 16 2.3 23.8 1.1 2.4-.7 5-2.3 7-4 4.8-4.4 10-1.9 15.8 3.1 7.1 3.9 14.5 1.3 22.3-3 9.2-.1 18.3.8 27.3.4 3.8.7 7.5.9 11.7-5.8-2.3-10.4-1.1-14.1 3.2-1.5 1.8-3.5 2.6-5.7 1.3-2-1.1-1.8-3.3-1.6-5.1zm20 3.5c3 2.6 5.9 4.7 9.4 6.3 1.2.5 2.3 1.5 1.9 3-.4 1.2-1.8 1.2-2.8 1.3-7 .7-12.9-3.2-16.4-10.8 2.6-1.6 5.4-1.9 7.9.2zm43.6-150.1c-2.2 1.5-3.1 1.3-4.8-.3-7.4-7-7.5-7.1 1.2-12.1 3.6-2.2 7.5-3.9 11.2-6.1 5.3-3 10.5-4.4 16.6-2.7 3.2.9 6.7.7 9.6-.7 5.8-2.7 10.8.1 15.9 1.6 2.4.7 2.6 2.3.9 4.2-2.7 3.2-6.2 4.3-10.2 4-.5 0-1.2 0-1.8-.1-15.6-4.3-27 4.5-38.6 12.2zm12-70.3c1.1 6.2-4.4 8.5-7.1 12.4-1.8 2.4-2.8 5.1-3.2 8.2-1.3 9.6-5 18.2-12.1 25-4 3.9-6.1 8.9-4 14.7.5 2-.4 3.4-1.2 5-2.6-1.6-3.4-3.8-3.9-6.2-1.9-8.3-3.9-16.6-5.8-24.8-.3-1.5-.4-3-2.6-2.4-.7.1-1.3 0-1.9-.7-3.4-4.6-7.7-8.8-9.7-13.9-1.6-3.9-3.2-7.7-5.7-11.2-1.3-1.9-1.6-3.2.4-5.2 5.7-5.3 8.9-12 9.8-19.7.3-2 .8-3 3-3.4 6.1-1.1 12.1-2.8 17.9-5.1 1.5-.7 2.7-.3 4 .3 5.5 2.3 11.2 4 17.1 5 2.2.4 3.1 1.2 3.2 3.5 0 3.5.9 7 2.2 10.4.9 2.7 3.7 5.5-.4 8.1zm-18.1-61.5c2.4 2.4 5.3 2.4 8.2.8 3-1.8 4-5.7 2.6-9-.7-1.5-1.6-2.8-3-3.5-2.3-.9-3.4-2.4-3.9-4.8-.5-2.7-2.8-4.6-5.5-5.4-.8-.3-1.8-.7-2 .5-.3.7 0 1.3.8 1.8.9.4 1.9.8 2.6 1.5 2.8 2.3 2.2 3.5-.8 5.5-3.6 2.4-6.6 3.9-10 0-.8-.9-3.2.3-3.2-1.9 0-1.9 1.3-3.4 3-4.4 1.1-.7 3.5-.8 2.4-2.6-1.1-1.7-3.2-.3-4 .5-3.8 4.3-7.1 8.9-10.5 13.3-2.2 2.8.3 7.5 3.5 8.9 3 1.3 6.7.3 8.1-2.4.4-.7 1.2-1.5.4-2.3-.7-.5-1.7-.7-2.3.3-1.5 2.4-3.5 3-5.8 1.6-1.8-1.1-2.3-3-1.8-4.8.8-2.8 2.8-4.2 5.7-4.3 4.3-.3 7.4 2.3 7.8 6.6 1.1 9.2 1.1 9.2-7.8 9.2-4.6 0-9-.1-13.6 0-3.2.1-3.8-.9-3-3.9 1.5-4.8 3.5-9.6 5.7-14.1 5.9-11.7 12.7-23 20.2-34.5 9.2 14.8 18.2 29.1 24.5 44.7.7 1.7 1.1 3.5 1.8 5.2.9 2.2.1 2.7-2 2.6-6.9-.1-13.6 0-20.5 0-.8 0-2.2.3-2.3-.5-.3-4-1.2-8.2 1.1-12 1.6-2.8 4.4-3.4 7.4-3 3 .5 4.8 2.3 5 5.4.1 1.9-.8 3.4-2.6 4-1.5.5-3.2.5-4.2-.9-.8-1.3-1.9-2.3-3-1.2-.9.7.1 2.3 1 3.1zm-6.3 7.7c1.7.4 3.1 1.2 3.1 3.4 0 1.9-1.2 3-2.8 3.1-1.9.1-3.2-.9-3.4-3 0-2.2 1.3-3.1 3.1-3.5zm.3 10.7c5.1 0 10.2 3.5 15.6 4.8 2.7.7 6.3.4 7.9 2 1.5 1.6-.9 4.8-1.2 7.4-.3 1.9 1.2 5.1-2.7 4.4-5.5-1.2-11-2.6-16.3-4.8-2.6-1.2-4.7-1.1-7.3 0-5 2.2-10.2 3.2-15.3 4.6-2.6.7-3.4-.1-3.4-2.6 0-.5-.3-1.1-.1-1.7.1-2.6-2.8-5.5-.9-7.4 1.6-1.6 5.1-1.2 7.7-1.9 5.5-1.1 10.7-4.8 16-4.8zm23.7 4.1c-7.1-1.3-14.1-2.8-20.7-5.9 1.1-1.7 3.1-3.2 2.6-5.5-.8-3.2.7-3.4 3.2-3.4h29.5c-4.8 4-9 8.2-11.8 13.6-.8 1-1.5 1.4-2.8 1.2zm-32.5-14.8c2 0 3.8-.1 3 2.8-.7 2.6 1.2 4.2 2.8 6.1-6.9 3.2-14 4.7-21.3 5.9-1.2.3-1.9 0-2.4-1.1-2.8-5.4-7.1-9.7-11.8-13.7h29.7zm-44.4-1.5c13.5 1.8 22.6 9.6 26.5 22.5 3.8 12.3.5 23.2-8.3 32.4-1.9 2-3.6 2.7-6.1.8-1.7-1.3-3.9-2.3-5.9-3.4 0 0-.1-.3-.5-.5 1.2-1.9 2.6-.9 3.9-.7 7.5 1.6 11.6-1.9 10.8-9.6-.1-1.9.1-3.6.8-5.4 1.3-3.9.9-7.3-3.2-9.3-2.2-1.1-3.2-3.1-4-5.2-.7-1.6-1.3-3.9-3-3.9-4 .3-7.7-.7-10.9-2.8-.4-.3-1.2-.1-1.6.1-3.9 2.8-8.6 3.4-13.1 4-1.5.3-2.4 1.5-3 2.8-1.1 3.2-2.4 6.1-5.4 8.2-2 1.5-.8 3.6.9 5 1.9 1.5 3.9 2.8 5.8 4.2 2.3 1.7 3 4.2 2.3 6.7-.7 2.6-3.1 2.2-5 2.4-2.6.3-5.1.5-7.4 1.7-2.7 1.5-3.9.4-5.3-1.9-6.5-11.7-6.5-23.4.9-34.5 7.4-10.5 17.9-15.4 30.8-13.6zm-37.6 23.5c-.3 1.6-1.3 1.6-2.4 1.3-.9-.3-1.9-.4-2.8-.7-13.1-4.2-11-2-10.5-15.7 5.8 2.3 11.7 4 17.8 5.2 1.3.3 1.5.8.9 2-1.4 2.5-2.4 5.2-3 7.9zm-8.9 102.9c2.7-9.3 2.7-18.7 0-28.1-1.6-5.9-.9-12.1-.4-18.2.1-2.2.8-2.8 3.4-2.8 10.2-.3 18.6 12.7 15.6 22.8-2.6 8.8-1.5 16.4 3.6 23.7 1.1 1.5 1.7 3.5 1.5 5.3-1.2 6.6.4 12.9 1.5 19.4 1.1 6.7-.1 12.8-3.5 19.4-1.6-6.5-5.2-8.6-10.9-7.3-2 .5-1.9-.9-1.8-1.9.3-2.2.7-4.2 1.1-6.3.9-3.8.1-6.9-3.4-8.8-6.9-4-8.8-9.6-6.7-17.2zm2.2 69.8c8.6-3.8 8.6-3.8 9.8 5.1 1.2 8.1 2.2 16.2 3.4 24.2.3 2.2-.1 3.5-2.2 4.3-1.6.8-3.2 1.8-5.1 2.6-2.6-11.2-5.1-22.1-7.7-33.1-.4-1.7.2-2.4 1.8-3.1zm116.8 99.8c1.5 0 7.4 5.8 7.4 7.1s-6.3 7.7-7.5 7.7c-.9 0-7-6.9-7-7.7.1-1.2 6.1-7.2 7.1-7.1zm4.6-.4h18.6c-4.2 5.5-4.2 7.3 0 10.1.8.7 1.8 1.7 2.8.3.9-1.3-.3-1.7-.9-2.3-1.7-1.3-3.4-2.6-.9-4.6 1.8-1.5 3-5 6.3-2 1.9 1.7 4.6 3.1 2 6.1-2.7 3.2-5.7 6.3-8.5 9.6-.7.8-1.5.8-2.3.5-5.4-1.9-11-2.2-17.4-2.2 7.7-7.7 7.7-8.6.3-15.5zm2.2-3.1c4-3.4 8.1-6.2 13.2-7.5 3.6-.9 7.5-2 7.8-7 0-1.6 1.3-1.1 2.2-1.1 2.8-.1 5.7 0 8.5 0 7.4 0 7.4 0 7.4 7.3 0 2.7 1.1 6.7-.3 7.9-1.6 1.5-5.4.5-8.2.5-10.3-.1-20.4-.1-30.6-.1zm38.9-33.7c1.2-9.2 3.1-18.3 2.6-27.6-.4-7.8-2.4-15.1-5.8-21.9-3.6-7.5-2.3-13.1 3.9-18.4 6.2-5.4 12.8-9.3 21.4-8.6 3.8.3 4.8 1.2 3.8 5.1-1.6 5.3-2.3 10.8-3.2 16.3-1.6 10.9 1.9 21.4 3.1 32 .3 2.4.8 4.7 1.1 7.1.7 7-3.1 11.2-10.1 10.9-1.9 0-3.6-.3-5.5-.5-3.9-.4-7 .7-8.8 4.4-.6.6-.9 1.8-2.5 1.2zm28.4 16.1c-2.2-.4-4.3-.1-6.5-.1-2.6 0-5.1-.1-7.7 0-2.8.1-3.5-1.5-3.1-3.6.9-4.7 2.7-9.2 4.6-13.6.5-1.2 1.5-1.1 2.4-1.2 1.6-.3 3.4-.5 5-1.2 4.2-1.6 8.8 1.2 8.8 5.7 0 3.4-.1 6.9.1 10.2.2 2.7-.5 4-3.6 3.8zm1.7-148.7c.1-.1.1-.3.1-.3 4.3-3.6 8.8-3.8 13.2-.1 1.1.9 2 1.3 1.3 3-1.9 5.7.3 10.5 3.1 15.2 1.3 2.3 3 4.4 4.4 6.7 1.1 1.8 1.6 3.8-.1 5.4-2.2 1.9-4.8 2.3-7.5 2.4-.7 0-.7-.8-.8-1.3-.7-12-6.7-21.7-13.7-31zm16.1-25c-1.6-2.8-2-5.7-2-8.9v-35.5c6.1 8.9 9.8 17.1 9.6 27.1-.4 19.4-.1 38.8-.1 58.2v5c-5.2-6.7-8.3-12.7-5.1-20.5 3.3-8.8 2-17.3-2.4-25.4zm26.7 62.5c0 3.1-.4 4.7-4 4.3-4.2-.5-9.6 1.8-12.3-.9-2.4-2.4-.7-7.8-.7-11.8v-74.3c.1-9 4.3-16.3 9.6-23.8 5.3 14 7.5 27.6 7.4 41.6-.1 21.5 0 43.2 0 64.9zm-9.4-108.8c-3.6 4.6-6.2 9.7-8.8 15.3-1.8-4-3.2-7.8-5.7-10.9-2.4-3-2-5.5-.5-8.5 2-4.3 4.2-8.6 7-12.9 3.5 4.6 5.8 9.7 8.2 14.7.5.9.4 1.6-.2 2.3zM368.6 174c-3.2 5.1-6.1 10.4-8.8 15.9v-27.3c3.8 3 6.5 6.2 9 9.6.6.6.1 1.2-.2 1.8zm-7.3 124.8c2.4-.1 5-1.1 7.7-2.2 0 1.1.1 2 .1 2.8.1 6.5-1.2 7.5-7.8 6.2-2-.4-1.8-1.8-1.5-2.8.3-1.3-1.4-3.6 1.5-4zm30.1-39.9c-.1-6.3.1-12.8-.1-19.1-.1-3.4.9-4.2 4-3.9 2.7.3 5.4.3 8.1 0 3.1-.3 3.8.9 3.6 3.8-.1 4.7 0 9.2 0 13.7 0 4.7-.1 9.3 0 14 .1 2.6-.3 3.9-3.4 3.6-3.9-.4-9 1.2-11.4-.8-2.6-2-.7-7.4-.8-11.3zm-29.2-12.6c1.8 4.3 1.6 8.9.7 13.3-.4 1.9-1.1 2.4-2.8 1.3-.9-.7-1.9-1.2-3-1.6-4-1.7-5.8-4-4.2-8.9 1.8-5.1-.1-8.3-5.1-9.8-2.8-.8-2.2-1.9-1.6-3.8 2.3-8.3-2.4-16.4-10.5-18.4s-16.2 3.1-17.9 11.4c-1.1 4.8.3 9.2 3.5 12.5 1.6 1.6 2 2.8 1.1 5-.9 2.4-1.2 5.3-2 7.8-.8 2.7-3.4 3.6-5.7 5.4 4.3 3.4 9.3 4.2 14 4.7 3.5.4 3.5 1.7 2.7 4.4-5.1 16.8-13.3 31.8-27.1 43.2-6.7 5.7-12.8 12-17.1 19.9-1.2 2.4-3.1 4.4-5.4 5.9-5.8 3.6-9.7 8.6-11.6 15.3-5.7-4.3-8.5-9.8-7.9-16.7.5-7.3 1.5-14.7 2.3-21.9.1-.7.4-1.5.9-1.7 4.4-3.6 6.1-8.8 7.7-13.9 2-6.5 5.4-11.8 10.5-16.6 7.8-7.1 14.5-15.5 17.5-26.1.7-2.3 1.8-3.1 4.2-3.1 4.3 0 7.9-2 10.5-5.5 2.3-3.1 1.7-5.5-1.8-7.3-1.2-.7-2.6-1.1-3.9-1.5-1.5-.7-2.8-.9-5.4-1.6 2.8-.8 4.6-1.5 6.3-1.9.9-.3 1.6-.7 1.5-1.7-.1-1.2-1.2-1.2-2-.9-2.3.7-4.6 1.5-6.7 2.4-5.2 2.2-10.4 4.7-16.3 3.8-.5-.1-1.1-.3-1.6-.5 4.4-6.3 9.6-11.2 17.4-12.9 8.2-1.7 15.3-5.3 20.6-12.4 1.7-2.6 5-3.6 7.9-4.7 6.7-2.4 8.3-1.6 11.2 4.7 1.9 4.3 4.4 8.2 7.5 11.7 5.4 6.1 8.6 13.3 11.6 20.7zm-7.4-107c.9 0 2.2-.4 2.3 1.1.1 1.2 0 2.3-1.2 2.8-6.2 2.8-12.8 4.3-19.4 5.8-1.1.3-1.6-.4-2-1.1-2.4-3.2-5.7-5.5-10-8.6h30.3zm-30.1-74.5v68.6c0 1.7.3 3.2-2.4 3.2-2.6-.1-2.2-1.6-2.2-3.1V64.7c0-2 .1-3.9 2.6-3.9 2.7.1 1.9 2.4 2 4zm6.1 83.1c9 9.7 11.2 24.1 5.3 35.9-1.1 2.3-2 4.8-5.4 4.6-3.2-.4-5.5-2.2-6.7-5.1-1.2-3.1-1.2-6.3-.5-9.6 1.3-5.5 1.1-10.9-2.3-15.9-3.8-5.4-10-6.7-15.2-3-1.9 1.3-2.8 1.6-4.8.1-4.3-3.4-11-1.9-14.1 2.8-1.2 1.9-2 4-2.4 6.3-.7 4.3-.8 8.5-3.1 12.5-1.9 3.4 0 6.9 1.9 10 .8 1.3 2.7 3.2.1 4.7-2.4 1.3-3.1-.9-4-2.4-3.1-5.9-4.2-12.1-4.2-18.6-.1-13.7 7.7-25.6 20.2-30.6 12.3-4.8 26-1.6 35.2 8.3zm-13.5-31c-.5 6.3-.1 12.7-.1 19.7-8.9-3.8-17.4 0-25.8.1-3.2 0-4.3-.7-4.2-4 .3-6.9.3-13.9 0-20.9-.1-3 .8-5.2 3-7.1 2-1.7 3.9-3.6 6.1-5.2 7.3-5.8 7.1-5.7 14 .8 4.7 4.5 7.7 9.6 7 16.6zm-.2-13.5c-4-4-7.5-7.7-11.8-10.6-1.1-.8-.9-1.9-.9-3.1v-6.9c0-.9-.3-1.6-1.5-1.6-.9 0-1.2.5-1.2 1.3 0 .3-.1.5 0 .8 1.8 7.3-2.4 11.2-7.8 14.5-2.2 1.3-4 3.4-6.6 5.4 0-5.8.1-11 0-16.2 0-3.4 2.4-1.7 3.9-2.2 1.1-.3 3 .7 2.8-1.3 0-2-1.9-1.1-3-1.3-1.3-.4-3.6 1.3-3.8-1.8-.1-2.2-.3-3.9 2.4-5.1 9.2-3.8 18-7.9 27.5-12.2v40.3zm-32.9-51.2h-68c-1.6 0-3.4.5-3.4-2.3 0-2.6 1.6-2.2 3.1-2.2h68.5c1.5 0 3.1-.4 3.1 2.2.1 2.8-1.7 2.3-3.3 2.3zm-35.4-20c-.4 1.5 1.3 3.9-1.6 4.4-1.1.1-3-.7-2.8 1.5 0 1.6 1.6 1.2 2.7 1.2 2.8-.1 1.6 2 1.9 3.2.3 1.7-.4 2.6-2.3 2.6-9-.1-18-.1-28.1-.1 7.4-10.4 17.2-13.9 28.3-14.9 1.6-.2 2.3.5 1.9 2.1zM132.6 425.4v4.7c-13.9-9-26.1-19-37.2-30.4-35.3-36.3-56.5-79.6-61.3-129.9-7-75 18.3-138 74.4-188.2 19.3-17.2 41.3-30 65.6-39.2.8-.3 1.6-.4 2.4-.7 13.3-5.5 27.3-8.6 41.5-10.9 5.1-.8 10.4-1.2 15.5-1.9.8-.3 1.1.1.7.8-7.4 2.3-13.5 6.5-17.6 13.1-.5.9-1.1 1.9-2.4 2-1.5.1-4.3-1.1-3.9 1.5.5 2.7-3.2 7 2.3 8.3 1.1.3.7 1.3.7 2.2v16.7c-8.1-3.6-15.5-7.8-23.4-10.4-8.8-3-13.1-7.7-11-17.1.5-1.1 1.6-4-2-3.1 0 4.8 1.3 10.2-.4 14.3-1.7 4-7.8 5.1-11.8 7.4-6.5 3.8-13.2 7.1-19.8 10.8-.3.1-.5.1-1.2.1v-7.9c0-.9.7-2.6-1.2-2.7-2.2-.1-1.3 1.7-1.3 2.8-.1 3.5-.1 7.1 0 10.6.1 2.7-.3 4.3-3.5 3.9-1.1-.1-3-.7-3 1.3s1.9 1.5 3 1.3c3.2-.5 3.6 1.1 3.5 3.8-.3 5.4 1.1 11.2-.4 16-1.6 5-7.5 7.3-11.3 10.9-41.2 39.7-60.8 87.9-57.2 144.8 3.2 52.2 26.1 94.8 66.4 128.2 1.9 1.6 2.8 3.1 2.7 5.7-.1 7.5-.1 15.1 0 22.5 0 2.4-.7 3.1-3.1 3-5.7 0-5.7.1-5.7 5.7zm8.2-84.9c-6.7-7.4-12.9-13.9-18.8-20.7-2.3-2.6-4.6-3.9-7.9-3.5-3.2.3-6.5 0-9.8.1-1.1 0-2.6-.4-2.4 1.5 0 1.5 1.3 1.2 2.3 1.2h.8c9.8-2 16.6 2.4 22.1 10.1 3.5 4.8 7.9 8.9 12 13.3 2.8 3.1 2.6 8.2-.5 12.4-3.4 4.6-8.9 6.3-13.9 4.4-4-1.5-6.5-5.9-5.8-10.2.7-4.7 5.3-7.7 9.7-6.2 1.7.5 3 1.6 3.2 3.5.3 1.9-.3 3.5-2.2 4.2-1.3.4-2 1.2-1.3 2.4.7 1.1 1.7.4 2.6 0 2.7-1.1 3.8-3.4 3.6-6.2-.3-3.2-2-5.4-5.2-6.6-2.6-.9-5 0-7.7.3 0-3.6.1-7.1-1.3-10.5-1.7-3.9-5.4-6.2-9.2-5.5-3.4.5-5.3 2.7-5.7 6.1-.3 2.6.8 4.7 3.4 5.8.7.3 1.6 1.1 2.3 0 .5-.8.4-1.7-.5-2.2-3.4-1.6-3.1-3.8-.9-6.1 1.9-2 5.7-1.2 7.3 1.6 2.7 4.3 2.7 8.9 1.1 13.5-3 8.5-2 13.9 3.4 17.4 5.7 3.8 12.4 2.6 18.4-3.1.5-.1.8-.1 1.2-.4v30.2c-36.3-29.8-58.1-67-65.1-112.6 1.3-.9 1.9 0 2.4.5 5.9 4.8 11.7 9.8 17.5 14.8 2.7 2.4 3.5 5.5 1.7 8.9-1.6 3-4.4 3.8-7.7 3-1.8-.4-3-1.6-3.4-3.5-.3-1.5.1-3 1.5-3.6 1.6-.9 3-.4 3.8 1.3.1.4 1.5.4 1.9.1 1.1-.5.4-1.5 0-2.2-1.5-3-5.9-3.4-8.3-.7-3 3.2-1.9 8.3 2 10.5 3.8 2 8.9.9 11.6-2.4 2.8-3.4 2.6-9-.8-12.4-3.8-3.6-7.8-7-11.8-10.4-1.6-1.3-3.2-2.7-5.7-5h27.6c1.5 0 1.5 1.1 1.5 2v27.6c0 1.6-.4 2.4-2.2 2.3-.9-.1-2-.1-3 0-1.1.1-3-.7-2.7 1.5.1 1.7 1.8 1.1 2.7 1.1 10.6 0 21.3.1 31.9 0 3.4-.1 4.6.5 4.4 4.3-.2 9.1-.1 18.1-.1 28.1zm-46.4-81.7c-.1-5.9 0-11.8-.1-17.8 0-2.3.5-3.2 3-3.1 4 .3 9.4-1.3 12 .7 2.7 2.2.5 7.7.8 11.7.1 1.3 0 2.8 0 4.4 0 4.4-.1 8.8 0 13.2.1 2.3-.4 3.4-3 3.2-4-.3-9.4 1.3-11.8-.7-2.8-2.1-.8-7.6-.9-11.6zm44.2-65c.4 1.1-.1 1.9-.7 2.7-3 4-5.3 8.2-7.4 13.2-2.2-5.5-4.4-10.4-7.8-14.5-1.2-1.5-1.1-2.7-.3-4.2 2.2-4.6 4.4-9 7.5-13.7 3.8 5.2 6.4 10.7 8.7 16.5zm-4.9-22.1c2.2-2.4 4.2-4.8 7-7.1v26.7c-2.4-5.7-4.6-10.2-7.4-14.4-1.3-2.1-1.2-3.5.4-5.2zm-4.6 49.9c-.3 26.5-.1 52.9 0 79.4 0 3.9-1.1 5-4.7 4.4-3.8-.4-8.8 1.6-10.9-.8-1.9-2-.7-7-.7-10.6 0-21.1 0-42.3.1-63.3 0-11.6 2.4-22.9 7.1-34.3 5.8 8 9.3 15.8 9.1 25.2zm7.7 84c-2.3-.3-5.4 1.6-5.3-3.4.1-27.7 0-55.5.1-83.3 0-8.1 4.4-14.5 9.3-20.9v31c0 24.4-.1 48.7.1 73.1.1 3.8-1.6 3.8-4.2 3.5zM133 168.3c-10.2 10.4-15.5 24.1-20.2 38.1v-7.5-7.7-8.9c0-.7-.3-1.9 0-2 3.5-1.9 3.6-3.5 0-5.4-.4-.3-.4-2 1.3-1.7.9.1 1.6-.5 1.6-1.5 0-1.1-.8-1.7-1.6-1.6-1.3.3-1.3-.4-1.5-1.3 0-.9.3-1.6 1.5-1.3h.4c.9-.3 1.3-1.7 1.1-1.9-3.4-.4-1.9-4.8-4.6-5.3-1.8-.3-1.1 2.3-1.5 2.6-2.6 2.2-3.4 3.2-.1 5.9 1.6 1.3-3.2.5-3 3.1.1 2.4 3.4.3 3.4 2.8 0 2.2-6.2 1.7-2.3 4 2.8 1.6 2.2 3.1 2.2 4.8.1 10.9.1 21.8.1 32.7 0 5.2-.1 10.5 0 15.8 0 2.3-.4 3.4-3 3.1-4-.5-9.4 1.7-11.7-.9-2-2.3-.7-7.5-.7-11.4 0-1.9-.9-3.9 2.4-4.6 1.7-.4 1.2-2.4-.8-2.7-1.3-.1-1.6-.5-1.6-1.8 0-1.5.8-.9 1.6-1.1.9-.1 1.6-.5 1.6-1.6s-.5-1.6-1.5-1.6c-1.2 0-1.7-.3-1.7-1.6 0-1.9 1.3-.8 2-1.1 1.1-.4 1.3-2.3 1.2-2.2-4 .7-1.3-6.1-5.4-5-.7.1-.8 1.2-.5 1.9 1.3 3.4-3.1 1.1-3.2 3.4-.1 2.8 3.4.7 3.4 3 0 1.1 0 1.9-1.6 1.7-.9-.1-1.7.3-1.7 1.3 0 1.2.7 1.9 1.7 1.8 1.1-.1 1.5-.1 1.5 1.1 0 1.2-.1 1.9-1.6 1.6-.8-.1-1.6.3-1.7 1.5 0 1.1.7 1.9 1.5 1.7 2.2-.4 1.9.9 1.9 2.2v.8c1.5 9.7-.9 17.8-9.7 23-.5.4-1.1.9-1.6 1.5-.8.7-.7 1.3 0 2.2.8.9 1.5.4 2.2-.3 2.6-3 5.1-5.9 7.8-8.9.5.3.9.7 1.5.9V269c0 1.6-.8 1.9-2.2 1.8-2.8 0-5.8-.4-8.5 0-4.6.7-5.9-1.1-6.3-5.5-4.4-62.5 16.8-114 64.5-154.7.1 0 .5-.1 1.5-.9v24.8c0 1.8-.5 2.3-2.2 2.2-1.1-.1-2.3 0-3.4 0-.9 0-1.7.1-1.7 1.3-.1 1.2.8 1.5 1.6 1.3 6.2-1.3 5.5 2.7 5.8 6.7.7 8.9-1.4 15.6-8.2 22.3zm2.1 257.7c-.1-3 .8-3.9 3.8-3.8 5.5.3 11 .3 16.6 0 3.5-.1 3.1 1.9 3.1 4 0 2.2.4 4.3-3.1 4-2.7-.1-5.7 0-8.5 0-2.7 0-5.4-.3-8.1 0-3.7.5-3.7-1.5-3.8-4.2zm3.6 7.3h34.1c-5.3 10.6 6.2 13.5 9 20.7-15.4-5-29.8-11.7-43.1-20.7zm42.9 15.6c-2.3-2.7-4.6-5-6.6-7.5-2.2-2.7-1.2-5.1 1.1-7 2.3-1.9 4.6-2 6.6.4 1.9 2.3 4 4.3 6.3 6.7-4.1.9-6.3 3.5-7.4 7.4zm3.5 3.2c-1.2-2.6-.5-4.8 1.6-6.5 2.2-1.6 4.4-1.9 6.3.4.8.9 1.7 1.9 2.7.9.9-.9-.1-2-.8-2.8-3.2-3.5-6.5-6.9-10.1-10.9h21.4c-.5 1.8-2 2.3-3 3.5-.7.8-2 1.3-.7 2.7s1.9-.1 2.7-.8c1.8-1.6 3.5-3.2 6.1-5.7V450c0 1.1-.7 1.5-1.5 1.8-5.4 1.7-10.5 4.3-16.2 5-3.8.4-6.7-1.2-8.5-4.7zm13 6.7c11.8-5.1 23.6-8.5 36.2-6.9 4.7.5 8.3 1.3 10.2 6.3.8 2.3 2.4 4.4 4 7.3-17.3-.5-33.9-2.2-50.4-6.7zm52.5 4.7c-2.2-3.6-3.9-6.7-5.7-9.8-1.1-2.2-2.4-3.8-5.1-3.8-1.9 0-2.2-1.1-2.2-2.8 0-2.3 1.2-2.2 2.7-2h2.2c.8 0 1.3-.3 1.5-1.2.1-1.2-.8-1.2-1.6-1.3-1.5-.3-3.8.9-4.2-.7-.7-2.4-.3-5-.3-7.5 0-1.2.9-1.1 1.9-1.2h25.9c-2 3.2-5.9 4.7-5.2 8.6.7 3.4 4.3 4.7 5.9 7.7-3.4 1.2-7.4.3-9.4 4.6-1.7 3.1-4.2 5.9-6.4 9.4zm2 1.9c2.8-4.2 5.2-8.1 7.8-11.6 1.1-1.5 3.1-1.3 4.7-1.6 10.9-1.6 21.7-.8 32 3.4 2.4 1.1 5 1.9 7.5 2.7-6.5 3.4-35.2 7.4-52 7.1zm65.5-13.4c-1.3 3.2-5.1 5.2-9.2 4.7-4.3-.7-8.3-2.7-13.2-4.2 2.8-3.1 5.3-5.7 7.5-8.3 3.6-4.3 3.5-6.6-.5-10.8h15.5c-3.2 3.5-6.1 6.6-9 9.7-1.1 1.1-2.8 2.6-1.8 3.8 1.3 1.5 2.2-.7 3.2-1.5 1.9-1.6 4-1.3 5.8.1 2.3 1.6 2.8 3.9 1.7 6.5zm-3.7-10.5c2.3-2.6 4.4-4.7 6.6-7 2.2-2.3 4.3-1.7 6.3-.1 2.2 1.8 3.2 4.2 1.3 6.7-2 2.7-4.4 5.1-6.9 7.9-1-4-3.3-6.5-7.3-7.5zm6.3 12.6c3.1-3.5 5.4-6.3 7.8-8.9 3.4-3.5 5.1-7.1 1.6-12H365c-14 8.9-28.2 15.4-44.3 20.9zm44-23.8h-16c-4.6 0-5.9-2-4.7-6.5.4-1.6 1.5-1.5 2.6-1.5 6.1 0 12.1.1 18.2 0 3.2-.1 2.4 2.2 2.3 3.8-.2 1.6 1.1 4.3-2.4 4.2zm7.4-1.4c-.5.4-1.1.7-2.2 1.3-.1-.9-.1-1.5-.1-2-.1-2.7.7-5.9-.5-7.8-1.2-1.8-4.7-.7-7.3-.5-2 0-2.3-.8-2.3-2.6.1-7.3.1-14.4 0-21.7-.1-2.6 1.5-3.5 3-4.7 26.8-21 46.3-47.5 58.3-79.4 27.6-73.5 4.2-156.3-57.8-205.2-2.4-1.9-3.8-3.8-3.5-7 .3-3.6.3-7.4 0-11-.1-2.7.7-3.5 3.4-3.2 1.2.1 3.2 1.1 3.5-1.2.3-2.4-2-1.6-3.1-1.5-3.1.4-3.8-.9-3.6-3.8.3-3.6.1-7.4 0-11 0-.9.5-2.6-1.3-2.4-1.9.1-1.2 1.6-1.2 2.6-.1 2.6 0 5.1 0 8.3-4.2-2.3-7.9-4.2-11.7-6.3-5.9-3.2-11.8-6.7-17.9-9.7-2.8-1.5-3.8-3.1-3.5-6.2.3-3.1.1-6.2 0-9.3 0-.7.1-1.5-.8-1.6-1.1-.1-1.3.7-1.3 1.6v11c0 1.5 0 2.7-1.6 3.5-10.8 4.8-21.5 9.7-32.7 14.8v-17c0-.7-.1-1.9.5-1.9 4.4-.1 2.2-3.5 2.4-5.4.4-2.6.5-5.4-3.6-4.6-1.3.3-2-.7-2.6-1.7-3.9-6.7-10-10.6-17.1-13.2-.5-1.7.4-1.3 1.3-1.1 61.1 5.5 111.7 31.6 150.9 78.9 37.2 44.7 54 96.7 49.5 154.5-5.5 70.8-38.8 126.2-97.1 166.5z"/><path d="M437.4 270.5c-1.1-.1-2.3-.8-2.7.9-.5 2.2 1.1 1.7 2.3 2 5.8 1.1 11.6 2.3 18 3.5-8.8 5.8-16.8 11-25.6 16.8 9.3 1.8 17.8 3.4 26.3 5 .8.1 1.6.1 1.8-1.1.1-.9 0-1.6-1.1-1.9-.8-.1-1.7-.3-2.6-.4-5.3-.9-10.5-2-16.6-3.2 8.9-5.8 17-11 25.7-16.8-9.1-1.7-17.3-3.2-25.5-4.8zM460.3 240.1c-3.5.1-7.1 0-10.6 0-1.5 0-3.1 0-4.8.3-9.2.1-9.3.1-9 9.6 0 1.5-1.2 4.4 1.5 4.3 2.7-.1 1.2-3 1.2-4.6.1-6.5 0-6.2 5.2-6.6 4.6-.4 6.2 1.1 5.5 5.5-.3 1.2 0 2.6 0 3.8 0 1.1.4 1.6 1.5 1.6s1.5-.7 1.5-1.6c0-2.2.1-4.2 0-6.3-.1-2 .3-3 2.7-3.1 4-.3 6.2.5 5.4 5.1-.3 1.3 0 2.7 0 4.2 0 1.2.4 1.9 1.7 1.8 1.1 0 1.2-.8 1.2-1.8 0-3.1-.1-6.2 0-9.3 0-2.2-.7-3.1-3-2.9zM419.9 356.1c-2 .9-3.9 2.2-5.9 3.2-2.2 1.2-4.3 1.8-6.3 0-1.9-1.6-2.4-3.6-1.6-5.8.9-2.4 2.7-3.9 5.5-3.6 1.3.1 3.1.4 3-1.6-.1-1.8-2.2-1.3-3.4-1.6-3.8.4-6.6 2.3-7.7 5.8-1.2 3.4-.7 6.7 2.2 9.3 2.8 2.7 5.9 2.4 9 .7 1.8-.9 3.4-2 5.1-3 2.4-1.3 4.4-1.2 5.8 1.3 1.2 2.6 0 4.4-1.9 5.9-.8.5-1.9.5-2.8.9-.8.3-.7 1.1-.7 1.8 0 .9.7 1.1 1.5.9 3.1-.4 5.2-2 6.5-4.8 1.2-2.8 1.2-5.7-.9-7.9s-4.7-2.8-7.4-1.5zM444.8 201.8c.5-1.9.8-3.9 1.2-5.8.5-2.7 2-4.2 4.8-3.4 2.7.7 3.4 2.8 3.1 5.2-.1.8-.5 1.6-.9 2.3-.5 1.1.1 1.6.8 2.2.8.7 1.2 0 1.6-.5 1.9-2.6 2-5.3.8-8.1s-3.2-4.7-6.5-4.6c-3.1.1-5.2 1.6-6.1 4.8-.7 2.4-1.1 5-1.7 7.4-.5 1.9-1.8 3.1-3.8 3.5-2.2.5-3.9-.5-5.1-2.2-2-2.7-1.6-5.4.9-7.5.9-.9 1.5-1.5.5-2.7-1.2-1.5-2 0-2.7.5-1.9 1.6-2.8 3.8-2.7 6.3.1 4.4 3.2 8.1 7.1 8.8 4.7.7 7.4-1.3 8.7-6.2zM446.8 314.9c-2.7-1.3-5.1-1.1-7.4.9-1.8 1.5-3.5 3.1-5.4 4.7-1.6 1.2-3.1 1.7-5.1.8-1.7-.9-2.8-2.3-3-4.3-.3-3.8 1.6-5.8 5.4-6.1 1.5-.1 1.8-.8 1.6-1.9 0-1.1-.8-1.3-1.8-1.2-3.6.3-6.2 1.9-7.5 5.3-1.5 3.5-.5 7.8 2.4 10 2.8 2.2 5.9 2.7 8.9.3 1.9-1.5 3.6-3.2 5.4-4.8 1.9-1.6 4-2.6 5.9-.3 1.9 2.3 1.3 4.7-.8 6.7-.4.4-.9.7-1.5.8-1.3.5-1.2 1.5-.8 2.4.4 1.1 1.5.5 2.2.3 3.2-1.5 4.7-4 4.8-7.4 0-2.7-.8-5-3.3-6.2zM433.8 173.6c1.2 3.2 4.6 4.2 7.9 3.1 3.4-1.1 5.4-3.2 5.7-7-.3-2.8-1.5-5.4-2.4-8.2-.5-1.3-1.3-1.1-2.3-.7-7.3 3.1-14.5 6.1-21.8 9.2-1.1.3-1.9.7-1.2 2 .7 1.2 1.3 1.2 2.4.8 1.2-.5 2.4-.8 3.5-1.5 3.5-1.9 6.2-2.7 8.2 2.3zm8.3-8.9c2.4.7 1.5 3.4 2.4 5-.4 3.1-2.4 4.2-5 4.3-3.4 0-4.3-2.8-5.1-5.2-.2-.7 6.5-4.6 7.7-4.1zM406.8 134.5c4.6-3 8.9-6.5 13.3-9.7.9-.7 2.7-1.1 1.5-2.8-1.2-1.7-2.2-.4-3.1.3-4.8 3.4-9.6 6.9-14.4 10.4-5.7 4-5.7 4-1.5 9.7.7 1.1 1.1 2.4 2.6 2.6 2.2-.9 1.3-2.3.3-3.2-3.4-3.2-2-5.1 1.3-7.3zM435 142.3c-.5-.9-1.2-.8-2-.3-7 4-14 8.1-21 12.1-.7.4-1.3.8-.8 1.6.3.5.5 1.3 1.5 1.2.3 0 .5 0 .7-.3 7.1-4 14.3-8.2 21.4-12.3 1-.3.7-1.1.2-2zM434.3 224.3c.1 1.5 1.1 1.5 2.2 1.3 7.7-.9 15.3-2 23-3.1.9-.1 2.2 0 1.9-1.6-.1-1.2-.9-1.5-2.2-1.3-7.7.9-15.5 1.9-23.2 2.8-1 .2-1.8.6-1.7 1.9zM438.8 343.1c-7.1-3.6-14.1-7.3-21.1-10.9-1.1-.5-1.9-.4-2.4.7s-.1 1.6.8 2c7.1 3.8 14.3 7.4 21.4 11.2 1.8.9 1.9-.3 2.4-1.3.1-.9-.6-1.2-1.1-1.7zM391.1 105.1c-1.3.1-1.9.9-1.9 2.3.1 1.3.9 2.2 2.3 2 1.3-.1 1.9-1.1 2-2.3-.4-1.2-.9-2.2-2.4-2zM393.5 384.5c-1.2 0-2.2.8-2.2 2.2 0 1.3.9 2 2.2 2 1.2 0 2-.8 2-2.2 0-1.4-.9-2.1-2-2zM78.7 324.1c.9-.1 3.2.8 3-1.6-.4-2.6-2.4-1.3-3.8-1.2-4.7.5-9.3 1.2-14 1.9-.1-.3-.1-.5-.3-.8 4.7-4.4 9.3-8.9 14.4-13.7-7.3-.7-13.7-1.3-21.3-2 5.7-3.2 10.2-5.9 14.8-8.2 1.1-.7 1.6-1.3.8-2.7-.9-1.6-1.7-.4-2.4 0-5.7 3.2-11.3 6.3-16.8 9.7-1.7 1.1-4 1.7-5.5 3.8 7.9.5 15.5 1.2 23.8 1.9-6.2 5.8-11.8 11-18.2 16.8 9-1.5 17.2-2.6 25.5-3.9zM63.2 248.8c.8.3 2.3 2.2 3-.3.5-2.2-1.1-2.3-2.4-2.7-4.8-1.3-9.7-2.7-15.5-4.2 7-2.7 13.2-5 19.9-7.4-6.3-3.5-12-6.6-17.9-9.8 1.6-1.1 3.1-.9 4.4-1.1 3.9-.5 7.7-.9 11.4-1.3 1.2-.1 2.3-.5 2.2-2-.1-1.6-1.5-1.1-2.3-.9-8.5.8-17 1.9-26.7 3 7.8 4.2 14.5 7.8 21.9 11.7-7.9 2.7-15.1 5.2-23.4 8.1 9.4 2.5 17.3 4.6 25.4 6.9zM78.9 129.6c6.2 4.3 12.2 8.8 18.3 13.1.8.5 1.6 1.8 2.7.3.9-1.3 0-2-.9-2.7-2.4-1.9-5-3.8-8.2-6.2h9.6c5.8 0 5.8 0 7.1-2.8H93.6c.1-.8.3-1.3.7-1.7.9-4-.7-6.9-4-8.9-3.5-2.2-6.3-.5-8.8 1.9-1.2 1.1-2 2.3-3.1 3.5-1.4 1.3-1.2 2.2.5 3.5zm7.8-6.9c2.7.1 4.3 1.7 5 4.6-.9 1.8-.8 4.3-3.4 5.1-.8.3-7.3-5.1-7-5.7 1.3-2 2.6-4.3 5.4-4zM69.2 215.2c.5-.9.8-2.2-.3-3.1-1.3-1.1-2.7-2.2-4-3.1-1.1-.7-1.7-1.5-1.3-2.8.8-3.1 1.2-6.5 2.7-9.3.9-1.9 4-.7 5.9-1.5.5-.3 1.5-.3 1.9-.7.4-.4.5-1.2.5-1.9-.1-.9-.9-.7-1.6-.5-9.2 1.5-18.4 3.1-28.5 4.7 8.1 6.2 15.5 12 23 17.8.5.4 1.2 1.2 1.7.4zm-8.4-9.3c-3.1-2.3-5.9-4.4-9.3-7 4-.8 7.4-1.3 11.4-2-.8 3.1-1.3 5.8-2.1 9zM105 363.3c-.3.1-.5.1-.8.3-6.2 3-8.1-2.2-11-5.7-3-3.5.3-5.4 1.5-7.7.9-1.9 1.1-3.1-1.1-4.4-5.2 8.6-10.4 17.1-15.7 26.3 10-2.2 18.8-4 27.9-5.9.8-.1 2.3.3 1.9-1.3-.4-1.2-1.2-2.2-2.7-1.6zm-21.4 4.5c2.2-3.5 4-6.5 6.2-10 1.9 2.6 3.5 4.8 5.1 7.3-3.6 1.4-7.1 1.9-11.3 2.7zM70.2 287.3c.1-.7 0-1.8-.5-2.3-.4-.5-1.5-.7-2.3-.8-4.2-.4-5.9-2.7-6.5-7-.5-4-.5-7.3 4-8.9 2-.7 3-2 1.5-4.4-8.3 5.1-16.7 10.4-25.8 16 9.8 2.7 18.8 5.2 27.9 7.7.5.1 1.4.5 1.7-.3zm-21.7-8c.3-1.3 1.5-1.6 2.2-2 7.4-4.6 7.4-4.6 8.1 4.7-3.6-1-6.9-1.9-10.3-2.7zM63.6 153.8c6.9 3.6 13.7 7.4 20.5 11.2 1.2.7 2 .7 2.7-.7 1.6-3.1 3.4-6.2 5.1-9.3.5-.9.7-1.6-.3-2.2-1.2-.8-1.7 0-2.3.9-1.1 1.9-2.3 3.9-3.2 5.9-.8 1.6-1.5 1.7-3.2.9-7.4-3.5-7.4-3.5-3.6-10.8.3-.4.4-.7.7-1.1.5-.9.9-1.8-.4-2.4-1.5-.7-1.7.5-2.2 1.2-1.1 1.9-2.2 3.9-3.2 5.9-.4.7-.5 1.8-1.9 1.3-4.3-.5-6.1-3.8-4.2-7.4.7-1.2 1.3-2.4 2-3.6.5-.9 1.3-1.9-.3-2.7-1.3-.7-1.7.4-2.2 1.2-1.6 2.8-3.1 5.7-4.7 8.5-.7 1.4-.9 2.2.7 3.2zM52.8 179.6c1.3-.1 1.5-1.3 1.6-2.2.8-3.5 2.4-3.6 5.4-2.3 5.1 2.3 10.5 4.3 15.8 6.2 1.1.4 2.8 2.4 3.8-.3.8-2.4-1.5-2-2.6-2.4-4.6-1.9-9.3-3.9-14.1-5.5-3.6-1.2-6.7-2.4-3.8-7 .7-.8.3-1.3-.7-1.9-1.1-.7-1.6 0-1.9.8-1.8 4.2-3.4 8.5-5 12.7-.5 1.5.8 1.4 1.5 1.9zM88.9 335.8c-.8-1.5-1.5-3.1-2.4-4.4-.7-.9-.4-3.4-2.7-2.3-2.2 1.1-.3 2.4.1 3.5s1.1 2 1.6 3.1c.3 1.6-1.2 1.8-2.2 2-5.8 3.1-11.6 6.1-17.2 9.2-.7.4-2 .5-1.3 2 .7 1.3 1.5 1.3 2.7.7 6.9-3.5 13.7-7.3 20.6-10.8 1.5-.9 1.6-1.7.8-3zM110 109.4c1.3-.1 1.9-1.1 2-2.3-.4-1.2-1.1-2.2-2.4-2-1.3.1-2 .9-1.9 2.3.2 1.3 1 2.1 2.3 2zM110.6 385.2c-1.5-.1-2.3.8-2.3 2.3 0 1.2.8 1.9 2.2 1.9 1.3 0 2-.8 2.2-2-.3-1.3-.9-2.2-2.1-2.2zM195.4 179c1.9 1.3 2.2-1.3 3-2.4.9-1.3 1.3-3.2 3.6-3 1.1.1 3 1.2 2.8-.9-.1-1.5-1.9-1.3-2.7-1.5-3.4-.3-4.7 1.9-5.7 4-.6 1.2-2.9 2.6-1 3.8zM194 184.6c1.1.3 1.6-.3 2-1.2-.3-1.5-1.6-1.6-2.7-2-1.1-.7-1.7.1-1.7.9-.1 1.6 1.2 1.9 2.4 2.3zM202.1 176.4c.3 0-.4.5-.4 1.2 0 .8.8 1.3 1.7 1.3.8.1 1.3-.3 1.3-1.1.1-1-.6-1.4-2.6-1.4zM193.6 173.2c.7 0 1.2-.4 1.1-1.5-.3-.7-.8-1.2-1.7-1.2-.7.1-1.3.7-1.2 1.3.1 1 .9 1.4 1.8 1.4zM309.3 174.9c.9.1 1.8-.1 1.9-1.2-.1-1.2-.9-1.9-1.9-2-1.1-.1-2.2.1-2.3 1.3-.2 1.5 1 1.8 2.3 1.9zM295.9 171.6c-1.1 0-2 .5-2.2 1.6-.3 1.3.7 1.6 1.8 1.6s1.9-.3 2.2-1.5c0-1.1-.8-1.7-1.8-1.7zM332.9 231.6c-.7 0-1.5.3-1.2 1.2.1.7.9.8 1.6.9.7-.1 1.5-.3 1.2-1.1-.2-.7-.9-1.1-1.6-1z"/></svg>
