<svg xmlns="http://www.w3.org/2000/svg" viewBox="0 0 1000 500"><path d="M200 82c-98.6 0-178.5 79.9-178.5 178.5S101.4 439 200 439s178.5-79.9 178.5-178.5S298.6 82 200 82zm124.8 303.3C291.5 418.6 247.1 437 200 437c-47.1 0-91.5-18.3-124.8-51.6s-51.7-77.7-51.7-124.9S41.9 169 75.2 135.7C108.5 102.4 152.9 84 200 84c47.2 0 91.5 18.4 124.8 51.7s51.7 77.7 51.7 124.8c0 47.1-18.4 91.5-51.7 124.8z"/><path d="M200.9 95.2c-90.4-.3-164.3 73.4-164.4 164-.1 90.7 73.4 164.5 164.2 164.6 90.3.2 164.2-73.7 164.4-164.2.1-90.4-73.4-164.1-164.2-164.4zm1.3 3.1c6.7-.7 17.6 4.9 21.2 11.2h-20.8c-1.6 0-1.7-.8-1.6-2 .1-1-.6-2.4 1.5-2.3.8.1 2.2.6 2.1-1-.1-1.5-1.4-.9-2.2-.9-2.3-.1-1.3-1.8-1.4-2.8-.1-.8-.7-2 1.2-2.2zm55.3 60.7c.1-3.2 2.4-5.3 4.5-7.4 6.2-6.3 6.1-6.2 13.1-1.2 3.1 2.2 4.8 4.6 4.3 8.6-.3 2.2-.1 4.4-.1 6.6 0 3.4-.1 6.7 0 10.1 0 1.4-.4 1.8-1.8 1.8-6.1-.1-12.2-.1-18.3 0-1.4 0-1.8-.4-1.8-1.8.1-5.6-.1-11.2.1-16.7zm19.8-19.7c1.7-.1 2.1.5 2.1 2.2-.1 3.1 0 6.3 0 9.8-3-2.1-5.8-4.1-8.6-6-1-.6-1-1.5-1-2.5v-4.7c0-.8 0-1.5-1.1-1.5-.9 0-1.1.7-1 1.3 1.5 6-2.6 8.9-6.4 12-1.2 1-2.2 2.3-3.6 3.7v-30.5c7 3.8 13.8 7.6 20.6 11.2.9.5 1.1 1.2 1 2-.1 1.4-1.2.8-1.9 1-.9.2-2.5-.7-2.5 1s1.6 1.1 2.4 1zm7.2 38.4c-2.7.4-3.3-.7-3.2-3.3.2-6 .1-12 .1-18 .9-.5 1.4.3 1.9.7 28.6 23.3 45.1 53.2 49.4 89.9 1.1 9.3.9 18.7 0 28.1-.2 1.9-.7 2.5-2.6 2.4-3.2-.1-6.3-.1-9.5 0-1.2 0-1.9-.2-1.9-1.7-.1-7.4-.2-14.8-.2-22.7 2.4 2.2 4.3 4 6.2 5.8.6.6 1.1 1.3 2 .3.8-.9-.1-1.2-.5-1.7-.2-.2-.4-.5-.7-.6-6.5-4-8.4-9.9-7.2-17.2 0-.3.1-.6 0-.9-.5-2.1 2.3-.8 2.4-2.5.1-2-2.3-.5-2.4-2.1-.2-2 2.6-.5 2.5-2.5-.1-1.8-2.6-.2-2.5-2.1.1-1.7 2.8-.4 2.4-2.5-.3-1.6-2.9 0-2.5-2 .2-1.1.1-2-1.2-1.9-1.1 0-1.3.9-1 1.8.2.6 0 1-.5 1.2-2.5.7-2.4 1.4-.2 2.5 1 .5.9 1.3-.1 1.9-1.8 1.2-1.8 1.2 0 2.4 1 .7 1 1.3-.3 1.9-1.9.9-1.8 1.9 0 2.4 1.3.4 1 1 1.1 1.8v1.9c0 9.4 0 9.3-9.5 8.6-1.4-.1-1.8-.5-1.8-1.9 0-12.7-.1-25.5-.1-38.2 0-.6-.4-1.6.9-1.4.8.1 1.5-.2 1.5-1.2s-.7-1.3-1.5-1.1c-1 .2-1-.4-1-1s-.1-1.3 1-1c.8.2 1.5-.2 1.5-1.1 0-1-.7-1.3-1.5-1.2-1 .1-.9-.5-1-1.1-.1-.8.2-1.1 1.1-.9.8.1 1.4-.3 1.4-1.3 0-.7-.5-1.1-.9-1-1.7.3-1.7-.6-1.4-1.8.2-.7-.3-1.2-1-1.3-.9-.1-1.4.4-1.3 1.3 0 .6.4 1.5-.2 1.7-.9.2-2.1-.2-2 1.3 0 1.4 1.4.8 2.1 1.2.3.2 1.1 1.8-.6 1.9-.8 0-1.5.3-1.5 1.2 0 .9.7 1.2 1.5 1.2.8-.1.8.4.9.9 0 .7-.1 1.2-1 1.1-.8-.1-1.5.4-1.4 1.3.1.7.7 1.1 1.3 1 1.8-.1 1 1.3 1 2 .1 6.2 0 12.4-.3 18.8-.5-1.7-1-3.5-1.6-5.2-3.9-11.1-9.2-21.4-18.5-29.2-.9-.7-.9-1.5-.9-2.5 0-3.1.2-6.1 0-9.2-.2-2.6.7-3.6 3.3-3.3.7.1 2.2.7 2.3-.8.1-1.8-1.5-1.2-2.3-1.1zm14.7 155.1c-1.5-3.3-1.9-6.7-.7-10.1.6-1.8 1.8-3.1 3.7-3.5 1.5-.3 2.7.4 3.4 1.7.7 1.4.4 2.5-.9 3.2-.9.5-1.7 1-1.1 1.8.7 1 1.7.1 2.4-.4 1.7-1.1 2.3-2.8 1.7-4.7-.6-2.1-2-3.4-4.2-3.7-2.8-.4-5.6 1.5-6.8 4.6-.9 2.3-.9 4.7-.8 7.4-1.6-.2-3.1-.8-4.6-.5-2.6.5-4.5 1.9-4.9 4.6-.3 2.2.4 3.9 2.5 4.9.7.3 1.5.8 2 .1.6-.9-.1-1.4-1-1.8-1.5-.6-1.9-1.9-1.5-3.4.4-1.6 1.7-2.4 3.3-2.5 2.6-.2 4.8.6 5.9 3.2 1.2 2.8.2 6.4-2.3 8.2-2.6 2-6.8 1.9-9.8-.1-3-2.1-5-6.8-4.1-9.6.2-.7.8-1.2 1.3-1.7 4.7-5.1 9.4-10.2 14-15.4 1.3-1.5 2.6-2.2 4.6-2.1 2.5.2 5.1 0 7.6 0 .8 0 1.5-.1 1.4-1.1-.1-.9-.7-.9-1.4-.9h-10.1c-1.4 0-2 1-2.7 1.9-4.8 5.1-9.5 10.3-14.8 16.1 0-7.9.1-15 0-22 0-1.8.8-2 2.2-2 8.1.1 16.2.1 24.3 0 .8 0 2.4.8 2.4-1 0-1.7-1.6-1-2.4-.9-2.4.3-3.1-.5-3-2.9.2-6.2.1-12.4 0-18.6 0-1.5.2-2.3 2-2.3 6.6.1 13.2 0 20.6 0-4.6 3.6-8.6 6.7-12.6 9.8-2.2 1.6-3.5 3.6-3.7 6.3-.2 2.8 1 4.9 3.4 6.3 2.3 1.3 4.6 1.4 6.9 0 2.6-1.6 3.2-5.1 1.5-7.4-1.7-2.1-4.8-2.2-6.2 0-.3.5-1.1 1.3-.3 1.9.5.3 1.2.3 1.7-.4 1-1.5 2.3-1.6 3.3-.1 1 1.6.7 3.2-1 4.4-1.9 1.3-4.7.7-6.2-1.2-1.7-2.1-1.4-5.5 1-7.3 5.1-4 10.4-7.9 15.6-11.8.2-.2.6-.1.9-.2-3.1 29.9-22.5 65.9-50.1 85.7v-24.1c2.1 1.9 4 3.6 6.7 4.1 3.7.7 7 0 9.5-2.8 2.5-2.9 3-6.2 1.4-9.7zm-19.9 53.5c0 2.2-1.4 1.6-2.5 1.6-1.2 0-2.5.4-2.5-1.7.1-5.1 0-10.3 0-15.4 0-3.3 3.4-1.6 5-3 0 6.2-.1 12.4 0 18.5zm-3.4-19.6c-2.1.8-4.3 1.1-6.2-.7-.6-.5-.7-1.1-.3-1.7 1.8-3.4.8-7 .4-10.5-.4-3.4-.9-6.9-1.7-10.3-1.9-8.6-.5-16.9 1.4-25.3 2.5-10.9 3.7-22 2.3-33.2-.5-4.2-2.4-8.1-3.4-12.2 6.3 6.7 10.7 14.4 10.8 23.8.2 22.1.1 44.2.2 66.3 0 2.6-1.7 3.1-3.5 3.8zm-8.3 24.4c.1.9 0 1.9 0 2.8.1 1.1-.2 1.8-1.5 1.8-2-.1-3.9 0-6.4 0 4.2-4.6-.3-7.8-1.3-11.7h12.1c1.4 0 1.8.5 1.8 1.9s-.2 2.4-1.8 2c-2.9-.6-3.1 1.1-2.9 3.2zm-17 .4c-.3-5.6.5-11.4-1.2-16.9-.4-1.3 4.3-6.3 5.9-6.4.8 0 1.8.1 3.2.1-1.1 3.1-2 5.7-3 8.4s-.8 5.3.7 7.8c1 1.7 1.9 3.5 2.8 5.3.6 1.2 1.2 2.6-.1 3.7-2.1 1.9-4.7 1.8-7.2 1.2-1.6-.4-1-2-1.1-3.2zm-67.7 13.2c1.5-2.3 2.8-4.1 4-6 .3-.5.7-.9 1.2-.8.6.2.5.8.5 1.3.8 5.5.5 5.8-5.7 5.5zm5.8 3.6c0 1.6-.9 1.6-2.1 1.4-4-.5-8-.4-11.9.4-1.3.3-1.7.1-1.7-1.2v-9.5c0-1.1.2-1.7 1.5-1.7 3.4.2 6.7.1 10.6.1-2 3.1-3.7 5.7-5.8 8.8 2.8 0 5.1.1 7.5 0 1.3 0 1.9.3 1.9 1.7zM136.2 396c-1.8 0-2.6-.4-2.3-2.3.1-.7-.1-1.5 0-2.2.5-2.7-.5-3.9-3.4-3.5-1.2.2-2.7.5-2.7-1.8 0-2.5 1.5-2 2.9-2 5-.2 10.1-.2 15.2-.2 0 .5.1.8 0 .9-1.5 2.5-2.6 5 .4 7.2 2.1 1.6 6.8 1.2 8.9-.7 1.4-1.3 1-3.1 1.3-4.7.2-.8-.8-2.1.5-2.4 1.1-.3 2.6-.7 3.5.4 2.4 2.8 4.9 3 7.7.8.7-.6 1.1-.6 1.7.2 1 1.2 2.4 2.1 3.2 3.5 2.5 4.2 6.4 4.2 10.5 3.8 1.5-.1 3-.5 3.5-2.2.5-1.9-.3-3.3-1.8-4.3-1.1-.7-2.3-1.3-4-2.2h37.8c-.4 1.3-1.6 1.5-2.4 2.2-2.3 1.9-4 4-3.1 7.3.5 1.7-.1 2.2-1.9 2.2h-75.5zm-12.1-70.5c1.9 5.7 1.8 11.6 1.7 17.5-.1 14.2-.1 28.4 0 42.6 0 2.1-.7 2.4-2.5 2.4s-2.6-.2-2.6-2.4c.1-62.8.1-125.5.1-188.3 0-.2.1-.5.2-1.2 3.4 1.2 6.4 2.4 9.6 2.9 1.2.2 1.5.9 1.4 2-.4 5.8 1.2 11 4.5 15.8.6.9.7 1.5-.3 2-.1 0-.2.1-.3.2-12.5 7.7-14 19.6-11.6 32.3 1.4 7.5 1.7 14.7-.3 22.1-.9 3.2-.6 6.3 1.2 9.1.7 1.1.7 2.2.7 3.3v34.4c0 1.2.3 2.5-1.4 3.1-1.2.4-.6 1.5-.4 2.2zm-.6-188.1c-.9-.2-2.2.6-2.6-1-.3-1.5.8-2 1.8-2.5 6.5-3.6 13.1-7.1 19.9-10.9v31c-3-3.2-5.8-6-9-8.3-.9-.7-.9-1.6-.9-2.5v-4.7c0-.6 0-1.3-.9-1.3-.9-.1-1 .5-1.1 1.2v.3c1.4 5.5-1.9 8.4-5.9 11-1.3.8-2.4 1.9-4 3.3 0-4.4.1-8.1 0-11.8-.1-2.1 1.2-1.7 2.5-1.8.8-.1 2.2.5 2.3-.9.1-1.5-1.3-.9-2.1-1.1zm19.3 38.1c0 1.8-.7 2-2.2 2-3-.1-5.9 0-8.8 0h-9.1c-1.4 0-1.8-.4-1.8-1.8.1-6.3 0-12.6 0-18.9 0-.6 0-1.2.6-1.7 3.1-2.9 6.4-5.4 9.7-8 .8-.6 1.3 0 1.9.4 3.1 2.4 6 5 8.2 8.2.9 1.3 1.6 2.7 1.5 4.4 0 5.1-.1 10.3 0 15.4zm-22 4.8c.3-1.4 1.5-.8 2.4-.8H145c-3.2 2.3-5.6 4.2-7.4 6.6-.5.7-1.1.7-1.9.5-4.4-1-8.8-2-13-3.8-1.1-.5-2.2-.9-1.9-2.5zm25.7-2.7c-2 0-1.8-1.1-1.8-2.4v-51.1c0-1.2-.4-2.9 1.5-2.9s2.1 1.5 2.1 3.1v50.8c0 1.2.3 2.5-1.8 2.5zm23.8-38.4c1.8-.1 2.4.5 2.3 2.3-.1 3.6 0 7.3 0 11.6-3.3-3.3-6.2-6.2-9.7-8.2-.9-.5-.7-1.5-.7-2.3v-5c0-.7-.3-1.2-1.1-1.1-.7 0-1 .6-.9 1 1.9 6.9-3.7 9.4-7.4 13.1-.5.8-1.2 1.6-2.3 2.7v-30.4c7.1 3.3 14.1 6.5 21 9.6 1.8.8 1.1 2.3 1.1 3.5 0 1.8-1.5.9-2.4 1.2-.9.2-2.5-.6-2.6.9 0 1.8 1.7 1.1 2.7 1.1zm-16.2 13.3c8.5-8.4 5.7-7.8 14.2-.8 3.3 2.7 4.9 6 4.5 10.4-.4 4.4-.2 8.8 0 13.2 0 1.7-.4 2.2-2.1 2.1-2.4-.2-4.8 0-7.2-.6-4.3-1-8.6-.8-13.1.5 0-6.3-.1-12.2 0-18.1 0-2.8 1.8-4.9 3.7-6.7zm71-17.7c.1 2-.4 3-2.6 2.6-.7-.1-1.6-.1-1.6 1 0 1 .9 1.1 1.6.9 2.2-.4 2.5.7 2.5 2.6-.1 11.1 0 22.1-.1 33.2 0 .8.8 2.2-1 2.4-1.6.2-2-.5-2.4-2-3.5-11.7-9.8-22-16.3-32.2-2.9-4.6-5-9.1-4.3-14.6.1-.8.6-2.1-.9-2.2-1.8-.1-1.3 1.4-1.2 2.3.8 5.6-1.3 10-4.3 14.6-5.7 8.7-10.8 17.7-14.4 27.6-.6 1.7-1.1 3.4-1.4 5.1-.3 1.5-1.2 1.4-2.3 1.4-1.6.1-1.2-1.1-1.2-1.9 0-11.5 0-22.9-.1-34.4 0-1.9.9-2 2.3-1.9.8 0 1.9.3 2-.9 0-1.3-1.1-1.1-1.9-1-2.1.3-2.4-.7-2.4-2.5.1-5.2.1-10.3 0-15.5-.1-2 .4-2.7 2.6-2.6 7.5.1 15 0 22.6 0 7.4 0 14.7.1 22.1 0 1.9 0 2.8.3 2.7 2.5-.2 5.2-.1 10.3 0 15.5zm1.2 78.7c-1.7-2.7-2-5.2-.1-7.9.9-1.2 1-2.7 1-4.2 0-2.3.3-4.6 1.6-6.7 1.7-2.8 4.2-3.5 7.4-2.2-6.5 3.8-9.1 12.6-6 20.8 1 2.6 1.1 5.3 1.3 8 .1 1.6-.5 2.1-2 2.5-2.8.6-5.4.3-8.1-.3-1.5-.3-1.8-1.3-1.6-2.5.2-1.5 1.2-1.1 2.2-.9 2 .5 3.8.4 5.1-1.4 1.4-1.9.2-3.6-.8-5.2zm26.6-1c.9 2.8 3 5.3 5.7 5.2 4.5-.1 5.4 3.1 7 5.9 0 .3.1.6.5 1.8-2.3-1.3-3.7-2.3-5.3-3.1-2.8-1.4-5.7-2.4-8.8-1.2-1.7.6-2.1 0-2.4-1.6-.6-2.6-.7-5.1-.2-7.8.6-3.5.3-7.2-.5-10.7-.8-3.7-2.7-6.6-6.6-7.8 3.7-2.6 6.8-2 9.1 1.5 1.9 2.9 2 6.1 1.3 9.4-.6 2.8-.7 5.6.2 8.4zm15.3-10.6c-.1-1.7.4-2.5 2-2.7 3.1-.5 5.9-1.9 9-3v50.1c-5.5-5.9-9.8-12-10.7-20-.3-2.3-1.1-4.6-2.7-6.3-2-2.3-1.7-4.1-.2-6.6 2.1-3.5 2.8-7.5 2.6-11.5zm-.8-5.8c-.5-2.5-1.5-4.6-2.7-7.1 5-1.1 9.7-2.4 14.6-4.3v7.4c0 .4 0 .9-.1 1.2-.5 1.2-9.8 4.6-11 4-.4-.2-.7-.8-.8-1.2zm-33.9 24.8c-.7-2.3-.1-3.9 2.8-5.4 2.6-1.3 4.5-1.3 6.6.3 1.6 1.3 4.6.4 4.9 3.5.2 2.2.1 4.4-.6 6.5-.5 1.8-.9 3.7-1.4 5.5-1.6 4.9-5.3 7.3-10.2 7.1-4.1-.2-5.3-1.8-3.9-5.7 1.3-3.7 1.9-7.4 1.8-11.8zm13-20.9c-1.6.3-3.2.5-4.8.8-.6.1-1.3.2-1 1.1.2.8.7.8 1.5.8 5.5-.1 5.5-.1 5.6 5.5v1.3c-.2 6.1-.2 6.1-5.7 3.6-2.3-1.1-4.3-.6-6.1.8-1.9 1.5-3 1.1-3.8-1.2-.9-2.8-.6-5.6-.6-8.4 0-2.4 1.6-2 3-2 1.6 0 2.6.7 2.3 2.5-.3 1.4-.7 2.9-1 4.3-.1.5-.8 1.2.2 1.6.7.3 1.3 0 1.5-.7.5-2.1 1.1-4.3 1.4-6.4.2-1.4-.9-2.2-2.2-2.7-1.7-.9-3.3-.4-4.9-.9.9-3.3 2.9-5.1 6.2-5.3 4-.3 6.7 1.4 8.4 5.3zm-25.2 25.7c2.8.7 5.6 1 8.4.2 1.8-.5 1.8.4 1.5 1.6-.3 1.4-.7 2.8-1.2 4.2-2 5.9 0 8.7 6.3 8.8 5.3 0 9.5-3 11.3-8.3.5-1.6.9-3.2 1.3-4.9 1.1-4.1 3.2-5.4 7.5-4.6 3.8.6 6.3 3.8 9.9 4.8.2 0 .4.5.4.7 0 .6-.4.6-.9.6-6.5-.1-11.3 2.9-15.3 7.9-2 2.5-5 3.8-8.1 4.6-6.9 1.9-13.3 4.6-17.4 11-.3.5-.9 1.1-1.4 1.1-8 .7-14.1 5.7-20.8 9.2-.8.4-1.6 1.6-2.4 1-1.1-.7-.7-2.1-.5-3.2.5-2.1 1.4-4 2.9-5.5 5.6-5.3 8.5-11.9 9.4-19.4.5-4.4 3.4-7 6.4-9.7.9-.8 1.8-.4 2.7-.1zm-13 60.1c-3.5-6.1-2.5-9.2 3.2-13.3 4.3-3.1 9-5.4 13.8-7.5 3.6-1.6 7.3-1.4 11-.2-2.1 8.7-7.5 15.1-13.7 20.8-3.4 3.1-5.7 6.7-7.1 10.9-1 3.2-1.9 6.4-4.5 9.9.1-1.8 0-2.8.2-3.7 1.3-6 .1-11.5-2.9-16.9zm4.1 53.9c1.5 1.3 1.9 2.4.8 4.5-2.3 4.6-3.4 9.7-3.9 14.9-.7 7.6 3.1 11.4 10.6 10.5 2.6-.3 3.6.5 3.8 2.9.1 1.6.5 3.1.4 4.7-.1 3-2.1 4.9-5.2 4.9h-36.3c-.9 0-2.6.9-2.7-1 0-1.7 1.6-1.2 2.6-1.4 2.3-.6 4.7-1 7-1.7 4.3-1.4 6-4.5 3.4-8.3-5.3-7.7-4.1-15.8-2.8-24 .4-2.5 1.2-5 3-6.9 5.8-5.9 6.1-12.8 4.4-20.2-1.1-4.8-1.3-9.4 1.1-14.1 1.7-3.4.9-7.2.1-10.8-.5-2.4-.6-4.8-.1-7.2.6-2.9.6-5.8-.1-8.7-.6-3.3.1-6.5 1.4-9.9 1.7 2.2 3.3 4.2 5.3 5.8.8.6 1 1.1.4 2.1-1.7 2.6-1.9 5.6-.2 8.1 6.5 9.3 4 19.3 2.9 29.2-.4 3.4-.9 6.9-1.3 10.3-.7 6.3.3 12 5.4 16.3zm61.4-72.4c.4 1.2-.9 1.6-1.4.9-1-1.3-2.7-1.9-3.2-3.7-.9-3.2-2.1-3.5-4.5-1.1-2.2 2.5-2.2 2.5-4.3 2.6.3-3.8.3-3.8-5.5-2.1-.6-3.1 1.1-5.3 2.8-7.6 2.6-3.4 2.2-5.2-1.7-7.1 1.6-2 3.8-2.8 6.2-3.3 2.3-.4 3.1.7 2.7 2.9-.2.8-.5 1.6-.7 2.4-1.4 4.1-.4 5.3 4 5.2.7 0 1.5-.1 2.2 0 3 .3 4.4 2.2 3.8 5.1-.4 1.9-1.1 3.8-.4 5.8zm-5.3-14.3c-.5.9-1.1 2-2.4 1.5-1.4-.6-.4-1.6-.2-2.4.8-2.5 2.1-5.2-.5-7.2-2.5-2-5.2-.5-7.7.6-1 .4-2 1.2-2.8 2-1.5 1.6-1.8 3.1.7 4.1 1 .4 1.8.7 1.5 2-.2 1-.7 1.9-1.5 2.3-1.1.6-1.6-.7-2.1-1.4-2.1-2.8-2.5-5.9-1-9.2 1.6-3.4 4.6-5.3 8.1-5.3 6.7 0 11.1 7.2 7.9 13zm-10.6 14.3c.7 1.5 4.6 1.3 6.5-.4.8-.7 1.5-1.6 2.8-3-.4 3.2 2.4 3.6 3.4 5.6-6.3 3-12.5 2.3-19 .1.7-1 1.2-1.8 1.8-2.5 1.5-2 3.5-1.9 4.5.2zm4.3 8.5c.4-1.4.5-2.6 2.4-2.6 2-.1 1.8 1.5 2.2 2.5 4.6 9.8 3.6 20.1 2.7 30.4 0 .1 0 .2-.1.3-.8 5.3-.8 5.3-6 5.2-5.6-.1-10.2 2.2-14.3 5.7-2.5 2.1-4.9 4.3-7.3 6.5-4 3.7-8.5 6.6-13.7 8.1-3.4 1.1-6.7 2.7-9.9 4.6 1.1-3.1 3.1-5.2 5.7-6.9 2.1-1.3 3.9-3 5-5.1 3.2-6 7.9-10.7 12.9-15 10.5-9 16.7-20.6 20.4-33.7zm-36.4 96.9c-.2-1.1-.5-2.2-.7-3.5 2.7-.8 5.5-1.2 8.5-.2-.7 1.5-1.5 2.8-2.1 4.2-1.2 3-.9 5.9.8 8.8 1.2 2.1 2 4.7-1.2 5.6-5.6 1.4-10.4 4.3-15.2 7.4-1.4-3.5-.2-5.8 2.6-7.4 2.5-1.5 4.3-3.7 6.1-5.9 2.3-2.7 1.7-5.9 1.2-9zm7.7.5c1.6-3.9 2.3-4.1 6-2.2 2 1.1 4.1 2.2 6.3 2.9 1.8.6 3.7 6.9 2.6 8.3-.5.6-1.2.4-1.7.4-1.8-.1-3.5-.1-5.2-.1h-2.2c-5.6 0-8.1-3.9-5.8-9.3zm14-8.8c-.4 2.4-.7 4.8-1.1 7.4-3.2-.5-5.5-2.6-8.2-3.6-1-.4-.3-1.2 0-1.9 3.9-8.9 3.2-18 1.2-27.2-.5-2.3-.7-4.5-.6-6.9.2-2.4.9-4.5 3.2-5.8 1.1.4.3 1.5.8 2.1-.1 1.7.2 3.4 1 4.9 5.2 9.9 5.5 20.3 3.7 31zm-20.2-30.1c3.2-1 6.4-2.1 9.8-4.2-.8 4.2 0 7.6.7 11.1 1.5 8 2.1 16-1.3 23.8-.5 1-.7 2.3-2.3 1.8-3.9-1.1-7.7-.3-11.5.5-9.3 1.8-12.3-1.1-11-10.5.5-3.3 1.4-6.5 2.4-9.7 2.1-6.7 6.8-10.7 13.2-12.8zm-69.5 47.9c-1-.1-2.5.3-2-1.4.2-1-.2-2.9 1.9-2.5 1 .1 2.8-.4 2.2 1.9.3 1.6-.5 2.2-2.1 2zm.6-5.9c-3.1-.8-6-1.8-8.8-3.4-1.6-.9-2.7-2.4-2.9-4.3 0-.2-.1-.4-.1-.6 1.6-14.1-3.1-27.7-3.5-41.6-.1-5.3.2-10.8.8-16.8 2.4 2 3.8 4.1 4.4 6.3 1.6 6.4 5.7 10.9 10.6 14.8 1.3 1.1 1.9 2.2 1.7 4-.6 5.2.6 10.3 1.3 15.3 1.2 8.4-.2 16.6-1.2 24.8-.2 1.7-1 1.8-2.3 1.5zM133 354.7c-.3-1.4.5-1.6 1.3-2.1 1.2-.6 2.4-1.2 3.9-1.9 1.2 8.6 2.2 16.8 3.5 25.1.3 2.3-1.4 2.8-2.9 4.4-2-8.9-3.9-17.2-5.8-25.5zm4.1 27.5c-2.3 0-4.3-.2-6.3 0-2.3.2-3-.4-3-2.9.2-11.7.1-23.3.6-35.1 2.8 12.6 5.7 25.1 8.7 38zm-5.4-82.3c.6 1.3-.3 2.2-.9 3.2-1.4 2-2.1 4-2 6.4.4 1.5.9 3 1.3 4.5.2.6.4 1.5 1 1.4 3.2-.5 2.7 2 2.7 3.5 0 1.8-2.2 1.4-3.4 2.1-.6.4-1.3.8-2.1.5-.8-.4-.5-1.1-.5-1.6v-33.4c0-.3.1-.6.2-1 3 1.3 4.8 2.8 3.7 6.4-.8 2.6-1.2 5.3 0 8zm1.6 8.2c-1.8.3-.5 1.7-.6 2.5-.1.8.4 1.6-.5 2.7-1.4-2.5-1.9-4.8-.8-7.4.8-1.8 2-3.4 2.6-5.3.6-1.8 4-1.7 5.3.1 1.4 2 1.2 5.1-.5 6.8-1.1 1.1-2.3 2.1-3.6 3.2-1.1-.9.2-3-1.9-2.6zm8.4-.8c-.2 3.3-.2 5.9-.5 8.4-.4 3.1-3.5 1.9-5.1 3.5-1-5.4-1-5.4 5.6-11.9zm-.7 12.5c-.4 8.3.4 16.4 2 24.4.4 2.2-1.2 2.3-2.3 2.6-1.7.5-1-1.2-1.1-1.9-1-6.4-1.8-12.9-2.8-19.3-.6-4.6-.7-4.6 4.2-5.8zm4.4 52.7c.2 1.1.7 2.7-.8 2.9-1.6.2-1-1.6-1.1-2.6-1-6.8-2-13.7-2.9-20.5-.1-1-.8-2.2.1-2.9.8-.6 1.9-1.3 2.8-1.3 1.2.1 1.1 1.6 1.2 2.5.1 3.1 0 6.1 0 7.7-.5 5.7-.3 10 .7 14.2zm.8 4.6c1.6 5.8 1.6 5.8-6 4.8 2.1-1.7 4-3.2 6-4.8zm1.2 9.2c.9-1.3 1.9-2.5 2.9-3.6.7-.8 1.7-1.5 2.8-1 1.1.5 1.1 1.6 1.2 2.7.1.7.1 1.4.2 2.9.5 2.4-1.3 3.5-4.1 3.8-1.5.2-2.8-.1-3.6-1.3-.9-1.2-.1-2.4.6-3.5zm.9-11.7c1.8.8 3.4 1.6 5.2 2.3.7.3 1.2.6.9 1.6-.3.8-.6 1-1.5 1.2-4.1.5-4.1.5-4.6-5.1zm-2.3-91.8c0-.2-.1-.4-.1-.6.5-6.8-.9-13.2-4.4-19.2-1.2-2.1-.6-4.5 0-6.8 1.7-6.2 1.2-12-3-17.3-2.7-3.4-6.1-4.6-10.1-5-.6-.1-1.8.3-1.6-.8.2-1.5.7-2.9 1.7-4 .6-.7 1-.3 1.6.1 7.6 5.3 16.3 6.6 25.2 6.5 1.9 0 2.9.5 3.3 2.4.9 4.2 2.6 8.1.4 12.6-1.1 2.3.3 5 1.1 7.3 1.2 3.4 1.5 6.7-.1 10.1-1.2 2.7-.7 5.3.4 7.9 1.2 2.9 2.1 5.9.9 9.2-.9 2.6.3 5 1.9 7.1 2.1 2.8 3.6 5.9 5.3 8.9 2.2 4 2.2 7.4 0 11.4-3.1 5.2-6 10.9-7.2 17.7-4.5-4-8.8-7.3-10.3-12.9-1.1-3.9-3.3-7.3-6.3-10-.8-.7-1.7-1.4-.9-2.6 4.4-7 3.9-14.4 2.2-22zm28-72.8c.3 4.2-1.7 5.5-6.3 4 1.7-2.5 3.6-4.9 4.2-7.9.8-3.5.2-4.7-3.2-5.9-.7-.3-1.4-.5-1.7-1.2-.6-1.3-1.1-2.9-2.5-3-2.5-.2-4.9-1.4-7.4-.7-2 .5-3.6 1.7-4.3 3.8-.6 1.6-1.5 3-2.6 4.3-1.4 1.7-2.7 1.5-4.2.2-1-.9-1-1.4.1-2.1 1.4-.8 2.3-1.9 2.5-3.4.5-3.1 2.5-4.1 5.3-4 1.1 0 2.4 0 3.3-.8 2.1-1.8 4.1-2.5 6 .4.5.8 1.6.6 2.3.3 2.4-1.3 3.4 0 4.1 2.1.6 1.8 1.8 3.3 3.6 4.2 2 1.1 2.3 2.6 1.5 4.5-.7 1.7-.8 3.4-.7 5.2zm-18.2-11.6c1-2.6 7.9-1.5 9.3 1.1.8 1.4 1.8 2.3 3.4 2.5 1.5.2 1.8 1.2 1.8 2.5-.1 3.7-5.9 11.4-9.4 12.5-.5.1-.9.1-1 .2-3.4.1-7.1-3.2-7.4-6.4 0-.4 0-1-.2-1.2-4.5-5.4 2.1-7.6 3.5-11.2zm-.3 19.5c1 1.1 2.8 1.6 4.1 1.1 4-1.4 6.7 1.3 10 3-2.2 1.1-3.4 3-4.9 4.5-2.7 2.7-4.7 2.9-7.8.8-2.6-1.8-5.6-2.3-8.6-2.4-1.4 0-2.8 0-4-.8-1.9-1.3-4.2-3-4-5.3.2-1.7 3.1-1.6 4.9-2.1.5-.2 1.1-.1 1.6-.2 3.2-1.2 6.1-1.5 8.7 1.4zM141 224c1.9 1.7 3.8 2.9 6.4 2.9 3.4 0 6.6.6 9.5 2.8 2.3 1.8 5 1.5 7.4-.1 1.2-.8 2.2-1.9 3.2-3 3.9-4.4 6.6-3.9 8.5 1.6.5 1.5-.9 1.5-1.5 1.8-6.4 2.9-13 3.7-19.8 3.7-7.4-.1-14.6-1.1-21.2-4.7-3.6-2-3.6-2.2-.7-4.9.2-.1.3-.3.5-.4 1.5-1.2 2.8-3 4.5-3.3 1.6-.3 1.9 2.4 3.2 3.6zm54.6 94.4c.3 1.7.6 3.3.9 5 .7 4.5-.4 8.3-3 12.1-7.4 10.7-8.9 22.1-2.5 34 2.3 4.2 1.6 5.8-2.9 7.1-8.1 2.3-7.8 2.2-9.2-6.1-1.3-7.7-1.5-15.2.6-22.7 1.1-3.8-.2-7.5-1.5-11.1-.6-1.7-.4-2.7.9-3.9 1.6-1.5 2.9-3.3 4.4-5 5-5.4 8.4-11.3 9-18.9.4-5.6 2-7.6 5.3-9.5.2 1.8 0 3.5-.8 4.9-2.5 4.6-2.1 9.3-1.2 14.1zm-3.2-16.1c-2.2 2-2.2 5.9-2.5 9-.4 4.4-2 8.1-4.8 11.4-2.8 3-5.2 6.4-8.4 9.4-1.1-2.7.1-4.5 1.3-6.2 2.6-3.4 3.2-6.7 1.7-11.1-2.1-6.3-.4-12.9.2-19.4.4-5 2.4-8.7 6.5-11.6 1.6-1.1 2.7-2.2 5-1.6 2.1.6 3.8-1.2 5.7-2.4.6 2.7-.4 5.1-.3 7.4.3 5.6.3 10.7-4.4 15.1zm4.1-28.2c-.4 1.2.7 3-1 4.4-3.5 2.9-9.7.9-10.8-3.6-.1-.5 0-.8.3-1.1 1.9-2.1 3.7-4.4 5.8-6.2 1.9-1.6 5.7 1.1 5.8 4.1.1.6 0 1.4-.1 2.4zm-13.3 2.2c.4.4 1 1.1.1 1.5-.7.2-1.6.9-2.1-.3-.2-.6-.3-1.2-.5-1.8-2-8-4-16.1-6-24.1-.5-1.8-.4-2.8 1.8-3.3 1.9-.4 3.1-.7 3.7 1.9 1.2 6.1 2.9 12 4.4 18 0 .5.1 1.2.2 1.8.2 1-.5 1.6-1.1 2.1-1.3 1.3-2.2 2.5-.5 4.2zm8-11.1c-1.9.2-2.9 2-4.6 3.4-1.7-6.9-3.3-13.5-5-20-.2-.9-.3-1.4.9-1.8 5.2-2 5.9-1.7 7.1 3.5 1 4.2 1.9 8.4 2.9 12.5.3 1.3.4 2.1-1.3 2.4zm-17.1-18.4c-1.9.4-2.4.9-1.9 2.9 2.5 9.5 4.8 18.9 7.1 28.4.5 2 1 2.8 3.1 1.9.6-.3 1.3-.2 1.8-.4 1-.4 1.9-.4 2.5.6.6 1.1-.6 1.4-1.1 1.8-5.8 4.3-9.6 9.9-11.1 17-.4 1.8-1.1 3.5-2.7 5.3-2.5-5.6-5-10.8-8.3-15.7-.6-.9-.7-2.1-.3-3.1 1.4-3.8.4-7.3-1.1-10.7-1.1-2.5-.5-4.8-.1-7.3.8-5.5 3.2-10.5 4.4-15.9 1.6-6.8 6.9-11.1 11.8-15.6 1.1-1 1.4.2 1.9.8 1.6 2.3 3.3 4.5 5.3 7.2-4 1-7.7 2.1-11.3 2.8zm2.8-12.2c-2.8 2.1-5 4.7-7.3 7.4-2.8 3.2-5 6.7-5.4 11.1-.2 1.5-.7 3-2.1 4.5-1.2-3.2-1.9-6.1-.4-9.5 1.3-2.8-.2-6-.9-8.9-.3-1.1-.6-2.2-1-3.6 5.7-.8 11.3-1.6 16.3-4.4.5-.3 1.1-.4 1.3.3.3 1.1.8 2.1-.5 3.1zm-14.9 146c.6-4.2 1.1-8.3 1.8-12.5 1.3-8.4.7-16.8-.7-25.1-1.4-8 .4-15.4 3.7-22.7 3.2-7.2 6.5-14.2 9.7-21.4v-.1l.6-2.4h.1l.5.5v.1c-.2 1.2 0 2.6-.6 3.9.1 5.9-1.1 11.9 1.7 17.7.8 1.8-.5 3.7-1.7 5.2-3 3.6-3.3 7.4-1.4 11.7 2.3 5.3 2.9 10.8 1 16.6-2.2 6.8-.1 13.6.6 20.3.3 2.8.5 5.6.7 8.7-4.3-1.7-7.7-.8-10.5 2.4-1.1 1.3-2.6 1.9-4.2 1-1.6-.9-1.5-2.5-1.3-3.9zm14.8 2.6c2.2 1.9 4.4 3.5 7 4.7.9.4 1.7 1.1 1.4 2.2-.3.9-1.3.9-2.1 1-5.2.5-9.6-2.4-12.2-8 2-1.2 4.1-1.4 5.9.1zm32.4-111.5c-1.6 1.1-2.3 1-3.6-.2-5.5-5.2-5.6-5.3.9-9 2.7-1.6 5.6-2.9 8.3-4.5 3.9-2.2 7.8-3.3 12.3-2 2.4.7 5 .5 7.1-.5 4.3-2 8 .1 11.8 1.2 1.8.5 1.9 1.7.7 3.1-2 2.4-4.6 3.2-7.6 3-.4 0-.9 0-1.3-.1-11.5-3.2-20 3.3-28.6 9zm8.9-52.2c.8 4.6-3.3 6.3-5.3 9.2-1.3 1.8-2.1 3.8-2.4 6.1-1 7.1-3.7 13.5-9 18.6-3 2.9-4.5 6.6-3 10.9.4 1.5-.3 2.5-.9 3.7-1.9-1.2-2.5-2.8-2.9-4.6-1.4-6.2-2.9-12.3-4.3-18.4-.2-1.1-.3-2.2-1.9-1.8-.5.1-1 0-1.4-.5-2.5-3.4-5.7-6.5-7.2-10.3-1.2-2.9-2.4-5.7-4.2-8.3-1-1.4-1.2-2.4.3-3.9 4.2-3.9 6.6-8.9 7.3-14.6.2-1.5.6-2.2 2.2-2.5 4.5-.8 9-2.1 13.3-3.8 1.1-.5 2-.2 3 .2 4.1 1.7 8.3 3 12.7 3.7 1.6.3 2.3.9 2.4 2.6 0 2.6.7 5.2 1.6 7.7.7 2 2.8 4.1-.3 6zm-13.4-45.7c1.8 1.8 3.9 1.8 6.1.6 2.2-1.3 3-4.2 1.9-6.7-.5-1.1-1.2-2.1-2.2-2.6-1.7-.7-2.5-1.8-2.9-3.6-.4-2-2.1-3.4-4.1-4-.6-.2-1.3-.5-1.5.4-.2.5 0 1 .6 1.3.7.3 1.4.6 1.9 1.1 2.1 1.7 1.6 2.6-.6 4.1-2.7 1.8-4.9 2.9-7.4 0-.6-.7-2.4.2-2.4-1.4 0-1.4 1-2.5 2.2-3.3.8-.5 2.6-.6 1.8-1.9s-2.4-.2-3 .4c-2.8 3.2-5.3 6.6-7.8 9.9-1.6 2.1.2 5.6 2.6 6.6 2.2 1 5 .2 6-1.8.3-.5.9-1.1.3-1.7-.5-.4-1.3-.5-1.7.2-1.1 1.8-2.6 2.2-4.3 1.2-1.3-.8-1.7-2.2-1.3-3.6.6-2.1 2.1-3.1 4.2-3.2 3.2-.2 5.5 1.7 5.8 4.9.8 6.8.8 6.8-5.8 6.8-3.4 0-6.7-.1-10.1 0-2.4.1-2.8-.7-2.2-2.9 1.1-3.6 2.6-7.1 4.2-10.5 4.4-8.7 9.4-17.1 15-25.6 6.8 11 13.5 21.6 18.2 33.2.5 1.3.8 2.6 1.3 3.9.7 1.6.1 2-1.5 1.9-5.1-.1-10.1 0-15.2 0-.6 0-1.6.2-1.7-.4-.2-3-.9-6.1.8-8.9 1.2-2.1 3.3-2.5 5.5-2.2 2.2.4 3.6 1.7 3.7 4 .1 1.4-.6 2.5-1.9 3-1.1.4-2.4.4-3.1-.7-.6-1-1.4-1.7-2.2-.9-.6.6.1 1.8.8 2.4zm-4.7 5.7c1.3.3 2.3.9 2.3 2.5 0 1.4-.9 2.2-2.1 2.3-1.4.1-2.4-.7-2.5-2.2 0-1.6 1-2.3 2.3-2.6zm.2 8c3.8 0 7.6 2.6 11.6 3.6 2 .5 4.7.3 5.9 1.5 1.1 1.2-.7 3.6-.9 5.5-.2 1.4.9 3.8-2 3.3-4.1-.9-8.2-1.9-12.1-3.6-1.9-.9-3.5-.8-5.4 0-3.7 1.6-7.6 2.4-11.4 3.4-1.9.5-2.5-.1-2.5-1.9 0-.4-.2-.8-.1-1.3.1-1.9-2.1-4.1-.7-5.5 1.2-1.2 3.8-.9 5.7-1.4 4.1-.9 8-3.6 11.9-3.6zm17.6 3c-5.3-1-10.5-2.1-15.4-4.4.8-1.3 2.3-2.4 1.9-4.1-.6-2.4.5-2.5 2.4-2.5h21.9c-3.6 3-6.7 6.1-8.8 10.1-.5.8-1 1.1-2 .9zm-24.1-11c1.5 0 2.8-.1 2.2 2.1-.5 1.9.9 3.1 2.1 4.5-5.1 2.4-10.4 3.5-15.8 4.4-.9.2-1.4 0-1.8-.8-2.1-4-5.3-7.2-8.8-10.2h22.1zm-33-1.1c10 1.3 16.8 7.1 19.7 16.7 2.8 9.1.4 17.2-6.2 24.1-1.4 1.5-2.7 2-4.5.6-1.3-1-2.9-1.7-4.4-2.5 0 0-.1-.2-.4-.4.9-1.4 1.9-.7 2.9-.5 5.6 1.2 8.6-1.4 8-7.1-.1-1.4.1-2.7.6-4 1-2.9.7-5.4-2.4-6.9-1.6-.8-2.4-2.3-3-3.9-.5-1.2-1-2.9-2.2-2.9-3 .2-5.7-.5-8.1-2.1-.3-.2-.9-.1-1.2.1-2.9 2.1-6.4 2.5-9.7 3-1.1.2-1.8 1.1-2.2 2.1-.8 2.4-1.8 4.5-4 6.1-1.5 1.1-.6 2.7.7 3.7 1.4 1.1 2.9 2.1 4.3 3.1 1.7 1.3 2.2 3.1 1.7 5-.5 1.9-2.3 1.6-3.7 1.8-1.9.2-3.8.4-5.5 1.3-2 1.1-2.9.3-3.9-1.4-4.8-8.7-4.8-17.4.7-25.6 5.4-8 13.2-11.6 22.8-10.3zm-27.9 17.5c-.2 1.2-1 1.2-1.8 1-.7-.2-1.4-.3-2.1-.5-9.7-3.1-8.2-1.5-7.8-11.7 4.3 1.7 8.7 3 13.2 3.9 1 .2 1.1.6.7 1.5-1 1.8-1.8 3.8-2.2 5.8zm-6.6 76.4c2-6.9 2-13.9 0-20.9-1.2-4.4-.7-9-.3-13.5.1-1.6.6-2.1 2.5-2.1 7.6-.2 13.8 9.4 11.6 16.9-1.9 6.5-1.1 12.2 2.7 17.6.8 1.1 1.3 2.6 1.1 3.9-.9 4.9.3 9.6 1.1 14.4.8 5-.1 9.5-2.6 14.4-1.2-4.8-3.9-6.4-8.1-5.4-1.5.4-1.4-.7-1.3-1.4.2-1.6.5-3.1.8-4.7.7-2.8.1-5.1-2.5-6.5-5.2-2.9-6.6-7-5-12.7zm1.6 51.9c6.4-2.8 6.4-2.8 7.3 3.8.9 6 1.6 12 2.5 18 .2 1.6-.1 2.6-1.6 3.2-1.2.6-2.4 1.3-3.8 1.9-1.9-8.3-3.8-16.4-5.7-24.6-.3-1.3.1-1.8 1.3-2.3zm86.8 74.1c1.1 0 5.5 4.3 5.5 5.3s-4.7 5.7-5.6 5.7c-.7 0-5.2-5.1-5.2-5.7.1-.9 4.5-5.4 5.3-5.3zm3.4-.3h13.8c-3.1 4.1-3.1 5.4 0 7.5.6.5 1.3 1.3 2.1.2.7-1-.2-1.3-.7-1.7-1.3-1-2.5-1.9-.7-3.4 1.3-1.1 2.2-3.7 4.7-1.5 1.4 1.3 3.4 2.3 1.5 4.5-2 2.4-4.2 4.7-6.3 7.1-.5.6-1.1.6-1.7.4-4-1.4-8.2-1.6-12.9-1.6 5.7-5.7 5.7-6.4.2-11.5zm1.6-2.3c3-2.5 6-4.6 9.8-5.6 2.7-.7 5.6-1.5 5.8-5.2 0-1.2 1-.8 1.6-.8 2.1-.1 4.2 0 6.3 0 5.5 0 5.5 0 5.5 5.4 0 2 .8 5-.2 5.9-1.2 1.1-4 .4-6.1.4-7.6-.1-15.1-.1-22.7-.1zm28.9-25c.9-6.8 2.3-13.6 1.9-20.5-.3-5.8-1.8-11.2-4.3-16.3-2.7-5.6-1.7-9.7 2.9-13.7s9.5-6.9 15.9-6.4c2.8.2 3.6.9 2.8 3.8-1.2 3.9-1.7 8-2.4 12.1-1.2 8.1 1.4 15.9 2.3 23.8.2 1.8.6 3.5.8 5.3.5 5.2-2.3 8.3-7.5 8.1-1.4 0-2.7-.2-4.1-.4-2.9-.3-5.2.5-6.5 3.3-.4.4-.6 1.3-1.8.9zm21.1 11.9c-1.6-.3-3.2-.1-4.8-.1-1.9 0-3.8-.1-5.7 0-2.1.1-2.6-1.1-2.3-2.7.7-3.5 2-6.8 3.4-10.1.4-.9 1.1-.8 1.8-.9 1.2-.2 2.5-.4 3.7-.9 3.1-1.2 6.5.9 6.5 4.2 0 2.5-.1 5.1.1 7.6.1 2.1-.4 3.1-2.7 2.9zm1.3-110.4c.1-.1.1-.2.1-.2 3.2-2.7 6.5-2.8 9.8-.1.8.7 1.5 1 1 2.2-1.4 4.2.2 7.8 2.3 11.3 1 1.7 2.2 3.3 3.3 5 .8 1.3 1.2 2.8-.1 4-1.6 1.4-3.6 1.7-5.6 1.8-.5 0-.5-.6-.6-1-.6-8.9-5-16.1-10.2-23zm11.9-18.6c-1.2-2.1-1.5-4.2-1.5-6.6v-26.4c4.5 6.6 7.3 12.7 7.1 20.1-.3 14.4-.1 28.8-.1 43.2v3.7c-3.9-5-6.2-9.4-3.8-15.2 2.6-6.5 1.6-12.8-1.7-18.8zm19.9 46.4c0 2.3-.3 3.5-3 3.2-3.1-.4-7.1 1.3-9.1-.7-1.8-1.8-.5-5.8-.5-8.8v-55.2c.1-6.7 3.2-12.1 7.1-17.7 3.9 10.4 5.6 20.5 5.5 30.9-.1 16.1 0 32.2 0 48.3zm-7-80.8c-2.7 3.4-4.6 7.2-6.5 11.4-1.3-3-2.4-5.8-4.2-8.1-1.8-2.2-1.5-4.1-.4-6.3 1.5-3.2 3.1-6.4 5.2-9.6 2.6 3.4 4.3 7.2 6.1 10.9.3.7.2 1.2-.2 1.7zm-7.8-13.9c-2.4 3.8-4.5 7.7-6.5 11.8v-20.3c2.8 2.2 4.8 4.6 6.7 7.1.4.5 0 1-.2 1.4zm-5.4 92.7c1.8-.1 3.7-.8 5.7-1.6 0 .8.1 1.5.1 2.1.1 4.8-.9 5.6-5.8 4.6-1.5-.3-1.3-1.3-1.1-2.1.2-1-1.1-2.7 1.1-3zm22.3-29.6c-.1-4.7.1-9.5-.1-14.2-.1-2.5.7-3.1 3-2.9 2 .2 4 .2 6 0 2.3-.2 2.8.7 2.7 2.8-.1 3.5 0 6.8 0 10.2 0 3.5-.1 6.9 0 10.4.1 1.9-.2 2.9-2.5 2.7-2.9-.3-6.7.9-8.5-.6-1.9-1.5-.5-5.5-.6-8.4zm-21.7-9.4c1.3 3.2 1.2 6.6.5 9.9-.3 1.4-.8 1.8-2.1 1-.7-.5-1.4-.9-2.2-1.2-3-1.3-4.3-3-3.1-6.6 1.3-3.8-.1-6.2-3.8-7.3-2.1-.6-1.6-1.4-1.2-2.8 1.7-6.2-1.8-12.2-7.8-13.7s-12 2.3-13.3 8.5c-.8 3.6.2 6.8 2.6 9.3 1.2 1.2 1.5 2.1.8 3.7-.7 1.8-.9 3.9-1.5 5.8-.6 2-2.5 2.7-4.2 4 3.2 2.5 6.9 3.1 10.4 3.5 2.6.3 2.6 1.3 2 3.3-3.8 12.5-9.9 23.6-20.1 32.1-5 4.2-9.5 8.9-12.7 14.8-.9 1.8-2.3 3.3-4 4.4-4.3 2.7-7.2 6.4-8.6 11.4-4.2-3.2-6.3-7.3-5.9-12.4.4-5.4 1.1-10.9 1.7-16.3.1-.5.3-1.1.7-1.3 3.3-2.7 4.5-6.5 5.7-10.3 1.5-4.8 4-8.8 7.8-12.3 5.8-5.3 10.8-11.5 13-19.4.5-1.7 1.3-2.3 3.1-2.3 3.2 0 5.9-1.5 7.8-4.1 1.7-2.3 1.3-4.1-1.3-5.4-.9-.5-1.9-.8-2.9-1.1-1.1-.5-2.1-.7-4-1.2 2.1-.6 3.4-1.1 4.7-1.4.7-.2 1.2-.5 1.1-1.3-.1-.9-.9-.9-1.5-.7-1.7.5-3.4 1.1-5 1.8-3.9 1.6-7.7 3.5-12.1 2.8-.4-.1-.8-.2-1.2-.4 3.3-4.7 7.1-8.3 12.9-9.6 6.1-1.3 11.4-3.9 15.3-9.2 1.3-1.9 3.7-2.7 5.9-3.5 5-1.8 6.2-1.2 8.3 3.5 1.4 3.2 3.3 6.1 5.6 8.7 4 4.5 6.4 9.8 8.6 15.3zm-5.5-79.5c.7 0 1.6-.3 1.7.8.1.9 0 1.7-.9 2.1-4.6 2.1-9.5 3.2-14.4 4.3-.8.2-1.2-.3-1.5-.8-1.8-2.4-4.2-4.1-7.4-6.4h22.5zm-22.3-55.3v51c0 1.3.2 2.4-1.8 2.4-1.9-.1-1.6-1.2-1.6-2.3v-51.1c0-1.5.1-2.9 1.9-2.9 2 0 1.4 1.7 1.5 2.9zm4.5 61.7c6.7 7.2 8.3 17.9 3.9 26.7-.8 1.7-1.5 3.6-4 3.4-2.4-.3-4.1-1.6-5-3.8-.9-2.3-.9-4.7-.4-7.1 1-4.1.8-8.1-1.7-11.8-2.8-4-7.4-5-11.3-2.2-1.4 1-2.1 1.2-3.6.1-3.2-2.5-8.2-1.4-10.5 2.1-.9 1.4-1.5 3-1.8 4.7-.5 3.2-.6 6.3-2.3 9.3-1.4 2.5 0 5.1 1.4 7.4.6 1 2 2.4.1 3.5-1.8 1-2.3-.7-3-1.8-2.3-4.4-3.1-9-3.1-13.8-.1-10.2 5.7-19 15-22.7 9.3-3.7 19.5-1.3 26.3 6zm-10-23c-.4 4.7-.1 9.4-.1 14.6-6.6-2.8-12.9 0-19.2.1-2.4 0-3.2-.5-3.1-3 .2-5.1.2-10.3 0-15.5-.1-2.2.6-3.9 2.2-5.3 1.5-1.3 2.9-2.7 4.5-3.9 5.4-4.3 5.3-4.2 10.4.6 3.6 3.4 5.8 7.2 5.3 12.4zm-.2-10c-3-3-5.6-5.7-8.8-7.9-.8-.6-.7-1.4-.7-2.3v-5.1c0-.7-.2-1.2-1.1-1.2-.7 0-.9.4-.9 1 0 .2-.1.4 0 .6 1.3 5.4-1.8 8.3-5.8 10.8-1.6 1-3 2.5-4.9 4 0-4.3.1-8.2 0-12 0-2.5 1.8-1.3 2.9-1.6.8-.2 2.2.5 2.1-1 0-1.5-1.4-.8-2.2-1-1-.3-2.7 1-2.8-1.3-.1-1.6-.2-2.9 1.8-3.8 6.8-2.8 13.4-5.9 20.4-9.1v29.9zm-24.4-38.1h-50.5c-1.2 0-2.5.4-2.5-1.7 0-1.9 1.2-1.6 2.3-1.6h50.9c1.1 0 2.3-.3 2.3 1.6 0 2.1-1.3 1.7-2.5 1.7zM198.9 100c-.3 1.1 1 2.9-1.2 3.3-.8.1-2.2-.5-2.1 1.1 0 1.2 1.2.9 2 .9 2.1-.1 1.2 1.5 1.4 2.4.2 1.3-.3 1.9-1.7 1.9-6.7-.1-13.4-.1-20.9-.1 5.5-7.7 12.8-10.3 21-11.1 1.3-.1 1.8.4 1.5 1.6zm-86.3 292.1v3.5c-10.3-6.7-19.4-14.1-27.6-22.6-26.2-27-42-59.1-45.5-96.5-5.2-55.7 13.6-102.5 55.3-139.8 14.3-12.8 30.7-22.3 48.7-29.1.6-.2 1.2-.3 1.8-.5 9.9-4.1 20.3-6.4 30.8-8.1 3.8-.6 7.7-.9 11.5-1.4.6-.2.8.1.5.6-5.5 1.7-10 4.8-13.1 9.7-.4.7-.8 1.4-1.8 1.5-1.1.1-3.2-.8-2.9 1.1.4 2-2.4 5.2 1.7 6.2.8.2.5 1 .5 1.6v12.4c-6-2.7-11.5-5.8-17.4-7.7-6.5-2.2-9.7-5.7-8.2-12.7.4-.8 1.2-3-1.5-2.3 0 3.6 1 7.6-.3 10.6s-5.8 3.8-8.8 5.5c-4.8 2.8-9.8 5.3-14.7 8-.2.1-.4.1-.9.1v-5.9c0-.7.5-1.9-.9-2-1.6-.1-1 1.3-1 2.1-.1 2.6-.1 5.3 0 7.9.1 2-.2 3.2-2.6 2.9-.8-.1-2.2-.5-2.2 1s1.4 1.1 2.2 1c2.4-.4 2.7.8 2.6 2.8-.2 4 .8 8.3-.3 11.9-1.2 3.7-5.6 5.4-8.4 8.1-30.6 29.5-45.2 65.3-42.5 107.6C70 308.4 87 340 116.9 364.8c1.4 1.2 2.1 2.3 2 4.2-.1 5.6-.1 11.2 0 16.7 0 1.8-.5 2.3-2.3 2.2-4-.1-4 0-4 4.2zm6.1-63.1c-5-5.5-9.6-10.3-14-15.4-1.7-1.9-3.4-2.9-5.9-2.6-2.4.2-4.8 0-7.3.1-.8 0-1.9-.3-1.8 1.1 0 1.1 1 .9 1.7.9h.6c7.3-1.5 12.3 1.8 16.4 7.5 2.6 3.6 5.9 6.6 8.9 9.9 2.1 2.3 1.9 6.1-.4 9.2-2.5 3.4-6.6 4.7-10.3 3.3-3-1.1-4.8-4.4-4.3-7.6.5-3.5 3.9-5.7 7.2-4.6 1.3.4 2.2 1.2 2.4 2.6.2 1.4-.2 2.6-1.6 3.1-1 .3-1.5.9-1 1.8.5.8 1.3.3 1.9 0 2-.8 2.8-2.5 2.7-4.6-.2-2.4-1.5-4-3.9-4.9-1.9-.7-3.7 0-5.7.2 0-2.7.1-5.3-1-7.8-1.3-2.9-4-4.6-6.8-4.1-2.5.4-3.9 2-4.2 4.5-.2 1.9.6 3.5 2.5 4.3.5.2 1.2.8 1.7 0 .4-.6.3-1.3-.4-1.6-2.5-1.2-2.3-2.8-.7-4.5 1.4-1.5 4.2-.9 5.4 1.2 2 3.2 2 6.6.8 10-2.2 6.3-1.5 10.3 2.5 12.9 4.2 2.8 9.2 1.9 13.7-2.3.4-.1.6-.1.9-.3v22.4c-26.8-22.1-43-49.7-48.2-83.6 1-.7 1.4 0 1.8.4 4.4 3.6 8.7 7.3 13 11 2 1.8 2.6 4.1 1.3 6.6-1.2 2.2-3.3 2.8-5.7 2.2-1.3-.3-2.2-1.2-2.5-2.6-.2-1.1.1-2.2 1.1-2.7 1.2-.7 2.2-.3 2.8 1 .1.3 1.1.3 1.4.1.8-.4.3-1.1 0-1.6-1.1-2.2-4.4-2.5-6.2-.5-2.2 2.4-1.4 6.2 1.5 7.8 2.8 1.5 6.6.7 8.6-1.8 2.1-2.5 1.9-6.7-.6-9.2-2.8-2.7-5.8-5.2-8.8-7.7-1.2-1-2.4-2-4.2-3.7h20.5c1.1 0 1.1.8 1.1 1.5v20.5c0 1.2-.3 1.8-1.6 1.7-.7-.1-1.5-.1-2.2 0-.8.1-2.2-.5-2 1.1.1 1.3 1.3.8 2 .8 7.9 0 15.8.1 23.7 0 2.5-.1 3.4.4 3.3 3.2-.2 6.7-.1 13.4-.1 20.8zm-34.5-60.7c-.1-4.4 0-8.8-.1-13.2 0-1.7.4-2.4 2.2-2.3 3 .2 7-1 8.9.5 2 1.6.4 5.7.6 8.7.1 1 0 2.1 0 3.3 0 3.3-.1 6.5 0 9.8.1 1.7-.3 2.5-2.2 2.4-3-.2-7 1-8.8-.5-2-1.6-.5-5.7-.6-8.7zM117 220c.3.8-.1 1.4-.5 2-2.2 3-3.9 6.1-5.5 9.8-1.6-4.1-3.3-7.7-5.8-10.8-.9-1.1-.8-2-.2-3.1 1.6-3.4 3.3-6.7 5.6-10.2 2.8 3.9 4.7 8 6.4 12.3zm-3.6-16.4c1.6-1.8 3.1-3.6 5.2-5.3v19.8c-1.8-4.2-3.4-7.6-5.5-10.7-1-1.5-.9-2.5.3-3.8zm-3.4 37.1c-.2 19.7-.1 39.3 0 59 0 2.9-.8 3.7-3.5 3.3-2.8-.3-6.5 1.2-8.1-.6-1.4-1.5-.5-5.2-.5-7.9 0-15.7 0-31.4.1-47 0-8.6 1.8-17 5.3-25.5 4.2 5.9 6.8 11.7 6.7 18.7zm5.7 62.4c-1.7-.2-4 1.2-3.9-2.5.1-20.6 0-41.2.1-61.9 0-6 3.3-10.8 6.9-15.5v23c0 18.1-.1 36.2.1 54.3 0 2.8-1.3 2.8-3.2 2.6zm-2.8-102c-7.6 7.7-11.5 17.9-15 28.3v-5.6-5.7-6.6c0-.5-.2-1.4 0-1.5 2.6-1.4 2.7-2.6 0-4-.3-.2-.3-1.5 1-1.3.7.1 1.2-.4 1.2-1.1 0-.8-.6-1.3-1.2-1.2-1 .2-1-.3-1.1-1 0-.7.2-1.2 1.1-1h.3c.7-.2 1-1.3.8-1.4-2.5-.3-1.4-3.6-3.4-3.9-1.3-.2-.8 1.7-1.1 1.9-1.9 1.6-2.5 2.4-.1 4.4 1.2 1-2.4.4-2.2 2.3.1 1.8 2.5.2 2.5 2.1 0 1.6-4.6 1.3-1.7 3 2.1 1.2 1.6 2.3 1.6 3.6.1 8.1.1 16.2.1 24.3 0 3.9-.1 7.8 0 11.7 0 1.7-.3 2.5-2.2 2.3-3-.4-7 1.3-8.7-.7-1.5-1.7-.5-5.6-.5-8.5 0-1.4-.7-2.9 1.8-3.4 1.3-.3.9-1.8-.6-2-1-.1-1.2-.4-1.2-1.3 0-1.1.6-.7 1.2-.8.7-.1 1.2-.4 1.2-1.2 0-.8-.4-1.2-1.1-1.2-.9 0-1.3-.2-1.3-1.2 0-1.4 1-.6 1.5-.8.8-.3 1-1.7.9-1.6-3 .5-1-4.5-4-3.7-.5.1-.6.9-.4 1.4 1 2.5-2.3.8-2.4 2.5-.1 2.1 2.5.5 2.5 2.2 0 .8 0 1.4-1.2 1.3-.7-.1-1.3.2-1.3 1 0 .9.5 1.4 1.3 1.3s1.1-.1 1.1.8-.1 1.4-1.2 1.2c-.6-.1-1.2.2-1.3 1.1 0 .8.5 1.4 1.1 1.3 1.6-.3 1.4.7 1.4 1.6v.6c1.1 7.2-.7 13.2-7.2 17.1-.4.3-.8.7-1.2 1.1-.6.5-.5 1 0 1.6.6.7 1.1.3 1.6-.2 1.9-2.2 3.8-4.4 5.8-6.6.4.2.7.5 1.1.7v21.6c0 1.2-.6 1.4-1.6 1.3-2.1 0-4.3-.3-6.3 0-3.4.5-4.4-.8-4.7-4.1-3.3-46.4 12.5-84.7 47.9-114.9.1 0 .4-.1 1.1-.7v18.4c0 1.3-.4 1.7-1.6 1.6-.8-.1-1.7 0-2.5 0-.7 0-1.3.1-1.3 1-.1.9.6 1.1 1.2 1 4.6-1 4.1 2 4.3 5 .6 6.6-1 11.6-6 16.6zm1.5 191.4c-.1-2.2.6-2.9 2.8-2.8 4.1.2 8.2.2 12.3 0 2.6-.1 2.3 1.4 2.3 3s.3 3.2-2.3 3c-2-.1-4.2 0-6.3 0-2 0-4-.2-6 0-2.7.3-2.7-1.2-2.8-3.2zm2.7 5.4h25.3c-3.9 7.9 4.6 10 6.7 15.4-11.4-3.7-22.1-8.7-32-15.4zm31.9 11.6c-1.7-2-3.4-3.7-4.9-5.6-1.6-2-.9-3.8.8-5.2 1.7-1.4 3.4-1.5 4.9.3 1.4 1.7 3 3.2 4.7 5-3.1.7-4.7 2.6-5.5 5.5zm2.6 2.4c-.9-1.9-.4-3.6 1.2-4.8 1.6-1.2 3.3-1.4 4.7.3.6.7 1.3 1.4 2 .7s-.1-1.5-.6-2.1c-2.4-2.6-4.8-5.1-7.5-8.1h15.9c-.4 1.3-1.5 1.7-2.2 2.6-.5.6-1.5 1-.5 2s1.4-.1 2-.6c1.3-1.2 2.6-2.4 4.5-4.2v12.7c0 .8-.5 1.1-1.1 1.3-4 1.3-7.8 3.2-12 3.7-2.9.3-5.1-.9-6.4-3.5zm9.6 5c8.8-3.8 17.5-6.3 26.9-5.1 3.5.4 6.2 1 7.6 4.7.6 1.7 1.8 3.3 3 5.4-12.9-.4-25.2-1.7-37.5-5zm39 3.5c-1.6-2.7-2.9-5-4.2-7.3-.8-1.6-1.8-2.8-3.8-2.8-1.4 0-1.6-.8-1.6-2.1 0-1.7.9-1.6 2-1.5h1.6c.6 0 1-.2 1.1-.9.1-.9-.6-.9-1.2-1-1.1-.2-2.8.7-3.1-.5-.5-1.8-.2-3.7-.2-5.6 0-.9.7-.8 1.4-.9h19.3c-1.5 2.4-4.4 3.5-3.9 6.4.5 2.5 3.2 3.5 4.4 5.7-2.5.9-5.5.2-7 3.4-1.3 2.4-3.1 4.5-4.8 7.1zm1.5 1.4c2.1-3.1 3.9-6 5.8-8.6.8-1.1 2.3-1 3.5-1.2 8.1-1.2 16.1-.6 23.8 2.5 1.8.8 3.7 1.4 5.6 2-4.9 2.5-26.2 5.5-38.7 5.3zm48.7-10c-1 2.4-3.8 3.9-6.8 3.5-3.2-.5-6.2-2-9.8-3.1 2.1-2.3 3.9-4.2 5.6-6.2 2.7-3.2 2.6-4.9-.4-8h11.5c-2.4 2.6-4.5 4.9-6.7 7.2-.8.8-2.1 1.9-1.3 2.8 1 1.1 1.6-.5 2.4-1.1 1.4-1.2 3-1 4.3.1 1.6 1.2 2 2.9 1.2 4.8zm-2.8-7.8c1.7-1.9 3.3-3.5 4.9-5.2 1.6-1.7 3.2-1.3 4.7-.1 1.6 1.3 2.4 3.1 1 5-1.5 2-3.3 3.8-5.1 5.9-.8-3-2.5-4.8-5.5-5.6zm4.7 9.4c2.3-2.6 4-4.7 5.8-6.6 2.5-2.6 3.8-5.3 1.2-8.9h25.9c-10.4 6.6-20.9 11.4-32.9 15.5zm32.7-17.7h-11.9c-3.4 0-4.4-1.5-3.5-4.8.3-1.2 1.1-1.1 1.9-1.1 4.5 0 9 .1 13.5 0 2.4-.1 1.8 1.6 1.7 2.8-.1 1.2.9 3.2-1.7 3.1zm5.5-1c-.4.3-.8.5-1.6 1-.1-.7-.1-1.1-.1-1.5-.1-2 .5-4.4-.4-5.8-.9-1.3-3.5-.5-5.4-.4-1.5 0-1.7-.6-1.7-1.9.1-5.4.1-10.7 0-16.1-.1-1.9 1.1-2.6 2.2-3.5 19.9-15.6 34.4-35.3 43.3-59 20.5-54.6 3.1-116.1-42.9-152.4-1.8-1.4-2.8-2.8-2.6-5.2.2-2.7.2-5.5 0-8.2-.1-2 .5-2.6 2.5-2.4.9.1 2.4.8 2.6-.9.2-1.8-1.5-1.2-2.3-1.1-2.3.3-2.8-.7-2.7-2.8.2-2.7.1-5.5 0-8.2 0-.7.4-1.9-1-1.8-1.4.1-.9 1.2-.9 1.9-.1 1.9 0 3.8 0 6.2-3.1-1.7-5.9-3.1-8.7-4.7-4.4-2.4-8.8-5-13.3-7.2-2.1-1.1-2.8-2.3-2.6-4.6.2-2.3.1-4.6 0-6.9 0-.5.1-1.1-.6-1.2-.8-.1-1 .5-1 1.2v8.2c0 1.1 0 2-1.2 2.6-8 3.6-16 7.2-24.3 11v-12.6c0-.5-.1-1.4.4-1.4 3.3-.1 1.6-2.6 1.8-4 .3-1.9.4-4-2.7-3.4-1 .2-1.5-.5-1.9-1.3-2.9-5-7.4-7.9-12.7-9.8-.4-1.3.3-1 1-.8 45.4 4.1 83 23.5 112.1 58.6 27.6 33.2 40.1 71.8 36.8 114.8-4.1 52.5-28.8 93.6-72.1 123.6z"/><path d="M339 277c-.8-.1-1.7-.6-2 .7-.4 1.6.8 1.3 1.7 1.5 4.3.8 8.6 1.7 13.4 2.6-6.5 4.3-12.5 8.2-19 12.5 6.9 1.3 13.2 2.5 19.5 3.7.6.1 1.2.1 1.3-.8.1-.7 0-1.2-.8-1.4-.6-.1-1.3-.2-1.9-.3-3.9-.7-7.8-1.5-12.3-2.4 6.6-4.3 12.6-8.2 19.1-12.5-6.8-1.3-12.9-2.4-19-3.6zM356 254.4c-2.6.1-5.3 0-7.9 0-1.1 0-2.3 0-3.6.2-6.8.1-6.9.1-6.7 7.1 0 1.1-.9 3.3 1.1 3.2s.9-2.2.9-3.4c.1-4.8 0-4.6 3.9-4.9 3.4-.3 4.6.8 4.1 4.1-.2.9 0 1.9 0 2.8 0 .8.3 1.2 1.1 1.2s1.1-.5 1.1-1.2c0-1.6.1-3.1 0-4.7-.1-1.5.2-2.2 2-2.3 3-.2 4.6.4 4 3.8-.2 1 0 2 0 3.1 0 .9.3 1.4 1.3 1.3.8 0 .9-.6.9-1.3 0-2.3-.1-4.6 0-6.9 0-1.6-.5-2.2-2.2-2.1zM326 340.6c-1.5.7-2.9 1.6-4.4 2.4-1.6.9-3.2 1.3-4.7 0-1.4-1.2-1.8-2.7-1.2-4.3.7-1.8 2-2.9 4.1-2.7 1 .1 2.3.3 2.2-1.2-.1-1.3-1.6-1-2.5-1.2-2.8.3-4.9 1.7-5.7 4.3-.9 2.5-.5 5 1.6 6.9 2.1 2 4.4 1.8 6.7.5 1.3-.7 2.5-1.5 3.8-2.2 1.8-1 3.3-.9 4.3 1 .9 1.9 0 3.3-1.4 4.4-.6.4-1.4.4-2.1.7-.6.2-.5.8-.5 1.3 0 .7.5.8 1.1.7 2.3-.3 3.9-1.5 4.8-3.6.9-2.1.9-4.2-.7-5.9-1.5-1.6-3.4-2.1-5.4-1.1zM344.5 226c.4-1.4.6-2.9.9-4.3.4-2 1.5-3.1 3.6-2.5 2 .5 2.5 2.1 2.3 3.9-.1.6-.4 1.2-.7 1.7-.4.8.1 1.2.6 1.6.6.5.9 0 1.2-.4 1.4-1.9 1.5-3.9.6-6s-2.4-3.5-4.8-3.4c-2.3.1-3.9 1.2-4.5 3.6-.5 1.8-.8 3.7-1.3 5.5-.4 1.4-1.3 2.3-2.8 2.6-1.6.4-2.9-.4-3.8-1.6-1.5-2-1.2-4 .7-5.6.7-.7 1.1-1.1.4-2-.9-1.1-1.5 0-2 .4-1.4 1.2-2.1 2.8-2 4.7.1 3.3 2.4 6 5.3 6.5 3.3.4 5.3-1.1 6.3-4.7zM346 310c-2-1-3.8-.8-5.5.7-1.3 1.1-2.6 2.3-4 3.5-1.2.9-2.3 1.3-3.8.6-1.3-.7-2.1-1.7-2.2-3.2-.2-2.8 1.2-4.3 4-4.5 1.1-.1 1.3-.6 1.2-1.4 0-.8-.6-1-1.3-.9-2.7.2-4.6 1.4-5.6 3.9-1.1 2.6-.4 5.8 1.8 7.4 2.1 1.6 4.4 2 6.6.2 1.4-1.1 2.7-2.4 4-3.6 1.4-1.2 3-1.9 4.4-.2 1.4 1.7 1 3.5-.6 5-.3.3-.7.5-1.1.6-1 .4-.9 1.1-.6 1.8.3.8 1.1.4 1.6.2 2.4-1.1 3.5-3 3.6-5.5-.1-2-.7-3.7-2.5-4.6zM336.3 205c.9 2.4 3.4 3.1 5.9 2.3s4-2.4 4.2-5.2c-.2-2.1-1.1-4-1.8-6.1-.4-1-1-.8-1.7-.5-5.4 2.3-10.8 4.5-16.2 6.8-.8.2-1.4.5-.9 1.5.5.9 1 .9 1.8.6.9-.4 1.8-.6 2.6-1.1 2.6-1.4 4.6-2 6.1 1.7zm6.2-6.6c1.8.5 1.1 2.5 1.8 3.7-.3 2.3-1.8 3.1-3.7 3.2-2.5 0-3.2-2.1-3.8-3.9-.2-.5 4.8-3.4 5.7-3zM316.3 176c3.4-2.2 6.6-4.8 9.9-7.2.7-.5 2-.8 1.1-2.1-.9-1.3-1.6-.3-2.3.2-3.6 2.5-7.1 5.1-10.7 7.7-4.2 3-4.2 3-1.1 7.2.5.8.8 1.8 1.9 1.9 1.6-.7 1-1.7.2-2.4-2.5-2.3-1.5-3.7 1-5.3zM337.2 181.8c-.4-.7-.9-.6-1.5-.2l-15.6 9c-.5.3-1 .6-.6 1.2.2.4.4 1 1.1.9.2 0 .4 0 .5-.2 5.3-3 10.6-6.1 15.9-9.1.8-.4.6-1 .2-1.6zM336.7 242.7c.1 1.1.8 1.1 1.6 1 5.7-.7 11.4-1.5 17.1-2.3.7-.1 1.6 0 1.4-1.2-.1-.9-.7-1.1-1.6-1-5.7.7-11.5 1.4-17.2 2.1-.8.1-1.4.4-1.3 1.4zM340 330.9c-5.3-2.7-10.5-5.4-15.7-8.1-.8-.4-1.4-.3-1.8.5-.4.8-.1 1.2.6 1.5 5.3 2.8 10.6 5.5 15.9 8.3 1.3.7 1.4-.2 1.8-1 .1-.6-.4-.8-.8-1.2zM304.6 154.1c-1 .1-1.4.7-1.4 1.7.1 1 .7 1.6 1.7 1.5 1-.1 1.4-.8 1.5-1.7-.3-.9-.7-1.6-1.8-1.5zM306.4 361.7c-.9 0-1.6.6-1.6 1.6s.7 1.5 1.6 1.5c.9 0 1.5-.6 1.5-1.6 0-1.1-.7-1.6-1.5-1.5zM72.5 316.8c.7-.1 2.4.6 2.2-1.2-.3-1.9-1.8-1-2.8-.9-3.5.4-6.9.9-10.4 1.4-.1-.2-.1-.4-.2-.6 3.5-3.3 6.9-6.6 10.7-10.2-5.4-.5-10.2-1-15.8-1.5 4.2-2.4 7.6-4.4 11-6.1.8-.5 1.2-1 .6-2-.7-1.2-1.3-.3-1.8 0-4.2 2.4-8.4 4.7-12.5 7.2-1.3.8-3 1.3-4.1 2.8 5.9.4 11.5.9 17.7 1.4-4.6 4.3-8.8 8.2-13.5 12.5 6.7-1 12.8-1.8 18.9-2.8zM61 260.9c.6.2 1.7 1.6 2.2-.2.4-1.6-.8-1.7-1.8-2-3.6-1-7.2-2-11.5-3.1 5.2-2 9.8-3.7 14.8-5.5-4.7-2.6-8.9-4.9-13.3-7.3 1.2-.8 2.3-.7 3.3-.8 2.9-.4 5.7-.7 8.5-1 .9-.1 1.7-.4 1.6-1.5-.1-1.2-1.1-.8-1.7-.7-6.3.6-12.6 1.4-19.8 2.2 5.8 3.1 10.8 5.8 16.3 8.7-5.9 2-11.2 3.9-17.4 6 6.9 1.9 12.8 3.5 18.8 5.2zM72.7 172.3c4.6 3.2 9.1 6.5 13.6 9.7.6.4 1.2 1.3 2 .2.7-1 0-1.5-.7-2-1.8-1.4-3.7-2.8-6.1-4.6h7.1c4.3 0 4.3 0 5.3-2.1H83.6c.1-.6.2-1 .5-1.3.7-3-.5-5.1-3-6.6-2.6-1.6-4.7-.4-6.5 1.4-.9.8-1.5 1.7-2.3 2.6-1 1.1-.9 1.8.4 2.7zm5.8-5.1c2 .1 3.2 1.3 3.7 3.4-.7 1.3-.6 3.2-2.5 3.8-.6.2-5.4-3.8-5.2-4.2.9-1.5 1.9-3.2 4-3zM65.5 235.9c.4-.7.6-1.6-.2-2.3-1-.8-2-1.6-3-2.3-.8-.5-1.3-1.1-1-2.1.6-2.3.9-4.8 2-6.9.7-1.4 3-.5 4.4-1.1.4-.2 1.1-.2 1.4-.5.3-.3.4-.9.4-1.4-.1-.7-.7-.5-1.2-.4-6.8 1.1-13.7 2.3-21.2 3.5 6 4.6 11.5 8.9 17.1 13.2.4.3.9.9 1.3.3zm-6.3-6.9c-2.3-1.7-4.4-3.3-6.9-5.2 3-.6 5.5-1 8.5-1.5-.6 2.3-1 4.3-1.6 6.7zM92.1 345.9c-.2.1-.4.1-.6.2-4.6 2.2-6-1.6-8.2-4.2-2.2-2.6.2-4 1.1-5.7.7-1.4.8-2.3-.8-3.3-3.9 6.4-7.7 12.7-11.7 19.5 7.4-1.6 14-3 20.7-4.4.6-.1 1.7.2 1.4-1-.2-.8-.8-1.5-1.9-1.1zm-15.9 3.4c1.6-2.6 3-4.8 4.6-7.4 1.4 1.9 2.6 3.6 3.8 5.4-2.7 1-5.3 1.4-8.4 2zM66.2 289.5c.1-.5 0-1.3-.4-1.7-.3-.4-1.1-.5-1.7-.6-3.1-.3-4.4-2-4.8-5.2-.4-3-.4-5.4 3-6.6 1.5-.5 2.2-1.5 1.1-3.3-6.2 3.8-12.4 7.7-19.2 11.9 7.3 2 14 3.9 20.7 5.7.4.1 1.1.4 1.3-.2zm-16.1-6c.2-1 1.1-1.2 1.6-1.5 5.5-3.4 5.5-3.4 6 3.5-2.6-.7-5.1-1.4-7.6-2zM61.3 190.3c5.1 2.7 10.2 5.5 15.2 8.3.9.5 1.5.5 2-.5 1.2-2.3 2.5-4.6 3.8-6.9.4-.7.5-1.2-.2-1.6-.9-.6-1.3 0-1.7.7-.8 1.4-1.7 2.9-2.4 4.4-.6 1.2-1.1 1.3-2.4.7-5.5-2.6-5.5-2.6-2.7-8 .2-.3.3-.5.5-.8.4-.7.7-1.3-.3-1.8-1.1-.5-1.3.4-1.6.9-.8 1.4-1.6 2.9-2.4 4.4-.3.5-.4 1.3-1.4 1-3.2-.4-4.5-2.8-3.1-5.5l1.5-2.7c.4-.7 1-1.4-.2-2-1-.5-1.3.3-1.6.9-1.2 2.1-2.3 4.2-3.5 6.3-.5.9-.7 1.5.5 2.2zM53.3 209.5c1-.1 1.1-1 1.2-1.6.6-2.6 1.8-2.7 4-1.7 3.8 1.7 7.8 3.2 11.7 4.6.8.3 2.1 1.8 2.8-.2.6-1.8-1.1-1.5-1.9-1.8-3.4-1.4-6.9-2.9-10.5-4.1-2.7-.9-5-1.8-2.8-5.2.5-.6.2-1-.5-1.4-.8-.5-1.2 0-1.4.6-1.3 3.1-2.5 6.3-3.7 9.4-.4 1.1.6 1 1.1 1.4zM80.1 325.5c-.6-1.1-1.1-2.3-1.8-3.3-.5-.7-.3-2.5-2-1.7-1.6.8-.2 1.8.1 2.6.3.8.8 1.5 1.2 2.3.2 1.2-.9 1.3-1.6 1.5-4.3 2.3-8.6 4.5-12.8 6.8-.5.3-1.5.4-1 1.5.5 1 1.1 1 2 .5 5.1-2.6 10.2-5.4 15.3-8 1.1-.6 1.2-1.2.6-2.2zM95.8 157.3c1-.1 1.4-.8 1.5-1.7-.3-.9-.8-1.6-1.8-1.5-1 .1-1.5.7-1.4 1.7.1 1 .7 1.6 1.7 1.5zM96.2 362.2c-1.1-.1-1.7.6-1.7 1.7 0 .9.6 1.4 1.6 1.4s1.5-.6 1.6-1.5c-.1-.9-.6-1.6-1.5-1.6zM159.2 209c1.4 1 1.6-1 2.2-1.8.7-1 1-2.4 2.7-2.2.8.1 2.2.9 2.1-.7-.1-1.1-1.4-1-2-1.1-2.5-.2-3.5 1.4-4.2 3-.5.9-2.2 1.9-.8 2.8zM158.2 213.2c.8.2 1.2-.2 1.5-.9-.2-1.1-1.2-1.2-2-1.5-.8-.5-1.3.1-1.3.7-.1 1.2.9 1.4 1.8 1.7zM164.2 207.1c.2 0-.3.4-.3.9 0 .6.6 1 1.3 1 .6.1 1-.2 1-.8 0-.8-.5-1.1-2-1.1zM157.9 204.7c.5 0 .9-.3.8-1.1-.2-.5-.6-.9-1.3-.9-.5.1-1 .5-.9 1 .1.7.7 1 1.4 1zM243.8 206c.7.1 1.3-.1 1.4-.9-.1-.9-.7-1.4-1.4-1.5-.8-.1-1.6.1-1.7 1-.1 1.1.8 1.3 1.7 1.4zM233.9 203.5c-.8 0-1.5.4-1.6 1.2-.2 1 .5 1.2 1.3 1.2s1.4-.2 1.6-1.1c0-.8-.6-1.3-1.3-1.3zM261.4 248.1c-.5 0-1.1.2-.9.9.1.5.7.6 1.2.7.5-.1 1.1-.2.9-.8-.2-.6-.7-.9-1.2-.8z"/><g><path d="M518.9 159.2c8.7 9.1 16.9 17.7 25 26.2 8 8.4 16.1 16.9 24.8 26v-49.2h8v68.9C560 213.7 543.8 196.6 527 179v49.4h-8.2c.1-22.9.1-45.7.1-69.2zM751.9 294.1c.1 12.5-3.5 23.2-14.4 29.8-11.4 7-23.4 6.8-34.6-.5-12.1-7.9-17.5-19.6-15.6-33.9 2-14.8 10.7-24.7 25.2-28.9 12.9-3.8 27 .9 36.3 12.3-1 .6-2.1 1.2-3.1 1.9-1 .8-1.8 1.7-2.9 2.7-.5-.4-.9-.6-1.2-1-10.9-11.9-27-12.9-38.1-2.3-11.1 10.5-11.2 28.3-.2 39.4 10.8 11 27.4 10.1 35.9-2.2 1.9-2.7 2.8-6.2 4.5-9.9h-17.8v-7.4h26zM739.9 200.8v27.6H732v-67c7.7.6 15.5.6 22.9 2.1 8.3 1.7 13.1 9.1 13 17.9-.1 8.5-5.2 15.3-13.2 17.6-.8.2-1.6.5-2.6.8 6.9 9.5 13.6 18.9 20.8 28.8-3.4 0-6.1.2-8.9-.1-.9-.1-1.8-1.2-2.5-2.1-5.6-8-11.1-16.1-16.8-24-.8-1.2-2.6-1.7-3.9-2.6-.3.4-.6.7-.9 1zm.2-6.7c4.8-.8 9.2-1.1 13.4-2.3 4.1-1.1 6.3-4.5 6.7-8.7.5-4.1-.3-7.9-3.8-10.4-4.9-3.5-10.5-3.5-16.3-3.3v24.7zM495.4 162.2h8.2v13.4c-.1 10.9.3 21.9-.5 32.8-1 13.2-10.7 21.4-23.6 21.5-13.1.1-23.3-8.2-24-21.4-.9-15.3-.2-30.7-.2-46.3h8v3.6c0 12.5 0 25.1.1 37.6 0 1.9.3 3.8.6 5.6 2 10.6 10.6 15.8 20.9 12.5 6.9-2.2 9.7-7.8 10-14.3.6-12.8.4-25.7.6-38.5-.1-2.1-.1-4.2-.1-6.5zM892.7 228.6c10.6-23.2 21-45.9 31.7-69.4 10.7 23.4 21.1 46.2 31.6 69.1-8.4.9-8.4.8-11.6-6.2-1.6-3.4-2.5-8-5.2-9.8-2.6-1.7-7.1-.5-10.8-.5-5.3 0-10.5.2-15.8-.1-2.8-.1-4.1.9-5.1 3.4-1.4 3.6-3.3 7-4.7 10.7-.9 2.2-2.1 3.1-4.4 2.8-1.7-.1-3.4 0-5.7 0zm31.7-51.4c-4.1 9.4-7.9 18.1-11.8 26.9h23.6c-4-8.9-7.7-17.5-11.8-26.9zM686.7 195.7v25.4h27.1v7.3h-35.3v-66.2h35.3v7.3h-12c-4.3 0-8.6-.1-13 .1-.8 0-2.3 1-2.3 1.6-.2 5.6-.1 11.1-.1 17h26.5v7.5h-26.2zM527.1 319.7v7.4h-35.2V261H527v7.3h-27v18.6h26.2v7.6H500v25.2h27.1zM608.5 327.8c11.1-19.6 22.1-38.9 33.4-58.7h-28.7v-7.3h41.9c-11.2 19.6-22.2 38.9-33.5 58.7H655v7.3h-46.5zM780.1 211.4c2.5-.5 5-1.1 7.7-1.7.8 6.5 4 10.9 10.5 12.3 5.7 1.3 11.3-1.7 13.7-7.1 2.6-5.7 1.3-11.4-3.7-14.8-2.6-1.8-5.5-3-8.4-4.4-2.8-1.4-5.8-2.6-8.5-4.1-6.2-3.6-9.5-8.8-8.5-16.2 1-7.2 5.5-11.4 12-13.7 9.7-3.4 19.4.2 24.1 8.8-2 1.2-4 2.5-6.2 3.9-3.1-4.8-7.4-7.1-12.9-5.9-2.2.5-4.4 1.5-6.1 2.9-3.8 3.1-3.9 8.7-.1 11.9 2 1.7 4.6 2.9 7 4.1 3.4 1.6 7 2.8 10.4 4.6 8.6 4.6 12.1 12.8 9.8 22.4-2 8.5-9.8 14.9-18.7 15.3-11.7.8-21.6-7.3-22.1-18.3zM570.4 327.1v-66.3c9.3.2 18.6-1 27.3 3.1 7 3.3 9 9.4 8.9 16.4-.1 7.5-3.1 13.7-10.4 16.5-3.7 1.5-7.9 1.9-11.9 2.5-1.7.3-3.5 0-5.7 0V327c-3 .1-5.4.1-8.2.1zm8-35.2c5.1.2 9.7.2 14.2-1.7 4.6-2.1 6.3-5.9 6.2-10.7-.1-4.7-2.1-8.3-6.6-9.6-3.9-1.1-8-1.3-12-1.7-.5-.1-1.7 1-1.7 1.6-.1 7.2-.1 14.5-.1 22.1zM640.9 232.1c-9.8-23.8-19.2-46.7-28.9-70.1 3 0 5.4-.2 7.7.1.9.1 1.8 1.5 2.2 2.5 5.7 14 11.3 28.1 17 42.1.5 1.2 1 2.5 1.9 4.5.7-1.6 1.2-2.5 1.6-3.5 5.6-13.9 11.3-27.9 16.7-41.9 1.1-2.9 2.5-4.4 5.6-3.8 1.4.2 2.9 0 4.9 0-9.6 23.4-19 46.3-28.7 70.1zM857 162.2h39.4v7.3h-15.5v58.9h-8.2v-58.8H857v-7.4zM968.3 169.6h-15.7v-7.4H992v7.2h-15.6v59h-8.1v-58.8zM455.2 261h7.9v58.8h20v7.3h-27.9V261z"/><ellipse cx="406.1" cy="243.7" rx=".6" ry="241.6"/><path d="M844.8 228.5H837v-66.3h7.8v66.3zM603 228.5h-7.8v-66.2h7.8v66.2zM674.8 327.1H667V261h7.8v66.1zM551.5 327.2h-7.7V261h7.7v66.2zM942.7 167c-.1 2.9-2.5 5.1-5.4 5-3-.1-5.3-2.5-5.1-5.6.2-2.9 2.5-4.9 5.5-4.8 2.9.1 5.1 2.5 5 5.4zM911.3 161.6c3 0 5.2 2.2 5.2 5.1 0 3.1-2.3 5.4-5.3 5.3-2.9-.1-5-2.3-5-5.3s2.2-5.1 5.1-5.1z"/></g></svg>
