<svg xmlns="http://www.w3.org/2000/svg" viewBox="0 0 500 500"><path d="M428.2 293.3l-95-176s-23.8 4.8-66.6 23.8-66.6 57-66.6 57c-4.8 14.2 0 19 0 19s19-28.6 57-52.4 61.8-28.6 61.8-28.6 76 147.4 80.8 156.9c4.8 9.6 0 9.6 0 9.6s-9.6-9.6-118.8 33.2-104.6 133.5-104.6 133.5S257 440.7 280.8 436c23.8-4.7 85.6-4.8 109.4-4.8s9.6-23.8 9.6-23.8l-14.2-28.6h23.8c14.2 0 4.8-23.8 4.8-23.8l-19-33.2s14.2 0 28.6-4.8 4.4-23.7 4.4-23.7zm-57.1 121.3c-16.1.2-55.1 1-73.6 4.7-23.8 4.8-95 23.8-95 23.8s52.4-42.8 95-52.4c29.5-6.5 47.7-8.6 56.2-9.2 3.4-.2 6.6 1.5 8.3 4.5l12.8 22.3c1.4 2.8-.5 6.2-3.7 6.3zm7.5-57.4c-15 .3-48 3.6-95.6 24.1-66.6 28.6-85.6 47.6-85.6 47.6s57-66.6 109.4-85.6c34.9-12.7 52.9-16.9 61-18.3 3.2-.5 6.4 1.2 7.8 4.3l8.5 19.7c1.6 3.8-1.2 8.2-5.5 8.2z" fill="#ed1b24"/><path d="M228.4 74.5c-23.8 0-57 4.8-57 4.8s-.1-9.5-4.8-38c-2.9-17.9-7.8-30.1-11-36.8-1.5-2.9-5.4-3.4-7.5-.9L128.5 27s4.8 9.6 9.6 23.8c0 0 4.1 11.8 9 32.8C123.6 88 88 96.7 64 111.3c-4.5 2.7-7.2 7.6-7.2 12.8v17.1c0 3.6 3.9 5.9 7.1 4.2 10.5-5.9 35.3-16.4 90.4-27.3 6.9 37.4 13.2 88.1 12.4 146.6-.8 57-14.2 190.2-23.8 214-9.5 23.8 4.8 19 4.8 19 33.2-14.3 42.8-190.2 42.8-237.8s-9.6-147.4-9.6-147.4 19-4.8 42.8-4.8 33.3 4.8 38 4.8c4.7 0 14.2-33.2 14.2-33.2s-23.7-4.8-47.5-4.8z"/></svg>
