<svg xmlns="http://www.w3.org/2000/svg" viewBox="0 0 500 500"><g id="Layer_2"><path fill="#003896" d="M319 142.8V83.4h-59.5v59.4h-67.9v42.4h67.9V338H319V185.2h67.9v-42.4z"/><path fill="#003896" d="M335.9 193.7h51v97.6H476v42.5H335.9V193.7"/></g><g id="Layer_4"><path fill="#003896" d="M60.1 202.2l29.7 157s38.2-12.7 84.9-12.7 76.4 17 76.4 17-34-8.5-76.4-8.5-106.1 25.5-106.1 25.5l-29.7-174 21.2-4.3z"/><path d="M87.7 174.6L24 200.1l29.7 199.5s72.2-29.7 135.8-29.7 76.4 17 76.4 17 34-38.2 114.6-38.2c56.3 0 79.5 10.4 88.4 16.6 1.4 1 3.3-.4 2.7-2.1l-6.3-18.8" fill="none" stroke="#003896" stroke-width="6" stroke-miterlimit="10"/></g><path fill="#003896" d="M213.8 243.6c15.8-6.9 24.7-18.3 24.7-34.5 0-7.9-1.6-14.4-4.4-19.7h-50.9v-21.2c-.9 0-1.8-.1-2.7-.1H94.9v165.1H183c32.8 0 64.2-14.3 64.2-47.9 0-20.4-11.2-35.9-33.4-41.7zM145 196.5h18.8c14.3 0 27.5 3.2 27.5 19 0 13.9-10.4 19.7-24.4 19.7H145v-38.7zm24.2 108.7H145v-45.3h25c17.1 0 28.8 6.7 28.8 23.6-.1 17-13.9 21.7-29.6 21.7z" id="Layer_5"/></svg>
