<svg id="Layer_1" xmlns="http://www.w3.org/2000/svg" viewBox="0 0 500 500"><style>.st1{fill-rule:evenodd;clip-rule:evenodd;fill:#005ec4}</style><path d="M25.7 445.6l27.2 27.8L326 390.6l72-28 19-134.3-30.1-81.8-132.5-74.7-120.7 57.4-40.9 96 1 90.9-68.1 129.5" fill-rule="evenodd" clip-rule="evenodd" fill="#fff"/><path class="st1" d="M378.2 4.3H122C57.2 4.3 4.2 57.2 4.2 122v256.3c0 24.9 6.7 46.7 20 65.8.7 1 1.9 2.6 3.6 1.4l10.2-9.2 86.7-85.2 1.6-1.6 1.3-1.3c2.6-2.4 2.5-4.6 1-6.6-.5-.7-1-1.4-1.6-2.2-18.2-25.1-28.3-56.6-28.3-89.9 0-84.2 68.5-152.7 152.7-152.7 84.2 0 152.6 68.5 152.6 152.7 0 84.2-68.5 152.6-152.6 152.6-34.1 0-66.5-10.5-91.9-29.4-.9-.7-2.5-2-3.5-2.6-1.5-1-3.4-1.5-6.3 1.5l-2.7 2.7-87.9 89.5-4.6 5.3c-1.9 2.2-3 3.2-.9 5 .6.5-.3-.2.4.2 19.5 14.2 42.2 21.6 68 21.6h256.3C443 496 496 443 496 378.3V122C496 57.2 443 4.2 378.2 4.3"/><path class="st1" d="M371.6 249.5c0-66.3-54-120.3-120.3-120.3S131 183.2 131 249.5s54 120.3 120.3 120.3 120.3-54 120.3-120.3zm-176.6-.4v-32.4h40.2v-40.1h32.4v40.1h40.2v32.4h-40.2v73.4h-32.4v-73.4H195z"/></svg>
