<svg id="Layer_1" xmlns="http://www.w3.org/2000/svg" viewBox="0 0 500 500"><path fill="#7c9abb" d="M373.4 170.6V93.7c-17.1-6.2-35.5-9.7-54.8-9.7-62.1.1-115.6 35.5-140.6 86.6h195.4zM405.1 170.6h54.2c-12.1-24.7-30.9-45.8-54.2-61v61zM405.1 202.3v159c41.7-27.2 69.2-73.4 69.2-125.9 0-11.4-1.4-22.4-3.8-33.1h-65.4zM373.4 202.3H166.7c-2.4 10.7-3.8 21.7-3.8 33.1 0 83.6 69.7 151.3 155.7 151.3 19.3 0 37.7-3.4 54.8-9.7V202.3z"/><g id="Layer_3"><path fill="#13477c" d="M340.2 330.6s-5.7 37.5-17.3 34.6c-11.5-2.9-5.7-28.8-28.8-49s-51.9-28.8-89.4-28.8-69.2 0-80.7-17.3-17.3-34.6-26-77.8-17.3-63.5-57.7-63.5c0 0 26 5.7 34.6 31.7 8.6 26-2.9 72.1 26 98s49 37.5 98 40.4c49.1 2.9 49 0 69.2 8.7 20.2 8.7 31.7 26 34.6 34.6 2.9 8.7 20.2 49 20.2 83.6 0-.1 14.5-60.6 17.3-95.2z"/><path fill="#13477c" d="M3 128.8s11.5-8.7 17.3-8.7H29s-2.9-31.7 17.3-28.8 20.2 5.7 46.1 23.1 34.6 20.2 43.2 23c0 0-51.9-54.8-92.2-54.8s-31.7 31.7-31.7 31.7-3 8.7-8.7 14.5zM161.5 140.3s-11.5-28.8 5.7-37.5 28.8-14.4 74.9-14.4 161.4 5.7 161.4 5.7-74.9 11.5-112.4 23.1-54.8 26-54.8 26-5.7 2.9-5.7 14.4 37.5 40.4 37.5 40.4-23.1-26-23.1-37.5 26-23.1 51.9-31.7C323 120.2 496 88.4 496 88.4s-219.2-11.5-285.4-8.7-69.2 28.8-69.2 28.8-2.9 26 20.1 31.8z"/></g><g id="Layer_4"><path fill="#fff" d="M212.8 213.3c8.2 0 13.3 4.1 15.9 8.2l-6.9 7.4c-1.9-3.2-4.8-4.9-8.5-4.9-6.5 0-10.9 5.3-10.9 13.3s4.5 13.3 10.9 13.3c3.7 0 6.6-1.9 8.5-4.9l6.9 7.3c-2.7 4.3-7.7 8.3-15.9 8.3-12.4 0-21.4-10-21.4-24.1.1-14 9-23.9 21.4-23.9zM262.6 229l-8.5 31.2h-11.3l-12.3-45.8h11l7.5 30.8 8.8-30.8h9.4l8.8 30.8 7.5-30.8h11l-12.3 45.8h-11.3l-8.3-31.2zM349.8 231.3c0-4.3-1.6-7.3-6-7.3-3.7 0-6.8 2.9-8.3 5.3v30.9h-10.7v-28.9c0-4.3-1.6-7.3-6-7.3-3.7 0-6.7 2.9-8.3 5.4v30.8h-10.6v-45.8h10.6v6c1.6-2.7 7-7.1 13.2-7.1 6 0 9.7 3.2 11.2 8.3 2.4-4.2 7.7-8.3 13.8-8.3 7.5 0 11.8 4.4 11.8 13.8v33.1h-10.7v-28.9z"/></g></svg>
