<svg xmlns="http://www.w3.org/2000/svg" viewBox="0 0 500 500"><g id="Layer_1"><path fill="#fff" d="M452.4 445.1c-14.9 1-29.9 1.3-44.8 2.9-60.7 6.1-121.4 12.7-182.1 18.8-40 4-80.1 7.5-120.1 11.3-10.1 1-19.7 2.9-23.7 14.7 42.5 3.2 357.3-34.6 370.7-47.7z"/><path d="M452.4 445.1C439 458.2 124.2 496 81.7 492.8c4-11.9 13.6-13.8 23.7-14.7 40-3.8 80.1-7.3 120.1-11.3 60.7-6.1 121.4-12.7 182.1-18.8 14.9-1.6 29.9-2 44.8-2.9z"/><path fill="#009fe3" d="M42.7 287.6c4-13.7 12.9-23.4 23.6-31.2 22.8-16.6 48.1-27.4 76.2-31.3 13.1-1.7 26-.2 37.7 6.3 16.3 9.3 18.9 23.4 7.5 38.2-6 7.8-14 13.4-22.3 18.6-3.8 2.4-8.8 3.1-11 8 3.6 4.8 9.6 5.2 14.3 7.8 23.7 12.4 32.4 32.2 25 57.9-12.4 42.9-72.8 81-116.9 73.8-25.1-4-40.9-28.1-36.1-55.1 4-22.3 15.5-41.5 25.5-61.2 6.3-12.4 12.3-24.9 18.9-37 2.5-4.8 6.5-11.5 12.4-8.7 7.1 3.3 1.7 9.9-.4 14.3-7.8 16.3-16.1 32.3-24.3 48.4-4.8 9.5-8.9 19.3-11.2 29.8-6.7 30.5 10.7 53.3 41.9 52.2 26.8-.9 49.3-12.4 64.5-35 16-23.9 9.4-48.2-15.9-62.1-9.9-5.5-20.6-8.1-31.6-9.8-3.5-.6-8.3.2-9.1-4.5-.9-4.6 2.6-7.9 6.4-9.8 7.8-3.9 16.1-7.1 24-10.7 8.8-4 18-7.5 26.2-12.5 12.4-7.7 12-18.2-.6-25.9-14.8-9.1-31.2-8.4-47.2-4.9-27.5 6-53.5 15.5-69.4 41.4-1 1.5-2.6 2.5-4.2 3.5-.5.2-1.6-.3-3.9-.5zM222.7 398.9c3-27.7 12.8-54.6 22.6-81.6 9.1-25.1 19.4-49.9 25.7-76.1 1.3-5.5 2.9-15.3 9-13.6 8.3 2.3 2.7 11.5 1.2 16.6-9.3 31.5-19.8 62.5-29.3 93.9-5.6 18.6-11.4 37.2-11.5 56.8-.1 8.5 1 17.3 9.3 21.9 6.7 3.7 14.7 4 21-.9 9-7.1 11.6-17.4 10.6-28.6-.6-7.6-5.3-11.3-12.5-12.5-3.5-.6-8-.6-8.2-5.5-.2-4.1 3-6.7 6.3-8.5 8.2-4.4 17-4.9 25.3-.9s9.8 11.9 9 20.1c-2.1 24.7-15.6 42.3-36.9 53.4-21 10.9-37.6 1.3-40.8-22.3-.6-3.7-.6-7.5-.8-12.2zM346.9 416.7c14.3 4.4 26.2 1.1 38.3-1.3 3.8-.8 9-3.6 11.2 1.3 2.5 5.5-2.8 8.6-6.8 10.3-16.3 6.9-33.5 11.1-51.3 8.2-12.1-1.9-18.1-10.8-14-22.3 9.1-25.4 26.6-44 51.2-55.3 6.8-3.1 13.5-2.7 18.9 3.6 5.1 5.9 3.4 12 .2 18.1-5.8 11.3-15.8 17.8-26.2 23.9-6.5 4-14.3 5.9-21.5 13.5zm-5.8-8.6c14.6-6.9 26.2-11.9 35.8-20.5 3.7-3.3 5.4-7.7 2.1-12.2-2.9-4-7.4-4-11.2-2-12.8 7.1-21.5 17.4-26.7 34.7zM350.3 234.4c-7.1 44.4-16.6 87.7-26.2 131-4.5 20.3-9.4 40.4-14.4 60.6-1 4.2-1.8 10.7-7.8 9.1-5.3-1.4-2.4-7.2-1.7-10.9 10.7-56.2 21.6-112.4 32.5-168.5 1.6-8.1 1.4-16.7 5.9-24 2-3.2 4.9-6.1 9.1-4.8 4 1.1 2.7 5 2.6 7.5zM463.6 369.5c-2.3 0-4.7-.2-6.9 0-6.7.9-16.4-.5-18.6 6.1-2.2 7 7.8 8.7 12.6 12.4 14.3 11.3 15 25.6.8 37.1-13.5 10.9-29.5 12.2-46 10.5-2.3-.2-4.8-1-5.5-3.4-1.1-3.1 1-5.2 3.1-7.1 7.8-6.3 17.1-5.9 26.4-6.3 4.7-.2 11.4 2.2 13.2-4.1 1.6-5.4-3.5-9.2-7.4-12.4-4.5-3.9-9.6-7.2-14.4-10.8-7.2-5.2-5.9-10.9-.4-16.2 13.8-12.9 30.5-18.9 49.2-18.7 4.8.1 13.1.1 12.2 7.7-.6 6.2-7.9 4.8-12.8 5.1-1.8.2-3.7.1-5.5.1zM189.3 427.2c5.3-22.6 14-44.8 24.7-66.3 1-2 3-3.9 5.6-2.6 2.5 1.2 2.3 3.8 1.7 6-6.1 21.2-12.1 42.5-18.6 63.6-1.3 4.4-4.8 8.4-10.3 7.3-3.6-.7-2.4-4.5-3.1-8zM227.3 289.3c4.6-1.6 8.8 2.7 7.4 7.4-1.7 5.8-5.7 9.4-13 10.3-1.7.2-6-4.3-5.6-5.2 2.3-5.8 5.6-10.5 11.2-12.5z"/></g><g id="Layer_2"><path fill="#fff" d="M289.8 142.5c-14.9 23.7-26.3 48.4-27 77 19-22 18.5-51.3 27-77z"/><path d="M141.6 150.5c7.9-38.2 23.3-73 49.9-101.9 11.4-12.4 24.6-23.9 38.7-33.1 14.3-9.3 30.8-10.5 45.4 1 14.9 11.7 17.9 28.3 16.4 46.2-.2 1.7-1 3.5-2.1 4.9-.6 1-2.1 1.3-4.8 2.6-.7-4.8-1.3-8.6-1.9-12.4-5.2-33-39.2-47.4-64.6-25.9-37 31.2-57.2 71.8-59.9 120.5-.4 7.7 1 15.7 3.2 23.1 6.4 22.8 24.1 32.7 47 25.9 10.5-3.1 20.4-8.4 30.4-13 5.2-2.4 10.1-5.2 15.2-7.8 0 0 17.4-10.8 11.8-2.5-5.5 8.3-18.2 14.7-18.2 14.7-16.2 8.6-31.9 18.9-49.3 24.1-28.6 8.6-46.2-2.9-54.5-31.2.2 0-5.5-13-2.7-35.2zM352.6 50.4s-8.3 11.1-11.1 11.1c-2.8 0-3.2 1.3-3.2 1.3-4.6 19.8-8.4 39.8-12 59.9l-4 16.3s-24.5 4.4-26.1 12.4c.6.8 1 1.2 1.6 2h20.7c-4.9 22.7-9.5 44.1-14.1 65.5l4.9 1.5c2.5-4.7 5.6-9.1 7.1-14 3.7-12.8 7.9-25.8 9.7-39l4.1-14 23.8.5c-1.6 14.7-4.4 28.9-4.2 43 .2 7.3 4.3 18.6 9.5 20.7 6.3 2.5 16.5-2.1 23.5-5.2 11-4.8 30.6-34.1 30.6-34.1l-3.3 10.2c-3.6 15.1-6.9 30.2-10.9 45.2-4.2 15.3-9.1 30.4-14.3 47.3 25-9.1 49.8-104.2 34.9-130.4-4.9 5.5-9.8 10-13.4 15.4-7 10.3-12.6 21.6-20.1 31.6-3.1 4-13.8 9.8-17.3 8.6-4.1-1.4-5.3-10.1-5.4-15.1-.2-13.4 1-26.8 1.8-40.3.3-4.8-3.3-8.8-8-9-7.5-.4-15.4-.8-23.7-1.3 6.4-30.7 12.7-60.6 19-90.6M289.8 142.5c-8.5 25.8-8 54.9-27 77 .7-28.5 12.1-53.3 27-77zM300.5 99.3c4.6-1.6 8.8 2.7 7.4 7.4-1.7 5.8-5.7 9.4-13 10.3-1.7.2-6-4.3-5.6-5.2 2.4-5.7 5.6-10.5 11.2-12.5z"/></g></svg>
