<svg xmlns="http://www.w3.org/2000/svg" viewBox="0 0 600 600"><g><path d="M576.2 64.4c-6.6 14.1 3.2 18.4 12.2 22.3 6.2 2.8 4.9 7.1 4 11.6-4.3 21.8-9.3 43.4-13.3 65.2-7.3 39-13.8 77.9-21 116.9-3.2 17.8-7.4 35.4-11.4 54.6-14.1-8.7-26.9-16.5-40.2-24.6-.8 11.6-1.4 22.6-2.2 33.5-4 48.1-21.2 91.2-50.7 129.1-39 49.8-89.7 81.5-151.8 92.4-74.5 13.1-142.4-3.9-201.7-51.8-49-39.7-79-91-88.7-153.2C.1 289 17 224 61.8 166.8c30.1-38.5 68.8-64.9 114.7-81.8 16.4-6 33.1-8.3 49.8-10.8 5.6-.8 8.8-2.3 9.3-8.8.8-9.1 2.8-18.2 4-27.4.8-4.9 2-6.6 8-5.3 22.7 5.1 45.6 9.7 68.5 13.9 17.3 3.1 34.6 2 51.3-4.2 8-3.1 16.5-5.1 24.9-7.6 9.9-3.1 18.5-.3 27.4 4.2 2 1.1 5.4 1.7 7.1.6 32.3-18.9 62.8-10.2 92.4 6 13.1 7.1 26 14.7 38.3 23 7.9 5.7 12.5 2.3 18.7-4.2zM232.8 76.8c-18.2 3.9-35.6 6.2-51.8 11.3-31.8 9.9-60 27.2-84.6 49.5-65.7 59.7-92.9 134.3-80.1 222 9.1 61.7 39.7 112.5 88.4 151.3 55.8 44.4 120 60.4 190.6 49.9 8-1.2 14.7-4.6 18.7-12.2-7.6-.8-14.7-1.5-23.7-2.3 4-4.8 6.2-7.7 8.8-10.4 28.1-28.3 56.4-56.3 84.2-84.9 9.3-9.6 19.6-15.9 32.9-17.9 11.6-1.9 22.4-5.4 30.3-15.3 5.7-7.3 12.2-14.4 19.8-19.5 7.4-5.1 5.7-11 4-16.8-.8-2.8-4.6-4.6-5.9-7.4-1.2-2.9-1.1-6.6-1.4-9.9 2.9.6 5.7 1.2 8.7 1.7.5.2.9-.2 1.7-.5-3.1-16.5-6.2-33.1-9.4-50.2-3.4 1.9-5.3 2.8-7.6 4-.2-2.6.3-4.9-.6-6.3-4-5.7-7.4-13.1-13-16.2-6.8-3.7-9.3 3.7-11.1 9.1-.2.5-.5.9-.8 1.4-11 15.6-19.8 31.8-17.3 51.8.3 2.3-.5 4.8-.6 7.1 9 4.6 10 12.1 1.2 19.3-1.9-3.9-3.6-7.6-5.6-11.6-4.6 7.6-8 3.6-10.7-1.9-6.5-13.3-13-26.7-19-40.2-2.6-5.9-2.2-13.9-11.9-13.3-1.1 0-2.5-1.9-3.6-3.1-4.5-4.8-9.1-9.4-13.3-14.5-3.6-4.3-7.3-5.9-12.8-4-11.1 3.7-22.3 2.2-33.7-.5-12.5-2.9-25.7-3.9-38.5-5.7-.2.8-.2 1.5-.3 2.3 9.4 5.9 18.9 10.5 30.5 2 .3 4.2.5 7 .6 10 2.6.3 4.8.3 6.8.9 9.1 2.6 14.7 11.9 10 17.9-4.6 6.2-9.9 12.2-15.8 17.2-4.2 3.6-10.8 4.2-14.5 7.9-12.7 12.5-28.6 16.8-44.8 21.5-6.8 2-10.2 0-11.6-7-2.6-13.8-4.3-27.8-16.2-37.9-2.6-2.3-3.1-7.3-4.5-11-1.7-4.5-2.3-9.6-4.8-13.6-4.9-8.2-7.9-18.5-20.1-20.2 3.9 8.7 7.7 17.6 11.6 26.4 4.2 9.6 8.3 19.3 12.4 29.1 1.5 4 1.7 8.8 3.9 12.2 6 9 12.8 17.5 19.2 26.3 4.9 7 11.6 8.2 19.5 4.9 7.3-2.9 15.1-4.3 24.4-6.8-1.2 17-7.9 29.2-17.5 39-12.1 12.4-26 23.2-39 34.6-4.9 4.3-7.4 9.4-6 15.9 1.4 5.7 2.8 11.6 4.9 17 4.6 11 2.8 17.8-7.7 23.8-3.9 2.3-8 4.2-11.9 6.2 1.1 4.5 2 8.3 2.8 11.4-2.9 2.2-5.6 3.6-7.6 5.6-7.6 7.1-16.8 9.7-26.3 6.8-17.5-5.6-30.6-18.1-43.3-30.8-6.6-6.6-11.6-15.1-17.9-22.1-6.6-7.4-11-14.8-5.9-24.7.5-.8.5-2.2.2-2.9-3.4-7.9-6.6-15.9-10.7-23.3-4-7.4-9-14.2-13.3-21.5-1.1-1.9-1.9-4.6-1.4-6.6 4.6-16.4-10.2-23.8-16.4-35.1-.5-.9-3.1-.5-4.5-1.2-5.6-2.9-10.8-7.1-16.7-9-8.5-2.6-7.6-9.6-8.5-15.6-1.4-8.8-2.2-17.8-2.9-26.7-.5-5.3-1.2-10.8-.5-16.1 1.1-7.6 4.6-15 4.9-22.4.2-7.7 1.9-14.2 6.6-20.4 7.7-9.9 14.5-20.4 22.6-29.8 4-4.6 10.4-10.2 15.6-10.2 12.1-.2 24.1 2.9 37.1 4.9-1.9 4.9-3.6 9.1-4.6 13.4-.5 2-.3 4.9.9 6.3 4.3 4.9 9.1 9.4 13.8 14.1 2.9 2.8 7.3 7 10 2.3 5.6-9.4 11.9-5.9 18.7-3.1 10.5 4.3 20.9 8.8 31.7 13.4.3 1.7.8 3.9 1.2 6.2.6-5.1.9-9.7 8.2-9.7 1.7 0 3.9-2.9 4.9-4.9 3.2-6.6 6.2-13.4 9.7-21.6-13.9.2-26.4 4.2-38.5-2.5.8-5.4-.2-12.4 2.8-15.1 3.2-3.2 10-3.7 15.3-3.7 9.6 0 16.4-13.9 27.2-3.1 1.4-8.8 2.5-15.9 3.7-23.8-11.4 9-11.4 9-19.2-1.4-6.3 5.7-12.4 11.4-18.5 17.2 2 2.8 3.9 5.3 7.3 9.9-8.7 0-15.3-.3-22 .3-1.7.2-4.5 3.6-4.3 5.3.2 3.1 2.2 6.2 3.9 10.2-3.9-.6-6.8-2-8.2-1.1-9.1 6.3-7.3-1.4-7.6-5.7-.3-4-1.1-8.3-.3-12.2 1.5-8.2-3.4-12.7-7.6-17.8-.6.3-1.4.5-2 .8 1.9 5.6 3.6 11.1 5.4 16.5-3.4 3.1-7 6-9.3 8.2-3.6-10-6.8-19.5-9.9-28.3-7.3 1.4-13.3 1.2-17.6 3.9-7 4.3-12.5 10.8-19 15.8-2.6 1.9-7.3 3.4-9.7 2.3-2.5-1.1-5.1-6.3-4.5-8.7 1.7-5.6 5.1-10.7 8.3-15.5 7.3-10.8 8.3-11 21.3-5.6 1.9-5.1 3.6-10.4 5.9-15.3.8-1.9 2.6-4.2 4.3-4.6 16.4-3.9 31.7-9.6 43-23 1.2-1.5 4.3-1.4 7.1-2.3-.5 5.1-.8 9.1-1.1 13.1 9.3 2.3 30.9-7 34.6-14.8.3-.8.8-1.7.6-2.3-2.3-6.6 3.1-8.5 7-11.3 2.2-1.5 4.3-2.8 6.5-4.2-.3-.8-.8-1.4-1.1-2.2-7 3.2-18.1 4.9-19.9 10-3.1 8.8-12.7 10.2-15.3 18.1-.5 1.2-3.7 1.4-5.6 2.2-.5-1.9-1.1-3.7-1.2-5.6-.2-2.3 0-4.5 0-6.8-3.1.8-5.6 1.4-8.2 2 4.9-8.7 10.5-15.3 19.9-17.5 4.8-1.1 9.6-2.5 13.8-4.8 11-6.5 22.3-11 35.4-10.7 1.5 0 4.3-2.3 4.6-4 1.2-6.6 1.8-12.7 2.9-21zm-11 186.1c16.5 5.4 32.2 10.5 47.9 15.6 15.6 4.9 31.2 7 46.8.3 7.3-3.1 14.5-6 21.8-9 14.7-5.9 29.5-10.4 43.9.9 15.6-12.5 33.4-17.3 52.2-14.4 14.2 2.2 28.4 6.8 41.9 12.2 20.4 8.3 40.2 18.5 60 27.8C547 223 557.5 150.5 567.7 79.6c-9-1.1-16.8-1.2-24.1-3.4-9.3-2.6-18.2-6.8-27.4-10.5-17.5-7.3-34.6-15.5-52.6-21.6-19-6.6-33.2-1.5-39 16.2-.3.8-1.4 1.4-2.3 2.2-9.9-15.9-24.1-19-40.8-15-10 2.5-20.1 4.6-29.8 7.6-26.3 7.7-52.2 9.4-77.9-2.5-4.5-2-9.1-3.9-14.7-6.3-6.3 74.2-19.4 145.7-37.3 216.6zM481 381.8c9.6-6.8 14.4-13.3 15.1-22.4 1.2-13 2.3-26 4.2-38.8 1.7-11.6-2.9-18.5-14.4-22.1v33.4c-4.3-2.5-6.8-3.9-10.2-5.9 1.2 9-1.9 17 4.3 24.7 2.8 3.6 2.2 10.4 2.3 15.6.4 4.5-.5 9-1.3 15.5zM221 239.3c16.1-61.7 25.2-124.4 31.7-187.7-10.7 62.6-21.2 125.2-31.7 187.7zM574.7 95.8c-.9.2-1.9.2-2.8.3-4.8 30.9-9.4 61.8-14.2 92.7 6.6-28.4 12.1-57 17.5-85.8.3-2.1-.4-4.7-.5-7.2zM537 309.6c.8-.6 1.5-1.4 2.3-2-1.2-1.9-2-4.3-3.7-5.4-4.2-2.5-8.7-4.3-13-6.3-13.4-6.3-26.9-12.5-40.3-18.7-.2.3-.3.8-.5 1.1 18.2 10.4 36.6 20.8 55.2 31.3z"/><path fill="#fff" d="M232.8 76.8c-1.1 8.3-1.7 14.4-2.9 20.4-.3 1.7-3.1 4-4.6 4-13-.3-24.4 4.2-35.4 10.7-4.2 2.5-9 3.7-13.8 4.8-9.4 2.2-15 9-19.9 17.5 2.5-.6 5.1-1.2 8.2-2 0 2.3-.2 4.6 0 6.8.2 1.9.8 3.7 1.2 5.6 2-.6 5.3-.9 5.6-2.2 2.8-7.9 12.2-9.3 15.3-18.1 1.7-5.1 13-6.8 19.9-10 .3.8.8 1.4 1.1 2.2-2.2 1.4-4.5 2.6-6.5 4.2-3.9 2.8-9.3 4.6-7 11.3.2.6-.2 1.5-.6 2.3-3.7 7.9-25.4 17.2-34.6 14.8.3-4 .6-8 1.1-13.1-2.8.9-5.9.8-7.1 2.3-11.4 13.3-26.6 19.2-43 23-1.7.5-3.6 2.8-4.3 4.6-2.2 4.9-3.9 10.2-5.9 15.3-13-5.6-14.1-5.3-21.3 5.6-3.2 4.9-6.6 10-8.3 15.5-.8 2.3 2 7.6 4.5 8.7 2.5 1.1 7.3-.5 9.7-2.3 6.6-4.9 12.2-11.4 19-15.8 4.3-2.6 10.5-2.5 17.6-3.9 3.1 9 6.3 18.4 9.9 28.3 2.3-2.2 5.9-5.1 9.3-8.2-1.7-5.4-3.6-11-5.4-16.5.6-.3 1.4-.5 2-.8 4.2 5.1 9.3 9.6 7.6 17.8-.8 3.9 0 8.2.3 12.2.5 4.5-1.5 12.2 7.6 5.7 1.4-.9 4.3.5 8.2 1.1-1.7-4-3.7-7.1-3.9-10.2-.2-1.7 2.6-5.1 4.3-5.3 6.5-.6 13.1-.3 22-.3-3.4-4.5-5.3-7.1-7.3-9.9 6.2-5.7 12.4-11.3 18.5-17.2 7.9 10.4 7.9 10.4 19.2 1.4-1.2 7.9-2.3 15-3.7 23.8-10.8-10.8-17.8 3.1-27.2 3.1-5.3 0-12.1.5-15.3 3.7-2.9 2.8-2 9.6-2.8 15.1 12.1 6.6 24.6 2.6 38.5 2.5-3.6 8-6.5 15-9.7 21.6-1.1 2-3.2 5.1-4.9 4.9-7.1 0-7.6 4.6-8.2 9.7-.5-2.3-.9-4.6-1.2-6.2-10.8-4.5-21.2-9-31.7-13.4-6.8-2.9-13.1-6.3-18.7 3.1-2.8 4.8-7.3.6-10-2.3-4.6-4.6-9.6-9.1-13.8-14.1-1.2-1.4-1.4-4.3-.9-6.3 1.1-4.3 2.9-8.5 4.6-13.4-13.1-2-25.2-4.9-37.1-4.9-5.3 0-11.6 5.6-15.6 10.2-8.2 9.4-15 19.9-22.6 29.8-4.8 6-6.3 12.5-6.6 20.4-.2 7.6-3.9 14.8-4.9 22.4-.8 5.3 0 10.7.5 16.1.8 9 1.5 17.9 2.9 26.7.9 6-.2 12.8 8.5 15.6 5.9 1.9 11.1 6 16.7 9 1.4.8 4 .3 4.5 1.2 6 11.3 20.9 18.7 16.4 35.1-.5 2 .3 4.6 1.4 6.6 4.3 7.3 9.3 14.1 13.3 21.5 4 7.6 7.3 15.5 10.7 23.3.3.8.3 2.2-.2 2.9-5.1 10-.8 17.3 5.9 24.7 6.3 7 11.3 15.5 17.9 22.1 12.7 12.7 25.8 25.4 43.3 30.8 9.4 2.9 18.7.3 26.3-6.8 2.2-2 4.6-3.4 7.6-5.6-.8-3.1-1.7-7-2.8-11.4 3.9-2 8-4 11.9-6.2 10.5-6 12.4-12.8 7.7-23.8-2.3-5.4-3.7-11.3-4.9-17-1.5-6.5 1.1-11.6 6-15.9 13.1-11.4 26.9-22.3 39-34.6 9.6-9.7 16.2-22 17.5-39-9.3 2.5-17.2 3.9-24.4 6.8-7.9 3.1-14.5 2-19.5-4.9-6.3-8.8-13.1-17.2-19.2-26.3-2.3-3.4-2.3-8.2-3.9-12.2-3.9-9.7-8.2-19.3-12.4-29.1-3.9-9-7.9-17.8-11.6-26.4 12.4 1.5 15.1 12.1 20.1 20.2 2.5 4 3.2 9.1 4.8 13.6 1.4 3.7 1.9 8.8 4.5 11 11.9 10 13.6 24.3 16.2 37.9 1.4 7 4.6 9 11.6 7 16.2-4.6 32.3-9.1 44.8-21.5 3.7-3.7 10.5-4.3 14.5-7.9 5.9-4.9 11-11 15.8-17.2 4.5-6-.9-15.3-10-17.9-2-.6-4.2-.6-6.8-.9-.2-3.1-.3-5.9-.6-10-11.4 8.5-21 4-30.5-2 .2-.8.2-1.5.3-2.3 12.8 1.9 25.8 2.8 38.5 5.7 11.4 2.6 22.4 4 33.7.5 5.6-1.9 9.3-.3 12.8 4 4 5.1 8.8 9.7 13.3 14.5 1.1 1.2 2.5 3.1 3.6 3.1 9.7-.5 9.3 7.6 11.9 13.3 6.2 13.4 12.5 26.9 19 40.2 2.6 5.4 6 9.4 10.7 1.9 1.9 4 3.7 7.7 5.6 11.6 8.8-7.3 7.7-14.5-1.2-19.3.3-2.5.9-4.8.6-7.1-2.3-20.1 6.5-36.3 17.3-51.8.3-.5.6-.9.8-1.4 2-5.4 4.3-12.8 11.1-9.1 5.6 3.1 9 10.5 13 16.2.9 1.2.3 3.7.6 6.3 2.3-1.2 4-2.2 7.6-4 3.2 17 6.3 33.7 9.4 50.2-.8.2-1.2.5-1.7.5-2.9-.5-5.7-1.1-8.7-1.7.5 3.4.2 7 1.4 9.9 1.2 2.8 5.1 4.6 5.9 7.4 1.7 6 3.4 11.7-4 16.8-7.6 5.1-13.9 12.4-19.8 19.5-7.9 10-18.7 13.4-30.3 15.3-13.1 2.2-23.7 8.3-32.9 17.9-28.3 28.6-56.6 56.6-84.7 84.9-2.6 2.6-4.8 5.7-8.8 10.4 9 .9 16.1 1.5 23.7 2.3-4 7.6-10.7 11-18.7 12.2-70.6 10.5-134.8-5.6-190.6-49.9-48.7-38.8-79.5-89.7-88.4-151.3C3 271.4 30.2 196.7 95.9 137c24.6-22.3 52.7-39.4 84.6-49.5 16.7-4.5 34-6.8 52.3-10.7zM261 484.3c-5.9 4.5-11 9.3-17 12.7-5.3 2.9-13.8 2.3-9.1 12.4.3.8-1.9 2.6-2.2 4-.6 2.5-1.4 5.3-.8 7.4 2.2 6.6 10 8.5 17.8 4.6 13-6.7 19.1-28.3 11.3-41.1zM141.4 131.1c-7.3-.8-12.1 1.9-14.8 9-1.2 3.1-4.6 5.1-7 7.9-1.9 2.2-3.7 4.6-5.6 7 3.6-.2 7.1 0 10.5-.6 1.5-.3 3.1-2.2 4.2-3.7 4.3-6.7 8.5-13.2 12.7-19.6zM123 229.4c1.5-6 2.8-10.7 4-15.6-4.3 1.7-8 3.2-12.7 5.1 3 3.7 5.3 6.4 8.7 10.5z"/><path fill="#fff" d="M221.8 262.9c17.9-71.1 31.1-142.4 37.6-216.4 5.6 2.3 10.2 4.2 14.7 6.3 25.7 11.9 51.6 10.2 77.9 2.5 9.9-2.9 19.9-5.1 29.8-7.6 16.7-4 30.9-.9 40.8 15 .9-.9 2-1.4 2.3-2.2 5.7-17.8 19.9-22.7 39-16.2 17.9 6.2 35.1 14.4 52.6 21.6 9 3.7 17.9 7.9 27.4 10.5 7.3 2 15.1 2.2 24.1 3.4-10.4 70.8-20.9 143.4-31.4 216.7-19.8-9.3-39.6-19.5-60-27.8-13.4-5.6-27.5-10-41.9-12.2-18.9-2.9-36.8 1.9-52.2 14.4-14.4-11.3-29.2-6.8-43.9-.9-7.3 2.9-14.5 5.9-21.8 9-15.6 6.6-31.2 4.6-46.8-.3-15.9-5.1-31.5-10.4-48.2-15.8zm203.1-106c13.8-11.6 17.5-24.9 12.2-42.8-2.5-8.5-7.7-14.7-16.2-15.1-17.5-.9-35.1-.3-52.6-.3v123.2H409c19-.2 29.5-7.7 32.2-26.4 2.4-17.8 1.3-32.4-16.3-38.6zm43.4 64.4h29.4v-100c6.5-.3 12.1-.6 17.5-.8V97.6h-64.8v23.5h17.9v100.2zm-110.5-23.2h-31.1V97.6h-28.6v123.5h59.7v-23zM481 381.8c.6-6.5 1.5-11 1.4-15.3-.2-5.4.6-12.1-2.3-15.6-6.2-7.7-3.1-15.8-4.3-24.7 3.4 2 5.9 3.4 10.2 5.9v-33.4c11.4 3.6 16.1 10.5 14.4 22.1-1.9 12.8-2.9 25.8-4.2 38.8-.8 8.7-5.6 15.2-15.2 22.2zM221 239.3c10.5-62.6 21.2-125.1 31.7-187.7-6.5 63.2-15.6 126.1-31.7 187.7zM574.7 95.8c.2 2.5.9 4.9.5 7.3-5.3 28.6-10.8 57.3-17.5 85.8 4.8-30.9 9.4-61.8 14.2-92.7.9-.1 1.9-.2 2.8-.4z"/><path fill="#fff" d="M537 309.6c-18.4-10.5-36.8-21-55.3-31.5.2-.3.3-.8.5-1.1 13.4 6.2 26.9 12.5 40.3 18.7 4.3 2 9 3.9 13 6.3 1.7 1.1 2.5 3.6 3.7 5.4-.8 1-1.6 1.6-2.2 2.2z"/><path d="M261 484.3c7.7 12.8 1.7 34.5-11.3 41.1-7.7 4-15.6 2-17.8-4.6-.6-2.2.2-5.1.8-7.4.3-1.4 2.5-3.2 2.2-4-4.6-10 3.9-9.4 9.1-12.4 6.1-3.3 11.2-8.3 17-12.7zM141.4 131.1c-4.2 6.5-8.3 13-12.7 19.3-1.1 1.5-2.6 3.4-4.2 3.7-3.4.8-7 .5-10.5.6 1.9-2.3 3.6-4.6 5.6-7 2.3-2.6 5.7-4.8 7-7.9 2.7-6.9 7.5-9.5 14.8-8.7zM123 229.4c-3.2-4-5.6-6.8-8.7-10.5 4.6-1.9 8.3-3.4 12.7-5.1-1.4 4.9-2.5 9.4-4 15.6zM424.9 156.9c17.6 6 18.7 20.7 16.2 38.6-2.6 18.7-13 26.3-32.2 26.4-13.3.2-26.7 0-40.7 0V98.7c17.5 0 35.1-.6 52.6.3 8.5.5 13.8 6.6 16.2 15.1 5.4 17.9 1.7 31.3-12.1 42.8zm-28.3 45.7c6.2-2.5 11.7-3.2 14.7-6.3 4.2-4.6 3.1-22.3-1.4-25.5-3.4-2.5-8.5-2.6-13.3-3.9v35.7zm-.5-83.4c0 7.9.2 15.1 0 22.4-.2 4.9 2.2 6.2 6.5 5.6 7.6-1.1 10.8-7.3 9.4-18.5-.9-8.5-4.4-10.6-15.9-9.5zM468.3 221.3V121h-17.9V97.5h64.8v22.9c-5.4.3-11 .5-17.5.8v100c-9.9.1-19 .1-29.4.1zM357.8 198.1v23h-59.7V97.6h28.6v100.5h31.1z"/><path fill="#fff" d="M396.6 202.6v-35.9c4.9 1.4 10 1.4 13.3 3.9 4.5 3.2 5.6 21 1.4 25.5-2.9 3.4-8.7 4.1-14.7 6.5zM396.1 119.2c11.4-1.2 15 1.1 15.9 9.4 1.2 11.3-1.9 17.5-9.4 18.5-4.3.6-6.6-.6-6.5-5.6.2-7.2 0-14.5 0-22.3z"/></g></svg>
