<svg id="Layer_1" xmlns="http://www.w3.org/2000/svg" viewBox="0 0 500 500"><ellipse cx="248.8" cy="252.5" rx="238.5" ry="243.5" fill="#c1a844"/><ellipse cx="248.8" cy="254.5" rx="218.6" ry="227.4" fill="#23c1e8"/><path fill="#095f08" d="M261.2 371c-2 14.3-4.5 28.2-5.5 42-.5 6.3 1 13.3 3.8 19.1 4.5 9.1-1.8 13.3-6.8 17.4-2.5 1.8-9.3 1-11.8-1.3-4.5-3.8-8.6-9.3-2.8-16.1 6-7.3 6.8-15.8 5-25.4-2.3-12.1-3-24.4-3.5-36.5-.3-7 2-13.1 11.3-12.6 9.5.6 9.8 7.1 10.3 13.4zM141.7 291c-14.1 3-27.9 5.5-41.3 9.3-6 1.8-12.3 5.5-16.6 10.1-7 7.3-13.1 3-18.6-.5-2.5-1.8-4-8.3-3-11.6 2-5.5 5.5-11.3 14.1-8.3 8.8 3.3 17.1 1 25.4-4 10.6-6.3 21.9-11.3 33-15.8 6.5-2.8 13.1-2.8 15.6 6.3 3.2 9.2-2.8 11.7-8.6 14.5zM174.1 153.6c-8-12.1-15.1-24.1-23.6-35.2-3.8-5-9.6-9.6-15.3-11.8-9.3-3.8-7.5-11.3-6.3-17.4.5-3 6.3-6.8 9.8-6.8 6 0 12.6 1.3 12.8 10.3.3 9.6 5.3 16.4 12.8 22.4 9.6 7.5 18.4 16.4 26.7 25.2 4.8 5 7.3 11.1-.3 16.9-7.5 5.7-12 .7-16.6-3.6zM320.5 146.3c9.8-10.8 19.4-20.9 27.9-31.7 3.8-5 6.8-11.6 7.5-17.9 1.3-10.1 8.8-10.3 15.3-10.6 3-.3 8.3 4.3 9.1 7.5 1.8 5.8 2 12.3-6.8 14.8-9.1 2.5-14.6 9.3-18.4 18.1-5 11.1-11.1 21.9-17.6 32.2-3.8 6-9.1 9.8-16.4 4-7.1-5.3-3.6-11.1-.6-16.4zM366.8 270.9c12.3 7.5 23.9 15.3 36.2 21.9 5.5 3 12.6 4.5 18.9 4.3 10.1-.5 11.6 7 13.1 13.1.8 3-2.8 8.8-5.8 10.3-5.3 2.8-11.8 4.3-15.8-4-4.3-8.6-11.8-12.6-21.1-14.8-11.8-2.8-23.4-7-35-11.3-6.5-2.5-11.3-7-6.8-15.6 4.2-8.5 10.5-5.9 16.3-3.9z"/><path d="M447.6 222.1c-3.5-27.9 6.3-30.7 6.3-30.7s-10.1 2.8-21.4-23.1c-11.6-25.9-18.9-52.8-32.2-61.4-13.1-8.8-36.7 6-36.7 6s-11.3 13.6-15.6 20.9c-3.5 6.3-13.1 24.1-24.1 22.4h-.3c-1.3-10.1 11.3-21.9 15.8-26.7 6-6.3 15.8-20.6 15.8-20.6s8-26.9-4-37.2c-12.1-10.3-40-10.3-67.9-14.3-27.9-4-27.9-14.3-27.9-14.3s0 10.3-27.9 14.3-55.8 4-67.9 14.3c-12.1 10.3-4 37.2-4 37.2s10.1 14.3 15.8 20.6c3.3 3.5 11.1 10.8 14.3 18.4-12.1 4-22.4-15.6-26.2-22.1-4.3-7.5-15.6-20.9-15.6-20.9s-23.6-14.8-36.7-6c-13.1 8.8-20.6 35.7-32.2 61.4-11.6 25.9-21.4 23.1-21.4 23.1s10.1 2.8 6.3 30.7c-3.5 27.9-11.1 54.8-4.3 69.2 6.8 14.3 34.7 13.8 34.7 13.8s16.6-5.8 24.1-9.8c5.3-3 18.6-10.8 27.9-8.8-1 12.3-22.6 14.6-29.9 15.8-8.6 1.3-25.2 7-25.2 7s-22.2 16.6-19 32.2c3.3 15.3 25.7 32.2 45.5 52.3 19.9 20.1 13.6 28.4 13.6 28.4s6.3-8.3 30.9 5.3c24.7 13.6 47.3 30.2 62.9 29.2 15.8-1 25.4-27.4 25.4-27.4s.8-17.6-.5-26.2c-.8-6.8-4-25.4 4.3-31.9 7.3 7.3 3.3 24.9 2.3 31.4-1.5 8.6-1.8 25.9-1.8 25.9s8.3 26.7 24.1 28.7 39-13.8 64.4-25.9 31.2-3.5 31.2-3.5-5.8-8.6 15.1-27.7 44-34.7 48.3-49.8c4.3-15.3-17.4-33-17.4-33s-16.4-6.3-24.7-8.3c-6.8-1.5-24.9-4.5-28.7-14.3 9.3-3 23.4 5.5 28.9 8.6 7.5 4 24.1 9.8 24.1 9.8s27.9.5 34.7-13.8c7.8-14.1.3-41.1-3.2-69.2z" fill="#fff"/><path d="M248.6 197.2c3.3-5 5.8-9.3 8.6-13.3 11.3-16.9 28.2-23.1 46.5-17.9 18.1 5.3 30.9 21.4 31.7 40.2 1 18.4-5 34.7-13.8 50.3-19.1 33.2-45.8 60.1-72.9 88-23.4-23.1-46.5-46.3-63.9-73.7-9.1-14.3-16.4-30.4-21.4-46.5s-2.3-32.4 10.1-45.5c19.6-21.1 50.8-18.4 66.7 5.5 2.6 3.6 5.1 7.8 8.4 12.9z" fill="#fe0002"/><path d="M239.8 204.7h19.9v23.9h23.8v19.9h-23.8v67.9h-19.9v-67.9h-25.9v-19.9h25.9z"/><path fill="#095f08" d="M315 146.9l-1-.1c0-.2 2.2-22.3 20.1-32.3l.5.9c-17.4 9.8-19.6 31.3-19.6 31.5zM305.2 142.9l-1-.1c0-.2 2.2-24.3 18.1-34.3l.5.8c-15.5 9.8-17.6 33.3-17.6 33.6zM293.1 142.9l-1-.1c.2-1.1 4.2-28.2 16.1-36.3l.6.8c-11.6 7.8-15.7 35.3-15.7 35.6zM285.1 142.8h-1c0-1.2.1-30.2 6.1-38.3l.8.6c-5.9 7.9-5.9 37.4-5.9 37.7zM274.2 142.9c-.1-1.4-2-34.2 4.1-42.3l.8.6c-5.9 7.8-3.9 41.3-3.9 41.7h-1zM264.2 104.8h1v38h-1zM256.1 59.1h1v91.8h-1zM196.3 146.9c0-.2-2.2-21.7-19.6-31.6l.5-.9c17.9 10.1 20.1 32.1 20.1 32.3l-1 .2zM206.3 142.9c0-.2-2.2-23.8-17.6-33.6l.5-.8c15.9 10.1 18.1 34.1 18.1 34.3l-1 .1zM218.4 142.9c0-.3-4.1-27.8-15.6-35.6l.6-.8c11.9 8.1 15.9 35.2 16.1 36.3l-1.1.1zM227.2 142.8h-1c0-.3-.1-29.9-5.9-37.7l.8-.6c6 8.1 6.1 37.1 6.1 38.3zM237.3 142.9l-1-.1c0-.3 1.9-33.9-3.9-41.7l.8-.6c6 8.1 4.1 41 4.1 42.4zM246.3 104.8h1v38h-1z"/><g><path fill="#095f08" d="M403.9 284.3c-13.3-15.2-34.8-12.7-35-12.7l-.1-1c.2 0 22.3-2.6 35.9 13l-.8.7zM407.2 271.2c-12.8-13-36.3-10.2-36.6-10.2l-.1-1c.2 0 24.3-2.9 37.4 10.5l-.7.7zM406.2 257.1c-10-9.8-37.8-7.9-38.1-7.9l-.1-1c1.2-.1 28.5-1.9 38.9 8.2l-.7.7zM366.4 241.4l-.2-1c1.2-.3 29.4-6.3 38.6-2l-.4.9c-8.9-4.1-37.7 2.1-38 2.1zM364.4 231.6l-.3-1c1.3-.4 33-9.1 42.1-4.7l-.4.9c-8.7-4.2-41 4.7-41.4 4.8zM362.4 222.1l-.2-1c4-.7 36.6-8 37-8l.2 1c-.4 0-33 7.2-37 8z"/><path transform="rotate(-12.058 397.55 205.683)" fill="#095f08" d="M351.7 205.2h91.8v1h-91.8z"/><path fill="#095f08" d="M344.3 156.4l-.3-1c.2-.1 20.9-6.7 26.6-25.8l1 .3c-5.8 19.6-27.1 26.4-27.3 26.5zM350.1 165.4l-.3-1c.2-.1 22.7-7.2 29.1-24.3l.9.3c-6.5 17.7-29.5 25-29.7 25zM352.6 177l-.3-.9c.3-.1 26.3-9.9 31.4-22.9l.9.4c-5.3 13.4-30.9 23-32 23.4zM354.3 184.8l-.2-1c.3-.1 29.1-6.3 35.4-13.7l.8.7c-6.5 7.6-34.8 13.8-36 14zM356.3 194.6l-.2-1c.3-.1 33.6-5.3 39.9-12.7l.8.7c-6.5 7.6-39.1 12.8-40.5 13zM358.6 204.4l-.2-1c4-.7 36.6-8 37-8l.2 1c-.3.1-33 7.3-37 8z"/></g><g><path fill="#095f08" d="M272.7 420.7l-.9-.4c7.4-18.7-4.6-36.6-4.7-36.8l.8-.6c.1.3 12.4 18.7 4.8 37.8zM286 417.7l-.9-.3c5.6-17.2-7.6-36.8-7.7-37l.8-.6c.1.2 13.6 20.2 7.8 37.9zM297.9 410.6l-1-.3c3.9-13.5-10.4-37.3-10.5-37.6l.9-.5c.5 1 14.6 24.5 10.6 38.4zM312 400.4c-.2-9.5-19.1-32.4-19.3-32.6l.8-.6c.8 1 19.2 23.4 19.5 33.3l-1-.1zM324.1 396.2c-.5-9.8-23.3-34.4-23.5-34.7l.7-.7c1 1 23.3 25.2 23.8 35.3l-1 .1zM332.2 384.1c-.2-.3-21.7-26.2-24.1-29.2l.8-.6c2.5 3 23.9 28.9 24.2 29.2l-.9.6z"/><path transform="rotate(-39.445 338.896 379.043)" fill="#095f08" d="M338.4 333.1h1V425h-1z"/><path fill="#095f08" d="M388.1 321.7c-17.2 0-30-12.6-30.2-12.7l.7-.7c.2.2 15.6 15.4 35.3 11.9l.2 1c-2.1.3-4.1.5-6 .5zM385.3 333.4c-17.2 0-32.3-15-32.4-15.2l.7-.7c.2.2 16.9 16.9 35.1 14.7l.1 1c-1.2.2-2.4.2-3.5.2zM377.5 343.6c-14.2 0-33.1-17.1-33.9-17.8l.7-.7c.2.2 20.9 19 34.8 17.5l.1 1h-1.7zM366.4 356.6c-9.6-2.3-28.2-24.6-28.9-25.6l.8-.6c.2.2 19.1 23 28.4 25.2l-.3 1zM359.6 367.4c-9.6-2.5-29.1-29-30-30.1l.8-.6c.2.3 20.1 27.3 29.4 29.7l-.2 1zM346.1 372.8c-.2-.3-21.7-26.2-24.1-29.2l.8-.6c2.5 3 23.9 28.9 24.2 29.2l-.9.6z"/></g><g><path fill="#095f08" d="M127.7 313.7c-3.1 0-6.4-.4-9.8-1.4l.3-1c19.1 5.6 36.1-8.1 36.3-8.2l.6.8c-.2.2-12.1 9.8-27.4 9.8zM128.9 325.7c-2.2 0-4.5-.2-6.7-.8l.2-1c17.9 4.2 36.1-10.8 36.3-11l.6.8c-.1.2-14.4 12-30.4 12zM134.3 336.6c-1.3 0-2.6-.1-3.8-.4l.2-1c13.7 3 36.1-13.6 36.3-13.7l.6.8c-.8.7-19.4 14.3-33.3 14.3zM142 350.6l-.1-1c9.5-1.2 30.7-22 30.9-22.2l.7.7c-.9.8-21.6 21.2-31.5 22.5zM147.5 361.9l-.1-1c9.8-1.5 32.2-26.3 32.4-26.5l.7.7c-.9 1-22.8 25.3-33 26.8zM160.4 368.8l-.7-.7c.2-.2 24.2-23.9 26.9-26.7l.7.7c-2.7 2.8-26.7 26.5-26.9 26.7z"/><path transform="rotate(-44.806 165.673 374.103)" fill="#095f08" d="M119.8 373.6h91.8v1h-91.8z"/><path fill="#095f08" d="M228.2 424.2c-5.5-19.9 8.8-37 8.9-37.2l.8.6c-.1.2-14.1 16.9-8.7 36.3l-1 .3zM215.6 419.9c-4-18.4 11.5-37 11.7-37.2l.8.6c-.2.2-15.4 18.4-11.5 36.3l-1 .3zM204.6 411.1c-2.8-14.1 13.7-36 14.4-36.9l.8.6c-.2.2-16.9 22.4-14.2 36.1l-1 .2zM191.2 399.7l-1-.2c1.5-9.9 22.2-30.4 23-31.2l.7.7c-.1.3-21.2 21.2-22.7 30.7zM180.2 393.9l-1-.1c1.3-9.9 26-31.6 27.1-32.5l.7.8c-.4.2-25.6 22.3-26.8 31.8zM173.2 381.6l-.7-.7c.2-.2 24.2-23.9 26.9-26.7l.7.7c-2.7 2.8-26.6 26.5-26.9 26.7z"/></g><g><path fill="#095f08" d="M162.4 147.3c-.2-.1-21.5-6.3-27.8-26l1-.3c6.1 19.1 26.9 25.3 27.1 25.3l-.3 1zM156.4 156.4c-.2-.1-23.5-6.8-30.3-24.4l.9-.4c6.6 17.2 29.4 23.8 29.6 23.8l-.2 1zM154.1 168.2c-1.1-.4-26.9-9.5-32.5-22.9l.9-.4c5.4 13 31.6 22.3 31.9 22.4l-.3.9zM152.6 176c-1.2-.2-29.7-5.9-36.2-13.2l.7-.7c6.4 7.1 35.4 12.9 35.7 12.9l-.2 1zM150.9 185.8c-1.4-.2-34-4.6-40.8-12l.7-.7c6.6 7.1 39.9 11.6 40.2 11.7l-.1 1zM148.9 195.6c-4-.7-36.9-7.2-37.2-7.3l.2-1c.3.1 33.2 6.5 37.2 7.3l-.2 1z"/><path transform="rotate(-79.088 110.238 195.782)" fill="#095f08" d="M109.7 149.9h1v91.7h-1z"/><path fill="#095f08" d="M105.1 276.5l-.8-.6c13.3-15.9 35.4-13.8 35.7-13.8l-.1 1c-.3-.1-21.8-2.1-34.8 13.4zM101.5 263.4l-.7-.7c12.9-13.6 36.9-11.2 37.1-11.2l-.1 1c-.2 0-23.8-2.3-36.3 10.9zM102.3 249.3l-.7-.7c10.1-10.4 37.5-9 38.6-9l-.1 1c-.2.1-28-1.3-37.8 8.7zM141.6 232.9c-.3-.1-29.4-5.7-37.9-1.3l-.5-.9c8.9-4.6 37.4 1 38.6 1.2l-.2 1zM143.6 223c-.3-.1-32.9-8.5-41.7-4.1l-.4-.9c9.1-4.6 41 3.6 42.4 4l-.3 1zM145.4 213.2c-4-.7-36.9-7.2-37.2-7.3l.2-1c.3.1 33.2 6.5 37.2 7.3l-.2 1z"/></g></svg>
