<svg xmlns="http://www.w3.org/2000/svg" viewBox="0 0 600 600"><path fill="#a09e9f" d="M9.9 380.4c1.4-.3 2.8-.6 5.1-.6 2.6 0 4.6.6 5.7 2 1.1 1.1 1.7 2.8 1.7 4.8s-.6 3.7-1.7 4.8c-1.4 1.7-3.7 2.6-6.3 2.6-.9 0-1.4 0-2.3-.3v9.1H9.6v-22.5h.3zm2.8 11.1c.6.3 1.4.3 2.3.3 3.1 0 5.1-1.7 5.1-4.8 0-3.1-2-4.6-4.8-4.6-1.1 0-2 0-2.6.3v8.8zM64.8 380.4c1.4-.3 3.4-.6 5.1-.6 2.8 0 4.8.6 6 2 1.1 1.1 1.7 2.6 1.7 4.3 0 3.1-1.7 5.1-4 6 1.7.6 2.6 2.3 3.1 4.6.6 3.1 1.1 5.4 1.7 6.3h-2.8c-.3-.6-.9-2.6-1.4-5.4-.6-3.1-1.7-4.3-4.3-4.6h-2.6v10h-2.6l.1-22.6zm2.5 10.6h2.8c2.8 0 4.6-1.7 4.6-4.3 0-2.8-2-4.3-4.8-4.3-1.4 0-2.3 0-2.6.3v8.3zM137.3 391.5c0 8-4.3 12.2-9.7 12.2s-9.4-4.8-9.4-11.7c0-7.4 4-11.9 9.7-11.9 5.7-.2 9.4 4.6 9.4 11.4zm-16.2.3c0 4.8 2.3 9.4 6.5 9.4 4.3 0 6.5-4.3 6.5-9.7 0-4.6-2.3-9.4-6.5-9.4-4.2.3-6.5 4.9-6.5 9.7zM179.1 380.4c1.7-.3 3.7-.6 5.7-.6 4 0 6.5.9 8.2 2.8s2.8 4.6 2.8 8.2c0 3.7-1.1 6.8-2.8 8.8-2 2.3-5.1 3.4-9.1 3.4-2 0-3.4 0-4.8-.3v-22.3zm2.6 20.5c.6 0 1.7.3 2.8.3 5.7 0 8.8-3.4 8.8-9.7 0-5.4-2.8-8.8-8.2-8.8-1.4 0-2.6 0-3.1.3v17.9h-.3zM240.6 380.2v13.7c0 5.1 2 7.4 4.8 7.4 3.1 0 5.1-2.3 5.1-7.4v-13.7h2.8v13.4c0 7.1-3.4 10-8 10-4.3 0-7.4-2.6-7.4-10v-13.7h2.6v.3zM310.8 402.6c-.9.6-2.8 1.1-5.4 1.1-6 0-10.2-4-10.2-11.7 0-7.1 4.3-11.9 10.8-11.9 2.6 0 4.3.6 4.8 1.1l-.6 2.6c-1.1-.6-2.6-.9-4.3-.9-4.8 0-8 3.4-8 9.4 0 5.7 2.8 9.4 8 9.4 1.7 0 3.4-.3 4.3-.9l.6 1.8zM355.2 382.7h-6.3v-2.6h15.4v2.6H358v20.5h-2.8v-20.5zM407.5 380.2v23H405v-23h2.5zM468.1 391.5c0 8-4.3 12.2-9.7 12.2-5.4 0-9.4-4.8-9.4-11.7 0-7.4 4-11.9 9.7-11.9 5.7-.2 9.4 4.6 9.4 11.4zm-15.9.3c0 4.8 2.3 9.4 6.5 9.4 4.3 0 6.5-4.3 6.5-9.7 0-4.6-2.3-9.4-6.5-9.4-4.2.3-6.5 4.9-6.5 9.7zM509.9 403.2v-23h2.8l6.5 11.7c1.4 2.6 2.8 5.1 3.7 7.4-.3-3.1-.3-6-.3-9.4v-9.7h2.6v23h-2.8l-6.5-11.7c-1.4-2.6-2.8-5.1-4-7.7.3 2.8.3 5.7.3 9.4v10h-2.3zM568.2 399.5c1.1.9 2.8 1.4 4.8 1.4 2.8 0 4.3-1.7 4.3-4s-1.1-3.4-4-4.6c-3.4-1.4-5.4-3.4-5.4-6.5 0-3.7 2.6-6.3 6.8-6.3 2 0 3.7.6 4.6 1.1l-.9 2.6c-.6-.3-2-1.1-4-1.1-2.8 0-4 2-4 3.4 0 2.3 1.1 3.1 4 4.6 3.4 1.4 5.4 3.4 5.4 6.8s-2.3 6.5-7.1 6.5c-2 0-4.3-.6-5.4-1.4l.9-2.5z"/><g><path d="M79.9 184.5v174.9H65.1V243.9C58 267.8 51.7 290 44.3 315c-7.4-25.6-13.9-48.4-21-72.2v116.3H9.1V183.9c3.7-.3 7.1-.3 11.7-.6 7.7 28.7 15.1 57.2 23.3 89 5.7-20.5 10.5-38.1 15.4-55.7 2.3-8.2 4.8-16.2 6.5-24.7 1.9-8.3 6.2-10.6 13.9-7.4zM370 266.1h33.3v-82.2h16.2v175.5h-15.9v-83.3h-33.3v83.6h-15.6V184.2h15.4c-.1 27-.1 54-.1 81.9zM243.1 308.8h15.6v30.1c0 7.1 2.3 13.1 10.8 12.8 8.5-.3 9.4-6.3 10.2-13.4 2.6-25.6-2.3-49.2-18.2-70.3-13.7-17.6-21.3-37.3-18.5-60.3 1.7-14.5 11.4-25.9 25.6-26.5 13.4-.6 25.6 9.1 27.3 23.3 1.1 10.2.3 20.5.3 31.3H280v-33c0-6.8-2-12.2-9.7-12.5-8.2-.3-10.8 5.1-11.4 12.5-.9 16.8-.9 33.3 10.5 47.8 4.3 5.4 6.8 12.5 11.1 18.2 13.9 18.8 17.4 39.8 16.2 62.6-1.1 18.2-11.7 29.9-28.2 29.3-15.4-.3-25-11.7-25-29.6-.4-7.3-.4-14.7-.4-22.3zM500.2 345.7h32.4v13.7h-47.8V184.2h15.1c.3 53.2.3 106.7.3 161.5zM556.9 346h33v13.7h-47.5V184.5h14.5V346zM459.6 359.4h-14.8V183.9h14.8v175.5zM228.6 359.4c0-26.2 0-51.5-.3-76.5-.3-3.7-2.6-7.7-4-11.7 1.1-3.1 4-6.8 4-10.8.3-19.9.3-39.8 0-59.7-.3-8.5-4.8-15.6-13.7-16.5-12.8-1.1-25.9-.3-38.7-.3v175.8h15.4v-83.6h21v83.1c6.1-.1 10.9-.1 16.3.2zm-36.4-93.3v-74c15.4-4.3 19.9-1.1 20.2 14.2.1 7.4.1 14.8.1 22.2 0 12.4-.1 24.8-.1 37.5-7.4.1-13.4.1-20.2.1zM138.2 183.9c-18.8-8.2-37 5.7-37 28.7-.3 46.9 0 93.9 0 140.8 0 2 .6 4 .9 6H118v-83.1h21v83.3h14.8c0-52.1 0-103 .3-153.6 0-10.7-6.5-17.8-15.9-22.1zm0 82.2h-21v-41.2-22.5c0-7.1 2.3-11.7 10.2-11.9 8-.3 10.8 4.8 10.8 11.7.3 21 0 42 0 63.9z"/><circle cx="326.2" cy="271.5" r="11.1" fill="#c00e2a" id="Layer_2"/></g></svg>
