<svg id="Layer_1" xmlns="http://www.w3.org/2000/svg" viewBox="0 0 500 500"><path fill="#ec1b2e" d="M488.7 409c.1-1.6.2-2.7.2-3.8 0-102.5 0-204.9.1-307.4 0-3.2-1.1-4-4.2-4-15.2.1-30.3.1-45.5.1-36.3 0-72.6 0-108.9-.1-3 0-4.7.6-5.8 3.8-4.1 12.2-8.7 24.2-13.2 36.2-18.7 50.5-37.3 101.1-56 151.5-.5 1.3-1.2 2.5-2.1 4.3l-1.6-3.6c-14.2-38.5-28.4-77.2-42.7-115.7-8.9-24.2-17.9-48.4-26.7-72.6-.9-2.5-1.9-3.9-5-3.8-30.7.1-61.4.1-92.1.1-.7 0-1.4.2-2.1.3 3.8 3.1 7.5 5.9 11 9 10.3 9.3 19.4 19.4 24.7 32.7 5.8 14.6 6.6 29.4 3.6 44.6-2.8 13.7-7.9 26.6-14.2 39-5.9 11.6-13.7 21.5-24 29.4-.5.4-1.3.6-2.8 1.3.6-2 .9-3.3 1.4-4.4 7.3-16.5 13.9-33.2 17.7-50.9 2.7-12.6 3.9-25.3 2.1-38-3.1-21.7-13-40.4-27.6-56.6-4-4.5-8.5-7-15.1-6.6-12.5.7-25.1.3-37.7.1-3.2-.1-4 .8-4 4 .1 35.6.1 71.2 0 106.8 0 3.1.9 5.7 2.7 8.1 14.4 19.7 28.8 39.4 43.3 59.1 1.6 2.3 3.3 4.4 5 6.6.2-.1.5-.2.7-.3-.5-59.5-1-119-1.6-178.6.3-.1.7-.1 1-.3 1 .9 1.9 1.8 2.9 2.7 5.6 4.9 8.4 10.3 7.9 18.5-1.1 19.1-.5 38.3-.8 57.4-.2 19.5-.5 39-.8 58.5-.1 15.6-.1 31.3-.1 46.9 0 1.1.1 2.2.3 3.8 1-1 1.5-1.5 1.9-2.1 16.1-20.7 32-41.6 48.2-62.2 2.4-3 3.5-5.9 2.5-9.7-.5-1.8-.3-3.9-.4-5.9.3-.1.8-.1 1.1-.1.2.3.5.7.6 1.1 7.2 19.4 14.4 38.9 21.6 58.3 17.1 46.2 34.2 92.5 51.2 138.8 1.1 2.9 2.5 3.6 5.4 3.6 28.6-.1 57-.1 85.6 0 3.1 0 4.4-1.2 5.3-3.8 9.2-25 18.5-50 27.7-75 14.9-40.4 29.8-80.8 44.7-121.1.3-.7.9-1.2 1.4-1.8.4 3.7.1 7.1-.3 10.5-1.8 15.1-4.2 30.3-5.3 45.5-1.2 15.5-1.6 31.2-1.7 46.8-.3 31.6 0 63.2-.1 94.8 0 3.3 1 4.2 4.2 4.1 37.2-.1 74.4-.1 111.6-.1 1.5.2 3 .2 4.8.2zm-350.5-36.1c.3-.1.5-.2.9-.3.3-46.1.8-92.3-5.5-138.3-1.6 1.3-2.7 2.7-3.8 4-14.8 18.4-29.5 36.8-44.4 55.2-2.1 2.6-2.3 4.2-.3 7 15.3 20.6 30.3 41.4 45.5 62 2.5 3.4 5 6.9 7.6 10.4zM77 408.8h62.2c0-7.1.2-13.8-.1-20.7-.1-2.2-.8-4.8-2.2-6.5-18.8-23.9-37.8-47.7-56.8-71.6-.4-.5-1-.9-2.1-1.7-.3 33.9-.6 66.9-1 100.5zM19 233.4c-.2.1-.5.3-.7.3v132.1c1.1-1.4 1.8-2.5 2.7-3.6 15.6-20.2 31.2-40.5 46.9-60.6 2.1-2.7 2-4.6-.1-7.2-11.5-14.3-22.9-28.7-34.3-43.1-4.8-5.9-9.6-11.9-14.5-17.9zm51.4 80.7c-.3-.1-.7-.2-1-.3-.3.3-.8.5-1 .8-16.4 20.3-32.7 40.7-49 61.1-.8 1-1.1 2.5-1.2 3.8-.1 8.9-.1 17.8 0 26.7 0 .9.2 1.7.3 2.5h55.2c-.3-1.6-.7-3-1-4.3-.7-3.2-1.8-6.4-1.8-9.7-.3-18.9-.3-37.9-.5-56.8v-23.8z"/><path fill="#ec1b2e" d="M488.7 409h-4.9c-37.2 0-74.4-.1-111.6.1-3.3 0-4.2-.8-4.2-4.1.1-31.6-.1-63.2.1-94.8.1-15.6.5-31.3 1.7-46.8 1.2-15.2 3.6-30.3 5.3-45.5.4-3.4.7-6.7.3-10.5-.5.6-1.1 1.2-1.4 1.8-14.9 40.4-29.8 80.8-44.7 121.1-9.2 25-18.5 50-27.7 75-1 2.7-2.2 3.8-5.3 3.8-28.6-.1-57-.1-85.6 0-2.9 0-4.3-.6-5.4-3.6-17-46.3-34.1-92.5-51.2-138.8-7.2-19.4-14.4-38.9-21.6-58.3-.1-.4-.4-.8-.6-1.1-.3.1-.8.1-1.1.1.1 2-.1 4 .4 5.9 1 3.8-.1 6.6-2.5 9.7-16.2 20.7-32.2 41.4-48.2 62.2-.5.5-1 1.1-1.9 2.1-.1-1.7-.3-2.7-.3-3.8 0-15.6 0-31.3.1-46.9.2-19.5.5-39 .8-58.5.2-19.2-.3-38.3.8-57.4.5-8.2-2.3-13.6-7.9-18.5-1-.9-1.9-1.8-2.9-2.7-.3.1-.7.1-1 .3.5 59.5 1 119 1.6 178.6-.2.1-.5.2-.7.3-1.6-2.2-3.4-4.4-5-6.6-14.4-19.7-28.8-39.4-43.3-59.1-1.8-2.5-2.7-5-2.7-8.1.1-35.6.1-71.2 0-106.8 0-3.1.8-4 4-4 12.5.2 25.1.5 37.7-.1 6.6-.3 11.2 2.2 15.1 6.6 14.6 16.2 24.4 34.9 27.6 56.6 1.8 12.7.6 25.5-2.1 38-3.8 17.7-10.4 34.4-17.7 50.9-.5 1.2-.8 2.4-1.4 4.4 1.5-.7 2.3-.9 2.8-1.3 10.3-7.9 18.1-17.8 24-29.4 6.4-12.5 11.5-25.3 14.2-39 3.1-15.2 2.3-30.1-3.6-44.6-5.3-13.2-14.4-23.4-24.7-32.7-3.4-3.1-7.2-5.9-11-9 .7-.1 1.4-.3 2.1-.3 30.7 0 61.4.1 92.1-.1 3.1 0 4.1 1.4 5 3.8 8.9 24.2 17.8 48.5 26.8 72.8 14.2 38.5 28.4 77.2 42.7 115.7.3 1 .8 1.8 1.6 3.6.9-1.8 1.6-3.1 2.1-4.3 18.7-50.5 37.4-101 56-151.5 4.5-12.1 9-24.1 13.3-36.2 1.1-3.2 2.7-3.8 5.8-3.8 36.3.1 72.6.1 108.9.1 15.2 0 30.3.1 45.5-.1 3.1 0 4.2.8 4.2 4-.1 102.5-.1 204.9-.1 307.4-.1.7-.1 1.8-.3 3.4z"/><path fill="#ec1b2e" d="M138.2 372.9c-2.5-3.5-5.1-6.9-7.7-10.4-15.1-20.7-30.3-41.4-45.5-62-2.1-2.7-1.8-4.4.3-7 14.9-18.3 29.6-36.8 44.4-55.2 1.1-1.4 2.3-2.7 3.8-4 6.4 46 5.9 92.2 5.5 138.3-.2 0-.5.1-.8.3zM77 408.8c.3-33.5.7-66.6 1.1-100.4 1 .8 1.6 1.2 2.1 1.7 19 23.8 37.9 47.6 56.8 71.6 1.4 1.7 2.1 4.3 2.2 6.5.3 6.8.1 13.6.1 20.7-20.9-.1-41.3-.1-62.3-.1zM19 233.4c4.8 6 9.7 12 14.4 18.1 11.4 14.4 22.8 28.8 34.3 43.1 2.1 2.6 2.2 4.5.1 7.2-15.7 20.1-31.3 40.4-46.9 60.6-.8 1-1.6 2.1-2.7 3.6V233.9c.3-.2.6-.4.8-.5zM70.4 314.1c0 7.9-.1 16 0 23.9.1 18.9.1 37.9.5 56.8.1 3.2 1.2 6.4 1.8 9.7.3 1.3.5 2.6 1 4.3H18.5c-.1-.8-.3-1.6-.3-2.5 0-8.9-.1-17.8 0-26.7 0-1.3.3-2.8 1.2-3.8 16.3-20.4 32.7-40.8 49-61.1.3-.3.7-.5 1-.8.4 0 .7.1 1 .2z"/></svg>
