<svg xmlns="http://www.w3.org/2000/svg" viewBox="0 0 100 100"><path fill="#348" d="M15 42.7c-4.7 7.5-7.7 14.7-8.3 19 4.7-5 9-9.5 13-13.5 4.3 4.5 9 9 14 13.8 23.8 21 47.8 32.8 53.6 26 4.2-4.7-2.4-17.7-15.4-32.7C82.7 68 87.6 79 83.8 83.3c-5.5 6.4-27.4-4-49-23-5-4.5-9.6-9-13.5-13.5 15.7-15 26.5-21 31.8-18 2.8 1.6 4 5.4 4 11.7 5.5-7.2 7-15 3.8-19.2s-9.6-5-12.2-4.8C35.6 17.5 24 29 16 40.8 6.6 28.8 2 18.4 5.8 14.3c3.3-4 12.8-1.4 24.7 5.4-14-8.7-25.4-12-29-8-4 4.7 1.7 17 13.5 31z"/><path fill="#45A" d="M26.7 70.8S38.2 41 58 39c12-1 4.4 16.6 4.4 16.6S65 30.8 26.7 70.8z"/><path fill="#0AD" d="M61 58.2s-7.6 26.2 39-1.8c0 0-17 21.6-40.5 19.7C47 74 61 58.3 61 58.3z"/></svg>
