<svg id="Layer_1" xmlns="http://www.w3.org/2000/svg" viewBox="0 0 500 500"><path d="M112.8 433.9c-.4-1.3.3-2.4.6-3.6 14.5-44.9 29.1-89.7 43.7-134.5 1.1-3.4.4-5.2-2.4-7.2-38.4-27.7-76.7-55.7-115.1-83.5-.9-.6-1.7-1.3-2.8-2.2 1.6-1.1 3.1-.7 4.5-.7 47.2 0 94.4-.1 141.5.1 3.6 0 5-1.2 6.1-4.5 13.4-41.4 26.8-82.8 40.2-124.1v-8.9H2v397.6h227.2V350.1c-37.6 27.5-75.5 54.9-113.2 82.3-1 .7-1.8 1.8-3.2 1.5z" fill="#19458e"/><path fill="#a71d1b" d="M370 39.5c-76.9 0-128.1 25.6-128.1 25.6v16.2c12.7 39 25.3 77.9 37.9 116.9 1 2.9 2.1 4 5.4 4 47.3-.1 94.6-.1 141.8-.1 1.4 0 2.9-.4 4.2.5-.4 1.5-1.8 2.1-2.8 2.8-37.7 27.4-75.4 54.8-113.1 82.3-6.2 4.5-5.4 2.9-3.2 9.9 14.4 44.2 28.7 88.4 43.1 132.6 0 .1.1.2.1.4.1 1.2 1.4 2.5.2 3.3-1 .6-2-.8-2.9-1.4-36.9-26.9-73.9-53.6-110.8-80.6v110.5c76.9-25.6 128.1-25.6 128.1-25.6s51.3 0 128.1 25.6V65.1c.1 0-51.1-25.6-128-25.6z"/><path fill="#a71d1b" d="M267 222.6h-25.2v-25.3h-18.9v25.3h-25.3v18.9h25.3v56.8h18.9v-56.8H267z"/></svg>
