<svg data-name="Layer 1" xmlns="http://www.w3.org/2000/svg" viewBox="0 0 180 180"><path d="M5.3 180H3.9l-1.1-.9-1-.9-.9-1.5-.4-1.6-.5-1.5v-1.8l.5-1.5L58.1 4l.9-1.6.9-1.2 1.4-.9 1.6-.3h1.4l1.4 1.2 1.1 1.2.7 1.6 22.2 63.8.2 1.2v3.1l-.2 1.2-35.5 102.4-1 1.9-1.1 1.2-1.2.9-1.6.3Z" fill-rule="evenodd" fill="#059370"/><path d="m130.7 179.7-1.6-.3-1.2-.9-1.1-1.2-.7-1.9L90.3 73.3l-.2-1.2V69l.2-1.2L112.5 4l.9-1.6.9-1.2 1.4-.9 1.6-.3h1.4l1.4.9.9 1.2.9 1.9 57.6 166.3.5 1.8v1.5l-.2 1.8-.7 1.3-.9 1.5-1 .9-1.1.6-1.4.3h-44Z" fill="#1f3a6e" fill-rule="evenodd"/></svg>
