<svg xmlns="http://www.w3.org/2000/svg" viewBox="0 0 500 500"><linearGradient id="a" gradientUnits="userSpaceOnUse" x1="54.821" y1="56.568" x2="50.665" y2="171.899"><stop offset="0" stop-color="#427e54"/><stop offset="1" stop-color="#05460b"/></linearGradient><path d="M70.47 161.35c-5.01-7.69-10.04-15.29-15.08-22.81a985.005 985.005 0 0 0-15.72-22.7c-.78-1.13-1.53-2.29-2.28-3.49-.74-1.2-1.41-2.33-2.01-3.39-.6-1.06-1.11-2.01-1.53-2.86-.42-.85-.71-1.45-.85-1.8.07.85.16 1.89.26 3.12.11 1.24.19 2.58.26 4.02.07 1.45.12 2.95.16 4.5.03 1.55.05 3.03.05 4.45v40.96H22V87.48h12.28l30.8 45.62c1.2 1.76 2.31 3.53 3.33 5.29 1.02 1.76 2.1 3.67 3.23 5.72-.14-1.69-.25-3.18-.32-4.45s-.12-2.45-.16-3.55c-.04-1.09-.05-2.17-.05-3.23v-45.4h11.64v73.87H70.47z" fill="url(#a)"/><linearGradient id="b" gradientUnits="userSpaceOnUse" x1="99.707" y1="58.185" x2="95.551" y2="173.516"><stop offset="0" stop-color="#427e54"/><stop offset="1" stop-color="#05460b"/></linearGradient><path d="M104.45 100.81c0 1.69-.63 3.14-1.9 4.34-1.27 1.2-2.79 1.8-4.55 1.8-1.84 0-3.41-.6-4.71-1.8-1.31-1.2-1.96-2.68-1.96-4.45-.07-1.83.53-3.39 1.8-4.66s2.82-1.91 4.66-1.91c1.76 0 3.32.65 4.66 1.96 1.33 1.32 2 2.89 2 4.72zm-12.39 60.54v-46.57h10.8v46.57h-10.8z" fill="url(#b)"/><linearGradient id="c" gradientUnits="userSpaceOnUse" x1="133.637" y1="59.408" x2="129.48" y2="174.739"><stop offset="0" stop-color="#427e54"/><stop offset="1" stop-color="#05460b"/></linearGradient><path d="M151.65 164.42c0 4.94-.51 9.21-1.53 12.81-1.02 3.6-2.49 6.56-4.39 8.89-1.9 2.33-4.22 4.06-6.93 5.19-2.72 1.13-5.73 1.69-9.05 1.69-2.96 0-5.82-.3-8.57-.9-2.75-.6-5.47-1.68-8.15-3.23l.85-8.36c5.15 2.61 9.81 3.92 13.97 3.92 4.45 0 7.78-1.73 10-5.19 2.22-3.46 3.33-8.5 3.33-15.13v-7.51c-1.91 2.05-3.95 3.53-6.14 4.45-2.19.92-4.62 1.38-7.3 1.38-2.82 0-5.4-.51-7.73-1.54-2.33-1.02-4.3-2.49-5.93-4.39-1.62-1.9-2.89-4.18-3.81-6.83-.92-2.65-1.38-5.63-1.38-8.94 0-8.54 2.52-15.17 7.57-19.9 5.04-4.73 12.15-7.09 21.33-7.09 1.41 0 2.65.02 3.7.05 1.06.04 2.1.12 3.12.26s2.08.34 3.18.58c1.09.25 2.38.58 3.86 1.01v48.78zm-10.48-40.11c-1.2-.21-2.15-.35-2.86-.42s-1.59-.11-2.65-.11c-4.87 0-8.66 1.45-11.38 4.34-2.72 2.89-4.07 6.99-4.07 12.28 0 3.81.83 6.7 2.49 8.68 1.66 1.98 3.9 2.96 6.72 2.96 1.69 0 3.26-.3 4.71-.9 1.44-.6 2.68-1.62 3.7-3.07 1.02-1.44 1.83-3.33 2.43-5.66.6-2.33.9-5.22.9-8.68v-9.42z" fill="url(#c)"/><linearGradient id="d" gradientUnits="userSpaceOnUse" x1="179.552" y1="61.063" x2="175.396" y2="176.393"><stop offset="0" stop-color="#427e54"/><stop offset="1" stop-color="#05460b"/></linearGradient><path d="M196.63 127.27c0 4.87-2.17 8.73-6.51 11.59-4.34 2.86-10.25 4.29-17.73 4.29-.64 0-1.22-.02-1.75-.05-.53-.04-1.29-.09-2.28-.16.35 3.6 1.48 6.35 3.39 8.25 1.9 1.9 4.45 2.86 7.62 2.86 4.37 0 8.96-1.55 13.76-4.66v9.21c-2.4 1.48-4.75 2.54-7.04 3.18-2.29.64-4.82.95-7.57.95-6.63 0-11.84-2.03-15.61-6.09-3.78-4.06-5.66-9.61-5.66-16.67 0-3.88.56-7.44 1.69-10.69 1.13-3.25 2.72-6.03 4.76-8.36 2.05-2.33 4.5-4.13 7.36-5.4 2.86-1.27 5.98-1.91 9.37-1.91 5.08 0 9.05 1.22 11.91 3.65 2.86 2.45 4.29 5.78 4.29 10.01zm-10.8.43c0-1.48-.57-2.75-1.69-3.81-1.13-1.06-2.54-1.59-4.23-1.59-1.41 0-2.75.34-4.02 1.01-1.27.67-2.4 1.59-3.39 2.75-.99 1.16-1.84 2.52-2.54 4.07-.71 1.55-1.16 3.21-1.38 4.97.92.14 1.64.23 2.17.26.53.04 1.18.05 1.96.05 4.02 0 7.21-.69 9.58-2.06 2.36-1.37 3.54-3.25 3.54-5.65z" fill="url(#d)"/><linearGradient id="e" gradientUnits="userSpaceOnUse" x1="216.204" y1="62.384" x2="212.048" y2="177.714"><stop offset="0" stop-color="#427e54"/><stop offset="1" stop-color="#05460b"/></linearGradient><path d="M228.91 124.21c-.99-.21-1.76-.35-2.33-.42-.57-.07-1.2-.11-1.9-.11-4.09 0-7.3 1.68-9.63 5.03-2.33 3.35-3.49 8.13-3.49 14.34v18.31h-10.37v-31.22c0-1.69-.04-3.19-.11-4.5-.07-1.3-.18-2.54-.32-3.7-.14-1.16-.32-2.29-.53-3.39-.21-1.09-.49-2.34-.85-3.76h10.05c.21.85.39 1.59.53 2.22.14.64.26 1.27.37 1.9.11.64.19 1.32.26 2.06s.11 1.68.11 2.8c1.83-3.6 3.74-6.15 5.72-7.67 1.97-1.52 4.45-2.28 7.41-2.28 1.06 0 1.92.09 2.59.26.67.18 1.57.51 2.7 1.01l-.21 9.12z" fill="url(#e)"/><linearGradient id="f" gradientUnits="userSpaceOnUse" x1="238.805" y1="63.198" x2="234.649" y2="178.529"><stop offset="0" stop-color="#427e54"/><stop offset="1" stop-color="#05460b"/></linearGradient><path d="M243.73 100.81c0 1.69-.63 3.14-1.9 4.34-1.27 1.2-2.79 1.8-4.55 1.8-1.84 0-3.41-.6-4.71-1.8-1.31-1.2-1.96-2.68-1.96-4.45-.07-1.83.53-3.39 1.8-4.66s2.82-1.91 4.66-1.91c1.76 0 3.32.65 4.66 1.96 1.33 1.32 2 2.89 2 4.72zm-12.39 60.54v-46.57h10.8v46.57h-10.8z" fill="url(#f)"/><linearGradient id="g" gradientUnits="userSpaceOnUse" x1="272.916" y1="64.391" x2="268.76" y2="179.722"><stop offset="0" stop-color="#427e54"/><stop offset="1" stop-color="#05460b"/></linearGradient><path d="M281.93 161.35l-.32-2.75c-.07-.78-.14-1.53-.21-2.28-.07-.74-.11-1.32-.11-1.75-1.76 2.61-4.04 4.59-6.83 5.93-2.79 1.34-5.66 2.01-8.63 2.01-5.36 0-9.65-1.89-12.86-5.66-3.21-3.77-4.82-9.3-4.82-16.56 0-8.32 2.4-14.83 7.2-19.53 4.8-4.69 11.46-7.04 20-7.04 1.41 0 2.72.04 3.92.11 1.2.07 2.4.18 3.6.32 1.2.14 2.43.37 3.7.69 1.27.32 2.65.72 4.13 1.22v31.96c0 1.62.02 3.21.05 4.76.03 1.55.12 2.96.26 4.23l.42 4.34h-9.5zm-1.58-36.93c-1.41-.35-2.65-.6-3.7-.74-1.06-.14-2.15-.21-3.28-.21-4.45 0-7.9 1.52-10.37 4.55-2.47 3.03-3.7 7.3-3.7 12.81 0 7.69 2.89 11.54 8.68 11.54 1.69 0 3.3-.39 4.82-1.16 1.52-.78 2.84-1.87 3.97-3.28 1.13-1.41 2.01-3.14 2.65-5.19.64-2.05.95-4.3.95-6.77v-11.55z" fill="url(#g)"/><linearGradient id="h" gradientUnits="userSpaceOnUse" x1="339.652" y1="73.61" x2="335.854" y2="179.026"><stop offset="0" stop-color="#427e54"/><stop offset="1" stop-color="#05460b"/></linearGradient><path d="M362.37 141.29c0 6.45-2.45 11.22-7.35 14.32-4.9 3.1-12.13 4.64-21.67 4.64-.9 0-2.18-.03-3.82-.1-1.64-.06-3.4-.16-5.27-.29-1.87-.13-3.74-.27-5.61-.43-1.87-.16-3.48-.34-4.84-.53V92.24c.77-.06 1.8-.13 3.1-.19 1.29-.06 2.74-.11 4.35-.14 1.61-.03 3.29-.06 5.03-.1 1.74-.03 3.48-.05 5.22-.05 3.93 0 7.5.32 10.69.97 3.19.65 5.9 1.64 8.13 3 2.22 1.35 3.95 3.08 5.18 5.18 1.22 2.1 1.84 4.6 1.84 7.5 0 3.48-.84 6.53-2.52 9.14-1.68 2.61-4.45 4.63-8.32 6.05 2.32.39 4.45 1.08 6.39 2.08 1.93 1 3.59 2.26 4.98 3.77 1.39 1.52 2.48 3.27 3.29 5.27.8 1.99 1.2 4.18 1.2 6.57zm-16.64-31.35c0-1.87-.42-3.42-1.26-4.64-.84-1.22-1.98-2.21-3.43-2.95-1.45-.74-3.18-1.26-5.18-1.55-2-.29-4.13-.43-6.38-.43-.26 0-.69.03-1.31.1-.61.06-1.66.1-3.14.1v19.35c.39.06.89.1 1.5.1h3.63c5.67 0 9.69-.85 12.04-2.56 2.35-1.73 3.53-4.23 3.53-7.52zm4.36 30.77c0-3.68-1.4-6.56-4.21-8.66-2.81-2.1-7.24-3.14-13.3-3.14-.71 0-1.45.02-2.23.05-.77.03-1.52.05-2.22.05-.71 0-1.35.02-1.93.05-.58.03-.97.05-1.16.05v21.48c1.55.19 2.93.34 4.16.43 1.22.1 2.68.14 4.35.14 5.09 0 9.13-.82 12.09-2.47 2.96-1.65 4.45-4.31 4.45-7.98z" fill="url(#h)"/><linearGradient id="i" gradientUnits="userSpaceOnUse" x1="373.847" y1="74.842" x2="370.048" y2="180.258"><stop offset="0" stop-color="#427e54"/><stop offset="1" stop-color="#05460b"/></linearGradient><path d="M378.53 104.24c0 1.55-.58 2.87-1.74 3.97-1.16 1.1-2.55 1.64-4.16 1.64-1.68 0-3.11-.55-4.31-1.64-1.19-1.1-1.79-2.45-1.79-4.06-.06-1.68.48-3.1 1.64-4.26 1.16-1.16 2.58-1.74 4.26-1.74 1.61 0 3.03.6 4.26 1.79 1.22 1.19 1.84 2.62 1.84 4.3zm-11.32 55.33V117h9.87v42.57h-9.87z" fill="url(#i)"/><linearGradient id="j" gradientUnits="userSpaceOnUse" x1="405.437" y1="75.981" x2="401.638" y2="181.397"><stop offset="0" stop-color="#427e54"/><stop offset="1" stop-color="#05460b"/></linearGradient><path d="M423.8 135.39c0 3.87-.52 7.35-1.55 10.45-1.03 3.1-2.5 5.74-4.4 7.93-1.9 2.19-4.19 3.89-6.87 5.08-2.68 1.19-5.69 1.79-9.05 1.79-2.9 0-5.93-.35-9.09-1.06-3.16-.71-6-1.68-8.51-2.9V92.05h9.38v29.89c1.68-2.06 3.64-3.59 5.9-4.6 2.26-1 4.74-1.5 7.45-1.5 5.22 0 9.32 1.74 12.29 5.22 2.96 3.49 4.45 8.27 4.45 14.33zm-10.26 1.45c0-3.68-.77-6.51-2.32-8.51-1.55-2-3.61-3-6.19-3-3.23 0-5.9 1.35-8.03 4.06-2.13 2.71-3.19 6.87-3.19 12.48V150c1.35.77 2.55 1.29 3.58 1.55 1.03.26 2.32.39 3.87.39 3.87 0 6.88-1.31 9.05-3.92 2.15-2.62 3.23-6.35 3.23-11.18z" fill="url(#j)"/><linearGradient id="k" gradientUnits="userSpaceOnUse" x1="435.664" y1="77.07" x2="431.865" y2="182.486"><stop offset="0" stop-color="#427e54"/><stop offset="1" stop-color="#05460b"/></linearGradient><path d="M428.93 159.57V92.05h9.96v67.52h-9.96z" fill="url(#k)"/><linearGradient id="l" gradientUnits="userSpaceOnUse" x1="464.605" y1="78.113" x2="460.807" y2="183.529"><stop offset="0" stop-color="#427e54"/><stop offset="1" stop-color="#05460b"/></linearGradient><path d="M480.58 128.42c0 4.45-1.98 7.98-5.95 10.59-3.97 2.61-9.37 3.92-16.2 3.92-.58 0-1.11-.02-1.6-.05-.48-.03-1.18-.08-2.08-.14.32 3.29 1.35 5.8 3.1 7.55s4.06 2.61 6.97 2.61c4 0 8.19-1.42 12.58-4.26v8.42c-2.19 1.35-4.34 2.32-6.43 2.9-2.1.58-4.4.87-6.92.87-6.06 0-10.82-1.85-14.27-5.56-3.45-3.71-5.17-8.79-5.17-15.24 0-3.55.51-6.8 1.55-9.77 1.03-2.97 2.48-5.51 4.35-7.64a19.21 19.21 0 0 1 6.72-4.93c2.61-1.16 5.47-1.74 8.56-1.74 4.64 0 8.27 1.11 10.88 3.34 2.61 2.21 3.91 5.26 3.91 9.13zm-9.86.39c0-1.35-.52-2.52-1.55-3.48-1.03-.97-2.32-1.45-3.87-1.45-1.29 0-2.52.31-3.68.92-1.16.61-2.19 1.45-3.1 2.51-.9 1.06-1.68 2.31-2.32 3.72-.65 1.42-1.06 2.94-1.26 4.55.84.13 1.5.21 1.98.24s1.08.05 1.79.05c3.68 0 6.59-.63 8.76-1.89 2.17-1.25 3.25-2.98 3.25-5.17z" fill="url(#l)"/><linearGradient id="m" gradientUnits="userSpaceOnUse" x1="49.987" y1="173.089" x2="45.389" y2="300.712"><stop offset="0" stop-color="#427e54"/><stop offset="1" stop-color="#05460b"/></linearGradient><path d="M56.19 198.17v70.86H42.96v-70.86H20v-10.89h58.56v10.89H56.19z" fill="url(#m)"/><linearGradient id="n" gradientUnits="userSpaceOnUse" x1="85.982" y1="174.386" x2="81.383" y2="302.01"><stop offset="0" stop-color="#427e54"/><stop offset="1" stop-color="#05460b"/></linearGradient><path d="M100.58 227.92c-1.09-.23-1.95-.39-2.58-.47-.63-.08-1.33-.12-2.11-.12-4.53 0-8.08 1.86-10.66 5.56-2.58 3.71-3.86 9-3.86 15.87v20.26H69.89v-34.55c0-1.87-.04-3.53-.12-4.98-.08-1.44-.2-2.81-.35-4.1-.16-1.29-.35-2.54-.59-3.75-.23-1.21-.55-2.59-.94-4.16h11.13c.23.94.43 1.76.59 2.46.16.7.29 1.41.41 2.11s.21 1.46.29 2.28c.08.82.12 1.86.12 3.1 2.03-3.98 4.14-6.81 6.32-8.49 2.19-1.68 4.92-2.52 8.2-2.52 1.17 0 2.13.1 2.87.29.74.2 1.74.57 2.99 1.11l-.23 10.1z" fill="url(#n)"/><linearGradient id="o" gradientUnits="userSpaceOnUse" x1="124.527" y1="175.775" x2="119.928" y2="303.399"><stop offset="0" stop-color="#427e54"/><stop offset="1" stop-color="#05460b"/></linearGradient><path d="M135.01 269.03l-.35-3.05c-.08-.86-.16-1.7-.23-2.52-.08-.82-.12-1.46-.12-1.93-1.95 2.89-4.47 5.08-7.55 6.56-3.08 1.48-6.27 2.23-9.54 2.23-5.93 0-10.68-2.09-14.23-6.27-3.55-4.18-5.33-10.29-5.33-18.33 0-9.21 2.65-16.42 7.96-21.61 5.31-5.19 12.69-7.79 22.14-7.79 1.56 0 3 .04 4.33.12 1.33.08 2.65.2 3.98.35 1.33.16 2.69.41 4.1.76 1.41.35 2.93.8 4.57 1.35v35.37c0 1.8.02 3.55.06 5.27.04 1.72.14 3.28.29 4.68l.47 4.8h-10.55zm-1.76-40.88c-1.56-.39-2.93-.66-4.1-.82-1.17-.16-2.38-.23-3.63-.23-4.92 0-8.75 1.68-11.48 5.04-2.73 3.36-4.1 8.08-4.1 14.17 0 8.51 3.2 12.77 9.6 12.77 1.87 0 3.65-.43 5.33-1.29 1.68-.86 3.14-2.07 4.39-3.63 1.25-1.56 2.22-3.47 2.93-5.74.7-2.26 1.05-4.76 1.05-7.5v-12.77z" fill="url(#o)"/><linearGradient id="p" gradientUnits="userSpaceOnUse" x1="177.605" y1="177.687" x2="173.006" y2="305.311"><stop offset="0" stop-color="#427e54"/><stop offset="1" stop-color="#05460b"/></linearGradient><path d="M186.78 269.03v-31.62c0-1.95-.24-3.61-.7-4.98-.47-1.37-1.08-2.44-1.82-3.22-.74-.78-1.58-1.35-2.52-1.7-.94-.35-1.91-.53-2.93-.53-1.41 0-2.87.35-4.39 1.05-1.52.7-2.93 1.86-4.22 3.46-1.29 1.6-2.36 3.67-3.22 6.21-.86 2.54-1.29 5.6-1.29 9.19v22.14h-11.95v-35.02c0-2.97-.25-5.97-.76-9.02s-1.07-5.54-1.7-7.5h11.83c.23.63.43 1.15.59 1.58.16.43.29.9.41 1.41.12.51.23 1.07.35 1.7.12.63.25 1.45.41 2.46 2.5-2.97 5.13-5.13 7.91-6.5 2.77-1.36 5.8-2.05 9.08-2.05 5 0 9.13 1.72 12.41 5.15 3.28 3.44 4.92 8.32 4.92 14.64v33.14h-12.41z" fill="url(#p)"/><linearGradient id="q" gradientUnits="userSpaceOnUse" x1="225.669" y1="179.419" x2="221.07" y2="307.043"><stop offset="0" stop-color="#427e54"/><stop offset="1" stop-color="#05460b"/></linearGradient><path d="M241.35 255.56c0 4.68-1.58 8.37-4.74 11.07-3.16 2.69-7.59 4.04-13.29 4.04-3.75 0-7.26-.39-10.54-1.17-3.28-.78-6.17-1.95-8.67-3.51l1.87-9.6c2.81 1.8 5.6 3.12 8.37 3.98 2.77.86 5.37 1.29 7.79 1.29 2.34 0 4.08-.49 5.21-1.46 1.13-.98 1.7-2.28 1.7-3.92 0-1.41-.45-2.65-1.35-3.75-.9-1.09-2.6-2.3-5.09-3.63-3.05-1.64-5.62-3.18-7.73-4.63-2.11-1.44-3.83-2.89-5.15-4.33-1.33-1.44-2.28-2.95-2.87-4.51-.58-1.56-.88-3.32-.88-5.27 0-4.45 1.66-7.96 4.98-10.54 3.32-2.58 7.79-3.86 13.41-3.86 2.97 0 5.72.27 8.26.82 2.54.55 5.25 1.6 8.14 3.16l-1.52 9.72c-2.58-1.56-5.13-2.67-7.67-3.34-2.54-.66-4.94-1-7.2-1-1.87 0-3.34.39-4.39 1.17-1.05.78-1.58 2.03-1.58 3.75 0 1.56.72 2.91 2.17 4.04 1.44 1.13 3.81 2.64 7.08 4.51 2.5 1.41 4.61 2.73 6.32 3.98 1.72 1.25 3.12 2.52 4.22 3.81 1.09 1.29 1.89 2.68 2.4 4.16.5 1.47.75 3.14.75 5.02z" fill="url(#q)"/><linearGradient id="r" gradientUnits="userSpaceOnUse" x1="254.958" y1="180.475" x2="250.359" y2="308.099"><stop offset="0" stop-color="#427e54"/><stop offset="1" stop-color="#05460b"/></linearGradient><path d="M247.21 269.03v-81.75h12.06v81.75h-12.06z" fill="url(#r)"/><linearGradient id="s" gradientUnits="userSpaceOnUse" x1="292.838" y1="181.84" x2="288.239" y2="309.464"><stop offset="0" stop-color="#427e54"/><stop offset="1" stop-color="#05460b"/></linearGradient><path d="M303.54 269.03l-.35-3.05c-.08-.86-.16-1.7-.24-2.52-.08-.82-.12-1.46-.12-1.93-1.95 2.89-4.47 5.08-7.56 6.56-3.08 1.48-6.27 2.23-9.55 2.23-5.93 0-10.68-2.09-14.23-6.27-3.55-4.18-5.33-10.29-5.33-18.33 0-9.21 2.65-16.42 7.96-21.61 5.31-5.19 12.69-7.79 22.14-7.79 1.56 0 3 .04 4.33.12 1.33.08 2.65.2 3.98.35 1.33.16 2.69.41 4.1.76 1.41.35 2.93.8 4.57 1.35v35.37c0 1.8.02 3.55.06 5.27.04 1.72.14 3.28.29 4.68l.47 4.8h-10.52zm-1.76-40.88c-1.56-.39-2.93-.66-4.1-.82-1.17-.16-2.38-.23-3.63-.23-4.92 0-8.74 1.68-11.48 5.04-2.73 3.36-4.1 8.08-4.1 14.17 0 8.51 3.2 12.77 9.6 12.77 1.87 0 3.65-.43 5.33-1.29 1.68-.86 3.14-2.07 4.39-3.63 1.25-1.56 2.23-3.47 2.93-5.74.7-2.26 1.05-4.76 1.05-7.5v-12.77z" fill="url(#s)"/><linearGradient id="t" gradientUnits="userSpaceOnUse" x1="335.44" y1="183.375" x2="330.841" y2="310.999"><stop offset="0" stop-color="#427e54"/><stop offset="1" stop-color="#05460b"/></linearGradient><path d="M327.43 269.03v-42.51h-11.24v-9.02h11.24v-12.06h11.59v12.06h12.88v8.9h-12.88v42.63h-11.59z" fill="url(#t)"/><linearGradient id="u" gradientUnits="userSpaceOnUse" x1="362.466" y1="184.349" x2="357.867" y2="311.973"><stop offset="0" stop-color="#427e54"/><stop offset="1" stop-color="#05460b"/></linearGradient><path d="M368.78 202.03c0 1.87-.7 3.47-2.11 4.8-1.41 1.33-3.09 1.99-5.04 1.99-2.03 0-3.77-.66-5.21-1.99-1.45-1.33-2.17-2.97-2.17-4.92-.08-2.03.59-3.75 1.99-5.15 1.41-1.41 3.12-2.11 5.15-2.11 1.95 0 3.67.72 5.15 2.17 1.49 1.45 2.24 3.19 2.24 5.21zm-13.71 67V217.5h11.95v51.53h-11.95z" fill="url(#u)"/><linearGradient id="v" gradientUnits="userSpaceOnUse" x1="400.591" y1="185.723" x2="395.992" y2="313.347"><stop offset="0" stop-color="#427e54"/><stop offset="1" stop-color="#05460b"/></linearGradient><path d="M423.59 242.79c0 8.9-2.25 15.77-6.73 20.61-4.49 4.84-10.6 7.26-18.33 7.26-7.73 0-13.84-2.34-18.33-7.03-4.49-4.68-6.74-11.4-6.74-20.14s2.24-15.52 6.74-20.32c4.49-4.8 10.64-7.2 18.45-7.2 7.73 0 13.82 2.3 18.27 6.91 4.44 4.61 6.67 11.25 6.67 19.91zm-12.07-.11c0-5.15-1.15-9.13-3.46-11.95-2.3-2.81-5.45-4.22-9.43-4.22-4.22 0-7.4 1.5-9.55 4.51-2.15 3.01-3.22 7.24-3.22 12.71 0 5.23 1.07 9.25 3.22 12.06 2.15 2.81 5.25 4.22 9.31 4.22 4.22 0 7.46-1.52 9.72-4.57 2.28-3.04 3.41-7.3 3.41-12.76z" fill="url(#v)"/><linearGradient id="w" gradientUnits="userSpaceOnUse" x1="453.054" y1="187.613" x2="448.455" y2="315.237"><stop offset="0" stop-color="#427e54"/><stop offset="1" stop-color="#05460b"/></linearGradient><path d="M462.59 269.03v-31.62c0-1.95-.24-3.61-.7-4.98-.47-1.37-1.08-2.44-1.82-3.22-.74-.78-1.58-1.35-2.52-1.7-.94-.35-1.91-.53-2.93-.53-1.4 0-2.87.35-4.39 1.05-1.52.7-2.93 1.86-4.22 3.46-1.29 1.6-2.36 3.67-3.22 6.21-.86 2.54-1.29 5.6-1.29 9.19v22.14h-11.95v-35.02c0-2.97-.26-5.97-.76-9.02-.51-3.05-1.07-5.54-1.7-7.5h11.83c.23.63.43 1.15.58 1.58.16.43.29.9.41 1.41.12.51.23 1.07.35 1.7.12.63.25 1.45.41 2.46 2.5-2.97 5.13-5.13 7.9-6.5 2.77-1.36 5.8-2.05 9.08-2.05 5 0 9.14 1.72 12.41 5.15 3.28 3.44 4.92 8.32 4.92 14.64v33.14h-12.39z" fill="url(#w)"/><linearGradient id="x" gradientUnits="userSpaceOnUse" x1="151.232" y1="308.802" x2="144.842" y2="486.107"><stop offset="0" stop-color="#427e54"/><stop offset="1" stop-color="#05460b"/></linearGradient><path d="M160.72 319.41v98.44h-18.39v-98.44h-31.89v-15.13h81.36v15.13h-31.08z" fill="url(#x)"/><linearGradient id="y" gradientUnits="userSpaceOnUse" x1="201.238" y1="310.604" x2="194.848" y2="487.909"><stop offset="0" stop-color="#427e54"/><stop offset="1" stop-color="#05460b"/></linearGradient><path d="M222.39 360.74c-1.52-.33-2.71-.54-3.58-.65-.87-.11-1.84-.16-2.93-.16-6.29 0-11.23 2.58-14.81 7.73s-5.37 12.5-5.37 22.05v28.15h-15.95v-48c0-2.6-.06-4.91-.16-6.91a84.02 84.02 0 0 0-.49-5.69c-.22-1.79-.49-3.52-.81-5.21-.32-1.68-.76-3.61-1.3-5.78h15.46c.33 1.3.6 2.44.81 3.42a48.527 48.527 0 0 1 .98 6.1c.11 1.14.16 2.58.16 4.31 2.82-5.53 5.75-9.46 8.79-11.8 3.03-2.33 6.83-3.5 11.39-3.5 1.63 0 2.96.14 3.99.41 1.03.27 2.41.79 4.15 1.55l-.33 13.98z" fill="url(#y)"/><linearGradient id="z" gradientUnits="userSpaceOnUse" x1="259.547" y1="312.705" x2="253.157" y2="490.01"><stop offset="0" stop-color="#427e54"/><stop offset="1" stop-color="#05460b"/></linearGradient><path d="M273.64 417.85c-.43-.87-.79-2.12-1.06-3.74-.27-1.63-.52-3.47-.73-5.53-6.4 7.48-13.99 11.23-22.78 11.23-7.05 0-12.83-2.44-17.33-7.32-4.5-4.88-6.7-11.98-6.59-21.32 0-4.45.05-8.51.16-12.2.11-3.69.19-7.27.24-10.74.06-3.47 0-6.97-.16-10.5-.16-3.52-.52-7.35-1.06-11.47h17.25c.43 3.91.7 7.57.81 10.98.11 3.42.13 6.78.08 10.09-.06 3.31-.14 6.67-.24 10.09-.11 3.42-.16 7.13-.16 11.15 0 3.25.3 5.97.89 8.14.6 2.17 1.38 3.88 2.36 5.13s2.17 2.12 3.58 2.6c1.41.49 2.93.73 4.56.73 1.63 0 3.44-.43 5.45-1.3 2.01-.87 3.88-2.28 5.61-4.23 1.73-1.95 3.2-4.5 4.39-7.65 1.19-3.14 1.79-7 1.79-11.55v-34.17h16.43v50.6c0 4.67.3 9.01.89 13.02.6 4.01 1.17 6.67 1.71 7.97h-16.09z" fill="url(#z)"/><linearGradient id="A" gradientUnits="userSpaceOnUse" x1="324.293" y1="315.038" x2="317.904" y2="492.343"><stop offset="0" stop-color="#427e54"/><stop offset="1" stop-color="#05460b"/></linearGradient><path d="M346.86 399.14c0 6.51-2.2 11.63-6.59 15.38-4.39 3.74-10.55 5.61-18.47 5.61-5.21 0-10.09-.54-14.64-1.63-4.56-1.08-8.57-2.71-12.04-4.88l2.6-13.34c3.91 2.5 7.78 4.34 11.63 5.53 3.85 1.2 7.46 1.79 10.82 1.79 3.26 0 5.67-.68 7.24-2.03 1.57-1.36 2.36-3.17 2.36-5.45 0-1.95-.62-3.69-1.87-5.21s-3.61-3.2-7.08-5.04c-4.23-2.28-7.81-4.42-10.74-6.43-2.93-2.01-5.32-4.01-7.16-6.02-1.85-2.01-3.17-4.09-3.99-6.26-.81-2.17-1.22-4.61-1.22-7.32 0-6.18 2.3-11.06 6.92-14.64 4.61-3.58 10.82-5.37 18.63-5.37 4.12 0 7.94.38 11.47 1.14 3.52.76 7.29 2.22 11.31 4.39l-2.12 13.51c-3.58-2.17-7.13-3.71-10.66-4.64-3.53-.92-6.86-1.38-10.01-1.38-2.6 0-4.64.54-6.1 1.63-1.47 1.08-2.2 2.82-2.2 5.21 0 2.17 1 4.04 3.01 5.61 2.01 1.57 5.29 3.66 9.84 6.26 3.47 1.95 6.4 3.8 8.79 5.53 2.39 1.74 4.34 3.5 5.86 5.29 1.52 1.79 2.63 3.72 3.33 5.78.73 2.04 1.08 4.38 1.08 6.98z" fill="url(#A)"/><linearGradient id="B" gradientUnits="userSpaceOnUse" x1="372.472" y1="316.774" x2="366.082" y2="494.079"><stop offset="0" stop-color="#427e54"/><stop offset="1" stop-color="#05460b"/></linearGradient><path d="M361.99 417.85v-59.07h-15.62v-12.53h15.62V329.5h16.11v16.76H396v12.37h-17.9v59.23h-16.11z" fill="url(#B)"/></svg>
