<svg xmlns="http://www.w3.org/2000/svg" viewBox="0 0 500 500"><path d="M371.3 122.5v110.2c0 11.7-4.2 21.6-12.6 29.5-24.6 23.1-77.8 23.2-91.3 22.8v-35.3c2.2.1 5.1.2 8.7.2 15.7 0 42.4-2.1 56.8-15.2 6.5-6 9.9-13.6 9.9-22.6v-131h-5.9V212c0 7.4-2.6 13.4-7.9 18.2-16 14.6-51 14-61.6 13.5v-28.6c33.7-1.8 34.1-30.1 34.1-30.4V40h-5.9v144.7c0 1-.3 22.9-28.1 24.5V2h-13.8v207.1c-27.4-1.7-27.9-23.5-28-24.5V40h-5.9v144.7c0 .3.4 28.5 33.9 30.4v28.7c-10.8.5-45.5 1-61.4-13.5-5.3-4.9-7.9-10.8-7.9-18.2v-131h-5.9V212c0 9 3.3 16.6 9.9 22.6 14.4 13.1 41.1 15.2 56.8 15.2 3.5 0 6.4-.1 8.5-.2V285c-13.8.4-66.6.2-91.1-22.8-8.4-7.9-12.6-17.8-12.6-29.5V122.5h-6v110.2c0 13.4 4.9 24.8 14.5 33.8 23.3 21.9 68.3 24.5 88.6 24.5 2.7 0 4.9 0 6.6-.1V484h-6.9v6.9h-6.9v6.9H281.3v-6.9h-6.9V484h-6.9V290.9c1.7.1 4 .1 6.8.1 20.3 0 65.3-2.6 88.6-24.5 9.6-9 14.5-20.4 14.5-33.8V122.5h-6.1z"/></svg>
