<svg id="Layer_1" xmlns="http://www.w3.org/2000/svg" viewBox="0 0 500 500"><path fill="#ef3e36" d="M245.5 324.2l1.7-1.7c2.7-2.9 5.3-5.8 8-8.5 4.9-4.8 9.8-9.4 14.6-14.1 1.7-1.6 1.6-1.6.1-3.2l-1.3-1.3c-2.1-2.1-2.1-2.1-4.4-.2-2.7 2.4-5.5 2.9-8.3 1.4-1.4-.7-2.5-1.7-3.6-2.8-8.7-8.5-17.2-17.1-25.9-25.5-2.7-2.6-6-4.1-9.7-4.8-7.8-1.6-14.2 1.3-19.8 6.4-5.5 5-8.5 11.5-9.5 18.8-.4 2.9-.5 5.8-.6 8.8-.2 0-.5 0-.8-.1-8.7-2.8-16 0-22.4 5.9-5.7 5.2-8.7 11.9-9.2 19.6-.1 1.9 0 3.8-.1 6.2l-8.3-8.3c-2.4 2.3-4.7 4.2-5.7 7.2-.5 1.5-1.5 3-2.3 4.5-2.4 4-4.8 8-7.4 12.1l3.5 3.5c.7.7 1.2.8 2.1.3 3.1-1.7 6.2-3.4 9.3-5.2.7-.5 1.2-.5 1.8.1 9.6 9.6 19.2 19.1 28.7 28.8 3.4 3.4 3.6 6.7 1 10.1-.5.7-1.2 1.5-1.9 2.1-.8.7-.9 1.2 0 2 1.1 1 2.2 2.1 3.3 3.3.6.7 1.2.7 1.8 0 1.4-1.6 2.9-3.1 4.3-4.7.8-.9 1.6-1.7 2.4-2.5 3.4-3.4 6.7-6.8 10.2-10.2 2.4-2.4 4.9-4.7 7.4-7 .3-.3.4-1.1.2-1.3-1.4-1.5-2.9-2.9-4.4-4.5-.9.8-1.7 1.6-2.5 2.3-3 2.4-5.8 2.6-9 .5-.8-.5-1.5-1.1-2.1-1.8l-24.9-24.9c-1.5-1.5-1.8-2.9-1.6-4.8.7-5.7 3.4-10.4 7.8-14.1 3.2-2.7 6.9-4.2 11.2-3.7 3.7.5 6.8 2.4 9.4 4.9 6.7 6.6 13.3 13.2 19.9 19.9.9.9 1.7 1.9 2.3 2.9 1.7 2.6 1.8 5.3-.1 7.9-.9 1.2-1.9 2.4-2.9 3.5l5 5c1-1.2 1.9-2.3 2.9-3.3 4.4-4.5 8.9-9.2 13.4-13.7 2.8-2.8 5.8-5.4 8.7-8.1.8-.7.8-1.3 0-2-.9-.8-1.8-1.8-2.6-2.6-1.5-1.5-1.5-1.5-2.9 0-3.7 3.6-6.9 3.8-11 .8-.5-.4-1-.9-1.4-1.3l-22.4-22.4c-1-1-2.1-2-3.2-2.9-.8-.6-1.2-1.2-1.1-2.2.4-7.2 3.4-12.9 9.4-16.8 5.9-3.9 12.5-3.2 17.2 1.3 7.8 7.3 15.2 15 22.7 22.6 3.1 3.1 3.2 6.8.3 10.2-.7.8-1.5 1.5-2.3 2.3 1.7 2 3.2 3.5 5 5.3zm197.5-224c-.1.4-.2.5-.2.7-.8 8.7-4.8 15.7-11.7 21.2-4.2 3.3-8.9 4.8-14.2 4.4-6.8-.6-12.1-4.3-17-8.6-.9-.8-.4-1.3.2-1.9l14.3-14.3c5.5-5.5 11.1-11 16.6-16.6.6-.6 1.1-1 .3-1.9-3.6-3.8-7.5-7.3-12.4-9.4-7.6-3.4-15.2-3.8-22.9-.2-4.6 2.1-8.4 5.2-11.6 9.2-5.4 6.7-8 14.2-7.2 22.8 1 9.7 5.6 17.5 12.2 24.3 4.5 4.7 9.7 8.4 15.8 10.8 6.8 2.6 13.6 3.2 20.6.8 7.1-2.4 12.4-7 16.8-12.8 5.7-7.4 8-15.9 7.4-25.2 0-.5-.4-1.3-.7-1.4-2.1-.8-4.1-1.3-6.3-1.9zM277.3 218.5c.1-.3.1-.4.1-.5 0-.3-.1-.7-.1-1-.8-6.5.8-12.2 5.6-16.9 5-4.8 11.7-5.5 17.2-1.6 2.3 1.7 4.3 3.8 6.4 5.8 1.5 1.5 1.5 1.5.1 3-4.6 5.5-8.8 11.5-11.7 18.1-2.9 6.7-3.2 13.3 1.2 19.6 3.4 4.7 7.8 7.6 13.7 7.9 10.6.6 21.1-9.3 20.9-20.7 0-2-.2-3.9-.3-5.9.4 0 .7 0 1 .1 4.7 1 9.2.4 13.6-1.5 2-.9 3.4-1.9 3.1-4.3 0-.5.1-1.1.2-1.6.3-3 .6-5.9.8-8.9-2.4.7-4.8 1.5-7.1 2-4.5 1-8.5 0-11.7-3.5-1.7-1.9-3.5-3.8-5.3-5.6-2.6-2.7-5.3-5.3-7.8-7.9-3.7-4-7.3-8.2-11.9-11.2-5.6-3.6-11.6-4.6-17.8-1.8-8.9 4.1-14.8 11-17.6 20.5-1.5 5-1.5 10.1 0 15.2.2.7.5 1 1.3 1 2.2-.3 4.1-.3 6.1-.3zM97.9 398.2c0-.8 0-1.1-.1-1.5-.9-6.7.7-12.5 5.8-17.3 4.4-4.2 10.7-5.4 15.7-2.3 3 1.9 5.4 4.7 8.1 7 .9.8.8 1.4.1 2.2-4.3 4.9-7.9 10.3-10.9 16.1-2.1 4.1-3.5 8.5-3.1 13.2.6 8.2 8.3 16.6 17.6 16.6 11.6 0 21.5-11.1 20.4-22.8-.1-1.2-.2-2.5-.4-3.9.6.1 1 .1 1.5.2 4.3.8 8.3.3 12.3-1.3 2.4-1 4.4-2.2 4-5.3v-.6c.3-3.1.6-6.2.9-9.5-1.7.6-3.1 1.2-4.5 1.6-4.6 1.3-9.1 1.7-13-1.8-.8-.7-1.5-1.6-2.2-2.4-3.1-3.2-6.2-6.3-9.3-9.4-2.1-2.2-4.1-4.4-6.3-6.5-2.4-2.4-4.7-4.9-7.3-6.8-4.4-3.4-9.4-4.9-15-3.9-4.8.9-8.6 3.4-12.1 6.5-4.7 4.3-8.1 9.4-9.5 15.7-1.1 4.9-1.3 9.7.3 14.5.1.4.6 1 1 1 1.8.6 3.9.7 6 .7zM401.7 218.2c-1.8 1.2-3.5 2.4-5.3 3.6-5.5 3.4-11.4 5.7-18.1 4.6-7-1.2-11.7-6.7-11.9-13.8-.1-3.4.3-6.6 1.3-9.8.1-.3.2-.6.3-1.2-1.1.4-2.1.9-3 1-2.4.3-4.8.9-7 .5-4.7-.7-7.3-4.2-7.3-9.5-.1-3.6.7-7.1 1.9-10.4.2-.5.3-1 .6-1.7-1.3.3-2.5.6-3.7.8-9 1.5-16.8-.8-22.9-7.8-5.3-6-6.8-13.2-5.3-21 1.1-5.7 3.8-10.7 7.5-15.1 4.3-5.1 9.4-8.9 15.6-11.3.6-.2 1.1-.6 1.5-1.1l14.1-14.1 1.3-1.3c1.8 1.8 3.5 3.4 5.1 5.2.2.2-.2 1-.5 1.3-2.3 2.4-4.7 4.7-7 7l-1.4 1.4c1.6.5 3 1 4.4 1.5 11.4 4.6 18.4 16.6 14.3 29.8-2.2 7.2-6.5 12.9-12 17.8-1.4 1.2-2.8 2.2-4.2 3.3-2.3 1.7-2.8 7.3-.7 9.3 1 1 2.3 1.3 3.4.7 2.5-1.3 5.1-2.6 7.3-4.4 5.2-4.2 10.1-8.7 15.2-13 4.1-3.4 8.2-6.9 13.4-8.5 4.2-1.3 8-.7 11.5 2 6.2 4.8 8.7 11.3 9 18.9.4 10-3.2 18.7-9.1 26.5-.3.4-.5.8-.7 1.2-2.6 2.5-5.1 5-7.6 7.6zM215.4 193.6c.4.4.7.8 1.1 1.2l67.5 67.5c.9.9 1.9 1.7 2.9 2.3 3.4 2.1 6.4 1.5 9.8-1.7 1.7-1.6 1.3-1.8 3.1 0 .8.8 1.5 1.6 2.3 2.3 1 .8 1.1 1.5 0 2.3-2.9 2.6-5.9 5.3-8.7 8.1-4.5 4.5-8.8 9-13.3 13.6-.8.8-1.5 1.6-2.2 2.4-.6.7-1.2.6-1.8 0-1-1.1-2.1-2.2-3.3-3.3-.7-.6-.8-1.1 0-1.8.7-.6 1.3-1.3 1.9-2.1 2.3-3.2 2.2-6.1-.3-9.2-.3-.4-.7-.8-1.1-1.2l-56.9-56.9c-.8-.8-1.4-1-2.4-.3-2.7 1.7-5.5 3.1-8.3 4.6-1.3.7-2.2.8-3.2-.5-.7-.9-1.5-1.6-2.4-2.4-.6-.5-.6-1-.1-1.7 3.9-5.2 7-10.8 9.8-16.7.2-.5.3-1 .4-1.5 1.8-1.6 3.6-3.4 5.2-5zM497.3 62.1c-.5 2.8-.9 5.6-1.7 8.4-1.1 4.2-3.5 7.8-6.2 11.2-2.4 3-5.3 5.5-8.5 7.5-5.9 3.6-12.7 3.1-18.2-1.4-3.5-2.9-6.6-6.1-9.8-9.3-4.8-4.9-9.5-9.9-14.3-14.8-2.6-2.7-5.2-5.4-7.8-8.2-.7-.8-1.3-.8-2 0-1.3 1.4-2.7 2.7-4.1 4.1-.6.6-1 .7-1.6 0l-.2-.2c-3.2-2.3-4.2-5-3.4-9.1 1.1-6.1.6-12.4-.5-18.6-.2-1 0-1.8.8-2.5 1.3-1.2 2.4-2.4 3.8-3.8l6.1 6.1c1.5 1.5 3 3.2 4.4 4.7.8.8 1.2.1 1.7-.4l14.4-14.4 2.2-2.2c2 2 3.9 3.8 5.7 5.8.2.2-.2 1.1-.5 1.4-3.2 3.3-6.5 6.5-9.8 9.8l-6 6c-.7.7-.7 1.2 0 1.9 7.4 7.6 14.9 15.3 22.2 23 2.4 2.6 4.8 5.1 8 6.7 3.9 2 7.8 1.4 11.1-1.5 3.6-3.1 5.9-6.8 6.8-11.5 0-.2.1-.4.2-.7 2.3.5 4.6 1 6.8 1.5.2.4.3.5.4.5zM88 419.9c-5.2-1-10.2-.2-15 1.6-6.6 2.4-13.1 5.2-19.7 7.9-4.8 2-9.6 4.1-14.8 4.4-5.5.3-9.8-2-12.8-6.5-2.9-4.4-2.5-8.8 0-13.2 2.5-4.4 5.9-8.1 10-11.2 4.3-3.2 9.1-5 14.6-3.7 3.1.7 5.8 2.4 8.1 4.5.8.7 1.3.6 2-.1 1-1 2.1-2 3-3.1.3-.3.4-1.1.2-1.3-1.3-1.4-2.7-2.6-4-3.9l-7.6-7.6-4.7-4.7c-2 1.8-3.7 3.6-5.7 5.1-4.1 3.2-8.5 5.9-12.4 9.3-6.1 5.1-11.1 11.1-14.2 18.5-2.6 5.7-3.4 11.7-1.4 17.8 3.6 10.7 14.9 19.6 28.7 17.3 7.3-1.3 14.1-4.2 20.8-7.1 4.7-2.1 9.5-4.2 14.5-5.7 6.3-1.8 11.7-.1 16.1 5 4.5 5.4 5 11.8 1.7 18.1-3.2 5.9-7.8 10.6-13.5 14.1-6.5 4-13.3 4.5-20 .4-1.8-1.1-3.4-2.5-5.4-3.9l-4.8 4.8 4 4 10.1 10.1 3.8 3.8c2.8-3.3 6.4-5.5 10.2-7.5 10-5.2 17.9-12.6 23.5-22.3 3.4-5.8 5.3-12 5.1-18.8-.2-7-2.8-13.1-7.4-18.2-3.6-4-7.8-6.9-13-7.9z"/><path fill="#ef3e36" d="M245.5 324.2l-5.1-5.1c.8-.8 1.6-1.5 2.3-2.3 2.9-3.4 2.8-7.1-.3-10.2-7.5-7.6-14.9-15.3-22.7-22.6-4.8-4.5-11.2-5.3-17.2-1.3-5.9 4-9 9.7-9.4 16.8 0 1 .4 1.6 1.1 2.2 1.1.9 2.2 1.8 3.2 2.9l22.4 22.4c.5.5.9.9 1.4 1.3 4 3 7.3 2.8 11-.8 1.5-1.4 1.5-1.4 2.9 0 .9.9 1.7 1.8 2.6 2.6.8.7.7 1.3 0 2-2.9 2.7-5.9 5.3-8.7 8.1-4.5 4.5-9 9.1-13.4 13.7-1 1-1.9 2.1-2.9 3.3l-5-5c1-1.1 2-2.3 2.9-3.5 1.9-2.6 1.8-5.3.1-7.9-.7-1-1.5-2-2.3-2.9-6.6-6.6-13.2-13.3-19.9-19.9-2.6-2.6-5.7-4.5-9.4-4.9-4.3-.5-8 1-11.2 3.7-4.3 3.7-7 8.3-7.8 14.1-.2 1.9.1 3.3 1.6 4.8 8.4 8.2 16.6 16.6 24.9 24.9.7.7 1.4 1.3 2.1 1.8 3.2 2 6 1.9 9-.5.9-.7 1.6-1.5 2.5-2.3 1.5 1.5 3 2.9 4.4 4.5.2.2 0 1-.2 1.3-2.4 2.4-4.9 4.7-7.4 7l-10.2 10.2c-.8.8-1.7 1.7-2.4 2.5-1.5 1.5-2.9 3.1-4.3 4.7-.6.7-1.2.7-1.8 0-1-1.1-2.1-2.2-3.3-3.3-.8-.7-.7-1.2 0-2 .7-.6 1.3-1.3 1.9-2.1 2.5-3.5 2.3-6.7-1-10.1-9.5-9.7-19.1-19.2-28.7-28.8-.6-.6-1-.6-1.8-.1-3.1 1.8-6.2 3.5-9.3 5.2-.8.5-1.5.4-2.1-.3-1.2-1.3-2.4-2.4-3.5-3.5 2.5-4.1 5-8.1 7.4-12.1.9-1.4 1.7-2.9 2.3-4.5 1-3 3.4-4.9 5.7-7.2l8.3 8.3c0-2.4-.1-4.3.1-6.2.5-7.7 3.5-14.4 9.2-19.6 6.3-5.8 13.7-8.6 22.4-5.9.3.1.5.1.8.1.2-3 .2-5.9.6-8.8 1-7.3 4-13.7 9.5-18.8 5.6-5 12.1-7.9 19.8-6.4 3.6.7 7.1 2.3 9.7 4.8 8.7 8.4 17.3 17 25.9 25.5 1.1 1.1 2.3 2 3.6 2.8 2.8 1.5 5.5 1 8.3-1.4 2.3-2 2.3-2 4.4.2l1.3 1.3c1.6 1.6 1.6 1.6-.1 3.2-4.9 4.7-9.8 9.3-14.6 14.1-2.8 2.8-5.4 5.7-8 8.5-.4.4-1 .9-1.6 1.5zM443 100.2c2.1.6 4.2 1 6.2 1.7.4.1.7.9.7 1.4.6 9.3-1.7 17.8-7.4 25.2-4.4 5.8-9.7 10.4-16.8 12.8-7 2.4-13.8 1.8-20.6-.8-6.1-2.4-11.3-6.1-15.8-10.8-6.6-6.8-11.2-14.6-12.2-24.3-.8-8.6 1.7-16.1 7.2-22.8 3.2-3.9 7-7 11.6-9.2 7.7-3.6 15.3-3.2 22.9.2 4.9 2.2 8.8 5.7 12.4 9.4.9.9.3 1.3-.3 1.9-5.6 5.5-11.1 11-16.6 16.6L400 115.8c-.6.6-1.1 1.1-.2 1.9 4.9 4.4 10.2 8.1 17 8.6 5.4.5 10.1-1.1 14.2-4.4 6.9-5.4 10.8-12.4 11.7-21.2.1.1.2-.1.3-.5zM277.3 218.5c-2 0-3.9.1-5.8.2-.9 0-1.1-.4-1.3-1-1.6-5-1.5-10.2 0-15.2 2.7-9.4 8.6-16.3 17.6-20.5 6.2-2.8 12.2-1.9 17.8 1.8 4.6 3 8.2 7.3 11.9 11.2 2.5 2.7 5.2 5.3 7.8 7.9 1.8 1.9 3.5 3.7 5.3 5.6 3.2 3.5 7.2 4.5 11.7 3.5 2.4-.5 4.6-1.4 7.1-2-.3 2.9-.5 5.9-.8 8.9-.1.5-.2 1.1-.2 1.6.2 2.4-1.2 3.4-3.1 4.3-4.4 2-8.9 2.5-13.6 1.5-.3-.1-.6 0-1-.1.1 2 .2 3.9.3 5.9.3 11.4-10.2 21.3-20.9 20.7-5.9-.4-10.3-3.2-13.7-7.9-4.4-6.3-4.1-12.9-1.2-19.6 2.9-6.6 7-12.6 11.7-18.1 1.3-1.6 1.4-1.6-.1-3-2.1-2-4-4.1-6.4-5.8-5.5-3.9-12.2-3.2-17.2 1.6-4.9 4.6-6.4 10.3-5.6 16.9 0 .3.1.7.1 1-.3.2-.3.3-.4.6zM97.9 398.2c-2.2-.1-4.3-.1-6.3-.3-.4 0-.8-.6-1-1-1.5-4.8-1.4-9.7-.3-14.5 1.5-6.3 4.9-11.4 9.5-15.7 3.5-3.1 7.3-5.7 12.1-6.5 5.6-1 10.7.5 15 3.9 2.6 2 4.9 4.5 7.3 6.8 2.1 2.1 4.2 4.4 6.3 6.5 3.1 3.2 6.2 6.3 9.3 9.4.8.8 1.4 1.7 2.2 2.4 3.9 3.4 8.4 3.1 13 1.8 1.5-.5 2.9-1 4.5-1.6-.3 3.3-.5 6.3-.9 9.5 0 .2-.1.4 0 .6.4 3.1-1.6 4.3-4 5.3-4 1.5-8.1 2.1-12.3 1.3-.5-.1-.9-.1-1.5-.2.1 1.4.3 2.6.4 3.9 1.2 11.7-8.8 22.9-20.4 22.8-9.2-.1-16.9-8.5-17.6-16.6-.4-4.7 1-9.1 3.1-13.2 2.9-5.9 6.7-11.2 10.9-16.1.7-.8.8-1.5-.1-2.2-2.7-2.4-5.2-5.2-8.1-7-5-3.1-11.3-2-15.7 2.3-5 4.8-6.6 10.6-5.8 17.3.4 0 .4.4.4 1.1z"/></svg>
