<svg id="Layer_1" xmlns="http://www.w3.org/2000/svg" viewBox="0 0 500 500"><path fill="#62a6db" d="M0 0h500v500H0z"/><path fill="fff" d="M400.5 189.3c-1.9-1.3-3.5-2.8-3.9-5.3-.3-1.9-1.1-3.6-2.2-5.2-.4-1.1-1-2.1-1.8-3-1.2-2.2-2.7-4.2-4.5-5.9-.6-.8-1.2-1.5-2-2.1-.2-.3-.7-.8-.7-.6l-.4-.4c-.4-.8-1.1-1.3-1.9-1.8 0 0-.1 0-.1-.1-.9-.9-1.9-1.8-3.1-2.4l-.3-.2c-1.2-1.1-2.7-2-4.1-2.7-.3-.3-.7-.6-1.1-.7h.1c-.3-.4-.8-.6-1.3-.7-1.9-1.3-4-2.3-6.3-3.1h-.1c-.5-.3-1-.6-1.6-.7-.6-.4-1.2-.7-2-.7-1.1-.4-2-1.1-3.5-.7-1.9-.8-3.9-1.4-5.9-1.8-2-.7-4.1-1.2-6.2-1.6v-.1c-1.1-.4-2.2-.7-3.4-.7h-.1c-2.5-.7-5-1.2-7.5-1.3-1.5-.4-3-.7-4.6-.7h-.1c-.8-.4-1.6-.3-2.3-.3-2.3-.4-4.6-.7-6.9-.7-1.5-.4-3-.4-4.5-.3-2.2-.3-4.4-.4-6.5-.3h-8l1.1.6v0c-1.6.7-3.3.1-4.9.4h-3.8c-2.5-.1-5 0-7.6.3l-2 .1c-1.3-.1-2.6 0-3.8.3-2.1-.1-4.1.2-6.2.4-.5-.1-.9 0-1.4.1-.1 0-.3.1-.4.1l-1.3.1c-1.2-.1-2.3.1-3.4.3-1.7 0-3.5.2-5.2.6-2 .1-3.9.3-5.9.7-2.4.2-4.8.6-7.2 1.1 0 0 0 .1.1.1l-.1-.1-9.7 1.7-1.7.4c-.8.2 0-1.5-1.3-1-1.2.5-2.6.6-3.9.9-1.7.2-3.3.6-4.8 1.3-.9 0-1.5.6-2.3.8h-.1c-1.1-1-2.2-.2-3.2 0v.1c-1 .3-2.1.3-2.9 1h-.1c-1.1.2-1.9 1.1-2.5 1.8-2.3.6-4.7 1-6.9 1.9-1.4.2-2.8.6-4.1 1.1-2.7.7-5.4 1.5-8 2.5-.6.1-1.2.2-1.7.6l-1 .2-.3-.4c.2-.2.7-.2.9-.8l-2.2.4-2.8.6h0-.3v-.1c-.6.1-1.2.3-1.7.8l-2.1.9-1.6.6c-.1 0-.1 0-.2.1-2.9.8-5.7 1.9-8.4 3.1h-.1l-3.6.9c-.6.1-1.5-.1-1.3 1 .2 1 1 .3 1.5.5h.1l-.1.1v.2l-.9.4-6.6 2.8-1.1.5-1.7.8v0l-2.5.7-1.3.3c-.6.1-1.4-.2-1.7.7h-.1l-.3.1c-.1 0-.2-.1-.2 0-.7-.3-1.2-.1-2.3.3h1.6l-.4.7c-.7-.4-1 0-1 .6-.4.4-.9.3-1.4.4v.1c-.2-.6-.5-.2-.8-.2-2 .2-2.8 2.2-4.4 2.9-.6-.3-1 0-1.4.3-1.6.2-3.2.1-4.2 1.7l-1.5.6c-.1 0-.2 0-.3.1-1.4.2-2.6 1-3.7 1.8l-.1.1c-.5.3-1.5.1-1.3 1.1.5-.2 1.1-.2 1.4-.8l3.8-1.5v.1l.3.6-1.9 1.1-.1.1v-.1c-3.4 1.4-6.6 3.1-9.7 5.1v.1l-1.2.8c-.1.1-.4.3-.2.5.2.1.5.1.8.1l-4.6 3.2c-.1 0-.3-.1-.4-.1-1.1-.5-2.5-.4-3.6.2-.7.4-1.5.8-2.3.9 1.1-1 2.3-1.7 3.5-2.5v.1c.4-.3 1.1-.2 1.4-.7v-.1c1.5-.2 3-.6 3.9-2 .4-.1.8-.3 1-.7.7-.4 1.8-.3 2-1.4-.9 0-1.5.5-2.1 1l-1.3.7c-1.2.7-2.5 1.2-3.5 2.1l-1.7.7c-2.2.5-4.6.9-5.5 3.5-.4.1-.9.1-1 .5v.1c-.1.4.3.5.6.6l.3-.4c0 .1.1.2.3.2h.3c-.2.2-.3.5-.5.8.2 1.5 1 2.5 2 3.5 1.6.5 2.6-.6 3.8-1.2l.3-.3 2.2-.7s0 .1.1.1c.2.4-.1.7-.1 1.1l-3.1 1.5-2.8.7c0 .4.1.7.6.6l2.6-.8c.1 0 .1 0 .2-.1l.2-.1c1.2-.1 2.4-.4 3.5-.9.1 0 .2-.1.4-.1h.1l.1-.1c.6 0 1.1-.2 1.6-.6h.1l1.3-.3h.1c.4-.2 1.2-.2.4-1l.3-.3c.3 0 .7 0 1-.3h.1c3.3-.9 6.6-2 9.7-3.5 2.5-.4 4.6-2.1 7.1-2.5 2.7-.5 5.4-.7 8-1.7 1 0 1.9-.3 2.8-.7h-.1.1c1.9-.3 3.7-.7 5.5-1.4-.2-.1-.3-.3-.4-.4.1.2.3.3.5.4 3.1-.6 6.2-1.4 9.2-2.4H175.4l.1-.1-.1-.1s.1 0 .1.1c.3.1.6 0 .8-.2 2.9-.5 5.7-1.2 8.6-2l5.5-1.2v-.1.1c.3 0 .7 0 1-.1 3.2-.7 6.5-1.1 9.7-1.3.3 0 1.2-.4 1 .7.2 0 .5-.1.7-.3 1.6-.2 3-.9 4.4-1.6.1 0 .1 0 .2-.1 2.7-.9 5.2-2 7.2-4 1.2-1.2 1-2.3-.3-2.9h-.1l.1-.1-.3-.3 5.5-1.1c.7 0 1.5.1 2.2-.3 2.6-.2 5.3-.6 7.8-1.1l5.5-.7h.1c1.7-.2 3.5-.2 5.2-.7.9 0 1.9.1 2.8-.3h-.1.1l6.2-.4c.1-.1.2-.1.4-.1-.1 0-.2.1-.3.1h.1c-.1 0-.1 0-.2.1.5.2 1.1-.1 1.6.2l-2.5.4s0 .1.1.1l-.1-.1c-1.2 0-2.5.2-3.6 1l4.1-.6c.3.1.6 0 .9-.1h3.3c.2-.1.4-.1.6-.1-.2 0-.4.1-.6.1h.3c-.1 0-.2 0-.3.1.5.1 1.1-.2 1.6.2l-.2.1c-.6 0-1.2-.1-1.8.3h-.1l-1.3.1c-.6 0-1.2-.1-1.7.3l-.1.1c-3.1 0-6.2.7-9.3 1.1h-.3v.1c-.4 0-.8-.1-1 .6-6.2 2.5-12.8 3.1-19.3 3.8 0 .1 0 .1.1.2l-.1-.1c-.8-.1-1.6-.1-2.4.6h.1l-.1.1c1.4 0 2.6.2 3.7-.2h-.1c.1 0 .1 0 .2-.1h.1l2.1-.1h0c1 0 2.1.2 3.1-.2h-.1.1l2.7-.1h0c.8 0 1.7.1 2.5-.2h-.1.1c2.7 0 5.5-.2 8.2-.5.3.1.7.1 1.1 0l.3-.1c3.8 0 7.6-.4 11.3-.8h.1c.8 0 1.5.1 2.2-.1.2 0 .3-.1.6-.1 1.1.1 2.3 0 3.4-.4.3-.1.8-.2.3-.5-.6-.3-1.2-.2-1.7.2-1.1-.3-2.4.8-3.5-.3 2-.8 2-.8 3.9-.4.1 0 .2-.1.3-.1.9-.1 1.7-.7 2.5-.9.6 0 1.2 0 1.9-.2 2.6-.5 5.6-1.4 7.9-1.3 2.2.1 4.6.2 6.8-.2h-.2.2l5.4-.1s.1 0 .1.1c2.2 0 4.4.1 6.6-.3l4.5-.1h12.1c2.2.2 4.3.4 6.5.3.8.3 1.6.4 2.4.3l5.2.7c2 .7 4.2.9 6.4.6.9-.2 1.9-.1 2.9-.1l.1-.1v.1c.1.3.4.6.7.7.1 0 .1.1.2.1h.8c.4.1 1-.2 1.4.3 0 0 .1 0 .1-.1l3.7.3h.2c3.9 1.1 8.1 1 12.1 2l4 .7c1 .4 1.8.5 3 1.1 1.3.6 2.6.8 3.9.3l3.1.9h.1c1 .5 2 .9 3.1 1.1l2.8 1 4.1 1.5v-.1.1c.1.2.4.3.6.3l8.6 3.7.3.1 5.1 2.9c1.4 1.3 3.9 1.8 2.9 4.6 1-.1 1.8-1 2.5 0 .1.2 1 .3 1.2-.2.4.9 1.3 1.2 2.2 1.5 1.4.5 3.2-.9 3.1-2.4 0-.6-.3-1.3.4-1.7h.1c.3-.2.6-.4.7-.7.3-.4.3-.9.4-1.4.8-.8.8-1.4-.2-2.2zm-272.8 10.4c.2-.7 1-.6 1.4-1l.4.3c-.4.9-1.1.8-1.8.7zm5.9-2l-.4-.4c.5-.3 1.1-.6 1.8-.7 0 1-1.1.6-1.4 1.1zm4.7-2.1c.4-.6 1-.5 1.5-.4-.4.5-.9.7-1.5.4zm5.7-1.7c-.3.2-.7.4-1 .3-.6.4-1.4.7-2.1.7.1-1.1 1.2-.6 1.7-1l1-.3 1.2-.3c.1.6-.3.6-.8.6zm4.5-1.3c-.5-.1-1 .5-1.5-.1.6-.4 1.4-.7 2.1-.7l-.6.8zm3.8-1.5c-.6.6-1.3.7-2 .7.4-1 1.2-.8 2-1 .6-.4 1.3-.8 2-.4-.6.5-1.3.7-2 .7zm5.2-1.6h-.1l-.3.2-1.7.3c.4-.9 1.4-.6 2.1-1l.7-.3h.7c-.2.7-.9.7-1.4.8zm8.2-2.4l-2.1.6-2.1.7c-.1-.9.8-.6 1.1-1h1l.3-.3 2.1-.3-.3.3zm24.7-22.5c.3-.2 1.1-.7 1.6-1.1h.3c1.2.1 2.4-.3 3.5-.4.3-.1.5-.1.7.2l.3.4c0 .6-.6.6-.9.8-.7.3-1.4.6-2.1.8-.7.1-1.4.3-2 .7-.4.3-.9.4-1.4.2-.1-.1-.2-.1-.3-.2l.1-.1-.4-.3v-.1-.1c.1-.4.3-.6.6-.8zm-10.8 5.4l-2.4.6c0-.9 1.1-1 1.3-1.7.9.2 1.9-.2 2.7.3-.6.2-1.1.5-1.6.8zm4.5-1.7h-.7c-.3.5-.9.4-1.4.7.1-.9.8-.9 1.4-1 .5-.4 1-.7 1.7-.4-.2.5-.8.3-1 .7zm3.9-1.7c-.6.4-1.2.6-1.8.6 0-.9 1-.7 1.3-1.1v.1l1.1-.3.4.3s-.1 0-.1.1c-.3.2-.6.3-.9.3zm12.3 12.4l-.8-.4c-.1-.1 0-.2 0-.2h.1c.5 0 1 .1 1.4-.3.4 0 .9.1 1.3.3-.5.4-1.3.4-2 .6zm7.9-1.1c-.6.1-1.1.1-1.7.1-1.3-.4-2.6.7-4 0 .7-.6 1.6-.1 2.2-.7h.3l.4.1 1.3-.4c.4.1 1-.2 1.4.3.5.2.7.5.1.6zm5.6-1.7c-.4.4-1 .5-1.5.2s.1-.4.2-.6h1l.3.4zm13.1-21.1c-1.5.2-2.9 1.2-4.5.7.2-.9 1.2-.8 1.7-1.4 1.1-.1 2.2-1 3.2 0l-.4.7zm8-1.3H233c.4-.7 1.1-.7 1.5-1 .4-.3.9-.2 1 .3.2.4-.6.2-.6.7zm1.9-1c.3-.7.8-.4 1.5-.3-.6.4-1 .8-1.5.3zm19.8 17.9c.1-.2.3-.2.5-.3s1.5-.4 2.1.3c-.8.5-1.7.2-2.5.4v-.1-.3h-.1zm-4 0h2.2l.1.1.5.2c-.6.4-1.2.3-1.8.3-.3-.4-.8-.3-1.1-.4 0 0 0-.1.1-.2zm4.8 1.7c.1-.1.1-.2 0-.3 0-.1 0-.2.1-.3h2.3c-.9.7-1.7.6-2.4.6zm4.5-.4c-.2.1-.4 0-.5-.1v-.1c-.1-.3.2-.3.4-.3.2-.1.5 0 .6.3-.2 0-.4.1-.5.2zm1.7-1.6c-.9.6-1.8.2-2.7.3.6-1.2 1.6-.5 2.4-.6l.3-.1 1.3.1c-.3.5-.9.2-1.3.3zm7.9-.4c-.7-.1-1.4.3-2-.3h2v.3zm24-.3c.5-.6 1.1-.4 1.8-.4-.6.7-1.1.9-1.8.4zm45.6 4.5c.7.1 1.5-.2 2.1.3l-.8.3c-.3-.5-1.1 0-1.3-.6zm14.1 3.4c-.3-.2-.6-.3-.7-.7.7 0 1.2.2 1.8.5-.3.4-.7.2-1.1.2z"/><path fill="fff" d="M144.8 198.5v.1c1 .3 1.7-.2 2.4-.8h-.1l.1-.1c-.8.2-1.7-.1-2.4.8zM199.4 185.6s.1 0 .1.1h-.1c.4.3.9.4 1.3-.3 0 0 0-.1.1-.1l-1.4.3zM329.6 174.9h-.3c.8.3 1.5.9 2.4.3-.8.4-1.5 0-2.1-.3zM210 158.6c.5 0 1 .2 1.4-.3.6 0 1.2.2 1.6-.6 0 0 0-.1.1-.1l-1.6.3-1.3.3-1.4.4h.2l-.2.1c.3.2.9.5 1.2-.1zM263.3 170l.3.3-.3-.3zM183.4 168l-.1.1.1.1v-.2zM54.8 203.1c22.4 0 40.2 17.6 40.2 40.3 0 23.1-17.9 41.3-40.2 41.3-22.4 0-40.2-18.2-40.2-41.3-.1-22.6 17.8-40.3 40.2-40.3zm0 74.5c17.8 0 32.1-14.8 32.1-34.2 0-18.9-14.4-33.1-32.1-33.1-17.9 0-32.1 14.3-32.1 33.1-.1 19.4 14.2 34.2 32.1 34.2zM104.4 226.9h6.1c.4 0 .7.3.7.7v7.7c0 2.5-.2 4.5-.2 4.5h.2c2-5.2 9.2-14.3 22.6-14.3 13.9 0 18.9 8 18.9 21.9v35.3c0 .4-.3.7-.7.7h-6.3c-.4 0-.7-.3-.7-.7v-33.2c0-8.9-1.3-16.7-12.2-16.7-9.7 0-18 6.6-20.6 16-.7 2.4-.9 4.9-.9 7.6v26.4c0 .4-.3.7-.7.7h-6.3c-.4 0-.7-.3-.7-.7v-55.1c.1-.4.4-.8.8-.8zM188 225.6c15.6 0 23.6 12 23.6 26.1 0 .9-.1 2.4-.2 3.3 0 .4-.3.6-.7.6h-42c-.4 0-.7.3-.7.7.6 14 10.4 21.6 21.9 21.6 8.5 0 14.7-4.7 16.6-6.3.3-.3.8-.2 1 .2l2.8 4.6c.2.3.1.7-.1.9-1.8 1.6-9.5 7.5-20.5 7.5-16.9 0-29.5-12.1-29.5-29.5 0-18.6 12.6-29.7 27.8-29.7zm15.2 23.7c.4 0 .7-.3.7-.7-.7-11.3-7.8-16.6-16-16.6-9.2 0-17.2 5.7-19.3 16.5-.1.4.2.8.7.8h33.9z"/><g><path fill="fff" d="M222.6 206.6h13.1c.4 0 .7.3.7.7v32.4c0 .4.3.7.7.7h35.1c.4 0 .7-.3.7-.7v-32.4c0-.4.3-.7.7-.7h13.1c.4 0 .7.3.7.7v78.4c0 .4-.3.7-.7.7h-13.1c-.4 0-.7-.3-.7-.7v-32.1c0-.4-.3-.7-.7-.7h-35.1c-.4 0-.7.3-.7.7v32.1c0 .4-.3.7-.7.7h-13.1c-.4 0-.7-.3-.7-.7v-78.4c0-.4.4-.7.7-.7zM330.4 227.7c17.5 0 31.6 12.5 31.6 30 0 17.6-14 30-31.5 30s-31.6-12.4-31.6-30 14-30 31.5-30zm.1 47.8c9.2 0 17-7.2 17-17.9 0-10.6-7.8-17.9-17-17.9-9.3 0-17.1 7.3-17.1 17.9 0 10.7 7.8 17.9 17.1 17.9zM371.8 229h11.7c.4 0 .7.3.7.7v3.5c0 2.1-.2 3.9-.2 3.9h.2s4.9-9.4 18.4-9.4c15.5 0 25.4 12.2 25.4 30 0 18.2-11.1 30-26.2 30-11.3 0-16.4-7.9-16.4-7.9h-.2s.2 2 .2 4.9v23.4c0 .4-.3.7-.7.7h-12.9c-.4 0-.7-.3-.7-.7v-78.4c0-.4.4-.7.7-.7zm27.4 46.7c7.9 0 14.4-6.4 14.4-17.8 0-10.9-5.8-18-14.3-18-7.4 0-14.4 5.4-14.4 18.1.1 8.9 4.9 17.7 14.3 17.7zM462.6 227.7c16.5 0 25.4 12 25.4 27.2 0 1.3-.2 3.7-.3 4.9 0 .4-.3.6-.7.6h-38.1c-.4 0-.7.4-.7.8 1.2 9.5 8.8 14.4 17.1 14.4 7.6 0 13.9-4.3 15.9-5.8.3-.3.8-.1 1 .2l4.9 9c.2.3.1.6-.2.9-1.9 1.6-10.2 7.8-22.6 7.8-19 0-30.8-13.7-30.8-30 0-17.7 12-30 29.1-30zm10.3 22.9c.4 0 .7-.3.7-.7-.5-7.3-5.2-11.2-11.3-11.2-7 0-12 4.2-13.5 11.1-.1.4.2.8.7.8h23.4z"/></g><g><path fill="fff" d="M58.2 312.8c2.9 0 5 1.3 6.4 3.1l-1.6 1c-1-1.3-2.8-2.3-4.8-2.3-3.6 0-6.4 2.8-6.4 6.7 0 3.9 2.8 6.8 6.4 6.8 2 0 3.6-1 4.5-1.8v-3.4H57v-1.8h7.8v6c-1.5 1.7-3.8 2.9-6.5 2.9-4.7 0-8.5-3.5-8.5-8.6-.2-5.2 3.7-8.6 8.4-8.6zM79.6 312.8c4.9 0 8.2 3.7 8.2 8.6 0 4.9-3.3 8.6-8.2 8.6-4.9 0-8.2-3.7-8.2-8.6 0-5 3.3-8.6 8.2-8.6zm0 1.8c-3.7 0-6.1 2.9-6.1 6.7 0 3.9 2.4 6.7 6.1 6.7 3.7 0 6.1-2.9 6.1-6.7 0-3.8-2.4-6.7-6.1-6.7zM95.1 313h5.7c5.2 0 8.5 3.6 8.5 8.3 0 4.7-3.4 8.3-8.5 8.3h-5.7V313zm5.6 14.8c4 0 6.4-2.9 6.4-6.4 0-3.6-2.3-6.5-6.4-6.5h-3.6v12.9h3.6zM115.7 317.7c.8-.5 1.5-1.5 1.6-2.3h-.3c-.7 0-1.2-.5-1.2-1.3 0-.7.6-1.3 1.3-1.3.8 0 1.6.7 1.6 1.9 0 1.5-.9 2.9-2 3.8l-1-.8zM126.2 325.7c1.1 1.2 2.9 2.4 5.2 2.4 3 0 3.9-1.6 3.9-2.9 0-2-2-2.5-4.2-3.1-2.7-.7-5.6-1.4-5.6-4.7 0-2.7 2.4-4.6 5.7-4.6 2.5 0 4.5.8 5.9 2.3l-1.2 1.5c-1.2-1.4-3-2-4.8-2-2 0-3.4 1.1-3.4 2.6 0 1.7 1.9 2.2 4 2.7 2.7.7 5.8 1.6 5.8 5.1 0 2.4-1.6 4.9-6.1 4.9-2.9 0-5-1.1-6.4-2.6l1.2-1.6zM163.9 316.2l-3.7 13.4H158l-4.7-16.6h2.3l3.7 13.8 3.8-13.8h1.7l3.8 13.8 3.7-13.8h2.3l-4.7 16.6h-2.2l-3.8-13.4zM187.9 312.8c4.9 0 8.2 3.7 8.2 8.6 0 4.9-3.3 8.6-8.2 8.6-4.9 0-8.2-3.7-8.2-8.6 0-5 3.3-8.6 8.2-8.6zm0 1.8c-3.7 0-6.1 2.9-6.1 6.7 0 3.9 2.4 6.7 6.1 6.7 3.7 0 6.1-2.9 6.1-6.7 0-3.8-2.4-6.7-6.1-6.7zM208.8 323h-3.3v6.6h-2.1V313h6.7c3 0 5.2 1.9 5.2 5 0 3-2 4.6-4.3 4.8l4.5 6.8H213l-4.2-6.6zm1-8.1h-4.4v6.3h4.4c2 0 3.3-1.3 3.3-3.2 0-1.8-1.3-3.1-3.3-3.1zM222.5 313h5.7c5.2 0 8.5 3.6 8.5 8.3 0 4.7-3.4 8.3-8.5 8.3h-5.7V313zm5.7 14.8c4 0 6.4-2.9 6.4-6.4 0-3.6-2.3-6.5-6.4-6.5h-3.6v12.9h3.6zM244.2 327.1c.7 0 1.4.6 1.4 1.4s-.6 1.4-1.4 1.4-1.4-.6-1.4-1.4.6-1.4 1.4-1.4zM263.4 313h10.9v1.8h-8.8v5.4h8.6v1.8h-8.6v5.7h8.8v1.8h-10.9V313zM279.8 313h2.4l5.6 14.3 5.6-14.3h2.4l-6.7 16.6h-2.6l-6.7-16.6zM301.9 313h10.9v1.8H304v5.4h8.6v1.8H304v5.7h8.8v1.8h-10.9V313zM325.4 323h-3.3v6.6H320V313h6.7c3 0 5.2 1.9 5.2 5 0 3-2 4.6-4.3 4.8l4.5 6.8h-2.4l-4.3-6.6zm1-8.1H322v6.3h4.4c2 0 3.3-1.3 3.3-3.2 0-1.8-1.3-3.1-3.3-3.1zM343.6 322.6L337 313h2.4l5.2 7.7 5.2-7.7h2.4l-6.5 9.6v7h-2.1v-7zM368 321.3c0-5.1 3.8-8.6 8.5-8.6 3 0 5.1 1.4 6.4 3.3l-1.7 1c-.9-1.4-2.7-2.4-4.6-2.4-3.6 0-6.3 2.8-6.3 6.7 0 3.9 2.8 6.7 6.3 6.7 2 0 3.7-1 4.6-2.4l1.8 1c-1.4 1.9-3.4 3.3-6.4 3.3-4.8 0-8.6-3.5-8.6-8.6zM401.3 322h-9.7v7.6h-2.1V313h2.1v7.1h9.7V313h2.1v16.6h-2.1V322zM411.2 313h2.1v16.6h-2.1V313zM421.1 313h2.1v14.8h7.7v1.8h-9.8V313zM437.8 313h5.7c5.2 0 8.5 3.6 8.5 8.3 0 4.7-3.4 8.3-8.5 8.3h-5.7V313zm5.7 14.8c4 0 6.4-2.9 6.4-6.4 0-3.6-2.3-6.5-6.4-6.5h-3.6v12.9h3.6zM459.5 327.1c.7 0 1.4.6 1.4 1.4s-.6 1.4-1.4 1.4-1.4-.6-1.4-1.4.6-1.4 1.4-1.4z"/></g></svg>
