<svg xmlns="http://www.w3.org/2000/svg" viewBox="0 0 600 600"><path d="M512.5 333.1l-21.6 17.1-59.8-36.9 17.8-18.2 63.6 38zm-19.4-106.8S418.8 323.5 360 339.5c0 0-61 26.2-111.1 19.8 0 0-88.4-11.8-125.1-57.3l22.1-11.8s55.6 39.2 105.3 40.7c0 0 59.8 4.8 101.4-16.1 48.8-23.2 90.7-58.6 121.8-102.8l18.7 14.3zm-71.5 24.3l-42.5 40.8-11.9-7.6 36.1-35.3 18.3 2.1zm-30.5-10.7L357 277.2l-12.2-5.9 31.8-39.6 14.5 8.2zM377 211.5c-17.8 30-63.1 72.8-63.1 72.8l-22.9 1.6 1.1-2.1c31.3-25.7 74.4-92.6 74.4-92.6l10.5 20.3zm-49.3 17l-16.1 18.1c-12.4-4-25.2-6.7-38.1-8.1-69.5-4.3-126.2 35.3-126.2 35.3l-17.2-14.4c49.1-41.8 117-45.7 117-45.7 27.2-2.7 61 7.6 80.7 15.2M582.3 286v-.5-.5c-2.6-21.7-5.5-38.5-5.5-38.5-2.6-7.1-6.5-13.6-11.4-19.3l-3.9-10.6c-5.8-22.5-15.9-43.7-29.7-62.5l-31.7-6.4c-18.6-1.8-38.6-3.5-50.5-12.4 2.9 1.8-29.7-23.6-29.7-23.6-2.7-2.7-22.9-14-22.9-14-11.4-14.8-16.5-11.4-27.4-10-22.9 3.4-31.4 3.8-33.7 4.3-3.9.9-7.9.7-11.7-.5-3.4-1.8-7.3-2.7-11.2-2.5-26.5 5.9-67 31.8-67 31.8-13 6.9-24.7 15.9-34.5 26.8l-19.3 6.5-15.2 17c-6.1 2.4-12.4 4.3-18.7 6.1-3.3-.1-6.5.8-9.2 2.6H148c0-.7 0-.5-.5-.5 0 1.8-11.7 5.6-13 6.4-9.6 3.6-16.3 6.6-16.3 6.6-16.4 9.1-32.2 19.3-47.2 30.5l-2 10.9c-1.7 1.7-.8 7.6-2 9.4-1.7 5.3.5 7.1-2.5 12S50.9 265 46.9 270c-.9 0-.9 1.4-1.1 2.2-.2.7-.5 1.3-.8 1.9l-3.4 5.4c-2.6 3.5-4.9 7.2-6.9 11.1L16 320.2c-.8 1.8-1.3 3.8-1.4 5.8-.3.4-.4.9-.5 1.4-.2.4-.2.9 0 1.3.3 7.1 1.5 14.1 3.7 20.8v2.8c1.1 0 1 11.5 3.1 13.3.7 4.6 2.5 9 5.3 12.8 2.5 4.9 5.6 9.4 9.2 13.5 3 2.7 6.4 5 10 6.8 3.6 2.6 6.6 5.8 8.9 9.6 2.5 4.1 6.2 7.3 10.6 9.2 3.7 1.3 7 3.4 9.7 6.3 7.1 7.6 13.5 20.5 22.4 26.1.8 1.4 13-1.8 15.9 0 2.8 1.8 29.3 0 29 5.9.2 4.7 3.2 8.8 7.6 10.4 1.2-.3 2.4-.3 3.6 0 6.5 1.8 6.4 4.7 12.8 6.4l17.7 4.2c25.4 7.6 52.1 9.5 77.2 18.1l11.9 8.7c14.8.9 29.6-.3 44-3.4h2.1l2.1-.5 5.9-1.3 2.9-1.1c7.9-1.4 15.6-3.7 22.9-7l16.2-5 30.5-14.4c6.4-1.4 12.7-3.2 18.6-5 4.5.9 9.1 1.1 13.6.5 2.7-1.1 6.6-3.7 9.3-4.8s5.9-3.7 8.3-5.6c9.4-4.2 19.1-7.7 29-10.4 10.4-2.3 21.1-2.6 31.3-5.8l7.4-3.4c7.1-1.9 13.4-6 18-11.7l.8-.9 14-28.4 21.8-34.2c1.9-1.6 3.7-3.4 5.4-5.3l9.4-5.9c.3-21.6-1.1-43.1-4-64.5" fill="#ac162c"/></svg>
