<svg xmlns="http://www.w3.org/2000/svg" viewBox="0 0 600 600"><path fill="#f15d22" d="M0 0h600v600H0z"/><g><path fill="#fff" d="M139.5 184.3c0 8.7-2.8 16.6-8.5 23.6-5.7 7.1-13.1 11.8-22.5 14.3-4.1 1.1-8.5 1.9-13.3 2.4-4.8.5-10.1.7-16 .7l.2 37.8H64.7c.1-3.5.2-10.2.2-19.9.1-9.7.2-24.7.2-45 0-6.4 0-14.4-.1-23.7-.1-9.3-.2-19.8-.4-31.3 2.6-.1 5.1-.1 7.5-.1h6c10.3 0 19.1.6 26.3 2 7.2 1.3 13.3 3.5 18.3 6.8 5.4 3.4 9.6 7.9 12.4 13.3 3 5.4 4.4 11.9 4.4 19.1zm-15.1 0c0-6.1-1.4-11.4-4.2-15.7-2.8-4.3-7.1-7.7-12.9-10.2-3.5-1.6-7.5-2.5-11.6-2.9-4.2-.4-8.5-.5-12.9-.5h-3.3c0 .6-.1 5.1-.2 13.4s-.2 14.8-.2 19.7c0 4.4 0 9.7.1 15.6 0 6 .1 9.4.1 10.3H82.9c4 0 8.2-.3 12.7-.8s8.4-1.5 11.6-3c5.6-2.4 9.9-5.7 12.9-9.9 2.8-4.3 4.3-9.6 4.3-16zM145.2 143H161v15.4h-15.8zM160.1 263.1H146c.1-.9.2-6.8.2-17.7.1-10.8.2-19.7.2-26.8 0-6.1 0-12.9-.1-20.3 0-7.4-.2-16-.3-25.9h14.1c-.2 8.6-.2 16.6-.3 24.1-.1 7.5-.2 14.1-.2 20 0 13.9.1 25 .2 33.5.2 8.6.3 12.9.3 13.1zM253.8 217.8c0 6.9-1.3 13.6-3.7 19.9-2.5 6.4-6 11.7-10.7 16.2-3.9 3.8-8.3 6.6-13.1 8.6s-10.2 2.9-16.3 2.9c-5.7 0-11.1-.9-16.1-2.9s-9.5-4.8-13.4-8.6c-4.6-4.3-8-9.7-10.5-16.1s-3.7-13.1-3.7-20.3c0-6.8 1-13.2 3.2-18.9 2.1-5.7 5.4-10.9 9.9-15.5 4-4.2 8.6-7.4 14-9.6 5.3-2.2 10.9-3.4 16.8-3.4 6.2 0 11.9 1 16.9 3.1 5 2 9.5 5.1 13.5 9.3 4.6 4.7 7.9 10 10.1 15.9 2 6 3.1 12.4 3.1 19.4zm-14.3.7c0-5.6-.9-11.1-2.7-16.4-1.8-5.3-4.6-9.8-8.5-13.4-2.4-2.3-5.1-4-8.2-5.3-3.2-1.3-6.5-1.8-10-1.8-4.1 0-7.7.6-10.8 2-3.1 1.3-5.9 3.4-8.6 6.2-3.1 3.2-5.7 7.3-7.5 12.3-1.8 5-2.7 10.2-2.7 15.5 0 6.1.9 11.7 2.7 16.8 1.9 5.1 4.9 9.5 9 13.2 2.4 2.1 5 3.7 8.1 4.8 3.1 1.1 6.3 1.6 9.7 1.6 3.8 0 7.2-.6 10.5-2 3.2-1.3 6.1-3.2 8.6-5.7 3.4-3.5 6-7.6 7.8-12.6 1.6-4.7 2.6-9.8 2.6-15.2zM334.9 263.1h-14.1c.1-1.6.2-7.1.2-16.6.1-9.3.2-15.2.2-17.4 0-3.1 0-7.7-.1-13.7 0-6-.1-10.4-.2-13.3-.2-6.8-1.5-11.8-3.9-14.8s-6.7-4.5-12.7-4.5c-3.6 0-8.2 1.1-13.5 3.2-5.3 2.1-10.8 4.9-16.3 8.2 0 .6 0 4.2-.1 10.6-.1 6.4-.1 12.3-.1 17.7 0 6.9.1 15.3.2 25 .2 9.8.2 14.9.2 15.4h-14.1c0-.4.1-4.1.2-11 .2-6.9.2-17.1.2-30.7 0-6.3 0-13.6-.1-22 0-8.4-.2-17.4-.3-26.9h14l-.1 10.3.1.2c8.3-4.8 15.3-8.1 20.9-10s10.2-2.8 13.9-2.8c7.6 0 13.7 2.4 18.4 7.2 4.6 4.8 6.9 11.4 6.9 19.7 0 7.5-.1 14-.2 19.5-.1 5.4-.2 9.9-.2 13.3 0 5.4.1 12.2.2 20.3.3 8.4.4 12.7.4 13.1zM419.8 214.5h-64.7c.1 6.4 1.4 12.1 4 17.4 2.6 5.3 6.7 9.7 12.1 13.1 3.5 2.2 7.4 3.8 11.8 4.9 4.4 1.1 9.7 1.6 15.9 1.6 3.4 0 6.5-.1 9.3-.2 2.8-.2 4.6-.3 5.3-.4l-1.6 11.9c-.5.1-2 .2-4.7.3-2.7.2-5.8.2-9.5.2-9.6 0-17.8-1.3-24.9-3.7-7.1-2.5-12.9-5.9-17.4-10.3-3.8-3.6-7.1-8.3-9.9-14-2.7-5.7-4.1-11.9-4.1-18.8 0-6.8 1-13 3.1-18.5 2-5.5 5.1-10.6 9.1-15.3 3.5-4.1 7.9-7.1 13.1-9.4 5.2-2.2 10.6-3.3 16.3-3.3 5.6 0 10.4.9 14.8 2.5 4.3 1.6 8 4.2 11.2 7.6 3.5 3.8 6.2 8.5 8.1 14.1 1.7 5.9 2.6 12.6 2.7 20.3zm-13.9-9.9c-.9-7.4-3.5-13.2-7.5-17.4-4.1-4.2-9.5-6.3-16.2-6.3s-12.2 2.1-16.7 6.4c-4.5 4.2-7.5 10.1-9.3 17.4h49.7zM504.9 214.1h-64.7c.1 6.4 1.4 12.1 4 17.4 2.6 5.3 6.7 9.7 12.1 13.1 3.5 2.2 7.4 3.8 11.9 4.9 4.4 1.1 9.7 1.6 15.9 1.6 3.4 0 6.5-.1 9.3-.2 2.8-.2 4.6-.3 5.3-.4l-1.6 11.9c-.5.1-2 .2-4.7.3-2.7.2-5.9.2-9.5.2-9.5 0-17.8-1.3-24.9-3.7-7.1-2.5-12.9-5.9-17.4-10.3-3.8-3.6-7.1-8.3-9.9-14s-4.1-11.9-4.1-18.8c0-6.8 1-13 3.1-18.5 2-5.5 5-10.6 9.1-15.3 3.5-4.1 7.9-7.1 13.1-9.4 5.3-2.2 10.7-3.3 16.3-3.3 5.6 0 10.4.9 14.8 2.5 4.3 1.6 8 4.2 11.2 7.6 3.5 3.8 6.2 8.5 8 14.1 1.7 5.8 2.6 12.5 2.7 20.3zm-13.9-10c-.9-7.4-3.5-13.2-7.5-17.4-4.1-4.2-9.5-6.3-16.2-6.3s-12.2 2.1-16.7 6.4c-4.5 4.2-7.5 10.1-9.3 17.4l49.7-.1zM563.8 183c-3.3.8-8.3 2.4-15.1 4.9-6.8 2.5-14.6 5.9-23.4 10.1 0 .6 0 3.7-.1 9s-.1 10.3-.1 14.9c0 7.1.1 15.4.2 25 .2 9.7.2 15.1.2 16.1h-14.1c0-1 .1-4.3.2-10.1.1-5.7.2-15.4.2-29.1 0-5.6 0-13.3-.1-23.2-.1-10-.2-19.3-.2-28.2h13.9V186l.1.1c6.8-3.8 13.4-7.1 19.9-10 6.6-2.8 11.9-4.7 15.8-5.7l2.6 12.6zM64.4 436.2c0 3.1-.8 5.9-2.4 8.3-1.6 2.5-3.9 4.5-6.9 6.1-2.7 1.4-5.7 2.4-8.9 3.1s-6.9.9-11 .9c-3.1 0-6.2-.1-9.4-.2s-5-.2-5.4-.2c.1-6 .2-11.5.2-16.8 0-5.3.1-10.3.1-15.2 0-9.1-.1-16.3-.2-21.6-.1-5.3-.1-8.1-.1-8.2.4 0 2.1-.1 5.1-.2s5.9-.2 8.7-.2c3.1 0 6.1.2 8.8.6s4.9 1 6.8 1.7c2.8 1.1 5 2.7 6.6 4.8 1.6 2.1 2.4 4.6 2.4 7.7 0 3.2-1 6-3.1 8.5-2 2.4-4.3 4.2-6.9 5v.5c2.1.2 4.2.7 6.2 1.5 2 .9 3.8 2 5.3 3.5 1.3 1.3 2.4 2.8 3 4.4.8 1.7 1.1 3.6 1.1 6zm-8 .2c0-1.6-.3-3-.9-4.2-.5-1.3-1.4-2.4-2.5-3.6-1-1-2.5-1.9-4.3-2.6-1.8-.6-3.8-.9-6-.9-1.7 0-3.1 0-4.2.1-1.1 0-1.8.1-2.1.1l-.7-5.6c2.3-.1 4.3-.3 6-.8 1.7-.5 3.3-1.2 4.6-2.1 1.3-.9 2.4-2.1 3.2-3.5.9-1.4 1.3-3.1 1.3-4.9 0-1.9-.5-3.5-1.4-4.9-.9-1.3-2.2-2.4-3.8-3.3-1.3-.6-3.1-1.1-5-1.5-2-.3-4.1-.5-6.4-.5-1.5 0-2.8 0-4 .1-1.3.1-2 .1-2.4.1-.1 4.6-.2 9.3-.2 14.4v11.1c0 5.3 0 10.7.1 16 .1 5.3.1 8.2.1 8.6.6 0 1.4.1 2.5.1 1 .1 2 .1 3 .1 3.5 0 6.8-.2 9.9-.5 3.1-.4 5.7-1.1 7.7-2.4 1.7-.9 3.1-2.2 4-3.8 1.2-1.7 1.5-3.5 1.5-5.6zM76.1 397.9h-8.2v-8h8.2v8zm-.4 55.9h-7.3c0-.5.1-3.5.2-9.1s.1-10.2.1-13.9v-10.5c0-3.8-.1-8.3-.2-13.4h7.3c-.1 4.5-.1 8.6-.2 12.5-.1 3.8-.1 7.4-.1 10.4 0 7.2.1 13 .1 17.4 0 4.2.1 6.5.1 6.6zM122.4 429.5c0 5.1-1.3 9.4-3.8 13-2.5 3.7-5.9 6.4-10.1 8.2-2.7 1.2-5.9 2-9.4 2.6-3.5.5-7.8.8-12.7.8h-4.1c0-2.4.1-6.8.1-13.3.1-6.4.1-14.2.1-23.3 0-5.6 0-11-.1-16.2 0-5.3-.1-10.5-.2-16h7.3l-.2 21.4c6.4.1 11.4.6 15.2 1.7s7 2.5 9.5 4.3c2.7 1.9 4.6 4.2 6 7.1 1.7 2.8 2.4 6 2.4 9.7zm-7.5.1c0-3.8-1-6.9-3.1-9.4s-4.9-4.4-8.2-5.5c-1.7-.6-3.6-1-5.6-1.3-2-.3-4.1-.5-6.2-.5h-2.3v17.9c0 5.2 0 8.8.1 10.9 0 2.1.1 4.3.1 6.5 3.4 0 6.5-.2 9.3-.8 2.8-.5 5.3-1.3 7.3-2.4 3-1.6 5.2-3.6 6.6-6.2 1.3-2.6 2-5.7 2-9.2zM133.9 453.5h-7.3c0-.4.1-4.9.1-13.6.1-8.6.1-15.9.1-21.6v-14c0-5.6-.1-11.9-.2-18.9h7.3c-.1 4.8-.1 10.3-.2 16.6 0 6.3-.1 11.5-.1 15.9 0 9.3 0 17.6.1 24.6.2 6.9.2 10.6.2 11zM178.2 429.4h-33.5c0 3.3.7 6.3 2.1 9 1.3 2.7 3.5 5 6.3 6.8 1.8 1.2 3.8 2 6.1 2.6 2.3.5 5 .9 8.2.9 1.7 0 3.4-.1 4.9-.2 1.5-.1 2.4-.2 2.7-.2l-.9 6.2c-.2 0-1.1.1-2.4.2-1.4.1-3.1.1-4.9.1-4.9 0-9.3-.6-13-1.9-3.7-1.3-6.7-3.1-9-5.3-2-1.9-3.7-4.3-5.1-7.2-1.4-2.9-2.1-6.2-2.1-9.8 0-3.5.5-6.7 1.6-9.6 1-2.8 2.6-5.5 4.7-7.9 1.8-2.1 4.1-3.7 6.8-4.9 2.7-1.1 5.5-1.7 8.4-1.7 2.9 0 5.4.5 7.6 1.3 2.2.9 4.2 2.2 5.8 3.9 1.8 2 3.2 4.4 4.2 7.3 1 2.9 1.5 6.4 1.5 10.4zm-7.2-5.2c-.5-3.8-1.8-6.8-3.9-9s-4.9-3.3-8.4-3.3-6.4 1.1-8.6 3.3c-2.4 2.2-3.9 5.2-4.8 9H171zM251.5 399.2c-.5 0-2.6 0-6.2-.1-3.6 0-9.2-.1-16.6-.1-.1 6.4-.1 11.2-.2 14.4 0 3.3-.1 7.8-.1 13.4 0 5.4 0 11 .1 16.6.1 5.7.1 9.3.1 11.2H221c.1-1.9.1-5.7.2-11.4s.1-11.3.1-16.8v-12.9c0-3.1-.1-8.1-.2-14.7h-16c-4.1.1-6.4.1-6.8.1v-6.4c3.2 0 7.1 0 11.6.1 4.6 0 9.4.1 14.6.1 7.5 0 13.7 0 18.8-.1 5 0 7.8-.1 8.2-.1v6.7z"/><path fill="#fff" d="M267 413.3c-1.7.4-4.3 1.3-7.9 2.6-3.5 1.3-7.5 3.1-12.1 5.2 0 .3 0 1.9-.1 4.6 0 2.7-.1 5.3-.1 7.7 0 3.6 0 8 .2 13 .1 5 .1 7.8.1 8.3h-7.3c0-.5 0-2.3.1-5.2.1-2.9.1-7.9.1-15.1 0-2.9 0-6.9-.1-12.1 0-5.2-.1-10.1-.2-14.6h7.2v7.1l.1.1c3.5-2 6.9-3.7 10.4-5.2 3.4-1.4 6.1-2.4 8.2-3l1.4 6.6zM303.5 427.8v18.8c0 4.9-.1 7.5-.1 7.8-.3 0-1.7.2-4.3.3-2.6.2-5.9.3-9.9.3-2.5 0-5.1-.2-7.7-.7-2.6-.5-4.8-1.1-6.7-2-2.4-1.2-4.5-2.7-6-4.7s-2.3-4.4-2.3-7.1c0-2.9.9-5.5 2.7-7.6 1.8-2.1 4.3-3.9 7.5-5.2 2-.9 4.7-1.6 8.1-2.3 3.4-.6 7.2-1.2 11.5-1.5-.2-2.4-.8-4.4-1.8-6-1-1.6-2.5-2.7-4.5-3.5-1.3-.5-2.9-.9-4.6-1.2-1.6-.2-3.6-.3-5.8-.3-1.4 0-2.6 0-3.5.1-.9.1-2.3.2-3.9.2l.7-6.2c.5 0 1.4-.1 2.7-.2 1.4-.1 3.3-.1 5.7-.1 3.6 0 6.9.4 9.7 1.1 2.8.8 5.3 2 7.1 3.7 1.8 1.6 3.1 3.6 4 6 .9 2.5 1.4 5.8 1.4 10.3zm-7.1 11.2v-4c0-1.6 0-3.5-.1-5.6-1.3.1-3.8.3-7.1.8-3.4.5-6.3 1.2-8.6 2-1.7.6-3.3 1.6-4.6 2.9-1.3 1.3-2 2.9-2 4.8 0 2.1.5 3.8 1.7 5.1 1.2 1.3 2.7 2.3 4.7 3 1.5.5 3.2.9 5 1.1 1.8.2 3.8.3 5.8.3.6 0 1.3 0 2.3-.1.9 0 1.8-.1 2.8-.1v-3.1c.1-1.6.1-4 .1-7.1zM348.5 454.8h-7.3c0-.9.1-3.7.1-8.6.1-4.9.1-7.9.1-9v-7.1c0-3.1-.1-5.4-.1-6.9-.1-3.5-.8-6.1-2-7.6-1.3-1.6-3.5-2.4-6.6-2.4-1.9 0-4.2.5-7 1.6-2.7 1.1-5.6 2.5-8.4 4.2 0 .3 0 2.2-.1 5.5 0 3.4-.1 6.4-.1 9.1 0 3.6 0 7.9.1 13s.1 7.7.1 8H310c0-.2 0-2.1.1-5.7s.1-8.9.1-15.9v-11.4c0-4.4-.1-9-.2-13.9h7.2l-.1 5.3.1.1c4.3-2.5 7.9-4.2 10.8-5.2 2.9-.9 5.3-1.5 7.2-1.5 3.9 0 7.1 1.3 9.5 3.8 2.4 2.5 3.6 5.9 3.6 10.2 0 3.9 0 7.2-.1 10.1 0 2.8-.1 5.1-.1 6.9 0 2.8 0 6.4.1 10.5.2 4.5.3 6.7.3 6.9zM384.7 441.2c0 2.3-.5 4.3-1.6 6.1-1.1 1.8-2.6 3.2-4.4 4.4-1.9 1.2-4.2 2-6.7 2.7-2.6.6-5.4.9-8.6.9-1.5 0-3.1-.1-4.7-.2-1.6-.2-2.5-.2-2.7-.2l-.3-6c.3 0 1.3.1 3.2.2 1.9.2 3.8.2 5.6.2 1.1 0 2.4-.1 4.2-.2 1.7-.2 3.1-.5 4.2-1 1.6-.7 2.7-1.5 3.5-2.5.7-1 1.1-2.2 1.1-3.6 0-1.3-.3-2.3-.9-3.1-.6-.8-1.6-1.6-2.7-2.3-1.3-.9-2.9-1.7-5.1-2.7-2.1-.9-3.9-1.8-5.4-2.7-2-1.3-3.7-2.7-4.7-4.5-1.1-1.7-1.6-3.8-1.6-6s.6-4.3 1.9-6.2c1.3-1.8 2.9-3.3 5-4.4 1.8-1 3.8-1.6 6-2s4.4-.5 6.4-.5c1.9 0 3.5 0 4.6.1s1.9.1 2.1.1l.5 6.2c-.2 0-1.2-.1-2.8-.2-1.7-.2-3.5-.2-5.6-.2-1.4 0-2.7.2-4.1.4-1.3.2-2.4.6-3.3 1.1-1.3.7-2.3 1.5-2.8 2.4-.5.9-.9 1.9-.9 2.7 0 1.3.4 2.3 1.2 3.2.8.9 1.7 1.6 2.8 2.3 1.3.7 3 1.6 5.2 2.7 2.2 1 3.8 1.9 4.8 2.4 2.2 1.3 3.8 2.9 4.9 4.6 1 1.5 1.7 3.5 1.7 5.8zM397.4 454.8h-7.3c0-.4.1-4.9.1-13.6.1-8.6.1-15.9.1-21.6v-14c0-5.6-.1-11.9-.2-18.9h7.3c-.1 4.8-.1 10.3-.2 16.6 0 6.3-.1 11.5-.1 15.9 0 9.3 0 17.6.1 24.6s.2 10.6.2 11zM438.9 428.4c0 7.7 0 13.9-.1 18.8 0 4.8-.1 7.5-.1 7.8-.3 0-1.7.2-4.3.3-2.6.2-5.9.3-9.9.3-2.5 0-5.1-.2-7.7-.7-2.6-.5-4.8-1.1-6.6-2-2.5-1.2-4.5-2.7-6-4.7s-2.3-4.4-2.3-7.1c0-2.9.9-5.5 2.7-7.6 1.8-2.1 4.3-3.9 7.5-5.3 2-.9 4.7-1.6 8.1-2.3 3.4-.6 7.2-1.2 11.5-1.5-.2-2.4-.8-4.4-1.8-6s-2.5-2.7-4.5-3.5c-1.3-.5-2.9-.9-4.6-1.2-1.6-.2-3.6-.3-5.8-.3-1.4 0-2.6 0-3.5.1-.9.1-2.3.2-3.9.2l.7-6.2c.5 0 1.4-.1 2.7-.2 1.4-.1 3.2-.1 5.7-.1 3.6 0 6.9.4 9.7 1.1 2.8.8 5.3 2 7.1 3.7 1.8 1.6 3.1 3.6 4 6 1 2.4 1.4 5.9 1.4 10.4zm-7 11.1v-4c0-1.6 0-3.5-.1-5.6-1.3.1-3.8.3-7.1.8-3.4.5-6.3 1.2-8.6 2-1.7.6-3.3 1.6-4.6 2.9-1.3 1.3-2 2.9-2 4.8 0 2.1.5 3.8 1.7 5.1 1.1 1.3 2.7 2.3 4.7 3 1.5.5 3.2.9 5 1.1 1.8.2 3.8.4 5.8.4.6 0 1.3 0 2.3-.1.9 0 1.9-.1 2.8-.1v-3.1c.1-1.6.1-4.1.1-7.2zM473.9 450.8l-.9 5.9c-.2 0-.8.1-1.6.1-.9 0-1.6.1-2.2.1-6.4 0-11.2-1.3-14.4-4-3.2-2.7-4.9-6.7-4.9-12.2 0-3.5 0-7.1.1-11.1.1-3.9.1-8.8.1-14.6h-7.8v-5.4h8.2v-11h6.8v11H474v5.4h-16.6c0 .6 0 2.6-.1 5.8-.1 3.2-.1 5.6-.1 7.1v11.6c0 4 1.1 6.9 3.2 8.7 2.2 1.8 5.5 2.7 10.1 2.7h2c.7-.1 1.2-.1 1.4-.1z"/><path fill="#fff" d="M518.8 432.3c0 3.6-.6 7-1.9 10.3-1.3 3.3-3.1 6-5.6 8.4-2 2-4.3 3.5-6.8 4.5s-5.3 1.5-8.5 1.5c-3 0-5.7-.5-8.3-1.5-2.6-1-4.9-2.5-7-4.4-2.4-2.3-4.2-5-5.4-8.3-1.3-3.3-1.9-6.8-1.9-10.5 0-3.5.5-6.8 1.6-9.8 1.1-3 2.8-5.7 5.1-8.1 2-2.2 4.5-3.8 7.2-4.9 2.7-1.2 5.7-1.7 8.7-1.7 3.2 0 6.1.5 8.7 1.6 2.6 1 4.9 2.7 7 4.8 2.4 2.4 4.1 5.2 5.3 8.2 1.2 2.9 1.8 6.2 1.8 9.9zm-7.4.3c0-2.9-.5-5.7-1.4-8.5-.9-2.7-2.4-5.1-4.4-7-1.2-1.2-2.7-2-4.3-2.7-1.6-.6-3.4-.9-5.2-.9-2.1 0-4 .3-5.6 1s-3.1 1.7-4.5 3.2c-1.6 1.6-2.9 3.8-3.8 6.4-.9 2.6-1.4 5.3-1.4 8.1 0 3.1.5 6 1.4 8.7.9 2.7 2.5 4.9 4.6 6.8 1.2 1.1 2.6 1.9 4.2 2.5 1.6.5 3.2.9 5 .9 2 0 3.8-.3 5.4-1 1.7-.7 3.1-1.6 4.4-3 1.7-1.8 3.1-3.9 4-6.5 1.1-2.6 1.6-5.3 1.6-8zM551.6 414.2c-1.7.4-4.3 1.3-7.9 2.6-3.5 1.3-7.5 3.1-12.2 5.2 0 .3 0 1.9-.1 4.6 0 2.7-.1 5.3-.1 7.7 0 3.7 0 8 .1 13s.1 7.8.1 8.3h-7.3c0-.5 0-2.3.1-5.2.1-2.9.1-7.9.1-15.1 0-2.9 0-6.9-.1-12.1 0-5.2-.1-10.1-.2-14.6h7.2v7.1l.1.1c3.5-2 7-3.7 10.4-5.2 3.4-1.4 6.1-2.4 8.2-3l1.6 6.6zM582.2 442c0 2.3-.5 4.3-1.6 6.1-1.1 1.8-2.6 3.2-4.4 4.4-1.9 1.2-4.2 2-6.7 2.7-2.6.6-5.4.9-8.6.9-1.5 0-3.1-.1-4.7-.2-1.6-.2-2.5-.2-2.7-.2l-.3-6c.3 0 1.3.1 3.2.2 1.9.2 3.8.2 5.6.2 1.1 0 2.4-.1 4.2-.3 1.7-.2 3.1-.5 4.2-1 1.6-.7 2.7-1.5 3.5-2.5.7-1 1.1-2.2 1.1-3.6 0-1.3-.3-2.3-.9-3.1-.6-.8-1.6-1.6-2.7-2.3-1.3-.9-2.9-1.7-5.1-2.7-2.1-.9-3.9-1.9-5.4-2.7-2-1.3-3.7-2.7-4.7-4.5-1.1-1.7-1.6-3.8-1.6-6 0-2.3.6-4.3 1.9-6.2 1.3-1.8 2.9-3.3 5-4.4 1.8-1 3.8-1.6 6-2 2.2-.3 4.3-.5 6.4-.5 1.9 0 3.5 0 4.6.1 1.2.1 1.9.1 2.1.1l.5 6.2c-.2 0-1.2-.1-2.8-.2-1.7-.2-3.5-.2-5.6-.2-1.4 0-2.8.2-4.1.4-1.3.2-2.4.6-3.3 1-1.3.7-2.3 1.5-2.8 2.4-.5.9-.9 1.9-.9 2.7 0 1.3.4 2.3 1.2 3.2.8.9 1.7 1.6 2.8 2.3 1.3.7 3 1.6 5.2 2.7 2.2 1 3.8 1.8 4.8 2.4 2.2 1.3 3.8 2.9 4.9 4.6 1.1 1.8 1.7 3.7 1.7 6z"/><g><path fill="#fff" d="M303.2 374.1c1.8 0 3.8-.2 5.9-.5 6.4-1.3 12.8-3.7 19-5.9 8-3 16.3-6 24.6-6.7 24.2-1.9 49-.8 72.9.3 2.8.2 5.6.2 8.4.4 24.2 1.1 50.2 1.5 82 1.3 32.1-.2 57.9-2.9 81-8.5l-2.2-9.3c-22.5 5.4-47.5 8.1-78.9 8.2-31.6.2-57.5-.2-81.5-1.3-2.8-.2-5.6-.2-8.4-.4-24.3-1.1-49.3-2.3-74.1-.3-9.5.7-18.5 4-27 7.2-6.1 2.3-11.9 4.4-17.6 5.6-2.9.6-5.3.4-8.5.2-1.1-.1-2.2-.2-3.5-.2l-.5 9.6c1.2.1 2.2.2 3.2.2 1.7-.1 3.4.1 5.2.1z"/><path fill="#fff" d="M302.6 374.1c.7 0 1.5 0 2.2-.1l-.4-9.6c-10.7.4-19.7-2.8-29.3-6.3-8.2-3-16.6-6-26.4-6.8-24.7-2-49.8-.8-74 .3-2.8.2-5.6.2-8.4.4-24 1-49.9 1.5-81.4 1.3-31.3-.2-56.4-2.8-78.8-8.2l-2.2 9.3c23.2 5.7 48.9 8.3 81 8.5 31.7.2 57.7-.2 81.9-1.3 2.8-.2 5.6-.2 8.4-.4 23.9-1.1 48.8-2.3 72.9-.3 8.5.7 16 3.4 24 6.3 9.4 3.4 19.1 6.9 30.5 6.9zM251.5 329.4l.9-2.2c-11.9-5.1-24.1-10.1-41.8-15.7-20.5-6.4-40-8.4-67.5-10.6-19.8-1.6-38.6-3.3-52.5-5.7-29.7-5.3-44.3-15.2-44.4-15.3l-1.3 2c.6.4 15.2 10.4 45.4 15.7 12.7 2.3 28.3 3.8 52.8 5.7 27.2 2.2 46.6 4.2 66.9 10.5 17.5 5.5 29.6 10.5 41.5 15.6zM329.6 349.6l9.6-3.9c36.3-14.8 67.6-27.7 107.5-24.8 9.8.7 20.4 2.3 31.6 3.9 34 5 72.6 10.8 101.3-6.4l-2.7-4.9c-27.1 16.2-64.6 10.7-97.8 5.7-11.3-1.6-22-3.3-32-4-41.1-3-73 10.1-109.9 25.2-3.1 1.3-6.3 2.6-9.5 3.9l1.9 5.3zM268.2 349.6l2-5.2c-3.2-1.3-6.4-2.6-9.5-3.9-36.9-15.2-68.8-28.2-109.9-25.2-10 .7-20.7 2.3-32 4-33.1 4.9-70.6 10.4-97.8-5.7l-2.7 4.9c28.8 17.2 67.3 11.5 101.3 6.4 11.2-1.6 21.8-3.2 31.6-3.9 39.9-2.9 71.2 9.9 107.5 24.8 3.2 1.2 6.3 2.5 9.5 3.8z"/></g></g></svg>
