<svg id="Layer_1" xmlns="http://www.w3.org/2000/svg" viewBox="0 0 500 500"><path fill="#30327f" d="M405.9 353.4c-1 .2-103 20.5-160.9 20.5-57.9 0-163-14.5-164-14.7l-4.6-.6 3.3 3.3c32.7 32.7 25.9 71.6 25.9 72l-.3 1.7 1.8.1c1.8.1 13.2.9 29.8 1.9-.1-1.1-.2-2.1-.3-3.2-13.8-.9-23.8-1.5-27.7-1.8.9-7.8 2.8-40.6-23.9-69.7 20.7 2.8 108.7 14.1 160 14.1 32.7 0 79.4-6.4 114.1-12.1l3-1.2s-.1.3-.3.8c15.3-2.5 28.1-4.9 36-6.4-9.5 6.5-25.2 19.8-31.3 40.4-8.1 26.9-23.4 39.4-52.7 42.7-1 1.2-2 2.3-3 3.5.6 0 1.2-.1 1.7-.1 31.5-3.1 48.6-16.6 57.1-45.1 8.5-28.3 37.1-42.9 37.3-43.1l10.5-5.2-11.5 2.2z"/><path d="M361.9 364.5c.2-.5.3-.8.3-.8s-1.1.4-3 1.2c-15.8 6.2-89.5 34.3-126 37-41 2.9-73.3-29.3-73.3-29.3-1.7-1.7-25.3 30-23.4 61.9.1 1.1.2 2.1.3 3.2 2.4 20.9 16.4 41.4 55.3 52.2 49.3 13.7 89.7-12.9 118.7-45.1 1-1.1 2-2.3 3-3.5 28.8-33.3 45.6-71.1 48.1-76.8z" fill="#a5afff"/><g id="Layer_6"><path fill="#30327f" d="M162.8 439.9l8.8-17.6s0 5.9 5.9 5.9 11.7-5.9 11.7-5.9l11.7 5.9c5.9 2.9 11.7 8.8 5.9 8.8h-17.6l-5.9 5.9-5.9-8.8c.1 0-8.7-3-14.6 5.8zm3 25.9l7.2-14.5s0 4.8 4.8 4.8 9.6-4.8 9.6-4.8l9.6 4.8c4.8 2.4 9.6 7.2 4.8 7.2h-14.5l-4.8 4.8-4.8-7.2c.1.1-7.1-2.3-11.9 4.9zm45.5-9.7l3.9-12.1s.5 3.8 4.3 3.1c3.8-.5 6.9-4.9 6.9-4.9s4 1.3 8.1 2.6c4.1 1.4 8.4 4.5 4.6 5-3.8.5-11.2 1.7-11.2 1.7l-3.1 4.3-4.6-5c-.1.1-6-.9-8.9 5.3zm4.4 24.2l6.7-13.3s0 4.4 4.4 4.4 8.9-4.4 8.9-4.4 4.4 2.2 8.9 4.4c4.4 2.2 8.9 6.7 4.4 6.7h-13.3l-4.4 4.4-4.4-6.7c-.1.1-6.8-2.2-11.2 4.5zm40.5-25.4l2.4-12.5s1 3.7 4.7 2.6c3.7-1 6.3-5.8 6.3-5.8s4.2.8 8.3 1.6c4.2.8 8.8 3.4 5.2 4.4-3.7 1-10.9 3.1-10.9 3.1l-2.6 4.7-5.2-4.4c-.1 0-6.1-.2-8.2 6.3zm5 18.8l3.9-12.1s.5 3.8 4.3 3.1c3.8-.5 6.9-4.9 6.9-4.9s4 1.3 8.1 2.6c4 1.3 8.4 4.5 4.6 5-3.8.5-11.2 1.7-11.2 1.7l-3.1 4.3-4.6-5c-.1.1-6.1-.9-8.9 5.3zm35.1-22.9l-3-12.4s2.5 2.8 5.3.4c2.8-2.5 3.2-7.8 3.2-7.8l8.2-2.1c4.1-1 9.4-.6 6.6 1.9-2.8 2.5-8.6 7.4-8.6 7.4l-.4 5.3-6.6-1.9c0 .1-5.6 2.4-4.7 9.2zm5.8-23.4l-3-12.4s2.5 2.8 5.3.4c2.8-2.5 3.2-7.8 3.2-7.8l8.2-2.1c4.1-1 9.4-.6 6.6 1.9-2.8 2.5-8.6 7.4-8.6 7.4l-.4 5.3-6.6-1.9c.1.1-5.5 2.3-4.7 9.2z"/></g><path fill="#30327f" d="M362 366.1l5.2-5.5-7.1 3.1c-.7.3-73.6 32.2-125.5 35.1-10.2.6-19.4-.2-27.4-1.8l-.3-.1c-27.9-5.7-42.8-21.5-46-25.4-.2-.3-.5-.5-.8-.6v-.1l-.5-4.1-2.3 3.4c-1.3 1.9-30.9 46.2-18 82.5 6.2 17.5 21.5 30 45.2 37.2 11.4 3.4 22.6 5.1 33.5 5.1 2.3 0 4.6-.1 6.8-.2v.1l.1-.1c43.9-3 83.6-34.2 118.5-93.4.4-.5.7-1 1-1.4 2-2.8 3.1-4.5 3.1-4.5l-.5-.3c5.1-9.1 10.1-18.7 15-29zm-91 95.8c.5-2.1.9-4.3 1.3-6.6 6.8-2.4 13.2-5.2 19-8.3-.1.9-.3 1.8-.4 2.7-6 4.4-12.7 8.5-19.9 12.2zm19.1-7.7c-1 4.7-2.4 8.8-4.1 12.1-6.8 5.4-13.8 10-20.9 13.7 2-3.9 3.6-8.7 5-14 7.2-3.6 13.8-7.6 20-11.8zm-148-2.6c-1.3-3.8-2.2-7.7-2.6-11.6 2.1-1.5 7.8-6 14.7-14.6.9 5.5 2.3 11 4.4 16.3-4.5 5-9.7 9.3-15.5 12.3-.3-.7-.7-1.5-1-2.4zm14.8-29.7c.4-.6.8-1.2 1.3-1.8 1.4 3.6 3.1 7.2 5.3 10.7.6.9 1.1 1.7 1.7 2.6-1.3 1.9-2.8 3.8-4.3 5.7-1.9-5.6-3.2-11.4-4-17.2zm-.8-8.2c.2.9.5 1.8.7 2.6-.2.2-.3.5-.5.7 0-1.1-.1-2.2-.2-3.3zm59.7 4.6c-2.4 5.5-5.4 11.9-8.9 18.6-4.7-1.5-9.1-3.7-13.2-6.4 3.1-5.2 5.8-10.3 8.1-14.8 4.4 1 9 1.9 14 2.6zm-12.6-5.5c2.6-5.3 4.5-9.7 5.6-12.3 4.2.8 8.7 1.3 13.4 1.5-.6 1.7-2.4 6.6-5.1 13.2-5.1-.6-9.7-1.4-13.9-2.4zM342.9 387c-.1-1.5-.3-2.9-.5-4.2 4-2.9 7.4-5.7 10.2-8.1-2.5 3.6-5.7 7.8-9.7 12.3zm-3.1 3.5c-2.9 3.1-6 6.3-9.5 9.6 0-3.2 0-6.1-.1-8.9 3.3-2.1 6.5-4.2 9.3-6.3.2 1.8.4 3.6.3 5.6zm-173.7 38.6c-2.5-4-4.4-8.1-5.8-12.3 2.4-3.7 4.8-7.8 7.2-12.5.3.5.5 1 .8 1.5 2 3.8 4.2 7.3 6.6 10.5-2.2 4.6-4.8 9.5-7.9 14.2-.2-.4-.5-.9-.9-1.4zm11.1-9.8c3.7 4.7 7.9 8.7 12.4 12-2.7 4.4-5.6 8.8-8.7 13.1-4.5-3.2-8.4-6.8-11.7-11 3-4.7 5.7-9.5 8-14.1zm15 13.8c4.1 2.7 8.6 4.9 13.3 6.6-2.4 4.4-5 8.8-7.8 13.1-5.2-1.8-9.9-4-14.2-6.7 3.1-4.3 6-8.7 8.7-13zm16.4 7.5c4.5 1.3 9.3 2.1 14.2 2.3.9 0 1.9.1 2.8.1-2 4.9-4.2 9.8-6.5 14.6-.6-.1-1.2-.1-1.7-.2-5.9-.8-11.5-2.1-16.5-3.6 2.7-4.3 5.3-8.8 7.7-13.2zm20.4 2.6h1.9c6.7 0 13.1-.5 19.3-1.3-1.3 5.4-2.8 10.8-4.7 16.1-7.3.8-15 .8-23.1 0 2.4-4.8 4.6-9.9 6.6-14.8zm22-4.5c-6.4.9-13.1 1.4-20.1 1.4h-.7c2.9-7.3 5.4-14.3 7.4-20.3 5.8 0 11.5-.4 17.1-1-.9 5.9-2.1 12.8-3.7 19.9zm7-20.4c5.3-.7 10.5-1.7 15.5-2.9-.3 5.7-.8 12-1.4 18.6-5.6 1.7-11.5 3.1-17.6 4.1 1.5-7 2.7-13.8 3.5-19.8zm-4.3 23.1c6.3-1 12.3-2.4 18-4-.6 5.2-1.3 10.5-2.1 15.5-6.4 2.1-13.2 3.7-20.5 4.7 1.8-5.3 3.3-10.8 4.6-16.2zm21.3-5c6.3-2 12.3-4.4 17.8-7-.2 4.6-.5 9.3-1 13.8-5.8 3.2-12.1 6.2-18.9 8.6.9-5.1 1.6-10.3 2.1-15.4zm.4-3.4c.6-6.5 1-12.8 1.3-18.3 5.7-1.5 11.1-3.2 16.2-5 .1 5 .2 10.5 0 16.2-5.4 2.6-11.2 5-17.5 7.1zm20.7-24.6c5.5-2.1 10.6-4.4 15.3-6.7.2 4 .4 8.4.3 13.2-4.7 3.2-9.9 6.4-15.5 9.3.1-5.6.1-10.9-.1-15.8zm18.4-8.2c4-2.1 7.7-4.1 11.1-6.1l1.5-.9c.1 3 .1 6.4 0 9.9-.4.3-.7.6-1.1.9-3.3 2.9-7 5.8-11.1 8.8 0-4.6-.2-8.8-.4-12.6zm12.3 7.2c-.2 3.2-.6 6.4-1.1 9.6-3.4 3.5-7.3 7.1-11.5 10.7.3-3.8.5-7.5.6-11.1 4.4-3.1 8.4-6.2 12-9.2zm3.4-3c3.3-3 6.4-6 9.2-8.9-.4 2.7-1.2 5.6-2.4 8.6l.1.1c-2.1 2.7-4.7 5.7-7.7 8.9.4-2.9.7-5.8.8-8.7zm-.2-16.9c-.2-3.7-.5-6.6-.7-8.3 2.9-1 5.6-2.1 8.2-3 .5 1.3 1 3.1 1.5 5.2-2.8 2-5.8 4-9 6.1zm-3 1.9c-3.9 2.4-8.2 4.9-12.7 7.3-.4-5.3-1-9.4-1.4-11.8 4.7-1.5 9.1-3.1 13.4-4.6.2 2 .5 5.2.7 9.1zm-15.8 8.8c-4.8 2.4-9.9 4.7-15.2 6.8-.3-6.7-.7-12-.9-14.7 5.1-1.5 10-3 14.8-4.5.3 2.7.9 7 1.3 12.4zm-18.4 8.1c-5.1 1.9-10.4 3.6-16 5.1.3-7.7.4-13.7.4-16.2 4.9-1.2 9.8-2.5 14.7-3.9.3 2.9.7 8.3.9 15zm-19.2 5.9c-4.9 1.2-10 2.2-15.2 2.9 1-7.8 1.5-13.8 1.7-16.3 4.6-.9 9.3-1.8 14-2.9 0 2.9-.1 8.8-.5 16.3zm-18.4 3.3c-5.4.6-10.9 1-16.5 1.1 2.7-8.4 4.4-14.3 4.6-15.3 4.5-.5 9-1.1 13.7-1.9-.3 2.8-.8 8.7-1.8 16.1zM226.9 440c-1.3 0-2.6-.1-3.9-.2-4.5-.2-8.8-.9-12.9-2 3.6-6.9 6.7-13.5 9.1-19.2 4 .4 8.2.8 12.5.9.9 0 1.8 0 2.6.1-2.1 6.1-4.6 13.2-7.4 20.4zm-35.8-11.4c-4.5-3.4-8.7-7.6-12.4-12.5 1.3-2.8 2.4-5.4 3.4-7.9 4.9 2.7 10.4 4.9 16.6 6.6-2.2 4.3-4.7 9-7.6 13.8zm-14.6-15.5c-1.9-2.7-3.6-5.6-5.2-8.6-.7-1.2-1.3-2.4-1.8-3.7.2-.4.4-.8.6-1.3 2.7 2.6 5.8 4.9 9.2 7-.9 2.1-1.8 4.3-2.8 6.6zm-5.2-16.5c1.3-2.8 2.5-5.9 3.7-9 2.7 1.7 5.7 3.4 9 5-.6 2.2-1.9 6.2-3.7 11.1-3.6-2.3-6.5-4.6-9-7.1zm-5.4 4.2c-2.2 4.4-4.4 8.4-6.7 12-2.7-10.8-2.4-21.4-1.5-29.2.2-1.1.3-2.1.5-3 .5 1.8 1.2 3.7 2.1 5.7 1.4 4.3 3.2 9.3 5.6 14.5zm1.4 35.3c3.3 4.1 7.2 7.7 11.6 10.8-2.6 3.4-5.3 6.6-8.2 9.6-.9-1-1.7-2.1-2.5-3.2-2.4-3.4-4.3-7-5.9-10.8 1.7-2.1 3.4-4.2 5-6.4zm16.4 34.7c-3.8 4-7.9 7.6-12.2 10.4l.4.6c-6.2-2.9-11.5-6.2-15.9-10.1 5.1-2.6 10-6.3 14.6-10.7 3.8 3.9 8.2 7.2 13.1 9.8zm-10.8-12c3.1-3.1 6-6.6 8.7-10.2 4.3 2.7 9 5 14.3 6.9-3.1 4.6-6.4 8.9-10 12.9-4.9-2.5-9.3-5.7-13-9.6zm26.1-2.3c5.5 1.8 11.5 3.1 17.9 4 .2 0 .5.1.7.1-2.6 5.1-5.3 10-8.2 14.2-7.6-.7-14.5-2.4-20.5-5 3.6-4.1 7-8.6 10.1-13.3zm22 4.6c8.2.9 16 .9 23.4.3-1.6 4.2-3.3 8.2-5.3 11.9-8.4 1.7-17.1 2.4-26.2 1.9 2.9-4.4 5.6-9.1 8.1-14.1zm27-.2c7.4-.9 14.4-2.5 21-4.5-.5 2.5-1 4.9-1.6 7.3-7.6 3.6-15.7 6.6-24.2 8.7 1.7-3.6 3.3-7.5 4.8-11.5zm46.8-15.8c3.6-2.1 7.1-4.3 10.3-6.5-3.3 2.8-6.8 5.7-10.5 8.5.1-.7.2-1.3.2-2zm.5-3.9c.4-4.4.7-8.9.9-13.4 5.6-2.8 10.8-5.9 15.5-9-.1 3.8-.4 7.7-.9 11.7-4.6 3.6-9.7 7.2-15.5 10.7zm28.9-16.7c-.1.3-.1.5-.2.8-3.8 5.2-7.6 10.1-11.5 14.7.3-1.5.5-3.1.8-4.6 3.9-3.7 7.6-7.3 10.9-10.9zm18.2-27.8c.3-1.7.5-3.4.6-5 2.3-2.6 4.5-5.1 6.4-7.4-2.4 4.3-4.7 8.4-7 12.4zm-.6-17.4c-.4-1.7-.9-3.1-1.3-4.3 5.1-1.9 9.4-3.7 12.8-5-2.9 2.6-6.8 5.8-11.5 9.3zM234.7 402c1.7-.1 3.4-.2 5.2-.4-.7 2.3-2.2 7.8-4.6 14.9-1.2 0-2.4 0-3.6-.1-4-.2-7.8-.4-11.4-.8 3.1-7.5 4.8-12.6 5-13.3l-.8-.3c3.4.2 6.7.2 10.2 0zm-34.6 10c-6.7-1.8-12.2-4.1-16.9-6.7 1.8-4.9 3.1-8.9 3.8-11.4 5.4 2.4 11.7 4.5 18.7 6-1.2 2.7-3.1 6.9-5.6 12.1zm-27.8-26.2c-1.1 2.9-2.2 5.7-3.3 8.3-2.4-2.8-4.2-5.6-5.5-8.3-1.1-3.7-1.9-6.9-2.5-9.4 2.5 2.5 6.2 5.9 11.3 9.4zm-17.3-5.9c-.2 1-.3 2.1-.5 3.2-1.5 9.6-2.8 23.5-1 37.9-6.1 8.1-11.4 12.9-14.3 15.3-1.1-22 9.4-44.7 15.8-56.4zm-10.6 77c5.8-3 11-7.1 15.5-11.9 1.6 3.5 3.5 6.8 5.7 10 .9 1.3 1.9 2.5 2.8 3.6-4.7 4.6-9.7 8.3-14.9 10.8-3.7-3.7-6.8-7.9-9.1-12.5zm30.1 26.1c4.3-3 8.3-6.6 12.2-10.7 6.1 2.8 13 4.6 20.7 5.5-3.9 5.3-8.1 9.4-12.3 11.5-3.2-.7-6.5-1.5-9.8-2.5-3.8-1.1-7.4-2.4-10.8-3.8zm43.2 8.8c-6 0-12-.5-18.1-1.6 3.9-2.8 7.7-7 11.3-12.1h.3c2.6.2 5.1.3 7.6.3 6.3 0 12.4-.6 18.3-1.6-3.7 6.3-8.1 11.4-13.2 14.8-2 .1-4.1.2-6.2.2zm23.6-15.8c8.8-1.9 17.2-4.8 25.1-8.4-1.8 6.2-3.9 11.4-6.6 14.8-9.8 4.5-19.7 7.3-30 8.6 4.5-3.9 8.2-9.1 11.5-15zm49.9-14.1c1.1-3.1 1.9-6.6 2.6-10.4 5.7-4.1 11-8.4 15.6-12.6l.1-.1c-.4 2-.8 4.1-1.3 6.1-5.5 6.3-11.2 12-17 17z"/><g><path fill="#30327f" d="M364.5 353.8l-116.9-65.5c-.1.1-.3.1-.4.2l.2 3.3 109.5 61.4-41.4 14.8-67.7-70.6.3 4.9 66.5 69.4 49.9-17.9zM198.1 360.8h-29.4c-.2-4 .5-17.5 14.6-38.6 12.6-18.9 28.4-27.1 35.9-30.1v-3.4c-7.3 2.7-24.6 11-38.5 31.8-17.8 26.6-15 41.6-14.9 42.3l.3 1.3H201l.1-1.5c.7-13.7 5.3-47.5 17.9-55.5v-3.6c-16.6 7.6-20.4 48.7-20.9 57.3zM160.9 238.9l15.2-15.2 43.2 40.7v-4.3L176 219.3l-20 20.1 63.2 41.2v-3.7zM315 224.7c-1.4 1.7-6.8 7.2-28.5 25-12.8 10.5-23.3 16.8-31.3 20.5-4.8 3.3-7.7 5.3-7.8 5.4l-.9.6.1.9c8.4-2.6 22.6-9.1 42-25 18.6-15.2 25.8-21.8 28.5-25l9.4 11.7c-5.8 4.5-30.5 23.5-48.3 31.1-11.5 4.9-23.1 10.8-31 15l.2 3.4c.1-.1.2-.1.4-.2 7.9-4.2 19.8-10.3 31.7-15.4 20.5-8.8 49-31.5 50.3-32.5l1.2-1-12.5-15.6-.3-.9h-3.3l-.6.6.7 1.4z"/><path d="M227 20.2l47.1 59.6c.1.1 11.9 14.3 21.1 34 12.2 26.3 14.1 50.6 5.5 70.2-18.6 42.5-49.6 61.4-55.5 64.7l2.5 22.8c9.1-6.2 44.9-31 65-51.2 23-22.9 23-43.3 23-69.2 0-21.5-19.5-49.5-52.2-75-21.9-17-50.2-50.6-59-61.3l-2.9 344.9 26.1-13.1L227 20.2z" fill="#a8bafc"/><path fill="#30327f" d="M247.4 291.8l-.2-3.3-.2-3.5-.5-8-.1-.9.9-.6c.1-.1 3.1-2.1 7.8-5.4 13.5-9.4 41.4-29.5 58.8-46.7l.6-.6.4-.4c23.9-23.8 23.9-44.8 23.9-71.4 0-32.4-37.4-64.9-53.4-77.4-25.9-20.1-60.9-63.8-61.3-64.2L221.5 6l-2.1 254.1v4.3l-.1 12.5v3.7l-.1 8v3.4l-.1 11.3v3.6l-.5 57.9 32.6-16.3-2.9-46.3-.3-4.9-.6-5.5zm-25.7 67.9l2.9-344.9c8.8 10.7 37.1 44.3 59 61.3 32.7 25.4 52.2 53.5 52.2 75 0 25.9 0 46.3-23 69.2-20.1 20.1-55.9 45-65 51.2l-2.5-22.8c5.9-3.3 36.9-22.2 55.5-64.7 8.6-19.6 6.7-43.9-5.5-70.2-9.2-19.7-21-33.9-21.1-34L227 20.2l20.8 326.5-26.1 13zM230.8 30l40.9 51.7c.5.5 46.1 55.5 26.2 101-17.5 40-46.2 58.6-53.4 62.8L230.8 30z"/></g></svg>
