<svg id="Layer_1" xmlns="http://www.w3.org/2000/svg" viewBox="0 0 500 500"><path d="M396.5 80.2c-38.9-35.6-90-57.2-146-57.2-119.4 0-216.7 98.3-220 220.9 59.7-56.6 141-113.3 241.6-136.8 48-11.1 89.2-19.9 124.4-26.9z" fill="#6e1400"/><path d="M250.5 478c91.6 0 170.2-57.9 203.3-140.2-108.6 17.8-239.6 43.3-355.4 77.1C137.9 454 191.5 478 250.5 478z" fill="#690004"/><path d="M33.7 289.8c59.7-53.3 138.9-105 235.5-126.1 69.6-15.2 125-25.7 168.6-32.8-11.3-18.9-25.3-35.9-41.3-50.6-35.2 6.9-76.4 15.7-124.3 26.9-100.7 23.5-182 80.1-241.7 136.7-.1 2.2-.1 4.4-.1 6.6 0 13.4 1.1 26.5 3.3 39.3z" fill="#b10838"/><path fill="#8e190c" d="M466.4 205.7c-.6-2.9-1.2-5.8-1.9-8.7-15.1 4.1-30.8 8.3-46.9 12.9 17.5-1.7 33.8-3 48.8-4.2zM46.9 337.1c.2.5.4 1.1.7 1.6 1.8-1.5 3.7-2.9 5.6-4.4-2.1 1-4.2 1.9-6.3 2.8z"/><path fill="#8e190c" d="M312.8 221.2c39.3-4.8 74-8.5 104.8-11.3 16.2-4.5 31.8-8.8 46.9-12.9-5.5-23.7-14.7-46-26.8-66.2-43.6 7.2-99 17.6-168.6 32.8-96.6 21.2-175.8 72.8-235.5 126.1 2.8 16.5 7.3 32.3 13.3 47.3l6.3-2.7c66-51 154.6-100.4 259.6-113.1z"/><path fill="#96012e" d="M68.8 379c8.6 13 18.5 25.1 29.5 36 115.9-33.8 246.8-59.3 355.4-77.1 10.5-26 16.4-54.5 16.8-84.3C354.6 282.7 200.3 326.2 68.8 379z"/><path fill="#96012e" d="M466.4 205.7c-15 1.1-31.2 2.5-48.8 4.1-113.2 31.7-249.4 74.6-364.4 124.5-1.9 1.5-3.8 2.9-5.6 4.4 5.8 14.2 12.9 27.6 21.3 40.2 131.5-52.8 285.7-96.2 401.8-125.4v-3.1c-.1-15.2-1.5-30.2-4.3-44.7z"/><path fill="#96012e" d="M53.2 334.4c115-50 251.2-92.8 364.4-124.5-30.7 2.9-65.5 6.6-104.8 11.3-105 12.7-193.6 62.1-259.6 113.2z"/><g><path d="M353.5 141.9c5.1-3.6 9-6.3 12.9-8.9 7-4.8 14.2-9 22.8-10.4 16.7-2.7 27.1 6.9 24 23.5-1.9 10.7-5.9 21-9.4 31.3-2.1 6.2-5 12-7.5 18-.8 2-1.1 4.1-.8 6.8l4.8-3.6c5.2-3.9 10.2-8.2 15.8-11.5 3.8-2.2 8.5-4 12.9-4.2 13.5-.8 21.9 11.7 16.1 23.9-4.6 9.6-10 18.8-15.5 27.9-5.6 9.2-11.5 18.3-17.6 27.2-3.3 4.8-4.2 9.7-3.4 15.3 1.6 10.8-2.6 18.6-13.2 20.9-10.2 2.3-15.7 7.9-20.7 16.6-23.9 42.2-60.2 69.7-105 87-14.3 5.5-29.4 6.5-44.4 7.7-28.1 2.1-56 .8-82.3-10.9-8.5-3.8-16.8-8.5-24.2-14.1-10.8-8-21.9-13.7-35.7-13.6-4.3 0-8.8-1.5-12.9-2.9-6.4-2.2-8.3-4.9-7.4-11.4.6-4.3 2-8.6 3.9-12.6 1.7-3.7 4.3-7 6.7-10.4 4.1-5.8 5.8-12.1 5.5-19.3-1-21.3-1.8-42.5-2.5-63.8-.2-4.4-1.2-8.4-5.6-10.2-8-3.4-8.6-10-6.2-17.6 2.1-6.4 6.7-11.3 12.6-13.6 11-4.4 13.5-11.7 12.8-23-.9-15-.1-30.2.7-45.2.7-13.5 5.9-20 23.5-17 7.3 1.2 13.6 5.2 18.2 10.7 7.2 8.6 13.9 17.7 20 27.1 4.5 6.9 7.8 14.5 11.5 21.9 2.6 5.4 6.9 8.3 12.6 8.9 10.4 1.2 19.5-2 27.2-9 4.2-3.8 6.1-8.6 6.2-14.4.5-19.1.6-38.2 2.1-57.1.9-10.6 3.4-21.3 6.7-31.5 4-12.6 16.7-19.1 29.7-16.5 7.2 1.4 13.1 5.2 14.7 12.6 2.8 12.4 4.7 24.9 7 37.4 1 5.8 1.6 11.7 3.2 17.3 1.9 6.8 6.9 8.1 11.6 2.8 3.1-3.5 5.3-7.9 6.9-12.3 3-8 4.8-16.5 7.8-24.5 2.4-6.3 5.2-12.7 9-18.3 7.2-10.5 18-14.2 30.4-13.1 9.3.8 16.1 6.6 17.5 16.7 1.4 9.8 1 19.9.7 29.8-.3 6.8-2 13.5-2.9 20.3-.5 2.7-.5 5.3-.8 9.3zm-137.7 56.8c-.1-.5-.1-1-.2-1.6-2.2 0-4.5-.2-6.7 0-13.1 1.5-26.1 3.1-39.2 4.7-23.8 2.8-47.6 5.2-71.3 8.6-8.1 1.2-16 4.6-23.7 7.6-4.1 1.6-5.6 5.6-5.2 9.8.3 3.7 5.5 8.4 9.4 9.1 3.7.6 7.5 1.1 11.3 1.6 13.3 2 26.6 3.8 39.9 6.3 5.9 1.1 11.5 3.4 17.7 5.3-1.1 2.1-1.4 3-1.9 3.7-16.1 20-32.4 39.8-48.3 60-9.1 11.6-17.6 23.8-26.3 35.7-2.2 3-3.9 6.5-2 10.2 2 3.9 5.8 4.9 10 4.9 15.6-.1 29.6-4.7 41.3-15 6-5.3 10.8-11.9 16.5-17.6 19.5-19.4 42.8-33.2 67.3-45.1 3.2-1.6 6.3-1.4 8.7 2 6.8 9.3 15.5 17.1 20.5 27.9 2.6 5.5 6.8 10.3 10 15.5 8.2 13.3 13.8 27.5 17.3 42.8 1.7 7.1 6.2 12.9 13.8 14 8.2 1.2 15.3-2.2 18.9-9.7 2.7-5.5 4.5-11.8 5.1-17.9 1.7-18.3-3.5-35.8-8.3-53.2-3.7-13.3-8.4-26.2-8.9-40.2-.3-6.2-.3-6.7 6-6.4 9 .5 18 1.1 26.9 2.3 6.2.8 12.6 1.9 18.4 4 12.3 4.4 24.3 9.6 36.4 14.4 2.7 1.1 5.4 2.4 8.2 3.4 5.1 1.9 10.2 4.5 15.4 5.1 6.6.8 10.2-5.2 7.7-11.5-.6-1.6-1.2-3.3-2-4.8-7.5-14.1-18.8-24.6-32.8-31.8-17.2-8.9-34.9-16.8-52.4-25-3.1-1.5-6.3-2.8-9.6-3.9-5.2-1.8-10.6-3.3-15.7-5.3-3.4-1.3-5.6-4.1-4-7.8 4.4-10.3 9.1-20.4 13.8-30.6 3.3-7.2 6.9-14.2 10.3-21.3 2.6-5.5 1.1-7.9-4.9-7-4 .5-8.1 1.7-11.8 3.4-7 3.3-14 6.6-20.3 10.9-7 4.7-13.2 10.4-19.7 15.7-3.4 2.9-6.7 5.9-10 8.9.4.4.7.8 1.1 1.2 1-.6 2.1-1.1 3-1.9 5.8-4.9 11.3-10.1 17.3-14.7 10-7.6 21.5-12.4 33.1-17 .8-.3 3.1 1 3.1 1.5 0 2.3.1 5.3-1.2 6.6-5.4 5.4-8.2 11.9-10.2 19-.2.6-.3 1.4-.7 1.7-5.6 3.1-6 8.6-6.9 14-.2 1.2-.6 2.9-1.4 3.2-4 1.9-3 5.3-2.6 8.2.2 1.8 1 3.7 2.1 5.2 1.5 2.2 3.1 4.7 5.3 5.8 2.7 1.4 6.2 1.2 9.1 2.2 10.4 3.8 20.7 7.5 30.9 11.7 15.8 6.6 32.3 12.2 44.3 25.5 2.8 3 5.4 6.6 8.8 8.5 4.7 2.7 6.9 6.9 9.4 11.2 1.5 2.6 3.2 5.2 5.4 8.7-2.9-.5-4.4-.7-5.9-.9-.6-.1-1.3-.3-1.8-.6-10.1-6.9-21.4-10.8-32.7-15.2-16.8-6.6-34-10.5-51.7-12.6-8.4-1-16.4 0-23.7 4.5-1.6 1-3 3.3-3.3 5.1-1.5 10.8 1.8 20.9 4.7 31.1 2.1 7.5 4.7 14.9 6.8 22.4 1 3.8 1.3 7.9 2.1 11.8 1.3 6.6 3.4 13.2 3.8 19.8.6 12.1 2.5 24.8-8.6 33.9-1.3-.3-2.8-.7-4.3-.9-5.7-.8-7.2-2.3-7.8-7.9-.2-1.6-.6-3.1-.9-4.7-4.6-19.1-14.6-35.6-24.6-52-2-3.2-4-6.4-6.4-9.3-6.4-7.6-13.1-15-19.5-22.6-3.8-4.5-8.2-6.7-13.7-4.3-9.5 4.1-18.7 8.7-27.8 13.5-3.1 1.6-5.4 5.2-8.6 6.6-11.2 4.8-19.6 13.1-27.8 21.7-2.1 2.2-3.8 5.3-6.4 6.2-4.7 1.5-6.8 5.3-9.7 8.5-2.9 3.2-5.2 7.6-8.9 9.5-7.9 4.3-16.4 7.8-24.8 11-4.1 1.5-8.8 1.9-13.8.3 1.1-1.8 1.7-2.8 2.5-3.8 8.4-11.3 16.9-22.6 25.4-33.9 8.6-11.5 17.1-23.1 26-34.2 7.3-9.1 15.2-17.7 22.8-26.6 5.2-6 5.1-9.3-1.6-13.3-4.3-2.5-9.1-4.8-13.9-5.7-12.7-2.5-25.5-4.1-38.3-6.1-7.3-1.1-14.7-2.2-22-3.4-3.2-.5-3.3-2.4-1.2-4.2 2.4-2 5.1-3.6 7.7-5.3 5.7-3.5 12.3-3.5 18.7-4.4 16.3-2.2 32.6-4.8 48.9-6.9 13.2-1.7 26.5-2.4 39.7-4.2 8.4-1.3 16.7-3.7 25.1-5.6zm85.3-69.2c4.3-7.7 8.3-14.1 11.6-20.9 2.5-5.1 4.2-10.6 6.1-16.1 3-9.1 15-11.3 21.6-8.8 3.7 1.4 5 4 4 7.9-1.2 4.8-2.8 9.5-3.4 14.3-1.6 13.7-2.8 27.5-4.2 41.3-.1 1.3-.4 2.5-.7 3.7-2.2 9.2-4.4 18.3-6.6 27.5-.4 1.5-.4 3.2-1 4.6-2 4.6-4.5 9-6.3 13.6-.7 1.8-.1 4.1-.1 6.9 1.5-1 2.4-1.2 2.8-1.8 8.2-14.2 14.3-29.4 17.6-45.4 2.2-10.5 3.4-21.3 3.9-32.1.5-10.9 4.3-20.9 6.5-31.3.6-2.8.9-6 0-8.6-2.2-6.5-7.9-9.2-14.2-9.8-12.6-1.2-23.7 2.1-28.3 15.3-3.5 10.2-6.4 20.6-9.2 31-.7 2.3-.1 5-.1 8.7zm71 93c3-4.1 6.4-7.5 8.4-11.6 6.4-12.9 12.4-25.9 18.4-39 4.5-9.7 8.1-19.7 6.5-30.6-.4-2.9-2.2-7.5-4.3-8-9.1-2.5-18.2-3.3-26.8 2.6-9.6 6.6-16 15.8-20.3 26.1-4.9 11.9-10 23.4-18.8 33-1.6 1.7-2.5 4.1-3.7 6.2.4.3.9.6 1.3.9.7-.5 1.5-.8 2.2-1.4 3.7-3.1 7-7 11.1-9.1 5.9-3 9.3-8.5 11-13.5 3.4-10.5 8.4-19.8 14.9-28.3 5.6-7.3 12.9-11.8 22.6-9.9 1.5.3 3.8 2.6 3.8 4 .1 8.5-2.2 16.6-5.8 24.3-3.1 6.8-6.4 13.6-9.2 20.6-2.6 6.5-3.7 13.5-8.3 19.4-2.5 3.5-5.8 8.3-3 14.3zm-153.6-40.7c.6-.3 1.1-.5 1.7-.8 1.5-7.9 3.6-15.7 4.4-23.6 1.1-10.7.9-21.4 1.7-32.1.9-11.5-1.3-23.3 3.9-34.4 1.7-3.7 9.4-10.1 13.5-9.9 4 .2 7.9 4.4 8.8 9.8 2.3 14.5 4.4 29 6.7 43.5.4 2.5 1.3 5 2 7.5 1.4-1.3 1.6-2.5 1.8-3.7.5-4.4.1-9.1 1.6-13.1 2.2-5.9-.1-11.4-.4-17-.3-6.5-2.8-13-3.1-19.5-.8-12.3-13.4-18.5-24.4-14.5-10.1 3.7-14.8 11.8-16 22-.6 5.3-.1 10.7-.4 16.1-.3 5.9-1.2 11.9-1.4 17.8-.3 7.7-.1 15.4-.2 23 0 3.2.2 6.4-.1 9.5-.5 4.7-1.7 9.3-2 13.9-.1 1.8 1.3 3.7 1.9 5.5zM114.6 360.9c-.8.5-1.6 1-2.3 1.4.6 1.8 1.2 3.6 2 5.3 1.8 3.9 2.8 8.6 5.7 11.3 5.7 5.5 12.7 9.2 20 12.7 14.3 6.8 29.3 10.1 45 11 4.5.3 9.1-.3 13.6 0 7.5.4 15 1.5 22.5 1.5 8.2 0 16.4-.9 24.5-1.7 1.6-.1 3.1-1.4 4.6-2.2-.2-.4-.3-.9-.5-1.3-3.1-.7-6.1-1.9-9.2-2-16.4-.8-32.9-1.3-49.4-1.8-2.1-.1-4.4 1.3-6.3.8-10.5-2.7-20.9-5.6-31.3-8.6-11-3.2-21-8.6-29.7-16-3.5-2.8-6.1-6.8-9.2-10.4zm-14.4-164.5c.8-8 1.6-15.3 2.3-22.7.1-1.1-.1-2.2-.4-3.3-2.3-8.4-1.4-16.9 1.1-24.7 2.4-7.3 7.3-9.3 14-3.6 16.1 13.7 27.8 30 27.7 52.4 0 1.4 1.2 2.8 1.9 4.1 1.7-2.9 2.4-5.1 3-7.4.9-3.5 2.8-7.3 2.2-10.6-1.3-6.6-3.3-13.3-6.4-19.2-6.1-11.3-14.6-20.7-25.7-27.6-8.8-5.5-18.3-1.9-22.3 6.7-1.6 3.5-2.2 7.7-2.3 11.6-.3 6.9-.1 13.8 0 20.6.1 4.1 1.2 8 .5 12.3-.6 3.7-1.3 8.9 4.4 11.4zM400.8 253c.4.3.7.6 1.1.8 4.8-3.1 9.5-6.2 14.2-9.3.4-.2.5-.8.8-1.2 4.2-6.6 8.6-13.1 12.6-19.8 4-6.8 7.8-13.9 11.4-21 1.9-3.8 1.4-8.2-4.1-10.1-6.2-2.2-11.8-3.3-17.9 1-8.8 6.1-18.2 11.2-25 19.8-3 3.8-6.7 6.9-9.8 10.7-.8 1-.1 3-.2 4.6 1.1-.6 2.4-.9 3.3-1.7 10.7-8.4 21.3-17 32.2-25.2 2.2-1.7 5-2.7 7.7-3.5 1.3-.4 3.3.3 4.5 1.1.5.3.2 2.6-.4 3.6-2.1 3.9-4.4 7.7-6.7 11.4-7.1 11.3-14.2 22.6-21.2 33.9-1.1 1.6-1.7 3.3-2.5 4.9zm-97.6 116.6c.2.5.5 1 .7 1.6 4.6-1.2 10.3-1.1 13.5-3.9 9.7-8.5 18.9-17.7 27.2-27.5 4.9-5.8 7.6-13.3 11.5-20 3-5.1 6.2-10.1 9.3-15.2 1.1-1.8 2.2-3.7 3.6-5.3 2.9-3.4 3.5-7 .4-10.5-4.5 6.5-9 12.7-13.3 19-3.6 5.3-7.1 10.7-10.5 16.1-1 1.7-1.2 4-2.4 5.4-5 5.3-10.2 10.5-15.4 15.6-7.3 7.2-14.7 14.4-22 21.7-1 .8-1.7 1.9-2.6 3zM91.1 253.5c-7.7 2.9-8.5 4.1-8.4 11.2 0 1.1-.3 2.2-.4 3.3-.5 4.7-1.6 9.4-1.4 14.1.4 7.7 1.7 15.4 2.7 23.1.1.9 1 2.4 1.6 2.4 1 .1 2.7-.6 2.9-1.3.7-2.7 1.1-5.4 1.4-8.2.6-7.5 1.3-15 1.6-22.5.2-7.3 0-14.5 0-22.1z" fill="#fff"/><path d="M301.1 129.5c0-3.7-.6-6.4.1-8.8 2.9-10.4 5.7-20.8 9.2-31 4.6-13.1 15.6-16.5 28.3-15.3 6.3.6 12 3.3 14.2 9.8.9 2.6.6 5.9 0 8.6-2.3 10.4-6.1 20.4-6.5 31.3-.5 10.7-1.7 21.5-3.9 32.1-3.3 16-9.4 31.2-17.6 45.4-.3.6-1.2.8-2.8 1.8 0-2.8-.6-5.1.1-6.9 1.8-4.7 4.2-9 6.3-13.6.6-1.4.6-3.1 1-4.6 2.2-9.2 4.4-18.3 6.6-27.5.3-1.2.6-2.5.7-3.7 1.4-13.8 2.6-27.5 4.2-41.3.6-4.8 2.2-9.6 3.4-14.3 1-3.9-.4-6.5-4-7.9-6.6-2.5-18.5-.3-21.6 8.8-1.8 5.4-3.6 10.9-6.1 16.1-3.3 6.9-7.3 13.3-11.6 21zM372.1 222.5c-2.8-6 .5-10.8 3.2-14.3 4.6-5.9 5.7-12.9 8.3-19.4 2.8-7 6-13.8 9.2-20.6 3.5-7.7 5.8-15.8 5.8-24.3 0-1.4-2.3-3.7-3.8-4-9.7-1.9-17 2.6-22.6 9.9-6.6 8.5-11.5 17.9-14.9 28.3-1.6 5-5.1 10.5-11 13.5-4.2 2.1-7.4 6-11.1 9.1-.7.5-1.4.9-2.2 1.4-.4-.3-.9-.6-1.3-.9 1.2-2.1 2.1-4.5 3.7-6.2 8.8-9.6 13.9-21.1 18.8-33 4.3-10.4 10.7-19.5 20.3-26.1 8.6-5.9 17.8-5 26.8-2.6 2 .6 3.8 5.1 4.3 8 1.6 10.9-2.1 20.9-6.5 30.6-6 13.1-12 26.1-18.4 39-2.3 4.1-5.6 7.5-8.6 11.6zM218.5 181.8c-.7-1.8-2-3.7-1.9-5.4.4-4.7 1.5-9.3 2-13.9.3-3.1.1-6.3.1-9.5 0-7.7-.1-15.4.2-23 .2-5.9 1.1-11.9 1.4-17.8.3-5.4-.2-10.8.4-16.1 1.2-10.2 5.9-18.3 16-22 10.9-4 23.6 2.1 24.3 14.6.4 6.5 2.9 13 3.1 19.5.2 5.6 2.5 11.1.4 17-1.5 4-1.1 8.7-1.6 13.1-.1 1.2-.4 2.4-1.8 3.7-.7-2.5-1.6-4.9-2-7.5-2.3-14.5-4.4-29-6.7-43.5-.9-5.4-4.8-9.6-8.8-9.8-4.1-.2-11.7 6.2-13.5 9.9-5.2 11.1-3 22.9-3.9 34.4-.8 10.7-.7 21.5-1.7 32.1-.8 7.9-2.9 15.8-4.4 23.6-.5.1-1 .3-1.6.6zM114.6 360.9c3 3.6 5.7 7.6 9.2 10.6 8.7 7.4 18.6 12.8 29.7 16 10.4 3 20.8 6 31.3 8.6 1.9.5 4.2-.9 6.3-.8 16.5.5 32.9 1 49.4 1.8 3.1.1 6.1 1.3 9.2 2 .2.4.3.9.5 1.3-1.5.8-3 2-4.6 2.2-8.2.8-16.4 1.7-24.5 1.7-7.5 0-15-1.1-22.5-1.5-4.5-.2-9.1.3-13.6 0-15.6-.9-30.6-4.2-45-11-7.3-3.5-14.3-7.2-20-12.7-2.9-2.8-3.9-7.5-5.7-11.3-.8-1.7-1.3-3.6-2-5.3.8-.6 1.6-1.1 2.3-1.6zM100.2 196.4c-5.7-2.4-5-7.7-4.4-11.2.7-4.3-.4-8.2-.5-12.3-.2-6.9-.4-13.8 0-20.6.2-3.9.7-8.1 2.3-11.6 4-8.6 13.5-12.1 22.3-6.7 11.1 6.9 19.6 16.2 25.7 27.6 3.2 5.9 5.1 12.6 6.4 19.2.7 3.3-1.3 7.1-2.2 10.6-.6 2.3-1.3 4.5-3 7.4-.7-1.4-1.9-2.8-1.9-4.1.1-22.4-11.6-38.7-27.7-52.4-6.7-5.7-11.7-3.7-14 3.6-2.5 7.8-3.5 16.4-1.1 24.7.3 1 .5 2.2.4 3.3-.7 7.1-1.5 14.5-2.3 22.5zM400.8 253c.8-1.6 1.4-3.3 2.4-4.8 7.1-11.3 14.2-22.6 21.2-33.9 2.3-3.7 4.6-7.5 6.7-11.4.6-1.1.9-3.3.4-3.6-1.2-.8-3.1-1.5-4.5-1.1-2.7.7-5.5 1.8-7.7 3.5-10.8 8.3-21.4 16.8-32.2 25.2-1 .8-2.2 1.1-3.3 1.7 0-1.6-.6-3.7.2-4.6 3-3.7 6.8-6.9 9.8-10.7 6.8-8.6 16.3-13.7 25-19.8 6.2-4.3 11.7-3.2 17.9-1 5.6 1.9 6 6.3 4.1 10.1-3.5 7.1-7.3 14.1-11.4 21-4 6.7-8.4 13.2-12.6 19.8-.3.4-.4.9-.8 1.2-4.7 3.1-9.5 6.2-14.2 9.3-.3-.3-.7-.6-1-.9zM303.2 369.6c.9-1.1 1.6-2.2 2.6-3.2 7.3-7.2 14.7-14.4 22-21.7 5.2-5.1 10.4-10.2 15.4-15.6 1.3-1.4 1.4-3.7 2.4-5.4 3.4-5.4 6.9-10.8 10.5-16.1 4.3-6.3 8.7-12.5 13.3-19 3.1 3.5 2.5 7.1-.4 10.5-1.4 1.6-2.4 3.5-3.6 5.3-3.1 5-6.4 10-9.3 15.2-3.9 6.7-6.6 14.2-11.5 20-8.3 9.8-17.5 19-27.2 27.5-3.2 2.8-8.9 2.7-13.5 3.9-.2-.4-.4-.9-.7-1.4zM91.1 253.5c0 7.6.2 14.9-.1 22.1-.3 7.5-1 15-1.6 22.5-.2 2.8-.6 5.5-1.4 8.2-.2.7-1.9 1.4-2.9 1.3-.6 0-1.4-1.5-1.6-2.4-1-7.7-2.3-15.4-2.7-23.1-.3-4.7.9-9.4 1.4-14.1.1-1.1.5-2.2.4-3.3 0-7.2.8-8.3 8.5-11.2z"/><path d="M73.5 222.2s-8.6-2.9 59.1-11.4 73.4-9.5 73.4-9.5 12.4 1 30.5-14.3 39.1-37.2 59.1-39.1c20-1.9-5.7 34.3-5.7 34.3l-9.5 21s1.9 5.7 25.7 14.3c23.8 8.6 66.7 27.7 79.1 45.8s11.4 22.9 11.4 22.9-67.6-25.9-88.6-27.8c-21-1.9-36.2-5.7-32.4 6.7 3.8 12.4 20 76.3 19.1 95.4s-9.5 26.7-12.4 24.8c-2.9-1.9-8.6 8.6-17.2-14.3s-34.3-62.9-34.3-62.9-14.3-25.7-27.7-24.8c-13.3 1-58.2 36.2-58.2 36.2l-35.3 33.4s-20 10.5-28.6 7.6-7.6-2.9-7.6-2.9l1.9-9.5 82-100.1s-40-8.6-54.4-10.5c-14.3-1.9-21.9-2.9-21.9-2.9s-15.2-1.9-7.5-12.4z" fill="#ffcd67"/><path d="M97.9 217.6s-7.3-2.4 50.2-9.7c57.5-7.3 62.3-8.1 62.3-8.1s11.7-2.8 27.1-15.7 41.2-34.6 58.2-36.2c17-1.6-14 35.8-14 35.8l-8.1 17.8s1.6 4.9 21.8 12.1c20.2 7.3 56.6 23.5 67.2 38.8 10.5 15.4 9.7 19.4 9.7 19.4S314.8 250 297 248.3c-17.8-1.6-44.6-6.2-41.4 4.4s30.9 66 30.1 82.2c-.8 16.2-8.1 22.7-10.5 21-2.4-1.6-.6 5.4-7.9-14-7.3-19.4-29.1-53.4-29.1-53.4s-18.8-19.9-30.1-19.1c-11.3.8-54.1 19.3-54.1 19.3L123.9 317s-12.2 20.3-19.5 17.9c-7.3-2.4-6.5-2.4-6.5-2.4l1.6-8.1 69.6-85s-21.6-9.9-33.7-11.5c-12.1-1.6-31 .2-31 .2s-12.9-1.6-6.5-10.5z" fill="#f8f49b"/><path d="M215.8 198.7c-8.4 1.9-16.7 4.4-25.2 5.6-13.2 1.8-26.5 2.6-39.7 4.2-16.3 2.1-32.6 4.7-48.9 6.9-6.4.9-13 .8-18.7 4.4-2.7 1.6-5.4 3.2-7.7 5.3-2.1 1.8-2 3.7 1.2 4.2 7.3 1.2 14.7 2.3 22 3.4 12.8 2 25.6 3.6 38.3 6.1 4.8.9 9.6 3.2 13.9 5.7 6.7 4 6.8 7.2 1.6 13.3-7.6 8.8-15.6 17.5-22.8 26.6-9 11.2-17.4 22.8-26 34.2-8.5 11.3-16.9 22.6-25.4 33.9-.7 1-1.3 2.1-2.5 3.8 5 1.5 9.7 1.2 13.8-.3 8.5-3.1 16.9-6.6 24.8-11 3.6-2 5.9-6.3 8.9-9.5 2.9-3.2 5-6.9 9.7-8.5 2.5-.8 4.3-4 6.4-6.2 8.2-8.6 16.6-16.9 27.8-21.7 3.2-1.4 5.4-4.9 8.6-6.6 9.1-4.8 18.3-9.4 27.8-13.5 5.4-2.3 9.9-.2 13.7 4.3 6.4 7.6 13.1 15 19.5 22.6 2.4 2.9 4.4 6.1 6.4 9.3 10 16.5 20.1 33 24.6 52 .4 1.5.8 3.1.9 4.7.6 5.6 2.1 7.2 7.8 7.9 1.5.2 3 .6 4.3.9 11.1-9.2 9.2-21.9 8.6-33.9-.3-6.7-2.5-13.2-3.8-19.8-.7-3.9-1-7.9-2.1-11.8-2.1-7.5-4.7-14.9-6.8-22.4-2.9-10.2-6.2-20.3-4.7-31.1.3-1.9 1.7-4.1 3.3-5.1 7.3-4.5 15.3-5.5 23.7-4.5 17.7 2.1 34.9 6 51.7 12.6 11.3 4.4 22.6 8.3 32.7 15.2.5.3 1.2.5 1.8.6 1.5.3 3 .5 5.9.9-2.2-3.6-3.9-6.1-5.4-8.7-2.5-4.2-4.7-8.5-9.4-11.2-3.4-2-6-5.5-8.8-8.5-12.1-13.2-28.5-18.9-44.3-25.5-10.2-4.2-20.5-8-30.9-11.7-2.9-1.1-6.4-.9-9.1-2.2-2.2-1.1-3.8-3.6-5.3-5.8-1.1-1.5-1.9-3.4-2.1-5.2-.3-3-1.4-6.4 2.6-8.2.8-.4 1.2-2.1 1.4-3.2.9-5.4 1.3-10.9 6.9-14 .4-.2.6-1.1.7-1.7 1.9-7.1 4.8-13.6 10.2-19 1.3-1.3 1.2-4.4 1.2-6.6 0-.5-2.3-1.8-3.1-1.5-11.5 4.7-23.1 9.4-33.1 17-6 4.6-11.5 9.8-17.3 14.7-.9.7-2 1.3-3 1.9-.4-.4-.7-.8-1.1-1.2 3.3-3 6.6-6.1 10-8.9 6.5-5.4 12.8-11.1 19.7-15.7 6.3-4.3 13.4-7.6 20.3-10.9 3.7-1.7 7.8-2.8 11.8-3.4 6-.8 7.5 1.6 4.9 7-3.4 7.1-7 14.1-10.3 21.3-4.7 10.1-9.4 20.3-13.8 30.6-1.6 3.8.6 6.5 4 7.8 5.1 2 10.5 3.4 15.7 5.3 3.3 1.1 6.5 2.4 9.6 3.9 17.5 8.3 35.2 16.1 52.4 25 13.9 7.2 25.2 17.7 32.8 31.8.8 1.5 1.3 3.2 2 4.8 2.5 6.3-1.1 12.3-7.7 11.5-5.3-.6-10.3-3.3-15.4-5.1-2.8-1-5.4-2.3-8.2-3.4-12.1-4.9-24.1-10-36.4-14.4-5.9-2.1-12.2-3.2-18.4-4-8.9-1.1-17.9-1.8-26.9-2.3-6.3-.3-6.3.2-6 6.4.6 13.9 5.3 26.9 8.9 40.2 4.8 17.4 10 34.9 8.3 53.2-.6 6.1-2.4 12.4-5.1 17.9-3.7 7.4-10.7 10.9-18.9 9.7-7.6-1.1-12.1-6.9-13.8-14-3.5-15.2-9.1-29.5-17.3-42.8-3.2-5.2-7.4-10-10-15.5-5-10.7-13.7-18.6-20.5-27.9-2.5-3.4-5.5-3.6-8.7-2-24.5 12-47.8 25.7-67.3 45.1-5.7 5.7-10.5 12.3-16.5 17.6-11.7 10.2-25.7 14.9-41.3 15-4.2 0-8-1-10-4.9-1.9-3.7-.2-7.2 2-10.2 8.7-12 17.1-24.1 26.3-35.7 15.9-20.2 32.2-40 48.3-60 .6-.7.9-1.6 1.9-3.7-6.2-1.9-11.8-4.2-17.7-5.3-13.2-2.4-26.6-4.2-39.9-6.3-3.8-.6-7.5-1-11.3-1.6-3.9-.6-9.1-5.4-9.4-9.1-.4-4.3 1.2-8.3 5.2-9.8 7.8-3 15.6-6.4 23.7-7.6 23.7-3.4 47.5-5.8 71.3-8.6 13.1-1.5 26.1-3.2 39.2-4.7 2.2-.3 4.5 0 6.7 0 .2.5.2 1 .3 1.6z"/></g></svg>
