<svg id="Layer_1" xmlns="http://www.w3.org/2000/svg" viewBox="0 0 500 500"><path fill="#0c5118" d="M388.9 375.8V173.2c0-7.9 0-7.9 7.8-7.9 12.6 0 12.6 0 12.6 12.7v291.2c0 2.5-1.1 3.9-3.7 3.8-1.9-.1-3.8 0-5.7 0-13.4-.3-10.7 2.2-13.6-10.9-16.6-76.6-33-153.2-49.4-229.8-4.5-20.9-8.8-41.8-13.5-62.6-.8-3.6.1-4.6 3.5-4.4 3.5.2 7 .3 10.5 0 4.4-.4 6.1 1.5 7 5.7 5.3 25.4 10.8 50.8 16.2 76.2 8.9 41.7 17.9 83.5 26.9 125.2l.9 3.6c.1-.2.3-.2.5-.2zm-254.7-77.3c0-14.3.1-28.7-.1-43-.1-4.2 1.1-5.9 5.6-5.9 29 .2 58 .1 87 0 4.2 0 5.5 1.5 5.5 5.6-.1 29-.1 58 0 87 0 4.1-1.2 5.6-5.5 5.6-29.2-.1-58.3-.1-87.5 0-4 0-5.2-1.4-5.2-5.3.3-14.7.2-29.4.2-44zM438 212.8c6.5-10.3 13.1-20.6 19.6-30.9.3-.5.7-1.1 1-1.6 9.6-15.5 9.6-15.5 28-15 4.6.1 4.8.6 2.4 4.5-16.3 25.9-32.6 51.8-49 77.6-2.1 3.3-2.9 6.5-2.9 10.3.1 69.3.1 138.7.1 208 0 7.2 0 7.2-7.4 7.2-12.3 0-12.3 0-12.3-12.4V174.1c0-1.8.1-3.5 0-5.3-.1-2.7 1.3-3.7 3.8-3.6 3.7.1 7.3.2 11-.1 3.8-.2 5 1.3 5 5-.2 12.6-.1 25.2-.1 37.8v4.6c.2.2.5.3.8.3zM67.1 239.9c9.7 0 19.4.1 29.1-.1 3.6-.1 5.1 1.1 5.1 4.9-.1 19.7-.1 39.5 0 59.2 0 3.7-1.3 5.1-5 5.1-19.7-.1-39.5-.1-59.2 0-3.6 0-5.1-1.2-5.1-5 .1-19.7.1-39.5 0-59.2 0-3.7 1.3-5.1 5-5 10 .2 20.1.1 30.1.1zm219.4-158c0-9.4.1-18.8 0-28.2-.1-3.6 1.2-5.1 5-5.1 17.5.1 35 .1 52.6 0 3.6 0 5.1 1.2 5.1 5-.1 19.3-.1 38.5 0 57.8 0 3.4-1.2 4.8-4.7 4.8-17.7-.1-35.4-.1-53 0-3.9 0-4.9-1.7-4.9-5.2 0-9.7-.1-19.4-.1-29.1zm122.9-39.2c0 4.6-.1 9.2.1 13.9.2 3.6-1.4 4.8-4.8 4.8-8.4-.1-16.9-.1-25.3 0-3.2 0-4.7-1.3-4.7-4.6.1-9.6 0-19.1 0-28.7 0-2.9 1-4.4 4.2-4.4 8.8.1 17.5.1 26.3 0 3 0 4.4 1.1 4.3 4.2-.2 4.9-.1 9.8-.1 14.8zM9.9 107.8V94.9c0-2.7.9-4.2 3.8-4.2 8.1.1 16.3 0 24.4 0 2.6 0 3.7 1.4 3.7 3.9v26.8c0 2.9-1.4 4-4.1 4H13.8c-2.8 0-4-1.3-3.9-4.1.1-4.5 0-9 0-13.5z"/></svg>
