<svg xmlns="http://www.w3.org/2000/svg" viewBox="0 0 500 500"><path d="M95.1 7.3c18.3 18.2 43.5 35 59.6 54.9 27.9 34.5 32.4 73.4 11.9 113.7-11.6 22.4-25.5 43.8-36.4 66.4-7.5 15.5-11.6 32.6-18.5 53h314.5c-22.3 60-60.3 98.9-117.1 117.4-79.5 26-159.7-.5-207.6-69.1-13.4-19.2-28.2-15.5-48.1-14.3 35.2 70.2 89.2 112.5 163.9 123.9 105.8 16.1 199.3-39.2 237.5-139.3 9.2-24 24.6-16 40.1-16.8-8.8 76.3-94.6 184.2-222.9 193.3C127.2 500.6 25.8 396.7 5.5 296.8H74c-9-16.6-17-30.4-24.1-44.7-14.4-29.1-14.3-59-.2-87.8C59.9 143 71.1 122.1 84 102.4c20.3-30.2 27.7-61.1 11.1-95.1 1.7 0-1.7 0 0 0zm42.1 321.1c-4.4.2-8.7-1.2-6.6.7 34.7 40.6 83.6 63.7 137.3 58.4 41.3-4.1 74.8-23.3 102.4-59.1H137.2zm-50.8-72.7c13.6-24.5 28-49.9 41.6-75.6 5.9-11 12.6-22.4 15.1-34.5 5.3-23.8 5.8-47.7-11.6-65.9-11.6 22.4-21.2 44.7-34.1 64.9-22.7 36.7-32.7 73.7-11 111.1z" fill="#063758"/></svg>
