<svg xmlns="http://www.w3.org/2000/svg" viewBox="0 0 500 500"><path fill="#924492" d="M0 0h500v500H0z"/><g><g><path fill="#0dc8ba" d="M205.2 29.2c-22.3.4-44.7 0-67.4 0-11.4 0-11.4 0-11.4 11.4V41.4c0-11.4 0-11.4 11.4-11.4h67.4c5.3 0 7.7 1.6 7.7 7.3v-.8c-.4-5.7-2.5-7.3-7.7-7.3zM227.1 354.2c.4-54.4 0-108.5 0-162.9V28.4v162.9c.4 54 .4 108.5 0 162.9z"/><path fill="#0dc8ba" d="M403 383.8c-30.5 0-61.3-.4-91.8 0-26 .4-50.4-5.3-74.3-15-7.3-2.8-9.7-6.5-9.7-14.6.4-54.4 0-108.5 0-162.9V28.4c0-12.2-1.2-13.4-13-13.4H124c-10.6 0-12.6 2-12.6 12.2 0 65.8-.4 131.6 0 197.4.4 32.5 7.7 63 28 89 41.4 52.8 96.3 81.2 163.7 84.5 29.7 1.2 59.3.4 88.6.4 5.3 0 8.1 1.2 8.1 7.3v61.3c0 4.9-2 6.9-6.9 6.9-45.5-.8-91.4 1.2-136.9-3.2-50.8-4.9-98.7-19.5-131.6-63.4-1.2-2-5.7-3.2-7.7-2.4-2.4.8-4.9 4.1-4.9 6.5s2 5.7 3.7 8.1c12.2 16.2 27.2 28.8 45.1 38.2 39 20.3 80.8 29.7 124.3 30.9 39.4.8 78.4 0 117.8 0 9.7 0 12.2-2.4 12.2-12.2v-80.4c-.1-9.8-2.6-12.3-11.9-12.3zM212.5 37.7v312.8c0 1.6-.4 3.2-.4 5.7-1.6-.4-2.8-.4-4.1-1.2-38.6-22.7-68.2-52.8-78.4-98.7-2-9.7-3.2-19.5-3.2-29.7v-93.4-92.6c0-11.4 0-11.4 11.4-11.4h67.4c5.3 0 7.7 1.6 7.7 7.3-.4.4-.4.8-.4 1.2z"/></g></g></svg>
