<svg xmlns="http://www.w3.org/2000/svg" viewBox="0 0 500 500"><g><path fill="#120b58" d="M147.6 114.2h-115L6 384.1h177l-35.4-269.9zM79.4 318.5c-13.6 0-28.9-3.9-36.4-9.1l4.5-15.6c8.1 5.2 20.5 9.4 33.1 9.4 18.8 0 29.9-10.1 29.9-24.4 0-13.3-7.8-20.8-27-28.3-23.4-8.1-37.7-20.5-37.7-40.3 0-22.1 18.5-38.6 46.4-38.6 14.6 0 25.3 3.2 31.5 6.8l-5.2 14.9c-4.5-2.6-14.3-6.8-27.3-6.8-19.5 0-27 11.7-27 21.4 0 13.3 8.8 19.8 28.6 27.6 24.4 9.4 36.4 20.8 36.4 41.9.2 22.3-16 41.1-49.8 41.1zM271.3 211.3c0-17.9-13.3-22.1-24.4-22.1h-19.8v46.1h10.4c18.5.1 33.8-1.9 33.8-24zM239.5 252.6h-12.3v50.3h14c16.9 0 32.1-3.9 32.1-24 .3-23.1-17.6-26.3-33.8-26.3z"/><path fill="#120b58" d="M156.4 114.2l35.4 269.9h119.5l26.6-269.9H156.4zm87.3 206.2h-35.1v-149H244c27.3 0 46.1 10.1 46.1 37.7 0 20.5-10.4 30.8-27 35.4v.3c17.9 1.6 30.5 14.9 30.5 35.7-.2 32.5-23.3 39.9-49.9 39.9zM465.8 114.2h-115L320 384.1h177l-31.2-269.9zm-11.7 209.5h-84.8V171.4h19.5v135.7h64.9v16.6h.4z"/></g></svg>
