<svg xmlns="http://www.w3.org/2000/svg" viewBox="0 0 500 500"><path fill="#f47829" d="M308.9 255.1c0-20-9.4-37.5-23.4-47.3-1.9-1.3-4.5-.8-5.7 1.1l-26.9 42.6c-.8 1.3-.8 2.9 0 4.2l27.5 45.1c1.2 2 3.9 2.5 5.8 1.2 13.7-10 22.7-27.3 22.7-46.9z" id="Layer_3"/><path fill="#f47829" d="M399.5 256.6c0-51.8-24.8-97.1-61.9-121.9-3.3-2.2-7.8-1.3-9.9 2.1l-21.1 32.6c-2 3.1-1.3 7.2 1.6 9.4 12.4 9.6 42.5 37 41.4 77.7-1.1 40.3-29.2 65.7-41.3 74.7-3 2.2-3.7 6.4-1.7 9.5l22.4 34.7c2.2 3.4 6.7 4.3 10 2 36.3-24.9 60.5-69.7 60.5-120.8z" id="Layer_5"/><g id="Layer_7"><path fill="#f47829" d="M493.1 250.5c0-87-42.1-162.6-104-201.5-2.8-1.8-6.6-.9-8.5 1.9l-23.2 34.9c-1.8 2.7-1.3 6.2 1.2 8.2 17.2 14.5 80.2 73.5 80.2 159.5 0 85.6-64.7 142.3-82.9 156.5-2.6 2-3.2 5.7-1.3 8.5l23.1 33.6c1.9 2.7 5.5 3.6 8.3 1.9 63.7-38.3 107.1-115 107.1-203.5zM302.4 403.8c-2.3-3.4-6.5-4.9-10.3-3.6-14.2 4.8-29.3 7.3-45 7.3-82.5 0-149.5-71-149.5-158.5 0-89 66.9-158.5 149.4-158.5 17.5 0 34.2 3.2 49.8 9.1 4 1.5 8.5 0 10.8-3.6L344 39.2c3.1-4.8 1-11.3-4.3-13.3C311.9 15 281.7 9 250 9 115.8 9 7 115.8 7 247.5S115.8 486 250 486c29.5 0 57.8-5.2 84-14.6 5.5-2 7.7-8.7 4.4-13.5l-36-54.1z"/></g></svg>
