<svg id="Layer_1" xmlns="http://www.w3.org/2000/svg" viewBox="0 0 500 500"><path d="M6 65.8h490V338H6z"/><path fill="#fff" d="M228.2 64.9H281V338h-52.8z"/><path fill="#fff" d="M6 175h490v52.8H6z"/><path d="M12 417c2.7 1.7 6.8 3.1 11 3.1 6.3 0 10-3.4 10-8.1 0-4.5-2.6-7-9-9.5-7.8-2.7-12.6-6.8-12.6-13.5 0-7.4 6.2-13 15.5-13 4.9 0 8.4 1.1 10.6 2.3l-1.7 5c-1.6-.9-4.8-2.3-9.1-2.3-6.5 0-9 3.9-9 7.2 0 4.5 2.9 6.6 9.5 9.2 8.1 3.1 12.2 7 12.2 14 0 7.4-5.5 13.8-16.7 13.8-4.6 0-9.6-1.3-12.2-3L12 417zM47.5 401.3c0-4.4-.2-7.9-.3-11.2h5.6l.3 5.9h.2c2.6-4.1 6.6-6.6 12.2-6.6 8.3 0 14.5 7 14.5 17.4 0 12.4-7.5 18.5-15.6 18.5-4.5 0-8.5-2-10.6-5.4h-.2v18.6h-6.2l.1-37.2zm6.2 9.2c0 .9.2 1.8.3 2.6 1.2 4.3 4.9 7.3 9.4 7.3 6.6 0 10.4-5.4 10.4-13.2 0-6.9-3.6-12.7-10.2-12.7-4.2 0-8.2 3-9.5 7.7-.2.8-.4 1.7-.4 2.6v5.7zM89.6 390.2l7.5 20.3c.8 2.3 1.6 4.9 2.2 7h.2c.6-2 1.3-4.7 2.2-7.2l6.8-20.1h6.6l-9.4 24.5c-4.5 11.7-7.5 17.8-11.7 21.5-3 2.7-6.1 3.8-7.7 4.1l-1.6-5.2c1.6-.5 3.6-1.5 5.5-3 1.7-1.3 3.8-3.8 5.2-7 .3-.6.5-1.1.5-1.5s-.2-.9-.4-1.6l-12.7-31.7h6.8zM120.7 400.9c0-4.1-.1-7.5-.3-10.7h5.5l.2 6.7h.3c1.6-4.6 5.3-7.5 9.5-7.5.7 0 1.2.1 1.8.2v5.9c-.6-.2-1.3-.2-2.1-.2-4.4 0-7.5 3.4-8.4 8-.2.9-.3 1.9-.3 2.9v18.3h-6.2v-23.6zM147.9 390.2l7.5 20.3c.8 2.3 1.6 4.9 2.2 7h.2c.6-2 1.3-4.7 2.2-7.2l6.8-20.1h6.6l-9.4 24.5c-4.5 11.7-7.5 17.8-11.7 21.5-3 2.7-6.1 3.8-7.7 4.1L143 435c1.6-.5 3.6-1.5 5.5-3 1.7-1.3 3.8-3.8 5.2-7 .3-.6.5-1.1.5-1.5s-.2-.9-.4-1.6l-12.7-31.6 6.8-.1zM177.8 418.1c1.9 1.2 5.1 2.5 8.2 2.5 4.5 0 6.6-2.3 6.6-5.1 0-3-1.8-4.6-6.4-6.3-6.2-2.2-9.1-5.6-9.1-9.7 0-5.6 4.5-10.1 11.8-10.1 3.4 0 6.5 1 8.4 2.1l-1.6 4.5c-1.3-.9-3.8-2-7-2-3.7 0-5.7 2.1-5.7 4.7 0 2.8 2 4.1 6.5 5.8 5.9 2.3 9 5.2 9 10.3 0 6-4.7 10.2-12.8 10.2-3.8 0-7.2-.9-9.6-2.3l1.7-4.6zM240.7 424.5l-.5-4.3h-.2c-1.9 2.7-5.6 5.1-10.5 5.1-7 0-10.5-4.9-10.5-9.9 0-8.3 7.4-12.8 20.6-12.7v-.7c0-2.8-.8-7.9-7.8-7.9-3.2 0-6.5 1-8.9 2.6l-1.4-4.1c2.8-1.9 7-3 11.3-3 10.5 0 13.1 7.2 13.1 14v12.8c0 3 .2 5.9.5 8.2l-5.7-.1zm-.9-17.5c-6.8-.2-14.5 1.1-14.5 7.7 0 4.1 2.7 5.9 5.9 5.9 4.5 0 7.3-2.8 8.3-5.7.2-.6.4-1.3.4-2V407zM303.6 422.3c-2.7 1-8.2 2.7-14.7 2.7-7.2 0-13.2-1.9-17.8-6.3-4.1-4-6.6-10.3-6.6-17.8.1-14.2 9.9-24.6 25.9-24.6 5.6 0 9.9 1.2 11.9 2.2l-1.5 5c-2.6-1.2-5.7-2-10.6-2-11.7 0-19.2 7.2-19.2 19.2 0 12.1 7.3 19.2 18.5 19.2 4.1 0 6.8-.5 8.2-1.3v-14.2H288v-5h15.7l-.1 22.9zM316.6 408.5c.2 8.4 5.6 11.9 11.7 11.9 4.5 0 7.2-.8 9.5-1.8l1.1 4.5c-2.2 1-5.9 2.1-11.4 2.1-10.6 0-16.9-7-16.9-17.3s6.1-18.5 16.1-18.5c11.2 0 14.2 9.9 14.2 16.2 0 1.3-.2 2.3-.2 2.9h-24.1zm18.2-4.5c.1-4-1.6-10.2-8.7-10.2-6.3 0-9.1 5.8-9.5 10.2h18.2zM348.6 400.9c0-4.1-.1-7.5-.3-10.7h5.5l.2 6.7h.3c1.6-4.6 5.3-7.5 9.5-7.5.7 0 1.2.1 1.8.2v5.9c-.6-.2-1.3-.2-2.1-.2-4.4 0-7.5 3.4-8.4 8-.2.9-.3 1.9-.3 2.9v18.3h-6.2v-23.6zM372.1 399.5c0-3.5-.1-6.4-.3-9.3h5.6l.4 5.6h.2c1.7-3.3 5.6-6.4 11.3-6.4 4.8 0 12.1 2.8 12.1 14.6v20.5h-6.3v-19.8c0-5.6-2-10.2-7.9-10.2-4.1 0-7.3 2.9-8.4 6.4-.3.8-.4 1.9-.4 2.9v20.6h-6.3v-24.9zM442.4 407c0 12.7-8.8 18.2-17 18.2-9.3 0-16.4-6.8-16.4-17.7 0-11.5 7.5-18.2 17-18.2 9.8.1 16.4 7.3 16.4 17.7zm-27.2.4c0 7.5 4.3 13.2 10.4 13.2 5.9 0 10.4-5.6 10.4-13.3 0-5.8-2.9-13.2-10.2-13.2s-10.6 6.8-10.6 13.3zM452.3 390.2l4.5 17.4c1 3.8 1.9 7.4 2.6 10.9h.2c.8-3.4 1.9-7.2 3-10.9l5.6-17.5h5.2l5.3 17.1c1.3 4.1 2.3 7.7 3 11.2h.2c.5-3.4 1.5-7.1 2.7-11.1l4.9-17.2h6.2l-11 34.3h-5.6l-5.2-16.3c-1.2-3.8-2.2-7.2-3-11.3h-.2c-.9 4.1-1.9 7.7-3.1 11.3l-5.6 16.3h-5.6l-10.3-34.3h6.2v.1z"/></svg>
