<svg xmlns="http://www.w3.org/2000/svg" viewBox="0 0 500 500"><path fill="none" stroke="#000" stroke-width="5" stroke-miterlimit="10" d="M34.7 378.5L404.8 97.2l90.7 160.5"/><path d="M222.6 145.3s139.7 0 205.8 52.9 39.6 94.4 13.2 111.4c-26.4 17-96.3 56.6-281.3 41.5s-155.6-48-155.6-48 5.6-18.9 60.4-34c54.8-15.1 82.1-2.9 82.1-2.9s-101 16-101 38.7 79.3 18.9 122.7 18.9S354 318.1 369.1 252c15.1-66.1-146.5-106.7-146.5-106.7z" fill="#da0017"/><path d="M493.6 258.8l-89.4-158.4-140.9 107.2-2.7-3.5L405.5 94l91.9 162.6z"/></svg>
