<svg id="Layer_1" xmlns="http://www.w3.org/2000/svg" viewBox="0 0 500 500"><path fill="none" d="M141.1 202.9c.4 7.7-12.5 11-17.5 17.4h.1c5.1-6.5 17.8-9.7 17.4-17.4zM61.6 307.1c.1-3.4 1.1-6.4 2.9-8.4-1.9 2.1-2.8 5-2.9 8.4zM136 193.8zM137.3 195.3s0-.1 0 0c0-.1 0 0 0 0zM155 206.3c4.7-.2 5.2-3.1 4.4-7.2.8 4.2.2 7-4.4 7.2zM152.9 212.6l-1.2.6-.6.3c.3-.1.5-.3.8-.4.3-.2.7-.3 1-.5zM138.5 196.7c0-.1-.1-.1-.1-.2 0 .1 0 .1.1.2zM125.6 220.1c2.2 0 4.3.4 6.2.4-1.9.1-4-.4-6.2-.4zM136.5 267.2c5.5 1.4 8.7 5.3 8.6 11.8-.7 2.9-1.9 5.5-3.4 7.5 1.6-2 2.8-4.6 3.5-7.5 0-6.5-3.1-10.4-8.7-11.8zM108 307.8c-.9 0-1.9-.2-2.9-.4 1 .2 2 .3 2.9.4zM95.4 297.6c.1 5.1 4.6 8.5 9.6 9.8-5-1.3-9.5-4.8-9.6-9.8zM139.4 198c-.1-.1-.1-.2-.2-.3.1.1.1.2.2.3zM74 295.6c7.4.6 10.4 6.5 10.2 13.5-.1 7.4-5.8 9.6-12.4 9.6h-.2.2c6.6 0 12.3-2.1 12.5-9.6.1-7.1-2.9-12.9-10.3-13.5zM159.5 233.2c.4-.1.7-.2 1.1-.3.7-.1 1.4-.4 1.9-.8-.5.4-1.1.6-1.8.7-.3.2-.7.3-1.2.4zM87.8 264c.3 0 .6.1.9.1-.3-.1-.6-.1-.9-.1zM100.3 274.1c-.3-3.4-1.9-5.9-4.6-7.6 2.6 1.8 4.2 4.3 4.6 7.6.5 6.8-4.9 11.5-11 12.1h-1.1 1.2c6-.6 11.4-5.2 10.9-12.1zM144.9 319c-.4-7.7-5.1-11.4-12.8-11.1-7.2.3-10.5 4.6-10.5 10.6 0-6 3.4-10.3 10.5-10.5 7.8-.4 12.3 3.3 12.8 11v1.4c.1-.5.1-1 0-1.4zM61.6 307.1c-.3 6.4 2 10.9 8.8 11.5-6.7-.5-9-5-8.8-11.5zM68.9 216.5c0 .1 0 .1 0 0-.6-4.7-1.1-7.6-1.1-9.8 0 2.2.4 5.2 1.1 9.8zM74.8 208.5c-.8-2-1.1-4.4-1.4-6.8.3 2.4.6 4.9 1.4 6.8z"/><path fill="none" d="M78.6 188.5c-5.9.4-11.4 2.9-13.5 8.4-.8 2.3-1.4 4.6-1.5 7 0-2.4.6-4.7 1.5-6.9 2.1-5.5 7.6-8 13.5-8.5 7.6-.4 12.4 4 13.3 11 .2 1.9.1 3.6-.5 5.3.6-1.7.8-3.5.5-5.4-1-7-5.7-11.4-13.3-10.9zM140.1 199.3c-.1-.1-.1-.3-.2-.4.1.1.1.3.2.4z"/><circle fill="none" cx="30.6" cy="253.8" r="5.2"/><path fill="none" d="M414.6 256.5c1.5 1.3 3.1 2.7 4.2 4.6-1.1-1.9-2.6-3.3-4.2-4.6zM93.9 189.5c4.3 6.2 3.9 13.3 2.1 23.5 1.8-10.1 2.3-17.3-2.1-23.5z"/><path fill="none" d="M419.7 262.8c0 .1.1.1.1.2-.8-3.8-4.7-5.3-5-8.7.2 3.4 3.9 4.9 4.9 8.5zM75.1 180.2c6 2.1 12.5 2.8 17 7.1-4.6-4.4-11-5-17-7.1zM141 201.7c-.1-.2-.1-.5-.2-.7.1.2.1.5.2.7zM141.1 202.8c0-.3-.1-.6-.1-.9.1.4.1.6.1.9zM171.9 211.9c3.2-2.1 4.1-4.4 4.1-6.6 0 2.2-1 4.4-4.1 6.4-8.5-15-12.4-30.5-12.1-46.7-.3 16.2 3.6 31.8 12.1 46.9zM140.6 200.5c-.1-.2-.1-.4-.2-.6.1.2.2.4.2.6zM196.3 222.9c-20.4-22-22.8-45.7-11.3-72.9-11.4 27.2-9.2 50.9 11.3 72.9zM175.5 150.6v-.4-.4.8z"/><path fill="none" d="M187.7 188.3c.3 11.4 8.2 20.5 8.6 32.5-.3-12-8.3-21.2-8.6-32.5zM170.4 176.6c.1-3.1.7-6.2 2-9.2.3-.8.6-1.5.9-2.3-.3.7-.6 1.4-.9 2.2-1.4 3-2 6.1-2 9.3zM105.7 252.2c0-2.6.7-5.1 1.8-7.1-1.2 2-1.9 4.6-1.8 7.1-.1 4.9 1.7 8.3 6.4 10.2 1.8.7 3.6 1.1 5.3 1.1-1.7 0-3.5-.4-5.2-1.1-4.8-1.8-6.6-5.3-6.5-10.2zM193.4 288.3c-7.5.1-12.2-3.5-12.4-11.2-.1-2.8.5-5.2 1.7-7-1.3 1.8-1.9 4.2-1.8 7 .2 7.8 5 11.4 12.5 11.2zM204.2 255.9c-.3-2.5-1.8-4.3-4.1-5.9 2.3 1.6 3.8 3.4 4.1 5.9zM256 261.4c.2 6.9-4.1 12.2-8.2 17.7-2.6 3.6-3.9 7.7-3.9 11.7 0-4 1.2-8.1 3.9-11.6 4.1-5.5 8.5-10.9 8.2-17.8zM173.8 229.1c-1.9-.1-3.7 1.6-5.3 3.4 1.5-1.7 3.3-3.5 5.3-3.4zM191 266.5h-.2.2zM204.5 297.7c-4.9-1.9-4.3-4.2-.7-7.1 1.5-1.2 2.1-3.9 3.7-4.6 3.4-1.4-.8-7.8 3.3-7.9-4.3 0 0 6.5-3.4 7.9-1.6.6-2.1 3.4-3.7 4.6-3.6 2.9-4.1 5.2.8 7.1 2.5 1 4.4 5 6.6 5.1-2.1-.3-4-4.2-6.6-5.1zM182.7 270c.2-.2.3-.5.5-.7-.1.3-.3.5-.5.7zM193.7 323.4c-5.1 0-7.9-3.4-8-8.4.1 5 2.8 8.5 8 8.4 7.1.1 12.2-3.5 13-11.1 0-.4.1-.8.1-1.2 0 .4 0 .7-.1 1.1-.8 7.5-6 11.2-13 11.2zM423.5 289.7c7.5-.1 8.5-5.8 9.2-11.6.1-.8.1-1.6.2-2.4 0 .8-.1 1.6-.2 2.3-.7 5.9-1.7 11.7-9.2 11.7-3.4-.1-5.6-1.4-6.9-3.3 1.3 2 3.5 3.3 6.9 3.3zM265.9 249.1c17 3 27.3 13.3 30.9 30.3 1.4 6.5 1.6 16.6 10.3 14.7 8.5-1.9 7.7-10.2 6.3-17.6 1.3 7.3 2.1 15.7-6.3 17.5-8.7 1.9-8.9-8.2-10.3-14.7-3.6-17-13.9-27.3-30.9-30.2-5.9-1.1-11-.7-10.7 5.9-.2-6.5 4.8-7 10.7-5.9zM457.4 275.8c.2-1.7.3-3.4-2-4-9.3-2.1-15.5-10.2-26.2-13.6v.1c10.6 3.3 16.9 11.3 26.2 13.6 2.2.6 2.2 2.3 2 3.9zM376.8 274.3zM390.4 252.1c14.5 3 23.8 10.8 24.2 27.1V279.1c-.3-16.2-9.8-24-24.2-27-6.5-1.6-15.3-5.1-19.7-.5-1 1.1-1.4 2.2-1.4 3.4 0-1.2.4-2.3 1.4-3.3 4.3-4.5 13-.9 19.7.4zM228.9 285.5c1.1-11.5-10.2-24.3 4.7-34.3.3-.2.3-1.1.2-1.2-12-7.2-7.1-24.3-18.9-31.8-14.5-9.1-19.5-23.2-20.9-39.3-.2-2.5-.3-5.2-.6-7.7-3.2-28.6-3.2-28.7 25.8-28.7-29.1 0-29.1.1-25.9 28.7.3 2.5.4 5.2.6 7.7 1.4 16.1 6.5 30.2 20.9 39.3 11.7 7.4 6.8 24.5 18.9 31.8.1.1 0 1-.2 1.2-14.9 9.9-3.7 22.7-4.6 34.3-1.1 10.8 2.3 16.3 11.1 22.5v-.1c-8.7-6.2-12.1-11.6-11.1-22.4zM309.8 249.1c28.4-1.7 37.7 3.7 51.3 29.1 3.2 5.9 3.6 18.7 14 14.7 9.6-3.7 4.2-11.5 1.9-18.3 2.3 6.8 7.6 14.5-1.9 18.2-10.4 4.1-10.7-8.7-14-14.7-13.6-25.3-22.8-30.8-51.3-29-5.3.2-7.3 1.3-7.1 3.5-.2-2.1 1.9-3.2 7.1-3.5zM202 261.5c-.3.1-.6.1-.9.1.3 0 .6 0 .9-.1zM470.8 303.6c-9.1-6-13.3-14-13.5-24.4.1 10.4 4.4 18.6 13.5 24.4 3.4 2.3 7.2 4.7 8.7 9.2h.1c-1.5-4.5-5.4-6.9-8.8-9.2zM166.9 339.1c5.8-.9 10.5-4.2 10.2-10.6.2 6.4-4.4 9.6-10.2 10.6zM204.2 257.2c0 .4-.1.9-.2 1.4.1-.5.2-1 .2-1.4zM157.5 283.2c6.6 2 12.7 5.2 12.3 12.5.6-7.3-5.5-10.6-12.3-12.5-6.2 1.3-10.9 4.3-11 11.5v.1c.1-7.2 4.9-10.2 11-11.6zM163.7 244.5c7.1-.1 9.8 5.9 11.3 12.4-.5 2.7-1.4 4.9-2.9 6.5 1.5-1.7 2.4-3.9 2.9-6.5-1.5-6.5-4.1-12.5-11.3-12.4zM203.6 260.1c-.2.4-.4.7-.7.9.2-.2.5-.5.7-.9z"/><path fill="#cfcdd4" d="M418.8 261.1c.3.5.6 1.1.9 1.7-1-3.6-4.7-5.1-4.9-8.5v-.6c-1.1 0-2.2 0-3.4.1 1 1 2.2 1.8 3.3 2.8 1.5 1.2 3 2.6 4.1 4.5zM411.2 253.8l.3.3c-.1-.1-.1-.2-.2-.3h-.1z"/><path fill="#cfcdd4" d="M414.8 253.6s0 .1 0 0c0 .1 0 .1 0 0v.7c.2 3.4 4.2 4.9 5 8.7 0-.1-.1-.1-.1-.2-.3-.6-.5-1.2-.9-1.7-1.1-1.9-2.7-3.3-4.2-4.6-1.1-.9-2.2-1.8-3.3-2.8l-.2-.2c0 .1.1.1.1.2.1.1.1.2.2.3 3.8 5.7 7.6 11.4 11.3 17 .2-7.2-2.1-13.2-7.9-17.4z"/><path d="M470.8 303.7c-9.1-6-13.3-14.1-13.5-24.5v-2c0-.5.1-.9.1-1.4.2-1.7.2-3.3-2-3.9-9.3-2.2-15.5-10.2-26.2-13.6 1.7 6.4 3.6 11.8 3.6 17.3 0 .8-.1 1.6-.2 2.4-.7 5.9-1.7 11.5-9.2 11.6-3.4 0-5.6-1.3-6.9-3.3-1.3-1.9-1.8-4.4-2-7v-.2c-.4-16.2-9.8-24-24.2-27.1-6.6-1.4-15.3-5-19.7-.4-1 1-1.4 2.2-1.4 3.3 0 4.3 5 9.3 5.9 14.2.2.8.9 1.6 1 2.3.1.9.4 1.8.7 2.7v.1c0 .1.1.2.1.3 2.4 6.8 7.7 14.5-1.9 18.3-10.4 4-10.7-8.8-14-14.7-13.6-25.4-22.9-30.8-51.3-29.1-5.1.3-7.2 1.4-7.1 3.5.1 1.4 1 3.2 2.7 5.5 3.4 4.9 6.4 10.1 7.6 16.2.1.7.2 1.3.4 2 1.3 7.4 2.2 15.8-6.3 17.6-8.7 2-8.9-8.1-10.3-14.7-3.6-17-13.9-27.3-30.9-30.3-5.9-1.1-10.9-.7-10.7 5.9 0 1 .2 2 .5 3.3.2 1.1.4 2.1.4 3.1.2 7-4.1 12.4-8.2 17.8-2.6 3.6-3.9 7.6-3.9 11.6 0 6.7 3.5 13.2 9.9 16.9 7.6 4.4 15.8 5.9 24.7 6 60.3.8 120.6-2.1 180.8 1.7 6.7.4 13.8 1.5 20.2-2.3 0-.1 0-.1-.1-.2-1.4-4.2-5.2-6.7-8.6-8.9z" fill="#deb262"/><path d="M242.7 268.7c1.4-3.4 6.9-5.2 5.1-9.7-3.6-8.5 2.5-10.7 7.7-14.6 21.4-15.5 46.6-57.9 37.2-90.7-2.5-8.8-6.3-10.8-14.1-10.8-19.8 0-39.6-.5-59.4-.5h-.1c-29 0-29 .1-25.8 28.7.3 2.5.4 5.2.6 7.7 1.4 16.1 6.4 30.2 20.9 39.3 11.7 7.4 6.8 24.5 18.9 31.8.1.1.1 1-.2 1.2-14.9 10-3.6 22.8-4.7 34.3-1 10.8 2.4 16.3 11.1 22.4 0 0 .1 0 .1.1-1.9-23.4-1.2-29.6 2.7-39.2z" fill="#3093df"/><path d="M126.1 250.7s2 4.9 9.8 2c7.8-2.9 7.8-15.6 7.8-15.6s1.1 5.1 6.9 4.1c2.5-3.4 5.4-6.6 9-7.8.4-.1.9-.3 1.3-.4.7-.1 1.2-.4 1.8-.7 2.5-1.7 3.4-5.9 2.7-12.6-.5-4.5-6.2-9.7-12.4-6.9-.3.2-.7.3-1 .5-.3.1-.5.3-.8.4-2.3 1.4-4.5 2.8-6.7 4.2-3.3 4.3-4.7 10.4-4.7 10.4-3.9-3.9-9.8 0-14.7 2.9-3.9 2.3-2.2 10.2-1.4 13.4.4.8.4 1.3.4 1.3s-.2-.5-.4-1.3c-.5-1-1.7-2.5-4.5-3.6-1-.4-2-.6-3-.6-.9.6-2 1.1-3.2 1.2-2.5.3-4.3 1.7-5.5 3.7-1.2 1.9-1.8 4.5-1.8 7.1-.1 4.9 1.8 8.4 6.4 10.2 1.7.7 3.5 1.1 5.2 1.1 2.2 0 4.2-.9 5.3-2.9.9-1.6 1.9-2.6 3-3.4.6-2.5.9-5 .5-6.7z" fill="#d762b5"/><path d="M136.5 267.2c-6.3-1.6-10.5 2-12.6 7-.1.3-.3.7-.4 1-2.6 7.5-6.4 11-15 10-.4 0-.8-.1-1.2-.1-.8 0-1.5.1-2.2.2-1.4.3-2.8 1-4 1.8s-2.2 1.9-3.1 3.2c-1.1 1.5-1.9 3.3-2.3 5-.2.8-.3 1.5-.3 2.3.1 5 4.6 8.5 9.6 9.8 1 .3 2 .4 2.9.4 6.3.2 9-5 10.1-11 1.4-6.9 2.5-11 11.6-7.4 5.4 2.2 9.3.5 12-2.9 1.6-2 2.7-4.6 3.4-7.5.2-6.5-3-10.4-8.5-11.8z" fill="#d296c4"/><path d="M176 205.3c0-2.5-1.2-5.1-1.8-7.7-1.7-6.8-4-14-3.9-20.9.1-3.2.7-6.3 2-9.3.3-.7.6-1.5.9-2.2 1.8-5 1.9-9.6 2.2-14.5v-.5-.3c.3-4.2-.5-7.3-6-7.4-4.5-.1-7.1 1.1-8 6.1-1 5.6-1.6 11.1-1.7 16.6-.3 16.2 3.6 31.7 12.1 46.7 3.2-2.3 4.2-4.4 4.2-6.6z" fill="#1a87cd"/><path d="M197.2 260.9c.3 0 .6 0 .9.1.9.2 2 .5 3 .6.3 0 .6 0 .9-.1.3-.1.6-.2.8-.5.3-.2.5-.5.7-.9.2-.4.4-.9.5-1.5.1-.5.2-1 .2-1.4v-1.3c-.3-2.5-1.8-4.3-4.1-5.9-7.8-5.7-16.8-10.1-22.7-18.3-1.3-1.8-2.5-2.5-3.7-2.6-1.9-.1-3.7 1.6-5.3 3.4-2.9 3.3-2.1 6.3 1.9 7.8.3.1.5.2.8.3 1.6.7 3.1 1.6 4.3 2.6.4.4.8.7 1.1 1.1.3.4.7.8.9 1.2.7 1.1 1.1 2.3 1.3 3.6 1 12.5 9.2 12.8 18.5 11.8z" fill="#f3f3f3"/><path d="M196.3 222.9v-2.1c-.4-12-8.3-21.2-8.6-32.5v-1c.2-11.9-1.7-23.9-2.7-37.2-11.4 27.1-9.1 50.8 11.3 72.8z" fill="#8edcf4"/><path d="M91.9 199.6c-.9-7-5.7-11.4-13.3-10.9-5.9.4-11.4 2.8-13.5 8.4-.8 2.2-1.4 4.5-1.5 6.9-.1 4 1.3 8.2 5.3 12.7v-.1c-.7-4.7-1.1-7.6-1.1-9.8 0-3.5 1-5.1 3.6-9.1.7 1.2 1.7 2.1 1.9 3.2 0 .3.1.5.1.8.3 2.4.6 4.9 1.4 6.8 1.2 2.8 3.4 4.6 8.3 3.5 4.1-.9 7.1-3.6 8.3-7.3.5-1.5.7-3.3.5-5.1z" fill="#f5f5f6"/><path d="M84.2 309.1c.2-7.1-2.7-12.9-10.2-13.5-.5 0-1-.1-1.6-.1-3.5 0-6.2 1.2-7.9 3.2-1.8 2.1-2.8 5-2.9 8.4-.2 6.5 2.1 10.9 8.8 11.5h1.4c6.6.1 12.3-2.1 12.4-9.5z" fill="#a09fd1"/><path d="M123.7 220.3c.6-.1 1.3-.1 1.9-.1 2.2 0 4.3.4 6.2.4 1.7 0 3.1-.4 4.2-1.9.2-.2.3-.5.5-.8 4.1-7.6 10-11.2 18.5-11.5 4.6-.2 5.2-3 4.4-7.2-2.1-10.8-6.4-12.1-24.9-6.7l1.5 1.5c.5.5.9.9 1.3 1.4 0 0 0 .1.1.1.4.4.7.8 1 1.2 0 .1.1.1.1.2.3.4.5.7.7 1 .1.1.1.2.2.3.2.3.4.6.5.9.1.1.1.3.2.4.1.2.2.4.3.7.1.2.2.4.2.6.1.2.1.3.2.5s.1.5.2.7c0 .1 0 .2.1.3.1.3.1.6.1.9.3 7.4-12.4 10.6-17.5 17.1z" fill="#f8f7f7"/><path d="M169.8 295.9v-.2c.4-7.3-5.7-10.5-12.3-12.5-6.1 1.4-10.9 4.4-11 11.6-.1 7.1 4.2 10.8 11.1 11.2 7.1.5 11.9-3.8 12.2-10.1z" fill="#7c81be"/><path d="M132.1 307.9c-7.1.3-10.5 4.6-10.5 10.5v1.3c.5 6.6 5.4 10.4 12.1 11.3 5.5-1.9 10.9-4.2 11.2-10.7V319c-.5-7.7-5-11.4-12.8-11.1z" fill="#f8bee0"/><path d="M163.7 244.5c-4 0-7.6 1.2-9.7 4.1-.4.6-.8 1.2-1 1.9-.3.7-.5 1.5-.6 2.3s-.1 1.8-.1 2.7c.2 2.2.6 4.1 1.4 5.7 1 1.9 2.4 3.4 4.3 4.3.6.3 1.3.6 2.1.8.7.2 1.5.3 2.4.4h1.3c3.7 0 6.4-1.2 8.3-3.3 1.5-1.7 2.4-3.9 2.9-6.5-1.5-6.5-4.2-12.5-11.3-12.4z" fill="#50307a"/><path d="M193.4 288.3h.2c6.5-.2 10-3.9 10.5-10.8-1.1-7.2-5.6-10.8-13-10.9H190.8c-3.4 0-5.9 1-7.5 2.9-.2.2-.4.4-.5.7-1.3 1.8-1.8 4.2-1.7 7 .1 7.6 4.8 11.2 12.3 11.1z" fill="#d196c3"/><path d="M100.2 274.1c-.3-3.3-1.9-5.9-4.5-7.6-1.9-1.2-4.2-2-7-2.4-.3 0-.6-.1-1-.1h-.1c-4.8 2.1-11 3.9-10.4 11.5.6 6.4 5 10.8 10.8 10.8h1.1c6.3-.7 11.7-5.3 11.1-12.2z" fill="#f7bcdf"/><path d="M165.5 317.8c-6.6.6-10.3 4.8-9.9 11.1.4 6.2 3.9 10.3 11.2 10.2 5.7-1 10.4-4.2 10.2-10.6v-.1c-.1-6.4-3.8-11.3-11.5-10.6z" fill="#c85da8"/><path d="M197.3 302.2c-6.8.5-11.3 4.1-11.6 11.8v1c.2 4.9 2.9 8.4 8 8.4 7 0 12.2-3.6 13-11.2 0-.4.1-.7.1-1.1.1-5.5-3.2-8.5-9.5-8.9z" fill="#cf95c2"/><path d="M212.5 278.2c-.7-.2-1.2-.2-1.7-.2-4.2.1.1 6.5-3.3 7.9-1.6.7-2.2 3.4-3.7 4.6-3.6 2.9-4.2 5.3.7 7.1 2.5 1 4.4 4.9 6.6 5.1.5.1 1-.1 1.6-.5 3.8-2.9 4.7-8.5 4.8-13.7-.2-4.1.3-9.1-5-10.3z" fill="#f7f7f7"/><path d="M77 179.7c-.6.1-1.3.3-1.9.5 6 2.1 12.4 2.7 17 7.1.6.6 1.3 1.3 1.8 2.1 4.4 6.2 3.9 13.4 2.1 23.5 8.8-9.8 7.9-17.6 3.6-24.7-5.1-8.3-13.3-10.6-22.6-8.5z" fill="#e1e0e1"/><path d="M269.6 323.2l-4.2-2.1c-3.5-1.7-6.8-3.4-10.2-5.1-4.1-2-8.1-4.1-12.5-6.2 12.2 17.1 15.7 19 33.5 16.7-.8-.4-1.5-.8-2.3-1.1-1.4-.8-2.9-1.5-4.3-2.2z" fill="#2d7dba"/><path d="M64.4 225.3c8.8 3.6 14.7 6.4 21.9 4-6.1-1-11.5-6.9-21.9-4z" fill="#e0dde0"/><path d="M123.7 244.5c.2.8.4 1.3.4 1.3s0-.6-.4-1.3z"/><path d="M493.8 298.6c-2.1-3.2-4-6.5-6.4-9.6-16.2-21-41.9-27.4-63.4-40.1-2.5-1.6-7-1.3-10.1-.2-3.4 1.2.4 3.2.8 4.9v-.1c5.8 4.2 8.1 10.2 8 17.5v.1c-3.9-5.8-7.7-11.6-11.6-17.4-11.2-8.1-24.1-10.3-37.6-10.3-17.7.1-17.6.1-12 15.6.4 1.2 1 3.2-1.2 4-12.1-16.8-42.6-25-61.3-17.7-6.1 2.3-3.2 7-5.4 10.5-5.2-3.8-9.6-8.5-16-10.2-3.2-.8-9.6 1-8.3-4.9 1.1-4.7 5.5-8.7 10.7-10.2 1-.3 2.6.3 3.3 1.1 1.4 1.5 1.1 3.4-1.1 3.8-4.5.9-4.8 3.4-2.2 6.3 2.5 2.9 5.6 1.9 7.6-.9 3.1-4.2 3.8-9.7-.1-12.9-5.6-4.6-2.4-8.2-.3-12 11-19.4 13.1-39.8 10.5-62-1.6-13.6-7.2-16-18.6-16.3-31.4-.8-62.7 2.2-94.2.2-28.9-2-29-1.5-31.3 27.8-.1 1.7-.5 3.5-.2 5.1 2.7 11.5.7 17.3-13 12.8-7-2.2-10.9 5.1-14.5 9.2-3.4 4 1.4 6.2 5.6 7.1 3.9.9 2.6 3.3 1 5.8-6.2 9-17.3 12.8-29.5 10 8.3-19.6 4.7-33.2-10.8-40.4-14.4-6.6-31.1.6-39.7 16.7-3.8 7.2-4.5 14.5-2.1 22.4 4.3 14.6 17.1 18.3 30.9 22.5-13.2 11.5-26.2 19.3-41.8 21.9-.5-.8-1.4-1.5-1.4-2.1.2-6.9-1.3-12.4-10.1-10.9-7.4 1.3-7.6 6.3-6.7 12.6 1.4 10.6-9.9 14.6-13.3 22.8-3.4-3.1-7.6-2.9-6.2 2 3.3 10.7-1.6 20.9-.2 31.4 1.1 8.2 5.3 13.8 12.6 16.4 6.2 2.2 11.9-.2 16.5-4.7 4.8-4.7 3.2-10.3 1.4-15.5-2-5.6-6.7-6.2-11.6-5.6-6.4.7-7.5 5.3-8.2 11.4 8.2-6.8 11.5-7.6 14.1-3.6 2.4 3.7 1.8 7.4-1.4 10.5-5.8 5.6-10.2 1.3-14.7-2.1-1-.8-1.6-2.1-2.2-3.1-8.6-15.4 9.2-52.1 27-53.8 22.2-2.2 39.1-13.8 55-27.8 3.5-3.1 6.3-7.3 11.2-8.2 2-.4 4.9-.3 6 .9 1 1.1.9 5-.1 5.8-9.2 6.5-9.4 15.9-7.7 25.7-9.8-2.3-18.1-3.6-24.9 4.1-6.9 7.9-3.7 15.9-.4 24.7-11.3 1.4-20.3 6.6-20.1 18.9.1 9.6 7 15.6 16.7 16.7 13.4 1.6 17.7-7.6 19.4-17.2 12.4 4.9 28.2 6.1 29.8 23.8.1.8 2.1 1.4 3.1 2.1 8.5 6.4 17.8-2.8 23.3-.7 6.8 2.7 9.9 15.3 20.9 13 6.4-1.4 7.7 1.5 10 6.2 5.6 11.7 17.5 16.2 26.1 8 9.1-8.6 18.8-8.3 29.3-8.3 19.3-.1 38.8-.3 58.1-.9 3.6-.1 10.3 3 10.3-3.4 0-4.9-6.3-2.8-9.8-2.8-22.4-.3-44.8-.1-67.2-.5-8.9-.2-16.8 0-22.6 8.5-3.1 4.6-8.4 5.6-13.8 2.1-4.7-3-5.7-7.4-4.7-12.4 1.7-8.5 8.2-8.2 14.9-8.5 55.1-2.1 110.1 3.6 165.1 3.1 16.4-.1 32.7.2 49.1.2 23.7 0 47.4-.1 71.1-.3 3.1 0 7.6 1.2 7.4-4.4-.2-4.6-4.2-3.2-6.8-3.6-2.1-.3-4.3-.1-6.4-.1-59.4-.5-118.9-1-178.3-1.6-6-.1-12.2.4-15.4-4.4h192.9c6.5 0 14.8 3.8 19-3.5 4.2-6.8 2.3-14.4-1.8-21zM30.6 259c-2.8 0-5.2-2.3-5.2-5.2 0-2.8 2.3-5.2 5.2-5.2s5.2 2.3 5.2 5.2c0 2.8-2.3 5.2-5.2 5.2zm33.8-33.7c10.4-2.8 15.7 3 21.9 4-7.2 2.3-13.1-.4-21.9-4zm27-20.5c-1.2 3.6-4.2 6.4-8.3 7.3-4.9 1.1-7.1-.7-8.3-3.5-.8-1.9-1.1-4.4-1.4-6.8 0-.3-.1-.5-.1-.8-.2-1.1-1.2-2.1-1.9-3.2-2.7 4-3.7 5.5-3.6 9.1 0 2.2.4 5.1 1.1 9.8v.1c-4-4.5-5.3-8.7-5.3-12.7 0-2.4.6-4.8 1.5-7 2.1-5.5 7.6-8 13.5-8.4 7.6-.5 12.3 3.9 13.3 10.8.3 1.8.1 3.7-.5 5.3zm4.7 8.3c1.8-10.3 2.1-17.4-2.1-23.5-.6-.8-1.2-1.5-1.8-2.1-4.5-4.4-11-5.1-17-7.1.6-.2 1.3-.3 1.9-.5 9.4-2.2 17.5.2 22.7 8.6 4.2 7 5.1 14.8-3.7 24.6zM185 150c1.1 13.3 2.9 25.3 2.7 37.2v1c.3 11.3 8.2 20.5 8.6 32.5v2.1c-20.5-21.9-22.7-45.6-11.3-72.8zm-25.2 15c.1-5.4.7-11 1.7-16.6.9-5 3.5-6.2 8-6.1 5.4.1 6.3 3.3 6 7.4v.8c-.3 5-.4 9.6-2.2 14.5-.3.8-.6 1.5-.9 2.3-1.4 3-2 6-2 9.2-.2 6.9 2.1 14.1 3.9 20.9.6 2.6 1.8 5.2 1.8 7.7 0 2.3-1 4.5-4.1 6.6-8.6-14.9-12.5-30.5-12.2-46.7zm-18.7 37.9s0-.1 0 0c0-.3-.1-.6-.1-.9 0-.1 0-.2-.1-.3 0-.2-.1-.5-.2-.7 0-.2-.1-.3-.2-.5s-.1-.4-.2-.6c-.1-.2-.2-.4-.3-.7-.1-.1-.1-.3-.2-.4-.2-.3-.3-.6-.5-.9-.1-.1-.1-.2-.2-.3-.2-.3-.5-.7-.7-1 0-.1-.1-.1-.1-.2-.3-.4-.6-.8-1-1.2 0 0 0-.1-.1-.1-.4-.4-.8-.9-1.3-1.4l-1.5-1.5c18.5-5.4 22.8-4.1 24.9 6.7.8 4.1.3 7-4.4 7.2-8.5.3-14.4 3.9-18.5 11.5-.2.3-.3.6-.5.8-1.1 1.5-2.6 1.9-4.2 1.9-1.8 0-4-.4-6.2-.4-.6 0-1.3 0-1.9.1h-.1c5.2-6.2 18-9.4 17.6-17.1zm-33.6 42.2c1.2-2 3-3.4 5.5-3.7 1.2-.1 2.3-.6 3.2-1.2 1 .1 2 .2 3 .6 2.8 1.1 4 2.6 4.5 3.6-.8-3.1-2.5-11 1.4-13.4 4.9-2.9 10.7-6.8 14.7-2.9 0 0 1.4-6.1 4.7-10.4 2.2-1.4 4.4-2.8 6.7-4.2l.6-.3c.4-.2.8-.5 1.2-.6 6.3-2.8 12 2.3 12.4 6.9.6 6.7-.3 10.9-2.7 12.6-.6.4-1.2.7-1.9.8-.4.1-.7.2-1.1.3-3.6 1.2-6.4 4.4-9 7.8-5.7 1-6.9-4.1-6.9-4.1s0 12.7-7.8 15.6c-7.8 2.9-9.8-2-9.8-2 .4 1.7.1 4.2-.4 6.5-1.1.8-2.1 1.8-3 3.4-1.2 2.1-3.1 2.9-5.3 2.9-1.7 0-3.5-.4-5.3-1.1-4.7-1.9-6.4-5.3-6.4-10.1-.2-2.4.5-5 1.7-7zm44.9 7.7c.1-.8.3-1.6.6-2.3.3-.7.6-1.3 1-1.9 2-2.8 5.7-4.1 9.7-4.1 7.2-.1 9.8 5.9 11.3 12.4-.5 2.7-1.4 4.9-2.9 6.5-1.9 2.1-4.6 3.3-8.3 3.3h-1.3c-.9-.1-1.6-.2-2.4-.4-.7-.2-1.4-.5-2.1-.8-1.9-.9-3.4-2.4-4.3-4.3-.8-1.6-1.3-3.5-1.4-5.7 0-.9 0-1.9.1-2.7zm-80.6 65.9h-1.4c-6.7-.5-9-5.1-8.8-11.5.1-3.5 1.1-6.4 2.9-8.4 1.8-2 4.4-3.2 7.9-3.2.5 0 1.1 0 1.6.1 7.5.6 10.5 6.5 10.3 13.5-.2 7.3-5.9 9.5-12.5 9.5zm17.5-32.5c-.4 0-.8.1-1.2 0-5.8 0-10.3-4.4-10.8-10.8-.7-7.6 5.6-9.4 10.4-11.5h.1c.3 0 .6.1.9.1 2.7.4 5.1 1.2 7 2.4 2.7 1.7 4.3 4.2 4.6 7.6.5 7-4.9 11.6-11 12.2zm44.5 44.9c-6.7-1-11.6-4.7-12.1-11.3v-1.3c0-6 3.3-10.4 10.5-10.6 7.7-.3 12.4 3.4 12.8 11.1v1.4c-.3 6.5-5.7 8.7-11.2 10.7zm7.9-44.6c-2.7 3.4-6.6 5-12 2.9-9.1-3.6-10.3.5-11.6 7.4-1.1 6-3.8 11.2-10.1 11-.9 0-1.9-.2-2.9-.4-5-1.3-9.6-4.7-9.6-9.8 0-.7.1-1.5.3-2.3.4-1.8 1.2-3.5 2.3-5 .9-1.2 1.9-2.3 3.1-3.2s2.5-1.5 4-1.8c.7-.2 1.5-.2 2.2-.2.4 0 .8 0 1.2.1 8.7 1.1 12.4-2.4 15-10 .1-.3.3-.7.4-1 2.1-5 6.3-8.6 12.6-7 5.6 1.4 8.7 5.3 8.7 11.8-.8 2.8-2 5.5-3.6 7.5zm4.8 8.3c.1-7.3 4.9-10.4 11-11.7 6.7 2 12.8 5.3 12.3 12.6v.2c-.4 6.3-5.2 10.6-12.2 10.2-6.9-.4-11.2-4.1-11.1-11.3zm30.6 33.7c.3 6.4-4.4 9.7-10.2 10.6-7.3.1-10.8-4-11.2-10.2-.4-6.4 3.2-10.6 9.9-11.1 7.6-.7 11.3 4.2 11.5 10.7zm.3-82.8l-.9-1.2c-.3-.4-.7-.8-1.1-1.1-1.2-1.1-2.7-1.9-4.3-2.6-.3-.1-.5-.2-.8-.3-4-1.6-4.8-4.5-1.9-7.8 1.6-1.8 3.4-3.6 5.3-3.4 1.2.1 2.4.8 3.7 2.6 5.9 8.2 14.8 12.6 22.7 18.3 2.3 1.6 3.8 3.4 4.1 5.9 0 .4.1.8 0 1.3 0 .4-.1.9-.2 1.4-.1.6-.3 1.1-.5 1.5-.2.4-.4.7-.7.9-.3.2-.5.4-.8.5-.3.1-.6.1-.9.1-1 0-2-.4-3-.6-.3-.1-.6-.1-.9-.1-9.3 1-17.5.7-18.6-11.6-.1-1.5-.5-2.7-1.2-3.8zm3.5 31.3c0-2.8.6-5.2 1.8-7 .2-.2.3-.5.5-.7 1.6-1.8 4.1-2.9 7.5-2.9H191c7.4.1 11.9 3.7 13 10.9-.5 6.9-3.9 10.6-10.5 10.8h-.2c-7.4.4-12.2-3.2-12.4-11.1zm25.8 35.2c-.8 7.6-5.9 11.2-13 11.2-5.2 0-7.9-3.5-8-8.5v-1c.3-7.7 4.8-11.3 11.6-11.8 6.3.5 9.6 3.4 9.4 8.9v1.2zm6-9.9c-.6.4-1.1.6-1.6.5-2.2-.1-4.1-4.1-6.7-5.1-4.8-1.9-4.3-4.2-.7-7.1 1.6-1.2 2.1-4 3.7-4.6 3.5-1.4-.9-7.9 3.4-7.9.4 0 1 .1 1.7.2 5.3 1.2 4.8 6.2 5 10.4-.1 5.1-.9 10.6-4.8 13.6zm27.3 5.6c-8.8-6.2-12.2-11.6-11.2-22.5 1.1-11.5-10.2-24.3 4.7-34.3.2-.2.3-1.1.2-1.2-12-7.2-7.1-24.3-18.9-31.8-14.4-9.1-19.5-23.2-20.9-39.3-.2-2.5-.3-5.2-.6-7.7-3.2-28.6-3.2-28.7 25.9-28.7h.1c19.8 0 39.6.5 59.4.5 7.8 0 11.5 2.1 14.1 10.8 9.4 32.7-15.8 75.1-37.2 90.7-5.2 3.8-11.3 6.1-7.7 14.6 1.9 4.5-3.7 6.3-5.1 9.7-4 9.6-4.7 15.8-2.8 39.2.1 0 0 0 0 0zm2.7 1.9c4.3 2.2 8.4 4.2 12.5 6.2 3.4 1.7 6.7 3.4 10.2 5.1l4.2 2.1c1.4.7 2.9 1.4 4.4 2.2.7.4 1.5.7 2.3 1.1-17.8 2.2-21.3.4-33.6-16.7zm236.9 3.2c-6.4 3.8-13.5 2.7-20.2 2.3-60.2-3.7-120.5-.9-180.8-1.7-8.9-.1-17.1-1.6-24.7-6-6.4-3.7-9.9-10.2-9.9-16.9 0-4 1.2-8.1 3.9-11.7 4.1-5.5 8.4-10.8 8.2-17.7 0-1-.2-2-.4-3.1-.3-1.2-.4-2.3-.5-3.3-.3-6.6 4.8-7 10.7-6 17 3 27.3 13.3 30.9 30.3 1.4 6.4 1.6 16.5 10.3 14.7 8.5-1.9 7.6-10.2 6.3-17.5-.1-.7-.2-1.3-.4-2-1.2-6.2-4.2-11.3-7.6-16.2-1.7-2.4-2.6-4.2-2.7-5.5-.2-2.3 1.9-3.3 7.1-3.6 28.5-1.7 37.7 3.8 51.3 29.1 3.2 6 3.6 18.8 14 14.7 9.4-3.7 4.2-11.4 1.9-18.2 0-.1-.1-.2-.1-.3v-.1c-.3-.9-.6-1.8-.7-2.7-.1-.8-.8-1.6-1-2.3-.9-4.8-5.9-9.9-5.9-14.2 0-1.2.4-2.4 1.4-3.4 4.4-4.6 13.2-1.1 19.7.4 14.5 3 23.9 10.8 24.2 27.1v.3c.1 2.6.7 5.1 2 7 1.4 1.9 3.5 3.2 6.9 3.2 7.5 0 8.5-5.8 9.2-11.6.1-.8.1-1.6.2-2.3 0-5.5-1.9-10.9-3.6-17.3v-.1c10.6 3.4 16.9 11.4 26.2 13.6 2.3.5 2.2 2.2 2 4 0 .5-.1 1-.1 1.4v2c.2 10.3 4.4 18.4 13.5 24.4 3.4 2.2 7.3 4.7 8.8 9.2h-.1c-.1-.1 0-.1 0 0z"/></svg>
