<svg xmlns="http://www.w3.org/2000/svg" viewBox="0 0 600 600"><path d="M15.74 472.915c.973-6.163 1.784-11.515 2.757-17.354-4.703-3.568-9.244-7.136-15.569-12.001 20.597-78.172 41.519-156.992 62.602-237.11 10.055 1.622 19.137 3.081 28.868 4.703l8.92-31.463c13.623 3.406 26.922 6.487 39.897 10.055 22.219 6.163 44.762 7.298 67.63 6.001 40.059-2.433 64.062 9.569 88.714 39.735 3.568-3.73 6.974-7.298 10.542-11.028 15.245-16.38 34.058-28.057 56.277-28.057 43.789.162 87.254-1.135 129.746-17.84 3.406 11.839 6.325 21.895 9.569 33.085 9.407-1.784 18.002-3.568 28.544-5.676 20.92 79.305 41.841 158.126 62.763 237.271-5.676 4.379-10.217 7.947-15.569 12.001.973 5.676 2.108 11.353 3.406 18.327-34.545 18.813-70.711 31.301-109.959 34.707-15.569 1.297-31.139 2.271-46.384 4.541-29.031 4.379-55.791 13.785-74.766 37.788-35.356-11.353-70.063-12.164-106.716 0-18.327-22.706-44.438-33.247-73.631-37.626-15.407-2.271-30.815-3.73-46.384-4.703C91.641 506 46.716 492.052 15.74 472.915zM483.31 202.72c-35.031 11.191-68.927 13.461-103.148 11.677-6.974-.324-14.272.973-21.246 2.595-30.004 6.649-46.871 27.733-46.871 58.223l-.487 224.46c0 5.514.487 11.028.811 16.38 16.218-15.083 30.652-30.328 46.871-43.303 33.247-26.436 72.495-38.275 114.176-43.14 20.759-2.433 41.194-6.487 60.98-17.678-17.027-69.089-33.732-138.016-51.086-209.214zM65.53 411.934c19.948 11.028 39.735 15.407 59.845 17.516 63.089 6.487 115.636 32.436 155.857 82.226 1.135 1.46 3.406 1.946 7.136 4.055v-19.948c-.324-74.766-1.297-149.694-.487-224.46.162-20.597-8.758-33.896-24.165-44.762-14.921-10.38-31.788-13.461-49.465-12.326-30.166 1.784-59.683-.811-88.876-8.92-2.595-.649-5.514-.649-9.244-1.135-17.03 69.9-33.735 138.827-50.601 207.754zm444.54-179.373c15.569 63.9 30.815 126.502 46.384 190.402-6.812 3.406-12.975 6.649-19.3 9.569-23.679 10.866-48.979 14.921-74.604 18.002-41.843 5.028-77.523 22.543-108.662 50.601-1.297 1.135-2.757 2.433-3.892 3.73-.973 1.297-1.784 2.919-4.541 7.623 43.303-27.409 87.578-38.437 133.8-43.789 34.22-3.892 66.17-14.11 95.85-34.22-18.327-68.927-36.329-137.206-54.655-206.296-4.379 2.108-6.487 2.919-10.38 4.378zM249.282 506.973c-24.652-26.436-54.493-44.276-89.687-52.223-15.083-3.406-30.652-5.19-45.898-7.623-24.327-3.892-47.519-10.866-69.9-24.652 15.407-63.251 30.652-126.178 46.06-189.753-3.73-1.297-6.325-2.271-10.542-3.73-18.327 69.252-36.329 137.692-54.493 206.458 24.327 14.921 48.655 25.787 75.415 30.328 18.813 3.244 37.788 5.352 56.602 8.92 32.273 5.839 62.926 16.868 92.443 32.275zM116.941 139.631c49.79-67.954 115.636-93.741 193.645-90.335 68.765 3.081 126.664 29.679 168.669 90.173-11.191 2.433-19.624 4.217-28.544 6.163-39.41-47.519-90.984-68.603-151.478-68.765s-112.23 20.435-152.289 67.954c-4.541-.811-9.082-1.622-13.785-2.433-4.216-.811-8.271-1.46-16.218-2.757z"/><path d="M226.09 168.175c-8.758-3.244-16.867-6.325-25.463-9.407 41.843-55.628 148.072-59.845 196.24-.162-4.379 1.946-8.433 3.73-12.65 5.352-3.892 1.46-7.785 2.919-12.488 4.703-47.357-33.733-95.687-35.031-145.639-.486zM299.558 212.451c-8.109-6.649-15.569-12.812-22.868-18.813 15.083-15.732 31.788-15.083 45.087 0-7.136 6.162-14.11 12.163-22.219 18.813z"/></svg>
