<svg version="1.1" id="Layer_1" xmlns="http://www.w3.org/2000/svg" x="0" y="0" viewBox="0 0 1000 1000" style="enable-background:new 0 0 1000 1000" xml:space="preserve">↵  <style>↵    .st1{fill:#fff}.st2{fill:#08162e}↵  </style>↵  <ellipse cx="552.3" cy="508.3" rx="437" ry="452.2" style="fill:#263f93;stroke:#08162e;stroke-width:1.5;stroke-miterlimit:10"/>↵  <path class="st1" d="M744 154s-3-3-6 0-15 2-17 10 2 16 0 18-3 2-1 7 9 11 11 14l5 7s10 0 8-3l-3-8-2-11 1-6s4-4 4-8 3-8 3-8v-10l-3-2zM467 346l-6 10c-2 5 0 15 0 15l6 3h10v7l-4 7s-3-4-5 4 0 11 0 15c1 5 11 8 18 4 8-5 10-15 10-15s2-1 0-5l-6-12-1-5-6-7-5-6-5-9-6-6zm-29 42c-2 2-5-4-3 6 2 11-1 16 6 13 7-2 7-2 10-5 4-3 4-5 4-8v-9s-14 0-17 3zm-21-120s-14-8-17 0c-2 7-18 5-18 10s2 13 4 14 11 7 13 6c3-2 9 1 14-6 6-7 10-12 10-15s-6-9-6-9zm150-145s-4-3-5 0-8 12-3 14c4 3 12 0 12 0v-13l-4-1zm19-18s-7 5-5 7h4v-7zm-39 12c-5 4 0 5 0 5v-5zM130 605c1-6-34-108 0-162 0 0 8-17 10-18s10-5 12-9l11-19s-3-21 0-27l5-24 9-13c2-1 12-12 10-3-2 8 2 18 0 20-1 2-1 2 6 5s10 3 12 6c2 4 0 11 0 14l-2 10c-2 5 1 13 3 12 3-1 8-3 8 0 1 3 11 7 0 11-10 4-13 4-21 10s-4 13-13 13c-10 1-18-1-18 6s-1 9 3 11c3 2 10 0 10 0s6 4 0 10c-7 6-10 9-15 18s-5 11-10 25c-5 15-12 36-12 46 1 11 7 42 15 51 7 9 34 41 72 56s106 39 124 41 40 0 40 0 12-17 9-26c-4-9-12-19-11-27s4-14 11-20l21-15c7-4 14 0 13-8-1-7 0-18 6-27 5-9 7-11 11-14s20 0 29-2 11-20 45-18 33-2 34 2c1 3-4 25 0 24s39 16 43 20 20 8 20 8 1-23 5-24c4 0 31 12 39 10s17 2 17 2l13 18s15 14 17 20 8 10 8 10 10 2 7 9c-2 8-4 29 1 37 5 9 20 15 26 25 6 9 14 15 14 15s11-7 21-7c11 0 17 11 14 12s-34 51-45 54c-10 2-25 19-25 19s-4 15-4 23c0 7 0 34-2 35s-28 11-34 21l-17 27-36 16c-3 1-14 8-14 17 0 8 3 26-7 26-10 1-68 9-82 0-13-9-26-58-26-65 0-8-2-14-2-14s-82 25-142 16c-61-10-90-37-90-37l-71-76c1-1-85-125-75-176zm632 233s-6-2-11 3c-5 6-17 15-17 17s-3 22 0 22 10 0 13-6l9-12c4-4 2-4 6-9s6-13 6-13l-6-2zM382 105l21 3c8 3 16 9 20 9s15-3 15 2-1 13-6 20c-5 6-7 6-9 14-2 7-4 14-8 21s3 13-5 16-16 4-20 4-11 0-11 4 7 10 0 12-13 0-14 7 14 12 10 17l-10 13s-5-1-15 5-15 12-21 19c-5 8-24 24-28 27-4 2-8 19-12 21l-11 8c-2 0-9 4-14 0-6-5-9-9-9-14s-2-7 0-15c1-8-2-5 3-17 6-12 4-11 11-19 7-9 11-12 12-19l3-26v-18c1-8 7-18 7-18l-8-8-6-3c1 0 62-70 105-65z"/>↵  <path class="st1" d="M403 213s-15-1-14 4 11 1 14-4zm-173 26c-2-1-1-6-9 0s-16 10-16 13c0 2-6 8 0 12 5 4 6 2 7 11 0 10-1 13 4 15 6 2 13 4 14 2 1-1 5-6 4-11s-3-5-3-9l1-4c1-6-1-8 2-11s3-6 3-8v-2l-7-8zm-28 59c-4 3-5 11-4 13 1 3 4 4 7 4 4 0 10-1 10-8 0-8 4-7 0-8l-13-1zm8 133c-5 1-17 4-12 9s8 6 12 3c4-2 10-9 10-9s0-2-3-3h-7zm752-58c-38-91-57-132-69-145l-45-54h-4s-16 4-16 8 11 22 11 22l13 25s-3 41-12 43-12 0-12 0l-12 1s3-9 0-11c-3-3-10-13-13-13s-9-5-9-5l-6-3-19 2h-17c-4 0-3-2-12 3l-21 12-17 22c0 2-6 14-8 14s-12-2-13-4l-8-10c-4-5-9-10-10-13-2-3-9-12-7-12s2-2 8-1c6 0 10 4 17 4 6 0 10 4 12 0 2-5 9-3 4-10-6-7-10-15-21-14-12 1-15 3-20 0-6-3-3-3-11-5-8-1-9-6-13-7-5-1-8-6-17-5-8 1-10-3-18 6-9 8-4 10-13 15l-19 10c-6 3-11 4-11 10v13c0 4 2 6 0 10l-6 13h-8l-11 7c-4 4 0 11 0 11s3 8-2 11c-5 4-7 6-8 10 0 5 5 9 5 9l4 4s7 5 10 0l7-11s9-4 10 3-1 11 3 17c3 6 4 6 9 10 4 4-1 10 8 6s12-7 12-10v-7l-1-7c1-2-2-3 4-4l12-4s2 1-3-6l-8-12-7-6-6-5v-4l9-8c5-3 7-4 9-8l3-8 7-9c5-7 8-10 12-10s8-2 6 3l-3 10c-2 0-10 7-12 12s-4 9-4 13l2 9c2 4 3 9 5 10l13 3 8-2h16c7 0 10-1 8 2l-6 8s-3 3-9 3h-18s2 1 3 7l1 10s-3 5-7 4 0-6-4-1c-4 6-5 2-4 6l1 9-8 17s-2 4-4 0c-2-3-9-8-11-7-2 2-2 6-8 9s-1 4-6 3c-4-1-7-5-11-6l-15-2c-2 0-5-2-8 1-2 3-2 7-6 7h-13l-4 1h-6s2 8 4 10c2 1-8 9-8 9s-2-1-8 3l-6 5-4 4v3h-9s-4-3-6 0-5 5-5 7v9l6 4c3 2 11 3 11 6 0 2 2 4 0 7l-3 6s1 5-1 8c-3 2-2 6-8 7h-20c-2 0 5 2-5 0-11-1-18 4-18 4v27c-2 2-2 6 0 8l3 11s1-4 6 0c4 4 10 6 13 6s6 2 10 0l10-4s6-6 6-8l3-6 6-3c2-2 4-2 6-5l4-7 3-8 4-7 4-7v-4l4-3 13-3 11-3s4-4 6-2l7 10c3 6 1 5 6 11l8 11c3 4 8 7 12 10 3 4-2 4 3 4h9s3 0 3-2 4 2 0-4l-4-6-9-11-12-12-8-8 2-3 9-4s6 0 14 5 12 6 13 10 9 15 9 15 4 3 9 14l6 12 6 2 6-2c2-1 2-4 2-6s-1-4 1-5 2-3 12-3l19-1v-14c0-7 0-10 2-14 2-5 0-7 6-11l9-7s0-9 7-5 16 2 19 2l12-6c-4 2-3 11 0 15 2 5-1 4 6 10l10 10s4 0 2 5-2 12-5 12c-3 1 10 4-3 1l-17-4-19-2c-7 0-11-2-14 3-2 6-13 14-13 14s-2-4-6 1c-3 4-11 8-5 14s9 9 13 10h21c13-1 14 3 17 1s5-6 9 0c4 7 9 7 4 16l-9 15-4 7c-3 3-11 1-7 8 4 8 13 15 19 27 5 12 27 46 29 52s8 7 9 10c0 3 9 16 9 16s58-21 62-32c4-12 14-28 14-28s-2-8-8-7c-6 2-12 0-16 0l-17-4-8-13-3-5-6-14v-10l25 22 17 3c5-1 15 2 15 2s16 4 19 3h17c2-1 14 6 14 6l4 2s5 15 5 19c0 5 1 33 4 41 2 8 6 2 8 1 3 0 13-40 13-40s-7 2 0-8c8-9 32-23 34-23l10-3s26-138-11-228zM823 527c-2 6-11 6-20 8s-10-6-17-10c-8-4 0-9 0-15v-19s-6-1-10-6c-4-6-2-13-3-17-2-4-5-6-5-10 0-3 7-8 10-11 3-2 14-10 25-12 0 0 1 5 5 10 3 4 2 9 1 13-2 4-6 12-6 16v4l7 7c5 5 4 7 4 12s1 5 4 7l4 9c3 3 2 8 1 14z"/>↵  <path class="st1" d="M795 207s7 3 10 7 8 6 9 9v10h-4c-3 1-8-7-8-7l-7-6v-13zm43 19-5 1s-1 8 2 9h8c1-1-5-10-5-10zm-83-66c-8 0-10-3-13 0s-10 3-10 9v6c1 3 4 5 4 5h8s3-6 6-6l5-4v-10zm-23 29c5 2 11 1 11 3l1 8s-2 5 0 7-6 4-6 4-2 0-2-4-4-7-4-7v-11z"/>↵  <path class="st2" d="M552 964c-243 0-440-204-440-456S309 52 552 52s441 205 441 456-198 456-441 456zm0-904c-239 0-433 201-433 448s194 449 433 449 434-201 434-449S791 60 552 60z"/>↵  <path class="st2" d="M8 413s71 316 346 326c289 11 371-188 371-188L583 961l-52-130s-241 91-416-117C-24 549 8 413 8 413z"/>↵</svg>
