<svg xmlns="http://www.w3.org/2000/svg" viewBox="0 0 500 500"><path fill="#ef3340" d="M435.2 6H66.1c-11 0-19.9 9.4-19.9 20.9v160.2c0 9.4 5.9 17.6 14.5 20.2L445.5 321c4.8 1.4 9.5-2.4 9.5-7.6V26.9C455 15.4 446.2 6 435.2 6zM120.5 141.9c-15.3 0-25.4-9.1-27.3-24.1l16.2-3.6c1.4 7.9 5.2 11.7 11.1 11.7 7.6 0 11.7-4.3 11.7-16V47.7h16.4v60.4c0 24.1-9.8 33.8-28.1 33.8zm102.6-29.3h-43.8c.4 8.1 5.9 15.2 15 15.2 6.4 0 11.6-3.5 15.4-10.4l12.6 4.9c-5.4 13-15 19.6-28.9 19.6-21.8 0-30.5-18.6-30.5-34.6s8.7-34.6 30.5-34.6c10.1 0 18.3 4.4 22.9 11.2 4.5 6.5 6.8 14.4 6.8 22v6.7zm50.6 22.8c-4.2 4.4-9.6 6.5-16.3 6.5-6.1 0-11.4-1.9-15.8-5.5s-7.6-7.9-9.5-12.6l12.5-7.1c2.5 7.3 6.8 11.1 12.7 11.1 5.2 0 7.8-2.4 7.8-7.2 0-2.1-1-3.9-3.4-5.1-1.1-.7-2.4-1.2-3.5-1.6-2.1-1.1-6.6-2.5-9-3.6-8.1-3.6-12.9-8.5-12.9-18.1 0-5.5 1.9-10 5.7-13.8 3.8-3.9 8.7-5.7 14.6-5.7 8.5 0 15.9 4.4 19.9 10.9l-9.3 9.1c-2.9-3.9-6.4-5.9-10.6-5.9-3.2 0-5.8 2-5.8 5.6 0 2.8 2 4.9 6.1 6.5l4.5 1.7 5.4 2c1 .4 2.5 1.3 4.5 2.5 2.1 1.2 3.7 2.3 4.5 3.5 1.9 2.3 3.9 6.3 3.9 10.9.3 6.3-1.8 11.5-6 15.9zm74.9 5.5h-15.7v-10.8c-5.2 7.9-11.7 11.9-19.7 11.9-11.7 0-19.6-7.1-19.6-20.2v-48h15.7v43c0 7.3 3 11.1 9.1 11.1 8.1 0 14.5-10.4 14.5-27.3V73.8h15.7v67.1zm53.2-5.5c-4.2 4.4-9.6 6.5-16.3 6.5-6.1 0-11.4-1.9-15.8-5.5s-7.6-7.9-9.5-12.6l12.5-7.1c2.5 7.3 6.8 11.1 12.8 11.1 5.2 0 7.8-2.4 7.8-7.2 0-2.1-1-3.9-3.4-5.1-1.1-.7-2.4-1.2-3.5-1.6-2.2-1.1-6.6-2.5-9-3.6-8.1-3.6-12.9-8.5-12.9-18.1 0-5.5 1.9-10 5.7-13.8 3.8-3.9 8.7-5.7 14.6-5.7 8.5 0 15.9 4.4 19.9 10.9l-9.3 9.1c-2.9-3.9-6.4-5.9-10.6-5.9-3.2 0-5.8 2-5.8 5.6 0 2.8 2 4.9 6.1 6.5l4.5 1.7 5.4 2c1 .4 2.5 1.3 4.5 2.5 2.1 1.2 3.7 2.3 4.5 3.5 1.9 2.3 3.9 6.3 3.9 10.9.2 6.3-2 11.5-6.1 15.9z"/><path fill="#ef3340" d="M193.4 86.8c-7.4 0-12.6 5.7-13.8 12.8H207c-1.7-8.5-6.3-12.8-13.6-12.8zM81.1 326h25.1v-12.6H81.1v-16.8h31.2V284H68.1v73.5h13V326M133.6 294.6c2.7-2.9 2.7-7.7 0-10.6-2.7-2.9-7.3-2.9-10 0s-2.7 7.7 0 10.6c2.7 2.9 7.3 2.9 10 0M122.4 304.5h12.4v53h-12.4zM148.3 283.1h12.4v74.4h-12.4zM229.9 303.7c-6.4 0-11.5 3.7-15.3 10.9-2.1-7.2-7.6-10.9-14-10.9-5.7 0-10.6 3.2-14.4 9.3v-8.5h-12.3v52.9h12.3V338c0-15.1 4.5-23.2 10.9-23.2 4.1 0 6.2 2.4 6.2 7.4v35.3h12.4v-20.6c0-14.3 4.5-22.1 10.9-22.1 4.1 0 6.2 2.4 6.2 7.4v35.3h12.3V320c-.2-10.2-5.9-16.3-15.2-16.3"/><g><path fill="#ef3340" d="M94.4 398.2H68.1v73.5H81V443h13.3c14.2 0 21.8-8.9 21.8-22.4.1-13.5-7.4-22.4-21.7-22.4zm-.5 32.1H81.1v-19.5h12.8c6.1 0 9.2 3.3 9.2 9.8 0 6.5-3.1 9.7-9.2 9.7zM138 427.4v-8.6h-12.4v52.9H138v-18.8c0-16.1 5.6-23.3 13.4-23.3 1.9 0 3.7.5 5.2 1.5l2.3-12.1c-2.2-.7-4.2-1.1-6.1-1.1-5.9 0-11.3 3.5-14.8 9.5zM190.3 417.9c-7.9 0-14 2.6-18.6 7.8-4.6 5.1-6.9 11.7-6.9 19.5 0 7.9 2.3 14.5 6.9 19.6 4.6 5.1 10.8 7.7 18.6 7.7 7.9 0 14-2.5 18.6-7.7 4.6-5.1 6.9-11.8 6.9-19.6 0-7.9-2.3-14.4-6.9-19.5-4.6-5.1-10.8-7.8-18.6-7.8zm9.1 38.9c-2.3 3-5.3 4.6-9.2 4.6-3.9 0-6.9-1.6-9.2-4.6-2.3-3.2-3.4-7-3.4-11.6 0-4.5 1.1-8.4 3.4-11.4 2.3-3.2 5.3-4.7 9.2-4.7 3.9 0 6.9 1.6 9.2 4.7 2.3 3 3.4 6.9 3.4 11.4 0 4.6-1.1 8.5-3.4 11.6zM227.4 467.2c0 9.3-3.8 13.2-11.7 15.3l3 11.4c14.3-3.5 21-11.9 21-28.4v-46.9h-12.3v48.6zM273.5 417.9c-17.2 0-24.1 14.7-24.1 27.3 0 12.6 6.9 27.3 24.1 27.3 11 0 18.5-5.1 22.8-15.4l-10-3.9c-3 5.5-7.1 8.2-12.2 8.2-7.2 0-11.6-5.6-11.9-12h34.6V444c0-6-1.8-12.2-5.4-17.3-3.4-5.3-9.9-8.8-17.9-8.8zm-10.8 21.3c.9-5.6 5-10.1 10.9-10.1 5.8 0 9.4 3.4 10.8 10.1h-21.7zM329.8 429.1c5.1 0 9.1 2.9 11.8 8.7l11.1-4.7c-3.9-10.1-11.5-15.1-22.8-15.1-7.9 0-13.8 2.6-18.1 7.8-4.3 5.2-6.4 11.7-6.4 19.5 0 7.9 2.1 14.4 6.4 19.5 4.3 5.1 10.3 7.8 18.1 7.8 11.4 0 18.9-5 22.8-15.1l-11.1-4.7c-2.7 5.8-6.7 8.7-11.8 8.7-7.6 0-11.6-6.5-11.6-16.2.1-9.7 4.1-16.2 11.6-16.2zM386.3 461.4c-4.4 0-6.6-2.3-6.6-8.6v-22.9H393v-11.1h-13.2v-21.4l-12.3 8.2v13.2h-7.8v11.1h7.8V453c0 12.9 6.9 19.5 18.4 19.5 2.9 0 5.6-.6 8.2-1.9l-2.9-10.5c-1.6.9-3.2 1.3-4.9 1.3zM228.6 398.3c-2.7 2.9-2.7 7.7 0 10.6 2.7 2.9 7.3 2.9 10.1 0 2.7-2.9 2.7-7.7 0-10.6-2.8-2.9-7.4-2.9-10.1 0zM438.9 389.7c-1.9-3.4-4.5-5.9-7.8-7.8-3.4-1.8-6.8-2.7-10.3-2.7-3.5 0-7 .9-10.3 2.7-3.4 1.8-6 4.4-7.9 7.8-1.9 3.4-2.8 6.9-2.8 10.5 0 3.6.9 7.1 2.8 10.4 1.9 3.3 4.4 5.9 7.8 7.8 3.3 1.8 6.8 2.8 10.4 2.8 3.6 0 7.1-.9 10.4-2.8 3.3-1.8 5.9-4.4 7.8-7.8 1.8-3.3 2.8-6.8 2.8-10.4-.1-3.6-1-7.1-2.9-10.5zm-3 19.2c-1.5 2.8-3.7 4.9-6.5 6.5-2.8 1.5-5.7 2.3-8.7 2.3-3 0-5.9-.8-8.7-2.3-2.8-1.5-4.9-3.7-6.5-6.5-1.5-2.8-2.3-5.7-2.3-8.7 0-3 .8-6 2.4-8.8 1.6-2.8 3.8-5 6.5-6.5 2.8-1.5 5.7-2.3 8.6-2.3 2.9 0 5.8.8 8.6 2.3 2.8 1.5 5 3.7 6.5 6.5 1.6 2.8 2.3 5.7 2.3 8.8.1 3.1-.6 6-2.2 8.7z"/><path fill="#ef3340" d="M424.4 403c-.5-.5-1.1-.9-1.9-1.2 1.9-.1 3.5-.8 4.7-2.1s1.8-2.7 1.8-4.3c0-1.2-.4-2.3-1.1-3.3-.7-1-1.6-1.8-2.8-2.2-1.2-.4-3.1-.6-5.8-.6h-7.8v22.6h3.6v-9.6h2.1c1.3 0 2.3.3 2.9.8 1 .7 2.2 2.5 3.8 5.3l2 3.6h4.4l-2.8-4.4c-1.1-2.3-2.2-3.7-3.1-4.6zm-4.8-3.8h-4.4v-6.8h4.1c1.8 0 3 .1 3.7.4.7.3 1.2.7 1.5 1.2.4.5.6 1.1.6 1.8 0 1-.4 1.9-1.2 2.5-.7.5-2.2.9-4.3.9z"/></g></svg>
