<svg xmlns="http://www.w3.org/2000/svg" viewBox="0 0 600 600"><path fill="#CDDA28" d="M299.422 8.074c23.744-.793 46.773 2.33 69.431 7.712 27.466 6.525 53.446 17.094 77.88 31.296 18.404 10.698 35.432 23.322 51.111 37.707 17.532 16.086 32.875 34.092 46.062 53.902a285.368 285.368 0 0 1 24.248 44.491c7.467 17.194 13.308 34.955 17.285 53.343 4.256 19.68 6.661 39.474 6.758 59.641.078 16.158-.489 32.224-3.035 48.175-3.622 22.685-9.599 44.688-18.355 66.003-7.801 18.987-17.449 36.901-28.995 53.798-5.144 7.529-10.909 14.633-16.378 21.941-.845 1.128-1.966 1.818-3.225 2.381-16.237 7.271-33.113 12.234-50.682 15.251-12.075 2.073-24.21 3.137-36.344 2.971-17.145-.235-34.127-2.327-50.82-6.807-15.115-4.057-29.596-9.537-43.505-16.619-2.913-1.483-5.723-3.17-8.557-4.805-2.346-1.353-2.892-2.828-.711-5.037 6.973-7.064 13.949-14.138 20.046-22.001 10.102-13.029 19.3-26.612 26.794-41.371 6.612-13.023 12.226-26.435 16.478-40.351 2.627-8.598 4.658-17.402 6.199-26.331 1.48-8.573 2.661-17.15 3.39-25.798.96-11.382.796-22.804.186-34.177-.629-11.715-2.528-23.323-5.092-34.78-2.29-10.232-5.105-20.31-8.607-30.231-4.148-11.749-9.428-22.951-15.168-33.944-6.282-12.03-13.947-23.188-22.284-33.903-11.564-14.861-24.905-27.955-39.536-39.722-11.081-8.912-22.978-16.616-35.492-23.45-15.325-8.369-31.369-14.909-48.076-19.737-13.861-4.006-27.983-6.997-42.434-8.123-8.996-.701-17.998-1.441-27.02-1.267-7.094.137-14.18.743-21.269 1.141-.998.056-2.242.393-2.654-.824-.395-1.168.689-1.778 1.538-2.34 11.768-7.789 24.092-14.56 36.819-20.668 12.648-6.07 25.748-10.946 39.067-15.199 8.252-2.635 16.765-4.437 25.227-6.383 10.016-2.304 20.16-3.764 30.318-4.872 9.845-1.074 19.798-1.546 29.402-1.013z"/><path fill="#CDDA28" d="M438.997 541.499c5.246.209 13.242-.292 21.242-.76 1.02-.06 2.584-.535 2.895.913.245 1.14-1.265 1.387-2.049 1.962-12.527 9.205-26.206 16.484-40.379 22.632-18.305 7.94-37.026 14.738-56.701 18.871-17.607 3.698-35.29 5.74-53.237 6.706-15.641.841-31.162-.019-46.579-1.847-22.902-2.715-45.269-8.122-66.843-16.479-19.62-7.601-38.361-16.836-55.999-28.442-16.468-10.836-31.687-23.045-45.86-36.736-16.903-16.329-31.376-34.561-43.825-54.389-9.311-14.83-16.866-30.577-23.434-46.855-6.195-15.352-10.724-31.154-14.229-47.245-2.492-11.444-3.938-23.088-5.068-34.789-.937-9.7-1.122-19.365-1.134-29.067-.023-18.227 2.136-36.231 5.741-54.066 5.348-26.457 14.136-51.744 26.559-75.707 8.165-15.749 18.174-30.317 28.427-44.805 6.692-9.456 16.155-12.734 25.923-16.494 11.108-4.276 22.701-6.715 34.289-8.974 7.816-1.524 15.878-2.057 23.858-2.406 14.563-.637 29.159-.308 43.547 2.138 14.125 2.401 27.951 6.128 41.388 11.248 10.362 3.948 20.263 8.791 29.83 14.351 3.177 1.846 3.5 3.177.887 5.797-5.657 5.675-11.2 11.43-16.387 17.551-5.545 6.543-10.58 13.419-15.395 20.515-5.392 7.945-10.51 16.027-14.77 24.62-5.207 10.505-9.934 21.195-13.636 32.376-2.767 8.358-5.232 16.754-7.237 25.313-2.784 11.886-4.219 23.959-5.284 36.09-1.049 11.945-.826 23.845.347 35.808.992 10.115 2.095 20.184 4.181 30.124 2.568 12.236 6.073 24.183 10.469 35.919 5.326 14.218 12.16 27.658 19.946 40.61 6.746 11.222 14.614 21.649 23.18 31.612 12.428 14.454 26.296 27.255 41.718 38.383 23.741 17.132 49.695 29.708 78.027 37.228 20.575 5.46 41.487 8.481 65.592 8.294z"/></svg>
