<svg xmlns="http://www.w3.org/2000/svg" viewBox="0 0 600 600"><linearGradient id="a" gradientUnits="userSpaceOnUse" x1="308.508" y1="1.923" x2="302.508" y2="587.923"><stop offset="0" stop-color="#085078"/><stop offset="1" stop-color="#84d7cd"/></linearGradient><path d="M444.8 28h-31.3c-5 15.6-10.3 31.1-15 46.8l6.5.2-.2 18.8c-1.1.6-2.3 1.2-3.4 1.7-11.3-12.7-22.9-25.1-33.9-38-5.8-6.8-10.4-7-16.2-.1-8.9 10.5-17.9 21.1-27.8 30.6-4 3.9-10.5 7.1-15.9 7.2-42.1.6-84.3.5-126.4.1-8-.1-11.2 2.3-12.3 10.3-1.7 12.5-5.3 24.8-6.7 37.4-1.2 10.1-5.4 14.7-15.6 13-8.7-1.5-11.6 2.9-12.9 10.9-2.8 16.9-6.9 33.6-10.1 50.4-4.2 22.3-12.2 44.8-11.3 66.9 2.5 59.2 8.8 118.1 13.6 177.2 2.1 25.9 4.1 51.8 6.1 77.7-14.7 4.5-28.3 8.4-41.7 12.9-13.4 4.6-26.6 9.5-39.8 14.8-12.6 5.1-25 10.8-37.5 16.3 193.4-42.7 386.1-42.6 579.1 1.5-2-2-4-3.5-6.2-4.3-33.4-12.6-66.8-25.3-100.4-37.3-6.5-2.3-9-4.9-8.6-11.6 1.3-26.3 2.2-52.6 3.1-78.9.2-5.6 0-11.2.1-16.8 0-2.2-.1-5.8 1-6.3 10.5-5.2 6.7-14.7 7-22.7.5-14.2.1-28.3.2-42.5 0-2.9-.4-7.8 1-8.5 10.1-5.1 6.6-14.1 6.8-21.7.4-15.7.1-31.3.1-47 0-2.6-.5-6.8.7-7.5 9.2-5.2 5.6-13.8 5.8-21 .4-13.4.7-26.9-.1-40.3-.3-5.4-2.5-11.6-6-15.8-12.1-14.6-25.2-28.5-37.8-42.7-1.7-1.9-4.7-4-4.7-6-.5-22.3-.5-44.7-.7-67L453 75h8l-16.2-47zm-292 173.9c-.2 1.3-1.3 2.4-2.7 4.8-3.1-14.6-6-27.8-9.1-42h18.7c-2.4 13.2-4.6 25.2-6.9 37.2zm28.9-96h95.6c-26.2 29.4-50.5 56.7-76.7 86-6.6-30.1-12.6-57.4-18.9-86zM475.6 415l-27.9 1.5c0 1.2-.1 2.4-.1 3.6 6.1.7 12.3 1.4 19.2 2.1v66.3H251.1v-67.1h73.1v33.4h36.9v-33.4H372l.4 33.3H408.1v-39.1H243v-66.9h81.2v33.8h36.6v-33.6l12.2.1-.5 33.4h35.7v-39.8H234.8v-70.5h89.3v33.1h37.1v-32.4l11.8.2-.1 32.4h35.2v-38.8H227.2c0-17.3-.1-33.3.1-49.3 0-2.3 1.6-5 3.2-6.8 42.4-47.6 84.9-95 131-146.5 1.7 3.9 5.3 7.6 7.4 10 39.6 44.6 76.6 88.9 116 133.7 3.7 4.2 5.8 11 6.2 16.7.9 13.3.3 26.8.3 41.3-10.5.6-20.4 1.1-30.4 1.7v3.2c7.1.5 14.1.9 22.1 1.5v70.7h-26.6c-.1 1.3-.1 2.5-.2 3.8 6.2.5 12.4 1.1 19.2 1.7.1 22 .1 43.8.1 66.7z" fill="url(#a)"/><linearGradient id="b" gradientUnits="userSpaceOnUse" x1="345.049" y1="2.297" x2="339.049" y2="588.297"><stop offset="0" stop-color="#085078"/><stop offset="1" stop-color="#84d7cd"/></linearGradient><path d="M325.1 229.3v-34.2h35.6v34.2h-35.6z" fill="url(#b)"/><linearGradient id="c" gradientUnits="userSpaceOnUse" x1="393.143" y1="2.79" x2="387.143" y2="588.79"><stop offset="0" stop-color="#085078"/><stop offset="1" stop-color="#84d7cd"/></linearGradient><path d="M408.3 194.8v34.5h-34.6v-34.5h34.6z" fill="url(#c)"/><linearGradient id="d" gradientUnits="userSpaceOnUse" x1="381.473" y1="2.67" x2="375.473" y2="588.67"><stop offset="0" stop-color="#085078"/><stop offset="1" stop-color="#84d7cd"/></linearGradient><path d="M386.2 145v12.9h-12.5V145h12.5z" fill="url(#d)"/><linearGradient id="e" gradientUnits="userSpaceOnUse" x1="345.593" y1="2.303" x2="339.593" y2="588.303"><stop offset="0" stop-color="#085078"/><stop offset="1" stop-color="#84d7cd"/></linearGradient><path d="M325.2 313.3h34.2c.1.6.1 1.1.2 1.7h-34.2c-.1-.5-.1-1.1-.2-1.7z" fill="url(#e)"/><linearGradient id="f" gradientUnits="userSpaceOnUse" x1="393.365" y1="2.792" x2="387.365" y2="588.792"><stop offset="0" stop-color="#085078"/><stop offset="1" stop-color="#84d7cd"/></linearGradient><path d="M374 237.8h33.9v1.7h-33.8c0-.5-.1-1.1-.1-1.7z" fill="url(#f)"/><linearGradient id="g" gradientUnits="userSpaceOnUse" x1="344.75" y1="2.294" x2="338.75" y2="588.294"><stop offset="0" stop-color="#085078"/><stop offset="1" stop-color="#84d7cd"/></linearGradient><path d="M358.8 239.3h-32.9c0-.6 0-1.3-.1-1.9h33c.1.6.1 1.2 0 1.9z" fill="url(#g)"/><linearGradient id="h" gradientUnits="userSpaceOnUse" x1="394.878" y1="2.808" x2="388.878" y2="588.808"><stop offset="0" stop-color="#085078"/><stop offset="1" stop-color="#84d7cd"/></linearGradient><path d="M373.7 389.2h34.5v2.1h-34.6c.1-.7.1-1.4.1-2.1z" fill="url(#h)"/><linearGradient id="i" gradientUnits="userSpaceOnUse" x1="346.323" y1="2.311" x2="340.323" y2="588.311"><stop offset="0" stop-color="#085078"/><stop offset="1" stop-color="#84d7cd"/></linearGradient><path d="M325.3 389.3h34.1v2.1h-34.1v-2.1z" fill="url(#i)"/><linearGradient id="j" gradientUnits="userSpaceOnUse" x1="394.186" y1="2.8" x2="388.186" y2="588.801"><stop offset="0" stop-color="#085078"/><stop offset="1" stop-color="#84d7cd"/></linearGradient><path d="M373.7 313h34.5c0 .7.1 1.3.1 2h-34.6c.1-.6 0-1.3 0-2z" fill="url(#j)"/><linearGradient id="k" gradientUnits="userSpaceOnUse" x1="355.476" y1="2.404" x2="349.476" y2="588.404"><stop offset="0" stop-color="#085078"/><stop offset="1" stop-color="#84d7cd"/></linearGradient><path d="M360.2 145v12.9h-12.5V145h12.5z" fill="url(#k)"/><linearGradient id="l" gradientUnits="userSpaceOnUse" x1="395.638" y1="2.815" x2="389.638" y2="588.815"><stop offset="0" stop-color="#085078"/><stop offset="1" stop-color="#84d7cd"/></linearGradient><path d="M374 459.8h33.9v1.7h-33.8c0-.5-.1-1.1-.1-1.7z" fill="url(#l)"/><linearGradient id="m" gradientUnits="userSpaceOnUse" x1="347.022" y1="2.318" x2="341.022" y2="588.318"><stop offset="0" stop-color="#085078"/><stop offset="1" stop-color="#84d7cd"/></linearGradient><path d="M358.8 461.3h-32.9c0-.6 0-1.3-.1-1.9h33c.1.6.1 1.2 0 1.9z" fill="url(#m)"/></svg>
