<svg xmlns="http://www.w3.org/2000/svg" viewBox="68 30 364 439"><path fill="#0082ca" d="M328 132c33 12 50 61 10 96-12 11-36 17-51 18-25 2-47-7-47-7l-102 84-70 56c2 2 14 13 29 10 19-4 27-11 38-19 34-24 67-52 76-58 16-10 28-3 28-3a67 67 0 00-27 12L92 413s14 20 37 9c21-9 102-80 106-83a28 28 0 0126-2s-14 2-23 10c-28 24-112 87-112 87s21 21 44 4c26-19 73-61 95-78 10-8 20-2 20-2s-11 6-17 11l-99 82s22 18 43 2c51-38 110-91 110-91s96-72 89-141c-5-43-40-84-83-89z M156 286c27-7 81-56 81-56s22 13 47 10c36-4 63-16 70-53 4-25-16-51-43-57-25-6-60 2-81 22-27 26-37 54-60 76-38 37-60 49-60 49s18 16 46 9z M432 46s-74-26-97 37c-5 14-16 32-26 43 26-2 49 8 59 15 25 16 43 45 44 63 10-28-4-68-4-84 1-53 24-74 24-74zm-32 18a6 6 0 116-7 6 6 0 01-6 7z" /></svg>
