<svg xmlns="http://www.w3.org/2000/svg" viewBox="0 0 500 500"><path fill="#d2dbd1" d="M98.84 110.36c-2.82 3.3-6.59 5.92-11.3 7.86-4.71 1.96-10.88 2.93-18.49 2.93-9.18 0-16.14-1.06-20.87-3.19s-8.49-4.9-11.24-8.3c-2.76-3.4-4.57-6.97-5.44-10.7-1.26-5.53-1.9-13.69-1.9-24.5v4.38c0 10.79.63 18.96 1.9 24.5.88 3.73 2.69 7.3 5.44 10.7 2.76 3.4 6.5 6.17 11.24 8.3 4.74 2.13 11.7 3.19 20.87 3.19 7.6 0 13.76-.97 18.49-2.93 4.71-1.96 8.48-4.58 11.3-7.86 2.82-3.3 4.75-7.33 5.8-12.12 1.05-4.78 1.58-12.97 1.58-24.56v-4.38c0 11.59-.53 19.77-1.58 24.56-1.04 4.79-2.97 8.82-5.8 12.12zM157.14 128.91c-1.63 4.07-3.18 7.18-4.65 9.32-1.47 2.14-3.16 3.89-5.08 5.21-1.92 1.34-4.27 2.38-7.06 3.12s-5.95 1.12-9.47 1.12c-3.56 0-7.06-.37-10.49-1.12l-1.12-9.94c-.17-.03-.33-.05-.5-.09l1.61 14.43c3.43.74 6.93 1.12 10.49 1.12 3.52 0 6.67-.37 9.47-1.12 2.8-.75 5.15-1.79 7.06-3.12 1.92-1.34 3.61-3.07 5.08-5.21 1.47-2.14 3.02-5.25 4.65-9.32l4.45-12.14 24.64-67.26h-1.61l-23.04 62.86-4.43 12.14z"/><path fill="#d2dbd1" d="M115.99 53.91h-1.67l25.84 67.99c.28-.76.54-1.54.77-2.36l-24.94-65.63zM250.8 140.25c-2.46 2.32-5.74 4.14-9.83 5.46-4.1 1.31-9.28 1.97-15.56 1.97-11.84 0-20.24-2.03-25.19-6.1-4.37-3.6-6.81-8.03-7.33-13.33h-.04c-.04.88-.07 1.63-.07 2.24 0 6.25 2.48 11.41 7.43 15.48 4.95 4.07 13.35 6.1 25.19 6.1 6.28 0 11.46-.66 15.56-1.97s7.38-3.14 9.83-5.46c2.46-2.32 4.36-5.53 5.72-9.6 1.37-4.08 2.03-10.24 2.03-18.47v-4.38c0 8.24-.68 14.4-2.03 18.47-1.34 4.07-3.26 7.27-5.71 9.59z"/><path fill="#d2dbd1" d="M219.21 119.4c-9.4 0-16.84-3.96-22.33-11.89-3.95-5.75-6.07-12.81-6.39-21.14-.03.71-.07 1.4-.07 2.14 0 9.33 2.15 17.13 6.46 23.4 5.49 7.93 12.93 11.89 22.33 11.89 8.42 0 15.4-3.78 20.95-11.36l.04-4.44c-5.57 7.61-12.56 11.4-20.99 11.4zM224.63 62.18c-4.42 0-8.06 1.72-10.92 5.16-2.86 3.44-4.29 8.68-4.29 15.73 0 .77.03 1.51.05 2.25.26-5.97 1.68-10.5 4.24-13.58 2.86-3.44 6.51-5.16 10.92-5.16 4.54 0 8.31 1.76 11.29 5.25 2.65 3.12 4.11 7.72 4.4 13.8.04-.68.07-1.38.07-2.1 0-7.22-1.48-12.59-4.46-16.08-2.99-3.51-6.74-5.27-11.3-5.27zM319.03 68.62c-.71-1.97-1.96-3.53-3.75-4.7-1.8-1.16-4.04-1.75-6.75-1.75-3.11 0-5.88.75-8.31 2.23-2.44 1.48-4.23 3.73-5.36 6.74-1.13 3.01-1.69 7.43-1.69 13.3v4.38c0-5.87.56-10.31 1.69-13.3 1.13-3.01 2.91-5.25 5.36-6.74 2.44-1.48 5.21-2.23 8.31-2.23 2.7 0 4.95.58 6.75 1.75 1.8 1.16 3.05 2.73 3.75 4.7.71 1.97 1.06 6.62 1.06 13.93v-4.38c.01-7.31-.35-11.96-1.06-13.93zM320.1 119.4h18.45v4.39H320.1zM274.72 119.4h18.45v4.39h-18.45zM399.93 119.4h17.11v4.39h-17.11zM389.87 117.84c-4.15 2.21-8.53 3.31-13.14 3.31-4.7 0-8.91-1.04-12.66-3.1-3.73-2.06-6.43-4.96-8.1-8.7-1.67-3.74-2.51-8.9-2.51-15.51v4.38c0 6.6.83 11.76 2.51 15.51 1.67 3.74 4.37 6.64 8.1 8.7 3.73 2.06 7.96 3.1 12.66 3.1 4.61 0 8.99-1.1 13.14-3.31s7.5-5.17 10.06-8.9v-4.38c-2.55 3.74-5.9 6.71-10.06 8.9zM431.68 119.4h18.45v4.39h-18.45zM462.51 64.6c-2.59 0-4.78.71-6.59 2.14-1.8 1.42-3.22 3.99-4.25 7.72-1.02 3.73-1.55 11.53-1.55 23.4v4.38c0-11.87.51-19.67 1.55-23.4 1.04-3.73 2.44-6.3 4.25-7.72 1.8-1.42 3.99-2.14 6.59-2.14 2.68 0 5.58 1.01 8.69 3.02l5.72-16.11c-.43-.26-.87-.5-1.3-.72L471.2 67.6c-3.11-1.98-6.01-3-8.69-3zM174.15 216.02c-1.64-1.85-4.08-2.98-7.33-3.37-1.93-.22-7.47-.33-16.62-.33h-11.16v4.38h11.16c9.15 0 14.69.11 16.62.33 3.24.39 5.68 1.52 7.33 3.37 1.21 1.38 1.97 3.06 2.28 5.03.12-.7.17-1.42.17-2.18.02-2.96-.81-5.37-2.45-7.23zM182.08 241.37c1.61.47 3.12 1.05 4.53 1.71 2.09-1.59 3.87-3.51 5.34-5.78 2.43-3.77 3.64-7.89 3.64-12.41 0-.75-.04-1.48-.11-2.22-.33 3.66-1.5 7.08-3.53 10.23-2.43 3.76-5.71 6.58-9.87 8.47zM188.89 287.47c-3.53 2.48-7.88 4-13.06 4.58-3.24.35-11.08.56-23.49.66h-32.83v4.38h32.83c12.41-.09 20.24-.3 23.49-.66 5.17-.58 9.53-2.1 13.06-4.58 3.53-2.48 6.31-5.8 8.36-9.95 2.03-4.15 3.06-8.43 3.06-12.81 0-.76-.04-1.5-.09-2.23-.28 3.64-1.26 7.19-2.97 10.66-2.04 4.14-4.82 7.46-8.36 9.95zM172.05 251.94c-2.65-.92-8.42-1.39-17.28-1.39h-15.73v4.38h15.73c8.86 0 14.63.46 17.28 1.39 2.65.92 4.69 2.4 6.09 4.42 1.04 1.5 1.69 3.24 1.96 5.21.09-.71.14-1.44.14-2.22 0-2.9-.71-5.37-2.1-7.39-1.4-2-3.42-3.47-6.09-4.4zM203.01 213.39h18.45v4.38h-18.45zM203.01 292.7h18.45v4.39h-18.45zM273.46 294.45c-3.99 0-7.93-1.02-11.8-3.07-3.89-2.05-7.22-5.03-10.03-8.93v4.38c2.81 3.9 6.14 6.88 10.03 8.93 3.87 2.05 7.81 3.07 11.8 3.07 8.11 0 15.01-3.23 20.68-9.68 5.67-6.46 8.52-15.65 8.52-27.6 0-.75-.04-1.46-.07-2.18-.34 10.86-3.14 19.34-8.44 25.39-5.7 6.47-12.59 9.69-20.69 9.69zM234.52 292.7h17.11v4.39h-17.11zM268.18 235.48c-4.44 0-8.13 1.73-11.07 5.19-2.94 3.45-4.41 8.7-4.41 15.74 0 .87.01 1.69.05 2.51.25-6.09 1.69-10.73 4.36-13.86 2.94-3.45 6.63-5.19 11.07-5.19 4.52 0 8.23 1.77 11.13 5.32 2.61 3.2 4.04 8.23 4.29 15.08.03-.7.05-1.4.05-2.14 0-8.01-1.46-13.79-4.35-17.33-2.89-3.55-6.61-5.32-11.12-5.32zM315.7 292.7h18.45v4.39H315.7zM375.79 235.48c-4.02 0-7.35 1.47-9.96 4.42-2.63 2.94-3.91 6.95-3.87 12.01h.35c.54-3.03 1.69-5.58 3.51-7.61 2.63-2.94 5.95-4.42 9.96-4.42 3.75 0 6.95 1.39 9.57 4.19 1.85 1.97 3.07 4.6 3.68 7.85h.46c-.13-5.37-1.51-9.44-4.14-12.24-2.61-2.81-5.8-4.2-9.56-4.2zM362.08 267.6h45.73c.03-1.51.01-2.97-.03-4.38h-46.15c.04 1.56.2 3.02.45 4.38z"/><path fill="#d2dbd1" d="M395.66 289.16c-5.11 3.53-11.49 5.3-19.17 5.3-12.14 0-21.12-3.98-26.95-11.92-4.23-5.86-6.49-13.13-6.83-21.81-.03.7-.07 1.37-.07 2.09 0 9.7 2.3 17.74 6.91 24.1 5.83 7.94 14.81 11.92 26.95 11.92 7.67 0 14.06-1.76 19.17-5.3 5.11-3.53 8.85-8.68 11.21-15.44l-1.72-.29c-2.33 4.78-5.48 8.57-9.5 11.35zM70.71 367.58c-2.72-2.18-6.8-3.27-12.24-3.27-5.62 0-10 1.17-13.18 3.51-2.05 1.5-3.07 3.51-3.07 6.01 0 .75.12 1.47.33 2.15.45-1.48 1.35-2.74 2.74-3.77 3.18-2.34 7.56-3.51 13.18-3.51 5.44 0 9.52 1.09 12.24 3.27 2.72 2.18 4.49 5.76 5.32 10.74l19.52-.67c-.05-1.52-.22-2.97-.43-4.37l-19.09.66c-.83-4.99-2.6-8.57-5.32-10.75zM80.75 444.55c-5.61 2.35-12.6 3.52-20.97 3.52-12.18 0-21.54-2.81-28.07-8.43-5.62-4.83-9.28-11.59-11.02-20.24l-.7.07c1.27 10.75 5.17 18.94 11.7 24.56 6.52 5.62 15.89 8.43 28.07 8.43 8.38 0 15.36-1.17 20.97-3.52 5.61-2.35 9.95-5.93 13.02-10.75 3.07-4.82 4.61-10 4.61-15.53 0-.8-.03-1.6-.07-2.36-.33 4.77-1.84 9.27-4.53 13.5-3.06 4.82-7.39 8.4-13.01 10.75z"/><path fill="#d2dbd1" d="M76.85 412.54c-1.33-1.6-3.66-2.99-6.97-4.17-2.27-.79-7.44-2.19-15.52-4.21-10.4-2.59-17.68-5.78-21.87-9.56-5.33-4.81-8.22-10.58-8.73-17.29-.07.74-.11 1.47-.11 2.22 0 7.65 2.94 14.14 8.84 19.46 4.19 3.78 11.49 6.97 21.87 9.56 8.07 2.02 13.25 3.43 15.52 4.21 3.31 1.18 5.65 2.57 6.97 4.17.89 1.08 1.46 2.31 1.76 3.69.16-.74.24-1.48.24-2.27 0-2.26-.66-4.21-2-5.81zM143.07 448.06c-6.39 0-12.5-1.44-18.3-4.35-5.8-2.9-10.23-7.14-13.25-12.75-2.7-5.02-4.19-11.01-4.48-17.99-.04.64-.07 1.27-.07 1.92 0 8.03 1.51 14.86 4.53 20.45 3.02 5.59 7.44 9.85 13.25 12.75 5.8 2.9 11.91 4.35 18.3 4.35 10.35 0 18.92-3.48 25.73-10.44 6.81-6.96 10.23-15.73 10.23-26.31 0-.75-.05-1.47-.09-2.19-.45 9.6-3.79 17.66-10.14 24.12-6.79 6.96-15.36 10.44-25.71 10.44z"/><path fill="#d2dbd1" d="M143.05 390.03c-4.82 0-8.86 1.85-12.14 5.54s-4.92 9.01-4.92 15.94c0 .75.03 1.48.07 2.19.32-5.87 1.93-10.45 4.86-13.75 3.28-3.69 7.33-5.54 12.14-5.54 4.81 0 8.85 1.85 12.1 5.54 2.9 3.3 4.5 7.84 4.82 13.64.04-.72.07-1.46.07-2.22 0-6.85-1.63-12.12-4.9-15.81-3.25-3.7-7.3-5.53-12.1-5.53zM229.27 392.23c-2.17-1.82-4.99-2.74-8.44-2.74-4.61 0-8.27 1.59-11.02 4.78-2.74 3.19-4.11 8.51-4.11 15.98 0 .79.03 1.55.05 2.3.24-6.37 1.59-11 4.06-13.88 2.74-3.19 6.41-4.78 11.02-4.78 3.47 0 6.28.92 8.44 2.74 2.17 1.82 3.56 4.56 4.17 8.17l18.18-3.23c-.42-1.46-.92-2.82-1.46-4.14l-16.73 2.97c-.61-3.63-2-6.34-4.16-8.17zM241.71 441.66c-5.34 4.27-12.51 6.39-21.49 6.39-10.21 0-18.34-3.23-24.41-9.68-5.67-6.03-8.65-14.26-9.03-24.63-.03.74-.08 1.44-.08 2.21 0 11.42 3.03 20.35 9.1 26.81 6.07 6.46 14.21 9.68 24.41 9.68 8.98 0 16.15-2.13 21.49-6.39 5.34-4.27 8.95-10.57 10.84-18.92l-1.17-.2c-2.04 6.3-5.25 11.23-9.66 14.73zM263.86 367h18.45v4.38h-18.45zM263.86 446.31h18.45v4.39h-18.45zM343.81 442.76c-5.11 3.53-11.49 5.3-19.17 5.3-12.14 0-21.12-3.98-26.95-11.92-4.23-5.86-6.49-13.13-6.83-21.81-.03.7-.07 1.37-.07 2.09 0 9.7 2.3 17.74 6.91 24.1 5.83 7.94 14.81 11.92 26.95 11.92 7.67 0 14.06-1.76 19.17-5.3 5.11-3.53 8.85-8.68 11.21-15.44l-1.72-.29c-2.33 4.79-5.48 8.57-9.5 11.35z"/><path fill="#d2dbd1" d="M310.24 421.21h45.73c.03-1.51.01-2.97-.03-4.39h-46.16c.04 1.56.2 3.02.46 4.39zM323.95 389.08c-4.02 0-7.35 1.47-9.96 4.42-2.63 2.94-3.91 6.95-3.87 12.01h.35c.54-3.03 1.69-5.58 3.51-7.61 2.63-2.94 5.95-4.42 9.96-4.42 3.75 0 6.95 1.39 9.57 4.19 1.85 1.97 3.07 4.6 3.68 7.85h.46c-.13-5.37-1.51-9.44-4.14-12.24-2.62-2.81-5.81-4.2-9.56-4.2zM391.25 391.1h12.66v4.38h-12.66zM381.85 446.38c-2.67-1.13-4.62-2.57-5.87-4.36-1.25-1.79-2.11-4.2-2.59-7.23-.39-2.15-.59-6.52-.59-13.08v4.38c0 6.56.2 10.92.59 13.08.49 3.05 1.34 5.45 2.59 7.23 1.25 1.79 3.2 3.24 5.87 4.36 2.67 1.13 5.66 1.68 8.98 1.68 5.42 0 10.27-.92 14.56-2.77l-.46-4.21c-4.17 1.72-8.88 2.59-14.1 2.59-3.32.01-6.32-.55-8.98-1.67zM364.32 391.1h8.48v4.38h-8.48zM457.9 443.68l-4.45 12.14c-1.63 4.07-3.18 7.18-4.65 9.32-1.47 2.14-3.16 3.89-5.08 5.21-1.92 1.34-4.27 2.38-7.06 3.12s-5.95 1.12-9.47 1.12c-3.57 0-7.06-.37-10.49-1.12l-1.12-9.94c-.17-.03-.33-.05-.5-.09l1.61 14.43c3.43.74 6.92 1.12 10.49 1.12 3.52 0 6.67-.37 9.47-1.12 2.8-.75 5.15-1.79 7.06-3.12 1.92-1.34 3.61-3.07 5.08-5.21 1.47-2.14 3.02-5.25 4.65-9.32l4.45-12.14 24.64-67.27h-1.61l-23.02 62.87z"/><path fill="#d2dbd1" d="M412.31 380.81h-1.67l25.84 67.99c.28-.76.54-1.54.77-2.36l-24.94-65.63z"/><path fill="#096303" d="M86.7 27.38v48.98c0 7.63-.29 13.09-.85 16.38s-2.23 6.07-5.02 8.32c-2.78 2.26-6.91 3.39-12.37 3.39-5.38 0-9.62-1.19-12.73-3.58-3.11-2.39-5.07-5.57-5.89-9.51-.47-2.46-.71-7.82-.71-16.12V23H29.6V74.47c0 10.79.63 18.96 1.9 24.5.88 3.73 2.69 7.3 5.44 10.7 2.76 3.4 6.5 6.17 11.24 8.3 4.74 2.13 11.7 3.19 20.87 3.19 7.6 0 13.76-.97 18.49-2.93 4.71-1.96 8.48-4.58 11.3-7.86 2.82-3.3 4.75-7.33 5.8-12.12 1.05-4.78 1.58-12.97 1.58-24.56V23H86.7v4.38zM167.11 49.52l-16.36 49.57-16.77-49.57h-19.67l1.67 4.38 24.94 65.63c-.24.83-.5 1.6-.77 2.36-1.02 2.86-2.35 5.3-3.98 7.31-2.06 2.53-5.25 3.79-9.57 3.79-2.34 0-4.95-.29-7.85-.85l.5 4.48 1.12 9.94c3.43.74 6.93 1.12 10.49 1.12 3.52 0 6.67-.37 9.47-1.12 2.8-.75 5.15-1.79 7.06-3.12 1.92-1.34 3.61-3.07 5.08-5.21 1.47-2.14 3.02-5.25 4.65-9.32l4.45-12.14 23.04-62.86 1.61-4.38-19.11-.01zM241.33 53.91v5.5c-5.62-7.59-12.75-11.38-21.4-11.38-8.39 0-15.4 3.09-21.05 9.27-5.65 6.17-8.47 15.11-8.47 26.81 0 .76.04 1.51.07 2.26.33 8.34 2.44 15.39 6.39 21.14 5.49 7.93 12.93 11.89 22.33 11.89 8.43 0 15.43-3.79 20.99-11.4l-.04 4.44-.04 5.76c0 4.12-.29 6.96-.85 8.49-.83 2.15-2.06 3.7-3.69 4.67-2.42 1.44-6.03 2.17-10.86 2.17-3.77 0-6.54-.67-8.3-2-1.27-.93-2.09-2.65-2.43-5.13l-21.14-2.56c-.04.88-.07 1.63-.07 2.25 0 .74.04 1.44.11 2.15.51 5.29 2.95 9.74 7.33 13.33 4.95 4.07 13.35 6.1 25.19 6.1 6.28 0 11.46-.66 15.56-1.97s7.38-3.14 9.83-5.46 4.36-5.53 5.72-9.6c1.37-4.08 2.03-10.24 2.03-18.47V49.53H241.3v4.38zm-1.01 31.7c-.29 5.88-1.81 10.4-4.6 13.56-3.11 3.52-6.91 5.29-11.42 5.29-4.2 0-7.73-1.72-10.59-5.15-2.56-3.07-3.96-7.76-4.24-14.01-.03-.74-.05-1.47-.05-2.25 0-7.05 1.43-12.29 4.29-15.73 2.86-3.44 6.51-5.16 10.92-5.16 4.54 0 8.31 1.76 11.29 5.25 2.98 3.51 4.46 8.86 4.46 16.08.01.74-.02 1.44-.06 2.12zM334.01 56.45c-1.75-2.46-4.33-4.46-7.77-6.04-3.44-1.58-7.3-2.36-11.58-2.36-8.34 0-15.51 3.56-21.5 10.69V23h-18.43V119.4h18.45V84.46c0-5.87.56-10.31 1.69-13.3 1.13-3.01 2.91-5.25 5.36-6.74 2.44-1.48 5.21-2.23 8.31-2.23 2.7 0 4.95.58 6.75 1.75 1.8 1.16 3.05 2.73 3.75 4.7s1.06 6.62 1.06 13.93v36.85h18.45V78.49c0-6.26-.32-10.88-.96-13.86-.64-3.01-1.84-5.72-3.58-8.18zM398.57 53.91v25.15c0 10.02-.46 16.32-1.39 18.89-.92 2.57-2.64 4.73-5.15 6.46-2.51 1.73-5.34 2.6-8.52 2.6-2.77 0-5.05-.64-6.87-1.94-1.81-1.3-3.05-3.06-3.73-5.28s-1.02-8.26-1.02-18.1V49.53h-18.45v44.32c0 6.6.83 11.76 2.51 15.51 1.67 3.74 4.37 6.64 8.1 8.7 3.73 2.06 7.96 3.1 12.66 3.1 4.61 0 8.99-1.1 13.14-3.31s7.5-5.17 10.06-8.9v10.45h17.11V49.53h-18.45v4.38zM464.73 48.04c-2.99 0-5.66.74-8.01 2.19-2.35 1.46-5 4.53-7.94 9.22v-9.92h-17.11v69.88h18.45V97.87c0-11.87.51-19.67 1.55-23.4 1.04-3.73 2.44-6.3 4.25-7.72 1.8-1.42 3.99-2.14 6.59-2.14 2.68 0 5.58 1.01 8.69 3.02l4.42-12.43 1.3-3.66c-3.91-2.34-7.96-3.5-12.19-3.5zM195.59 250.13c-2.28-2.99-5.28-5.34-8.98-7.06-1.4-.66-2.91-1.23-4.53-1.71 4.15-1.88 7.44-4.7 9.87-8.47 2.03-3.15 3.2-6.56 3.53-10.23.07-.72.11-1.44.11-2.18 0-4.15-.98-7.9-2.97-11.25-1.97-3.35-4.44-6.03-7.4-8.03-2.97-2.01-6.31-3.33-10.07-3.96-3.75-.63-9.44-.95-17.08-.95H119.5V292.69h32.83c12.41-.09 20.24-.3 23.49-.66 5.17-.58 9.53-2.1 13.06-4.58s6.31-5.8 8.36-9.95c1.71-3.47 2.69-7.02 2.97-10.66.05-.72.09-1.43.09-2.15.02-5.57-1.56-10.43-4.71-14.56zm-19.15-24.69c-.35 2.11-1.25 3.89-2.68 5.32-1.9 1.9-4.52 3.05-7.85 3.44-1.84.22-6.55.33-14.13.33h-12.75V212.32h11.16c9.15 0 14.69.11 16.62.33 3.24.39 5.68 1.52 7.33 3.37 1.64 1.86 2.47 4.27 2.47 7.25.01.76-.06 1.48-.17 2.17zm3.66 40.53c-.32 2.4-1.18 4.41-2.59 5.99-1.82 2.05-4.17 3.33-7.08 3.86-1.89.39-6.34.59-13.37.59h-18.04V250.56h15.73c8.86 0 14.63.46 17.28 1.39 2.65.92 4.69 2.4 6.09 4.42 1.4 2.02 2.1 4.49 2.1 7.39.04.77-.02 1.5-.12 2.21zM203.01 227.2v65.5h18.44v-69.88h-18.44zM203.01 200.68v12.71h18.44v-17.1h-18.44zM294.3 230.59c-5.57-6.17-12.6-9.26-21.1-9.26-7.8 0-14.55 3.24-20.24 9.73V196.3h-18.45V292.7h17.11v-10.25c2.81 3.9 6.14 6.88 10.03 8.93 3.87 2.05 7.81 3.07 11.8 3.07 8.11 0 15.01-3.23 20.68-9.68 5.32-6.04 8.11-14.53 8.44-25.39.03-.74.07-1.46.07-2.21.01-11.55-2.77-20.41-8.34-26.58zm-10.68 29.67c-.25 6.43-1.67 11.25-4.27 14.4-2.88 3.51-6.35 5.25-10.44 5.25-5.32 0-9.58-2.47-12.79-7.39-2.02-3.06-3.14-7.6-3.37-13.6-.03-.81-.05-1.64-.05-2.51 0-7.04 1.47-12.29 4.41-15.74 2.94-3.45 6.63-5.19 11.07-5.19 4.52 0 8.23 1.77 11.13 5.32 2.9 3.54 4.35 9.32 4.35 17.33.01.73-.02 1.44-.04 2.13zM315.7 200.68v92.02h18.45v-96.41H315.7zM399.2 231.64c-6-6.87-14.19-10.31-24.58-10.31-9.24 0-16.88 3.28-22.92 9.85-6.05 6.56-9.07 15.65-9.07 27.24 0 .79.04 1.54.07 2.31.34 8.68 2.6 15.95 6.83 21.81 5.83 7.94 14.81 11.92 26.95 11.92 7.67 0 14.06-1.76 19.17-5.3 4.02-2.77 7.17-6.56 9.49-11.33.63-1.3 1.22-2.65 1.72-4.1l-18.45-3.1c-1.01 3.49-2.49 6.03-4.45 7.6-1.97 1.58-4.39 2.36-7.27 2.36-4.24 0-7.77-1.52-10.61-4.57-2.03-2.18-3.35-4.99-3.99-8.4-.26-1.37-.42-2.82-.46-4.38h46.19c.26-14.2-2.62-24.73-8.62-31.6zm-10.16 20.26H361.96c-.04-5.05 1.25-9.06 3.87-12.01 2.63-2.94 5.95-4.42 9.96-4.42 3.75 0 6.95 1.39 9.57 4.19 2.63 2.8 4 6.88 4.14 12.24h-.46zM94.54 402.91c-2.56-4.15-6.1-7.42-10.62-9.81-4.53-2.39-11.51-4.7-20.95-6.95-9.45-2.25-15.39-4.4-17.84-6.46-1.29-1.09-2.14-2.34-2.56-3.73-.21-.68-.33-1.39-.33-2.15 0-2.51 1.02-4.52 3.07-6.01 3.18-2.34 7.56-3.51 13.18-3.51 5.44 0 9.52 1.09 12.24 3.27 2.72 2.18 4.49 5.76 5.32 10.74l19.09-.66.43-.01c-.3-8.94-3.51-16.1-9.6-21.45-6.09-5.36-15.18-8.03-27.24-8.03-7.39 0-13.69 1.12-18.91 3.36-5.23 2.25-9.22 5.51-12 9.79-2.77 4.29-4.16 8.9-4.16 13.82 0 .74.05 1.46.11 2.18.51 6.71 3.41 12.49 8.73 17.29 4.19 3.78 11.49 6.97 21.87 9.56 8.07 2.02 13.25 3.43 15.52 4.21 3.31 1.18 5.65 2.57 6.97 4.17 1.33 1.6 2 3.54 2 5.82 0 .77-.09 1.54-.24 2.27-.54 2.61-2.03 4.96-4.5 7.02-3.16 2.65-7.88 3.98-14.13 3.98-5.91 0-10.59-1.48-14.06-4.46-3.48-2.98-5.78-7.64-6.92-13.98l-18.98 1.89c.17 1.5.42 2.93.7 4.32 1.72 8.65 5.38 15.4 11.02 20.24 6.52 5.62 15.89 8.43 28.07 8.43 8.38 0 15.36-1.17 20.97-3.52 5.61-2.35 9.95-5.93 13.02-10.75 2.69-4.23 4.2-8.73 4.53-13.5.05-.67.07-1.34.07-2.02-.04-6.1-1.31-11.22-3.87-15.36zM168.91 385.25c-6.75-6.87-15.4-10.31-25.97-10.31-6.84 0-13.02 1.52-18.56 4.54-5.54 3.03-9.82 7.42-12.85 13.17-3.02 5.75-4.53 11.7-4.53 17.86 0 .84.03 1.65.07 2.47.29 6.97 1.77 12.97 4.48 17.99 3.02 5.59 7.44 9.85 13.25 12.75 5.8 2.9 11.91 4.35 18.3 4.35 10.35 0 18.92-3.48 25.73-10.44 6.33-6.47 9.69-14.52 10.14-24.12.04-.74.09-1.44.09-2.19-.03-10.51-3.4-19.19-10.15-26.07zm-8.93 28.34c-.32 5.93-1.92 10.57-4.82 13.85-3.26 3.69-7.3 5.53-12.1 5.53-4.82 0-8.86-1.84-12.14-5.53-2.93-3.3-4.54-7.88-4.86-13.75-.04-.72-.07-1.44-.07-2.19 0-6.95 1.64-12.25 4.92-15.94 3.28-3.69 7.33-5.54 12.14-5.54 4.81 0 8.85 1.85 12.1 5.54 3.26 3.69 4.9 8.95 4.9 15.81 0 .77-.03 1.5-.07 2.22zM234.37 419.65c-.92 4.88-2.49 8.32-4.73 10.33-2.23 2.01-5.09 3.01-8.6 3.01-4.69 0-8.42-1.71-11.19-5.15-2.51-3.1-3.87-8.22-4.12-15.31-.03-.75-.05-1.5-.05-2.3 0-7.47 1.37-12.8 4.11-15.98 2.74-3.19 6.41-4.78 11.02-4.78 3.47 0 6.28.92 8.44 2.74 2.17 1.82 3.56 4.56 4.17 8.17l16.73-2.97 1.46-.26c-2.19-7.5-5.79-13.06-10.8-16.73-5.02-3.66-11.78-5.49-20.27-5.49-10.38 0-18.62 3.22-24.7 9.65-6.09 6.43-9.12 15.43-9.12 26.98 0 .75.05 1.46.08 2.19.37 10.36 3.36 18.59 9.03 24.63 6.07 6.46 14.21 9.68 24.41 9.68 8.98 0 16.15-2.13 21.49-6.39 4.41-3.52 7.61-8.44 9.68-14.73.43-1.34.84-2.72 1.17-4.19l-18.21-3.1zM263.86 354.29V367h18.46v-17.11h-18.46zM263.86 380.81v65.5h18.46v-69.88h-18.46zM347.36 385.25c-6-6.87-14.19-10.31-24.56-10.31-9.24 0-16.88 3.28-22.92 9.85-6.05 6.56-9.07 15.65-9.07 27.24 0 .79.04 1.54.07 2.31.34 8.68 2.6 15.95 6.83 21.81 5.83 7.94 14.81 11.92 26.95 11.92 7.67 0 14.06-1.76 19.17-5.3 4.02-2.77 7.17-6.56 9.49-11.33.63-1.3 1.22-2.65 1.72-4.1l-18.45-3.1c-1.01 3.49-2.49 6.03-4.45 7.6-1.97 1.58-4.39 2.36-7.27 2.36-4.24 0-7.77-1.52-10.61-4.57-2.03-2.18-3.35-4.99-3.99-8.4-.26-1.37-.42-2.82-.46-4.38H356c.23-14.21-2.64-24.74-8.64-31.6zm-10.16 20.26H310.12c-.04-5.05 1.25-9.06 3.87-12.01 2.63-2.94 5.95-4.42 9.96-4.42 3.75 0 6.95 1.39 9.57 4.19 2.63 2.8 4 6.88 4.14 12.24h-.46zM403.84 430.94c-3.26 1.18-5.74 1.77-7.44 1.77-1.23 0-2.27-.3-3.14-.92-.85-.62-1.4-1.4-1.64-2.35-.24-.95-.37-4.29-.37-10.02v-28.3h12.66V376.45h-12.66v-24.78l-18.45 10.91v13.86h-8.48V391.11h8.48v30.58c0 6.56.2 10.92.59 13.08.49 3.05 1.34 5.45 2.59 7.23 1.25 1.79 3.2 3.24 5.87 4.36 2.67 1.13 5.66 1.68 8.98 1.68 5.23 0 9.93-.87 14.1-2.59.14-.07.3-.12.46-.18l-1.55-14.33zM427.19 474.59c3.52 0 6.67-.37 9.47-1.12s5.15-1.79 7.06-3.12c1.92-1.34 3.61-3.07 5.08-5.21 1.47-2.14 3.02-5.25 4.65-9.32l4.45-12.14 23.04-62.86 1.61-4.38h-19.12L447.08 426l-16.77-49.57h-19.67l1.67 4.38 24.94 65.63c-.24.83-.5 1.6-.77 2.36-1.02 2.86-2.35 5.3-3.98 7.31-2.06 2.53-5.25 3.79-9.57 3.79-2.34 0-4.95-.29-7.85-.85l.5 4.48 1.12 9.94c3.43.75 6.92 1.12 10.49 1.12z"/></svg>
