<svg xmlns="http://www.w3.org/2000/svg" viewBox="0 0 500 500"><path d="M282.9 348.2c39.5-32 86-45.1 135.5-49.2 23.7-2.1 47.3-1.1 71.8 1.9 2.1-11.5 4.2-22.7 6.4-34.7-44.9-3.5-88.1-.2-130.2 13.1-42.3 13.3-80.2 34.2-113.3 64.1 0-1.3.5-2.2.8-3.2 16.9-34.5 43-60.2 76.5-78.6 41.9-23 87.3-32.9 134.6-35.3 9.6-.5 19.2 0 30.2 0-2.1-8.8-3.4-16.3-5.6-23.7-12.5-41.5-36.8-74.9-71-101-64.1-48.7-137-63.4-215.6-51.9-34.8 5.1-67.4 16.9-97.6 35.5-42.7 26-74.8 61-91.9 108.5-3.7 10.2-5.9 21.1-8.9 32.4h11.7c43.1-.3 85 6.4 125.3 22.1 40.1 15.5 74 39.3 97.5 76.2 3.8 6.1 7.2 12.6 10.7 19C178.5 283 96.4 260 3.2 266.1c2.4 11.7 4.3 22.2 6.9 32.8.2 1 3.2 1.9 5 1.8 10.9-.6 21.7-2.1 32.4-2.4 24.1-.6 47.9 1.3 71.6 5.9 40.9 8 78.1 23.8 109 52.7 7.4 6.9 13.7 14.7 20.6 22.1-.3.5-.6.8-1 1.3-68.4-43-141.7-60.4-222.4-43.8 1 1.9 1.3 2.7 1.8 3.7 12.1 21.3 27.5 39.8 46.2 55.5 46.5 39.5 101 58.6 161.4 62 40.6 2.2 80.2-3.5 118.4-18.4 44.3-17.3 81.8-43.8 109.6-82.8 4.5-6.2 8.3-12.9 12.9-20.3-81.2-16.5-154.2 1.1-222.4 43.9 8.2-12.4 18.3-22.8 29.7-31.9zm-34.2-61c-2.6-2.2-5.3-4.2-7.5-6.2-28.9-27-63-43.8-101.5-52.3-21.6-4.6-41.9-12.9-59.9-26C64.3 191.4 52 177.5 44 159.9c-1.1-2.2-1.9-4.6-3-7.5 11.2 8.2 21.3 16.3 32 23.3 20.3 13.3 42.7 20.8 66.5 24.8 28.4 4.8 53.4 17.1 74.9 36.4 14.1 12.6 25.1 27.5 33.1 44.7.6 1.4 1.1 2.9 1.8 4.3-.2 0-.3.3-.6 1.3zM231.2 152c-5.1 20-4 39.5 2.6 59-8.3-8.9-13.1-19.5-14.9-31.2-4.2-28.8 0-55.9 16.9-80.5 7.2-10.5 13.7-21.6 15.5-34.7.6-5.6.6-11.2 1-16.9 22.7 20.8 33.7 82.9 18.1 103.7-.6-9.4-.8-18.5-1.8-27.3-1-9.1-2.9-18.1-10.1-25.7-13 16-22.2 33.8-27.3 53.6zm32 112.5c24.6-36.8 59-58 102.6-65.4 34.2-5.9 64.1-20.9 89.5-44.7 1.1-1 2.2-2.1 3.4-3-5.3 18.7-16.3 33.2-30.7 45.4-18.7 15.7-40.3 25.1-63.8 31-25.1 6.2-50 12.9-71.4 28-12 8.3-23.2 17.9-34.8 27-1.8 1.3-3.4 2.7-5.1 4.2-.5-.3-1-.6-1.4-1 3.9-7.3 7.2-14.6 11.7-21.5z" fill="#762e84"/></svg>
