<svg id="Layer_1" data-name="Layer 1" xmlns="http://www.w3.org/2000/svg" viewBox="0 0 819 698"><defs><style>.cls-1{fill:#d68f3e;}.cls-2{fill:#5ba352;}</style></defs><title>wycliffe_new_logo</title><path class="cls-1" d="M738.1,549.4c17.2-3.2,17.3-3.2,13.3,14.9s-8.9,38.3-13,57.6c-1.4,6.5-4.7,9.1-10.9,10.8-95.6,24.8-192.1,43.2-291.5,41.9-84.6-1.1-166.4-15-241.9-55.9C65.1,548.7-5.1,398.6,23.3,255.2c11.3-57,32.2-110.1,59.8-160.9,3.3-6.1,7.4-9.6,14.3-11.4,32.1-8.6,64.1-17.7,98.6-27.3-16.3,24.9-31.5,47.3-45.9,70.2-40.2,64-69.3,132.4-81.2,207.4a331.9,331.9,0,0,0,1.5,115.2c7.9,41.4,29.2,73.5,65.2,95.6,38.6,23.7,80.9,36.9,125.5,43.4,6.6-4,13.4-1,19.9,0,67.4,10.4,135.3,11.9,203.1,8.4,78.8-4.1,156-20.2,231.7-42.7C723,550.9,730.1,547.4,738.1,549.4Z"/><path class="cls-1" d="M658,12.2c-21.8,15.6-43.7,30.5-64.8,46.4-78.2,59-148.4,125.7-200.6,209.6-13.8,22.3-25,45.8-31.3,71.5-12.2,50.3,5.9,77.3,56.9,84.1,79.3,10.6,157,.6,234-18.3,50.5-12.4,98.4-31.9,147.7-54-7.5,32.5-14.7,63.2-21.7,94-.8,3.7-3.3,5.2-6.4,6.4-80.8,31-163.1,55-250.9,50.8-50-2.4-96.9-15.8-135.2-50.1-57.7-51.6-87.4-135.4-51.5-224.3,18.3-45.5,46.9-84,79.5-119.9,6.2-6.8,13.1-13.1,19.1-20.1,13.6-15.7,30.1-24.7,50.5-29.9C539,44.3,594.1,27.9,649.3,12.5,651.9,11.8,654.4,10.1,658,12.2Z"/><path class="cls-2" d="M738.1,549.4c-46.5,15.9-94.1,26.9-142.3,36.1-101.3,19.3-203,19-305,7.1-10-1.2-19.8-3.5-29.6-5.3-66.9-45-103.6-109.6-119.6-186.8-10.4-49.8.5-97.5,18.6-143.9,17-43.7,41.5-83.4,68.1-121.8,2.4-3.5,5.2-6,9.3-7.1L354.8,95.6c1.4-.4,3.1,0,6.3,0-15,16.8-29.2,32.5-43.1,48.5-45,51.9-84,107.8-111.6,171-15.9,36.3-27.1,73.8-26.5,114.2.7,46.8,21.7,79.3,64.4,98.5,40.6,18.2,83.8,24.8,127.5,29,126,12.2,246.4-12.3,363.7-56.4l14.2-5.4Z"/></svg>
