<svg xmlns="http://www.w3.org/2000/svg" viewBox="0 0 600 600"><path fill="#c80016" d="M514.7 88.5c4.5-.4 8.6-1.5 12.9-1 2.2.3 4.1.8 4.2 3.6.1 1.9 1.8 1.9 3 2.3 2.9 1 3.7 2.6 2.9 5.5-1 3.4-2.6 6.6-4.6 10.3 6.8-1.8 13.3-3 19.4-5.2 4-1.4 6.2-.7 8.1 3 2.5 4.6 2.7 4.5 7.8 3 7.7-2.2 15.4-3.1 23.1-4.8 1.6-.4 2.7.4 3.4 1.6.8 1.4-.7 2.1-1.5 2.7-6.8 5.5-14.2 10.4-21.5 15.3-23.5 15.9-47.7 30.6-70.4 47.7-18.6 13.9-36.2 29-54.3 43.6-10.5 8.6-21.2 17.2-31.7 25.7.5 1.4 2.2 1.2 3 2.5-5.5 4.4-10.8 8.6-16.3 13-10.9 8.6-22.1 17-32.7 26.1-9.6 8.3-18.5 17.5-27.6 26.2-16.4 15.7-32.7 31.3-48.3 47.9-21.9 23.2-45.3 45.3-64.8 70.4-20.5 26.5-42.1 52.4-60.2 80.9-3.4 5.5-7 10.9-7.1 17.9-.1 3-3.1 4-5.6 4.8-7 2.1-14.2 1.9-21.5 1.9-18 0-35.3-4.4-52.5-9-6.8-1.8-13.8-2.1-20.6-3.1-1.1-.1-2.3-.3-3.3-.8-9.8-4.5-15.2-17.8-11.2-27.9 4.5-11.5 11.5-21.3 19.1-30.8 25.2-30.9 51.1-61 78.2-90.2 38-41 79.6-77.9 121.7-114.4 36.2-31.4 72.7-62.3 110.1-92.6 7.5-6 14.5-12.6 21.7-18.9 2.2-1.8 4.4-3.3 7.5-3.4 3.4-.1 6.3-2.3 9.3-4.2 13.1-8.3 24.6-18.6 36.9-27.9 16.3-12.3 33.6-23 51.8-32.1 4.5-2.3 8.7-2.3 13.3.3 2.1 1.2 2.3 2.7 1.6 4.6-1 1.8-2.1 3.4-3.3 5.5zM115.1 135.4c.8-1.6 1.4-2.9 2.2-4.5 3.7 4.2 6 8.9 8.3 13.5 9.7 19.8 17 40.6 24.6 61.2 8.1 21.7 15.9 43.5 23.9 65.2 4.1 11.1 1.9 18.5-7.4 26-11.1 8.7-22 17.6-31.6 27.9-2.3 2.5-4.4 4.9-5.2 8.3-.4 1.8-1.8 3-3 4.1-10.4 8.3-22 14.2-35.3 16.4-6.3 1-11.2-1.8-13.8-7.7-2.7-6-3.1-12.4-3.4-18.7-.8-15.7-.7-31.6-1.9-47.3-1.9-22.4-6-44.3-13.8-65.5-7.2-19.7-14.7-39.4-21.7-59.4-7.9-22.3-20.1-42.4-32.1-62.6-1.2-2.1-1.4-3.4.3-5.3 2.9-3.6 5.6-7.2 8.3-10.9 1.1-1.6 2.5-2.2 4.4-1.8 2.6.4 5.2.7 7.8 1.2 3.7.8 7 .4 9.6-2.6 2.3-2.7 4.9-3.1 8.1-1.5.8.4 1.8.5 2.6.8 4.9 2.3 9 3.8 12.7-2.7 2.9-4.9 7.4-4.4 11.3 0 12.2 13.9 22.1 29.4 32.3 44.7 3.9 6.8 8.1 13.8 12.8 21.2zM251 103.5c9 0 13.9 3.6 16.8 12 4.4 12.6 11.2 23.9 17.5 35.5 4.4 8.3 9.2 16.7 11.1 26 .4 2.1.7 4.2.7 6.4.1 5.5-2.2 9.4-7.1 11.8-6.6 3.1-13.4 5.9-20.4 8.1-10.1 3.3-18.7 8.5-26 16.4-5.7 6.3-12.6 11.6-20 16-7.2 4.2-9.6 4-15.7-1.5-11.3-10.3-19.6-23-26.2-36.5-3.3-6.6-3.6-14.4-5.1-21.6-2.1-10.5-3.8-21.1-6-31.6-.4-2.2.1-2.9 2.1-3.7 9.4-3.7 18.9-7.7 28.2-11.5 2.9-1.1 5.6-2.5 7.7-4.9.8-1 1.9-1.6 2.7-2.6 5.2-5.6 10.8-10.1 19.1-10.3 3.8 0 7.1-1.8 9.8-5.2 2.6-2.8 6.9-2.9 10.8-2.8z"/></svg>
