<svg xmlns="http://www.w3.org/2000/svg" viewBox="0 0 500 500"><path fill="#122f77" d="M187.8 351.6v-14.4l-10.7-19.5h5l4.8 9.3c1.3 2.6 2.3 4.6 3.3 6.9h.1c1-2.2 2.1-4.4 3.4-6.9l4.8-9.3h5l-11.3 19.4v14.4l-4.4.1zM212.6 341l-3.5 10.6h-4.5l11.5-33.8h5.2l11.5 33.8h-4.6l-3.6-10.6h-12zm11.1-3.4l-3.3-9.7c-.7-2.2-1.2-4.2-1.8-6.2h-.1c-.5 2-1 4.1-1.7 6.1l-3.3 9.8h10.2zM241 346.3c2 1.2 4.8 2.2 7.8 2.2 4.5 0 7.1-2.4 7.1-5.8 0-3.1-1.8-5-6.4-6.7-5.5-2-8.9-4.8-8.9-9.6 0-5.2 4.4-9.2 10.9-9.2 3.5 0 6 .8 7.5 1.6l-1.2 3.5c-1.1-.6-3.3-1.6-6.4-1.6-4.6 0-6.3 2.7-6.3 5 0 3.1 2 4.7 6.7 6.5 5.7 2.2 8.6 5 8.6 9.9 0 5.2-3.9 9.7-11.9 9.7-3.3 0-6.8-1-8.6-2.2l1.1-3.3zM274.5 317.8v20c0 7.6 3.3 10.8 7.9 10.8 5 0 8.2-3.3 8.2-10.8v-20h4.4v19.7c0 10.4-5.4 14.6-12.8 14.6-6.9 0-12.1-4-12.1-14.4v-19.9h4.4zM334.8 336.7c-.3-4.7-.5-10.4-.5-14.6h-.1c-1.2 4-2.6 8.2-4.3 12.8l-6 16.4h-3.3l-5.4-16.1c-1.6-4.8-2.9-9.1-3.9-13.1h-.1c-.1 4.2-.3 9.9-.7 14.9l-.9 14.5h-4.2l2.4-33.8h5.6l5.8 16.3c1.4 4.2 2.6 7.9 3.4 11.4h.1c.9-3.4 2-7.2 3.5-11.4l6-16.3h5.6l2.1 33.8h-4.3l-.8-14.8zM355.4 341l-3.5 10.6h-4.5l11.5-33.8h5.2l11.5 33.8H371l-3.6-10.6h-12zm11.1-3.4l-3.3-9.7c-.7-2.2-1.2-4.2-1.8-6.2-.5 2-1 4.1-1.7 6.1l-3.3 9.8h10.1z"/><g><path fill="#de0911" d="M50 171s.1.5.3 1.6c2 9.5 12.6 58.6 16.3 73.6C70.8 263 83.4 288 83.4 288s0-50.2-4.2-66.9c-4.2-16.8-12.5-25.1-8.4-29.3 6.6-6.6 25.1-8.4 37.7-20.9 12.5-12.5 16.8-20.9 25.1-25.1 7.5-3.7 20.9 0 20.9 0s-8.4-8.4-16.8-8.4c-3.7 0-9.1 2.5-13.9 5.2-5.9 3.3-10.8 8-14.6 13.5-4.2 6.4-12.4 14.9-25.8 14.9H50zM284.2 133.4s-25.1 4.2-41.8 0-20.9-8.4-41.8-4.2-33.4 8.4-33.4 20.9c0 12.5 4.2 29.3 16.8 58.6 12.5 29.3 20.9 46 20.9 46s-6.3-56.5-10.4-73.1c-4.2-16.8-9.6-27.7-2.1-31.3 8.4-4.2 4.2-8.4 20.9-8.4 16.5-.2 52-2.3 70.9-8.5zM305 137.6s20.9 46 25.1 58.6c4.2 12.5 4.2 41.8 4.2 41.8s-25.1-29.3-25.1-37.7c.1-8.4-4.2-62.7-4.2-62.7M91.8 317.4s8.4 4.2 41.8-25.1c33.4-29.2 58.6-20.9 58.6-20.9s-37.7 16.8-50.2 29.3-20.9 20.9-33.4 20.9c-12.6 0-16.8-4.2-16.8-4.2M192.2 284s-16.8 0-37.7 25.1c-20.9 25.1-41.8 25.1-41.8 25.1s29.3 0 46-12.5c16.7-12.7 25.1-37.7 33.5-37.7M229.8 263s8.4-8.4 25.1-8.4 37.7 8.4 46 8.4c8.4 0 29.3-4.2 33.4-4.2h8.4s-16.8 12.5-41.8 12.5-29.3-8.4-46-8.4-25.1.1-25.1.1M234 275.6s4.2-4.2 12.5-4.2c8.4 0 33.4 16.8 50.2 16.8s50.2-12.5 50.2-12.5-12.5 25.1-46 25.1-41.8-25.2-66.9-25.2zM208.9 296.5s8.4 4.2 12.5 4.2c4.2 0 12.5-8.4 12.5-8.4s0 16.8-8.4 16.8-16.6-12.6-16.6-12.6z"/></g><g><path fill="#122f77" d="M493.3 204.6C475 107.8 339.6 52 190.9 80 91.5 98.8 40.8 143.5 4 204.5c39-42.4 66.9-79.8 139.6-92.5 140.6-24.6 277.2 9.3 303.7 100.9 22.3 76.8-46 158.9-179.8 192.3 142.1-8.4 241.9-114.7 225.8-200.6z"/></g></svg>
