<svg id="Layer_1" xmlns="http://www.w3.org/2000/svg" viewBox="0 0 500 500"><path fill="#fff" d="M10.7 185.3V63.2l73.9 57.4v122.1z"/><path d="M14.5 70.9l66.4 51.6V235l-66.4-51.6V70.9M7 55.6V187l81.3 63.3V118.8L7 55.6z"/><path fill="#fff" d="M92.1 120.6l73.8-57.4v122.1l-73.8 57.4z"/><path d="M162.2 70.9v112.5L95.8 235V122.6l66.4-51.7m7.5-15.3l-81.3 63.3v131.5l81.3-63.3V55.6z"/><path fill="#fff" d="M173.4 185.3V63.2l73.9 57.4v122.1z"/><path d="M177.1 70.9l66.4 51.6V235l-66.4-51.6V70.9m-7.4-15.3V187l81.3 63.3V118.8l-81.3-63.2z"/><path fill="#fff" d="M254.7 120.6l73.9-57.4v122.1l-73.9 57.4z"/><path d="M324.9 70.9v112.5L258.5 235V122.6l66.4-51.7m7.4-15.3L251 118.8v131.5l81.3-63.3V55.6z"/><path fill="#fff" d="M336.1 185.3V63.2l73.8 57.4v122.1z"/><path d="M339.8 70.9l66.4 51.6V235l-66.4-51.6V70.9m-7.5-15.3V187l81.3 63.3V118.8l-81.3-63.2z"/><path fill="#fff" d="M417.4 120.6l73.9-57.4v122.1l-73.9 57.4z"/><path d="M487.5 70.9v112.5L421.1 235V122.6l66.4-51.7m7.5-15.3l-81.3 63.3v131.5L495 187V55.6z"/><linearGradient id="SVGID_1_" gradientUnits="userSpaceOnUse" x1="46.119" y1="148.271" x2="46.119" y2="204.89" gradientTransform="matrix(1 0 0 -1 0 502)"><stop offset="0" stop-color="#6bb0ce"/><stop offset="1" stop-color="#1596bd"/></linearGradient><path d="M59.1 318.7c-3.5 4.3-3.6 6.6-3.6 12.1 0 7.2.4 10.4 1.1 11.8 1.1 2.3 5.3 1.8 5.3 5.5 0 5.7-12.4 5.7-16.2 5.7-15.4 0-17.4-3.6-17.4-5.7 0-4.2 4.4-2.7 5.9-5.9.8-1.8 1.2-5.4 1.2-13 0-4.4-.7-6-3.5-9.5l-9-10.3c-3.8-4.4-8.9-3.2-8.9-7 0-1.8-.6-5.3 17.7-5.3 16.3 0 16.1 3.1 16.1 4.8 0 2-2.2 2.8-2.2 4.4 0 1.7 3.2 6.6 5.1 6.6 2 0 5.3-4.1 5.3-6 0-2.2-2.3-2.3-2.3-5.3 0-4.6 9.1-4.6 12.1-4.6 9.8 0 12.4 1.2 12.4 4.6 0 5-5.7 2.1-9.5 6.3l-9.6 10.8z" fill="url(#SVGID_1_)" stroke="#000" stroke-width="4" stroke-miterlimit="10"/><linearGradient id="SVGID_2_" gradientUnits="userSpaceOnUse" x1="90.012" y1="148.041" x2="90.012" y2="189.142" gradientTransform="matrix(1 0 0 -1 0 502)"><stop offset="0" stop-color="#6bb0ce"/><stop offset="1" stop-color="#1596bd"/></linearGradient><path d="M88.8 334.9c-.9 0-2.1-.2-2.1 1.1 0 3.9 5.1 7.2 8.7 7.2 5.9 0 8.7-3.6 10.4-3.6 1.6 0 3.1 2.4 3.1 3.9 0 6.1-11 10.4-18.1 10.4-14.1 0-21.4-10.2-21.4-20.3 0-12.1 10.3-20.8 22-20.8 13.3 0 19.2 10.3 19.2 16.1 0 5.2-2.3 5.9-4.9 5.9H88.8v.1zm6.8-9.9c0-2.8-1.7-5-4.6-5-2.6 0-4.7 2.7-4.7 5.2 0 2.8 2.7 2.2 4.7 2.2 2.1-.1 4.6.4 4.6-2.4z" fill="url(#SVGID_2_)" stroke="#000" stroke-width="4" stroke-miterlimit="10"/><linearGradient id="SVGID_3_" gradientUnits="userSpaceOnUse" x1="139.406" y1="148.284" x2="139.406" y2="188.928" gradientTransform="matrix(1 0 0 -1 0 502)"><stop offset="0" stop-color="#6bb0ce"/><stop offset="1" stop-color="#1596bd"/></linearGradient><path d="M135 339.8c0 7.6 2.7 6.2 2.7 9.2 0 4.9-10.4 4.7-13.6 4.7-3.2 0-11.1 0-11.1-4.7 0-3.7 3.6-.4 3.8-8.1l.3-11.7c.2-5.8-4.6-3.9-4.6-8.1 0-4.2 18-8.1 19.6-8.1 1.7 0 2.8 1.5 2.8 3.1 0 .5-.1 1-.1 1.4 0 1 .4 2 1.5 2 1.2 0 1.9-1.6 3.6-3.3 1.5-1.5 3.9-3.2 8.4-3.2 16.2 0 13.4 15.9 14.2 27.8.4 6.1 3.6 4.8 3.6 8.2 0 1.4.3 4.7-14.4 4.7-2.8 0-10.4.2-10.4-4.2 0-2.8 2.6-1.5 3-6.6.4-5.6 2.6-18.1-4.8-18.1-5 0-4.5 5.4-4.5 8.9v6.1z" fill="url(#SVGID_3_)" stroke="#000" stroke-width="4" stroke-miterlimit="10"/><linearGradient id="SVGID_4_" gradientUnits="userSpaceOnUse" x1="181.558" y1="148.284" x2="181.558" y2="204.029" gradientTransform="matrix(1 0 0 -1 0 502)"><stop offset="0" stop-color="#6bb0ce"/><stop offset="1" stop-color="#1596bd"/></linearGradient><path d="M190.8 338.3c0 9.2 4.6 5.9 4.6 10 0 5.3-10 5.3-13.4 5.3-13.4 0-14-3.1-14-4.9 0-2.8 3.2-3 4.1-5.4 1.1-2.8 1.2-14.1.3-17-.7-2.8-4.7-1.9-4.7-5.4 0-5.6 19.9-7.9 20.7-7.9 2.3 0 2.4 1.8 2.4 3.5v21.8zm-15.5-27.7c-3.3 0-6.8-1.5-6.8-5.3 0-5.2 10.4-7.3 14.3-7.3 3.2 0 7.6 1.1 7.6 4.9.1 6.1-10.6 7.7-15.1 7.7z" fill="url(#SVGID_4_)" stroke="#000" stroke-width="4" stroke-miterlimit="10"/><linearGradient id="SVGID_5_" gradientUnits="userSpaceOnUse" x1="253.16" y1="148.271" x2="253.16" y2="204.89" gradientTransform="matrix(1 0 0 -1 0 502)"><stop offset="0" stop-color="#6bb0ce"/><stop offset="1" stop-color="#1596bd"/></linearGradient><path d="M265.9 318.7c-3.5 4.3-3.6 6.6-3.6 12.1 0 7.2.4 10.4 1.1 11.8 1.1 2.3 5.3 1.8 5.3 5.5 0 5.7-12.4 5.7-16.2 5.7-15.4 0-17.4-3.6-17.4-5.7 0-4.2 4.4-2.7 5.9-5.9.8-1.8 1.2-5.4 1.2-13 0-4.4-.7-6-3.5-9.5l-8.8-10.3c-3.8-4.4-8.9-3.2-8.9-7 0-1.8-.6-5.3 17.7-5.3 16.3 0 16.1 3.1 16.1 4.8 0 2-2.2 2.8-2.2 4.4 0 1.7 3.2 6.6 5.1 6.6 2 0 5.3-4.1 5.3-6 0-2.2-2.3-2.3-2.3-5.3 0-4.6 9.1-4.6 12.1-4.6 9.8 0 12.4 1.2 12.4 4.6 0 5-5.7 2.1-9.5 6.3l-9.8 10.8z" fill="url(#SVGID_5_)" stroke="#000" stroke-width="4" stroke-miterlimit="10"/><linearGradient id="SVGID_6_" gradientUnits="userSpaceOnUse" x1="298.712" y1="148.041" x2="298.712" y2="189.142" gradientTransform="matrix(1 0 0 -1 0 502)"><stop offset="0" stop-color="#6bb0ce"/><stop offset="1" stop-color="#1596bd"/></linearGradient><path d="M316.3 334.1c0 13.8 4.7 6.2 4.7 10.5 0 4.4-6.1 9.3-11.8 9.3-6.1 0-6.3-4-8.3-4-1 0-1.9 1.1-3.6 1.9-1.7 1.1-4 2-7.7 2-6.5 0-13-3.5-13-11.2 0-5.6 5.3-12.5 19.1-12.5 2.4 0 3.6.2 3.6-2.7 0-2.6-.1-8-3.6-8-4.7 0-5.2 8.5-12.1 8.5-2.5 0-4.4-1.8-4.4-4.3 0-6.6 13.3-11 20.7-11 4.4 0 16.7 1.7 16.7 13.4l-.3 8.1zm-23.5 6.9c0 2 1.1 4.2 3.4 4.2 3 0 3.2-3.2 3.2-5.6 0-1.7.1-3.6-2.1-3.6-2.7 0-4.5 2.5-4.5 5z" fill="url(#SVGID_6_)" stroke="#000" stroke-width="4" stroke-miterlimit="10"/><linearGradient id="SVGID_7_" gradientUnits="userSpaceOnUse" x1="341.673" y1="148.036" x2="341.673" y2="189.149" gradientTransform="matrix(1 0 0 -1 0 502)"><stop offset="0" stop-color="#6bb0ce"/><stop offset="1" stop-color="#1596bd"/></linearGradient><path d="M344.7 313.3c1.4.2 2.7.6 3.2.6.8 0 1.4-.2 2.1-.6.7-.2 1.4-.5 2.1-.5 3.6 0 7.2 7.2 7.2 10.4 0 2.1-1.8 3.6-3.8 3.6-4.4 0-7-6.1-10.4-6.1-1.4 0-2.8 1.2-2.8 2.7 0 5 17.2 6 17.2 18.1 0 7.4-7.1 12.5-15.3 12.5-1.5 0-3.8-.2-5.8-.6-1.9-.2-3.6-.5-4.1-.5-.6 0-1.1.1-1.5.2-.5.1-1 .2-1.5.2-1.5 0-2.3-.2-3.5-1.5-1.9-2.2-3.9-6.6-3.9-9.6 0-2 .7-3.6 3-3.6 3.5 0 6.6 7.8 11 7.8 1.5 0 3.1-.8 3.1-2.5 0-4.6-15.4-5.2-15.4-18.1 0-7.8 6.4-12.8 14.5-12.8 1.4-.1 3.1 0 4.6.3z" fill="url(#SVGID_7_)" stroke="#000" stroke-width="4" stroke-miterlimit="10"/><linearGradient id="SVGID_8_" gradientUnits="userSpaceOnUse" x1="384.635" y1="148.041" x2="384.635" y2="189.142" gradientTransform="matrix(1 0 0 -1 0 502)"><stop offset="0" stop-color="#6bb0ce"/><stop offset="1" stop-color="#1596bd"/></linearGradient><path d="M402.2 334.1c0 13.8 4.7 6.2 4.7 10.5 0 4.4-6.1 9.3-11.8 9.3-6.1 0-6.3-4-8.3-4-1 0-1.9 1.1-3.6 1.9-1.7 1.1-4 2-7.7 2-6.5 0-13-3.5-13-11.2 0-5.6 5.3-12.5 19.1-12.5 2.4 0 3.6.2 3.6-2.7 0-2.6-.1-8-3.6-8-4.7 0-5.2 8.5-12.1 8.5-2.5 0-4.4-1.8-4.4-4.3 0-6.6 13.3-11 20.7-11 4.4 0 16.7 1.7 16.7 13.4l-.3 8.1zm-23.6 6.9c0 2 1.1 4.2 3.4 4.2 3 0 3.2-3.2 3.2-5.6 0-1.7.1-3.6-2.1-3.6-2.7 0-4.5 2.5-4.5 5z" fill="url(#SVGID_8_)" stroke="#000" stroke-width="4" stroke-miterlimit="10"/><linearGradient id="SVGID_9_" gradientUnits="userSpaceOnUse" x1="447.58" y1="148.271" x2="447.58" y2="188.915" gradientTransform="matrix(1 0 0 -1 0 502)"><stop offset="0" stop-color="#6bb0ce"/><stop offset="1" stop-color="#1596bd"/></linearGradient><path d="M413.4 331c0-5-1.1-6.4-1.8-7.1-1.1-.9-2.1-.8-2.1-2.8 0-5.8 19.4-8 19.6-8 1.9 0 2.1 1.7 2.1 3.4 0 1-.3 3.6 1.3 3.6.8 0 2-1.7 4.2-3.6 2.2-1.7 5.3-3.5 10-3.5 9.3 0 9.4 7 11 7 .6 0 2-1.7 4.3-3.6 2.3-1.7 5.5-3.5 9.5-3.5 7.4 0 12.1 4 12.1 11.7v16.5c0 4.5 2.9 4.9 2.9 7.2 0 4.9-8.9 5.2-12 5.2-2.6 0-11.7-.6-11.7-4.6 0-2.9 2.8-2.8 2.8-7.4v-7c0-3.3.4-9.9-4-9.9s-4 5.3-4 8.3v4.9c0 9.6 2.8 8 2.8 10.9 0 4.9-9.4 4.9-12.2 4.9-11.8 0-12.5-2.2-12.4-4.4.1-4.1 4-.9 3.7-10.2v-4.4c0-2.8.4-9.9-4-9.9s-4 5.3-4 8.3v6.3c0 7.2 2.1 6.7 2.1 9.5 0 2-1.8 4.8-12.5 4.8-3.1 0-12.3.1-12.3-4 0-3.6 4.7-1.6 4.7-11.4l-.1-7.2z" fill="url(#SVGID_9_)" stroke="#000" stroke-width="4" stroke-miterlimit="10"/><linearGradient id="SVGID_10_" gradientUnits="userSpaceOnUse" x1="89.485" y1="73.688" x2="89.485" y2="130.307" gradientTransform="matrix(1 0 0 -1 0 502)"><stop offset="0" stop-color="#6bb0ce"/><stop offset="1" stop-color="#1596bd"/></linearGradient><path d="M102.3 393.2c-3.5 4.3-3.6 6.6-3.6 12.1 0 7.2.4 10.4 1.1 11.8 1.1 2.3 5.3 1.8 5.3 5.5 0 5.7-12.4 5.7-16.2 5.7-15.4 0-17.4-3.6-17.4-5.7 0-4.2 4.4-2.7 5.9-5.9.8-1.8 1.2-5.4 1.2-13 0-4.4-.7-6-3.5-9.5L66.3 384c-3.8-4.4-8.9-3.2-8.9-7 0-1.8-.6-5.3 17.7-5.3 16.3 0 16.1 3.1 16.1 4.8 0 2-2.2 2.8-2.2 4.4 0 1.7 3.2 6.6 5.1 6.6 2 0 5.3-4.1 5.3-6 0-2.2-2.3-2.3-2.3-5.3 0-4.6 9.1-4.6 12.1-4.6 9.8 0 12.4 1.2 12.4 4.6 0 5-5.7 2.1-9.5 6.3l-9.8 10.7z" fill="url(#SVGID_10_)" stroke="#000" stroke-width="4" stroke-miterlimit="10"/><linearGradient id="SVGID_11_" gradientUnits="userSpaceOnUse" x1="135.117" y1="73.488" x2="135.117" y2="114.588" gradientTransform="matrix(1 0 0 -1 0 502)"><stop offset="0" stop-color="#6bb0ce"/><stop offset="1" stop-color="#1596bd"/></linearGradient><path d="M152.7 408.7c0 13.8 4.7 6.2 4.7 10.5 0 4.4-6.1 9.3-11.8 9.3-6.1 0-6.3-4-8.3-4-1 0-1.9 1.1-3.6 1.9-1.7 1.1-4 2-7.7 2-6.5 0-13-3.5-13-11.2 0-5.6 5.3-12.5 19.1-12.5 2.4 0 3.6.2 3.6-2.7 0-2.6-.1-8-3.6-8-4.7 0-5.2 8.5-12.1 8.5-2.5 0-4.4-1.8-4.4-4.3 0-6.6 13.3-11 20.7-11 4.4 0 16.7 1.7 16.7 13.4l-.3 8.1zm-23.6 6.9c0 2 1.1 4.2 3.4 4.2 3 0 3.2-3.2 3.2-5.6 0-1.7.1-3.6-2.1-3.6-2.6 0-4.5 2.5-4.5 5z" fill="url(#SVGID_11_)" stroke="#000" stroke-width="4" stroke-miterlimit="10"/><linearGradient id="SVGID_12_" gradientUnits="userSpaceOnUse" x1="183.945" y1="60.566" x2="183.945" y2="114.37" gradientTransform="matrix(1 0 0 -1 0 502)"><stop offset="0" stop-color="#6bb0ce"/><stop offset="1" stop-color="#1596bd"/></linearGradient><path d="M193.3 420.9c-3.8 10.4-8.8 20.6-21.6 20.6-5.7 0-12.3-2.9-12.3-9.4 0-3.9 3-7.2 7-7.2 7.3 0 5.3 8.3 8.5 8.3 2.1 0 3.1-2 3.1-3.8 0-2.2-1.5-5.2-2.5-7.1l-11-23c-1.5-3.2-6-2.2-6-5.8 0-2.3 1.4-5.8 18-5.8 3 0 10 .3 10 4.8 0 2.1-1.8 2.8-1.8 4.6 0 3 3.5 8.5 4.8 8.5 2.3 0 4-5.4 4-7.3 0-3.6-2.5-3.3-2.5-6 0-4.1 7.4-4.6 10.2-4.6 2.6 0 8.4.4 8.4 4 0 4.6-4.7 2.6-7.4 7.2-1.7 2.8-3 6.1-4 9.2l-4.9 12.8z" fill="url(#SVGID_12_)" stroke="#000" stroke-width="4" stroke-miterlimit="10"/><linearGradient id="SVGID_13_" gradientUnits="userSpaceOnUse" x1="224.034" y1="73.688" x2="224.034" y2="129.446" gradientTransform="matrix(1 0 0 -1 0 502)"><stop offset="0" stop-color="#6bb0ce"/><stop offset="1" stop-color="#1596bd"/></linearGradient><path d="M233.3 412.9c0 9.2 4.6 5.9 4.6 10 0 5.3-10 5.3-13.4 5.3-13.4 0-14-3.1-14-4.9 0-2.8 3.2-3 4.1-5.4 1.1-2.8 1.2-14.1.3-17-.7-2.8-4.7-1.9-4.7-5.4 0-5.6 19.9-7.9 20.7-7.9 2.3 0 2.4 1.8 2.4 3.5v21.8zm-15.5-27.8c-3.3 0-6.8-1.5-6.8-5.3 0-5.2 10.4-7.3 14.3-7.3 3.2 0 7.6 1.1 7.6 4.9 0 6.2-10.6 7.7-15.1 7.7z" fill="url(#SVGID_13_)" stroke="#000" stroke-width="4" stroke-miterlimit="10"/><linearGradient id="SVGID_14_" gradientUnits="userSpaceOnUse" x1="266.511" y1="73.722" x2="266.511" y2="114.366" gradientTransform="matrix(1 0 0 -1 0 502)"><stop offset="0" stop-color="#6bb0ce"/><stop offset="1" stop-color="#1596bd"/></linearGradient><path d="M262.1 414.3c0 7.6 2.7 6.2 2.7 9.2 0 4.9-10.4 4.7-13.6 4.7-3.2 0-11.1 0-11.1-4.7 0-3.7 3.6-.4 3.8-8.1l.3-11.7c.2-5.8-4.6-3.9-4.6-8.1 0-4.1 18-8.1 19.6-8.1 1.7 0 2.8 1.5 2.8 3.1 0 .5-.1 1-.1 1.4 0 1 .4 2 1.5 2 1.2 0 1.9-1.6 3.6-3.3 1.5-1.5 3.9-3.2 8.4-3.2 16.2 0 13.4 15.9 14.2 27.8.4 6.1 3.6 4.8 3.6 8.2 0 1.4.3 4.7-14.4 4.7-2.8 0-10.4.2-10.4-4.2 0-2.8 2.6-1.5 3-6.6.4-5.6 2.6-18.1-4.8-18.1-5 0-4.5 5.4-4.5 8.9v6.1z" fill="url(#SVGID_14_)" stroke="#000" stroke-width="4" stroke-miterlimit="10"/><linearGradient id="SVGID_15_" gradientUnits="userSpaceOnUse" x1="308.906" y1="73.681" x2="308.906" y2="129.445" gradientTransform="matrix(1 0 0 -1 0 502)"><stop offset="0" stop-color="#6bb0ce"/><stop offset="1" stop-color="#1596bd"/></linearGradient><path d="M318.5 413.4c0 1.4-.1 4 .3 5.3.9 2.8 4.4 1.5 4.4 4.8 0 5.3-9.5 4.9-12.9 4.9-3.6 0-14.5.4-14.5-5.2 0-2.8 3.4-1.7 4.3-4.6 1.1-3.2 1.1-13 1.1-16.8 0-3.1.2-8.9-.6-12.5-1.2-5.8-5.8-3.7-5.8-8.3 0-6.8 20.4-8.5 21.4-8.5 2.7 0 3.3 1.7 3.3 4 0 1.8-1.1 10.4-1.1 21.6l.1 15.3z" fill="url(#SVGID_15_)" stroke="#000" stroke-width="4" stroke-miterlimit="10"/><linearGradient id="SVGID_16_" gradientUnits="userSpaceOnUse" x1="347.337" y1="73.488" x2="347.337" y2="114.588" gradientTransform="matrix(1 0 0 -1 0 502)"><stop offset="0" stop-color="#6bb0ce"/><stop offset="1" stop-color="#1596bd"/></linearGradient><path d="M364.9 408.7c0 13.8 4.7 6.2 4.7 10.5 0 4.4-6.1 9.3-11.8 9.3-6.1 0-6.3-4-8.3-4-1 0-1.9 1.1-3.6 1.9-1.7 1.1-4 2-7.7 2-6.5 0-13-3.5-13-11.2 0-5.6 5.3-12.5 19.1-12.5 2.4 0 3.6.2 3.6-2.7 0-2.6-.1-8-3.6-8-4.7 0-5.2 8.5-12.1 8.5-2.5 0-4.4-1.8-4.4-4.3 0-6.6 13.3-11 20.7-11 4.4 0 16.7 1.7 16.7 13.4l-.3 8.1zm-23.5 6.9c0 2 1.1 4.2 3.4 4.2 3 0 3.2-3.2 3.2-5.6 0-1.7.1-3.6-2.1-3.6-2.7 0-4.5 2.5-4.5 5z" fill="url(#SVGID_16_)" stroke="#000" stroke-width="4" stroke-miterlimit="10"/><linearGradient id="SVGID_17_" gradientUnits="userSpaceOnUse" x1="392.725" y1="73.687" x2="392.725" y2="114.331" gradientTransform="matrix(1 0 0 -1 0 502)"><stop offset="0" stop-color="#6bb0ce"/><stop offset="1" stop-color="#1596bd"/></linearGradient><path d="M376.8 403.7c0-7.7-4.9-3.4-4.9-8.2 0-6.1 18.3-7.9 19-7.9 3 0 3.1.8 3.4 3.5.1 1 0 2.8 1.3 2.8 1.9 0 3.1-6.1 9.8-6.1 5.3 0 8.7 3.9 8.7 9.1 0 5.3-4.4 9.4-9.6 9.4-5.1 0-6.5-4.4-8.6-4.4-2.2 0-1.8 5.3-1.8 6.6 0 2.3.2 5.7.6 8.6.5 3.5 6.4 1.3 6.4 6.1 0 4.9-6.9 5.3-15.5 5.3-3.6 0-14.2.2-14.2-5.3 0-3.3 3.6-3.3 4.4-6.1.6-1.9.9-6.4.9-8.6l.1-4.8z" fill="url(#SVGID_17_)" stroke="#000" stroke-width="4" stroke-miterlimit="10"/><linearGradient id="SVGID_18_" gradientUnits="userSpaceOnUse" x1="429.376" y1="73.688" x2="429.376" y2="114.331" gradientTransform="matrix(1 0 0 -1 0 502)"><stop offset="0" stop-color="#6bb0ce"/><stop offset="1" stop-color="#1596bd"/></linearGradient><path d="M438.6 412.9c0 9.2 4.6 5.9 4.6 10 0 5.3-10 5.3-13.4 5.3-13.4 0-14-3.1-14-4.9 0-2.8 3.2-3 4.1-5.4 1.1-2.8 1.2-14.1.3-17-.7-2.8-4.7-1.9-4.7-5.4 0-5.6 19.9-7.9 20.7-7.9 2.3 0 2.4 1.8 2.4 3.5v21.8z" fill="url(#SVGID_18_)" stroke="#000" stroke-width="4" stroke-miterlimit="10"/></svg>
