<svg id="Layer_1" xmlns="http://www.w3.org/2000/svg" viewBox="0 0 600 600"><linearGradient id="SVGID_1_" gradientUnits="userSpaceOnUse" x1="300.158" y1="4.286" x2="300.158" y2="590.025" gradientTransform="translate(-.395 .084)"><stop offset="0" stop-color="#7a4328"/><stop offset=".166" stop-color="#6c3823"/><stop offset=".576" stop-color="#4d2217"/><stop offset=".807" stop-color="#421913"/></linearGradient><path d="M461.7 589.7l-323 .3c-72.5.1-131.4-58.7-131.4-131.3l-.3-323C6.9 63.2 65.7 4.3 138.3 4.3l323-.3c72.6-.1 131.4 58.7 131.5 131.3l.3 323c0 72.5-58.8 131.4-131.4 131.4z" fill="url(#SVGID_1_)"/><path fill="none" d="M463.2 4l-326.8.3c-17.2 0-33.6 3.4-48.6 9.5v1.7l.4 543.9-11.1-5.4-.5-527.4v-4.9c0-1.3.5-2.5 1.3-3.5C35.8 39.7 7 83.4 7 133.8l.3 326.8c0 71.5 58 129.5 129.5 129.4l326.8-.3c71.5-.1 129.4-58.1 129.4-129.6l-.3-326.8c0-71.4-58-129.4-129.5-129.3z"/><linearGradient id="SVGID_2_" gradientUnits="userSpaceOnUse" x1="82.598" y1="559.344" x2="82.598" y2="13.748" gradientTransform="translate(-.395 .084)"><stop offset="0" stop-color="#4a2b25"/><stop offset=".105" stop-color="#421913"/><stop offset=".185" stop-color="#441d16"/><stop offset=".258" stop-color="#4b2820"/><stop offset=".327" stop-color="#563a31"/><stop offset=".327" stop-color="#563a31"/><stop offset=".42" stop-color="#5d3d31"/><stop offset=".552" stop-color="#6f4430"/><stop offset=".569" stop-color="#724530"/><stop offset=".602" stop-color="#784932"/><stop offset=".748" stop-color="#8e593b"/><stop offset=".772" stop-color="#905a3b"/><stop offset="1" stop-color="#9b5f3c"/></linearGradient><path d="M76.6 25.5v1.2l.5 527.3 11.2 5.4-.5-543.9v-1.7c-3.4 1.4-6.7 2.9-9.9 4.5-.8 1-1.3 2.2-1.3 3.5v3.7z" fill="url(#SVGID_2_)"/><linearGradient id="SVGID_3_" gradientUnits="userSpaceOnUse" x1="344.786" y1="590.025" x2="344.786" y2="4.286" gradientTransform="translate(-.395 .084)"><stop offset="0" stop-color="#4a2b25"/><stop offset=".105" stop-color="#421913"/><stop offset=".185" stop-color="#441d16"/><stop offset=".258" stop-color="#4b2820"/><stop offset=".327" stop-color="#563a31"/><stop offset=".327" stop-color="#563a31"/><stop offset=".42" stop-color="#5d3d31"/><stop offset=".552" stop-color="#6f4430"/><stop offset=".569" stop-color="#724530"/><stop offset=".602" stop-color="#784932"/><stop offset=".748" stop-color="#8e593b"/><stop offset=".772" stop-color="#905a3b"/><stop offset="1" stop-color="#9b5f3c"/></linearGradient><path d="M464.8 589.7l-326 .3c-23.3 0-42.1-18.8-42.2-42.1l-.4-538c5.6-2.8 12.9-5.6 28.9-5.6L460.9 4c72.7-.1 131.8 58.9 131.8 131.6l.3 325.7c.1 70.9-57.3 128.4-128.2 128.4z" fill="url(#SVGID_3_)"/><path d="M574.8 429.3s8.4 66.9-33.4 106-80.9 36.3-80.9 36.3-281.3 6.2-326.3.3C92.4 566.3 84 558 84 558s-47.4-30.6-41.9-50.2c5.6-19.5 41.8-19.6 41.8-19.6l376.5 2.5s50.2 0 80.9-25.2 33.5-36.2 33.5-36.2z" fill="#e0e0a3"/><path fill="none" d="M456.4 506.1s-318-2.5-354.2-2.5c-36.3 0-60.1 7.7-60.1 7.7s0 .1-.2.2c2.4 19.3 42.2 45 42.2 45s8.4 8.4 50.2 13.9c45 6 326.3-.3 326.3-.3s39.1 2.8 80.9-36.3c35.3-33 34.8-85.7 33.8-101.4-13.8 78.8-118.9 73.7-118.9 73.7z"/><path d="M42 511.3s23.8-7.7 60.1-7.7 354.2 2.5 354.2 2.5 105.1 5.2 118.9-73.6c-.2-2.9-.4-4.6-.4-4.6s-2.8 11.2-33.4 36.3c-30.7 25.1-80.9 25.2-80.9 25.2L84 486.8s-36.3 0-41.8 19.6c-.5 1.6-.5 3.4-.3 5.1.1-.1.1-.2.1-.2z" fill="#b2b282"/><path fill="#e6e6ad" d="M375.5 522.9s-50.2 5.6-69.7 5.6-75.3-5.5-75.3-5.5l145-.1zM350.4 550.8s-50.2 5.6-69.7 5.6-75.3-5.5-75.3-5.5l145-.1zM420.1 522.8s72.5 5.5 106-11.2c33.5-16.8 39-33.5 39-33.5s-11.1 16.7-47.4 30.7c-35.4 13.7-97.6 14-97.6 14"/><path fill="#d2d09a" d="M417.3 520s72.5 5.5 106-11.2c33.5-16.8 39-33.5 39-33.5S551.2 492 514.9 506c-35.4 13.7-97.6 14-97.6 14"/><path fill="#e6e6ad" d="M444.7 547.9s57.5 5.5 84-11.2c26.5-16.8 30.9-33.5 30.9-33.5s-8.8 16.7-37.6 30.7c-28 13.6-77.3 14-77.3 14"/><path fill="#d2d09a" d="M442.4 545.1s57.5 5.5 84-11.2c26.5-16.8 30.9-33.5 30.9-33.5s-8.8 16.7-37.6 30.7c-28 13.7-77.3 14-77.3 14M233.2 523s50.2-5.6 69.7-5.6 75.3 5.5 75.3 5.5l-145 .1zM202.6 550.9s50.2-5.6 69.7-5.6 75.3 5.5 75.3 5.5l-145 .1z"/><path fill="#c9c992" d="M109.1 509.1l.1 58.6 41.8-22.3 44.6 22.2v-58.5h-86.5"/><path fill="#b9352c" d="M109.1 502.2v58.5l41.9-22.3 44.6 22.3v-58.6l-86.5.1"/><g><path fill="#9b9061" d="M78.5 548.1l-1.4 2.7c1.8 1.2 3.6 2.4 5.2 3.5l1.3-2.5c-1.6-1.2-3.4-2.4-5.1-3.7zM58.1 532c-.2-.2-.4-.4-.6-.5-1-1-1.8-2-2.6-3l-1.7 1.7c1.1 1.3 2.3 2.6 3.5 3.9l1.4-2.1zM46.2 519.5l3.2-1.1c-.5-1.3-.9-2.5-1.2-3.7h-3.7c.3 1.6.9 3.2 1.7 4.8zM50.6 521.4l-3 .8c.9 1.7 2 3.3 3.2 4.9l1.9-1.9c-.8-1.3-1.5-2.5-2.1-3.8zM87.4 554.3l-.7 2.7c1.6 1 3 1.8 4.3 2.5v-2.7c-1.1-.8-2.4-1.6-3.6-2.5zM69 544.9c1.7 1.3 3.4 2.6 5.1 3.8l1.4-2.8c-1.7-1.3-3.4-2.5-5.1-3.8l-1.4 2.8zM47.4 512c-.1-.6-.3-1.3-.4-1.9l-3.5-3.7c-.2 1.9-.1 3.7.2 5.6h3.7zM93.8 559.6v1.5c1.7 1 2.8 1.5 2.8 1.5l-2.8-3zM59.5 536.8c1.9 1.8 3.8 3.5 5.8 5.2l1.6-2.4c-2.2-1.7-4.2-3.4-6-4.9l-1.4 2.1z"/></g><g><path fill="#e5e5b2" d="M175.2 133.1c0-6.9-.2-22-.2-23.8 0-5.7-.8-7.3-4.9-7.2h-5.2c-.6 0-.7-.2-.7-.9v-2.7c0-.6.3-.8.9-.8 2.2 0 5.8.3 15.6.3 8.7 0 12.7-.3 14.8-.3.8 0 1.1.1 1.1.6v2.9c0 .7-.2.9-.9.9H190c-3.8 0-4.3 1.9-4.3 6.4 0 1.6-.2 16.3-.2 22.5v1.9c0 .6.3.9 1.3.9h41.3c1.7 0 2.2-.2 2.2-1.7V131c0-6.4-.4-21.9-.4-23.2 0-3.6-.5-5.7-3.7-5.7h-5.8c-.6 0-.8-.2-.8-.8v-2.9c0-.4.1-.7.7-.7 2.3 0 7.1.3 14.7.3s12.2-.3 14.3-.3c.8 0 .9.2.9.9v2.7c0 .7-.2.8-.9.8h-5c-3.2 0-3.6 1.9-3.6 5.9 0 1.6-.2 20.4-.2 24.5v3.8c0 3.6.2 24.8.4 31.1 0 4 1.1 5.6 4.5 5.6h4.9c.8 0 1 .2 1 .8v2.7c0 .7-.2.9-.9.9-2.1 0-5.9-.3-14.1-.3-9.7 0-13.3.3-16.6.3-.4 0-.7-.3-.7-.8v-2.8c0-.6.2-.8.9-.8h7c2.7 0 3-2.1 3-5.1.1-5.2.3-23.2.3-27.2v-1.6c0-1.2-.6-1.3-2.5-1.3h-40.8c-1.2 0-1.6.3-1.6 1.1v2.3c0 3 .1 20.2.2 28 .1 2.7 1.2 3.8 3.6 3.8h5.5c.7 0 .9.2.9.8v2.8c0 .6-.2.8-.9.8-2.1 0-6-.3-14.1-.3-9.6 0-12.9.3-15.5.3-.6 0-.8-.2-.8-.8v-2.9c0-.4.3-.7.8-.7h6.6c2.8 0 3.1-2.7 3.1-5.4.1-5.2.3-26.9.3-29.8l.2-4.7zM280.9 171.4c-7.9-4.8-16.4-16.8-16.4-33.1 0-6.8 1.8-17.4 10.4-27.8 9.8-11.9 20.9-14.2 30.2-14.2 7 0 16.2 1.4 25 8.8 8.2 7 15.3 18 15.3 33.3 0 8.1-2.6 16.6-8.3 24.4-6.8 9-16.7 15.7-32.1 15.8-5.6 0-15.3-1.8-24.1-7.2zm53.5-32.1c0-24.4-17.4-38.8-29.8-38.8-1.7 0-9.3-1.3-17.6 6.6-7.5 7.1-11.1 18.4-11.1 27.6 0 29.3 20.4 39.7 29.9 39.7 24.5-.1 28.6-25.2 28.6-35.1zM370 126.9c0-7.1-.2-19-.4-21-.2-2.9-.8-4-4.1-4h-5.2c-.7 0-.8-.6-.8-1.1v-2.5c0-.6.1-.8.8-.8 1.2 0 5.2.3 14.5.3 10.8 0 15.5-.3 16.5-.3.9 0 1 .3 1 .9v2.6c0 .6-.2.9-1.1.9h-6.7c-3.5 0-3.9 1.1-3.9 4.4 0 1.5-.3 18.3-.3 26.1v9.6c0 1.9 0 26 .4 30.6 2.5.2 24.5.4 28 0 6.6-1 13.3-14.4 14.8-18.8.2-.4.4-.7.9-.4l1.8.7c.3.2.3.3.2 1-.3.8-4.8 19.2-5.4 22.2-1.5-.1-10.2-.2-20.1-.2-9.9-.1-20.9-.1-26.9-.1-4.4 0-7.6.1-9.9.1-2.2.1-3.6.2-4.4.2-.8 0-.9-.2-.9-.8v-2.8c0-.6.1-.8.8-.8h5.4c4.1 0 4.8-1.6 4.8-3 0-2.1.3-29.9.3-36.7l-.1-6.3zM465.3 156c0 4.4.3 11.6.5 12.8.3 3.6 2 3.9 4.9 3.9h4.4c.8 0 .8.3.8.8v2.6c0 .7 0 1-.8 1-1.3 0-5.7-.3-15.1-.3-10 0-13.5.3-14.7.3-.4 0-.7-.3-.7-.9v-2.7c0-.4.1-.8.8-.8h5.5c2.9 0 3.8-1.1 3.9-2.8.1-1.6.3-10.4.3-20.8v-6.5c-1.5-2.9-20-34.3-23.2-38.3-1.5-1.7-4-2.7-5.8-2.7h-2.8c-.7 0-.8-.3-.8-.8v-2.9c0-.4.1-.7.8-.7 1 0 6.2.3 13.1.3 11.5 0 15.5-.3 16.6-.3.7 0 .8.2.8.6v2.8c0 .6-.1 1-.8 1h-3.7c-3.3 0-3.8 1-3.3 3.7.3 1.8 14.1 26 17.4 32.3 4.1-6.5 19.7-29.7 20.2-31.7.4-1.9 1-4.4-3.7-4.3h-3c-.7 0-.8-.3-.8-1v-2.7c0-.4.1-.7.8-.7 1.1 0 5.7.3 13.2.3 6.6 0 9-.3 10-.3.8 0 .9.2.9.7v2.7c0 .7-.1 1-.9 1h-2.8c-1.7 0-3.6.7-5.5 2.5-2.2 2.1-22.2 31-26.4 37.2l-.1 14.7zM168.8 256.8c0-4.1-.2-17.7-.4-19.7-.3-6.5-2.1-6.7-7.3-6.7h-3.5c-.7 0-.9-.2-.9-.8v-2.8c0-.6.2-.8.9-.8 1.8 0 6.8.3 14.8.3 3.6 0 10.3-.3 14.2-.3 8.7 0 15.8.8 19.8 3 6.4 3.5 8.6 8.6 8.6 15.2 0 11-4.9 13.8-13.6 18.4l.3.2c10.8 3.6 18.1 10.3 18.1 22.1 0 5.7-3.4 13.5-8.6 16.7-4.7 2.9-11 4-21.3 4-7.7 0-12-.3-16.7-.3-5.6 0-12.2.3-14.3.3-1.3 0-1.6-.2-1.6-.7V302c0-.6.2-.8 1-.8h5.4c3.5 0 4-1.3 4.5-4.9.3-2.6.5-17.3.5-26.4l.1-13.1zm9.8 4.3c2.1.2 4 .2 5.9.2 6.4 0 11.4-1 14.1-2.9 4.6-3.5 6.2-8.5 6.2-13.4 0-4.2-1.3-8.7-5.5-11.7-4-2.8-9.6-3.8-15.3-3.8-1.6 0-2.8-.1-3.7.1-.9.2-1.6 1-1.6 2-.1 2.2-.2 11.9-.2 21.2l.1 8.3zm0 10.8v15.4c0 10.3 2.5 14.8 11.7 14.8 9.4 0 18-4.5 17.9-17.8 0-9-4.6-14.9-11.2-17.5-4.6-1.8-9.8-1.9-15-1.9h-3.6l.2 7zM246.3 258.5c0-2.7-.4-22.8-.5-24.4-.2-2.7-1.3-3.8-5.6-3.8h-6.5c-.6 0-.9-.2-.9-.7v-3c0-.4.3-.7.8-.7 1.3 0 7 .3 17.4.3 9.9 0 13.5-.3 15.1-.3.6 0 .8.3.8.8v2.8c0 .6-.3.8-.9.8h-5.2c-2.2 0-3.9.9-3.9 3.1 0 1.1-.3 25.8-.3 27.1v8.6c0 1.1.4 26.9.4 28.1 0 3.5 1.7 4 5.2 4h4.6c.6 0 .9.2.9.8v2.9c0 .4-.3.7-1 .7-1.3 0-5.8-.3-15.5-.3-10.6 0-15.4.3-16.6.3-.6 0-.9-.2-.9-.7v-3c0-.4.3-.7.9-.7h6.2c2.2 0 4.6-.3 5-3.2.2-1.7.5-25.8.5-31.7v-7.8zM292.3 256.7c0-4.1-.2-17.7-.4-19.7-.3-6.5-2.1-6.7-7.3-6.7h-3.5c-.7 0-.9-.2-.9-.8v-2.8c0-.6.2-.8.9-.8 1.8 0 6.8.3 14.8.3 3.6 0 10.3-.3 14.2-.3 8.7 0 15.8.8 19.8 3 6.4 3.5 8.6 8.6 8.6 15.2 0 11-4.9 13.8-13.6 18.4l.3.2c10.8 3.6 18.1 10.3 18.1 22.1 0 5.7-3.4 13.5-8.6 16.7-4.7 2.9-11 4-21.3 4-7.7 0-12-.3-16.7-.3-5.6 0-12.2.3-14.3.3-1.3 0-1.6-.2-1.6-.7v-2.9c0-.6.2-.8 1-.8h5.4c3.5 0 4-1.3 4.5-4.9.3-2.6.5-17.3.5-26.4l.1-13.1zm9.8 4.3c2.1.2 4 .2 5.9.2 6.4 0 11.4-1 14.1-2.9 4.6-3.5 6.2-8.5 6.2-13.4 0-4.2-1.3-8.7-5.5-11.7-4-2.8-9.6-3.8-15.3-3.8-1.6 0-2.8-.1-3.7.1-.9.2-1.6 1-1.6 2-.1 2.2-.2 11.9-.2 21.2l.1 8.3zm0 10.8v15.4c0 10.3 2.5 14.8 11.7 14.8 9.4 0 18-4.5 17.9-17.8 0-9-4.6-14.9-11.2-17.5-4.6-1.8-9.8-1.9-15-1.9h-3.6l.2 7zM369.8 255.2c0-7.1-.2-19-.4-21-.2-2.9-.8-4-4.1-4h-5.2c-.7 0-.8-.6-.8-1.1v-2.5c0-.6.1-.8.8-.8 1.2 0 5.2.3 14.5.3 10.8 0 15.5-.3 16.5-.3.9 0 1 .3 1 .9v2.6c0 .6-.2.9-1.1.9h-6.7c-3.5 0-3.9 1.1-3.9 4.4 0 1.5-.3 18.3-.3 26.1v9.6c0 1.9 0 26 .4 30.6 2.5.2 24.5.4 28 0 6.6-1 13.3-14.4 14.8-18.8.2-.4.4-.7.9-.4l1.8.7c.3.2.3.3.2 1-.3.8-4.8 19.2-5.4 22.2-1.5-.1-10.2-.2-20.1-.2-9.9-.1-20.9-.1-26.9-.1-4.4 0-7.6.1-9.9.1-2.2.1-3.6.2-4.4.2-.8 0-.9-.2-.9-.8V302c0-.6.1-.8.8-.8h5.4c4.1 0 4.8-1.6 4.8-3 0-2.1.3-29.9.3-36.7l-.1-6.3zM455 262.4c.9 0 12.8-.5 14.2-.7 3.2-.6 4.1-1.5 5.1-4.9.3-1.1.8-3.3.9-5.5 0-.6.3-.8.8-.8l2.8.1c.6 0 .8.4.7.9-.3 1.9-.3 11-.3 12.7 0 3.9.5 9.3.7 11.6 0 .6-.2.8-.7.9l-2.5.3c-.6.1-.8-.2-.9-1-.2-1.4-.9-4-1.2-5.2-.7-2.3-1.9-4-4.8-4.3-5.2-.6-12.9-.5-14.7-.5v6.9c0 6 .2 16.8.2 19.1.1 5.8 2.9 8 6.4 8.7 2.2.4 5.5.8 8.3.8 1.9 0 7.5-.1 9.8-.3 1.9-.2 6.8-1.5 9.7-3.9 1.3-1.1 7.6-9.2 9.1-11.7.3-.6.7-1 1.3-.7l1.8 1c.6.3.6.7.2 1.6l-5.9 16.4c-.3 1-1.1 1.7-2.5 1.7-.6 0-3-.1-9.7-.2-6.7 0-17.5-.1-34.9-.1-4.1 0-7.3.1-9.5.1-2.3.1-3.8.2-4.8.2-.7 0-1-.2-1-.8v-3c0-.4.3-.6 1.1-.6h4.5c5.1 0 5.6-.8 5.6-4.9V259c0-9.3-.2-23.2-.4-24.3-.4-3.6-1.6-4.4-5.7-4.3h-4c-.6 0-.9-.1-.9-.8v-3c0-.3.2-.6.8-.6 2.5 0 6.4.3 13.7.3h4.9c11 0 22.1-.1 33.1-.1 1.8 0 3.9-.2 4.5-.2.6 0 .8.2.9.6.4 1.6 5.4 16.8 5.7 18 .1.4.1.8-.3 1l-1.7.9c-.3.2-.8-.1-.9-.3-.2-.4-8.5-11-11.2-12.7-2.3-1.6-5.5-2.9-8.5-3l-19.9-.4.1 32.3z"/></g></svg>
